<?xml version="1.0" encoding="utf-8" standalone="no"?>
<!DOCTYPE svg PUBLIC "-//W3C//DTD SVG 1.1//EN"
  "http://www.w3.org/Graphics/SVG/1.1/DTD/svg11.dtd">
<svg height="648pt" version="1.1" viewBox="0 0 1152 648" width="1152pt" xmlns="http://www.w3.org/2000/svg" xmlns:xlink="http://www.w3.org/1999/xlink">
 <metadata>
  <rdf:RDF xmlns:cc="http://creativecommons.org/ns#" xmlns:dc="http://purl.org/dc/elements/1.1/" xmlns:rdf="http://www.w3.org/1999/02/22-rdf-syntax-ns#">
   <cc:Work>
    <dc:type rdf:resource="http://purl.org/dc/dcmitype/StillImage"/>
    <dc:date>2021-05-27T09:04:14.238739</dc:date>
    <dc:format>image/svg+xml</dc:format>
    <dc:creator>
     <cc:Agent>
      <dc:title>Matplotlib v3.4.2, https://matplotlib.org/</dc:title>
     </cc:Agent>
    </dc:creator>
   </cc:Work>
  </rdf:RDF>
 </metadata>
 <defs>
  <style type="text/css">*{stroke-linecap:butt;stroke-linejoin:round;}</style>
 </defs>
 <g id="figure_1">
  <g id="patch_1">
   <path d="M 0 648 
L 1152 648 
L 1152 0 
L 0 0 
z
" style="fill:#ffffff;"/>
  </g>
  <g id="axes_1">
   <g id="patch_2">
    <path d="M 144 576.72 
L 1036.8 576.72 
L 1036.8 77.76 
L 144 77.76 
z
" style="fill:#ffffff;"/>
   </g>
   <g id="matplotlib.axis_1">
    <g id="xtick_1">
     <g id="line2d_1">
      <defs>
       <path d="M 0 0 
L 0 3.5 
" id="m4482003dd9" style="stroke:#000000;stroke-width:0.8;"/>
      </defs>
      <g>
       <use style="stroke:#000000;stroke-width:0.8;" x="144" xlink:href="#m4482003dd9" y="576.72"/>
      </g>
     </g>
    </g>
    <g id="xtick_2">
     <g id="line2d_2">
      <g>
       <use style="stroke:#000000;stroke-width:0.8;" x="208.895154" xlink:href="#m4482003dd9" y="576.72"/>
      </g>
     </g>
     <g id="text_1">
      <!-- Apr -->
      <g transform="translate(200.245154 591.318438)scale(0.1 -0.1)">
       <defs>
        <path d="M 2188 4044 
L 1331 1722 
L 3047 1722 
L 2188 4044 
z
M 1831 4666 
L 2547 4666 
L 4325 0 
L 3669 0 
L 3244 1197 
L 1141 1197 
L 716 0 
L 50 0 
L 1831 4666 
z
" id="DejaVuSans-41" transform="scale(0.015625)"/>
        <path d="M 1159 525 
L 1159 -1331 
L 581 -1331 
L 581 3500 
L 1159 3500 
L 1159 2969 
Q 1341 3281 1617 3432 
Q 1894 3584 2278 3584 
Q 2916 3584 3314 3078 
Q 3713 2572 3713 1747 
Q 3713 922 3314 415 
Q 2916 -91 2278 -91 
Q 1894 -91 1617 61 
Q 1341 213 1159 525 
z
M 3116 1747 
Q 3116 2381 2855 2742 
Q 2594 3103 2138 3103 
Q 1681 3103 1420 2742 
Q 1159 2381 1159 1747 
Q 1159 1113 1420 752 
Q 1681 391 2138 391 
Q 2594 391 2855 752 
Q 3116 1113 3116 1747 
z
" id="DejaVuSans-70" transform="scale(0.015625)"/>
        <path d="M 2631 2963 
Q 2534 3019 2420 3045 
Q 2306 3072 2169 3072 
Q 1681 3072 1420 2755 
Q 1159 2438 1159 1844 
L 1159 0 
L 581 0 
L 581 3500 
L 1159 3500 
L 1159 2956 
Q 1341 3275 1631 3429 
Q 1922 3584 2338 3584 
Q 2397 3584 2469 3576 
Q 2541 3569 2628 3553 
L 2631 2963 
z
" id="DejaVuSans-72" transform="scale(0.015625)"/>
       </defs>
       <use xlink:href="#DejaVuSans-41"/>
       <use x="68.408203" xlink:href="#DejaVuSans-70"/>
       <use x="131.884766" xlink:href="#DejaVuSans-72"/>
      </g>
     </g>
    </g>
    <g id="xtick_3">
     <g id="line2d_3">
      <g>
       <use style="stroke:#000000;stroke-width:0.8;" x="387.848458" xlink:href="#m4482003dd9" y="576.72"/>
      </g>
     </g>
     <g id="text_2">
      <!-- Jul -->
      <g transform="translate(381.815646 591.318438)scale(0.1 -0.1)">
       <defs>
        <path d="M 628 4666 
L 1259 4666 
L 1259 325 
Q 1259 -519 939 -900 
Q 619 -1281 -91 -1281 
L -331 -1281 
L -331 -750 
L -134 -750 
Q 284 -750 456 -515 
Q 628 -281 628 325 
L 628 4666 
z
" id="DejaVuSans-4a" transform="scale(0.015625)"/>
        <path d="M 544 1381 
L 544 3500 
L 1119 3500 
L 1119 1403 
Q 1119 906 1312 657 
Q 1506 409 1894 409 
Q 2359 409 2629 706 
Q 2900 1003 2900 1516 
L 2900 3500 
L 3475 3500 
L 3475 0 
L 2900 0 
L 2900 538 
Q 2691 219 2414 64 
Q 2138 -91 1772 -91 
Q 1169 -91 856 284 
Q 544 659 544 1381 
z
M 1991 3584 
L 1991 3584 
z
" id="DejaVuSans-75" transform="scale(0.015625)"/>
        <path d="M 603 4863 
L 1178 4863 
L 1178 0 
L 603 0 
L 603 4863 
z
" id="DejaVuSans-6c" transform="scale(0.015625)"/>
       </defs>
       <use xlink:href="#DejaVuSans-4a"/>
       <use x="29.492188" xlink:href="#DejaVuSans-75"/>
       <use x="92.871094" xlink:href="#DejaVuSans-6c"/>
      </g>
     </g>
    </g>
    <g id="xtick_4">
     <g id="line2d_4">
      <g>
       <use style="stroke:#000000;stroke-width:0.8;" x="568.768282" xlink:href="#m4482003dd9" y="576.72"/>
      </g>
     </g>
     <g id="text_3">
      <!-- Oct -->
      <g transform="translate(560.122969 591.318438)scale(0.1 -0.1)">
       <defs>
        <path d="M 2522 4238 
Q 1834 4238 1429 3725 
Q 1025 3213 1025 2328 
Q 1025 1447 1429 934 
Q 1834 422 2522 422 
Q 3209 422 3611 934 
Q 4013 1447 4013 2328 
Q 4013 3213 3611 3725 
Q 3209 4238 2522 4238 
z
M 2522 4750 
Q 3503 4750 4090 4092 
Q 4678 3434 4678 2328 
Q 4678 1225 4090 567 
Q 3503 -91 2522 -91 
Q 1538 -91 948 565 
Q 359 1222 359 2328 
Q 359 3434 948 4092 
Q 1538 4750 2522 4750 
z
" id="DejaVuSans-4f" transform="scale(0.015625)"/>
        <path d="M 3122 3366 
L 3122 2828 
Q 2878 2963 2633 3030 
Q 2388 3097 2138 3097 
Q 1578 3097 1268 2742 
Q 959 2388 959 1747 
Q 959 1106 1268 751 
Q 1578 397 2138 397 
Q 2388 397 2633 464 
Q 2878 531 3122 666 
L 3122 134 
Q 2881 22 2623 -34 
Q 2366 -91 2075 -91 
Q 1284 -91 818 406 
Q 353 903 353 1747 
Q 353 2603 823 3093 
Q 1294 3584 2113 3584 
Q 2378 3584 2631 3529 
Q 2884 3475 3122 3366 
z
" id="DejaVuSans-63" transform="scale(0.015625)"/>
        <path d="M 1172 4494 
L 1172 3500 
L 2356 3500 
L 2356 3053 
L 1172 3053 
L 1172 1153 
Q 1172 725 1289 603 
Q 1406 481 1766 481 
L 2356 481 
L 2356 0 
L 1766 0 
Q 1100 0 847 248 
Q 594 497 594 1153 
L 594 3053 
L 172 3053 
L 172 3500 
L 594 3500 
L 594 4494 
L 1172 4494 
z
" id="DejaVuSans-74" transform="scale(0.015625)"/>
       </defs>
       <use xlink:href="#DejaVuSans-4f"/>
       <use x="78.710938" xlink:href="#DejaVuSans-63"/>
       <use x="133.691406" xlink:href="#DejaVuSans-74"/>
      </g>
     </g>
    </g>
    <g id="xtick_5">
     <g id="line2d_5">
      <g>
       <use style="stroke:#000000;stroke-width:0.8;" x="749.688106" xlink:href="#m4482003dd9" y="576.72"/>
      </g>
     </g>
     <g id="text_4">
      <!-- Jan -->
      <g transform="translate(741.980293 591.318438)scale(0.1 -0.1)">
       <defs>
        <path d="M 2194 1759 
Q 1497 1759 1228 1600 
Q 959 1441 959 1056 
Q 959 750 1161 570 
Q 1363 391 1709 391 
Q 2188 391 2477 730 
Q 2766 1069 2766 1631 
L 2766 1759 
L 2194 1759 
z
M 3341 1997 
L 3341 0 
L 2766 0 
L 2766 531 
Q 2569 213 2275 61 
Q 1981 -91 1556 -91 
Q 1019 -91 701 211 
Q 384 513 384 1019 
Q 384 1609 779 1909 
Q 1175 2209 1959 2209 
L 2766 2209 
L 2766 2266 
Q 2766 2663 2505 2880 
Q 2244 3097 1772 3097 
Q 1472 3097 1187 3025 
Q 903 2953 641 2809 
L 641 3341 
Q 956 3463 1253 3523 
Q 1550 3584 1831 3584 
Q 2591 3584 2966 3190 
Q 3341 2797 3341 1997 
z
" id="DejaVuSans-61" transform="scale(0.015625)"/>
        <path d="M 3513 2113 
L 3513 0 
L 2938 0 
L 2938 2094 
Q 2938 2591 2744 2837 
Q 2550 3084 2163 3084 
Q 1697 3084 1428 2787 
Q 1159 2491 1159 1978 
L 1159 0 
L 581 0 
L 581 3500 
L 1159 3500 
L 1159 2956 
Q 1366 3272 1645 3428 
Q 1925 3584 2291 3584 
Q 2894 3584 3203 3211 
Q 3513 2838 3513 2113 
z
" id="DejaVuSans-6e" transform="scale(0.015625)"/>
       </defs>
       <use xlink:href="#DejaVuSans-4a"/>
       <use x="29.492188" xlink:href="#DejaVuSans-61"/>
       <use x="90.771484" xlink:href="#DejaVuSans-6e"/>
      </g>
      <!-- 2021 -->
      <g transform="translate(736.963106 602.51625)scale(0.1 -0.1)">
       <defs>
        <path d="M 1228 531 
L 3431 531 
L 3431 0 
L 469 0 
L 469 531 
Q 828 903 1448 1529 
Q 2069 2156 2228 2338 
Q 2531 2678 2651 2914 
Q 2772 3150 2772 3378 
Q 2772 3750 2511 3984 
Q 2250 4219 1831 4219 
Q 1534 4219 1204 4116 
Q 875 4013 500 3803 
L 500 4441 
Q 881 4594 1212 4672 
Q 1544 4750 1819 4750 
Q 2544 4750 2975 4387 
Q 3406 4025 3406 3419 
Q 3406 3131 3298 2873 
Q 3191 2616 2906 2266 
Q 2828 2175 2409 1742 
Q 1991 1309 1228 531 
z
" id="DejaVuSans-32" transform="scale(0.015625)"/>
        <path d="M 2034 4250 
Q 1547 4250 1301 3770 
Q 1056 3291 1056 2328 
Q 1056 1369 1301 889 
Q 1547 409 2034 409 
Q 2525 409 2770 889 
Q 3016 1369 3016 2328 
Q 3016 3291 2770 3770 
Q 2525 4250 2034 4250 
z
M 2034 4750 
Q 2819 4750 3233 4129 
Q 3647 3509 3647 2328 
Q 3647 1150 3233 529 
Q 2819 -91 2034 -91 
Q 1250 -91 836 529 
Q 422 1150 422 2328 
Q 422 3509 836 4129 
Q 1250 4750 2034 4750 
z
" id="DejaVuSans-30" transform="scale(0.015625)"/>
        <path d="M 794 531 
L 1825 531 
L 1825 4091 
L 703 3866 
L 703 4441 
L 1819 4666 
L 2450 4666 
L 2450 531 
L 3481 531 
L 3481 0 
L 794 0 
L 794 531 
z
" id="DejaVuSans-31" transform="scale(0.015625)"/>
       </defs>
       <use xlink:href="#DejaVuSans-32"/>
       <use x="63.623047" xlink:href="#DejaVuSans-30"/>
       <use x="127.246094" xlink:href="#DejaVuSans-32"/>
       <use x="190.869141" xlink:href="#DejaVuSans-31"/>
      </g>
     </g>
    </g>
    <g id="xtick_6">
     <g id="line2d_6">
      <g>
       <use style="stroke:#000000;stroke-width:0.8;" x="926.67489" xlink:href="#m4482003dd9" y="576.72"/>
      </g>
     </g>
     <g id="text_5">
      <!-- Apr -->
      <g transform="translate(918.02489 591.318438)scale(0.1 -0.1)">
       <use xlink:href="#DejaVuSans-41"/>
       <use x="68.408203" xlink:href="#DejaVuSans-70"/>
       <use x="131.884766" xlink:href="#DejaVuSans-72"/>
      </g>
     </g>
    </g>
    <g id="xtick_7">
     <g id="line2d_7">
      <g>
       <use style="stroke:#000000;stroke-width:0.8;" x="1036.8" xlink:href="#m4482003dd9" y="576.72"/>
      </g>
     </g>
    </g>
    <g id="xtick_8">
     <g id="line2d_8">
      <defs>
       <path d="M 0 0 
L 0 2 
" id="m1db9dd421b" style="stroke:#000000;stroke-width:0.6;"/>
      </defs>
      <g>
       <use style="stroke:#000000;stroke-width:0.6;" x="147.93304" xlink:href="#m1db9dd421b" y="576.72"/>
      </g>
     </g>
    </g>
    <g id="xtick_9">
     <g id="line2d_9">
      <g>
       <use style="stroke:#000000;stroke-width:0.6;" x="267.890749" xlink:href="#m1db9dd421b" y="576.72"/>
      </g>
     </g>
    </g>
    <g id="xtick_10">
     <g id="line2d_10">
      <g>
       <use style="stroke:#000000;stroke-width:0.6;" x="328.852863" xlink:href="#m1db9dd421b" y="576.72"/>
      </g>
     </g>
    </g>
    <g id="xtick_11">
     <g id="line2d_11">
      <g>
       <use style="stroke:#000000;stroke-width:0.6;" x="448.810573" xlink:href="#m1db9dd421b" y="576.72"/>
      </g>
     </g>
    </g>
    <g id="xtick_12">
     <g id="line2d_12">
      <g>
       <use style="stroke:#000000;stroke-width:0.6;" x="509.772687" xlink:href="#m1db9dd421b" y="576.72"/>
      </g>
     </g>
    </g>
    <g id="xtick_13">
     <g id="line2d_13">
      <g>
       <use style="stroke:#000000;stroke-width:0.6;" x="629.730396" xlink:href="#m1db9dd421b" y="576.72"/>
      </g>
     </g>
    </g>
    <g id="xtick_14">
     <g id="line2d_14">
      <g>
       <use style="stroke:#000000;stroke-width:0.6;" x="688.725991" xlink:href="#m1db9dd421b" y="576.72"/>
      </g>
     </g>
    </g>
    <g id="xtick_15">
     <g id="line2d_15">
      <g>
       <use style="stroke:#000000;stroke-width:0.6;" x="810.65022" xlink:href="#m1db9dd421b" y="576.72"/>
      </g>
     </g>
    </g>
    <g id="xtick_16">
     <g id="line2d_16">
      <g>
       <use style="stroke:#000000;stroke-width:0.6;" x="865.712775" xlink:href="#m1db9dd421b" y="576.72"/>
      </g>
     </g>
    </g>
    <g id="xtick_17">
     <g id="line2d_17">
      <g>
       <use style="stroke:#000000;stroke-width:0.6;" x="985.670485" xlink:href="#m1db9dd421b" y="576.72"/>
      </g>
     </g>
    </g>
    <g id="text_6">
     <!-- Stand -->
     <g transform="translate(575.858594 616.194375)scale(0.1 -0.1)">
      <defs>
       <path d="M 3425 4513 
L 3425 3897 
Q 3066 4069 2747 4153 
Q 2428 4238 2131 4238 
Q 1616 4238 1336 4038 
Q 1056 3838 1056 3469 
Q 1056 3159 1242 3001 
Q 1428 2844 1947 2747 
L 2328 2669 
Q 3034 2534 3370 2195 
Q 3706 1856 3706 1288 
Q 3706 609 3251 259 
Q 2797 -91 1919 -91 
Q 1588 -91 1214 -16 
Q 841 59 441 206 
L 441 856 
Q 825 641 1194 531 
Q 1563 422 1919 422 
Q 2459 422 2753 634 
Q 3047 847 3047 1241 
Q 3047 1584 2836 1778 
Q 2625 1972 2144 2069 
L 1759 2144 
Q 1053 2284 737 2584 
Q 422 2884 422 3419 
Q 422 4038 858 4394 
Q 1294 4750 2059 4750 
Q 2388 4750 2728 4690 
Q 3069 4631 3425 4513 
z
" id="DejaVuSans-53" transform="scale(0.015625)"/>
       <path d="M 2906 2969 
L 2906 4863 
L 3481 4863 
L 3481 0 
L 2906 0 
L 2906 525 
Q 2725 213 2448 61 
Q 2172 -91 1784 -91 
Q 1150 -91 751 415 
Q 353 922 353 1747 
Q 353 2572 751 3078 
Q 1150 3584 1784 3584 
Q 2172 3584 2448 3432 
Q 2725 3281 2906 2969 
z
M 947 1747 
Q 947 1113 1208 752 
Q 1469 391 1925 391 
Q 2381 391 2643 752 
Q 2906 1113 2906 1747 
Q 2906 2381 2643 2742 
Q 2381 3103 1925 3103 
Q 1469 3103 1208 2742 
Q 947 2381 947 1747 
z
" id="DejaVuSans-64" transform="scale(0.015625)"/>
      </defs>
      <use xlink:href="#DejaVuSans-53"/>
      <use x="63.476562" xlink:href="#DejaVuSans-74"/>
      <use x="102.685547" xlink:href="#DejaVuSans-61"/>
      <use x="163.964844" xlink:href="#DejaVuSans-6e"/>
      <use x="227.34375" xlink:href="#DejaVuSans-64"/>
     </g>
    </g>
   </g>
   <g id="matplotlib.axis_2">
    <g id="ytick_1">
     <g id="line2d_18">
      <defs>
       <path d="M 0 0 
L -3.5 0 
" id="mfd724fa369" style="stroke:#000000;stroke-width:0.8;"/>
      </defs>
      <g>
       <use style="stroke:#000000;stroke-width:0.8;" x="144" xlink:href="#mfd724fa369" y="554.04"/>
      </g>
     </g>
     <g id="text_7">
      <!-- 0 -->
      <g transform="translate(130.6375 557.839219)scale(0.1 -0.1)">
       <use xlink:href="#DejaVuSans-30"/>
      </g>
     </g>
    </g>
    <g id="ytick_2">
     <g id="line2d_19">
      <g>
       <use style="stroke:#000000;stroke-width:0.8;" x="144" xlink:href="#mfd724fa369" y="470.04"/>
      </g>
     </g>
     <g id="text_8">
      <!-- 5 -->
      <g transform="translate(130.6375 473.839219)scale(0.1 -0.1)">
       <defs>
        <path d="M 691 4666 
L 3169 4666 
L 3169 4134 
L 1269 4134 
L 1269 2991 
Q 1406 3038 1543 3061 
Q 1681 3084 1819 3084 
Q 2600 3084 3056 2656 
Q 3513 2228 3513 1497 
Q 3513 744 3044 326 
Q 2575 -91 1722 -91 
Q 1428 -91 1123 -41 
Q 819 9 494 109 
L 494 744 
Q 775 591 1075 516 
Q 1375 441 1709 441 
Q 2250 441 2565 725 
Q 2881 1009 2881 1497 
Q 2881 1984 2565 2268 
Q 2250 2553 1709 2553 
Q 1456 2553 1204 2497 
Q 953 2441 691 2322 
L 691 4666 
z
" id="DejaVuSans-35" transform="scale(0.015625)"/>
       </defs>
       <use xlink:href="#DejaVuSans-35"/>
      </g>
     </g>
    </g>
    <g id="ytick_3">
     <g id="line2d_20">
      <g>
       <use style="stroke:#000000;stroke-width:0.8;" x="144" xlink:href="#mfd724fa369" y="386.04"/>
      </g>
     </g>
     <g id="text_9">
      <!-- 10 -->
      <g transform="translate(124.275 389.839219)scale(0.1 -0.1)">
       <use xlink:href="#DejaVuSans-31"/>
       <use x="63.623047" xlink:href="#DejaVuSans-30"/>
      </g>
     </g>
    </g>
    <g id="ytick_4">
     <g id="line2d_21">
      <g>
       <use style="stroke:#000000;stroke-width:0.8;" x="144" xlink:href="#mfd724fa369" y="302.04"/>
      </g>
     </g>
     <g id="text_10">
      <!-- 15 -->
      <g transform="translate(124.275 305.839219)scale(0.1 -0.1)">
       <use xlink:href="#DejaVuSans-31"/>
       <use x="63.623047" xlink:href="#DejaVuSans-35"/>
      </g>
     </g>
    </g>
    <g id="ytick_5">
     <g id="line2d_22">
      <g>
       <use style="stroke:#000000;stroke-width:0.8;" x="144" xlink:href="#mfd724fa369" y="218.04"/>
      </g>
     </g>
     <g id="text_11">
      <!-- 20 -->
      <g transform="translate(124.275 221.839219)scale(0.1 -0.1)">
       <use xlink:href="#DejaVuSans-32"/>
       <use x="63.623047" xlink:href="#DejaVuSans-30"/>
      </g>
     </g>
    </g>
    <g id="ytick_6">
     <g id="line2d_23">
      <g>
       <use style="stroke:#000000;stroke-width:0.8;" x="144" xlink:href="#mfd724fa369" y="134.04"/>
      </g>
     </g>
     <g id="text_12">
      <!-- 25 -->
      <g transform="translate(124.275 137.839219)scale(0.1 -0.1)">
       <use xlink:href="#DejaVuSans-32"/>
       <use x="63.623047" xlink:href="#DejaVuSans-35"/>
      </g>
     </g>
    </g>
   </g>
   <g id="line2d_24">
    <path clip-path="url(#p9d51216f04)" d="M 144 554.04 
L 201.029075 554.04 
L 202.995595 537.24 
L 204.962115 554.04 
L 206.928634 554.04 
L 208.895154 520.44 
L 210.861674 554.04 
L 212.828194 537.24 
L 214.794714 537.24 
L 216.761233 554.04 
L 222.660793 503.64 
L 224.627313 554.04 
L 236.426432 554.04 
L 238.392952 520.44 
L 240.359471 554.04 
L 242.325991 537.24 
L 244.292511 537.24 
L 246.259031 554.04 
L 252.15859 554.04 
L 254.12511 537.24 
L 256.09163 554.04 
L 260.02467 554.04 
L 261.991189 537.24 
L 263.957709 554.04 
L 265.924229 554.04 
L 267.890749 537.24 
L 269.857269 554.04 
L 273.790308 554.04 
L 275.756828 537.24 
L 277.723348 554.04 
L 287.555947 554.04 
L 289.522467 537.24 
L 291.488987 554.04 
L 600.232599 554.04 
L 602.199119 537.24 
L 604.165639 554.04 
L 617.931278 554.04 
L 619.897797 537.24 
L 621.864317 554.04 
L 623.830837 554.04 
L 625.797357 537.24 
L 627.763877 554.04 
L 637.596476 554.04 
L 639.562996 537.24 
L 641.529515 470.04 
L 643.496035 554.04 
L 645.462555 537.24 
L 647.429075 537.24 
L 649.395595 503.64 
L 651.362115 554.04 
L 653.328634 520.44 
L 655.295154 537.24 
L 657.261674 537.24 
L 659.228194 554.04 
L 663.161233 486.84 
L 667.094273 520.44 
L 669.060793 486.84 
L 671.027313 554.04 
L 672.993833 554.04 
L 674.960352 537.24 
L 676.926872 537.24 
L 678.893392 520.44 
L 680.859912 537.24 
L 682.826432 503.64 
L 684.792952 554.04 
L 686.759471 554.04 
L 688.725991 503.64 
L 690.692511 537.24 
L 692.659031 503.64 
L 694.625551 503.64 
L 698.55859 537.24 
L 700.52511 537.24 
L 702.49163 503.64 
L 704.45815 419.64 
L 706.42467 520.44 
L 708.391189 453.24 
L 710.357709 520.44 
L 712.324229 554.04 
L 714.290749 520.44 
L 718.223789 520.44 
L 720.190308 436.44 
L 722.156828 520.44 
L 724.123348 503.64 
L 726.089868 503.64 
L 728.056388 520.44 
L 730.022907 520.44 
L 731.989427 453.24 
L 733.955947 436.44 
L 735.922467 554.04 
L 737.888987 470.04 
L 741.822026 537.24 
L 743.788546 402.84 
L 745.755066 402.84 
L 747.721586 386.04 
L 749.688106 537.24 
L 751.654626 537.24 
L 753.621145 486.84 
L 755.587665 520.44 
L 757.554185 386.04 
L 759.520705 369.24 
L 761.487225 302.04 
L 763.453744 369.24 
L 765.420264 402.84 
L 767.386784 486.84 
L 769.353304 503.64 
L 771.319824 352.44 
L 773.286344 453.24 
L 775.252863 419.64 
L 777.219383 318.84 
L 779.185903 318.84 
L 781.152423 520.44 
L 783.118943 386.04 
L 785.085463 520.44 
L 787.051982 318.84 
L 789.018502 285.24 
L 790.985022 486.84 
L 792.951542 369.24 
L 794.918062 419.64 
L 796.884581 453.24 
L 798.851101 302.04 
L 800.817621 302.04 
L 802.784141 386.04 
L 804.750661 318.84 
L 806.717181 218.04 
L 808.6837 470.04 
L 810.65022 503.64 
L 812.61674 167.64 
L 814.58326 453.24 
L 816.54978 117.24 
L 818.5163 318.84 
L 820.482819 184.44 
L 822.449339 520.44 
L 824.415859 419.64 
L 826.382379 100.44 
L 830.315419 436.44 
L 832.281938 369.24 
L 834.248458 352.44 
L 836.214978 520.44 
L 838.181498 453.24 
L 840.148018 369.24 
L 842.114537 352.44 
L 844.081057 436.44 
L 846.047577 285.24 
L 848.014097 470.04 
L 851.947137 503.64 
L 853.913656 335.64 
L 857.846696 470.04 
L 859.813216 419.64 
L 861.779736 402.84 
L 863.746256 503.64 
L 865.712775 554.04 
L 867.679295 453.24 
L 869.645815 436.44 
L 871.612335 470.04 
L 873.578855 402.84 
L 875.545374 436.44 
L 877.511894 537.24 
L 879.478414 537.24 
L 881.444934 402.84 
L 883.411454 470.04 
L 885.377974 503.64 
L 887.344493 419.64 
L 889.311013 486.84 
L 893.244053 554.04 
L 895.210573 470.04 
L 897.177093 470.04 
L 899.143612 537.24 
L 901.110132 453.24 
L 903.076652 520.44 
L 905.043172 503.64 
L 907.009692 537.24 
L 908.976211 503.64 
L 910.942731 503.64 
L 912.909251 520.44 
L 914.875771 470.04 
L 916.842291 537.24 
L 918.808811 503.64 
L 920.77533 537.24 
L 922.74185 486.84 
L 924.70837 453.24 
L 926.67489 386.04 
L 928.64141 486.84 
L 930.60793 537.24 
L 932.574449 503.64 
L 934.540969 554.04 
L 940.440529 453.24 
L 942.407048 386.04 
L 944.373568 503.64 
L 946.340088 503.64 
L 948.306608 486.84 
L 950.273128 436.44 
L 952.239648 520.44 
L 954.206167 503.64 
L 956.172687 520.44 
L 958.139207 470.04 
L 960.105727 554.04 
L 962.072247 537.24 
L 964.038767 436.44 
L 966.005286 369.24 
L 967.971806 470.04 
L 969.938326 453.24 
L 971.904846 453.24 
L 973.871366 520.44 
L 975.837885 503.64 
L 977.804405 402.84 
L 979.770925 486.84 
L 981.737445 470.04 
L 983.703965 386.04 
L 985.670485 503.64 
L 987.637004 537.24 
L 989.603524 537.24 
L 991.570044 402.84 
L 993.536564 520.44 
L 995.503084 436.44 
L 997.469604 318.84 
L 999.436123 402.84 
L 1001.402643 520.44 
L 1003.369163 537.24 
L 1005.335683 369.24 
L 1007.302203 486.84 
L 1009.268722 402.84 
L 1011.235242 537.24 
L 1013.201762 453.24 
L 1015.168282 503.64 
L 1017.134802 537.24 
L 1019.101322 436.44 
L 1021.067841 503.64 
L 1023.034361 470.04 
L 1025.000881 402.84 
L 1026.967401 503.64 
L 1032.86696 554.04 
L 1034.83348 486.84 
L 1036.8 503.64 
L 1036.8 503.64 
" style="fill:none;stroke:#808080;stroke-dasharray:1.5,2.475;stroke-dashoffset:0;stroke-width:1.5;"/>
    <defs>
     <path d="M -3 0 
L 3 0 
M 0 3 
L 0 -3 
" id="m29ad0ee8bc" style="stroke:#808080;"/>
    </defs>
    <g clip-path="url(#p9d51216f04)">
     <use style="fill:#808080;stroke:#808080;" x="144" xlink:href="#m29ad0ee8bc" y="554.04"/>
     <use style="fill:#808080;stroke:#808080;" x="145.96652" xlink:href="#m29ad0ee8bc" y="554.04"/>
     <use style="fill:#808080;stroke:#808080;" x="147.93304" xlink:href="#m29ad0ee8bc" y="554.04"/>
     <use style="fill:#808080;stroke:#808080;" x="149.899559" xlink:href="#m29ad0ee8bc" y="554.04"/>
     <use style="fill:#808080;stroke:#808080;" x="151.866079" xlink:href="#m29ad0ee8bc" y="554.04"/>
     <use style="fill:#808080;stroke:#808080;" x="153.832599" xlink:href="#m29ad0ee8bc" y="554.04"/>
     <use style="fill:#808080;stroke:#808080;" x="155.799119" xlink:href="#m29ad0ee8bc" y="554.04"/>
     <use style="fill:#808080;stroke:#808080;" x="157.765639" xlink:href="#m29ad0ee8bc" y="554.04"/>
     <use style="fill:#808080;stroke:#808080;" x="159.732159" xlink:href="#m29ad0ee8bc" y="554.04"/>
     <use style="fill:#808080;stroke:#808080;" x="161.698678" xlink:href="#m29ad0ee8bc" y="554.04"/>
     <use style="fill:#808080;stroke:#808080;" x="163.665198" xlink:href="#m29ad0ee8bc" y="554.04"/>
     <use style="fill:#808080;stroke:#808080;" x="165.631718" xlink:href="#m29ad0ee8bc" y="554.04"/>
     <use style="fill:#808080;stroke:#808080;" x="167.598238" xlink:href="#m29ad0ee8bc" y="554.04"/>
     <use style="fill:#808080;stroke:#808080;" x="169.564758" xlink:href="#m29ad0ee8bc" y="554.04"/>
     <use style="fill:#808080;stroke:#808080;" x="171.531278" xlink:href="#m29ad0ee8bc" y="554.04"/>
     <use style="fill:#808080;stroke:#808080;" x="173.497797" xlink:href="#m29ad0ee8bc" y="554.04"/>
     <use style="fill:#808080;stroke:#808080;" x="175.464317" xlink:href="#m29ad0ee8bc" y="554.04"/>
     <use style="fill:#808080;stroke:#808080;" x="177.430837" xlink:href="#m29ad0ee8bc" y="554.04"/>
     <use style="fill:#808080;stroke:#808080;" x="179.397357" xlink:href="#m29ad0ee8bc" y="554.04"/>
     <use style="fill:#808080;stroke:#808080;" x="181.363877" xlink:href="#m29ad0ee8bc" y="554.04"/>
     <use style="fill:#808080;stroke:#808080;" x="183.330396" xlink:href="#m29ad0ee8bc" y="554.04"/>
     <use style="fill:#808080;stroke:#808080;" x="185.296916" xlink:href="#m29ad0ee8bc" y="554.04"/>
     <use style="fill:#808080;stroke:#808080;" x="187.263436" xlink:href="#m29ad0ee8bc" y="554.04"/>
     <use style="fill:#808080;stroke:#808080;" x="189.229956" xlink:href="#m29ad0ee8bc" y="554.04"/>
     <use style="fill:#808080;stroke:#808080;" x="191.196476" xlink:href="#m29ad0ee8bc" y="554.04"/>
     <use style="fill:#808080;stroke:#808080;" x="193.162996" xlink:href="#m29ad0ee8bc" y="554.04"/>
     <use style="fill:#808080;stroke:#808080;" x="195.129515" xlink:href="#m29ad0ee8bc" y="554.04"/>
     <use style="fill:#808080;stroke:#808080;" x="197.096035" xlink:href="#m29ad0ee8bc" y="554.04"/>
     <use style="fill:#808080;stroke:#808080;" x="199.062555" xlink:href="#m29ad0ee8bc" y="554.04"/>
     <use style="fill:#808080;stroke:#808080;" x="201.029075" xlink:href="#m29ad0ee8bc" y="554.04"/>
     <use style="fill:#808080;stroke:#808080;" x="202.995595" xlink:href="#m29ad0ee8bc" y="537.24"/>
     <use style="fill:#808080;stroke:#808080;" x="204.962115" xlink:href="#m29ad0ee8bc" y="554.04"/>
     <use style="fill:#808080;stroke:#808080;" x="206.928634" xlink:href="#m29ad0ee8bc" y="554.04"/>
     <use style="fill:#808080;stroke:#808080;" x="208.895154" xlink:href="#m29ad0ee8bc" y="520.44"/>
     <use style="fill:#808080;stroke:#808080;" x="210.861674" xlink:href="#m29ad0ee8bc" y="554.04"/>
     <use style="fill:#808080;stroke:#808080;" x="212.828194" xlink:href="#m29ad0ee8bc" y="537.24"/>
     <use style="fill:#808080;stroke:#808080;" x="214.794714" xlink:href="#m29ad0ee8bc" y="537.24"/>
     <use style="fill:#808080;stroke:#808080;" x="216.761233" xlink:href="#m29ad0ee8bc" y="554.04"/>
     <use style="fill:#808080;stroke:#808080;" x="218.727753" xlink:href="#m29ad0ee8bc" y="537.24"/>
     <use style="fill:#808080;stroke:#808080;" x="220.694273" xlink:href="#m29ad0ee8bc" y="520.44"/>
     <use style="fill:#808080;stroke:#808080;" x="222.660793" xlink:href="#m29ad0ee8bc" y="503.64"/>
     <use style="fill:#808080;stroke:#808080;" x="224.627313" xlink:href="#m29ad0ee8bc" y="554.04"/>
     <use style="fill:#808080;stroke:#808080;" x="226.593833" xlink:href="#m29ad0ee8bc" y="554.04"/>
     <use style="fill:#808080;stroke:#808080;" x="228.560352" xlink:href="#m29ad0ee8bc" y="554.04"/>
     <use style="fill:#808080;stroke:#808080;" x="230.526872" xlink:href="#m29ad0ee8bc" y="554.04"/>
     <use style="fill:#808080;stroke:#808080;" x="232.493392" xlink:href="#m29ad0ee8bc" y="554.04"/>
     <use style="fill:#808080;stroke:#808080;" x="234.459912" xlink:href="#m29ad0ee8bc" y="554.04"/>
     <use style="fill:#808080;stroke:#808080;" x="236.426432" xlink:href="#m29ad0ee8bc" y="554.04"/>
     <use style="fill:#808080;stroke:#808080;" x="238.392952" xlink:href="#m29ad0ee8bc" y="520.44"/>
     <use style="fill:#808080;stroke:#808080;" x="240.359471" xlink:href="#m29ad0ee8bc" y="554.04"/>
     <use style="fill:#808080;stroke:#808080;" x="242.325991" xlink:href="#m29ad0ee8bc" y="537.24"/>
     <use style="fill:#808080;stroke:#808080;" x="244.292511" xlink:href="#m29ad0ee8bc" y="537.24"/>
     <use style="fill:#808080;stroke:#808080;" x="246.259031" xlink:href="#m29ad0ee8bc" y="554.04"/>
     <use style="fill:#808080;stroke:#808080;" x="248.225551" xlink:href="#m29ad0ee8bc" y="554.04"/>
     <use style="fill:#808080;stroke:#808080;" x="250.19207" xlink:href="#m29ad0ee8bc" y="554.04"/>
     <use style="fill:#808080;stroke:#808080;" x="252.15859" xlink:href="#m29ad0ee8bc" y="554.04"/>
     <use style="fill:#808080;stroke:#808080;" x="254.12511" xlink:href="#m29ad0ee8bc" y="537.24"/>
     <use style="fill:#808080;stroke:#808080;" x="256.09163" xlink:href="#m29ad0ee8bc" y="554.04"/>
     <use style="fill:#808080;stroke:#808080;" x="258.05815" xlink:href="#m29ad0ee8bc" y="554.04"/>
     <use style="fill:#808080;stroke:#808080;" x="260.02467" xlink:href="#m29ad0ee8bc" y="554.04"/>
     <use style="fill:#808080;stroke:#808080;" x="261.991189" xlink:href="#m29ad0ee8bc" y="537.24"/>
     <use style="fill:#808080;stroke:#808080;" x="263.957709" xlink:href="#m29ad0ee8bc" y="554.04"/>
     <use style="fill:#808080;stroke:#808080;" x="265.924229" xlink:href="#m29ad0ee8bc" y="554.04"/>
     <use style="fill:#808080;stroke:#808080;" x="267.890749" xlink:href="#m29ad0ee8bc" y="537.24"/>
     <use style="fill:#808080;stroke:#808080;" x="269.857269" xlink:href="#m29ad0ee8bc" y="554.04"/>
     <use style="fill:#808080;stroke:#808080;" x="271.823789" xlink:href="#m29ad0ee8bc" y="554.04"/>
     <use style="fill:#808080;stroke:#808080;" x="273.790308" xlink:href="#m29ad0ee8bc" y="554.04"/>
     <use style="fill:#808080;stroke:#808080;" x="275.756828" xlink:href="#m29ad0ee8bc" y="537.24"/>
     <use style="fill:#808080;stroke:#808080;" x="277.723348" xlink:href="#m29ad0ee8bc" y="554.04"/>
     <use style="fill:#808080;stroke:#808080;" x="279.689868" xlink:href="#m29ad0ee8bc" y="554.04"/>
     <use style="fill:#808080;stroke:#808080;" x="281.656388" xlink:href="#m29ad0ee8bc" y="554.04"/>
     <use style="fill:#808080;stroke:#808080;" x="283.622907" xlink:href="#m29ad0ee8bc" y="554.04"/>
     <use style="fill:#808080;stroke:#808080;" x="285.589427" xlink:href="#m29ad0ee8bc" y="554.04"/>
     <use style="fill:#808080;stroke:#808080;" x="287.555947" xlink:href="#m29ad0ee8bc" y="554.04"/>
     <use style="fill:#808080;stroke:#808080;" x="289.522467" xlink:href="#m29ad0ee8bc" y="537.24"/>
     <use style="fill:#808080;stroke:#808080;" x="291.488987" xlink:href="#m29ad0ee8bc" y="554.04"/>
     <use style="fill:#808080;stroke:#808080;" x="293.455507" xlink:href="#m29ad0ee8bc" y="554.04"/>
     <use style="fill:#808080;stroke:#808080;" x="295.422026" xlink:href="#m29ad0ee8bc" y="554.04"/>
     <use style="fill:#808080;stroke:#808080;" x="297.388546" xlink:href="#m29ad0ee8bc" y="554.04"/>
     <use style="fill:#808080;stroke:#808080;" x="299.355066" xlink:href="#m29ad0ee8bc" y="554.04"/>
     <use style="fill:#808080;stroke:#808080;" x="301.321586" xlink:href="#m29ad0ee8bc" y="554.04"/>
     <use style="fill:#808080;stroke:#808080;" x="303.288106" xlink:href="#m29ad0ee8bc" y="554.04"/>
     <use style="fill:#808080;stroke:#808080;" x="305.254626" xlink:href="#m29ad0ee8bc" y="554.04"/>
     <use style="fill:#808080;stroke:#808080;" x="307.221145" xlink:href="#m29ad0ee8bc" y="554.04"/>
     <use style="fill:#808080;stroke:#808080;" x="309.187665" xlink:href="#m29ad0ee8bc" y="554.04"/>
     <use style="fill:#808080;stroke:#808080;" x="311.154185" xlink:href="#m29ad0ee8bc" y="554.04"/>
     <use style="fill:#808080;stroke:#808080;" x="313.120705" xlink:href="#m29ad0ee8bc" y="554.04"/>
     <use style="fill:#808080;stroke:#808080;" x="315.087225" xlink:href="#m29ad0ee8bc" y="554.04"/>
     <use style="fill:#808080;stroke:#808080;" x="317.053744" xlink:href="#m29ad0ee8bc" y="554.04"/>
     <use style="fill:#808080;stroke:#808080;" x="319.020264" xlink:href="#m29ad0ee8bc" y="554.04"/>
     <use style="fill:#808080;stroke:#808080;" x="320.986784" xlink:href="#m29ad0ee8bc" y="554.04"/>
     <use style="fill:#808080;stroke:#808080;" x="322.953304" xlink:href="#m29ad0ee8bc" y="554.04"/>
     <use style="fill:#808080;stroke:#808080;" x="324.919824" xlink:href="#m29ad0ee8bc" y="554.04"/>
     <use style="fill:#808080;stroke:#808080;" x="326.886344" xlink:href="#m29ad0ee8bc" y="554.04"/>
     <use style="fill:#808080;stroke:#808080;" x="328.852863" xlink:href="#m29ad0ee8bc" y="554.04"/>
     <use style="fill:#808080;stroke:#808080;" x="330.819383" xlink:href="#m29ad0ee8bc" y="554.04"/>
     <use style="fill:#808080;stroke:#808080;" x="332.785903" xlink:href="#m29ad0ee8bc" y="554.04"/>
     <use style="fill:#808080;stroke:#808080;" x="334.752423" xlink:href="#m29ad0ee8bc" y="554.04"/>
     <use style="fill:#808080;stroke:#808080;" x="336.718943" xlink:href="#m29ad0ee8bc" y="554.04"/>
     <use style="fill:#808080;stroke:#808080;" x="338.685463" xlink:href="#m29ad0ee8bc" y="554.04"/>
     <use style="fill:#808080;stroke:#808080;" x="340.651982" xlink:href="#m29ad0ee8bc" y="554.04"/>
     <use style="fill:#808080;stroke:#808080;" x="342.618502" xlink:href="#m29ad0ee8bc" y="554.04"/>
     <use style="fill:#808080;stroke:#808080;" x="344.585022" xlink:href="#m29ad0ee8bc" y="554.04"/>
     <use style="fill:#808080;stroke:#808080;" x="346.551542" xlink:href="#m29ad0ee8bc" y="554.04"/>
     <use style="fill:#808080;stroke:#808080;" x="348.518062" xlink:href="#m29ad0ee8bc" y="554.04"/>
     <use style="fill:#808080;stroke:#808080;" x="350.484581" xlink:href="#m29ad0ee8bc" y="554.04"/>
     <use style="fill:#808080;stroke:#808080;" x="352.451101" xlink:href="#m29ad0ee8bc" y="554.04"/>
     <use style="fill:#808080;stroke:#808080;" x="354.417621" xlink:href="#m29ad0ee8bc" y="554.04"/>
     <use style="fill:#808080;stroke:#808080;" x="356.384141" xlink:href="#m29ad0ee8bc" y="554.04"/>
     <use style="fill:#808080;stroke:#808080;" x="358.350661" xlink:href="#m29ad0ee8bc" y="554.04"/>
     <use style="fill:#808080;stroke:#808080;" x="360.317181" xlink:href="#m29ad0ee8bc" y="554.04"/>
     <use style="fill:#808080;stroke:#808080;" x="362.2837" xlink:href="#m29ad0ee8bc" y="554.04"/>
     <use style="fill:#808080;stroke:#808080;" x="364.25022" xlink:href="#m29ad0ee8bc" y="554.04"/>
     <use style="fill:#808080;stroke:#808080;" x="366.21674" xlink:href="#m29ad0ee8bc" y="554.04"/>
     <use style="fill:#808080;stroke:#808080;" x="368.18326" xlink:href="#m29ad0ee8bc" y="554.04"/>
     <use style="fill:#808080;stroke:#808080;" x="370.14978" xlink:href="#m29ad0ee8bc" y="554.04"/>
     <use style="fill:#808080;stroke:#808080;" x="372.1163" xlink:href="#m29ad0ee8bc" y="554.04"/>
     <use style="fill:#808080;stroke:#808080;" x="374.082819" xlink:href="#m29ad0ee8bc" y="554.04"/>
     <use style="fill:#808080;stroke:#808080;" x="376.049339" xlink:href="#m29ad0ee8bc" y="554.04"/>
     <use style="fill:#808080;stroke:#808080;" x="378.015859" xlink:href="#m29ad0ee8bc" y="554.04"/>
     <use style="fill:#808080;stroke:#808080;" x="379.982379" xlink:href="#m29ad0ee8bc" y="554.04"/>
     <use style="fill:#808080;stroke:#808080;" x="381.948899" xlink:href="#m29ad0ee8bc" y="554.04"/>
     <use style="fill:#808080;stroke:#808080;" x="383.915419" xlink:href="#m29ad0ee8bc" y="554.04"/>
     <use style="fill:#808080;stroke:#808080;" x="385.881938" xlink:href="#m29ad0ee8bc" y="554.04"/>
     <use style="fill:#808080;stroke:#808080;" x="387.848458" xlink:href="#m29ad0ee8bc" y="554.04"/>
     <use style="fill:#808080;stroke:#808080;" x="389.814978" xlink:href="#m29ad0ee8bc" y="554.04"/>
     <use style="fill:#808080;stroke:#808080;" x="391.781498" xlink:href="#m29ad0ee8bc" y="554.04"/>
     <use style="fill:#808080;stroke:#808080;" x="393.748018" xlink:href="#m29ad0ee8bc" y="554.04"/>
     <use style="fill:#808080;stroke:#808080;" x="395.714537" xlink:href="#m29ad0ee8bc" y="554.04"/>
     <use style="fill:#808080;stroke:#808080;" x="397.681057" xlink:href="#m29ad0ee8bc" y="554.04"/>
     <use style="fill:#808080;stroke:#808080;" x="399.647577" xlink:href="#m29ad0ee8bc" y="554.04"/>
     <use style="fill:#808080;stroke:#808080;" x="401.614097" xlink:href="#m29ad0ee8bc" y="554.04"/>
     <use style="fill:#808080;stroke:#808080;" x="403.580617" xlink:href="#m29ad0ee8bc" y="554.04"/>
     <use style="fill:#808080;stroke:#808080;" x="405.547137" xlink:href="#m29ad0ee8bc" y="554.04"/>
     <use style="fill:#808080;stroke:#808080;" x="407.513656" xlink:href="#m29ad0ee8bc" y="554.04"/>
     <use style="fill:#808080;stroke:#808080;" x="409.480176" xlink:href="#m29ad0ee8bc" y="554.04"/>
     <use style="fill:#808080;stroke:#808080;" x="411.446696" xlink:href="#m29ad0ee8bc" y="554.04"/>
     <use style="fill:#808080;stroke:#808080;" x="413.413216" xlink:href="#m29ad0ee8bc" y="554.04"/>
     <use style="fill:#808080;stroke:#808080;" x="415.379736" xlink:href="#m29ad0ee8bc" y="554.04"/>
     <use style="fill:#808080;stroke:#808080;" x="417.346256" xlink:href="#m29ad0ee8bc" y="554.04"/>
     <use style="fill:#808080;stroke:#808080;" x="419.312775" xlink:href="#m29ad0ee8bc" y="554.04"/>
     <use style="fill:#808080;stroke:#808080;" x="421.279295" xlink:href="#m29ad0ee8bc" y="554.04"/>
     <use style="fill:#808080;stroke:#808080;" x="423.245815" xlink:href="#m29ad0ee8bc" y="554.04"/>
     <use style="fill:#808080;stroke:#808080;" x="425.212335" xlink:href="#m29ad0ee8bc" y="554.04"/>
     <use style="fill:#808080;stroke:#808080;" x="427.178855" xlink:href="#m29ad0ee8bc" y="554.04"/>
     <use style="fill:#808080;stroke:#808080;" x="429.145374" xlink:href="#m29ad0ee8bc" y="554.04"/>
     <use style="fill:#808080;stroke:#808080;" x="431.111894" xlink:href="#m29ad0ee8bc" y="554.04"/>
     <use style="fill:#808080;stroke:#808080;" x="433.078414" xlink:href="#m29ad0ee8bc" y="554.04"/>
     <use style="fill:#808080;stroke:#808080;" x="435.044934" xlink:href="#m29ad0ee8bc" y="554.04"/>
     <use style="fill:#808080;stroke:#808080;" x="437.011454" xlink:href="#m29ad0ee8bc" y="554.04"/>
     <use style="fill:#808080;stroke:#808080;" x="438.977974" xlink:href="#m29ad0ee8bc" y="554.04"/>
     <use style="fill:#808080;stroke:#808080;" x="440.944493" xlink:href="#m29ad0ee8bc" y="554.04"/>
     <use style="fill:#808080;stroke:#808080;" x="442.911013" xlink:href="#m29ad0ee8bc" y="554.04"/>
     <use style="fill:#808080;stroke:#808080;" x="444.877533" xlink:href="#m29ad0ee8bc" y="554.04"/>
     <use style="fill:#808080;stroke:#808080;" x="446.844053" xlink:href="#m29ad0ee8bc" y="554.04"/>
     <use style="fill:#808080;stroke:#808080;" x="448.810573" xlink:href="#m29ad0ee8bc" y="554.04"/>
     <use style="fill:#808080;stroke:#808080;" x="450.777093" xlink:href="#m29ad0ee8bc" y="554.04"/>
     <use style="fill:#808080;stroke:#808080;" x="452.743612" xlink:href="#m29ad0ee8bc" y="554.04"/>
     <use style="fill:#808080;stroke:#808080;" x="454.710132" xlink:href="#m29ad0ee8bc" y="554.04"/>
     <use style="fill:#808080;stroke:#808080;" x="456.676652" xlink:href="#m29ad0ee8bc" y="554.04"/>
     <use style="fill:#808080;stroke:#808080;" x="458.643172" xlink:href="#m29ad0ee8bc" y="554.04"/>
     <use style="fill:#808080;stroke:#808080;" x="460.609692" xlink:href="#m29ad0ee8bc" y="554.04"/>
     <use style="fill:#808080;stroke:#808080;" x="462.576211" xlink:href="#m29ad0ee8bc" y="554.04"/>
     <use style="fill:#808080;stroke:#808080;" x="464.542731" xlink:href="#m29ad0ee8bc" y="554.04"/>
     <use style="fill:#808080;stroke:#808080;" x="466.509251" xlink:href="#m29ad0ee8bc" y="554.04"/>
     <use style="fill:#808080;stroke:#808080;" x="468.475771" xlink:href="#m29ad0ee8bc" y="554.04"/>
     <use style="fill:#808080;stroke:#808080;" x="470.442291" xlink:href="#m29ad0ee8bc" y="554.04"/>
     <use style="fill:#808080;stroke:#808080;" x="472.408811" xlink:href="#m29ad0ee8bc" y="554.04"/>
     <use style="fill:#808080;stroke:#808080;" x="474.37533" xlink:href="#m29ad0ee8bc" y="554.04"/>
     <use style="fill:#808080;stroke:#808080;" x="476.34185" xlink:href="#m29ad0ee8bc" y="554.04"/>
     <use style="fill:#808080;stroke:#808080;" x="478.30837" xlink:href="#m29ad0ee8bc" y="554.04"/>
     <use style="fill:#808080;stroke:#808080;" x="480.27489" xlink:href="#m29ad0ee8bc" y="554.04"/>
     <use style="fill:#808080;stroke:#808080;" x="482.24141" xlink:href="#m29ad0ee8bc" y="554.04"/>
     <use style="fill:#808080;stroke:#808080;" x="484.20793" xlink:href="#m29ad0ee8bc" y="554.04"/>
     <use style="fill:#808080;stroke:#808080;" x="486.174449" xlink:href="#m29ad0ee8bc" y="554.04"/>
     <use style="fill:#808080;stroke:#808080;" x="488.140969" xlink:href="#m29ad0ee8bc" y="554.04"/>
     <use style="fill:#808080;stroke:#808080;" x="490.107489" xlink:href="#m29ad0ee8bc" y="554.04"/>
     <use style="fill:#808080;stroke:#808080;" x="492.074009" xlink:href="#m29ad0ee8bc" y="554.04"/>
     <use style="fill:#808080;stroke:#808080;" x="494.040529" xlink:href="#m29ad0ee8bc" y="554.04"/>
     <use style="fill:#808080;stroke:#808080;" x="496.007048" xlink:href="#m29ad0ee8bc" y="554.04"/>
     <use style="fill:#808080;stroke:#808080;" x="497.973568" xlink:href="#m29ad0ee8bc" y="554.04"/>
     <use style="fill:#808080;stroke:#808080;" x="499.940088" xlink:href="#m29ad0ee8bc" y="554.04"/>
     <use style="fill:#808080;stroke:#808080;" x="501.906608" xlink:href="#m29ad0ee8bc" y="554.04"/>
     <use style="fill:#808080;stroke:#808080;" x="503.873128" xlink:href="#m29ad0ee8bc" y="554.04"/>
     <use style="fill:#808080;stroke:#808080;" x="505.839648" xlink:href="#m29ad0ee8bc" y="554.04"/>
     <use style="fill:#808080;stroke:#808080;" x="507.806167" xlink:href="#m29ad0ee8bc" y="554.04"/>
     <use style="fill:#808080;stroke:#808080;" x="509.772687" xlink:href="#m29ad0ee8bc" y="554.04"/>
     <use style="fill:#808080;stroke:#808080;" x="511.739207" xlink:href="#m29ad0ee8bc" y="554.04"/>
     <use style="fill:#808080;stroke:#808080;" x="513.705727" xlink:href="#m29ad0ee8bc" y="554.04"/>
     <use style="fill:#808080;stroke:#808080;" x="515.672247" xlink:href="#m29ad0ee8bc" y="554.04"/>
     <use style="fill:#808080;stroke:#808080;" x="517.638767" xlink:href="#m29ad0ee8bc" y="554.04"/>
     <use style="fill:#808080;stroke:#808080;" x="519.605286" xlink:href="#m29ad0ee8bc" y="554.04"/>
     <use style="fill:#808080;stroke:#808080;" x="521.571806" xlink:href="#m29ad0ee8bc" y="554.04"/>
     <use style="fill:#808080;stroke:#808080;" x="523.538326" xlink:href="#m29ad0ee8bc" y="554.04"/>
     <use style="fill:#808080;stroke:#808080;" x="525.504846" xlink:href="#m29ad0ee8bc" y="554.04"/>
     <use style="fill:#808080;stroke:#808080;" x="527.471366" xlink:href="#m29ad0ee8bc" y="554.04"/>
     <use style="fill:#808080;stroke:#808080;" x="529.437885" xlink:href="#m29ad0ee8bc" y="554.04"/>
     <use style="fill:#808080;stroke:#808080;" x="531.404405" xlink:href="#m29ad0ee8bc" y="554.04"/>
     <use style="fill:#808080;stroke:#808080;" x="533.370925" xlink:href="#m29ad0ee8bc" y="554.04"/>
     <use style="fill:#808080;stroke:#808080;" x="535.337445" xlink:href="#m29ad0ee8bc" y="554.04"/>
     <use style="fill:#808080;stroke:#808080;" x="537.303965" xlink:href="#m29ad0ee8bc" y="554.04"/>
     <use style="fill:#808080;stroke:#808080;" x="539.270485" xlink:href="#m29ad0ee8bc" y="554.04"/>
     <use style="fill:#808080;stroke:#808080;" x="541.237004" xlink:href="#m29ad0ee8bc" y="554.04"/>
     <use style="fill:#808080;stroke:#808080;" x="543.203524" xlink:href="#m29ad0ee8bc" y="554.04"/>
     <use style="fill:#808080;stroke:#808080;" x="545.170044" xlink:href="#m29ad0ee8bc" y="554.04"/>
     <use style="fill:#808080;stroke:#808080;" x="547.136564" xlink:href="#m29ad0ee8bc" y="554.04"/>
     <use style="fill:#808080;stroke:#808080;" x="549.103084" xlink:href="#m29ad0ee8bc" y="554.04"/>
     <use style="fill:#808080;stroke:#808080;" x="551.069604" xlink:href="#m29ad0ee8bc" y="554.04"/>
     <use style="fill:#808080;stroke:#808080;" x="553.036123" xlink:href="#m29ad0ee8bc" y="554.04"/>
     <use style="fill:#808080;stroke:#808080;" x="555.002643" xlink:href="#m29ad0ee8bc" y="554.04"/>
     <use style="fill:#808080;stroke:#808080;" x="556.969163" xlink:href="#m29ad0ee8bc" y="554.04"/>
     <use style="fill:#808080;stroke:#808080;" x="558.935683" xlink:href="#m29ad0ee8bc" y="554.04"/>
     <use style="fill:#808080;stroke:#808080;" x="560.902203" xlink:href="#m29ad0ee8bc" y="554.04"/>
     <use style="fill:#808080;stroke:#808080;" x="562.868722" xlink:href="#m29ad0ee8bc" y="554.04"/>
     <use style="fill:#808080;stroke:#808080;" x="564.835242" xlink:href="#m29ad0ee8bc" y="554.04"/>
     <use style="fill:#808080;stroke:#808080;" x="566.801762" xlink:href="#m29ad0ee8bc" y="554.04"/>
     <use style="fill:#808080;stroke:#808080;" x="568.768282" xlink:href="#m29ad0ee8bc" y="554.04"/>
     <use style="fill:#808080;stroke:#808080;" x="570.734802" xlink:href="#m29ad0ee8bc" y="554.04"/>
     <use style="fill:#808080;stroke:#808080;" x="572.701322" xlink:href="#m29ad0ee8bc" y="554.04"/>
     <use style="fill:#808080;stroke:#808080;" x="574.667841" xlink:href="#m29ad0ee8bc" y="554.04"/>
     <use style="fill:#808080;stroke:#808080;" x="576.634361" xlink:href="#m29ad0ee8bc" y="554.04"/>
     <use style="fill:#808080;stroke:#808080;" x="578.600881" xlink:href="#m29ad0ee8bc" y="554.04"/>
     <use style="fill:#808080;stroke:#808080;" x="580.567401" xlink:href="#m29ad0ee8bc" y="554.04"/>
     <use style="fill:#808080;stroke:#808080;" x="582.533921" xlink:href="#m29ad0ee8bc" y="554.04"/>
     <use style="fill:#808080;stroke:#808080;" x="584.500441" xlink:href="#m29ad0ee8bc" y="554.04"/>
     <use style="fill:#808080;stroke:#808080;" x="586.46696" xlink:href="#m29ad0ee8bc" y="554.04"/>
     <use style="fill:#808080;stroke:#808080;" x="588.43348" xlink:href="#m29ad0ee8bc" y="554.04"/>
     <use style="fill:#808080;stroke:#808080;" x="590.4" xlink:href="#m29ad0ee8bc" y="554.04"/>
     <use style="fill:#808080;stroke:#808080;" x="592.36652" xlink:href="#m29ad0ee8bc" y="554.04"/>
     <use style="fill:#808080;stroke:#808080;" x="594.33304" xlink:href="#m29ad0ee8bc" y="554.04"/>
     <use style="fill:#808080;stroke:#808080;" x="596.299559" xlink:href="#m29ad0ee8bc" y="554.04"/>
     <use style="fill:#808080;stroke:#808080;" x="598.266079" xlink:href="#m29ad0ee8bc" y="554.04"/>
     <use style="fill:#808080;stroke:#808080;" x="600.232599" xlink:href="#m29ad0ee8bc" y="554.04"/>
     <use style="fill:#808080;stroke:#808080;" x="602.199119" xlink:href="#m29ad0ee8bc" y="537.24"/>
     <use style="fill:#808080;stroke:#808080;" x="604.165639" xlink:href="#m29ad0ee8bc" y="554.04"/>
     <use style="fill:#808080;stroke:#808080;" x="606.132159" xlink:href="#m29ad0ee8bc" y="554.04"/>
     <use style="fill:#808080;stroke:#808080;" x="608.098678" xlink:href="#m29ad0ee8bc" y="554.04"/>
     <use style="fill:#808080;stroke:#808080;" x="610.065198" xlink:href="#m29ad0ee8bc" y="554.04"/>
     <use style="fill:#808080;stroke:#808080;" x="612.031718" xlink:href="#m29ad0ee8bc" y="554.04"/>
     <use style="fill:#808080;stroke:#808080;" x="613.998238" xlink:href="#m29ad0ee8bc" y="554.04"/>
     <use style="fill:#808080;stroke:#808080;" x="615.964758" xlink:href="#m29ad0ee8bc" y="554.04"/>
     <use style="fill:#808080;stroke:#808080;" x="617.931278" xlink:href="#m29ad0ee8bc" y="554.04"/>
     <use style="fill:#808080;stroke:#808080;" x="619.897797" xlink:href="#m29ad0ee8bc" y="537.24"/>
     <use style="fill:#808080;stroke:#808080;" x="621.864317" xlink:href="#m29ad0ee8bc" y="554.04"/>
     <use style="fill:#808080;stroke:#808080;" x="623.830837" xlink:href="#m29ad0ee8bc" y="554.04"/>
     <use style="fill:#808080;stroke:#808080;" x="625.797357" xlink:href="#m29ad0ee8bc" y="537.24"/>
     <use style="fill:#808080;stroke:#808080;" x="627.763877" xlink:href="#m29ad0ee8bc" y="554.04"/>
     <use style="fill:#808080;stroke:#808080;" x="629.730396" xlink:href="#m29ad0ee8bc" y="554.04"/>
     <use style="fill:#808080;stroke:#808080;" x="631.696916" xlink:href="#m29ad0ee8bc" y="554.04"/>
     <use style="fill:#808080;stroke:#808080;" x="633.663436" xlink:href="#m29ad0ee8bc" y="554.04"/>
     <use style="fill:#808080;stroke:#808080;" x="635.629956" xlink:href="#m29ad0ee8bc" y="554.04"/>
     <use style="fill:#808080;stroke:#808080;" x="637.596476" xlink:href="#m29ad0ee8bc" y="554.04"/>
     <use style="fill:#808080;stroke:#808080;" x="639.562996" xlink:href="#m29ad0ee8bc" y="537.24"/>
     <use style="fill:#808080;stroke:#808080;" x="641.529515" xlink:href="#m29ad0ee8bc" y="470.04"/>
     <use style="fill:#808080;stroke:#808080;" x="643.496035" xlink:href="#m29ad0ee8bc" y="554.04"/>
     <use style="fill:#808080;stroke:#808080;" x="645.462555" xlink:href="#m29ad0ee8bc" y="537.24"/>
     <use style="fill:#808080;stroke:#808080;" x="647.429075" xlink:href="#m29ad0ee8bc" y="537.24"/>
     <use style="fill:#808080;stroke:#808080;" x="649.395595" xlink:href="#m29ad0ee8bc" y="503.64"/>
     <use style="fill:#808080;stroke:#808080;" x="651.362115" xlink:href="#m29ad0ee8bc" y="554.04"/>
     <use style="fill:#808080;stroke:#808080;" x="653.328634" xlink:href="#m29ad0ee8bc" y="520.44"/>
     <use style="fill:#808080;stroke:#808080;" x="655.295154" xlink:href="#m29ad0ee8bc" y="537.24"/>
     <use style="fill:#808080;stroke:#808080;" x="657.261674" xlink:href="#m29ad0ee8bc" y="537.24"/>
     <use style="fill:#808080;stroke:#808080;" x="659.228194" xlink:href="#m29ad0ee8bc" y="554.04"/>
     <use style="fill:#808080;stroke:#808080;" x="661.194714" xlink:href="#m29ad0ee8bc" y="520.44"/>
     <use style="fill:#808080;stroke:#808080;" x="663.161233" xlink:href="#m29ad0ee8bc" y="486.84"/>
     <use style="fill:#808080;stroke:#808080;" x="665.127753" xlink:href="#m29ad0ee8bc" y="503.64"/>
     <use style="fill:#808080;stroke:#808080;" x="667.094273" xlink:href="#m29ad0ee8bc" y="520.44"/>
     <use style="fill:#808080;stroke:#808080;" x="669.060793" xlink:href="#m29ad0ee8bc" y="486.84"/>
     <use style="fill:#808080;stroke:#808080;" x="671.027313" xlink:href="#m29ad0ee8bc" y="554.04"/>
     <use style="fill:#808080;stroke:#808080;" x="672.993833" xlink:href="#m29ad0ee8bc" y="554.04"/>
     <use style="fill:#808080;stroke:#808080;" x="674.960352" xlink:href="#m29ad0ee8bc" y="537.24"/>
     <use style="fill:#808080;stroke:#808080;" x="676.926872" xlink:href="#m29ad0ee8bc" y="537.24"/>
     <use style="fill:#808080;stroke:#808080;" x="678.893392" xlink:href="#m29ad0ee8bc" y="520.44"/>
     <use style="fill:#808080;stroke:#808080;" x="680.859912" xlink:href="#m29ad0ee8bc" y="537.24"/>
     <use style="fill:#808080;stroke:#808080;" x="682.826432" xlink:href="#m29ad0ee8bc" y="503.64"/>
     <use style="fill:#808080;stroke:#808080;" x="684.792952" xlink:href="#m29ad0ee8bc" y="554.04"/>
     <use style="fill:#808080;stroke:#808080;" x="686.759471" xlink:href="#m29ad0ee8bc" y="554.04"/>
     <use style="fill:#808080;stroke:#808080;" x="688.725991" xlink:href="#m29ad0ee8bc" y="503.64"/>
     <use style="fill:#808080;stroke:#808080;" x="690.692511" xlink:href="#m29ad0ee8bc" y="537.24"/>
     <use style="fill:#808080;stroke:#808080;" x="692.659031" xlink:href="#m29ad0ee8bc" y="503.64"/>
     <use style="fill:#808080;stroke:#808080;" x="694.625551" xlink:href="#m29ad0ee8bc" y="503.64"/>
     <use style="fill:#808080;stroke:#808080;" x="696.59207" xlink:href="#m29ad0ee8bc" y="520.44"/>
     <use style="fill:#808080;stroke:#808080;" x="698.55859" xlink:href="#m29ad0ee8bc" y="537.24"/>
     <use style="fill:#808080;stroke:#808080;" x="700.52511" xlink:href="#m29ad0ee8bc" y="537.24"/>
     <use style="fill:#808080;stroke:#808080;" x="702.49163" xlink:href="#m29ad0ee8bc" y="503.64"/>
     <use style="fill:#808080;stroke:#808080;" x="704.45815" xlink:href="#m29ad0ee8bc" y="419.64"/>
     <use style="fill:#808080;stroke:#808080;" x="706.42467" xlink:href="#m29ad0ee8bc" y="520.44"/>
     <use style="fill:#808080;stroke:#808080;" x="708.391189" xlink:href="#m29ad0ee8bc" y="453.24"/>
     <use style="fill:#808080;stroke:#808080;" x="710.357709" xlink:href="#m29ad0ee8bc" y="520.44"/>
     <use style="fill:#808080;stroke:#808080;" x="712.324229" xlink:href="#m29ad0ee8bc" y="554.04"/>
     <use style="fill:#808080;stroke:#808080;" x="714.290749" xlink:href="#m29ad0ee8bc" y="520.44"/>
     <use style="fill:#808080;stroke:#808080;" x="716.257269" xlink:href="#m29ad0ee8bc" y="520.44"/>
     <use style="fill:#808080;stroke:#808080;" x="718.223789" xlink:href="#m29ad0ee8bc" y="520.44"/>
     <use style="fill:#808080;stroke:#808080;" x="720.190308" xlink:href="#m29ad0ee8bc" y="436.44"/>
     <use style="fill:#808080;stroke:#808080;" x="722.156828" xlink:href="#m29ad0ee8bc" y="520.44"/>
     <use style="fill:#808080;stroke:#808080;" x="724.123348" xlink:href="#m29ad0ee8bc" y="503.64"/>
     <use style="fill:#808080;stroke:#808080;" x="726.089868" xlink:href="#m29ad0ee8bc" y="503.64"/>
     <use style="fill:#808080;stroke:#808080;" x="728.056388" xlink:href="#m29ad0ee8bc" y="520.44"/>
     <use style="fill:#808080;stroke:#808080;" x="730.022907" xlink:href="#m29ad0ee8bc" y="520.44"/>
     <use style="fill:#808080;stroke:#808080;" x="731.989427" xlink:href="#m29ad0ee8bc" y="453.24"/>
     <use style="fill:#808080;stroke:#808080;" x="733.955947" xlink:href="#m29ad0ee8bc" y="436.44"/>
     <use style="fill:#808080;stroke:#808080;" x="735.922467" xlink:href="#m29ad0ee8bc" y="554.04"/>
     <use style="fill:#808080;stroke:#808080;" x="737.888987" xlink:href="#m29ad0ee8bc" y="470.04"/>
     <use style="fill:#808080;stroke:#808080;" x="739.855507" xlink:href="#m29ad0ee8bc" y="503.64"/>
     <use style="fill:#808080;stroke:#808080;" x="741.822026" xlink:href="#m29ad0ee8bc" y="537.24"/>
     <use style="fill:#808080;stroke:#808080;" x="743.788546" xlink:href="#m29ad0ee8bc" y="402.84"/>
     <use style="fill:#808080;stroke:#808080;" x="745.755066" xlink:href="#m29ad0ee8bc" y="402.84"/>
     <use style="fill:#808080;stroke:#808080;" x="747.721586" xlink:href="#m29ad0ee8bc" y="386.04"/>
     <use style="fill:#808080;stroke:#808080;" x="749.688106" xlink:href="#m29ad0ee8bc" y="537.24"/>
     <use style="fill:#808080;stroke:#808080;" x="751.654626" xlink:href="#m29ad0ee8bc" y="537.24"/>
     <use style="fill:#808080;stroke:#808080;" x="753.621145" xlink:href="#m29ad0ee8bc" y="486.84"/>
     <use style="fill:#808080;stroke:#808080;" x="755.587665" xlink:href="#m29ad0ee8bc" y="520.44"/>
     <use style="fill:#808080;stroke:#808080;" x="757.554185" xlink:href="#m29ad0ee8bc" y="386.04"/>
     <use style="fill:#808080;stroke:#808080;" x="759.520705" xlink:href="#m29ad0ee8bc" y="369.24"/>
     <use style="fill:#808080;stroke:#808080;" x="761.487225" xlink:href="#m29ad0ee8bc" y="302.04"/>
     <use style="fill:#808080;stroke:#808080;" x="763.453744" xlink:href="#m29ad0ee8bc" y="369.24"/>
     <use style="fill:#808080;stroke:#808080;" x="765.420264" xlink:href="#m29ad0ee8bc" y="402.84"/>
     <use style="fill:#808080;stroke:#808080;" x="767.386784" xlink:href="#m29ad0ee8bc" y="486.84"/>
     <use style="fill:#808080;stroke:#808080;" x="769.353304" xlink:href="#m29ad0ee8bc" y="503.64"/>
     <use style="fill:#808080;stroke:#808080;" x="771.319824" xlink:href="#m29ad0ee8bc" y="352.44"/>
     <use style="fill:#808080;stroke:#808080;" x="773.286344" xlink:href="#m29ad0ee8bc" y="453.24"/>
     <use style="fill:#808080;stroke:#808080;" x="775.252863" xlink:href="#m29ad0ee8bc" y="419.64"/>
     <use style="fill:#808080;stroke:#808080;" x="777.219383" xlink:href="#m29ad0ee8bc" y="318.84"/>
     <use style="fill:#808080;stroke:#808080;" x="779.185903" xlink:href="#m29ad0ee8bc" y="318.84"/>
     <use style="fill:#808080;stroke:#808080;" x="781.152423" xlink:href="#m29ad0ee8bc" y="520.44"/>
     <use style="fill:#808080;stroke:#808080;" x="783.118943" xlink:href="#m29ad0ee8bc" y="386.04"/>
     <use style="fill:#808080;stroke:#808080;" x="785.085463" xlink:href="#m29ad0ee8bc" y="520.44"/>
     <use style="fill:#808080;stroke:#808080;" x="787.051982" xlink:href="#m29ad0ee8bc" y="318.84"/>
     <use style="fill:#808080;stroke:#808080;" x="789.018502" xlink:href="#m29ad0ee8bc" y="285.24"/>
     <use style="fill:#808080;stroke:#808080;" x="790.985022" xlink:href="#m29ad0ee8bc" y="486.84"/>
     <use style="fill:#808080;stroke:#808080;" x="792.951542" xlink:href="#m29ad0ee8bc" y="369.24"/>
     <use style="fill:#808080;stroke:#808080;" x="794.918062" xlink:href="#m29ad0ee8bc" y="419.64"/>
     <use style="fill:#808080;stroke:#808080;" x="796.884581" xlink:href="#m29ad0ee8bc" y="453.24"/>
     <use style="fill:#808080;stroke:#808080;" x="798.851101" xlink:href="#m29ad0ee8bc" y="302.04"/>
     <use style="fill:#808080;stroke:#808080;" x="800.817621" xlink:href="#m29ad0ee8bc" y="302.04"/>
     <use style="fill:#808080;stroke:#808080;" x="802.784141" xlink:href="#m29ad0ee8bc" y="386.04"/>
     <use style="fill:#808080;stroke:#808080;" x="804.750661" xlink:href="#m29ad0ee8bc" y="318.84"/>
     <use style="fill:#808080;stroke:#808080;" x="806.717181" xlink:href="#m29ad0ee8bc" y="218.04"/>
     <use style="fill:#808080;stroke:#808080;" x="808.6837" xlink:href="#m29ad0ee8bc" y="470.04"/>
     <use style="fill:#808080;stroke:#808080;" x="810.65022" xlink:href="#m29ad0ee8bc" y="503.64"/>
     <use style="fill:#808080;stroke:#808080;" x="812.61674" xlink:href="#m29ad0ee8bc" y="167.64"/>
     <use style="fill:#808080;stroke:#808080;" x="814.58326" xlink:href="#m29ad0ee8bc" y="453.24"/>
     <use style="fill:#808080;stroke:#808080;" x="816.54978" xlink:href="#m29ad0ee8bc" y="117.24"/>
     <use style="fill:#808080;stroke:#808080;" x="818.5163" xlink:href="#m29ad0ee8bc" y="318.84"/>
     <use style="fill:#808080;stroke:#808080;" x="820.482819" xlink:href="#m29ad0ee8bc" y="184.44"/>
     <use style="fill:#808080;stroke:#808080;" x="822.449339" xlink:href="#m29ad0ee8bc" y="520.44"/>
     <use style="fill:#808080;stroke:#808080;" x="824.415859" xlink:href="#m29ad0ee8bc" y="419.64"/>
     <use style="fill:#808080;stroke:#808080;" x="826.382379" xlink:href="#m29ad0ee8bc" y="100.44"/>
     <use style="fill:#808080;stroke:#808080;" x="828.348899" xlink:href="#m29ad0ee8bc" y="268.44"/>
     <use style="fill:#808080;stroke:#808080;" x="830.315419" xlink:href="#m29ad0ee8bc" y="436.44"/>
     <use style="fill:#808080;stroke:#808080;" x="832.281938" xlink:href="#m29ad0ee8bc" y="369.24"/>
     <use style="fill:#808080;stroke:#808080;" x="834.248458" xlink:href="#m29ad0ee8bc" y="352.44"/>
     <use style="fill:#808080;stroke:#808080;" x="836.214978" xlink:href="#m29ad0ee8bc" y="520.44"/>
     <use style="fill:#808080;stroke:#808080;" x="838.181498" xlink:href="#m29ad0ee8bc" y="453.24"/>
     <use style="fill:#808080;stroke:#808080;" x="840.148018" xlink:href="#m29ad0ee8bc" y="369.24"/>
     <use style="fill:#808080;stroke:#808080;" x="842.114537" xlink:href="#m29ad0ee8bc" y="352.44"/>
     <use style="fill:#808080;stroke:#808080;" x="844.081057" xlink:href="#m29ad0ee8bc" y="436.44"/>
     <use style="fill:#808080;stroke:#808080;" x="846.047577" xlink:href="#m29ad0ee8bc" y="285.24"/>
     <use style="fill:#808080;stroke:#808080;" x="848.014097" xlink:href="#m29ad0ee8bc" y="470.04"/>
     <use style="fill:#808080;stroke:#808080;" x="849.980617" xlink:href="#m29ad0ee8bc" y="486.84"/>
     <use style="fill:#808080;stroke:#808080;" x="851.947137" xlink:href="#m29ad0ee8bc" y="503.64"/>
     <use style="fill:#808080;stroke:#808080;" x="853.913656" xlink:href="#m29ad0ee8bc" y="335.64"/>
     <use style="fill:#808080;stroke:#808080;" x="855.880176" xlink:href="#m29ad0ee8bc" y="402.84"/>
     <use style="fill:#808080;stroke:#808080;" x="857.846696" xlink:href="#m29ad0ee8bc" y="470.04"/>
     <use style="fill:#808080;stroke:#808080;" x="859.813216" xlink:href="#m29ad0ee8bc" y="419.64"/>
     <use style="fill:#808080;stroke:#808080;" x="861.779736" xlink:href="#m29ad0ee8bc" y="402.84"/>
     <use style="fill:#808080;stroke:#808080;" x="863.746256" xlink:href="#m29ad0ee8bc" y="503.64"/>
     <use style="fill:#808080;stroke:#808080;" x="865.712775" xlink:href="#m29ad0ee8bc" y="554.04"/>
     <use style="fill:#808080;stroke:#808080;" x="867.679295" xlink:href="#m29ad0ee8bc" y="453.24"/>
     <use style="fill:#808080;stroke:#808080;" x="869.645815" xlink:href="#m29ad0ee8bc" y="436.44"/>
     <use style="fill:#808080;stroke:#808080;" x="871.612335" xlink:href="#m29ad0ee8bc" y="470.04"/>
     <use style="fill:#808080;stroke:#808080;" x="873.578855" xlink:href="#m29ad0ee8bc" y="402.84"/>
     <use style="fill:#808080;stroke:#808080;" x="875.545374" xlink:href="#m29ad0ee8bc" y="436.44"/>
     <use style="fill:#808080;stroke:#808080;" x="877.511894" xlink:href="#m29ad0ee8bc" y="537.24"/>
     <use style="fill:#808080;stroke:#808080;" x="879.478414" xlink:href="#m29ad0ee8bc" y="537.24"/>
     <use style="fill:#808080;stroke:#808080;" x="881.444934" xlink:href="#m29ad0ee8bc" y="402.84"/>
     <use style="fill:#808080;stroke:#808080;" x="883.411454" xlink:href="#m29ad0ee8bc" y="470.04"/>
     <use style="fill:#808080;stroke:#808080;" x="885.377974" xlink:href="#m29ad0ee8bc" y="503.64"/>
     <use style="fill:#808080;stroke:#808080;" x="887.344493" xlink:href="#m29ad0ee8bc" y="419.64"/>
     <use style="fill:#808080;stroke:#808080;" x="889.311013" xlink:href="#m29ad0ee8bc" y="486.84"/>
     <use style="fill:#808080;stroke:#808080;" x="891.277533" xlink:href="#m29ad0ee8bc" y="520.44"/>
     <use style="fill:#808080;stroke:#808080;" x="893.244053" xlink:href="#m29ad0ee8bc" y="554.04"/>
     <use style="fill:#808080;stroke:#808080;" x="895.210573" xlink:href="#m29ad0ee8bc" y="470.04"/>
     <use style="fill:#808080;stroke:#808080;" x="897.177093" xlink:href="#m29ad0ee8bc" y="470.04"/>
     <use style="fill:#808080;stroke:#808080;" x="899.143612" xlink:href="#m29ad0ee8bc" y="537.24"/>
     <use style="fill:#808080;stroke:#808080;" x="901.110132" xlink:href="#m29ad0ee8bc" y="453.24"/>
     <use style="fill:#808080;stroke:#808080;" x="903.076652" xlink:href="#m29ad0ee8bc" y="520.44"/>
     <use style="fill:#808080;stroke:#808080;" x="905.043172" xlink:href="#m29ad0ee8bc" y="503.64"/>
     <use style="fill:#808080;stroke:#808080;" x="907.009692" xlink:href="#m29ad0ee8bc" y="537.24"/>
     <use style="fill:#808080;stroke:#808080;" x="908.976211" xlink:href="#m29ad0ee8bc" y="503.64"/>
     <use style="fill:#808080;stroke:#808080;" x="910.942731" xlink:href="#m29ad0ee8bc" y="503.64"/>
     <use style="fill:#808080;stroke:#808080;" x="912.909251" xlink:href="#m29ad0ee8bc" y="520.44"/>
     <use style="fill:#808080;stroke:#808080;" x="914.875771" xlink:href="#m29ad0ee8bc" y="470.04"/>
     <use style="fill:#808080;stroke:#808080;" x="916.842291" xlink:href="#m29ad0ee8bc" y="537.24"/>
     <use style="fill:#808080;stroke:#808080;" x="918.808811" xlink:href="#m29ad0ee8bc" y="503.64"/>
     <use style="fill:#808080;stroke:#808080;" x="920.77533" xlink:href="#m29ad0ee8bc" y="537.24"/>
     <use style="fill:#808080;stroke:#808080;" x="922.74185" xlink:href="#m29ad0ee8bc" y="486.84"/>
     <use style="fill:#808080;stroke:#808080;" x="924.70837" xlink:href="#m29ad0ee8bc" y="453.24"/>
     <use style="fill:#808080;stroke:#808080;" x="926.67489" xlink:href="#m29ad0ee8bc" y="386.04"/>
     <use style="fill:#808080;stroke:#808080;" x="928.64141" xlink:href="#m29ad0ee8bc" y="486.84"/>
     <use style="fill:#808080;stroke:#808080;" x="930.60793" xlink:href="#m29ad0ee8bc" y="537.24"/>
     <use style="fill:#808080;stroke:#808080;" x="932.574449" xlink:href="#m29ad0ee8bc" y="503.64"/>
     <use style="fill:#808080;stroke:#808080;" x="934.540969" xlink:href="#m29ad0ee8bc" y="554.04"/>
     <use style="fill:#808080;stroke:#808080;" x="936.507489" xlink:href="#m29ad0ee8bc" y="520.44"/>
     <use style="fill:#808080;stroke:#808080;" x="938.474009" xlink:href="#m29ad0ee8bc" y="486.84"/>
     <use style="fill:#808080;stroke:#808080;" x="940.440529" xlink:href="#m29ad0ee8bc" y="453.24"/>
     <use style="fill:#808080;stroke:#808080;" x="942.407048" xlink:href="#m29ad0ee8bc" y="386.04"/>
     <use style="fill:#808080;stroke:#808080;" x="944.373568" xlink:href="#m29ad0ee8bc" y="503.64"/>
     <use style="fill:#808080;stroke:#808080;" x="946.340088" xlink:href="#m29ad0ee8bc" y="503.64"/>
     <use style="fill:#808080;stroke:#808080;" x="948.306608" xlink:href="#m29ad0ee8bc" y="486.84"/>
     <use style="fill:#808080;stroke:#808080;" x="950.273128" xlink:href="#m29ad0ee8bc" y="436.44"/>
     <use style="fill:#808080;stroke:#808080;" x="952.239648" xlink:href="#m29ad0ee8bc" y="520.44"/>
     <use style="fill:#808080;stroke:#808080;" x="954.206167" xlink:href="#m29ad0ee8bc" y="503.64"/>
     <use style="fill:#808080;stroke:#808080;" x="956.172687" xlink:href="#m29ad0ee8bc" y="520.44"/>
     <use style="fill:#808080;stroke:#808080;" x="958.139207" xlink:href="#m29ad0ee8bc" y="470.04"/>
     <use style="fill:#808080;stroke:#808080;" x="960.105727" xlink:href="#m29ad0ee8bc" y="554.04"/>
     <use style="fill:#808080;stroke:#808080;" x="962.072247" xlink:href="#m29ad0ee8bc" y="537.24"/>
     <use style="fill:#808080;stroke:#808080;" x="964.038767" xlink:href="#m29ad0ee8bc" y="436.44"/>
     <use style="fill:#808080;stroke:#808080;" x="966.005286" xlink:href="#m29ad0ee8bc" y="369.24"/>
     <use style="fill:#808080;stroke:#808080;" x="967.971806" xlink:href="#m29ad0ee8bc" y="470.04"/>
     <use style="fill:#808080;stroke:#808080;" x="969.938326" xlink:href="#m29ad0ee8bc" y="453.24"/>
     <use style="fill:#808080;stroke:#808080;" x="971.904846" xlink:href="#m29ad0ee8bc" y="453.24"/>
     <use style="fill:#808080;stroke:#808080;" x="973.871366" xlink:href="#m29ad0ee8bc" y="520.44"/>
     <use style="fill:#808080;stroke:#808080;" x="975.837885" xlink:href="#m29ad0ee8bc" y="503.64"/>
     <use style="fill:#808080;stroke:#808080;" x="977.804405" xlink:href="#m29ad0ee8bc" y="402.84"/>
     <use style="fill:#808080;stroke:#808080;" x="979.770925" xlink:href="#m29ad0ee8bc" y="486.84"/>
     <use style="fill:#808080;stroke:#808080;" x="981.737445" xlink:href="#m29ad0ee8bc" y="470.04"/>
     <use style="fill:#808080;stroke:#808080;" x="983.703965" xlink:href="#m29ad0ee8bc" y="386.04"/>
     <use style="fill:#808080;stroke:#808080;" x="985.670485" xlink:href="#m29ad0ee8bc" y="503.64"/>
     <use style="fill:#808080;stroke:#808080;" x="987.637004" xlink:href="#m29ad0ee8bc" y="537.24"/>
     <use style="fill:#808080;stroke:#808080;" x="989.603524" xlink:href="#m29ad0ee8bc" y="537.24"/>
     <use style="fill:#808080;stroke:#808080;" x="991.570044" xlink:href="#m29ad0ee8bc" y="402.84"/>
     <use style="fill:#808080;stroke:#808080;" x="993.536564" xlink:href="#m29ad0ee8bc" y="520.44"/>
     <use style="fill:#808080;stroke:#808080;" x="995.503084" xlink:href="#m29ad0ee8bc" y="436.44"/>
     <use style="fill:#808080;stroke:#808080;" x="997.469604" xlink:href="#m29ad0ee8bc" y="318.84"/>
     <use style="fill:#808080;stroke:#808080;" x="999.436123" xlink:href="#m29ad0ee8bc" y="402.84"/>
     <use style="fill:#808080;stroke:#808080;" x="1001.402643" xlink:href="#m29ad0ee8bc" y="520.44"/>
     <use style="fill:#808080;stroke:#808080;" x="1003.369163" xlink:href="#m29ad0ee8bc" y="537.24"/>
     <use style="fill:#808080;stroke:#808080;" x="1005.335683" xlink:href="#m29ad0ee8bc" y="369.24"/>
     <use style="fill:#808080;stroke:#808080;" x="1007.302203" xlink:href="#m29ad0ee8bc" y="486.84"/>
     <use style="fill:#808080;stroke:#808080;" x="1009.268722" xlink:href="#m29ad0ee8bc" y="402.84"/>
     <use style="fill:#808080;stroke:#808080;" x="1011.235242" xlink:href="#m29ad0ee8bc" y="537.24"/>
     <use style="fill:#808080;stroke:#808080;" x="1013.201762" xlink:href="#m29ad0ee8bc" y="453.24"/>
     <use style="fill:#808080;stroke:#808080;" x="1015.168282" xlink:href="#m29ad0ee8bc" y="503.64"/>
     <use style="fill:#808080;stroke:#808080;" x="1017.134802" xlink:href="#m29ad0ee8bc" y="537.24"/>
     <use style="fill:#808080;stroke:#808080;" x="1019.101322" xlink:href="#m29ad0ee8bc" y="436.44"/>
     <use style="fill:#808080;stroke:#808080;" x="1021.067841" xlink:href="#m29ad0ee8bc" y="503.64"/>
     <use style="fill:#808080;stroke:#808080;" x="1023.034361" xlink:href="#m29ad0ee8bc" y="470.04"/>
     <use style="fill:#808080;stroke:#808080;" x="1025.000881" xlink:href="#m29ad0ee8bc" y="402.84"/>
     <use style="fill:#808080;stroke:#808080;" x="1026.967401" xlink:href="#m29ad0ee8bc" y="503.64"/>
     <use style="fill:#808080;stroke:#808080;" x="1028.933921" xlink:href="#m29ad0ee8bc" y="520.44"/>
     <use style="fill:#808080;stroke:#808080;" x="1030.900441" xlink:href="#m29ad0ee8bc" y="537.24"/>
     <use style="fill:#808080;stroke:#808080;" x="1032.86696" xlink:href="#m29ad0ee8bc" y="554.04"/>
     <use style="fill:#808080;stroke:#808080;" x="1034.83348" xlink:href="#m29ad0ee8bc" y="486.84"/>
     <use style="fill:#808080;stroke:#808080;" x="1036.8" xlink:href="#m29ad0ee8bc" y="503.64"/>
    </g>
   </g>
   <g id="patch_3">
    <path d="M 144 576.72 
L 144 77.76 
" style="fill:none;stroke:#000000;stroke-linecap:square;stroke-linejoin:miter;stroke-width:0.8;"/>
   </g>
   <g id="patch_4">
    <path d="M 1036.8 576.72 
L 1036.8 77.76 
" style="fill:none;stroke:#000000;stroke-linecap:square;stroke-linejoin:miter;stroke-width:0.8;"/>
   </g>
   <g id="patch_5">
    <path d="M 144 576.72 
L 1036.8 576.72 
" style="fill:none;stroke:#000000;stroke-linecap:square;stroke-linejoin:miter;stroke-width:0.8;"/>
   </g>
   <g id="patch_6">
    <path d="M 144 77.76 
L 1036.8 77.76 
" style="fill:none;stroke:#000000;stroke-linecap:square;stroke-linejoin:miter;stroke-width:0.8;"/>
   </g>
   <g id="legend_1">
    <g id="patch_7">
     <path d="M 883.44375 159.150625 
L 1029.8 159.150625 
Q 1031.8 159.150625 1031.8 157.150625 
L 1031.8 84.76 
Q 1031.8 82.76 1029.8 82.76 
L 883.44375 82.76 
Q 881.44375 82.76 881.44375 84.76 
L 881.44375 157.150625 
Q 881.44375 159.150625 883.44375 159.150625 
z
" style="fill:#ffffff;opacity:0.8;stroke:#cccccc;stroke-linejoin:miter;"/>
    </g>
    <g id="line2d_25">
     <path d="M 885.44375 90.858438 
L 905.44375 90.858438 
" style="fill:none;stroke:#808080;stroke-dasharray:1.5,2.475;stroke-dashoffset:0;stroke-width:1.5;"/>
    </g>
    <g id="line2d_26">
     <g>
      <use style="fill:#808080;stroke:#808080;" x="895.44375" xlink:href="#m29ad0ee8bc" y="90.858438"/>
     </g>
    </g>
    <g id="text_13">
     <!-- Deaths -->
     <g transform="translate(913.44375 94.358438)scale(0.1 -0.1)">
      <defs>
       <path d="M 1259 4147 
L 1259 519 
L 2022 519 
Q 2988 519 3436 956 
Q 3884 1394 3884 2338 
Q 3884 3275 3436 3711 
Q 2988 4147 2022 4147 
L 1259 4147 
z
M 628 4666 
L 1925 4666 
Q 3281 4666 3915 4102 
Q 4550 3538 4550 2338 
Q 4550 1131 3912 565 
Q 3275 0 1925 0 
L 628 0 
L 628 4666 
z
" id="DejaVuSans-44" transform="scale(0.015625)"/>
       <path d="M 3597 1894 
L 3597 1613 
L 953 1613 
Q 991 1019 1311 708 
Q 1631 397 2203 397 
Q 2534 397 2845 478 
Q 3156 559 3463 722 
L 3463 178 
Q 3153 47 2828 -22 
Q 2503 -91 2169 -91 
Q 1331 -91 842 396 
Q 353 884 353 1716 
Q 353 2575 817 3079 
Q 1281 3584 2069 3584 
Q 2775 3584 3186 3129 
Q 3597 2675 3597 1894 
z
M 3022 2063 
Q 3016 2534 2758 2815 
Q 2500 3097 2075 3097 
Q 1594 3097 1305 2825 
Q 1016 2553 972 2059 
L 3022 2063 
z
" id="DejaVuSans-65" transform="scale(0.015625)"/>
       <path d="M 3513 2113 
L 3513 0 
L 2938 0 
L 2938 2094 
Q 2938 2591 2744 2837 
Q 2550 3084 2163 3084 
Q 1697 3084 1428 2787 
Q 1159 2491 1159 1978 
L 1159 0 
L 581 0 
L 581 4863 
L 1159 4863 
L 1159 2956 
Q 1366 3272 1645 3428 
Q 1925 3584 2291 3584 
Q 2894 3584 3203 3211 
Q 3513 2838 3513 2113 
z
" id="DejaVuSans-68" transform="scale(0.015625)"/>
       <path d="M 2834 3397 
L 2834 2853 
Q 2591 2978 2328 3040 
Q 2066 3103 1784 3103 
Q 1356 3103 1142 2972 
Q 928 2841 928 2578 
Q 928 2378 1081 2264 
Q 1234 2150 1697 2047 
L 1894 2003 
Q 2506 1872 2764 1633 
Q 3022 1394 3022 966 
Q 3022 478 2636 193 
Q 2250 -91 1575 -91 
Q 1294 -91 989 -36 
Q 684 19 347 128 
L 347 722 
Q 666 556 975 473 
Q 1284 391 1588 391 
Q 1994 391 2212 530 
Q 2431 669 2431 922 
Q 2431 1156 2273 1281 
Q 2116 1406 1581 1522 
L 1381 1569 
Q 847 1681 609 1914 
Q 372 2147 372 2553 
Q 372 3047 722 3315 
Q 1072 3584 1716 3584 
Q 2034 3584 2315 3537 
Q 2597 3491 2834 3397 
z
" id="DejaVuSans-73" transform="scale(0.015625)"/>
      </defs>
      <use xlink:href="#DejaVuSans-44"/>
      <use x="77.001953" xlink:href="#DejaVuSans-65"/>
      <use x="138.525391" xlink:href="#DejaVuSans-61"/>
      <use x="199.804688" xlink:href="#DejaVuSans-74"/>
      <use x="239.013672" xlink:href="#DejaVuSans-68"/>
      <use x="302.392578" xlink:href="#DejaVuSans-73"/>
     </g>
    </g>
    <g id="line2d_27">
     <path d="M 885.44375 105.536563 
L 905.44375 105.536563 
" style="fill:none;stroke:#1f77b4;stroke-linecap:square;stroke-width:1.5;"/>
    </g>
    <g id="line2d_28"/>
    <g id="text_14">
     <!-- ICU low care (right) -->
     <g transform="translate(913.44375 109.036563)scale(0.1 -0.1)">
      <defs>
       <path d="M 628 4666 
L 1259 4666 
L 1259 0 
L 628 0 
L 628 4666 
z
" id="DejaVuSans-49" transform="scale(0.015625)"/>
       <path d="M 4122 4306 
L 4122 3641 
Q 3803 3938 3442 4084 
Q 3081 4231 2675 4231 
Q 1875 4231 1450 3742 
Q 1025 3253 1025 2328 
Q 1025 1406 1450 917 
Q 1875 428 2675 428 
Q 3081 428 3442 575 
Q 3803 722 4122 1019 
L 4122 359 
Q 3791 134 3420 21 
Q 3050 -91 2638 -91 
Q 1578 -91 968 557 
Q 359 1206 359 2328 
Q 359 3453 968 4101 
Q 1578 4750 2638 4750 
Q 3056 4750 3426 4639 
Q 3797 4528 4122 4306 
z
" id="DejaVuSans-43" transform="scale(0.015625)"/>
       <path d="M 556 4666 
L 1191 4666 
L 1191 1831 
Q 1191 1081 1462 751 
Q 1734 422 2344 422 
Q 2950 422 3222 751 
Q 3494 1081 3494 1831 
L 3494 4666 
L 4128 4666 
L 4128 1753 
Q 4128 841 3676 375 
Q 3225 -91 2344 -91 
Q 1459 -91 1007 375 
Q 556 841 556 1753 
L 556 4666 
z
" id="DejaVuSans-55" transform="scale(0.015625)"/>
       <path id="DejaVuSans-20" transform="scale(0.015625)"/>
       <path d="M 1959 3097 
Q 1497 3097 1228 2736 
Q 959 2375 959 1747 
Q 959 1119 1226 758 
Q 1494 397 1959 397 
Q 2419 397 2687 759 
Q 2956 1122 2956 1747 
Q 2956 2369 2687 2733 
Q 2419 3097 1959 3097 
z
M 1959 3584 
Q 2709 3584 3137 3096 
Q 3566 2609 3566 1747 
Q 3566 888 3137 398 
Q 2709 -91 1959 -91 
Q 1206 -91 779 398 
Q 353 888 353 1747 
Q 353 2609 779 3096 
Q 1206 3584 1959 3584 
z
" id="DejaVuSans-6f" transform="scale(0.015625)"/>
       <path d="M 269 3500 
L 844 3500 
L 1563 769 
L 2278 3500 
L 2956 3500 
L 3675 769 
L 4391 3500 
L 4966 3500 
L 4050 0 
L 3372 0 
L 2619 2869 
L 1863 0 
L 1184 0 
L 269 3500 
z
" id="DejaVuSans-77" transform="scale(0.015625)"/>
       <path d="M 1984 4856 
Q 1566 4138 1362 3434 
Q 1159 2731 1159 2009 
Q 1159 1288 1364 580 
Q 1569 -128 1984 -844 
L 1484 -844 
Q 1016 -109 783 600 
Q 550 1309 550 2009 
Q 550 2706 781 3412 
Q 1013 4119 1484 4856 
L 1984 4856 
z
" id="DejaVuSans-28" transform="scale(0.015625)"/>
       <path d="M 603 3500 
L 1178 3500 
L 1178 0 
L 603 0 
L 603 3500 
z
M 603 4863 
L 1178 4863 
L 1178 4134 
L 603 4134 
L 603 4863 
z
" id="DejaVuSans-69" transform="scale(0.015625)"/>
       <path d="M 2906 1791 
Q 2906 2416 2648 2759 
Q 2391 3103 1925 3103 
Q 1463 3103 1205 2759 
Q 947 2416 947 1791 
Q 947 1169 1205 825 
Q 1463 481 1925 481 
Q 2391 481 2648 825 
Q 2906 1169 2906 1791 
z
M 3481 434 
Q 3481 -459 3084 -895 
Q 2688 -1331 1869 -1331 
Q 1566 -1331 1297 -1286 
Q 1028 -1241 775 -1147 
L 775 -588 
Q 1028 -725 1275 -790 
Q 1522 -856 1778 -856 
Q 2344 -856 2625 -561 
Q 2906 -266 2906 331 
L 2906 616 
Q 2728 306 2450 153 
Q 2172 0 1784 0 
Q 1141 0 747 490 
Q 353 981 353 1791 
Q 353 2603 747 3093 
Q 1141 3584 1784 3584 
Q 2172 3584 2450 3431 
Q 2728 3278 2906 2969 
L 2906 3500 
L 3481 3500 
L 3481 434 
z
" id="DejaVuSans-67" transform="scale(0.015625)"/>
       <path d="M 513 4856 
L 1013 4856 
Q 1481 4119 1714 3412 
Q 1947 2706 1947 2009 
Q 1947 1309 1714 600 
Q 1481 -109 1013 -844 
L 513 -844 
Q 928 -128 1133 580 
Q 1338 1288 1338 2009 
Q 1338 2731 1133 3434 
Q 928 4138 513 4856 
z
" id="DejaVuSans-29" transform="scale(0.015625)"/>
      </defs>
      <use xlink:href="#DejaVuSans-49"/>
      <use x="29.492188" xlink:href="#DejaVuSans-43"/>
      <use x="99.316406" xlink:href="#DejaVuSans-55"/>
      <use x="172.509766" xlink:href="#DejaVuSans-20"/>
      <use x="204.296875" xlink:href="#DejaVuSans-6c"/>
      <use x="232.080078" xlink:href="#DejaVuSans-6f"/>
      <use x="293.261719" xlink:href="#DejaVuSans-77"/>
      <use x="375.048828" xlink:href="#DejaVuSans-20"/>
      <use x="406.835938" xlink:href="#DejaVuSans-63"/>
      <use x="461.816406" xlink:href="#DejaVuSans-61"/>
      <use x="523.095703" xlink:href="#DejaVuSans-72"/>
      <use x="561.958984" xlink:href="#DejaVuSans-65"/>
      <use x="623.482422" xlink:href="#DejaVuSans-20"/>
      <use x="655.269531" xlink:href="#DejaVuSans-28"/>
      <use x="694.283203" xlink:href="#DejaVuSans-72"/>
      <use x="735.396484" xlink:href="#DejaVuSans-69"/>
      <use x="763.179688" xlink:href="#DejaVuSans-67"/>
      <use x="826.65625" xlink:href="#DejaVuSans-68"/>
      <use x="890.035156" xlink:href="#DejaVuSans-74"/>
      <use x="929.244141" xlink:href="#DejaVuSans-29"/>
     </g>
    </g>
    <g id="line2d_29">
     <path d="M 885.44375 120.214688 
L 905.44375 120.214688 
" style="fill:none;stroke:#ff7f0e;stroke-linecap:square;stroke-width:1.5;"/>
    </g>
    <g id="line2d_30"/>
    <g id="text_15">
     <!-- ICU high care (right) -->
     <g transform="translate(913.44375 123.714688)scale(0.1 -0.1)">
      <use xlink:href="#DejaVuSans-49"/>
      <use x="29.492188" xlink:href="#DejaVuSans-43"/>
      <use x="99.316406" xlink:href="#DejaVuSans-55"/>
      <use x="172.509766" xlink:href="#DejaVuSans-20"/>
      <use x="204.296875" xlink:href="#DejaVuSans-68"/>
      <use x="267.675781" xlink:href="#DejaVuSans-69"/>
      <use x="295.458984" xlink:href="#DejaVuSans-67"/>
      <use x="358.935547" xlink:href="#DejaVuSans-68"/>
      <use x="422.314453" xlink:href="#DejaVuSans-20"/>
      <use x="454.101562" xlink:href="#DejaVuSans-63"/>
      <use x="509.082031" xlink:href="#DejaVuSans-61"/>
      <use x="570.361328" xlink:href="#DejaVuSans-72"/>
      <use x="609.224609" xlink:href="#DejaVuSans-65"/>
      <use x="670.748047" xlink:href="#DejaVuSans-20"/>
      <use x="702.535156" xlink:href="#DejaVuSans-28"/>
      <use x="741.548828" xlink:href="#DejaVuSans-72"/>
      <use x="782.662109" xlink:href="#DejaVuSans-69"/>
      <use x="810.445312" xlink:href="#DejaVuSans-67"/>
      <use x="873.921875" xlink:href="#DejaVuSans-68"/>
      <use x="937.300781" xlink:href="#DejaVuSans-74"/>
      <use x="976.509766" xlink:href="#DejaVuSans-29"/>
     </g>
    </g>
    <g id="line2d_31">
     <path d="M 885.44375 134.892813 
L 905.44375 134.892813 
" style="fill:none;stroke:#2ca02c;stroke-linecap:square;stroke-width:1.5;"/>
    </g>
    <g id="line2d_32"/>
    <g id="text_16">
     <!-- ECMO (right) -->
     <g transform="translate(913.44375 138.392813)scale(0.1 -0.1)">
      <defs>
       <path d="M 628 4666 
L 3578 4666 
L 3578 4134 
L 1259 4134 
L 1259 2753 
L 3481 2753 
L 3481 2222 
L 1259 2222 
L 1259 531 
L 3634 531 
L 3634 0 
L 628 0 
L 628 4666 
z
" id="DejaVuSans-45" transform="scale(0.015625)"/>
       <path d="M 628 4666 
L 1569 4666 
L 2759 1491 
L 3956 4666 
L 4897 4666 
L 4897 0 
L 4281 0 
L 4281 4097 
L 3078 897 
L 2444 897 
L 1241 4097 
L 1241 0 
L 628 0 
L 628 4666 
z
" id="DejaVuSans-4d" transform="scale(0.015625)"/>
      </defs>
      <use xlink:href="#DejaVuSans-45"/>
      <use x="63.183594" xlink:href="#DejaVuSans-43"/>
      <use x="133.007812" xlink:href="#DejaVuSans-4d"/>
      <use x="219.287109" xlink:href="#DejaVuSans-4f"/>
      <use x="297.998047" xlink:href="#DejaVuSans-20"/>
      <use x="329.785156" xlink:href="#DejaVuSans-28"/>
      <use x="368.798828" xlink:href="#DejaVuSans-72"/>
      <use x="409.912109" xlink:href="#DejaVuSans-69"/>
      <use x="437.695312" xlink:href="#DejaVuSans-67"/>
      <use x="501.171875" xlink:href="#DejaVuSans-68"/>
      <use x="564.550781" xlink:href="#DejaVuSans-74"/>
      <use x="603.759766" xlink:href="#DejaVuSans-29"/>
     </g>
    </g>
    <g id="line2d_33">
     <path d="M 885.44375 149.570938 
L 905.44375 149.570938 
" style="fill:none;stroke:#d62728;stroke-linecap:square;stroke-width:1.5;"/>
    </g>
    <g id="line2d_34"/>
    <g id="text_17">
     <!-- COVID-19 cases (right) -->
     <g transform="translate(913.44375 153.070938)scale(0.1 -0.1)">
      <defs>
       <path d="M 1831 0 
L 50 4666 
L 709 4666 
L 2188 738 
L 3669 4666 
L 4325 4666 
L 2547 0 
L 1831 0 
z
" id="DejaVuSans-56" transform="scale(0.015625)"/>
       <path d="M 313 2009 
L 1997 2009 
L 1997 1497 
L 313 1497 
L 313 2009 
z
" id="DejaVuSans-2d" transform="scale(0.015625)"/>
       <path d="M 703 97 
L 703 672 
Q 941 559 1184 500 
Q 1428 441 1663 441 
Q 2288 441 2617 861 
Q 2947 1281 2994 2138 
Q 2813 1869 2534 1725 
Q 2256 1581 1919 1581 
Q 1219 1581 811 2004 
Q 403 2428 403 3163 
Q 403 3881 828 4315 
Q 1253 4750 1959 4750 
Q 2769 4750 3195 4129 
Q 3622 3509 3622 2328 
Q 3622 1225 3098 567 
Q 2575 -91 1691 -91 
Q 1453 -91 1209 -44 
Q 966 3 703 97 
z
M 1959 2075 
Q 2384 2075 2632 2365 
Q 2881 2656 2881 3163 
Q 2881 3666 2632 3958 
Q 2384 4250 1959 4250 
Q 1534 4250 1286 3958 
Q 1038 3666 1038 3163 
Q 1038 2656 1286 2365 
Q 1534 2075 1959 2075 
z
" id="DejaVuSans-39" transform="scale(0.015625)"/>
      </defs>
      <use xlink:href="#DejaVuSans-43"/>
      <use x="69.824219" xlink:href="#DejaVuSans-4f"/>
      <use x="146.785156" xlink:href="#DejaVuSans-56"/>
      <use x="215.193359" xlink:href="#DejaVuSans-49"/>
      <use x="244.685547" xlink:href="#DejaVuSans-44"/>
      <use x="321.6875" xlink:href="#DejaVuSans-2d"/>
      <use x="357.771484" xlink:href="#DejaVuSans-31"/>
      <use x="421.394531" xlink:href="#DejaVuSans-39"/>
      <use x="485.017578" xlink:href="#DejaVuSans-20"/>
      <use x="516.804688" xlink:href="#DejaVuSans-63"/>
      <use x="571.785156" xlink:href="#DejaVuSans-61"/>
      <use x="633.064453" xlink:href="#DejaVuSans-73"/>
      <use x="685.164062" xlink:href="#DejaVuSans-65"/>
      <use x="746.6875" xlink:href="#DejaVuSans-73"/>
      <use x="798.787109" xlink:href="#DejaVuSans-20"/>
      <use x="830.574219" xlink:href="#DejaVuSans-28"/>
      <use x="869.587891" xlink:href="#DejaVuSans-72"/>
      <use x="910.701172" xlink:href="#DejaVuSans-69"/>
      <use x="938.484375" xlink:href="#DejaVuSans-67"/>
      <use x="1001.960938" xlink:href="#DejaVuSans-68"/>
      <use x="1065.339844" xlink:href="#DejaVuSans-74"/>
      <use x="1104.548828" xlink:href="#DejaVuSans-29"/>
     </g>
    </g>
   </g>
  </g>
  <g id="axes_2">
   <g id="matplotlib.axis_3">
    <g id="ytick_7">
     <g id="line2d_35">
      <defs>
       <path d="M 0 0 
L 3.5 0 
" id="mabb0f64e80" style="stroke:#000000;stroke-width:0.8;"/>
      </defs>
      <g>
       <use style="stroke:#000000;stroke-width:0.8;" x="1036.8" xlink:href="#mabb0f64e80" y="576.72"/>
      </g>
     </g>
     <g id="text_18">
      <!-- available -->
      <g transform="translate(1043.8 580.519219)scale(0.1 -0.1)">
       <defs>
        <path d="M 191 3500 
L 800 3500 
L 1894 563 
L 2988 3500 
L 3597 3500 
L 2284 0 
L 1503 0 
L 191 3500 
z
" id="DejaVuSans-76" transform="scale(0.015625)"/>
        <path d="M 3116 1747 
Q 3116 2381 2855 2742 
Q 2594 3103 2138 3103 
Q 1681 3103 1420 2742 
Q 1159 2381 1159 1747 
Q 1159 1113 1420 752 
Q 1681 391 2138 391 
Q 2594 391 2855 752 
Q 3116 1113 3116 1747 
z
M 1159 2969 
Q 1341 3281 1617 3432 
Q 1894 3584 2278 3584 
Q 2916 3584 3314 3078 
Q 3713 2572 3713 1747 
Q 3713 922 3314 415 
Q 2916 -91 2278 -91 
Q 1894 -91 1617 61 
Q 1341 213 1159 525 
L 1159 0 
L 581 0 
L 581 4863 
L 1159 4863 
L 1159 2969 
z
" id="DejaVuSans-62" transform="scale(0.015625)"/>
       </defs>
       <use xlink:href="#DejaVuSans-61"/>
       <use x="61.279297" xlink:href="#DejaVuSans-76"/>
       <use x="120.458984" xlink:href="#DejaVuSans-61"/>
       <use x="181.738281" xlink:href="#DejaVuSans-69"/>
       <use x="209.521484" xlink:href="#DejaVuSans-6c"/>
       <use x="237.304688" xlink:href="#DejaVuSans-61"/>
       <use x="298.583984" xlink:href="#DejaVuSans-62"/>
       <use x="362.060547" xlink:href="#DejaVuSans-6c"/>
       <use x="389.84375" xlink:href="#DejaVuSans-65"/>
      </g>
     </g>
    </g>
    <g id="ytick_8">
     <g id="line2d_36">
      <g>
       <use style="stroke:#000000;stroke-width:0.8;" x="1036.8" xlink:href="#mabb0f64e80" y="327.24"/>
      </g>
     </g>
     <g id="text_19">
      <!-- limited -->
      <g transform="translate(1043.8 331.039219)scale(0.1 -0.1)">
       <defs>
        <path d="M 3328 2828 
Q 3544 3216 3844 3400 
Q 4144 3584 4550 3584 
Q 5097 3584 5394 3201 
Q 5691 2819 5691 2113 
L 5691 0 
L 5113 0 
L 5113 2094 
Q 5113 2597 4934 2840 
Q 4756 3084 4391 3084 
Q 3944 3084 3684 2787 
Q 3425 2491 3425 1978 
L 3425 0 
L 2847 0 
L 2847 2094 
Q 2847 2600 2669 2842 
Q 2491 3084 2119 3084 
Q 1678 3084 1418 2786 
Q 1159 2488 1159 1978 
L 1159 0 
L 581 0 
L 581 3500 
L 1159 3500 
L 1159 2956 
Q 1356 3278 1631 3431 
Q 1906 3584 2284 3584 
Q 2666 3584 2933 3390 
Q 3200 3197 3328 2828 
z
" id="DejaVuSans-6d" transform="scale(0.015625)"/>
       </defs>
       <use xlink:href="#DejaVuSans-6c"/>
       <use x="27.783203" xlink:href="#DejaVuSans-69"/>
       <use x="55.566406" xlink:href="#DejaVuSans-6d"/>
       <use x="152.978516" xlink:href="#DejaVuSans-69"/>
       <use x="180.761719" xlink:href="#DejaVuSans-74"/>
       <use x="219.970703" xlink:href="#DejaVuSans-65"/>
       <use x="281.494141" xlink:href="#DejaVuSans-64"/>
      </g>
     </g>
    </g>
    <g id="ytick_9">
     <g id="line2d_37">
      <g>
       <use style="stroke:#000000;stroke-width:0.8;" x="1036.8" xlink:href="#mabb0f64e80" y="77.76"/>
      </g>
     </g>
     <g id="text_20">
      <!-- unavailable -->
      <g transform="translate(1043.8 81.559219)scale(0.1 -0.1)">
       <use xlink:href="#DejaVuSans-75"/>
       <use x="63.378906" xlink:href="#DejaVuSans-6e"/>
       <use x="126.757812" xlink:href="#DejaVuSans-61"/>
       <use x="188.037109" xlink:href="#DejaVuSans-76"/>
       <use x="247.216797" xlink:href="#DejaVuSans-61"/>
       <use x="308.496094" xlink:href="#DejaVuSans-69"/>
       <use x="336.279297" xlink:href="#DejaVuSans-6c"/>
       <use x="364.0625" xlink:href="#DejaVuSans-61"/>
       <use x="425.341797" xlink:href="#DejaVuSans-62"/>
       <use x="488.818359" xlink:href="#DejaVuSans-6c"/>
       <use x="516.601562" xlink:href="#DejaVuSans-65"/>
      </g>
     </g>
    </g>
   </g>
   <g id="line2d_38">
    <path clip-path="url(#p9d51216f04)" d="M 615.964758 194.70375 
L 617.931278 179.11125 
L 619.897797 186.9075 
L 621.864317 202.5 
L 623.830837 194.70375 
L 625.797357 202.5 
L 627.763877 218.0925 
L 629.730396 186.9075 
L 631.696916 171.315 
L 633.663436 202.5 
L 635.629956 200.52 
L 637.596476 210.29625 
L 639.562996 233.685 
L 641.529515 235.326316 
L 643.496035 233.685 
L 645.462555 225.88875 
L 647.429075 194.70375 
L 649.395595 179.11125 
L 651.362115 184.30875 
L 653.328634 179.11125 
L 657.261674 210.29625 
L 659.228194 190.805625 
L 661.194714 209.1825 
L 663.161233 218.0925 
L 667.094273 171.315 
L 669.060793 186.9075 
L 671.027313 177.811875 
L 672.993833 186.9075 
L 674.960352 179.11125 
L 676.926872 194.70375 
L 678.893392 198.601875 
L 680.859912 210.29625 
L 682.826432 202.5 
L 684.792952 202.5 
L 686.759471 186.9075 
L 688.725991 194.70375 
L 690.692511 189.50625 
L 692.659031 202.5 
L 694.625551 210.29625 
L 696.59207 280.4625 
L 698.55859 202.5 
L 700.52511 210.29625 
L 702.49163 194.70375 
L 704.45815 225.88875 
L 706.42467 225.88875 
L 708.391189 249.2775 
L 710.357709 194.70375 
L 712.324229 155.7225 
L 714.290749 155.7225 
L 718.223789 218.0925 
L 720.190308 215.96625 
L 722.156828 202.5 
L 724.123348 218.0925 
L 726.089868 225.88875 
L 728.056388 218.0925 
L 730.022907 202.5 
L 731.989427 194.70375 
L 733.955947 210.29625 
L 735.922467 218.0925 
L 737.888987 179.11125 
L 741.822026 194.70375 
L 743.788546 218.0925 
L 745.755066 264.87 
L 747.721586 257.07375 
L 749.688106 225.88875 
L 751.654626 264.87 
L 753.621145 296.055 
L 755.587665 311.6475 
L 757.554185 319.44375 
L 759.520705 311.6475 
L 761.487225 288.25875 
L 763.453744 296.055 
L 765.420264 249.2775 
L 767.386784 264.87 
L 771.319824 249.2775 
L 773.286344 257.07375 
L 775.252863 280.4625 
L 777.219383 280.4625 
L 781.152423 264.87 
L 783.118943 272.66625 
L 785.085463 272.66625 
L 787.051982 303.85125 
L 790.985022 350.62875 
L 792.951542 350.62875 
L 794.918062 342.8325 
L 796.884581 311.6475 
L 798.851101 303.85125 
L 800.817621 319.44375 
L 802.784141 311.6475 
L 804.750661 327.24 
L 806.717181 335.03625 
L 808.6837 327.24 
L 810.65022 288.25875 
L 812.61674 272.66625 
L 814.58326 303.85125 
L 816.54978 311.6475 
L 818.5163 311.6475 
L 820.482819 319.44375 
L 822.449339 288.25875 
L 824.415859 280.4625 
L 826.382379 264.87 
L 828.348899 264.87 
L 830.315419 272.66625 
L 832.281938 296.055 
L 836.214978 280.4625 
L 838.181498 303.85125 
L 840.148018 280.4625 
L 842.114537 264.87 
L 844.081057 272.66625 
L 846.047577 264.87 
L 848.014097 264.87 
L 849.980617 241.48125 
L 851.947137 210.29625 
L 855.880176 241.48125 
L 857.846696 249.2775 
L 861.779736 218.0925 
L 865.712775 202.5 
L 867.679295 241.48125 
L 869.645815 233.685 
L 871.612335 241.48125 
L 873.578855 241.48125 
L 877.511894 225.88875 
L 879.478414 210.29625 
L 881.444934 210.29625 
L 883.411454 241.48125 
L 885.377974 241.48125 
L 887.344493 210.29625 
L 889.311013 225.88875 
L 891.277533 194.70375 
L 893.244053 218.0925 
L 895.210573 249.2775 
L 897.177093 288.25875 
L 899.143612 264.87 
L 901.110132 264.87 
L 903.076652 249.2775 
L 905.043172 241.48125 
L 907.009692 241.48125 
M 944.373568 280.4625 
L 946.340088 257.07375 
L 950.273128 257.07375 
L 952.239648 288.25875 
L 954.206167 296.055 
L 956.172687 307.120645 
L 958.139207 295.049032 
M 971.904846 303.85125 
L 973.871366 288.25875 
L 975.837885 327.24 
L 977.804405 303.85125 
L 979.770925 272.66625 
L 981.737445 296.055 
L 983.703965 290.8575 
L 985.670485 276.564375 
L 987.637004 264.213474 
L 989.603524 246.762581 
L 991.570044 295.049032 
L 993.536564 299.953125 
L 995.503084 264.87 
L 997.469604 264.87 
L 999.436123 253.175625 
L 1001.402643 245.379375 
L 1003.369163 257.07375 
L 1005.335683 237.583125 
L 1007.302203 241.48125 
L 1009.268722 246.67875 
L 1011.235242 257.07375 
L 1013.201762 253.175625 
L 1015.168282 266.42925 
M 1023.034361 288.25875 
L 1026.967401 319.44375 
L 1028.933921 311.6475 
L 1030.900441 288.25875 
L 1032.86696 288.25875 
L 1034.83348 268.768125 
L 1036.8 280.4625 
L 1036.8 280.4625 
" style="fill:none;stroke:#1f77b4;stroke-linecap:square;stroke-width:1.5;"/>
   </g>
   <g id="line2d_39">
    <path clip-path="url(#p9d51216f04)" d="M 615.964758 210.29625 
L 617.931278 179.11125 
L 619.897797 186.9075 
L 621.864317 210.29625 
L 623.830837 218.0925 
L 625.797357 218.0925 
L 627.763877 233.685 
L 629.730396 179.11125 
L 631.696916 171.315 
L 633.663436 194.70375 
L 635.629956 192.6 
L 637.596476 233.685 
L 639.562996 225.88875 
L 641.529515 190.600461 
L 643.496035 186.9075 
L 645.462555 202.5 
L 647.429075 163.51875 
L 649.395595 147.92625 
L 651.362115 168.71625 
L 653.328634 171.315 
L 655.295154 171.315 
L 657.261674 186.9075 
L 659.228194 163.51875 
L 661.194714 215.865 
L 663.161233 210.29625 
L 665.127753 179.11125 
L 667.094273 171.315 
L 669.060793 179.11125 
L 671.027313 193.404375 
L 672.993833 179.11125 
L 674.960352 179.11125 
L 676.926872 186.9075 
L 680.859912 241.48125 
L 682.826432 225.88875 
L 684.792952 225.88875 
L 686.759471 194.70375 
L 688.725991 202.5 
L 690.692511 184.30875 
L 692.659031 179.11125 
L 694.625551 210.29625 
L 696.59207 249.2775 
L 698.55859 194.70375 
L 700.52511 202.5 
L 704.45815 202.5 
L 706.42467 179.11125 
L 708.391189 210.29625 
L 710.357709 210.29625 
L 712.324229 171.315 
L 714.290749 171.315 
L 716.257269 202.5 
L 718.223789 194.70375 
L 720.190308 195.4125 
L 722.156828 194.70375 
L 724.123348 202.5 
L 726.089868 202.5 
L 728.056388 194.70375 
L 730.022907 202.5 
L 731.989427 225.88875 
L 733.955947 218.0925 
L 735.922467 225.88875 
L 737.888987 202.5 
L 739.855507 194.70375 
L 741.822026 210.29625 
L 743.788546 241.48125 
L 745.755066 225.88875 
L 747.721586 218.0925 
L 749.688106 225.88875 
L 751.654626 241.48125 
L 753.621145 288.25875 
L 755.587665 303.85125 
L 757.554185 327.24 
L 759.520705 296.055 
L 761.487225 272.66625 
L 763.453744 264.87 
L 765.420264 233.685 
L 767.386784 233.685 
L 771.319824 264.87 
L 773.286344 296.055 
L 777.219383 296.055 
L 779.185903 311.6475 
L 781.152423 288.25875 
L 783.118943 280.4625 
L 785.085463 264.87 
L 787.051982 288.25875 
L 789.018502 288.25875 
L 790.985022 280.4625 
L 792.951542 288.25875 
L 794.918062 264.87 
L 798.851101 249.2775 
L 800.817621 249.2775 
L 802.784141 257.07375 
L 804.750661 249.2775 
L 808.6837 264.87 
L 810.65022 249.2775 
L 812.61674 264.87 
L 814.58326 296.055 
L 816.54978 311.6475 
L 820.482819 296.055 
L 822.449339 257.07375 
L 824.415859 249.2775 
L 826.382379 218.0925 
L 828.348899 241.48125 
L 830.315419 257.07375 
L 832.281938 264.87 
L 834.248458 257.07375 
L 836.214978 241.48125 
L 838.181498 249.2775 
L 842.114537 233.685 
L 844.081057 218.0925 
L 846.047577 194.70375 
L 848.014097 218.0925 
L 849.980617 202.5 
L 851.947137 194.70375 
L 853.913656 194.70375 
L 855.880176 210.29625 
L 857.846696 241.48125 
L 859.813216 225.88875 
L 863.746256 210.29625 
L 865.712775 194.70375 
L 867.679295 218.0925 
L 869.645815 210.29625 
L 871.612335 218.0925 
L 873.578855 210.29625 
L 875.545374 210.29625 
L 877.511894 194.70375 
L 879.478414 202.5 
L 881.444934 218.0925 
L 883.411454 225.88875 
L 885.377974 225.88875 
L 887.344493 218.0925 
L 889.311013 249.2775 
L 891.277533 194.70375 
L 893.244053 233.685 
L 895.210573 249.2775 
L 897.177093 280.4625 
L 899.143612 257.07375 
L 901.110132 264.87 
L 903.076652 249.2775 
L 907.009692 249.2775 
M 944.373568 280.4625 
L 946.340088 264.87 
L 948.306608 264.87 
L 950.273128 241.48125 
L 952.239648 264.87 
L 954.206167 264.87 
L 956.172687 246.762581 
L 958.139207 246.762581 
M 971.904846 296.055 
L 973.871366 288.25875 
L 975.837885 319.44375 
L 977.804405 311.6475 
L 979.770925 296.055 
L 981.737445 296.055 
L 983.703965 264.87 
L 985.670485 264.87 
L 987.637004 253.709053 
L 989.603524 218.595484 
L 991.570044 258.834194 
L 993.536564 268.768125 
L 995.503084 229.786875 
L 997.469604 221.990625 
L 999.436123 229.786875 
L 1001.402643 253.175625 
L 1003.369163 254.475 
L 1005.335683 249.2775 
L 1007.302203 231.08625 
L 1009.268722 231.08625 
L 1011.235242 235.634063 
L 1013.201762 225.88875 
L 1015.168282 243.0405 
M 1023.034361 249.2775 
L 1026.967401 280.4625 
L 1028.933921 288.25875 
L 1030.900441 268.768125 
L 1032.86696 276.564375 
L 1034.83348 264.87 
L 1036.8 272.66625 
L 1036.8 272.66625 
" style="fill:none;stroke:#ff7f0e;stroke-linecap:square;stroke-width:1.5;"/>
   </g>
   <g id="line2d_40">
    <path clip-path="url(#p9d51216f04)" d="M 615.964758 155.7225 
L 617.931278 108.945 
L 619.897797 108.945 
L 623.830837 202.5 
L 625.797357 147.92625 
L 627.763877 147.92625 
L 629.730396 249.2775 
L 631.696916 249.2775 
L 633.663436 186.9075 
L 635.629956 255.96 
L 637.596476 233.685 
L 639.562996 280.4625 
L 641.529515 175.007961 
L 643.496035 116.74125 
L 645.462555 171.315 
L 647.429075 171.315 
L 649.395595 140.13 
L 651.362115 116.74125 
L 655.295154 116.74125 
L 657.261674 132.33375 
L 659.228194 140.13 
L 661.194714 132.33375 
L 667.094273 132.33375 
L 669.060793 171.315 
L 671.027313 225.88875 
L 676.926872 225.88875 
L 678.893392 171.315 
L 684.792952 171.315 
L 686.759471 132.33375 
L 688.725991 116.74125 
L 690.692511 225.88875 
L 700.52511 225.88875 
L 702.49163 171.315 
L 704.45815 171.315 
L 706.42467 186.9075 
L 708.391189 241.48125 
L 710.357709 241.48125 
L 712.324229 93.3525 
L 714.290749 163.51875 
L 716.257269 218.0925 
L 718.223789 264.87 
L 720.190308 261.32625 
L 722.156828 288.25875 
L 724.123348 288.25875 
L 726.089868 280.4625 
L 730.022907 280.4625 
L 731.989427 233.685 
L 733.955947 179.11125 
L 739.855507 179.11125 
L 741.822026 163.51875 
L 745.755066 163.51875 
L 747.721586 272.66625 
L 749.688106 272.66625 
L 751.654626 311.6475 
L 753.621145 288.25875 
L 755.587665 303.85125 
L 757.554185 335.03625 
L 759.520705 327.24 
L 761.487225 327.24 
L 765.420264 233.685 
L 777.219383 233.685 
L 779.185903 249.2775 
L 781.152423 257.07375 
L 783.118943 241.48125 
L 785.085463 179.11125 
L 787.051982 124.5375 
L 789.018502 116.74125 
L 790.985022 124.5375 
L 792.951542 140.13 
L 796.884581 140.13 
L 798.851101 194.70375 
L 800.817621 194.70375 
L 802.784141 186.9075 
L 806.717181 186.9075 
L 808.6837 202.5 
L 810.65022 210.29625 
L 824.415859 210.29625 
L 826.382379 202.5 
L 828.348899 233.685 
L 830.315419 171.315 
L 832.281938 171.315 
L 834.248458 155.7225 
L 836.214978 155.7225 
L 838.181498 171.315 
L 840.148018 194.70375 
L 842.114537 179.11125 
L 844.081057 186.9075 
L 846.047577 179.11125 
L 848.014097 179.11125 
L 849.980617 132.33375 
L 851.947137 132.33375 
L 853.913656 116.74125 
L 855.880176 116.74125 
L 857.846696 163.51875 
L 861.779736 163.51875 
L 863.746256 202.5 
L 869.645815 202.5 
L 871.612335 163.51875 
L 873.578855 116.74125 
L 875.545374 116.74125 
L 877.511894 171.315 
L 887.344493 171.315 
L 889.311013 194.70375 
L 891.277533 249.2775 
L 893.244053 210.29625 
L 895.210573 210.29625 
L 897.177093 241.48125 
L 899.143612 186.9075 
L 901.110132 186.9075 
L 903.076652 171.315 
L 905.043172 342.8325 
L 907.009692 342.8325 
M 944.373568 264.87 
L 946.340088 264.87 
L 948.306608 233.685 
L 954.206167 233.685 
L 956.172687 238.714839 
L 958.139207 238.714839 
M 971.904846 264.87 
L 977.804405 264.87 
L 979.770925 288.25875 
L 981.737445 272.66625 
L 983.703965 272.66625 
L 985.670485 268.768125 
L 987.637004 251.082947 
L 989.603524 254.810323 
L 991.570044 238.714839 
L 993.536564 233.685 
L 995.503084 233.685 
L 997.469604 186.9075 
L 1001.402643 194.70375 
L 1003.369163 186.9075 
L 1005.335683 210.29625 
L 1007.302203 218.0925 
L 1009.268722 197.3025 
L 1011.235242 241.48125 
L 1015.168282 163.51875 
M 1023.034361 186.9075 
L 1036.8 186.9075 
L 1036.8 186.9075 
" style="fill:none;stroke:#2ca02c;stroke-linecap:square;stroke-width:1.5;"/>
   </g>
   <g id="line2d_41">
    <path clip-path="url(#p9d51216f04)" d="M 0 0 
" style="fill:none;stroke:#d62728;stroke-linecap:square;stroke-width:1.5;"/>
   </g>
   <g id="patch_8">
    <path d="M 144 576.72 
L 144 77.76 
" style="fill:none;stroke:#000000;stroke-linecap:square;stroke-linejoin:miter;stroke-width:0.8;"/>
   </g>
   <g id="patch_9">
    <path d="M 1036.8 576.72 
L 1036.8 77.76 
" style="fill:none;stroke:#000000;stroke-linecap:square;stroke-linejoin:miter;stroke-width:0.8;"/>
   </g>
   <g id="patch_10">
    <path d="M 144 576.72 
L 1036.8 576.72 
" style="fill:none;stroke:#000000;stroke-linecap:square;stroke-linejoin:miter;stroke-width:0.8;"/>
   </g>
   <g id="patch_11">
    <path d="M 144 77.76 
L 1036.8 77.76 
" style="fill:none;stroke:#000000;stroke-linecap:square;stroke-linejoin:miter;stroke-width:0.8;"/>
   </g>
   <g id="text_21">
    <!-- Mecklenburg-Vorpommern -->
    <g transform="translate(511.2 71.76)scale(0.12 -0.12)">
     <defs>
      <path d="M 581 4863 
L 1159 4863 
L 1159 1991 
L 2875 3500 
L 3609 3500 
L 1753 1863 
L 3688 0 
L 2938 0 
L 1159 1709 
L 1159 0 
L 581 0 
L 581 4863 
z
" id="DejaVuSans-6b" transform="scale(0.015625)"/>
     </defs>
     <use xlink:href="#DejaVuSans-4d"/>
     <use x="86.279297" xlink:href="#DejaVuSans-65"/>
     <use x="147.802734" xlink:href="#DejaVuSans-63"/>
     <use x="202.783203" xlink:href="#DejaVuSans-6b"/>
     <use x="260.693359" xlink:href="#DejaVuSans-6c"/>
     <use x="288.476562" xlink:href="#DejaVuSans-65"/>
     <use x="350" xlink:href="#DejaVuSans-6e"/>
     <use x="413.378906" xlink:href="#DejaVuSans-62"/>
     <use x="476.855469" xlink:href="#DejaVuSans-75"/>
     <use x="540.234375" xlink:href="#DejaVuSans-72"/>
     <use x="579.597656" xlink:href="#DejaVuSans-67"/>
     <use x="643.074219" xlink:href="#DejaVuSans-2d"/>
     <use x="673.283203" xlink:href="#DejaVuSans-56"/>
     <use x="733.941406" xlink:href="#DejaVuSans-6f"/>
     <use x="795.123047" xlink:href="#DejaVuSans-72"/>
     <use x="836.236328" xlink:href="#DejaVuSans-70"/>
     <use x="899.712891" xlink:href="#DejaVuSans-6f"/>
     <use x="960.894531" xlink:href="#DejaVuSans-6d"/>
     <use x="1058.306641" xlink:href="#DejaVuSans-6d"/>
     <use x="1155.71875" xlink:href="#DejaVuSans-65"/>
     <use x="1217.242188" xlink:href="#DejaVuSans-72"/>
     <use x="1256.605469" xlink:href="#DejaVuSans-6e"/>
    </g>
   </g>
  </g>
 </g>
 <defs>
  <clipPath id="p9d51216f04">
   <rect height="498.96" width="892.8" x="144" y="77.76"/>
  </clipPath>
 </defs>
</svg>
