<?xml version="1.0" encoding="utf-8" standalone="no"?>
<!DOCTYPE svg PUBLIC "-//W3C//DTD SVG 1.1//EN"
  "http://www.w3.org/Graphics/SVG/1.1/DTD/svg11.dtd">
<svg height="648pt" version="1.1" viewBox="0 0 1152 648" width="1152pt" xmlns="http://www.w3.org/2000/svg" xmlns:xlink="http://www.w3.org/1999/xlink">
 <metadata>
  <rdf:RDF xmlns:cc="http://creativecommons.org/ns#" xmlns:dc="http://purl.org/dc/elements/1.1/" xmlns:rdf="http://www.w3.org/1999/02/22-rdf-syntax-ns#">
   <cc:Work>
    <dc:type rdf:resource="http://purl.org/dc/dcmitype/StillImage"/>
    <dc:date>2021-05-28T13:03:57.973438</dc:date>
    <dc:format>image/svg+xml</dc:format>
    <dc:creator>
     <cc:Agent>
      <dc:title>Matplotlib v3.4.2, https://matplotlib.org/</dc:title>
     </cc:Agent>
    </dc:creator>
   </cc:Work>
  </rdf:RDF>
 </metadata>
 <defs>
  <style type="text/css">*{stroke-linecap:butt;stroke-linejoin:round;}</style>
 </defs>
 <g id="figure_1">
  <g id="patch_1">
   <path d="M 0 648 
L 1152 648 
L 1152 0 
L 0 0 
z
" style="fill:#ffffff;"/>
  </g>
  <g id="axes_1">
   <g id="patch_2">
    <path d="M 144 576.72 
L 1036.8 576.72 
L 1036.8 77.76 
L 144 77.76 
z
" style="fill:#ffffff;"/>
   </g>
   <g id="matplotlib.axis_1">
    <g id="xtick_1">
     <g id="line2d_1">
      <defs>
       <path d="M 0 0 
L 0 3.5 
" id="m6c4b187c87" style="stroke:#000000;stroke-width:0.8;"/>
      </defs>
      <g>
       <use style="stroke:#000000;stroke-width:0.8;" x="144" xlink:href="#m6c4b187c87" y="576.72"/>
      </g>
     </g>
    </g>
    <g id="xtick_2">
     <g id="line2d_2">
      <g>
       <use style="stroke:#000000;stroke-width:0.8;" x="208.752527" xlink:href="#m6c4b187c87" y="576.72"/>
      </g>
     </g>
     <g id="text_1">
      <!-- Apr -->
      <g transform="translate(200.102527 591.318438)scale(0.1 -0.1)">
       <defs>
        <path d="M 2188 4044 
L 1331 1722 
L 3047 1722 
L 2188 4044 
z
M 1831 4666 
L 2547 4666 
L 4325 0 
L 3669 0 
L 3244 1197 
L 1141 1197 
L 716 0 
L 50 0 
L 1831 4666 
z
" id="DejaVuSans-41" transform="scale(0.015625)"/>
        <path d="M 1159 525 
L 1159 -1331 
L 581 -1331 
L 581 3500 
L 1159 3500 
L 1159 2969 
Q 1341 3281 1617 3432 
Q 1894 3584 2278 3584 
Q 2916 3584 3314 3078 
Q 3713 2572 3713 1747 
Q 3713 922 3314 415 
Q 2916 -91 2278 -91 
Q 1894 -91 1617 61 
Q 1341 213 1159 525 
z
M 3116 1747 
Q 3116 2381 2855 2742 
Q 2594 3103 2138 3103 
Q 1681 3103 1420 2742 
Q 1159 2381 1159 1747 
Q 1159 1113 1420 752 
Q 1681 391 2138 391 
Q 2594 391 2855 752 
Q 3116 1113 3116 1747 
z
" id="DejaVuSans-70" transform="scale(0.015625)"/>
        <path d="M 2631 2963 
Q 2534 3019 2420 3045 
Q 2306 3072 2169 3072 
Q 1681 3072 1420 2755 
Q 1159 2438 1159 1844 
L 1159 0 
L 581 0 
L 581 3500 
L 1159 3500 
L 1159 2956 
Q 1341 3275 1631 3429 
Q 1922 3584 2338 3584 
Q 2397 3584 2469 3576 
Q 2541 3569 2628 3553 
L 2631 2963 
z
" id="DejaVuSans-72" transform="scale(0.015625)"/>
       </defs>
       <use xlink:href="#DejaVuSans-41"/>
       <use x="68.408203" xlink:href="#DejaVuSans-70"/>
       <use x="131.884766" xlink:href="#DejaVuSans-72"/>
      </g>
     </g>
    </g>
    <g id="xtick_3">
     <g id="line2d_3">
      <g>
       <use style="stroke:#000000;stroke-width:0.8;" x="387.312527" xlink:href="#m6c4b187c87" y="576.72"/>
      </g>
     </g>
     <g id="text_2">
      <!-- Jul -->
      <g transform="translate(381.279715 591.318438)scale(0.1 -0.1)">
       <defs>
        <path d="M 628 4666 
L 1259 4666 
L 1259 325 
Q 1259 -519 939 -900 
Q 619 -1281 -91 -1281 
L -331 -1281 
L -331 -750 
L -134 -750 
Q 284 -750 456 -515 
Q 628 -281 628 325 
L 628 4666 
z
" id="DejaVuSans-4a" transform="scale(0.015625)"/>
        <path d="M 544 1381 
L 544 3500 
L 1119 3500 
L 1119 1403 
Q 1119 906 1312 657 
Q 1506 409 1894 409 
Q 2359 409 2629 706 
Q 2900 1003 2900 1516 
L 2900 3500 
L 3475 3500 
L 3475 0 
L 2900 0 
L 2900 538 
Q 2691 219 2414 64 
Q 2138 -91 1772 -91 
Q 1169 -91 856 284 
Q 544 659 544 1381 
z
M 1991 3584 
L 1991 3584 
z
" id="DejaVuSans-75" transform="scale(0.015625)"/>
        <path d="M 603 4863 
L 1178 4863 
L 1178 0 
L 603 0 
L 603 4863 
z
" id="DejaVuSans-6c" transform="scale(0.015625)"/>
       </defs>
       <use xlink:href="#DejaVuSans-4a"/>
       <use x="29.492188" xlink:href="#DejaVuSans-75"/>
       <use x="92.871094" xlink:href="#DejaVuSans-6c"/>
      </g>
     </g>
    </g>
    <g id="xtick_4">
     <g id="line2d_4">
      <g>
       <use style="stroke:#000000;stroke-width:0.8;" x="567.834725" xlink:href="#m6c4b187c87" y="576.72"/>
      </g>
     </g>
     <g id="text_3">
      <!-- Oct -->
      <g transform="translate(559.189413 591.318438)scale(0.1 -0.1)">
       <defs>
        <path d="M 2522 4238 
Q 1834 4238 1429 3725 
Q 1025 3213 1025 2328 
Q 1025 1447 1429 934 
Q 1834 422 2522 422 
Q 3209 422 3611 934 
Q 4013 1447 4013 2328 
Q 4013 3213 3611 3725 
Q 3209 4238 2522 4238 
z
M 2522 4750 
Q 3503 4750 4090 4092 
Q 4678 3434 4678 2328 
Q 4678 1225 4090 567 
Q 3503 -91 2522 -91 
Q 1538 -91 948 565 
Q 359 1222 359 2328 
Q 359 3434 948 4092 
Q 1538 4750 2522 4750 
z
" id="DejaVuSans-4f" transform="scale(0.015625)"/>
        <path d="M 3122 3366 
L 3122 2828 
Q 2878 2963 2633 3030 
Q 2388 3097 2138 3097 
Q 1578 3097 1268 2742 
Q 959 2388 959 1747 
Q 959 1106 1268 751 
Q 1578 397 2138 397 
Q 2388 397 2633 464 
Q 2878 531 3122 666 
L 3122 134 
Q 2881 22 2623 -34 
Q 2366 -91 2075 -91 
Q 1284 -91 818 406 
Q 353 903 353 1747 
Q 353 2603 823 3093 
Q 1294 3584 2113 3584 
Q 2378 3584 2631 3529 
Q 2884 3475 3122 3366 
z
" id="DejaVuSans-63" transform="scale(0.015625)"/>
        <path d="M 1172 4494 
L 1172 3500 
L 2356 3500 
L 2356 3053 
L 1172 3053 
L 1172 1153 
Q 1172 725 1289 603 
Q 1406 481 1766 481 
L 2356 481 
L 2356 0 
L 1766 0 
Q 1100 0 847 248 
Q 594 497 594 1153 
L 594 3053 
L 172 3053 
L 172 3500 
L 594 3500 
L 594 4494 
L 1172 4494 
z
" id="DejaVuSans-74" transform="scale(0.015625)"/>
       </defs>
       <use xlink:href="#DejaVuSans-4f"/>
       <use x="78.710938" xlink:href="#DejaVuSans-63"/>
       <use x="133.691406" xlink:href="#DejaVuSans-74"/>
      </g>
     </g>
    </g>
    <g id="xtick_5">
     <g id="line2d_5">
      <g>
       <use style="stroke:#000000;stroke-width:0.8;" x="748.356923" xlink:href="#m6c4b187c87" y="576.72"/>
      </g>
     </g>
     <g id="text_4">
      <!-- Jan -->
      <g transform="translate(740.649111 591.318438)scale(0.1 -0.1)">
       <defs>
        <path d="M 2194 1759 
Q 1497 1759 1228 1600 
Q 959 1441 959 1056 
Q 959 750 1161 570 
Q 1363 391 1709 391 
Q 2188 391 2477 730 
Q 2766 1069 2766 1631 
L 2766 1759 
L 2194 1759 
z
M 3341 1997 
L 3341 0 
L 2766 0 
L 2766 531 
Q 2569 213 2275 61 
Q 1981 -91 1556 -91 
Q 1019 -91 701 211 
Q 384 513 384 1019 
Q 384 1609 779 1909 
Q 1175 2209 1959 2209 
L 2766 2209 
L 2766 2266 
Q 2766 2663 2505 2880 
Q 2244 3097 1772 3097 
Q 1472 3097 1187 3025 
Q 903 2953 641 2809 
L 641 3341 
Q 956 3463 1253 3523 
Q 1550 3584 1831 3584 
Q 2591 3584 2966 3190 
Q 3341 2797 3341 1997 
z
" id="DejaVuSans-61" transform="scale(0.015625)"/>
        <path d="M 3513 2113 
L 3513 0 
L 2938 0 
L 2938 2094 
Q 2938 2591 2744 2837 
Q 2550 3084 2163 3084 
Q 1697 3084 1428 2787 
Q 1159 2491 1159 1978 
L 1159 0 
L 581 0 
L 581 3500 
L 1159 3500 
L 1159 2956 
Q 1366 3272 1645 3428 
Q 1925 3584 2291 3584 
Q 2894 3584 3203 3211 
Q 3513 2838 3513 2113 
z
" id="DejaVuSans-6e" transform="scale(0.015625)"/>
       </defs>
       <use xlink:href="#DejaVuSans-4a"/>
       <use x="29.492188" xlink:href="#DejaVuSans-61"/>
       <use x="90.771484" xlink:href="#DejaVuSans-6e"/>
      </g>
      <!-- 2021 -->
      <g transform="translate(735.631923 602.51625)scale(0.1 -0.1)">
       <defs>
        <path d="M 1228 531 
L 3431 531 
L 3431 0 
L 469 0 
L 469 531 
Q 828 903 1448 1529 
Q 2069 2156 2228 2338 
Q 2531 2678 2651 2914 
Q 2772 3150 2772 3378 
Q 2772 3750 2511 3984 
Q 2250 4219 1831 4219 
Q 1534 4219 1204 4116 
Q 875 4013 500 3803 
L 500 4441 
Q 881 4594 1212 4672 
Q 1544 4750 1819 4750 
Q 2544 4750 2975 4387 
Q 3406 4025 3406 3419 
Q 3406 3131 3298 2873 
Q 3191 2616 2906 2266 
Q 2828 2175 2409 1742 
Q 1991 1309 1228 531 
z
" id="DejaVuSans-32" transform="scale(0.015625)"/>
        <path d="M 2034 4250 
Q 1547 4250 1301 3770 
Q 1056 3291 1056 2328 
Q 1056 1369 1301 889 
Q 1547 409 2034 409 
Q 2525 409 2770 889 
Q 3016 1369 3016 2328 
Q 3016 3291 2770 3770 
Q 2525 4250 2034 4250 
z
M 2034 4750 
Q 2819 4750 3233 4129 
Q 3647 3509 3647 2328 
Q 3647 1150 3233 529 
Q 2819 -91 2034 -91 
Q 1250 -91 836 529 
Q 422 1150 422 2328 
Q 422 3509 836 4129 
Q 1250 4750 2034 4750 
z
" id="DejaVuSans-30" transform="scale(0.015625)"/>
        <path d="M 794 531 
L 1825 531 
L 1825 4091 
L 703 3866 
L 703 4441 
L 1819 4666 
L 2450 4666 
L 2450 531 
L 3481 531 
L 3481 0 
L 794 0 
L 794 531 
z
" id="DejaVuSans-31" transform="scale(0.015625)"/>
       </defs>
       <use xlink:href="#DejaVuSans-32"/>
       <use x="63.623047" xlink:href="#DejaVuSans-30"/>
       <use x="127.246094" xlink:href="#DejaVuSans-32"/>
       <use x="190.869141" xlink:href="#DejaVuSans-31"/>
      </g>
     </g>
    </g>
    <g id="xtick_6">
     <g id="line2d_6">
      <g>
       <use style="stroke:#000000;stroke-width:0.8;" x="924.954725" xlink:href="#m6c4b187c87" y="576.72"/>
      </g>
     </g>
     <g id="text_5">
      <!-- Apr -->
      <g transform="translate(916.304725 591.318438)scale(0.1 -0.1)">
       <use xlink:href="#DejaVuSans-41"/>
       <use x="68.408203" xlink:href="#DejaVuSans-70"/>
       <use x="131.884766" xlink:href="#DejaVuSans-72"/>
      </g>
     </g>
    </g>
    <g id="xtick_7">
     <g id="line2d_7">
      <g>
       <use style="stroke:#000000;stroke-width:0.8;" x="1036.8" xlink:href="#m6c4b187c87" y="576.72"/>
      </g>
     </g>
    </g>
    <g id="xtick_8">
     <g id="line2d_8">
      <defs>
       <path d="M 0 0 
L 0 2 
" id="m32f5e45e6a" style="stroke:#000000;stroke-width:0.6;"/>
      </defs>
      <g>
       <use style="stroke:#000000;stroke-width:0.6;" x="147.924396" xlink:href="#m32f5e45e6a" y="576.72"/>
      </g>
     </g>
    </g>
    <g id="xtick_9">
     <g id="line2d_9">
      <g>
       <use style="stroke:#000000;stroke-width:0.6;" x="267.618462" xlink:href="#m32f5e45e6a" y="576.72"/>
      </g>
     </g>
    </g>
    <g id="xtick_10">
     <g id="line2d_10">
      <g>
       <use style="stroke:#000000;stroke-width:0.6;" x="328.446593" xlink:href="#m32f5e45e6a" y="576.72"/>
      </g>
     </g>
    </g>
    <g id="xtick_11">
     <g id="line2d_11">
      <g>
       <use style="stroke:#000000;stroke-width:0.6;" x="448.140659" xlink:href="#m32f5e45e6a" y="576.72"/>
      </g>
     </g>
    </g>
    <g id="xtick_12">
     <g id="line2d_12">
      <g>
       <use style="stroke:#000000;stroke-width:0.6;" x="508.968791" xlink:href="#m32f5e45e6a" y="576.72"/>
      </g>
     </g>
    </g>
    <g id="xtick_13">
     <g id="line2d_13">
      <g>
       <use style="stroke:#000000;stroke-width:0.6;" x="628.662857" xlink:href="#m32f5e45e6a" y="576.72"/>
      </g>
     </g>
    </g>
    <g id="xtick_14">
     <g id="line2d_14">
      <g>
       <use style="stroke:#000000;stroke-width:0.6;" x="687.528791" xlink:href="#m32f5e45e6a" y="576.72"/>
      </g>
     </g>
    </g>
    <g id="xtick_15">
     <g id="line2d_15">
      <g>
       <use style="stroke:#000000;stroke-width:0.6;" x="809.185055" xlink:href="#m32f5e45e6a" y="576.72"/>
      </g>
     </g>
    </g>
    <g id="xtick_16">
     <g id="line2d_16">
      <g>
       <use style="stroke:#000000;stroke-width:0.6;" x="864.126593" xlink:href="#m32f5e45e6a" y="576.72"/>
      </g>
     </g>
    </g>
    <g id="xtick_17">
     <g id="line2d_17">
      <g>
       <use style="stroke:#000000;stroke-width:0.6;" x="983.820659" xlink:href="#m32f5e45e6a" y="576.72"/>
      </g>
     </g>
    </g>
    <g id="text_6">
     <!-- Stand -->
     <g transform="translate(575.858594 616.194375)scale(0.1 -0.1)">
      <defs>
       <path d="M 3425 4513 
L 3425 3897 
Q 3066 4069 2747 4153 
Q 2428 4238 2131 4238 
Q 1616 4238 1336 4038 
Q 1056 3838 1056 3469 
Q 1056 3159 1242 3001 
Q 1428 2844 1947 2747 
L 2328 2669 
Q 3034 2534 3370 2195 
Q 3706 1856 3706 1288 
Q 3706 609 3251 259 
Q 2797 -91 1919 -91 
Q 1588 -91 1214 -16 
Q 841 59 441 206 
L 441 856 
Q 825 641 1194 531 
Q 1563 422 1919 422 
Q 2459 422 2753 634 
Q 3047 847 3047 1241 
Q 3047 1584 2836 1778 
Q 2625 1972 2144 2069 
L 1759 2144 
Q 1053 2284 737 2584 
Q 422 2884 422 3419 
Q 422 4038 858 4394 
Q 1294 4750 2059 4750 
Q 2388 4750 2728 4690 
Q 3069 4631 3425 4513 
z
" id="DejaVuSans-53" transform="scale(0.015625)"/>
       <path d="M 2906 2969 
L 2906 4863 
L 3481 4863 
L 3481 0 
L 2906 0 
L 2906 525 
Q 2725 213 2448 61 
Q 2172 -91 1784 -91 
Q 1150 -91 751 415 
Q 353 922 353 1747 
Q 353 2572 751 3078 
Q 1150 3584 1784 3584 
Q 2172 3584 2448 3432 
Q 2725 3281 2906 2969 
z
M 947 1747 
Q 947 1113 1208 752 
Q 1469 391 1925 391 
Q 2381 391 2643 752 
Q 2906 1113 2906 1747 
Q 2906 2381 2643 2742 
Q 2381 3103 1925 3103 
Q 1469 3103 1208 2742 
Q 947 2381 947 1747 
z
" id="DejaVuSans-64" transform="scale(0.015625)"/>
      </defs>
      <use xlink:href="#DejaVuSans-53"/>
      <use x="63.476562" xlink:href="#DejaVuSans-74"/>
      <use x="102.685547" xlink:href="#DejaVuSans-61"/>
      <use x="163.964844" xlink:href="#DejaVuSans-6e"/>
      <use x="227.34375" xlink:href="#DejaVuSans-64"/>
     </g>
    </g>
   </g>
   <g id="matplotlib.axis_2">
    <g id="ytick_1">
     <g id="line2d_18">
      <defs>
       <path d="M 0 0 
L -3.5 0 
" id="mc764452ecf" style="stroke:#000000;stroke-width:0.8;"/>
      </defs>
      <g>
       <use style="stroke:#000000;stroke-width:0.8;" x="144" xlink:href="#mc764452ecf" y="554.04"/>
      </g>
     </g>
     <g id="text_7">
      <!-- 0 -->
      <g transform="translate(130.6375 557.839219)scale(0.1 -0.1)">
       <use xlink:href="#DejaVuSans-30"/>
      </g>
     </g>
    </g>
    <g id="ytick_2">
     <g id="line2d_19">
      <g>
       <use style="stroke:#000000;stroke-width:0.8;" x="144" xlink:href="#mc764452ecf" y="470.04"/>
      </g>
     </g>
     <g id="text_8">
      <!-- 5 -->
      <g transform="translate(130.6375 473.839219)scale(0.1 -0.1)">
       <defs>
        <path d="M 691 4666 
L 3169 4666 
L 3169 4134 
L 1269 4134 
L 1269 2991 
Q 1406 3038 1543 3061 
Q 1681 3084 1819 3084 
Q 2600 3084 3056 2656 
Q 3513 2228 3513 1497 
Q 3513 744 3044 326 
Q 2575 -91 1722 -91 
Q 1428 -91 1123 -41 
Q 819 9 494 109 
L 494 744 
Q 775 591 1075 516 
Q 1375 441 1709 441 
Q 2250 441 2565 725 
Q 2881 1009 2881 1497 
Q 2881 1984 2565 2268 
Q 2250 2553 1709 2553 
Q 1456 2553 1204 2497 
Q 953 2441 691 2322 
L 691 4666 
z
" id="DejaVuSans-35" transform="scale(0.015625)"/>
       </defs>
       <use xlink:href="#DejaVuSans-35"/>
      </g>
     </g>
    </g>
    <g id="ytick_3">
     <g id="line2d_20">
      <g>
       <use style="stroke:#000000;stroke-width:0.8;" x="144" xlink:href="#mc764452ecf" y="386.04"/>
      </g>
     </g>
     <g id="text_9">
      <!-- 10 -->
      <g transform="translate(124.275 389.839219)scale(0.1 -0.1)">
       <use xlink:href="#DejaVuSans-31"/>
       <use x="63.623047" xlink:href="#DejaVuSans-30"/>
      </g>
     </g>
    </g>
    <g id="ytick_4">
     <g id="line2d_21">
      <g>
       <use style="stroke:#000000;stroke-width:0.8;" x="144" xlink:href="#mc764452ecf" y="302.04"/>
      </g>
     </g>
     <g id="text_10">
      <!-- 15 -->
      <g transform="translate(124.275 305.839219)scale(0.1 -0.1)">
       <use xlink:href="#DejaVuSans-31"/>
       <use x="63.623047" xlink:href="#DejaVuSans-35"/>
      </g>
     </g>
    </g>
    <g id="ytick_5">
     <g id="line2d_22">
      <g>
       <use style="stroke:#000000;stroke-width:0.8;" x="144" xlink:href="#mc764452ecf" y="218.04"/>
      </g>
     </g>
     <g id="text_11">
      <!-- 20 -->
      <g transform="translate(124.275 221.839219)scale(0.1 -0.1)">
       <use xlink:href="#DejaVuSans-32"/>
       <use x="63.623047" xlink:href="#DejaVuSans-30"/>
      </g>
     </g>
    </g>
    <g id="ytick_6">
     <g id="line2d_23">
      <g>
       <use style="stroke:#000000;stroke-width:0.8;" x="144" xlink:href="#mc764452ecf" y="134.04"/>
      </g>
     </g>
     <g id="text_12">
      <!-- 25 -->
      <g transform="translate(124.275 137.839219)scale(0.1 -0.1)">
       <use xlink:href="#DejaVuSans-32"/>
       <use x="63.623047" xlink:href="#DejaVuSans-35"/>
      </g>
     </g>
    </g>
   </g>
   <g id="line2d_24">
    <path clip-path="url(#p3059e0d030)" d="M 144 554.04 
L 200.903736 554.04 
L 202.865934 537.24 
L 204.828132 554.04 
L 206.79033 554.04 
L 208.752527 520.44 
L 210.714725 554.04 
L 212.676923 537.24 
L 214.639121 537.24 
L 216.601319 554.04 
L 222.487912 503.64 
L 224.45011 554.04 
L 236.223297 554.04 
L 238.185495 520.44 
L 240.147692 554.04 
L 242.10989 537.24 
L 244.072088 537.24 
L 246.034286 554.04 
L 251.920879 554.04 
L 253.883077 537.24 
L 255.845275 554.04 
L 259.76967 554.04 
L 261.731868 537.24 
L 263.694066 554.04 
L 265.656264 554.04 
L 267.618462 537.24 
L 269.580659 554.04 
L 273.505055 554.04 
L 275.467253 537.24 
L 277.429451 554.04 
L 287.24044 554.04 
L 289.202637 537.24 
L 291.164835 554.04 
L 599.22989 554.04 
L 601.192088 537.24 
L 603.154286 554.04 
L 616.88967 554.04 
L 618.851868 537.24 
L 620.814066 554.04 
L 622.776264 554.04 
L 624.738462 537.24 
L 626.700659 554.04 
L 636.511648 554.04 
L 638.473846 537.24 
L 640.436044 470.04 
L 642.398242 554.04 
L 644.36044 537.24 
L 646.322637 537.24 
L 648.284835 503.64 
L 650.247033 554.04 
L 652.209231 520.44 
L 654.171429 537.24 
L 656.133626 537.24 
L 658.095824 554.04 
L 662.02022 486.84 
L 665.944615 520.44 
L 667.906813 486.84 
L 669.869011 554.04 
L 671.831209 554.04 
L 673.793407 537.24 
L 675.755604 537.24 
L 677.717802 520.44 
L 679.68 537.24 
L 681.642198 503.64 
L 683.604396 554.04 
L 685.566593 554.04 
L 687.528791 503.64 
L 689.490989 537.24 
L 691.453187 503.64 
L 693.415385 503.64 
L 697.33978 537.24 
L 699.301978 537.24 
L 701.264176 503.64 
L 703.226374 419.64 
L 705.188571 520.44 
L 707.150769 453.24 
L 709.112967 520.44 
L 711.075165 554.04 
L 713.037363 520.44 
L 716.961758 520.44 
L 718.923956 436.44 
L 720.886154 520.44 
L 722.848352 503.64 
L 724.810549 503.64 
L 726.772747 520.44 
L 728.734945 520.44 
L 730.697143 453.24 
L 732.659341 436.44 
L 734.621538 554.04 
L 736.583736 470.04 
L 740.508132 537.24 
L 742.47033 402.84 
L 744.432527 402.84 
L 746.394725 386.04 
L 748.356923 537.24 
L 750.319121 537.24 
L 752.281319 486.84 
L 754.243516 520.44 
L 756.205714 386.04 
L 758.167912 369.24 
L 760.13011 302.04 
L 762.092308 369.24 
L 764.054505 402.84 
L 766.016703 486.84 
L 767.978901 503.64 
L 769.941099 352.44 
L 771.903297 453.24 
L 773.865495 419.64 
L 775.827692 318.84 
L 777.78989 318.84 
L 779.752088 520.44 
L 781.714286 386.04 
L 783.676484 520.44 
L 785.638681 318.84 
L 787.600879 285.24 
L 789.563077 486.84 
L 791.525275 369.24 
L 793.487473 419.64 
L 795.44967 453.24 
L 797.411868 302.04 
L 799.374066 302.04 
L 801.336264 386.04 
L 803.298462 318.84 
L 805.260659 218.04 
L 807.222857 470.04 
L 809.185055 503.64 
L 811.147253 167.64 
L 813.109451 453.24 
L 815.071648 117.24 
L 817.033846 318.84 
L 818.996044 184.44 
L 820.958242 520.44 
L 822.92044 419.64 
L 824.882637 100.44 
L 828.807033 436.44 
L 830.769231 369.24 
L 832.731429 352.44 
L 834.693626 520.44 
L 836.655824 453.24 
L 838.618022 369.24 
L 840.58022 352.44 
L 842.542418 436.44 
L 844.504615 285.24 
L 846.466813 470.04 
L 850.391209 503.64 
L 852.353407 335.64 
L 856.277802 470.04 
L 858.24 419.64 
L 860.202198 402.84 
L 862.164396 503.64 
L 864.126593 554.04 
L 866.088791 453.24 
L 868.050989 436.44 
L 870.013187 470.04 
L 871.975385 402.84 
L 873.937582 436.44 
L 875.89978 537.24 
L 877.861978 537.24 
L 879.824176 402.84 
L 881.786374 470.04 
L 883.748571 503.64 
L 885.710769 419.64 
L 887.672967 486.84 
L 891.597363 554.04 
L 893.55956 470.04 
L 895.521758 470.04 
L 897.483956 537.24 
L 899.446154 453.24 
L 901.408352 520.44 
L 903.370549 503.64 
L 905.332747 537.24 
L 907.294945 503.64 
L 909.257143 503.64 
L 911.219341 520.44 
L 913.181538 470.04 
L 915.143736 537.24 
L 917.105934 503.64 
L 919.068132 537.24 
L 921.03033 486.84 
L 922.992527 453.24 
L 924.954725 386.04 
L 926.916923 486.84 
L 928.879121 537.24 
L 930.841319 503.64 
L 932.803516 554.04 
L 938.69011 453.24 
L 940.652308 386.04 
L 942.614505 503.64 
L 944.576703 503.64 
L 946.538901 486.84 
L 948.501099 436.44 
L 950.463297 520.44 
L 952.425495 503.64 
L 954.387692 520.44 
L 956.34989 470.04 
L 958.312088 554.04 
L 960.274286 537.24 
L 962.236484 436.44 
L 964.198681 369.24 
L 966.160879 470.04 
L 968.123077 453.24 
L 970.085275 453.24 
L 972.047473 520.44 
L 974.00967 503.64 
L 975.971868 402.84 
L 977.934066 486.84 
L 979.896264 470.04 
L 981.858462 386.04 
L 983.820659 503.64 
L 985.782857 537.24 
L 987.745055 537.24 
L 989.707253 402.84 
L 991.669451 520.44 
L 993.631648 436.44 
L 995.593846 318.84 
L 997.556044 402.84 
L 999.518242 520.44 
L 1001.48044 537.24 
L 1003.442637 369.24 
L 1005.404835 486.84 
L 1007.367033 402.84 
L 1009.329231 537.24 
L 1011.291429 453.24 
L 1013.253626 503.64 
L 1015.215824 537.24 
L 1017.178022 436.44 
L 1019.14022 503.64 
L 1021.102418 470.04 
L 1023.064615 402.84 
L 1025.026813 503.64 
L 1030.913407 554.04 
L 1032.875604 486.84 
L 1034.837802 503.64 
L 1036.8 486.84 
L 1036.8 486.84 
" style="fill:none;stroke:#808080;stroke-dasharray:1.5,2.475;stroke-dashoffset:0;stroke-width:1.5;"/>
    <defs>
     <path d="M -3 0 
L 3 0 
M 0 3 
L 0 -3 
" id="m38fcd1f0b0" style="stroke:#808080;"/>
    </defs>
    <g clip-path="url(#p3059e0d030)">
     <use style="fill:#808080;stroke:#808080;" x="144" xlink:href="#m38fcd1f0b0" y="554.04"/>
     <use style="fill:#808080;stroke:#808080;" x="145.962198" xlink:href="#m38fcd1f0b0" y="554.04"/>
     <use style="fill:#808080;stroke:#808080;" x="147.924396" xlink:href="#m38fcd1f0b0" y="554.04"/>
     <use style="fill:#808080;stroke:#808080;" x="149.886593" xlink:href="#m38fcd1f0b0" y="554.04"/>
     <use style="fill:#808080;stroke:#808080;" x="151.848791" xlink:href="#m38fcd1f0b0" y="554.04"/>
     <use style="fill:#808080;stroke:#808080;" x="153.810989" xlink:href="#m38fcd1f0b0" y="554.04"/>
     <use style="fill:#808080;stroke:#808080;" x="155.773187" xlink:href="#m38fcd1f0b0" y="554.04"/>
     <use style="fill:#808080;stroke:#808080;" x="157.735385" xlink:href="#m38fcd1f0b0" y="554.04"/>
     <use style="fill:#808080;stroke:#808080;" x="159.697582" xlink:href="#m38fcd1f0b0" y="554.04"/>
     <use style="fill:#808080;stroke:#808080;" x="161.65978" xlink:href="#m38fcd1f0b0" y="554.04"/>
     <use style="fill:#808080;stroke:#808080;" x="163.621978" xlink:href="#m38fcd1f0b0" y="554.04"/>
     <use style="fill:#808080;stroke:#808080;" x="165.584176" xlink:href="#m38fcd1f0b0" y="554.04"/>
     <use style="fill:#808080;stroke:#808080;" x="167.546374" xlink:href="#m38fcd1f0b0" y="554.04"/>
     <use style="fill:#808080;stroke:#808080;" x="169.508571" xlink:href="#m38fcd1f0b0" y="554.04"/>
     <use style="fill:#808080;stroke:#808080;" x="171.470769" xlink:href="#m38fcd1f0b0" y="554.04"/>
     <use style="fill:#808080;stroke:#808080;" x="173.432967" xlink:href="#m38fcd1f0b0" y="554.04"/>
     <use style="fill:#808080;stroke:#808080;" x="175.395165" xlink:href="#m38fcd1f0b0" y="554.04"/>
     <use style="fill:#808080;stroke:#808080;" x="177.357363" xlink:href="#m38fcd1f0b0" y="554.04"/>
     <use style="fill:#808080;stroke:#808080;" x="179.31956" xlink:href="#m38fcd1f0b0" y="554.04"/>
     <use style="fill:#808080;stroke:#808080;" x="181.281758" xlink:href="#m38fcd1f0b0" y="554.04"/>
     <use style="fill:#808080;stroke:#808080;" x="183.243956" xlink:href="#m38fcd1f0b0" y="554.04"/>
     <use style="fill:#808080;stroke:#808080;" x="185.206154" xlink:href="#m38fcd1f0b0" y="554.04"/>
     <use style="fill:#808080;stroke:#808080;" x="187.168352" xlink:href="#m38fcd1f0b0" y="554.04"/>
     <use style="fill:#808080;stroke:#808080;" x="189.130549" xlink:href="#m38fcd1f0b0" y="554.04"/>
     <use style="fill:#808080;stroke:#808080;" x="191.092747" xlink:href="#m38fcd1f0b0" y="554.04"/>
     <use style="fill:#808080;stroke:#808080;" x="193.054945" xlink:href="#m38fcd1f0b0" y="554.04"/>
     <use style="fill:#808080;stroke:#808080;" x="195.017143" xlink:href="#m38fcd1f0b0" y="554.04"/>
     <use style="fill:#808080;stroke:#808080;" x="196.979341" xlink:href="#m38fcd1f0b0" y="554.04"/>
     <use style="fill:#808080;stroke:#808080;" x="198.941538" xlink:href="#m38fcd1f0b0" y="554.04"/>
     <use style="fill:#808080;stroke:#808080;" x="200.903736" xlink:href="#m38fcd1f0b0" y="554.04"/>
     <use style="fill:#808080;stroke:#808080;" x="202.865934" xlink:href="#m38fcd1f0b0" y="537.24"/>
     <use style="fill:#808080;stroke:#808080;" x="204.828132" xlink:href="#m38fcd1f0b0" y="554.04"/>
     <use style="fill:#808080;stroke:#808080;" x="206.79033" xlink:href="#m38fcd1f0b0" y="554.04"/>
     <use style="fill:#808080;stroke:#808080;" x="208.752527" xlink:href="#m38fcd1f0b0" y="520.44"/>
     <use style="fill:#808080;stroke:#808080;" x="210.714725" xlink:href="#m38fcd1f0b0" y="554.04"/>
     <use style="fill:#808080;stroke:#808080;" x="212.676923" xlink:href="#m38fcd1f0b0" y="537.24"/>
     <use style="fill:#808080;stroke:#808080;" x="214.639121" xlink:href="#m38fcd1f0b0" y="537.24"/>
     <use style="fill:#808080;stroke:#808080;" x="216.601319" xlink:href="#m38fcd1f0b0" y="554.04"/>
     <use style="fill:#808080;stroke:#808080;" x="218.563516" xlink:href="#m38fcd1f0b0" y="537.24"/>
     <use style="fill:#808080;stroke:#808080;" x="220.525714" xlink:href="#m38fcd1f0b0" y="520.44"/>
     <use style="fill:#808080;stroke:#808080;" x="222.487912" xlink:href="#m38fcd1f0b0" y="503.64"/>
     <use style="fill:#808080;stroke:#808080;" x="224.45011" xlink:href="#m38fcd1f0b0" y="554.04"/>
     <use style="fill:#808080;stroke:#808080;" x="226.412308" xlink:href="#m38fcd1f0b0" y="554.04"/>
     <use style="fill:#808080;stroke:#808080;" x="228.374505" xlink:href="#m38fcd1f0b0" y="554.04"/>
     <use style="fill:#808080;stroke:#808080;" x="230.336703" xlink:href="#m38fcd1f0b0" y="554.04"/>
     <use style="fill:#808080;stroke:#808080;" x="232.298901" xlink:href="#m38fcd1f0b0" y="554.04"/>
     <use style="fill:#808080;stroke:#808080;" x="234.261099" xlink:href="#m38fcd1f0b0" y="554.04"/>
     <use style="fill:#808080;stroke:#808080;" x="236.223297" xlink:href="#m38fcd1f0b0" y="554.04"/>
     <use style="fill:#808080;stroke:#808080;" x="238.185495" xlink:href="#m38fcd1f0b0" y="520.44"/>
     <use style="fill:#808080;stroke:#808080;" x="240.147692" xlink:href="#m38fcd1f0b0" y="554.04"/>
     <use style="fill:#808080;stroke:#808080;" x="242.10989" xlink:href="#m38fcd1f0b0" y="537.24"/>
     <use style="fill:#808080;stroke:#808080;" x="244.072088" xlink:href="#m38fcd1f0b0" y="537.24"/>
     <use style="fill:#808080;stroke:#808080;" x="246.034286" xlink:href="#m38fcd1f0b0" y="554.04"/>
     <use style="fill:#808080;stroke:#808080;" x="247.996484" xlink:href="#m38fcd1f0b0" y="554.04"/>
     <use style="fill:#808080;stroke:#808080;" x="249.958681" xlink:href="#m38fcd1f0b0" y="554.04"/>
     <use style="fill:#808080;stroke:#808080;" x="251.920879" xlink:href="#m38fcd1f0b0" y="554.04"/>
     <use style="fill:#808080;stroke:#808080;" x="253.883077" xlink:href="#m38fcd1f0b0" y="537.24"/>
     <use style="fill:#808080;stroke:#808080;" x="255.845275" xlink:href="#m38fcd1f0b0" y="554.04"/>
     <use style="fill:#808080;stroke:#808080;" x="257.807473" xlink:href="#m38fcd1f0b0" y="554.04"/>
     <use style="fill:#808080;stroke:#808080;" x="259.76967" xlink:href="#m38fcd1f0b0" y="554.04"/>
     <use style="fill:#808080;stroke:#808080;" x="261.731868" xlink:href="#m38fcd1f0b0" y="537.24"/>
     <use style="fill:#808080;stroke:#808080;" x="263.694066" xlink:href="#m38fcd1f0b0" y="554.04"/>
     <use style="fill:#808080;stroke:#808080;" x="265.656264" xlink:href="#m38fcd1f0b0" y="554.04"/>
     <use style="fill:#808080;stroke:#808080;" x="267.618462" xlink:href="#m38fcd1f0b0" y="537.24"/>
     <use style="fill:#808080;stroke:#808080;" x="269.580659" xlink:href="#m38fcd1f0b0" y="554.04"/>
     <use style="fill:#808080;stroke:#808080;" x="271.542857" xlink:href="#m38fcd1f0b0" y="554.04"/>
     <use style="fill:#808080;stroke:#808080;" x="273.505055" xlink:href="#m38fcd1f0b0" y="554.04"/>
     <use style="fill:#808080;stroke:#808080;" x="275.467253" xlink:href="#m38fcd1f0b0" y="537.24"/>
     <use style="fill:#808080;stroke:#808080;" x="277.429451" xlink:href="#m38fcd1f0b0" y="554.04"/>
     <use style="fill:#808080;stroke:#808080;" x="279.391648" xlink:href="#m38fcd1f0b0" y="554.04"/>
     <use style="fill:#808080;stroke:#808080;" x="281.353846" xlink:href="#m38fcd1f0b0" y="554.04"/>
     <use style="fill:#808080;stroke:#808080;" x="283.316044" xlink:href="#m38fcd1f0b0" y="554.04"/>
     <use style="fill:#808080;stroke:#808080;" x="285.278242" xlink:href="#m38fcd1f0b0" y="554.04"/>
     <use style="fill:#808080;stroke:#808080;" x="287.24044" xlink:href="#m38fcd1f0b0" y="554.04"/>
     <use style="fill:#808080;stroke:#808080;" x="289.202637" xlink:href="#m38fcd1f0b0" y="537.24"/>
     <use style="fill:#808080;stroke:#808080;" x="291.164835" xlink:href="#m38fcd1f0b0" y="554.04"/>
     <use style="fill:#808080;stroke:#808080;" x="293.127033" xlink:href="#m38fcd1f0b0" y="554.04"/>
     <use style="fill:#808080;stroke:#808080;" x="295.089231" xlink:href="#m38fcd1f0b0" y="554.04"/>
     <use style="fill:#808080;stroke:#808080;" x="297.051429" xlink:href="#m38fcd1f0b0" y="554.04"/>
     <use style="fill:#808080;stroke:#808080;" x="299.013626" xlink:href="#m38fcd1f0b0" y="554.04"/>
     <use style="fill:#808080;stroke:#808080;" x="300.975824" xlink:href="#m38fcd1f0b0" y="554.04"/>
     <use style="fill:#808080;stroke:#808080;" x="302.938022" xlink:href="#m38fcd1f0b0" y="554.04"/>
     <use style="fill:#808080;stroke:#808080;" x="304.90022" xlink:href="#m38fcd1f0b0" y="554.04"/>
     <use style="fill:#808080;stroke:#808080;" x="306.862418" xlink:href="#m38fcd1f0b0" y="554.04"/>
     <use style="fill:#808080;stroke:#808080;" x="308.824615" xlink:href="#m38fcd1f0b0" y="554.04"/>
     <use style="fill:#808080;stroke:#808080;" x="310.786813" xlink:href="#m38fcd1f0b0" y="554.04"/>
     <use style="fill:#808080;stroke:#808080;" x="312.749011" xlink:href="#m38fcd1f0b0" y="554.04"/>
     <use style="fill:#808080;stroke:#808080;" x="314.711209" xlink:href="#m38fcd1f0b0" y="554.04"/>
     <use style="fill:#808080;stroke:#808080;" x="316.673407" xlink:href="#m38fcd1f0b0" y="554.04"/>
     <use style="fill:#808080;stroke:#808080;" x="318.635604" xlink:href="#m38fcd1f0b0" y="554.04"/>
     <use style="fill:#808080;stroke:#808080;" x="320.597802" xlink:href="#m38fcd1f0b0" y="554.04"/>
     <use style="fill:#808080;stroke:#808080;" x="322.56" xlink:href="#m38fcd1f0b0" y="554.04"/>
     <use style="fill:#808080;stroke:#808080;" x="324.522198" xlink:href="#m38fcd1f0b0" y="554.04"/>
     <use style="fill:#808080;stroke:#808080;" x="326.484396" xlink:href="#m38fcd1f0b0" y="554.04"/>
     <use style="fill:#808080;stroke:#808080;" x="328.446593" xlink:href="#m38fcd1f0b0" y="554.04"/>
     <use style="fill:#808080;stroke:#808080;" x="330.408791" xlink:href="#m38fcd1f0b0" y="554.04"/>
     <use style="fill:#808080;stroke:#808080;" x="332.370989" xlink:href="#m38fcd1f0b0" y="554.04"/>
     <use style="fill:#808080;stroke:#808080;" x="334.333187" xlink:href="#m38fcd1f0b0" y="554.04"/>
     <use style="fill:#808080;stroke:#808080;" x="336.295385" xlink:href="#m38fcd1f0b0" y="554.04"/>
     <use style="fill:#808080;stroke:#808080;" x="338.257582" xlink:href="#m38fcd1f0b0" y="554.04"/>
     <use style="fill:#808080;stroke:#808080;" x="340.21978" xlink:href="#m38fcd1f0b0" y="554.04"/>
     <use style="fill:#808080;stroke:#808080;" x="342.181978" xlink:href="#m38fcd1f0b0" y="554.04"/>
     <use style="fill:#808080;stroke:#808080;" x="344.144176" xlink:href="#m38fcd1f0b0" y="554.04"/>
     <use style="fill:#808080;stroke:#808080;" x="346.106374" xlink:href="#m38fcd1f0b0" y="554.04"/>
     <use style="fill:#808080;stroke:#808080;" x="348.068571" xlink:href="#m38fcd1f0b0" y="554.04"/>
     <use style="fill:#808080;stroke:#808080;" x="350.030769" xlink:href="#m38fcd1f0b0" y="554.04"/>
     <use style="fill:#808080;stroke:#808080;" x="351.992967" xlink:href="#m38fcd1f0b0" y="554.04"/>
     <use style="fill:#808080;stroke:#808080;" x="353.955165" xlink:href="#m38fcd1f0b0" y="554.04"/>
     <use style="fill:#808080;stroke:#808080;" x="355.917363" xlink:href="#m38fcd1f0b0" y="554.04"/>
     <use style="fill:#808080;stroke:#808080;" x="357.87956" xlink:href="#m38fcd1f0b0" y="554.04"/>
     <use style="fill:#808080;stroke:#808080;" x="359.841758" xlink:href="#m38fcd1f0b0" y="554.04"/>
     <use style="fill:#808080;stroke:#808080;" x="361.803956" xlink:href="#m38fcd1f0b0" y="554.04"/>
     <use style="fill:#808080;stroke:#808080;" x="363.766154" xlink:href="#m38fcd1f0b0" y="554.04"/>
     <use style="fill:#808080;stroke:#808080;" x="365.728352" xlink:href="#m38fcd1f0b0" y="554.04"/>
     <use style="fill:#808080;stroke:#808080;" x="367.690549" xlink:href="#m38fcd1f0b0" y="554.04"/>
     <use style="fill:#808080;stroke:#808080;" x="369.652747" xlink:href="#m38fcd1f0b0" y="554.04"/>
     <use style="fill:#808080;stroke:#808080;" x="371.614945" xlink:href="#m38fcd1f0b0" y="554.04"/>
     <use style="fill:#808080;stroke:#808080;" x="373.577143" xlink:href="#m38fcd1f0b0" y="554.04"/>
     <use style="fill:#808080;stroke:#808080;" x="375.539341" xlink:href="#m38fcd1f0b0" y="554.04"/>
     <use style="fill:#808080;stroke:#808080;" x="377.501538" xlink:href="#m38fcd1f0b0" y="554.04"/>
     <use style="fill:#808080;stroke:#808080;" x="379.463736" xlink:href="#m38fcd1f0b0" y="554.04"/>
     <use style="fill:#808080;stroke:#808080;" x="381.425934" xlink:href="#m38fcd1f0b0" y="554.04"/>
     <use style="fill:#808080;stroke:#808080;" x="383.388132" xlink:href="#m38fcd1f0b0" y="554.04"/>
     <use style="fill:#808080;stroke:#808080;" x="385.35033" xlink:href="#m38fcd1f0b0" y="554.04"/>
     <use style="fill:#808080;stroke:#808080;" x="387.312527" xlink:href="#m38fcd1f0b0" y="554.04"/>
     <use style="fill:#808080;stroke:#808080;" x="389.274725" xlink:href="#m38fcd1f0b0" y="554.04"/>
     <use style="fill:#808080;stroke:#808080;" x="391.236923" xlink:href="#m38fcd1f0b0" y="554.04"/>
     <use style="fill:#808080;stroke:#808080;" x="393.199121" xlink:href="#m38fcd1f0b0" y="554.04"/>
     <use style="fill:#808080;stroke:#808080;" x="395.161319" xlink:href="#m38fcd1f0b0" y="554.04"/>
     <use style="fill:#808080;stroke:#808080;" x="397.123516" xlink:href="#m38fcd1f0b0" y="554.04"/>
     <use style="fill:#808080;stroke:#808080;" x="399.085714" xlink:href="#m38fcd1f0b0" y="554.04"/>
     <use style="fill:#808080;stroke:#808080;" x="401.047912" xlink:href="#m38fcd1f0b0" y="554.04"/>
     <use style="fill:#808080;stroke:#808080;" x="403.01011" xlink:href="#m38fcd1f0b0" y="554.04"/>
     <use style="fill:#808080;stroke:#808080;" x="404.972308" xlink:href="#m38fcd1f0b0" y="554.04"/>
     <use style="fill:#808080;stroke:#808080;" x="406.934505" xlink:href="#m38fcd1f0b0" y="554.04"/>
     <use style="fill:#808080;stroke:#808080;" x="408.896703" xlink:href="#m38fcd1f0b0" y="554.04"/>
     <use style="fill:#808080;stroke:#808080;" x="410.858901" xlink:href="#m38fcd1f0b0" y="554.04"/>
     <use style="fill:#808080;stroke:#808080;" x="412.821099" xlink:href="#m38fcd1f0b0" y="554.04"/>
     <use style="fill:#808080;stroke:#808080;" x="414.783297" xlink:href="#m38fcd1f0b0" y="554.04"/>
     <use style="fill:#808080;stroke:#808080;" x="416.745495" xlink:href="#m38fcd1f0b0" y="554.04"/>
     <use style="fill:#808080;stroke:#808080;" x="418.707692" xlink:href="#m38fcd1f0b0" y="554.04"/>
     <use style="fill:#808080;stroke:#808080;" x="420.66989" xlink:href="#m38fcd1f0b0" y="554.04"/>
     <use style="fill:#808080;stroke:#808080;" x="422.632088" xlink:href="#m38fcd1f0b0" y="554.04"/>
     <use style="fill:#808080;stroke:#808080;" x="424.594286" xlink:href="#m38fcd1f0b0" y="554.04"/>
     <use style="fill:#808080;stroke:#808080;" x="426.556484" xlink:href="#m38fcd1f0b0" y="554.04"/>
     <use style="fill:#808080;stroke:#808080;" x="428.518681" xlink:href="#m38fcd1f0b0" y="554.04"/>
     <use style="fill:#808080;stroke:#808080;" x="430.480879" xlink:href="#m38fcd1f0b0" y="554.04"/>
     <use style="fill:#808080;stroke:#808080;" x="432.443077" xlink:href="#m38fcd1f0b0" y="554.04"/>
     <use style="fill:#808080;stroke:#808080;" x="434.405275" xlink:href="#m38fcd1f0b0" y="554.04"/>
     <use style="fill:#808080;stroke:#808080;" x="436.367473" xlink:href="#m38fcd1f0b0" y="554.04"/>
     <use style="fill:#808080;stroke:#808080;" x="438.32967" xlink:href="#m38fcd1f0b0" y="554.04"/>
     <use style="fill:#808080;stroke:#808080;" x="440.291868" xlink:href="#m38fcd1f0b0" y="554.04"/>
     <use style="fill:#808080;stroke:#808080;" x="442.254066" xlink:href="#m38fcd1f0b0" y="554.04"/>
     <use style="fill:#808080;stroke:#808080;" x="444.216264" xlink:href="#m38fcd1f0b0" y="554.04"/>
     <use style="fill:#808080;stroke:#808080;" x="446.178462" xlink:href="#m38fcd1f0b0" y="554.04"/>
     <use style="fill:#808080;stroke:#808080;" x="448.140659" xlink:href="#m38fcd1f0b0" y="554.04"/>
     <use style="fill:#808080;stroke:#808080;" x="450.102857" xlink:href="#m38fcd1f0b0" y="554.04"/>
     <use style="fill:#808080;stroke:#808080;" x="452.065055" xlink:href="#m38fcd1f0b0" y="554.04"/>
     <use style="fill:#808080;stroke:#808080;" x="454.027253" xlink:href="#m38fcd1f0b0" y="554.04"/>
     <use style="fill:#808080;stroke:#808080;" x="455.989451" xlink:href="#m38fcd1f0b0" y="554.04"/>
     <use style="fill:#808080;stroke:#808080;" x="457.951648" xlink:href="#m38fcd1f0b0" y="554.04"/>
     <use style="fill:#808080;stroke:#808080;" x="459.913846" xlink:href="#m38fcd1f0b0" y="554.04"/>
     <use style="fill:#808080;stroke:#808080;" x="461.876044" xlink:href="#m38fcd1f0b0" y="554.04"/>
     <use style="fill:#808080;stroke:#808080;" x="463.838242" xlink:href="#m38fcd1f0b0" y="554.04"/>
     <use style="fill:#808080;stroke:#808080;" x="465.80044" xlink:href="#m38fcd1f0b0" y="554.04"/>
     <use style="fill:#808080;stroke:#808080;" x="467.762637" xlink:href="#m38fcd1f0b0" y="554.04"/>
     <use style="fill:#808080;stroke:#808080;" x="469.724835" xlink:href="#m38fcd1f0b0" y="554.04"/>
     <use style="fill:#808080;stroke:#808080;" x="471.687033" xlink:href="#m38fcd1f0b0" y="554.04"/>
     <use style="fill:#808080;stroke:#808080;" x="473.649231" xlink:href="#m38fcd1f0b0" y="554.04"/>
     <use style="fill:#808080;stroke:#808080;" x="475.611429" xlink:href="#m38fcd1f0b0" y="554.04"/>
     <use style="fill:#808080;stroke:#808080;" x="477.573626" xlink:href="#m38fcd1f0b0" y="554.04"/>
     <use style="fill:#808080;stroke:#808080;" x="479.535824" xlink:href="#m38fcd1f0b0" y="554.04"/>
     <use style="fill:#808080;stroke:#808080;" x="481.498022" xlink:href="#m38fcd1f0b0" y="554.04"/>
     <use style="fill:#808080;stroke:#808080;" x="483.46022" xlink:href="#m38fcd1f0b0" y="554.04"/>
     <use style="fill:#808080;stroke:#808080;" x="485.422418" xlink:href="#m38fcd1f0b0" y="554.04"/>
     <use style="fill:#808080;stroke:#808080;" x="487.384615" xlink:href="#m38fcd1f0b0" y="554.04"/>
     <use style="fill:#808080;stroke:#808080;" x="489.346813" xlink:href="#m38fcd1f0b0" y="554.04"/>
     <use style="fill:#808080;stroke:#808080;" x="491.309011" xlink:href="#m38fcd1f0b0" y="554.04"/>
     <use style="fill:#808080;stroke:#808080;" x="493.271209" xlink:href="#m38fcd1f0b0" y="554.04"/>
     <use style="fill:#808080;stroke:#808080;" x="495.233407" xlink:href="#m38fcd1f0b0" y="554.04"/>
     <use style="fill:#808080;stroke:#808080;" x="497.195604" xlink:href="#m38fcd1f0b0" y="554.04"/>
     <use style="fill:#808080;stroke:#808080;" x="499.157802" xlink:href="#m38fcd1f0b0" y="554.04"/>
     <use style="fill:#808080;stroke:#808080;" x="501.12" xlink:href="#m38fcd1f0b0" y="554.04"/>
     <use style="fill:#808080;stroke:#808080;" x="503.082198" xlink:href="#m38fcd1f0b0" y="554.04"/>
     <use style="fill:#808080;stroke:#808080;" x="505.044396" xlink:href="#m38fcd1f0b0" y="554.04"/>
     <use style="fill:#808080;stroke:#808080;" x="507.006593" xlink:href="#m38fcd1f0b0" y="554.04"/>
     <use style="fill:#808080;stroke:#808080;" x="508.968791" xlink:href="#m38fcd1f0b0" y="554.04"/>
     <use style="fill:#808080;stroke:#808080;" x="510.930989" xlink:href="#m38fcd1f0b0" y="554.04"/>
     <use style="fill:#808080;stroke:#808080;" x="512.893187" xlink:href="#m38fcd1f0b0" y="554.04"/>
     <use style="fill:#808080;stroke:#808080;" x="514.855385" xlink:href="#m38fcd1f0b0" y="554.04"/>
     <use style="fill:#808080;stroke:#808080;" x="516.817582" xlink:href="#m38fcd1f0b0" y="554.04"/>
     <use style="fill:#808080;stroke:#808080;" x="518.77978" xlink:href="#m38fcd1f0b0" y="554.04"/>
     <use style="fill:#808080;stroke:#808080;" x="520.741978" xlink:href="#m38fcd1f0b0" y="554.04"/>
     <use style="fill:#808080;stroke:#808080;" x="522.704176" xlink:href="#m38fcd1f0b0" y="554.04"/>
     <use style="fill:#808080;stroke:#808080;" x="524.666374" xlink:href="#m38fcd1f0b0" y="554.04"/>
     <use style="fill:#808080;stroke:#808080;" x="526.628571" xlink:href="#m38fcd1f0b0" y="554.04"/>
     <use style="fill:#808080;stroke:#808080;" x="528.590769" xlink:href="#m38fcd1f0b0" y="554.04"/>
     <use style="fill:#808080;stroke:#808080;" x="530.552967" xlink:href="#m38fcd1f0b0" y="554.04"/>
     <use style="fill:#808080;stroke:#808080;" x="532.515165" xlink:href="#m38fcd1f0b0" y="554.04"/>
     <use style="fill:#808080;stroke:#808080;" x="534.477363" xlink:href="#m38fcd1f0b0" y="554.04"/>
     <use style="fill:#808080;stroke:#808080;" x="536.43956" xlink:href="#m38fcd1f0b0" y="554.04"/>
     <use style="fill:#808080;stroke:#808080;" x="538.401758" xlink:href="#m38fcd1f0b0" y="554.04"/>
     <use style="fill:#808080;stroke:#808080;" x="540.363956" xlink:href="#m38fcd1f0b0" y="554.04"/>
     <use style="fill:#808080;stroke:#808080;" x="542.326154" xlink:href="#m38fcd1f0b0" y="554.04"/>
     <use style="fill:#808080;stroke:#808080;" x="544.288352" xlink:href="#m38fcd1f0b0" y="554.04"/>
     <use style="fill:#808080;stroke:#808080;" x="546.250549" xlink:href="#m38fcd1f0b0" y="554.04"/>
     <use style="fill:#808080;stroke:#808080;" x="548.212747" xlink:href="#m38fcd1f0b0" y="554.04"/>
     <use style="fill:#808080;stroke:#808080;" x="550.174945" xlink:href="#m38fcd1f0b0" y="554.04"/>
     <use style="fill:#808080;stroke:#808080;" x="552.137143" xlink:href="#m38fcd1f0b0" y="554.04"/>
     <use style="fill:#808080;stroke:#808080;" x="554.099341" xlink:href="#m38fcd1f0b0" y="554.04"/>
     <use style="fill:#808080;stroke:#808080;" x="556.061538" xlink:href="#m38fcd1f0b0" y="554.04"/>
     <use style="fill:#808080;stroke:#808080;" x="558.023736" xlink:href="#m38fcd1f0b0" y="554.04"/>
     <use style="fill:#808080;stroke:#808080;" x="559.985934" xlink:href="#m38fcd1f0b0" y="554.04"/>
     <use style="fill:#808080;stroke:#808080;" x="561.948132" xlink:href="#m38fcd1f0b0" y="554.04"/>
     <use style="fill:#808080;stroke:#808080;" x="563.91033" xlink:href="#m38fcd1f0b0" y="554.04"/>
     <use style="fill:#808080;stroke:#808080;" x="565.872527" xlink:href="#m38fcd1f0b0" y="554.04"/>
     <use style="fill:#808080;stroke:#808080;" x="567.834725" xlink:href="#m38fcd1f0b0" y="554.04"/>
     <use style="fill:#808080;stroke:#808080;" x="569.796923" xlink:href="#m38fcd1f0b0" y="554.04"/>
     <use style="fill:#808080;stroke:#808080;" x="571.759121" xlink:href="#m38fcd1f0b0" y="554.04"/>
     <use style="fill:#808080;stroke:#808080;" x="573.721319" xlink:href="#m38fcd1f0b0" y="554.04"/>
     <use style="fill:#808080;stroke:#808080;" x="575.683516" xlink:href="#m38fcd1f0b0" y="554.04"/>
     <use style="fill:#808080;stroke:#808080;" x="577.645714" xlink:href="#m38fcd1f0b0" y="554.04"/>
     <use style="fill:#808080;stroke:#808080;" x="579.607912" xlink:href="#m38fcd1f0b0" y="554.04"/>
     <use style="fill:#808080;stroke:#808080;" x="581.57011" xlink:href="#m38fcd1f0b0" y="554.04"/>
     <use style="fill:#808080;stroke:#808080;" x="583.532308" xlink:href="#m38fcd1f0b0" y="554.04"/>
     <use style="fill:#808080;stroke:#808080;" x="585.494505" xlink:href="#m38fcd1f0b0" y="554.04"/>
     <use style="fill:#808080;stroke:#808080;" x="587.456703" xlink:href="#m38fcd1f0b0" y="554.04"/>
     <use style="fill:#808080;stroke:#808080;" x="589.418901" xlink:href="#m38fcd1f0b0" y="554.04"/>
     <use style="fill:#808080;stroke:#808080;" x="591.381099" xlink:href="#m38fcd1f0b0" y="554.04"/>
     <use style="fill:#808080;stroke:#808080;" x="593.343297" xlink:href="#m38fcd1f0b0" y="554.04"/>
     <use style="fill:#808080;stroke:#808080;" x="595.305495" xlink:href="#m38fcd1f0b0" y="554.04"/>
     <use style="fill:#808080;stroke:#808080;" x="597.267692" xlink:href="#m38fcd1f0b0" y="554.04"/>
     <use style="fill:#808080;stroke:#808080;" x="599.22989" xlink:href="#m38fcd1f0b0" y="554.04"/>
     <use style="fill:#808080;stroke:#808080;" x="601.192088" xlink:href="#m38fcd1f0b0" y="537.24"/>
     <use style="fill:#808080;stroke:#808080;" x="603.154286" xlink:href="#m38fcd1f0b0" y="554.04"/>
     <use style="fill:#808080;stroke:#808080;" x="605.116484" xlink:href="#m38fcd1f0b0" y="554.04"/>
     <use style="fill:#808080;stroke:#808080;" x="607.078681" xlink:href="#m38fcd1f0b0" y="554.04"/>
     <use style="fill:#808080;stroke:#808080;" x="609.040879" xlink:href="#m38fcd1f0b0" y="554.04"/>
     <use style="fill:#808080;stroke:#808080;" x="611.003077" xlink:href="#m38fcd1f0b0" y="554.04"/>
     <use style="fill:#808080;stroke:#808080;" x="612.965275" xlink:href="#m38fcd1f0b0" y="554.04"/>
     <use style="fill:#808080;stroke:#808080;" x="614.927473" xlink:href="#m38fcd1f0b0" y="554.04"/>
     <use style="fill:#808080;stroke:#808080;" x="616.88967" xlink:href="#m38fcd1f0b0" y="554.04"/>
     <use style="fill:#808080;stroke:#808080;" x="618.851868" xlink:href="#m38fcd1f0b0" y="537.24"/>
     <use style="fill:#808080;stroke:#808080;" x="620.814066" xlink:href="#m38fcd1f0b0" y="554.04"/>
     <use style="fill:#808080;stroke:#808080;" x="622.776264" xlink:href="#m38fcd1f0b0" y="554.04"/>
     <use style="fill:#808080;stroke:#808080;" x="624.738462" xlink:href="#m38fcd1f0b0" y="537.24"/>
     <use style="fill:#808080;stroke:#808080;" x="626.700659" xlink:href="#m38fcd1f0b0" y="554.04"/>
     <use style="fill:#808080;stroke:#808080;" x="628.662857" xlink:href="#m38fcd1f0b0" y="554.04"/>
     <use style="fill:#808080;stroke:#808080;" x="630.625055" xlink:href="#m38fcd1f0b0" y="554.04"/>
     <use style="fill:#808080;stroke:#808080;" x="632.587253" xlink:href="#m38fcd1f0b0" y="554.04"/>
     <use style="fill:#808080;stroke:#808080;" x="634.549451" xlink:href="#m38fcd1f0b0" y="554.04"/>
     <use style="fill:#808080;stroke:#808080;" x="636.511648" xlink:href="#m38fcd1f0b0" y="554.04"/>
     <use style="fill:#808080;stroke:#808080;" x="638.473846" xlink:href="#m38fcd1f0b0" y="537.24"/>
     <use style="fill:#808080;stroke:#808080;" x="640.436044" xlink:href="#m38fcd1f0b0" y="470.04"/>
     <use style="fill:#808080;stroke:#808080;" x="642.398242" xlink:href="#m38fcd1f0b0" y="554.04"/>
     <use style="fill:#808080;stroke:#808080;" x="644.36044" xlink:href="#m38fcd1f0b0" y="537.24"/>
     <use style="fill:#808080;stroke:#808080;" x="646.322637" xlink:href="#m38fcd1f0b0" y="537.24"/>
     <use style="fill:#808080;stroke:#808080;" x="648.284835" xlink:href="#m38fcd1f0b0" y="503.64"/>
     <use style="fill:#808080;stroke:#808080;" x="650.247033" xlink:href="#m38fcd1f0b0" y="554.04"/>
     <use style="fill:#808080;stroke:#808080;" x="652.209231" xlink:href="#m38fcd1f0b0" y="520.44"/>
     <use style="fill:#808080;stroke:#808080;" x="654.171429" xlink:href="#m38fcd1f0b0" y="537.24"/>
     <use style="fill:#808080;stroke:#808080;" x="656.133626" xlink:href="#m38fcd1f0b0" y="537.24"/>
     <use style="fill:#808080;stroke:#808080;" x="658.095824" xlink:href="#m38fcd1f0b0" y="554.04"/>
     <use style="fill:#808080;stroke:#808080;" x="660.058022" xlink:href="#m38fcd1f0b0" y="520.44"/>
     <use style="fill:#808080;stroke:#808080;" x="662.02022" xlink:href="#m38fcd1f0b0" y="486.84"/>
     <use style="fill:#808080;stroke:#808080;" x="663.982418" xlink:href="#m38fcd1f0b0" y="503.64"/>
     <use style="fill:#808080;stroke:#808080;" x="665.944615" xlink:href="#m38fcd1f0b0" y="520.44"/>
     <use style="fill:#808080;stroke:#808080;" x="667.906813" xlink:href="#m38fcd1f0b0" y="486.84"/>
     <use style="fill:#808080;stroke:#808080;" x="669.869011" xlink:href="#m38fcd1f0b0" y="554.04"/>
     <use style="fill:#808080;stroke:#808080;" x="671.831209" xlink:href="#m38fcd1f0b0" y="554.04"/>
     <use style="fill:#808080;stroke:#808080;" x="673.793407" xlink:href="#m38fcd1f0b0" y="537.24"/>
     <use style="fill:#808080;stroke:#808080;" x="675.755604" xlink:href="#m38fcd1f0b0" y="537.24"/>
     <use style="fill:#808080;stroke:#808080;" x="677.717802" xlink:href="#m38fcd1f0b0" y="520.44"/>
     <use style="fill:#808080;stroke:#808080;" x="679.68" xlink:href="#m38fcd1f0b0" y="537.24"/>
     <use style="fill:#808080;stroke:#808080;" x="681.642198" xlink:href="#m38fcd1f0b0" y="503.64"/>
     <use style="fill:#808080;stroke:#808080;" x="683.604396" xlink:href="#m38fcd1f0b0" y="554.04"/>
     <use style="fill:#808080;stroke:#808080;" x="685.566593" xlink:href="#m38fcd1f0b0" y="554.04"/>
     <use style="fill:#808080;stroke:#808080;" x="687.528791" xlink:href="#m38fcd1f0b0" y="503.64"/>
     <use style="fill:#808080;stroke:#808080;" x="689.490989" xlink:href="#m38fcd1f0b0" y="537.24"/>
     <use style="fill:#808080;stroke:#808080;" x="691.453187" xlink:href="#m38fcd1f0b0" y="503.64"/>
     <use style="fill:#808080;stroke:#808080;" x="693.415385" xlink:href="#m38fcd1f0b0" y="503.64"/>
     <use style="fill:#808080;stroke:#808080;" x="695.377582" xlink:href="#m38fcd1f0b0" y="520.44"/>
     <use style="fill:#808080;stroke:#808080;" x="697.33978" xlink:href="#m38fcd1f0b0" y="537.24"/>
     <use style="fill:#808080;stroke:#808080;" x="699.301978" xlink:href="#m38fcd1f0b0" y="537.24"/>
     <use style="fill:#808080;stroke:#808080;" x="701.264176" xlink:href="#m38fcd1f0b0" y="503.64"/>
     <use style="fill:#808080;stroke:#808080;" x="703.226374" xlink:href="#m38fcd1f0b0" y="419.64"/>
     <use style="fill:#808080;stroke:#808080;" x="705.188571" xlink:href="#m38fcd1f0b0" y="520.44"/>
     <use style="fill:#808080;stroke:#808080;" x="707.150769" xlink:href="#m38fcd1f0b0" y="453.24"/>
     <use style="fill:#808080;stroke:#808080;" x="709.112967" xlink:href="#m38fcd1f0b0" y="520.44"/>
     <use style="fill:#808080;stroke:#808080;" x="711.075165" xlink:href="#m38fcd1f0b0" y="554.04"/>
     <use style="fill:#808080;stroke:#808080;" x="713.037363" xlink:href="#m38fcd1f0b0" y="520.44"/>
     <use style="fill:#808080;stroke:#808080;" x="714.99956" xlink:href="#m38fcd1f0b0" y="520.44"/>
     <use style="fill:#808080;stroke:#808080;" x="716.961758" xlink:href="#m38fcd1f0b0" y="520.44"/>
     <use style="fill:#808080;stroke:#808080;" x="718.923956" xlink:href="#m38fcd1f0b0" y="436.44"/>
     <use style="fill:#808080;stroke:#808080;" x="720.886154" xlink:href="#m38fcd1f0b0" y="520.44"/>
     <use style="fill:#808080;stroke:#808080;" x="722.848352" xlink:href="#m38fcd1f0b0" y="503.64"/>
     <use style="fill:#808080;stroke:#808080;" x="724.810549" xlink:href="#m38fcd1f0b0" y="503.64"/>
     <use style="fill:#808080;stroke:#808080;" x="726.772747" xlink:href="#m38fcd1f0b0" y="520.44"/>
     <use style="fill:#808080;stroke:#808080;" x="728.734945" xlink:href="#m38fcd1f0b0" y="520.44"/>
     <use style="fill:#808080;stroke:#808080;" x="730.697143" xlink:href="#m38fcd1f0b0" y="453.24"/>
     <use style="fill:#808080;stroke:#808080;" x="732.659341" xlink:href="#m38fcd1f0b0" y="436.44"/>
     <use style="fill:#808080;stroke:#808080;" x="734.621538" xlink:href="#m38fcd1f0b0" y="554.04"/>
     <use style="fill:#808080;stroke:#808080;" x="736.583736" xlink:href="#m38fcd1f0b0" y="470.04"/>
     <use style="fill:#808080;stroke:#808080;" x="738.545934" xlink:href="#m38fcd1f0b0" y="503.64"/>
     <use style="fill:#808080;stroke:#808080;" x="740.508132" xlink:href="#m38fcd1f0b0" y="537.24"/>
     <use style="fill:#808080;stroke:#808080;" x="742.47033" xlink:href="#m38fcd1f0b0" y="402.84"/>
     <use style="fill:#808080;stroke:#808080;" x="744.432527" xlink:href="#m38fcd1f0b0" y="402.84"/>
     <use style="fill:#808080;stroke:#808080;" x="746.394725" xlink:href="#m38fcd1f0b0" y="386.04"/>
     <use style="fill:#808080;stroke:#808080;" x="748.356923" xlink:href="#m38fcd1f0b0" y="537.24"/>
     <use style="fill:#808080;stroke:#808080;" x="750.319121" xlink:href="#m38fcd1f0b0" y="537.24"/>
     <use style="fill:#808080;stroke:#808080;" x="752.281319" xlink:href="#m38fcd1f0b0" y="486.84"/>
     <use style="fill:#808080;stroke:#808080;" x="754.243516" xlink:href="#m38fcd1f0b0" y="520.44"/>
     <use style="fill:#808080;stroke:#808080;" x="756.205714" xlink:href="#m38fcd1f0b0" y="386.04"/>
     <use style="fill:#808080;stroke:#808080;" x="758.167912" xlink:href="#m38fcd1f0b0" y="369.24"/>
     <use style="fill:#808080;stroke:#808080;" x="760.13011" xlink:href="#m38fcd1f0b0" y="302.04"/>
     <use style="fill:#808080;stroke:#808080;" x="762.092308" xlink:href="#m38fcd1f0b0" y="369.24"/>
     <use style="fill:#808080;stroke:#808080;" x="764.054505" xlink:href="#m38fcd1f0b0" y="402.84"/>
     <use style="fill:#808080;stroke:#808080;" x="766.016703" xlink:href="#m38fcd1f0b0" y="486.84"/>
     <use style="fill:#808080;stroke:#808080;" x="767.978901" xlink:href="#m38fcd1f0b0" y="503.64"/>
     <use style="fill:#808080;stroke:#808080;" x="769.941099" xlink:href="#m38fcd1f0b0" y="352.44"/>
     <use style="fill:#808080;stroke:#808080;" x="771.903297" xlink:href="#m38fcd1f0b0" y="453.24"/>
     <use style="fill:#808080;stroke:#808080;" x="773.865495" xlink:href="#m38fcd1f0b0" y="419.64"/>
     <use style="fill:#808080;stroke:#808080;" x="775.827692" xlink:href="#m38fcd1f0b0" y="318.84"/>
     <use style="fill:#808080;stroke:#808080;" x="777.78989" xlink:href="#m38fcd1f0b0" y="318.84"/>
     <use style="fill:#808080;stroke:#808080;" x="779.752088" xlink:href="#m38fcd1f0b0" y="520.44"/>
     <use style="fill:#808080;stroke:#808080;" x="781.714286" xlink:href="#m38fcd1f0b0" y="386.04"/>
     <use style="fill:#808080;stroke:#808080;" x="783.676484" xlink:href="#m38fcd1f0b0" y="520.44"/>
     <use style="fill:#808080;stroke:#808080;" x="785.638681" xlink:href="#m38fcd1f0b0" y="318.84"/>
     <use style="fill:#808080;stroke:#808080;" x="787.600879" xlink:href="#m38fcd1f0b0" y="285.24"/>
     <use style="fill:#808080;stroke:#808080;" x="789.563077" xlink:href="#m38fcd1f0b0" y="486.84"/>
     <use style="fill:#808080;stroke:#808080;" x="791.525275" xlink:href="#m38fcd1f0b0" y="369.24"/>
     <use style="fill:#808080;stroke:#808080;" x="793.487473" xlink:href="#m38fcd1f0b0" y="419.64"/>
     <use style="fill:#808080;stroke:#808080;" x="795.44967" xlink:href="#m38fcd1f0b0" y="453.24"/>
     <use style="fill:#808080;stroke:#808080;" x="797.411868" xlink:href="#m38fcd1f0b0" y="302.04"/>
     <use style="fill:#808080;stroke:#808080;" x="799.374066" xlink:href="#m38fcd1f0b0" y="302.04"/>
     <use style="fill:#808080;stroke:#808080;" x="801.336264" xlink:href="#m38fcd1f0b0" y="386.04"/>
     <use style="fill:#808080;stroke:#808080;" x="803.298462" xlink:href="#m38fcd1f0b0" y="318.84"/>
     <use style="fill:#808080;stroke:#808080;" x="805.260659" xlink:href="#m38fcd1f0b0" y="218.04"/>
     <use style="fill:#808080;stroke:#808080;" x="807.222857" xlink:href="#m38fcd1f0b0" y="470.04"/>
     <use style="fill:#808080;stroke:#808080;" x="809.185055" xlink:href="#m38fcd1f0b0" y="503.64"/>
     <use style="fill:#808080;stroke:#808080;" x="811.147253" xlink:href="#m38fcd1f0b0" y="167.64"/>
     <use style="fill:#808080;stroke:#808080;" x="813.109451" xlink:href="#m38fcd1f0b0" y="453.24"/>
     <use style="fill:#808080;stroke:#808080;" x="815.071648" xlink:href="#m38fcd1f0b0" y="117.24"/>
     <use style="fill:#808080;stroke:#808080;" x="817.033846" xlink:href="#m38fcd1f0b0" y="318.84"/>
     <use style="fill:#808080;stroke:#808080;" x="818.996044" xlink:href="#m38fcd1f0b0" y="184.44"/>
     <use style="fill:#808080;stroke:#808080;" x="820.958242" xlink:href="#m38fcd1f0b0" y="520.44"/>
     <use style="fill:#808080;stroke:#808080;" x="822.92044" xlink:href="#m38fcd1f0b0" y="419.64"/>
     <use style="fill:#808080;stroke:#808080;" x="824.882637" xlink:href="#m38fcd1f0b0" y="100.44"/>
     <use style="fill:#808080;stroke:#808080;" x="826.844835" xlink:href="#m38fcd1f0b0" y="268.44"/>
     <use style="fill:#808080;stroke:#808080;" x="828.807033" xlink:href="#m38fcd1f0b0" y="436.44"/>
     <use style="fill:#808080;stroke:#808080;" x="830.769231" xlink:href="#m38fcd1f0b0" y="369.24"/>
     <use style="fill:#808080;stroke:#808080;" x="832.731429" xlink:href="#m38fcd1f0b0" y="352.44"/>
     <use style="fill:#808080;stroke:#808080;" x="834.693626" xlink:href="#m38fcd1f0b0" y="520.44"/>
     <use style="fill:#808080;stroke:#808080;" x="836.655824" xlink:href="#m38fcd1f0b0" y="453.24"/>
     <use style="fill:#808080;stroke:#808080;" x="838.618022" xlink:href="#m38fcd1f0b0" y="369.24"/>
     <use style="fill:#808080;stroke:#808080;" x="840.58022" xlink:href="#m38fcd1f0b0" y="352.44"/>
     <use style="fill:#808080;stroke:#808080;" x="842.542418" xlink:href="#m38fcd1f0b0" y="436.44"/>
     <use style="fill:#808080;stroke:#808080;" x="844.504615" xlink:href="#m38fcd1f0b0" y="285.24"/>
     <use style="fill:#808080;stroke:#808080;" x="846.466813" xlink:href="#m38fcd1f0b0" y="470.04"/>
     <use style="fill:#808080;stroke:#808080;" x="848.429011" xlink:href="#m38fcd1f0b0" y="486.84"/>
     <use style="fill:#808080;stroke:#808080;" x="850.391209" xlink:href="#m38fcd1f0b0" y="503.64"/>
     <use style="fill:#808080;stroke:#808080;" x="852.353407" xlink:href="#m38fcd1f0b0" y="335.64"/>
     <use style="fill:#808080;stroke:#808080;" x="854.315604" xlink:href="#m38fcd1f0b0" y="402.84"/>
     <use style="fill:#808080;stroke:#808080;" x="856.277802" xlink:href="#m38fcd1f0b0" y="470.04"/>
     <use style="fill:#808080;stroke:#808080;" x="858.24" xlink:href="#m38fcd1f0b0" y="419.64"/>
     <use style="fill:#808080;stroke:#808080;" x="860.202198" xlink:href="#m38fcd1f0b0" y="402.84"/>
     <use style="fill:#808080;stroke:#808080;" x="862.164396" xlink:href="#m38fcd1f0b0" y="503.64"/>
     <use style="fill:#808080;stroke:#808080;" x="864.126593" xlink:href="#m38fcd1f0b0" y="554.04"/>
     <use style="fill:#808080;stroke:#808080;" x="866.088791" xlink:href="#m38fcd1f0b0" y="453.24"/>
     <use style="fill:#808080;stroke:#808080;" x="868.050989" xlink:href="#m38fcd1f0b0" y="436.44"/>
     <use style="fill:#808080;stroke:#808080;" x="870.013187" xlink:href="#m38fcd1f0b0" y="470.04"/>
     <use style="fill:#808080;stroke:#808080;" x="871.975385" xlink:href="#m38fcd1f0b0" y="402.84"/>
     <use style="fill:#808080;stroke:#808080;" x="873.937582" xlink:href="#m38fcd1f0b0" y="436.44"/>
     <use style="fill:#808080;stroke:#808080;" x="875.89978" xlink:href="#m38fcd1f0b0" y="537.24"/>
     <use style="fill:#808080;stroke:#808080;" x="877.861978" xlink:href="#m38fcd1f0b0" y="537.24"/>
     <use style="fill:#808080;stroke:#808080;" x="879.824176" xlink:href="#m38fcd1f0b0" y="402.84"/>
     <use style="fill:#808080;stroke:#808080;" x="881.786374" xlink:href="#m38fcd1f0b0" y="470.04"/>
     <use style="fill:#808080;stroke:#808080;" x="883.748571" xlink:href="#m38fcd1f0b0" y="503.64"/>
     <use style="fill:#808080;stroke:#808080;" x="885.710769" xlink:href="#m38fcd1f0b0" y="419.64"/>
     <use style="fill:#808080;stroke:#808080;" x="887.672967" xlink:href="#m38fcd1f0b0" y="486.84"/>
     <use style="fill:#808080;stroke:#808080;" x="889.635165" xlink:href="#m38fcd1f0b0" y="520.44"/>
     <use style="fill:#808080;stroke:#808080;" x="891.597363" xlink:href="#m38fcd1f0b0" y="554.04"/>
     <use style="fill:#808080;stroke:#808080;" x="893.55956" xlink:href="#m38fcd1f0b0" y="470.04"/>
     <use style="fill:#808080;stroke:#808080;" x="895.521758" xlink:href="#m38fcd1f0b0" y="470.04"/>
     <use style="fill:#808080;stroke:#808080;" x="897.483956" xlink:href="#m38fcd1f0b0" y="537.24"/>
     <use style="fill:#808080;stroke:#808080;" x="899.446154" xlink:href="#m38fcd1f0b0" y="453.24"/>
     <use style="fill:#808080;stroke:#808080;" x="901.408352" xlink:href="#m38fcd1f0b0" y="520.44"/>
     <use style="fill:#808080;stroke:#808080;" x="903.370549" xlink:href="#m38fcd1f0b0" y="503.64"/>
     <use style="fill:#808080;stroke:#808080;" x="905.332747" xlink:href="#m38fcd1f0b0" y="537.24"/>
     <use style="fill:#808080;stroke:#808080;" x="907.294945" xlink:href="#m38fcd1f0b0" y="503.64"/>
     <use style="fill:#808080;stroke:#808080;" x="909.257143" xlink:href="#m38fcd1f0b0" y="503.64"/>
     <use style="fill:#808080;stroke:#808080;" x="911.219341" xlink:href="#m38fcd1f0b0" y="520.44"/>
     <use style="fill:#808080;stroke:#808080;" x="913.181538" xlink:href="#m38fcd1f0b0" y="470.04"/>
     <use style="fill:#808080;stroke:#808080;" x="915.143736" xlink:href="#m38fcd1f0b0" y="537.24"/>
     <use style="fill:#808080;stroke:#808080;" x="917.105934" xlink:href="#m38fcd1f0b0" y="503.64"/>
     <use style="fill:#808080;stroke:#808080;" x="919.068132" xlink:href="#m38fcd1f0b0" y="537.24"/>
     <use style="fill:#808080;stroke:#808080;" x="921.03033" xlink:href="#m38fcd1f0b0" y="486.84"/>
     <use style="fill:#808080;stroke:#808080;" x="922.992527" xlink:href="#m38fcd1f0b0" y="453.24"/>
     <use style="fill:#808080;stroke:#808080;" x="924.954725" xlink:href="#m38fcd1f0b0" y="386.04"/>
     <use style="fill:#808080;stroke:#808080;" x="926.916923" xlink:href="#m38fcd1f0b0" y="486.84"/>
     <use style="fill:#808080;stroke:#808080;" x="928.879121" xlink:href="#m38fcd1f0b0" y="537.24"/>
     <use style="fill:#808080;stroke:#808080;" x="930.841319" xlink:href="#m38fcd1f0b0" y="503.64"/>
     <use style="fill:#808080;stroke:#808080;" x="932.803516" xlink:href="#m38fcd1f0b0" y="554.04"/>
     <use style="fill:#808080;stroke:#808080;" x="934.765714" xlink:href="#m38fcd1f0b0" y="520.44"/>
     <use style="fill:#808080;stroke:#808080;" x="936.727912" xlink:href="#m38fcd1f0b0" y="486.84"/>
     <use style="fill:#808080;stroke:#808080;" x="938.69011" xlink:href="#m38fcd1f0b0" y="453.24"/>
     <use style="fill:#808080;stroke:#808080;" x="940.652308" xlink:href="#m38fcd1f0b0" y="386.04"/>
     <use style="fill:#808080;stroke:#808080;" x="942.614505" xlink:href="#m38fcd1f0b0" y="503.64"/>
     <use style="fill:#808080;stroke:#808080;" x="944.576703" xlink:href="#m38fcd1f0b0" y="503.64"/>
     <use style="fill:#808080;stroke:#808080;" x="946.538901" xlink:href="#m38fcd1f0b0" y="486.84"/>
     <use style="fill:#808080;stroke:#808080;" x="948.501099" xlink:href="#m38fcd1f0b0" y="436.44"/>
     <use style="fill:#808080;stroke:#808080;" x="950.463297" xlink:href="#m38fcd1f0b0" y="520.44"/>
     <use style="fill:#808080;stroke:#808080;" x="952.425495" xlink:href="#m38fcd1f0b0" y="503.64"/>
     <use style="fill:#808080;stroke:#808080;" x="954.387692" xlink:href="#m38fcd1f0b0" y="520.44"/>
     <use style="fill:#808080;stroke:#808080;" x="956.34989" xlink:href="#m38fcd1f0b0" y="470.04"/>
     <use style="fill:#808080;stroke:#808080;" x="958.312088" xlink:href="#m38fcd1f0b0" y="554.04"/>
     <use style="fill:#808080;stroke:#808080;" x="960.274286" xlink:href="#m38fcd1f0b0" y="537.24"/>
     <use style="fill:#808080;stroke:#808080;" x="962.236484" xlink:href="#m38fcd1f0b0" y="436.44"/>
     <use style="fill:#808080;stroke:#808080;" x="964.198681" xlink:href="#m38fcd1f0b0" y="369.24"/>
     <use style="fill:#808080;stroke:#808080;" x="966.160879" xlink:href="#m38fcd1f0b0" y="470.04"/>
     <use style="fill:#808080;stroke:#808080;" x="968.123077" xlink:href="#m38fcd1f0b0" y="453.24"/>
     <use style="fill:#808080;stroke:#808080;" x="970.085275" xlink:href="#m38fcd1f0b0" y="453.24"/>
     <use style="fill:#808080;stroke:#808080;" x="972.047473" xlink:href="#m38fcd1f0b0" y="520.44"/>
     <use style="fill:#808080;stroke:#808080;" x="974.00967" xlink:href="#m38fcd1f0b0" y="503.64"/>
     <use style="fill:#808080;stroke:#808080;" x="975.971868" xlink:href="#m38fcd1f0b0" y="402.84"/>
     <use style="fill:#808080;stroke:#808080;" x="977.934066" xlink:href="#m38fcd1f0b0" y="486.84"/>
     <use style="fill:#808080;stroke:#808080;" x="979.896264" xlink:href="#m38fcd1f0b0" y="470.04"/>
     <use style="fill:#808080;stroke:#808080;" x="981.858462" xlink:href="#m38fcd1f0b0" y="386.04"/>
     <use style="fill:#808080;stroke:#808080;" x="983.820659" xlink:href="#m38fcd1f0b0" y="503.64"/>
     <use style="fill:#808080;stroke:#808080;" x="985.782857" xlink:href="#m38fcd1f0b0" y="537.24"/>
     <use style="fill:#808080;stroke:#808080;" x="987.745055" xlink:href="#m38fcd1f0b0" y="537.24"/>
     <use style="fill:#808080;stroke:#808080;" x="989.707253" xlink:href="#m38fcd1f0b0" y="402.84"/>
     <use style="fill:#808080;stroke:#808080;" x="991.669451" xlink:href="#m38fcd1f0b0" y="520.44"/>
     <use style="fill:#808080;stroke:#808080;" x="993.631648" xlink:href="#m38fcd1f0b0" y="436.44"/>
     <use style="fill:#808080;stroke:#808080;" x="995.593846" xlink:href="#m38fcd1f0b0" y="318.84"/>
     <use style="fill:#808080;stroke:#808080;" x="997.556044" xlink:href="#m38fcd1f0b0" y="402.84"/>
     <use style="fill:#808080;stroke:#808080;" x="999.518242" xlink:href="#m38fcd1f0b0" y="520.44"/>
     <use style="fill:#808080;stroke:#808080;" x="1001.48044" xlink:href="#m38fcd1f0b0" y="537.24"/>
     <use style="fill:#808080;stroke:#808080;" x="1003.442637" xlink:href="#m38fcd1f0b0" y="369.24"/>
     <use style="fill:#808080;stroke:#808080;" x="1005.404835" xlink:href="#m38fcd1f0b0" y="486.84"/>
     <use style="fill:#808080;stroke:#808080;" x="1007.367033" xlink:href="#m38fcd1f0b0" y="402.84"/>
     <use style="fill:#808080;stroke:#808080;" x="1009.329231" xlink:href="#m38fcd1f0b0" y="537.24"/>
     <use style="fill:#808080;stroke:#808080;" x="1011.291429" xlink:href="#m38fcd1f0b0" y="453.24"/>
     <use style="fill:#808080;stroke:#808080;" x="1013.253626" xlink:href="#m38fcd1f0b0" y="503.64"/>
     <use style="fill:#808080;stroke:#808080;" x="1015.215824" xlink:href="#m38fcd1f0b0" y="537.24"/>
     <use style="fill:#808080;stroke:#808080;" x="1017.178022" xlink:href="#m38fcd1f0b0" y="436.44"/>
     <use style="fill:#808080;stroke:#808080;" x="1019.14022" xlink:href="#m38fcd1f0b0" y="503.64"/>
     <use style="fill:#808080;stroke:#808080;" x="1021.102418" xlink:href="#m38fcd1f0b0" y="470.04"/>
     <use style="fill:#808080;stroke:#808080;" x="1023.064615" xlink:href="#m38fcd1f0b0" y="402.84"/>
     <use style="fill:#808080;stroke:#808080;" x="1025.026813" xlink:href="#m38fcd1f0b0" y="503.64"/>
     <use style="fill:#808080;stroke:#808080;" x="1026.989011" xlink:href="#m38fcd1f0b0" y="520.44"/>
     <use style="fill:#808080;stroke:#808080;" x="1028.951209" xlink:href="#m38fcd1f0b0" y="537.24"/>
     <use style="fill:#808080;stroke:#808080;" x="1030.913407" xlink:href="#m38fcd1f0b0" y="554.04"/>
     <use style="fill:#808080;stroke:#808080;" x="1032.875604" xlink:href="#m38fcd1f0b0" y="486.84"/>
     <use style="fill:#808080;stroke:#808080;" x="1034.837802" xlink:href="#m38fcd1f0b0" y="503.64"/>
     <use style="fill:#808080;stroke:#808080;" x="1036.8" xlink:href="#m38fcd1f0b0" y="486.84"/>
    </g>
   </g>
   <g id="patch_3">
    <path d="M 144 576.72 
L 144 77.76 
" style="fill:none;stroke:#000000;stroke-linecap:square;stroke-linejoin:miter;stroke-width:0.8;"/>
   </g>
   <g id="patch_4">
    <path d="M 1036.8 576.72 
L 1036.8 77.76 
" style="fill:none;stroke:#000000;stroke-linecap:square;stroke-linejoin:miter;stroke-width:0.8;"/>
   </g>
   <g id="patch_5">
    <path d="M 144 576.72 
L 1036.8 576.72 
" style="fill:none;stroke:#000000;stroke-linecap:square;stroke-linejoin:miter;stroke-width:0.8;"/>
   </g>
   <g id="patch_6">
    <path d="M 144 77.76 
L 1036.8 77.76 
" style="fill:none;stroke:#000000;stroke-linecap:square;stroke-linejoin:miter;stroke-width:0.8;"/>
   </g>
   <g id="legend_1">
    <g id="patch_7">
     <path d="M 883.44375 159.150625 
L 1029.8 159.150625 
Q 1031.8 159.150625 1031.8 157.150625 
L 1031.8 84.76 
Q 1031.8 82.76 1029.8 82.76 
L 883.44375 82.76 
Q 881.44375 82.76 881.44375 84.76 
L 881.44375 157.150625 
Q 881.44375 159.150625 883.44375 159.150625 
z
" style="fill:#ffffff;opacity:0.8;stroke:#cccccc;stroke-linejoin:miter;"/>
    </g>
    <g id="line2d_25">
     <path d="M 885.44375 90.858438 
L 905.44375 90.858438 
" style="fill:none;stroke:#808080;stroke-dasharray:1.5,2.475;stroke-dashoffset:0;stroke-width:1.5;"/>
    </g>
    <g id="line2d_26">
     <g>
      <use style="fill:#808080;stroke:#808080;" x="895.44375" xlink:href="#m38fcd1f0b0" y="90.858438"/>
     </g>
    </g>
    <g id="text_13">
     <!-- Deaths -->
     <g transform="translate(913.44375 94.358438)scale(0.1 -0.1)">
      <defs>
       <path d="M 1259 4147 
L 1259 519 
L 2022 519 
Q 2988 519 3436 956 
Q 3884 1394 3884 2338 
Q 3884 3275 3436 3711 
Q 2988 4147 2022 4147 
L 1259 4147 
z
M 628 4666 
L 1925 4666 
Q 3281 4666 3915 4102 
Q 4550 3538 4550 2338 
Q 4550 1131 3912 565 
Q 3275 0 1925 0 
L 628 0 
L 628 4666 
z
" id="DejaVuSans-44" transform="scale(0.015625)"/>
       <path d="M 3597 1894 
L 3597 1613 
L 953 1613 
Q 991 1019 1311 708 
Q 1631 397 2203 397 
Q 2534 397 2845 478 
Q 3156 559 3463 722 
L 3463 178 
Q 3153 47 2828 -22 
Q 2503 -91 2169 -91 
Q 1331 -91 842 396 
Q 353 884 353 1716 
Q 353 2575 817 3079 
Q 1281 3584 2069 3584 
Q 2775 3584 3186 3129 
Q 3597 2675 3597 1894 
z
M 3022 2063 
Q 3016 2534 2758 2815 
Q 2500 3097 2075 3097 
Q 1594 3097 1305 2825 
Q 1016 2553 972 2059 
L 3022 2063 
z
" id="DejaVuSans-65" transform="scale(0.015625)"/>
       <path d="M 3513 2113 
L 3513 0 
L 2938 0 
L 2938 2094 
Q 2938 2591 2744 2837 
Q 2550 3084 2163 3084 
Q 1697 3084 1428 2787 
Q 1159 2491 1159 1978 
L 1159 0 
L 581 0 
L 581 4863 
L 1159 4863 
L 1159 2956 
Q 1366 3272 1645 3428 
Q 1925 3584 2291 3584 
Q 2894 3584 3203 3211 
Q 3513 2838 3513 2113 
z
" id="DejaVuSans-68" transform="scale(0.015625)"/>
       <path d="M 2834 3397 
L 2834 2853 
Q 2591 2978 2328 3040 
Q 2066 3103 1784 3103 
Q 1356 3103 1142 2972 
Q 928 2841 928 2578 
Q 928 2378 1081 2264 
Q 1234 2150 1697 2047 
L 1894 2003 
Q 2506 1872 2764 1633 
Q 3022 1394 3022 966 
Q 3022 478 2636 193 
Q 2250 -91 1575 -91 
Q 1294 -91 989 -36 
Q 684 19 347 128 
L 347 722 
Q 666 556 975 473 
Q 1284 391 1588 391 
Q 1994 391 2212 530 
Q 2431 669 2431 922 
Q 2431 1156 2273 1281 
Q 2116 1406 1581 1522 
L 1381 1569 
Q 847 1681 609 1914 
Q 372 2147 372 2553 
Q 372 3047 722 3315 
Q 1072 3584 1716 3584 
Q 2034 3584 2315 3537 
Q 2597 3491 2834 3397 
z
" id="DejaVuSans-73" transform="scale(0.015625)"/>
      </defs>
      <use xlink:href="#DejaVuSans-44"/>
      <use x="77.001953" xlink:href="#DejaVuSans-65"/>
      <use x="138.525391" xlink:href="#DejaVuSans-61"/>
      <use x="199.804688" xlink:href="#DejaVuSans-74"/>
      <use x="239.013672" xlink:href="#DejaVuSans-68"/>
      <use x="302.392578" xlink:href="#DejaVuSans-73"/>
     </g>
    </g>
    <g id="line2d_27">
     <path d="M 885.44375 105.536563 
L 905.44375 105.536563 
" style="fill:none;stroke:#1f77b4;stroke-linecap:square;stroke-width:1.5;"/>
    </g>
    <g id="line2d_28"/>
    <g id="text_14">
     <!-- ICU low care (right) -->
     <g transform="translate(913.44375 109.036563)scale(0.1 -0.1)">
      <defs>
       <path d="M 628 4666 
L 1259 4666 
L 1259 0 
L 628 0 
L 628 4666 
z
" id="DejaVuSans-49" transform="scale(0.015625)"/>
       <path d="M 4122 4306 
L 4122 3641 
Q 3803 3938 3442 4084 
Q 3081 4231 2675 4231 
Q 1875 4231 1450 3742 
Q 1025 3253 1025 2328 
Q 1025 1406 1450 917 
Q 1875 428 2675 428 
Q 3081 428 3442 575 
Q 3803 722 4122 1019 
L 4122 359 
Q 3791 134 3420 21 
Q 3050 -91 2638 -91 
Q 1578 -91 968 557 
Q 359 1206 359 2328 
Q 359 3453 968 4101 
Q 1578 4750 2638 4750 
Q 3056 4750 3426 4639 
Q 3797 4528 4122 4306 
z
" id="DejaVuSans-43" transform="scale(0.015625)"/>
       <path d="M 556 4666 
L 1191 4666 
L 1191 1831 
Q 1191 1081 1462 751 
Q 1734 422 2344 422 
Q 2950 422 3222 751 
Q 3494 1081 3494 1831 
L 3494 4666 
L 4128 4666 
L 4128 1753 
Q 4128 841 3676 375 
Q 3225 -91 2344 -91 
Q 1459 -91 1007 375 
Q 556 841 556 1753 
L 556 4666 
z
" id="DejaVuSans-55" transform="scale(0.015625)"/>
       <path id="DejaVuSans-20" transform="scale(0.015625)"/>
       <path d="M 1959 3097 
Q 1497 3097 1228 2736 
Q 959 2375 959 1747 
Q 959 1119 1226 758 
Q 1494 397 1959 397 
Q 2419 397 2687 759 
Q 2956 1122 2956 1747 
Q 2956 2369 2687 2733 
Q 2419 3097 1959 3097 
z
M 1959 3584 
Q 2709 3584 3137 3096 
Q 3566 2609 3566 1747 
Q 3566 888 3137 398 
Q 2709 -91 1959 -91 
Q 1206 -91 779 398 
Q 353 888 353 1747 
Q 353 2609 779 3096 
Q 1206 3584 1959 3584 
z
" id="DejaVuSans-6f" transform="scale(0.015625)"/>
       <path d="M 269 3500 
L 844 3500 
L 1563 769 
L 2278 3500 
L 2956 3500 
L 3675 769 
L 4391 3500 
L 4966 3500 
L 4050 0 
L 3372 0 
L 2619 2869 
L 1863 0 
L 1184 0 
L 269 3500 
z
" id="DejaVuSans-77" transform="scale(0.015625)"/>
       <path d="M 1984 4856 
Q 1566 4138 1362 3434 
Q 1159 2731 1159 2009 
Q 1159 1288 1364 580 
Q 1569 -128 1984 -844 
L 1484 -844 
Q 1016 -109 783 600 
Q 550 1309 550 2009 
Q 550 2706 781 3412 
Q 1013 4119 1484 4856 
L 1984 4856 
z
" id="DejaVuSans-28" transform="scale(0.015625)"/>
       <path d="M 603 3500 
L 1178 3500 
L 1178 0 
L 603 0 
L 603 3500 
z
M 603 4863 
L 1178 4863 
L 1178 4134 
L 603 4134 
L 603 4863 
z
" id="DejaVuSans-69" transform="scale(0.015625)"/>
       <path d="M 2906 1791 
Q 2906 2416 2648 2759 
Q 2391 3103 1925 3103 
Q 1463 3103 1205 2759 
Q 947 2416 947 1791 
Q 947 1169 1205 825 
Q 1463 481 1925 481 
Q 2391 481 2648 825 
Q 2906 1169 2906 1791 
z
M 3481 434 
Q 3481 -459 3084 -895 
Q 2688 -1331 1869 -1331 
Q 1566 -1331 1297 -1286 
Q 1028 -1241 775 -1147 
L 775 -588 
Q 1028 -725 1275 -790 
Q 1522 -856 1778 -856 
Q 2344 -856 2625 -561 
Q 2906 -266 2906 331 
L 2906 616 
Q 2728 306 2450 153 
Q 2172 0 1784 0 
Q 1141 0 747 490 
Q 353 981 353 1791 
Q 353 2603 747 3093 
Q 1141 3584 1784 3584 
Q 2172 3584 2450 3431 
Q 2728 3278 2906 2969 
L 2906 3500 
L 3481 3500 
L 3481 434 
z
" id="DejaVuSans-67" transform="scale(0.015625)"/>
       <path d="M 513 4856 
L 1013 4856 
Q 1481 4119 1714 3412 
Q 1947 2706 1947 2009 
Q 1947 1309 1714 600 
Q 1481 -109 1013 -844 
L 513 -844 
Q 928 -128 1133 580 
Q 1338 1288 1338 2009 
Q 1338 2731 1133 3434 
Q 928 4138 513 4856 
z
" id="DejaVuSans-29" transform="scale(0.015625)"/>
      </defs>
      <use xlink:href="#DejaVuSans-49"/>
      <use x="29.492188" xlink:href="#DejaVuSans-43"/>
      <use x="99.316406" xlink:href="#DejaVuSans-55"/>
      <use x="172.509766" xlink:href="#DejaVuSans-20"/>
      <use x="204.296875" xlink:href="#DejaVuSans-6c"/>
      <use x="232.080078" xlink:href="#DejaVuSans-6f"/>
      <use x="293.261719" xlink:href="#DejaVuSans-77"/>
      <use x="375.048828" xlink:href="#DejaVuSans-20"/>
      <use x="406.835938" xlink:href="#DejaVuSans-63"/>
      <use x="461.816406" xlink:href="#DejaVuSans-61"/>
      <use x="523.095703" xlink:href="#DejaVuSans-72"/>
      <use x="561.958984" xlink:href="#DejaVuSans-65"/>
      <use x="623.482422" xlink:href="#DejaVuSans-20"/>
      <use x="655.269531" xlink:href="#DejaVuSans-28"/>
      <use x="694.283203" xlink:href="#DejaVuSans-72"/>
      <use x="735.396484" xlink:href="#DejaVuSans-69"/>
      <use x="763.179688" xlink:href="#DejaVuSans-67"/>
      <use x="826.65625" xlink:href="#DejaVuSans-68"/>
      <use x="890.035156" xlink:href="#DejaVuSans-74"/>
      <use x="929.244141" xlink:href="#DejaVuSans-29"/>
     </g>
    </g>
    <g id="line2d_29">
     <path d="M 885.44375 120.214688 
L 905.44375 120.214688 
" style="fill:none;stroke:#ff7f0e;stroke-linecap:square;stroke-width:1.5;"/>
    </g>
    <g id="line2d_30"/>
    <g id="text_15">
     <!-- ICU high care (right) -->
     <g transform="translate(913.44375 123.714688)scale(0.1 -0.1)">
      <use xlink:href="#DejaVuSans-49"/>
      <use x="29.492188" xlink:href="#DejaVuSans-43"/>
      <use x="99.316406" xlink:href="#DejaVuSans-55"/>
      <use x="172.509766" xlink:href="#DejaVuSans-20"/>
      <use x="204.296875" xlink:href="#DejaVuSans-68"/>
      <use x="267.675781" xlink:href="#DejaVuSans-69"/>
      <use x="295.458984" xlink:href="#DejaVuSans-67"/>
      <use x="358.935547" xlink:href="#DejaVuSans-68"/>
      <use x="422.314453" xlink:href="#DejaVuSans-20"/>
      <use x="454.101562" xlink:href="#DejaVuSans-63"/>
      <use x="509.082031" xlink:href="#DejaVuSans-61"/>
      <use x="570.361328" xlink:href="#DejaVuSans-72"/>
      <use x="609.224609" xlink:href="#DejaVuSans-65"/>
      <use x="670.748047" xlink:href="#DejaVuSans-20"/>
      <use x="702.535156" xlink:href="#DejaVuSans-28"/>
      <use x="741.548828" xlink:href="#DejaVuSans-72"/>
      <use x="782.662109" xlink:href="#DejaVuSans-69"/>
      <use x="810.445312" xlink:href="#DejaVuSans-67"/>
      <use x="873.921875" xlink:href="#DejaVuSans-68"/>
      <use x="937.300781" xlink:href="#DejaVuSans-74"/>
      <use x="976.509766" xlink:href="#DejaVuSans-29"/>
     </g>
    </g>
    <g id="line2d_31">
     <path d="M 885.44375 134.892813 
L 905.44375 134.892813 
" style="fill:none;stroke:#2ca02c;stroke-linecap:square;stroke-width:1.5;"/>
    </g>
    <g id="line2d_32"/>
    <g id="text_16">
     <!-- ECMO (right) -->
     <g transform="translate(913.44375 138.392813)scale(0.1 -0.1)">
      <defs>
       <path d="M 628 4666 
L 3578 4666 
L 3578 4134 
L 1259 4134 
L 1259 2753 
L 3481 2753 
L 3481 2222 
L 1259 2222 
L 1259 531 
L 3634 531 
L 3634 0 
L 628 0 
L 628 4666 
z
" id="DejaVuSans-45" transform="scale(0.015625)"/>
       <path d="M 628 4666 
L 1569 4666 
L 2759 1491 
L 3956 4666 
L 4897 4666 
L 4897 0 
L 4281 0 
L 4281 4097 
L 3078 897 
L 2444 897 
L 1241 4097 
L 1241 0 
L 628 0 
L 628 4666 
z
" id="DejaVuSans-4d" transform="scale(0.015625)"/>
      </defs>
      <use xlink:href="#DejaVuSans-45"/>
      <use x="63.183594" xlink:href="#DejaVuSans-43"/>
      <use x="133.007812" xlink:href="#DejaVuSans-4d"/>
      <use x="219.287109" xlink:href="#DejaVuSans-4f"/>
      <use x="297.998047" xlink:href="#DejaVuSans-20"/>
      <use x="329.785156" xlink:href="#DejaVuSans-28"/>
      <use x="368.798828" xlink:href="#DejaVuSans-72"/>
      <use x="409.912109" xlink:href="#DejaVuSans-69"/>
      <use x="437.695312" xlink:href="#DejaVuSans-67"/>
      <use x="501.171875" xlink:href="#DejaVuSans-68"/>
      <use x="564.550781" xlink:href="#DejaVuSans-74"/>
      <use x="603.759766" xlink:href="#DejaVuSans-29"/>
     </g>
    </g>
    <g id="line2d_33">
     <path d="M 885.44375 149.570938 
L 905.44375 149.570938 
" style="fill:none;stroke:#d62728;stroke-linecap:square;stroke-width:1.5;"/>
    </g>
    <g id="line2d_34"/>
    <g id="text_17">
     <!-- COVID-19 cases (right) -->
     <g transform="translate(913.44375 153.070938)scale(0.1 -0.1)">
      <defs>
       <path d="M 1831 0 
L 50 4666 
L 709 4666 
L 2188 738 
L 3669 4666 
L 4325 4666 
L 2547 0 
L 1831 0 
z
" id="DejaVuSans-56" transform="scale(0.015625)"/>
       <path d="M 313 2009 
L 1997 2009 
L 1997 1497 
L 313 1497 
L 313 2009 
z
" id="DejaVuSans-2d" transform="scale(0.015625)"/>
       <path d="M 703 97 
L 703 672 
Q 941 559 1184 500 
Q 1428 441 1663 441 
Q 2288 441 2617 861 
Q 2947 1281 2994 2138 
Q 2813 1869 2534 1725 
Q 2256 1581 1919 1581 
Q 1219 1581 811 2004 
Q 403 2428 403 3163 
Q 403 3881 828 4315 
Q 1253 4750 1959 4750 
Q 2769 4750 3195 4129 
Q 3622 3509 3622 2328 
Q 3622 1225 3098 567 
Q 2575 -91 1691 -91 
Q 1453 -91 1209 -44 
Q 966 3 703 97 
z
M 1959 2075 
Q 2384 2075 2632 2365 
Q 2881 2656 2881 3163 
Q 2881 3666 2632 3958 
Q 2384 4250 1959 4250 
Q 1534 4250 1286 3958 
Q 1038 3666 1038 3163 
Q 1038 2656 1286 2365 
Q 1534 2075 1959 2075 
z
" id="DejaVuSans-39" transform="scale(0.015625)"/>
      </defs>
      <use xlink:href="#DejaVuSans-43"/>
      <use x="69.824219" xlink:href="#DejaVuSans-4f"/>
      <use x="146.785156" xlink:href="#DejaVuSans-56"/>
      <use x="215.193359" xlink:href="#DejaVuSans-49"/>
      <use x="244.685547" xlink:href="#DejaVuSans-44"/>
      <use x="321.6875" xlink:href="#DejaVuSans-2d"/>
      <use x="357.771484" xlink:href="#DejaVuSans-31"/>
      <use x="421.394531" xlink:href="#DejaVuSans-39"/>
      <use x="485.017578" xlink:href="#DejaVuSans-20"/>
      <use x="516.804688" xlink:href="#DejaVuSans-63"/>
      <use x="571.785156" xlink:href="#DejaVuSans-61"/>
      <use x="633.064453" xlink:href="#DejaVuSans-73"/>
      <use x="685.164062" xlink:href="#DejaVuSans-65"/>
      <use x="746.6875" xlink:href="#DejaVuSans-73"/>
      <use x="798.787109" xlink:href="#DejaVuSans-20"/>
      <use x="830.574219" xlink:href="#DejaVuSans-28"/>
      <use x="869.587891" xlink:href="#DejaVuSans-72"/>
      <use x="910.701172" xlink:href="#DejaVuSans-69"/>
      <use x="938.484375" xlink:href="#DejaVuSans-67"/>
      <use x="1001.960938" xlink:href="#DejaVuSans-68"/>
      <use x="1065.339844" xlink:href="#DejaVuSans-74"/>
      <use x="1104.548828" xlink:href="#DejaVuSans-29"/>
     </g>
    </g>
   </g>
  </g>
  <g id="axes_2">
   <g id="matplotlib.axis_3">
    <g id="ytick_7">
     <g id="line2d_35">
      <defs>
       <path d="M 0 0 
L 3.5 0 
" id="m3c6e20f5be" style="stroke:#000000;stroke-width:0.8;"/>
      </defs>
      <g>
       <use style="stroke:#000000;stroke-width:0.8;" x="1036.8" xlink:href="#m3c6e20f5be" y="576.72"/>
      </g>
     </g>
     <g id="text_18">
      <!-- available -->
      <g transform="translate(1043.8 580.519219)scale(0.1 -0.1)">
       <defs>
        <path d="M 191 3500 
L 800 3500 
L 1894 563 
L 2988 3500 
L 3597 3500 
L 2284 0 
L 1503 0 
L 191 3500 
z
" id="DejaVuSans-76" transform="scale(0.015625)"/>
        <path d="M 3116 1747 
Q 3116 2381 2855 2742 
Q 2594 3103 2138 3103 
Q 1681 3103 1420 2742 
Q 1159 2381 1159 1747 
Q 1159 1113 1420 752 
Q 1681 391 2138 391 
Q 2594 391 2855 752 
Q 3116 1113 3116 1747 
z
M 1159 2969 
Q 1341 3281 1617 3432 
Q 1894 3584 2278 3584 
Q 2916 3584 3314 3078 
Q 3713 2572 3713 1747 
Q 3713 922 3314 415 
Q 2916 -91 2278 -91 
Q 1894 -91 1617 61 
Q 1341 213 1159 525 
L 1159 0 
L 581 0 
L 581 4863 
L 1159 4863 
L 1159 2969 
z
" id="DejaVuSans-62" transform="scale(0.015625)"/>
       </defs>
       <use xlink:href="#DejaVuSans-61"/>
       <use x="61.279297" xlink:href="#DejaVuSans-76"/>
       <use x="120.458984" xlink:href="#DejaVuSans-61"/>
       <use x="181.738281" xlink:href="#DejaVuSans-69"/>
       <use x="209.521484" xlink:href="#DejaVuSans-6c"/>
       <use x="237.304688" xlink:href="#DejaVuSans-61"/>
       <use x="298.583984" xlink:href="#DejaVuSans-62"/>
       <use x="362.060547" xlink:href="#DejaVuSans-6c"/>
       <use x="389.84375" xlink:href="#DejaVuSans-65"/>
      </g>
     </g>
    </g>
    <g id="ytick_8">
     <g id="line2d_36">
      <g>
       <use style="stroke:#000000;stroke-width:0.8;" x="1036.8" xlink:href="#m3c6e20f5be" y="327.24"/>
      </g>
     </g>
     <g id="text_19">
      <!-- limited -->
      <g transform="translate(1043.8 331.039219)scale(0.1 -0.1)">
       <defs>
        <path d="M 3328 2828 
Q 3544 3216 3844 3400 
Q 4144 3584 4550 3584 
Q 5097 3584 5394 3201 
Q 5691 2819 5691 2113 
L 5691 0 
L 5113 0 
L 5113 2094 
Q 5113 2597 4934 2840 
Q 4756 3084 4391 3084 
Q 3944 3084 3684 2787 
Q 3425 2491 3425 1978 
L 3425 0 
L 2847 0 
L 2847 2094 
Q 2847 2600 2669 2842 
Q 2491 3084 2119 3084 
Q 1678 3084 1418 2786 
Q 1159 2488 1159 1978 
L 1159 0 
L 581 0 
L 581 3500 
L 1159 3500 
L 1159 2956 
Q 1356 3278 1631 3431 
Q 1906 3584 2284 3584 
Q 2666 3584 2933 3390 
Q 3200 3197 3328 2828 
z
" id="DejaVuSans-6d" transform="scale(0.015625)"/>
       </defs>
       <use xlink:href="#DejaVuSans-6c"/>
       <use x="27.783203" xlink:href="#DejaVuSans-69"/>
       <use x="55.566406" xlink:href="#DejaVuSans-6d"/>
       <use x="152.978516" xlink:href="#DejaVuSans-69"/>
       <use x="180.761719" xlink:href="#DejaVuSans-74"/>
       <use x="219.970703" xlink:href="#DejaVuSans-65"/>
       <use x="281.494141" xlink:href="#DejaVuSans-64"/>
      </g>
     </g>
    </g>
    <g id="ytick_9">
     <g id="line2d_37">
      <g>
       <use style="stroke:#000000;stroke-width:0.8;" x="1036.8" xlink:href="#m3c6e20f5be" y="77.76"/>
      </g>
     </g>
     <g id="text_20">
      <!-- unavailable -->
      <g transform="translate(1043.8 81.559219)scale(0.1 -0.1)">
       <use xlink:href="#DejaVuSans-75"/>
       <use x="63.378906" xlink:href="#DejaVuSans-6e"/>
       <use x="126.757812" xlink:href="#DejaVuSans-61"/>
       <use x="188.037109" xlink:href="#DejaVuSans-76"/>
       <use x="247.216797" xlink:href="#DejaVuSans-61"/>
       <use x="308.496094" xlink:href="#DejaVuSans-69"/>
       <use x="336.279297" xlink:href="#DejaVuSans-6c"/>
       <use x="364.0625" xlink:href="#DejaVuSans-61"/>
       <use x="425.341797" xlink:href="#DejaVuSans-62"/>
       <use x="488.818359" xlink:href="#DejaVuSans-6c"/>
       <use x="516.601562" xlink:href="#DejaVuSans-65"/>
      </g>
     </g>
    </g>
   </g>
   <g id="line2d_38">
    <path clip-path="url(#p3059e0d030)" d="M 614.927473 194.70375 
L 616.88967 179.11125 
L 618.851868 186.9075 
L 620.814066 202.5 
L 622.776264 194.70375 
L 624.738462 202.5 
L 626.700659 218.0925 
L 628.662857 186.9075 
L 630.625055 171.315 
L 632.587253 202.5 
L 634.549451 200.52 
L 636.511648 210.29625 
L 638.473846 233.685 
L 640.436044 235.326316 
L 642.398242 233.685 
L 644.36044 225.88875 
L 646.322637 194.70375 
L 648.284835 179.11125 
L 650.247033 184.30875 
L 652.209231 179.11125 
L 656.133626 210.29625 
L 658.095824 190.805625 
L 660.058022 209.1825 
L 662.02022 218.0925 
L 665.944615 171.315 
L 667.906813 186.9075 
L 669.869011 177.811875 
L 671.831209 186.9075 
L 673.793407 179.11125 
L 675.755604 194.70375 
L 677.717802 198.601875 
L 679.68 210.29625 
L 681.642198 202.5 
L 683.604396 202.5 
L 685.566593 186.9075 
L 687.528791 194.70375 
L 689.490989 189.50625 
L 691.453187 202.5 
L 693.415385 210.29625 
L 695.377582 280.4625 
L 697.33978 202.5 
L 699.301978 210.29625 
L 701.264176 194.70375 
L 703.226374 225.88875 
L 705.188571 225.88875 
L 707.150769 249.2775 
L 709.112967 194.70375 
L 711.075165 155.7225 
L 713.037363 155.7225 
L 716.961758 218.0925 
L 718.923956 215.96625 
L 720.886154 202.5 
L 722.848352 218.0925 
L 724.810549 225.88875 
L 726.772747 218.0925 
L 728.734945 202.5 
L 730.697143 194.70375 
L 732.659341 210.29625 
L 734.621538 218.0925 
L 736.583736 179.11125 
L 740.508132 194.70375 
L 742.47033 218.0925 
L 744.432527 264.87 
L 746.394725 257.07375 
L 748.356923 225.88875 
L 750.319121 264.87 
L 752.281319 296.055 
L 754.243516 311.6475 
L 756.205714 319.44375 
L 758.167912 311.6475 
L 760.13011 288.25875 
L 762.092308 296.055 
L 764.054505 249.2775 
L 766.016703 264.87 
L 769.941099 249.2775 
L 771.903297 257.07375 
L 773.865495 280.4625 
L 775.827692 280.4625 
L 779.752088 264.87 
L 781.714286 272.66625 
L 783.676484 272.66625 
L 785.638681 303.85125 
L 789.563077 350.62875 
L 791.525275 350.62875 
L 793.487473 342.8325 
L 795.44967 311.6475 
L 797.411868 303.85125 
L 799.374066 319.44375 
L 801.336264 311.6475 
L 803.298462 327.24 
L 805.260659 335.03625 
L 807.222857 327.24 
L 809.185055 288.25875 
L 811.147253 272.66625 
L 813.109451 303.85125 
L 815.071648 311.6475 
L 817.033846 311.6475 
L 818.996044 319.44375 
L 820.958242 288.25875 
L 822.92044 280.4625 
L 824.882637 264.87 
L 826.844835 264.87 
L 828.807033 272.66625 
L 830.769231 296.055 
L 834.693626 280.4625 
L 836.655824 303.85125 
L 838.618022 280.4625 
L 840.58022 264.87 
L 842.542418 272.66625 
L 844.504615 264.87 
L 846.466813 264.87 
L 848.429011 241.48125 
L 850.391209 210.29625 
L 854.315604 241.48125 
L 856.277802 249.2775 
L 860.202198 218.0925 
L 864.126593 202.5 
L 866.088791 241.48125 
L 868.050989 233.685 
L 870.013187 241.48125 
L 871.975385 241.48125 
L 875.89978 225.88875 
L 877.861978 210.29625 
L 879.824176 210.29625 
L 881.786374 241.48125 
L 883.748571 241.48125 
L 885.710769 210.29625 
L 887.672967 225.88875 
L 889.635165 194.70375 
L 891.597363 218.0925 
L 893.55956 249.2775 
L 895.521758 288.25875 
L 897.483956 264.87 
L 899.446154 264.87 
L 901.408352 249.2775 
L 903.370549 241.48125 
L 905.332747 241.48125 
M 942.614505 280.4625 
L 944.576703 257.07375 
L 948.501099 257.07375 
L 950.463297 288.25875 
L 952.425495 296.055 
L 954.387692 307.120645 
L 956.34989 295.049032 
M 970.085275 303.85125 
L 972.047473 288.25875 
L 974.00967 327.24 
L 975.971868 303.85125 
L 977.934066 272.66625 
L 979.896264 296.055 
L 981.858462 290.8575 
L 983.820659 276.564375 
L 985.782857 264.213474 
L 987.745055 246.762581 
L 989.707253 295.049032 
L 991.669451 299.953125 
L 993.631648 264.87 
L 995.593846 264.87 
L 997.556044 253.175625 
L 999.518242 245.379375 
L 1001.48044 257.07375 
L 1003.442637 237.583125 
L 1005.404835 241.48125 
L 1007.367033 246.67875 
L 1009.329231 257.07375 
L 1011.291429 253.175625 
L 1013.253626 266.42925 
M 1021.102418 288.25875 
L 1025.026813 319.44375 
L 1026.989011 311.6475 
L 1028.951209 288.25875 
L 1030.913407 288.25875 
L 1032.875604 268.768125 
L 1036.8 268.768125 
L 1036.8 268.768125 
" style="fill:none;stroke:#1f77b4;stroke-linecap:square;stroke-width:1.5;"/>
   </g>
   <g id="line2d_39">
    <path clip-path="url(#p3059e0d030)" d="M 614.927473 210.29625 
L 616.88967 179.11125 
L 618.851868 186.9075 
L 620.814066 210.29625 
L 622.776264 218.0925 
L 624.738462 218.0925 
L 626.700659 233.685 
L 628.662857 179.11125 
L 630.625055 171.315 
L 632.587253 194.70375 
L 634.549451 192.6 
L 636.511648 233.685 
L 638.473846 225.88875 
L 640.436044 190.600461 
L 642.398242 186.9075 
L 644.36044 202.5 
L 646.322637 163.51875 
L 648.284835 147.92625 
L 650.247033 168.71625 
L 652.209231 171.315 
L 654.171429 171.315 
L 656.133626 186.9075 
L 658.095824 163.51875 
L 660.058022 215.865 
L 662.02022 210.29625 
L 663.982418 179.11125 
L 665.944615 171.315 
L 667.906813 179.11125 
L 669.869011 193.404375 
L 671.831209 179.11125 
L 673.793407 179.11125 
L 675.755604 186.9075 
L 679.68 241.48125 
L 681.642198 225.88875 
L 683.604396 225.88875 
L 685.566593 194.70375 
L 687.528791 202.5 
L 689.490989 184.30875 
L 691.453187 179.11125 
L 693.415385 210.29625 
L 695.377582 249.2775 
L 697.33978 194.70375 
L 699.301978 202.5 
L 703.226374 202.5 
L 705.188571 179.11125 
L 707.150769 210.29625 
L 709.112967 210.29625 
L 711.075165 171.315 
L 713.037363 171.315 
L 714.99956 202.5 
L 716.961758 194.70375 
L 718.923956 195.4125 
L 720.886154 194.70375 
L 722.848352 202.5 
L 724.810549 202.5 
L 726.772747 194.70375 
L 728.734945 202.5 
L 730.697143 225.88875 
L 732.659341 218.0925 
L 734.621538 225.88875 
L 736.583736 202.5 
L 738.545934 194.70375 
L 740.508132 210.29625 
L 742.47033 241.48125 
L 744.432527 225.88875 
L 746.394725 218.0925 
L 748.356923 225.88875 
L 750.319121 241.48125 
L 752.281319 288.25875 
L 754.243516 303.85125 
L 756.205714 327.24 
L 758.167912 296.055 
L 760.13011 272.66625 
L 762.092308 264.87 
L 764.054505 233.685 
L 766.016703 233.685 
L 769.941099 264.87 
L 771.903297 296.055 
L 775.827692 296.055 
L 777.78989 311.6475 
L 779.752088 288.25875 
L 781.714286 280.4625 
L 783.676484 264.87 
L 785.638681 288.25875 
L 787.600879 288.25875 
L 789.563077 280.4625 
L 791.525275 288.25875 
L 793.487473 264.87 
L 797.411868 249.2775 
L 799.374066 249.2775 
L 801.336264 257.07375 
L 803.298462 249.2775 
L 807.222857 264.87 
L 809.185055 249.2775 
L 811.147253 264.87 
L 813.109451 296.055 
L 815.071648 311.6475 
L 818.996044 296.055 
L 820.958242 257.07375 
L 822.92044 249.2775 
L 824.882637 218.0925 
L 826.844835 241.48125 
L 828.807033 257.07375 
L 830.769231 264.87 
L 832.731429 257.07375 
L 834.693626 241.48125 
L 836.655824 249.2775 
L 840.58022 233.685 
L 842.542418 218.0925 
L 844.504615 194.70375 
L 846.466813 218.0925 
L 848.429011 202.5 
L 850.391209 194.70375 
L 852.353407 194.70375 
L 854.315604 210.29625 
L 856.277802 241.48125 
L 858.24 225.88875 
L 862.164396 210.29625 
L 864.126593 194.70375 
L 866.088791 218.0925 
L 868.050989 210.29625 
L 870.013187 218.0925 
L 871.975385 210.29625 
L 873.937582 210.29625 
L 875.89978 194.70375 
L 877.861978 202.5 
L 879.824176 218.0925 
L 881.786374 225.88875 
L 883.748571 225.88875 
L 885.710769 218.0925 
L 887.672967 249.2775 
L 889.635165 194.70375 
L 891.597363 233.685 
L 893.55956 249.2775 
L 895.521758 280.4625 
L 897.483956 257.07375 
L 899.446154 264.87 
L 901.408352 249.2775 
L 905.332747 249.2775 
M 942.614505 280.4625 
L 944.576703 264.87 
L 946.538901 264.87 
L 948.501099 241.48125 
L 950.463297 264.87 
L 952.425495 264.87 
L 954.387692 246.762581 
L 956.34989 246.762581 
M 970.085275 296.055 
L 972.047473 288.25875 
L 974.00967 319.44375 
L 975.971868 311.6475 
L 977.934066 296.055 
L 979.896264 296.055 
L 981.858462 264.87 
L 983.820659 264.87 
L 985.782857 253.709053 
L 987.745055 218.595484 
L 989.707253 258.834194 
L 991.669451 268.768125 
L 993.631648 229.786875 
L 995.593846 221.990625 
L 997.556044 229.786875 
L 999.518242 253.175625 
L 1001.48044 254.475 
L 1003.442637 249.2775 
L 1005.404835 231.08625 
L 1007.367033 231.08625 
L 1009.329231 235.634063 
L 1011.291429 225.88875 
L 1013.253626 243.0405 
M 1021.102418 249.2775 
L 1025.026813 280.4625 
L 1026.989011 288.25875 
L 1028.951209 268.768125 
L 1030.913407 276.564375 
L 1032.875604 264.87 
L 1034.837802 260.971875 
L 1036.8 260.971875 
L 1036.8 260.971875 
" style="fill:none;stroke:#ff7f0e;stroke-linecap:square;stroke-width:1.5;"/>
   </g>
   <g id="line2d_40">
    <path clip-path="url(#p3059e0d030)" d="M 614.927473 155.7225 
L 616.88967 108.945 
L 618.851868 108.945 
L 622.776264 202.5 
L 624.738462 147.92625 
L 626.700659 147.92625 
L 628.662857 249.2775 
L 630.625055 249.2775 
L 632.587253 186.9075 
L 634.549451 255.96 
L 636.511648 233.685 
L 638.473846 280.4625 
L 640.436044 175.007961 
L 642.398242 116.74125 
L 644.36044 171.315 
L 646.322637 171.315 
L 648.284835 140.13 
L 650.247033 116.74125 
L 654.171429 116.74125 
L 656.133626 132.33375 
L 658.095824 140.13 
L 660.058022 132.33375 
L 665.944615 132.33375 
L 667.906813 171.315 
L 669.869011 225.88875 
L 675.755604 225.88875 
L 677.717802 171.315 
L 683.604396 171.315 
L 685.566593 132.33375 
L 687.528791 116.74125 
L 689.490989 225.88875 
L 699.301978 225.88875 
L 701.264176 171.315 
L 703.226374 171.315 
L 705.188571 186.9075 
L 707.150769 241.48125 
L 709.112967 241.48125 
L 711.075165 93.3525 
L 713.037363 163.51875 
L 714.99956 218.0925 
L 716.961758 264.87 
L 718.923956 261.32625 
L 720.886154 288.25875 
L 722.848352 288.25875 
L 724.810549 280.4625 
L 728.734945 280.4625 
L 730.697143 233.685 
L 732.659341 179.11125 
L 738.545934 179.11125 
L 740.508132 163.51875 
L 744.432527 163.51875 
L 746.394725 272.66625 
L 748.356923 272.66625 
L 750.319121 311.6475 
L 752.281319 288.25875 
L 754.243516 303.85125 
L 756.205714 335.03625 
L 758.167912 327.24 
L 760.13011 327.24 
L 764.054505 233.685 
L 775.827692 233.685 
L 777.78989 249.2775 
L 779.752088 257.07375 
L 781.714286 241.48125 
L 783.676484 179.11125 
L 785.638681 124.5375 
L 787.600879 116.74125 
L 789.563077 124.5375 
L 791.525275 140.13 
L 795.44967 140.13 
L 797.411868 194.70375 
L 799.374066 194.70375 
L 801.336264 186.9075 
L 805.260659 186.9075 
L 807.222857 202.5 
L 809.185055 210.29625 
L 822.92044 210.29625 
L 824.882637 202.5 
L 826.844835 233.685 
L 828.807033 171.315 
L 830.769231 171.315 
L 832.731429 155.7225 
L 834.693626 155.7225 
L 836.655824 171.315 
L 838.618022 194.70375 
L 840.58022 179.11125 
L 842.542418 186.9075 
L 844.504615 179.11125 
L 846.466813 179.11125 
L 848.429011 132.33375 
L 850.391209 132.33375 
L 852.353407 116.74125 
L 854.315604 116.74125 
L 856.277802 163.51875 
L 860.202198 163.51875 
L 862.164396 202.5 
L 868.050989 202.5 
L 870.013187 163.51875 
L 871.975385 116.74125 
L 873.937582 116.74125 
L 875.89978 171.315 
L 885.710769 171.315 
L 887.672967 194.70375 
L 889.635165 249.2775 
L 891.597363 210.29625 
L 893.55956 210.29625 
L 895.521758 241.48125 
L 897.483956 186.9075 
L 899.446154 186.9075 
L 901.408352 171.315 
L 903.370549 342.8325 
L 905.332747 342.8325 
M 942.614505 264.87 
L 944.576703 264.87 
L 946.538901 233.685 
L 952.425495 233.685 
L 954.387692 238.714839 
L 956.34989 238.714839 
M 970.085275 264.87 
L 975.971868 264.87 
L 977.934066 288.25875 
L 979.896264 272.66625 
L 981.858462 272.66625 
L 983.820659 268.768125 
L 985.782857 251.082947 
L 987.745055 254.810323 
L 989.707253 238.714839 
L 991.669451 233.685 
L 993.631648 233.685 
L 995.593846 186.9075 
L 999.518242 194.70375 
L 1001.48044 186.9075 
L 1003.442637 210.29625 
L 1005.404835 218.0925 
L 1007.367033 197.3025 
L 1009.329231 241.48125 
L 1013.253626 163.51875 
M 1021.102418 186.9075 
L 1036.8 186.9075 
L 1036.8 186.9075 
" style="fill:none;stroke:#2ca02c;stroke-linecap:square;stroke-width:1.5;"/>
   </g>
   <g id="line2d_41">
    <path clip-path="url(#p3059e0d030)" d="M 0 0 
" style="fill:none;stroke:#d62728;stroke-linecap:square;stroke-width:1.5;"/>
   </g>
   <g id="patch_8">
    <path d="M 144 576.72 
L 144 77.76 
" style="fill:none;stroke:#000000;stroke-linecap:square;stroke-linejoin:miter;stroke-width:0.8;"/>
   </g>
   <g id="patch_9">
    <path d="M 1036.8 576.72 
L 1036.8 77.76 
" style="fill:none;stroke:#000000;stroke-linecap:square;stroke-linejoin:miter;stroke-width:0.8;"/>
   </g>
   <g id="patch_10">
    <path d="M 144 576.72 
L 1036.8 576.72 
" style="fill:none;stroke:#000000;stroke-linecap:square;stroke-linejoin:miter;stroke-width:0.8;"/>
   </g>
   <g id="patch_11">
    <path d="M 144 77.76 
L 1036.8 77.76 
" style="fill:none;stroke:#000000;stroke-linecap:square;stroke-linejoin:miter;stroke-width:0.8;"/>
   </g>
   <g id="text_21">
    <!-- Mecklenburg-Vorpommern -->
    <g transform="translate(511.2 71.76)scale(0.12 -0.12)">
     <defs>
      <path d="M 581 4863 
L 1159 4863 
L 1159 1991 
L 2875 3500 
L 3609 3500 
L 1753 1863 
L 3688 0 
L 2938 0 
L 1159 1709 
L 1159 0 
L 581 0 
L 581 4863 
z
" id="DejaVuSans-6b" transform="scale(0.015625)"/>
     </defs>
     <use xlink:href="#DejaVuSans-4d"/>
     <use x="86.279297" xlink:href="#DejaVuSans-65"/>
     <use x="147.802734" xlink:href="#DejaVuSans-63"/>
     <use x="202.783203" xlink:href="#DejaVuSans-6b"/>
     <use x="260.693359" xlink:href="#DejaVuSans-6c"/>
     <use x="288.476562" xlink:href="#DejaVuSans-65"/>
     <use x="350" xlink:href="#DejaVuSans-6e"/>
     <use x="413.378906" xlink:href="#DejaVuSans-62"/>
     <use x="476.855469" xlink:href="#DejaVuSans-75"/>
     <use x="540.234375" xlink:href="#DejaVuSans-72"/>
     <use x="579.597656" xlink:href="#DejaVuSans-67"/>
     <use x="643.074219" xlink:href="#DejaVuSans-2d"/>
     <use x="673.283203" xlink:href="#DejaVuSans-56"/>
     <use x="733.941406" xlink:href="#DejaVuSans-6f"/>
     <use x="795.123047" xlink:href="#DejaVuSans-72"/>
     <use x="836.236328" xlink:href="#DejaVuSans-70"/>
     <use x="899.712891" xlink:href="#DejaVuSans-6f"/>
     <use x="960.894531" xlink:href="#DejaVuSans-6d"/>
     <use x="1058.306641" xlink:href="#DejaVuSans-6d"/>
     <use x="1155.71875" xlink:href="#DejaVuSans-65"/>
     <use x="1217.242188" xlink:href="#DejaVuSans-72"/>
     <use x="1256.605469" xlink:href="#DejaVuSans-6e"/>
    </g>
   </g>
  </g>
 </g>
 <defs>
  <clipPath id="p3059e0d030">
   <rect height="498.96" width="892.8" x="144" y="77.76"/>
  </clipPath>
 </defs>
</svg>
