<?xml version="1.0" encoding="utf-8" standalone="no"?>
<!DOCTYPE svg PUBLIC "-//W3C//DTD SVG 1.1//EN"
  "http://www.w3.org/Graphics/SVG/1.1/DTD/svg11.dtd">
<!-- Created with matplotlib (https://matplotlib.org/) -->
<svg height="576pt" version="1.1" viewBox="0 0 576 576" width="576pt" xmlns="http://www.w3.org/2000/svg" xmlns:xlink="http://www.w3.org/1999/xlink">
 <defs>
  <style type="text/css">
*{stroke-linecap:butt;stroke-linejoin:round;}
  </style>
 </defs>
 <g id="figure_1">
  <g id="patch_1">
   <path d="M 0 576 
L 576 576 
L 576 0 
L 0 0 
z
" style="fill:#ffffff;"/>
  </g>
  <g id="axes_1">
   <g id="patch_2">
    <path d="M 72 512.64 
L 518.4 512.64 
L 518.4 69.12 
L 72 69.12 
z
" style="fill:#ffffff;"/>
   </g>
   <g id="patch_3">
    <path clip-path="url(#p8e6d0ec389)" d="M 72 505.71 
L 165.840592 505.71 
L 165.840592 491.85 
L 72 491.85 
z
" style="fill:#1f77b4;"/>
   </g>
   <g id="patch_4">
    <path clip-path="url(#p8e6d0ec389)" d="M 72 477.99 
L 180.327778 477.99 
L 180.327778 464.13 
L 72 464.13 
z
" style="fill:#1f77b4;"/>
   </g>
   <g id="patch_5">
    <path clip-path="url(#p8e6d0ec389)" d="M 72 450.27 
L 173.369843 450.27 
L 173.369843 436.41 
L 72 436.41 
z
" style="fill:#1f77b4;"/>
   </g>
   <g id="patch_6">
    <path clip-path="url(#p8e6d0ec389)" d="M 72 422.55 
L 175.336655 422.55 
L 175.336655 408.69 
L 72 408.69 
z
" style="fill:#1f77b4;"/>
   </g>
   <g id="patch_7">
    <path clip-path="url(#p8e6d0ec389)" d="M 72 394.83 
L 150.866351 394.83 
L 150.866351 380.97 
L 72 380.97 
z
" style="fill:#1f77b4;"/>
   </g>
   <g id="patch_8">
    <path clip-path="url(#p8e6d0ec389)" d="M 72 367.11 
L 145.607376 367.11 
L 145.607376 353.25 
L 72 353.25 
z
" style="fill:#1f77b4;"/>
   </g>
   <g id="patch_9">
    <path clip-path="url(#p8e6d0ec389)" d="M 72 339.39 
L 172.886032 339.39 
L 172.886032 325.53 
L 72 325.53 
z
" style="fill:#1f77b4;"/>
   </g>
   <g id="patch_10">
    <path clip-path="url(#p8e6d0ec389)" d="M 72 311.67 
L 184.306649 311.67 
L 184.306649 297.81 
L 72 297.81 
z
" style="fill:#1f77b4;"/>
   </g>
   <g id="patch_11">
    <path clip-path="url(#p8e6d0ec389)" d="M 72 283.95 
L 193.841345 283.95 
L 193.841345 270.09 
L 72 270.09 
z
" style="fill:#1f77b4;"/>
   </g>
   <g id="patch_12">
    <path clip-path="url(#p8e6d0ec389)" d="M 72 256.23 
L 158.136835 256.23 
L 158.136835 242.37 
L 72 242.37 
z
" style="fill:#1f77b4;"/>
   </g>
   <g id="patch_13">
    <path clip-path="url(#p8e6d0ec389)" d="M 72 228.51 
L 182.658032 228.51 
L 182.658032 214.65 
L 72 214.65 
z
" style="fill:#1f77b4;"/>
   </g>
   <g id="patch_14">
    <path clip-path="url(#p8e6d0ec389)" d="M 72 200.79 
L 205.238473 200.79 
L 205.238473 186.93 
L 72 186.93 
z
" style="fill:#1f77b4;"/>
   </g>
   <g id="patch_15">
    <path clip-path="url(#p8e6d0ec389)" d="M 72 173.07 
L 168.259391 173.07 
L 168.259391 159.21 
L 72 159.21 
z
" style="fill:#1f77b4;"/>
   </g>
   <g id="patch_16">
    <path clip-path="url(#p8e6d0ec389)" d="M 72 145.35 
L 186.264636 145.35 
L 186.264636 131.49 
L 72 131.49 
z
" style="fill:#1f77b4;"/>
   </g>
   <g id="patch_17">
    <path clip-path="url(#p8e6d0ec389)" d="M 72 117.63 
L 193.859662 117.63 
L 193.859662 103.77 
L 72 103.77 
z
" style="fill:#1f77b4;"/>
   </g>
   <g id="patch_18">
    <path clip-path="url(#p8e6d0ec389)" d="M 72 89.91 
L 181.315276 89.91 
L 181.315276 76.05 
L 72 76.05 
z
" style="fill:#1f77b4;"/>
   </g>
   <g id="patch_19">
    <path clip-path="url(#p8e6d0ec389)" d="M 165.840592 505.71 
L 259.505565 505.71 
L 259.505565 491.85 
L 165.840592 491.85 
z
" style="fill:#ff7f0e;"/>
   </g>
   <g id="patch_20">
    <path clip-path="url(#p8e6d0ec389)" d="M 180.327778 477.99 
L 279.385744 477.99 
L 279.385744 464.13 
L 180.327778 464.13 
z
" style="fill:#ff7f0e;"/>
   </g>
   <g id="patch_21">
    <path clip-path="url(#p8e6d0ec389)" d="M 173.369843 450.27 
L 256.393248 450.27 
L 256.393248 436.41 
L 173.369843 436.41 
z
" style="fill:#ff7f0e;"/>
   </g>
   <g id="patch_22">
    <path clip-path="url(#p8e6d0ec389)" d="M 175.336655 422.55 
L 263.318084 422.55 
L 263.318084 408.69 
L 175.336655 408.69 
z
" style="fill:#ff7f0e;"/>
   </g>
   <g id="patch_23">
    <path clip-path="url(#p8e6d0ec389)" d="M 150.866351 394.83 
L 223.989463 394.83 
L 223.989463 380.97 
L 150.866351 380.97 
z
" style="fill:#ff7f0e;"/>
   </g>
   <g id="patch_24">
    <path clip-path="url(#p8e6d0ec389)" d="M 145.607376 367.11 
L 216.732006 367.11 
L 216.732006 353.25 
L 145.607376 353.25 
z
" style="fill:#ff7f0e;"/>
   </g>
   <g id="patch_25">
    <path clip-path="url(#p8e6d0ec389)" d="M 172.886032 339.39 
L 280.197213 339.39 
L 280.197213 325.53 
L 172.886032 325.53 
z
" style="fill:#ff7f0e;"/>
   </g>
   <g id="patch_26">
    <path clip-path="url(#p8e6d0ec389)" d="M 184.306649 311.67 
L 289.44272 311.67 
L 289.44272 297.81 
L 184.306649 297.81 
z
" style="fill:#ff7f0e;"/>
   </g>
   <g id="patch_27">
    <path clip-path="url(#p8e6d0ec389)" d="M 193.841345 283.95 
L 296.181625 283.95 
L 296.181625 270.09 
L 193.841345 270.09 
z
" style="fill:#ff7f0e;"/>
   </g>
   <g id="patch_28">
    <path clip-path="url(#p8e6d0ec389)" d="M 158.136835 256.23 
L 244.676423 256.23 
L 244.676423 242.37 
L 158.136835 242.37 
z
" style="fill:#ff7f0e;"/>
   </g>
   <g id="patch_29">
    <path clip-path="url(#p8e6d0ec389)" d="M 182.658032 228.51 
L 283.178114 228.51 
L 283.178114 214.65 
L 182.658032 214.65 
z
" style="fill:#ff7f0e;"/>
   </g>
   <g id="patch_30">
    <path clip-path="url(#p8e6d0ec389)" d="M 205.238473 200.79 
L 320.619057 200.79 
L 320.619057 186.93 
L 205.238473 186.93 
z
" style="fill:#ff7f0e;"/>
   </g>
   <g id="patch_31">
    <path clip-path="url(#p8e6d0ec389)" d="M 168.259391 173.07 
L 268.507655 173.07 
L 268.507655 159.21 
L 168.259391 159.21 
z
" style="fill:#ff7f0e;"/>
   </g>
   <g id="patch_32">
    <path clip-path="url(#p8e6d0ec389)" d="M 186.264636 145.35 
L 273.609005 145.35 
L 273.609005 131.49 
L 186.264636 131.49 
z
" style="fill:#ff7f0e;"/>
   </g>
   <g id="patch_33">
    <path clip-path="url(#p8e6d0ec389)" d="M 193.859662 117.63 
L 290.13124 117.63 
L 290.13124 103.77 
L 193.859662 103.77 
z
" style="fill:#ff7f0e;"/>
   </g>
   <g id="patch_34">
    <path clip-path="url(#p8e6d0ec389)" d="M 181.315276 89.91 
L 276.096397 89.91 
L 276.096397 76.05 
L 181.315276 76.05 
z
" style="fill:#ff7f0e;"/>
   </g>
   <g id="patch_35">
    <path clip-path="url(#p8e6d0ec389)" d="M 259.505565 505.71 
L 350.672489 505.71 
L 350.672489 491.85 
L 259.505565 491.85 
z
" style="fill:#2ca02c;"/>
   </g>
   <g id="patch_36">
    <path clip-path="url(#p8e6d0ec389)" d="M 279.385744 477.99 
L 376.189031 477.99 
L 376.189031 464.13 
L 279.385744 464.13 
z
" style="fill:#2ca02c;"/>
   </g>
   <g id="patch_37">
    <path clip-path="url(#p8e6d0ec389)" d="M 256.393248 450.27 
L 340.206984 450.27 
L 340.206984 436.41 
L 256.393248 436.41 
z
" style="fill:#2ca02c;"/>
   </g>
   <g id="patch_38">
    <path clip-path="url(#p8e6d0ec389)" d="M 263.318084 422.55 
L 348.727579 422.55 
L 348.727579 408.69 
L 263.318084 408.69 
z
" style="fill:#2ca02c;"/>
   </g>
   <g id="patch_39">
    <path clip-path="url(#p8e6d0ec389)" d="M 223.989463 394.83 
L 293.840626 394.83 
L 293.840626 380.97 
L 223.989463 380.97 
z
" style="fill:#2ca02c;"/>
   </g>
   <g id="patch_40">
    <path clip-path="url(#p8e6d0ec389)" d="M 216.732006 367.11 
L 292.150769 367.11 
L 292.150769 353.25 
L 216.732006 353.25 
z
" style="fill:#2ca02c;"/>
   </g>
   <g id="patch_41">
    <path clip-path="url(#p8e6d0ec389)" d="M 280.197213 339.39 
L 387.387362 339.39 
L 387.387362 325.53 
L 280.197213 325.53 
z
" style="fill:#2ca02c;"/>
   </g>
   <g id="patch_42">
    <path clip-path="url(#p8e6d0ec389)" d="M 289.44272 311.67 
L 389.378845 311.67 
L 389.378845 297.81 
L 289.44272 297.81 
z
" style="fill:#2ca02c;"/>
   </g>
   <g id="patch_43">
    <path clip-path="url(#p8e6d0ec389)" d="M 296.181625 283.95 
L 399.662908 283.95 
L 399.662908 270.09 
L 296.181625 270.09 
z
" style="fill:#2ca02c;"/>
   </g>
   <g id="patch_44">
    <path clip-path="url(#p8e6d0ec389)" d="M 244.676423 256.23 
L 328.504701 256.23 
L 328.504701 242.37 
L 244.676423 242.37 
z
" style="fill:#2ca02c;"/>
   </g>
   <g id="patch_45">
    <path clip-path="url(#p8e6d0ec389)" d="M 283.178114 228.51 
L 382.502244 228.51 
L 382.502244 214.65 
L 283.178114 214.65 
z
" style="fill:#2ca02c;"/>
   </g>
   <g id="patch_46">
    <path clip-path="url(#p8e6d0ec389)" d="M 320.619057 200.79 
L 432.542046 200.79 
L 432.542046 186.93 
L 320.619057 186.93 
z
" style="fill:#2ca02c;"/>
   </g>
   <g id="patch_47">
    <path clip-path="url(#p8e6d0ec389)" d="M 268.507655 173.07 
L 369.783277 173.07 
L 369.783277 159.21 
L 268.507655 159.21 
z
" style="fill:#2ca02c;"/>
   </g>
   <g id="patch_48">
    <path clip-path="url(#p8e6d0ec389)" d="M 273.609005 145.35 
L 357.797873 145.35 
L 357.797873 131.49 
L 273.609005 131.49 
z
" style="fill:#2ca02c;"/>
   </g>
   <g id="patch_49">
    <path clip-path="url(#p8e6d0ec389)" d="M 290.13124 117.63 
L 387.360061 117.63 
L 387.360061 103.77 
L 290.13124 103.77 
z
" style="fill:#2ca02c;"/>
   </g>
   <g id="patch_50">
    <path clip-path="url(#p8e6d0ec389)" d="M 276.096397 89.91 
L 377.050709 89.91 
L 377.050709 76.05 
L 276.096397 76.05 
z
" style="fill:#2ca02c;"/>
   </g>
   <g id="matplotlib.axis_1">
    <g id="xtick_1">
     <g id="line2d_1">
      <defs>
       <path d="M 0 0 
L 0 3.5 
" id="m7636fab9aa" style="stroke:#000000;stroke-width:0.8;"/>
      </defs>
      <g>
       <use style="stroke:#000000;stroke-width:0.8;" x="72" xlink:href="#m7636fab9aa" y="512.64"/>
      </g>
     </g>
     <g id="text_1">
      <!-- available -->
      <defs>
       <path d="M 34.28125 27.484375 
Q 23.390625 27.484375 19.1875 25 
Q 14.984375 22.515625 14.984375 16.5 
Q 14.984375 11.71875 18.140625 8.90625 
Q 21.296875 6.109375 26.703125 6.109375 
Q 34.1875 6.109375 38.703125 11.40625 
Q 43.21875 16.703125 43.21875 25.484375 
L 43.21875 27.484375 
z
M 52.203125 31.203125 
L 52.203125 0 
L 43.21875 0 
L 43.21875 8.296875 
Q 40.140625 3.328125 35.546875 0.953125 
Q 30.953125 -1.421875 24.3125 -1.421875 
Q 15.921875 -1.421875 10.953125 3.296875 
Q 6 8.015625 6 15.921875 
Q 6 25.140625 12.171875 29.828125 
Q 18.359375 34.515625 30.609375 34.515625 
L 43.21875 34.515625 
L 43.21875 35.40625 
Q 43.21875 41.609375 39.140625 45 
Q 35.0625 48.390625 27.6875 48.390625 
Q 23 48.390625 18.546875 47.265625 
Q 14.109375 46.140625 10.015625 43.890625 
L 10.015625 52.203125 
Q 14.9375 54.109375 19.578125 55.046875 
Q 24.21875 56 28.609375 56 
Q 40.484375 56 46.34375 49.84375 
Q 52.203125 43.703125 52.203125 31.203125 
z
" id="DejaVuSans-97"/>
       <path d="M 2.984375 54.6875 
L 12.5 54.6875 
L 29.59375 8.796875 
L 46.6875 54.6875 
L 56.203125 54.6875 
L 35.6875 0 
L 23.484375 0 
z
" id="DejaVuSans-118"/>
       <path d="M 9.421875 54.6875 
L 18.40625 54.6875 
L 18.40625 0 
L 9.421875 0 
z
M 9.421875 75.984375 
L 18.40625 75.984375 
L 18.40625 64.59375 
L 9.421875 64.59375 
z
" id="DejaVuSans-105"/>
       <path d="M 9.421875 75.984375 
L 18.40625 75.984375 
L 18.40625 0 
L 9.421875 0 
z
" id="DejaVuSans-108"/>
       <path d="M 48.6875 27.296875 
Q 48.6875 37.203125 44.609375 42.84375 
Q 40.53125 48.484375 33.40625 48.484375 
Q 26.265625 48.484375 22.1875 42.84375 
Q 18.109375 37.203125 18.109375 27.296875 
Q 18.109375 17.390625 22.1875 11.75 
Q 26.265625 6.109375 33.40625 6.109375 
Q 40.53125 6.109375 44.609375 11.75 
Q 48.6875 17.390625 48.6875 27.296875 
z
M 18.109375 46.390625 
Q 20.953125 51.265625 25.265625 53.625 
Q 29.59375 56 35.59375 56 
Q 45.5625 56 51.78125 48.09375 
Q 58.015625 40.1875 58.015625 27.296875 
Q 58.015625 14.40625 51.78125 6.484375 
Q 45.5625 -1.421875 35.59375 -1.421875 
Q 29.59375 -1.421875 25.265625 0.953125 
Q 20.953125 3.328125 18.109375 8.203125 
L 18.109375 0 
L 9.078125 0 
L 9.078125 75.984375 
L 18.109375 75.984375 
z
" id="DejaVuSans-98"/>
       <path d="M 56.203125 29.59375 
L 56.203125 25.203125 
L 14.890625 25.203125 
Q 15.484375 15.921875 20.484375 11.0625 
Q 25.484375 6.203125 34.421875 6.203125 
Q 39.59375 6.203125 44.453125 7.46875 
Q 49.3125 8.734375 54.109375 11.28125 
L 54.109375 2.78125 
Q 49.265625 0.734375 44.1875 -0.34375 
Q 39.109375 -1.421875 33.890625 -1.421875 
Q 20.796875 -1.421875 13.15625 6.1875 
Q 5.515625 13.8125 5.515625 26.8125 
Q 5.515625 40.234375 12.765625 48.109375 
Q 20.015625 56 32.328125 56 
Q 43.359375 56 49.78125 48.890625 
Q 56.203125 41.796875 56.203125 29.59375 
z
M 47.21875 32.234375 
Q 47.125 39.59375 43.09375 43.984375 
Q 39.0625 48.390625 32.421875 48.390625 
Q 24.90625 48.390625 20.390625 44.140625 
Q 15.875 39.890625 15.1875 32.171875 
z
" id="DejaVuSans-101"/>
      </defs>
      <g transform="translate(49.430469 527.238438)scale(0.1 -0.1)">
       <use xlink:href="#DejaVuSans-97"/>
       <use x="61.279297" xlink:href="#DejaVuSans-118"/>
       <use x="120.458984" xlink:href="#DejaVuSans-97"/>
       <use x="181.738281" xlink:href="#DejaVuSans-105"/>
       <use x="209.521484" xlink:href="#DejaVuSans-108"/>
       <use x="237.304688" xlink:href="#DejaVuSans-97"/>
       <use x="298.583984" xlink:href="#DejaVuSans-98"/>
       <use x="362.060547" xlink:href="#DejaVuSans-108"/>
       <use x="389.84375" xlink:href="#DejaVuSans-101"/>
      </g>
     </g>
    </g>
    <g id="xtick_2">
     <g id="line2d_2">
      <g>
       <use style="stroke:#000000;stroke-width:0.8;" x="295.2" xlink:href="#m7636fab9aa" y="512.64"/>
      </g>
     </g>
     <g id="text_2">
      <!-- limited -->
      <defs>
       <path d="M 52 44.1875 
Q 55.375 50.25 60.0625 53.125 
Q 64.75 56 71.09375 56 
Q 79.640625 56 84.28125 50.015625 
Q 88.921875 44.046875 88.921875 33.015625 
L 88.921875 0 
L 79.890625 0 
L 79.890625 32.71875 
Q 79.890625 40.578125 77.09375 44.375 
Q 74.3125 48.1875 68.609375 48.1875 
Q 61.625 48.1875 57.5625 43.546875 
Q 53.515625 38.921875 53.515625 30.90625 
L 53.515625 0 
L 44.484375 0 
L 44.484375 32.71875 
Q 44.484375 40.625 41.703125 44.40625 
Q 38.921875 48.1875 33.109375 48.1875 
Q 26.21875 48.1875 22.15625 43.53125 
Q 18.109375 38.875 18.109375 30.90625 
L 18.109375 0 
L 9.078125 0 
L 9.078125 54.6875 
L 18.109375 54.6875 
L 18.109375 46.1875 
Q 21.1875 51.21875 25.484375 53.609375 
Q 29.78125 56 35.6875 56 
Q 41.65625 56 45.828125 52.96875 
Q 50 49.953125 52 44.1875 
z
" id="DejaVuSans-109"/>
       <path d="M 18.3125 70.21875 
L 18.3125 54.6875 
L 36.8125 54.6875 
L 36.8125 47.703125 
L 18.3125 47.703125 
L 18.3125 18.015625 
Q 18.3125 11.328125 20.140625 9.421875 
Q 21.96875 7.515625 27.59375 7.515625 
L 36.8125 7.515625 
L 36.8125 0 
L 27.59375 0 
Q 17.1875 0 13.234375 3.875 
Q 9.28125 7.765625 9.28125 18.015625 
L 9.28125 47.703125 
L 2.6875 47.703125 
L 2.6875 54.6875 
L 9.28125 54.6875 
L 9.28125 70.21875 
z
" id="DejaVuSans-116"/>
       <path d="M 45.40625 46.390625 
L 45.40625 75.984375 
L 54.390625 75.984375 
L 54.390625 0 
L 45.40625 0 
L 45.40625 8.203125 
Q 42.578125 3.328125 38.25 0.953125 
Q 33.9375 -1.421875 27.875 -1.421875 
Q 17.96875 -1.421875 11.734375 6.484375 
Q 5.515625 14.40625 5.515625 27.296875 
Q 5.515625 40.1875 11.734375 48.09375 
Q 17.96875 56 27.875 56 
Q 33.9375 56 38.25 53.625 
Q 42.578125 51.265625 45.40625 46.390625 
z
M 14.796875 27.296875 
Q 14.796875 17.390625 18.875 11.75 
Q 22.953125 6.109375 30.078125 6.109375 
Q 37.203125 6.109375 41.296875 11.75 
Q 45.40625 17.390625 45.40625 27.296875 
Q 45.40625 37.203125 41.296875 42.84375 
Q 37.203125 48.484375 30.078125 48.484375 
Q 22.953125 48.484375 18.875 42.84375 
Q 14.796875 37.203125 14.796875 27.296875 
z
" id="DejaVuSans-100"/>
      </defs>
      <g transform="translate(277.951562 527.238438)scale(0.1 -0.1)">
       <use xlink:href="#DejaVuSans-108"/>
       <use x="27.783203" xlink:href="#DejaVuSans-105"/>
       <use x="55.566406" xlink:href="#DejaVuSans-109"/>
       <use x="152.978516" xlink:href="#DejaVuSans-105"/>
       <use x="180.761719" xlink:href="#DejaVuSans-116"/>
       <use x="219.970703" xlink:href="#DejaVuSans-101"/>
       <use x="281.494141" xlink:href="#DejaVuSans-100"/>
      </g>
     </g>
    </g>
    <g id="xtick_3">
     <g id="line2d_3">
      <g>
       <use style="stroke:#000000;stroke-width:0.8;" x="518.4" xlink:href="#m7636fab9aa" y="512.64"/>
      </g>
     </g>
     <g id="text_3">
      <!-- exhausted -->
      <defs>
       <path d="M 54.890625 54.6875 
L 35.109375 28.078125 
L 55.90625 0 
L 45.3125 0 
L 29.390625 21.484375 
L 13.484375 0 
L 2.875 0 
L 24.125 28.609375 
L 4.6875 54.6875 
L 15.28125 54.6875 
L 29.78125 35.203125 
L 44.28125 54.6875 
z
" id="DejaVuSans-120"/>
       <path d="M 54.890625 33.015625 
L 54.890625 0 
L 45.90625 0 
L 45.90625 32.71875 
Q 45.90625 40.484375 42.875 44.328125 
Q 39.84375 48.1875 33.796875 48.1875 
Q 26.515625 48.1875 22.3125 43.546875 
Q 18.109375 38.921875 18.109375 30.90625 
L 18.109375 0 
L 9.078125 0 
L 9.078125 75.984375 
L 18.109375 75.984375 
L 18.109375 46.1875 
Q 21.34375 51.125 25.703125 53.5625 
Q 30.078125 56 35.796875 56 
Q 45.21875 56 50.046875 50.171875 
Q 54.890625 44.34375 54.890625 33.015625 
z
" id="DejaVuSans-104"/>
       <path d="M 8.5 21.578125 
L 8.5 54.6875 
L 17.484375 54.6875 
L 17.484375 21.921875 
Q 17.484375 14.15625 20.5 10.265625 
Q 23.53125 6.390625 29.59375 6.390625 
Q 36.859375 6.390625 41.078125 11.03125 
Q 45.3125 15.671875 45.3125 23.6875 
L 45.3125 54.6875 
L 54.296875 54.6875 
L 54.296875 0 
L 45.3125 0 
L 45.3125 8.40625 
Q 42.046875 3.421875 37.71875 1 
Q 33.40625 -1.421875 27.6875 -1.421875 
Q 18.265625 -1.421875 13.375 4.4375 
Q 8.5 10.296875 8.5 21.578125 
z
M 31.109375 56 
z
" id="DejaVuSans-117"/>
       <path d="M 44.28125 53.078125 
L 44.28125 44.578125 
Q 40.484375 46.53125 36.375 47.5 
Q 32.28125 48.484375 27.875 48.484375 
Q 21.1875 48.484375 17.84375 46.4375 
Q 14.5 44.390625 14.5 40.28125 
Q 14.5 37.15625 16.890625 35.375 
Q 19.28125 33.59375 26.515625 31.984375 
L 29.59375 31.296875 
Q 39.15625 29.25 43.1875 25.515625 
Q 47.21875 21.78125 47.21875 15.09375 
Q 47.21875 7.46875 41.1875 3.015625 
Q 35.15625 -1.421875 24.609375 -1.421875 
Q 20.21875 -1.421875 15.453125 -0.5625 
Q 10.6875 0.296875 5.421875 2 
L 5.421875 11.28125 
Q 10.40625 8.6875 15.234375 7.390625 
Q 20.0625 6.109375 24.8125 6.109375 
Q 31.15625 6.109375 34.5625 8.28125 
Q 37.984375 10.453125 37.984375 14.40625 
Q 37.984375 18.0625 35.515625 20.015625 
Q 33.0625 21.96875 24.703125 23.78125 
L 21.578125 24.515625 
Q 13.234375 26.265625 9.515625 29.90625 
Q 5.8125 33.546875 5.8125 39.890625 
Q 5.8125 47.609375 11.28125 51.796875 
Q 16.75 56 26.8125 56 
Q 31.78125 56 36.171875 55.265625 
Q 40.578125 54.546875 44.28125 53.078125 
z
" id="DejaVuSans-115"/>
      </defs>
      <g transform="translate(492.234375 527.238438)scale(0.1 -0.1)">
       <use xlink:href="#DejaVuSans-101"/>
       <use x="59.773438" xlink:href="#DejaVuSans-120"/>
       <use x="118.953125" xlink:href="#DejaVuSans-104"/>
       <use x="182.332031" xlink:href="#DejaVuSans-97"/>
       <use x="243.611328" xlink:href="#DejaVuSans-117"/>
       <use x="306.990234" xlink:href="#DejaVuSans-115"/>
       <use x="359.089844" xlink:href="#DejaVuSans-116"/>
       <use x="398.298828" xlink:href="#DejaVuSans-101"/>
       <use x="459.822266" xlink:href="#DejaVuSans-100"/>
      </g>
     </g>
    </g>
   </g>
   <g id="matplotlib.axis_2">
    <g id="ytick_1">
     <g id="line2d_4">
      <defs>
       <path d="M 0 0 
L -3.5 0 
" id="m93db6c2887" style="stroke:#000000;stroke-width:0.8;"/>
      </defs>
      <g>
       <use style="stroke:#000000;stroke-width:0.8;" x="72" xlink:href="#m93db6c2887" y="498.78"/>
      </g>
     </g>
     <g id="text_4">
      <!-- BB -->
      <defs>
       <path d="M 19.671875 34.8125 
L 19.671875 8.109375 
L 35.5 8.109375 
Q 43.453125 8.109375 47.28125 11.40625 
Q 51.125 14.703125 51.125 21.484375 
Q 51.125 28.328125 47.28125 31.5625 
Q 43.453125 34.8125 35.5 34.8125 
z
M 19.671875 64.796875 
L 19.671875 42.828125 
L 34.28125 42.828125 
Q 41.5 42.828125 45.03125 45.53125 
Q 48.578125 48.25 48.578125 53.8125 
Q 48.578125 59.328125 45.03125 62.0625 
Q 41.5 64.796875 34.28125 64.796875 
z
M 9.8125 72.90625 
L 35.015625 72.90625 
Q 46.296875 72.90625 52.390625 68.21875 
Q 58.5 63.53125 58.5 54.890625 
Q 58.5 48.1875 55.375 44.234375 
Q 52.25 40.28125 46.1875 39.3125 
Q 53.46875 37.75 57.5 32.78125 
Q 61.53125 27.828125 61.53125 20.40625 
Q 61.53125 10.640625 54.890625 5.3125 
Q 48.25 0 35.984375 0 
L 9.8125 0 
z
" id="DejaVuSans-66"/>
      </defs>
      <g transform="translate(51.278125 502.579219)scale(0.1 -0.1)">
       <use xlink:href="#DejaVuSans-66"/>
       <use x="68.603516" xlink:href="#DejaVuSans-66"/>
      </g>
     </g>
    </g>
    <g id="ytick_2">
     <g id="line2d_5">
      <g>
       <use style="stroke:#000000;stroke-width:0.8;" x="72" xlink:href="#m93db6c2887" y="471.06"/>
      </g>
     </g>
     <g id="text_5">
      <!-- BE -->
      <defs>
       <path d="M 9.8125 72.90625 
L 55.90625 72.90625 
L 55.90625 64.59375 
L 19.671875 64.59375 
L 19.671875 43.015625 
L 54.390625 43.015625 
L 54.390625 34.71875 
L 19.671875 34.71875 
L 19.671875 8.296875 
L 56.78125 8.296875 
L 56.78125 0 
L 9.8125 0 
z
" id="DejaVuSans-69"/>
      </defs>
      <g transform="translate(51.820312 474.859219)scale(0.1 -0.1)">
       <use xlink:href="#DejaVuSans-66"/>
       <use x="68.603516" xlink:href="#DejaVuSans-69"/>
      </g>
     </g>
    </g>
    <g id="ytick_3">
     <g id="line2d_6">
      <g>
       <use style="stroke:#000000;stroke-width:0.8;" x="72" xlink:href="#m93db6c2887" y="443.34"/>
      </g>
     </g>
     <g id="text_6">
      <!-- BW -->
      <defs>
       <path d="M 3.328125 72.90625 
L 13.28125 72.90625 
L 28.609375 11.28125 
L 43.890625 72.90625 
L 54.984375 72.90625 
L 70.3125 11.28125 
L 85.59375 72.90625 
L 95.609375 72.90625 
L 77.296875 0 
L 64.890625 0 
L 49.515625 63.28125 
L 33.984375 0 
L 21.578125 0 
z
" id="DejaVuSans-87"/>
      </defs>
      <g transform="translate(48.614063 447.139219)scale(0.1 -0.1)">
       <use xlink:href="#DejaVuSans-66"/>
       <use x="64.978516" xlink:href="#DejaVuSans-87"/>
      </g>
     </g>
    </g>
    <g id="ytick_4">
     <g id="line2d_7">
      <g>
       <use style="stroke:#000000;stroke-width:0.8;" x="72" xlink:href="#m93db6c2887" y="415.62"/>
      </g>
     </g>
     <g id="text_7">
      <!-- BY -->
      <defs>
       <path d="M -0.203125 72.90625 
L 10.40625 72.90625 
L 30.609375 42.921875 
L 50.6875 72.90625 
L 61.28125 72.90625 
L 35.5 34.71875 
L 35.5 0 
L 25.59375 0 
L 25.59375 34.71875 
z
" id="DejaVuSans-89"/>
      </defs>
      <g transform="translate(52.58125 419.419219)scale(0.1 -0.1)">
       <use xlink:href="#DejaVuSans-66"/>
       <use x="63.103516" xlink:href="#DejaVuSans-89"/>
      </g>
     </g>
    </g>
    <g id="ytick_5">
     <g id="line2d_8">
      <g>
       <use style="stroke:#000000;stroke-width:0.8;" x="72" xlink:href="#m93db6c2887" y="387.9"/>
      </g>
     </g>
     <g id="text_8">
      <!-- HB -->
      <defs>
       <path d="M 9.8125 72.90625 
L 19.671875 72.90625 
L 19.671875 43.015625 
L 55.515625 43.015625 
L 55.515625 72.90625 
L 65.375 72.90625 
L 65.375 0 
L 55.515625 0 
L 55.515625 34.71875 
L 19.671875 34.71875 
L 19.671875 0 
L 9.8125 0 
z
" id="DejaVuSans-72"/>
      </defs>
      <g transform="translate(50.61875 391.699219)scale(0.1 -0.1)">
       <use xlink:href="#DejaVuSans-72"/>
       <use x="75.195312" xlink:href="#DejaVuSans-66"/>
      </g>
     </g>
    </g>
    <g id="ytick_6">
     <g id="line2d_9">
      <g>
       <use style="stroke:#000000;stroke-width:0.8;" x="72" xlink:href="#m93db6c2887" y="360.18"/>
      </g>
     </g>
     <g id="text_9">
      <!-- HE -->
      <g transform="translate(51.160938 363.979219)scale(0.1 -0.1)">
       <use xlink:href="#DejaVuSans-72"/>
       <use x="75.195312" xlink:href="#DejaVuSans-69"/>
      </g>
     </g>
    </g>
    <g id="ytick_7">
     <g id="line2d_10">
      <g>
       <use style="stroke:#000000;stroke-width:0.8;" x="72" xlink:href="#m93db6c2887" y="332.46"/>
      </g>
     </g>
     <g id="text_10">
      <!-- HH -->
      <g transform="translate(49.959375 336.259219)scale(0.1 -0.1)">
       <use xlink:href="#DejaVuSans-72"/>
       <use x="75.195312" xlink:href="#DejaVuSans-72"/>
      </g>
     </g>
    </g>
    <g id="ytick_8">
     <g id="line2d_11">
      <g>
       <use style="stroke:#000000;stroke-width:0.8;" x="72" xlink:href="#m93db6c2887" y="304.74"/>
      </g>
     </g>
     <g id="text_11">
      <!-- MV -->
      <defs>
       <path d="M 9.8125 72.90625 
L 24.515625 72.90625 
L 43.109375 23.296875 
L 61.8125 72.90625 
L 76.515625 72.90625 
L 76.515625 0 
L 66.890625 0 
L 66.890625 64.015625 
L 48.09375 14.015625 
L 38.1875 14.015625 
L 19.390625 64.015625 
L 19.390625 0 
L 9.8125 0 
z
" id="DejaVuSans-77"/>
       <path d="M 28.609375 0 
L 0.78125 72.90625 
L 11.078125 72.90625 
L 34.1875 11.53125 
L 57.328125 72.90625 
L 67.578125 72.90625 
L 39.796875 0 
z
" id="DejaVuSans-86"/>
      </defs>
      <g transform="translate(49.53125 308.539219)scale(0.1 -0.1)">
       <use xlink:href="#DejaVuSans-77"/>
       <use x="86.279297" xlink:href="#DejaVuSans-86"/>
      </g>
     </g>
    </g>
    <g id="ytick_9">
     <g id="line2d_12">
      <g>
       <use style="stroke:#000000;stroke-width:0.8;" x="72" xlink:href="#m93db6c2887" y="277.02"/>
      </g>
     </g>
     <g id="text_12">
      <!-- NI -->
      <defs>
       <path d="M 9.8125 72.90625 
L 23.09375 72.90625 
L 55.421875 11.921875 
L 55.421875 72.90625 
L 64.984375 72.90625 
L 64.984375 0 
L 51.703125 0 
L 19.390625 60.984375 
L 19.390625 0 
L 9.8125 0 
z
" id="DejaVuSans-78"/>
       <path d="M 9.8125 72.90625 
L 19.671875 72.90625 
L 19.671875 0 
L 9.8125 0 
z
" id="DejaVuSans-73"/>
      </defs>
      <g transform="translate(54.56875 280.819219)scale(0.1 -0.1)">
       <use xlink:href="#DejaVuSans-78"/>
       <use x="74.804688" xlink:href="#DejaVuSans-73"/>
      </g>
     </g>
    </g>
    <g id="ytick_10">
     <g id="line2d_13">
      <g>
       <use style="stroke:#000000;stroke-width:0.8;" x="72" xlink:href="#m93db6c2887" y="249.3"/>
      </g>
     </g>
     <g id="text_13">
      <!-- NW -->
      <g transform="translate(47.63125 253.099219)scale(0.1 -0.1)">
       <use xlink:href="#DejaVuSans-78"/>
       <use x="74.804688" xlink:href="#DejaVuSans-87"/>
      </g>
     </g>
    </g>
    <g id="ytick_11">
     <g id="line2d_14">
      <g>
       <use style="stroke:#000000;stroke-width:0.8;" x="72" xlink:href="#m93db6c2887" y="221.58"/>
      </g>
     </g>
     <g id="text_14">
      <!-- RP -->
      <defs>
       <path d="M 44.390625 34.1875 
Q 47.5625 33.109375 50.5625 29.59375 
Q 53.5625 26.078125 56.59375 19.921875 
L 66.609375 0 
L 56 0 
L 46.6875 18.703125 
Q 43.0625 26.03125 39.671875 28.421875 
Q 36.28125 30.8125 30.421875 30.8125 
L 19.671875 30.8125 
L 19.671875 0 
L 9.8125 0 
L 9.8125 72.90625 
L 32.078125 72.90625 
Q 44.578125 72.90625 50.734375 67.671875 
Q 56.890625 62.453125 56.890625 51.90625 
Q 56.890625 45.015625 53.6875 40.46875 
Q 50.484375 35.9375 44.390625 34.1875 
z
M 19.671875 64.796875 
L 19.671875 38.921875 
L 32.078125 38.921875 
Q 39.203125 38.921875 42.84375 42.21875 
Q 46.484375 45.515625 46.484375 51.90625 
Q 46.484375 58.296875 42.84375 61.546875 
Q 39.203125 64.796875 32.078125 64.796875 
z
" id="DejaVuSans-82"/>
       <path d="M 19.671875 64.796875 
L 19.671875 37.40625 
L 32.078125 37.40625 
Q 38.96875 37.40625 42.71875 40.96875 
Q 46.484375 44.53125 46.484375 51.125 
Q 46.484375 57.671875 42.71875 61.234375 
Q 38.96875 64.796875 32.078125 64.796875 
z
M 9.8125 72.90625 
L 32.078125 72.90625 
Q 44.34375 72.90625 50.609375 67.359375 
Q 56.890625 61.8125 56.890625 51.125 
Q 56.890625 40.328125 50.609375 34.8125 
Q 44.34375 29.296875 32.078125 29.296875 
L 19.671875 29.296875 
L 19.671875 0 
L 9.8125 0 
z
" id="DejaVuSans-80"/>
      </defs>
      <g transform="translate(52.021875 225.379219)scale(0.1 -0.1)">
       <use xlink:href="#DejaVuSans-82"/>
       <use x="69.482422" xlink:href="#DejaVuSans-80"/>
      </g>
     </g>
    </g>
    <g id="ytick_12">
     <g id="line2d_15">
      <g>
       <use style="stroke:#000000;stroke-width:0.8;" x="72" xlink:href="#m93db6c2887" y="193.86"/>
      </g>
     </g>
     <g id="text_15">
      <!-- SH -->
      <defs>
       <path d="M 53.515625 70.515625 
L 53.515625 60.890625 
Q 47.90625 63.578125 42.921875 64.890625 
Q 37.9375 66.21875 33.296875 66.21875 
Q 25.25 66.21875 20.875 63.09375 
Q 16.5 59.96875 16.5 54.203125 
Q 16.5 49.359375 19.40625 46.890625 
Q 22.3125 44.4375 30.421875 42.921875 
L 36.375 41.703125 
Q 47.40625 39.59375 52.65625 34.296875 
Q 57.90625 29 57.90625 20.125 
Q 57.90625 9.515625 50.796875 4.046875 
Q 43.703125 -1.421875 29.984375 -1.421875 
Q 24.8125 -1.421875 18.96875 -0.25 
Q 13.140625 0.921875 6.890625 3.21875 
L 6.890625 13.375 
Q 12.890625 10.015625 18.65625 8.296875 
Q 24.421875 6.59375 29.984375 6.59375 
Q 38.421875 6.59375 43.015625 9.90625 
Q 47.609375 13.234375 47.609375 19.390625 
Q 47.609375 24.75 44.3125 27.78125 
Q 41.015625 30.8125 33.5 32.328125 
L 27.484375 33.5 
Q 16.453125 35.6875 11.515625 40.375 
Q 6.59375 45.0625 6.59375 53.421875 
Q 6.59375 63.09375 13.40625 68.65625 
Q 20.21875 74.21875 32.171875 74.21875 
Q 37.3125 74.21875 42.625 73.28125 
Q 47.953125 72.359375 53.515625 70.515625 
z
" id="DejaVuSans-83"/>
      </defs>
      <g transform="translate(51.13125 197.659219)scale(0.1 -0.1)">
       <use xlink:href="#DejaVuSans-83"/>
       <use x="63.476562" xlink:href="#DejaVuSans-72"/>
      </g>
     </g>
    </g>
    <g id="ytick_13">
     <g id="line2d_16">
      <g>
       <use style="stroke:#000000;stroke-width:0.8;" x="72" xlink:href="#m93db6c2887" y="166.14"/>
      </g>
     </g>
     <g id="text_16">
      <!-- SL -->
      <defs>
       <path d="M 9.8125 72.90625 
L 19.671875 72.90625 
L 19.671875 8.296875 
L 55.171875 8.296875 
L 55.171875 0 
L 9.8125 0 
z
" id="DejaVuSans-76"/>
      </defs>
      <g transform="translate(53.079687 169.939219)scale(0.1 -0.1)">
       <use xlink:href="#DejaVuSans-83"/>
       <use x="63.476562" xlink:href="#DejaVuSans-76"/>
      </g>
     </g>
    </g>
    <g id="ytick_14">
     <g id="line2d_17">
      <g>
       <use style="stroke:#000000;stroke-width:0.8;" x="72" xlink:href="#m93db6c2887" y="138.42"/>
      </g>
     </g>
     <g id="text_17">
      <!-- SN -->
      <g transform="translate(51.170313 142.219219)scale(0.1 -0.1)">
       <use xlink:href="#DejaVuSans-83"/>
       <use x="63.476562" xlink:href="#DejaVuSans-78"/>
      </g>
     </g>
    </g>
    <g id="ytick_15">
     <g id="line2d_18">
      <g>
       <use style="stroke:#000000;stroke-width:0.8;" x="72" xlink:href="#m93db6c2887" y="110.7"/>
      </g>
     </g>
     <g id="text_18">
      <!-- ST -->
      <defs>
       <path d="M -0.296875 72.90625 
L 61.375 72.90625 
L 61.375 64.59375 
L 35.5 64.59375 
L 35.5 0 
L 25.59375 0 
L 25.59375 64.59375 
L -0.296875 64.59375 
z
" id="DejaVuSans-84"/>
      </defs>
      <g transform="translate(52.54375 114.499219)scale(0.1 -0.1)">
       <use xlink:href="#DejaVuSans-83"/>
       <use x="63.476562" xlink:href="#DejaVuSans-84"/>
      </g>
     </g>
    </g>
    <g id="ytick_16">
     <g id="line2d_19">
      <g>
       <use style="stroke:#000000;stroke-width:0.8;" x="72" xlink:href="#m93db6c2887" y="82.98"/>
      </g>
     </g>
     <g id="text_19">
      <!-- TH -->
      <g transform="translate(51.371875 86.779219)scale(0.1 -0.1)">
       <use xlink:href="#DejaVuSans-84"/>
       <use x="61.083984" xlink:href="#DejaVuSans-72"/>
      </g>
     </g>
    </g>
    <g id="text_20">
     <!-- federal state -->
     <defs>
      <path d="M 37.109375 75.984375 
L 37.109375 68.5 
L 28.515625 68.5 
Q 23.6875 68.5 21.796875 66.546875 
Q 19.921875 64.59375 19.921875 59.515625 
L 19.921875 54.6875 
L 34.71875 54.6875 
L 34.71875 47.703125 
L 19.921875 47.703125 
L 19.921875 0 
L 10.890625 0 
L 10.890625 47.703125 
L 2.296875 47.703125 
L 2.296875 54.6875 
L 10.890625 54.6875 
L 10.890625 58.5 
Q 10.890625 67.625 15.140625 71.796875 
Q 19.390625 75.984375 28.609375 75.984375 
z
" id="DejaVuSans-102"/>
      <path d="M 41.109375 46.296875 
Q 39.59375 47.171875 37.8125 47.578125 
Q 36.03125 48 33.890625 48 
Q 26.265625 48 22.1875 43.046875 
Q 18.109375 38.09375 18.109375 28.8125 
L 18.109375 0 
L 9.078125 0 
L 9.078125 54.6875 
L 18.109375 54.6875 
L 18.109375 46.1875 
Q 20.953125 51.171875 25.484375 53.578125 
Q 30.03125 56 36.53125 56 
Q 37.453125 56 38.578125 55.875 
Q 39.703125 55.765625 41.0625 55.515625 
z
" id="DejaVuSans-114"/>
      <path id="DejaVuSans-32"/>
     </defs>
     <g transform="translate(41.551562 322.730781)rotate(-90)scale(0.1 -0.1)">
      <use xlink:href="#DejaVuSans-102"/>
      <use x="35.205078" xlink:href="#DejaVuSans-101"/>
      <use x="96.728516" xlink:href="#DejaVuSans-100"/>
      <use x="160.205078" xlink:href="#DejaVuSans-101"/>
      <use x="221.728516" xlink:href="#DejaVuSans-114"/>
      <use x="262.841797" xlink:href="#DejaVuSans-97"/>
      <use x="324.121094" xlink:href="#DejaVuSans-108"/>
      <use x="351.904297" xlink:href="#DejaVuSans-32"/>
      <use x="383.691406" xlink:href="#DejaVuSans-115"/>
      <use x="435.791016" xlink:href="#DejaVuSans-116"/>
      <use x="475" xlink:href="#DejaVuSans-97"/>
      <use x="536.279297" xlink:href="#DejaVuSans-116"/>
      <use x="575.488281" xlink:href="#DejaVuSans-101"/>
     </g>
    </g>
   </g>
   <g id="patch_51">
    <path d="M 72 512.64 
L 72 69.12 
" style="fill:none;stroke:#000000;stroke-linecap:square;stroke-linejoin:miter;stroke-width:0.8;"/>
   </g>
   <g id="patch_52">
    <path d="M 518.4 512.64 
L 518.4 69.12 
" style="fill:none;stroke:#000000;stroke-linecap:square;stroke-linejoin:miter;stroke-width:0.8;"/>
   </g>
   <g id="patch_53">
    <path d="M 72 512.64 
L 518.4 512.64 
" style="fill:none;stroke:#000000;stroke-linecap:square;stroke-linejoin:miter;stroke-width:0.8;"/>
   </g>
   <g id="patch_54">
    <path d="M 72 69.12 
L 518.4 69.12 
" style="fill:none;stroke:#000000;stroke-linecap:square;stroke-linejoin:miter;stroke-width:0.8;"/>
   </g>
   <g id="text_21">
    <!-- German mean hospital occupancy -->
    <defs>
     <path d="M 59.515625 10.40625 
L 59.515625 29.984375 
L 43.40625 29.984375 
L 43.40625 38.09375 
L 69.28125 38.09375 
L 69.28125 6.78125 
Q 63.578125 2.734375 56.6875 0.65625 
Q 49.8125 -1.421875 42 -1.421875 
Q 24.90625 -1.421875 15.25 8.5625 
Q 5.609375 18.5625 5.609375 36.375 
Q 5.609375 54.25 15.25 64.234375 
Q 24.90625 74.21875 42 74.21875 
Q 49.125 74.21875 55.546875 72.453125 
Q 61.96875 70.703125 67.390625 67.28125 
L 67.390625 56.78125 
Q 61.921875 61.421875 55.765625 63.765625 
Q 49.609375 66.109375 42.828125 66.109375 
Q 29.4375 66.109375 22.71875 58.640625 
Q 16.015625 51.171875 16.015625 36.375 
Q 16.015625 21.625 22.71875 14.15625 
Q 29.4375 6.6875 42.828125 6.6875 
Q 48.046875 6.6875 52.140625 7.59375 
Q 56.25 8.5 59.515625 10.40625 
z
" id="DejaVuSans-71"/>
     <path d="M 54.890625 33.015625 
L 54.890625 0 
L 45.90625 0 
L 45.90625 32.71875 
Q 45.90625 40.484375 42.875 44.328125 
Q 39.84375 48.1875 33.796875 48.1875 
Q 26.515625 48.1875 22.3125 43.546875 
Q 18.109375 38.921875 18.109375 30.90625 
L 18.109375 0 
L 9.078125 0 
L 9.078125 54.6875 
L 18.109375 54.6875 
L 18.109375 46.1875 
Q 21.34375 51.125 25.703125 53.5625 
Q 30.078125 56 35.796875 56 
Q 45.21875 56 50.046875 50.171875 
Q 54.890625 44.34375 54.890625 33.015625 
z
" id="DejaVuSans-110"/>
     <path d="M 30.609375 48.390625 
Q 23.390625 48.390625 19.1875 42.75 
Q 14.984375 37.109375 14.984375 27.296875 
Q 14.984375 17.484375 19.15625 11.84375 
Q 23.34375 6.203125 30.609375 6.203125 
Q 37.796875 6.203125 41.984375 11.859375 
Q 46.1875 17.53125 46.1875 27.296875 
Q 46.1875 37.015625 41.984375 42.703125 
Q 37.796875 48.390625 30.609375 48.390625 
z
M 30.609375 56 
Q 42.328125 56 49.015625 48.375 
Q 55.71875 40.765625 55.71875 27.296875 
Q 55.71875 13.875 49.015625 6.21875 
Q 42.328125 -1.421875 30.609375 -1.421875 
Q 18.84375 -1.421875 12.171875 6.21875 
Q 5.515625 13.875 5.515625 27.296875 
Q 5.515625 40.765625 12.171875 48.375 
Q 18.84375 56 30.609375 56 
z
" id="DejaVuSans-111"/>
     <path d="M 18.109375 8.203125 
L 18.109375 -20.796875 
L 9.078125 -20.796875 
L 9.078125 54.6875 
L 18.109375 54.6875 
L 18.109375 46.390625 
Q 20.953125 51.265625 25.265625 53.625 
Q 29.59375 56 35.59375 56 
Q 45.5625 56 51.78125 48.09375 
Q 58.015625 40.1875 58.015625 27.296875 
Q 58.015625 14.40625 51.78125 6.484375 
Q 45.5625 -1.421875 35.59375 -1.421875 
Q 29.59375 -1.421875 25.265625 0.953125 
Q 20.953125 3.328125 18.109375 8.203125 
z
M 48.6875 27.296875 
Q 48.6875 37.203125 44.609375 42.84375 
Q 40.53125 48.484375 33.40625 48.484375 
Q 26.265625 48.484375 22.1875 42.84375 
Q 18.109375 37.203125 18.109375 27.296875 
Q 18.109375 17.390625 22.1875 11.75 
Q 26.265625 6.109375 33.40625 6.109375 
Q 40.53125 6.109375 44.609375 11.75 
Q 48.6875 17.390625 48.6875 27.296875 
z
" id="DejaVuSans-112"/>
     <path d="M 48.78125 52.59375 
L 48.78125 44.1875 
Q 44.96875 46.296875 41.140625 47.34375 
Q 37.3125 48.390625 33.40625 48.390625 
Q 24.65625 48.390625 19.8125 42.84375 
Q 14.984375 37.3125 14.984375 27.296875 
Q 14.984375 17.28125 19.8125 11.734375 
Q 24.65625 6.203125 33.40625 6.203125 
Q 37.3125 6.203125 41.140625 7.25 
Q 44.96875 8.296875 48.78125 10.40625 
L 48.78125 2.09375 
Q 45.015625 0.34375 40.984375 -0.53125 
Q 36.96875 -1.421875 32.421875 -1.421875 
Q 20.0625 -1.421875 12.78125 6.34375 
Q 5.515625 14.109375 5.515625 27.296875 
Q 5.515625 40.671875 12.859375 48.328125 
Q 20.21875 56 33.015625 56 
Q 37.15625 56 41.109375 55.140625 
Q 45.0625 54.296875 48.78125 52.59375 
z
" id="DejaVuSans-99"/>
     <path d="M 32.171875 -5.078125 
Q 28.375 -14.84375 24.75 -17.8125 
Q 21.140625 -20.796875 15.09375 -20.796875 
L 7.90625 -20.796875 
L 7.90625 -13.28125 
L 13.1875 -13.28125 
Q 16.890625 -13.28125 18.9375 -11.515625 
Q 21 -9.765625 23.484375 -3.21875 
L 25.09375 0.875 
L 2.984375 54.6875 
L 12.5 54.6875 
L 29.59375 11.921875 
L 46.6875 54.6875 
L 56.203125 54.6875 
z
" id="DejaVuSans-121"/>
    </defs>
    <g transform="translate(192.455625 63.12)scale(0.12 -0.12)">
     <use xlink:href="#DejaVuSans-71"/>
     <use x="77.490234" xlink:href="#DejaVuSans-101"/>
     <use x="139.013672" xlink:href="#DejaVuSans-114"/>
     <use x="178.376953" xlink:href="#DejaVuSans-109"/>
     <use x="275.789062" xlink:href="#DejaVuSans-97"/>
     <use x="337.068359" xlink:href="#DejaVuSans-110"/>
     <use x="400.447266" xlink:href="#DejaVuSans-32"/>
     <use x="432.234375" xlink:href="#DejaVuSans-109"/>
     <use x="529.646484" xlink:href="#DejaVuSans-101"/>
     <use x="591.169922" xlink:href="#DejaVuSans-97"/>
     <use x="652.449219" xlink:href="#DejaVuSans-110"/>
     <use x="715.828125" xlink:href="#DejaVuSans-32"/>
     <use x="747.615234" xlink:href="#DejaVuSans-104"/>
     <use x="810.994141" xlink:href="#DejaVuSans-111"/>
     <use x="872.175781" xlink:href="#DejaVuSans-115"/>
     <use x="924.275391" xlink:href="#DejaVuSans-112"/>
     <use x="987.751953" xlink:href="#DejaVuSans-105"/>
     <use x="1015.535156" xlink:href="#DejaVuSans-116"/>
     <use x="1054.744141" xlink:href="#DejaVuSans-97"/>
     <use x="1116.023438" xlink:href="#DejaVuSans-108"/>
     <use x="1143.806641" xlink:href="#DejaVuSans-32"/>
     <use x="1175.59375" xlink:href="#DejaVuSans-111"/>
     <use x="1236.775391" xlink:href="#DejaVuSans-99"/>
     <use x="1291.755859" xlink:href="#DejaVuSans-99"/>
     <use x="1346.736328" xlink:href="#DejaVuSans-117"/>
     <use x="1410.115234" xlink:href="#DejaVuSans-112"/>
     <use x="1473.591797" xlink:href="#DejaVuSans-97"/>
     <use x="1534.871094" xlink:href="#DejaVuSans-110"/>
     <use x="1598.25" xlink:href="#DejaVuSans-99"/>
     <use x="1653.230469" xlink:href="#DejaVuSans-121"/>
    </g>
   </g>
   <g id="legend_1">
    <g id="patch_55">
     <path d="M 412.325 121.154375 
L 511.4 121.154375 
Q 513.4 121.154375 513.4 119.154375 
L 513.4 76.12 
Q 513.4 74.12 511.4 74.12 
L 412.325 74.12 
Q 410.325 74.12 410.325 76.12 
L 410.325 119.154375 
Q 410.325 121.154375 412.325 121.154375 
z
" style="fill:#ffffff;opacity:0.8;stroke:#cccccc;stroke-linejoin:miter;"/>
    </g>
    <g id="patch_56">
     <path d="M 414.325 85.718438 
L 434.325 85.718438 
L 434.325 78.718438 
L 414.325 78.718438 
z
" style="fill:#1f77b4;"/>
    </g>
    <g id="text_22">
     <!-- ECMO -->
     <defs>
      <path d="M 64.40625 67.28125 
L 64.40625 56.890625 
Q 59.421875 61.53125 53.78125 63.8125 
Q 48.140625 66.109375 41.796875 66.109375 
Q 29.296875 66.109375 22.65625 58.46875 
Q 16.015625 50.828125 16.015625 36.375 
Q 16.015625 21.96875 22.65625 14.328125 
Q 29.296875 6.6875 41.796875 6.6875 
Q 48.140625 6.6875 53.78125 8.984375 
Q 59.421875 11.28125 64.40625 15.921875 
L 64.40625 5.609375 
Q 59.234375 2.09375 53.4375 0.328125 
Q 47.65625 -1.421875 41.21875 -1.421875 
Q 24.65625 -1.421875 15.125 8.703125 
Q 5.609375 18.84375 5.609375 36.375 
Q 5.609375 53.953125 15.125 64.078125 
Q 24.65625 74.21875 41.21875 74.21875 
Q 47.75 74.21875 53.53125 72.484375 
Q 59.328125 70.75 64.40625 67.28125 
z
" id="DejaVuSans-67"/>
      <path d="M 39.40625 66.21875 
Q 28.65625 66.21875 22.328125 58.203125 
Q 16.015625 50.203125 16.015625 36.375 
Q 16.015625 22.609375 22.328125 14.59375 
Q 28.65625 6.59375 39.40625 6.59375 
Q 50.140625 6.59375 56.421875 14.59375 
Q 62.703125 22.609375 62.703125 36.375 
Q 62.703125 50.203125 56.421875 58.203125 
Q 50.140625 66.21875 39.40625 66.21875 
z
M 39.40625 74.21875 
Q 54.734375 74.21875 63.90625 63.9375 
Q 73.09375 53.65625 73.09375 36.375 
Q 73.09375 19.140625 63.90625 8.859375 
Q 54.734375 -1.421875 39.40625 -1.421875 
Q 24.03125 -1.421875 14.8125 8.828125 
Q 5.609375 19.09375 5.609375 36.375 
Q 5.609375 53.65625 14.8125 63.9375 
Q 24.03125 74.21875 39.40625 74.21875 
z
" id="DejaVuSans-79"/>
     </defs>
     <g transform="translate(442.325 85.718438)scale(0.1 -0.1)">
      <use xlink:href="#DejaVuSans-69"/>
      <use x="63.183594" xlink:href="#DejaVuSans-67"/>
      <use x="133.007812" xlink:href="#DejaVuSans-77"/>
      <use x="219.287109" xlink:href="#DejaVuSans-79"/>
     </g>
    </g>
    <g id="patch_57">
     <path d="M 414.325 100.396563 
L 434.325 100.396563 
L 434.325 93.396563 
L 414.325 93.396563 
z
" style="fill:#ff7f0e;"/>
    </g>
    <g id="text_23">
     <!-- ICU high care -->
     <defs>
      <path d="M 8.6875 72.90625 
L 18.609375 72.90625 
L 18.609375 28.609375 
Q 18.609375 16.890625 22.84375 11.734375 
Q 27.09375 6.59375 36.625 6.59375 
Q 46.09375 6.59375 50.34375 11.734375 
Q 54.59375 16.890625 54.59375 28.609375 
L 54.59375 72.90625 
L 64.5 72.90625 
L 64.5 27.390625 
Q 64.5 13.140625 57.4375 5.859375 
Q 50.390625 -1.421875 36.625 -1.421875 
Q 22.796875 -1.421875 15.734375 5.859375 
Q 8.6875 13.140625 8.6875 27.390625 
z
" id="DejaVuSans-85"/>
      <path d="M 45.40625 27.984375 
Q 45.40625 37.75 41.375 43.109375 
Q 37.359375 48.484375 30.078125 48.484375 
Q 22.859375 48.484375 18.828125 43.109375 
Q 14.796875 37.75 14.796875 27.984375 
Q 14.796875 18.265625 18.828125 12.890625 
Q 22.859375 7.515625 30.078125 7.515625 
Q 37.359375 7.515625 41.375 12.890625 
Q 45.40625 18.265625 45.40625 27.984375 
z
M 54.390625 6.78125 
Q 54.390625 -7.171875 48.1875 -13.984375 
Q 42 -20.796875 29.203125 -20.796875 
Q 24.46875 -20.796875 20.265625 -20.09375 
Q 16.0625 -19.390625 12.109375 -17.921875 
L 12.109375 -9.1875 
Q 16.0625 -11.328125 19.921875 -12.34375 
Q 23.78125 -13.375 27.78125 -13.375 
Q 36.625 -13.375 41.015625 -8.765625 
Q 45.40625 -4.15625 45.40625 5.171875 
L 45.40625 9.625 
Q 42.625 4.78125 38.28125 2.390625 
Q 33.9375 0 27.875 0 
Q 17.828125 0 11.671875 7.65625 
Q 5.515625 15.328125 5.515625 27.984375 
Q 5.515625 40.671875 11.671875 48.328125 
Q 17.828125 56 27.875 56 
Q 33.9375 56 38.28125 53.609375 
Q 42.625 51.21875 45.40625 46.390625 
L 45.40625 54.6875 
L 54.390625 54.6875 
z
" id="DejaVuSans-103"/>
     </defs>
     <g transform="translate(442.325 100.396563)scale(0.1 -0.1)">
      <use xlink:href="#DejaVuSans-73"/>
      <use x="29.492188" xlink:href="#DejaVuSans-67"/>
      <use x="99.316406" xlink:href="#DejaVuSans-85"/>
      <use x="172.509766" xlink:href="#DejaVuSans-32"/>
      <use x="204.296875" xlink:href="#DejaVuSans-104"/>
      <use x="267.675781" xlink:href="#DejaVuSans-105"/>
      <use x="295.458984" xlink:href="#DejaVuSans-103"/>
      <use x="358.935547" xlink:href="#DejaVuSans-104"/>
      <use x="422.314453" xlink:href="#DejaVuSans-32"/>
      <use x="454.101562" xlink:href="#DejaVuSans-99"/>
      <use x="509.082031" xlink:href="#DejaVuSans-97"/>
      <use x="570.361328" xlink:href="#DejaVuSans-114"/>
      <use x="609.224609" xlink:href="#DejaVuSans-101"/>
     </g>
    </g>
    <g id="patch_58">
     <path d="M 414.325 115.074688 
L 434.325 115.074688 
L 434.325 108.074688 
L 414.325 108.074688 
z
" style="fill:#2ca02c;"/>
    </g>
    <g id="text_24">
     <!-- ICU low care -->
     <defs>
      <path d="M 4.203125 54.6875 
L 13.1875 54.6875 
L 24.421875 12.015625 
L 35.59375 54.6875 
L 46.1875 54.6875 
L 57.421875 12.015625 
L 68.609375 54.6875 
L 77.59375 54.6875 
L 63.28125 0 
L 52.6875 0 
L 40.921875 44.828125 
L 29.109375 0 
L 18.5 0 
z
" id="DejaVuSans-119"/>
     </defs>
     <g transform="translate(442.325 115.074688)scale(0.1 -0.1)">
      <use xlink:href="#DejaVuSans-73"/>
      <use x="29.492188" xlink:href="#DejaVuSans-67"/>
      <use x="99.316406" xlink:href="#DejaVuSans-85"/>
      <use x="172.509766" xlink:href="#DejaVuSans-32"/>
      <use x="204.296875" xlink:href="#DejaVuSans-108"/>
      <use x="232.080078" xlink:href="#DejaVuSans-111"/>
      <use x="293.261719" xlink:href="#DejaVuSans-119"/>
      <use x="375.048828" xlink:href="#DejaVuSans-32"/>
      <use x="406.835938" xlink:href="#DejaVuSans-99"/>
      <use x="461.816406" xlink:href="#DejaVuSans-97"/>
      <use x="523.095703" xlink:href="#DejaVuSans-114"/>
      <use x="561.958984" xlink:href="#DejaVuSans-101"/>
     </g>
    </g>
   </g>
  </g>
 </g>
 <defs>
  <clipPath id="p8e6d0ec389">
   <rect height="443.52" width="446.4" x="72" y="69.12"/>
  </clipPath>
 </defs>
</svg>
