<?xml version="1.0" encoding="utf-8" standalone="no"?>
<!DOCTYPE svg PUBLIC "-//W3C//DTD SVG 1.1//EN"
  "http://www.w3.org/Graphics/SVG/1.1/DTD/svg11.dtd">
<svg height="648pt" version="1.1" viewBox="0 0 1152 648" width="1152pt" xmlns="http://www.w3.org/2000/svg" xmlns:xlink="http://www.w3.org/1999/xlink">
 <metadata>
  <rdf:RDF xmlns:cc="http://creativecommons.org/ns#" xmlns:dc="http://purl.org/dc/elements/1.1/" xmlns:rdf="http://www.w3.org/1999/02/22-rdf-syntax-ns#">
   <cc:Work>
    <dc:type rdf:resource="http://purl.org/dc/dcmitype/StillImage"/>
    <dc:date>2021-05-28T13:04:04.226022</dc:date>
    <dc:format>image/svg+xml</dc:format>
    <dc:creator>
     <cc:Agent>
      <dc:title>Matplotlib v3.4.2, https://matplotlib.org/</dc:title>
     </cc:Agent>
    </dc:creator>
   </cc:Work>
  </rdf:RDF>
 </metadata>
 <defs>
  <style type="text/css">*{stroke-linecap:butt;stroke-linejoin:round;}</style>
 </defs>
 <g id="figure_1">
  <g id="patch_1">
   <path d="M 0 648 
L 1152 648 
L 1152 0 
L 0 0 
z
" style="fill:#ffffff;"/>
  </g>
  <g id="axes_1">
   <g id="patch_2">
    <path d="M 144 576.72 
L 1036.8 576.72 
L 1036.8 77.76 
L 144 77.76 
z
" style="fill:#ffffff;"/>
   </g>
   <g id="matplotlib.axis_1">
    <g id="xtick_1">
     <g id="line2d_1">
      <defs>
       <path d="M 0 0 
L 0 3.5 
" id="maa8399bf86" style="stroke:#000000;stroke-width:0.8;"/>
      </defs>
      <g>
       <use style="stroke:#000000;stroke-width:0.8;" x="144" xlink:href="#maa8399bf86" y="576.72"/>
      </g>
     </g>
    </g>
    <g id="xtick_2">
     <g id="line2d_2">
      <g>
       <use style="stroke:#000000;stroke-width:0.8;" x="208.752527" xlink:href="#maa8399bf86" y="576.72"/>
      </g>
     </g>
     <g id="text_1">
      <!-- Apr -->
      <g transform="translate(200.102527 591.318438)scale(0.1 -0.1)">
       <defs>
        <path d="M 2188 4044 
L 1331 1722 
L 3047 1722 
L 2188 4044 
z
M 1831 4666 
L 2547 4666 
L 4325 0 
L 3669 0 
L 3244 1197 
L 1141 1197 
L 716 0 
L 50 0 
L 1831 4666 
z
" id="DejaVuSans-41" transform="scale(0.015625)"/>
        <path d="M 1159 525 
L 1159 -1331 
L 581 -1331 
L 581 3500 
L 1159 3500 
L 1159 2969 
Q 1341 3281 1617 3432 
Q 1894 3584 2278 3584 
Q 2916 3584 3314 3078 
Q 3713 2572 3713 1747 
Q 3713 922 3314 415 
Q 2916 -91 2278 -91 
Q 1894 -91 1617 61 
Q 1341 213 1159 525 
z
M 3116 1747 
Q 3116 2381 2855 2742 
Q 2594 3103 2138 3103 
Q 1681 3103 1420 2742 
Q 1159 2381 1159 1747 
Q 1159 1113 1420 752 
Q 1681 391 2138 391 
Q 2594 391 2855 752 
Q 3116 1113 3116 1747 
z
" id="DejaVuSans-70" transform="scale(0.015625)"/>
        <path d="M 2631 2963 
Q 2534 3019 2420 3045 
Q 2306 3072 2169 3072 
Q 1681 3072 1420 2755 
Q 1159 2438 1159 1844 
L 1159 0 
L 581 0 
L 581 3500 
L 1159 3500 
L 1159 2956 
Q 1341 3275 1631 3429 
Q 1922 3584 2338 3584 
Q 2397 3584 2469 3576 
Q 2541 3569 2628 3553 
L 2631 2963 
z
" id="DejaVuSans-72" transform="scale(0.015625)"/>
       </defs>
       <use xlink:href="#DejaVuSans-41"/>
       <use x="68.408203" xlink:href="#DejaVuSans-70"/>
       <use x="131.884766" xlink:href="#DejaVuSans-72"/>
      </g>
     </g>
    </g>
    <g id="xtick_3">
     <g id="line2d_3">
      <g>
       <use style="stroke:#000000;stroke-width:0.8;" x="387.312527" xlink:href="#maa8399bf86" y="576.72"/>
      </g>
     </g>
     <g id="text_2">
      <!-- Jul -->
      <g transform="translate(381.279715 591.318438)scale(0.1 -0.1)">
       <defs>
        <path d="M 628 4666 
L 1259 4666 
L 1259 325 
Q 1259 -519 939 -900 
Q 619 -1281 -91 -1281 
L -331 -1281 
L -331 -750 
L -134 -750 
Q 284 -750 456 -515 
Q 628 -281 628 325 
L 628 4666 
z
" id="DejaVuSans-4a" transform="scale(0.015625)"/>
        <path d="M 544 1381 
L 544 3500 
L 1119 3500 
L 1119 1403 
Q 1119 906 1312 657 
Q 1506 409 1894 409 
Q 2359 409 2629 706 
Q 2900 1003 2900 1516 
L 2900 3500 
L 3475 3500 
L 3475 0 
L 2900 0 
L 2900 538 
Q 2691 219 2414 64 
Q 2138 -91 1772 -91 
Q 1169 -91 856 284 
Q 544 659 544 1381 
z
M 1991 3584 
L 1991 3584 
z
" id="DejaVuSans-75" transform="scale(0.015625)"/>
        <path d="M 603 4863 
L 1178 4863 
L 1178 0 
L 603 0 
L 603 4863 
z
" id="DejaVuSans-6c" transform="scale(0.015625)"/>
       </defs>
       <use xlink:href="#DejaVuSans-4a"/>
       <use x="29.492188" xlink:href="#DejaVuSans-75"/>
       <use x="92.871094" xlink:href="#DejaVuSans-6c"/>
      </g>
     </g>
    </g>
    <g id="xtick_4">
     <g id="line2d_4">
      <g>
       <use style="stroke:#000000;stroke-width:0.8;" x="567.834725" xlink:href="#maa8399bf86" y="576.72"/>
      </g>
     </g>
     <g id="text_3">
      <!-- Oct -->
      <g transform="translate(559.189413 591.318438)scale(0.1 -0.1)">
       <defs>
        <path d="M 2522 4238 
Q 1834 4238 1429 3725 
Q 1025 3213 1025 2328 
Q 1025 1447 1429 934 
Q 1834 422 2522 422 
Q 3209 422 3611 934 
Q 4013 1447 4013 2328 
Q 4013 3213 3611 3725 
Q 3209 4238 2522 4238 
z
M 2522 4750 
Q 3503 4750 4090 4092 
Q 4678 3434 4678 2328 
Q 4678 1225 4090 567 
Q 3503 -91 2522 -91 
Q 1538 -91 948 565 
Q 359 1222 359 2328 
Q 359 3434 948 4092 
Q 1538 4750 2522 4750 
z
" id="DejaVuSans-4f" transform="scale(0.015625)"/>
        <path d="M 3122 3366 
L 3122 2828 
Q 2878 2963 2633 3030 
Q 2388 3097 2138 3097 
Q 1578 3097 1268 2742 
Q 959 2388 959 1747 
Q 959 1106 1268 751 
Q 1578 397 2138 397 
Q 2388 397 2633 464 
Q 2878 531 3122 666 
L 3122 134 
Q 2881 22 2623 -34 
Q 2366 -91 2075 -91 
Q 1284 -91 818 406 
Q 353 903 353 1747 
Q 353 2603 823 3093 
Q 1294 3584 2113 3584 
Q 2378 3584 2631 3529 
Q 2884 3475 3122 3366 
z
" id="DejaVuSans-63" transform="scale(0.015625)"/>
        <path d="M 1172 4494 
L 1172 3500 
L 2356 3500 
L 2356 3053 
L 1172 3053 
L 1172 1153 
Q 1172 725 1289 603 
Q 1406 481 1766 481 
L 2356 481 
L 2356 0 
L 1766 0 
Q 1100 0 847 248 
Q 594 497 594 1153 
L 594 3053 
L 172 3053 
L 172 3500 
L 594 3500 
L 594 4494 
L 1172 4494 
z
" id="DejaVuSans-74" transform="scale(0.015625)"/>
       </defs>
       <use xlink:href="#DejaVuSans-4f"/>
       <use x="78.710938" xlink:href="#DejaVuSans-63"/>
       <use x="133.691406" xlink:href="#DejaVuSans-74"/>
      </g>
     </g>
    </g>
    <g id="xtick_5">
     <g id="line2d_5">
      <g>
       <use style="stroke:#000000;stroke-width:0.8;" x="748.356923" xlink:href="#maa8399bf86" y="576.72"/>
      </g>
     </g>
     <g id="text_4">
      <!-- Jan -->
      <g transform="translate(740.649111 591.318438)scale(0.1 -0.1)">
       <defs>
        <path d="M 2194 1759 
Q 1497 1759 1228 1600 
Q 959 1441 959 1056 
Q 959 750 1161 570 
Q 1363 391 1709 391 
Q 2188 391 2477 730 
Q 2766 1069 2766 1631 
L 2766 1759 
L 2194 1759 
z
M 3341 1997 
L 3341 0 
L 2766 0 
L 2766 531 
Q 2569 213 2275 61 
Q 1981 -91 1556 -91 
Q 1019 -91 701 211 
Q 384 513 384 1019 
Q 384 1609 779 1909 
Q 1175 2209 1959 2209 
L 2766 2209 
L 2766 2266 
Q 2766 2663 2505 2880 
Q 2244 3097 1772 3097 
Q 1472 3097 1187 3025 
Q 903 2953 641 2809 
L 641 3341 
Q 956 3463 1253 3523 
Q 1550 3584 1831 3584 
Q 2591 3584 2966 3190 
Q 3341 2797 3341 1997 
z
" id="DejaVuSans-61" transform="scale(0.015625)"/>
        <path d="M 3513 2113 
L 3513 0 
L 2938 0 
L 2938 2094 
Q 2938 2591 2744 2837 
Q 2550 3084 2163 3084 
Q 1697 3084 1428 2787 
Q 1159 2491 1159 1978 
L 1159 0 
L 581 0 
L 581 3500 
L 1159 3500 
L 1159 2956 
Q 1366 3272 1645 3428 
Q 1925 3584 2291 3584 
Q 2894 3584 3203 3211 
Q 3513 2838 3513 2113 
z
" id="DejaVuSans-6e" transform="scale(0.015625)"/>
       </defs>
       <use xlink:href="#DejaVuSans-4a"/>
       <use x="29.492188" xlink:href="#DejaVuSans-61"/>
       <use x="90.771484" xlink:href="#DejaVuSans-6e"/>
      </g>
      <!-- 2021 -->
      <g transform="translate(735.631923 602.51625)scale(0.1 -0.1)">
       <defs>
        <path d="M 1228 531 
L 3431 531 
L 3431 0 
L 469 0 
L 469 531 
Q 828 903 1448 1529 
Q 2069 2156 2228 2338 
Q 2531 2678 2651 2914 
Q 2772 3150 2772 3378 
Q 2772 3750 2511 3984 
Q 2250 4219 1831 4219 
Q 1534 4219 1204 4116 
Q 875 4013 500 3803 
L 500 4441 
Q 881 4594 1212 4672 
Q 1544 4750 1819 4750 
Q 2544 4750 2975 4387 
Q 3406 4025 3406 3419 
Q 3406 3131 3298 2873 
Q 3191 2616 2906 2266 
Q 2828 2175 2409 1742 
Q 1991 1309 1228 531 
z
" id="DejaVuSans-32" transform="scale(0.015625)"/>
        <path d="M 2034 4250 
Q 1547 4250 1301 3770 
Q 1056 3291 1056 2328 
Q 1056 1369 1301 889 
Q 1547 409 2034 409 
Q 2525 409 2770 889 
Q 3016 1369 3016 2328 
Q 3016 3291 2770 3770 
Q 2525 4250 2034 4250 
z
M 2034 4750 
Q 2819 4750 3233 4129 
Q 3647 3509 3647 2328 
Q 3647 1150 3233 529 
Q 2819 -91 2034 -91 
Q 1250 -91 836 529 
Q 422 1150 422 2328 
Q 422 3509 836 4129 
Q 1250 4750 2034 4750 
z
" id="DejaVuSans-30" transform="scale(0.015625)"/>
        <path d="M 794 531 
L 1825 531 
L 1825 4091 
L 703 3866 
L 703 4441 
L 1819 4666 
L 2450 4666 
L 2450 531 
L 3481 531 
L 3481 0 
L 794 0 
L 794 531 
z
" id="DejaVuSans-31" transform="scale(0.015625)"/>
       </defs>
       <use xlink:href="#DejaVuSans-32"/>
       <use x="63.623047" xlink:href="#DejaVuSans-30"/>
       <use x="127.246094" xlink:href="#DejaVuSans-32"/>
       <use x="190.869141" xlink:href="#DejaVuSans-31"/>
      </g>
     </g>
    </g>
    <g id="xtick_6">
     <g id="line2d_6">
      <g>
       <use style="stroke:#000000;stroke-width:0.8;" x="924.954725" xlink:href="#maa8399bf86" y="576.72"/>
      </g>
     </g>
     <g id="text_5">
      <!-- Apr -->
      <g transform="translate(916.304725 591.318438)scale(0.1 -0.1)">
       <use xlink:href="#DejaVuSans-41"/>
       <use x="68.408203" xlink:href="#DejaVuSans-70"/>
       <use x="131.884766" xlink:href="#DejaVuSans-72"/>
      </g>
     </g>
    </g>
    <g id="xtick_7">
     <g id="line2d_7">
      <g>
       <use style="stroke:#000000;stroke-width:0.8;" x="1036.8" xlink:href="#maa8399bf86" y="576.72"/>
      </g>
     </g>
    </g>
    <g id="xtick_8">
     <g id="line2d_8">
      <defs>
       <path d="M 0 0 
L 0 2 
" id="m1463a8798a" style="stroke:#000000;stroke-width:0.6;"/>
      </defs>
      <g>
       <use style="stroke:#000000;stroke-width:0.6;" x="147.924396" xlink:href="#m1463a8798a" y="576.72"/>
      </g>
     </g>
    </g>
    <g id="xtick_9">
     <g id="line2d_9">
      <g>
       <use style="stroke:#000000;stroke-width:0.6;" x="267.618462" xlink:href="#m1463a8798a" y="576.72"/>
      </g>
     </g>
    </g>
    <g id="xtick_10">
     <g id="line2d_10">
      <g>
       <use style="stroke:#000000;stroke-width:0.6;" x="328.446593" xlink:href="#m1463a8798a" y="576.72"/>
      </g>
     </g>
    </g>
    <g id="xtick_11">
     <g id="line2d_11">
      <g>
       <use style="stroke:#000000;stroke-width:0.6;" x="448.140659" xlink:href="#m1463a8798a" y="576.72"/>
      </g>
     </g>
    </g>
    <g id="xtick_12">
     <g id="line2d_12">
      <g>
       <use style="stroke:#000000;stroke-width:0.6;" x="508.968791" xlink:href="#m1463a8798a" y="576.72"/>
      </g>
     </g>
    </g>
    <g id="xtick_13">
     <g id="line2d_13">
      <g>
       <use style="stroke:#000000;stroke-width:0.6;" x="628.662857" xlink:href="#m1463a8798a" y="576.72"/>
      </g>
     </g>
    </g>
    <g id="xtick_14">
     <g id="line2d_14">
      <g>
       <use style="stroke:#000000;stroke-width:0.6;" x="687.528791" xlink:href="#m1463a8798a" y="576.72"/>
      </g>
     </g>
    </g>
    <g id="xtick_15">
     <g id="line2d_15">
      <g>
       <use style="stroke:#000000;stroke-width:0.6;" x="809.185055" xlink:href="#m1463a8798a" y="576.72"/>
      </g>
     </g>
    </g>
    <g id="xtick_16">
     <g id="line2d_16">
      <g>
       <use style="stroke:#000000;stroke-width:0.6;" x="864.126593" xlink:href="#m1463a8798a" y="576.72"/>
      </g>
     </g>
    </g>
    <g id="xtick_17">
     <g id="line2d_17">
      <g>
       <use style="stroke:#000000;stroke-width:0.6;" x="983.820659" xlink:href="#m1463a8798a" y="576.72"/>
      </g>
     </g>
    </g>
    <g id="text_6">
     <!-- Stand -->
     <g transform="translate(575.858594 616.194375)scale(0.1 -0.1)">
      <defs>
       <path d="M 3425 4513 
L 3425 3897 
Q 3066 4069 2747 4153 
Q 2428 4238 2131 4238 
Q 1616 4238 1336 4038 
Q 1056 3838 1056 3469 
Q 1056 3159 1242 3001 
Q 1428 2844 1947 2747 
L 2328 2669 
Q 3034 2534 3370 2195 
Q 3706 1856 3706 1288 
Q 3706 609 3251 259 
Q 2797 -91 1919 -91 
Q 1588 -91 1214 -16 
Q 841 59 441 206 
L 441 856 
Q 825 641 1194 531 
Q 1563 422 1919 422 
Q 2459 422 2753 634 
Q 3047 847 3047 1241 
Q 3047 1584 2836 1778 
Q 2625 1972 2144 2069 
L 1759 2144 
Q 1053 2284 737 2584 
Q 422 2884 422 3419 
Q 422 4038 858 4394 
Q 1294 4750 2059 4750 
Q 2388 4750 2728 4690 
Q 3069 4631 3425 4513 
z
" id="DejaVuSans-53" transform="scale(0.015625)"/>
       <path d="M 2906 2969 
L 2906 4863 
L 3481 4863 
L 3481 0 
L 2906 0 
L 2906 525 
Q 2725 213 2448 61 
Q 2172 -91 1784 -91 
Q 1150 -91 751 415 
Q 353 922 353 1747 
Q 353 2572 751 3078 
Q 1150 3584 1784 3584 
Q 2172 3584 2448 3432 
Q 2725 3281 2906 2969 
z
M 947 1747 
Q 947 1113 1208 752 
Q 1469 391 1925 391 
Q 2381 391 2643 752 
Q 2906 1113 2906 1747 
Q 2906 2381 2643 2742 
Q 2381 3103 1925 3103 
Q 1469 3103 1208 2742 
Q 947 2381 947 1747 
z
" id="DejaVuSans-64" transform="scale(0.015625)"/>
      </defs>
      <use xlink:href="#DejaVuSans-53"/>
      <use x="63.476562" xlink:href="#DejaVuSans-74"/>
      <use x="102.685547" xlink:href="#DejaVuSans-61"/>
      <use x="163.964844" xlink:href="#DejaVuSans-6e"/>
      <use x="227.34375" xlink:href="#DejaVuSans-64"/>
     </g>
    </g>
   </g>
   <g id="matplotlib.axis_2">
    <g id="ytick_1">
     <g id="line2d_18">
      <defs>
       <path d="M 0 0 
L -3.5 0 
" id="m4c0bee649b" style="stroke:#000000;stroke-width:0.8;"/>
      </defs>
      <g>
       <use style="stroke:#000000;stroke-width:0.8;" x="144" xlink:href="#m4c0bee649b" y="554.04"/>
      </g>
     </g>
     <g id="text_7">
      <!-- 0 -->
      <g transform="translate(130.6375 557.839219)scale(0.1 -0.1)">
       <use xlink:href="#DejaVuSans-30"/>
      </g>
     </g>
    </g>
    <g id="ytick_2">
     <g id="line2d_19">
      <g>
       <use style="stroke:#000000;stroke-width:0.8;" x="144" xlink:href="#m4c0bee649b" y="483.165"/>
      </g>
     </g>
     <g id="text_8">
      <!-- 5 -->
      <g transform="translate(130.6375 486.964219)scale(0.1 -0.1)">
       <defs>
        <path d="M 691 4666 
L 3169 4666 
L 3169 4134 
L 1269 4134 
L 1269 2991 
Q 1406 3038 1543 3061 
Q 1681 3084 1819 3084 
Q 2600 3084 3056 2656 
Q 3513 2228 3513 1497 
Q 3513 744 3044 326 
Q 2575 -91 1722 -91 
Q 1428 -91 1123 -41 
Q 819 9 494 109 
L 494 744 
Q 775 591 1075 516 
Q 1375 441 1709 441 
Q 2250 441 2565 725 
Q 2881 1009 2881 1497 
Q 2881 1984 2565 2268 
Q 2250 2553 1709 2553 
Q 1456 2553 1204 2497 
Q 953 2441 691 2322 
L 691 4666 
z
" id="DejaVuSans-35" transform="scale(0.015625)"/>
       </defs>
       <use xlink:href="#DejaVuSans-35"/>
      </g>
     </g>
    </g>
    <g id="ytick_3">
     <g id="line2d_20">
      <g>
       <use style="stroke:#000000;stroke-width:0.8;" x="144" xlink:href="#m4c0bee649b" y="412.29"/>
      </g>
     </g>
     <g id="text_9">
      <!-- 10 -->
      <g transform="translate(124.275 416.089219)scale(0.1 -0.1)">
       <use xlink:href="#DejaVuSans-31"/>
       <use x="63.623047" xlink:href="#DejaVuSans-30"/>
      </g>
     </g>
    </g>
    <g id="ytick_4">
     <g id="line2d_21">
      <g>
       <use style="stroke:#000000;stroke-width:0.8;" x="144" xlink:href="#m4c0bee649b" y="341.415"/>
      </g>
     </g>
     <g id="text_10">
      <!-- 15 -->
      <g transform="translate(124.275 345.214219)scale(0.1 -0.1)">
       <use xlink:href="#DejaVuSans-31"/>
       <use x="63.623047" xlink:href="#DejaVuSans-35"/>
      </g>
     </g>
    </g>
    <g id="ytick_5">
     <g id="line2d_22">
      <g>
       <use style="stroke:#000000;stroke-width:0.8;" x="144" xlink:href="#m4c0bee649b" y="270.54"/>
      </g>
     </g>
     <g id="text_11">
      <!-- 20 -->
      <g transform="translate(124.275 274.339219)scale(0.1 -0.1)">
       <use xlink:href="#DejaVuSans-32"/>
       <use x="63.623047" xlink:href="#DejaVuSans-30"/>
      </g>
     </g>
    </g>
    <g id="ytick_6">
     <g id="line2d_23">
      <g>
       <use style="stroke:#000000;stroke-width:0.8;" x="144" xlink:href="#m4c0bee649b" y="199.665"/>
      </g>
     </g>
     <g id="text_12">
      <!-- 25 -->
      <g transform="translate(124.275 203.464219)scale(0.1 -0.1)">
       <use xlink:href="#DejaVuSans-32"/>
       <use x="63.623047" xlink:href="#DejaVuSans-35"/>
      </g>
     </g>
    </g>
    <g id="ytick_7">
     <g id="line2d_24">
      <g>
       <use style="stroke:#000000;stroke-width:0.8;" x="144" xlink:href="#m4c0bee649b" y="128.79"/>
      </g>
     </g>
     <g id="text_13">
      <!-- 30 -->
      <g transform="translate(124.275 132.589219)scale(0.1 -0.1)">
       <defs>
        <path d="M 2597 2516 
Q 3050 2419 3304 2112 
Q 3559 1806 3559 1356 
Q 3559 666 3084 287 
Q 2609 -91 1734 -91 
Q 1441 -91 1130 -33 
Q 819 25 488 141 
L 488 750 
Q 750 597 1062 519 
Q 1375 441 1716 441 
Q 2309 441 2620 675 
Q 2931 909 2931 1356 
Q 2931 1769 2642 2001 
Q 2353 2234 1838 2234 
L 1294 2234 
L 1294 2753 
L 1863 2753 
Q 2328 2753 2575 2939 
Q 2822 3125 2822 3475 
Q 2822 3834 2567 4026 
Q 2313 4219 1838 4219 
Q 1578 4219 1281 4162 
Q 984 4106 628 3988 
L 628 4550 
Q 988 4650 1302 4700 
Q 1616 4750 1894 4750 
Q 2613 4750 3031 4423 
Q 3450 4097 3450 3541 
Q 3450 3153 3228 2886 
Q 3006 2619 2597 2516 
z
" id="DejaVuSans-33" transform="scale(0.015625)"/>
       </defs>
       <use xlink:href="#DejaVuSans-33"/>
       <use x="63.623047" xlink:href="#DejaVuSans-30"/>
      </g>
     </g>
    </g>
   </g>
   <g id="line2d_25">
    <path clip-path="url(#p25d7d14ad5)" d="M 144 554.04 
L 191.092747 554.04 
L 193.054945 539.865 
L 195.017143 539.865 
L 196.979341 554.04 
L 202.865934 554.04 
L 204.828132 483.165 
L 206.79033 554.04 
L 208.752527 539.865 
L 210.714725 511.515 
L 212.676923 539.865 
L 214.639121 525.69 
L 216.601319 554.04 
L 218.563516 554.04 
L 220.525714 525.69 
L 222.487912 454.815 
L 224.45011 554.04 
L 226.412308 369.765 
L 228.374505 483.165 
L 230.336703 525.69 
L 232.298901 539.865 
L 234.261099 440.64 
L 236.223297 468.99 
L 238.185495 369.765 
L 240.147692 483.165 
L 242.10989 412.29 
L 246.034286 554.04 
L 249.958681 497.34 
L 251.920879 525.69 
L 253.883077 468.99 
L 255.845275 525.69 
L 257.807473 554.04 
L 259.76967 355.59 
L 261.731868 525.69 
L 263.694066 468.99 
L 265.656264 525.69 
L 267.618462 497.34 
L 269.580659 554.04 
L 271.542857 511.515 
L 273.505055 539.865 
L 275.467253 554.04 
L 277.429451 525.69 
L 279.391648 525.69 
L 281.353846 554.04 
L 283.316044 525.69 
L 285.278242 554.04 
L 287.24044 554.04 
L 289.202637 525.69 
L 291.164835 554.04 
L 295.089231 525.69 
L 297.051429 525.69 
L 299.013626 554.04 
L 300.975824 554.04 
L 302.938022 483.165 
L 304.90022 554.04 
L 306.862418 511.515 
L 308.824615 554.04 
L 314.711209 554.04 
L 318.635604 525.69 
L 320.597802 539.865 
L 324.522198 539.865 
L 326.484396 554.04 
L 332.370989 554.04 
L 336.295385 525.69 
L 338.257582 554.04 
L 342.181978 554.04 
L 344.144176 539.865 
L 346.106374 554.04 
L 348.068571 554.04 
L 350.030769 539.865 
L 351.992967 554.04 
L 371.614945 554.04 
L 373.577143 539.865 
L 375.539341 554.04 
L 377.501538 525.69 
L 379.463736 539.865 
L 381.425934 539.865 
L 383.388132 554.04 
L 389.274725 554.04 
L 391.236923 539.865 
L 393.199121 554.04 
L 522.704176 554.04 
L 524.666374 539.865 
L 526.628571 554.04 
L 538.401758 554.04 
L 540.363956 539.865 
L 542.326154 554.04 
L 561.948132 554.04 
L 563.91033 539.865 
L 565.872527 554.04 
L 607.078681 554.04 
L 609.040879 539.865 
L 611.003077 554.04 
L 614.927473 554.04 
L 616.88967 539.865 
L 620.814066 539.865 
L 624.738462 511.515 
L 626.700659 525.69 
L 628.662857 497.34 
L 630.625055 554.04 
L 632.587253 525.69 
L 634.549451 554.04 
L 636.511648 539.865 
L 638.473846 511.515 
L 640.436044 539.865 
L 642.398242 554.04 
L 644.36044 525.69 
L 646.322637 539.865 
L 648.284835 511.515 
L 652.209231 539.865 
L 654.171429 511.515 
L 656.133626 511.515 
L 658.095824 554.04 
L 660.058022 511.515 
L 662.02022 398.115 
L 663.982418 511.515 
L 665.944615 511.515 
L 667.906813 554.04 
L 669.869011 525.69 
L 671.831209 554.04 
L 673.793407 511.515 
L 675.755604 426.465 
L 677.717802 539.865 
L 679.68 554.04 
L 681.642198 539.865 
L 685.566593 539.865 
L 687.528791 511.515 
L 689.490989 511.515 
L 691.453187 497.34 
L 693.415385 554.04 
L 695.377582 468.99 
L 699.301978 554.04 
L 703.226374 412.29 
L 705.188571 539.865 
L 707.150769 454.815 
L 709.112967 525.69 
L 711.075165 483.165 
L 713.037363 468.99 
L 714.99956 468.99 
L 716.961758 554.04 
L 718.923956 383.94 
L 720.886154 369.765 
L 722.848352 398.115 
L 724.810549 511.515 
L 726.772747 440.64 
L 728.734945 426.465 
L 730.697143 440.64 
L 734.621538 383.94 
L 736.583736 454.815 
L 738.545934 554.04 
L 740.508132 468.99 
L 742.47033 554.04 
L 744.432527 426.465 
L 746.394725 398.115 
L 748.356923 539.865 
L 750.319121 454.815 
L 752.281319 539.865 
L 754.243516 497.34 
L 756.205714 412.29 
L 758.167912 383.94 
L 760.13011 327.24 
L 762.092308 355.59 
L 764.054505 100.44 
L 766.016703 398.115 
L 767.978901 511.515 
L 769.941099 383.94 
L 771.903297 398.115 
L 773.865495 242.19 
L 775.827692 398.115 
L 777.78989 454.815 
L 779.752088 525.69 
L 781.714286 511.515 
L 783.676484 313.065 
L 785.638681 497.34 
L 787.600879 369.765 
L 789.563077 426.465 
L 791.525275 171.315 
L 793.487473 483.165 
L 795.44967 511.515 
L 797.411868 454.815 
L 799.374066 440.64 
L 801.336264 454.815 
L 805.260659 398.115 
L 807.222857 483.165 
L 809.185055 539.865 
L 811.147253 468.99 
L 813.109451 426.465 
L 815.071648 440.64 
L 817.033846 468.99 
L 818.996044 426.465 
L 820.958242 440.64 
L 822.92044 511.515 
L 824.882637 539.865 
L 826.844835 440.64 
L 828.807033 440.64 
L 830.769231 525.69 
L 832.731429 426.465 
L 834.693626 511.515 
L 836.655824 554.04 
L 838.618022 412.29 
L 840.58022 511.515 
L 842.542418 483.165 
L 844.504615 483.165 
L 846.466813 440.64 
L 848.429011 554.04 
L 850.391209 554.04 
L 852.353407 511.515 
L 854.315604 539.865 
L 856.277802 483.165 
L 858.24 440.64 
L 860.202198 539.865 
L 862.164396 511.515 
L 864.126593 539.865 
L 866.088791 525.69 
L 868.050989 497.34 
L 871.975385 468.99 
L 873.937582 511.515 
L 875.89978 539.865 
L 877.861978 554.04 
L 879.824176 525.69 
L 881.786374 412.29 
L 883.748571 539.865 
L 885.710769 554.04 
L 887.672967 454.815 
L 889.635165 554.04 
L 891.597363 554.04 
L 893.55956 511.515 
L 895.521758 554.04 
L 897.483956 554.04 
L 899.446154 525.69 
L 901.408352 525.69 
L 903.370549 554.04 
L 905.332747 554.04 
L 907.294945 511.515 
L 909.257143 554.04 
L 911.219341 554.04 
L 915.143736 525.69 
L 917.105934 554.04 
L 921.03033 554.04 
L 922.992527 539.865 
L 926.916923 539.865 
L 928.879121 554.04 
L 934.765714 554.04 
L 936.727912 525.69 
L 938.69011 525.69 
L 942.614505 554.04 
L 946.538901 554.04 
L 948.501099 525.69 
L 950.463297 483.165 
L 952.425495 539.865 
L 954.387692 525.69 
L 956.34989 554.04 
L 958.312088 554.04 
L 960.274286 539.865 
L 962.236484 554.04 
L 966.160879 525.69 
L 968.123077 539.865 
L 972.047473 539.865 
L 974.00967 554.04 
L 975.971868 483.165 
L 977.934066 539.865 
L 979.896264 525.69 
L 981.858462 525.69 
L 985.782857 554.04 
L 987.745055 539.865 
L 991.669451 539.865 
L 993.631648 554.04 
L 995.593846 539.865 
L 997.556044 511.515 
L 999.518242 554.04 
L 1003.442637 554.04 
L 1005.404835 497.34 
L 1007.367033 511.515 
L 1009.329231 554.04 
L 1011.291429 511.515 
L 1013.253626 539.865 
L 1015.215824 554.04 
L 1017.178022 525.69 
L 1019.14022 539.865 
L 1021.102418 454.815 
L 1023.064615 511.515 
L 1025.026813 497.34 
L 1026.989011 539.865 
L 1028.951209 539.865 
L 1030.913407 554.04 
L 1032.875604 554.04 
L 1034.837802 468.99 
L 1036.8 525.69 
L 1036.8 525.69 
" style="fill:none;stroke:#808080;stroke-dasharray:1.5,2.475;stroke-dashoffset:0;stroke-width:1.5;"/>
    <defs>
     <path d="M -3 0 
L 3 0 
M 0 3 
L 0 -3 
" id="m18e19d29d5" style="stroke:#808080;"/>
    </defs>
    <g clip-path="url(#p25d7d14ad5)">
     <use style="fill:#808080;stroke:#808080;" x="144" xlink:href="#m18e19d29d5" y="554.04"/>
     <use style="fill:#808080;stroke:#808080;" x="145.962198" xlink:href="#m18e19d29d5" y="554.04"/>
     <use style="fill:#808080;stroke:#808080;" x="147.924396" xlink:href="#m18e19d29d5" y="554.04"/>
     <use style="fill:#808080;stroke:#808080;" x="149.886593" xlink:href="#m18e19d29d5" y="554.04"/>
     <use style="fill:#808080;stroke:#808080;" x="151.848791" xlink:href="#m18e19d29d5" y="554.04"/>
     <use style="fill:#808080;stroke:#808080;" x="153.810989" xlink:href="#m18e19d29d5" y="554.04"/>
     <use style="fill:#808080;stroke:#808080;" x="155.773187" xlink:href="#m18e19d29d5" y="554.04"/>
     <use style="fill:#808080;stroke:#808080;" x="157.735385" xlink:href="#m18e19d29d5" y="554.04"/>
     <use style="fill:#808080;stroke:#808080;" x="159.697582" xlink:href="#m18e19d29d5" y="554.04"/>
     <use style="fill:#808080;stroke:#808080;" x="161.65978" xlink:href="#m18e19d29d5" y="554.04"/>
     <use style="fill:#808080;stroke:#808080;" x="163.621978" xlink:href="#m18e19d29d5" y="554.04"/>
     <use style="fill:#808080;stroke:#808080;" x="165.584176" xlink:href="#m18e19d29d5" y="554.04"/>
     <use style="fill:#808080;stroke:#808080;" x="167.546374" xlink:href="#m18e19d29d5" y="554.04"/>
     <use style="fill:#808080;stroke:#808080;" x="169.508571" xlink:href="#m18e19d29d5" y="554.04"/>
     <use style="fill:#808080;stroke:#808080;" x="171.470769" xlink:href="#m18e19d29d5" y="554.04"/>
     <use style="fill:#808080;stroke:#808080;" x="173.432967" xlink:href="#m18e19d29d5" y="554.04"/>
     <use style="fill:#808080;stroke:#808080;" x="175.395165" xlink:href="#m18e19d29d5" y="554.04"/>
     <use style="fill:#808080;stroke:#808080;" x="177.357363" xlink:href="#m18e19d29d5" y="554.04"/>
     <use style="fill:#808080;stroke:#808080;" x="179.31956" xlink:href="#m18e19d29d5" y="554.04"/>
     <use style="fill:#808080;stroke:#808080;" x="181.281758" xlink:href="#m18e19d29d5" y="554.04"/>
     <use style="fill:#808080;stroke:#808080;" x="183.243956" xlink:href="#m18e19d29d5" y="554.04"/>
     <use style="fill:#808080;stroke:#808080;" x="185.206154" xlink:href="#m18e19d29d5" y="554.04"/>
     <use style="fill:#808080;stroke:#808080;" x="187.168352" xlink:href="#m18e19d29d5" y="554.04"/>
     <use style="fill:#808080;stroke:#808080;" x="189.130549" xlink:href="#m18e19d29d5" y="554.04"/>
     <use style="fill:#808080;stroke:#808080;" x="191.092747" xlink:href="#m18e19d29d5" y="554.04"/>
     <use style="fill:#808080;stroke:#808080;" x="193.054945" xlink:href="#m18e19d29d5" y="539.865"/>
     <use style="fill:#808080;stroke:#808080;" x="195.017143" xlink:href="#m18e19d29d5" y="539.865"/>
     <use style="fill:#808080;stroke:#808080;" x="196.979341" xlink:href="#m18e19d29d5" y="554.04"/>
     <use style="fill:#808080;stroke:#808080;" x="198.941538" xlink:href="#m18e19d29d5" y="554.04"/>
     <use style="fill:#808080;stroke:#808080;" x="200.903736" xlink:href="#m18e19d29d5" y="554.04"/>
     <use style="fill:#808080;stroke:#808080;" x="202.865934" xlink:href="#m18e19d29d5" y="554.04"/>
     <use style="fill:#808080;stroke:#808080;" x="204.828132" xlink:href="#m18e19d29d5" y="483.165"/>
     <use style="fill:#808080;stroke:#808080;" x="206.79033" xlink:href="#m18e19d29d5" y="554.04"/>
     <use style="fill:#808080;stroke:#808080;" x="208.752527" xlink:href="#m18e19d29d5" y="539.865"/>
     <use style="fill:#808080;stroke:#808080;" x="210.714725" xlink:href="#m18e19d29d5" y="511.515"/>
     <use style="fill:#808080;stroke:#808080;" x="212.676923" xlink:href="#m18e19d29d5" y="539.865"/>
     <use style="fill:#808080;stroke:#808080;" x="214.639121" xlink:href="#m18e19d29d5" y="525.69"/>
     <use style="fill:#808080;stroke:#808080;" x="216.601319" xlink:href="#m18e19d29d5" y="554.04"/>
     <use style="fill:#808080;stroke:#808080;" x="218.563516" xlink:href="#m18e19d29d5" y="554.04"/>
     <use style="fill:#808080;stroke:#808080;" x="220.525714" xlink:href="#m18e19d29d5" y="525.69"/>
     <use style="fill:#808080;stroke:#808080;" x="222.487912" xlink:href="#m18e19d29d5" y="454.815"/>
     <use style="fill:#808080;stroke:#808080;" x="224.45011" xlink:href="#m18e19d29d5" y="554.04"/>
     <use style="fill:#808080;stroke:#808080;" x="226.412308" xlink:href="#m18e19d29d5" y="369.765"/>
     <use style="fill:#808080;stroke:#808080;" x="228.374505" xlink:href="#m18e19d29d5" y="483.165"/>
     <use style="fill:#808080;stroke:#808080;" x="230.336703" xlink:href="#m18e19d29d5" y="525.69"/>
     <use style="fill:#808080;stroke:#808080;" x="232.298901" xlink:href="#m18e19d29d5" y="539.865"/>
     <use style="fill:#808080;stroke:#808080;" x="234.261099" xlink:href="#m18e19d29d5" y="440.64"/>
     <use style="fill:#808080;stroke:#808080;" x="236.223297" xlink:href="#m18e19d29d5" y="468.99"/>
     <use style="fill:#808080;stroke:#808080;" x="238.185495" xlink:href="#m18e19d29d5" y="369.765"/>
     <use style="fill:#808080;stroke:#808080;" x="240.147692" xlink:href="#m18e19d29d5" y="483.165"/>
     <use style="fill:#808080;stroke:#808080;" x="242.10989" xlink:href="#m18e19d29d5" y="412.29"/>
     <use style="fill:#808080;stroke:#808080;" x="244.072088" xlink:href="#m18e19d29d5" y="483.165"/>
     <use style="fill:#808080;stroke:#808080;" x="246.034286" xlink:href="#m18e19d29d5" y="554.04"/>
     <use style="fill:#808080;stroke:#808080;" x="247.996484" xlink:href="#m18e19d29d5" y="525.69"/>
     <use style="fill:#808080;stroke:#808080;" x="249.958681" xlink:href="#m18e19d29d5" y="497.34"/>
     <use style="fill:#808080;stroke:#808080;" x="251.920879" xlink:href="#m18e19d29d5" y="525.69"/>
     <use style="fill:#808080;stroke:#808080;" x="253.883077" xlink:href="#m18e19d29d5" y="468.99"/>
     <use style="fill:#808080;stroke:#808080;" x="255.845275" xlink:href="#m18e19d29d5" y="525.69"/>
     <use style="fill:#808080;stroke:#808080;" x="257.807473" xlink:href="#m18e19d29d5" y="554.04"/>
     <use style="fill:#808080;stroke:#808080;" x="259.76967" xlink:href="#m18e19d29d5" y="355.59"/>
     <use style="fill:#808080;stroke:#808080;" x="261.731868" xlink:href="#m18e19d29d5" y="525.69"/>
     <use style="fill:#808080;stroke:#808080;" x="263.694066" xlink:href="#m18e19d29d5" y="468.99"/>
     <use style="fill:#808080;stroke:#808080;" x="265.656264" xlink:href="#m18e19d29d5" y="525.69"/>
     <use style="fill:#808080;stroke:#808080;" x="267.618462" xlink:href="#m18e19d29d5" y="497.34"/>
     <use style="fill:#808080;stroke:#808080;" x="269.580659" xlink:href="#m18e19d29d5" y="554.04"/>
     <use style="fill:#808080;stroke:#808080;" x="271.542857" xlink:href="#m18e19d29d5" y="511.515"/>
     <use style="fill:#808080;stroke:#808080;" x="273.505055" xlink:href="#m18e19d29d5" y="539.865"/>
     <use style="fill:#808080;stroke:#808080;" x="275.467253" xlink:href="#m18e19d29d5" y="554.04"/>
     <use style="fill:#808080;stroke:#808080;" x="277.429451" xlink:href="#m18e19d29d5" y="525.69"/>
     <use style="fill:#808080;stroke:#808080;" x="279.391648" xlink:href="#m18e19d29d5" y="525.69"/>
     <use style="fill:#808080;stroke:#808080;" x="281.353846" xlink:href="#m18e19d29d5" y="554.04"/>
     <use style="fill:#808080;stroke:#808080;" x="283.316044" xlink:href="#m18e19d29d5" y="525.69"/>
     <use style="fill:#808080;stroke:#808080;" x="285.278242" xlink:href="#m18e19d29d5" y="554.04"/>
     <use style="fill:#808080;stroke:#808080;" x="287.24044" xlink:href="#m18e19d29d5" y="554.04"/>
     <use style="fill:#808080;stroke:#808080;" x="289.202637" xlink:href="#m18e19d29d5" y="525.69"/>
     <use style="fill:#808080;stroke:#808080;" x="291.164835" xlink:href="#m18e19d29d5" y="554.04"/>
     <use style="fill:#808080;stroke:#808080;" x="293.127033" xlink:href="#m18e19d29d5" y="539.865"/>
     <use style="fill:#808080;stroke:#808080;" x="295.089231" xlink:href="#m18e19d29d5" y="525.69"/>
     <use style="fill:#808080;stroke:#808080;" x="297.051429" xlink:href="#m18e19d29d5" y="525.69"/>
     <use style="fill:#808080;stroke:#808080;" x="299.013626" xlink:href="#m18e19d29d5" y="554.04"/>
     <use style="fill:#808080;stroke:#808080;" x="300.975824" xlink:href="#m18e19d29d5" y="554.04"/>
     <use style="fill:#808080;stroke:#808080;" x="302.938022" xlink:href="#m18e19d29d5" y="483.165"/>
     <use style="fill:#808080;stroke:#808080;" x="304.90022" xlink:href="#m18e19d29d5" y="554.04"/>
     <use style="fill:#808080;stroke:#808080;" x="306.862418" xlink:href="#m18e19d29d5" y="511.515"/>
     <use style="fill:#808080;stroke:#808080;" x="308.824615" xlink:href="#m18e19d29d5" y="554.04"/>
     <use style="fill:#808080;stroke:#808080;" x="310.786813" xlink:href="#m18e19d29d5" y="554.04"/>
     <use style="fill:#808080;stroke:#808080;" x="312.749011" xlink:href="#m18e19d29d5" y="554.04"/>
     <use style="fill:#808080;stroke:#808080;" x="314.711209" xlink:href="#m18e19d29d5" y="554.04"/>
     <use style="fill:#808080;stroke:#808080;" x="316.673407" xlink:href="#m18e19d29d5" y="539.865"/>
     <use style="fill:#808080;stroke:#808080;" x="318.635604" xlink:href="#m18e19d29d5" y="525.69"/>
     <use style="fill:#808080;stroke:#808080;" x="320.597802" xlink:href="#m18e19d29d5" y="539.865"/>
     <use style="fill:#808080;stroke:#808080;" x="322.56" xlink:href="#m18e19d29d5" y="539.865"/>
     <use style="fill:#808080;stroke:#808080;" x="324.522198" xlink:href="#m18e19d29d5" y="539.865"/>
     <use style="fill:#808080;stroke:#808080;" x="326.484396" xlink:href="#m18e19d29d5" y="554.04"/>
     <use style="fill:#808080;stroke:#808080;" x="328.446593" xlink:href="#m18e19d29d5" y="554.04"/>
     <use style="fill:#808080;stroke:#808080;" x="330.408791" xlink:href="#m18e19d29d5" y="554.04"/>
     <use style="fill:#808080;stroke:#808080;" x="332.370989" xlink:href="#m18e19d29d5" y="554.04"/>
     <use style="fill:#808080;stroke:#808080;" x="334.333187" xlink:href="#m18e19d29d5" y="539.865"/>
     <use style="fill:#808080;stroke:#808080;" x="336.295385" xlink:href="#m18e19d29d5" y="525.69"/>
     <use style="fill:#808080;stroke:#808080;" x="338.257582" xlink:href="#m18e19d29d5" y="554.04"/>
     <use style="fill:#808080;stroke:#808080;" x="340.21978" xlink:href="#m18e19d29d5" y="554.04"/>
     <use style="fill:#808080;stroke:#808080;" x="342.181978" xlink:href="#m18e19d29d5" y="554.04"/>
     <use style="fill:#808080;stroke:#808080;" x="344.144176" xlink:href="#m18e19d29d5" y="539.865"/>
     <use style="fill:#808080;stroke:#808080;" x="346.106374" xlink:href="#m18e19d29d5" y="554.04"/>
     <use style="fill:#808080;stroke:#808080;" x="348.068571" xlink:href="#m18e19d29d5" y="554.04"/>
     <use style="fill:#808080;stroke:#808080;" x="350.030769" xlink:href="#m18e19d29d5" y="539.865"/>
     <use style="fill:#808080;stroke:#808080;" x="351.992967" xlink:href="#m18e19d29d5" y="554.04"/>
     <use style="fill:#808080;stroke:#808080;" x="353.955165" xlink:href="#m18e19d29d5" y="554.04"/>
     <use style="fill:#808080;stroke:#808080;" x="355.917363" xlink:href="#m18e19d29d5" y="554.04"/>
     <use style="fill:#808080;stroke:#808080;" x="357.87956" xlink:href="#m18e19d29d5" y="554.04"/>
     <use style="fill:#808080;stroke:#808080;" x="359.841758" xlink:href="#m18e19d29d5" y="554.04"/>
     <use style="fill:#808080;stroke:#808080;" x="361.803956" xlink:href="#m18e19d29d5" y="554.04"/>
     <use style="fill:#808080;stroke:#808080;" x="363.766154" xlink:href="#m18e19d29d5" y="554.04"/>
     <use style="fill:#808080;stroke:#808080;" x="365.728352" xlink:href="#m18e19d29d5" y="554.04"/>
     <use style="fill:#808080;stroke:#808080;" x="367.690549" xlink:href="#m18e19d29d5" y="554.04"/>
     <use style="fill:#808080;stroke:#808080;" x="369.652747" xlink:href="#m18e19d29d5" y="554.04"/>
     <use style="fill:#808080;stroke:#808080;" x="371.614945" xlink:href="#m18e19d29d5" y="554.04"/>
     <use style="fill:#808080;stroke:#808080;" x="373.577143" xlink:href="#m18e19d29d5" y="539.865"/>
     <use style="fill:#808080;stroke:#808080;" x="375.539341" xlink:href="#m18e19d29d5" y="554.04"/>
     <use style="fill:#808080;stroke:#808080;" x="377.501538" xlink:href="#m18e19d29d5" y="525.69"/>
     <use style="fill:#808080;stroke:#808080;" x="379.463736" xlink:href="#m18e19d29d5" y="539.865"/>
     <use style="fill:#808080;stroke:#808080;" x="381.425934" xlink:href="#m18e19d29d5" y="539.865"/>
     <use style="fill:#808080;stroke:#808080;" x="383.388132" xlink:href="#m18e19d29d5" y="554.04"/>
     <use style="fill:#808080;stroke:#808080;" x="385.35033" xlink:href="#m18e19d29d5" y="554.04"/>
     <use style="fill:#808080;stroke:#808080;" x="387.312527" xlink:href="#m18e19d29d5" y="554.04"/>
     <use style="fill:#808080;stroke:#808080;" x="389.274725" xlink:href="#m18e19d29d5" y="554.04"/>
     <use style="fill:#808080;stroke:#808080;" x="391.236923" xlink:href="#m18e19d29d5" y="539.865"/>
     <use style="fill:#808080;stroke:#808080;" x="393.199121" xlink:href="#m18e19d29d5" y="554.04"/>
     <use style="fill:#808080;stroke:#808080;" x="395.161319" xlink:href="#m18e19d29d5" y="554.04"/>
     <use style="fill:#808080;stroke:#808080;" x="397.123516" xlink:href="#m18e19d29d5" y="554.04"/>
     <use style="fill:#808080;stroke:#808080;" x="399.085714" xlink:href="#m18e19d29d5" y="554.04"/>
     <use style="fill:#808080;stroke:#808080;" x="401.047912" xlink:href="#m18e19d29d5" y="554.04"/>
     <use style="fill:#808080;stroke:#808080;" x="403.01011" xlink:href="#m18e19d29d5" y="554.04"/>
     <use style="fill:#808080;stroke:#808080;" x="404.972308" xlink:href="#m18e19d29d5" y="554.04"/>
     <use style="fill:#808080;stroke:#808080;" x="406.934505" xlink:href="#m18e19d29d5" y="554.04"/>
     <use style="fill:#808080;stroke:#808080;" x="408.896703" xlink:href="#m18e19d29d5" y="554.04"/>
     <use style="fill:#808080;stroke:#808080;" x="410.858901" xlink:href="#m18e19d29d5" y="554.04"/>
     <use style="fill:#808080;stroke:#808080;" x="412.821099" xlink:href="#m18e19d29d5" y="554.04"/>
     <use style="fill:#808080;stroke:#808080;" x="414.783297" xlink:href="#m18e19d29d5" y="554.04"/>
     <use style="fill:#808080;stroke:#808080;" x="416.745495" xlink:href="#m18e19d29d5" y="554.04"/>
     <use style="fill:#808080;stroke:#808080;" x="418.707692" xlink:href="#m18e19d29d5" y="554.04"/>
     <use style="fill:#808080;stroke:#808080;" x="420.66989" xlink:href="#m18e19d29d5" y="554.04"/>
     <use style="fill:#808080;stroke:#808080;" x="422.632088" xlink:href="#m18e19d29d5" y="554.04"/>
     <use style="fill:#808080;stroke:#808080;" x="424.594286" xlink:href="#m18e19d29d5" y="554.04"/>
     <use style="fill:#808080;stroke:#808080;" x="426.556484" xlink:href="#m18e19d29d5" y="554.04"/>
     <use style="fill:#808080;stroke:#808080;" x="428.518681" xlink:href="#m18e19d29d5" y="554.04"/>
     <use style="fill:#808080;stroke:#808080;" x="430.480879" xlink:href="#m18e19d29d5" y="554.04"/>
     <use style="fill:#808080;stroke:#808080;" x="432.443077" xlink:href="#m18e19d29d5" y="554.04"/>
     <use style="fill:#808080;stroke:#808080;" x="434.405275" xlink:href="#m18e19d29d5" y="554.04"/>
     <use style="fill:#808080;stroke:#808080;" x="436.367473" xlink:href="#m18e19d29d5" y="554.04"/>
     <use style="fill:#808080;stroke:#808080;" x="438.32967" xlink:href="#m18e19d29d5" y="554.04"/>
     <use style="fill:#808080;stroke:#808080;" x="440.291868" xlink:href="#m18e19d29d5" y="554.04"/>
     <use style="fill:#808080;stroke:#808080;" x="442.254066" xlink:href="#m18e19d29d5" y="554.04"/>
     <use style="fill:#808080;stroke:#808080;" x="444.216264" xlink:href="#m18e19d29d5" y="554.04"/>
     <use style="fill:#808080;stroke:#808080;" x="446.178462" xlink:href="#m18e19d29d5" y="554.04"/>
     <use style="fill:#808080;stroke:#808080;" x="448.140659" xlink:href="#m18e19d29d5" y="554.04"/>
     <use style="fill:#808080;stroke:#808080;" x="450.102857" xlink:href="#m18e19d29d5" y="554.04"/>
     <use style="fill:#808080;stroke:#808080;" x="452.065055" xlink:href="#m18e19d29d5" y="554.04"/>
     <use style="fill:#808080;stroke:#808080;" x="454.027253" xlink:href="#m18e19d29d5" y="554.04"/>
     <use style="fill:#808080;stroke:#808080;" x="455.989451" xlink:href="#m18e19d29d5" y="554.04"/>
     <use style="fill:#808080;stroke:#808080;" x="457.951648" xlink:href="#m18e19d29d5" y="554.04"/>
     <use style="fill:#808080;stroke:#808080;" x="459.913846" xlink:href="#m18e19d29d5" y="554.04"/>
     <use style="fill:#808080;stroke:#808080;" x="461.876044" xlink:href="#m18e19d29d5" y="554.04"/>
     <use style="fill:#808080;stroke:#808080;" x="463.838242" xlink:href="#m18e19d29d5" y="554.04"/>
     <use style="fill:#808080;stroke:#808080;" x="465.80044" xlink:href="#m18e19d29d5" y="554.04"/>
     <use style="fill:#808080;stroke:#808080;" x="467.762637" xlink:href="#m18e19d29d5" y="554.04"/>
     <use style="fill:#808080;stroke:#808080;" x="469.724835" xlink:href="#m18e19d29d5" y="554.04"/>
     <use style="fill:#808080;stroke:#808080;" x="471.687033" xlink:href="#m18e19d29d5" y="554.04"/>
     <use style="fill:#808080;stroke:#808080;" x="473.649231" xlink:href="#m18e19d29d5" y="554.04"/>
     <use style="fill:#808080;stroke:#808080;" x="475.611429" xlink:href="#m18e19d29d5" y="554.04"/>
     <use style="fill:#808080;stroke:#808080;" x="477.573626" xlink:href="#m18e19d29d5" y="554.04"/>
     <use style="fill:#808080;stroke:#808080;" x="479.535824" xlink:href="#m18e19d29d5" y="554.04"/>
     <use style="fill:#808080;stroke:#808080;" x="481.498022" xlink:href="#m18e19d29d5" y="554.04"/>
     <use style="fill:#808080;stroke:#808080;" x="483.46022" xlink:href="#m18e19d29d5" y="554.04"/>
     <use style="fill:#808080;stroke:#808080;" x="485.422418" xlink:href="#m18e19d29d5" y="554.04"/>
     <use style="fill:#808080;stroke:#808080;" x="487.384615" xlink:href="#m18e19d29d5" y="554.04"/>
     <use style="fill:#808080;stroke:#808080;" x="489.346813" xlink:href="#m18e19d29d5" y="554.04"/>
     <use style="fill:#808080;stroke:#808080;" x="491.309011" xlink:href="#m18e19d29d5" y="554.04"/>
     <use style="fill:#808080;stroke:#808080;" x="493.271209" xlink:href="#m18e19d29d5" y="554.04"/>
     <use style="fill:#808080;stroke:#808080;" x="495.233407" xlink:href="#m18e19d29d5" y="554.04"/>
     <use style="fill:#808080;stroke:#808080;" x="497.195604" xlink:href="#m18e19d29d5" y="554.04"/>
     <use style="fill:#808080;stroke:#808080;" x="499.157802" xlink:href="#m18e19d29d5" y="554.04"/>
     <use style="fill:#808080;stroke:#808080;" x="501.12" xlink:href="#m18e19d29d5" y="554.04"/>
     <use style="fill:#808080;stroke:#808080;" x="503.082198" xlink:href="#m18e19d29d5" y="554.04"/>
     <use style="fill:#808080;stroke:#808080;" x="505.044396" xlink:href="#m18e19d29d5" y="554.04"/>
     <use style="fill:#808080;stroke:#808080;" x="507.006593" xlink:href="#m18e19d29d5" y="554.04"/>
     <use style="fill:#808080;stroke:#808080;" x="508.968791" xlink:href="#m18e19d29d5" y="554.04"/>
     <use style="fill:#808080;stroke:#808080;" x="510.930989" xlink:href="#m18e19d29d5" y="554.04"/>
     <use style="fill:#808080;stroke:#808080;" x="512.893187" xlink:href="#m18e19d29d5" y="554.04"/>
     <use style="fill:#808080;stroke:#808080;" x="514.855385" xlink:href="#m18e19d29d5" y="554.04"/>
     <use style="fill:#808080;stroke:#808080;" x="516.817582" xlink:href="#m18e19d29d5" y="554.04"/>
     <use style="fill:#808080;stroke:#808080;" x="518.77978" xlink:href="#m18e19d29d5" y="554.04"/>
     <use style="fill:#808080;stroke:#808080;" x="520.741978" xlink:href="#m18e19d29d5" y="554.04"/>
     <use style="fill:#808080;stroke:#808080;" x="522.704176" xlink:href="#m18e19d29d5" y="554.04"/>
     <use style="fill:#808080;stroke:#808080;" x="524.666374" xlink:href="#m18e19d29d5" y="539.865"/>
     <use style="fill:#808080;stroke:#808080;" x="526.628571" xlink:href="#m18e19d29d5" y="554.04"/>
     <use style="fill:#808080;stroke:#808080;" x="528.590769" xlink:href="#m18e19d29d5" y="554.04"/>
     <use style="fill:#808080;stroke:#808080;" x="530.552967" xlink:href="#m18e19d29d5" y="554.04"/>
     <use style="fill:#808080;stroke:#808080;" x="532.515165" xlink:href="#m18e19d29d5" y="554.04"/>
     <use style="fill:#808080;stroke:#808080;" x="534.477363" xlink:href="#m18e19d29d5" y="554.04"/>
     <use style="fill:#808080;stroke:#808080;" x="536.43956" xlink:href="#m18e19d29d5" y="554.04"/>
     <use style="fill:#808080;stroke:#808080;" x="538.401758" xlink:href="#m18e19d29d5" y="554.04"/>
     <use style="fill:#808080;stroke:#808080;" x="540.363956" xlink:href="#m18e19d29d5" y="539.865"/>
     <use style="fill:#808080;stroke:#808080;" x="542.326154" xlink:href="#m18e19d29d5" y="554.04"/>
     <use style="fill:#808080;stroke:#808080;" x="544.288352" xlink:href="#m18e19d29d5" y="554.04"/>
     <use style="fill:#808080;stroke:#808080;" x="546.250549" xlink:href="#m18e19d29d5" y="554.04"/>
     <use style="fill:#808080;stroke:#808080;" x="548.212747" xlink:href="#m18e19d29d5" y="554.04"/>
     <use style="fill:#808080;stroke:#808080;" x="550.174945" xlink:href="#m18e19d29d5" y="554.04"/>
     <use style="fill:#808080;stroke:#808080;" x="552.137143" xlink:href="#m18e19d29d5" y="554.04"/>
     <use style="fill:#808080;stroke:#808080;" x="554.099341" xlink:href="#m18e19d29d5" y="554.04"/>
     <use style="fill:#808080;stroke:#808080;" x="556.061538" xlink:href="#m18e19d29d5" y="554.04"/>
     <use style="fill:#808080;stroke:#808080;" x="558.023736" xlink:href="#m18e19d29d5" y="554.04"/>
     <use style="fill:#808080;stroke:#808080;" x="559.985934" xlink:href="#m18e19d29d5" y="554.04"/>
     <use style="fill:#808080;stroke:#808080;" x="561.948132" xlink:href="#m18e19d29d5" y="554.04"/>
     <use style="fill:#808080;stroke:#808080;" x="563.91033" xlink:href="#m18e19d29d5" y="539.865"/>
     <use style="fill:#808080;stroke:#808080;" x="565.872527" xlink:href="#m18e19d29d5" y="554.04"/>
     <use style="fill:#808080;stroke:#808080;" x="567.834725" xlink:href="#m18e19d29d5" y="554.04"/>
     <use style="fill:#808080;stroke:#808080;" x="569.796923" xlink:href="#m18e19d29d5" y="554.04"/>
     <use style="fill:#808080;stroke:#808080;" x="571.759121" xlink:href="#m18e19d29d5" y="554.04"/>
     <use style="fill:#808080;stroke:#808080;" x="573.721319" xlink:href="#m18e19d29d5" y="554.04"/>
     <use style="fill:#808080;stroke:#808080;" x="575.683516" xlink:href="#m18e19d29d5" y="554.04"/>
     <use style="fill:#808080;stroke:#808080;" x="577.645714" xlink:href="#m18e19d29d5" y="554.04"/>
     <use style="fill:#808080;stroke:#808080;" x="579.607912" xlink:href="#m18e19d29d5" y="554.04"/>
     <use style="fill:#808080;stroke:#808080;" x="581.57011" xlink:href="#m18e19d29d5" y="554.04"/>
     <use style="fill:#808080;stroke:#808080;" x="583.532308" xlink:href="#m18e19d29d5" y="554.04"/>
     <use style="fill:#808080;stroke:#808080;" x="585.494505" xlink:href="#m18e19d29d5" y="554.04"/>
     <use style="fill:#808080;stroke:#808080;" x="587.456703" xlink:href="#m18e19d29d5" y="554.04"/>
     <use style="fill:#808080;stroke:#808080;" x="589.418901" xlink:href="#m18e19d29d5" y="554.04"/>
     <use style="fill:#808080;stroke:#808080;" x="591.381099" xlink:href="#m18e19d29d5" y="554.04"/>
     <use style="fill:#808080;stroke:#808080;" x="593.343297" xlink:href="#m18e19d29d5" y="554.04"/>
     <use style="fill:#808080;stroke:#808080;" x="595.305495" xlink:href="#m18e19d29d5" y="554.04"/>
     <use style="fill:#808080;stroke:#808080;" x="597.267692" xlink:href="#m18e19d29d5" y="554.04"/>
     <use style="fill:#808080;stroke:#808080;" x="599.22989" xlink:href="#m18e19d29d5" y="554.04"/>
     <use style="fill:#808080;stroke:#808080;" x="601.192088" xlink:href="#m18e19d29d5" y="554.04"/>
     <use style="fill:#808080;stroke:#808080;" x="603.154286" xlink:href="#m18e19d29d5" y="554.04"/>
     <use style="fill:#808080;stroke:#808080;" x="605.116484" xlink:href="#m18e19d29d5" y="554.04"/>
     <use style="fill:#808080;stroke:#808080;" x="607.078681" xlink:href="#m18e19d29d5" y="554.04"/>
     <use style="fill:#808080;stroke:#808080;" x="609.040879" xlink:href="#m18e19d29d5" y="539.865"/>
     <use style="fill:#808080;stroke:#808080;" x="611.003077" xlink:href="#m18e19d29d5" y="554.04"/>
     <use style="fill:#808080;stroke:#808080;" x="612.965275" xlink:href="#m18e19d29d5" y="554.04"/>
     <use style="fill:#808080;stroke:#808080;" x="614.927473" xlink:href="#m18e19d29d5" y="554.04"/>
     <use style="fill:#808080;stroke:#808080;" x="616.88967" xlink:href="#m18e19d29d5" y="539.865"/>
     <use style="fill:#808080;stroke:#808080;" x="618.851868" xlink:href="#m18e19d29d5" y="539.865"/>
     <use style="fill:#808080;stroke:#808080;" x="620.814066" xlink:href="#m18e19d29d5" y="539.865"/>
     <use style="fill:#808080;stroke:#808080;" x="622.776264" xlink:href="#m18e19d29d5" y="525.69"/>
     <use style="fill:#808080;stroke:#808080;" x="624.738462" xlink:href="#m18e19d29d5" y="511.515"/>
     <use style="fill:#808080;stroke:#808080;" x="626.700659" xlink:href="#m18e19d29d5" y="525.69"/>
     <use style="fill:#808080;stroke:#808080;" x="628.662857" xlink:href="#m18e19d29d5" y="497.34"/>
     <use style="fill:#808080;stroke:#808080;" x="630.625055" xlink:href="#m18e19d29d5" y="554.04"/>
     <use style="fill:#808080;stroke:#808080;" x="632.587253" xlink:href="#m18e19d29d5" y="525.69"/>
     <use style="fill:#808080;stroke:#808080;" x="634.549451" xlink:href="#m18e19d29d5" y="554.04"/>
     <use style="fill:#808080;stroke:#808080;" x="636.511648" xlink:href="#m18e19d29d5" y="539.865"/>
     <use style="fill:#808080;stroke:#808080;" x="638.473846" xlink:href="#m18e19d29d5" y="511.515"/>
     <use style="fill:#808080;stroke:#808080;" x="640.436044" xlink:href="#m18e19d29d5" y="539.865"/>
     <use style="fill:#808080;stroke:#808080;" x="642.398242" xlink:href="#m18e19d29d5" y="554.04"/>
     <use style="fill:#808080;stroke:#808080;" x="644.36044" xlink:href="#m18e19d29d5" y="525.69"/>
     <use style="fill:#808080;stroke:#808080;" x="646.322637" xlink:href="#m18e19d29d5" y="539.865"/>
     <use style="fill:#808080;stroke:#808080;" x="648.284835" xlink:href="#m18e19d29d5" y="511.515"/>
     <use style="fill:#808080;stroke:#808080;" x="650.247033" xlink:href="#m18e19d29d5" y="525.69"/>
     <use style="fill:#808080;stroke:#808080;" x="652.209231" xlink:href="#m18e19d29d5" y="539.865"/>
     <use style="fill:#808080;stroke:#808080;" x="654.171429" xlink:href="#m18e19d29d5" y="511.515"/>
     <use style="fill:#808080;stroke:#808080;" x="656.133626" xlink:href="#m18e19d29d5" y="511.515"/>
     <use style="fill:#808080;stroke:#808080;" x="658.095824" xlink:href="#m18e19d29d5" y="554.04"/>
     <use style="fill:#808080;stroke:#808080;" x="660.058022" xlink:href="#m18e19d29d5" y="511.515"/>
     <use style="fill:#808080;stroke:#808080;" x="662.02022" xlink:href="#m18e19d29d5" y="398.115"/>
     <use style="fill:#808080;stroke:#808080;" x="663.982418" xlink:href="#m18e19d29d5" y="511.515"/>
     <use style="fill:#808080;stroke:#808080;" x="665.944615" xlink:href="#m18e19d29d5" y="511.515"/>
     <use style="fill:#808080;stroke:#808080;" x="667.906813" xlink:href="#m18e19d29d5" y="554.04"/>
     <use style="fill:#808080;stroke:#808080;" x="669.869011" xlink:href="#m18e19d29d5" y="525.69"/>
     <use style="fill:#808080;stroke:#808080;" x="671.831209" xlink:href="#m18e19d29d5" y="554.04"/>
     <use style="fill:#808080;stroke:#808080;" x="673.793407" xlink:href="#m18e19d29d5" y="511.515"/>
     <use style="fill:#808080;stroke:#808080;" x="675.755604" xlink:href="#m18e19d29d5" y="426.465"/>
     <use style="fill:#808080;stroke:#808080;" x="677.717802" xlink:href="#m18e19d29d5" y="539.865"/>
     <use style="fill:#808080;stroke:#808080;" x="679.68" xlink:href="#m18e19d29d5" y="554.04"/>
     <use style="fill:#808080;stroke:#808080;" x="681.642198" xlink:href="#m18e19d29d5" y="539.865"/>
     <use style="fill:#808080;stroke:#808080;" x="683.604396" xlink:href="#m18e19d29d5" y="539.865"/>
     <use style="fill:#808080;stroke:#808080;" x="685.566593" xlink:href="#m18e19d29d5" y="539.865"/>
     <use style="fill:#808080;stroke:#808080;" x="687.528791" xlink:href="#m18e19d29d5" y="511.515"/>
     <use style="fill:#808080;stroke:#808080;" x="689.490989" xlink:href="#m18e19d29d5" y="511.515"/>
     <use style="fill:#808080;stroke:#808080;" x="691.453187" xlink:href="#m18e19d29d5" y="497.34"/>
     <use style="fill:#808080;stroke:#808080;" x="693.415385" xlink:href="#m18e19d29d5" y="554.04"/>
     <use style="fill:#808080;stroke:#808080;" x="695.377582" xlink:href="#m18e19d29d5" y="468.99"/>
     <use style="fill:#808080;stroke:#808080;" x="697.33978" xlink:href="#m18e19d29d5" y="511.515"/>
     <use style="fill:#808080;stroke:#808080;" x="699.301978" xlink:href="#m18e19d29d5" y="554.04"/>
     <use style="fill:#808080;stroke:#808080;" x="701.264176" xlink:href="#m18e19d29d5" y="483.165"/>
     <use style="fill:#808080;stroke:#808080;" x="703.226374" xlink:href="#m18e19d29d5" y="412.29"/>
     <use style="fill:#808080;stroke:#808080;" x="705.188571" xlink:href="#m18e19d29d5" y="539.865"/>
     <use style="fill:#808080;stroke:#808080;" x="707.150769" xlink:href="#m18e19d29d5" y="454.815"/>
     <use style="fill:#808080;stroke:#808080;" x="709.112967" xlink:href="#m18e19d29d5" y="525.69"/>
     <use style="fill:#808080;stroke:#808080;" x="711.075165" xlink:href="#m18e19d29d5" y="483.165"/>
     <use style="fill:#808080;stroke:#808080;" x="713.037363" xlink:href="#m18e19d29d5" y="468.99"/>
     <use style="fill:#808080;stroke:#808080;" x="714.99956" xlink:href="#m18e19d29d5" y="468.99"/>
     <use style="fill:#808080;stroke:#808080;" x="716.961758" xlink:href="#m18e19d29d5" y="554.04"/>
     <use style="fill:#808080;stroke:#808080;" x="718.923956" xlink:href="#m18e19d29d5" y="383.94"/>
     <use style="fill:#808080;stroke:#808080;" x="720.886154" xlink:href="#m18e19d29d5" y="369.765"/>
     <use style="fill:#808080;stroke:#808080;" x="722.848352" xlink:href="#m18e19d29d5" y="398.115"/>
     <use style="fill:#808080;stroke:#808080;" x="724.810549" xlink:href="#m18e19d29d5" y="511.515"/>
     <use style="fill:#808080;stroke:#808080;" x="726.772747" xlink:href="#m18e19d29d5" y="440.64"/>
     <use style="fill:#808080;stroke:#808080;" x="728.734945" xlink:href="#m18e19d29d5" y="426.465"/>
     <use style="fill:#808080;stroke:#808080;" x="730.697143" xlink:href="#m18e19d29d5" y="440.64"/>
     <use style="fill:#808080;stroke:#808080;" x="732.659341" xlink:href="#m18e19d29d5" y="412.29"/>
     <use style="fill:#808080;stroke:#808080;" x="734.621538" xlink:href="#m18e19d29d5" y="383.94"/>
     <use style="fill:#808080;stroke:#808080;" x="736.583736" xlink:href="#m18e19d29d5" y="454.815"/>
     <use style="fill:#808080;stroke:#808080;" x="738.545934" xlink:href="#m18e19d29d5" y="554.04"/>
     <use style="fill:#808080;stroke:#808080;" x="740.508132" xlink:href="#m18e19d29d5" y="468.99"/>
     <use style="fill:#808080;stroke:#808080;" x="742.47033" xlink:href="#m18e19d29d5" y="554.04"/>
     <use style="fill:#808080;stroke:#808080;" x="744.432527" xlink:href="#m18e19d29d5" y="426.465"/>
     <use style="fill:#808080;stroke:#808080;" x="746.394725" xlink:href="#m18e19d29d5" y="398.115"/>
     <use style="fill:#808080;stroke:#808080;" x="748.356923" xlink:href="#m18e19d29d5" y="539.865"/>
     <use style="fill:#808080;stroke:#808080;" x="750.319121" xlink:href="#m18e19d29d5" y="454.815"/>
     <use style="fill:#808080;stroke:#808080;" x="752.281319" xlink:href="#m18e19d29d5" y="539.865"/>
     <use style="fill:#808080;stroke:#808080;" x="754.243516" xlink:href="#m18e19d29d5" y="497.34"/>
     <use style="fill:#808080;stroke:#808080;" x="756.205714" xlink:href="#m18e19d29d5" y="412.29"/>
     <use style="fill:#808080;stroke:#808080;" x="758.167912" xlink:href="#m18e19d29d5" y="383.94"/>
     <use style="fill:#808080;stroke:#808080;" x="760.13011" xlink:href="#m18e19d29d5" y="327.24"/>
     <use style="fill:#808080;stroke:#808080;" x="762.092308" xlink:href="#m18e19d29d5" y="355.59"/>
     <use style="fill:#808080;stroke:#808080;" x="764.054505" xlink:href="#m18e19d29d5" y="100.44"/>
     <use style="fill:#808080;stroke:#808080;" x="766.016703" xlink:href="#m18e19d29d5" y="398.115"/>
     <use style="fill:#808080;stroke:#808080;" x="767.978901" xlink:href="#m18e19d29d5" y="511.515"/>
     <use style="fill:#808080;stroke:#808080;" x="769.941099" xlink:href="#m18e19d29d5" y="383.94"/>
     <use style="fill:#808080;stroke:#808080;" x="771.903297" xlink:href="#m18e19d29d5" y="398.115"/>
     <use style="fill:#808080;stroke:#808080;" x="773.865495" xlink:href="#m18e19d29d5" y="242.19"/>
     <use style="fill:#808080;stroke:#808080;" x="775.827692" xlink:href="#m18e19d29d5" y="398.115"/>
     <use style="fill:#808080;stroke:#808080;" x="777.78989" xlink:href="#m18e19d29d5" y="454.815"/>
     <use style="fill:#808080;stroke:#808080;" x="779.752088" xlink:href="#m18e19d29d5" y="525.69"/>
     <use style="fill:#808080;stroke:#808080;" x="781.714286" xlink:href="#m18e19d29d5" y="511.515"/>
     <use style="fill:#808080;stroke:#808080;" x="783.676484" xlink:href="#m18e19d29d5" y="313.065"/>
     <use style="fill:#808080;stroke:#808080;" x="785.638681" xlink:href="#m18e19d29d5" y="497.34"/>
     <use style="fill:#808080;stroke:#808080;" x="787.600879" xlink:href="#m18e19d29d5" y="369.765"/>
     <use style="fill:#808080;stroke:#808080;" x="789.563077" xlink:href="#m18e19d29d5" y="426.465"/>
     <use style="fill:#808080;stroke:#808080;" x="791.525275" xlink:href="#m18e19d29d5" y="171.315"/>
     <use style="fill:#808080;stroke:#808080;" x="793.487473" xlink:href="#m18e19d29d5" y="483.165"/>
     <use style="fill:#808080;stroke:#808080;" x="795.44967" xlink:href="#m18e19d29d5" y="511.515"/>
     <use style="fill:#808080;stroke:#808080;" x="797.411868" xlink:href="#m18e19d29d5" y="454.815"/>
     <use style="fill:#808080;stroke:#808080;" x="799.374066" xlink:href="#m18e19d29d5" y="440.64"/>
     <use style="fill:#808080;stroke:#808080;" x="801.336264" xlink:href="#m18e19d29d5" y="454.815"/>
     <use style="fill:#808080;stroke:#808080;" x="803.298462" xlink:href="#m18e19d29d5" y="426.465"/>
     <use style="fill:#808080;stroke:#808080;" x="805.260659" xlink:href="#m18e19d29d5" y="398.115"/>
     <use style="fill:#808080;stroke:#808080;" x="807.222857" xlink:href="#m18e19d29d5" y="483.165"/>
     <use style="fill:#808080;stroke:#808080;" x="809.185055" xlink:href="#m18e19d29d5" y="539.865"/>
     <use style="fill:#808080;stroke:#808080;" x="811.147253" xlink:href="#m18e19d29d5" y="468.99"/>
     <use style="fill:#808080;stroke:#808080;" x="813.109451" xlink:href="#m18e19d29d5" y="426.465"/>
     <use style="fill:#808080;stroke:#808080;" x="815.071648" xlink:href="#m18e19d29d5" y="440.64"/>
     <use style="fill:#808080;stroke:#808080;" x="817.033846" xlink:href="#m18e19d29d5" y="468.99"/>
     <use style="fill:#808080;stroke:#808080;" x="818.996044" xlink:href="#m18e19d29d5" y="426.465"/>
     <use style="fill:#808080;stroke:#808080;" x="820.958242" xlink:href="#m18e19d29d5" y="440.64"/>
     <use style="fill:#808080;stroke:#808080;" x="822.92044" xlink:href="#m18e19d29d5" y="511.515"/>
     <use style="fill:#808080;stroke:#808080;" x="824.882637" xlink:href="#m18e19d29d5" y="539.865"/>
     <use style="fill:#808080;stroke:#808080;" x="826.844835" xlink:href="#m18e19d29d5" y="440.64"/>
     <use style="fill:#808080;stroke:#808080;" x="828.807033" xlink:href="#m18e19d29d5" y="440.64"/>
     <use style="fill:#808080;stroke:#808080;" x="830.769231" xlink:href="#m18e19d29d5" y="525.69"/>
     <use style="fill:#808080;stroke:#808080;" x="832.731429" xlink:href="#m18e19d29d5" y="426.465"/>
     <use style="fill:#808080;stroke:#808080;" x="834.693626" xlink:href="#m18e19d29d5" y="511.515"/>
     <use style="fill:#808080;stroke:#808080;" x="836.655824" xlink:href="#m18e19d29d5" y="554.04"/>
     <use style="fill:#808080;stroke:#808080;" x="838.618022" xlink:href="#m18e19d29d5" y="412.29"/>
     <use style="fill:#808080;stroke:#808080;" x="840.58022" xlink:href="#m18e19d29d5" y="511.515"/>
     <use style="fill:#808080;stroke:#808080;" x="842.542418" xlink:href="#m18e19d29d5" y="483.165"/>
     <use style="fill:#808080;stroke:#808080;" x="844.504615" xlink:href="#m18e19d29d5" y="483.165"/>
     <use style="fill:#808080;stroke:#808080;" x="846.466813" xlink:href="#m18e19d29d5" y="440.64"/>
     <use style="fill:#808080;stroke:#808080;" x="848.429011" xlink:href="#m18e19d29d5" y="554.04"/>
     <use style="fill:#808080;stroke:#808080;" x="850.391209" xlink:href="#m18e19d29d5" y="554.04"/>
     <use style="fill:#808080;stroke:#808080;" x="852.353407" xlink:href="#m18e19d29d5" y="511.515"/>
     <use style="fill:#808080;stroke:#808080;" x="854.315604" xlink:href="#m18e19d29d5" y="539.865"/>
     <use style="fill:#808080;stroke:#808080;" x="856.277802" xlink:href="#m18e19d29d5" y="483.165"/>
     <use style="fill:#808080;stroke:#808080;" x="858.24" xlink:href="#m18e19d29d5" y="440.64"/>
     <use style="fill:#808080;stroke:#808080;" x="860.202198" xlink:href="#m18e19d29d5" y="539.865"/>
     <use style="fill:#808080;stroke:#808080;" x="862.164396" xlink:href="#m18e19d29d5" y="511.515"/>
     <use style="fill:#808080;stroke:#808080;" x="864.126593" xlink:href="#m18e19d29d5" y="539.865"/>
     <use style="fill:#808080;stroke:#808080;" x="866.088791" xlink:href="#m18e19d29d5" y="525.69"/>
     <use style="fill:#808080;stroke:#808080;" x="868.050989" xlink:href="#m18e19d29d5" y="497.34"/>
     <use style="fill:#808080;stroke:#808080;" x="870.013187" xlink:href="#m18e19d29d5" y="483.165"/>
     <use style="fill:#808080;stroke:#808080;" x="871.975385" xlink:href="#m18e19d29d5" y="468.99"/>
     <use style="fill:#808080;stroke:#808080;" x="873.937582" xlink:href="#m18e19d29d5" y="511.515"/>
     <use style="fill:#808080;stroke:#808080;" x="875.89978" xlink:href="#m18e19d29d5" y="539.865"/>
     <use style="fill:#808080;stroke:#808080;" x="877.861978" xlink:href="#m18e19d29d5" y="554.04"/>
     <use style="fill:#808080;stroke:#808080;" x="879.824176" xlink:href="#m18e19d29d5" y="525.69"/>
     <use style="fill:#808080;stroke:#808080;" x="881.786374" xlink:href="#m18e19d29d5" y="412.29"/>
     <use style="fill:#808080;stroke:#808080;" x="883.748571" xlink:href="#m18e19d29d5" y="539.865"/>
     <use style="fill:#808080;stroke:#808080;" x="885.710769" xlink:href="#m18e19d29d5" y="554.04"/>
     <use style="fill:#808080;stroke:#808080;" x="887.672967" xlink:href="#m18e19d29d5" y="454.815"/>
     <use style="fill:#808080;stroke:#808080;" x="889.635165" xlink:href="#m18e19d29d5" y="554.04"/>
     <use style="fill:#808080;stroke:#808080;" x="891.597363" xlink:href="#m18e19d29d5" y="554.04"/>
     <use style="fill:#808080;stroke:#808080;" x="893.55956" xlink:href="#m18e19d29d5" y="511.515"/>
     <use style="fill:#808080;stroke:#808080;" x="895.521758" xlink:href="#m18e19d29d5" y="554.04"/>
     <use style="fill:#808080;stroke:#808080;" x="897.483956" xlink:href="#m18e19d29d5" y="554.04"/>
     <use style="fill:#808080;stroke:#808080;" x="899.446154" xlink:href="#m18e19d29d5" y="525.69"/>
     <use style="fill:#808080;stroke:#808080;" x="901.408352" xlink:href="#m18e19d29d5" y="525.69"/>
     <use style="fill:#808080;stroke:#808080;" x="903.370549" xlink:href="#m18e19d29d5" y="554.04"/>
     <use style="fill:#808080;stroke:#808080;" x="905.332747" xlink:href="#m18e19d29d5" y="554.04"/>
     <use style="fill:#808080;stroke:#808080;" x="907.294945" xlink:href="#m18e19d29d5" y="511.515"/>
     <use style="fill:#808080;stroke:#808080;" x="909.257143" xlink:href="#m18e19d29d5" y="554.04"/>
     <use style="fill:#808080;stroke:#808080;" x="911.219341" xlink:href="#m18e19d29d5" y="554.04"/>
     <use style="fill:#808080;stroke:#808080;" x="913.181538" xlink:href="#m18e19d29d5" y="539.865"/>
     <use style="fill:#808080;stroke:#808080;" x="915.143736" xlink:href="#m18e19d29d5" y="525.69"/>
     <use style="fill:#808080;stroke:#808080;" x="917.105934" xlink:href="#m18e19d29d5" y="554.04"/>
     <use style="fill:#808080;stroke:#808080;" x="919.068132" xlink:href="#m18e19d29d5" y="554.04"/>
     <use style="fill:#808080;stroke:#808080;" x="921.03033" xlink:href="#m18e19d29d5" y="554.04"/>
     <use style="fill:#808080;stroke:#808080;" x="922.992527" xlink:href="#m18e19d29d5" y="539.865"/>
     <use style="fill:#808080;stroke:#808080;" x="924.954725" xlink:href="#m18e19d29d5" y="539.865"/>
     <use style="fill:#808080;stroke:#808080;" x="926.916923" xlink:href="#m18e19d29d5" y="539.865"/>
     <use style="fill:#808080;stroke:#808080;" x="928.879121" xlink:href="#m18e19d29d5" y="554.04"/>
     <use style="fill:#808080;stroke:#808080;" x="930.841319" xlink:href="#m18e19d29d5" y="554.04"/>
     <use style="fill:#808080;stroke:#808080;" x="932.803516" xlink:href="#m18e19d29d5" y="554.04"/>
     <use style="fill:#808080;stroke:#808080;" x="934.765714" xlink:href="#m18e19d29d5" y="554.04"/>
     <use style="fill:#808080;stroke:#808080;" x="936.727912" xlink:href="#m18e19d29d5" y="525.69"/>
     <use style="fill:#808080;stroke:#808080;" x="938.69011" xlink:href="#m18e19d29d5" y="525.69"/>
     <use style="fill:#808080;stroke:#808080;" x="940.652308" xlink:href="#m18e19d29d5" y="539.865"/>
     <use style="fill:#808080;stroke:#808080;" x="942.614505" xlink:href="#m18e19d29d5" y="554.04"/>
     <use style="fill:#808080;stroke:#808080;" x="944.576703" xlink:href="#m18e19d29d5" y="554.04"/>
     <use style="fill:#808080;stroke:#808080;" x="946.538901" xlink:href="#m18e19d29d5" y="554.04"/>
     <use style="fill:#808080;stroke:#808080;" x="948.501099" xlink:href="#m18e19d29d5" y="525.69"/>
     <use style="fill:#808080;stroke:#808080;" x="950.463297" xlink:href="#m18e19d29d5" y="483.165"/>
     <use style="fill:#808080;stroke:#808080;" x="952.425495" xlink:href="#m18e19d29d5" y="539.865"/>
     <use style="fill:#808080;stroke:#808080;" x="954.387692" xlink:href="#m18e19d29d5" y="525.69"/>
     <use style="fill:#808080;stroke:#808080;" x="956.34989" xlink:href="#m18e19d29d5" y="554.04"/>
     <use style="fill:#808080;stroke:#808080;" x="958.312088" xlink:href="#m18e19d29d5" y="554.04"/>
     <use style="fill:#808080;stroke:#808080;" x="960.274286" xlink:href="#m18e19d29d5" y="539.865"/>
     <use style="fill:#808080;stroke:#808080;" x="962.236484" xlink:href="#m18e19d29d5" y="554.04"/>
     <use style="fill:#808080;stroke:#808080;" x="964.198681" xlink:href="#m18e19d29d5" y="539.865"/>
     <use style="fill:#808080;stroke:#808080;" x="966.160879" xlink:href="#m18e19d29d5" y="525.69"/>
     <use style="fill:#808080;stroke:#808080;" x="968.123077" xlink:href="#m18e19d29d5" y="539.865"/>
     <use style="fill:#808080;stroke:#808080;" x="970.085275" xlink:href="#m18e19d29d5" y="539.865"/>
     <use style="fill:#808080;stroke:#808080;" x="972.047473" xlink:href="#m18e19d29d5" y="539.865"/>
     <use style="fill:#808080;stroke:#808080;" x="974.00967" xlink:href="#m18e19d29d5" y="554.04"/>
     <use style="fill:#808080;stroke:#808080;" x="975.971868" xlink:href="#m18e19d29d5" y="483.165"/>
     <use style="fill:#808080;stroke:#808080;" x="977.934066" xlink:href="#m18e19d29d5" y="539.865"/>
     <use style="fill:#808080;stroke:#808080;" x="979.896264" xlink:href="#m18e19d29d5" y="525.69"/>
     <use style="fill:#808080;stroke:#808080;" x="981.858462" xlink:href="#m18e19d29d5" y="525.69"/>
     <use style="fill:#808080;stroke:#808080;" x="983.820659" xlink:href="#m18e19d29d5" y="539.865"/>
     <use style="fill:#808080;stroke:#808080;" x="985.782857" xlink:href="#m18e19d29d5" y="554.04"/>
     <use style="fill:#808080;stroke:#808080;" x="987.745055" xlink:href="#m18e19d29d5" y="539.865"/>
     <use style="fill:#808080;stroke:#808080;" x="989.707253" xlink:href="#m18e19d29d5" y="539.865"/>
     <use style="fill:#808080;stroke:#808080;" x="991.669451" xlink:href="#m18e19d29d5" y="539.865"/>
     <use style="fill:#808080;stroke:#808080;" x="993.631648" xlink:href="#m18e19d29d5" y="554.04"/>
     <use style="fill:#808080;stroke:#808080;" x="995.593846" xlink:href="#m18e19d29d5" y="539.865"/>
     <use style="fill:#808080;stroke:#808080;" x="997.556044" xlink:href="#m18e19d29d5" y="511.515"/>
     <use style="fill:#808080;stroke:#808080;" x="999.518242" xlink:href="#m18e19d29d5" y="554.04"/>
     <use style="fill:#808080;stroke:#808080;" x="1001.48044" xlink:href="#m18e19d29d5" y="554.04"/>
     <use style="fill:#808080;stroke:#808080;" x="1003.442637" xlink:href="#m18e19d29d5" y="554.04"/>
     <use style="fill:#808080;stroke:#808080;" x="1005.404835" xlink:href="#m18e19d29d5" y="497.34"/>
     <use style="fill:#808080;stroke:#808080;" x="1007.367033" xlink:href="#m18e19d29d5" y="511.515"/>
     <use style="fill:#808080;stroke:#808080;" x="1009.329231" xlink:href="#m18e19d29d5" y="554.04"/>
     <use style="fill:#808080;stroke:#808080;" x="1011.291429" xlink:href="#m18e19d29d5" y="511.515"/>
     <use style="fill:#808080;stroke:#808080;" x="1013.253626" xlink:href="#m18e19d29d5" y="539.865"/>
     <use style="fill:#808080;stroke:#808080;" x="1015.215824" xlink:href="#m18e19d29d5" y="554.04"/>
     <use style="fill:#808080;stroke:#808080;" x="1017.178022" xlink:href="#m18e19d29d5" y="525.69"/>
     <use style="fill:#808080;stroke:#808080;" x="1019.14022" xlink:href="#m18e19d29d5" y="539.865"/>
     <use style="fill:#808080;stroke:#808080;" x="1021.102418" xlink:href="#m18e19d29d5" y="454.815"/>
     <use style="fill:#808080;stroke:#808080;" x="1023.064615" xlink:href="#m18e19d29d5" y="511.515"/>
     <use style="fill:#808080;stroke:#808080;" x="1025.026813" xlink:href="#m18e19d29d5" y="497.34"/>
     <use style="fill:#808080;stroke:#808080;" x="1026.989011" xlink:href="#m18e19d29d5" y="539.865"/>
     <use style="fill:#808080;stroke:#808080;" x="1028.951209" xlink:href="#m18e19d29d5" y="539.865"/>
     <use style="fill:#808080;stroke:#808080;" x="1030.913407" xlink:href="#m18e19d29d5" y="554.04"/>
     <use style="fill:#808080;stroke:#808080;" x="1032.875604" xlink:href="#m18e19d29d5" y="554.04"/>
     <use style="fill:#808080;stroke:#808080;" x="1034.837802" xlink:href="#m18e19d29d5" y="468.99"/>
     <use style="fill:#808080;stroke:#808080;" x="1036.8" xlink:href="#m18e19d29d5" y="525.69"/>
    </g>
   </g>
   <g id="patch_3">
    <path d="M 144 576.72 
L 144 77.76 
" style="fill:none;stroke:#000000;stroke-linecap:square;stroke-linejoin:miter;stroke-width:0.8;"/>
   </g>
   <g id="patch_4">
    <path d="M 1036.8 576.72 
L 1036.8 77.76 
" style="fill:none;stroke:#000000;stroke-linecap:square;stroke-linejoin:miter;stroke-width:0.8;"/>
   </g>
   <g id="patch_5">
    <path d="M 144 576.72 
L 1036.8 576.72 
" style="fill:none;stroke:#000000;stroke-linecap:square;stroke-linejoin:miter;stroke-width:0.8;"/>
   </g>
   <g id="patch_6">
    <path d="M 144 77.76 
L 1036.8 77.76 
" style="fill:none;stroke:#000000;stroke-linecap:square;stroke-linejoin:miter;stroke-width:0.8;"/>
   </g>
   <g id="legend_1">
    <g id="patch_7">
     <path d="M 883.44375 159.150625 
L 1029.8 159.150625 
Q 1031.8 159.150625 1031.8 157.150625 
L 1031.8 84.76 
Q 1031.8 82.76 1029.8 82.76 
L 883.44375 82.76 
Q 881.44375 82.76 881.44375 84.76 
L 881.44375 157.150625 
Q 881.44375 159.150625 883.44375 159.150625 
z
" style="fill:#ffffff;opacity:0.8;stroke:#cccccc;stroke-linejoin:miter;"/>
    </g>
    <g id="line2d_26">
     <path d="M 885.44375 90.858438 
L 905.44375 90.858438 
" style="fill:none;stroke:#808080;stroke-dasharray:1.5,2.475;stroke-dashoffset:0;stroke-width:1.5;"/>
    </g>
    <g id="line2d_27">
     <g>
      <use style="fill:#808080;stroke:#808080;" x="895.44375" xlink:href="#m18e19d29d5" y="90.858438"/>
     </g>
    </g>
    <g id="text_14">
     <!-- Deaths -->
     <g transform="translate(913.44375 94.358438)scale(0.1 -0.1)">
      <defs>
       <path d="M 1259 4147 
L 1259 519 
L 2022 519 
Q 2988 519 3436 956 
Q 3884 1394 3884 2338 
Q 3884 3275 3436 3711 
Q 2988 4147 2022 4147 
L 1259 4147 
z
M 628 4666 
L 1925 4666 
Q 3281 4666 3915 4102 
Q 4550 3538 4550 2338 
Q 4550 1131 3912 565 
Q 3275 0 1925 0 
L 628 0 
L 628 4666 
z
" id="DejaVuSans-44" transform="scale(0.015625)"/>
       <path d="M 3597 1894 
L 3597 1613 
L 953 1613 
Q 991 1019 1311 708 
Q 1631 397 2203 397 
Q 2534 397 2845 478 
Q 3156 559 3463 722 
L 3463 178 
Q 3153 47 2828 -22 
Q 2503 -91 2169 -91 
Q 1331 -91 842 396 
Q 353 884 353 1716 
Q 353 2575 817 3079 
Q 1281 3584 2069 3584 
Q 2775 3584 3186 3129 
Q 3597 2675 3597 1894 
z
M 3022 2063 
Q 3016 2534 2758 2815 
Q 2500 3097 2075 3097 
Q 1594 3097 1305 2825 
Q 1016 2553 972 2059 
L 3022 2063 
z
" id="DejaVuSans-65" transform="scale(0.015625)"/>
       <path d="M 3513 2113 
L 3513 0 
L 2938 0 
L 2938 2094 
Q 2938 2591 2744 2837 
Q 2550 3084 2163 3084 
Q 1697 3084 1428 2787 
Q 1159 2491 1159 1978 
L 1159 0 
L 581 0 
L 581 4863 
L 1159 4863 
L 1159 2956 
Q 1366 3272 1645 3428 
Q 1925 3584 2291 3584 
Q 2894 3584 3203 3211 
Q 3513 2838 3513 2113 
z
" id="DejaVuSans-68" transform="scale(0.015625)"/>
       <path d="M 2834 3397 
L 2834 2853 
Q 2591 2978 2328 3040 
Q 2066 3103 1784 3103 
Q 1356 3103 1142 2972 
Q 928 2841 928 2578 
Q 928 2378 1081 2264 
Q 1234 2150 1697 2047 
L 1894 2003 
Q 2506 1872 2764 1633 
Q 3022 1394 3022 966 
Q 3022 478 2636 193 
Q 2250 -91 1575 -91 
Q 1294 -91 989 -36 
Q 684 19 347 128 
L 347 722 
Q 666 556 975 473 
Q 1284 391 1588 391 
Q 1994 391 2212 530 
Q 2431 669 2431 922 
Q 2431 1156 2273 1281 
Q 2116 1406 1581 1522 
L 1381 1569 
Q 847 1681 609 1914 
Q 372 2147 372 2553 
Q 372 3047 722 3315 
Q 1072 3584 1716 3584 
Q 2034 3584 2315 3537 
Q 2597 3491 2834 3397 
z
" id="DejaVuSans-73" transform="scale(0.015625)"/>
      </defs>
      <use xlink:href="#DejaVuSans-44"/>
      <use x="77.001953" xlink:href="#DejaVuSans-65"/>
      <use x="138.525391" xlink:href="#DejaVuSans-61"/>
      <use x="199.804688" xlink:href="#DejaVuSans-74"/>
      <use x="239.013672" xlink:href="#DejaVuSans-68"/>
      <use x="302.392578" xlink:href="#DejaVuSans-73"/>
     </g>
    </g>
    <g id="line2d_28">
     <path d="M 885.44375 105.536563 
L 905.44375 105.536563 
" style="fill:none;stroke:#1f77b4;stroke-linecap:square;stroke-width:1.5;"/>
    </g>
    <g id="line2d_29"/>
    <g id="text_15">
     <!-- ICU low care (right) -->
     <g transform="translate(913.44375 109.036563)scale(0.1 -0.1)">
      <defs>
       <path d="M 628 4666 
L 1259 4666 
L 1259 0 
L 628 0 
L 628 4666 
z
" id="DejaVuSans-49" transform="scale(0.015625)"/>
       <path d="M 4122 4306 
L 4122 3641 
Q 3803 3938 3442 4084 
Q 3081 4231 2675 4231 
Q 1875 4231 1450 3742 
Q 1025 3253 1025 2328 
Q 1025 1406 1450 917 
Q 1875 428 2675 428 
Q 3081 428 3442 575 
Q 3803 722 4122 1019 
L 4122 359 
Q 3791 134 3420 21 
Q 3050 -91 2638 -91 
Q 1578 -91 968 557 
Q 359 1206 359 2328 
Q 359 3453 968 4101 
Q 1578 4750 2638 4750 
Q 3056 4750 3426 4639 
Q 3797 4528 4122 4306 
z
" id="DejaVuSans-43" transform="scale(0.015625)"/>
       <path d="M 556 4666 
L 1191 4666 
L 1191 1831 
Q 1191 1081 1462 751 
Q 1734 422 2344 422 
Q 2950 422 3222 751 
Q 3494 1081 3494 1831 
L 3494 4666 
L 4128 4666 
L 4128 1753 
Q 4128 841 3676 375 
Q 3225 -91 2344 -91 
Q 1459 -91 1007 375 
Q 556 841 556 1753 
L 556 4666 
z
" id="DejaVuSans-55" transform="scale(0.015625)"/>
       <path id="DejaVuSans-20" transform="scale(0.015625)"/>
       <path d="M 1959 3097 
Q 1497 3097 1228 2736 
Q 959 2375 959 1747 
Q 959 1119 1226 758 
Q 1494 397 1959 397 
Q 2419 397 2687 759 
Q 2956 1122 2956 1747 
Q 2956 2369 2687 2733 
Q 2419 3097 1959 3097 
z
M 1959 3584 
Q 2709 3584 3137 3096 
Q 3566 2609 3566 1747 
Q 3566 888 3137 398 
Q 2709 -91 1959 -91 
Q 1206 -91 779 398 
Q 353 888 353 1747 
Q 353 2609 779 3096 
Q 1206 3584 1959 3584 
z
" id="DejaVuSans-6f" transform="scale(0.015625)"/>
       <path d="M 269 3500 
L 844 3500 
L 1563 769 
L 2278 3500 
L 2956 3500 
L 3675 769 
L 4391 3500 
L 4966 3500 
L 4050 0 
L 3372 0 
L 2619 2869 
L 1863 0 
L 1184 0 
L 269 3500 
z
" id="DejaVuSans-77" transform="scale(0.015625)"/>
       <path d="M 1984 4856 
Q 1566 4138 1362 3434 
Q 1159 2731 1159 2009 
Q 1159 1288 1364 580 
Q 1569 -128 1984 -844 
L 1484 -844 
Q 1016 -109 783 600 
Q 550 1309 550 2009 
Q 550 2706 781 3412 
Q 1013 4119 1484 4856 
L 1984 4856 
z
" id="DejaVuSans-28" transform="scale(0.015625)"/>
       <path d="M 603 3500 
L 1178 3500 
L 1178 0 
L 603 0 
L 603 3500 
z
M 603 4863 
L 1178 4863 
L 1178 4134 
L 603 4134 
L 603 4863 
z
" id="DejaVuSans-69" transform="scale(0.015625)"/>
       <path d="M 2906 1791 
Q 2906 2416 2648 2759 
Q 2391 3103 1925 3103 
Q 1463 3103 1205 2759 
Q 947 2416 947 1791 
Q 947 1169 1205 825 
Q 1463 481 1925 481 
Q 2391 481 2648 825 
Q 2906 1169 2906 1791 
z
M 3481 434 
Q 3481 -459 3084 -895 
Q 2688 -1331 1869 -1331 
Q 1566 -1331 1297 -1286 
Q 1028 -1241 775 -1147 
L 775 -588 
Q 1028 -725 1275 -790 
Q 1522 -856 1778 -856 
Q 2344 -856 2625 -561 
Q 2906 -266 2906 331 
L 2906 616 
Q 2728 306 2450 153 
Q 2172 0 1784 0 
Q 1141 0 747 490 
Q 353 981 353 1791 
Q 353 2603 747 3093 
Q 1141 3584 1784 3584 
Q 2172 3584 2450 3431 
Q 2728 3278 2906 2969 
L 2906 3500 
L 3481 3500 
L 3481 434 
z
" id="DejaVuSans-67" transform="scale(0.015625)"/>
       <path d="M 513 4856 
L 1013 4856 
Q 1481 4119 1714 3412 
Q 1947 2706 1947 2009 
Q 1947 1309 1714 600 
Q 1481 -109 1013 -844 
L 513 -844 
Q 928 -128 1133 580 
Q 1338 1288 1338 2009 
Q 1338 2731 1133 3434 
Q 928 4138 513 4856 
z
" id="DejaVuSans-29" transform="scale(0.015625)"/>
      </defs>
      <use xlink:href="#DejaVuSans-49"/>
      <use x="29.492188" xlink:href="#DejaVuSans-43"/>
      <use x="99.316406" xlink:href="#DejaVuSans-55"/>
      <use x="172.509766" xlink:href="#DejaVuSans-20"/>
      <use x="204.296875" xlink:href="#DejaVuSans-6c"/>
      <use x="232.080078" xlink:href="#DejaVuSans-6f"/>
      <use x="293.261719" xlink:href="#DejaVuSans-77"/>
      <use x="375.048828" xlink:href="#DejaVuSans-20"/>
      <use x="406.835938" xlink:href="#DejaVuSans-63"/>
      <use x="461.816406" xlink:href="#DejaVuSans-61"/>
      <use x="523.095703" xlink:href="#DejaVuSans-72"/>
      <use x="561.958984" xlink:href="#DejaVuSans-65"/>
      <use x="623.482422" xlink:href="#DejaVuSans-20"/>
      <use x="655.269531" xlink:href="#DejaVuSans-28"/>
      <use x="694.283203" xlink:href="#DejaVuSans-72"/>
      <use x="735.396484" xlink:href="#DejaVuSans-69"/>
      <use x="763.179688" xlink:href="#DejaVuSans-67"/>
      <use x="826.65625" xlink:href="#DejaVuSans-68"/>
      <use x="890.035156" xlink:href="#DejaVuSans-74"/>
      <use x="929.244141" xlink:href="#DejaVuSans-29"/>
     </g>
    </g>
    <g id="line2d_30">
     <path d="M 885.44375 120.214688 
L 905.44375 120.214688 
" style="fill:none;stroke:#ff7f0e;stroke-linecap:square;stroke-width:1.5;"/>
    </g>
    <g id="line2d_31"/>
    <g id="text_16">
     <!-- ICU high care (right) -->
     <g transform="translate(913.44375 123.714688)scale(0.1 -0.1)">
      <use xlink:href="#DejaVuSans-49"/>
      <use x="29.492188" xlink:href="#DejaVuSans-43"/>
      <use x="99.316406" xlink:href="#DejaVuSans-55"/>
      <use x="172.509766" xlink:href="#DejaVuSans-20"/>
      <use x="204.296875" xlink:href="#DejaVuSans-68"/>
      <use x="267.675781" xlink:href="#DejaVuSans-69"/>
      <use x="295.458984" xlink:href="#DejaVuSans-67"/>
      <use x="358.935547" xlink:href="#DejaVuSans-68"/>
      <use x="422.314453" xlink:href="#DejaVuSans-20"/>
      <use x="454.101562" xlink:href="#DejaVuSans-63"/>
      <use x="509.082031" xlink:href="#DejaVuSans-61"/>
      <use x="570.361328" xlink:href="#DejaVuSans-72"/>
      <use x="609.224609" xlink:href="#DejaVuSans-65"/>
      <use x="670.748047" xlink:href="#DejaVuSans-20"/>
      <use x="702.535156" xlink:href="#DejaVuSans-28"/>
      <use x="741.548828" xlink:href="#DejaVuSans-72"/>
      <use x="782.662109" xlink:href="#DejaVuSans-69"/>
      <use x="810.445312" xlink:href="#DejaVuSans-67"/>
      <use x="873.921875" xlink:href="#DejaVuSans-68"/>
      <use x="937.300781" xlink:href="#DejaVuSans-74"/>
      <use x="976.509766" xlink:href="#DejaVuSans-29"/>
     </g>
    </g>
    <g id="line2d_32">
     <path d="M 885.44375 134.892813 
L 905.44375 134.892813 
" style="fill:none;stroke:#2ca02c;stroke-linecap:square;stroke-width:1.5;"/>
    </g>
    <g id="line2d_33"/>
    <g id="text_17">
     <!-- ECMO (right) -->
     <g transform="translate(913.44375 138.392813)scale(0.1 -0.1)">
      <defs>
       <path d="M 628 4666 
L 3578 4666 
L 3578 4134 
L 1259 4134 
L 1259 2753 
L 3481 2753 
L 3481 2222 
L 1259 2222 
L 1259 531 
L 3634 531 
L 3634 0 
L 628 0 
L 628 4666 
z
" id="DejaVuSans-45" transform="scale(0.015625)"/>
       <path d="M 628 4666 
L 1569 4666 
L 2759 1491 
L 3956 4666 
L 4897 4666 
L 4897 0 
L 4281 0 
L 4281 4097 
L 3078 897 
L 2444 897 
L 1241 4097 
L 1241 0 
L 628 0 
L 628 4666 
z
" id="DejaVuSans-4d" transform="scale(0.015625)"/>
      </defs>
      <use xlink:href="#DejaVuSans-45"/>
      <use x="63.183594" xlink:href="#DejaVuSans-43"/>
      <use x="133.007812" xlink:href="#DejaVuSans-4d"/>
      <use x="219.287109" xlink:href="#DejaVuSans-4f"/>
      <use x="297.998047" xlink:href="#DejaVuSans-20"/>
      <use x="329.785156" xlink:href="#DejaVuSans-28"/>
      <use x="368.798828" xlink:href="#DejaVuSans-72"/>
      <use x="409.912109" xlink:href="#DejaVuSans-69"/>
      <use x="437.695312" xlink:href="#DejaVuSans-67"/>
      <use x="501.171875" xlink:href="#DejaVuSans-68"/>
      <use x="564.550781" xlink:href="#DejaVuSans-74"/>
      <use x="603.759766" xlink:href="#DejaVuSans-29"/>
     </g>
    </g>
    <g id="line2d_34">
     <path d="M 885.44375 149.570938 
L 905.44375 149.570938 
" style="fill:none;stroke:#d62728;stroke-linecap:square;stroke-width:1.5;"/>
    </g>
    <g id="line2d_35"/>
    <g id="text_18">
     <!-- COVID-19 cases (right) -->
     <g transform="translate(913.44375 153.070938)scale(0.1 -0.1)">
      <defs>
       <path d="M 1831 0 
L 50 4666 
L 709 4666 
L 2188 738 
L 3669 4666 
L 4325 4666 
L 2547 0 
L 1831 0 
z
" id="DejaVuSans-56" transform="scale(0.015625)"/>
       <path d="M 313 2009 
L 1997 2009 
L 1997 1497 
L 313 1497 
L 313 2009 
z
" id="DejaVuSans-2d" transform="scale(0.015625)"/>
       <path d="M 703 97 
L 703 672 
Q 941 559 1184 500 
Q 1428 441 1663 441 
Q 2288 441 2617 861 
Q 2947 1281 2994 2138 
Q 2813 1869 2534 1725 
Q 2256 1581 1919 1581 
Q 1219 1581 811 2004 
Q 403 2428 403 3163 
Q 403 3881 828 4315 
Q 1253 4750 1959 4750 
Q 2769 4750 3195 4129 
Q 3622 3509 3622 2328 
Q 3622 1225 3098 567 
Q 2575 -91 1691 -91 
Q 1453 -91 1209 -44 
Q 966 3 703 97 
z
M 1959 2075 
Q 2384 2075 2632 2365 
Q 2881 2656 2881 3163 
Q 2881 3666 2632 3958 
Q 2384 4250 1959 4250 
Q 1534 4250 1286 3958 
Q 1038 3666 1038 3163 
Q 1038 2656 1286 2365 
Q 1534 2075 1959 2075 
z
" id="DejaVuSans-39" transform="scale(0.015625)"/>
      </defs>
      <use xlink:href="#DejaVuSans-43"/>
      <use x="69.824219" xlink:href="#DejaVuSans-4f"/>
      <use x="146.785156" xlink:href="#DejaVuSans-56"/>
      <use x="215.193359" xlink:href="#DejaVuSans-49"/>
      <use x="244.685547" xlink:href="#DejaVuSans-44"/>
      <use x="321.6875" xlink:href="#DejaVuSans-2d"/>
      <use x="357.771484" xlink:href="#DejaVuSans-31"/>
      <use x="421.394531" xlink:href="#DejaVuSans-39"/>
      <use x="485.017578" xlink:href="#DejaVuSans-20"/>
      <use x="516.804688" xlink:href="#DejaVuSans-63"/>
      <use x="571.785156" xlink:href="#DejaVuSans-61"/>
      <use x="633.064453" xlink:href="#DejaVuSans-73"/>
      <use x="685.164062" xlink:href="#DejaVuSans-65"/>
      <use x="746.6875" xlink:href="#DejaVuSans-73"/>
      <use x="798.787109" xlink:href="#DejaVuSans-20"/>
      <use x="830.574219" xlink:href="#DejaVuSans-28"/>
      <use x="869.587891" xlink:href="#DejaVuSans-72"/>
      <use x="910.701172" xlink:href="#DejaVuSans-69"/>
      <use x="938.484375" xlink:href="#DejaVuSans-67"/>
      <use x="1001.960938" xlink:href="#DejaVuSans-68"/>
      <use x="1065.339844" xlink:href="#DejaVuSans-74"/>
      <use x="1104.548828" xlink:href="#DejaVuSans-29"/>
     </g>
    </g>
   </g>
  </g>
  <g id="axes_2">
   <g id="matplotlib.axis_3">
    <g id="ytick_8">
     <g id="line2d_36">
      <defs>
       <path d="M 0 0 
L 3.5 0 
" id="mf8500bd377" style="stroke:#000000;stroke-width:0.8;"/>
      </defs>
      <g>
       <use style="stroke:#000000;stroke-width:0.8;" x="1036.8" xlink:href="#mf8500bd377" y="576.72"/>
      </g>
     </g>
     <g id="text_19">
      <!-- available -->
      <g transform="translate(1043.8 580.519219)scale(0.1 -0.1)">
       <defs>
        <path d="M 191 3500 
L 800 3500 
L 1894 563 
L 2988 3500 
L 3597 3500 
L 2284 0 
L 1503 0 
L 191 3500 
z
" id="DejaVuSans-76" transform="scale(0.015625)"/>
        <path d="M 3116 1747 
Q 3116 2381 2855 2742 
Q 2594 3103 2138 3103 
Q 1681 3103 1420 2742 
Q 1159 2381 1159 1747 
Q 1159 1113 1420 752 
Q 1681 391 2138 391 
Q 2594 391 2855 752 
Q 3116 1113 3116 1747 
z
M 1159 2969 
Q 1341 3281 1617 3432 
Q 1894 3584 2278 3584 
Q 2916 3584 3314 3078 
Q 3713 2572 3713 1747 
Q 3713 922 3314 415 
Q 2916 -91 2278 -91 
Q 1894 -91 1617 61 
Q 1341 213 1159 525 
L 1159 0 
L 581 0 
L 581 4863 
L 1159 4863 
L 1159 2969 
z
" id="DejaVuSans-62" transform="scale(0.015625)"/>
       </defs>
       <use xlink:href="#DejaVuSans-61"/>
       <use x="61.279297" xlink:href="#DejaVuSans-76"/>
       <use x="120.458984" xlink:href="#DejaVuSans-61"/>
       <use x="181.738281" xlink:href="#DejaVuSans-69"/>
       <use x="209.521484" xlink:href="#DejaVuSans-6c"/>
       <use x="237.304688" xlink:href="#DejaVuSans-61"/>
       <use x="298.583984" xlink:href="#DejaVuSans-62"/>
       <use x="362.060547" xlink:href="#DejaVuSans-6c"/>
       <use x="389.84375" xlink:href="#DejaVuSans-65"/>
      </g>
     </g>
    </g>
    <g id="ytick_9">
     <g id="line2d_37">
      <g>
       <use style="stroke:#000000;stroke-width:0.8;" x="1036.8" xlink:href="#mf8500bd377" y="327.24"/>
      </g>
     </g>
     <g id="text_20">
      <!-- limited -->
      <g transform="translate(1043.8 331.039219)scale(0.1 -0.1)">
       <defs>
        <path d="M 3328 2828 
Q 3544 3216 3844 3400 
Q 4144 3584 4550 3584 
Q 5097 3584 5394 3201 
Q 5691 2819 5691 2113 
L 5691 0 
L 5113 0 
L 5113 2094 
Q 5113 2597 4934 2840 
Q 4756 3084 4391 3084 
Q 3944 3084 3684 2787 
Q 3425 2491 3425 1978 
L 3425 0 
L 2847 0 
L 2847 2094 
Q 2847 2600 2669 2842 
Q 2491 3084 2119 3084 
Q 1678 3084 1418 2786 
Q 1159 2488 1159 1978 
L 1159 0 
L 581 0 
L 581 3500 
L 1159 3500 
L 1159 2956 
Q 1356 3278 1631 3431 
Q 1906 3584 2284 3584 
Q 2666 3584 2933 3390 
Q 3200 3197 3328 2828 
z
" id="DejaVuSans-6d" transform="scale(0.015625)"/>
       </defs>
       <use xlink:href="#DejaVuSans-6c"/>
       <use x="27.783203" xlink:href="#DejaVuSans-69"/>
       <use x="55.566406" xlink:href="#DejaVuSans-6d"/>
       <use x="152.978516" xlink:href="#DejaVuSans-69"/>
       <use x="180.761719" xlink:href="#DejaVuSans-74"/>
       <use x="219.970703" xlink:href="#DejaVuSans-65"/>
       <use x="281.494141" xlink:href="#DejaVuSans-64"/>
      </g>
     </g>
    </g>
    <g id="ytick_10">
     <g id="line2d_38">
      <g>
       <use style="stroke:#000000;stroke-width:0.8;" x="1036.8" xlink:href="#mf8500bd377" y="77.76"/>
      </g>
     </g>
     <g id="text_21">
      <!-- unavailable -->
      <g transform="translate(1043.8 81.559219)scale(0.1 -0.1)">
       <use xlink:href="#DejaVuSans-75"/>
       <use x="63.378906" xlink:href="#DejaVuSans-6e"/>
       <use x="126.757812" xlink:href="#DejaVuSans-61"/>
       <use x="188.037109" xlink:href="#DejaVuSans-76"/>
       <use x="247.216797" xlink:href="#DejaVuSans-61"/>
       <use x="308.496094" xlink:href="#DejaVuSans-69"/>
       <use x="336.279297" xlink:href="#DejaVuSans-6c"/>
       <use x="364.0625" xlink:href="#DejaVuSans-61"/>
       <use x="425.341797" xlink:href="#DejaVuSans-62"/>
       <use x="488.818359" xlink:href="#DejaVuSans-6c"/>
       <use x="516.601562" xlink:href="#DejaVuSans-65"/>
      </g>
     </g>
    </g>
   </g>
   <g id="line2d_39">
    <path clip-path="url(#p25d7d14ad5)" d="M 616.88967 222.195789 
L 618.851868 257.835789 
L 620.814066 261.587368 
L 622.776264 252.833684 
L 624.738462 209.065263 
L 628.662857 235.326316 
L 630.625055 222.195789 
L 632.587253 195.934737 
L 634.549451 176.238947 
L 636.511648 169.673684 
L 638.473846 156.543158 
L 640.436044 156.543158 
L 642.398242 169.673684 
L 644.36044 195.934737 
L 646.322637 182.804211 
L 648.284835 176.238947 
L 650.247033 182.804211 
L 652.209231 195.934737 
L 656.133626 169.673684 
L 662.02022 169.673684 
L 665.944615 195.934737 
L 673.793407 195.934737 
L 675.755604 182.804211 
L 681.642198 182.804211 
L 683.604396 209.065263 
L 685.566593 182.804211 
L 687.528791 209.065263 
L 689.490989 209.065263 
L 691.453187 235.326316 
L 693.415385 235.326316 
L 695.377582 209.065263 
L 697.33978 248.456842 
L 699.301978 235.326316 
L 701.264176 248.456842 
L 703.226374 235.326316 
L 705.188571 261.587368 
L 707.150769 235.326316 
L 713.037363 235.326316 
L 714.99956 261.587368 
L 716.961758 261.587368 
L 718.923956 247.263158 
L 720.886154 235.326316 
L 722.848352 261.587368 
L 726.772747 261.587368 
L 728.734945 235.326316 
L 730.697143 235.326316 
L 732.659341 244.08 
L 736.583736 244.08 
L 738.545934 230.22 
L 740.508132 271.8 
L 742.47033 285.66 
L 744.432527 244.08 
L 746.394725 271.8 
L 748.356923 285.66 
L 750.319121 257.94 
L 752.281319 271.8 
L 754.243516 257.94 
L 756.205714 271.8 
L 760.13011 271.8 
L 762.092308 230.22 
L 764.054505 216.36 
L 766.016703 244.08 
L 767.978901 230.22 
L 769.941099 202.5 
L 771.903297 271.8 
L 773.865495 285.66 
L 775.827692 244.08 
L 777.78989 271.8 
L 779.752088 285.66 
L 781.714286 285.66 
L 783.676484 299.52 
L 785.638681 257.94 
L 787.600879 285.66 
L 789.563077 244.08 
L 791.525275 257.94 
L 793.487473 257.94 
L 795.44967 230.22 
L 797.411868 271.8 
L 799.374066 271.8 
L 807.222857 327.24 
L 809.185055 299.52 
L 811.147253 244.08 
L 813.109451 271.8 
L 815.071648 313.38 
L 817.033846 299.52 
L 818.996044 299.52 
L 822.92044 271.8 
L 824.882637 313.38 
L 826.844835 313.38 
L 828.807033 271.8 
L 830.769231 313.38 
L 832.731429 285.66 
L 836.655824 257.94 
L 838.618022 253.863529 
L 840.58022 268.538824 
L 842.542418 253.863529 
L 844.504615 253.863529 
L 850.391209 209.837647 
L 852.353407 224.512941 
L 854.315604 209.837647 
L 856.277802 180.487059 
L 858.24 195.162353 
L 860.202198 165.811765 
L 862.164396 165.811765 
L 864.126593 151.136471 
L 866.088791 209.837647 
L 868.050989 224.512941 
L 870.013187 224.512941 
L 871.975385 268.538824 
L 873.937582 209.837647 
L 875.89978 209.837647 
L 879.824176 239.188235 
L 881.786374 195.162353 
L 883.748571 165.811765 
L 885.710769 209.837647 
L 887.672967 239.188235 
L 889.635165 224.512941 
L 891.597363 239.188235 
L 893.55956 209.837647 
L 897.483956 209.837647 
L 899.446154 224.512941 
L 903.370549 224.512941 
L 905.332747 239.188235 
M 942.614505 209.837647 
L 944.576703 209.837647 
L 946.538901 224.512941 
L 948.501099 195.162353 
L 950.463297 268.538824 
L 952.425495 253.863529 
L 954.387692 283.214118 
L 956.34989 283.214118 
M 970.085275 239.188235 
L 972.047473 239.188235 
L 974.00967 253.863529 
L 975.971868 224.512941 
L 977.934066 268.538824 
L 979.896264 239.188235 
L 983.820659 268.538824 
L 985.782857 258.755294 
L 987.745055 246.525882 
L 989.707253 239.188235 
L 991.669451 253.863529 
L 993.631648 253.863529 
L 995.593846 246.525882 
L 997.556044 283.214118 
L 999.518242 239.188235 
L 1001.48044 273.430588 
L 1003.442637 253.863529 
L 1005.404835 268.538824 
L 1007.367033 268.538824 
L 1009.329231 301.558235 
L 1011.291429 297.889412 
L 1013.253626 312.564706 
M 1021.102418 209.837647 
L 1023.064615 202.5 
L 1025.026813 209.837647 
L 1026.989011 209.837647 
L 1028.951209 195.162353 
L 1030.913407 217.175294 
L 1032.875604 217.175294 
L 1034.837802 195.162353 
L 1036.8 209.837647 
L 1036.8 209.837647 
" style="fill:none;stroke:#1f77b4;stroke-linecap:square;stroke-width:1.5;"/>
   </g>
   <g id="line2d_40">
    <path clip-path="url(#p25d7d14ad5)" d="M 616.88967 182.804211 
L 620.814066 182.804211 
L 622.776264 174.050526 
L 624.738462 143.412632 
L 626.700659 169.673684 
L 636.511648 169.673684 
L 640.436044 143.412632 
L 642.398242 156.543158 
L 644.36044 195.934737 
L 646.322637 209.065263 
L 648.284835 195.934737 
L 650.247033 235.326316 
L 652.209231 248.456842 
L 656.133626 222.195789 
L 658.095824 195.934737 
L 663.982418 195.934737 
L 665.944615 209.065263 
L 667.906813 195.934737 
L 669.869011 195.934737 
L 671.831209 182.804211 
L 673.793407 182.804211 
L 675.755604 169.673684 
L 679.68 169.673684 
L 683.604396 222.195789 
L 685.566593 209.065263 
L 687.528791 235.326316 
L 689.490989 213.442105 
L 691.453187 235.326316 
L 693.415385 235.326316 
L 695.377582 209.065263 
L 697.33978 248.456842 
L 699.301978 235.326316 
L 701.264176 274.717895 
L 703.226374 261.587368 
L 705.188571 287.848421 
L 707.150769 261.587368 
L 713.037363 261.587368 
L 714.99956 340.370526 
L 716.961758 314.109474 
L 718.923956 272.330526 
L 720.886154 235.326316 
L 722.848352 261.587368 
L 724.810549 261.587368 
L 726.772747 274.717895 
L 728.734945 261.587368 
L 730.697143 261.587368 
L 732.659341 271.8 
L 734.621538 285.66 
L 736.583736 257.94 
L 738.545934 257.94 
L 740.508132 299.52 
L 742.47033 299.52 
L 744.432527 271.8 
L 748.356923 327.24 
L 750.319121 285.66 
L 752.281319 285.66 
L 754.243516 271.8 
L 756.205714 285.66 
L 760.13011 285.66 
L 762.092308 244.08 
L 764.054505 230.22 
L 766.016703 257.94 
L 769.941099 230.22 
L 773.865495 257.94 
L 775.827692 244.08 
L 777.78989 271.8 
L 779.752088 285.66 
L 781.714286 285.66 
L 783.676484 299.52 
L 785.638681 244.08 
L 787.600879 285.66 
L 789.563077 271.8 
L 793.487473 299.52 
L 795.44967 257.94 
L 797.411868 271.8 
L 799.374066 313.38 
L 801.336264 299.52 
L 807.222857 341.1 
L 809.185055 313.38 
L 811.147253 299.52 
L 813.109451 327.24 
L 815.071648 313.38 
L 818.996044 313.38 
L 820.958242 299.52 
L 822.92044 313.38 
L 824.882637 313.38 
L 826.844835 327.24 
L 828.807033 285.66 
L 830.769231 313.38 
L 832.731429 313.38 
L 834.693626 299.52 
L 836.655824 271.8 
L 838.618022 268.538824 
L 840.58022 283.214118 
L 842.542418 268.538824 
L 844.504615 268.538824 
L 846.466813 253.863529 
L 850.391209 253.863529 
L 854.315604 224.512941 
L 856.277802 180.487059 
L 858.24 195.162353 
L 860.202198 180.487059 
L 862.164396 180.487059 
L 864.126593 165.811765 
L 866.088791 224.512941 
L 870.013187 224.512941 
L 871.975385 253.863529 
L 873.937582 209.837647 
L 875.89978 224.512941 
L 877.861978 224.512941 
L 879.824176 239.188235 
L 881.786374 224.512941 
L 883.748571 180.487059 
L 887.672967 239.188235 
L 889.635165 224.512941 
L 891.597363 239.188235 
L 895.521758 209.837647 
L 897.483956 209.837647 
L 899.446154 239.188235 
L 905.332747 239.188235 
M 942.614505 253.863529 
L 944.576703 239.188235 
L 946.538901 253.863529 
L 948.501099 239.188235 
L 950.463297 283.214118 
L 952.425495 283.214118 
L 954.387692 312.564706 
L 956.34989 312.564706 
M 970.085275 268.538824 
L 974.00967 268.538824 
L 975.971868 253.863529 
L 977.934066 297.889412 
L 979.896264 297.889412 
L 981.858462 312.564706 
L 983.820659 312.564706 
L 985.782857 302.781176 
L 987.745055 275.876471 
L 989.707253 283.214118 
L 991.669451 297.889412 
L 993.631648 297.889412 
L 995.593846 290.551765 
L 997.556044 327.24 
L 999.518242 283.214118 
L 1001.48044 302.781176 
L 1003.442637 297.889412 
L 1005.404835 312.564706 
L 1007.367033 312.564706 
L 1009.329231 327.24 
L 1013.253626 297.889412 
M 1021.102418 239.188235 
L 1023.064615 231.850588 
L 1025.026813 253.863529 
L 1026.989011 253.863529 
L 1028.951209 239.188235 
L 1030.913407 253.863529 
L 1032.875604 246.525882 
L 1034.837802 224.512941 
L 1036.8 224.512941 
L 1036.8 224.512941 
" style="fill:none;stroke:#ff7f0e;stroke-linecap:square;stroke-width:1.5;"/>
   </g>
   <g id="line2d_41">
    <path clip-path="url(#p25d7d14ad5)" d="M 616.88967 130.282105 
L 622.776264 130.282105 
L 624.738462 169.673684 
L 642.398242 169.673684 
L 644.36044 117.151579 
L 660.058022 117.151579 
L 662.02022 248.456842 
L 663.982418 117.151579 
L 667.906813 117.151579 
L 669.869011 143.412632 
L 671.831209 143.412632 
L 673.793407 117.151579 
L 681.642198 117.151579 
L 683.604396 248.456842 
L 685.566593 248.456842 
L 687.528791 300.978947 
L 691.453187 300.978947 
L 693.415385 314.109474 
L 695.377582 156.543158 
L 697.33978 156.543158 
L 699.301978 314.109474 
L 701.264176 300.978947 
L 705.188571 300.978947 
L 707.150769 248.456842 
L 713.037363 248.456842 
L 714.99956 169.673684 
L 730.697143 169.673684 
L 732.659341 174.78 
L 734.621538 174.78 
L 738.545934 119.34 
L 758.167912 119.34 
L 760.13011 174.78 
L 762.092308 174.78 
L 764.054505 230.22 
L 771.903297 230.22 
L 773.865495 285.66 
L 775.827692 299.52 
L 797.411868 299.52 
L 799.374066 271.8 
L 803.298462 271.8 
L 805.260659 244.08 
L 809.185055 244.08 
L 811.147253 299.52 
L 818.996044 299.52 
L 820.958242 424.26 
L 826.844835 424.26 
L 828.807033 368.82 
L 832.731429 368.82 
L 834.693626 396.54 
L 836.655824 396.54 
L 838.618022 415.291765 
L 844.504615 415.291765 
L 846.466813 297.889412 
L 852.353407 297.889412 
L 854.315604 415.291765 
L 856.277802 415.291765 
L 858.24 356.590588 
L 868.050989 356.590588 
L 870.013187 239.188235 
L 887.672967 239.188235 
L 889.635165 327.24 
L 891.597363 283.214118 
L 893.55956 283.214118 
L 895.521758 268.538824 
L 897.483956 297.889412 
L 899.446154 180.487059 
L 905.332747 180.487059 
M 942.614505 444.642353 
L 946.538901 444.642353 
L 948.501099 327.24 
L 952.425495 327.24 
L 954.387692 393.278824 
L 956.34989 371.265882 
M 970.085275 488.668235 
L 972.047473 488.668235 
L 974.00967 327.24 
L 981.858462 327.24 
L 983.820659 415.291765 
L 1001.48044 415.291765 
L 1005.404835 297.889412 
L 1007.367033 297.889412 
L 1009.329231 253.863529 
L 1011.291429 297.889412 
L 1013.253626 297.889412 
M 1021.102418 297.889412 
L 1023.064615 268.538824 
L 1025.026813 268.538824 
L 1028.951209 385.941176 
L 1032.875604 356.590588 
L 1036.8 356.590588 
L 1036.8 356.590588 
" style="fill:none;stroke:#2ca02c;stroke-linecap:square;stroke-width:1.5;"/>
   </g>
   <g id="line2d_42">
    <path clip-path="url(#p25d7d14ad5)" d="M 0 0 
" style="fill:none;stroke:#d62728;stroke-linecap:square;stroke-width:1.5;"/>
   </g>
   <g id="patch_8">
    <path d="M 144 576.72 
L 144 77.76 
" style="fill:none;stroke:#000000;stroke-linecap:square;stroke-linejoin:miter;stroke-width:0.8;"/>
   </g>
   <g id="patch_9">
    <path d="M 1036.8 576.72 
L 1036.8 77.76 
" style="fill:none;stroke:#000000;stroke-linecap:square;stroke-linejoin:miter;stroke-width:0.8;"/>
   </g>
   <g id="patch_10">
    <path d="M 144 576.72 
L 1036.8 576.72 
" style="fill:none;stroke:#000000;stroke-linecap:square;stroke-linejoin:miter;stroke-width:0.8;"/>
   </g>
   <g id="patch_11">
    <path d="M 144 77.76 
L 1036.8 77.76 
" style="fill:none;stroke:#000000;stroke-linecap:square;stroke-linejoin:miter;stroke-width:0.8;"/>
   </g>
   <g id="text_22">
    <!-- Saarland -->
    <g transform="translate(563.815313 71.76)scale(0.12 -0.12)">
     <use xlink:href="#DejaVuSans-53"/>
     <use x="63.476562" xlink:href="#DejaVuSans-61"/>
     <use x="124.755859" xlink:href="#DejaVuSans-61"/>
     <use x="186.035156" xlink:href="#DejaVuSans-72"/>
     <use x="227.148438" xlink:href="#DejaVuSans-6c"/>
     <use x="254.931641" xlink:href="#DejaVuSans-61"/>
     <use x="316.210938" xlink:href="#DejaVuSans-6e"/>
     <use x="379.589844" xlink:href="#DejaVuSans-64"/>
    </g>
   </g>
  </g>
 </g>
 <defs>
  <clipPath id="p25d7d14ad5">
   <rect height="498.96" width="892.8" x="144" y="77.76"/>
  </clipPath>
 </defs>
</svg>
