<?xml version="1.0" encoding="utf-8" standalone="no"?>
<!DOCTYPE svg PUBLIC "-//W3C//DTD SVG 1.1//EN"
  "http://www.w3.org/Graphics/SVG/1.1/DTD/svg11.dtd">
<svg height="648pt" version="1.1" viewBox="0 0 1152 648" width="1152pt" xmlns="http://www.w3.org/2000/svg" xmlns:xlink="http://www.w3.org/1999/xlink">
 <metadata>
  <rdf:RDF xmlns:cc="http://creativecommons.org/ns#" xmlns:dc="http://purl.org/dc/elements/1.1/" xmlns:rdf="http://www.w3.org/1999/02/22-rdf-syntax-ns#">
   <cc:Work>
    <dc:type rdf:resource="http://purl.org/dc/dcmitype/StillImage"/>
    <dc:date>2021-04-29T10:09:33.002216</dc:date>
    <dc:format>image/svg+xml</dc:format>
    <dc:creator>
     <cc:Agent>
      <dc:title>Matplotlib v3.4.1, https://matplotlib.org/</dc:title>
     </cc:Agent>
    </dc:creator>
   </cc:Work>
  </rdf:RDF>
 </metadata>
 <defs>
  <style type="text/css">*{stroke-linecap:butt;stroke-linejoin:round;}</style>
 </defs>
 <g id="figure_1">
  <g id="patch_1">
   <path d="M 0 648 
L 1152 648 
L 1152 0 
L 0 0 
z
" style="fill:#ffffff;"/>
  </g>
  <g id="axes_1">
   <g id="patch_2">
    <path d="M 144 576.72 
L 1036.8 576.72 
L 1036.8 77.76 
L 144 77.76 
z
" style="fill:#ffffff;"/>
   </g>
   <g id="matplotlib.axis_1">
    <g id="xtick_1">
     <g id="line2d_1">
      <defs>
       <path d="M 0 0 
L 0 3.5 
" id="mc01a624682" style="stroke:#000000;stroke-width:0.8;"/>
      </defs>
      <g>
       <use style="stroke:#000000;stroke-width:0.8;" x="144" xlink:href="#mc01a624682" y="576.72"/>
      </g>
     </g>
    </g>
    <g id="xtick_2">
     <g id="line2d_2">
      <g>
       <use style="stroke:#000000;stroke-width:0.8;" x="213.160563" xlink:href="#mc01a624682" y="576.72"/>
      </g>
     </g>
     <g id="text_1">
      <!-- Apr -->
      <g transform="translate(204.510563 591.318438)scale(0.1 -0.1)">
       <defs>
        <path d="M 2188 4044 
L 1331 1722 
L 3047 1722 
L 2188 4044 
z
M 1831 4666 
L 2547 4666 
L 4325 0 
L 3669 0 
L 3244 1197 
L 1141 1197 
L 716 0 
L 50 0 
L 1831 4666 
z
" id="DejaVuSans-41" transform="scale(0.015625)"/>
        <path d="M 1159 525 
L 1159 -1331 
L 581 -1331 
L 581 3500 
L 1159 3500 
L 1159 2969 
Q 1341 3281 1617 3432 
Q 1894 3584 2278 3584 
Q 2916 3584 3314 3078 
Q 3713 2572 3713 1747 
Q 3713 922 3314 415 
Q 2916 -91 2278 -91 
Q 1894 -91 1617 61 
Q 1341 213 1159 525 
z
M 3116 1747 
Q 3116 2381 2855 2742 
Q 2594 3103 2138 3103 
Q 1681 3103 1420 2742 
Q 1159 2381 1159 1747 
Q 1159 1113 1420 752 
Q 1681 391 2138 391 
Q 2594 391 2855 752 
Q 3116 1113 3116 1747 
z
" id="DejaVuSans-70" transform="scale(0.015625)"/>
        <path d="M 2631 2963 
Q 2534 3019 2420 3045 
Q 2306 3072 2169 3072 
Q 1681 3072 1420 2755 
Q 1159 2438 1159 1844 
L 1159 0 
L 581 0 
L 581 3500 
L 1159 3500 
L 1159 2956 
Q 1341 3275 1631 3429 
Q 1922 3584 2338 3584 
Q 2397 3584 2469 3576 
Q 2541 3569 2628 3553 
L 2631 2963 
z
" id="DejaVuSans-72" transform="scale(0.015625)"/>
       </defs>
       <use xlink:href="#DejaVuSans-41"/>
       <use x="68.408203" xlink:href="#DejaVuSans-70"/>
       <use x="131.884766" xlink:href="#DejaVuSans-72"/>
      </g>
     </g>
    </g>
    <g id="xtick_3">
     <g id="line2d_3">
      <g>
       <use style="stroke:#000000;stroke-width:0.8;" x="403.876056" xlink:href="#mc01a624682" y="576.72"/>
      </g>
     </g>
     <g id="text_2">
      <!-- Jul -->
      <g transform="translate(397.843244 591.318438)scale(0.1 -0.1)">
       <defs>
        <path d="M 628 4666 
L 1259 4666 
L 1259 325 
Q 1259 -519 939 -900 
Q 619 -1281 -91 -1281 
L -331 -1281 
L -331 -750 
L -134 -750 
Q 284 -750 456 -515 
Q 628 -281 628 325 
L 628 4666 
z
" id="DejaVuSans-4a" transform="scale(0.015625)"/>
        <path d="M 544 1381 
L 544 3500 
L 1119 3500 
L 1119 1403 
Q 1119 906 1312 657 
Q 1506 409 1894 409 
Q 2359 409 2629 706 
Q 2900 1003 2900 1516 
L 2900 3500 
L 3475 3500 
L 3475 0 
L 2900 0 
L 2900 538 
Q 2691 219 2414 64 
Q 2138 -91 1772 -91 
Q 1169 -91 856 284 
Q 544 659 544 1381 
z
M 1991 3584 
L 1991 3584 
z
" id="DejaVuSans-75" transform="scale(0.015625)"/>
        <path d="M 603 4863 
L 1178 4863 
L 1178 0 
L 603 0 
L 603 4863 
z
" id="DejaVuSans-6c" transform="scale(0.015625)"/>
       </defs>
       <use xlink:href="#DejaVuSans-4a"/>
       <use x="29.492188" xlink:href="#DejaVuSans-75"/>
       <use x="92.871094" xlink:href="#DejaVuSans-6c"/>
      </g>
     </g>
    </g>
    <g id="xtick_4">
     <g id="line2d_4">
      <g>
       <use style="stroke:#000000;stroke-width:0.8;" x="596.687324" xlink:href="#mc01a624682" y="576.72"/>
      </g>
     </g>
     <g id="text_3">
      <!-- Oct -->
      <g transform="translate(588.042011 591.318438)scale(0.1 -0.1)">
       <defs>
        <path d="M 2522 4238 
Q 1834 4238 1429 3725 
Q 1025 3213 1025 2328 
Q 1025 1447 1429 934 
Q 1834 422 2522 422 
Q 3209 422 3611 934 
Q 4013 1447 4013 2328 
Q 4013 3213 3611 3725 
Q 3209 4238 2522 4238 
z
M 2522 4750 
Q 3503 4750 4090 4092 
Q 4678 3434 4678 2328 
Q 4678 1225 4090 567 
Q 3503 -91 2522 -91 
Q 1538 -91 948 565 
Q 359 1222 359 2328 
Q 359 3434 948 4092 
Q 1538 4750 2522 4750 
z
" id="DejaVuSans-4f" transform="scale(0.015625)"/>
        <path d="M 3122 3366 
L 3122 2828 
Q 2878 2963 2633 3030 
Q 2388 3097 2138 3097 
Q 1578 3097 1268 2742 
Q 959 2388 959 1747 
Q 959 1106 1268 751 
Q 1578 397 2138 397 
Q 2388 397 2633 464 
Q 2878 531 3122 666 
L 3122 134 
Q 2881 22 2623 -34 
Q 2366 -91 2075 -91 
Q 1284 -91 818 406 
Q 353 903 353 1747 
Q 353 2603 823 3093 
Q 1294 3584 2113 3584 
Q 2378 3584 2631 3529 
Q 2884 3475 3122 3366 
z
" id="DejaVuSans-63" transform="scale(0.015625)"/>
        <path d="M 1172 4494 
L 1172 3500 
L 2356 3500 
L 2356 3053 
L 1172 3053 
L 1172 1153 
Q 1172 725 1289 603 
Q 1406 481 1766 481 
L 2356 481 
L 2356 0 
L 1766 0 
Q 1100 0 847 248 
Q 594 497 594 1153 
L 594 3053 
L 172 3053 
L 172 3500 
L 594 3500 
L 594 4494 
L 1172 4494 
z
" id="DejaVuSans-74" transform="scale(0.015625)"/>
       </defs>
       <use xlink:href="#DejaVuSans-4f"/>
       <use x="78.710938" xlink:href="#DejaVuSans-63"/>
       <use x="133.691406" xlink:href="#DejaVuSans-74"/>
      </g>
     </g>
    </g>
    <g id="xtick_5">
     <g id="line2d_5">
      <g>
       <use style="stroke:#000000;stroke-width:0.8;" x="789.498592" xlink:href="#mc01a624682" y="576.72"/>
      </g>
     </g>
     <g id="text_4">
      <!-- Jan -->
      <g transform="translate(781.790779 591.318438)scale(0.1 -0.1)">
       <defs>
        <path d="M 2194 1759 
Q 1497 1759 1228 1600 
Q 959 1441 959 1056 
Q 959 750 1161 570 
Q 1363 391 1709 391 
Q 2188 391 2477 730 
Q 2766 1069 2766 1631 
L 2766 1759 
L 2194 1759 
z
M 3341 1997 
L 3341 0 
L 2766 0 
L 2766 531 
Q 2569 213 2275 61 
Q 1981 -91 1556 -91 
Q 1019 -91 701 211 
Q 384 513 384 1019 
Q 384 1609 779 1909 
Q 1175 2209 1959 2209 
L 2766 2209 
L 2766 2266 
Q 2766 2663 2505 2880 
Q 2244 3097 1772 3097 
Q 1472 3097 1187 3025 
Q 903 2953 641 2809 
L 641 3341 
Q 956 3463 1253 3523 
Q 1550 3584 1831 3584 
Q 2591 3584 2966 3190 
Q 3341 2797 3341 1997 
z
" id="DejaVuSans-61" transform="scale(0.015625)"/>
        <path d="M 3513 2113 
L 3513 0 
L 2938 0 
L 2938 2094 
Q 2938 2591 2744 2837 
Q 2550 3084 2163 3084 
Q 1697 3084 1428 2787 
Q 1159 2491 1159 1978 
L 1159 0 
L 581 0 
L 581 3500 
L 1159 3500 
L 1159 2956 
Q 1366 3272 1645 3428 
Q 1925 3584 2291 3584 
Q 2894 3584 3203 3211 
Q 3513 2838 3513 2113 
z
" id="DejaVuSans-6e" transform="scale(0.015625)"/>
       </defs>
       <use xlink:href="#DejaVuSans-4a"/>
       <use x="29.492188" xlink:href="#DejaVuSans-61"/>
       <use x="90.771484" xlink:href="#DejaVuSans-6e"/>
      </g>
      <!-- 2021 -->
      <g transform="translate(776.773592 602.51625)scale(0.1 -0.1)">
       <defs>
        <path d="M 1228 531 
L 3431 531 
L 3431 0 
L 469 0 
L 469 531 
Q 828 903 1448 1529 
Q 2069 2156 2228 2338 
Q 2531 2678 2651 2914 
Q 2772 3150 2772 3378 
Q 2772 3750 2511 3984 
Q 2250 4219 1831 4219 
Q 1534 4219 1204 4116 
Q 875 4013 500 3803 
L 500 4441 
Q 881 4594 1212 4672 
Q 1544 4750 1819 4750 
Q 2544 4750 2975 4387 
Q 3406 4025 3406 3419 
Q 3406 3131 3298 2873 
Q 3191 2616 2906 2266 
Q 2828 2175 2409 1742 
Q 1991 1309 1228 531 
z
" id="DejaVuSans-32" transform="scale(0.015625)"/>
        <path d="M 2034 4250 
Q 1547 4250 1301 3770 
Q 1056 3291 1056 2328 
Q 1056 1369 1301 889 
Q 1547 409 2034 409 
Q 2525 409 2770 889 
Q 3016 1369 3016 2328 
Q 3016 3291 2770 3770 
Q 2525 4250 2034 4250 
z
M 2034 4750 
Q 2819 4750 3233 4129 
Q 3647 3509 3647 2328 
Q 3647 1150 3233 529 
Q 2819 -91 2034 -91 
Q 1250 -91 836 529 
Q 422 1150 422 2328 
Q 422 3509 836 4129 
Q 1250 4750 2034 4750 
z
" id="DejaVuSans-30" transform="scale(0.015625)"/>
        <path d="M 794 531 
L 1825 531 
L 1825 4091 
L 703 3866 
L 703 4441 
L 1819 4666 
L 2450 4666 
L 2450 531 
L 3481 531 
L 3481 0 
L 794 0 
L 794 531 
z
" id="DejaVuSans-31" transform="scale(0.015625)"/>
       </defs>
       <use xlink:href="#DejaVuSans-32"/>
       <use x="63.623047" xlink:href="#DejaVuSans-30"/>
       <use x="127.246094" xlink:href="#DejaVuSans-32"/>
       <use x="190.869141" xlink:href="#DejaVuSans-31"/>
      </g>
     </g>
    </g>
    <g id="xtick_6">
     <g id="line2d_6">
      <g>
       <use style="stroke:#000000;stroke-width:0.8;" x="978.11831" xlink:href="#mc01a624682" y="576.72"/>
      </g>
     </g>
     <g id="text_5">
      <!-- Apr -->
      <g transform="translate(969.46831 591.318438)scale(0.1 -0.1)">
       <use xlink:href="#DejaVuSans-41"/>
       <use x="68.408203" xlink:href="#DejaVuSans-70"/>
       <use x="131.884766" xlink:href="#DejaVuSans-72"/>
      </g>
     </g>
    </g>
    <g id="xtick_7">
     <g id="line2d_7">
      <g>
       <use style="stroke:#000000;stroke-width:0.8;" x="1036.8" xlink:href="#mc01a624682" y="576.72"/>
      </g>
     </g>
    </g>
    <g id="xtick_8">
     <g id="line2d_8">
      <defs>
       <path d="M 0 0 
L 0 2 
" id="m0efe4a6716" style="stroke:#000000;stroke-width:0.6;"/>
      </defs>
      <g>
       <use style="stroke:#000000;stroke-width:0.6;" x="148.191549" xlink:href="#m0efe4a6716" y="576.72"/>
      </g>
     </g>
    </g>
    <g id="xtick_9">
     <g id="line2d_9">
      <g>
       <use style="stroke:#000000;stroke-width:0.6;" x="276.033803" xlink:href="#m0efe4a6716" y="576.72"/>
      </g>
     </g>
    </g>
    <g id="xtick_10">
     <g id="line2d_10">
      <g>
       <use style="stroke:#000000;stroke-width:0.6;" x="341.002817" xlink:href="#m0efe4a6716" y="576.72"/>
      </g>
     </g>
    </g>
    <g id="xtick_11">
     <g id="line2d_11">
      <g>
       <use style="stroke:#000000;stroke-width:0.6;" x="468.84507" xlink:href="#m0efe4a6716" y="576.72"/>
      </g>
     </g>
    </g>
    <g id="xtick_12">
     <g id="line2d_12">
      <g>
       <use style="stroke:#000000;stroke-width:0.6;" x="533.814085" xlink:href="#m0efe4a6716" y="576.72"/>
      </g>
     </g>
    </g>
    <g id="xtick_13">
     <g id="line2d_13">
      <g>
       <use style="stroke:#000000;stroke-width:0.6;" x="661.656338" xlink:href="#m0efe4a6716" y="576.72"/>
      </g>
     </g>
    </g>
    <g id="xtick_14">
     <g id="line2d_14">
      <g>
       <use style="stroke:#000000;stroke-width:0.6;" x="724.529577" xlink:href="#m0efe4a6716" y="576.72"/>
      </g>
     </g>
    </g>
    <g id="xtick_15">
     <g id="line2d_15">
      <g>
       <use style="stroke:#000000;stroke-width:0.6;" x="854.467606" xlink:href="#m0efe4a6716" y="576.72"/>
      </g>
     </g>
    </g>
    <g id="xtick_16">
     <g id="line2d_16">
      <g>
       <use style="stroke:#000000;stroke-width:0.6;" x="913.149296" xlink:href="#m0efe4a6716" y="576.72"/>
      </g>
     </g>
    </g>
    <g id="text_6">
     <!-- Stand -->
     <g transform="translate(575.858594 616.194375)scale(0.1 -0.1)">
      <defs>
       <path d="M 3425 4513 
L 3425 3897 
Q 3066 4069 2747 4153 
Q 2428 4238 2131 4238 
Q 1616 4238 1336 4038 
Q 1056 3838 1056 3469 
Q 1056 3159 1242 3001 
Q 1428 2844 1947 2747 
L 2328 2669 
Q 3034 2534 3370 2195 
Q 3706 1856 3706 1288 
Q 3706 609 3251 259 
Q 2797 -91 1919 -91 
Q 1588 -91 1214 -16 
Q 841 59 441 206 
L 441 856 
Q 825 641 1194 531 
Q 1563 422 1919 422 
Q 2459 422 2753 634 
Q 3047 847 3047 1241 
Q 3047 1584 2836 1778 
Q 2625 1972 2144 2069 
L 1759 2144 
Q 1053 2284 737 2584 
Q 422 2884 422 3419 
Q 422 4038 858 4394 
Q 1294 4750 2059 4750 
Q 2388 4750 2728 4690 
Q 3069 4631 3425 4513 
z
" id="DejaVuSans-53" transform="scale(0.015625)"/>
       <path d="M 2906 2969 
L 2906 4863 
L 3481 4863 
L 3481 0 
L 2906 0 
L 2906 525 
Q 2725 213 2448 61 
Q 2172 -91 1784 -91 
Q 1150 -91 751 415 
Q 353 922 353 1747 
Q 353 2572 751 3078 
Q 1150 3584 1784 3584 
Q 2172 3584 2448 3432 
Q 2725 3281 2906 2969 
z
M 947 1747 
Q 947 1113 1208 752 
Q 1469 391 1925 391 
Q 2381 391 2643 752 
Q 2906 1113 2906 1747 
Q 2906 2381 2643 2742 
Q 2381 3103 1925 3103 
Q 1469 3103 1208 2742 
Q 947 2381 947 1747 
z
" id="DejaVuSans-64" transform="scale(0.015625)"/>
      </defs>
      <use xlink:href="#DejaVuSans-53"/>
      <use x="63.476562" xlink:href="#DejaVuSans-74"/>
      <use x="102.685547" xlink:href="#DejaVuSans-61"/>
      <use x="163.964844" xlink:href="#DejaVuSans-6e"/>
      <use x="227.34375" xlink:href="#DejaVuSans-64"/>
     </g>
    </g>
   </g>
   <g id="matplotlib.axis_2">
    <g id="ytick_1">
     <g id="line2d_17">
      <defs>
       <path d="M 0 0 
L -3.5 0 
" id="m5036991dd6" style="stroke:#000000;stroke-width:0.8;"/>
      </defs>
      <g>
       <use style="stroke:#000000;stroke-width:0.8;" x="144" xlink:href="#m5036991dd6" y="554.04"/>
      </g>
     </g>
     <g id="text_7">
      <!-- 0 -->
      <g transform="translate(130.6375 557.839219)scale(0.1 -0.1)">
       <use xlink:href="#DejaVuSans-30"/>
      </g>
     </g>
    </g>
    <g id="ytick_2">
     <g id="line2d_18">
      <g>
       <use style="stroke:#000000;stroke-width:0.8;" x="144" xlink:href="#m5036991dd6" y="466.809231"/>
      </g>
     </g>
     <g id="text_8">
      <!-- 50 -->
      <g transform="translate(124.275 470.60845)scale(0.1 -0.1)">
       <defs>
        <path d="M 691 4666 
L 3169 4666 
L 3169 4134 
L 1269 4134 
L 1269 2991 
Q 1406 3038 1543 3061 
Q 1681 3084 1819 3084 
Q 2600 3084 3056 2656 
Q 3513 2228 3513 1497 
Q 3513 744 3044 326 
Q 2575 -91 1722 -91 
Q 1428 -91 1123 -41 
Q 819 9 494 109 
L 494 744 
Q 775 591 1075 516 
Q 1375 441 1709 441 
Q 2250 441 2565 725 
Q 2881 1009 2881 1497 
Q 2881 1984 2565 2268 
Q 2250 2553 1709 2553 
Q 1456 2553 1204 2497 
Q 953 2441 691 2322 
L 691 4666 
z
" id="DejaVuSans-35" transform="scale(0.015625)"/>
       </defs>
       <use xlink:href="#DejaVuSans-35"/>
       <use x="63.623047" xlink:href="#DejaVuSans-30"/>
      </g>
     </g>
    </g>
    <g id="ytick_3">
     <g id="line2d_19">
      <g>
       <use style="stroke:#000000;stroke-width:0.8;" x="144" xlink:href="#m5036991dd6" y="379.578462"/>
      </g>
     </g>
     <g id="text_9">
      <!-- 100 -->
      <g transform="translate(117.9125 383.37768)scale(0.1 -0.1)">
       <use xlink:href="#DejaVuSans-31"/>
       <use x="63.623047" xlink:href="#DejaVuSans-30"/>
       <use x="127.246094" xlink:href="#DejaVuSans-30"/>
      </g>
     </g>
    </g>
    <g id="ytick_4">
     <g id="line2d_20">
      <g>
       <use style="stroke:#000000;stroke-width:0.8;" x="144" xlink:href="#m5036991dd6" y="292.347692"/>
      </g>
     </g>
     <g id="text_10">
      <!-- 150 -->
      <g transform="translate(117.9125 296.146911)scale(0.1 -0.1)">
       <use xlink:href="#DejaVuSans-31"/>
       <use x="63.623047" xlink:href="#DejaVuSans-35"/>
       <use x="127.246094" xlink:href="#DejaVuSans-30"/>
      </g>
     </g>
    </g>
    <g id="ytick_5">
     <g id="line2d_21">
      <g>
       <use style="stroke:#000000;stroke-width:0.8;" x="144" xlink:href="#m5036991dd6" y="205.116923"/>
      </g>
     </g>
     <g id="text_11">
      <!-- 200 -->
      <g transform="translate(117.9125 208.916142)scale(0.1 -0.1)">
       <use xlink:href="#DejaVuSans-32"/>
       <use x="63.623047" xlink:href="#DejaVuSans-30"/>
       <use x="127.246094" xlink:href="#DejaVuSans-30"/>
      </g>
     </g>
    </g>
    <g id="ytick_6">
     <g id="line2d_22">
      <g>
       <use style="stroke:#000000;stroke-width:0.8;" x="144" xlink:href="#m5036991dd6" y="117.886154"/>
      </g>
     </g>
     <g id="text_12">
      <!-- 250 -->
      <g transform="translate(117.9125 121.685373)scale(0.1 -0.1)">
       <use xlink:href="#DejaVuSans-32"/>
       <use x="63.623047" xlink:href="#DejaVuSans-35"/>
       <use x="127.246094" xlink:href="#DejaVuSans-30"/>
      </g>
     </g>
    </g>
   </g>
   <g id="line2d_23">
    <path clip-path="url(#pefd202f69e)" d="M 144 554.04 
L 194.298592 554.04 
L 196.394366 552.295385 
L 198.490141 545.316923 
L 200.585915 552.295385 
L 202.68169 554.04 
L 204.777465 550.550769 
L 206.873239 554.04 
L 208.969014 554.04 
L 211.064789 548.806154 
L 213.160563 545.316923 
L 215.256338 552.295385 
L 217.352113 548.806154 
L 219.447887 548.806154 
L 221.543662 540.083077 
L 223.639437 550.550769 
L 225.735211 547.061538 
L 227.830986 533.104615 
L 229.926761 550.550769 
L 232.022535 541.827692 
L 234.11831 543.572308 
L 236.214085 550.550769 
L 238.309859 552.295385 
L 242.501408 548.806154 
L 244.597183 517.403077 
L 246.692958 552.295385 
L 248.788732 540.083077 
L 250.884507 547.061538 
L 252.980282 550.550769 
L 255.076056 540.083077 
L 257.171831 545.316923 
L 259.267606 545.316923 
L 261.36338 540.083077 
L 263.459155 543.572308 
L 265.55493 543.572308 
L 267.650704 554.04 
L 269.746479 552.295385 
L 271.842254 545.316923 
L 273.938028 548.806154 
L 276.033803 543.572308 
L 278.129577 552.295385 
L 280.225352 550.550769 
L 282.321127 550.550769 
L 286.512676 543.572308 
L 288.608451 547.061538 
L 296.991549 554.04 
L 299.087324 548.806154 
L 301.183099 552.295385 
L 303.278873 547.061538 
L 305.374648 554.04 
L 307.470423 550.550769 
L 309.566197 554.04 
L 311.661972 554.04 
L 313.757746 550.550769 
L 315.853521 554.04 
L 317.949296 548.806154 
L 324.23662 554.04 
L 328.428169 550.550769 
L 330.523944 552.295385 
L 332.619718 550.550769 
L 334.715493 554.04 
L 336.811268 547.061538 
L 338.907042 554.04 
L 341.002817 552.295385 
L 343.098592 554.04 
L 345.194366 552.295385 
L 347.290141 554.04 
L 351.48169 554.04 
L 353.577465 550.550769 
L 355.673239 554.04 
L 357.769014 548.806154 
L 359.864789 554.04 
L 361.960563 550.550769 
L 364.056338 554.04 
L 368.247887 554.04 
L 370.343662 552.295385 
L 374.535211 552.295385 
L 376.630986 554.04 
L 387.109859 554.04 
L 389.205634 552.295385 
L 391.301408 552.295385 
L 393.397183 554.04 
L 399.684507 554.04 
L 401.780282 552.295385 
L 403.876056 554.04 
L 405.971831 552.295385 
L 408.067606 554.04 
L 418.546479 554.04 
L 420.642254 552.295385 
L 422.738028 554.04 
L 504.473239 554.04 
L 506.569014 552.295385 
L 508.664789 554.04 
L 531.71831 554.04 
L 533.814085 552.295385 
L 535.909859 554.04 
L 554.771831 554.04 
L 556.867606 552.295385 
L 558.96338 554.04 
L 575.729577 554.04 
L 577.825352 552.295385 
L 579.921127 554.04 
L 582.016901 550.550769 
L 584.112676 552.295385 
L 586.208451 548.806154 
L 588.304225 554.04 
L 592.495775 554.04 
L 594.591549 552.295385 
L 596.687324 552.295385 
L 598.783099 550.550769 
L 600.878873 550.550769 
L 602.974648 554.04 
L 607.166197 554.04 
L 609.261972 547.061538 
L 611.357746 554.04 
L 613.453521 554.04 
L 615.549296 548.806154 
L 617.64507 552.295385 
L 619.740845 552.295385 
L 621.83662 554.04 
L 623.932394 550.550769 
L 626.028169 550.550769 
L 628.123944 548.806154 
L 630.219718 550.550769 
L 632.315493 554.04 
L 634.411268 552.295385 
L 636.507042 552.295385 
L 638.602817 545.316923 
L 640.698592 545.316923 
L 644.890141 552.295385 
L 646.985915 545.316923 
L 649.08169 554.04 
L 651.177465 545.316923 
L 653.273239 538.338462 
L 655.369014 540.083077 
L 657.464789 527.870769 
L 659.560563 550.550769 
L 661.656338 545.316923 
L 663.752113 550.550769 
L 665.847887 522.636923 
L 667.943662 540.083077 
L 670.039437 527.870769 
L 672.135211 517.403077 
L 674.230986 548.806154 
L 676.326761 531.36 
L 678.422535 548.806154 
L 680.51831 547.061538 
L 682.614085 524.381538 
L 684.709859 498.212308 
L 686.805634 526.126154 
L 688.901408 505.190769 
L 690.997183 538.338462 
L 693.092958 548.806154 
L 695.188732 498.212308 
L 697.284507 517.403077 
L 699.380282 527.870769 
L 701.476056 519.147692 
L 703.571831 512.169231 
L 705.667606 515.658462 
L 707.76338 520.892308 
L 709.859155 527.870769 
L 711.95493 505.190769 
L 714.050704 536.593846 
L 716.146479 414.470769 
L 718.242254 452.852308 
L 720.338028 512.169231 
L 722.433803 484.255385 
L 724.529577 479.021538 
L 726.625352 475.532308 
L 728.721127 426.683077 
L 730.816901 451.107692 
L 732.912676 410.981538 
L 735.008451 458.086154 
L 737.104225 531.36 
L 739.2 527.870769 
L 741.295775 424.938462 
L 743.391549 472.043077 
L 745.487324 419.704615 
L 747.583099 404.003077 
L 749.678873 447.618462 
L 751.774648 466.809231 
L 753.870423 554.04 
L 755.966197 287.113846 
L 758.061972 435.406154 
L 760.157746 397.024615 
L 762.253521 346.430769 
L 764.349296 407.492308 
L 766.44507 491.233846 
L 768.540845 444.129231 
L 770.63662 390.046154 
L 772.732394 287.113846 
L 774.828169 386.556923 
L 776.923944 512.169231 
L 779.019718 512.169231 
L 781.115493 506.935385 
L 783.211268 370.855385 
L 785.307042 266.178462 
L 787.402817 316.772308 
L 789.498592 332.473846 
L 791.594366 491.233846 
L 793.690141 465.064615 
L 795.785915 510.424615 
L 797.88169 494.723077 
L 799.977465 397.024615 
L 802.073239 337.707692 
L 804.169014 226.052308 
L 806.264789 262.689231 
L 808.360563 409.236923 
L 810.456338 438.895385 
L 812.552113 438.895385 
L 814.647887 332.473846 
L 816.743662 100.44 
L 818.839437 185.926154 
L 820.935211 226.052308 
L 823.030986 384.812308 
L 825.126761 510.424615 
L 827.222535 463.32 
L 829.31831 290.603077 
L 831.414085 334.218462 
L 833.509859 407.492308 
L 835.605634 287.113846 
L 837.701408 463.32 
L 839.797183 540.083077 
L 841.892958 433.661538 
L 843.988732 342.941538 
L 846.084507 410.981538 
L 848.180282 290.603077 
L 850.276056 377.833846 
L 852.371831 494.723077 
L 854.467606 552.295385 
L 856.56338 417.96 
L 858.659155 376.089231 
L 860.75493 395.28 
L 862.850704 381.323077 
L 864.946479 414.470769 
L 867.042254 512.169231 
L 869.138028 499.956923 
L 871.233803 515.658462 
L 873.329577 416.215385 
L 875.425352 372.6 
L 877.521127 475.532308 
L 879.616901 445.873846 
L 881.712676 517.403077 
L 883.808451 540.083077 
L 885.904225 458.086154 
L 888 456.341538 
L 890.095775 470.298462 
L 892.191549 454.596923 
L 894.287324 393.535385 
L 896.383099 529.615385 
L 898.478873 548.806154 
L 900.574648 494.723077 
L 902.670423 492.978462 
L 904.766197 475.532308 
L 906.861972 486 
L 908.957746 390.046154 
L 911.053521 470.298462 
L 913.149296 545.316923 
L 915.24507 454.596923 
L 917.340845 477.276923 
L 919.43662 470.298462 
L 921.532394 499.956923 
L 923.628169 479.021538 
L 925.723944 548.806154 
L 927.819718 554.04 
L 929.915493 529.615385 
L 932.011268 487.744615 
L 934.107042 496.467692 
L 936.202817 508.68 
L 938.298592 529.615385 
L 940.394366 543.572308 
L 942.490141 554.04 
L 944.585915 538.338462 
L 946.68169 512.169231 
L 948.777465 522.636923 
L 950.873239 522.636923 
L 952.969014 533.104615 
L 955.064789 515.658462 
L 957.160563 554.04 
L 959.256338 526.126154 
L 961.352113 491.233846 
L 963.447887 522.636923 
L 965.543662 531.36 
L 967.639437 519.147692 
L 969.735211 543.572308 
L 971.830986 548.806154 
L 973.926761 543.572308 
L 976.022535 515.658462 
L 978.11831 531.36 
L 980.214085 498.212308 
L 982.309859 519.147692 
L 984.405634 545.316923 
L 986.501408 550.550769 
L 988.597183 552.295385 
L 990.692958 526.126154 
L 992.788732 508.68 
L 994.884507 494.723077 
L 996.980282 492.978462 
L 999.076056 534.849231 
L 1001.171831 548.806154 
L 1003.267606 527.870769 
L 1005.36338 486 
L 1007.459155 480.766154 
L 1009.55493 479.021538 
L 1013.746479 534.849231 
L 1015.842254 554.04 
L 1017.938028 517.403077 
L 1020.033803 492.978462 
L 1022.129577 486 
L 1024.225352 496.467692 
L 1026.321127 473.787692 
L 1028.416901 512.169231 
L 1030.512676 541.827692 
L 1032.608451 466.809231 
L 1034.704225 508.68 
L 1036.8 510.424615 
L 1036.8 510.424615 
" style="fill:none;stroke:#808080;stroke-dasharray:1.5,2.475;stroke-dashoffset:0;stroke-width:1.5;"/>
    <defs>
     <path d="M -3 0 
L 3 0 
M 0 3 
L 0 -3 
" id="md8d1356141" style="stroke:#808080;"/>
    </defs>
    <g clip-path="url(#pefd202f69e)">
     <use style="fill:#808080;stroke:#808080;" x="144" xlink:href="#md8d1356141" y="554.04"/>
     <use style="fill:#808080;stroke:#808080;" x="146.095775" xlink:href="#md8d1356141" y="554.04"/>
     <use style="fill:#808080;stroke:#808080;" x="148.191549" xlink:href="#md8d1356141" y="554.04"/>
     <use style="fill:#808080;stroke:#808080;" x="150.287324" xlink:href="#md8d1356141" y="554.04"/>
     <use style="fill:#808080;stroke:#808080;" x="152.383099" xlink:href="#md8d1356141" y="554.04"/>
     <use style="fill:#808080;stroke:#808080;" x="154.478873" xlink:href="#md8d1356141" y="554.04"/>
     <use style="fill:#808080;stroke:#808080;" x="156.574648" xlink:href="#md8d1356141" y="554.04"/>
     <use style="fill:#808080;stroke:#808080;" x="158.670423" xlink:href="#md8d1356141" y="554.04"/>
     <use style="fill:#808080;stroke:#808080;" x="160.766197" xlink:href="#md8d1356141" y="554.04"/>
     <use style="fill:#808080;stroke:#808080;" x="162.861972" xlink:href="#md8d1356141" y="554.04"/>
     <use style="fill:#808080;stroke:#808080;" x="164.957746" xlink:href="#md8d1356141" y="554.04"/>
     <use style="fill:#808080;stroke:#808080;" x="167.053521" xlink:href="#md8d1356141" y="554.04"/>
     <use style="fill:#808080;stroke:#808080;" x="169.149296" xlink:href="#md8d1356141" y="554.04"/>
     <use style="fill:#808080;stroke:#808080;" x="171.24507" xlink:href="#md8d1356141" y="554.04"/>
     <use style="fill:#808080;stroke:#808080;" x="173.340845" xlink:href="#md8d1356141" y="554.04"/>
     <use style="fill:#808080;stroke:#808080;" x="175.43662" xlink:href="#md8d1356141" y="554.04"/>
     <use style="fill:#808080;stroke:#808080;" x="177.532394" xlink:href="#md8d1356141" y="554.04"/>
     <use style="fill:#808080;stroke:#808080;" x="179.628169" xlink:href="#md8d1356141" y="554.04"/>
     <use style="fill:#808080;stroke:#808080;" x="181.723944" xlink:href="#md8d1356141" y="554.04"/>
     <use style="fill:#808080;stroke:#808080;" x="183.819718" xlink:href="#md8d1356141" y="554.04"/>
     <use style="fill:#808080;stroke:#808080;" x="185.915493" xlink:href="#md8d1356141" y="554.04"/>
     <use style="fill:#808080;stroke:#808080;" x="188.011268" xlink:href="#md8d1356141" y="554.04"/>
     <use style="fill:#808080;stroke:#808080;" x="190.107042" xlink:href="#md8d1356141" y="554.04"/>
     <use style="fill:#808080;stroke:#808080;" x="192.202817" xlink:href="#md8d1356141" y="554.04"/>
     <use style="fill:#808080;stroke:#808080;" x="194.298592" xlink:href="#md8d1356141" y="554.04"/>
     <use style="fill:#808080;stroke:#808080;" x="196.394366" xlink:href="#md8d1356141" y="552.295385"/>
     <use style="fill:#808080;stroke:#808080;" x="198.490141" xlink:href="#md8d1356141" y="545.316923"/>
     <use style="fill:#808080;stroke:#808080;" x="200.585915" xlink:href="#md8d1356141" y="552.295385"/>
     <use style="fill:#808080;stroke:#808080;" x="202.68169" xlink:href="#md8d1356141" y="554.04"/>
     <use style="fill:#808080;stroke:#808080;" x="204.777465" xlink:href="#md8d1356141" y="550.550769"/>
     <use style="fill:#808080;stroke:#808080;" x="206.873239" xlink:href="#md8d1356141" y="554.04"/>
     <use style="fill:#808080;stroke:#808080;" x="208.969014" xlink:href="#md8d1356141" y="554.04"/>
     <use style="fill:#808080;stroke:#808080;" x="211.064789" xlink:href="#md8d1356141" y="548.806154"/>
     <use style="fill:#808080;stroke:#808080;" x="213.160563" xlink:href="#md8d1356141" y="545.316923"/>
     <use style="fill:#808080;stroke:#808080;" x="215.256338" xlink:href="#md8d1356141" y="552.295385"/>
     <use style="fill:#808080;stroke:#808080;" x="217.352113" xlink:href="#md8d1356141" y="548.806154"/>
     <use style="fill:#808080;stroke:#808080;" x="219.447887" xlink:href="#md8d1356141" y="548.806154"/>
     <use style="fill:#808080;stroke:#808080;" x="221.543662" xlink:href="#md8d1356141" y="540.083077"/>
     <use style="fill:#808080;stroke:#808080;" x="223.639437" xlink:href="#md8d1356141" y="550.550769"/>
     <use style="fill:#808080;stroke:#808080;" x="225.735211" xlink:href="#md8d1356141" y="547.061538"/>
     <use style="fill:#808080;stroke:#808080;" x="227.830986" xlink:href="#md8d1356141" y="533.104615"/>
     <use style="fill:#808080;stroke:#808080;" x="229.926761" xlink:href="#md8d1356141" y="550.550769"/>
     <use style="fill:#808080;stroke:#808080;" x="232.022535" xlink:href="#md8d1356141" y="541.827692"/>
     <use style="fill:#808080;stroke:#808080;" x="234.11831" xlink:href="#md8d1356141" y="543.572308"/>
     <use style="fill:#808080;stroke:#808080;" x="236.214085" xlink:href="#md8d1356141" y="550.550769"/>
     <use style="fill:#808080;stroke:#808080;" x="238.309859" xlink:href="#md8d1356141" y="552.295385"/>
     <use style="fill:#808080;stroke:#808080;" x="240.405634" xlink:href="#md8d1356141" y="550.550769"/>
     <use style="fill:#808080;stroke:#808080;" x="242.501408" xlink:href="#md8d1356141" y="548.806154"/>
     <use style="fill:#808080;stroke:#808080;" x="244.597183" xlink:href="#md8d1356141" y="517.403077"/>
     <use style="fill:#808080;stroke:#808080;" x="246.692958" xlink:href="#md8d1356141" y="552.295385"/>
     <use style="fill:#808080;stroke:#808080;" x="248.788732" xlink:href="#md8d1356141" y="540.083077"/>
     <use style="fill:#808080;stroke:#808080;" x="250.884507" xlink:href="#md8d1356141" y="547.061538"/>
     <use style="fill:#808080;stroke:#808080;" x="252.980282" xlink:href="#md8d1356141" y="550.550769"/>
     <use style="fill:#808080;stroke:#808080;" x="255.076056" xlink:href="#md8d1356141" y="540.083077"/>
     <use style="fill:#808080;stroke:#808080;" x="257.171831" xlink:href="#md8d1356141" y="545.316923"/>
     <use style="fill:#808080;stroke:#808080;" x="259.267606" xlink:href="#md8d1356141" y="545.316923"/>
     <use style="fill:#808080;stroke:#808080;" x="261.36338" xlink:href="#md8d1356141" y="540.083077"/>
     <use style="fill:#808080;stroke:#808080;" x="263.459155" xlink:href="#md8d1356141" y="543.572308"/>
     <use style="fill:#808080;stroke:#808080;" x="265.55493" xlink:href="#md8d1356141" y="543.572308"/>
     <use style="fill:#808080;stroke:#808080;" x="267.650704" xlink:href="#md8d1356141" y="554.04"/>
     <use style="fill:#808080;stroke:#808080;" x="269.746479" xlink:href="#md8d1356141" y="552.295385"/>
     <use style="fill:#808080;stroke:#808080;" x="271.842254" xlink:href="#md8d1356141" y="545.316923"/>
     <use style="fill:#808080;stroke:#808080;" x="273.938028" xlink:href="#md8d1356141" y="548.806154"/>
     <use style="fill:#808080;stroke:#808080;" x="276.033803" xlink:href="#md8d1356141" y="543.572308"/>
     <use style="fill:#808080;stroke:#808080;" x="278.129577" xlink:href="#md8d1356141" y="552.295385"/>
     <use style="fill:#808080;stroke:#808080;" x="280.225352" xlink:href="#md8d1356141" y="550.550769"/>
     <use style="fill:#808080;stroke:#808080;" x="282.321127" xlink:href="#md8d1356141" y="550.550769"/>
     <use style="fill:#808080;stroke:#808080;" x="284.416901" xlink:href="#md8d1356141" y="547.061538"/>
     <use style="fill:#808080;stroke:#808080;" x="286.512676" xlink:href="#md8d1356141" y="543.572308"/>
     <use style="fill:#808080;stroke:#808080;" x="288.608451" xlink:href="#md8d1356141" y="547.061538"/>
     <use style="fill:#808080;stroke:#808080;" x="290.704225" xlink:href="#md8d1356141" y="548.806154"/>
     <use style="fill:#808080;stroke:#808080;" x="292.8" xlink:href="#md8d1356141" y="550.550769"/>
     <use style="fill:#808080;stroke:#808080;" x="294.895775" xlink:href="#md8d1356141" y="552.295385"/>
     <use style="fill:#808080;stroke:#808080;" x="296.991549" xlink:href="#md8d1356141" y="554.04"/>
     <use style="fill:#808080;stroke:#808080;" x="299.087324" xlink:href="#md8d1356141" y="548.806154"/>
     <use style="fill:#808080;stroke:#808080;" x="301.183099" xlink:href="#md8d1356141" y="552.295385"/>
     <use style="fill:#808080;stroke:#808080;" x="303.278873" xlink:href="#md8d1356141" y="547.061538"/>
     <use style="fill:#808080;stroke:#808080;" x="305.374648" xlink:href="#md8d1356141" y="554.04"/>
     <use style="fill:#808080;stroke:#808080;" x="307.470423" xlink:href="#md8d1356141" y="550.550769"/>
     <use style="fill:#808080;stroke:#808080;" x="309.566197" xlink:href="#md8d1356141" y="554.04"/>
     <use style="fill:#808080;stroke:#808080;" x="311.661972" xlink:href="#md8d1356141" y="554.04"/>
     <use style="fill:#808080;stroke:#808080;" x="313.757746" xlink:href="#md8d1356141" y="550.550769"/>
     <use style="fill:#808080;stroke:#808080;" x="315.853521" xlink:href="#md8d1356141" y="554.04"/>
     <use style="fill:#808080;stroke:#808080;" x="317.949296" xlink:href="#md8d1356141" y="548.806154"/>
     <use style="fill:#808080;stroke:#808080;" x="320.04507" xlink:href="#md8d1356141" y="550.550769"/>
     <use style="fill:#808080;stroke:#808080;" x="322.140845" xlink:href="#md8d1356141" y="552.295385"/>
     <use style="fill:#808080;stroke:#808080;" x="324.23662" xlink:href="#md8d1356141" y="554.04"/>
     <use style="fill:#808080;stroke:#808080;" x="326.332394" xlink:href="#md8d1356141" y="552.295385"/>
     <use style="fill:#808080;stroke:#808080;" x="328.428169" xlink:href="#md8d1356141" y="550.550769"/>
     <use style="fill:#808080;stroke:#808080;" x="330.523944" xlink:href="#md8d1356141" y="552.295385"/>
     <use style="fill:#808080;stroke:#808080;" x="332.619718" xlink:href="#md8d1356141" y="550.550769"/>
     <use style="fill:#808080;stroke:#808080;" x="334.715493" xlink:href="#md8d1356141" y="554.04"/>
     <use style="fill:#808080;stroke:#808080;" x="336.811268" xlink:href="#md8d1356141" y="547.061538"/>
     <use style="fill:#808080;stroke:#808080;" x="338.907042" xlink:href="#md8d1356141" y="554.04"/>
     <use style="fill:#808080;stroke:#808080;" x="341.002817" xlink:href="#md8d1356141" y="552.295385"/>
     <use style="fill:#808080;stroke:#808080;" x="343.098592" xlink:href="#md8d1356141" y="554.04"/>
     <use style="fill:#808080;stroke:#808080;" x="345.194366" xlink:href="#md8d1356141" y="552.295385"/>
     <use style="fill:#808080;stroke:#808080;" x="347.290141" xlink:href="#md8d1356141" y="554.04"/>
     <use style="fill:#808080;stroke:#808080;" x="349.385915" xlink:href="#md8d1356141" y="554.04"/>
     <use style="fill:#808080;stroke:#808080;" x="351.48169" xlink:href="#md8d1356141" y="554.04"/>
     <use style="fill:#808080;stroke:#808080;" x="353.577465" xlink:href="#md8d1356141" y="550.550769"/>
     <use style="fill:#808080;stroke:#808080;" x="355.673239" xlink:href="#md8d1356141" y="554.04"/>
     <use style="fill:#808080;stroke:#808080;" x="357.769014" xlink:href="#md8d1356141" y="548.806154"/>
     <use style="fill:#808080;stroke:#808080;" x="359.864789" xlink:href="#md8d1356141" y="554.04"/>
     <use style="fill:#808080;stroke:#808080;" x="361.960563" xlink:href="#md8d1356141" y="550.550769"/>
     <use style="fill:#808080;stroke:#808080;" x="364.056338" xlink:href="#md8d1356141" y="554.04"/>
     <use style="fill:#808080;stroke:#808080;" x="366.152113" xlink:href="#md8d1356141" y="554.04"/>
     <use style="fill:#808080;stroke:#808080;" x="368.247887" xlink:href="#md8d1356141" y="554.04"/>
     <use style="fill:#808080;stroke:#808080;" x="370.343662" xlink:href="#md8d1356141" y="552.295385"/>
     <use style="fill:#808080;stroke:#808080;" x="372.439437" xlink:href="#md8d1356141" y="552.295385"/>
     <use style="fill:#808080;stroke:#808080;" x="374.535211" xlink:href="#md8d1356141" y="552.295385"/>
     <use style="fill:#808080;stroke:#808080;" x="376.630986" xlink:href="#md8d1356141" y="554.04"/>
     <use style="fill:#808080;stroke:#808080;" x="378.726761" xlink:href="#md8d1356141" y="554.04"/>
     <use style="fill:#808080;stroke:#808080;" x="380.822535" xlink:href="#md8d1356141" y="554.04"/>
     <use style="fill:#808080;stroke:#808080;" x="382.91831" xlink:href="#md8d1356141" y="554.04"/>
     <use style="fill:#808080;stroke:#808080;" x="385.014085" xlink:href="#md8d1356141" y="554.04"/>
     <use style="fill:#808080;stroke:#808080;" x="387.109859" xlink:href="#md8d1356141" y="554.04"/>
     <use style="fill:#808080;stroke:#808080;" x="389.205634" xlink:href="#md8d1356141" y="552.295385"/>
     <use style="fill:#808080;stroke:#808080;" x="391.301408" xlink:href="#md8d1356141" y="552.295385"/>
     <use style="fill:#808080;stroke:#808080;" x="393.397183" xlink:href="#md8d1356141" y="554.04"/>
     <use style="fill:#808080;stroke:#808080;" x="395.492958" xlink:href="#md8d1356141" y="554.04"/>
     <use style="fill:#808080;stroke:#808080;" x="397.588732" xlink:href="#md8d1356141" y="554.04"/>
     <use style="fill:#808080;stroke:#808080;" x="399.684507" xlink:href="#md8d1356141" y="554.04"/>
     <use style="fill:#808080;stroke:#808080;" x="401.780282" xlink:href="#md8d1356141" y="552.295385"/>
     <use style="fill:#808080;stroke:#808080;" x="403.876056" xlink:href="#md8d1356141" y="554.04"/>
     <use style="fill:#808080;stroke:#808080;" x="405.971831" xlink:href="#md8d1356141" y="552.295385"/>
     <use style="fill:#808080;stroke:#808080;" x="408.067606" xlink:href="#md8d1356141" y="554.04"/>
     <use style="fill:#808080;stroke:#808080;" x="410.16338" xlink:href="#md8d1356141" y="554.04"/>
     <use style="fill:#808080;stroke:#808080;" x="412.259155" xlink:href="#md8d1356141" y="554.04"/>
     <use style="fill:#808080;stroke:#808080;" x="414.35493" xlink:href="#md8d1356141" y="554.04"/>
     <use style="fill:#808080;stroke:#808080;" x="416.450704" xlink:href="#md8d1356141" y="554.04"/>
     <use style="fill:#808080;stroke:#808080;" x="418.546479" xlink:href="#md8d1356141" y="554.04"/>
     <use style="fill:#808080;stroke:#808080;" x="420.642254" xlink:href="#md8d1356141" y="552.295385"/>
     <use style="fill:#808080;stroke:#808080;" x="422.738028" xlink:href="#md8d1356141" y="554.04"/>
     <use style="fill:#808080;stroke:#808080;" x="424.833803" xlink:href="#md8d1356141" y="554.04"/>
     <use style="fill:#808080;stroke:#808080;" x="426.929577" xlink:href="#md8d1356141" y="554.04"/>
     <use style="fill:#808080;stroke:#808080;" x="429.025352" xlink:href="#md8d1356141" y="554.04"/>
     <use style="fill:#808080;stroke:#808080;" x="431.121127" xlink:href="#md8d1356141" y="554.04"/>
     <use style="fill:#808080;stroke:#808080;" x="433.216901" xlink:href="#md8d1356141" y="554.04"/>
     <use style="fill:#808080;stroke:#808080;" x="435.312676" xlink:href="#md8d1356141" y="554.04"/>
     <use style="fill:#808080;stroke:#808080;" x="437.408451" xlink:href="#md8d1356141" y="554.04"/>
     <use style="fill:#808080;stroke:#808080;" x="439.504225" xlink:href="#md8d1356141" y="554.04"/>
     <use style="fill:#808080;stroke:#808080;" x="441.6" xlink:href="#md8d1356141" y="554.04"/>
     <use style="fill:#808080;stroke:#808080;" x="443.695775" xlink:href="#md8d1356141" y="554.04"/>
     <use style="fill:#808080;stroke:#808080;" x="445.791549" xlink:href="#md8d1356141" y="554.04"/>
     <use style="fill:#808080;stroke:#808080;" x="447.887324" xlink:href="#md8d1356141" y="554.04"/>
     <use style="fill:#808080;stroke:#808080;" x="449.983099" xlink:href="#md8d1356141" y="554.04"/>
     <use style="fill:#808080;stroke:#808080;" x="452.078873" xlink:href="#md8d1356141" y="554.04"/>
     <use style="fill:#808080;stroke:#808080;" x="454.174648" xlink:href="#md8d1356141" y="554.04"/>
     <use style="fill:#808080;stroke:#808080;" x="456.270423" xlink:href="#md8d1356141" y="554.04"/>
     <use style="fill:#808080;stroke:#808080;" x="458.366197" xlink:href="#md8d1356141" y="554.04"/>
     <use style="fill:#808080;stroke:#808080;" x="460.461972" xlink:href="#md8d1356141" y="554.04"/>
     <use style="fill:#808080;stroke:#808080;" x="462.557746" xlink:href="#md8d1356141" y="554.04"/>
     <use style="fill:#808080;stroke:#808080;" x="464.653521" xlink:href="#md8d1356141" y="554.04"/>
     <use style="fill:#808080;stroke:#808080;" x="466.749296" xlink:href="#md8d1356141" y="554.04"/>
     <use style="fill:#808080;stroke:#808080;" x="468.84507" xlink:href="#md8d1356141" y="554.04"/>
     <use style="fill:#808080;stroke:#808080;" x="470.940845" xlink:href="#md8d1356141" y="554.04"/>
     <use style="fill:#808080;stroke:#808080;" x="473.03662" xlink:href="#md8d1356141" y="554.04"/>
     <use style="fill:#808080;stroke:#808080;" x="475.132394" xlink:href="#md8d1356141" y="554.04"/>
     <use style="fill:#808080;stroke:#808080;" x="477.228169" xlink:href="#md8d1356141" y="554.04"/>
     <use style="fill:#808080;stroke:#808080;" x="479.323944" xlink:href="#md8d1356141" y="554.04"/>
     <use style="fill:#808080;stroke:#808080;" x="481.419718" xlink:href="#md8d1356141" y="554.04"/>
     <use style="fill:#808080;stroke:#808080;" x="483.515493" xlink:href="#md8d1356141" y="554.04"/>
     <use style="fill:#808080;stroke:#808080;" x="485.611268" xlink:href="#md8d1356141" y="554.04"/>
     <use style="fill:#808080;stroke:#808080;" x="487.707042" xlink:href="#md8d1356141" y="554.04"/>
     <use style="fill:#808080;stroke:#808080;" x="489.802817" xlink:href="#md8d1356141" y="554.04"/>
     <use style="fill:#808080;stroke:#808080;" x="491.898592" xlink:href="#md8d1356141" y="554.04"/>
     <use style="fill:#808080;stroke:#808080;" x="493.994366" xlink:href="#md8d1356141" y="554.04"/>
     <use style="fill:#808080;stroke:#808080;" x="496.090141" xlink:href="#md8d1356141" y="554.04"/>
     <use style="fill:#808080;stroke:#808080;" x="498.185915" xlink:href="#md8d1356141" y="554.04"/>
     <use style="fill:#808080;stroke:#808080;" x="500.28169" xlink:href="#md8d1356141" y="554.04"/>
     <use style="fill:#808080;stroke:#808080;" x="502.377465" xlink:href="#md8d1356141" y="554.04"/>
     <use style="fill:#808080;stroke:#808080;" x="504.473239" xlink:href="#md8d1356141" y="554.04"/>
     <use style="fill:#808080;stroke:#808080;" x="506.569014" xlink:href="#md8d1356141" y="552.295385"/>
     <use style="fill:#808080;stroke:#808080;" x="508.664789" xlink:href="#md8d1356141" y="554.04"/>
     <use style="fill:#808080;stroke:#808080;" x="510.760563" xlink:href="#md8d1356141" y="554.04"/>
     <use style="fill:#808080;stroke:#808080;" x="512.856338" xlink:href="#md8d1356141" y="554.04"/>
     <use style="fill:#808080;stroke:#808080;" x="514.952113" xlink:href="#md8d1356141" y="554.04"/>
     <use style="fill:#808080;stroke:#808080;" x="517.047887" xlink:href="#md8d1356141" y="554.04"/>
     <use style="fill:#808080;stroke:#808080;" x="519.143662" xlink:href="#md8d1356141" y="554.04"/>
     <use style="fill:#808080;stroke:#808080;" x="521.239437" xlink:href="#md8d1356141" y="554.04"/>
     <use style="fill:#808080;stroke:#808080;" x="523.335211" xlink:href="#md8d1356141" y="554.04"/>
     <use style="fill:#808080;stroke:#808080;" x="525.430986" xlink:href="#md8d1356141" y="554.04"/>
     <use style="fill:#808080;stroke:#808080;" x="527.526761" xlink:href="#md8d1356141" y="554.04"/>
     <use style="fill:#808080;stroke:#808080;" x="529.622535" xlink:href="#md8d1356141" y="554.04"/>
     <use style="fill:#808080;stroke:#808080;" x="531.71831" xlink:href="#md8d1356141" y="554.04"/>
     <use style="fill:#808080;stroke:#808080;" x="533.814085" xlink:href="#md8d1356141" y="552.295385"/>
     <use style="fill:#808080;stroke:#808080;" x="535.909859" xlink:href="#md8d1356141" y="554.04"/>
     <use style="fill:#808080;stroke:#808080;" x="538.005634" xlink:href="#md8d1356141" y="554.04"/>
     <use style="fill:#808080;stroke:#808080;" x="540.101408" xlink:href="#md8d1356141" y="554.04"/>
     <use style="fill:#808080;stroke:#808080;" x="542.197183" xlink:href="#md8d1356141" y="554.04"/>
     <use style="fill:#808080;stroke:#808080;" x="544.292958" xlink:href="#md8d1356141" y="554.04"/>
     <use style="fill:#808080;stroke:#808080;" x="546.388732" xlink:href="#md8d1356141" y="554.04"/>
     <use style="fill:#808080;stroke:#808080;" x="548.484507" xlink:href="#md8d1356141" y="554.04"/>
     <use style="fill:#808080;stroke:#808080;" x="550.580282" xlink:href="#md8d1356141" y="554.04"/>
     <use style="fill:#808080;stroke:#808080;" x="552.676056" xlink:href="#md8d1356141" y="554.04"/>
     <use style="fill:#808080;stroke:#808080;" x="554.771831" xlink:href="#md8d1356141" y="554.04"/>
     <use style="fill:#808080;stroke:#808080;" x="556.867606" xlink:href="#md8d1356141" y="552.295385"/>
     <use style="fill:#808080;stroke:#808080;" x="558.96338" xlink:href="#md8d1356141" y="554.04"/>
     <use style="fill:#808080;stroke:#808080;" x="561.059155" xlink:href="#md8d1356141" y="554.04"/>
     <use style="fill:#808080;stroke:#808080;" x="563.15493" xlink:href="#md8d1356141" y="554.04"/>
     <use style="fill:#808080;stroke:#808080;" x="565.250704" xlink:href="#md8d1356141" y="554.04"/>
     <use style="fill:#808080;stroke:#808080;" x="567.346479" xlink:href="#md8d1356141" y="554.04"/>
     <use style="fill:#808080;stroke:#808080;" x="569.442254" xlink:href="#md8d1356141" y="554.04"/>
     <use style="fill:#808080;stroke:#808080;" x="571.538028" xlink:href="#md8d1356141" y="554.04"/>
     <use style="fill:#808080;stroke:#808080;" x="573.633803" xlink:href="#md8d1356141" y="554.04"/>
     <use style="fill:#808080;stroke:#808080;" x="575.729577" xlink:href="#md8d1356141" y="554.04"/>
     <use style="fill:#808080;stroke:#808080;" x="577.825352" xlink:href="#md8d1356141" y="552.295385"/>
     <use style="fill:#808080;stroke:#808080;" x="579.921127" xlink:href="#md8d1356141" y="554.04"/>
     <use style="fill:#808080;stroke:#808080;" x="582.016901" xlink:href="#md8d1356141" y="550.550769"/>
     <use style="fill:#808080;stroke:#808080;" x="584.112676" xlink:href="#md8d1356141" y="552.295385"/>
     <use style="fill:#808080;stroke:#808080;" x="586.208451" xlink:href="#md8d1356141" y="548.806154"/>
     <use style="fill:#808080;stroke:#808080;" x="588.304225" xlink:href="#md8d1356141" y="554.04"/>
     <use style="fill:#808080;stroke:#808080;" x="590.4" xlink:href="#md8d1356141" y="554.04"/>
     <use style="fill:#808080;stroke:#808080;" x="592.495775" xlink:href="#md8d1356141" y="554.04"/>
     <use style="fill:#808080;stroke:#808080;" x="594.591549" xlink:href="#md8d1356141" y="552.295385"/>
     <use style="fill:#808080;stroke:#808080;" x="596.687324" xlink:href="#md8d1356141" y="552.295385"/>
     <use style="fill:#808080;stroke:#808080;" x="598.783099" xlink:href="#md8d1356141" y="550.550769"/>
     <use style="fill:#808080;stroke:#808080;" x="600.878873" xlink:href="#md8d1356141" y="550.550769"/>
     <use style="fill:#808080;stroke:#808080;" x="602.974648" xlink:href="#md8d1356141" y="554.04"/>
     <use style="fill:#808080;stroke:#808080;" x="605.070423" xlink:href="#md8d1356141" y="554.04"/>
     <use style="fill:#808080;stroke:#808080;" x="607.166197" xlink:href="#md8d1356141" y="554.04"/>
     <use style="fill:#808080;stroke:#808080;" x="609.261972" xlink:href="#md8d1356141" y="547.061538"/>
     <use style="fill:#808080;stroke:#808080;" x="611.357746" xlink:href="#md8d1356141" y="554.04"/>
     <use style="fill:#808080;stroke:#808080;" x="613.453521" xlink:href="#md8d1356141" y="554.04"/>
     <use style="fill:#808080;stroke:#808080;" x="615.549296" xlink:href="#md8d1356141" y="548.806154"/>
     <use style="fill:#808080;stroke:#808080;" x="617.64507" xlink:href="#md8d1356141" y="552.295385"/>
     <use style="fill:#808080;stroke:#808080;" x="619.740845" xlink:href="#md8d1356141" y="552.295385"/>
     <use style="fill:#808080;stroke:#808080;" x="621.83662" xlink:href="#md8d1356141" y="554.04"/>
     <use style="fill:#808080;stroke:#808080;" x="623.932394" xlink:href="#md8d1356141" y="550.550769"/>
     <use style="fill:#808080;stroke:#808080;" x="626.028169" xlink:href="#md8d1356141" y="550.550769"/>
     <use style="fill:#808080;stroke:#808080;" x="628.123944" xlink:href="#md8d1356141" y="548.806154"/>
     <use style="fill:#808080;stroke:#808080;" x="630.219718" xlink:href="#md8d1356141" y="550.550769"/>
     <use style="fill:#808080;stroke:#808080;" x="632.315493" xlink:href="#md8d1356141" y="554.04"/>
     <use style="fill:#808080;stroke:#808080;" x="634.411268" xlink:href="#md8d1356141" y="552.295385"/>
     <use style="fill:#808080;stroke:#808080;" x="636.507042" xlink:href="#md8d1356141" y="552.295385"/>
     <use style="fill:#808080;stroke:#808080;" x="638.602817" xlink:href="#md8d1356141" y="545.316923"/>
     <use style="fill:#808080;stroke:#808080;" x="640.698592" xlink:href="#md8d1356141" y="545.316923"/>
     <use style="fill:#808080;stroke:#808080;" x="642.794366" xlink:href="#md8d1356141" y="548.806154"/>
     <use style="fill:#808080;stroke:#808080;" x="644.890141" xlink:href="#md8d1356141" y="552.295385"/>
     <use style="fill:#808080;stroke:#808080;" x="646.985915" xlink:href="#md8d1356141" y="545.316923"/>
     <use style="fill:#808080;stroke:#808080;" x="649.08169" xlink:href="#md8d1356141" y="554.04"/>
     <use style="fill:#808080;stroke:#808080;" x="651.177465" xlink:href="#md8d1356141" y="545.316923"/>
     <use style="fill:#808080;stroke:#808080;" x="653.273239" xlink:href="#md8d1356141" y="538.338462"/>
     <use style="fill:#808080;stroke:#808080;" x="655.369014" xlink:href="#md8d1356141" y="540.083077"/>
     <use style="fill:#808080;stroke:#808080;" x="657.464789" xlink:href="#md8d1356141" y="527.870769"/>
     <use style="fill:#808080;stroke:#808080;" x="659.560563" xlink:href="#md8d1356141" y="550.550769"/>
     <use style="fill:#808080;stroke:#808080;" x="661.656338" xlink:href="#md8d1356141" y="545.316923"/>
     <use style="fill:#808080;stroke:#808080;" x="663.752113" xlink:href="#md8d1356141" y="550.550769"/>
     <use style="fill:#808080;stroke:#808080;" x="665.847887" xlink:href="#md8d1356141" y="522.636923"/>
     <use style="fill:#808080;stroke:#808080;" x="667.943662" xlink:href="#md8d1356141" y="540.083077"/>
     <use style="fill:#808080;stroke:#808080;" x="670.039437" xlink:href="#md8d1356141" y="527.870769"/>
     <use style="fill:#808080;stroke:#808080;" x="672.135211" xlink:href="#md8d1356141" y="517.403077"/>
     <use style="fill:#808080;stroke:#808080;" x="674.230986" xlink:href="#md8d1356141" y="548.806154"/>
     <use style="fill:#808080;stroke:#808080;" x="676.326761" xlink:href="#md8d1356141" y="531.36"/>
     <use style="fill:#808080;stroke:#808080;" x="678.422535" xlink:href="#md8d1356141" y="548.806154"/>
     <use style="fill:#808080;stroke:#808080;" x="680.51831" xlink:href="#md8d1356141" y="547.061538"/>
     <use style="fill:#808080;stroke:#808080;" x="682.614085" xlink:href="#md8d1356141" y="524.381538"/>
     <use style="fill:#808080;stroke:#808080;" x="684.709859" xlink:href="#md8d1356141" y="498.212308"/>
     <use style="fill:#808080;stroke:#808080;" x="686.805634" xlink:href="#md8d1356141" y="526.126154"/>
     <use style="fill:#808080;stroke:#808080;" x="688.901408" xlink:href="#md8d1356141" y="505.190769"/>
     <use style="fill:#808080;stroke:#808080;" x="690.997183" xlink:href="#md8d1356141" y="538.338462"/>
     <use style="fill:#808080;stroke:#808080;" x="693.092958" xlink:href="#md8d1356141" y="548.806154"/>
     <use style="fill:#808080;stroke:#808080;" x="695.188732" xlink:href="#md8d1356141" y="498.212308"/>
     <use style="fill:#808080;stroke:#808080;" x="697.284507" xlink:href="#md8d1356141" y="517.403077"/>
     <use style="fill:#808080;stroke:#808080;" x="699.380282" xlink:href="#md8d1356141" y="527.870769"/>
     <use style="fill:#808080;stroke:#808080;" x="701.476056" xlink:href="#md8d1356141" y="519.147692"/>
     <use style="fill:#808080;stroke:#808080;" x="703.571831" xlink:href="#md8d1356141" y="512.169231"/>
     <use style="fill:#808080;stroke:#808080;" x="705.667606" xlink:href="#md8d1356141" y="515.658462"/>
     <use style="fill:#808080;stroke:#808080;" x="707.76338" xlink:href="#md8d1356141" y="520.892308"/>
     <use style="fill:#808080;stroke:#808080;" x="709.859155" xlink:href="#md8d1356141" y="527.870769"/>
     <use style="fill:#808080;stroke:#808080;" x="711.95493" xlink:href="#md8d1356141" y="505.190769"/>
     <use style="fill:#808080;stroke:#808080;" x="714.050704" xlink:href="#md8d1356141" y="536.593846"/>
     <use style="fill:#808080;stroke:#808080;" x="716.146479" xlink:href="#md8d1356141" y="414.470769"/>
     <use style="fill:#808080;stroke:#808080;" x="718.242254" xlink:href="#md8d1356141" y="452.852308"/>
     <use style="fill:#808080;stroke:#808080;" x="720.338028" xlink:href="#md8d1356141" y="512.169231"/>
     <use style="fill:#808080;stroke:#808080;" x="722.433803" xlink:href="#md8d1356141" y="484.255385"/>
     <use style="fill:#808080;stroke:#808080;" x="724.529577" xlink:href="#md8d1356141" y="479.021538"/>
     <use style="fill:#808080;stroke:#808080;" x="726.625352" xlink:href="#md8d1356141" y="475.532308"/>
     <use style="fill:#808080;stroke:#808080;" x="728.721127" xlink:href="#md8d1356141" y="426.683077"/>
     <use style="fill:#808080;stroke:#808080;" x="730.816901" xlink:href="#md8d1356141" y="451.107692"/>
     <use style="fill:#808080;stroke:#808080;" x="732.912676" xlink:href="#md8d1356141" y="410.981538"/>
     <use style="fill:#808080;stroke:#808080;" x="735.008451" xlink:href="#md8d1356141" y="458.086154"/>
     <use style="fill:#808080;stroke:#808080;" x="737.104225" xlink:href="#md8d1356141" y="531.36"/>
     <use style="fill:#808080;stroke:#808080;" x="739.2" xlink:href="#md8d1356141" y="527.870769"/>
     <use style="fill:#808080;stroke:#808080;" x="741.295775" xlink:href="#md8d1356141" y="424.938462"/>
     <use style="fill:#808080;stroke:#808080;" x="743.391549" xlink:href="#md8d1356141" y="472.043077"/>
     <use style="fill:#808080;stroke:#808080;" x="745.487324" xlink:href="#md8d1356141" y="419.704615"/>
     <use style="fill:#808080;stroke:#808080;" x="747.583099" xlink:href="#md8d1356141" y="404.003077"/>
     <use style="fill:#808080;stroke:#808080;" x="749.678873" xlink:href="#md8d1356141" y="447.618462"/>
     <use style="fill:#808080;stroke:#808080;" x="751.774648" xlink:href="#md8d1356141" y="466.809231"/>
     <use style="fill:#808080;stroke:#808080;" x="753.870423" xlink:href="#md8d1356141" y="554.04"/>
     <use style="fill:#808080;stroke:#808080;" x="755.966197" xlink:href="#md8d1356141" y="287.113846"/>
     <use style="fill:#808080;stroke:#808080;" x="758.061972" xlink:href="#md8d1356141" y="435.406154"/>
     <use style="fill:#808080;stroke:#808080;" x="760.157746" xlink:href="#md8d1356141" y="397.024615"/>
     <use style="fill:#808080;stroke:#808080;" x="762.253521" xlink:href="#md8d1356141" y="346.430769"/>
     <use style="fill:#808080;stroke:#808080;" x="764.349296" xlink:href="#md8d1356141" y="407.492308"/>
     <use style="fill:#808080;stroke:#808080;" x="766.44507" xlink:href="#md8d1356141" y="491.233846"/>
     <use style="fill:#808080;stroke:#808080;" x="768.540845" xlink:href="#md8d1356141" y="444.129231"/>
     <use style="fill:#808080;stroke:#808080;" x="770.63662" xlink:href="#md8d1356141" y="390.046154"/>
     <use style="fill:#808080;stroke:#808080;" x="772.732394" xlink:href="#md8d1356141" y="287.113846"/>
     <use style="fill:#808080;stroke:#808080;" x="774.828169" xlink:href="#md8d1356141" y="386.556923"/>
     <use style="fill:#808080;stroke:#808080;" x="776.923944" xlink:href="#md8d1356141" y="512.169231"/>
     <use style="fill:#808080;stroke:#808080;" x="779.019718" xlink:href="#md8d1356141" y="512.169231"/>
     <use style="fill:#808080;stroke:#808080;" x="781.115493" xlink:href="#md8d1356141" y="506.935385"/>
     <use style="fill:#808080;stroke:#808080;" x="783.211268" xlink:href="#md8d1356141" y="370.855385"/>
     <use style="fill:#808080;stroke:#808080;" x="785.307042" xlink:href="#md8d1356141" y="266.178462"/>
     <use style="fill:#808080;stroke:#808080;" x="787.402817" xlink:href="#md8d1356141" y="316.772308"/>
     <use style="fill:#808080;stroke:#808080;" x="789.498592" xlink:href="#md8d1356141" y="332.473846"/>
     <use style="fill:#808080;stroke:#808080;" x="791.594366" xlink:href="#md8d1356141" y="491.233846"/>
     <use style="fill:#808080;stroke:#808080;" x="793.690141" xlink:href="#md8d1356141" y="465.064615"/>
     <use style="fill:#808080;stroke:#808080;" x="795.785915" xlink:href="#md8d1356141" y="510.424615"/>
     <use style="fill:#808080;stroke:#808080;" x="797.88169" xlink:href="#md8d1356141" y="494.723077"/>
     <use style="fill:#808080;stroke:#808080;" x="799.977465" xlink:href="#md8d1356141" y="397.024615"/>
     <use style="fill:#808080;stroke:#808080;" x="802.073239" xlink:href="#md8d1356141" y="337.707692"/>
     <use style="fill:#808080;stroke:#808080;" x="804.169014" xlink:href="#md8d1356141" y="226.052308"/>
     <use style="fill:#808080;stroke:#808080;" x="806.264789" xlink:href="#md8d1356141" y="262.689231"/>
     <use style="fill:#808080;stroke:#808080;" x="808.360563" xlink:href="#md8d1356141" y="409.236923"/>
     <use style="fill:#808080;stroke:#808080;" x="810.456338" xlink:href="#md8d1356141" y="438.895385"/>
     <use style="fill:#808080;stroke:#808080;" x="812.552113" xlink:href="#md8d1356141" y="438.895385"/>
     <use style="fill:#808080;stroke:#808080;" x="814.647887" xlink:href="#md8d1356141" y="332.473846"/>
     <use style="fill:#808080;stroke:#808080;" x="816.743662" xlink:href="#md8d1356141" y="100.44"/>
     <use style="fill:#808080;stroke:#808080;" x="818.839437" xlink:href="#md8d1356141" y="185.926154"/>
     <use style="fill:#808080;stroke:#808080;" x="820.935211" xlink:href="#md8d1356141" y="226.052308"/>
     <use style="fill:#808080;stroke:#808080;" x="823.030986" xlink:href="#md8d1356141" y="384.812308"/>
     <use style="fill:#808080;stroke:#808080;" x="825.126761" xlink:href="#md8d1356141" y="510.424615"/>
     <use style="fill:#808080;stroke:#808080;" x="827.222535" xlink:href="#md8d1356141" y="463.32"/>
     <use style="fill:#808080;stroke:#808080;" x="829.31831" xlink:href="#md8d1356141" y="290.603077"/>
     <use style="fill:#808080;stroke:#808080;" x="831.414085" xlink:href="#md8d1356141" y="334.218462"/>
     <use style="fill:#808080;stroke:#808080;" x="833.509859" xlink:href="#md8d1356141" y="407.492308"/>
     <use style="fill:#808080;stroke:#808080;" x="835.605634" xlink:href="#md8d1356141" y="287.113846"/>
     <use style="fill:#808080;stroke:#808080;" x="837.701408" xlink:href="#md8d1356141" y="463.32"/>
     <use style="fill:#808080;stroke:#808080;" x="839.797183" xlink:href="#md8d1356141" y="540.083077"/>
     <use style="fill:#808080;stroke:#808080;" x="841.892958" xlink:href="#md8d1356141" y="433.661538"/>
     <use style="fill:#808080;stroke:#808080;" x="843.988732" xlink:href="#md8d1356141" y="342.941538"/>
     <use style="fill:#808080;stroke:#808080;" x="846.084507" xlink:href="#md8d1356141" y="410.981538"/>
     <use style="fill:#808080;stroke:#808080;" x="848.180282" xlink:href="#md8d1356141" y="290.603077"/>
     <use style="fill:#808080;stroke:#808080;" x="850.276056" xlink:href="#md8d1356141" y="377.833846"/>
     <use style="fill:#808080;stroke:#808080;" x="852.371831" xlink:href="#md8d1356141" y="494.723077"/>
     <use style="fill:#808080;stroke:#808080;" x="854.467606" xlink:href="#md8d1356141" y="552.295385"/>
     <use style="fill:#808080;stroke:#808080;" x="856.56338" xlink:href="#md8d1356141" y="417.96"/>
     <use style="fill:#808080;stroke:#808080;" x="858.659155" xlink:href="#md8d1356141" y="376.089231"/>
     <use style="fill:#808080;stroke:#808080;" x="860.75493" xlink:href="#md8d1356141" y="395.28"/>
     <use style="fill:#808080;stroke:#808080;" x="862.850704" xlink:href="#md8d1356141" y="381.323077"/>
     <use style="fill:#808080;stroke:#808080;" x="864.946479" xlink:href="#md8d1356141" y="414.470769"/>
     <use style="fill:#808080;stroke:#808080;" x="867.042254" xlink:href="#md8d1356141" y="512.169231"/>
     <use style="fill:#808080;stroke:#808080;" x="869.138028" xlink:href="#md8d1356141" y="499.956923"/>
     <use style="fill:#808080;stroke:#808080;" x="871.233803" xlink:href="#md8d1356141" y="515.658462"/>
     <use style="fill:#808080;stroke:#808080;" x="873.329577" xlink:href="#md8d1356141" y="416.215385"/>
     <use style="fill:#808080;stroke:#808080;" x="875.425352" xlink:href="#md8d1356141" y="372.6"/>
     <use style="fill:#808080;stroke:#808080;" x="877.521127" xlink:href="#md8d1356141" y="475.532308"/>
     <use style="fill:#808080;stroke:#808080;" x="879.616901" xlink:href="#md8d1356141" y="445.873846"/>
     <use style="fill:#808080;stroke:#808080;" x="881.712676" xlink:href="#md8d1356141" y="517.403077"/>
     <use style="fill:#808080;stroke:#808080;" x="883.808451" xlink:href="#md8d1356141" y="540.083077"/>
     <use style="fill:#808080;stroke:#808080;" x="885.904225" xlink:href="#md8d1356141" y="458.086154"/>
     <use style="fill:#808080;stroke:#808080;" x="888" xlink:href="#md8d1356141" y="456.341538"/>
     <use style="fill:#808080;stroke:#808080;" x="890.095775" xlink:href="#md8d1356141" y="470.298462"/>
     <use style="fill:#808080;stroke:#808080;" x="892.191549" xlink:href="#md8d1356141" y="454.596923"/>
     <use style="fill:#808080;stroke:#808080;" x="894.287324" xlink:href="#md8d1356141" y="393.535385"/>
     <use style="fill:#808080;stroke:#808080;" x="896.383099" xlink:href="#md8d1356141" y="529.615385"/>
     <use style="fill:#808080;stroke:#808080;" x="898.478873" xlink:href="#md8d1356141" y="548.806154"/>
     <use style="fill:#808080;stroke:#808080;" x="900.574648" xlink:href="#md8d1356141" y="494.723077"/>
     <use style="fill:#808080;stroke:#808080;" x="902.670423" xlink:href="#md8d1356141" y="492.978462"/>
     <use style="fill:#808080;stroke:#808080;" x="904.766197" xlink:href="#md8d1356141" y="475.532308"/>
     <use style="fill:#808080;stroke:#808080;" x="906.861972" xlink:href="#md8d1356141" y="486"/>
     <use style="fill:#808080;stroke:#808080;" x="908.957746" xlink:href="#md8d1356141" y="390.046154"/>
     <use style="fill:#808080;stroke:#808080;" x="911.053521" xlink:href="#md8d1356141" y="470.298462"/>
     <use style="fill:#808080;stroke:#808080;" x="913.149296" xlink:href="#md8d1356141" y="545.316923"/>
     <use style="fill:#808080;stroke:#808080;" x="915.24507" xlink:href="#md8d1356141" y="454.596923"/>
     <use style="fill:#808080;stroke:#808080;" x="917.340845" xlink:href="#md8d1356141" y="477.276923"/>
     <use style="fill:#808080;stroke:#808080;" x="919.43662" xlink:href="#md8d1356141" y="470.298462"/>
     <use style="fill:#808080;stroke:#808080;" x="921.532394" xlink:href="#md8d1356141" y="499.956923"/>
     <use style="fill:#808080;stroke:#808080;" x="923.628169" xlink:href="#md8d1356141" y="479.021538"/>
     <use style="fill:#808080;stroke:#808080;" x="925.723944" xlink:href="#md8d1356141" y="548.806154"/>
     <use style="fill:#808080;stroke:#808080;" x="927.819718" xlink:href="#md8d1356141" y="554.04"/>
     <use style="fill:#808080;stroke:#808080;" x="929.915493" xlink:href="#md8d1356141" y="529.615385"/>
     <use style="fill:#808080;stroke:#808080;" x="932.011268" xlink:href="#md8d1356141" y="487.744615"/>
     <use style="fill:#808080;stroke:#808080;" x="934.107042" xlink:href="#md8d1356141" y="496.467692"/>
     <use style="fill:#808080;stroke:#808080;" x="936.202817" xlink:href="#md8d1356141" y="508.68"/>
     <use style="fill:#808080;stroke:#808080;" x="938.298592" xlink:href="#md8d1356141" y="529.615385"/>
     <use style="fill:#808080;stroke:#808080;" x="940.394366" xlink:href="#md8d1356141" y="543.572308"/>
     <use style="fill:#808080;stroke:#808080;" x="942.490141" xlink:href="#md8d1356141" y="554.04"/>
     <use style="fill:#808080;stroke:#808080;" x="944.585915" xlink:href="#md8d1356141" y="538.338462"/>
     <use style="fill:#808080;stroke:#808080;" x="946.68169" xlink:href="#md8d1356141" y="512.169231"/>
     <use style="fill:#808080;stroke:#808080;" x="948.777465" xlink:href="#md8d1356141" y="522.636923"/>
     <use style="fill:#808080;stroke:#808080;" x="950.873239" xlink:href="#md8d1356141" y="522.636923"/>
     <use style="fill:#808080;stroke:#808080;" x="952.969014" xlink:href="#md8d1356141" y="533.104615"/>
     <use style="fill:#808080;stroke:#808080;" x="955.064789" xlink:href="#md8d1356141" y="515.658462"/>
     <use style="fill:#808080;stroke:#808080;" x="957.160563" xlink:href="#md8d1356141" y="554.04"/>
     <use style="fill:#808080;stroke:#808080;" x="959.256338" xlink:href="#md8d1356141" y="526.126154"/>
     <use style="fill:#808080;stroke:#808080;" x="961.352113" xlink:href="#md8d1356141" y="491.233846"/>
     <use style="fill:#808080;stroke:#808080;" x="963.447887" xlink:href="#md8d1356141" y="522.636923"/>
     <use style="fill:#808080;stroke:#808080;" x="965.543662" xlink:href="#md8d1356141" y="531.36"/>
     <use style="fill:#808080;stroke:#808080;" x="967.639437" xlink:href="#md8d1356141" y="519.147692"/>
     <use style="fill:#808080;stroke:#808080;" x="969.735211" xlink:href="#md8d1356141" y="543.572308"/>
     <use style="fill:#808080;stroke:#808080;" x="971.830986" xlink:href="#md8d1356141" y="548.806154"/>
     <use style="fill:#808080;stroke:#808080;" x="973.926761" xlink:href="#md8d1356141" y="543.572308"/>
     <use style="fill:#808080;stroke:#808080;" x="976.022535" xlink:href="#md8d1356141" y="515.658462"/>
     <use style="fill:#808080;stroke:#808080;" x="978.11831" xlink:href="#md8d1356141" y="531.36"/>
     <use style="fill:#808080;stroke:#808080;" x="980.214085" xlink:href="#md8d1356141" y="498.212308"/>
     <use style="fill:#808080;stroke:#808080;" x="982.309859" xlink:href="#md8d1356141" y="519.147692"/>
     <use style="fill:#808080;stroke:#808080;" x="984.405634" xlink:href="#md8d1356141" y="545.316923"/>
     <use style="fill:#808080;stroke:#808080;" x="986.501408" xlink:href="#md8d1356141" y="550.550769"/>
     <use style="fill:#808080;stroke:#808080;" x="988.597183" xlink:href="#md8d1356141" y="552.295385"/>
     <use style="fill:#808080;stroke:#808080;" x="990.692958" xlink:href="#md8d1356141" y="526.126154"/>
     <use style="fill:#808080;stroke:#808080;" x="992.788732" xlink:href="#md8d1356141" y="508.68"/>
     <use style="fill:#808080;stroke:#808080;" x="994.884507" xlink:href="#md8d1356141" y="494.723077"/>
     <use style="fill:#808080;stroke:#808080;" x="996.980282" xlink:href="#md8d1356141" y="492.978462"/>
     <use style="fill:#808080;stroke:#808080;" x="999.076056" xlink:href="#md8d1356141" y="534.849231"/>
     <use style="fill:#808080;stroke:#808080;" x="1001.171831" xlink:href="#md8d1356141" y="548.806154"/>
     <use style="fill:#808080;stroke:#808080;" x="1003.267606" xlink:href="#md8d1356141" y="527.870769"/>
     <use style="fill:#808080;stroke:#808080;" x="1005.36338" xlink:href="#md8d1356141" y="486"/>
     <use style="fill:#808080;stroke:#808080;" x="1007.459155" xlink:href="#md8d1356141" y="480.766154"/>
     <use style="fill:#808080;stroke:#808080;" x="1009.55493" xlink:href="#md8d1356141" y="479.021538"/>
     <use style="fill:#808080;stroke:#808080;" x="1011.650704" xlink:href="#md8d1356141" y="506.935385"/>
     <use style="fill:#808080;stroke:#808080;" x="1013.746479" xlink:href="#md8d1356141" y="534.849231"/>
     <use style="fill:#808080;stroke:#808080;" x="1015.842254" xlink:href="#md8d1356141" y="554.04"/>
     <use style="fill:#808080;stroke:#808080;" x="1017.938028" xlink:href="#md8d1356141" y="517.403077"/>
     <use style="fill:#808080;stroke:#808080;" x="1020.033803" xlink:href="#md8d1356141" y="492.978462"/>
     <use style="fill:#808080;stroke:#808080;" x="1022.129577" xlink:href="#md8d1356141" y="486"/>
     <use style="fill:#808080;stroke:#808080;" x="1024.225352" xlink:href="#md8d1356141" y="496.467692"/>
     <use style="fill:#808080;stroke:#808080;" x="1026.321127" xlink:href="#md8d1356141" y="473.787692"/>
     <use style="fill:#808080;stroke:#808080;" x="1028.416901" xlink:href="#md8d1356141" y="512.169231"/>
     <use style="fill:#808080;stroke:#808080;" x="1030.512676" xlink:href="#md8d1356141" y="541.827692"/>
     <use style="fill:#808080;stroke:#808080;" x="1032.608451" xlink:href="#md8d1356141" y="466.809231"/>
     <use style="fill:#808080;stroke:#808080;" x="1034.704225" xlink:href="#md8d1356141" y="508.68"/>
     <use style="fill:#808080;stroke:#808080;" x="1036.8" xlink:href="#md8d1356141" y="510.424615"/>
    </g>
   </g>
   <g id="patch_3">
    <path d="M 144 576.72 
L 144 77.76 
" style="fill:none;stroke:#000000;stroke-linecap:square;stroke-linejoin:miter;stroke-width:0.8;"/>
   </g>
   <g id="patch_4">
    <path d="M 1036.8 576.72 
L 1036.8 77.76 
" style="fill:none;stroke:#000000;stroke-linecap:square;stroke-linejoin:miter;stroke-width:0.8;"/>
   </g>
   <g id="patch_5">
    <path d="M 144 576.72 
L 1036.8 576.72 
" style="fill:none;stroke:#000000;stroke-linecap:square;stroke-linejoin:miter;stroke-width:0.8;"/>
   </g>
   <g id="patch_6">
    <path d="M 144 77.76 
L 1036.8 77.76 
" style="fill:none;stroke:#000000;stroke-linecap:square;stroke-linejoin:miter;stroke-width:0.8;"/>
   </g>
   <g id="legend_1">
    <g id="patch_7">
     <path d="M 883.44375 159.150625 
L 1029.8 159.150625 
Q 1031.8 159.150625 1031.8 157.150625 
L 1031.8 84.76 
Q 1031.8 82.76 1029.8 82.76 
L 883.44375 82.76 
Q 881.44375 82.76 881.44375 84.76 
L 881.44375 157.150625 
Q 881.44375 159.150625 883.44375 159.150625 
z
" style="fill:#ffffff;opacity:0.8;stroke:#cccccc;stroke-linejoin:miter;"/>
    </g>
    <g id="line2d_24">
     <path d="M 885.44375 90.858438 
L 905.44375 90.858438 
" style="fill:none;stroke:#808080;stroke-dasharray:1.5,2.475;stroke-dashoffset:0;stroke-width:1.5;"/>
    </g>
    <g id="line2d_25">
     <g>
      <use style="fill:#808080;stroke:#808080;" x="895.44375" xlink:href="#md8d1356141" y="90.858438"/>
     </g>
    </g>
    <g id="text_13">
     <!-- Deaths -->
     <g transform="translate(913.44375 94.358438)scale(0.1 -0.1)">
      <defs>
       <path d="M 1259 4147 
L 1259 519 
L 2022 519 
Q 2988 519 3436 956 
Q 3884 1394 3884 2338 
Q 3884 3275 3436 3711 
Q 2988 4147 2022 4147 
L 1259 4147 
z
M 628 4666 
L 1925 4666 
Q 3281 4666 3915 4102 
Q 4550 3538 4550 2338 
Q 4550 1131 3912 565 
Q 3275 0 1925 0 
L 628 0 
L 628 4666 
z
" id="DejaVuSans-44" transform="scale(0.015625)"/>
       <path d="M 3597 1894 
L 3597 1613 
L 953 1613 
Q 991 1019 1311 708 
Q 1631 397 2203 397 
Q 2534 397 2845 478 
Q 3156 559 3463 722 
L 3463 178 
Q 3153 47 2828 -22 
Q 2503 -91 2169 -91 
Q 1331 -91 842 396 
Q 353 884 353 1716 
Q 353 2575 817 3079 
Q 1281 3584 2069 3584 
Q 2775 3584 3186 3129 
Q 3597 2675 3597 1894 
z
M 3022 2063 
Q 3016 2534 2758 2815 
Q 2500 3097 2075 3097 
Q 1594 3097 1305 2825 
Q 1016 2553 972 2059 
L 3022 2063 
z
" id="DejaVuSans-65" transform="scale(0.015625)"/>
       <path d="M 3513 2113 
L 3513 0 
L 2938 0 
L 2938 2094 
Q 2938 2591 2744 2837 
Q 2550 3084 2163 3084 
Q 1697 3084 1428 2787 
Q 1159 2491 1159 1978 
L 1159 0 
L 581 0 
L 581 4863 
L 1159 4863 
L 1159 2956 
Q 1366 3272 1645 3428 
Q 1925 3584 2291 3584 
Q 2894 3584 3203 3211 
Q 3513 2838 3513 2113 
z
" id="DejaVuSans-68" transform="scale(0.015625)"/>
       <path d="M 2834 3397 
L 2834 2853 
Q 2591 2978 2328 3040 
Q 2066 3103 1784 3103 
Q 1356 3103 1142 2972 
Q 928 2841 928 2578 
Q 928 2378 1081 2264 
Q 1234 2150 1697 2047 
L 1894 2003 
Q 2506 1872 2764 1633 
Q 3022 1394 3022 966 
Q 3022 478 2636 193 
Q 2250 -91 1575 -91 
Q 1294 -91 989 -36 
Q 684 19 347 128 
L 347 722 
Q 666 556 975 473 
Q 1284 391 1588 391 
Q 1994 391 2212 530 
Q 2431 669 2431 922 
Q 2431 1156 2273 1281 
Q 2116 1406 1581 1522 
L 1381 1569 
Q 847 1681 609 1914 
Q 372 2147 372 2553 
Q 372 3047 722 3315 
Q 1072 3584 1716 3584 
Q 2034 3584 2315 3537 
Q 2597 3491 2834 3397 
z
" id="DejaVuSans-73" transform="scale(0.015625)"/>
      </defs>
      <use xlink:href="#DejaVuSans-44"/>
      <use x="77.001953" xlink:href="#DejaVuSans-65"/>
      <use x="138.525391" xlink:href="#DejaVuSans-61"/>
      <use x="199.804688" xlink:href="#DejaVuSans-74"/>
      <use x="239.013672" xlink:href="#DejaVuSans-68"/>
      <use x="302.392578" xlink:href="#DejaVuSans-73"/>
     </g>
    </g>
    <g id="line2d_26">
     <path d="M 885.44375 105.536563 
L 905.44375 105.536563 
" style="fill:none;stroke:#1f77b4;stroke-linecap:square;stroke-width:1.5;"/>
    </g>
    <g id="line2d_27"/>
    <g id="text_14">
     <!-- ICU low care (right) -->
     <g transform="translate(913.44375 109.036563)scale(0.1 -0.1)">
      <defs>
       <path d="M 628 4666 
L 1259 4666 
L 1259 0 
L 628 0 
L 628 4666 
z
" id="DejaVuSans-49" transform="scale(0.015625)"/>
       <path d="M 4122 4306 
L 4122 3641 
Q 3803 3938 3442 4084 
Q 3081 4231 2675 4231 
Q 1875 4231 1450 3742 
Q 1025 3253 1025 2328 
Q 1025 1406 1450 917 
Q 1875 428 2675 428 
Q 3081 428 3442 575 
Q 3803 722 4122 1019 
L 4122 359 
Q 3791 134 3420 21 
Q 3050 -91 2638 -91 
Q 1578 -91 968 557 
Q 359 1206 359 2328 
Q 359 3453 968 4101 
Q 1578 4750 2638 4750 
Q 3056 4750 3426 4639 
Q 3797 4528 4122 4306 
z
" id="DejaVuSans-43" transform="scale(0.015625)"/>
       <path d="M 556 4666 
L 1191 4666 
L 1191 1831 
Q 1191 1081 1462 751 
Q 1734 422 2344 422 
Q 2950 422 3222 751 
Q 3494 1081 3494 1831 
L 3494 4666 
L 4128 4666 
L 4128 1753 
Q 4128 841 3676 375 
Q 3225 -91 2344 -91 
Q 1459 -91 1007 375 
Q 556 841 556 1753 
L 556 4666 
z
" id="DejaVuSans-55" transform="scale(0.015625)"/>
       <path id="DejaVuSans-20" transform="scale(0.015625)"/>
       <path d="M 1959 3097 
Q 1497 3097 1228 2736 
Q 959 2375 959 1747 
Q 959 1119 1226 758 
Q 1494 397 1959 397 
Q 2419 397 2687 759 
Q 2956 1122 2956 1747 
Q 2956 2369 2687 2733 
Q 2419 3097 1959 3097 
z
M 1959 3584 
Q 2709 3584 3137 3096 
Q 3566 2609 3566 1747 
Q 3566 888 3137 398 
Q 2709 -91 1959 -91 
Q 1206 -91 779 398 
Q 353 888 353 1747 
Q 353 2609 779 3096 
Q 1206 3584 1959 3584 
z
" id="DejaVuSans-6f" transform="scale(0.015625)"/>
       <path d="M 269 3500 
L 844 3500 
L 1563 769 
L 2278 3500 
L 2956 3500 
L 3675 769 
L 4391 3500 
L 4966 3500 
L 4050 0 
L 3372 0 
L 2619 2869 
L 1863 0 
L 1184 0 
L 269 3500 
z
" id="DejaVuSans-77" transform="scale(0.015625)"/>
       <path d="M 1984 4856 
Q 1566 4138 1362 3434 
Q 1159 2731 1159 2009 
Q 1159 1288 1364 580 
Q 1569 -128 1984 -844 
L 1484 -844 
Q 1016 -109 783 600 
Q 550 1309 550 2009 
Q 550 2706 781 3412 
Q 1013 4119 1484 4856 
L 1984 4856 
z
" id="DejaVuSans-28" transform="scale(0.015625)"/>
       <path d="M 603 3500 
L 1178 3500 
L 1178 0 
L 603 0 
L 603 3500 
z
M 603 4863 
L 1178 4863 
L 1178 4134 
L 603 4134 
L 603 4863 
z
" id="DejaVuSans-69" transform="scale(0.015625)"/>
       <path d="M 2906 1791 
Q 2906 2416 2648 2759 
Q 2391 3103 1925 3103 
Q 1463 3103 1205 2759 
Q 947 2416 947 1791 
Q 947 1169 1205 825 
Q 1463 481 1925 481 
Q 2391 481 2648 825 
Q 2906 1169 2906 1791 
z
M 3481 434 
Q 3481 -459 3084 -895 
Q 2688 -1331 1869 -1331 
Q 1566 -1331 1297 -1286 
Q 1028 -1241 775 -1147 
L 775 -588 
Q 1028 -725 1275 -790 
Q 1522 -856 1778 -856 
Q 2344 -856 2625 -561 
Q 2906 -266 2906 331 
L 2906 616 
Q 2728 306 2450 153 
Q 2172 0 1784 0 
Q 1141 0 747 490 
Q 353 981 353 1791 
Q 353 2603 747 3093 
Q 1141 3584 1784 3584 
Q 2172 3584 2450 3431 
Q 2728 3278 2906 2969 
L 2906 3500 
L 3481 3500 
L 3481 434 
z
" id="DejaVuSans-67" transform="scale(0.015625)"/>
       <path d="M 513 4856 
L 1013 4856 
Q 1481 4119 1714 3412 
Q 1947 2706 1947 2009 
Q 1947 1309 1714 600 
Q 1481 -109 1013 -844 
L 513 -844 
Q 928 -128 1133 580 
Q 1338 1288 1338 2009 
Q 1338 2731 1133 3434 
Q 928 4138 513 4856 
z
" id="DejaVuSans-29" transform="scale(0.015625)"/>
      </defs>
      <use xlink:href="#DejaVuSans-49"/>
      <use x="29.492188" xlink:href="#DejaVuSans-43"/>
      <use x="99.316406" xlink:href="#DejaVuSans-55"/>
      <use x="172.509766" xlink:href="#DejaVuSans-20"/>
      <use x="204.296875" xlink:href="#DejaVuSans-6c"/>
      <use x="232.080078" xlink:href="#DejaVuSans-6f"/>
      <use x="293.261719" xlink:href="#DejaVuSans-77"/>
      <use x="375.048828" xlink:href="#DejaVuSans-20"/>
      <use x="406.835938" xlink:href="#DejaVuSans-63"/>
      <use x="461.816406" xlink:href="#DejaVuSans-61"/>
      <use x="523.095703" xlink:href="#DejaVuSans-72"/>
      <use x="561.958984" xlink:href="#DejaVuSans-65"/>
      <use x="623.482422" xlink:href="#DejaVuSans-20"/>
      <use x="655.269531" xlink:href="#DejaVuSans-28"/>
      <use x="694.283203" xlink:href="#DejaVuSans-72"/>
      <use x="735.396484" xlink:href="#DejaVuSans-69"/>
      <use x="763.179688" xlink:href="#DejaVuSans-67"/>
      <use x="826.65625" xlink:href="#DejaVuSans-68"/>
      <use x="890.035156" xlink:href="#DejaVuSans-74"/>
      <use x="929.244141" xlink:href="#DejaVuSans-29"/>
     </g>
    </g>
    <g id="line2d_28">
     <path d="M 885.44375 120.214688 
L 905.44375 120.214688 
" style="fill:none;stroke:#ff7f0e;stroke-linecap:square;stroke-width:1.5;"/>
    </g>
    <g id="line2d_29"/>
    <g id="text_15">
     <!-- ICU high care (right) -->
     <g transform="translate(913.44375 123.714688)scale(0.1 -0.1)">
      <use xlink:href="#DejaVuSans-49"/>
      <use x="29.492188" xlink:href="#DejaVuSans-43"/>
      <use x="99.316406" xlink:href="#DejaVuSans-55"/>
      <use x="172.509766" xlink:href="#DejaVuSans-20"/>
      <use x="204.296875" xlink:href="#DejaVuSans-68"/>
      <use x="267.675781" xlink:href="#DejaVuSans-69"/>
      <use x="295.458984" xlink:href="#DejaVuSans-67"/>
      <use x="358.935547" xlink:href="#DejaVuSans-68"/>
      <use x="422.314453" xlink:href="#DejaVuSans-20"/>
      <use x="454.101562" xlink:href="#DejaVuSans-63"/>
      <use x="509.082031" xlink:href="#DejaVuSans-61"/>
      <use x="570.361328" xlink:href="#DejaVuSans-72"/>
      <use x="609.224609" xlink:href="#DejaVuSans-65"/>
      <use x="670.748047" xlink:href="#DejaVuSans-20"/>
      <use x="702.535156" xlink:href="#DejaVuSans-28"/>
      <use x="741.548828" xlink:href="#DejaVuSans-72"/>
      <use x="782.662109" xlink:href="#DejaVuSans-69"/>
      <use x="810.445312" xlink:href="#DejaVuSans-67"/>
      <use x="873.921875" xlink:href="#DejaVuSans-68"/>
      <use x="937.300781" xlink:href="#DejaVuSans-74"/>
      <use x="976.509766" xlink:href="#DejaVuSans-29"/>
     </g>
    </g>
    <g id="line2d_30">
     <path d="M 885.44375 134.892813 
L 905.44375 134.892813 
" style="fill:none;stroke:#2ca02c;stroke-linecap:square;stroke-width:1.5;"/>
    </g>
    <g id="line2d_31"/>
    <g id="text_16">
     <!-- ECMO (right) -->
     <g transform="translate(913.44375 138.392813)scale(0.1 -0.1)">
      <defs>
       <path d="M 628 4666 
L 3578 4666 
L 3578 4134 
L 1259 4134 
L 1259 2753 
L 3481 2753 
L 3481 2222 
L 1259 2222 
L 1259 531 
L 3634 531 
L 3634 0 
L 628 0 
L 628 4666 
z
" id="DejaVuSans-45" transform="scale(0.015625)"/>
       <path d="M 628 4666 
L 1569 4666 
L 2759 1491 
L 3956 4666 
L 4897 4666 
L 4897 0 
L 4281 0 
L 4281 4097 
L 3078 897 
L 2444 897 
L 1241 4097 
L 1241 0 
L 628 0 
L 628 4666 
z
" id="DejaVuSans-4d" transform="scale(0.015625)"/>
      </defs>
      <use xlink:href="#DejaVuSans-45"/>
      <use x="63.183594" xlink:href="#DejaVuSans-43"/>
      <use x="133.007812" xlink:href="#DejaVuSans-4d"/>
      <use x="219.287109" xlink:href="#DejaVuSans-4f"/>
      <use x="297.998047" xlink:href="#DejaVuSans-20"/>
      <use x="329.785156" xlink:href="#DejaVuSans-28"/>
      <use x="368.798828" xlink:href="#DejaVuSans-72"/>
      <use x="409.912109" xlink:href="#DejaVuSans-69"/>
      <use x="437.695312" xlink:href="#DejaVuSans-67"/>
      <use x="501.171875" xlink:href="#DejaVuSans-68"/>
      <use x="564.550781" xlink:href="#DejaVuSans-74"/>
      <use x="603.759766" xlink:href="#DejaVuSans-29"/>
     </g>
    </g>
    <g id="line2d_32">
     <path d="M 885.44375 149.570938 
L 905.44375 149.570938 
" style="fill:none;stroke:#d62728;stroke-linecap:square;stroke-width:1.5;"/>
    </g>
    <g id="line2d_33"/>
    <g id="text_17">
     <!-- COVID-19 cases (right) -->
     <g transform="translate(913.44375 153.070938)scale(0.1 -0.1)">
      <defs>
       <path d="M 1831 0 
L 50 4666 
L 709 4666 
L 2188 738 
L 3669 4666 
L 4325 4666 
L 2547 0 
L 1831 0 
z
" id="DejaVuSans-56" transform="scale(0.015625)"/>
       <path d="M 313 2009 
L 1997 2009 
L 1997 1497 
L 313 1497 
L 313 2009 
z
" id="DejaVuSans-2d" transform="scale(0.015625)"/>
       <path d="M 703 97 
L 703 672 
Q 941 559 1184 500 
Q 1428 441 1663 441 
Q 2288 441 2617 861 
Q 2947 1281 2994 2138 
Q 2813 1869 2534 1725 
Q 2256 1581 1919 1581 
Q 1219 1581 811 2004 
Q 403 2428 403 3163 
Q 403 3881 828 4315 
Q 1253 4750 1959 4750 
Q 2769 4750 3195 4129 
Q 3622 3509 3622 2328 
Q 3622 1225 3098 567 
Q 2575 -91 1691 -91 
Q 1453 -91 1209 -44 
Q 966 3 703 97 
z
M 1959 2075 
Q 2384 2075 2632 2365 
Q 2881 2656 2881 3163 
Q 2881 3666 2632 3958 
Q 2384 4250 1959 4250 
Q 1534 4250 1286 3958 
Q 1038 3666 1038 3163 
Q 1038 2656 1286 2365 
Q 1534 2075 1959 2075 
z
" id="DejaVuSans-39" transform="scale(0.015625)"/>
      </defs>
      <use xlink:href="#DejaVuSans-43"/>
      <use x="69.824219" xlink:href="#DejaVuSans-4f"/>
      <use x="146.785156" xlink:href="#DejaVuSans-56"/>
      <use x="215.193359" xlink:href="#DejaVuSans-49"/>
      <use x="244.685547" xlink:href="#DejaVuSans-44"/>
      <use x="321.6875" xlink:href="#DejaVuSans-2d"/>
      <use x="357.771484" xlink:href="#DejaVuSans-31"/>
      <use x="421.394531" xlink:href="#DejaVuSans-39"/>
      <use x="485.017578" xlink:href="#DejaVuSans-20"/>
      <use x="516.804688" xlink:href="#DejaVuSans-63"/>
      <use x="571.785156" xlink:href="#DejaVuSans-61"/>
      <use x="633.064453" xlink:href="#DejaVuSans-73"/>
      <use x="685.164062" xlink:href="#DejaVuSans-65"/>
      <use x="746.6875" xlink:href="#DejaVuSans-73"/>
      <use x="798.787109" xlink:href="#DejaVuSans-20"/>
      <use x="830.574219" xlink:href="#DejaVuSans-28"/>
      <use x="869.587891" xlink:href="#DejaVuSans-72"/>
      <use x="910.701172" xlink:href="#DejaVuSans-69"/>
      <use x="938.484375" xlink:href="#DejaVuSans-67"/>
      <use x="1001.960938" xlink:href="#DejaVuSans-68"/>
      <use x="1065.339844" xlink:href="#DejaVuSans-74"/>
      <use x="1104.548828" xlink:href="#DejaVuSans-29"/>
     </g>
    </g>
   </g>
  </g>
  <g id="axes_2">
   <g id="matplotlib.axis_3">
    <g id="ytick_7">
     <g id="line2d_34">
      <defs>
       <path d="M 0 0 
L 3.5 0 
" id="m242f126d25" style="stroke:#000000;stroke-width:0.8;"/>
      </defs>
      <g>
       <use style="stroke:#000000;stroke-width:0.8;" x="1036.8" xlink:href="#m242f126d25" y="576.72"/>
      </g>
     </g>
     <g id="text_18">
      <!-- available -->
      <g transform="translate(1043.8 580.519219)scale(0.1 -0.1)">
       <defs>
        <path d="M 191 3500 
L 800 3500 
L 1894 563 
L 2988 3500 
L 3597 3500 
L 2284 0 
L 1503 0 
L 191 3500 
z
" id="DejaVuSans-76" transform="scale(0.015625)"/>
        <path d="M 3116 1747 
Q 3116 2381 2855 2742 
Q 2594 3103 2138 3103 
Q 1681 3103 1420 2742 
Q 1159 2381 1159 1747 
Q 1159 1113 1420 752 
Q 1681 391 2138 391 
Q 2594 391 2855 752 
Q 3116 1113 3116 1747 
z
M 1159 2969 
Q 1341 3281 1617 3432 
Q 1894 3584 2278 3584 
Q 2916 3584 3314 3078 
Q 3713 2572 3713 1747 
Q 3713 922 3314 415 
Q 2916 -91 2278 -91 
Q 1894 -91 1617 61 
Q 1341 213 1159 525 
L 1159 0 
L 581 0 
L 581 4863 
L 1159 4863 
L 1159 2969 
z
" id="DejaVuSans-62" transform="scale(0.015625)"/>
       </defs>
       <use xlink:href="#DejaVuSans-61"/>
       <use x="61.279297" xlink:href="#DejaVuSans-76"/>
       <use x="120.458984" xlink:href="#DejaVuSans-61"/>
       <use x="181.738281" xlink:href="#DejaVuSans-69"/>
       <use x="209.521484" xlink:href="#DejaVuSans-6c"/>
       <use x="237.304688" xlink:href="#DejaVuSans-61"/>
       <use x="298.583984" xlink:href="#DejaVuSans-62"/>
       <use x="362.060547" xlink:href="#DejaVuSans-6c"/>
       <use x="389.84375" xlink:href="#DejaVuSans-65"/>
      </g>
     </g>
    </g>
    <g id="ytick_8">
     <g id="line2d_35">
      <g>
       <use style="stroke:#000000;stroke-width:0.8;" x="1036.8" xlink:href="#m242f126d25" y="336.819366"/>
      </g>
     </g>
     <g id="text_19">
      <!-- limited -->
      <g transform="translate(1043.8 340.618584)scale(0.1 -0.1)">
       <defs>
        <path d="M 3328 2828 
Q 3544 3216 3844 3400 
Q 4144 3584 4550 3584 
Q 5097 3584 5394 3201 
Q 5691 2819 5691 2113 
L 5691 0 
L 5113 0 
L 5113 2094 
Q 5113 2597 4934 2840 
Q 4756 3084 4391 3084 
Q 3944 3084 3684 2787 
Q 3425 2491 3425 1978 
L 3425 0 
L 2847 0 
L 2847 2094 
Q 2847 2600 2669 2842 
Q 2491 3084 2119 3084 
Q 1678 3084 1418 2786 
Q 1159 2488 1159 1978 
L 1159 0 
L 581 0 
L 581 3500 
L 1159 3500 
L 1159 2956 
Q 1356 3278 1631 3431 
Q 1906 3584 2284 3584 
Q 2666 3584 2933 3390 
Q 3200 3197 3328 2828 
z
" id="DejaVuSans-6d" transform="scale(0.015625)"/>
       </defs>
       <use xlink:href="#DejaVuSans-6c"/>
       <use x="27.783203" xlink:href="#DejaVuSans-69"/>
       <use x="55.566406" xlink:href="#DejaVuSans-6d"/>
       <use x="152.978516" xlink:href="#DejaVuSans-69"/>
       <use x="180.761719" xlink:href="#DejaVuSans-74"/>
       <use x="219.970703" xlink:href="#DejaVuSans-65"/>
       <use x="281.494141" xlink:href="#DejaVuSans-64"/>
      </g>
     </g>
    </g>
    <g id="ytick_9">
     <g id="line2d_36">
      <g>
       <use style="stroke:#000000;stroke-width:0.8;" x="1036.8" xlink:href="#m242f126d25" y="96.918731"/>
      </g>
     </g>
     <g id="text_20">
      <!-- unavailable -->
      <g transform="translate(1043.8 100.71795)scale(0.1 -0.1)">
       <use xlink:href="#DejaVuSans-75"/>
       <use x="63.378906" xlink:href="#DejaVuSans-6e"/>
       <use x="126.757812" xlink:href="#DejaVuSans-61"/>
       <use x="188.037109" xlink:href="#DejaVuSans-76"/>
       <use x="247.216797" xlink:href="#DejaVuSans-61"/>
       <use x="308.496094" xlink:href="#DejaVuSans-69"/>
       <use x="336.279297" xlink:href="#DejaVuSans-6c"/>
       <use x="364.0625" xlink:href="#DejaVuSans-61"/>
       <use x="425.341797" xlink:href="#DejaVuSans-62"/>
       <use x="488.818359" xlink:href="#DejaVuSans-6c"/>
       <use x="516.601562" xlink:href="#DejaVuSans-65"/>
      </g>
     </g>
    </g>
   </g>
   <g id="line2d_37">
    <path clip-path="url(#pefd202f69e)" d="M 646.985915 220.201002 
L 649.08169 210.205142 
L 651.177465 215.917062 
L 653.273239 230.196861 
L 655.369014 235.750117 
L 657.464789 233.528815 
L 661.656338 233.528815 
L 663.752113 226.864908 
L 665.847887 230.196861 
L 667.943662 235.194791 
L 670.039437 256.852487 
L 672.135211 220.201002 
L 674.230986 232.827351 
L 676.326761 240.192721 
L 678.422535 263.516394 
L 680.51831 253.520534 
L 682.614085 263.516394 
L 684.709859 271.290952 
L 686.805634 276.844207 
L 688.901408 300.16788 
L 690.997183 283.508114 
L 693.092958 270.180301 
L 695.188732 270.656294 
L 697.284507 260.184441 
L 699.380282 270.180301 
L 701.476056 260.184441 
L 703.571831 266.848347 
L 705.667606 250.743907 
L 707.76338 290.17202 
L 709.859155 276.844207 
L 711.95493 276.844207 
L 714.050704 298.501903 
L 716.146479 300.16788 
L 718.242254 303.499833 
L 720.338028 303.499833 
L 722.433803 306.831786 
L 724.529577 336.819366 
L 726.625352 331.26611 
L 728.721127 326.823506 
L 730.816901 316.827646 
L 732.912676 363.474992 
L 735.008451 343.483272 
L 737.104225 343.483272 
L 739.2 353.479132 
L 741.295775 336.819366 
L 743.391549 360.143038 
L 745.487324 370.138898 
L 747.583099 363.474992 
L 749.678873 366.806945 
L 751.774648 340.151319 
L 753.870423 343.483272 
L 755.966197 363.474992 
L 758.061972 356.50818 
L 760.157746 356.811085 
L 762.253521 363.474992 
L 764.349296 363.474992 
L 766.44507 353.479132 
L 768.540845 360.143038 
L 770.63662 370.138898 
L 774.828169 336.819366 
L 776.923944 323.491553 
L 779.019718 340.151319 
L 781.115493 346.815225 
L 783.211268 376.802805 
L 785.307042 363.474992 
L 787.402817 366.806945 
L 789.498592 373.470851 
L 791.594366 373.470851 
L 793.690141 386.798664 
L 797.88169 386.798664 
L 799.977465 363.474992 
L 802.073239 360.143038 
L 804.169014 373.470851 
L 806.264789 360.143038 
L 808.360563 350.147179 
L 810.456338 346.815225 
L 814.647887 353.479132 
L 816.743662 346.815225 
L 818.839437 330.155459 
L 820.935211 353.479132 
L 823.030986 340.151319 
L 825.126761 333.487412 
L 827.222535 313.495693 
L 829.31831 316.827646 
L 831.414085 316.827646 
L 833.509859 323.491553 
L 835.605634 293.503973 
L 837.701408 273.512254 
L 839.797183 300.16788 
L 841.892958 316.827646 
L 843.988732 276.844207 
L 846.084507 293.503973 
L 848.180282 293.503973 
L 850.276056 320.159599 
L 852.371831 316.827646 
L 854.467606 290.17202 
L 856.56338 290.17202 
L 858.659155 326.823506 
L 860.75493 336.819366 
L 862.850704 326.823506 
L 864.946479 326.823506 
L 867.042254 316.827646 
L 869.138028 303.499833 
L 871.233803 316.827646 
L 873.329577 316.827646 
L 875.425352 336.819366 
L 879.616901 270.180301 
L 881.712676 273.512254 
L 883.808451 253.520534 
L 885.904225 303.499833 
L 888 310.16374 
L 890.095775 300.16788 
L 892.191549 323.491553 
L 894.287324 310.16374 
L 896.383099 300.16788 
L 898.478873 293.503973 
L 900.574648 290.17202 
L 902.670423 316.827646 
L 904.766197 300.16788 
L 906.861972 303.499833 
L 908.957746 274.622905 
L 911.053521 300.16788 
L 913.149296 290.17202 
L 915.24507 316.827646 
L 917.340845 316.827646 
L 919.43662 313.495693 
L 921.532394 296.835927 
L 923.628169 300.16788 
L 927.819718 280.17616 
L 929.915493 276.844207 
L 932.011268 283.508114 
L 934.107042 296.835927 
L 938.298592 316.827646 
L 942.490141 283.508114 
L 944.585915 296.835927 
L 946.68169 283.508114 
L 948.777465 293.503973 
L 950.873239 313.495693 
L 955.064789 273.512254 
L 957.160563 286.840067 
M 996.980282 333.440483 
L 999.076056 313.16719 
L 1001.171831 353.713776 
L 1003.267606 343.57713 
L 1005.36338 353.713776 
L 1007.459155 336.819366 
L 1009.55493 336.819366 
L 1011.650704 340.198248 
M 1026.321127 313.16719 
L 1028.416901 330.061601 
L 1030.512676 343.57713 
L 1032.608451 350.334894 
L 1034.704225 367.229305 
L 1034.704225 367.229305 
" style="fill:none;stroke:#1f77b4;stroke-linecap:square;stroke-width:1.5;"/>
   </g>
   <g id="line2d_38">
    <path clip-path="url(#pefd202f69e)" d="M 646.985915 153.561937 
L 649.08169 153.561937 
L 651.177465 163.081803 
L 653.273239 170.221703 
L 655.369014 180.217563 
L 657.464789 186.881469 
L 659.560563 176.885609 
L 661.656338 190.213422 
L 663.752113 196.877329 
L 665.847887 190.213422 
L 667.943662 196.877329 
L 670.039437 216.869048 
L 672.135211 216.869048 
L 676.326761 206.873189 
L 678.422535 226.864908 
L 680.51831 226.864908 
L 682.614085 240.192721 
L 684.709859 233.528815 
L 686.805634 246.856628 
L 688.901408 246.856628 
L 690.997183 233.528815 
L 693.092958 231.862838 
L 695.188732 249.712588 
L 697.284507 246.856628 
L 699.380282 270.180301 
L 701.476056 266.848347 
L 703.571831 273.512254 
L 705.667606 261.850417 
L 707.76338 276.844207 
L 709.859155 276.844207 
L 711.95493 256.852487 
L 716.146479 280.17616 
L 718.242254 280.17616 
L 720.338028 296.835927 
L 722.433803 300.16788 
L 724.529577 310.16374 
L 728.721127 303.499833 
L 730.816901 310.16374 
L 732.912676 346.815225 
L 735.008451 333.487412 
L 737.104225 340.151319 
L 739.2 353.479132 
L 741.295775 343.483272 
L 743.391549 370.138898 
L 745.487324 373.470851 
L 749.678873 346.815225 
L 751.774648 360.143038 
L 753.870423 346.815225 
L 755.966197 356.811085 
L 758.061972 354.387846 
L 760.157746 363.474992 
L 762.253521 366.806945 
L 764.349296 343.483272 
L 766.44507 323.491553 
L 768.540845 350.147179 
L 770.63662 363.474992 
L 772.732394 350.147179 
L 774.828169 326.823506 
L 776.923944 310.16374 
L 779.019718 336.819366 
L 783.211268 370.138898 
L 785.307042 363.474992 
L 787.402817 353.479132 
L 789.498592 376.802805 
L 791.594366 370.138898 
L 793.690141 380.134758 
L 795.785915 383.466711 
L 797.88169 396.794524 
L 799.977465 390.130618 
L 802.073239 380.134758 
L 804.169014 386.798664 
L 808.360563 360.143038 
L 812.552113 360.143038 
L 814.647887 353.479132 
L 816.743662 356.811085 
L 820.935211 350.147179 
L 823.030986 326.823506 
L 825.126761 316.827646 
L 827.222535 350.147179 
L 829.31831 350.147179 
L 831.414085 323.491553 
L 833.509859 323.491553 
L 835.605634 300.16788 
L 837.701408 280.17616 
L 839.797183 296.835927 
L 841.892958 320.159599 
L 843.988732 276.844207 
L 846.084507 300.16788 
L 848.180282 293.503973 
L 850.276056 310.16374 
L 852.371831 293.503973 
L 854.467606 293.503973 
L 856.56338 306.831786 
L 858.659155 333.487412 
L 862.850704 320.159599 
L 864.946479 303.499833 
L 867.042254 306.831786 
L 869.138028 293.503973 
L 871.233803 296.835927 
L 873.329577 293.503973 
L 875.425352 320.159599 
L 877.521127 306.831786 
L 879.616901 290.17202 
L 883.808451 263.516394 
L 885.904225 286.840067 
L 888 296.835927 
L 890.095775 296.835927 
L 892.191549 316.827646 
L 894.287324 300.16788 
L 896.383099 286.840067 
L 898.478873 286.840067 
L 900.574648 270.180301 
L 902.670423 320.159599 
L 904.766197 306.831786 
L 906.861972 280.17616 
L 908.957746 243.524674 
L 911.053521 253.520534 
L 913.149296 256.852487 
L 915.24507 296.835927 
L 917.340845 273.512254 
L 919.43662 290.17202 
L 921.532394 266.848347 
L 923.628169 276.844207 
L 925.723944 270.180301 
L 927.819718 283.508114 
L 929.915493 253.520534 
L 932.011268 280.17616 
L 934.107042 283.508114 
L 936.202817 296.835927 
L 938.298592 296.835927 
L 940.394366 293.503973 
L 942.490141 280.17616 
L 944.585915 306.831786 
L 946.68169 293.503973 
L 948.777465 300.16788 
L 950.873239 326.823506 
L 952.969014 323.491553 
L 955.064789 296.835927 
L 957.160563 303.499833 
M 996.980282 336.819366 
L 999.076056 309.788308 
L 1001.171831 333.440483 
L 1003.267606 326.682719 
L 1005.36338 340.198248 
L 1007.459155 377.365952 
L 1009.55493 363.850423 
L 1011.650704 360.471541 
M 1026.321127 333.440483 
L 1028.416901 346.956012 
L 1030.512676 373.98707 
L 1032.608451 363.850423 
L 1034.704225 373.98707 
L 1034.704225 373.98707 
" style="fill:none;stroke:#ff7f0e;stroke-linecap:square;stroke-width:1.5;"/>
   </g>
   <g id="line2d_39">
    <path clip-path="url(#pefd202f69e)" d="M 646.985915 96.918731 
L 655.369014 96.918731 
L 657.464789 196.877329 
L 659.560563 240.192721 
L 661.656338 253.520534 
L 672.135211 253.520534 
L 674.230986 241.595649 
L 676.326761 240.192721 
L 678.422535 240.192721 
L 680.51831 316.827646 
L 682.614085 325.157529 
L 684.709859 233.528815 
L 688.901408 233.528815 
L 690.997183 240.192721 
L 699.380282 240.192721 
L 701.476056 260.184441 
L 707.76338 260.184441 
L 709.859155 336.819366 
L 711.95493 260.184441 
L 716.146479 260.184441 
L 718.242254 253.520534 
L 720.338028 253.520534 
L 722.433803 236.860768 
L 726.625352 236.860768 
L 728.721127 233.528815 
L 730.816901 236.860768 
L 732.912676 253.520534 
L 737.104225 253.520534 
L 739.2 273.512254 
L 745.487324 273.512254 
L 747.583099 330.155459 
L 749.678873 330.155459 
L 751.774648 386.798664 
L 753.870423 393.462571 
L 755.966197 393.462571 
L 758.061972 393.159666 
L 760.157746 390.130618 
L 762.253521 390.130618 
L 764.349296 466.765543 
L 770.63662 466.765543 
L 772.732394 470.097496 
L 774.828169 480.093356 
L 776.923944 476.761402 
L 781.115493 476.761402 
L 783.211268 470.097496 
L 787.402817 470.097496 
L 789.498592 393.462571 
L 791.594366 393.462571 
L 793.690141 353.479132 
L 806.264789 353.479132 
L 808.360563 266.848347 
L 816.743662 266.848347 
L 818.839437 263.516394 
L 820.935211 306.831786 
L 823.030986 346.815225 
L 825.126761 373.470851 
L 827.222535 373.470851 
L 829.31831 376.802805 
L 831.414085 376.802805 
L 833.509859 320.159599 
L 835.605634 310.16374 
L 848.180282 310.16374 
L 850.276056 376.802805 
L 854.467606 376.802805 
L 856.56338 366.806945 
L 869.138028 366.806945 
L 871.233803 250.188581 
L 873.329577 256.852487 
L 881.712676 256.852487 
L 883.808451 213.537095 
L 898.478873 213.537095 
L 900.574648 300.16788 
L 902.670423 300.16788 
L 904.766197 356.811085 
L 917.340845 356.811085 
L 919.43662 353.479132 
L 921.532394 356.811085 
L 938.298592 356.811085 
L 940.394366 353.479132 
L 944.585915 353.479132 
L 946.68169 350.147179 
L 955.064789 350.147179 
L 957.160563 353.479132 
M 996.980282 279.378369 
L 999.076056 292.893897 
L 1001.171831 275.999486 
L 1003.267606 279.378369 
L 1005.36338 289.515015 
L 1007.459155 289.515015 
L 1009.55493 292.893897 
L 1011.650704 292.893897 
M 1026.321127 296.27278 
L 1034.704225 296.27278 
L 1034.704225 296.27278 
" style="fill:none;stroke:#2ca02c;stroke-linecap:square;stroke-width:1.5;"/>
   </g>
   <g id="line2d_40">
    <path clip-path="url(#pefd202f69e)" d="M 0 0 
" style="fill:none;stroke:#d62728;stroke-linecap:square;stroke-width:1.5;"/>
   </g>
   <g id="patch_8">
    <path d="M 144 576.72 
L 144 77.76 
" style="fill:none;stroke:#000000;stroke-linecap:square;stroke-linejoin:miter;stroke-width:0.8;"/>
   </g>
   <g id="patch_9">
    <path d="M 1036.8 576.72 
L 1036.8 77.76 
" style="fill:none;stroke:#000000;stroke-linecap:square;stroke-linejoin:miter;stroke-width:0.8;"/>
   </g>
   <g id="patch_10">
    <path d="M 144 576.72 
L 1036.8 576.72 
" style="fill:none;stroke:#000000;stroke-linecap:square;stroke-linejoin:miter;stroke-width:0.8;"/>
   </g>
   <g id="patch_11">
    <path d="M 144 77.76 
L 1036.8 77.76 
" style="fill:none;stroke:#000000;stroke-linecap:square;stroke-linejoin:miter;stroke-width:0.8;"/>
   </g>
   <g id="text_21">
    <!-- Sachsen -->
    <g transform="translate(565.1925 71.76)scale(0.12 -0.12)">
     <use xlink:href="#DejaVuSans-53"/>
     <use x="63.476562" xlink:href="#DejaVuSans-61"/>
     <use x="124.755859" xlink:href="#DejaVuSans-63"/>
     <use x="179.736328" xlink:href="#DejaVuSans-68"/>
     <use x="243.115234" xlink:href="#DejaVuSans-73"/>
     <use x="295.214844" xlink:href="#DejaVuSans-65"/>
     <use x="356.738281" xlink:href="#DejaVuSans-6e"/>
    </g>
   </g>
  </g>
 </g>
 <defs>
  <clipPath id="pefd202f69e">
   <rect height="498.96" width="892.8" x="144" y="77.76"/>
  </clipPath>
 </defs>
</svg>
