<?xml version="1.0" encoding="utf-8" standalone="no"?>
<!DOCTYPE svg PUBLIC "-//W3C//DTD SVG 1.1//EN"
  "http://www.w3.org/Graphics/SVG/1.1/DTD/svg11.dtd">
<svg height="648pt" version="1.1" viewBox="0 0 1152 648" width="1152pt" xmlns="http://www.w3.org/2000/svg" xmlns:xlink="http://www.w3.org/1999/xlink">
 <metadata>
  <rdf:RDF xmlns:cc="http://creativecommons.org/ns#" xmlns:dc="http://purl.org/dc/elements/1.1/" xmlns:rdf="http://www.w3.org/1999/02/22-rdf-syntax-ns#">
   <cc:Work>
    <dc:type rdf:resource="http://purl.org/dc/dcmitype/StillImage"/>
    <dc:date>2021-05-24T13:04:06.372545</dc:date>
    <dc:format>image/svg+xml</dc:format>
    <dc:creator>
     <cc:Agent>
      <dc:title>Matplotlib v3.4.2, https://matplotlib.org/</dc:title>
     </cc:Agent>
    </dc:creator>
   </cc:Work>
  </rdf:RDF>
 </metadata>
 <defs>
  <style type="text/css">*{stroke-linecap:butt;stroke-linejoin:round;}</style>
 </defs>
 <g id="figure_1">
  <g id="patch_1">
   <path d="M 0 648 
L 1152 648 
L 1152 0 
L 0 0 
z
" style="fill:#ffffff;"/>
  </g>
  <g id="axes_1">
   <g id="patch_2">
    <path d="M 144 576.72 
L 1036.8 576.72 
L 1036.8 77.76 
L 144 77.76 
z
" style="fill:#ffffff;"/>
   </g>
   <g id="matplotlib.axis_1">
    <g id="xtick_1">
     <g id="line2d_1">
      <defs>
       <path d="M 0 0 
L 0 3.5 
" id="m34cd38a586" style="stroke:#000000;stroke-width:0.8;"/>
      </defs>
      <g>
       <use style="stroke:#000000;stroke-width:0.8;" x="144" xlink:href="#m34cd38a586" y="576.72"/>
      </g>
     </g>
    </g>
    <g id="xtick_2">
     <g id="line2d_2">
      <g>
       <use style="stroke:#000000;stroke-width:0.8;" x="209.326829" xlink:href="#m34cd38a586" y="576.72"/>
      </g>
     </g>
     <g id="text_1">
      <!-- Apr -->
      <g transform="translate(200.676829 591.318438)scale(0.1 -0.1)">
       <defs>
        <path d="M 2188 4044 
L 1331 1722 
L 3047 1722 
L 2188 4044 
z
M 1831 4666 
L 2547 4666 
L 4325 0 
L 3669 0 
L 3244 1197 
L 1141 1197 
L 716 0 
L 50 0 
L 1831 4666 
z
" id="DejaVuSans-41" transform="scale(0.015625)"/>
        <path d="M 1159 525 
L 1159 -1331 
L 581 -1331 
L 581 3500 
L 1159 3500 
L 1159 2969 
Q 1341 3281 1617 3432 
Q 1894 3584 2278 3584 
Q 2916 3584 3314 3078 
Q 3713 2572 3713 1747 
Q 3713 922 3314 415 
Q 2916 -91 2278 -91 
Q 1894 -91 1617 61 
Q 1341 213 1159 525 
z
M 3116 1747 
Q 3116 2381 2855 2742 
Q 2594 3103 2138 3103 
Q 1681 3103 1420 2742 
Q 1159 2381 1159 1747 
Q 1159 1113 1420 752 
Q 1681 391 2138 391 
Q 2594 391 2855 752 
Q 3116 1113 3116 1747 
z
" id="DejaVuSans-70" transform="scale(0.015625)"/>
        <path d="M 2631 2963 
Q 2534 3019 2420 3045 
Q 2306 3072 2169 3072 
Q 1681 3072 1420 2755 
Q 1159 2438 1159 1844 
L 1159 0 
L 581 0 
L 581 3500 
L 1159 3500 
L 1159 2956 
Q 1341 3275 1631 3429 
Q 1922 3584 2338 3584 
Q 2397 3584 2469 3576 
Q 2541 3569 2628 3553 
L 2631 2963 
z
" id="DejaVuSans-72" transform="scale(0.015625)"/>
       </defs>
       <use xlink:href="#DejaVuSans-41"/>
       <use x="68.408203" xlink:href="#DejaVuSans-70"/>
       <use x="131.884766" xlink:href="#DejaVuSans-72"/>
      </g>
     </g>
    </g>
    <g id="xtick_3">
     <g id="line2d_3">
      <g>
       <use style="stroke:#000000;stroke-width:0.8;" x="389.47051" xlink:href="#m34cd38a586" y="576.72"/>
      </g>
     </g>
     <g id="text_2">
      <!-- Jul -->
      <g transform="translate(383.437697 591.318438)scale(0.1 -0.1)">
       <defs>
        <path d="M 628 4666 
L 1259 4666 
L 1259 325 
Q 1259 -519 939 -900 
Q 619 -1281 -91 -1281 
L -331 -1281 
L -331 -750 
L -134 -750 
Q 284 -750 456 -515 
Q 628 -281 628 325 
L 628 4666 
z
" id="DejaVuSans-4a" transform="scale(0.015625)"/>
        <path d="M 544 1381 
L 544 3500 
L 1119 3500 
L 1119 1403 
Q 1119 906 1312 657 
Q 1506 409 1894 409 
Q 2359 409 2629 706 
Q 2900 1003 2900 1516 
L 2900 3500 
L 3475 3500 
L 3475 0 
L 2900 0 
L 2900 538 
Q 2691 219 2414 64 
Q 2138 -91 1772 -91 
Q 1169 -91 856 284 
Q 544 659 544 1381 
z
M 1991 3584 
L 1991 3584 
z
" id="DejaVuSans-75" transform="scale(0.015625)"/>
        <path d="M 603 4863 
L 1178 4863 
L 1178 0 
L 603 0 
L 603 4863 
z
" id="DejaVuSans-6c" transform="scale(0.015625)"/>
       </defs>
       <use xlink:href="#DejaVuSans-4a"/>
       <use x="29.492188" xlink:href="#DejaVuSans-75"/>
       <use x="92.871094" xlink:href="#DejaVuSans-6c"/>
      </g>
     </g>
    </g>
    <g id="xtick_4">
     <g id="line2d_4">
      <g>
       <use style="stroke:#000000;stroke-width:0.8;" x="571.593792" xlink:href="#m34cd38a586" y="576.72"/>
      </g>
     </g>
     <g id="text_3">
      <!-- Oct -->
      <g transform="translate(562.948479 591.318438)scale(0.1 -0.1)">
       <defs>
        <path d="M 2522 4238 
Q 1834 4238 1429 3725 
Q 1025 3213 1025 2328 
Q 1025 1447 1429 934 
Q 1834 422 2522 422 
Q 3209 422 3611 934 
Q 4013 1447 4013 2328 
Q 4013 3213 3611 3725 
Q 3209 4238 2522 4238 
z
M 2522 4750 
Q 3503 4750 4090 4092 
Q 4678 3434 4678 2328 
Q 4678 1225 4090 567 
Q 3503 -91 2522 -91 
Q 1538 -91 948 565 
Q 359 1222 359 2328 
Q 359 3434 948 4092 
Q 1538 4750 2522 4750 
z
" id="DejaVuSans-4f" transform="scale(0.015625)"/>
        <path d="M 3122 3366 
L 3122 2828 
Q 2878 2963 2633 3030 
Q 2388 3097 2138 3097 
Q 1578 3097 1268 2742 
Q 959 2388 959 1747 
Q 959 1106 1268 751 
Q 1578 397 2138 397 
Q 2388 397 2633 464 
Q 2878 531 3122 666 
L 3122 134 
Q 2881 22 2623 -34 
Q 2366 -91 2075 -91 
Q 1284 -91 818 406 
Q 353 903 353 1747 
Q 353 2603 823 3093 
Q 1294 3584 2113 3584 
Q 2378 3584 2631 3529 
Q 2884 3475 3122 3366 
z
" id="DejaVuSans-63" transform="scale(0.015625)"/>
        <path d="M 1172 4494 
L 1172 3500 
L 2356 3500 
L 2356 3053 
L 1172 3053 
L 1172 1153 
Q 1172 725 1289 603 
Q 1406 481 1766 481 
L 2356 481 
L 2356 0 
L 1766 0 
Q 1100 0 847 248 
Q 594 497 594 1153 
L 594 3053 
L 172 3053 
L 172 3500 
L 594 3500 
L 594 4494 
L 1172 4494 
z
" id="DejaVuSans-74" transform="scale(0.015625)"/>
       </defs>
       <use xlink:href="#DejaVuSans-4f"/>
       <use x="78.710938" xlink:href="#DejaVuSans-63"/>
       <use x="133.691406" xlink:href="#DejaVuSans-74"/>
      </g>
     </g>
    </g>
    <g id="xtick_5">
     <g id="line2d_5">
      <g>
       <use style="stroke:#000000;stroke-width:0.8;" x="753.717073" xlink:href="#m34cd38a586" y="576.72"/>
      </g>
     </g>
     <g id="text_4">
      <!-- Jan -->
      <g transform="translate(746.009261 591.318438)scale(0.1 -0.1)">
       <defs>
        <path d="M 2194 1759 
Q 1497 1759 1228 1600 
Q 959 1441 959 1056 
Q 959 750 1161 570 
Q 1363 391 1709 391 
Q 2188 391 2477 730 
Q 2766 1069 2766 1631 
L 2766 1759 
L 2194 1759 
z
M 3341 1997 
L 3341 0 
L 2766 0 
L 2766 531 
Q 2569 213 2275 61 
Q 1981 -91 1556 -91 
Q 1019 -91 701 211 
Q 384 513 384 1019 
Q 384 1609 779 1909 
Q 1175 2209 1959 2209 
L 2766 2209 
L 2766 2266 
Q 2766 2663 2505 2880 
Q 2244 3097 1772 3097 
Q 1472 3097 1187 3025 
Q 903 2953 641 2809 
L 641 3341 
Q 956 3463 1253 3523 
Q 1550 3584 1831 3584 
Q 2591 3584 2966 3190 
Q 3341 2797 3341 1997 
z
" id="DejaVuSans-61" transform="scale(0.015625)"/>
        <path d="M 3513 2113 
L 3513 0 
L 2938 0 
L 2938 2094 
Q 2938 2591 2744 2837 
Q 2550 3084 2163 3084 
Q 1697 3084 1428 2787 
Q 1159 2491 1159 1978 
L 1159 0 
L 581 0 
L 581 3500 
L 1159 3500 
L 1159 2956 
Q 1366 3272 1645 3428 
Q 1925 3584 2291 3584 
Q 2894 3584 3203 3211 
Q 3513 2838 3513 2113 
z
" id="DejaVuSans-6e" transform="scale(0.015625)"/>
       </defs>
       <use xlink:href="#DejaVuSans-4a"/>
       <use x="29.492188" xlink:href="#DejaVuSans-61"/>
       <use x="90.771484" xlink:href="#DejaVuSans-6e"/>
      </g>
      <!-- 2021 -->
      <g transform="translate(740.992073 602.51625)scale(0.1 -0.1)">
       <defs>
        <path d="M 1228 531 
L 3431 531 
L 3431 0 
L 469 0 
L 469 531 
Q 828 903 1448 1529 
Q 2069 2156 2228 2338 
Q 2531 2678 2651 2914 
Q 2772 3150 2772 3378 
Q 2772 3750 2511 3984 
Q 2250 4219 1831 4219 
Q 1534 4219 1204 4116 
Q 875 4013 500 3803 
L 500 4441 
Q 881 4594 1212 4672 
Q 1544 4750 1819 4750 
Q 2544 4750 2975 4387 
Q 3406 4025 3406 3419 
Q 3406 3131 3298 2873 
Q 3191 2616 2906 2266 
Q 2828 2175 2409 1742 
Q 1991 1309 1228 531 
z
" id="DejaVuSans-32" transform="scale(0.015625)"/>
        <path d="M 2034 4250 
Q 1547 4250 1301 3770 
Q 1056 3291 1056 2328 
Q 1056 1369 1301 889 
Q 1547 409 2034 409 
Q 2525 409 2770 889 
Q 3016 1369 3016 2328 
Q 3016 3291 2770 3770 
Q 2525 4250 2034 4250 
z
M 2034 4750 
Q 2819 4750 3233 4129 
Q 3647 3509 3647 2328 
Q 3647 1150 3233 529 
Q 2819 -91 2034 -91 
Q 1250 -91 836 529 
Q 422 1150 422 2328 
Q 422 3509 836 4129 
Q 1250 4750 2034 4750 
z
" id="DejaVuSans-30" transform="scale(0.015625)"/>
        <path d="M 794 531 
L 1825 531 
L 1825 4091 
L 703 3866 
L 703 4441 
L 1819 4666 
L 2450 4666 
L 2450 531 
L 3481 531 
L 3481 0 
L 794 0 
L 794 531 
z
" id="DejaVuSans-31" transform="scale(0.015625)"/>
       </defs>
       <use xlink:href="#DejaVuSans-32"/>
       <use x="63.623047" xlink:href="#DejaVuSans-30"/>
       <use x="127.246094" xlink:href="#DejaVuSans-32"/>
       <use x="190.869141" xlink:href="#DejaVuSans-31"/>
      </g>
     </g>
    </g>
    <g id="xtick_6">
     <g id="line2d_6">
      <g>
       <use style="stroke:#000000;stroke-width:0.8;" x="931.881153" xlink:href="#m34cd38a586" y="576.72"/>
      </g>
     </g>
     <g id="text_5">
      <!-- Apr -->
      <g transform="translate(923.231153 591.318438)scale(0.1 -0.1)">
       <use xlink:href="#DejaVuSans-41"/>
       <use x="68.408203" xlink:href="#DejaVuSans-70"/>
       <use x="131.884766" xlink:href="#DejaVuSans-72"/>
      </g>
     </g>
    </g>
    <g id="xtick_7">
     <g id="line2d_7">
      <g>
       <use style="stroke:#000000;stroke-width:0.8;" x="1036.8" xlink:href="#m34cd38a586" y="576.72"/>
      </g>
     </g>
    </g>
    <g id="xtick_8">
     <g id="line2d_8">
      <defs>
       <path d="M 0 0 
L 0 2 
" id="m8ff21a1ec5" style="stroke:#000000;stroke-width:0.6;"/>
      </defs>
      <g>
       <use style="stroke:#000000;stroke-width:0.6;" x="147.959202" xlink:href="#m8ff21a1ec5" y="576.72"/>
      </g>
     </g>
    </g>
    <g id="xtick_9">
     <g id="line2d_9">
      <g>
       <use style="stroke:#000000;stroke-width:0.6;" x="268.714856" xlink:href="#m8ff21a1ec5" y="576.72"/>
      </g>
     </g>
    </g>
    <g id="xtick_10">
     <g id="line2d_10">
      <g>
       <use style="stroke:#000000;stroke-width:0.6;" x="330.082483" xlink:href="#m8ff21a1ec5" y="576.72"/>
      </g>
     </g>
    </g>
    <g id="xtick_11">
     <g id="line2d_11">
      <g>
       <use style="stroke:#000000;stroke-width:0.6;" x="450.838137" xlink:href="#m8ff21a1ec5" y="576.72"/>
      </g>
     </g>
    </g>
    <g id="xtick_12">
     <g id="line2d_12">
      <g>
       <use style="stroke:#000000;stroke-width:0.6;" x="512.205765" xlink:href="#m8ff21a1ec5" y="576.72"/>
      </g>
     </g>
    </g>
    <g id="xtick_13">
     <g id="line2d_13">
      <g>
       <use style="stroke:#000000;stroke-width:0.6;" x="632.961419" xlink:href="#m8ff21a1ec5" y="576.72"/>
      </g>
     </g>
    </g>
    <g id="xtick_14">
     <g id="line2d_14">
      <g>
       <use style="stroke:#000000;stroke-width:0.6;" x="692.349446" xlink:href="#m8ff21a1ec5" y="576.72"/>
      </g>
     </g>
    </g>
    <g id="xtick_15">
     <g id="line2d_15">
      <g>
       <use style="stroke:#000000;stroke-width:0.6;" x="815.084701" xlink:href="#m8ff21a1ec5" y="576.72"/>
      </g>
     </g>
    </g>
    <g id="xtick_16">
     <g id="line2d_16">
      <g>
       <use style="stroke:#000000;stroke-width:0.6;" x="870.513525" xlink:href="#m8ff21a1ec5" y="576.72"/>
      </g>
     </g>
    </g>
    <g id="xtick_17">
     <g id="line2d_17">
      <g>
       <use style="stroke:#000000;stroke-width:0.6;" x="991.26918" xlink:href="#m8ff21a1ec5" y="576.72"/>
      </g>
     </g>
    </g>
    <g id="text_6">
     <!-- Stand -->
     <g transform="translate(575.858594 616.194375)scale(0.1 -0.1)">
      <defs>
       <path d="M 3425 4513 
L 3425 3897 
Q 3066 4069 2747 4153 
Q 2428 4238 2131 4238 
Q 1616 4238 1336 4038 
Q 1056 3838 1056 3469 
Q 1056 3159 1242 3001 
Q 1428 2844 1947 2747 
L 2328 2669 
Q 3034 2534 3370 2195 
Q 3706 1856 3706 1288 
Q 3706 609 3251 259 
Q 2797 -91 1919 -91 
Q 1588 -91 1214 -16 
Q 841 59 441 206 
L 441 856 
Q 825 641 1194 531 
Q 1563 422 1919 422 
Q 2459 422 2753 634 
Q 3047 847 3047 1241 
Q 3047 1584 2836 1778 
Q 2625 1972 2144 2069 
L 1759 2144 
Q 1053 2284 737 2584 
Q 422 2884 422 3419 
Q 422 4038 858 4394 
Q 1294 4750 2059 4750 
Q 2388 4750 2728 4690 
Q 3069 4631 3425 4513 
z
" id="DejaVuSans-53" transform="scale(0.015625)"/>
       <path d="M 2906 2969 
L 2906 4863 
L 3481 4863 
L 3481 0 
L 2906 0 
L 2906 525 
Q 2725 213 2448 61 
Q 2172 -91 1784 -91 
Q 1150 -91 751 415 
Q 353 922 353 1747 
Q 353 2572 751 3078 
Q 1150 3584 1784 3584 
Q 2172 3584 2448 3432 
Q 2725 3281 2906 2969 
z
M 947 1747 
Q 947 1113 1208 752 
Q 1469 391 1925 391 
Q 2381 391 2643 752 
Q 2906 1113 2906 1747 
Q 2906 2381 2643 2742 
Q 2381 3103 1925 3103 
Q 1469 3103 1208 2742 
Q 947 2381 947 1747 
z
" id="DejaVuSans-64" transform="scale(0.015625)"/>
      </defs>
      <use xlink:href="#DejaVuSans-53"/>
      <use x="63.476562" xlink:href="#DejaVuSans-74"/>
      <use x="102.685547" xlink:href="#DejaVuSans-61"/>
      <use x="163.964844" xlink:href="#DejaVuSans-6e"/>
      <use x="227.34375" xlink:href="#DejaVuSans-64"/>
     </g>
    </g>
   </g>
   <g id="matplotlib.axis_2">
    <g id="ytick_1">
     <g id="line2d_18">
      <defs>
       <path d="M 0 0 
L -3.5 0 
" id="mda99b8f8f9" style="stroke:#000000;stroke-width:0.8;"/>
      </defs>
      <g>
       <use style="stroke:#000000;stroke-width:0.8;" x="144" xlink:href="#mda99b8f8f9" y="554.04"/>
      </g>
     </g>
     <g id="text_7">
      <!-- 0 -->
      <g transform="translate(130.6375 557.839219)scale(0.1 -0.1)">
       <use xlink:href="#DejaVuSans-30"/>
      </g>
     </g>
    </g>
    <g id="ytick_2">
     <g id="line2d_19">
      <g>
       <use style="stroke:#000000;stroke-width:0.8;" x="144" xlink:href="#mda99b8f8f9" y="483.165"/>
      </g>
     </g>
     <g id="text_8">
      <!-- 5 -->
      <g transform="translate(130.6375 486.964219)scale(0.1 -0.1)">
       <defs>
        <path d="M 691 4666 
L 3169 4666 
L 3169 4134 
L 1269 4134 
L 1269 2991 
Q 1406 3038 1543 3061 
Q 1681 3084 1819 3084 
Q 2600 3084 3056 2656 
Q 3513 2228 3513 1497 
Q 3513 744 3044 326 
Q 2575 -91 1722 -91 
Q 1428 -91 1123 -41 
Q 819 9 494 109 
L 494 744 
Q 775 591 1075 516 
Q 1375 441 1709 441 
Q 2250 441 2565 725 
Q 2881 1009 2881 1497 
Q 2881 1984 2565 2268 
Q 2250 2553 1709 2553 
Q 1456 2553 1204 2497 
Q 953 2441 691 2322 
L 691 4666 
z
" id="DejaVuSans-35" transform="scale(0.015625)"/>
       </defs>
       <use xlink:href="#DejaVuSans-35"/>
      </g>
     </g>
    </g>
    <g id="ytick_3">
     <g id="line2d_20">
      <g>
       <use style="stroke:#000000;stroke-width:0.8;" x="144" xlink:href="#mda99b8f8f9" y="412.29"/>
      </g>
     </g>
     <g id="text_9">
      <!-- 10 -->
      <g transform="translate(124.275 416.089219)scale(0.1 -0.1)">
       <use xlink:href="#DejaVuSans-31"/>
       <use x="63.623047" xlink:href="#DejaVuSans-30"/>
      </g>
     </g>
    </g>
    <g id="ytick_4">
     <g id="line2d_21">
      <g>
       <use style="stroke:#000000;stroke-width:0.8;" x="144" xlink:href="#mda99b8f8f9" y="341.415"/>
      </g>
     </g>
     <g id="text_10">
      <!-- 15 -->
      <g transform="translate(124.275 345.214219)scale(0.1 -0.1)">
       <use xlink:href="#DejaVuSans-31"/>
       <use x="63.623047" xlink:href="#DejaVuSans-35"/>
      </g>
     </g>
    </g>
    <g id="ytick_5">
     <g id="line2d_22">
      <g>
       <use style="stroke:#000000;stroke-width:0.8;" x="144" xlink:href="#mda99b8f8f9" y="270.54"/>
      </g>
     </g>
     <g id="text_11">
      <!-- 20 -->
      <g transform="translate(124.275 274.339219)scale(0.1 -0.1)">
       <use xlink:href="#DejaVuSans-32"/>
       <use x="63.623047" xlink:href="#DejaVuSans-30"/>
      </g>
     </g>
    </g>
    <g id="ytick_6">
     <g id="line2d_23">
      <g>
       <use style="stroke:#000000;stroke-width:0.8;" x="144" xlink:href="#mda99b8f8f9" y="199.665"/>
      </g>
     </g>
     <g id="text_12">
      <!-- 25 -->
      <g transform="translate(124.275 203.464219)scale(0.1 -0.1)">
       <use xlink:href="#DejaVuSans-32"/>
       <use x="63.623047" xlink:href="#DejaVuSans-35"/>
      </g>
     </g>
    </g>
    <g id="ytick_7">
     <g id="line2d_24">
      <g>
       <use style="stroke:#000000;stroke-width:0.8;" x="144" xlink:href="#mda99b8f8f9" y="128.79"/>
      </g>
     </g>
     <g id="text_13">
      <!-- 30 -->
      <g transform="translate(124.275 132.589219)scale(0.1 -0.1)">
       <defs>
        <path d="M 2597 2516 
Q 3050 2419 3304 2112 
Q 3559 1806 3559 1356 
Q 3559 666 3084 287 
Q 2609 -91 1734 -91 
Q 1441 -91 1130 -33 
Q 819 25 488 141 
L 488 750 
Q 750 597 1062 519 
Q 1375 441 1716 441 
Q 2309 441 2620 675 
Q 2931 909 2931 1356 
Q 2931 1769 2642 2001 
Q 2353 2234 1838 2234 
L 1294 2234 
L 1294 2753 
L 1863 2753 
Q 2328 2753 2575 2939 
Q 2822 3125 2822 3475 
Q 2822 3834 2567 4026 
Q 2313 4219 1838 4219 
Q 1578 4219 1281 4162 
Q 984 4106 628 3988 
L 628 4550 
Q 988 4650 1302 4700 
Q 1616 4750 1894 4750 
Q 2613 4750 3031 4423 
Q 3450 4097 3450 3541 
Q 3450 3153 3228 2886 
Q 3006 2619 2597 2516 
z
" id="DejaVuSans-33" transform="scale(0.015625)"/>
       </defs>
       <use xlink:href="#DejaVuSans-33"/>
       <use x="63.623047" xlink:href="#DejaVuSans-30"/>
      </g>
     </g>
    </g>
   </g>
   <g id="line2d_25">
    <path clip-path="url(#pccaf585977)" d="M 144 554.04 
L 191.510421 554.04 
L 193.490022 539.865 
L 195.469623 539.865 
L 197.449224 554.04 
L 203.388027 554.04 
L 205.367627 483.165 
L 207.347228 554.04 
L 209.326829 539.865 
L 211.30643 511.515 
L 213.286031 539.865 
L 215.265632 525.69 
L 217.245233 554.04 
L 219.224834 554.04 
L 221.204435 525.69 
L 223.184035 454.815 
L 225.163636 554.04 
L 227.143237 369.765 
L 229.122838 483.165 
L 231.102439 525.69 
L 233.08204 539.865 
L 235.061641 440.64 
L 237.041242 468.99 
L 239.020843 369.765 
L 241.000443 483.165 
L 242.980044 412.29 
L 246.939246 554.04 
L 250.898448 497.34 
L 252.878049 525.69 
L 254.85765 468.99 
L 256.837251 525.69 
L 258.816851 554.04 
L 260.796452 355.59 
L 262.776053 525.69 
L 264.755654 468.99 
L 266.735255 525.69 
L 268.714856 497.34 
L 270.694457 554.04 
L 272.674058 511.515 
L 274.653659 539.865 
L 276.633259 554.04 
L 278.61286 525.69 
L 280.592461 525.69 
L 282.572062 554.04 
L 284.551663 525.69 
L 286.531264 554.04 
L 288.510865 554.04 
L 290.490466 525.69 
L 292.470067 554.04 
L 296.429268 525.69 
L 298.408869 525.69 
L 300.38847 554.04 
L 302.368071 554.04 
L 304.347672 483.165 
L 306.327273 554.04 
L 308.306874 511.515 
L 310.286475 554.04 
L 316.225277 554.04 
L 320.184479 525.69 
L 322.16408 539.865 
L 326.123282 539.865 
L 328.102882 554.04 
L 334.041685 554.04 
L 338.000887 525.69 
L 339.980488 554.04 
L 343.93969 554.04 
L 345.91929 539.865 
L 347.898891 554.04 
L 349.878492 554.04 
L 351.858093 539.865 
L 353.837694 554.04 
L 373.633703 554.04 
L 375.613304 539.865 
L 377.592905 554.04 
L 379.572506 525.69 
L 381.552106 539.865 
L 383.531707 539.865 
L 385.511308 554.04 
L 391.450111 554.04 
L 393.429712 539.865 
L 395.409313 554.04 
L 526.062971 554.04 
L 528.042572 539.865 
L 530.022173 554.04 
L 541.899778 554.04 
L 543.879379 539.865 
L 545.85898 554.04 
L 565.654989 554.04 
L 567.63459 539.865 
L 569.614191 554.04 
L 611.185809 554.04 
L 613.16541 539.865 
L 615.145011 554.04 
L 619.104213 554.04 
L 621.083814 539.865 
L 625.043016 539.865 
L 629.002217 511.515 
L 630.981818 525.69 
L 632.961419 497.34 
L 634.94102 554.04 
L 636.920621 525.69 
L 638.900222 554.04 
L 640.879823 539.865 
L 642.859424 511.515 
L 644.839024 539.865 
L 646.818625 554.04 
L 648.798226 525.69 
L 650.777827 539.865 
L 652.757428 511.515 
L 656.71663 539.865 
L 658.696231 511.515 
L 660.675831 511.515 
L 662.655432 554.04 
L 664.635033 511.515 
L 666.614634 398.115 
L 668.594235 511.515 
L 670.573836 511.515 
L 672.553437 554.04 
L 674.533038 525.69 
L 676.512639 554.04 
L 678.492239 511.515 
L 680.47184 426.465 
L 682.451441 539.865 
L 684.431042 554.04 
L 686.410643 539.865 
L 690.369845 539.865 
L 692.349446 511.515 
L 694.329047 511.515 
L 696.308647 497.34 
L 698.288248 554.04 
L 700.267849 468.99 
L 704.227051 554.04 
L 708.186253 412.29 
L 710.165854 539.865 
L 712.145455 454.815 
L 714.125055 525.69 
L 716.104656 483.165 
L 718.084257 468.99 
L 720.063858 468.99 
L 722.043459 554.04 
L 724.02306 383.94 
L 726.002661 369.765 
L 727.982262 398.115 
L 729.961863 511.515 
L 731.941463 440.64 
L 733.921064 426.465 
L 735.900665 440.64 
L 739.859867 383.94 
L 741.839468 454.815 
L 743.819069 554.04 
L 745.79867 468.99 
L 747.778271 554.04 
L 749.757871 426.465 
L 751.737472 398.115 
L 753.717073 539.865 
L 755.696674 454.815 
L 757.676275 539.865 
L 759.655876 497.34 
L 761.635477 412.29 
L 763.615078 383.94 
L 765.594678 327.24 
L 767.574279 355.59 
L 769.55388 100.44 
L 771.533481 398.115 
L 773.513082 511.515 
L 775.492683 383.94 
L 777.472284 398.115 
L 779.451885 242.19 
L 781.431486 398.115 
L 783.411086 454.815 
L 785.390687 525.69 
L 787.370288 511.515 
L 789.349889 313.065 
L 791.32949 497.34 
L 793.309091 369.765 
L 795.288692 426.465 
L 797.268293 171.315 
L 799.247894 483.165 
L 801.227494 511.515 
L 803.207095 454.815 
L 805.186696 440.64 
L 807.166297 454.815 
L 811.125499 398.115 
L 813.1051 483.165 
L 815.084701 539.865 
L 817.064302 468.99 
L 819.043902 426.465 
L 821.023503 440.64 
L 823.003104 468.99 
L 824.982705 426.465 
L 826.962306 440.64 
L 828.941907 511.515 
L 830.921508 539.865 
L 832.901109 440.64 
L 834.88071 440.64 
L 836.86031 525.69 
L 838.839911 426.465 
L 840.819512 511.515 
L 842.799113 554.04 
L 844.778714 412.29 
L 846.758315 511.515 
L 848.737916 483.165 
L 850.717517 483.165 
L 852.697118 440.64 
L 854.676718 554.04 
L 856.656319 554.04 
L 858.63592 511.515 
L 860.615521 539.865 
L 862.595122 483.165 
L 864.574723 440.64 
L 866.554324 539.865 
L 868.533925 511.515 
L 870.513525 539.865 
L 872.493126 525.69 
L 874.472727 497.34 
L 878.431929 468.99 
L 880.41153 511.515 
L 882.391131 539.865 
L 884.370732 554.04 
L 886.350333 525.69 
L 888.329933 412.29 
L 890.309534 539.865 
L 892.289135 554.04 
L 894.268736 454.815 
L 896.248337 554.04 
L 898.227938 554.04 
L 900.207539 511.515 
L 902.18714 554.04 
L 904.166741 554.04 
L 906.146341 525.69 
L 908.125942 525.69 
L 910.105543 554.04 
L 912.085144 554.04 
L 914.064745 511.515 
L 916.044346 554.04 
L 918.023947 554.04 
L 921.983149 525.69 
L 923.962749 554.04 
L 927.921951 554.04 
L 929.901552 539.865 
L 933.860754 539.865 
L 935.840355 554.04 
L 941.779157 554.04 
L 943.758758 525.69 
L 945.738359 525.69 
L 949.697561 554.04 
L 953.656763 554.04 
L 955.636364 525.69 
L 957.615965 483.165 
L 959.595565 539.865 
L 961.575166 525.69 
L 963.554767 554.04 
L 965.534368 554.04 
L 967.513969 539.865 
L 969.49357 554.04 
L 973.452772 525.69 
L 975.432373 539.865 
L 979.391574 539.865 
L 981.371175 554.04 
L 983.350776 483.165 
L 985.330377 539.865 
L 987.309978 525.69 
L 989.289579 525.69 
L 993.24878 554.04 
L 995.228381 539.865 
L 999.187583 539.865 
L 1001.167184 554.04 
L 1003.146785 539.865 
L 1005.126386 511.515 
L 1007.105987 554.04 
L 1011.065188 554.04 
L 1013.044789 497.34 
L 1015.02439 511.515 
L 1017.003991 554.04 
L 1018.983592 511.515 
L 1020.963193 539.865 
L 1022.942794 554.04 
L 1024.922395 525.69 
L 1026.901996 539.865 
L 1028.881596 454.815 
L 1030.861197 511.515 
L 1032.840798 497.34 
L 1034.820399 539.865 
L 1036.8 539.865 
L 1036.8 539.865 
" style="fill:none;stroke:#808080;stroke-dasharray:1.5,2.475;stroke-dashoffset:0;stroke-width:1.5;"/>
    <defs>
     <path d="M -3 0 
L 3 0 
M 0 3 
L 0 -3 
" id="mfe35640d6d" style="stroke:#808080;"/>
    </defs>
    <g clip-path="url(#pccaf585977)">
     <use style="fill:#808080;stroke:#808080;" x="144" xlink:href="#mfe35640d6d" y="554.04"/>
     <use style="fill:#808080;stroke:#808080;" x="145.979601" xlink:href="#mfe35640d6d" y="554.04"/>
     <use style="fill:#808080;stroke:#808080;" x="147.959202" xlink:href="#mfe35640d6d" y="554.04"/>
     <use style="fill:#808080;stroke:#808080;" x="149.938803" xlink:href="#mfe35640d6d" y="554.04"/>
     <use style="fill:#808080;stroke:#808080;" x="151.918404" xlink:href="#mfe35640d6d" y="554.04"/>
     <use style="fill:#808080;stroke:#808080;" x="153.898004" xlink:href="#mfe35640d6d" y="554.04"/>
     <use style="fill:#808080;stroke:#808080;" x="155.877605" xlink:href="#mfe35640d6d" y="554.04"/>
     <use style="fill:#808080;stroke:#808080;" x="157.857206" xlink:href="#mfe35640d6d" y="554.04"/>
     <use style="fill:#808080;stroke:#808080;" x="159.836807" xlink:href="#mfe35640d6d" y="554.04"/>
     <use style="fill:#808080;stroke:#808080;" x="161.816408" xlink:href="#mfe35640d6d" y="554.04"/>
     <use style="fill:#808080;stroke:#808080;" x="163.796009" xlink:href="#mfe35640d6d" y="554.04"/>
     <use style="fill:#808080;stroke:#808080;" x="165.77561" xlink:href="#mfe35640d6d" y="554.04"/>
     <use style="fill:#808080;stroke:#808080;" x="167.755211" xlink:href="#mfe35640d6d" y="554.04"/>
     <use style="fill:#808080;stroke:#808080;" x="169.734812" xlink:href="#mfe35640d6d" y="554.04"/>
     <use style="fill:#808080;stroke:#808080;" x="171.714412" xlink:href="#mfe35640d6d" y="554.04"/>
     <use style="fill:#808080;stroke:#808080;" x="173.694013" xlink:href="#mfe35640d6d" y="554.04"/>
     <use style="fill:#808080;stroke:#808080;" x="175.673614" xlink:href="#mfe35640d6d" y="554.04"/>
     <use style="fill:#808080;stroke:#808080;" x="177.653215" xlink:href="#mfe35640d6d" y="554.04"/>
     <use style="fill:#808080;stroke:#808080;" x="179.632816" xlink:href="#mfe35640d6d" y="554.04"/>
     <use style="fill:#808080;stroke:#808080;" x="181.612417" xlink:href="#mfe35640d6d" y="554.04"/>
     <use style="fill:#808080;stroke:#808080;" x="183.592018" xlink:href="#mfe35640d6d" y="554.04"/>
     <use style="fill:#808080;stroke:#808080;" x="185.571619" xlink:href="#mfe35640d6d" y="554.04"/>
     <use style="fill:#808080;stroke:#808080;" x="187.55122" xlink:href="#mfe35640d6d" y="554.04"/>
     <use style="fill:#808080;stroke:#808080;" x="189.53082" xlink:href="#mfe35640d6d" y="554.04"/>
     <use style="fill:#808080;stroke:#808080;" x="191.510421" xlink:href="#mfe35640d6d" y="554.04"/>
     <use style="fill:#808080;stroke:#808080;" x="193.490022" xlink:href="#mfe35640d6d" y="539.865"/>
     <use style="fill:#808080;stroke:#808080;" x="195.469623" xlink:href="#mfe35640d6d" y="539.865"/>
     <use style="fill:#808080;stroke:#808080;" x="197.449224" xlink:href="#mfe35640d6d" y="554.04"/>
     <use style="fill:#808080;stroke:#808080;" x="199.428825" xlink:href="#mfe35640d6d" y="554.04"/>
     <use style="fill:#808080;stroke:#808080;" x="201.408426" xlink:href="#mfe35640d6d" y="554.04"/>
     <use style="fill:#808080;stroke:#808080;" x="203.388027" xlink:href="#mfe35640d6d" y="554.04"/>
     <use style="fill:#808080;stroke:#808080;" x="205.367627" xlink:href="#mfe35640d6d" y="483.165"/>
     <use style="fill:#808080;stroke:#808080;" x="207.347228" xlink:href="#mfe35640d6d" y="554.04"/>
     <use style="fill:#808080;stroke:#808080;" x="209.326829" xlink:href="#mfe35640d6d" y="539.865"/>
     <use style="fill:#808080;stroke:#808080;" x="211.30643" xlink:href="#mfe35640d6d" y="511.515"/>
     <use style="fill:#808080;stroke:#808080;" x="213.286031" xlink:href="#mfe35640d6d" y="539.865"/>
     <use style="fill:#808080;stroke:#808080;" x="215.265632" xlink:href="#mfe35640d6d" y="525.69"/>
     <use style="fill:#808080;stroke:#808080;" x="217.245233" xlink:href="#mfe35640d6d" y="554.04"/>
     <use style="fill:#808080;stroke:#808080;" x="219.224834" xlink:href="#mfe35640d6d" y="554.04"/>
     <use style="fill:#808080;stroke:#808080;" x="221.204435" xlink:href="#mfe35640d6d" y="525.69"/>
     <use style="fill:#808080;stroke:#808080;" x="223.184035" xlink:href="#mfe35640d6d" y="454.815"/>
     <use style="fill:#808080;stroke:#808080;" x="225.163636" xlink:href="#mfe35640d6d" y="554.04"/>
     <use style="fill:#808080;stroke:#808080;" x="227.143237" xlink:href="#mfe35640d6d" y="369.765"/>
     <use style="fill:#808080;stroke:#808080;" x="229.122838" xlink:href="#mfe35640d6d" y="483.165"/>
     <use style="fill:#808080;stroke:#808080;" x="231.102439" xlink:href="#mfe35640d6d" y="525.69"/>
     <use style="fill:#808080;stroke:#808080;" x="233.08204" xlink:href="#mfe35640d6d" y="539.865"/>
     <use style="fill:#808080;stroke:#808080;" x="235.061641" xlink:href="#mfe35640d6d" y="440.64"/>
     <use style="fill:#808080;stroke:#808080;" x="237.041242" xlink:href="#mfe35640d6d" y="468.99"/>
     <use style="fill:#808080;stroke:#808080;" x="239.020843" xlink:href="#mfe35640d6d" y="369.765"/>
     <use style="fill:#808080;stroke:#808080;" x="241.000443" xlink:href="#mfe35640d6d" y="483.165"/>
     <use style="fill:#808080;stroke:#808080;" x="242.980044" xlink:href="#mfe35640d6d" y="412.29"/>
     <use style="fill:#808080;stroke:#808080;" x="244.959645" xlink:href="#mfe35640d6d" y="483.165"/>
     <use style="fill:#808080;stroke:#808080;" x="246.939246" xlink:href="#mfe35640d6d" y="554.04"/>
     <use style="fill:#808080;stroke:#808080;" x="248.918847" xlink:href="#mfe35640d6d" y="525.69"/>
     <use style="fill:#808080;stroke:#808080;" x="250.898448" xlink:href="#mfe35640d6d" y="497.34"/>
     <use style="fill:#808080;stroke:#808080;" x="252.878049" xlink:href="#mfe35640d6d" y="525.69"/>
     <use style="fill:#808080;stroke:#808080;" x="254.85765" xlink:href="#mfe35640d6d" y="468.99"/>
     <use style="fill:#808080;stroke:#808080;" x="256.837251" xlink:href="#mfe35640d6d" y="525.69"/>
     <use style="fill:#808080;stroke:#808080;" x="258.816851" xlink:href="#mfe35640d6d" y="554.04"/>
     <use style="fill:#808080;stroke:#808080;" x="260.796452" xlink:href="#mfe35640d6d" y="355.59"/>
     <use style="fill:#808080;stroke:#808080;" x="262.776053" xlink:href="#mfe35640d6d" y="525.69"/>
     <use style="fill:#808080;stroke:#808080;" x="264.755654" xlink:href="#mfe35640d6d" y="468.99"/>
     <use style="fill:#808080;stroke:#808080;" x="266.735255" xlink:href="#mfe35640d6d" y="525.69"/>
     <use style="fill:#808080;stroke:#808080;" x="268.714856" xlink:href="#mfe35640d6d" y="497.34"/>
     <use style="fill:#808080;stroke:#808080;" x="270.694457" xlink:href="#mfe35640d6d" y="554.04"/>
     <use style="fill:#808080;stroke:#808080;" x="272.674058" xlink:href="#mfe35640d6d" y="511.515"/>
     <use style="fill:#808080;stroke:#808080;" x="274.653659" xlink:href="#mfe35640d6d" y="539.865"/>
     <use style="fill:#808080;stroke:#808080;" x="276.633259" xlink:href="#mfe35640d6d" y="554.04"/>
     <use style="fill:#808080;stroke:#808080;" x="278.61286" xlink:href="#mfe35640d6d" y="525.69"/>
     <use style="fill:#808080;stroke:#808080;" x="280.592461" xlink:href="#mfe35640d6d" y="525.69"/>
     <use style="fill:#808080;stroke:#808080;" x="282.572062" xlink:href="#mfe35640d6d" y="554.04"/>
     <use style="fill:#808080;stroke:#808080;" x="284.551663" xlink:href="#mfe35640d6d" y="525.69"/>
     <use style="fill:#808080;stroke:#808080;" x="286.531264" xlink:href="#mfe35640d6d" y="554.04"/>
     <use style="fill:#808080;stroke:#808080;" x="288.510865" xlink:href="#mfe35640d6d" y="554.04"/>
     <use style="fill:#808080;stroke:#808080;" x="290.490466" xlink:href="#mfe35640d6d" y="525.69"/>
     <use style="fill:#808080;stroke:#808080;" x="292.470067" xlink:href="#mfe35640d6d" y="554.04"/>
     <use style="fill:#808080;stroke:#808080;" x="294.449667" xlink:href="#mfe35640d6d" y="539.865"/>
     <use style="fill:#808080;stroke:#808080;" x="296.429268" xlink:href="#mfe35640d6d" y="525.69"/>
     <use style="fill:#808080;stroke:#808080;" x="298.408869" xlink:href="#mfe35640d6d" y="525.69"/>
     <use style="fill:#808080;stroke:#808080;" x="300.38847" xlink:href="#mfe35640d6d" y="554.04"/>
     <use style="fill:#808080;stroke:#808080;" x="302.368071" xlink:href="#mfe35640d6d" y="554.04"/>
     <use style="fill:#808080;stroke:#808080;" x="304.347672" xlink:href="#mfe35640d6d" y="483.165"/>
     <use style="fill:#808080;stroke:#808080;" x="306.327273" xlink:href="#mfe35640d6d" y="554.04"/>
     <use style="fill:#808080;stroke:#808080;" x="308.306874" xlink:href="#mfe35640d6d" y="511.515"/>
     <use style="fill:#808080;stroke:#808080;" x="310.286475" xlink:href="#mfe35640d6d" y="554.04"/>
     <use style="fill:#808080;stroke:#808080;" x="312.266075" xlink:href="#mfe35640d6d" y="554.04"/>
     <use style="fill:#808080;stroke:#808080;" x="314.245676" xlink:href="#mfe35640d6d" y="554.04"/>
     <use style="fill:#808080;stroke:#808080;" x="316.225277" xlink:href="#mfe35640d6d" y="554.04"/>
     <use style="fill:#808080;stroke:#808080;" x="318.204878" xlink:href="#mfe35640d6d" y="539.865"/>
     <use style="fill:#808080;stroke:#808080;" x="320.184479" xlink:href="#mfe35640d6d" y="525.69"/>
     <use style="fill:#808080;stroke:#808080;" x="322.16408" xlink:href="#mfe35640d6d" y="539.865"/>
     <use style="fill:#808080;stroke:#808080;" x="324.143681" xlink:href="#mfe35640d6d" y="539.865"/>
     <use style="fill:#808080;stroke:#808080;" x="326.123282" xlink:href="#mfe35640d6d" y="539.865"/>
     <use style="fill:#808080;stroke:#808080;" x="328.102882" xlink:href="#mfe35640d6d" y="554.04"/>
     <use style="fill:#808080;stroke:#808080;" x="330.082483" xlink:href="#mfe35640d6d" y="554.04"/>
     <use style="fill:#808080;stroke:#808080;" x="332.062084" xlink:href="#mfe35640d6d" y="554.04"/>
     <use style="fill:#808080;stroke:#808080;" x="334.041685" xlink:href="#mfe35640d6d" y="554.04"/>
     <use style="fill:#808080;stroke:#808080;" x="336.021286" xlink:href="#mfe35640d6d" y="539.865"/>
     <use style="fill:#808080;stroke:#808080;" x="338.000887" xlink:href="#mfe35640d6d" y="525.69"/>
     <use style="fill:#808080;stroke:#808080;" x="339.980488" xlink:href="#mfe35640d6d" y="554.04"/>
     <use style="fill:#808080;stroke:#808080;" x="341.960089" xlink:href="#mfe35640d6d" y="554.04"/>
     <use style="fill:#808080;stroke:#808080;" x="343.93969" xlink:href="#mfe35640d6d" y="554.04"/>
     <use style="fill:#808080;stroke:#808080;" x="345.91929" xlink:href="#mfe35640d6d" y="539.865"/>
     <use style="fill:#808080;stroke:#808080;" x="347.898891" xlink:href="#mfe35640d6d" y="554.04"/>
     <use style="fill:#808080;stroke:#808080;" x="349.878492" xlink:href="#mfe35640d6d" y="554.04"/>
     <use style="fill:#808080;stroke:#808080;" x="351.858093" xlink:href="#mfe35640d6d" y="539.865"/>
     <use style="fill:#808080;stroke:#808080;" x="353.837694" xlink:href="#mfe35640d6d" y="554.04"/>
     <use style="fill:#808080;stroke:#808080;" x="355.817295" xlink:href="#mfe35640d6d" y="554.04"/>
     <use style="fill:#808080;stroke:#808080;" x="357.796896" xlink:href="#mfe35640d6d" y="554.04"/>
     <use style="fill:#808080;stroke:#808080;" x="359.776497" xlink:href="#mfe35640d6d" y="554.04"/>
     <use style="fill:#808080;stroke:#808080;" x="361.756098" xlink:href="#mfe35640d6d" y="554.04"/>
     <use style="fill:#808080;stroke:#808080;" x="363.735698" xlink:href="#mfe35640d6d" y="554.04"/>
     <use style="fill:#808080;stroke:#808080;" x="365.715299" xlink:href="#mfe35640d6d" y="554.04"/>
     <use style="fill:#808080;stroke:#808080;" x="367.6949" xlink:href="#mfe35640d6d" y="554.04"/>
     <use style="fill:#808080;stroke:#808080;" x="369.674501" xlink:href="#mfe35640d6d" y="554.04"/>
     <use style="fill:#808080;stroke:#808080;" x="371.654102" xlink:href="#mfe35640d6d" y="554.04"/>
     <use style="fill:#808080;stroke:#808080;" x="373.633703" xlink:href="#mfe35640d6d" y="554.04"/>
     <use style="fill:#808080;stroke:#808080;" x="375.613304" xlink:href="#mfe35640d6d" y="539.865"/>
     <use style="fill:#808080;stroke:#808080;" x="377.592905" xlink:href="#mfe35640d6d" y="554.04"/>
     <use style="fill:#808080;stroke:#808080;" x="379.572506" xlink:href="#mfe35640d6d" y="525.69"/>
     <use style="fill:#808080;stroke:#808080;" x="381.552106" xlink:href="#mfe35640d6d" y="539.865"/>
     <use style="fill:#808080;stroke:#808080;" x="383.531707" xlink:href="#mfe35640d6d" y="539.865"/>
     <use style="fill:#808080;stroke:#808080;" x="385.511308" xlink:href="#mfe35640d6d" y="554.04"/>
     <use style="fill:#808080;stroke:#808080;" x="387.490909" xlink:href="#mfe35640d6d" y="554.04"/>
     <use style="fill:#808080;stroke:#808080;" x="389.47051" xlink:href="#mfe35640d6d" y="554.04"/>
     <use style="fill:#808080;stroke:#808080;" x="391.450111" xlink:href="#mfe35640d6d" y="554.04"/>
     <use style="fill:#808080;stroke:#808080;" x="393.429712" xlink:href="#mfe35640d6d" y="539.865"/>
     <use style="fill:#808080;stroke:#808080;" x="395.409313" xlink:href="#mfe35640d6d" y="554.04"/>
     <use style="fill:#808080;stroke:#808080;" x="397.388914" xlink:href="#mfe35640d6d" y="554.04"/>
     <use style="fill:#808080;stroke:#808080;" x="399.368514" xlink:href="#mfe35640d6d" y="554.04"/>
     <use style="fill:#808080;stroke:#808080;" x="401.348115" xlink:href="#mfe35640d6d" y="554.04"/>
     <use style="fill:#808080;stroke:#808080;" x="403.327716" xlink:href="#mfe35640d6d" y="554.04"/>
     <use style="fill:#808080;stroke:#808080;" x="405.307317" xlink:href="#mfe35640d6d" y="554.04"/>
     <use style="fill:#808080;stroke:#808080;" x="407.286918" xlink:href="#mfe35640d6d" y="554.04"/>
     <use style="fill:#808080;stroke:#808080;" x="409.266519" xlink:href="#mfe35640d6d" y="554.04"/>
     <use style="fill:#808080;stroke:#808080;" x="411.24612" xlink:href="#mfe35640d6d" y="554.04"/>
     <use style="fill:#808080;stroke:#808080;" x="413.225721" xlink:href="#mfe35640d6d" y="554.04"/>
     <use style="fill:#808080;stroke:#808080;" x="415.205322" xlink:href="#mfe35640d6d" y="554.04"/>
     <use style="fill:#808080;stroke:#808080;" x="417.184922" xlink:href="#mfe35640d6d" y="554.04"/>
     <use style="fill:#808080;stroke:#808080;" x="419.164523" xlink:href="#mfe35640d6d" y="554.04"/>
     <use style="fill:#808080;stroke:#808080;" x="421.144124" xlink:href="#mfe35640d6d" y="554.04"/>
     <use style="fill:#808080;stroke:#808080;" x="423.123725" xlink:href="#mfe35640d6d" y="554.04"/>
     <use style="fill:#808080;stroke:#808080;" x="425.103326" xlink:href="#mfe35640d6d" y="554.04"/>
     <use style="fill:#808080;stroke:#808080;" x="427.082927" xlink:href="#mfe35640d6d" y="554.04"/>
     <use style="fill:#808080;stroke:#808080;" x="429.062528" xlink:href="#mfe35640d6d" y="554.04"/>
     <use style="fill:#808080;stroke:#808080;" x="431.042129" xlink:href="#mfe35640d6d" y="554.04"/>
     <use style="fill:#808080;stroke:#808080;" x="433.021729" xlink:href="#mfe35640d6d" y="554.04"/>
     <use style="fill:#808080;stroke:#808080;" x="435.00133" xlink:href="#mfe35640d6d" y="554.04"/>
     <use style="fill:#808080;stroke:#808080;" x="436.980931" xlink:href="#mfe35640d6d" y="554.04"/>
     <use style="fill:#808080;stroke:#808080;" x="438.960532" xlink:href="#mfe35640d6d" y="554.04"/>
     <use style="fill:#808080;stroke:#808080;" x="440.940133" xlink:href="#mfe35640d6d" y="554.04"/>
     <use style="fill:#808080;stroke:#808080;" x="442.919734" xlink:href="#mfe35640d6d" y="554.04"/>
     <use style="fill:#808080;stroke:#808080;" x="444.899335" xlink:href="#mfe35640d6d" y="554.04"/>
     <use style="fill:#808080;stroke:#808080;" x="446.878936" xlink:href="#mfe35640d6d" y="554.04"/>
     <use style="fill:#808080;stroke:#808080;" x="448.858537" xlink:href="#mfe35640d6d" y="554.04"/>
     <use style="fill:#808080;stroke:#808080;" x="450.838137" xlink:href="#mfe35640d6d" y="554.04"/>
     <use style="fill:#808080;stroke:#808080;" x="452.817738" xlink:href="#mfe35640d6d" y="554.04"/>
     <use style="fill:#808080;stroke:#808080;" x="454.797339" xlink:href="#mfe35640d6d" y="554.04"/>
     <use style="fill:#808080;stroke:#808080;" x="456.77694" xlink:href="#mfe35640d6d" y="554.04"/>
     <use style="fill:#808080;stroke:#808080;" x="458.756541" xlink:href="#mfe35640d6d" y="554.04"/>
     <use style="fill:#808080;stroke:#808080;" x="460.736142" xlink:href="#mfe35640d6d" y="554.04"/>
     <use style="fill:#808080;stroke:#808080;" x="462.715743" xlink:href="#mfe35640d6d" y="554.04"/>
     <use style="fill:#808080;stroke:#808080;" x="464.695344" xlink:href="#mfe35640d6d" y="554.04"/>
     <use style="fill:#808080;stroke:#808080;" x="466.674945" xlink:href="#mfe35640d6d" y="554.04"/>
     <use style="fill:#808080;stroke:#808080;" x="468.654545" xlink:href="#mfe35640d6d" y="554.04"/>
     <use style="fill:#808080;stroke:#808080;" x="470.634146" xlink:href="#mfe35640d6d" y="554.04"/>
     <use style="fill:#808080;stroke:#808080;" x="472.613747" xlink:href="#mfe35640d6d" y="554.04"/>
     <use style="fill:#808080;stroke:#808080;" x="474.593348" xlink:href="#mfe35640d6d" y="554.04"/>
     <use style="fill:#808080;stroke:#808080;" x="476.572949" xlink:href="#mfe35640d6d" y="554.04"/>
     <use style="fill:#808080;stroke:#808080;" x="478.55255" xlink:href="#mfe35640d6d" y="554.04"/>
     <use style="fill:#808080;stroke:#808080;" x="480.532151" xlink:href="#mfe35640d6d" y="554.04"/>
     <use style="fill:#808080;stroke:#808080;" x="482.511752" xlink:href="#mfe35640d6d" y="554.04"/>
     <use style="fill:#808080;stroke:#808080;" x="484.491353" xlink:href="#mfe35640d6d" y="554.04"/>
     <use style="fill:#808080;stroke:#808080;" x="486.470953" xlink:href="#mfe35640d6d" y="554.04"/>
     <use style="fill:#808080;stroke:#808080;" x="488.450554" xlink:href="#mfe35640d6d" y="554.04"/>
     <use style="fill:#808080;stroke:#808080;" x="490.430155" xlink:href="#mfe35640d6d" y="554.04"/>
     <use style="fill:#808080;stroke:#808080;" x="492.409756" xlink:href="#mfe35640d6d" y="554.04"/>
     <use style="fill:#808080;stroke:#808080;" x="494.389357" xlink:href="#mfe35640d6d" y="554.04"/>
     <use style="fill:#808080;stroke:#808080;" x="496.368958" xlink:href="#mfe35640d6d" y="554.04"/>
     <use style="fill:#808080;stroke:#808080;" x="498.348559" xlink:href="#mfe35640d6d" y="554.04"/>
     <use style="fill:#808080;stroke:#808080;" x="500.32816" xlink:href="#mfe35640d6d" y="554.04"/>
     <use style="fill:#808080;stroke:#808080;" x="502.307761" xlink:href="#mfe35640d6d" y="554.04"/>
     <use style="fill:#808080;stroke:#808080;" x="504.287361" xlink:href="#mfe35640d6d" y="554.04"/>
     <use style="fill:#808080;stroke:#808080;" x="506.266962" xlink:href="#mfe35640d6d" y="554.04"/>
     <use style="fill:#808080;stroke:#808080;" x="508.246563" xlink:href="#mfe35640d6d" y="554.04"/>
     <use style="fill:#808080;stroke:#808080;" x="510.226164" xlink:href="#mfe35640d6d" y="554.04"/>
     <use style="fill:#808080;stroke:#808080;" x="512.205765" xlink:href="#mfe35640d6d" y="554.04"/>
     <use style="fill:#808080;stroke:#808080;" x="514.185366" xlink:href="#mfe35640d6d" y="554.04"/>
     <use style="fill:#808080;stroke:#808080;" x="516.164967" xlink:href="#mfe35640d6d" y="554.04"/>
     <use style="fill:#808080;stroke:#808080;" x="518.144568" xlink:href="#mfe35640d6d" y="554.04"/>
     <use style="fill:#808080;stroke:#808080;" x="520.124169" xlink:href="#mfe35640d6d" y="554.04"/>
     <use style="fill:#808080;stroke:#808080;" x="522.103769" xlink:href="#mfe35640d6d" y="554.04"/>
     <use style="fill:#808080;stroke:#808080;" x="524.08337" xlink:href="#mfe35640d6d" y="554.04"/>
     <use style="fill:#808080;stroke:#808080;" x="526.062971" xlink:href="#mfe35640d6d" y="554.04"/>
     <use style="fill:#808080;stroke:#808080;" x="528.042572" xlink:href="#mfe35640d6d" y="539.865"/>
     <use style="fill:#808080;stroke:#808080;" x="530.022173" xlink:href="#mfe35640d6d" y="554.04"/>
     <use style="fill:#808080;stroke:#808080;" x="532.001774" xlink:href="#mfe35640d6d" y="554.04"/>
     <use style="fill:#808080;stroke:#808080;" x="533.981375" xlink:href="#mfe35640d6d" y="554.04"/>
     <use style="fill:#808080;stroke:#808080;" x="535.960976" xlink:href="#mfe35640d6d" y="554.04"/>
     <use style="fill:#808080;stroke:#808080;" x="537.940576" xlink:href="#mfe35640d6d" y="554.04"/>
     <use style="fill:#808080;stroke:#808080;" x="539.920177" xlink:href="#mfe35640d6d" y="554.04"/>
     <use style="fill:#808080;stroke:#808080;" x="541.899778" xlink:href="#mfe35640d6d" y="554.04"/>
     <use style="fill:#808080;stroke:#808080;" x="543.879379" xlink:href="#mfe35640d6d" y="539.865"/>
     <use style="fill:#808080;stroke:#808080;" x="545.85898" xlink:href="#mfe35640d6d" y="554.04"/>
     <use style="fill:#808080;stroke:#808080;" x="547.838581" xlink:href="#mfe35640d6d" y="554.04"/>
     <use style="fill:#808080;stroke:#808080;" x="549.818182" xlink:href="#mfe35640d6d" y="554.04"/>
     <use style="fill:#808080;stroke:#808080;" x="551.797783" xlink:href="#mfe35640d6d" y="554.04"/>
     <use style="fill:#808080;stroke:#808080;" x="553.777384" xlink:href="#mfe35640d6d" y="554.04"/>
     <use style="fill:#808080;stroke:#808080;" x="555.756984" xlink:href="#mfe35640d6d" y="554.04"/>
     <use style="fill:#808080;stroke:#808080;" x="557.736585" xlink:href="#mfe35640d6d" y="554.04"/>
     <use style="fill:#808080;stroke:#808080;" x="559.716186" xlink:href="#mfe35640d6d" y="554.04"/>
     <use style="fill:#808080;stroke:#808080;" x="561.695787" xlink:href="#mfe35640d6d" y="554.04"/>
     <use style="fill:#808080;stroke:#808080;" x="563.675388" xlink:href="#mfe35640d6d" y="554.04"/>
     <use style="fill:#808080;stroke:#808080;" x="565.654989" xlink:href="#mfe35640d6d" y="554.04"/>
     <use style="fill:#808080;stroke:#808080;" x="567.63459" xlink:href="#mfe35640d6d" y="539.865"/>
     <use style="fill:#808080;stroke:#808080;" x="569.614191" xlink:href="#mfe35640d6d" y="554.04"/>
     <use style="fill:#808080;stroke:#808080;" x="571.593792" xlink:href="#mfe35640d6d" y="554.04"/>
     <use style="fill:#808080;stroke:#808080;" x="573.573392" xlink:href="#mfe35640d6d" y="554.04"/>
     <use style="fill:#808080;stroke:#808080;" x="575.552993" xlink:href="#mfe35640d6d" y="554.04"/>
     <use style="fill:#808080;stroke:#808080;" x="577.532594" xlink:href="#mfe35640d6d" y="554.04"/>
     <use style="fill:#808080;stroke:#808080;" x="579.512195" xlink:href="#mfe35640d6d" y="554.04"/>
     <use style="fill:#808080;stroke:#808080;" x="581.491796" xlink:href="#mfe35640d6d" y="554.04"/>
     <use style="fill:#808080;stroke:#808080;" x="583.471397" xlink:href="#mfe35640d6d" y="554.04"/>
     <use style="fill:#808080;stroke:#808080;" x="585.450998" xlink:href="#mfe35640d6d" y="554.04"/>
     <use style="fill:#808080;stroke:#808080;" x="587.430599" xlink:href="#mfe35640d6d" y="554.04"/>
     <use style="fill:#808080;stroke:#808080;" x="589.4102" xlink:href="#mfe35640d6d" y="554.04"/>
     <use style="fill:#808080;stroke:#808080;" x="591.3898" xlink:href="#mfe35640d6d" y="554.04"/>
     <use style="fill:#808080;stroke:#808080;" x="593.369401" xlink:href="#mfe35640d6d" y="554.04"/>
     <use style="fill:#808080;stroke:#808080;" x="595.349002" xlink:href="#mfe35640d6d" y="554.04"/>
     <use style="fill:#808080;stroke:#808080;" x="597.328603" xlink:href="#mfe35640d6d" y="554.04"/>
     <use style="fill:#808080;stroke:#808080;" x="599.308204" xlink:href="#mfe35640d6d" y="554.04"/>
     <use style="fill:#808080;stroke:#808080;" x="601.287805" xlink:href="#mfe35640d6d" y="554.04"/>
     <use style="fill:#808080;stroke:#808080;" x="603.267406" xlink:href="#mfe35640d6d" y="554.04"/>
     <use style="fill:#808080;stroke:#808080;" x="605.247007" xlink:href="#mfe35640d6d" y="554.04"/>
     <use style="fill:#808080;stroke:#808080;" x="607.226608" xlink:href="#mfe35640d6d" y="554.04"/>
     <use style="fill:#808080;stroke:#808080;" x="609.206208" xlink:href="#mfe35640d6d" y="554.04"/>
     <use style="fill:#808080;stroke:#808080;" x="611.185809" xlink:href="#mfe35640d6d" y="554.04"/>
     <use style="fill:#808080;stroke:#808080;" x="613.16541" xlink:href="#mfe35640d6d" y="539.865"/>
     <use style="fill:#808080;stroke:#808080;" x="615.145011" xlink:href="#mfe35640d6d" y="554.04"/>
     <use style="fill:#808080;stroke:#808080;" x="617.124612" xlink:href="#mfe35640d6d" y="554.04"/>
     <use style="fill:#808080;stroke:#808080;" x="619.104213" xlink:href="#mfe35640d6d" y="554.04"/>
     <use style="fill:#808080;stroke:#808080;" x="621.083814" xlink:href="#mfe35640d6d" y="539.865"/>
     <use style="fill:#808080;stroke:#808080;" x="623.063415" xlink:href="#mfe35640d6d" y="539.865"/>
     <use style="fill:#808080;stroke:#808080;" x="625.043016" xlink:href="#mfe35640d6d" y="539.865"/>
     <use style="fill:#808080;stroke:#808080;" x="627.022616" xlink:href="#mfe35640d6d" y="525.69"/>
     <use style="fill:#808080;stroke:#808080;" x="629.002217" xlink:href="#mfe35640d6d" y="511.515"/>
     <use style="fill:#808080;stroke:#808080;" x="630.981818" xlink:href="#mfe35640d6d" y="525.69"/>
     <use style="fill:#808080;stroke:#808080;" x="632.961419" xlink:href="#mfe35640d6d" y="497.34"/>
     <use style="fill:#808080;stroke:#808080;" x="634.94102" xlink:href="#mfe35640d6d" y="554.04"/>
     <use style="fill:#808080;stroke:#808080;" x="636.920621" xlink:href="#mfe35640d6d" y="525.69"/>
     <use style="fill:#808080;stroke:#808080;" x="638.900222" xlink:href="#mfe35640d6d" y="554.04"/>
     <use style="fill:#808080;stroke:#808080;" x="640.879823" xlink:href="#mfe35640d6d" y="539.865"/>
     <use style="fill:#808080;stroke:#808080;" x="642.859424" xlink:href="#mfe35640d6d" y="511.515"/>
     <use style="fill:#808080;stroke:#808080;" x="644.839024" xlink:href="#mfe35640d6d" y="539.865"/>
     <use style="fill:#808080;stroke:#808080;" x="646.818625" xlink:href="#mfe35640d6d" y="554.04"/>
     <use style="fill:#808080;stroke:#808080;" x="648.798226" xlink:href="#mfe35640d6d" y="525.69"/>
     <use style="fill:#808080;stroke:#808080;" x="650.777827" xlink:href="#mfe35640d6d" y="539.865"/>
     <use style="fill:#808080;stroke:#808080;" x="652.757428" xlink:href="#mfe35640d6d" y="511.515"/>
     <use style="fill:#808080;stroke:#808080;" x="654.737029" xlink:href="#mfe35640d6d" y="525.69"/>
     <use style="fill:#808080;stroke:#808080;" x="656.71663" xlink:href="#mfe35640d6d" y="539.865"/>
     <use style="fill:#808080;stroke:#808080;" x="658.696231" xlink:href="#mfe35640d6d" y="511.515"/>
     <use style="fill:#808080;stroke:#808080;" x="660.675831" xlink:href="#mfe35640d6d" y="511.515"/>
     <use style="fill:#808080;stroke:#808080;" x="662.655432" xlink:href="#mfe35640d6d" y="554.04"/>
     <use style="fill:#808080;stroke:#808080;" x="664.635033" xlink:href="#mfe35640d6d" y="511.515"/>
     <use style="fill:#808080;stroke:#808080;" x="666.614634" xlink:href="#mfe35640d6d" y="398.115"/>
     <use style="fill:#808080;stroke:#808080;" x="668.594235" xlink:href="#mfe35640d6d" y="511.515"/>
     <use style="fill:#808080;stroke:#808080;" x="670.573836" xlink:href="#mfe35640d6d" y="511.515"/>
     <use style="fill:#808080;stroke:#808080;" x="672.553437" xlink:href="#mfe35640d6d" y="554.04"/>
     <use style="fill:#808080;stroke:#808080;" x="674.533038" xlink:href="#mfe35640d6d" y="525.69"/>
     <use style="fill:#808080;stroke:#808080;" x="676.512639" xlink:href="#mfe35640d6d" y="554.04"/>
     <use style="fill:#808080;stroke:#808080;" x="678.492239" xlink:href="#mfe35640d6d" y="511.515"/>
     <use style="fill:#808080;stroke:#808080;" x="680.47184" xlink:href="#mfe35640d6d" y="426.465"/>
     <use style="fill:#808080;stroke:#808080;" x="682.451441" xlink:href="#mfe35640d6d" y="539.865"/>
     <use style="fill:#808080;stroke:#808080;" x="684.431042" xlink:href="#mfe35640d6d" y="554.04"/>
     <use style="fill:#808080;stroke:#808080;" x="686.410643" xlink:href="#mfe35640d6d" y="539.865"/>
     <use style="fill:#808080;stroke:#808080;" x="688.390244" xlink:href="#mfe35640d6d" y="539.865"/>
     <use style="fill:#808080;stroke:#808080;" x="690.369845" xlink:href="#mfe35640d6d" y="539.865"/>
     <use style="fill:#808080;stroke:#808080;" x="692.349446" xlink:href="#mfe35640d6d" y="511.515"/>
     <use style="fill:#808080;stroke:#808080;" x="694.329047" xlink:href="#mfe35640d6d" y="511.515"/>
     <use style="fill:#808080;stroke:#808080;" x="696.308647" xlink:href="#mfe35640d6d" y="497.34"/>
     <use style="fill:#808080;stroke:#808080;" x="698.288248" xlink:href="#mfe35640d6d" y="554.04"/>
     <use style="fill:#808080;stroke:#808080;" x="700.267849" xlink:href="#mfe35640d6d" y="468.99"/>
     <use style="fill:#808080;stroke:#808080;" x="702.24745" xlink:href="#mfe35640d6d" y="511.515"/>
     <use style="fill:#808080;stroke:#808080;" x="704.227051" xlink:href="#mfe35640d6d" y="554.04"/>
     <use style="fill:#808080;stroke:#808080;" x="706.206652" xlink:href="#mfe35640d6d" y="483.165"/>
     <use style="fill:#808080;stroke:#808080;" x="708.186253" xlink:href="#mfe35640d6d" y="412.29"/>
     <use style="fill:#808080;stroke:#808080;" x="710.165854" xlink:href="#mfe35640d6d" y="539.865"/>
     <use style="fill:#808080;stroke:#808080;" x="712.145455" xlink:href="#mfe35640d6d" y="454.815"/>
     <use style="fill:#808080;stroke:#808080;" x="714.125055" xlink:href="#mfe35640d6d" y="525.69"/>
     <use style="fill:#808080;stroke:#808080;" x="716.104656" xlink:href="#mfe35640d6d" y="483.165"/>
     <use style="fill:#808080;stroke:#808080;" x="718.084257" xlink:href="#mfe35640d6d" y="468.99"/>
     <use style="fill:#808080;stroke:#808080;" x="720.063858" xlink:href="#mfe35640d6d" y="468.99"/>
     <use style="fill:#808080;stroke:#808080;" x="722.043459" xlink:href="#mfe35640d6d" y="554.04"/>
     <use style="fill:#808080;stroke:#808080;" x="724.02306" xlink:href="#mfe35640d6d" y="383.94"/>
     <use style="fill:#808080;stroke:#808080;" x="726.002661" xlink:href="#mfe35640d6d" y="369.765"/>
     <use style="fill:#808080;stroke:#808080;" x="727.982262" xlink:href="#mfe35640d6d" y="398.115"/>
     <use style="fill:#808080;stroke:#808080;" x="729.961863" xlink:href="#mfe35640d6d" y="511.515"/>
     <use style="fill:#808080;stroke:#808080;" x="731.941463" xlink:href="#mfe35640d6d" y="440.64"/>
     <use style="fill:#808080;stroke:#808080;" x="733.921064" xlink:href="#mfe35640d6d" y="426.465"/>
     <use style="fill:#808080;stroke:#808080;" x="735.900665" xlink:href="#mfe35640d6d" y="440.64"/>
     <use style="fill:#808080;stroke:#808080;" x="737.880266" xlink:href="#mfe35640d6d" y="412.29"/>
     <use style="fill:#808080;stroke:#808080;" x="739.859867" xlink:href="#mfe35640d6d" y="383.94"/>
     <use style="fill:#808080;stroke:#808080;" x="741.839468" xlink:href="#mfe35640d6d" y="454.815"/>
     <use style="fill:#808080;stroke:#808080;" x="743.819069" xlink:href="#mfe35640d6d" y="554.04"/>
     <use style="fill:#808080;stroke:#808080;" x="745.79867" xlink:href="#mfe35640d6d" y="468.99"/>
     <use style="fill:#808080;stroke:#808080;" x="747.778271" xlink:href="#mfe35640d6d" y="554.04"/>
     <use style="fill:#808080;stroke:#808080;" x="749.757871" xlink:href="#mfe35640d6d" y="426.465"/>
     <use style="fill:#808080;stroke:#808080;" x="751.737472" xlink:href="#mfe35640d6d" y="398.115"/>
     <use style="fill:#808080;stroke:#808080;" x="753.717073" xlink:href="#mfe35640d6d" y="539.865"/>
     <use style="fill:#808080;stroke:#808080;" x="755.696674" xlink:href="#mfe35640d6d" y="454.815"/>
     <use style="fill:#808080;stroke:#808080;" x="757.676275" xlink:href="#mfe35640d6d" y="539.865"/>
     <use style="fill:#808080;stroke:#808080;" x="759.655876" xlink:href="#mfe35640d6d" y="497.34"/>
     <use style="fill:#808080;stroke:#808080;" x="761.635477" xlink:href="#mfe35640d6d" y="412.29"/>
     <use style="fill:#808080;stroke:#808080;" x="763.615078" xlink:href="#mfe35640d6d" y="383.94"/>
     <use style="fill:#808080;stroke:#808080;" x="765.594678" xlink:href="#mfe35640d6d" y="327.24"/>
     <use style="fill:#808080;stroke:#808080;" x="767.574279" xlink:href="#mfe35640d6d" y="355.59"/>
     <use style="fill:#808080;stroke:#808080;" x="769.55388" xlink:href="#mfe35640d6d" y="100.44"/>
     <use style="fill:#808080;stroke:#808080;" x="771.533481" xlink:href="#mfe35640d6d" y="398.115"/>
     <use style="fill:#808080;stroke:#808080;" x="773.513082" xlink:href="#mfe35640d6d" y="511.515"/>
     <use style="fill:#808080;stroke:#808080;" x="775.492683" xlink:href="#mfe35640d6d" y="383.94"/>
     <use style="fill:#808080;stroke:#808080;" x="777.472284" xlink:href="#mfe35640d6d" y="398.115"/>
     <use style="fill:#808080;stroke:#808080;" x="779.451885" xlink:href="#mfe35640d6d" y="242.19"/>
     <use style="fill:#808080;stroke:#808080;" x="781.431486" xlink:href="#mfe35640d6d" y="398.115"/>
     <use style="fill:#808080;stroke:#808080;" x="783.411086" xlink:href="#mfe35640d6d" y="454.815"/>
     <use style="fill:#808080;stroke:#808080;" x="785.390687" xlink:href="#mfe35640d6d" y="525.69"/>
     <use style="fill:#808080;stroke:#808080;" x="787.370288" xlink:href="#mfe35640d6d" y="511.515"/>
     <use style="fill:#808080;stroke:#808080;" x="789.349889" xlink:href="#mfe35640d6d" y="313.065"/>
     <use style="fill:#808080;stroke:#808080;" x="791.32949" xlink:href="#mfe35640d6d" y="497.34"/>
     <use style="fill:#808080;stroke:#808080;" x="793.309091" xlink:href="#mfe35640d6d" y="369.765"/>
     <use style="fill:#808080;stroke:#808080;" x="795.288692" xlink:href="#mfe35640d6d" y="426.465"/>
     <use style="fill:#808080;stroke:#808080;" x="797.268293" xlink:href="#mfe35640d6d" y="171.315"/>
     <use style="fill:#808080;stroke:#808080;" x="799.247894" xlink:href="#mfe35640d6d" y="483.165"/>
     <use style="fill:#808080;stroke:#808080;" x="801.227494" xlink:href="#mfe35640d6d" y="511.515"/>
     <use style="fill:#808080;stroke:#808080;" x="803.207095" xlink:href="#mfe35640d6d" y="454.815"/>
     <use style="fill:#808080;stroke:#808080;" x="805.186696" xlink:href="#mfe35640d6d" y="440.64"/>
     <use style="fill:#808080;stroke:#808080;" x="807.166297" xlink:href="#mfe35640d6d" y="454.815"/>
     <use style="fill:#808080;stroke:#808080;" x="809.145898" xlink:href="#mfe35640d6d" y="426.465"/>
     <use style="fill:#808080;stroke:#808080;" x="811.125499" xlink:href="#mfe35640d6d" y="398.115"/>
     <use style="fill:#808080;stroke:#808080;" x="813.1051" xlink:href="#mfe35640d6d" y="483.165"/>
     <use style="fill:#808080;stroke:#808080;" x="815.084701" xlink:href="#mfe35640d6d" y="539.865"/>
     <use style="fill:#808080;stroke:#808080;" x="817.064302" xlink:href="#mfe35640d6d" y="468.99"/>
     <use style="fill:#808080;stroke:#808080;" x="819.043902" xlink:href="#mfe35640d6d" y="426.465"/>
     <use style="fill:#808080;stroke:#808080;" x="821.023503" xlink:href="#mfe35640d6d" y="440.64"/>
     <use style="fill:#808080;stroke:#808080;" x="823.003104" xlink:href="#mfe35640d6d" y="468.99"/>
     <use style="fill:#808080;stroke:#808080;" x="824.982705" xlink:href="#mfe35640d6d" y="426.465"/>
     <use style="fill:#808080;stroke:#808080;" x="826.962306" xlink:href="#mfe35640d6d" y="440.64"/>
     <use style="fill:#808080;stroke:#808080;" x="828.941907" xlink:href="#mfe35640d6d" y="511.515"/>
     <use style="fill:#808080;stroke:#808080;" x="830.921508" xlink:href="#mfe35640d6d" y="539.865"/>
     <use style="fill:#808080;stroke:#808080;" x="832.901109" xlink:href="#mfe35640d6d" y="440.64"/>
     <use style="fill:#808080;stroke:#808080;" x="834.88071" xlink:href="#mfe35640d6d" y="440.64"/>
     <use style="fill:#808080;stroke:#808080;" x="836.86031" xlink:href="#mfe35640d6d" y="525.69"/>
     <use style="fill:#808080;stroke:#808080;" x="838.839911" xlink:href="#mfe35640d6d" y="426.465"/>
     <use style="fill:#808080;stroke:#808080;" x="840.819512" xlink:href="#mfe35640d6d" y="511.515"/>
     <use style="fill:#808080;stroke:#808080;" x="842.799113" xlink:href="#mfe35640d6d" y="554.04"/>
     <use style="fill:#808080;stroke:#808080;" x="844.778714" xlink:href="#mfe35640d6d" y="412.29"/>
     <use style="fill:#808080;stroke:#808080;" x="846.758315" xlink:href="#mfe35640d6d" y="511.515"/>
     <use style="fill:#808080;stroke:#808080;" x="848.737916" xlink:href="#mfe35640d6d" y="483.165"/>
     <use style="fill:#808080;stroke:#808080;" x="850.717517" xlink:href="#mfe35640d6d" y="483.165"/>
     <use style="fill:#808080;stroke:#808080;" x="852.697118" xlink:href="#mfe35640d6d" y="440.64"/>
     <use style="fill:#808080;stroke:#808080;" x="854.676718" xlink:href="#mfe35640d6d" y="554.04"/>
     <use style="fill:#808080;stroke:#808080;" x="856.656319" xlink:href="#mfe35640d6d" y="554.04"/>
     <use style="fill:#808080;stroke:#808080;" x="858.63592" xlink:href="#mfe35640d6d" y="511.515"/>
     <use style="fill:#808080;stroke:#808080;" x="860.615521" xlink:href="#mfe35640d6d" y="539.865"/>
     <use style="fill:#808080;stroke:#808080;" x="862.595122" xlink:href="#mfe35640d6d" y="483.165"/>
     <use style="fill:#808080;stroke:#808080;" x="864.574723" xlink:href="#mfe35640d6d" y="440.64"/>
     <use style="fill:#808080;stroke:#808080;" x="866.554324" xlink:href="#mfe35640d6d" y="539.865"/>
     <use style="fill:#808080;stroke:#808080;" x="868.533925" xlink:href="#mfe35640d6d" y="511.515"/>
     <use style="fill:#808080;stroke:#808080;" x="870.513525" xlink:href="#mfe35640d6d" y="539.865"/>
     <use style="fill:#808080;stroke:#808080;" x="872.493126" xlink:href="#mfe35640d6d" y="525.69"/>
     <use style="fill:#808080;stroke:#808080;" x="874.472727" xlink:href="#mfe35640d6d" y="497.34"/>
     <use style="fill:#808080;stroke:#808080;" x="876.452328" xlink:href="#mfe35640d6d" y="483.165"/>
     <use style="fill:#808080;stroke:#808080;" x="878.431929" xlink:href="#mfe35640d6d" y="468.99"/>
     <use style="fill:#808080;stroke:#808080;" x="880.41153" xlink:href="#mfe35640d6d" y="511.515"/>
     <use style="fill:#808080;stroke:#808080;" x="882.391131" xlink:href="#mfe35640d6d" y="539.865"/>
     <use style="fill:#808080;stroke:#808080;" x="884.370732" xlink:href="#mfe35640d6d" y="554.04"/>
     <use style="fill:#808080;stroke:#808080;" x="886.350333" xlink:href="#mfe35640d6d" y="525.69"/>
     <use style="fill:#808080;stroke:#808080;" x="888.329933" xlink:href="#mfe35640d6d" y="412.29"/>
     <use style="fill:#808080;stroke:#808080;" x="890.309534" xlink:href="#mfe35640d6d" y="539.865"/>
     <use style="fill:#808080;stroke:#808080;" x="892.289135" xlink:href="#mfe35640d6d" y="554.04"/>
     <use style="fill:#808080;stroke:#808080;" x="894.268736" xlink:href="#mfe35640d6d" y="454.815"/>
     <use style="fill:#808080;stroke:#808080;" x="896.248337" xlink:href="#mfe35640d6d" y="554.04"/>
     <use style="fill:#808080;stroke:#808080;" x="898.227938" xlink:href="#mfe35640d6d" y="554.04"/>
     <use style="fill:#808080;stroke:#808080;" x="900.207539" xlink:href="#mfe35640d6d" y="511.515"/>
     <use style="fill:#808080;stroke:#808080;" x="902.18714" xlink:href="#mfe35640d6d" y="554.04"/>
     <use style="fill:#808080;stroke:#808080;" x="904.166741" xlink:href="#mfe35640d6d" y="554.04"/>
     <use style="fill:#808080;stroke:#808080;" x="906.146341" xlink:href="#mfe35640d6d" y="525.69"/>
     <use style="fill:#808080;stroke:#808080;" x="908.125942" xlink:href="#mfe35640d6d" y="525.69"/>
     <use style="fill:#808080;stroke:#808080;" x="910.105543" xlink:href="#mfe35640d6d" y="554.04"/>
     <use style="fill:#808080;stroke:#808080;" x="912.085144" xlink:href="#mfe35640d6d" y="554.04"/>
     <use style="fill:#808080;stroke:#808080;" x="914.064745" xlink:href="#mfe35640d6d" y="511.515"/>
     <use style="fill:#808080;stroke:#808080;" x="916.044346" xlink:href="#mfe35640d6d" y="554.04"/>
     <use style="fill:#808080;stroke:#808080;" x="918.023947" xlink:href="#mfe35640d6d" y="554.04"/>
     <use style="fill:#808080;stroke:#808080;" x="920.003548" xlink:href="#mfe35640d6d" y="539.865"/>
     <use style="fill:#808080;stroke:#808080;" x="921.983149" xlink:href="#mfe35640d6d" y="525.69"/>
     <use style="fill:#808080;stroke:#808080;" x="923.962749" xlink:href="#mfe35640d6d" y="554.04"/>
     <use style="fill:#808080;stroke:#808080;" x="925.94235" xlink:href="#mfe35640d6d" y="554.04"/>
     <use style="fill:#808080;stroke:#808080;" x="927.921951" xlink:href="#mfe35640d6d" y="554.04"/>
     <use style="fill:#808080;stroke:#808080;" x="929.901552" xlink:href="#mfe35640d6d" y="539.865"/>
     <use style="fill:#808080;stroke:#808080;" x="931.881153" xlink:href="#mfe35640d6d" y="539.865"/>
     <use style="fill:#808080;stroke:#808080;" x="933.860754" xlink:href="#mfe35640d6d" y="539.865"/>
     <use style="fill:#808080;stroke:#808080;" x="935.840355" xlink:href="#mfe35640d6d" y="554.04"/>
     <use style="fill:#808080;stroke:#808080;" x="937.819956" xlink:href="#mfe35640d6d" y="554.04"/>
     <use style="fill:#808080;stroke:#808080;" x="939.799557" xlink:href="#mfe35640d6d" y="554.04"/>
     <use style="fill:#808080;stroke:#808080;" x="941.779157" xlink:href="#mfe35640d6d" y="554.04"/>
     <use style="fill:#808080;stroke:#808080;" x="943.758758" xlink:href="#mfe35640d6d" y="525.69"/>
     <use style="fill:#808080;stroke:#808080;" x="945.738359" xlink:href="#mfe35640d6d" y="525.69"/>
     <use style="fill:#808080;stroke:#808080;" x="947.71796" xlink:href="#mfe35640d6d" y="539.865"/>
     <use style="fill:#808080;stroke:#808080;" x="949.697561" xlink:href="#mfe35640d6d" y="554.04"/>
     <use style="fill:#808080;stroke:#808080;" x="951.677162" xlink:href="#mfe35640d6d" y="554.04"/>
     <use style="fill:#808080;stroke:#808080;" x="953.656763" xlink:href="#mfe35640d6d" y="554.04"/>
     <use style="fill:#808080;stroke:#808080;" x="955.636364" xlink:href="#mfe35640d6d" y="525.69"/>
     <use style="fill:#808080;stroke:#808080;" x="957.615965" xlink:href="#mfe35640d6d" y="483.165"/>
     <use style="fill:#808080;stroke:#808080;" x="959.595565" xlink:href="#mfe35640d6d" y="539.865"/>
     <use style="fill:#808080;stroke:#808080;" x="961.575166" xlink:href="#mfe35640d6d" y="525.69"/>
     <use style="fill:#808080;stroke:#808080;" x="963.554767" xlink:href="#mfe35640d6d" y="554.04"/>
     <use style="fill:#808080;stroke:#808080;" x="965.534368" xlink:href="#mfe35640d6d" y="554.04"/>
     <use style="fill:#808080;stroke:#808080;" x="967.513969" xlink:href="#mfe35640d6d" y="539.865"/>
     <use style="fill:#808080;stroke:#808080;" x="969.49357" xlink:href="#mfe35640d6d" y="554.04"/>
     <use style="fill:#808080;stroke:#808080;" x="971.473171" xlink:href="#mfe35640d6d" y="539.865"/>
     <use style="fill:#808080;stroke:#808080;" x="973.452772" xlink:href="#mfe35640d6d" y="525.69"/>
     <use style="fill:#808080;stroke:#808080;" x="975.432373" xlink:href="#mfe35640d6d" y="539.865"/>
     <use style="fill:#808080;stroke:#808080;" x="977.411973" xlink:href="#mfe35640d6d" y="539.865"/>
     <use style="fill:#808080;stroke:#808080;" x="979.391574" xlink:href="#mfe35640d6d" y="539.865"/>
     <use style="fill:#808080;stroke:#808080;" x="981.371175" xlink:href="#mfe35640d6d" y="554.04"/>
     <use style="fill:#808080;stroke:#808080;" x="983.350776" xlink:href="#mfe35640d6d" y="483.165"/>
     <use style="fill:#808080;stroke:#808080;" x="985.330377" xlink:href="#mfe35640d6d" y="539.865"/>
     <use style="fill:#808080;stroke:#808080;" x="987.309978" xlink:href="#mfe35640d6d" y="525.69"/>
     <use style="fill:#808080;stroke:#808080;" x="989.289579" xlink:href="#mfe35640d6d" y="525.69"/>
     <use style="fill:#808080;stroke:#808080;" x="991.26918" xlink:href="#mfe35640d6d" y="539.865"/>
     <use style="fill:#808080;stroke:#808080;" x="993.24878" xlink:href="#mfe35640d6d" y="554.04"/>
     <use style="fill:#808080;stroke:#808080;" x="995.228381" xlink:href="#mfe35640d6d" y="539.865"/>
     <use style="fill:#808080;stroke:#808080;" x="997.207982" xlink:href="#mfe35640d6d" y="539.865"/>
     <use style="fill:#808080;stroke:#808080;" x="999.187583" xlink:href="#mfe35640d6d" y="539.865"/>
     <use style="fill:#808080;stroke:#808080;" x="1001.167184" xlink:href="#mfe35640d6d" y="554.04"/>
     <use style="fill:#808080;stroke:#808080;" x="1003.146785" xlink:href="#mfe35640d6d" y="539.865"/>
     <use style="fill:#808080;stroke:#808080;" x="1005.126386" xlink:href="#mfe35640d6d" y="511.515"/>
     <use style="fill:#808080;stroke:#808080;" x="1007.105987" xlink:href="#mfe35640d6d" y="554.04"/>
     <use style="fill:#808080;stroke:#808080;" x="1009.085588" xlink:href="#mfe35640d6d" y="554.04"/>
     <use style="fill:#808080;stroke:#808080;" x="1011.065188" xlink:href="#mfe35640d6d" y="554.04"/>
     <use style="fill:#808080;stroke:#808080;" x="1013.044789" xlink:href="#mfe35640d6d" y="497.34"/>
     <use style="fill:#808080;stroke:#808080;" x="1015.02439" xlink:href="#mfe35640d6d" y="511.515"/>
     <use style="fill:#808080;stroke:#808080;" x="1017.003991" xlink:href="#mfe35640d6d" y="554.04"/>
     <use style="fill:#808080;stroke:#808080;" x="1018.983592" xlink:href="#mfe35640d6d" y="511.515"/>
     <use style="fill:#808080;stroke:#808080;" x="1020.963193" xlink:href="#mfe35640d6d" y="539.865"/>
     <use style="fill:#808080;stroke:#808080;" x="1022.942794" xlink:href="#mfe35640d6d" y="554.04"/>
     <use style="fill:#808080;stroke:#808080;" x="1024.922395" xlink:href="#mfe35640d6d" y="525.69"/>
     <use style="fill:#808080;stroke:#808080;" x="1026.901996" xlink:href="#mfe35640d6d" y="539.865"/>
     <use style="fill:#808080;stroke:#808080;" x="1028.881596" xlink:href="#mfe35640d6d" y="454.815"/>
     <use style="fill:#808080;stroke:#808080;" x="1030.861197" xlink:href="#mfe35640d6d" y="511.515"/>
     <use style="fill:#808080;stroke:#808080;" x="1032.840798" xlink:href="#mfe35640d6d" y="497.34"/>
     <use style="fill:#808080;stroke:#808080;" x="1034.820399" xlink:href="#mfe35640d6d" y="539.865"/>
     <use style="fill:#808080;stroke:#808080;" x="1036.8" xlink:href="#mfe35640d6d" y="539.865"/>
    </g>
   </g>
   <g id="patch_3">
    <path d="M 144 576.72 
L 144 77.76 
" style="fill:none;stroke:#000000;stroke-linecap:square;stroke-linejoin:miter;stroke-width:0.8;"/>
   </g>
   <g id="patch_4">
    <path d="M 1036.8 576.72 
L 1036.8 77.76 
" style="fill:none;stroke:#000000;stroke-linecap:square;stroke-linejoin:miter;stroke-width:0.8;"/>
   </g>
   <g id="patch_5">
    <path d="M 144 576.72 
L 1036.8 576.72 
" style="fill:none;stroke:#000000;stroke-linecap:square;stroke-linejoin:miter;stroke-width:0.8;"/>
   </g>
   <g id="patch_6">
    <path d="M 144 77.76 
L 1036.8 77.76 
" style="fill:none;stroke:#000000;stroke-linecap:square;stroke-linejoin:miter;stroke-width:0.8;"/>
   </g>
   <g id="legend_1">
    <g id="patch_7">
     <path d="M 883.44375 159.150625 
L 1029.8 159.150625 
Q 1031.8 159.150625 1031.8 157.150625 
L 1031.8 84.76 
Q 1031.8 82.76 1029.8 82.76 
L 883.44375 82.76 
Q 881.44375 82.76 881.44375 84.76 
L 881.44375 157.150625 
Q 881.44375 159.150625 883.44375 159.150625 
z
" style="fill:#ffffff;opacity:0.8;stroke:#cccccc;stroke-linejoin:miter;"/>
    </g>
    <g id="line2d_26">
     <path d="M 885.44375 90.858438 
L 905.44375 90.858438 
" style="fill:none;stroke:#808080;stroke-dasharray:1.5,2.475;stroke-dashoffset:0;stroke-width:1.5;"/>
    </g>
    <g id="line2d_27">
     <g>
      <use style="fill:#808080;stroke:#808080;" x="895.44375" xlink:href="#mfe35640d6d" y="90.858438"/>
     </g>
    </g>
    <g id="text_14">
     <!-- Deaths -->
     <g transform="translate(913.44375 94.358438)scale(0.1 -0.1)">
      <defs>
       <path d="M 1259 4147 
L 1259 519 
L 2022 519 
Q 2988 519 3436 956 
Q 3884 1394 3884 2338 
Q 3884 3275 3436 3711 
Q 2988 4147 2022 4147 
L 1259 4147 
z
M 628 4666 
L 1925 4666 
Q 3281 4666 3915 4102 
Q 4550 3538 4550 2338 
Q 4550 1131 3912 565 
Q 3275 0 1925 0 
L 628 0 
L 628 4666 
z
" id="DejaVuSans-44" transform="scale(0.015625)"/>
       <path d="M 3597 1894 
L 3597 1613 
L 953 1613 
Q 991 1019 1311 708 
Q 1631 397 2203 397 
Q 2534 397 2845 478 
Q 3156 559 3463 722 
L 3463 178 
Q 3153 47 2828 -22 
Q 2503 -91 2169 -91 
Q 1331 -91 842 396 
Q 353 884 353 1716 
Q 353 2575 817 3079 
Q 1281 3584 2069 3584 
Q 2775 3584 3186 3129 
Q 3597 2675 3597 1894 
z
M 3022 2063 
Q 3016 2534 2758 2815 
Q 2500 3097 2075 3097 
Q 1594 3097 1305 2825 
Q 1016 2553 972 2059 
L 3022 2063 
z
" id="DejaVuSans-65" transform="scale(0.015625)"/>
       <path d="M 3513 2113 
L 3513 0 
L 2938 0 
L 2938 2094 
Q 2938 2591 2744 2837 
Q 2550 3084 2163 3084 
Q 1697 3084 1428 2787 
Q 1159 2491 1159 1978 
L 1159 0 
L 581 0 
L 581 4863 
L 1159 4863 
L 1159 2956 
Q 1366 3272 1645 3428 
Q 1925 3584 2291 3584 
Q 2894 3584 3203 3211 
Q 3513 2838 3513 2113 
z
" id="DejaVuSans-68" transform="scale(0.015625)"/>
       <path d="M 2834 3397 
L 2834 2853 
Q 2591 2978 2328 3040 
Q 2066 3103 1784 3103 
Q 1356 3103 1142 2972 
Q 928 2841 928 2578 
Q 928 2378 1081 2264 
Q 1234 2150 1697 2047 
L 1894 2003 
Q 2506 1872 2764 1633 
Q 3022 1394 3022 966 
Q 3022 478 2636 193 
Q 2250 -91 1575 -91 
Q 1294 -91 989 -36 
Q 684 19 347 128 
L 347 722 
Q 666 556 975 473 
Q 1284 391 1588 391 
Q 1994 391 2212 530 
Q 2431 669 2431 922 
Q 2431 1156 2273 1281 
Q 2116 1406 1581 1522 
L 1381 1569 
Q 847 1681 609 1914 
Q 372 2147 372 2553 
Q 372 3047 722 3315 
Q 1072 3584 1716 3584 
Q 2034 3584 2315 3537 
Q 2597 3491 2834 3397 
z
" id="DejaVuSans-73" transform="scale(0.015625)"/>
      </defs>
      <use xlink:href="#DejaVuSans-44"/>
      <use x="77.001953" xlink:href="#DejaVuSans-65"/>
      <use x="138.525391" xlink:href="#DejaVuSans-61"/>
      <use x="199.804688" xlink:href="#DejaVuSans-74"/>
      <use x="239.013672" xlink:href="#DejaVuSans-68"/>
      <use x="302.392578" xlink:href="#DejaVuSans-73"/>
     </g>
    </g>
    <g id="line2d_28">
     <path d="M 885.44375 105.536563 
L 905.44375 105.536563 
" style="fill:none;stroke:#1f77b4;stroke-linecap:square;stroke-width:1.5;"/>
    </g>
    <g id="line2d_29"/>
    <g id="text_15">
     <!-- ICU low care (right) -->
     <g transform="translate(913.44375 109.036563)scale(0.1 -0.1)">
      <defs>
       <path d="M 628 4666 
L 1259 4666 
L 1259 0 
L 628 0 
L 628 4666 
z
" id="DejaVuSans-49" transform="scale(0.015625)"/>
       <path d="M 4122 4306 
L 4122 3641 
Q 3803 3938 3442 4084 
Q 3081 4231 2675 4231 
Q 1875 4231 1450 3742 
Q 1025 3253 1025 2328 
Q 1025 1406 1450 917 
Q 1875 428 2675 428 
Q 3081 428 3442 575 
Q 3803 722 4122 1019 
L 4122 359 
Q 3791 134 3420 21 
Q 3050 -91 2638 -91 
Q 1578 -91 968 557 
Q 359 1206 359 2328 
Q 359 3453 968 4101 
Q 1578 4750 2638 4750 
Q 3056 4750 3426 4639 
Q 3797 4528 4122 4306 
z
" id="DejaVuSans-43" transform="scale(0.015625)"/>
       <path d="M 556 4666 
L 1191 4666 
L 1191 1831 
Q 1191 1081 1462 751 
Q 1734 422 2344 422 
Q 2950 422 3222 751 
Q 3494 1081 3494 1831 
L 3494 4666 
L 4128 4666 
L 4128 1753 
Q 4128 841 3676 375 
Q 3225 -91 2344 -91 
Q 1459 -91 1007 375 
Q 556 841 556 1753 
L 556 4666 
z
" id="DejaVuSans-55" transform="scale(0.015625)"/>
       <path id="DejaVuSans-20" transform="scale(0.015625)"/>
       <path d="M 1959 3097 
Q 1497 3097 1228 2736 
Q 959 2375 959 1747 
Q 959 1119 1226 758 
Q 1494 397 1959 397 
Q 2419 397 2687 759 
Q 2956 1122 2956 1747 
Q 2956 2369 2687 2733 
Q 2419 3097 1959 3097 
z
M 1959 3584 
Q 2709 3584 3137 3096 
Q 3566 2609 3566 1747 
Q 3566 888 3137 398 
Q 2709 -91 1959 -91 
Q 1206 -91 779 398 
Q 353 888 353 1747 
Q 353 2609 779 3096 
Q 1206 3584 1959 3584 
z
" id="DejaVuSans-6f" transform="scale(0.015625)"/>
       <path d="M 269 3500 
L 844 3500 
L 1563 769 
L 2278 3500 
L 2956 3500 
L 3675 769 
L 4391 3500 
L 4966 3500 
L 4050 0 
L 3372 0 
L 2619 2869 
L 1863 0 
L 1184 0 
L 269 3500 
z
" id="DejaVuSans-77" transform="scale(0.015625)"/>
       <path d="M 1984 4856 
Q 1566 4138 1362 3434 
Q 1159 2731 1159 2009 
Q 1159 1288 1364 580 
Q 1569 -128 1984 -844 
L 1484 -844 
Q 1016 -109 783 600 
Q 550 1309 550 2009 
Q 550 2706 781 3412 
Q 1013 4119 1484 4856 
L 1984 4856 
z
" id="DejaVuSans-28" transform="scale(0.015625)"/>
       <path d="M 603 3500 
L 1178 3500 
L 1178 0 
L 603 0 
L 603 3500 
z
M 603 4863 
L 1178 4863 
L 1178 4134 
L 603 4134 
L 603 4863 
z
" id="DejaVuSans-69" transform="scale(0.015625)"/>
       <path d="M 2906 1791 
Q 2906 2416 2648 2759 
Q 2391 3103 1925 3103 
Q 1463 3103 1205 2759 
Q 947 2416 947 1791 
Q 947 1169 1205 825 
Q 1463 481 1925 481 
Q 2391 481 2648 825 
Q 2906 1169 2906 1791 
z
M 3481 434 
Q 3481 -459 3084 -895 
Q 2688 -1331 1869 -1331 
Q 1566 -1331 1297 -1286 
Q 1028 -1241 775 -1147 
L 775 -588 
Q 1028 -725 1275 -790 
Q 1522 -856 1778 -856 
Q 2344 -856 2625 -561 
Q 2906 -266 2906 331 
L 2906 616 
Q 2728 306 2450 153 
Q 2172 0 1784 0 
Q 1141 0 747 490 
Q 353 981 353 1791 
Q 353 2603 747 3093 
Q 1141 3584 1784 3584 
Q 2172 3584 2450 3431 
Q 2728 3278 2906 2969 
L 2906 3500 
L 3481 3500 
L 3481 434 
z
" id="DejaVuSans-67" transform="scale(0.015625)"/>
       <path d="M 513 4856 
L 1013 4856 
Q 1481 4119 1714 3412 
Q 1947 2706 1947 2009 
Q 1947 1309 1714 600 
Q 1481 -109 1013 -844 
L 513 -844 
Q 928 -128 1133 580 
Q 1338 1288 1338 2009 
Q 1338 2731 1133 3434 
Q 928 4138 513 4856 
z
" id="DejaVuSans-29" transform="scale(0.015625)"/>
      </defs>
      <use xlink:href="#DejaVuSans-49"/>
      <use x="29.492188" xlink:href="#DejaVuSans-43"/>
      <use x="99.316406" xlink:href="#DejaVuSans-55"/>
      <use x="172.509766" xlink:href="#DejaVuSans-20"/>
      <use x="204.296875" xlink:href="#DejaVuSans-6c"/>
      <use x="232.080078" xlink:href="#DejaVuSans-6f"/>
      <use x="293.261719" xlink:href="#DejaVuSans-77"/>
      <use x="375.048828" xlink:href="#DejaVuSans-20"/>
      <use x="406.835938" xlink:href="#DejaVuSans-63"/>
      <use x="461.816406" xlink:href="#DejaVuSans-61"/>
      <use x="523.095703" xlink:href="#DejaVuSans-72"/>
      <use x="561.958984" xlink:href="#DejaVuSans-65"/>
      <use x="623.482422" xlink:href="#DejaVuSans-20"/>
      <use x="655.269531" xlink:href="#DejaVuSans-28"/>
      <use x="694.283203" xlink:href="#DejaVuSans-72"/>
      <use x="735.396484" xlink:href="#DejaVuSans-69"/>
      <use x="763.179688" xlink:href="#DejaVuSans-67"/>
      <use x="826.65625" xlink:href="#DejaVuSans-68"/>
      <use x="890.035156" xlink:href="#DejaVuSans-74"/>
      <use x="929.244141" xlink:href="#DejaVuSans-29"/>
     </g>
    </g>
    <g id="line2d_30">
     <path d="M 885.44375 120.214688 
L 905.44375 120.214688 
" style="fill:none;stroke:#ff7f0e;stroke-linecap:square;stroke-width:1.5;"/>
    </g>
    <g id="line2d_31"/>
    <g id="text_16">
     <!-- ICU high care (right) -->
     <g transform="translate(913.44375 123.714688)scale(0.1 -0.1)">
      <use xlink:href="#DejaVuSans-49"/>
      <use x="29.492188" xlink:href="#DejaVuSans-43"/>
      <use x="99.316406" xlink:href="#DejaVuSans-55"/>
      <use x="172.509766" xlink:href="#DejaVuSans-20"/>
      <use x="204.296875" xlink:href="#DejaVuSans-68"/>
      <use x="267.675781" xlink:href="#DejaVuSans-69"/>
      <use x="295.458984" xlink:href="#DejaVuSans-67"/>
      <use x="358.935547" xlink:href="#DejaVuSans-68"/>
      <use x="422.314453" xlink:href="#DejaVuSans-20"/>
      <use x="454.101562" xlink:href="#DejaVuSans-63"/>
      <use x="509.082031" xlink:href="#DejaVuSans-61"/>
      <use x="570.361328" xlink:href="#DejaVuSans-72"/>
      <use x="609.224609" xlink:href="#DejaVuSans-65"/>
      <use x="670.748047" xlink:href="#DejaVuSans-20"/>
      <use x="702.535156" xlink:href="#DejaVuSans-28"/>
      <use x="741.548828" xlink:href="#DejaVuSans-72"/>
      <use x="782.662109" xlink:href="#DejaVuSans-69"/>
      <use x="810.445312" xlink:href="#DejaVuSans-67"/>
      <use x="873.921875" xlink:href="#DejaVuSans-68"/>
      <use x="937.300781" xlink:href="#DejaVuSans-74"/>
      <use x="976.509766" xlink:href="#DejaVuSans-29"/>
     </g>
    </g>
    <g id="line2d_32">
     <path d="M 885.44375 134.892813 
L 905.44375 134.892813 
" style="fill:none;stroke:#2ca02c;stroke-linecap:square;stroke-width:1.5;"/>
    </g>
    <g id="line2d_33"/>
    <g id="text_17">
     <!-- ECMO (right) -->
     <g transform="translate(913.44375 138.392813)scale(0.1 -0.1)">
      <defs>
       <path d="M 628 4666 
L 3578 4666 
L 3578 4134 
L 1259 4134 
L 1259 2753 
L 3481 2753 
L 3481 2222 
L 1259 2222 
L 1259 531 
L 3634 531 
L 3634 0 
L 628 0 
L 628 4666 
z
" id="DejaVuSans-45" transform="scale(0.015625)"/>
       <path d="M 628 4666 
L 1569 4666 
L 2759 1491 
L 3956 4666 
L 4897 4666 
L 4897 0 
L 4281 0 
L 4281 4097 
L 3078 897 
L 2444 897 
L 1241 4097 
L 1241 0 
L 628 0 
L 628 4666 
z
" id="DejaVuSans-4d" transform="scale(0.015625)"/>
      </defs>
      <use xlink:href="#DejaVuSans-45"/>
      <use x="63.183594" xlink:href="#DejaVuSans-43"/>
      <use x="133.007812" xlink:href="#DejaVuSans-4d"/>
      <use x="219.287109" xlink:href="#DejaVuSans-4f"/>
      <use x="297.998047" xlink:href="#DejaVuSans-20"/>
      <use x="329.785156" xlink:href="#DejaVuSans-28"/>
      <use x="368.798828" xlink:href="#DejaVuSans-72"/>
      <use x="409.912109" xlink:href="#DejaVuSans-69"/>
      <use x="437.695312" xlink:href="#DejaVuSans-67"/>
      <use x="501.171875" xlink:href="#DejaVuSans-68"/>
      <use x="564.550781" xlink:href="#DejaVuSans-74"/>
      <use x="603.759766" xlink:href="#DejaVuSans-29"/>
     </g>
    </g>
    <g id="line2d_34">
     <path d="M 885.44375 149.570938 
L 905.44375 149.570938 
" style="fill:none;stroke:#d62728;stroke-linecap:square;stroke-width:1.5;"/>
    </g>
    <g id="line2d_35"/>
    <g id="text_18">
     <!-- COVID-19 cases (right) -->
     <g transform="translate(913.44375 153.070938)scale(0.1 -0.1)">
      <defs>
       <path d="M 1831 0 
L 50 4666 
L 709 4666 
L 2188 738 
L 3669 4666 
L 4325 4666 
L 2547 0 
L 1831 0 
z
" id="DejaVuSans-56" transform="scale(0.015625)"/>
       <path d="M 313 2009 
L 1997 2009 
L 1997 1497 
L 313 1497 
L 313 2009 
z
" id="DejaVuSans-2d" transform="scale(0.015625)"/>
       <path d="M 703 97 
L 703 672 
Q 941 559 1184 500 
Q 1428 441 1663 441 
Q 2288 441 2617 861 
Q 2947 1281 2994 2138 
Q 2813 1869 2534 1725 
Q 2256 1581 1919 1581 
Q 1219 1581 811 2004 
Q 403 2428 403 3163 
Q 403 3881 828 4315 
Q 1253 4750 1959 4750 
Q 2769 4750 3195 4129 
Q 3622 3509 3622 2328 
Q 3622 1225 3098 567 
Q 2575 -91 1691 -91 
Q 1453 -91 1209 -44 
Q 966 3 703 97 
z
M 1959 2075 
Q 2384 2075 2632 2365 
Q 2881 2656 2881 3163 
Q 2881 3666 2632 3958 
Q 2384 4250 1959 4250 
Q 1534 4250 1286 3958 
Q 1038 3666 1038 3163 
Q 1038 2656 1286 2365 
Q 1534 2075 1959 2075 
z
" id="DejaVuSans-39" transform="scale(0.015625)"/>
      </defs>
      <use xlink:href="#DejaVuSans-43"/>
      <use x="69.824219" xlink:href="#DejaVuSans-4f"/>
      <use x="146.785156" xlink:href="#DejaVuSans-56"/>
      <use x="215.193359" xlink:href="#DejaVuSans-49"/>
      <use x="244.685547" xlink:href="#DejaVuSans-44"/>
      <use x="321.6875" xlink:href="#DejaVuSans-2d"/>
      <use x="357.771484" xlink:href="#DejaVuSans-31"/>
      <use x="421.394531" xlink:href="#DejaVuSans-39"/>
      <use x="485.017578" xlink:href="#DejaVuSans-20"/>
      <use x="516.804688" xlink:href="#DejaVuSans-63"/>
      <use x="571.785156" xlink:href="#DejaVuSans-61"/>
      <use x="633.064453" xlink:href="#DejaVuSans-73"/>
      <use x="685.164062" xlink:href="#DejaVuSans-65"/>
      <use x="746.6875" xlink:href="#DejaVuSans-73"/>
      <use x="798.787109" xlink:href="#DejaVuSans-20"/>
      <use x="830.574219" xlink:href="#DejaVuSans-28"/>
      <use x="869.587891" xlink:href="#DejaVuSans-72"/>
      <use x="910.701172" xlink:href="#DejaVuSans-69"/>
      <use x="938.484375" xlink:href="#DejaVuSans-67"/>
      <use x="1001.960938" xlink:href="#DejaVuSans-68"/>
      <use x="1065.339844" xlink:href="#DejaVuSans-74"/>
      <use x="1104.548828" xlink:href="#DejaVuSans-29"/>
     </g>
    </g>
   </g>
  </g>
  <g id="axes_2">
   <g id="matplotlib.axis_3">
    <g id="ytick_8">
     <g id="line2d_36">
      <defs>
       <path d="M 0 0 
L 3.5 0 
" id="m6991e5dd3e" style="stroke:#000000;stroke-width:0.8;"/>
      </defs>
      <g>
       <use style="stroke:#000000;stroke-width:0.8;" x="1036.8" xlink:href="#m6991e5dd3e" y="576.72"/>
      </g>
     </g>
     <g id="text_19">
      <!-- available -->
      <g transform="translate(1043.8 580.519219)scale(0.1 -0.1)">
       <defs>
        <path d="M 191 3500 
L 800 3500 
L 1894 563 
L 2988 3500 
L 3597 3500 
L 2284 0 
L 1503 0 
L 191 3500 
z
" id="DejaVuSans-76" transform="scale(0.015625)"/>
        <path d="M 3116 1747 
Q 3116 2381 2855 2742 
Q 2594 3103 2138 3103 
Q 1681 3103 1420 2742 
Q 1159 2381 1159 1747 
Q 1159 1113 1420 752 
Q 1681 391 2138 391 
Q 2594 391 2855 752 
Q 3116 1113 3116 1747 
z
M 1159 2969 
Q 1341 3281 1617 3432 
Q 1894 3584 2278 3584 
Q 2916 3584 3314 3078 
Q 3713 2572 3713 1747 
Q 3713 922 3314 415 
Q 2916 -91 2278 -91 
Q 1894 -91 1617 61 
Q 1341 213 1159 525 
L 1159 0 
L 581 0 
L 581 4863 
L 1159 4863 
L 1159 2969 
z
" id="DejaVuSans-62" transform="scale(0.015625)"/>
       </defs>
       <use xlink:href="#DejaVuSans-61"/>
       <use x="61.279297" xlink:href="#DejaVuSans-76"/>
       <use x="120.458984" xlink:href="#DejaVuSans-61"/>
       <use x="181.738281" xlink:href="#DejaVuSans-69"/>
       <use x="209.521484" xlink:href="#DejaVuSans-6c"/>
       <use x="237.304688" xlink:href="#DejaVuSans-61"/>
       <use x="298.583984" xlink:href="#DejaVuSans-62"/>
       <use x="362.060547" xlink:href="#DejaVuSans-6c"/>
       <use x="389.84375" xlink:href="#DejaVuSans-65"/>
      </g>
     </g>
    </g>
    <g id="ytick_9">
     <g id="line2d_37">
      <g>
       <use style="stroke:#000000;stroke-width:0.8;" x="1036.8" xlink:href="#m6991e5dd3e" y="327.24"/>
      </g>
     </g>
     <g id="text_20">
      <!-- limited -->
      <g transform="translate(1043.8 331.039219)scale(0.1 -0.1)">
       <defs>
        <path d="M 3328 2828 
Q 3544 3216 3844 3400 
Q 4144 3584 4550 3584 
Q 5097 3584 5394 3201 
Q 5691 2819 5691 2113 
L 5691 0 
L 5113 0 
L 5113 2094 
Q 5113 2597 4934 2840 
Q 4756 3084 4391 3084 
Q 3944 3084 3684 2787 
Q 3425 2491 3425 1978 
L 3425 0 
L 2847 0 
L 2847 2094 
Q 2847 2600 2669 2842 
Q 2491 3084 2119 3084 
Q 1678 3084 1418 2786 
Q 1159 2488 1159 1978 
L 1159 0 
L 581 0 
L 581 3500 
L 1159 3500 
L 1159 2956 
Q 1356 3278 1631 3431 
Q 1906 3584 2284 3584 
Q 2666 3584 2933 3390 
Q 3200 3197 3328 2828 
z
" id="DejaVuSans-6d" transform="scale(0.015625)"/>
       </defs>
       <use xlink:href="#DejaVuSans-6c"/>
       <use x="27.783203" xlink:href="#DejaVuSans-69"/>
       <use x="55.566406" xlink:href="#DejaVuSans-6d"/>
       <use x="152.978516" xlink:href="#DejaVuSans-69"/>
       <use x="180.761719" xlink:href="#DejaVuSans-74"/>
       <use x="219.970703" xlink:href="#DejaVuSans-65"/>
       <use x="281.494141" xlink:href="#DejaVuSans-64"/>
      </g>
     </g>
    </g>
    <g id="ytick_10">
     <g id="line2d_38">
      <g>
       <use style="stroke:#000000;stroke-width:0.8;" x="1036.8" xlink:href="#m6991e5dd3e" y="77.76"/>
      </g>
     </g>
     <g id="text_21">
      <!-- unavailable -->
      <g transform="translate(1043.8 81.559219)scale(0.1 -0.1)">
       <use xlink:href="#DejaVuSans-75"/>
       <use x="63.378906" xlink:href="#DejaVuSans-6e"/>
       <use x="126.757812" xlink:href="#DejaVuSans-61"/>
       <use x="188.037109" xlink:href="#DejaVuSans-76"/>
       <use x="247.216797" xlink:href="#DejaVuSans-61"/>
       <use x="308.496094" xlink:href="#DejaVuSans-69"/>
       <use x="336.279297" xlink:href="#DejaVuSans-6c"/>
       <use x="364.0625" xlink:href="#DejaVuSans-61"/>
       <use x="425.341797" xlink:href="#DejaVuSans-62"/>
       <use x="488.818359" xlink:href="#DejaVuSans-6c"/>
       <use x="516.601562" xlink:href="#DejaVuSans-65"/>
      </g>
     </g>
    </g>
   </g>
   <g id="line2d_39">
    <path clip-path="url(#pccaf585977)" d="M 621.083814 222.195789 
L 623.063415 257.835789 
L 625.043016 261.587368 
L 627.022616 252.833684 
L 629.002217 209.065263 
L 632.961419 235.326316 
L 634.94102 222.195789 
L 636.920621 195.934737 
L 638.900222 176.238947 
L 640.879823 169.673684 
L 642.859424 156.543158 
L 644.839024 156.543158 
L 646.818625 169.673684 
L 648.798226 195.934737 
L 650.777827 182.804211 
L 652.757428 176.238947 
L 654.737029 182.804211 
L 656.71663 195.934737 
L 660.675831 169.673684 
L 666.614634 169.673684 
L 670.573836 195.934737 
L 678.492239 195.934737 
L 680.47184 182.804211 
L 686.410643 182.804211 
L 688.390244 209.065263 
L 690.369845 182.804211 
L 692.349446 209.065263 
L 694.329047 209.065263 
L 696.308647 235.326316 
L 698.288248 235.326316 
L 700.267849 209.065263 
L 702.24745 248.456842 
L 704.227051 235.326316 
L 706.206652 248.456842 
L 708.186253 235.326316 
L 710.165854 261.587368 
L 712.145455 235.326316 
L 718.084257 235.326316 
L 720.063858 261.587368 
L 722.043459 261.587368 
L 724.02306 247.263158 
L 726.002661 235.326316 
L 727.982262 261.587368 
L 731.941463 261.587368 
L 733.921064 235.326316 
L 735.900665 235.326316 
L 737.880266 244.08 
L 741.839468 244.08 
L 743.819069 230.22 
L 745.79867 271.8 
L 747.778271 285.66 
L 749.757871 244.08 
L 751.737472 271.8 
L 753.717073 285.66 
L 755.696674 257.94 
L 757.676275 271.8 
L 759.655876 257.94 
L 761.635477 271.8 
L 765.594678 271.8 
L 767.574279 230.22 
L 769.55388 216.36 
L 771.533481 244.08 
L 773.513082 230.22 
L 775.492683 202.5 
L 777.472284 271.8 
L 779.451885 285.66 
L 781.431486 244.08 
L 783.411086 271.8 
L 785.390687 285.66 
L 787.370288 285.66 
L 789.349889 299.52 
L 791.32949 257.94 
L 793.309091 285.66 
L 795.288692 244.08 
L 797.268293 257.94 
L 799.247894 257.94 
L 801.227494 230.22 
L 803.207095 271.8 
L 805.186696 271.8 
L 813.1051 327.24 
L 815.084701 299.52 
L 817.064302 244.08 
L 819.043902 271.8 
L 821.023503 313.38 
L 823.003104 299.52 
L 824.982705 299.52 
L 828.941907 271.8 
L 830.921508 313.38 
L 832.901109 313.38 
L 834.88071 271.8 
L 836.86031 313.38 
L 838.839911 285.66 
L 842.799113 257.94 
L 844.778714 253.863529 
L 846.758315 268.538824 
L 848.737916 253.863529 
L 850.717517 253.863529 
L 856.656319 209.837647 
L 858.63592 224.512941 
L 860.615521 209.837647 
L 862.595122 180.487059 
L 864.574723 195.162353 
L 866.554324 165.811765 
L 868.533925 165.811765 
L 870.513525 151.136471 
L 872.493126 209.837647 
L 874.472727 224.512941 
L 876.452328 224.512941 
L 878.431929 268.538824 
L 880.41153 209.837647 
L 882.391131 209.837647 
L 886.350333 239.188235 
L 888.329933 195.162353 
L 890.309534 165.811765 
L 892.289135 209.837647 
L 894.268736 239.188235 
L 896.248337 224.512941 
L 898.227938 239.188235 
L 900.207539 209.837647 
L 904.166741 209.837647 
L 906.146341 224.512941 
L 910.105543 224.512941 
L 912.085144 239.188235 
M 949.697561 209.837647 
L 951.677162 209.837647 
L 953.656763 224.512941 
L 955.636364 195.162353 
L 957.615965 268.538824 
L 959.595565 253.863529 
L 961.575166 283.214118 
L 963.554767 283.214118 
M 977.411973 239.188235 
L 979.391574 239.188235 
L 981.371175 253.863529 
L 983.350776 224.512941 
L 985.330377 268.538824 
L 987.309978 239.188235 
L 991.26918 268.538824 
L 993.24878 258.755294 
L 995.228381 246.525882 
L 997.207982 239.188235 
L 999.187583 253.863529 
L 1001.167184 253.863529 
L 1003.146785 246.525882 
L 1005.126386 283.214118 
L 1007.105987 239.188235 
L 1009.085588 273.430588 
L 1011.065188 253.863529 
L 1013.044789 268.538824 
L 1015.02439 268.538824 
L 1017.003991 301.558235 
L 1018.983592 297.889412 
L 1020.963193 312.564706 
M 1028.881596 209.837647 
L 1030.861197 202.5 
L 1032.840798 209.837647 
L 1034.820399 209.837647 
L 1036.8 195.162353 
L 1036.8 195.162353 
" style="fill:none;stroke:#1f77b4;stroke-linecap:square;stroke-width:1.5;"/>
   </g>
   <g id="line2d_40">
    <path clip-path="url(#pccaf585977)" d="M 621.083814 182.804211 
L 625.043016 182.804211 
L 627.022616 174.050526 
L 629.002217 143.412632 
L 630.981818 169.673684 
L 640.879823 169.673684 
L 644.839024 143.412632 
L 646.818625 156.543158 
L 648.798226 195.934737 
L 650.777827 209.065263 
L 652.757428 195.934737 
L 654.737029 235.326316 
L 656.71663 248.456842 
L 660.675831 222.195789 
L 662.655432 195.934737 
L 668.594235 195.934737 
L 670.573836 209.065263 
L 672.553437 195.934737 
L 674.533038 195.934737 
L 676.512639 182.804211 
L 678.492239 182.804211 
L 680.47184 169.673684 
L 684.431042 169.673684 
L 688.390244 222.195789 
L 690.369845 209.065263 
L 692.349446 235.326316 
L 694.329047 213.442105 
L 696.308647 235.326316 
L 698.288248 235.326316 
L 700.267849 209.065263 
L 702.24745 248.456842 
L 704.227051 235.326316 
L 706.206652 274.717895 
L 708.186253 261.587368 
L 710.165854 287.848421 
L 712.145455 261.587368 
L 718.084257 261.587368 
L 720.063858 340.370526 
L 722.043459 314.109474 
L 724.02306 272.330526 
L 726.002661 235.326316 
L 727.982262 261.587368 
L 729.961863 261.587368 
L 731.941463 274.717895 
L 733.921064 261.587368 
L 735.900665 261.587368 
L 737.880266 271.8 
L 739.859867 285.66 
L 741.839468 257.94 
L 743.819069 257.94 
L 745.79867 299.52 
L 747.778271 299.52 
L 749.757871 271.8 
L 753.717073 327.24 
L 755.696674 285.66 
L 757.676275 285.66 
L 759.655876 271.8 
L 761.635477 285.66 
L 765.594678 285.66 
L 767.574279 244.08 
L 769.55388 230.22 
L 771.533481 257.94 
L 775.492683 230.22 
L 779.451885 257.94 
L 781.431486 244.08 
L 783.411086 271.8 
L 785.390687 285.66 
L 787.370288 285.66 
L 789.349889 299.52 
L 791.32949 244.08 
L 793.309091 285.66 
L 795.288692 271.8 
L 799.247894 299.52 
L 801.227494 257.94 
L 803.207095 271.8 
L 805.186696 313.38 
L 807.166297 299.52 
L 813.1051 341.1 
L 815.084701 313.38 
L 817.064302 299.52 
L 819.043902 327.24 
L 821.023503 313.38 
L 824.982705 313.38 
L 826.962306 299.52 
L 828.941907 313.38 
L 830.921508 313.38 
L 832.901109 327.24 
L 834.88071 285.66 
L 836.86031 313.38 
L 838.839911 313.38 
L 840.819512 299.52 
L 842.799113 271.8 
L 844.778714 268.538824 
L 846.758315 283.214118 
L 848.737916 268.538824 
L 850.717517 268.538824 
L 852.697118 253.863529 
L 856.656319 253.863529 
L 860.615521 224.512941 
L 862.595122 180.487059 
L 864.574723 195.162353 
L 866.554324 180.487059 
L 868.533925 180.487059 
L 870.513525 165.811765 
L 872.493126 224.512941 
L 876.452328 224.512941 
L 878.431929 253.863529 
L 880.41153 209.837647 
L 882.391131 224.512941 
L 884.370732 224.512941 
L 886.350333 239.188235 
L 888.329933 224.512941 
L 890.309534 180.487059 
L 894.268736 239.188235 
L 896.248337 224.512941 
L 898.227938 239.188235 
L 902.18714 209.837647 
L 904.166741 209.837647 
L 906.146341 239.188235 
L 912.085144 239.188235 
M 949.697561 253.863529 
L 951.677162 239.188235 
L 953.656763 253.863529 
L 955.636364 239.188235 
L 957.615965 283.214118 
L 959.595565 283.214118 
L 961.575166 312.564706 
L 963.554767 312.564706 
M 977.411973 268.538824 
L 981.371175 268.538824 
L 983.350776 253.863529 
L 985.330377 297.889412 
L 987.309978 297.889412 
L 989.289579 312.564706 
L 991.26918 312.564706 
L 993.24878 302.781176 
L 995.228381 275.876471 
L 997.207982 283.214118 
L 999.187583 297.889412 
L 1001.167184 297.889412 
L 1003.146785 290.551765 
L 1005.126386 327.24 
L 1007.105987 283.214118 
L 1009.085588 302.781176 
L 1011.065188 297.889412 
L 1013.044789 312.564706 
L 1015.02439 312.564706 
L 1017.003991 327.24 
L 1020.963193 297.889412 
M 1028.881596 239.188235 
L 1030.861197 231.850588 
L 1032.840798 253.863529 
L 1034.820399 253.863529 
L 1036.8 239.188235 
L 1036.8 239.188235 
" style="fill:none;stroke:#ff7f0e;stroke-linecap:square;stroke-width:1.5;"/>
   </g>
   <g id="line2d_41">
    <path clip-path="url(#pccaf585977)" d="M 621.083814 130.282105 
L 627.022616 130.282105 
L 629.002217 169.673684 
L 646.818625 169.673684 
L 648.798226 117.151579 
L 664.635033 117.151579 
L 666.614634 248.456842 
L 668.594235 117.151579 
L 672.553437 117.151579 
L 674.533038 143.412632 
L 676.512639 143.412632 
L 678.492239 117.151579 
L 686.410643 117.151579 
L 688.390244 248.456842 
L 690.369845 248.456842 
L 692.349446 300.978947 
L 696.308647 300.978947 
L 698.288248 314.109474 
L 700.267849 156.543158 
L 702.24745 156.543158 
L 704.227051 314.109474 
L 706.206652 300.978947 
L 710.165854 300.978947 
L 712.145455 248.456842 
L 718.084257 248.456842 
L 720.063858 169.673684 
L 735.900665 169.673684 
L 737.880266 174.78 
L 739.859867 174.78 
L 743.819069 119.34 
L 763.615078 119.34 
L 765.594678 174.78 
L 767.574279 174.78 
L 769.55388 230.22 
L 777.472284 230.22 
L 779.451885 285.66 
L 781.431486 299.52 
L 803.207095 299.52 
L 805.186696 271.8 
L 809.145898 271.8 
L 811.125499 244.08 
L 815.084701 244.08 
L 817.064302 299.52 
L 824.982705 299.52 
L 826.962306 424.26 
L 832.901109 424.26 
L 834.88071 368.82 
L 838.839911 368.82 
L 840.819512 396.54 
L 842.799113 396.54 
L 844.778714 415.291765 
L 850.717517 415.291765 
L 852.697118 297.889412 
L 858.63592 297.889412 
L 860.615521 415.291765 
L 862.595122 415.291765 
L 864.574723 356.590588 
L 874.472727 356.590588 
L 876.452328 239.188235 
L 894.268736 239.188235 
L 896.248337 327.24 
L 898.227938 283.214118 
L 900.207539 283.214118 
L 902.18714 268.538824 
L 904.166741 297.889412 
L 906.146341 180.487059 
L 912.085144 180.487059 
M 949.697561 444.642353 
L 953.656763 444.642353 
L 955.636364 327.24 
L 959.595565 327.24 
L 961.575166 393.278824 
L 963.554767 371.265882 
M 977.411973 488.668235 
L 979.391574 488.668235 
L 981.371175 327.24 
L 989.289579 327.24 
L 991.26918 415.291765 
L 1009.085588 415.291765 
L 1013.044789 297.889412 
L 1015.02439 297.889412 
L 1017.003991 253.863529 
L 1018.983592 297.889412 
L 1020.963193 297.889412 
M 1028.881596 297.889412 
L 1030.861197 268.538824 
L 1032.840798 268.538824 
L 1036.8 385.941176 
L 1036.8 385.941176 
" style="fill:none;stroke:#2ca02c;stroke-linecap:square;stroke-width:1.5;"/>
   </g>
   <g id="line2d_42">
    <path clip-path="url(#pccaf585977)" d="M 0 0 
" style="fill:none;stroke:#d62728;stroke-linecap:square;stroke-width:1.5;"/>
   </g>
   <g id="patch_8">
    <path d="M 144 576.72 
L 144 77.76 
" style="fill:none;stroke:#000000;stroke-linecap:square;stroke-linejoin:miter;stroke-width:0.8;"/>
   </g>
   <g id="patch_9">
    <path d="M 1036.8 576.72 
L 1036.8 77.76 
" style="fill:none;stroke:#000000;stroke-linecap:square;stroke-linejoin:miter;stroke-width:0.8;"/>
   </g>
   <g id="patch_10">
    <path d="M 144 576.72 
L 1036.8 576.72 
" style="fill:none;stroke:#000000;stroke-linecap:square;stroke-linejoin:miter;stroke-width:0.8;"/>
   </g>
   <g id="patch_11">
    <path d="M 144 77.76 
L 1036.8 77.76 
" style="fill:none;stroke:#000000;stroke-linecap:square;stroke-linejoin:miter;stroke-width:0.8;"/>
   </g>
   <g id="text_22">
    <!-- Saarland -->
    <g transform="translate(563.815313 71.76)scale(0.12 -0.12)">
     <use xlink:href="#DejaVuSans-53"/>
     <use x="63.476562" xlink:href="#DejaVuSans-61"/>
     <use x="124.755859" xlink:href="#DejaVuSans-61"/>
     <use x="186.035156" xlink:href="#DejaVuSans-72"/>
     <use x="227.148438" xlink:href="#DejaVuSans-6c"/>
     <use x="254.931641" xlink:href="#DejaVuSans-61"/>
     <use x="316.210938" xlink:href="#DejaVuSans-6e"/>
     <use x="379.589844" xlink:href="#DejaVuSans-64"/>
    </g>
   </g>
  </g>
 </g>
 <defs>
  <clipPath id="pccaf585977">
   <rect height="498.96" width="892.8" x="144" y="77.76"/>
  </clipPath>
 </defs>
</svg>
