<?xml version="1.0" encoding="utf-8" standalone="no"?>
<!DOCTYPE svg PUBLIC "-//W3C//DTD SVG 1.1//EN"
  "http://www.w3.org/Graphics/SVG/1.1/DTD/svg11.dtd">
<svg height="648pt" version="1.1" viewBox="0 0 1152 648" width="1152pt" xmlns="http://www.w3.org/2000/svg" xmlns:xlink="http://www.w3.org/1999/xlink">
 <metadata>
  <rdf:RDF xmlns:cc="http://creativecommons.org/ns#" xmlns:dc="http://purl.org/dc/elements/1.1/" xmlns:rdf="http://www.w3.org/1999/02/22-rdf-syntax-ns#">
   <cc:Work>
    <dc:type rdf:resource="http://purl.org/dc/dcmitype/StillImage"/>
    <dc:date>2021-05-21T13:03:54.822225</dc:date>
    <dc:format>image/svg+xml</dc:format>
    <dc:creator>
     <cc:Agent>
      <dc:title>Matplotlib v3.4.2, https://matplotlib.org/</dc:title>
     </cc:Agent>
    </dc:creator>
   </cc:Work>
  </rdf:RDF>
 </metadata>
 <defs>
  <style type="text/css">*{stroke-linecap:butt;stroke-linejoin:round;}</style>
 </defs>
 <g id="figure_1">
  <g id="patch_1">
   <path d="M 0 648 
L 1152 648 
L 1152 0 
L 0 0 
z
" style="fill:#ffffff;"/>
  </g>
  <g id="axes_1">
   <g id="patch_2">
    <path d="M 144 576.72 
L 1036.8 576.72 
L 1036.8 77.76 
L 144 77.76 
z
" style="fill:#ffffff;"/>
   </g>
   <g id="matplotlib.axis_1">
    <g id="xtick_1">
     <g id="line2d_1">
      <defs>
       <path d="M 0 0 
L 0 3.5 
" id="m0c731a60bd" style="stroke:#000000;stroke-width:0.8;"/>
      </defs>
      <g>
       <use style="stroke:#000000;stroke-width:0.8;" x="144" xlink:href="#m0c731a60bd" y="576.72"/>
      </g>
     </g>
    </g>
    <g id="xtick_2">
     <g id="line2d_2">
      <g>
       <use style="stroke:#000000;stroke-width:0.8;" x="209.764286" xlink:href="#m0c731a60bd" y="576.72"/>
      </g>
     </g>
     <g id="text_1">
      <!-- Apr -->
      <g transform="translate(201.114286 591.318438)scale(0.1 -0.1)">
       <defs>
        <path d="M 2188 4044 
L 1331 1722 
L 3047 1722 
L 2188 4044 
z
M 1831 4666 
L 2547 4666 
L 4325 0 
L 3669 0 
L 3244 1197 
L 1141 1197 
L 716 0 
L 50 0 
L 1831 4666 
z
" id="DejaVuSans-41" transform="scale(0.015625)"/>
        <path d="M 1159 525 
L 1159 -1331 
L 581 -1331 
L 581 3500 
L 1159 3500 
L 1159 2969 
Q 1341 3281 1617 3432 
Q 1894 3584 2278 3584 
Q 2916 3584 3314 3078 
Q 3713 2572 3713 1747 
Q 3713 922 3314 415 
Q 2916 -91 2278 -91 
Q 1894 -91 1617 61 
Q 1341 213 1159 525 
z
M 3116 1747 
Q 3116 2381 2855 2742 
Q 2594 3103 2138 3103 
Q 1681 3103 1420 2742 
Q 1159 2381 1159 1747 
Q 1159 1113 1420 752 
Q 1681 391 2138 391 
Q 2594 391 2855 752 
Q 3116 1113 3116 1747 
z
" id="DejaVuSans-70" transform="scale(0.015625)"/>
        <path d="M 2631 2963 
Q 2534 3019 2420 3045 
Q 2306 3072 2169 3072 
Q 1681 3072 1420 2755 
Q 1159 2438 1159 1844 
L 1159 0 
L 581 0 
L 581 3500 
L 1159 3500 
L 1159 2956 
Q 1341 3275 1631 3429 
Q 1922 3584 2338 3584 
Q 2397 3584 2469 3576 
Q 2541 3569 2628 3553 
L 2631 2963 
z
" id="DejaVuSans-72" transform="scale(0.015625)"/>
       </defs>
       <use xlink:href="#DejaVuSans-41"/>
       <use x="68.408203" xlink:href="#DejaVuSans-70"/>
       <use x="131.884766" xlink:href="#DejaVuSans-72"/>
      </g>
     </g>
    </g>
    <g id="xtick_3">
     <g id="line2d_3">
      <g>
       <use style="stroke:#000000;stroke-width:0.8;" x="391.114286" xlink:href="#m0c731a60bd" y="576.72"/>
      </g>
     </g>
     <g id="text_2">
      <!-- Jul -->
      <g transform="translate(385.081473 591.318438)scale(0.1 -0.1)">
       <defs>
        <path d="M 628 4666 
L 1259 4666 
L 1259 325 
Q 1259 -519 939 -900 
Q 619 -1281 -91 -1281 
L -331 -1281 
L -331 -750 
L -134 -750 
Q 284 -750 456 -515 
Q 628 -281 628 325 
L 628 4666 
z
" id="DejaVuSans-4a" transform="scale(0.015625)"/>
        <path d="M 544 1381 
L 544 3500 
L 1119 3500 
L 1119 1403 
Q 1119 906 1312 657 
Q 1506 409 1894 409 
Q 2359 409 2629 706 
Q 2900 1003 2900 1516 
L 2900 3500 
L 3475 3500 
L 3475 0 
L 2900 0 
L 2900 538 
Q 2691 219 2414 64 
Q 2138 -91 1772 -91 
Q 1169 -91 856 284 
Q 544 659 544 1381 
z
M 1991 3584 
L 1991 3584 
z
" id="DejaVuSans-75" transform="scale(0.015625)"/>
        <path d="M 603 4863 
L 1178 4863 
L 1178 0 
L 603 0 
L 603 4863 
z
" id="DejaVuSans-6c" transform="scale(0.015625)"/>
       </defs>
       <use xlink:href="#DejaVuSans-4a"/>
       <use x="29.492188" xlink:href="#DejaVuSans-75"/>
       <use x="92.871094" xlink:href="#DejaVuSans-6c"/>
      </g>
     </g>
    </g>
    <g id="xtick_4">
     <g id="line2d_4">
      <g>
       <use style="stroke:#000000;stroke-width:0.8;" x="574.457143" xlink:href="#m0c731a60bd" y="576.72"/>
      </g>
     </g>
     <g id="text_3">
      <!-- Oct -->
      <g transform="translate(565.81183 591.318438)scale(0.1 -0.1)">
       <defs>
        <path d="M 2522 4238 
Q 1834 4238 1429 3725 
Q 1025 3213 1025 2328 
Q 1025 1447 1429 934 
Q 1834 422 2522 422 
Q 3209 422 3611 934 
Q 4013 1447 4013 2328 
Q 4013 3213 3611 3725 
Q 3209 4238 2522 4238 
z
M 2522 4750 
Q 3503 4750 4090 4092 
Q 4678 3434 4678 2328 
Q 4678 1225 4090 567 
Q 3503 -91 2522 -91 
Q 1538 -91 948 565 
Q 359 1222 359 2328 
Q 359 3434 948 4092 
Q 1538 4750 2522 4750 
z
" id="DejaVuSans-4f" transform="scale(0.015625)"/>
        <path d="M 3122 3366 
L 3122 2828 
Q 2878 2963 2633 3030 
Q 2388 3097 2138 3097 
Q 1578 3097 1268 2742 
Q 959 2388 959 1747 
Q 959 1106 1268 751 
Q 1578 397 2138 397 
Q 2388 397 2633 464 
Q 2878 531 3122 666 
L 3122 134 
Q 2881 22 2623 -34 
Q 2366 -91 2075 -91 
Q 1284 -91 818 406 
Q 353 903 353 1747 
Q 353 2603 823 3093 
Q 1294 3584 2113 3584 
Q 2378 3584 2631 3529 
Q 2884 3475 3122 3366 
z
" id="DejaVuSans-63" transform="scale(0.015625)"/>
        <path d="M 1172 4494 
L 1172 3500 
L 2356 3500 
L 2356 3053 
L 1172 3053 
L 1172 1153 
Q 1172 725 1289 603 
Q 1406 481 1766 481 
L 2356 481 
L 2356 0 
L 1766 0 
Q 1100 0 847 248 
Q 594 497 594 1153 
L 594 3053 
L 172 3053 
L 172 3500 
L 594 3500 
L 594 4494 
L 1172 4494 
z
" id="DejaVuSans-74" transform="scale(0.015625)"/>
       </defs>
       <use xlink:href="#DejaVuSans-4f"/>
       <use x="78.710938" xlink:href="#DejaVuSans-63"/>
       <use x="133.691406" xlink:href="#DejaVuSans-74"/>
      </g>
     </g>
    </g>
    <g id="xtick_5">
     <g id="line2d_5">
      <g>
       <use style="stroke:#000000;stroke-width:0.8;" x="757.8" xlink:href="#m0c731a60bd" y="576.72"/>
      </g>
     </g>
     <g id="text_4">
      <!-- Jan -->
      <g transform="translate(750.092187 591.318438)scale(0.1 -0.1)">
       <defs>
        <path d="M 2194 1759 
Q 1497 1759 1228 1600 
Q 959 1441 959 1056 
Q 959 750 1161 570 
Q 1363 391 1709 391 
Q 2188 391 2477 730 
Q 2766 1069 2766 1631 
L 2766 1759 
L 2194 1759 
z
M 3341 1997 
L 3341 0 
L 2766 0 
L 2766 531 
Q 2569 213 2275 61 
Q 1981 -91 1556 -91 
Q 1019 -91 701 211 
Q 384 513 384 1019 
Q 384 1609 779 1909 
Q 1175 2209 1959 2209 
L 2766 2209 
L 2766 2266 
Q 2766 2663 2505 2880 
Q 2244 3097 1772 3097 
Q 1472 3097 1187 3025 
Q 903 2953 641 2809 
L 641 3341 
Q 956 3463 1253 3523 
Q 1550 3584 1831 3584 
Q 2591 3584 2966 3190 
Q 3341 2797 3341 1997 
z
" id="DejaVuSans-61" transform="scale(0.015625)"/>
        <path d="M 3513 2113 
L 3513 0 
L 2938 0 
L 2938 2094 
Q 2938 2591 2744 2837 
Q 2550 3084 2163 3084 
Q 1697 3084 1428 2787 
Q 1159 2491 1159 1978 
L 1159 0 
L 581 0 
L 581 3500 
L 1159 3500 
L 1159 2956 
Q 1366 3272 1645 3428 
Q 1925 3584 2291 3584 
Q 2894 3584 3203 3211 
Q 3513 2838 3513 2113 
z
" id="DejaVuSans-6e" transform="scale(0.015625)"/>
       </defs>
       <use xlink:href="#DejaVuSans-4a"/>
       <use x="29.492188" xlink:href="#DejaVuSans-61"/>
       <use x="90.771484" xlink:href="#DejaVuSans-6e"/>
      </g>
      <!-- 2021 -->
      <g transform="translate(745.075 602.51625)scale(0.1 -0.1)">
       <defs>
        <path d="M 1228 531 
L 3431 531 
L 3431 0 
L 469 0 
L 469 531 
Q 828 903 1448 1529 
Q 2069 2156 2228 2338 
Q 2531 2678 2651 2914 
Q 2772 3150 2772 3378 
Q 2772 3750 2511 3984 
Q 2250 4219 1831 4219 
Q 1534 4219 1204 4116 
Q 875 4013 500 3803 
L 500 4441 
Q 881 4594 1212 4672 
Q 1544 4750 1819 4750 
Q 2544 4750 2975 4387 
Q 3406 4025 3406 3419 
Q 3406 3131 3298 2873 
Q 3191 2616 2906 2266 
Q 2828 2175 2409 1742 
Q 1991 1309 1228 531 
z
" id="DejaVuSans-32" transform="scale(0.015625)"/>
        <path d="M 2034 4250 
Q 1547 4250 1301 3770 
Q 1056 3291 1056 2328 
Q 1056 1369 1301 889 
Q 1547 409 2034 409 
Q 2525 409 2770 889 
Q 3016 1369 3016 2328 
Q 3016 3291 2770 3770 
Q 2525 4250 2034 4250 
z
M 2034 4750 
Q 2819 4750 3233 4129 
Q 3647 3509 3647 2328 
Q 3647 1150 3233 529 
Q 2819 -91 2034 -91 
Q 1250 -91 836 529 
Q 422 1150 422 2328 
Q 422 3509 836 4129 
Q 1250 4750 2034 4750 
z
" id="DejaVuSans-30" transform="scale(0.015625)"/>
        <path d="M 794 531 
L 1825 531 
L 1825 4091 
L 703 3866 
L 703 4441 
L 1819 4666 
L 2450 4666 
L 2450 531 
L 3481 531 
L 3481 0 
L 794 0 
L 794 531 
z
" id="DejaVuSans-31" transform="scale(0.015625)"/>
       </defs>
       <use xlink:href="#DejaVuSans-32"/>
       <use x="63.623047" xlink:href="#DejaVuSans-30"/>
       <use x="127.246094" xlink:href="#DejaVuSans-32"/>
       <use x="190.869141" xlink:href="#DejaVuSans-31"/>
      </g>
     </g>
    </g>
    <g id="xtick_6">
     <g id="line2d_6">
      <g>
       <use style="stroke:#000000;stroke-width:0.8;" x="937.157143" xlink:href="#m0c731a60bd" y="576.72"/>
      </g>
     </g>
     <g id="text_5">
      <!-- Apr -->
      <g transform="translate(928.507143 591.318438)scale(0.1 -0.1)">
       <use xlink:href="#DejaVuSans-41"/>
       <use x="68.408203" xlink:href="#DejaVuSans-70"/>
       <use x="131.884766" xlink:href="#DejaVuSans-72"/>
      </g>
     </g>
    </g>
    <g id="xtick_7">
     <g id="line2d_7">
      <g>
       <use style="stroke:#000000;stroke-width:0.8;" x="1036.8" xlink:href="#m0c731a60bd" y="576.72"/>
      </g>
     </g>
    </g>
    <g id="xtick_8">
     <g id="line2d_8">
      <defs>
       <path d="M 0 0 
L 0 2 
" id="mb29cd7f581" style="stroke:#000000;stroke-width:0.6;"/>
      </defs>
      <g>
       <use style="stroke:#000000;stroke-width:0.6;" x="147.985714" xlink:href="#mb29cd7f581" y="576.72"/>
      </g>
     </g>
    </g>
    <g id="xtick_9">
     <g id="line2d_9">
      <g>
       <use style="stroke:#000000;stroke-width:0.6;" x="269.55" xlink:href="#mb29cd7f581" y="576.72"/>
      </g>
     </g>
    </g>
    <g id="xtick_10">
     <g id="line2d_10">
      <g>
       <use style="stroke:#000000;stroke-width:0.6;" x="331.328571" xlink:href="#mb29cd7f581" y="576.72"/>
      </g>
     </g>
    </g>
    <g id="xtick_11">
     <g id="line2d_11">
      <g>
       <use style="stroke:#000000;stroke-width:0.6;" x="452.892857" xlink:href="#mb29cd7f581" y="576.72"/>
      </g>
     </g>
    </g>
    <g id="xtick_12">
     <g id="line2d_12">
      <g>
       <use style="stroke:#000000;stroke-width:0.6;" x="514.671429" xlink:href="#mb29cd7f581" y="576.72"/>
      </g>
     </g>
    </g>
    <g id="xtick_13">
     <g id="line2d_13">
      <g>
       <use style="stroke:#000000;stroke-width:0.6;" x="636.235714" xlink:href="#mb29cd7f581" y="576.72"/>
      </g>
     </g>
    </g>
    <g id="xtick_14">
     <g id="line2d_14">
      <g>
       <use style="stroke:#000000;stroke-width:0.6;" x="696.021429" xlink:href="#mb29cd7f581" y="576.72"/>
      </g>
     </g>
    </g>
    <g id="xtick_15">
     <g id="line2d_15">
      <g>
       <use style="stroke:#000000;stroke-width:0.6;" x="819.578571" xlink:href="#mb29cd7f581" y="576.72"/>
      </g>
     </g>
    </g>
    <g id="xtick_16">
     <g id="line2d_16">
      <g>
       <use style="stroke:#000000;stroke-width:0.6;" x="875.378571" xlink:href="#mb29cd7f581" y="576.72"/>
      </g>
     </g>
    </g>
    <g id="xtick_17">
     <g id="line2d_17">
      <g>
       <use style="stroke:#000000;stroke-width:0.6;" x="996.942857" xlink:href="#mb29cd7f581" y="576.72"/>
      </g>
     </g>
    </g>
    <g id="text_6">
     <!-- Stand -->
     <g transform="translate(575.858594 616.194375)scale(0.1 -0.1)">
      <defs>
       <path d="M 3425 4513 
L 3425 3897 
Q 3066 4069 2747 4153 
Q 2428 4238 2131 4238 
Q 1616 4238 1336 4038 
Q 1056 3838 1056 3469 
Q 1056 3159 1242 3001 
Q 1428 2844 1947 2747 
L 2328 2669 
Q 3034 2534 3370 2195 
Q 3706 1856 3706 1288 
Q 3706 609 3251 259 
Q 2797 -91 1919 -91 
Q 1588 -91 1214 -16 
Q 841 59 441 206 
L 441 856 
Q 825 641 1194 531 
Q 1563 422 1919 422 
Q 2459 422 2753 634 
Q 3047 847 3047 1241 
Q 3047 1584 2836 1778 
Q 2625 1972 2144 2069 
L 1759 2144 
Q 1053 2284 737 2584 
Q 422 2884 422 3419 
Q 422 4038 858 4394 
Q 1294 4750 2059 4750 
Q 2388 4750 2728 4690 
Q 3069 4631 3425 4513 
z
" id="DejaVuSans-53" transform="scale(0.015625)"/>
       <path d="M 2906 2969 
L 2906 4863 
L 3481 4863 
L 3481 0 
L 2906 0 
L 2906 525 
Q 2725 213 2448 61 
Q 2172 -91 1784 -91 
Q 1150 -91 751 415 
Q 353 922 353 1747 
Q 353 2572 751 3078 
Q 1150 3584 1784 3584 
Q 2172 3584 2448 3432 
Q 2725 3281 2906 2969 
z
M 947 1747 
Q 947 1113 1208 752 
Q 1469 391 1925 391 
Q 2381 391 2643 752 
Q 2906 1113 2906 1747 
Q 2906 2381 2643 2742 
Q 2381 3103 1925 3103 
Q 1469 3103 1208 2742 
Q 947 2381 947 1747 
z
" id="DejaVuSans-64" transform="scale(0.015625)"/>
      </defs>
      <use xlink:href="#DejaVuSans-53"/>
      <use x="63.476562" xlink:href="#DejaVuSans-74"/>
      <use x="102.685547" xlink:href="#DejaVuSans-61"/>
      <use x="163.964844" xlink:href="#DejaVuSans-6e"/>
      <use x="227.34375" xlink:href="#DejaVuSans-64"/>
     </g>
    </g>
   </g>
   <g id="matplotlib.axis_2">
    <g id="ytick_1">
     <g id="line2d_18">
      <defs>
       <path d="M 0 0 
L -3.5 0 
" id="mbfea37e768" style="stroke:#000000;stroke-width:0.8;"/>
      </defs>
      <g>
       <use style="stroke:#000000;stroke-width:0.8;" x="144" xlink:href="#mbfea37e768" y="554.04"/>
      </g>
     </g>
     <g id="text_7">
      <!-- 0 -->
      <g transform="translate(130.6375 557.839219)scale(0.1 -0.1)">
       <use xlink:href="#DejaVuSans-30"/>
      </g>
     </g>
    </g>
    <g id="ytick_2">
     <g id="line2d_19">
      <g>
       <use style="stroke:#000000;stroke-width:0.8;" x="144" xlink:href="#mbfea37e768" y="453.24"/>
      </g>
     </g>
     <g id="text_8">
      <!-- 2 -->
      <g transform="translate(130.6375 457.039219)scale(0.1 -0.1)">
       <use xlink:href="#DejaVuSans-32"/>
      </g>
     </g>
    </g>
    <g id="ytick_3">
     <g id="line2d_20">
      <g>
       <use style="stroke:#000000;stroke-width:0.8;" x="144" xlink:href="#mbfea37e768" y="352.44"/>
      </g>
     </g>
     <g id="text_9">
      <!-- 4 -->
      <g transform="translate(130.6375 356.239219)scale(0.1 -0.1)">
       <defs>
        <path d="M 2419 4116 
L 825 1625 
L 2419 1625 
L 2419 4116 
z
M 2253 4666 
L 3047 4666 
L 3047 1625 
L 3713 1625 
L 3713 1100 
L 3047 1100 
L 3047 0 
L 2419 0 
L 2419 1100 
L 313 1100 
L 313 1709 
L 2253 4666 
z
" id="DejaVuSans-34" transform="scale(0.015625)"/>
       </defs>
       <use xlink:href="#DejaVuSans-34"/>
      </g>
     </g>
    </g>
    <g id="ytick_4">
     <g id="line2d_21">
      <g>
       <use style="stroke:#000000;stroke-width:0.8;" x="144" xlink:href="#mbfea37e768" y="251.64"/>
      </g>
     </g>
     <g id="text_10">
      <!-- 6 -->
      <g transform="translate(130.6375 255.439219)scale(0.1 -0.1)">
       <defs>
        <path d="M 2113 2584 
Q 1688 2584 1439 2293 
Q 1191 2003 1191 1497 
Q 1191 994 1439 701 
Q 1688 409 2113 409 
Q 2538 409 2786 701 
Q 3034 994 3034 1497 
Q 3034 2003 2786 2293 
Q 2538 2584 2113 2584 
z
M 3366 4563 
L 3366 3988 
Q 3128 4100 2886 4159 
Q 2644 4219 2406 4219 
Q 1781 4219 1451 3797 
Q 1122 3375 1075 2522 
Q 1259 2794 1537 2939 
Q 1816 3084 2150 3084 
Q 2853 3084 3261 2657 
Q 3669 2231 3669 1497 
Q 3669 778 3244 343 
Q 2819 -91 2113 -91 
Q 1303 -91 875 529 
Q 447 1150 447 2328 
Q 447 3434 972 4092 
Q 1497 4750 2381 4750 
Q 2619 4750 2861 4703 
Q 3103 4656 3366 4563 
z
" id="DejaVuSans-36" transform="scale(0.015625)"/>
       </defs>
       <use xlink:href="#DejaVuSans-36"/>
      </g>
     </g>
    </g>
    <g id="ytick_5">
     <g id="line2d_22">
      <g>
       <use style="stroke:#000000;stroke-width:0.8;" x="144" xlink:href="#mbfea37e768" y="150.84"/>
      </g>
     </g>
     <g id="text_11">
      <!-- 8 -->
      <g transform="translate(130.6375 154.639219)scale(0.1 -0.1)">
       <defs>
        <path d="M 2034 2216 
Q 1584 2216 1326 1975 
Q 1069 1734 1069 1313 
Q 1069 891 1326 650 
Q 1584 409 2034 409 
Q 2484 409 2743 651 
Q 3003 894 3003 1313 
Q 3003 1734 2745 1975 
Q 2488 2216 2034 2216 
z
M 1403 2484 
Q 997 2584 770 2862 
Q 544 3141 544 3541 
Q 544 4100 942 4425 
Q 1341 4750 2034 4750 
Q 2731 4750 3128 4425 
Q 3525 4100 3525 3541 
Q 3525 3141 3298 2862 
Q 3072 2584 2669 2484 
Q 3125 2378 3379 2068 
Q 3634 1759 3634 1313 
Q 3634 634 3220 271 
Q 2806 -91 2034 -91 
Q 1263 -91 848 271 
Q 434 634 434 1313 
Q 434 1759 690 2068 
Q 947 2378 1403 2484 
z
M 1172 3481 
Q 1172 3119 1398 2916 
Q 1625 2713 2034 2713 
Q 2441 2713 2670 2916 
Q 2900 3119 2900 3481 
Q 2900 3844 2670 4047 
Q 2441 4250 2034 4250 
Q 1625 4250 1398 4047 
Q 1172 3844 1172 3481 
z
" id="DejaVuSans-38" transform="scale(0.015625)"/>
       </defs>
       <use xlink:href="#DejaVuSans-38"/>
      </g>
     </g>
    </g>
   </g>
   <g id="line2d_23">
    <path clip-path="url(#pe696711c5c)" d="M 144 554.04 
L 195.814286 554.04 
L 197.807143 503.64 
L 199.8 554.04 
L 201.792857 503.64 
L 203.785714 554.04 
L 205.778571 554.04 
L 207.771429 453.24 
L 209.764286 503.64 
L 211.757143 503.64 
L 213.75 554.04 
L 217.735714 554.04 
L 219.728571 453.24 
L 221.721429 503.64 
L 225.707143 503.64 
L 227.7 453.24 
L 229.692857 453.24 
L 231.685714 554.04 
L 233.678571 453.24 
L 235.671429 402.84 
L 237.664286 503.64 
L 239.657143 554.04 
L 243.642857 453.24 
L 247.628571 554.04 
L 249.621429 554.04 
L 251.614286 503.64 
L 253.607143 503.64 
L 255.6 554.04 
L 263.571429 554.04 
L 265.564286 453.24 
L 267.557143 554.04 
L 269.55 503.64 
L 271.542857 554.04 
L 275.528571 554.04 
L 277.521429 503.64 
L 279.514286 554.04 
L 281.507143 503.64 
L 283.5 554.04 
L 287.485714 554.04 
L 289.478571 453.24 
L 291.471429 503.64 
L 295.457143 503.64 
L 297.45 554.04 
L 301.435714 554.04 
L 303.428571 503.64 
L 305.421429 554.04 
L 307.414286 554.04 
L 309.407143 503.64 
L 311.4 554.04 
L 313.392857 453.24 
L 315.385714 554.04 
L 317.378571 554.04 
L 319.371429 503.64 
L 321.364286 554.04 
L 325.35 554.04 
L 327.342857 503.64 
L 329.335714 554.04 
L 333.321429 554.04 
L 335.314286 503.64 
L 337.307143 503.64 
L 339.3 554.04 
L 351.257143 554.04 
L 353.25 453.24 
L 355.242857 554.04 
L 359.228571 453.24 
L 361.221429 554.04 
L 363.214286 503.64 
L 365.207143 554.04 
L 381.15 554.04 
L 383.142857 503.64 
L 385.135714 554.04 
L 387.128571 554.04 
L 389.121429 402.84 
L 391.114286 554.04 
L 399.085714 554.04 
L 401.078571 503.64 
L 403.071429 554.04 
L 409.05 554.04 
L 411.042857 503.64 
L 413.035714 554.04 
L 448.907143 554.04 
L 450.9 503.64 
L 452.892857 554.04 
L 514.671429 554.04 
L 516.664286 503.64 
L 518.657143 503.64 
L 520.65 554.04 
L 540.578571 554.04 
L 542.571429 503.64 
L 544.564286 554.04 
L 586.414286 554.04 
L 588.407143 503.64 
L 590.4 554.04 
L 594.385714 554.04 
L 596.378571 503.64 
L 598.371429 554.04 
L 600.364286 503.64 
L 602.357143 554.04 
L 606.342857 554.04 
L 608.335714 503.64 
L 610.328571 554.04 
L 618.3 554.04 
L 620.292857 503.64 
L 622.285714 554.04 
L 624.278571 554.04 
L 626.271429 453.24 
L 628.264286 554.04 
L 630.257143 402.84 
L 632.25 503.64 
L 634.242857 453.24 
L 636.235714 554.04 
L 638.228571 503.64 
L 640.221429 352.44 
L 642.214286 503.64 
L 644.207143 453.24 
L 646.2 503.64 
L 648.192857 352.44 
L 650.185714 503.64 
L 656.164286 503.64 
L 658.157143 554.04 
L 660.15 352.44 
L 662.142857 503.64 
L 664.135714 554.04 
L 666.128571 402.84 
L 668.121429 503.64 
L 670.114286 352.44 
L 672.107143 503.64 
L 678.085714 503.64 
L 680.078571 453.24 
L 682.071429 352.44 
L 684.064286 503.64 
L 686.057143 503.64 
L 688.05 554.04 
L 690.042857 453.24 
L 692.035714 554.04 
L 694.028571 453.24 
L 696.021429 302.04 
L 698.014286 453.24 
L 700.007143 352.44 
L 702 402.84 
L 703.992857 503.64 
L 705.985714 402.84 
L 707.978571 503.64 
L 711.964286 402.84 
L 713.957143 302.04 
L 715.95 402.84 
L 717.942857 554.04 
L 719.935714 352.44 
L 721.928571 352.44 
L 723.921429 503.64 
L 725.914286 503.64 
L 727.907143 402.84 
L 729.9 453.24 
L 731.892857 453.24 
L 733.885714 503.64 
L 735.878571 402.84 
L 737.871429 503.64 
L 739.864286 402.84 
L 741.857143 453.24 
L 743.85 554.04 
L 745.842857 503.64 
L 747.835714 352.44 
L 749.828571 503.64 
L 753.814286 302.04 
L 755.807143 402.84 
L 757.8 453.24 
L 759.792857 302.04 
L 761.785714 503.64 
L 763.778571 453.24 
L 765.771429 352.44 
L 767.764286 503.64 
L 769.757143 554.04 
L 771.75 352.44 
L 773.742857 251.64 
L 775.735714 402.84 
L 777.728571 503.64 
L 779.721429 453.24 
L 781.714286 503.64 
L 783.707143 503.64 
L 785.7 554.04 
L 787.692857 402.84 
L 789.685714 503.64 
L 791.678571 503.64 
L 793.671429 302.04 
L 795.664286 453.24 
L 797.657143 503.64 
L 799.65 150.84 
L 801.642857 453.24 
L 803.635714 503.64 
L 805.628571 453.24 
L 811.607143 453.24 
L 813.6 251.64 
L 815.592857 503.64 
L 817.585714 453.24 
L 819.578571 554.04 
L 821.571429 302.04 
L 825.557143 302.04 
L 827.55 453.24 
L 831.535714 554.04 
L 833.528571 352.44 
L 835.521429 402.84 
L 837.514286 150.84 
L 839.507143 352.44 
L 841.5 503.64 
L 843.492857 503.64 
L 845.485714 402.84 
L 847.478571 453.24 
L 851.464286 453.24 
L 855.45 554.04 
L 857.442857 352.44 
L 859.435714 302.04 
L 861.428571 503.64 
L 863.421429 554.04 
L 865.414286 453.24 
L 867.407143 554.04 
L 869.4 352.44 
L 871.392857 352.44 
L 873.385714 453.24 
L 875.378571 453.24 
L 877.371429 503.64 
L 879.364286 352.44 
L 881.357143 352.44 
L 883.35 302.04 
L 885.342857 100.44 
L 887.335714 453.24 
L 889.328571 554.04 
L 891.321429 453.24 
L 893.314286 453.24 
L 895.307143 302.04 
L 897.3 402.84 
L 899.292857 554.04 
L 903.278571 554.04 
L 907.264286 453.24 
L 909.257143 352.44 
L 911.25 302.04 
L 913.242857 503.64 
L 915.235714 503.64 
L 917.228571 554.04 
L 919.221429 402.84 
L 921.214286 503.64 
L 923.207143 453.24 
L 925.2 453.24 
L 929.185714 554.04 
L 931.178571 554.04 
L 935.164286 453.24 
L 937.157143 453.24 
L 939.15 554.04 
L 943.135714 554.04 
L 947.121429 453.24 
L 949.114286 453.24 
L 951.107143 402.84 
L 953.1 402.84 
L 959.078571 554.04 
L 961.071429 453.24 
L 963.064286 302.04 
L 965.057143 554.04 
L 967.05 251.64 
L 969.042857 453.24 
L 971.035714 554.04 
L 973.028571 554.04 
L 975.021429 503.64 
L 977.014286 352.44 
L 979.007143 402.84 
L 981 554.04 
L 982.992857 503.64 
L 984.985714 554.04 
L 986.978571 453.24 
L 988.971429 503.64 
L 990.964286 352.44 
L 994.95 554.04 
L 996.942857 503.64 
L 998.935714 554.04 
L 1004.914286 554.04 
L 1006.907143 352.44 
L 1008.9 402.84 
L 1010.892857 554.04 
L 1012.885714 554.04 
L 1014.878571 453.24 
L 1016.871429 554.04 
L 1018.864286 503.64 
L 1020.857143 402.84 
L 1022.85 554.04 
L 1024.842857 503.64 
L 1026.835714 554.04 
L 1028.828571 554.04 
L 1030.821429 503.64 
L 1032.814286 554.04 
L 1034.807143 503.64 
L 1036.8 503.64 
L 1036.8 503.64 
" style="fill:none;stroke:#808080;stroke-dasharray:1.5,2.475;stroke-dashoffset:0;stroke-width:1.5;"/>
    <defs>
     <path d="M -3 0 
L 3 0 
M 0 3 
L 0 -3 
" id="mccfe111b71" style="stroke:#808080;"/>
    </defs>
    <g clip-path="url(#pe696711c5c)">
     <use style="fill:#808080;stroke:#808080;" x="144" xlink:href="#mccfe111b71" y="554.04"/>
     <use style="fill:#808080;stroke:#808080;" x="145.992857" xlink:href="#mccfe111b71" y="554.04"/>
     <use style="fill:#808080;stroke:#808080;" x="147.985714" xlink:href="#mccfe111b71" y="554.04"/>
     <use style="fill:#808080;stroke:#808080;" x="149.978571" xlink:href="#mccfe111b71" y="554.04"/>
     <use style="fill:#808080;stroke:#808080;" x="151.971429" xlink:href="#mccfe111b71" y="554.04"/>
     <use style="fill:#808080;stroke:#808080;" x="153.964286" xlink:href="#mccfe111b71" y="554.04"/>
     <use style="fill:#808080;stroke:#808080;" x="155.957143" xlink:href="#mccfe111b71" y="554.04"/>
     <use style="fill:#808080;stroke:#808080;" x="157.95" xlink:href="#mccfe111b71" y="554.04"/>
     <use style="fill:#808080;stroke:#808080;" x="159.942857" xlink:href="#mccfe111b71" y="554.04"/>
     <use style="fill:#808080;stroke:#808080;" x="161.935714" xlink:href="#mccfe111b71" y="554.04"/>
     <use style="fill:#808080;stroke:#808080;" x="163.928571" xlink:href="#mccfe111b71" y="554.04"/>
     <use style="fill:#808080;stroke:#808080;" x="165.921429" xlink:href="#mccfe111b71" y="554.04"/>
     <use style="fill:#808080;stroke:#808080;" x="167.914286" xlink:href="#mccfe111b71" y="554.04"/>
     <use style="fill:#808080;stroke:#808080;" x="169.907143" xlink:href="#mccfe111b71" y="554.04"/>
     <use style="fill:#808080;stroke:#808080;" x="171.9" xlink:href="#mccfe111b71" y="554.04"/>
     <use style="fill:#808080;stroke:#808080;" x="173.892857" xlink:href="#mccfe111b71" y="554.04"/>
     <use style="fill:#808080;stroke:#808080;" x="175.885714" xlink:href="#mccfe111b71" y="554.04"/>
     <use style="fill:#808080;stroke:#808080;" x="177.878571" xlink:href="#mccfe111b71" y="554.04"/>
     <use style="fill:#808080;stroke:#808080;" x="179.871429" xlink:href="#mccfe111b71" y="554.04"/>
     <use style="fill:#808080;stroke:#808080;" x="181.864286" xlink:href="#mccfe111b71" y="554.04"/>
     <use style="fill:#808080;stroke:#808080;" x="183.857143" xlink:href="#mccfe111b71" y="554.04"/>
     <use style="fill:#808080;stroke:#808080;" x="185.85" xlink:href="#mccfe111b71" y="554.04"/>
     <use style="fill:#808080;stroke:#808080;" x="187.842857" xlink:href="#mccfe111b71" y="554.04"/>
     <use style="fill:#808080;stroke:#808080;" x="189.835714" xlink:href="#mccfe111b71" y="554.04"/>
     <use style="fill:#808080;stroke:#808080;" x="191.828571" xlink:href="#mccfe111b71" y="554.04"/>
     <use style="fill:#808080;stroke:#808080;" x="193.821429" xlink:href="#mccfe111b71" y="554.04"/>
     <use style="fill:#808080;stroke:#808080;" x="195.814286" xlink:href="#mccfe111b71" y="554.04"/>
     <use style="fill:#808080;stroke:#808080;" x="197.807143" xlink:href="#mccfe111b71" y="503.64"/>
     <use style="fill:#808080;stroke:#808080;" x="199.8" xlink:href="#mccfe111b71" y="554.04"/>
     <use style="fill:#808080;stroke:#808080;" x="201.792857" xlink:href="#mccfe111b71" y="503.64"/>
     <use style="fill:#808080;stroke:#808080;" x="203.785714" xlink:href="#mccfe111b71" y="554.04"/>
     <use style="fill:#808080;stroke:#808080;" x="205.778571" xlink:href="#mccfe111b71" y="554.04"/>
     <use style="fill:#808080;stroke:#808080;" x="207.771429" xlink:href="#mccfe111b71" y="453.24"/>
     <use style="fill:#808080;stroke:#808080;" x="209.764286" xlink:href="#mccfe111b71" y="503.64"/>
     <use style="fill:#808080;stroke:#808080;" x="211.757143" xlink:href="#mccfe111b71" y="503.64"/>
     <use style="fill:#808080;stroke:#808080;" x="213.75" xlink:href="#mccfe111b71" y="554.04"/>
     <use style="fill:#808080;stroke:#808080;" x="215.742857" xlink:href="#mccfe111b71" y="554.04"/>
     <use style="fill:#808080;stroke:#808080;" x="217.735714" xlink:href="#mccfe111b71" y="554.04"/>
     <use style="fill:#808080;stroke:#808080;" x="219.728571" xlink:href="#mccfe111b71" y="453.24"/>
     <use style="fill:#808080;stroke:#808080;" x="221.721429" xlink:href="#mccfe111b71" y="503.64"/>
     <use style="fill:#808080;stroke:#808080;" x="223.714286" xlink:href="#mccfe111b71" y="503.64"/>
     <use style="fill:#808080;stroke:#808080;" x="225.707143" xlink:href="#mccfe111b71" y="503.64"/>
     <use style="fill:#808080;stroke:#808080;" x="227.7" xlink:href="#mccfe111b71" y="453.24"/>
     <use style="fill:#808080;stroke:#808080;" x="229.692857" xlink:href="#mccfe111b71" y="453.24"/>
     <use style="fill:#808080;stroke:#808080;" x="231.685714" xlink:href="#mccfe111b71" y="554.04"/>
     <use style="fill:#808080;stroke:#808080;" x="233.678571" xlink:href="#mccfe111b71" y="453.24"/>
     <use style="fill:#808080;stroke:#808080;" x="235.671429" xlink:href="#mccfe111b71" y="402.84"/>
     <use style="fill:#808080;stroke:#808080;" x="237.664286" xlink:href="#mccfe111b71" y="503.64"/>
     <use style="fill:#808080;stroke:#808080;" x="239.657143" xlink:href="#mccfe111b71" y="554.04"/>
     <use style="fill:#808080;stroke:#808080;" x="241.65" xlink:href="#mccfe111b71" y="503.64"/>
     <use style="fill:#808080;stroke:#808080;" x="243.642857" xlink:href="#mccfe111b71" y="453.24"/>
     <use style="fill:#808080;stroke:#808080;" x="245.635714" xlink:href="#mccfe111b71" y="503.64"/>
     <use style="fill:#808080;stroke:#808080;" x="247.628571" xlink:href="#mccfe111b71" y="554.04"/>
     <use style="fill:#808080;stroke:#808080;" x="249.621429" xlink:href="#mccfe111b71" y="554.04"/>
     <use style="fill:#808080;stroke:#808080;" x="251.614286" xlink:href="#mccfe111b71" y="503.64"/>
     <use style="fill:#808080;stroke:#808080;" x="253.607143" xlink:href="#mccfe111b71" y="503.64"/>
     <use style="fill:#808080;stroke:#808080;" x="255.6" xlink:href="#mccfe111b71" y="554.04"/>
     <use style="fill:#808080;stroke:#808080;" x="257.592857" xlink:href="#mccfe111b71" y="554.04"/>
     <use style="fill:#808080;stroke:#808080;" x="259.585714" xlink:href="#mccfe111b71" y="554.04"/>
     <use style="fill:#808080;stroke:#808080;" x="261.578571" xlink:href="#mccfe111b71" y="554.04"/>
     <use style="fill:#808080;stroke:#808080;" x="263.571429" xlink:href="#mccfe111b71" y="554.04"/>
     <use style="fill:#808080;stroke:#808080;" x="265.564286" xlink:href="#mccfe111b71" y="453.24"/>
     <use style="fill:#808080;stroke:#808080;" x="267.557143" xlink:href="#mccfe111b71" y="554.04"/>
     <use style="fill:#808080;stroke:#808080;" x="269.55" xlink:href="#mccfe111b71" y="503.64"/>
     <use style="fill:#808080;stroke:#808080;" x="271.542857" xlink:href="#mccfe111b71" y="554.04"/>
     <use style="fill:#808080;stroke:#808080;" x="273.535714" xlink:href="#mccfe111b71" y="554.04"/>
     <use style="fill:#808080;stroke:#808080;" x="275.528571" xlink:href="#mccfe111b71" y="554.04"/>
     <use style="fill:#808080;stroke:#808080;" x="277.521429" xlink:href="#mccfe111b71" y="503.64"/>
     <use style="fill:#808080;stroke:#808080;" x="279.514286" xlink:href="#mccfe111b71" y="554.04"/>
     <use style="fill:#808080;stroke:#808080;" x="281.507143" xlink:href="#mccfe111b71" y="503.64"/>
     <use style="fill:#808080;stroke:#808080;" x="283.5" xlink:href="#mccfe111b71" y="554.04"/>
     <use style="fill:#808080;stroke:#808080;" x="285.492857" xlink:href="#mccfe111b71" y="554.04"/>
     <use style="fill:#808080;stroke:#808080;" x="287.485714" xlink:href="#mccfe111b71" y="554.04"/>
     <use style="fill:#808080;stroke:#808080;" x="289.478571" xlink:href="#mccfe111b71" y="453.24"/>
     <use style="fill:#808080;stroke:#808080;" x="291.471429" xlink:href="#mccfe111b71" y="503.64"/>
     <use style="fill:#808080;stroke:#808080;" x="293.464286" xlink:href="#mccfe111b71" y="503.64"/>
     <use style="fill:#808080;stroke:#808080;" x="295.457143" xlink:href="#mccfe111b71" y="503.64"/>
     <use style="fill:#808080;stroke:#808080;" x="297.45" xlink:href="#mccfe111b71" y="554.04"/>
     <use style="fill:#808080;stroke:#808080;" x="299.442857" xlink:href="#mccfe111b71" y="554.04"/>
     <use style="fill:#808080;stroke:#808080;" x="301.435714" xlink:href="#mccfe111b71" y="554.04"/>
     <use style="fill:#808080;stroke:#808080;" x="303.428571" xlink:href="#mccfe111b71" y="503.64"/>
     <use style="fill:#808080;stroke:#808080;" x="305.421429" xlink:href="#mccfe111b71" y="554.04"/>
     <use style="fill:#808080;stroke:#808080;" x="307.414286" xlink:href="#mccfe111b71" y="554.04"/>
     <use style="fill:#808080;stroke:#808080;" x="309.407143" xlink:href="#mccfe111b71" y="503.64"/>
     <use style="fill:#808080;stroke:#808080;" x="311.4" xlink:href="#mccfe111b71" y="554.04"/>
     <use style="fill:#808080;stroke:#808080;" x="313.392857" xlink:href="#mccfe111b71" y="453.24"/>
     <use style="fill:#808080;stroke:#808080;" x="315.385714" xlink:href="#mccfe111b71" y="554.04"/>
     <use style="fill:#808080;stroke:#808080;" x="317.378571" xlink:href="#mccfe111b71" y="554.04"/>
     <use style="fill:#808080;stroke:#808080;" x="319.371429" xlink:href="#mccfe111b71" y="503.64"/>
     <use style="fill:#808080;stroke:#808080;" x="321.364286" xlink:href="#mccfe111b71" y="554.04"/>
     <use style="fill:#808080;stroke:#808080;" x="323.357143" xlink:href="#mccfe111b71" y="554.04"/>
     <use style="fill:#808080;stroke:#808080;" x="325.35" xlink:href="#mccfe111b71" y="554.04"/>
     <use style="fill:#808080;stroke:#808080;" x="327.342857" xlink:href="#mccfe111b71" y="503.64"/>
     <use style="fill:#808080;stroke:#808080;" x="329.335714" xlink:href="#mccfe111b71" y="554.04"/>
     <use style="fill:#808080;stroke:#808080;" x="331.328571" xlink:href="#mccfe111b71" y="554.04"/>
     <use style="fill:#808080;stroke:#808080;" x="333.321429" xlink:href="#mccfe111b71" y="554.04"/>
     <use style="fill:#808080;stroke:#808080;" x="335.314286" xlink:href="#mccfe111b71" y="503.64"/>
     <use style="fill:#808080;stroke:#808080;" x="337.307143" xlink:href="#mccfe111b71" y="503.64"/>
     <use style="fill:#808080;stroke:#808080;" x="339.3" xlink:href="#mccfe111b71" y="554.04"/>
     <use style="fill:#808080;stroke:#808080;" x="341.292857" xlink:href="#mccfe111b71" y="554.04"/>
     <use style="fill:#808080;stroke:#808080;" x="343.285714" xlink:href="#mccfe111b71" y="554.04"/>
     <use style="fill:#808080;stroke:#808080;" x="345.278571" xlink:href="#mccfe111b71" y="554.04"/>
     <use style="fill:#808080;stroke:#808080;" x="347.271429" xlink:href="#mccfe111b71" y="554.04"/>
     <use style="fill:#808080;stroke:#808080;" x="349.264286" xlink:href="#mccfe111b71" y="554.04"/>
     <use style="fill:#808080;stroke:#808080;" x="351.257143" xlink:href="#mccfe111b71" y="554.04"/>
     <use style="fill:#808080;stroke:#808080;" x="353.25" xlink:href="#mccfe111b71" y="453.24"/>
     <use style="fill:#808080;stroke:#808080;" x="355.242857" xlink:href="#mccfe111b71" y="554.04"/>
     <use style="fill:#808080;stroke:#808080;" x="357.235714" xlink:href="#mccfe111b71" y="503.64"/>
     <use style="fill:#808080;stroke:#808080;" x="359.228571" xlink:href="#mccfe111b71" y="453.24"/>
     <use style="fill:#808080;stroke:#808080;" x="361.221429" xlink:href="#mccfe111b71" y="554.04"/>
     <use style="fill:#808080;stroke:#808080;" x="363.214286" xlink:href="#mccfe111b71" y="503.64"/>
     <use style="fill:#808080;stroke:#808080;" x="365.207143" xlink:href="#mccfe111b71" y="554.04"/>
     <use style="fill:#808080;stroke:#808080;" x="367.2" xlink:href="#mccfe111b71" y="554.04"/>
     <use style="fill:#808080;stroke:#808080;" x="369.192857" xlink:href="#mccfe111b71" y="554.04"/>
     <use style="fill:#808080;stroke:#808080;" x="371.185714" xlink:href="#mccfe111b71" y="554.04"/>
     <use style="fill:#808080;stroke:#808080;" x="373.178571" xlink:href="#mccfe111b71" y="554.04"/>
     <use style="fill:#808080;stroke:#808080;" x="375.171429" xlink:href="#mccfe111b71" y="554.04"/>
     <use style="fill:#808080;stroke:#808080;" x="377.164286" xlink:href="#mccfe111b71" y="554.04"/>
     <use style="fill:#808080;stroke:#808080;" x="379.157143" xlink:href="#mccfe111b71" y="554.04"/>
     <use style="fill:#808080;stroke:#808080;" x="381.15" xlink:href="#mccfe111b71" y="554.04"/>
     <use style="fill:#808080;stroke:#808080;" x="383.142857" xlink:href="#mccfe111b71" y="503.64"/>
     <use style="fill:#808080;stroke:#808080;" x="385.135714" xlink:href="#mccfe111b71" y="554.04"/>
     <use style="fill:#808080;stroke:#808080;" x="387.128571" xlink:href="#mccfe111b71" y="554.04"/>
     <use style="fill:#808080;stroke:#808080;" x="389.121429" xlink:href="#mccfe111b71" y="402.84"/>
     <use style="fill:#808080;stroke:#808080;" x="391.114286" xlink:href="#mccfe111b71" y="554.04"/>
     <use style="fill:#808080;stroke:#808080;" x="393.107143" xlink:href="#mccfe111b71" y="554.04"/>
     <use style="fill:#808080;stroke:#808080;" x="395.1" xlink:href="#mccfe111b71" y="554.04"/>
     <use style="fill:#808080;stroke:#808080;" x="397.092857" xlink:href="#mccfe111b71" y="554.04"/>
     <use style="fill:#808080;stroke:#808080;" x="399.085714" xlink:href="#mccfe111b71" y="554.04"/>
     <use style="fill:#808080;stroke:#808080;" x="401.078571" xlink:href="#mccfe111b71" y="503.64"/>
     <use style="fill:#808080;stroke:#808080;" x="403.071429" xlink:href="#mccfe111b71" y="554.04"/>
     <use style="fill:#808080;stroke:#808080;" x="405.064286" xlink:href="#mccfe111b71" y="554.04"/>
     <use style="fill:#808080;stroke:#808080;" x="407.057143" xlink:href="#mccfe111b71" y="554.04"/>
     <use style="fill:#808080;stroke:#808080;" x="409.05" xlink:href="#mccfe111b71" y="554.04"/>
     <use style="fill:#808080;stroke:#808080;" x="411.042857" xlink:href="#mccfe111b71" y="503.64"/>
     <use style="fill:#808080;stroke:#808080;" x="413.035714" xlink:href="#mccfe111b71" y="554.04"/>
     <use style="fill:#808080;stroke:#808080;" x="415.028571" xlink:href="#mccfe111b71" y="554.04"/>
     <use style="fill:#808080;stroke:#808080;" x="417.021429" xlink:href="#mccfe111b71" y="554.04"/>
     <use style="fill:#808080;stroke:#808080;" x="419.014286" xlink:href="#mccfe111b71" y="554.04"/>
     <use style="fill:#808080;stroke:#808080;" x="421.007143" xlink:href="#mccfe111b71" y="554.04"/>
     <use style="fill:#808080;stroke:#808080;" x="423" xlink:href="#mccfe111b71" y="554.04"/>
     <use style="fill:#808080;stroke:#808080;" x="424.992857" xlink:href="#mccfe111b71" y="554.04"/>
     <use style="fill:#808080;stroke:#808080;" x="426.985714" xlink:href="#mccfe111b71" y="554.04"/>
     <use style="fill:#808080;stroke:#808080;" x="428.978571" xlink:href="#mccfe111b71" y="554.04"/>
     <use style="fill:#808080;stroke:#808080;" x="430.971429" xlink:href="#mccfe111b71" y="554.04"/>
     <use style="fill:#808080;stroke:#808080;" x="432.964286" xlink:href="#mccfe111b71" y="554.04"/>
     <use style="fill:#808080;stroke:#808080;" x="434.957143" xlink:href="#mccfe111b71" y="554.04"/>
     <use style="fill:#808080;stroke:#808080;" x="436.95" xlink:href="#mccfe111b71" y="554.04"/>
     <use style="fill:#808080;stroke:#808080;" x="438.942857" xlink:href="#mccfe111b71" y="554.04"/>
     <use style="fill:#808080;stroke:#808080;" x="440.935714" xlink:href="#mccfe111b71" y="554.04"/>
     <use style="fill:#808080;stroke:#808080;" x="442.928571" xlink:href="#mccfe111b71" y="554.04"/>
     <use style="fill:#808080;stroke:#808080;" x="444.921429" xlink:href="#mccfe111b71" y="554.04"/>
     <use style="fill:#808080;stroke:#808080;" x="446.914286" xlink:href="#mccfe111b71" y="554.04"/>
     <use style="fill:#808080;stroke:#808080;" x="448.907143" xlink:href="#mccfe111b71" y="554.04"/>
     <use style="fill:#808080;stroke:#808080;" x="450.9" xlink:href="#mccfe111b71" y="503.64"/>
     <use style="fill:#808080;stroke:#808080;" x="452.892857" xlink:href="#mccfe111b71" y="554.04"/>
     <use style="fill:#808080;stroke:#808080;" x="454.885714" xlink:href="#mccfe111b71" y="554.04"/>
     <use style="fill:#808080;stroke:#808080;" x="456.878571" xlink:href="#mccfe111b71" y="554.04"/>
     <use style="fill:#808080;stroke:#808080;" x="458.871429" xlink:href="#mccfe111b71" y="554.04"/>
     <use style="fill:#808080;stroke:#808080;" x="460.864286" xlink:href="#mccfe111b71" y="554.04"/>
     <use style="fill:#808080;stroke:#808080;" x="462.857143" xlink:href="#mccfe111b71" y="554.04"/>
     <use style="fill:#808080;stroke:#808080;" x="464.85" xlink:href="#mccfe111b71" y="554.04"/>
     <use style="fill:#808080;stroke:#808080;" x="466.842857" xlink:href="#mccfe111b71" y="554.04"/>
     <use style="fill:#808080;stroke:#808080;" x="468.835714" xlink:href="#mccfe111b71" y="554.04"/>
     <use style="fill:#808080;stroke:#808080;" x="470.828571" xlink:href="#mccfe111b71" y="554.04"/>
     <use style="fill:#808080;stroke:#808080;" x="472.821429" xlink:href="#mccfe111b71" y="554.04"/>
     <use style="fill:#808080;stroke:#808080;" x="474.814286" xlink:href="#mccfe111b71" y="554.04"/>
     <use style="fill:#808080;stroke:#808080;" x="476.807143" xlink:href="#mccfe111b71" y="554.04"/>
     <use style="fill:#808080;stroke:#808080;" x="478.8" xlink:href="#mccfe111b71" y="554.04"/>
     <use style="fill:#808080;stroke:#808080;" x="480.792857" xlink:href="#mccfe111b71" y="554.04"/>
     <use style="fill:#808080;stroke:#808080;" x="482.785714" xlink:href="#mccfe111b71" y="554.04"/>
     <use style="fill:#808080;stroke:#808080;" x="484.778571" xlink:href="#mccfe111b71" y="554.04"/>
     <use style="fill:#808080;stroke:#808080;" x="486.771429" xlink:href="#mccfe111b71" y="554.04"/>
     <use style="fill:#808080;stroke:#808080;" x="488.764286" xlink:href="#mccfe111b71" y="554.04"/>
     <use style="fill:#808080;stroke:#808080;" x="490.757143" xlink:href="#mccfe111b71" y="554.04"/>
     <use style="fill:#808080;stroke:#808080;" x="492.75" xlink:href="#mccfe111b71" y="554.04"/>
     <use style="fill:#808080;stroke:#808080;" x="494.742857" xlink:href="#mccfe111b71" y="554.04"/>
     <use style="fill:#808080;stroke:#808080;" x="496.735714" xlink:href="#mccfe111b71" y="554.04"/>
     <use style="fill:#808080;stroke:#808080;" x="498.728571" xlink:href="#mccfe111b71" y="554.04"/>
     <use style="fill:#808080;stroke:#808080;" x="500.721429" xlink:href="#mccfe111b71" y="554.04"/>
     <use style="fill:#808080;stroke:#808080;" x="502.714286" xlink:href="#mccfe111b71" y="554.04"/>
     <use style="fill:#808080;stroke:#808080;" x="504.707143" xlink:href="#mccfe111b71" y="554.04"/>
     <use style="fill:#808080;stroke:#808080;" x="506.7" xlink:href="#mccfe111b71" y="554.04"/>
     <use style="fill:#808080;stroke:#808080;" x="508.692857" xlink:href="#mccfe111b71" y="554.04"/>
     <use style="fill:#808080;stroke:#808080;" x="510.685714" xlink:href="#mccfe111b71" y="554.04"/>
     <use style="fill:#808080;stroke:#808080;" x="512.678571" xlink:href="#mccfe111b71" y="554.04"/>
     <use style="fill:#808080;stroke:#808080;" x="514.671429" xlink:href="#mccfe111b71" y="554.04"/>
     <use style="fill:#808080;stroke:#808080;" x="516.664286" xlink:href="#mccfe111b71" y="503.64"/>
     <use style="fill:#808080;stroke:#808080;" x="518.657143" xlink:href="#mccfe111b71" y="503.64"/>
     <use style="fill:#808080;stroke:#808080;" x="520.65" xlink:href="#mccfe111b71" y="554.04"/>
     <use style="fill:#808080;stroke:#808080;" x="522.642857" xlink:href="#mccfe111b71" y="554.04"/>
     <use style="fill:#808080;stroke:#808080;" x="524.635714" xlink:href="#mccfe111b71" y="554.04"/>
     <use style="fill:#808080;stroke:#808080;" x="526.628571" xlink:href="#mccfe111b71" y="554.04"/>
     <use style="fill:#808080;stroke:#808080;" x="528.621429" xlink:href="#mccfe111b71" y="554.04"/>
     <use style="fill:#808080;stroke:#808080;" x="530.614286" xlink:href="#mccfe111b71" y="554.04"/>
     <use style="fill:#808080;stroke:#808080;" x="532.607143" xlink:href="#mccfe111b71" y="554.04"/>
     <use style="fill:#808080;stroke:#808080;" x="534.6" xlink:href="#mccfe111b71" y="554.04"/>
     <use style="fill:#808080;stroke:#808080;" x="536.592857" xlink:href="#mccfe111b71" y="554.04"/>
     <use style="fill:#808080;stroke:#808080;" x="538.585714" xlink:href="#mccfe111b71" y="554.04"/>
     <use style="fill:#808080;stroke:#808080;" x="540.578571" xlink:href="#mccfe111b71" y="554.04"/>
     <use style="fill:#808080;stroke:#808080;" x="542.571429" xlink:href="#mccfe111b71" y="503.64"/>
     <use style="fill:#808080;stroke:#808080;" x="544.564286" xlink:href="#mccfe111b71" y="554.04"/>
     <use style="fill:#808080;stroke:#808080;" x="546.557143" xlink:href="#mccfe111b71" y="554.04"/>
     <use style="fill:#808080;stroke:#808080;" x="548.55" xlink:href="#mccfe111b71" y="554.04"/>
     <use style="fill:#808080;stroke:#808080;" x="550.542857" xlink:href="#mccfe111b71" y="554.04"/>
     <use style="fill:#808080;stroke:#808080;" x="552.535714" xlink:href="#mccfe111b71" y="554.04"/>
     <use style="fill:#808080;stroke:#808080;" x="554.528571" xlink:href="#mccfe111b71" y="554.04"/>
     <use style="fill:#808080;stroke:#808080;" x="556.521429" xlink:href="#mccfe111b71" y="554.04"/>
     <use style="fill:#808080;stroke:#808080;" x="558.514286" xlink:href="#mccfe111b71" y="554.04"/>
     <use style="fill:#808080;stroke:#808080;" x="560.507143" xlink:href="#mccfe111b71" y="554.04"/>
     <use style="fill:#808080;stroke:#808080;" x="562.5" xlink:href="#mccfe111b71" y="554.04"/>
     <use style="fill:#808080;stroke:#808080;" x="564.492857" xlink:href="#mccfe111b71" y="554.04"/>
     <use style="fill:#808080;stroke:#808080;" x="566.485714" xlink:href="#mccfe111b71" y="554.04"/>
     <use style="fill:#808080;stroke:#808080;" x="568.478571" xlink:href="#mccfe111b71" y="554.04"/>
     <use style="fill:#808080;stroke:#808080;" x="570.471429" xlink:href="#mccfe111b71" y="554.04"/>
     <use style="fill:#808080;stroke:#808080;" x="572.464286" xlink:href="#mccfe111b71" y="554.04"/>
     <use style="fill:#808080;stroke:#808080;" x="574.457143" xlink:href="#mccfe111b71" y="554.04"/>
     <use style="fill:#808080;stroke:#808080;" x="576.45" xlink:href="#mccfe111b71" y="554.04"/>
     <use style="fill:#808080;stroke:#808080;" x="578.442857" xlink:href="#mccfe111b71" y="554.04"/>
     <use style="fill:#808080;stroke:#808080;" x="580.435714" xlink:href="#mccfe111b71" y="554.04"/>
     <use style="fill:#808080;stroke:#808080;" x="582.428571" xlink:href="#mccfe111b71" y="554.04"/>
     <use style="fill:#808080;stroke:#808080;" x="584.421429" xlink:href="#mccfe111b71" y="554.04"/>
     <use style="fill:#808080;stroke:#808080;" x="586.414286" xlink:href="#mccfe111b71" y="554.04"/>
     <use style="fill:#808080;stroke:#808080;" x="588.407143" xlink:href="#mccfe111b71" y="503.64"/>
     <use style="fill:#808080;stroke:#808080;" x="590.4" xlink:href="#mccfe111b71" y="554.04"/>
     <use style="fill:#808080;stroke:#808080;" x="592.392857" xlink:href="#mccfe111b71" y="554.04"/>
     <use style="fill:#808080;stroke:#808080;" x="594.385714" xlink:href="#mccfe111b71" y="554.04"/>
     <use style="fill:#808080;stroke:#808080;" x="596.378571" xlink:href="#mccfe111b71" y="503.64"/>
     <use style="fill:#808080;stroke:#808080;" x="598.371429" xlink:href="#mccfe111b71" y="554.04"/>
     <use style="fill:#808080;stroke:#808080;" x="600.364286" xlink:href="#mccfe111b71" y="503.64"/>
     <use style="fill:#808080;stroke:#808080;" x="602.357143" xlink:href="#mccfe111b71" y="554.04"/>
     <use style="fill:#808080;stroke:#808080;" x="604.35" xlink:href="#mccfe111b71" y="554.04"/>
     <use style="fill:#808080;stroke:#808080;" x="606.342857" xlink:href="#mccfe111b71" y="554.04"/>
     <use style="fill:#808080;stroke:#808080;" x="608.335714" xlink:href="#mccfe111b71" y="503.64"/>
     <use style="fill:#808080;stroke:#808080;" x="610.328571" xlink:href="#mccfe111b71" y="554.04"/>
     <use style="fill:#808080;stroke:#808080;" x="612.321429" xlink:href="#mccfe111b71" y="554.04"/>
     <use style="fill:#808080;stroke:#808080;" x="614.314286" xlink:href="#mccfe111b71" y="554.04"/>
     <use style="fill:#808080;stroke:#808080;" x="616.307143" xlink:href="#mccfe111b71" y="554.04"/>
     <use style="fill:#808080;stroke:#808080;" x="618.3" xlink:href="#mccfe111b71" y="554.04"/>
     <use style="fill:#808080;stroke:#808080;" x="620.292857" xlink:href="#mccfe111b71" y="503.64"/>
     <use style="fill:#808080;stroke:#808080;" x="622.285714" xlink:href="#mccfe111b71" y="554.04"/>
     <use style="fill:#808080;stroke:#808080;" x="624.278571" xlink:href="#mccfe111b71" y="554.04"/>
     <use style="fill:#808080;stroke:#808080;" x="626.271429" xlink:href="#mccfe111b71" y="453.24"/>
     <use style="fill:#808080;stroke:#808080;" x="628.264286" xlink:href="#mccfe111b71" y="554.04"/>
     <use style="fill:#808080;stroke:#808080;" x="630.257143" xlink:href="#mccfe111b71" y="402.84"/>
     <use style="fill:#808080;stroke:#808080;" x="632.25" xlink:href="#mccfe111b71" y="503.64"/>
     <use style="fill:#808080;stroke:#808080;" x="634.242857" xlink:href="#mccfe111b71" y="453.24"/>
     <use style="fill:#808080;stroke:#808080;" x="636.235714" xlink:href="#mccfe111b71" y="554.04"/>
     <use style="fill:#808080;stroke:#808080;" x="638.228571" xlink:href="#mccfe111b71" y="503.64"/>
     <use style="fill:#808080;stroke:#808080;" x="640.221429" xlink:href="#mccfe111b71" y="352.44"/>
     <use style="fill:#808080;stroke:#808080;" x="642.214286" xlink:href="#mccfe111b71" y="503.64"/>
     <use style="fill:#808080;stroke:#808080;" x="644.207143" xlink:href="#mccfe111b71" y="453.24"/>
     <use style="fill:#808080;stroke:#808080;" x="646.2" xlink:href="#mccfe111b71" y="503.64"/>
     <use style="fill:#808080;stroke:#808080;" x="648.192857" xlink:href="#mccfe111b71" y="352.44"/>
     <use style="fill:#808080;stroke:#808080;" x="650.185714" xlink:href="#mccfe111b71" y="503.64"/>
     <use style="fill:#808080;stroke:#808080;" x="652.178571" xlink:href="#mccfe111b71" y="503.64"/>
     <use style="fill:#808080;stroke:#808080;" x="654.171429" xlink:href="#mccfe111b71" y="503.64"/>
     <use style="fill:#808080;stroke:#808080;" x="656.164286" xlink:href="#mccfe111b71" y="503.64"/>
     <use style="fill:#808080;stroke:#808080;" x="658.157143" xlink:href="#mccfe111b71" y="554.04"/>
     <use style="fill:#808080;stroke:#808080;" x="660.15" xlink:href="#mccfe111b71" y="352.44"/>
     <use style="fill:#808080;stroke:#808080;" x="662.142857" xlink:href="#mccfe111b71" y="503.64"/>
     <use style="fill:#808080;stroke:#808080;" x="664.135714" xlink:href="#mccfe111b71" y="554.04"/>
     <use style="fill:#808080;stroke:#808080;" x="666.128571" xlink:href="#mccfe111b71" y="402.84"/>
     <use style="fill:#808080;stroke:#808080;" x="668.121429" xlink:href="#mccfe111b71" y="503.64"/>
     <use style="fill:#808080;stroke:#808080;" x="670.114286" xlink:href="#mccfe111b71" y="352.44"/>
     <use style="fill:#808080;stroke:#808080;" x="672.107143" xlink:href="#mccfe111b71" y="503.64"/>
     <use style="fill:#808080;stroke:#808080;" x="674.1" xlink:href="#mccfe111b71" y="503.64"/>
     <use style="fill:#808080;stroke:#808080;" x="676.092857" xlink:href="#mccfe111b71" y="503.64"/>
     <use style="fill:#808080;stroke:#808080;" x="678.085714" xlink:href="#mccfe111b71" y="503.64"/>
     <use style="fill:#808080;stroke:#808080;" x="680.078571" xlink:href="#mccfe111b71" y="453.24"/>
     <use style="fill:#808080;stroke:#808080;" x="682.071429" xlink:href="#mccfe111b71" y="352.44"/>
     <use style="fill:#808080;stroke:#808080;" x="684.064286" xlink:href="#mccfe111b71" y="503.64"/>
     <use style="fill:#808080;stroke:#808080;" x="686.057143" xlink:href="#mccfe111b71" y="503.64"/>
     <use style="fill:#808080;stroke:#808080;" x="688.05" xlink:href="#mccfe111b71" y="554.04"/>
     <use style="fill:#808080;stroke:#808080;" x="690.042857" xlink:href="#mccfe111b71" y="453.24"/>
     <use style="fill:#808080;stroke:#808080;" x="692.035714" xlink:href="#mccfe111b71" y="554.04"/>
     <use style="fill:#808080;stroke:#808080;" x="694.028571" xlink:href="#mccfe111b71" y="453.24"/>
     <use style="fill:#808080;stroke:#808080;" x="696.021429" xlink:href="#mccfe111b71" y="302.04"/>
     <use style="fill:#808080;stroke:#808080;" x="698.014286" xlink:href="#mccfe111b71" y="453.24"/>
     <use style="fill:#808080;stroke:#808080;" x="700.007143" xlink:href="#mccfe111b71" y="352.44"/>
     <use style="fill:#808080;stroke:#808080;" x="702" xlink:href="#mccfe111b71" y="402.84"/>
     <use style="fill:#808080;stroke:#808080;" x="703.992857" xlink:href="#mccfe111b71" y="503.64"/>
     <use style="fill:#808080;stroke:#808080;" x="705.985714" xlink:href="#mccfe111b71" y="402.84"/>
     <use style="fill:#808080;stroke:#808080;" x="707.978571" xlink:href="#mccfe111b71" y="503.64"/>
     <use style="fill:#808080;stroke:#808080;" x="709.971429" xlink:href="#mccfe111b71" y="453.24"/>
     <use style="fill:#808080;stroke:#808080;" x="711.964286" xlink:href="#mccfe111b71" y="402.84"/>
     <use style="fill:#808080;stroke:#808080;" x="713.957143" xlink:href="#mccfe111b71" y="302.04"/>
     <use style="fill:#808080;stroke:#808080;" x="715.95" xlink:href="#mccfe111b71" y="402.84"/>
     <use style="fill:#808080;stroke:#808080;" x="717.942857" xlink:href="#mccfe111b71" y="554.04"/>
     <use style="fill:#808080;stroke:#808080;" x="719.935714" xlink:href="#mccfe111b71" y="352.44"/>
     <use style="fill:#808080;stroke:#808080;" x="721.928571" xlink:href="#mccfe111b71" y="352.44"/>
     <use style="fill:#808080;stroke:#808080;" x="723.921429" xlink:href="#mccfe111b71" y="503.64"/>
     <use style="fill:#808080;stroke:#808080;" x="725.914286" xlink:href="#mccfe111b71" y="503.64"/>
     <use style="fill:#808080;stroke:#808080;" x="727.907143" xlink:href="#mccfe111b71" y="402.84"/>
     <use style="fill:#808080;stroke:#808080;" x="729.9" xlink:href="#mccfe111b71" y="453.24"/>
     <use style="fill:#808080;stroke:#808080;" x="731.892857" xlink:href="#mccfe111b71" y="453.24"/>
     <use style="fill:#808080;stroke:#808080;" x="733.885714" xlink:href="#mccfe111b71" y="503.64"/>
     <use style="fill:#808080;stroke:#808080;" x="735.878571" xlink:href="#mccfe111b71" y="402.84"/>
     <use style="fill:#808080;stroke:#808080;" x="737.871429" xlink:href="#mccfe111b71" y="503.64"/>
     <use style="fill:#808080;stroke:#808080;" x="739.864286" xlink:href="#mccfe111b71" y="402.84"/>
     <use style="fill:#808080;stroke:#808080;" x="741.857143" xlink:href="#mccfe111b71" y="453.24"/>
     <use style="fill:#808080;stroke:#808080;" x="743.85" xlink:href="#mccfe111b71" y="554.04"/>
     <use style="fill:#808080;stroke:#808080;" x="745.842857" xlink:href="#mccfe111b71" y="503.64"/>
     <use style="fill:#808080;stroke:#808080;" x="747.835714" xlink:href="#mccfe111b71" y="352.44"/>
     <use style="fill:#808080;stroke:#808080;" x="749.828571" xlink:href="#mccfe111b71" y="503.64"/>
     <use style="fill:#808080;stroke:#808080;" x="751.821429" xlink:href="#mccfe111b71" y="402.84"/>
     <use style="fill:#808080;stroke:#808080;" x="753.814286" xlink:href="#mccfe111b71" y="302.04"/>
     <use style="fill:#808080;stroke:#808080;" x="755.807143" xlink:href="#mccfe111b71" y="402.84"/>
     <use style="fill:#808080;stroke:#808080;" x="757.8" xlink:href="#mccfe111b71" y="453.24"/>
     <use style="fill:#808080;stroke:#808080;" x="759.792857" xlink:href="#mccfe111b71" y="302.04"/>
     <use style="fill:#808080;stroke:#808080;" x="761.785714" xlink:href="#mccfe111b71" y="503.64"/>
     <use style="fill:#808080;stroke:#808080;" x="763.778571" xlink:href="#mccfe111b71" y="453.24"/>
     <use style="fill:#808080;stroke:#808080;" x="765.771429" xlink:href="#mccfe111b71" y="352.44"/>
     <use style="fill:#808080;stroke:#808080;" x="767.764286" xlink:href="#mccfe111b71" y="503.64"/>
     <use style="fill:#808080;stroke:#808080;" x="769.757143" xlink:href="#mccfe111b71" y="554.04"/>
     <use style="fill:#808080;stroke:#808080;" x="771.75" xlink:href="#mccfe111b71" y="352.44"/>
     <use style="fill:#808080;stroke:#808080;" x="773.742857" xlink:href="#mccfe111b71" y="251.64"/>
     <use style="fill:#808080;stroke:#808080;" x="775.735714" xlink:href="#mccfe111b71" y="402.84"/>
     <use style="fill:#808080;stroke:#808080;" x="777.728571" xlink:href="#mccfe111b71" y="503.64"/>
     <use style="fill:#808080;stroke:#808080;" x="779.721429" xlink:href="#mccfe111b71" y="453.24"/>
     <use style="fill:#808080;stroke:#808080;" x="781.714286" xlink:href="#mccfe111b71" y="503.64"/>
     <use style="fill:#808080;stroke:#808080;" x="783.707143" xlink:href="#mccfe111b71" y="503.64"/>
     <use style="fill:#808080;stroke:#808080;" x="785.7" xlink:href="#mccfe111b71" y="554.04"/>
     <use style="fill:#808080;stroke:#808080;" x="787.692857" xlink:href="#mccfe111b71" y="402.84"/>
     <use style="fill:#808080;stroke:#808080;" x="789.685714" xlink:href="#mccfe111b71" y="503.64"/>
     <use style="fill:#808080;stroke:#808080;" x="791.678571" xlink:href="#mccfe111b71" y="503.64"/>
     <use style="fill:#808080;stroke:#808080;" x="793.671429" xlink:href="#mccfe111b71" y="302.04"/>
     <use style="fill:#808080;stroke:#808080;" x="795.664286" xlink:href="#mccfe111b71" y="453.24"/>
     <use style="fill:#808080;stroke:#808080;" x="797.657143" xlink:href="#mccfe111b71" y="503.64"/>
     <use style="fill:#808080;stroke:#808080;" x="799.65" xlink:href="#mccfe111b71" y="150.84"/>
     <use style="fill:#808080;stroke:#808080;" x="801.642857" xlink:href="#mccfe111b71" y="453.24"/>
     <use style="fill:#808080;stroke:#808080;" x="803.635714" xlink:href="#mccfe111b71" y="503.64"/>
     <use style="fill:#808080;stroke:#808080;" x="805.628571" xlink:href="#mccfe111b71" y="453.24"/>
     <use style="fill:#808080;stroke:#808080;" x="807.621429" xlink:href="#mccfe111b71" y="453.24"/>
     <use style="fill:#808080;stroke:#808080;" x="809.614286" xlink:href="#mccfe111b71" y="453.24"/>
     <use style="fill:#808080;stroke:#808080;" x="811.607143" xlink:href="#mccfe111b71" y="453.24"/>
     <use style="fill:#808080;stroke:#808080;" x="813.6" xlink:href="#mccfe111b71" y="251.64"/>
     <use style="fill:#808080;stroke:#808080;" x="815.592857" xlink:href="#mccfe111b71" y="503.64"/>
     <use style="fill:#808080;stroke:#808080;" x="817.585714" xlink:href="#mccfe111b71" y="453.24"/>
     <use style="fill:#808080;stroke:#808080;" x="819.578571" xlink:href="#mccfe111b71" y="554.04"/>
     <use style="fill:#808080;stroke:#808080;" x="821.571429" xlink:href="#mccfe111b71" y="302.04"/>
     <use style="fill:#808080;stroke:#808080;" x="823.564286" xlink:href="#mccfe111b71" y="302.04"/>
     <use style="fill:#808080;stroke:#808080;" x="825.557143" xlink:href="#mccfe111b71" y="302.04"/>
     <use style="fill:#808080;stroke:#808080;" x="827.55" xlink:href="#mccfe111b71" y="453.24"/>
     <use style="fill:#808080;stroke:#808080;" x="829.542857" xlink:href="#mccfe111b71" y="503.64"/>
     <use style="fill:#808080;stroke:#808080;" x="831.535714" xlink:href="#mccfe111b71" y="554.04"/>
     <use style="fill:#808080;stroke:#808080;" x="833.528571" xlink:href="#mccfe111b71" y="352.44"/>
     <use style="fill:#808080;stroke:#808080;" x="835.521429" xlink:href="#mccfe111b71" y="402.84"/>
     <use style="fill:#808080;stroke:#808080;" x="837.514286" xlink:href="#mccfe111b71" y="150.84"/>
     <use style="fill:#808080;stroke:#808080;" x="839.507143" xlink:href="#mccfe111b71" y="352.44"/>
     <use style="fill:#808080;stroke:#808080;" x="841.5" xlink:href="#mccfe111b71" y="503.64"/>
     <use style="fill:#808080;stroke:#808080;" x="843.492857" xlink:href="#mccfe111b71" y="503.64"/>
     <use style="fill:#808080;stroke:#808080;" x="845.485714" xlink:href="#mccfe111b71" y="402.84"/>
     <use style="fill:#808080;stroke:#808080;" x="847.478571" xlink:href="#mccfe111b71" y="453.24"/>
     <use style="fill:#808080;stroke:#808080;" x="849.471429" xlink:href="#mccfe111b71" y="453.24"/>
     <use style="fill:#808080;stroke:#808080;" x="851.464286" xlink:href="#mccfe111b71" y="453.24"/>
     <use style="fill:#808080;stroke:#808080;" x="853.457143" xlink:href="#mccfe111b71" y="503.64"/>
     <use style="fill:#808080;stroke:#808080;" x="855.45" xlink:href="#mccfe111b71" y="554.04"/>
     <use style="fill:#808080;stroke:#808080;" x="857.442857" xlink:href="#mccfe111b71" y="352.44"/>
     <use style="fill:#808080;stroke:#808080;" x="859.435714" xlink:href="#mccfe111b71" y="302.04"/>
     <use style="fill:#808080;stroke:#808080;" x="861.428571" xlink:href="#mccfe111b71" y="503.64"/>
     <use style="fill:#808080;stroke:#808080;" x="863.421429" xlink:href="#mccfe111b71" y="554.04"/>
     <use style="fill:#808080;stroke:#808080;" x="865.414286" xlink:href="#mccfe111b71" y="453.24"/>
     <use style="fill:#808080;stroke:#808080;" x="867.407143" xlink:href="#mccfe111b71" y="554.04"/>
     <use style="fill:#808080;stroke:#808080;" x="869.4" xlink:href="#mccfe111b71" y="352.44"/>
     <use style="fill:#808080;stroke:#808080;" x="871.392857" xlink:href="#mccfe111b71" y="352.44"/>
     <use style="fill:#808080;stroke:#808080;" x="873.385714" xlink:href="#mccfe111b71" y="453.24"/>
     <use style="fill:#808080;stroke:#808080;" x="875.378571" xlink:href="#mccfe111b71" y="453.24"/>
     <use style="fill:#808080;stroke:#808080;" x="877.371429" xlink:href="#mccfe111b71" y="503.64"/>
     <use style="fill:#808080;stroke:#808080;" x="879.364286" xlink:href="#mccfe111b71" y="352.44"/>
     <use style="fill:#808080;stroke:#808080;" x="881.357143" xlink:href="#mccfe111b71" y="352.44"/>
     <use style="fill:#808080;stroke:#808080;" x="883.35" xlink:href="#mccfe111b71" y="302.04"/>
     <use style="fill:#808080;stroke:#808080;" x="885.342857" xlink:href="#mccfe111b71" y="100.44"/>
     <use style="fill:#808080;stroke:#808080;" x="887.335714" xlink:href="#mccfe111b71" y="453.24"/>
     <use style="fill:#808080;stroke:#808080;" x="889.328571" xlink:href="#mccfe111b71" y="554.04"/>
     <use style="fill:#808080;stroke:#808080;" x="891.321429" xlink:href="#mccfe111b71" y="453.24"/>
     <use style="fill:#808080;stroke:#808080;" x="893.314286" xlink:href="#mccfe111b71" y="453.24"/>
     <use style="fill:#808080;stroke:#808080;" x="895.307143" xlink:href="#mccfe111b71" y="302.04"/>
     <use style="fill:#808080;stroke:#808080;" x="897.3" xlink:href="#mccfe111b71" y="402.84"/>
     <use style="fill:#808080;stroke:#808080;" x="899.292857" xlink:href="#mccfe111b71" y="554.04"/>
     <use style="fill:#808080;stroke:#808080;" x="901.285714" xlink:href="#mccfe111b71" y="554.04"/>
     <use style="fill:#808080;stroke:#808080;" x="903.278571" xlink:href="#mccfe111b71" y="554.04"/>
     <use style="fill:#808080;stroke:#808080;" x="905.271429" xlink:href="#mccfe111b71" y="503.64"/>
     <use style="fill:#808080;stroke:#808080;" x="907.264286" xlink:href="#mccfe111b71" y="453.24"/>
     <use style="fill:#808080;stroke:#808080;" x="909.257143" xlink:href="#mccfe111b71" y="352.44"/>
     <use style="fill:#808080;stroke:#808080;" x="911.25" xlink:href="#mccfe111b71" y="302.04"/>
     <use style="fill:#808080;stroke:#808080;" x="913.242857" xlink:href="#mccfe111b71" y="503.64"/>
     <use style="fill:#808080;stroke:#808080;" x="915.235714" xlink:href="#mccfe111b71" y="503.64"/>
     <use style="fill:#808080;stroke:#808080;" x="917.228571" xlink:href="#mccfe111b71" y="554.04"/>
     <use style="fill:#808080;stroke:#808080;" x="919.221429" xlink:href="#mccfe111b71" y="402.84"/>
     <use style="fill:#808080;stroke:#808080;" x="921.214286" xlink:href="#mccfe111b71" y="503.64"/>
     <use style="fill:#808080;stroke:#808080;" x="923.207143" xlink:href="#mccfe111b71" y="453.24"/>
     <use style="fill:#808080;stroke:#808080;" x="925.2" xlink:href="#mccfe111b71" y="453.24"/>
     <use style="fill:#808080;stroke:#808080;" x="927.192857" xlink:href="#mccfe111b71" y="503.64"/>
     <use style="fill:#808080;stroke:#808080;" x="929.185714" xlink:href="#mccfe111b71" y="554.04"/>
     <use style="fill:#808080;stroke:#808080;" x="931.178571" xlink:href="#mccfe111b71" y="554.04"/>
     <use style="fill:#808080;stroke:#808080;" x="933.171429" xlink:href="#mccfe111b71" y="503.64"/>
     <use style="fill:#808080;stroke:#808080;" x="935.164286" xlink:href="#mccfe111b71" y="453.24"/>
     <use style="fill:#808080;stroke:#808080;" x="937.157143" xlink:href="#mccfe111b71" y="453.24"/>
     <use style="fill:#808080;stroke:#808080;" x="939.15" xlink:href="#mccfe111b71" y="554.04"/>
     <use style="fill:#808080;stroke:#808080;" x="941.142857" xlink:href="#mccfe111b71" y="554.04"/>
     <use style="fill:#808080;stroke:#808080;" x="943.135714" xlink:href="#mccfe111b71" y="554.04"/>
     <use style="fill:#808080;stroke:#808080;" x="945.128571" xlink:href="#mccfe111b71" y="503.64"/>
     <use style="fill:#808080;stroke:#808080;" x="947.121429" xlink:href="#mccfe111b71" y="453.24"/>
     <use style="fill:#808080;stroke:#808080;" x="949.114286" xlink:href="#mccfe111b71" y="453.24"/>
     <use style="fill:#808080;stroke:#808080;" x="951.107143" xlink:href="#mccfe111b71" y="402.84"/>
     <use style="fill:#808080;stroke:#808080;" x="953.1" xlink:href="#mccfe111b71" y="402.84"/>
     <use style="fill:#808080;stroke:#808080;" x="955.092857" xlink:href="#mccfe111b71" y="453.24"/>
     <use style="fill:#808080;stroke:#808080;" x="957.085714" xlink:href="#mccfe111b71" y="503.64"/>
     <use style="fill:#808080;stroke:#808080;" x="959.078571" xlink:href="#mccfe111b71" y="554.04"/>
     <use style="fill:#808080;stroke:#808080;" x="961.071429" xlink:href="#mccfe111b71" y="453.24"/>
     <use style="fill:#808080;stroke:#808080;" x="963.064286" xlink:href="#mccfe111b71" y="302.04"/>
     <use style="fill:#808080;stroke:#808080;" x="965.057143" xlink:href="#mccfe111b71" y="554.04"/>
     <use style="fill:#808080;stroke:#808080;" x="967.05" xlink:href="#mccfe111b71" y="251.64"/>
     <use style="fill:#808080;stroke:#808080;" x="969.042857" xlink:href="#mccfe111b71" y="453.24"/>
     <use style="fill:#808080;stroke:#808080;" x="971.035714" xlink:href="#mccfe111b71" y="554.04"/>
     <use style="fill:#808080;stroke:#808080;" x="973.028571" xlink:href="#mccfe111b71" y="554.04"/>
     <use style="fill:#808080;stroke:#808080;" x="975.021429" xlink:href="#mccfe111b71" y="503.64"/>
     <use style="fill:#808080;stroke:#808080;" x="977.014286" xlink:href="#mccfe111b71" y="352.44"/>
     <use style="fill:#808080;stroke:#808080;" x="979.007143" xlink:href="#mccfe111b71" y="402.84"/>
     <use style="fill:#808080;stroke:#808080;" x="981" xlink:href="#mccfe111b71" y="554.04"/>
     <use style="fill:#808080;stroke:#808080;" x="982.992857" xlink:href="#mccfe111b71" y="503.64"/>
     <use style="fill:#808080;stroke:#808080;" x="984.985714" xlink:href="#mccfe111b71" y="554.04"/>
     <use style="fill:#808080;stroke:#808080;" x="986.978571" xlink:href="#mccfe111b71" y="453.24"/>
     <use style="fill:#808080;stroke:#808080;" x="988.971429" xlink:href="#mccfe111b71" y="503.64"/>
     <use style="fill:#808080;stroke:#808080;" x="990.964286" xlink:href="#mccfe111b71" y="352.44"/>
     <use style="fill:#808080;stroke:#808080;" x="992.957143" xlink:href="#mccfe111b71" y="453.24"/>
     <use style="fill:#808080;stroke:#808080;" x="994.95" xlink:href="#mccfe111b71" y="554.04"/>
     <use style="fill:#808080;stroke:#808080;" x="996.942857" xlink:href="#mccfe111b71" y="503.64"/>
     <use style="fill:#808080;stroke:#808080;" x="998.935714" xlink:href="#mccfe111b71" y="554.04"/>
     <use style="fill:#808080;stroke:#808080;" x="1000.928571" xlink:href="#mccfe111b71" y="554.04"/>
     <use style="fill:#808080;stroke:#808080;" x="1002.921429" xlink:href="#mccfe111b71" y="554.04"/>
     <use style="fill:#808080;stroke:#808080;" x="1004.914286" xlink:href="#mccfe111b71" y="554.04"/>
     <use style="fill:#808080;stroke:#808080;" x="1006.907143" xlink:href="#mccfe111b71" y="352.44"/>
     <use style="fill:#808080;stroke:#808080;" x="1008.9" xlink:href="#mccfe111b71" y="402.84"/>
     <use style="fill:#808080;stroke:#808080;" x="1010.892857" xlink:href="#mccfe111b71" y="554.04"/>
     <use style="fill:#808080;stroke:#808080;" x="1012.885714" xlink:href="#mccfe111b71" y="554.04"/>
     <use style="fill:#808080;stroke:#808080;" x="1014.878571" xlink:href="#mccfe111b71" y="453.24"/>
     <use style="fill:#808080;stroke:#808080;" x="1016.871429" xlink:href="#mccfe111b71" y="554.04"/>
     <use style="fill:#808080;stroke:#808080;" x="1018.864286" xlink:href="#mccfe111b71" y="503.64"/>
     <use style="fill:#808080;stroke:#808080;" x="1020.857143" xlink:href="#mccfe111b71" y="402.84"/>
     <use style="fill:#808080;stroke:#808080;" x="1022.85" xlink:href="#mccfe111b71" y="554.04"/>
     <use style="fill:#808080;stroke:#808080;" x="1024.842857" xlink:href="#mccfe111b71" y="503.64"/>
     <use style="fill:#808080;stroke:#808080;" x="1026.835714" xlink:href="#mccfe111b71" y="554.04"/>
     <use style="fill:#808080;stroke:#808080;" x="1028.828571" xlink:href="#mccfe111b71" y="554.04"/>
     <use style="fill:#808080;stroke:#808080;" x="1030.821429" xlink:href="#mccfe111b71" y="503.64"/>
     <use style="fill:#808080;stroke:#808080;" x="1032.814286" xlink:href="#mccfe111b71" y="554.04"/>
     <use style="fill:#808080;stroke:#808080;" x="1034.807143" xlink:href="#mccfe111b71" y="503.64"/>
     <use style="fill:#808080;stroke:#808080;" x="1036.8" xlink:href="#mccfe111b71" y="503.64"/>
    </g>
   </g>
   <g id="patch_3">
    <path d="M 144 576.72 
L 144 77.76 
" style="fill:none;stroke:#000000;stroke-linecap:square;stroke-linejoin:miter;stroke-width:0.8;"/>
   </g>
   <g id="patch_4">
    <path d="M 1036.8 576.72 
L 1036.8 77.76 
" style="fill:none;stroke:#000000;stroke-linecap:square;stroke-linejoin:miter;stroke-width:0.8;"/>
   </g>
   <g id="patch_5">
    <path d="M 144 576.72 
L 1036.8 576.72 
" style="fill:none;stroke:#000000;stroke-linecap:square;stroke-linejoin:miter;stroke-width:0.8;"/>
   </g>
   <g id="patch_6">
    <path d="M 144 77.76 
L 1036.8 77.76 
" style="fill:none;stroke:#000000;stroke-linecap:square;stroke-linejoin:miter;stroke-width:0.8;"/>
   </g>
   <g id="legend_1">
    <g id="patch_7">
     <path d="M 151 159.150625 
L 297.35625 159.150625 
Q 299.35625 159.150625 299.35625 157.150625 
L 299.35625 84.76 
Q 299.35625 82.76 297.35625 82.76 
L 151 82.76 
Q 149 82.76 149 84.76 
L 149 157.150625 
Q 149 159.150625 151 159.150625 
z
" style="fill:#ffffff;opacity:0.8;stroke:#cccccc;stroke-linejoin:miter;"/>
    </g>
    <g id="line2d_24">
     <path d="M 153 90.858438 
L 173 90.858438 
" style="fill:none;stroke:#808080;stroke-dasharray:1.5,2.475;stroke-dashoffset:0;stroke-width:1.5;"/>
    </g>
    <g id="line2d_25">
     <g>
      <use style="fill:#808080;stroke:#808080;" x="163" xlink:href="#mccfe111b71" y="90.858438"/>
     </g>
    </g>
    <g id="text_12">
     <!-- Deaths -->
     <g transform="translate(181 94.358438)scale(0.1 -0.1)">
      <defs>
       <path d="M 1259 4147 
L 1259 519 
L 2022 519 
Q 2988 519 3436 956 
Q 3884 1394 3884 2338 
Q 3884 3275 3436 3711 
Q 2988 4147 2022 4147 
L 1259 4147 
z
M 628 4666 
L 1925 4666 
Q 3281 4666 3915 4102 
Q 4550 3538 4550 2338 
Q 4550 1131 3912 565 
Q 3275 0 1925 0 
L 628 0 
L 628 4666 
z
" id="DejaVuSans-44" transform="scale(0.015625)"/>
       <path d="M 3597 1894 
L 3597 1613 
L 953 1613 
Q 991 1019 1311 708 
Q 1631 397 2203 397 
Q 2534 397 2845 478 
Q 3156 559 3463 722 
L 3463 178 
Q 3153 47 2828 -22 
Q 2503 -91 2169 -91 
Q 1331 -91 842 396 
Q 353 884 353 1716 
Q 353 2575 817 3079 
Q 1281 3584 2069 3584 
Q 2775 3584 3186 3129 
Q 3597 2675 3597 1894 
z
M 3022 2063 
Q 3016 2534 2758 2815 
Q 2500 3097 2075 3097 
Q 1594 3097 1305 2825 
Q 1016 2553 972 2059 
L 3022 2063 
z
" id="DejaVuSans-65" transform="scale(0.015625)"/>
       <path d="M 3513 2113 
L 3513 0 
L 2938 0 
L 2938 2094 
Q 2938 2591 2744 2837 
Q 2550 3084 2163 3084 
Q 1697 3084 1428 2787 
Q 1159 2491 1159 1978 
L 1159 0 
L 581 0 
L 581 4863 
L 1159 4863 
L 1159 2956 
Q 1366 3272 1645 3428 
Q 1925 3584 2291 3584 
Q 2894 3584 3203 3211 
Q 3513 2838 3513 2113 
z
" id="DejaVuSans-68" transform="scale(0.015625)"/>
       <path d="M 2834 3397 
L 2834 2853 
Q 2591 2978 2328 3040 
Q 2066 3103 1784 3103 
Q 1356 3103 1142 2972 
Q 928 2841 928 2578 
Q 928 2378 1081 2264 
Q 1234 2150 1697 2047 
L 1894 2003 
Q 2506 1872 2764 1633 
Q 3022 1394 3022 966 
Q 3022 478 2636 193 
Q 2250 -91 1575 -91 
Q 1294 -91 989 -36 
Q 684 19 347 128 
L 347 722 
Q 666 556 975 473 
Q 1284 391 1588 391 
Q 1994 391 2212 530 
Q 2431 669 2431 922 
Q 2431 1156 2273 1281 
Q 2116 1406 1581 1522 
L 1381 1569 
Q 847 1681 609 1914 
Q 372 2147 372 2553 
Q 372 3047 722 3315 
Q 1072 3584 1716 3584 
Q 2034 3584 2315 3537 
Q 2597 3491 2834 3397 
z
" id="DejaVuSans-73" transform="scale(0.015625)"/>
      </defs>
      <use xlink:href="#DejaVuSans-44"/>
      <use x="77.001953" xlink:href="#DejaVuSans-65"/>
      <use x="138.525391" xlink:href="#DejaVuSans-61"/>
      <use x="199.804688" xlink:href="#DejaVuSans-74"/>
      <use x="239.013672" xlink:href="#DejaVuSans-68"/>
      <use x="302.392578" xlink:href="#DejaVuSans-73"/>
     </g>
    </g>
    <g id="line2d_26">
     <path d="M 153 105.536563 
L 173 105.536563 
" style="fill:none;stroke:#1f77b4;stroke-linecap:square;stroke-width:1.5;"/>
    </g>
    <g id="line2d_27"/>
    <g id="text_13">
     <!-- ICU low care (right) -->
     <g transform="translate(181 109.036563)scale(0.1 -0.1)">
      <defs>
       <path d="M 628 4666 
L 1259 4666 
L 1259 0 
L 628 0 
L 628 4666 
z
" id="DejaVuSans-49" transform="scale(0.015625)"/>
       <path d="M 4122 4306 
L 4122 3641 
Q 3803 3938 3442 4084 
Q 3081 4231 2675 4231 
Q 1875 4231 1450 3742 
Q 1025 3253 1025 2328 
Q 1025 1406 1450 917 
Q 1875 428 2675 428 
Q 3081 428 3442 575 
Q 3803 722 4122 1019 
L 4122 359 
Q 3791 134 3420 21 
Q 3050 -91 2638 -91 
Q 1578 -91 968 557 
Q 359 1206 359 2328 
Q 359 3453 968 4101 
Q 1578 4750 2638 4750 
Q 3056 4750 3426 4639 
Q 3797 4528 4122 4306 
z
" id="DejaVuSans-43" transform="scale(0.015625)"/>
       <path d="M 556 4666 
L 1191 4666 
L 1191 1831 
Q 1191 1081 1462 751 
Q 1734 422 2344 422 
Q 2950 422 3222 751 
Q 3494 1081 3494 1831 
L 3494 4666 
L 4128 4666 
L 4128 1753 
Q 4128 841 3676 375 
Q 3225 -91 2344 -91 
Q 1459 -91 1007 375 
Q 556 841 556 1753 
L 556 4666 
z
" id="DejaVuSans-55" transform="scale(0.015625)"/>
       <path id="DejaVuSans-20" transform="scale(0.015625)"/>
       <path d="M 1959 3097 
Q 1497 3097 1228 2736 
Q 959 2375 959 1747 
Q 959 1119 1226 758 
Q 1494 397 1959 397 
Q 2419 397 2687 759 
Q 2956 1122 2956 1747 
Q 2956 2369 2687 2733 
Q 2419 3097 1959 3097 
z
M 1959 3584 
Q 2709 3584 3137 3096 
Q 3566 2609 3566 1747 
Q 3566 888 3137 398 
Q 2709 -91 1959 -91 
Q 1206 -91 779 398 
Q 353 888 353 1747 
Q 353 2609 779 3096 
Q 1206 3584 1959 3584 
z
" id="DejaVuSans-6f" transform="scale(0.015625)"/>
       <path d="M 269 3500 
L 844 3500 
L 1563 769 
L 2278 3500 
L 2956 3500 
L 3675 769 
L 4391 3500 
L 4966 3500 
L 4050 0 
L 3372 0 
L 2619 2869 
L 1863 0 
L 1184 0 
L 269 3500 
z
" id="DejaVuSans-77" transform="scale(0.015625)"/>
       <path d="M 1984 4856 
Q 1566 4138 1362 3434 
Q 1159 2731 1159 2009 
Q 1159 1288 1364 580 
Q 1569 -128 1984 -844 
L 1484 -844 
Q 1016 -109 783 600 
Q 550 1309 550 2009 
Q 550 2706 781 3412 
Q 1013 4119 1484 4856 
L 1984 4856 
z
" id="DejaVuSans-28" transform="scale(0.015625)"/>
       <path d="M 603 3500 
L 1178 3500 
L 1178 0 
L 603 0 
L 603 3500 
z
M 603 4863 
L 1178 4863 
L 1178 4134 
L 603 4134 
L 603 4863 
z
" id="DejaVuSans-69" transform="scale(0.015625)"/>
       <path d="M 2906 1791 
Q 2906 2416 2648 2759 
Q 2391 3103 1925 3103 
Q 1463 3103 1205 2759 
Q 947 2416 947 1791 
Q 947 1169 1205 825 
Q 1463 481 1925 481 
Q 2391 481 2648 825 
Q 2906 1169 2906 1791 
z
M 3481 434 
Q 3481 -459 3084 -895 
Q 2688 -1331 1869 -1331 
Q 1566 -1331 1297 -1286 
Q 1028 -1241 775 -1147 
L 775 -588 
Q 1028 -725 1275 -790 
Q 1522 -856 1778 -856 
Q 2344 -856 2625 -561 
Q 2906 -266 2906 331 
L 2906 616 
Q 2728 306 2450 153 
Q 2172 0 1784 0 
Q 1141 0 747 490 
Q 353 981 353 1791 
Q 353 2603 747 3093 
Q 1141 3584 1784 3584 
Q 2172 3584 2450 3431 
Q 2728 3278 2906 2969 
L 2906 3500 
L 3481 3500 
L 3481 434 
z
" id="DejaVuSans-67" transform="scale(0.015625)"/>
       <path d="M 513 4856 
L 1013 4856 
Q 1481 4119 1714 3412 
Q 1947 2706 1947 2009 
Q 1947 1309 1714 600 
Q 1481 -109 1013 -844 
L 513 -844 
Q 928 -128 1133 580 
Q 1338 1288 1338 2009 
Q 1338 2731 1133 3434 
Q 928 4138 513 4856 
z
" id="DejaVuSans-29" transform="scale(0.015625)"/>
      </defs>
      <use xlink:href="#DejaVuSans-49"/>
      <use x="29.492188" xlink:href="#DejaVuSans-43"/>
      <use x="99.316406" xlink:href="#DejaVuSans-55"/>
      <use x="172.509766" xlink:href="#DejaVuSans-20"/>
      <use x="204.296875" xlink:href="#DejaVuSans-6c"/>
      <use x="232.080078" xlink:href="#DejaVuSans-6f"/>
      <use x="293.261719" xlink:href="#DejaVuSans-77"/>
      <use x="375.048828" xlink:href="#DejaVuSans-20"/>
      <use x="406.835938" xlink:href="#DejaVuSans-63"/>
      <use x="461.816406" xlink:href="#DejaVuSans-61"/>
      <use x="523.095703" xlink:href="#DejaVuSans-72"/>
      <use x="561.958984" xlink:href="#DejaVuSans-65"/>
      <use x="623.482422" xlink:href="#DejaVuSans-20"/>
      <use x="655.269531" xlink:href="#DejaVuSans-28"/>
      <use x="694.283203" xlink:href="#DejaVuSans-72"/>
      <use x="735.396484" xlink:href="#DejaVuSans-69"/>
      <use x="763.179688" xlink:href="#DejaVuSans-67"/>
      <use x="826.65625" xlink:href="#DejaVuSans-68"/>
      <use x="890.035156" xlink:href="#DejaVuSans-74"/>
      <use x="929.244141" xlink:href="#DejaVuSans-29"/>
     </g>
    </g>
    <g id="line2d_28">
     <path d="M 153 120.214688 
L 173 120.214688 
" style="fill:none;stroke:#ff7f0e;stroke-linecap:square;stroke-width:1.5;"/>
    </g>
    <g id="line2d_29"/>
    <g id="text_14">
     <!-- ICU high care (right) -->
     <g transform="translate(181 123.714688)scale(0.1 -0.1)">
      <use xlink:href="#DejaVuSans-49"/>
      <use x="29.492188" xlink:href="#DejaVuSans-43"/>
      <use x="99.316406" xlink:href="#DejaVuSans-55"/>
      <use x="172.509766" xlink:href="#DejaVuSans-20"/>
      <use x="204.296875" xlink:href="#DejaVuSans-68"/>
      <use x="267.675781" xlink:href="#DejaVuSans-69"/>
      <use x="295.458984" xlink:href="#DejaVuSans-67"/>
      <use x="358.935547" xlink:href="#DejaVuSans-68"/>
      <use x="422.314453" xlink:href="#DejaVuSans-20"/>
      <use x="454.101562" xlink:href="#DejaVuSans-63"/>
      <use x="509.082031" xlink:href="#DejaVuSans-61"/>
      <use x="570.361328" xlink:href="#DejaVuSans-72"/>
      <use x="609.224609" xlink:href="#DejaVuSans-65"/>
      <use x="670.748047" xlink:href="#DejaVuSans-20"/>
      <use x="702.535156" xlink:href="#DejaVuSans-28"/>
      <use x="741.548828" xlink:href="#DejaVuSans-72"/>
      <use x="782.662109" xlink:href="#DejaVuSans-69"/>
      <use x="810.445312" xlink:href="#DejaVuSans-67"/>
      <use x="873.921875" xlink:href="#DejaVuSans-68"/>
      <use x="937.300781" xlink:href="#DejaVuSans-74"/>
      <use x="976.509766" xlink:href="#DejaVuSans-29"/>
     </g>
    </g>
    <g id="line2d_30">
     <path d="M 153 134.892813 
L 173 134.892813 
" style="fill:none;stroke:#2ca02c;stroke-linecap:square;stroke-width:1.5;"/>
    </g>
    <g id="line2d_31"/>
    <g id="text_15">
     <!-- ECMO (right) -->
     <g transform="translate(181 138.392813)scale(0.1 -0.1)">
      <defs>
       <path d="M 628 4666 
L 3578 4666 
L 3578 4134 
L 1259 4134 
L 1259 2753 
L 3481 2753 
L 3481 2222 
L 1259 2222 
L 1259 531 
L 3634 531 
L 3634 0 
L 628 0 
L 628 4666 
z
" id="DejaVuSans-45" transform="scale(0.015625)"/>
       <path d="M 628 4666 
L 1569 4666 
L 2759 1491 
L 3956 4666 
L 4897 4666 
L 4897 0 
L 4281 0 
L 4281 4097 
L 3078 897 
L 2444 897 
L 1241 4097 
L 1241 0 
L 628 0 
L 628 4666 
z
" id="DejaVuSans-4d" transform="scale(0.015625)"/>
      </defs>
      <use xlink:href="#DejaVuSans-45"/>
      <use x="63.183594" xlink:href="#DejaVuSans-43"/>
      <use x="133.007812" xlink:href="#DejaVuSans-4d"/>
      <use x="219.287109" xlink:href="#DejaVuSans-4f"/>
      <use x="297.998047" xlink:href="#DejaVuSans-20"/>
      <use x="329.785156" xlink:href="#DejaVuSans-28"/>
      <use x="368.798828" xlink:href="#DejaVuSans-72"/>
      <use x="409.912109" xlink:href="#DejaVuSans-69"/>
      <use x="437.695312" xlink:href="#DejaVuSans-67"/>
      <use x="501.171875" xlink:href="#DejaVuSans-68"/>
      <use x="564.550781" xlink:href="#DejaVuSans-74"/>
      <use x="603.759766" xlink:href="#DejaVuSans-29"/>
     </g>
    </g>
    <g id="line2d_32">
     <path d="M 153 149.570938 
L 173 149.570938 
" style="fill:none;stroke:#d62728;stroke-linecap:square;stroke-width:1.5;"/>
    </g>
    <g id="line2d_33"/>
    <g id="text_16">
     <!-- COVID-19 cases (right) -->
     <g transform="translate(181 153.070938)scale(0.1 -0.1)">
      <defs>
       <path d="M 1831 0 
L 50 4666 
L 709 4666 
L 2188 738 
L 3669 4666 
L 4325 4666 
L 2547 0 
L 1831 0 
z
" id="DejaVuSans-56" transform="scale(0.015625)"/>
       <path d="M 313 2009 
L 1997 2009 
L 1997 1497 
L 313 1497 
L 313 2009 
z
" id="DejaVuSans-2d" transform="scale(0.015625)"/>
       <path d="M 703 97 
L 703 672 
Q 941 559 1184 500 
Q 1428 441 1663 441 
Q 2288 441 2617 861 
Q 2947 1281 2994 2138 
Q 2813 1869 2534 1725 
Q 2256 1581 1919 1581 
Q 1219 1581 811 2004 
Q 403 2428 403 3163 
Q 403 3881 828 4315 
Q 1253 4750 1959 4750 
Q 2769 4750 3195 4129 
Q 3622 3509 3622 2328 
Q 3622 1225 3098 567 
Q 2575 -91 1691 -91 
Q 1453 -91 1209 -44 
Q 966 3 703 97 
z
M 1959 2075 
Q 2384 2075 2632 2365 
Q 2881 2656 2881 3163 
Q 2881 3666 2632 3958 
Q 2384 4250 1959 4250 
Q 1534 4250 1286 3958 
Q 1038 3666 1038 3163 
Q 1038 2656 1286 2365 
Q 1534 2075 1959 2075 
z
" id="DejaVuSans-39" transform="scale(0.015625)"/>
      </defs>
      <use xlink:href="#DejaVuSans-43"/>
      <use x="69.824219" xlink:href="#DejaVuSans-4f"/>
      <use x="146.785156" xlink:href="#DejaVuSans-56"/>
      <use x="215.193359" xlink:href="#DejaVuSans-49"/>
      <use x="244.685547" xlink:href="#DejaVuSans-44"/>
      <use x="321.6875" xlink:href="#DejaVuSans-2d"/>
      <use x="357.771484" xlink:href="#DejaVuSans-31"/>
      <use x="421.394531" xlink:href="#DejaVuSans-39"/>
      <use x="485.017578" xlink:href="#DejaVuSans-20"/>
      <use x="516.804688" xlink:href="#DejaVuSans-63"/>
      <use x="571.785156" xlink:href="#DejaVuSans-61"/>
      <use x="633.064453" xlink:href="#DejaVuSans-73"/>
      <use x="685.164062" xlink:href="#DejaVuSans-65"/>
      <use x="746.6875" xlink:href="#DejaVuSans-73"/>
      <use x="798.787109" xlink:href="#DejaVuSans-20"/>
      <use x="830.574219" xlink:href="#DejaVuSans-28"/>
      <use x="869.587891" xlink:href="#DejaVuSans-72"/>
      <use x="910.701172" xlink:href="#DejaVuSans-69"/>
      <use x="938.484375" xlink:href="#DejaVuSans-67"/>
      <use x="1001.960938" xlink:href="#DejaVuSans-68"/>
      <use x="1065.339844" xlink:href="#DejaVuSans-74"/>
      <use x="1104.548828" xlink:href="#DejaVuSans-29"/>
     </g>
    </g>
   </g>
  </g>
  <g id="axes_2">
   <g id="matplotlib.axis_3">
    <g id="ytick_6">
     <g id="line2d_34">
      <defs>
       <path d="M 0 0 
L 3.5 0 
" id="m0758b61cfb" style="stroke:#000000;stroke-width:0.8;"/>
      </defs>
      <g>
       <use style="stroke:#000000;stroke-width:0.8;" x="1036.8" xlink:href="#m0758b61cfb" y="576.72"/>
      </g>
     </g>
     <g id="text_17">
      <!-- available -->
      <g transform="translate(1043.8 580.519219)scale(0.1 -0.1)">
       <defs>
        <path d="M 191 3500 
L 800 3500 
L 1894 563 
L 2988 3500 
L 3597 3500 
L 2284 0 
L 1503 0 
L 191 3500 
z
" id="DejaVuSans-76" transform="scale(0.015625)"/>
        <path d="M 3116 1747 
Q 3116 2381 2855 2742 
Q 2594 3103 2138 3103 
Q 1681 3103 1420 2742 
Q 1159 2381 1159 1747 
Q 1159 1113 1420 752 
Q 1681 391 2138 391 
Q 2594 391 2855 752 
Q 3116 1113 3116 1747 
z
M 1159 2969 
Q 1341 3281 1617 3432 
Q 1894 3584 2278 3584 
Q 2916 3584 3314 3078 
Q 3713 2572 3713 1747 
Q 3713 922 3314 415 
Q 2916 -91 2278 -91 
Q 1894 -91 1617 61 
Q 1341 213 1159 525 
L 1159 0 
L 581 0 
L 581 4863 
L 1159 4863 
L 1159 2969 
z
" id="DejaVuSans-62" transform="scale(0.015625)"/>
       </defs>
       <use xlink:href="#DejaVuSans-61"/>
       <use x="61.279297" xlink:href="#DejaVuSans-76"/>
       <use x="120.458984" xlink:href="#DejaVuSans-61"/>
       <use x="181.738281" xlink:href="#DejaVuSans-69"/>
       <use x="209.521484" xlink:href="#DejaVuSans-6c"/>
       <use x="237.304688" xlink:href="#DejaVuSans-61"/>
       <use x="298.583984" xlink:href="#DejaVuSans-62"/>
       <use x="362.060547" xlink:href="#DejaVuSans-6c"/>
       <use x="389.84375" xlink:href="#DejaVuSans-65"/>
      </g>
     </g>
    </g>
    <g id="ytick_7">
     <g id="line2d_35">
      <g>
       <use style="stroke:#000000;stroke-width:0.8;" x="1036.8" xlink:href="#m0758b61cfb" y="337.697246"/>
      </g>
     </g>
     <g id="text_18">
      <!-- limited -->
      <g transform="translate(1043.8 341.496464)scale(0.1 -0.1)">
       <defs>
        <path d="M 3328 2828 
Q 3544 3216 3844 3400 
Q 4144 3584 4550 3584 
Q 5097 3584 5394 3201 
Q 5691 2819 5691 2113 
L 5691 0 
L 5113 0 
L 5113 2094 
Q 5113 2597 4934 2840 
Q 4756 3084 4391 3084 
Q 3944 3084 3684 2787 
Q 3425 2491 3425 1978 
L 3425 0 
L 2847 0 
L 2847 2094 
Q 2847 2600 2669 2842 
Q 2491 3084 2119 3084 
Q 1678 3084 1418 2786 
Q 1159 2488 1159 1978 
L 1159 0 
L 581 0 
L 581 3500 
L 1159 3500 
L 1159 2956 
Q 1356 3278 1631 3431 
Q 1906 3584 2284 3584 
Q 2666 3584 2933 3390 
Q 3200 3197 3328 2828 
z
" id="DejaVuSans-6d" transform="scale(0.015625)"/>
       </defs>
       <use xlink:href="#DejaVuSans-6c"/>
       <use x="27.783203" xlink:href="#DejaVuSans-69"/>
       <use x="55.566406" xlink:href="#DejaVuSans-6d"/>
       <use x="152.978516" xlink:href="#DejaVuSans-69"/>
       <use x="180.761719" xlink:href="#DejaVuSans-74"/>
       <use x="219.970703" xlink:href="#DejaVuSans-65"/>
       <use x="281.494141" xlink:href="#DejaVuSans-64"/>
      </g>
     </g>
    </g>
    <g id="ytick_8">
     <g id="line2d_36">
      <g>
       <use style="stroke:#000000;stroke-width:0.8;" x="1036.8" xlink:href="#m0758b61cfb" y="98.674491"/>
      </g>
     </g>
     <g id="text_19">
      <!-- unavailable -->
      <g transform="translate(1043.8 102.47371)scale(0.1 -0.1)">
       <use xlink:href="#DejaVuSans-75"/>
       <use x="63.378906" xlink:href="#DejaVuSans-6e"/>
       <use x="126.757812" xlink:href="#DejaVuSans-61"/>
       <use x="188.037109" xlink:href="#DejaVuSans-76"/>
       <use x="247.216797" xlink:href="#DejaVuSans-61"/>
       <use x="308.496094" xlink:href="#DejaVuSans-69"/>
       <use x="336.279297" xlink:href="#DejaVuSans-6c"/>
       <use x="364.0625" xlink:href="#DejaVuSans-61"/>
       <use x="425.341797" xlink:href="#DejaVuSans-62"/>
       <use x="488.818359" xlink:href="#DejaVuSans-6c"/>
       <use x="516.601562" xlink:href="#DejaVuSans-65"/>
      </g>
     </g>
    </g>
   </g>
   <g id="line2d_37">
    <path clip-path="url(#pe696711c5c)" d="M 622.285714 238.104431 
L 624.278571 291.220599 
L 626.271429 317.778683 
L 628.264286 317.778683 
L 630.257143 244.743952 
L 632.25 238.104431 
L 634.242857 277.941557 
L 636.235714 238.104431 
L 638.228571 277.941557 
L 640.221429 297.86012 
L 642.214286 277.941557 
L 644.207143 277.941557 
L 646.2 297.86012 
L 648.192857 281.086593 
L 650.185714 297.86012 
L 652.178571 297.86012 
L 654.171429 258.022994 
L 656.164286 297.86012 
L 660.15 218.185868 
L 666.128571 277.941557 
L 668.121429 280.787066 
L 670.114286 297.86012 
L 672.107143 297.86012 
L 674.1 277.941557 
L 676.092857 297.86012 
L 678.085714 277.941557 
L 680.078571 317.778683 
L 684.064286 277.941557 
L 686.057143 248.063713 
L 688.05 258.022994 
L 690.042857 277.941557 
L 692.035714 277.941557 
L 696.021429 357.615808 
L 698.014286 377.534371 
L 700.007143 337.697246 
L 702 397.452934 
L 703.992857 417.371497 
L 705.985714 457.208623 
L 709.971429 417.371497 
L 711.964286 417.371497 
L 713.957143 437.29006 
L 715.95 397.452934 
L 717.942857 477.127186 
L 719.935714 477.127186 
L 721.928571 377.534371 
L 723.921429 417.371497 
L 725.914286 377.534371 
L 727.907143 399.263713 
L 729.9 377.534371 
L 731.892857 357.615808 
L 737.871429 357.615808 
L 739.864286 377.534371 
L 743.85 377.534371 
L 745.842857 297.86012 
L 747.835714 337.697246 
L 751.821429 377.534371 
L 755.807143 377.534371 
L 757.8 317.778683 
L 759.792857 377.534371 
L 761.785714 357.615808 
L 763.778571 397.452934 
L 765.771429 397.452934 
L 767.764286 317.778683 
L 769.757143 397.452934 
L 773.742857 397.452934 
L 777.728571 317.778683 
L 779.721429 297.86012 
L 781.714286 357.615808 
L 783.707143 357.615808 
L 785.7 377.534371 
L 787.692857 417.371497 
L 789.685714 417.371497 
L 793.671429 337.697246 
L 795.664286 357.615808 
L 797.657143 397.452934 
L 799.65 377.534371 
L 801.642857 397.452934 
L 803.635714 397.452934 
L 805.628571 377.534371 
L 807.621429 337.697246 
L 809.614286 337.697246 
L 811.607143 317.778683 
L 813.6 357.615808 
L 817.585714 397.452934 
L 819.578571 357.615808 
L 821.571429 417.371497 
L 823.564286 457.208623 
L 825.557143 437.29006 
L 827.55 397.452934 
L 829.542857 397.452934 
L 831.535714 437.29006 
L 833.528571 397.452934 
L 835.521429 417.371497 
L 837.514286 397.452934 
L 839.507143 397.452934 
L 841.5 437.29006 
L 843.492857 437.29006 
L 845.485714 457.208623 
L 849.471429 457.208623 
L 851.464286 477.127186 
L 853.457143 477.127186 
L 855.45 417.371497 
L 857.442857 417.371497 
L 859.435714 437.29006 
L 861.428571 377.534371 
L 863.421429 397.452934 
L 867.407143 477.127186 
L 869.4 457.208623 
L 871.392857 463.848144 
L 873.385714 497.045749 
L 875.378571 417.371497 
L 877.371429 437.29006 
L 879.364286 437.29006 
L 881.357143 497.045749 
L 883.35 457.208623 
L 885.342857 516.964311 
L 887.335714 516.964311 
L 889.328571 477.127186 
L 891.321429 477.127186 
L 893.314286 516.964311 
L 899.292857 516.964311 
L 901.285714 457.208623 
L 903.278571 437.29006 
L 905.271429 397.452934 
L 907.264286 397.452934 
L 909.257143 417.371497 
L 911.25 477.127186 
L 913.242857 417.371497 
L 915.235714 377.534371 
L 917.228571 357.615808 
M 955.092857 417.371497 
L 957.085714 397.452934 
L 959.078571 477.127186 
L 961.071429 437.29006 
L 963.064286 437.29006 
L 965.057143 477.127186 
L 967.05 447.249341 
L 969.042857 377.534371 
M 982.992857 377.534371 
L 984.985714 377.534371 
L 986.978571 457.208623 
L 988.971429 457.208623 
L 990.964286 397.452934 
L 992.957143 397.452934 
L 994.95 410.731976 
L 996.942857 347.656527 
L 998.935714 337.697246 
L 1000.928571 407.412216 
L 1002.921429 407.412216 
L 1004.914286 397.452934 
L 1008.9 397.452934 
L 1010.892857 377.534371 
L 1012.885714 367.57509 
L 1014.878571 337.697246 
L 1016.871429 397.452934 
L 1018.864286 364.255329 
L 1020.857143 390.813413 
L 1022.85 477.127186 
L 1024.842857 477.127186 
L 1026.835714 449.241198 
M 1034.807143 457.208623 
L 1036.8 437.29006 
L 1036.8 437.29006 
" style="fill:none;stroke:#1f77b4;stroke-linecap:square;stroke-width:1.5;"/>
   </g>
   <g id="line2d_38">
    <path clip-path="url(#pe696711c5c)" d="M 622.285714 238.104431 
L 626.271429 277.941557 
L 628.264286 277.941557 
L 630.257143 218.185868 
L 632.25 218.185868 
L 634.242857 277.941557 
L 638.228571 277.941557 
L 640.221429 297.86012 
L 642.214286 297.86012 
L 644.207143 317.778683 
L 646.2 317.778683 
L 648.192857 284.231629 
L 650.185714 297.86012 
L 652.178571 277.941557 
L 654.171429 238.104431 
L 656.164286 327.737964 
L 658.157143 284.581078 
L 660.15 238.104431 
L 662.142857 218.185868 
L 666.128571 258.022994 
L 668.121429 238.104431 
L 672.107143 238.104431 
L 674.1 258.022994 
L 676.092857 258.022994 
L 678.085714 294.540359 
L 680.078571 317.778683 
L 682.071429 297.86012 
L 684.064286 297.86012 
L 688.05 277.941557 
L 690.042857 277.941557 
L 692.035714 297.86012 
L 696.021429 297.86012 
L 698.014286 304.499641 
L 700.007143 277.941557 
L 702 297.86012 
L 703.992857 397.452934 
L 705.985714 397.452934 
L 707.978571 377.534371 
L 709.971429 417.371497 
L 713.957143 417.371497 
L 715.95 397.452934 
L 717.942857 457.208623 
L 719.935714 417.371497 
L 721.928571 337.697246 
L 723.921429 397.452934 
L 725.914286 357.615808 
L 727.907143 377.534371 
L 729.9 377.534371 
L 731.892857 357.615808 
L 733.885714 317.778683 
L 735.878571 357.615808 
L 743.85 357.615808 
L 745.842857 297.86012 
L 751.821429 357.615808 
L 753.814286 337.697246 
L 755.807143 377.534371 
L 757.8 317.778683 
L 759.792857 337.697246 
L 761.785714 317.778683 
L 763.778571 397.452934 
L 765.771429 377.534371 
L 767.764286 337.697246 
L 769.757143 397.452934 
L 771.75 417.371497 
L 773.742857 397.452934 
L 775.735714 317.778683 
L 779.721429 277.941557 
L 781.714286 337.697246 
L 783.707143 337.697246 
L 785.7 317.778683 
L 787.692857 357.615808 
L 789.685714 377.534371 
L 791.678571 337.697246 
L 793.671429 317.778683 
L 795.664286 357.615808 
L 797.657143 417.371497 
L 799.65 377.534371 
L 801.642857 397.452934 
L 807.621429 337.697246 
L 809.614286 337.697246 
L 811.607143 317.778683 
L 813.6 337.697246 
L 815.592857 377.534371 
L 817.585714 377.534371 
L 819.578571 397.452934 
L 821.571429 437.29006 
L 823.564286 497.045749 
L 825.557143 437.29006 
L 827.55 397.452934 
L 831.535714 397.452934 
L 833.528571 377.534371 
L 835.521429 397.452934 
L 837.514286 357.615808 
L 839.507143 357.615808 
L 841.5 397.452934 
L 843.492857 397.452934 
L 845.485714 417.371497 
L 849.471429 417.371497 
L 851.464286 397.452934 
L 853.457143 397.452934 
L 855.45 357.615808 
L 863.421429 357.615808 
L 867.407143 437.29006 
L 869.4 417.371497 
L 871.392857 424.011018 
L 873.385714 437.29006 
L 875.378571 397.452934 
L 877.371429 417.371497 
L 879.364286 397.452934 
L 881.357143 457.208623 
L 883.35 417.371497 
L 885.342857 457.208623 
L 887.335714 457.208623 
L 891.321429 417.371497 
L 895.307143 417.371497 
L 901.285714 477.127186 
L 903.278571 397.452934 
L 905.271429 357.615808 
L 907.264286 357.615808 
L 909.257143 377.534371 
L 911.25 417.371497 
L 913.242857 397.452934 
L 915.235714 357.615808 
L 917.228571 337.697246 
M 955.092857 417.371497 
L 957.085714 397.452934 
L 959.078571 437.29006 
L 961.071429 377.534371 
L 963.064286 377.534371 
L 965.057143 417.371497 
L 969.042857 357.615808 
M 982.992857 357.615808 
L 984.985714 357.615808 
L 986.978571 377.534371 
L 988.971429 357.615808 
L 990.964286 317.778683 
L 992.957143 317.778683 
L 994.95 370.89485 
L 996.942857 347.656527 
L 998.935714 331.057725 
L 1000.928571 327.737964 
L 1002.921429 347.656527 
L 1004.914286 347.656527 
L 1006.907143 377.534371 
L 1008.9 357.615808 
L 1014.878571 357.615808 
L 1016.871429 397.452934 
L 1018.864286 384.173892 
L 1020.857143 397.452934 
L 1022.85 487.086467 
L 1024.842857 516.964311 
L 1026.835714 421.35521 
M 1034.807143 377.534371 
L 1036.8 357.615808 
L 1036.8 357.615808 
" style="fill:none;stroke:#ff7f0e;stroke-linecap:square;stroke-width:1.5;"/>
   </g>
   <g id="line2d_39">
    <path clip-path="url(#pe696711c5c)" d="M 622.285714 178.348743 
L 632.25 178.348743 
L 634.242857 297.86012 
L 636.235714 178.348743 
L 638.228571 218.185868 
L 640.221429 138.511617 
L 642.214286 138.511617 
L 644.207143 277.941557 
L 646.2 198.267305 
L 648.192857 277.941557 
L 652.178571 277.941557 
L 654.171429 198.267305 
L 656.164286 317.778683 
L 658.157143 324.418204 
L 660.15 297.86012 
L 662.142857 337.697246 
L 664.135714 337.697246 
L 666.128571 258.022994 
L 668.121429 337.697246 
L 672.107143 258.022994 
L 674.1 98.674491 
L 676.092857 258.022994 
L 678.085714 231.46491 
L 680.078571 258.022994 
L 682.071429 178.348743 
L 684.064286 297.86012 
L 690.042857 297.86012 
L 692.035714 238.104431 
L 696.021429 238.104431 
L 698.014286 184.988263 
L 700.007143 158.43018 
L 702 158.43018 
L 703.992857 277.941557 
L 707.978571 277.941557 
L 709.971429 238.104431 
L 711.964286 277.941557 
L 717.942857 277.941557 
L 719.935714 337.697246 
L 721.928571 277.941557 
L 733.885714 277.941557 
L 735.878571 337.697246 
L 737.871429 337.697246 
L 739.864286 277.941557 
L 751.821429 277.941557 
L 753.814286 218.185868 
L 761.785714 218.185868 
L 763.778571 457.208623 
L 765.771429 457.208623 
L 767.764286 397.452934 
L 773.742857 397.452934 
L 775.735714 277.941557 
L 777.728571 277.941557 
L 779.721429 158.43018 
L 781.714286 158.43018 
L 783.707143 218.185868 
L 809.614286 218.185868 
L 811.607143 98.674491 
L 817.585714 98.674491 
L 819.578571 337.697246 
L 821.571429 457.208623 
L 823.564286 397.452934 
L 829.542857 397.452934 
L 831.535714 337.697246 
L 833.528571 397.452934 
L 835.521429 277.941557 
L 853.457143 277.941557 
L 855.45 337.697246 
L 861.428571 337.697246 
L 863.421429 277.941557 
L 865.414286 277.941557 
L 867.407143 397.452934 
L 871.392857 397.452934 
L 873.385714 457.208623 
L 877.371429 457.208623 
L 879.364286 397.452934 
L 885.342857 397.452934 
L 887.335714 457.208623 
L 889.328571 457.208623 
L 891.321429 397.452934 
L 893.314286 397.452934 
L 895.307143 457.208623 
L 897.3 457.208623 
L 899.292857 397.452934 
L 907.264286 397.452934 
L 909.257143 277.941557 
L 917.228571 277.941557 
M 955.092857 158.43018 
L 969.042857 158.43018 
M 982.992857 297.86012 
L 986.978571 297.86012 
L 988.971429 218.185868 
L 1020.857143 218.185868 
L 1022.85 337.697246 
L 1024.842857 337.697246 
L 1026.835714 242.088144 
M 1034.807143 158.43018 
L 1036.8 158.43018 
L 1036.8 158.43018 
" style="fill:none;stroke:#2ca02c;stroke-linecap:square;stroke-width:1.5;"/>
   </g>
   <g id="line2d_40">
    <path clip-path="url(#pe696711c5c)" d="M 0 0 
" style="fill:none;stroke:#d62728;stroke-linecap:square;stroke-width:1.5;"/>
   </g>
   <g id="patch_8">
    <path d="M 144 576.72 
L 144 77.76 
" style="fill:none;stroke:#000000;stroke-linecap:square;stroke-linejoin:miter;stroke-width:0.8;"/>
   </g>
   <g id="patch_9">
    <path d="M 1036.8 576.72 
L 1036.8 77.76 
" style="fill:none;stroke:#000000;stroke-linecap:square;stroke-linejoin:miter;stroke-width:0.8;"/>
   </g>
   <g id="patch_10">
    <path d="M 144 576.72 
L 1036.8 576.72 
" style="fill:none;stroke:#000000;stroke-linecap:square;stroke-linejoin:miter;stroke-width:0.8;"/>
   </g>
   <g id="patch_11">
    <path d="M 144 77.76 
L 1036.8 77.76 
" style="fill:none;stroke:#000000;stroke-linecap:square;stroke-linejoin:miter;stroke-width:0.8;"/>
   </g>
   <g id="text_20">
    <!-- Bremen -->
    <g transform="translate(566.92125 71.76)scale(0.12 -0.12)">
     <defs>
      <path d="M 1259 2228 
L 1259 519 
L 2272 519 
Q 2781 519 3026 730 
Q 3272 941 3272 1375 
Q 3272 1813 3026 2020 
Q 2781 2228 2272 2228 
L 1259 2228 
z
M 1259 4147 
L 1259 2741 
L 2194 2741 
Q 2656 2741 2882 2914 
Q 3109 3088 3109 3444 
Q 3109 3797 2882 3972 
Q 2656 4147 2194 4147 
L 1259 4147 
z
M 628 4666 
L 2241 4666 
Q 2963 4666 3353 4366 
Q 3744 4066 3744 3513 
Q 3744 3084 3544 2831 
Q 3344 2578 2956 2516 
Q 3422 2416 3680 2098 
Q 3938 1781 3938 1306 
Q 3938 681 3513 340 
Q 3088 0 2303 0 
L 628 0 
L 628 4666 
z
" id="DejaVuSans-42" transform="scale(0.015625)"/>
     </defs>
     <use xlink:href="#DejaVuSans-42"/>
     <use x="68.603516" xlink:href="#DejaVuSans-72"/>
     <use x="107.466797" xlink:href="#DejaVuSans-65"/>
     <use x="168.990234" xlink:href="#DejaVuSans-6d"/>
     <use x="266.402344" xlink:href="#DejaVuSans-65"/>
     <use x="327.925781" xlink:href="#DejaVuSans-6e"/>
    </g>
   </g>
  </g>
 </g>
 <defs>
  <clipPath id="pe696711c5c">
   <rect height="498.96" width="892.8" x="144" y="77.76"/>
  </clipPath>
 </defs>
</svg>
