<?xml version="1.0" encoding="utf-8" standalone="no"?>
<!DOCTYPE svg PUBLIC "-//W3C//DTD SVG 1.1//EN"
  "http://www.w3.org/Graphics/SVG/1.1/DTD/svg11.dtd">
<!-- Created with matplotlib (https://matplotlib.org/) -->
<svg height="563.560252pt" version="1.1" viewBox="0 0 711.73875 563.560252" width="711.73875pt" xmlns="http://www.w3.org/2000/svg" xmlns:xlink="http://www.w3.org/1999/xlink">
 <metadata>
  <rdf:RDF xmlns:cc="http://creativecommons.org/ns#" xmlns:dc="http://purl.org/dc/elements/1.1/" xmlns:rdf="http://www.w3.org/1999/02/22-rdf-syntax-ns#">
   <cc:Work>
    <dc:type rdf:resource="http://purl.org/dc/dcmitype/StillImage"/>
    <dc:date>2020-11-01T09:01:43.962723</dc:date>
    <dc:format>image/svg+xml</dc:format>
    <dc:creator>
     <cc:Agent>
      <dc:title>Matplotlib v3.3.2, https://matplotlib.org/</dc:title>
     </cc:Agent>
    </dc:creator>
   </cc:Work>
  </rdf:RDF>
 </metadata>
 <defs>
  <style type="text/css">*{stroke-linecap:butt;stroke-linejoin:round;}</style>
 </defs>
 <g id="figure_1">
  <g id="patch_1">
   <path d="M 0 563.560252 
L 711.73875 563.560252 
L 711.73875 0 
L 0 0 
z
" style="fill:#ffffff;"/>
  </g>
  <g id="axes_1">
   <g id="patch_2">
    <path d="M 67.98875 301.187403 
L 704.53875 301.187403 
L 704.53875 102.072 
L 67.98875 102.072 
z
" style="fill:#e5e5e5;"/>
   </g>
   <g id="matplotlib.axis_1">
    <g id="xtick_1">
     <g id="line2d_1">
      <defs>
       <path d="M 0 0 
L 0 3.5 
" id="m11edb87b2f" style="stroke:#555555;stroke-width:0.8;"/>
      </defs>
      <g>
       <use style="fill:#555555;stroke:#555555;stroke-width:0.8;" x="67.98875" xlink:href="#m11edb87b2f" y="301.187403"/>
      </g>
     </g>
    </g>
    <g id="xtick_2">
     <g id="line2d_2">
      <g>
       <use style="fill:#555555;stroke:#555555;stroke-width:0.8;" x="162.839935" xlink:href="#m11edb87b2f" y="301.187403"/>
      </g>
     </g>
    </g>
    <g id="xtick_3">
     <g id="line2d_3">
      <g>
       <use style="fill:#555555;stroke:#555555;stroke-width:0.8;" x="275.244749" xlink:href="#m11edb87b2f" y="301.187403"/>
      </g>
     </g>
    </g>
    <g id="xtick_4">
     <g id="line2d_4">
      <g>
       <use style="fill:#555555;stroke:#555555;stroke-width:0.8;" x="387.649563" xlink:href="#m11edb87b2f" y="301.187403"/>
      </g>
     </g>
    </g>
    <g id="xtick_5">
     <g id="line2d_5">
      <g>
       <use style="fill:#555555;stroke:#555555;stroke-width:0.8;" x="500.054377" xlink:href="#m11edb87b2f" y="301.187403"/>
      </g>
     </g>
    </g>
    <g id="xtick_6">
     <g id="line2d_6">
      <g>
       <use style="fill:#555555;stroke:#555555;stroke-width:0.8;" x="612.767149" xlink:href="#m11edb87b2f" y="301.187403"/>
      </g>
     </g>
    </g>
    <g id="xtick_7">
     <g id="line2d_7">
      <g>
       <use style="fill:#555555;stroke:#555555;stroke-width:0.8;" x="704.53875" xlink:href="#m11edb87b2f" y="301.187403"/>
      </g>
     </g>
    </g>
    <g id="xtick_8">
     <g id="line2d_8">
      <defs>
       <path d="M 0 0 
L 0 2 
" id="m5708ef0cb7" style="stroke:#555555;stroke-width:0.6;"/>
      </defs>
      <g>
       <use style="fill:#555555;stroke:#555555;stroke-width:0.6;" x="78.151377" xlink:href="#m5708ef0cb7" y="301.187403"/>
      </g>
     </g>
    </g>
    <g id="xtick_9">
     <g id="line2d_9">
      <g>
       <use style="fill:#555555;stroke:#555555;stroke-width:0.6;" x="106.175591" xlink:href="#m5708ef0cb7" y="301.187403"/>
      </g>
     </g>
    </g>
    <g id="xtick_10">
     <g id="line2d_10">
      <g>
       <use style="fill:#555555;stroke:#555555;stroke-width:0.6;" x="134.507763" xlink:href="#m5708ef0cb7" y="301.187403"/>
      </g>
     </g>
    </g>
    <g id="xtick_11">
     <g id="line2d_11">
      <g>
       <use style="fill:#555555;stroke:#555555;stroke-width:0.6;" x="190.556191" xlink:href="#m5708ef0cb7" y="301.187403"/>
      </g>
     </g>
    </g>
    <g id="xtick_12">
     <g id="line2d_12">
      <g>
       <use style="fill:#555555;stroke:#555555;stroke-width:0.6;" x="218.580405" xlink:href="#m5708ef0cb7" y="301.187403"/>
      </g>
     </g>
    </g>
    <g id="xtick_13">
     <g id="line2d_13">
      <g>
       <use style="fill:#555555;stroke:#555555;stroke-width:0.6;" x="246.912577" xlink:href="#m5708ef0cb7" y="301.187403"/>
      </g>
     </g>
    </g>
    <g id="xtick_14">
     <g id="line2d_14">
      <g>
       <use style="fill:#555555;stroke:#555555;stroke-width:0.6;" x="302.961004" xlink:href="#m5708ef0cb7" y="301.187403"/>
      </g>
     </g>
    </g>
    <g id="xtick_15">
     <g id="line2d_15">
      <g>
       <use style="fill:#555555;stroke:#555555;stroke-width:0.6;" x="330.985218" xlink:href="#m5708ef0cb7" y="301.187403"/>
      </g>
     </g>
    </g>
    <g id="xtick_16">
     <g id="line2d_16">
      <g>
       <use style="fill:#555555;stroke:#555555;stroke-width:0.6;" x="359.317391" xlink:href="#m5708ef0cb7" y="301.187403"/>
      </g>
     </g>
    </g>
    <g id="xtick_17">
     <g id="line2d_17">
      <g>
       <use style="fill:#555555;stroke:#555555;stroke-width:0.6;" x="415.365818" xlink:href="#m5708ef0cb7" y="301.187403"/>
      </g>
     </g>
    </g>
    <g id="xtick_18">
     <g id="line2d_18">
      <g>
       <use style="fill:#555555;stroke:#555555;stroke-width:0.6;" x="443.390032" xlink:href="#m5708ef0cb7" y="301.187403"/>
      </g>
     </g>
    </g>
    <g id="xtick_19">
     <g id="line2d_19">
      <g>
       <use style="fill:#555555;stroke:#555555;stroke-width:0.6;" x="471.722204" xlink:href="#m5708ef0cb7" y="301.187403"/>
      </g>
     </g>
    </g>
    <g id="xtick_20">
     <g id="line2d_20">
      <g>
       <use style="fill:#555555;stroke:#555555;stroke-width:0.6;" x="528.07859" xlink:href="#m5708ef0cb7" y="301.187403"/>
      </g>
     </g>
    </g>
    <g id="xtick_21">
     <g id="line2d_21">
      <g>
       <use style="fill:#555555;stroke:#555555;stroke-width:0.6;" x="556.102804" xlink:href="#m5708ef0cb7" y="301.187403"/>
      </g>
     </g>
    </g>
    <g id="xtick_22">
     <g id="line2d_22">
      <g>
       <use style="fill:#555555;stroke:#555555;stroke-width:0.6;" x="584.434976" xlink:href="#m5708ef0cb7" y="301.187403"/>
      </g>
     </g>
    </g>
    <g id="xtick_23">
     <g id="line2d_23">
      <g>
       <use style="fill:#555555;stroke:#555555;stroke-width:0.6;" x="640.483404" xlink:href="#m5708ef0cb7" y="301.187403"/>
      </g>
     </g>
    </g>
    <g id="xtick_24">
     <g id="line2d_24">
      <g>
       <use style="fill:#555555;stroke:#555555;stroke-width:0.6;" x="668.507618" xlink:href="#m5708ef0cb7" y="301.187403"/>
      </g>
     </g>
    </g>
    <g id="xtick_25">
     <g id="line2d_25">
      <g>
       <use style="fill:#555555;stroke:#555555;stroke-width:0.6;" x="696.83979" xlink:href="#m5708ef0cb7" y="301.187403"/>
      </g>
     </g>
    </g>
   </g>
   <g id="matplotlib.axis_2">
    <g id="ytick_1">
     <g id="line2d_26">
      <defs>
       <path d="M 0 0 
L -3.5 0 
" id="m0bb865e5f0" style="stroke:#555555;stroke-width:0.8;"/>
      </defs>
      <g>
       <use style="fill:#555555;stroke:#555555;stroke-width:0.8;" x="67.98875" xlink:href="#m0bb865e5f0" y="292.13766"/>
      </g>
     </g>
     <g id="text_1">
      <!-- 0.0 -->
      <g style="fill:#555555;" transform="translate(45.085625 295.936879)scale(0.1 -0.1)">
       <defs>
        <path d="M 31.78125 66.40625 
Q 24.171875 66.40625 20.328125 58.90625 
Q 16.5 51.421875 16.5 36.375 
Q 16.5 21.390625 20.328125 13.890625 
Q 24.171875 6.390625 31.78125 6.390625 
Q 39.453125 6.390625 43.28125 13.890625 
Q 47.125 21.390625 47.125 36.375 
Q 47.125 51.421875 43.28125 58.90625 
Q 39.453125 66.40625 31.78125 66.40625 
z
M 31.78125 74.21875 
Q 44.046875 74.21875 50.515625 64.515625 
Q 56.984375 54.828125 56.984375 36.375 
Q 56.984375 17.96875 50.515625 8.265625 
Q 44.046875 -1.421875 31.78125 -1.421875 
Q 19.53125 -1.421875 13.0625 8.265625 
Q 6.59375 17.96875 6.59375 36.375 
Q 6.59375 54.828125 13.0625 64.515625 
Q 19.53125 74.21875 31.78125 74.21875 
z
" id="DejaVuSans-48"/>
        <path d="M 10.6875 12.40625 
L 21 12.40625 
L 21 0 
L 10.6875 0 
z
" id="DejaVuSans-46"/>
       </defs>
       <use xlink:href="#DejaVuSans-48"/>
       <use x="63.623047" xlink:href="#DejaVuSans-46"/>
       <use x="95.410156" xlink:href="#DejaVuSans-48"/>
      </g>
     </g>
    </g>
    <g id="ytick_2">
     <g id="line2d_27">
      <g>
       <use style="fill:#555555;stroke:#555555;stroke-width:0.8;" x="67.98875" xlink:href="#m0bb865e5f0" y="256.018203"/>
      </g>
     </g>
     <g id="text_2">
      <!-- 0.2 -->
      <g style="fill:#555555;" transform="translate(45.085625 259.817422)scale(0.1 -0.1)">
       <defs>
        <path d="M 19.1875 8.296875 
L 53.609375 8.296875 
L 53.609375 0 
L 7.328125 0 
L 7.328125 8.296875 
Q 12.9375 14.109375 22.625 23.890625 
Q 32.328125 33.6875 34.8125 36.53125 
Q 39.546875 41.84375 41.421875 45.53125 
Q 43.3125 49.21875 43.3125 52.78125 
Q 43.3125 58.59375 39.234375 62.25 
Q 35.15625 65.921875 28.609375 65.921875 
Q 23.96875 65.921875 18.8125 64.3125 
Q 13.671875 62.703125 7.8125 59.421875 
L 7.8125 69.390625 
Q 13.765625 71.78125 18.9375 73 
Q 24.125 74.21875 28.421875 74.21875 
Q 39.75 74.21875 46.484375 68.546875 
Q 53.21875 62.890625 53.21875 53.421875 
Q 53.21875 48.921875 51.53125 44.890625 
Q 49.859375 40.875 45.40625 35.40625 
Q 44.1875 33.984375 37.640625 27.21875 
Q 31.109375 20.453125 19.1875 8.296875 
z
" id="DejaVuSans-50"/>
       </defs>
       <use xlink:href="#DejaVuSans-48"/>
       <use x="63.623047" xlink:href="#DejaVuSans-46"/>
       <use x="95.410156" xlink:href="#DejaVuSans-50"/>
      </g>
     </g>
    </g>
    <g id="ytick_3">
     <g id="line2d_28">
      <g>
       <use style="fill:#555555;stroke:#555555;stroke-width:0.8;" x="67.98875" xlink:href="#m0bb865e5f0" y="219.898746"/>
      </g>
     </g>
     <g id="text_3">
      <!-- 0.4 -->
      <g style="fill:#555555;" transform="translate(45.085625 223.697965)scale(0.1 -0.1)">
       <defs>
        <path d="M 37.796875 64.3125 
L 12.890625 25.390625 
L 37.796875 25.390625 
z
M 35.203125 72.90625 
L 47.609375 72.90625 
L 47.609375 25.390625 
L 58.015625 25.390625 
L 58.015625 17.1875 
L 47.609375 17.1875 
L 47.609375 0 
L 37.796875 0 
L 37.796875 17.1875 
L 4.890625 17.1875 
L 4.890625 26.703125 
z
" id="DejaVuSans-52"/>
       </defs>
       <use xlink:href="#DejaVuSans-48"/>
       <use x="63.623047" xlink:href="#DejaVuSans-46"/>
       <use x="95.410156" xlink:href="#DejaVuSans-52"/>
      </g>
     </g>
    </g>
    <g id="ytick_4">
     <g id="line2d_29">
      <g>
       <use style="fill:#555555;stroke:#555555;stroke-width:0.8;" x="67.98875" xlink:href="#m0bb865e5f0" y="183.77929"/>
      </g>
     </g>
     <g id="text_4">
      <!-- 0.6 -->
      <g style="fill:#555555;" transform="translate(45.085625 187.578508)scale(0.1 -0.1)">
       <defs>
        <path d="M 33.015625 40.375 
Q 26.375 40.375 22.484375 35.828125 
Q 18.609375 31.296875 18.609375 23.390625 
Q 18.609375 15.53125 22.484375 10.953125 
Q 26.375 6.390625 33.015625 6.390625 
Q 39.65625 6.390625 43.53125 10.953125 
Q 47.40625 15.53125 47.40625 23.390625 
Q 47.40625 31.296875 43.53125 35.828125 
Q 39.65625 40.375 33.015625 40.375 
z
M 52.59375 71.296875 
L 52.59375 62.3125 
Q 48.875 64.0625 45.09375 64.984375 
Q 41.3125 65.921875 37.59375 65.921875 
Q 27.828125 65.921875 22.671875 59.328125 
Q 17.53125 52.734375 16.796875 39.40625 
Q 19.671875 43.65625 24.015625 45.921875 
Q 28.375 48.1875 33.59375 48.1875 
Q 44.578125 48.1875 50.953125 41.515625 
Q 57.328125 34.859375 57.328125 23.390625 
Q 57.328125 12.15625 50.6875 5.359375 
Q 44.046875 -1.421875 33.015625 -1.421875 
Q 20.359375 -1.421875 13.671875 8.265625 
Q 6.984375 17.96875 6.984375 36.375 
Q 6.984375 53.65625 15.1875 63.9375 
Q 23.390625 74.21875 37.203125 74.21875 
Q 40.921875 74.21875 44.703125 73.484375 
Q 48.484375 72.75 52.59375 71.296875 
z
" id="DejaVuSans-54"/>
       </defs>
       <use xlink:href="#DejaVuSans-48"/>
       <use x="63.623047" xlink:href="#DejaVuSans-46"/>
       <use x="95.410156" xlink:href="#DejaVuSans-54"/>
      </g>
     </g>
    </g>
    <g id="ytick_5">
     <g id="line2d_30">
      <g>
       <use style="fill:#555555;stroke:#555555;stroke-width:0.8;" x="67.98875" xlink:href="#m0bb865e5f0" y="147.659833"/>
      </g>
     </g>
     <g id="text_5">
      <!-- 0.8 -->
      <g style="fill:#555555;" transform="translate(45.085625 151.459051)scale(0.1 -0.1)">
       <defs>
        <path d="M 31.78125 34.625 
Q 24.75 34.625 20.71875 30.859375 
Q 16.703125 27.09375 16.703125 20.515625 
Q 16.703125 13.921875 20.71875 10.15625 
Q 24.75 6.390625 31.78125 6.390625 
Q 38.8125 6.390625 42.859375 10.171875 
Q 46.921875 13.96875 46.921875 20.515625 
Q 46.921875 27.09375 42.890625 30.859375 
Q 38.875 34.625 31.78125 34.625 
z
M 21.921875 38.8125 
Q 15.578125 40.375 12.03125 44.71875 
Q 8.5 49.078125 8.5 55.328125 
Q 8.5 64.0625 14.71875 69.140625 
Q 20.953125 74.21875 31.78125 74.21875 
Q 42.671875 74.21875 48.875 69.140625 
Q 55.078125 64.0625 55.078125 55.328125 
Q 55.078125 49.078125 51.53125 44.71875 
Q 48 40.375 41.703125 38.8125 
Q 48.828125 37.15625 52.796875 32.3125 
Q 56.78125 27.484375 56.78125 20.515625 
Q 56.78125 9.90625 50.3125 4.234375 
Q 43.84375 -1.421875 31.78125 -1.421875 
Q 19.734375 -1.421875 13.25 4.234375 
Q 6.78125 9.90625 6.78125 20.515625 
Q 6.78125 27.484375 10.78125 32.3125 
Q 14.796875 37.15625 21.921875 38.8125 
z
M 18.3125 54.390625 
Q 18.3125 48.734375 21.84375 45.5625 
Q 25.390625 42.390625 31.78125 42.390625 
Q 38.140625 42.390625 41.71875 45.5625 
Q 45.3125 48.734375 45.3125 54.390625 
Q 45.3125 60.0625 41.71875 63.234375 
Q 38.140625 66.40625 31.78125 66.40625 
Q 25.390625 66.40625 21.84375 63.234375 
Q 18.3125 60.0625 18.3125 54.390625 
z
" id="DejaVuSans-56"/>
       </defs>
       <use xlink:href="#DejaVuSans-48"/>
       <use x="63.623047" xlink:href="#DejaVuSans-46"/>
       <use x="95.410156" xlink:href="#DejaVuSans-56"/>
      </g>
     </g>
    </g>
    <g id="ytick_6">
     <g id="line2d_31">
      <g>
       <use style="fill:#555555;stroke:#555555;stroke-width:0.8;" x="67.98875" xlink:href="#m0bb865e5f0" y="111.540376"/>
      </g>
     </g>
     <g id="text_6">
      <!-- 1.0 -->
      <g style="fill:#555555;" transform="translate(45.085625 115.339595)scale(0.1 -0.1)">
       <defs>
        <path d="M 12.40625 8.296875 
L 28.515625 8.296875 
L 28.515625 63.921875 
L 10.984375 60.40625 
L 10.984375 69.390625 
L 28.421875 72.90625 
L 38.28125 72.90625 
L 38.28125 8.296875 
L 54.390625 8.296875 
L 54.390625 0 
L 12.40625 0 
z
" id="DejaVuSans-49"/>
       </defs>
       <use xlink:href="#DejaVuSans-49"/>
       <use x="63.623047" xlink:href="#DejaVuSans-46"/>
       <use x="95.410156" xlink:href="#DejaVuSans-48"/>
      </g>
     </g>
    </g>
    <g id="text_7">
     <!-- Total -->
     <g style="fill:#555555;" transform="translate(38.59 215.641577)rotate(-90)scale(0.12 -0.12)">
      <defs>
       <path d="M -0.296875 72.90625 
L 61.375 72.90625 
L 61.375 64.59375 
L 35.5 64.59375 
L 35.5 0 
L 25.59375 0 
L 25.59375 64.59375 
L -0.296875 64.59375 
z
" id="DejaVuSans-84"/>
       <path d="M 30.609375 48.390625 
Q 23.390625 48.390625 19.1875 42.75 
Q 14.984375 37.109375 14.984375 27.296875 
Q 14.984375 17.484375 19.15625 11.84375 
Q 23.34375 6.203125 30.609375 6.203125 
Q 37.796875 6.203125 41.984375 11.859375 
Q 46.1875 17.53125 46.1875 27.296875 
Q 46.1875 37.015625 41.984375 42.703125 
Q 37.796875 48.390625 30.609375 48.390625 
z
M 30.609375 56 
Q 42.328125 56 49.015625 48.375 
Q 55.71875 40.765625 55.71875 27.296875 
Q 55.71875 13.875 49.015625 6.21875 
Q 42.328125 -1.421875 30.609375 -1.421875 
Q 18.84375 -1.421875 12.171875 6.21875 
Q 5.515625 13.875 5.515625 27.296875 
Q 5.515625 40.765625 12.171875 48.375 
Q 18.84375 56 30.609375 56 
z
" id="DejaVuSans-111"/>
       <path d="M 18.3125 70.21875 
L 18.3125 54.6875 
L 36.8125 54.6875 
L 36.8125 47.703125 
L 18.3125 47.703125 
L 18.3125 18.015625 
Q 18.3125 11.328125 20.140625 9.421875 
Q 21.96875 7.515625 27.59375 7.515625 
L 36.8125 7.515625 
L 36.8125 0 
L 27.59375 0 
Q 17.1875 0 13.234375 3.875 
Q 9.28125 7.765625 9.28125 18.015625 
L 9.28125 47.703125 
L 2.6875 47.703125 
L 2.6875 54.6875 
L 9.28125 54.6875 
L 9.28125 70.21875 
z
" id="DejaVuSans-116"/>
       <path d="M 34.28125 27.484375 
Q 23.390625 27.484375 19.1875 25 
Q 14.984375 22.515625 14.984375 16.5 
Q 14.984375 11.71875 18.140625 8.90625 
Q 21.296875 6.109375 26.703125 6.109375 
Q 34.1875 6.109375 38.703125 11.40625 
Q 43.21875 16.703125 43.21875 25.484375 
L 43.21875 27.484375 
z
M 52.203125 31.203125 
L 52.203125 0 
L 43.21875 0 
L 43.21875 8.296875 
Q 40.140625 3.328125 35.546875 0.953125 
Q 30.953125 -1.421875 24.3125 -1.421875 
Q 15.921875 -1.421875 10.953125 3.296875 
Q 6 8.015625 6 15.921875 
Q 6 25.140625 12.171875 29.828125 
Q 18.359375 34.515625 30.609375 34.515625 
L 43.21875 34.515625 
L 43.21875 35.40625 
Q 43.21875 41.609375 39.140625 45 
Q 35.0625 48.390625 27.6875 48.390625 
Q 23 48.390625 18.546875 47.265625 
Q 14.109375 46.140625 10.015625 43.890625 
L 10.015625 52.203125 
Q 14.9375 54.109375 19.578125 55.046875 
Q 24.21875 56 28.609375 56 
Q 40.484375 56 46.34375 49.84375 
Q 52.203125 43.703125 52.203125 31.203125 
z
" id="DejaVuSans-97"/>
       <path d="M 9.421875 75.984375 
L 18.40625 75.984375 
L 18.40625 0 
L 9.421875 0 
z
" id="DejaVuSans-108"/>
      </defs>
      <use xlink:href="#DejaVuSans-84"/>
      <use x="44.083984" xlink:href="#DejaVuSans-111"/>
      <use x="105.265625" xlink:href="#DejaVuSans-116"/>
      <use x="144.474609" xlink:href="#DejaVuSans-97"/>
      <use x="205.753906" xlink:href="#DejaVuSans-108"/>
     </g>
    </g>
    <g id="text_8">
     <!-- 1e7 -->
     <g style="fill:#555555;" transform="translate(67.98875 99.072)scale(0.1 -0.1)">
      <defs>
       <path d="M 56.203125 29.59375 
L 56.203125 25.203125 
L 14.890625 25.203125 
Q 15.484375 15.921875 20.484375 11.0625 
Q 25.484375 6.203125 34.421875 6.203125 
Q 39.59375 6.203125 44.453125 7.46875 
Q 49.3125 8.734375 54.109375 11.28125 
L 54.109375 2.78125 
Q 49.265625 0.734375 44.1875 -0.34375 
Q 39.109375 -1.421875 33.890625 -1.421875 
Q 20.796875 -1.421875 13.15625 6.1875 
Q 5.515625 13.8125 5.515625 26.8125 
Q 5.515625 40.234375 12.765625 48.109375 
Q 20.015625 56 32.328125 56 
Q 43.359375 56 49.78125 48.890625 
Q 56.203125 41.796875 56.203125 29.59375 
z
M 47.21875 32.234375 
Q 47.125 39.59375 43.09375 43.984375 
Q 39.0625 48.390625 32.421875 48.390625 
Q 24.90625 48.390625 20.390625 44.140625 
Q 15.875 39.890625 15.1875 32.171875 
z
" id="DejaVuSans-101"/>
       <path d="M 8.203125 72.90625 
L 55.078125 72.90625 
L 55.078125 68.703125 
L 28.609375 0 
L 18.3125 0 
L 43.21875 64.59375 
L 8.203125 64.59375 
z
" id="DejaVuSans-55"/>
      </defs>
      <use xlink:href="#DejaVuSans-49"/>
      <use x="63.623047" xlink:href="#DejaVuSans-101"/>
      <use x="125.146484" xlink:href="#DejaVuSans-55"/>
     </g>
    </g>
   </g>
   <g id="line2d_32">
    <path clip-path="url(#pce2ebacbb4)" d="M 67.98875 292.136703 
L 74.147918 292.023987 
L 75.995668 291.77159 
L 77.843419 291.284493 
L 82.462795 289.981943 
L 85.542378 289.502005 
L 88.929921 289.207036 
L 96.012964 288.904344 
L 121.573511 288.080292 
L 132.967971 287.145796 
L 137.279389 286.58201 
L 139.435097 286.05308 
L 141.282848 285.342226 
L 142.514681 284.628866 
L 143.746515 283.675333 
L 144.054473 283.407665 
L 144.054473 283.407665 
" style="fill:none;stroke:#e24a33;stroke-linecap:square;stroke-width:1.5;"/>
   </g>
   <g id="line2d_33">
    <path clip-path="url(#pce2ebacbb4)" d="M 144.054473 283.407665 
L 146.51814 281.009489 
L 148.981808 278.000917 
L 150.213641 276.228748 
L 151.445475 274.25579 
L 152.677308 272.064893 
L 153.909142 269.638897 
L 155.140975 266.961064 
L 157.604643 260.788337 
L 160.06831 253.444038 
L 162.531977 244.876318 
L 164.995644 235.111799 
L 167.459311 224.280201 
L 171.154812 206.599206 
L 177.31398 176.577506 
L 179.777647 165.613504 
L 182.241314 155.748946 
L 184.704981 147.15854 
L 187.168648 139.892558 
L 188.400482 136.743298 
L 189.632316 133.899798 
L 190.864149 131.345286 
L 192.095983 129.060844 
L 193.327816 127.026297 
L 194.55965 125.220969 
L 195.791483 123.624289 
L 197.023317 122.21626 
L 199.486984 119.89097 
L 201.950651 118.106962 
L 204.414318 116.747347 
L 206.877986 115.716457 
L 209.341653 114.937851 
L 211.80532 114.351524 
L 215.500821 113.733854 
L 219.196321 113.332935 
L 224.123656 113.009044 
L 231.514657 112.770193 
L 243.832993 112.639268 
L 277.092499 112.60052 
L 704.53875 112.599759 
L 704.53875 112.599759 
" style="fill:none;stroke:#348abd;stroke-linecap:square;stroke-width:1.5;"/>
   </g>
   <g id="line2d_34">
    <path clip-path="url(#pce2ebacbb4)" d="M 144.054473 283.407665 
L 146.51814 281.302346 
L 148.981808 278.729313 
L 151.445475 275.605569 
L 153.909142 271.843983 
L 156.372809 267.35875 
L 158.836476 262.073606 
L 161.300143 255.932924 
L 163.76381 248.915116 
L 166.227478 241.046718 
L 168.691145 232.414286 
L 172.386646 218.384055 
L 179.777647 189.451798 
L 182.241314 180.541147 
L 184.704981 172.372495 
L 187.168648 165.078027 
L 189.632316 158.718097 
L 192.095983 153.289481 
L 194.55965 148.740392 
L 197.023317 144.987568 
L 199.486984 141.931855 
L 201.950651 139.470381 
L 204.414318 137.504837 
L 206.877986 135.946292 
L 209.341653 134.717372 
L 211.80532 133.752654 
L 214.268987 132.997977 
L 217.964488 132.165686 
L 221.659989 131.594719 
L 226.587323 131.103903 
L 232.746491 130.756288 
L 241.369326 130.527124 
L 256.151329 130.403767 
L 299.265504 130.370746 
L 704.53875 130.37038 
L 704.53875 130.37038 
" style="fill:none;stroke:#988ed5;stroke-linecap:square;stroke-width:1.5;"/>
   </g>
   <g id="line2d_35">
    <path clip-path="url(#pce2ebacbb4)" d="M 144.054473 283.407665 
L 146.51814 281.675636 
L 148.981808 279.630381 
L 151.445475 277.228103 
L 153.909142 274.424175 
L 156.372809 271.175494 
L 158.836476 267.443719 
L 161.300143 263.199379 
L 163.76381 258.426696 
L 166.227478 253.12871 
L 168.691145 247.332042 
L 172.386646 237.827205 
L 177.31398 224.140494 
L 183.473148 206.856612 
L 187.168648 197.211947 
L 189.632316 191.318091 
L 192.095983 185.937343 
L 194.55965 181.107887 
L 197.023317 176.83977 
L 199.486984 173.119565 
L 201.950651 169.916209 
L 204.414318 167.186957 
L 206.877986 164.882701 
L 209.341653 162.952252 
L 211.80532 161.345479 
L 214.268987 160.015386 
L 216.732654 158.91931 
L 219.196321 158.019459 
L 222.891822 156.967039 
L 226.587323 156.191914 
L 230.282824 155.623326 
L 235.210158 155.095506 
L 241.369326 154.682893 
L 249.992161 154.373547 
L 262.310496 154.19046 
L 286.947168 154.105889 
L 417.521527 154.094591 
L 704.53875 154.094591 
L 704.53875 154.094591 
" style="fill:none;stroke:#777777;stroke-linecap:square;stroke-width:1.5;"/>
   </g>
   <g id="line2d_36">
    <path clip-path="url(#pce2ebacbb4)" d="M 67.98875 292.133832 
L 72.300168 292.0228 
L 73.839959 291.772028 
L 74.763835 291.437748 
L 75.68771 290.914408 
L 76.611585 290.117757 
L 78.151377 288.355416 
L 81.538919 284.318231 
L 82.770753 283.285194 
L 84.926462 281.920653 
L 86.466254 281.17524 
L 88.006046 280.649124 
L 91.08563 279.933938 
L 93.857255 279.464839 
L 98.168673 278.980622 
L 104.635799 278.347644 
L 108.023341 277.983415 
L 115.106384 277.266547 
L 118.801885 276.615066 
L 121.573511 275.908187 
L 129.888387 273.397813 
L 132.352054 272.429337 
L 135.431638 271.040967 
L 136.97143 270.146463 
L 138.511222 268.851777 
L 139.435097 267.799338 
L 140.666931 266.045284 
L 141.590806 264.320033 
L 142.514681 262.102485 
L 143.438556 259.328056 
L 144.054473 257.217679 
L 144.054473 257.217679 
" style="fill:none;stroke:#fbc15e;stroke-linecap:square;stroke-width:1.5;"/>
   </g>
   <g id="line2d_37">
    <path clip-path="url(#pce2ebacbb4)" d="M 144.054473 257.217679 
L 146.51814 249.160702 
L 148.981808 239.848806 
L 151.445475 229.358079 
L 153.909142 217.880988 
L 158.836476 193.315177 
L 162.531977 175.200275 
L 164.995644 164.08198 
L 167.459311 154.103873 
L 169.922978 145.440707 
L 172.386646 138.137785 
L 173.618479 134.981107 
L 174.850313 132.136138 
L 176.082146 129.585054 
L 177.31398 127.307942 
L 178.545813 125.283719 
L 179.777647 123.490908 
L 181.009481 121.908246 
L 182.241314 120.515152 
L 184.704981 118.22067 
L 187.168648 116.466583 
L 189.632316 115.134431 
L 192.095983 114.127799 
L 194.55965 113.370044 
L 197.023317 112.801277 
L 200.718818 112.20444 
L 205.646152 111.723613 
L 211.80532 111.410351 
L 220.428155 111.225085 
L 237.673825 111.135648 
L 322.670342 111.122701 
L 704.53875 111.1227 
L 704.53875 111.1227 
" style="fill:none;stroke:#8eba42;stroke-linecap:square;stroke-width:1.5;"/>
   </g>
   <g id="patch_3">
    <path d="M 67.98875 301.187403 
L 67.98875 102.072 
" style="fill:none;stroke:#ffffff;stroke-linecap:square;stroke-linejoin:miter;"/>
   </g>
   <g id="patch_4">
    <path d="M 704.53875 301.187403 
L 704.53875 102.072 
" style="fill:none;stroke:#ffffff;stroke-linecap:square;stroke-linejoin:miter;"/>
   </g>
   <g id="patch_5">
    <path d="M 67.98875 301.187403 
L 704.53875 301.187403 
" style="fill:none;stroke:#ffffff;stroke-linecap:square;stroke-linejoin:miter;"/>
   </g>
   <g id="patch_6">
    <path d="M 67.98875 102.072 
L 704.53875 102.072 
" style="fill:none;stroke:#ffffff;stroke-linecap:square;stroke-linejoin:miter;"/>
   </g>
  </g>
  <g id="axes_2">
   <g id="patch_7">
    <path d="M 67.98875 512.64 
L 704.53875 512.64 
L 704.53875 313.524597 
L 67.98875 313.524597 
z
" style="fill:#e5e5e5;"/>
   </g>
   <g id="matplotlib.axis_3">
    <g id="xtick_26">
     <g id="line2d_38">
      <g>
       <use style="fill:#555555;stroke:#555555;stroke-width:0.8;" x="67.98875" xlink:href="#m11edb87b2f" y="512.64"/>
      </g>
     </g>
    </g>
    <g id="xtick_27">
     <g id="line2d_39">
      <g>
       <use style="fill:#555555;stroke:#555555;stroke-width:0.8;" x="162.839935" xlink:href="#m11edb87b2f" y="512.64"/>
      </g>
     </g>
     <g id="text_9">
      <!-- 2021 -->
      <g style="fill:#555555;" transform="translate(139.759745 538.94544)rotate(-30)scale(0.1 -0.1)">
       <use xlink:href="#DejaVuSans-50"/>
       <use x="63.623047" xlink:href="#DejaVuSans-48"/>
       <use x="127.246094" xlink:href="#DejaVuSans-50"/>
       <use x="190.869141" xlink:href="#DejaVuSans-49"/>
      </g>
     </g>
    </g>
    <g id="xtick_28">
     <g id="line2d_40">
      <g>
       <use style="fill:#555555;stroke:#555555;stroke-width:0.8;" x="275.244749" xlink:href="#m11edb87b2f" y="512.64"/>
      </g>
     </g>
     <g id="text_10">
      <!-- 2022 -->
      <g style="fill:#555555;" transform="translate(252.164559 538.94544)rotate(-30)scale(0.1 -0.1)">
       <use xlink:href="#DejaVuSans-50"/>
       <use x="63.623047" xlink:href="#DejaVuSans-48"/>
       <use x="127.246094" xlink:href="#DejaVuSans-50"/>
       <use x="190.869141" xlink:href="#DejaVuSans-50"/>
      </g>
     </g>
    </g>
    <g id="xtick_29">
     <g id="line2d_41">
      <g>
       <use style="fill:#555555;stroke:#555555;stroke-width:0.8;" x="387.649563" xlink:href="#m11edb87b2f" y="512.64"/>
      </g>
     </g>
     <g id="text_11">
      <!-- 2023 -->
      <g style="fill:#555555;" transform="translate(364.569372 538.94544)rotate(-30)scale(0.1 -0.1)">
       <defs>
        <path d="M 40.578125 39.3125 
Q 47.65625 37.796875 51.625 33 
Q 55.609375 28.21875 55.609375 21.1875 
Q 55.609375 10.40625 48.1875 4.484375 
Q 40.765625 -1.421875 27.09375 -1.421875 
Q 22.515625 -1.421875 17.65625 -0.515625 
Q 12.796875 0.390625 7.625 2.203125 
L 7.625 11.71875 
Q 11.71875 9.328125 16.59375 8.109375 
Q 21.484375 6.890625 26.8125 6.890625 
Q 36.078125 6.890625 40.9375 10.546875 
Q 45.796875 14.203125 45.796875 21.1875 
Q 45.796875 27.640625 41.28125 31.265625 
Q 36.765625 34.90625 28.71875 34.90625 
L 20.21875 34.90625 
L 20.21875 43.015625 
L 29.109375 43.015625 
Q 36.375 43.015625 40.234375 45.921875 
Q 44.09375 48.828125 44.09375 54.296875 
Q 44.09375 59.90625 40.109375 62.90625 
Q 36.140625 65.921875 28.71875 65.921875 
Q 24.65625 65.921875 20.015625 65.03125 
Q 15.375 64.15625 9.8125 62.3125 
L 9.8125 71.09375 
Q 15.4375 72.65625 20.34375 73.4375 
Q 25.25 74.21875 29.59375 74.21875 
Q 40.828125 74.21875 47.359375 69.109375 
Q 53.90625 64.015625 53.90625 55.328125 
Q 53.90625 49.265625 50.4375 45.09375 
Q 46.96875 40.921875 40.578125 39.3125 
z
" id="DejaVuSans-51"/>
       </defs>
       <use xlink:href="#DejaVuSans-50"/>
       <use x="63.623047" xlink:href="#DejaVuSans-48"/>
       <use x="127.246094" xlink:href="#DejaVuSans-50"/>
       <use x="190.869141" xlink:href="#DejaVuSans-51"/>
      </g>
     </g>
    </g>
    <g id="xtick_30">
     <g id="line2d_42">
      <g>
       <use style="fill:#555555;stroke:#555555;stroke-width:0.8;" x="500.054377" xlink:href="#m11edb87b2f" y="512.64"/>
      </g>
     </g>
     <g id="text_12">
      <!-- 2024 -->
      <g style="fill:#555555;" transform="translate(476.974186 538.94544)rotate(-30)scale(0.1 -0.1)">
       <use xlink:href="#DejaVuSans-50"/>
       <use x="63.623047" xlink:href="#DejaVuSans-48"/>
       <use x="127.246094" xlink:href="#DejaVuSans-50"/>
       <use x="190.869141" xlink:href="#DejaVuSans-52"/>
      </g>
     </g>
    </g>
    <g id="xtick_31">
     <g id="line2d_43">
      <g>
       <use style="fill:#555555;stroke:#555555;stroke-width:0.8;" x="612.767149" xlink:href="#m11edb87b2f" y="512.64"/>
      </g>
     </g>
     <g id="text_13">
      <!-- 2025 -->
      <g style="fill:#555555;" transform="translate(589.686958 538.94544)rotate(-30)scale(0.1 -0.1)">
       <defs>
        <path d="M 10.796875 72.90625 
L 49.515625 72.90625 
L 49.515625 64.59375 
L 19.828125 64.59375 
L 19.828125 46.734375 
Q 21.96875 47.46875 24.109375 47.828125 
Q 26.265625 48.1875 28.421875 48.1875 
Q 40.625 48.1875 47.75 41.5 
Q 54.890625 34.8125 54.890625 23.390625 
Q 54.890625 11.625 47.5625 5.09375 
Q 40.234375 -1.421875 26.90625 -1.421875 
Q 22.3125 -1.421875 17.546875 -0.640625 
Q 12.796875 0.140625 7.71875 1.703125 
L 7.71875 11.625 
Q 12.109375 9.234375 16.796875 8.0625 
Q 21.484375 6.890625 26.703125 6.890625 
Q 35.15625 6.890625 40.078125 11.328125 
Q 45.015625 15.765625 45.015625 23.390625 
Q 45.015625 31 40.078125 35.4375 
Q 35.15625 39.890625 26.703125 39.890625 
Q 22.75 39.890625 18.8125 39.015625 
Q 14.890625 38.140625 10.796875 36.28125 
z
" id="DejaVuSans-53"/>
       </defs>
       <use xlink:href="#DejaVuSans-50"/>
       <use x="63.623047" xlink:href="#DejaVuSans-48"/>
       <use x="127.246094" xlink:href="#DejaVuSans-50"/>
       <use x="190.869141" xlink:href="#DejaVuSans-53"/>
      </g>
     </g>
    </g>
    <g id="xtick_32">
     <g id="line2d_44">
      <g>
       <use style="fill:#555555;stroke:#555555;stroke-width:0.8;" x="704.53875" xlink:href="#m11edb87b2f" y="512.64"/>
      </g>
     </g>
    </g>
    <g id="xtick_33">
     <g id="line2d_45">
      <g>
       <use style="fill:#555555;stroke:#555555;stroke-width:0.6;" x="78.151377" xlink:href="#m5708ef0cb7" y="512.64"/>
      </g>
     </g>
    </g>
    <g id="xtick_34">
     <g id="line2d_46">
      <g>
       <use style="fill:#555555;stroke:#555555;stroke-width:0.6;" x="106.175591" xlink:href="#m5708ef0cb7" y="512.64"/>
      </g>
     </g>
    </g>
    <g id="xtick_35">
     <g id="line2d_47">
      <g>
       <use style="fill:#555555;stroke:#555555;stroke-width:0.6;" x="134.507763" xlink:href="#m5708ef0cb7" y="512.64"/>
      </g>
     </g>
    </g>
    <g id="xtick_36">
     <g id="line2d_48">
      <g>
       <use style="fill:#555555;stroke:#555555;stroke-width:0.6;" x="190.556191" xlink:href="#m5708ef0cb7" y="512.64"/>
      </g>
     </g>
    </g>
    <g id="xtick_37">
     <g id="line2d_49">
      <g>
       <use style="fill:#555555;stroke:#555555;stroke-width:0.6;" x="218.580405" xlink:href="#m5708ef0cb7" y="512.64"/>
      </g>
     </g>
    </g>
    <g id="xtick_38">
     <g id="line2d_50">
      <g>
       <use style="fill:#555555;stroke:#555555;stroke-width:0.6;" x="246.912577" xlink:href="#m5708ef0cb7" y="512.64"/>
      </g>
     </g>
    </g>
    <g id="xtick_39">
     <g id="line2d_51">
      <g>
       <use style="fill:#555555;stroke:#555555;stroke-width:0.6;" x="302.961004" xlink:href="#m5708ef0cb7" y="512.64"/>
      </g>
     </g>
    </g>
    <g id="xtick_40">
     <g id="line2d_52">
      <g>
       <use style="fill:#555555;stroke:#555555;stroke-width:0.6;" x="330.985218" xlink:href="#m5708ef0cb7" y="512.64"/>
      </g>
     </g>
    </g>
    <g id="xtick_41">
     <g id="line2d_53">
      <g>
       <use style="fill:#555555;stroke:#555555;stroke-width:0.6;" x="359.317391" xlink:href="#m5708ef0cb7" y="512.64"/>
      </g>
     </g>
    </g>
    <g id="xtick_42">
     <g id="line2d_54">
      <g>
       <use style="fill:#555555;stroke:#555555;stroke-width:0.6;" x="415.365818" xlink:href="#m5708ef0cb7" y="512.64"/>
      </g>
     </g>
    </g>
    <g id="xtick_43">
     <g id="line2d_55">
      <g>
       <use style="fill:#555555;stroke:#555555;stroke-width:0.6;" x="443.390032" xlink:href="#m5708ef0cb7" y="512.64"/>
      </g>
     </g>
    </g>
    <g id="xtick_44">
     <g id="line2d_56">
      <g>
       <use style="fill:#555555;stroke:#555555;stroke-width:0.6;" x="471.722204" xlink:href="#m5708ef0cb7" y="512.64"/>
      </g>
     </g>
    </g>
    <g id="xtick_45">
     <g id="line2d_57">
      <g>
       <use style="fill:#555555;stroke:#555555;stroke-width:0.6;" x="528.07859" xlink:href="#m5708ef0cb7" y="512.64"/>
      </g>
     </g>
    </g>
    <g id="xtick_46">
     <g id="line2d_58">
      <g>
       <use style="fill:#555555;stroke:#555555;stroke-width:0.6;" x="556.102804" xlink:href="#m5708ef0cb7" y="512.64"/>
      </g>
     </g>
    </g>
    <g id="xtick_47">
     <g id="line2d_59">
      <g>
       <use style="fill:#555555;stroke:#555555;stroke-width:0.6;" x="584.434976" xlink:href="#m5708ef0cb7" y="512.64"/>
      </g>
     </g>
    </g>
    <g id="xtick_48">
     <g id="line2d_60">
      <g>
       <use style="fill:#555555;stroke:#555555;stroke-width:0.6;" x="640.483404" xlink:href="#m5708ef0cb7" y="512.64"/>
      </g>
     </g>
    </g>
    <g id="xtick_49">
     <g id="line2d_61">
      <g>
       <use style="fill:#555555;stroke:#555555;stroke-width:0.6;" x="668.507618" xlink:href="#m5708ef0cb7" y="512.64"/>
      </g>
     </g>
    </g>
    <g id="xtick_50">
     <g id="line2d_62">
      <g>
       <use style="fill:#555555;stroke:#555555;stroke-width:0.6;" x="696.83979" xlink:href="#m5708ef0cb7" y="512.64"/>
      </g>
     </g>
    </g>
    <g id="text_14">
     <!-- Date -->
     <g style="fill:#555555;" transform="translate(371.922813 553.864627)scale(0.12 -0.12)">
      <defs>
       <path d="M 19.671875 64.796875 
L 19.671875 8.109375 
L 31.59375 8.109375 
Q 46.6875 8.109375 53.6875 14.9375 
Q 60.6875 21.78125 60.6875 36.53125 
Q 60.6875 51.171875 53.6875 57.984375 
Q 46.6875 64.796875 31.59375 64.796875 
z
M 9.8125 72.90625 
L 30.078125 72.90625 
Q 51.265625 72.90625 61.171875 64.09375 
Q 71.09375 55.28125 71.09375 36.53125 
Q 71.09375 17.671875 61.125 8.828125 
Q 51.171875 0 30.078125 0 
L 9.8125 0 
z
" id="DejaVuSans-68"/>
      </defs>
      <use xlink:href="#DejaVuSans-68"/>
      <use x="77.001953" xlink:href="#DejaVuSans-97"/>
      <use x="138.28125" xlink:href="#DejaVuSans-116"/>
      <use x="177.490234" xlink:href="#DejaVuSans-101"/>
     </g>
    </g>
   </g>
   <g id="matplotlib.axis_4">
    <g id="ytick_7">
     <g id="line2d_63">
      <g>
       <use style="fill:#555555;stroke:#555555;stroke-width:0.8;" x="67.98875" xlink:href="#m0bb865e5f0" y="503.5893"/>
      </g>
     </g>
     <g id="text_15">
      <!-- 0 -->
      <g style="fill:#555555;" transform="translate(54.62625 507.388519)scale(0.1 -0.1)">
       <use xlink:href="#DejaVuSans-48"/>
      </g>
     </g>
    </g>
    <g id="ytick_8">
     <g id="line2d_64">
      <g>
       <use style="fill:#555555;stroke:#555555;stroke-width:0.8;" x="67.98875" xlink:href="#m0bb865e5f0" y="477.277205"/>
      </g>
     </g>
     <g id="text_16">
      <!-- 50000 -->
      <g style="fill:#555555;" transform="translate(29.17625 481.076424)scale(0.1 -0.1)">
       <use xlink:href="#DejaVuSans-53"/>
       <use x="63.623047" xlink:href="#DejaVuSans-48"/>
       <use x="127.246094" xlink:href="#DejaVuSans-48"/>
       <use x="190.869141" xlink:href="#DejaVuSans-48"/>
       <use x="254.492188" xlink:href="#DejaVuSans-48"/>
      </g>
     </g>
    </g>
    <g id="ytick_9">
     <g id="line2d_65">
      <g>
       <use style="fill:#555555;stroke:#555555;stroke-width:0.8;" x="67.98875" xlink:href="#m0bb865e5f0" y="450.96511"/>
      </g>
     </g>
     <g id="text_17">
      <!-- 100000 -->
      <g style="fill:#555555;" transform="translate(22.81375 454.764329)scale(0.1 -0.1)">
       <use xlink:href="#DejaVuSans-49"/>
       <use x="63.623047" xlink:href="#DejaVuSans-48"/>
       <use x="127.246094" xlink:href="#DejaVuSans-48"/>
       <use x="190.869141" xlink:href="#DejaVuSans-48"/>
       <use x="254.492188" xlink:href="#DejaVuSans-48"/>
       <use x="318.115234" xlink:href="#DejaVuSans-48"/>
      </g>
     </g>
    </g>
    <g id="ytick_10">
     <g id="line2d_66">
      <g>
       <use style="fill:#555555;stroke:#555555;stroke-width:0.8;" x="67.98875" xlink:href="#m0bb865e5f0" y="424.653015"/>
      </g>
     </g>
     <g id="text_18">
      <!-- 150000 -->
      <g style="fill:#555555;" transform="translate(22.81375 428.452234)scale(0.1 -0.1)">
       <use xlink:href="#DejaVuSans-49"/>
       <use x="63.623047" xlink:href="#DejaVuSans-53"/>
       <use x="127.246094" xlink:href="#DejaVuSans-48"/>
       <use x="190.869141" xlink:href="#DejaVuSans-48"/>
       <use x="254.492188" xlink:href="#DejaVuSans-48"/>
       <use x="318.115234" xlink:href="#DejaVuSans-48"/>
      </g>
     </g>
    </g>
    <g id="ytick_11">
     <g id="line2d_67">
      <g>
       <use style="fill:#555555;stroke:#555555;stroke-width:0.8;" x="67.98875" xlink:href="#m0bb865e5f0" y="398.340921"/>
      </g>
     </g>
     <g id="text_19">
      <!-- 200000 -->
      <g style="fill:#555555;" transform="translate(22.81375 402.140139)scale(0.1 -0.1)">
       <use xlink:href="#DejaVuSans-50"/>
       <use x="63.623047" xlink:href="#DejaVuSans-48"/>
       <use x="127.246094" xlink:href="#DejaVuSans-48"/>
       <use x="190.869141" xlink:href="#DejaVuSans-48"/>
       <use x="254.492188" xlink:href="#DejaVuSans-48"/>
       <use x="318.115234" xlink:href="#DejaVuSans-48"/>
      </g>
     </g>
    </g>
    <g id="ytick_12">
     <g id="line2d_68">
      <g>
       <use style="fill:#555555;stroke:#555555;stroke-width:0.8;" x="67.98875" xlink:href="#m0bb865e5f0" y="372.028826"/>
      </g>
     </g>
     <g id="text_20">
      <!-- 250000 -->
      <g style="fill:#555555;" transform="translate(22.81375 375.828044)scale(0.1 -0.1)">
       <use xlink:href="#DejaVuSans-50"/>
       <use x="63.623047" xlink:href="#DejaVuSans-53"/>
       <use x="127.246094" xlink:href="#DejaVuSans-48"/>
       <use x="190.869141" xlink:href="#DejaVuSans-48"/>
       <use x="254.492188" xlink:href="#DejaVuSans-48"/>
       <use x="318.115234" xlink:href="#DejaVuSans-48"/>
      </g>
     </g>
    </g>
    <g id="ytick_13">
     <g id="line2d_69">
      <g>
       <use style="fill:#555555;stroke:#555555;stroke-width:0.8;" x="67.98875" xlink:href="#m0bb865e5f0" y="345.716731"/>
      </g>
     </g>
     <g id="text_21">
      <!-- 300000 -->
      <g style="fill:#555555;" transform="translate(22.81375 349.51595)scale(0.1 -0.1)">
       <use xlink:href="#DejaVuSans-51"/>
       <use x="63.623047" xlink:href="#DejaVuSans-48"/>
       <use x="127.246094" xlink:href="#DejaVuSans-48"/>
       <use x="190.869141" xlink:href="#DejaVuSans-48"/>
       <use x="254.492188" xlink:href="#DejaVuSans-48"/>
       <use x="318.115234" xlink:href="#DejaVuSans-48"/>
      </g>
     </g>
    </g>
    <g id="ytick_14">
     <g id="line2d_70">
      <g>
       <use style="fill:#555555;stroke:#555555;stroke-width:0.8;" x="67.98875" xlink:href="#m0bb865e5f0" y="319.404636"/>
      </g>
     </g>
     <g id="text_22">
      <!-- 350000 -->
      <g style="fill:#555555;" transform="translate(22.81375 323.203855)scale(0.1 -0.1)">
       <use xlink:href="#DejaVuSans-51"/>
       <use x="63.623047" xlink:href="#DejaVuSans-53"/>
       <use x="127.246094" xlink:href="#DejaVuSans-48"/>
       <use x="190.869141" xlink:href="#DejaVuSans-48"/>
       <use x="254.492188" xlink:href="#DejaVuSans-48"/>
       <use x="318.115234" xlink:href="#DejaVuSans-48"/>
      </g>
     </g>
    </g>
    <g id="text_23">
     <!-- Daily -->
     <g style="fill:#555555;" transform="translate(16.318125 428.264173)rotate(-90)scale(0.12 -0.12)">
      <defs>
       <path d="M 9.421875 54.6875 
L 18.40625 54.6875 
L 18.40625 0 
L 9.421875 0 
z
M 9.421875 75.984375 
L 18.40625 75.984375 
L 18.40625 64.59375 
L 9.421875 64.59375 
z
" id="DejaVuSans-105"/>
       <path d="M 32.171875 -5.078125 
Q 28.375 -14.84375 24.75 -17.8125 
Q 21.140625 -20.796875 15.09375 -20.796875 
L 7.90625 -20.796875 
L 7.90625 -13.28125 
L 13.1875 -13.28125 
Q 16.890625 -13.28125 18.9375 -11.515625 
Q 21 -9.765625 23.484375 -3.21875 
L 25.09375 0.875 
L 2.984375 54.6875 
L 12.5 54.6875 
L 29.59375 11.921875 
L 46.6875 54.6875 
L 56.203125 54.6875 
z
" id="DejaVuSans-121"/>
      </defs>
      <use xlink:href="#DejaVuSans-68"/>
      <use x="77.001953" xlink:href="#DejaVuSans-97"/>
      <use x="138.28125" xlink:href="#DejaVuSans-105"/>
      <use x="166.064453" xlink:href="#DejaVuSans-108"/>
      <use x="193.847656" xlink:href="#DejaVuSans-121"/>
     </g>
    </g>
   </g>
   <g id="line2d_71">
    <path clip-path="url(#pfd2d79ebce)" d="M 68.296708 503.586406 
L 72.608126 503.363768 
L 74.147918 502.940519 
L 76.611585 501.459449 
L 77.227502 501.038004 
L 79.691169 500.725567 
L 80.923003 501.046123 
L 83.38667 502.102215 
L 85.23442 502.344888 
L 85.850337 502.515917 
L 89.545838 503.097489 
L 90.777671 503.08952 
L 102.172132 503.412783 
L 104.019882 503.268668 
L 106.175591 503.343019 
L 111.102925 503.388952 
L 125.57697 502.955855 
L 127.42472 502.935332 
L 129.580429 502.877821 
L 131.120221 502.688148 
L 134.199805 502.590042 
L 136.355513 502.321282 
L 138.511222 501.446819 
L 140.974889 499.768333 
L 141.282848 499.474539 
L 141.898765 498.536851 
L 142.514681 497.867697 
L 143.438556 496.341972 
L 144.054473 495.789718 
L 144.054473 495.789718 
" style="fill:none;stroke:#e24a33;stroke-linecap:square;stroke-width:1.5;"/>
   </g>
   <g id="line2d_72">
    <path clip-path="url(#pfd2d79ebce)" d="M 145.286307 470.657667 
L 146.51814 466.640543 
L 147.749974 462.200552 
L 148.981808 457.311358 
L 151.445475 446.099338 
L 153.909142 432.898276 
L 156.372809 417.761743 
L 158.836476 400.992411 
L 164.995644 357.125184 
L 166.227478 349.297831 
L 167.459311 342.259144 
L 168.691145 336.223773 
L 169.922978 331.393499 
L 171.154812 327.94466 
L 172.386646 326.015869 
L 173.618479 325.697311 
L 174.850313 327.022919 
L 176.082146 329.966506 
L 177.31398 334.442457 
L 178.545813 340.311047 
L 179.777647 347.387798 
L 181.009481 355.455821 
L 183.473148 373.619533 
L 188.400482 411.82311 
L 190.864149 429.153459 
L 193.327816 444.304689 
L 195.791483 457.063694 
L 197.023317 462.560791 
L 198.255151 467.501828 
L 199.486984 471.920204 
L 200.718818 475.853428 
L 201.950651 479.34101 
L 203.182485 482.422841 
L 204.414318 485.13799 
L 205.646152 487.523864 
L 206.877986 489.615653 
L 208.109819 491.445999 
L 209.341653 493.044846 
L 210.573486 494.439402 
L 211.80532 495.654209 
L 214.268987 497.630141 
L 216.732654 499.120972 
L 219.196321 500.24273 
L 221.659989 501.085059 
L 224.123656 501.716597 
L 227.819156 502.379322 
L 231.514657 502.808078 
L 236.441991 503.15365 
L 243.832993 503.408026 
L 256.151329 503.547296 
L 288.179002 503.588363 
L 704.53875 503.5893 
L 704.53875 503.5893 
" style="fill:none;stroke:#348abd;stroke-linecap:square;stroke-width:1.5;"/>
   </g>
   <g id="line2d_73">
    <path clip-path="url(#pfd2d79ebce)" d="M 145.286307 474.475943 
L 147.749974 467.952084 
L 150.213641 460.241209 
L 152.677308 451.267741 
L 155.140975 441.026353 
L 157.604643 429.62078 
L 161.300143 410.939091 
L 164.995644 391.935469 
L 167.459311 380.36972 
L 168.691145 375.268703 
L 169.922978 370.784908 
L 171.154812 367.034446 
L 172.386646 364.122069 
L 173.618479 362.135559 
L 174.850313 361.140592 
L 176.082146 361.176538 
L 177.31398 362.25363 
L 178.545813 364.351818 
L 179.777647 367.421475 
L 181.009481 371.385909 
L 182.241314 376.145488 
L 183.473148 381.582961 
L 185.936815 393.97109 
L 194.55965 440.379121 
L 197.023317 451.638434 
L 199.486984 461.420093 
L 201.950651 469.707099 
L 204.414318 476.589271 
L 205.646152 479.548792 
L 206.877986 482.215406 
L 208.109819 484.611146 
L 209.341653 486.758009 
L 210.573486 488.677481 
L 213.037153 491.915726 
L 215.500821 494.477203 
L 217.964488 496.492734 
L 220.428155 498.07221 
L 222.891822 499.306045 
L 225.355489 500.267503 
L 227.819156 501.015282 
L 231.514657 501.83556 
L 235.210158 502.395622 
L 240.137492 502.875337 
L 246.29666 503.214125 
L 254.919495 503.437033 
L 269.701498 503.55688 
L 314.047507 503.588987 
L 704.53875 503.5893 
L 704.53875 503.5893 
" style="fill:none;stroke:#988ed5;stroke-linecap:square;stroke-width:1.5;"/>
   </g>
   <g id="line2d_74">
    <path clip-path="url(#pfd2d79ebce)" d="M 145.286307 479.418009 
L 147.749974 475.010416 
L 150.213641 469.971149 
L 152.677308 464.280986 
L 155.140975 457.952011 
L 157.604643 451.040159 
L 161.300143 439.844668 
L 167.459311 420.872732 
L 169.922978 414.1422 
L 171.154812 411.160738 
L 172.386646 408.503811 
L 173.618479 406.220125 
L 174.850313 404.354138 
L 176.082146 402.944379 
L 177.31398 402.021883 
L 178.545813 401.608844 
L 179.777647 401.717579 
L 181.009481 402.349876 
L 182.241314 403.496784 
L 183.473148 405.13887 
L 184.704981 407.246925 
L 185.936815 409.783086 
L 187.168648 412.702284 
L 189.632316 419.483776 
L 192.095983 427.153457 
L 200.718818 455.107307 
L 203.182485 462.185355 
L 205.646152 468.562519 
L 208.109819 474.194977 
L 210.573486 479.088746 
L 213.037153 483.283675 
L 215.500821 486.839893 
L 217.964488 489.827366 
L 220.428155 492.318464 
L 222.891822 494.383094 
L 225.355489 496.085826 
L 227.819156 497.484459 
L 230.282824 498.629557 
L 232.746491 499.564595 
L 236.441991 500.652363 
L 240.137492 501.449509 
L 243.832993 502.032081 
L 248.760327 502.57124 
L 254.919495 502.991612 
L 263.54233 503.306139 
L 275.860666 503.492036 
L 299.265504 503.576547 
L 416.289693 503.589299 
L 704.53875 503.5893 
L 704.53875 503.5893 
" style="fill:none;stroke:#777777;stroke-linecap:square;stroke-width:1.5;"/>
   </g>
   <g id="line2d_75">
    <path clip-path="url(#pfd2d79ebce)" d="M 68.296708 503.577723 
L 69.528542 503.539131 
L 71.068334 503.293402 
L 71.684251 503.196874 
L 73.224043 502.123942 
L 73.839959 501.595294 
L 74.763835 499.720069 
L 75.071793 499.447926 
L 77.227502 493.384116 
L 77.53546 493.176927 
L 77.843419 493.221733 
L 78.459335 492.458833 
L 78.767294 492.340353 
L 79.075252 492.404104 
L 79.383211 491.811405 
L 80.923003 493.416593 
L 81.230961 494.002676 
L 81.538919 494.939387 
L 81.846878 495.282196 
L 83.078711 497.48339 
L 84.310545 498.068571 
L 84.926462 498.298013 
L 86.466254 499.716159 
L 88.006046 501.087095 
L 89.545838 501.622057 
L 89.853796 501.53004 
L 91.701546 501.829547 
L 92.009505 502.019295 
L 93.549297 502.232197 
L 93.857255 502.368419 
L 95.089089 502.449009 
L 95.705005 502.697696 
L 96.320922 502.583125 
L 97.552756 502.685367 
L 98.168673 502.743404 
L 98.784589 502.838428 
L 99.708465 502.840232 
L 100.016423 502.791818 
L 100.63234 502.884436 
L 102.172132 502.883234 
L 103.096007 502.520878 
L 104.019882 502.306773 
L 104.943757 502.353985 
L 105.559674 502.566286 
L 106.791508 502.651687 
L 107.407424 502.736487 
L 111.102925 502.787909 
L 112.642717 502.665219 
L 113.258634 502.58493 
L 114.182509 502.450813 
L 117.262093 502.013882 
L 118.185968 501.785643 
L 118.801885 501.781433 
L 119.72576 501.424491 
L 120.341677 501.315333 
L 120.957594 501.150244 
L 122.805344 500.714215 
L 126.808803 501.119271 
L 129.27247 500.715718 
L 129.580429 500.743384 
L 130.196346 500.434555 
L 131.736138 499.861703 
L 132.352054 499.916733 
L 135.12368 499.310803 
L 135.431638 499.049486 
L 136.047555 498.826961 
L 136.355513 498.51723 
L 136.97143 497.495419 
L 137.279389 496.846487 
L 138.203264 495.71221 
L 139.127139 493.396145 
L 139.743056 491.828545 
L 140.051014 491.269827 
L 140.666931 489.70343 
L 141.590806 485.060172 
L 142.206723 482.068412 
L 142.514681 480.702889 
L 143.438556 474.599987 
L 144.054473 472.390974 
L 144.054473 472.390974 
" style="fill:none;stroke:#fbc15e;stroke-linecap:square;stroke-width:1.5;"/>
   </g>
   <g id="line2d_76">
    <path clip-path="url(#pfd2d79ebce)" d="M 145.286307 390.795031 
L 150.213641 354.771973 
L 151.445475 346.717636 
L 152.677308 339.476066 
L 153.909142 333.271903 
L 155.140975 328.316378 
L 156.372809 324.793937 
L 157.604643 322.849145 
L 158.836476 322.575297 
L 160.06831 324.006155 
L 161.300143 327.111933 
L 162.531977 331.800221 
L 163.76381 337.92185 
L 164.995644 345.281078 
L 167.459311 362.777928 
L 174.850313 420.689844 
L 177.31398 437.236576 
L 179.777647 451.348633 
L 181.009481 457.472145 
L 182.241314 462.99599 
L 183.473148 467.949852 
L 184.704981 472.369908 
L 185.936815 476.296134 
L 187.168648 479.770173 
L 188.400482 482.833716 
L 189.632316 485.527327 
L 190.864149 487.889625 
L 192.095983 489.956763 
L 193.327816 491.762138 
L 194.55965 493.336266 
L 195.791483 494.706782 
L 197.023317 495.898527 
L 199.486984 497.832023 
L 201.950651 499.285899 
L 204.414318 500.376245 
L 206.877986 501.192347 
L 209.341653 501.802283 
L 213.037153 502.439909 
L 216.732654 502.850528 
L 221.659989 503.179772 
L 229.05099 503.420406 
L 241.369326 503.550739 
L 275.860666 503.588684 
L 704.53875 503.5893 
L 704.53875 503.5893 
" style="fill:none;stroke:#8eba42;stroke-linecap:square;stroke-width:1.5;"/>
   </g>
   <g id="patch_8">
    <path d="M 67.98875 512.64 
L 67.98875 313.524597 
" style="fill:none;stroke:#ffffff;stroke-linecap:square;stroke-linejoin:miter;"/>
   </g>
   <g id="patch_9">
    <path d="M 704.53875 512.64 
L 704.53875 313.524597 
" style="fill:none;stroke:#ffffff;stroke-linecap:square;stroke-linejoin:miter;"/>
   </g>
   <g id="patch_10">
    <path d="M 67.98875 512.64 
L 704.53875 512.64 
" style="fill:none;stroke:#ffffff;stroke-linecap:square;stroke-linejoin:miter;"/>
   </g>
   <g id="patch_11">
    <path d="M 67.98875 313.524597 
L 704.53875 313.524597 
" style="fill:none;stroke:#ffffff;stroke-linecap:square;stroke-linejoin:miter;"/>
   </g>
   <g id="legend_1">
    <g id="patch_12">
     <path d="M 472.829375 409.593347 
L 697.53875 409.593347 
Q 699.53875 409.593347 699.53875 407.593347 
L 699.53875 320.524597 
Q 699.53875 318.524597 697.53875 318.524597 
L 472.829375 318.524597 
Q 470.829375 318.524597 470.829375 320.524597 
L 470.829375 407.593347 
Q 470.829375 409.593347 472.829375 409.593347 
z
" style="fill:#e5e5e5;opacity:0.8;stroke:#cccccc;stroke-linejoin:miter;stroke-width:0.5;"/>
    </g>
    <g id="line2d_77">
     <path d="M 474.829375 326.623034 
L 494.829375 326.623034 
" style="fill:none;stroke:#e24a33;stroke-linecap:square;stroke-width:1.5;"/>
    </g>
    <g id="line2d_78"/>
    <g id="text_24">
     <!-- Cases -->
     <g transform="translate(502.829375 330.123034)scale(0.1 -0.1)">
      <defs>
       <path d="M 64.40625 67.28125 
L 64.40625 56.890625 
Q 59.421875 61.53125 53.78125 63.8125 
Q 48.140625 66.109375 41.796875 66.109375 
Q 29.296875 66.109375 22.65625 58.46875 
Q 16.015625 50.828125 16.015625 36.375 
Q 16.015625 21.96875 22.65625 14.328125 
Q 29.296875 6.6875 41.796875 6.6875 
Q 48.140625 6.6875 53.78125 8.984375 
Q 59.421875 11.28125 64.40625 15.921875 
L 64.40625 5.609375 
Q 59.234375 2.09375 53.4375 0.328125 
Q 47.65625 -1.421875 41.21875 -1.421875 
Q 24.65625 -1.421875 15.125 8.703125 
Q 5.609375 18.84375 5.609375 36.375 
Q 5.609375 53.953125 15.125 64.078125 
Q 24.65625 74.21875 41.21875 74.21875 
Q 47.75 74.21875 53.53125 72.484375 
Q 59.328125 70.75 64.40625 67.28125 
z
" id="DejaVuSans-67"/>
       <path d="M 44.28125 53.078125 
L 44.28125 44.578125 
Q 40.484375 46.53125 36.375 47.5 
Q 32.28125 48.484375 27.875 48.484375 
Q 21.1875 48.484375 17.84375 46.4375 
Q 14.5 44.390625 14.5 40.28125 
Q 14.5 37.15625 16.890625 35.375 
Q 19.28125 33.59375 26.515625 31.984375 
L 29.59375 31.296875 
Q 39.15625 29.25 43.1875 25.515625 
Q 47.21875 21.78125 47.21875 15.09375 
Q 47.21875 7.46875 41.1875 3.015625 
Q 35.15625 -1.421875 24.609375 -1.421875 
Q 20.21875 -1.421875 15.453125 -0.5625 
Q 10.6875 0.296875 5.421875 2 
L 5.421875 11.28125 
Q 10.40625 8.6875 15.234375 7.390625 
Q 20.0625 6.109375 24.8125 6.109375 
Q 31.15625 6.109375 34.5625 8.28125 
Q 37.984375 10.453125 37.984375 14.40625 
Q 37.984375 18.0625 35.515625 20.015625 
Q 33.0625 21.96875 24.703125 23.78125 
L 21.578125 24.515625 
Q 13.234375 26.265625 9.515625 29.90625 
Q 5.8125 33.546875 5.8125 39.890625 
Q 5.8125 47.609375 11.28125 51.796875 
Q 16.75 56 26.8125 56 
Q 31.78125 56 36.171875 55.265625 
Q 40.578125 54.546875 44.28125 53.078125 
z
" id="DejaVuSans-115"/>
      </defs>
      <use xlink:href="#DejaVuSans-67"/>
      <use x="69.824219" xlink:href="#DejaVuSans-97"/>
      <use x="131.103516" xlink:href="#DejaVuSans-115"/>
      <use x="183.203125" xlink:href="#DejaVuSans-101"/>
      <use x="244.726562" xlink:href="#DejaVuSans-115"/>
     </g>
    </g>
    <g id="line2d_79">
     <path d="M 474.829375 341.301159 
L 494.829375 341.301159 
" style="fill:none;stroke:#348abd;stroke-linecap:square;stroke-width:1.5;"/>
    </g>
    <g id="line2d_80"/>
    <g id="text_25">
     <!-- Projected Cases (last 1D avg rate) -->
     <g transform="translate(502.829375 344.801159)scale(0.1 -0.1)">
      <defs>
       <path d="M 19.671875 64.796875 
L 19.671875 37.40625 
L 32.078125 37.40625 
Q 38.96875 37.40625 42.71875 40.96875 
Q 46.484375 44.53125 46.484375 51.125 
Q 46.484375 57.671875 42.71875 61.234375 
Q 38.96875 64.796875 32.078125 64.796875 
z
M 9.8125 72.90625 
L 32.078125 72.90625 
Q 44.34375 72.90625 50.609375 67.359375 
Q 56.890625 61.8125 56.890625 51.125 
Q 56.890625 40.328125 50.609375 34.8125 
Q 44.34375 29.296875 32.078125 29.296875 
L 19.671875 29.296875 
L 19.671875 0 
L 9.8125 0 
z
" id="DejaVuSans-80"/>
       <path d="M 41.109375 46.296875 
Q 39.59375 47.171875 37.8125 47.578125 
Q 36.03125 48 33.890625 48 
Q 26.265625 48 22.1875 43.046875 
Q 18.109375 38.09375 18.109375 28.8125 
L 18.109375 0 
L 9.078125 0 
L 9.078125 54.6875 
L 18.109375 54.6875 
L 18.109375 46.1875 
Q 20.953125 51.171875 25.484375 53.578125 
Q 30.03125 56 36.53125 56 
Q 37.453125 56 38.578125 55.875 
Q 39.703125 55.765625 41.0625 55.515625 
z
" id="DejaVuSans-114"/>
       <path d="M 9.421875 54.6875 
L 18.40625 54.6875 
L 18.40625 -0.984375 
Q 18.40625 -11.421875 14.421875 -16.109375 
Q 10.453125 -20.796875 1.609375 -20.796875 
L -1.8125 -20.796875 
L -1.8125 -13.1875 
L 0.59375 -13.1875 
Q 5.71875 -13.1875 7.5625 -10.8125 
Q 9.421875 -8.453125 9.421875 -0.984375 
z
M 9.421875 75.984375 
L 18.40625 75.984375 
L 18.40625 64.59375 
L 9.421875 64.59375 
z
" id="DejaVuSans-106"/>
       <path d="M 48.78125 52.59375 
L 48.78125 44.1875 
Q 44.96875 46.296875 41.140625 47.34375 
Q 37.3125 48.390625 33.40625 48.390625 
Q 24.65625 48.390625 19.8125 42.84375 
Q 14.984375 37.3125 14.984375 27.296875 
Q 14.984375 17.28125 19.8125 11.734375 
Q 24.65625 6.203125 33.40625 6.203125 
Q 37.3125 6.203125 41.140625 7.25 
Q 44.96875 8.296875 48.78125 10.40625 
L 48.78125 2.09375 
Q 45.015625 0.34375 40.984375 -0.53125 
Q 36.96875 -1.421875 32.421875 -1.421875 
Q 20.0625 -1.421875 12.78125 6.34375 
Q 5.515625 14.109375 5.515625 27.296875 
Q 5.515625 40.671875 12.859375 48.328125 
Q 20.21875 56 33.015625 56 
Q 37.15625 56 41.109375 55.140625 
Q 45.0625 54.296875 48.78125 52.59375 
z
" id="DejaVuSans-99"/>
       <path d="M 45.40625 46.390625 
L 45.40625 75.984375 
L 54.390625 75.984375 
L 54.390625 0 
L 45.40625 0 
L 45.40625 8.203125 
Q 42.578125 3.328125 38.25 0.953125 
Q 33.9375 -1.421875 27.875 -1.421875 
Q 17.96875 -1.421875 11.734375 6.484375 
Q 5.515625 14.40625 5.515625 27.296875 
Q 5.515625 40.1875 11.734375 48.09375 
Q 17.96875 56 27.875 56 
Q 33.9375 56 38.25 53.625 
Q 42.578125 51.265625 45.40625 46.390625 
z
M 14.796875 27.296875 
Q 14.796875 17.390625 18.875 11.75 
Q 22.953125 6.109375 30.078125 6.109375 
Q 37.203125 6.109375 41.296875 11.75 
Q 45.40625 17.390625 45.40625 27.296875 
Q 45.40625 37.203125 41.296875 42.84375 
Q 37.203125 48.484375 30.078125 48.484375 
Q 22.953125 48.484375 18.875 42.84375 
Q 14.796875 37.203125 14.796875 27.296875 
z
" id="DejaVuSans-100"/>
       <path id="DejaVuSans-32"/>
       <path d="M 31 75.875 
Q 24.46875 64.65625 21.28125 53.65625 
Q 18.109375 42.671875 18.109375 31.390625 
Q 18.109375 20.125 21.3125 9.0625 
Q 24.515625 -2 31 -13.1875 
L 23.1875 -13.1875 
Q 15.875 -1.703125 12.234375 9.375 
Q 8.59375 20.453125 8.59375 31.390625 
Q 8.59375 42.28125 12.203125 53.3125 
Q 15.828125 64.359375 23.1875 75.875 
z
" id="DejaVuSans-40"/>
       <path d="M 2.984375 54.6875 
L 12.5 54.6875 
L 29.59375 8.796875 
L 46.6875 54.6875 
L 56.203125 54.6875 
L 35.6875 0 
L 23.484375 0 
z
" id="DejaVuSans-118"/>
       <path d="M 45.40625 27.984375 
Q 45.40625 37.75 41.375 43.109375 
Q 37.359375 48.484375 30.078125 48.484375 
Q 22.859375 48.484375 18.828125 43.109375 
Q 14.796875 37.75 14.796875 27.984375 
Q 14.796875 18.265625 18.828125 12.890625 
Q 22.859375 7.515625 30.078125 7.515625 
Q 37.359375 7.515625 41.375 12.890625 
Q 45.40625 18.265625 45.40625 27.984375 
z
M 54.390625 6.78125 
Q 54.390625 -7.171875 48.1875 -13.984375 
Q 42 -20.796875 29.203125 -20.796875 
Q 24.46875 -20.796875 20.265625 -20.09375 
Q 16.0625 -19.390625 12.109375 -17.921875 
L 12.109375 -9.1875 
Q 16.0625 -11.328125 19.921875 -12.34375 
Q 23.78125 -13.375 27.78125 -13.375 
Q 36.625 -13.375 41.015625 -8.765625 
Q 45.40625 -4.15625 45.40625 5.171875 
L 45.40625 9.625 
Q 42.625 4.78125 38.28125 2.390625 
Q 33.9375 0 27.875 0 
Q 17.828125 0 11.671875 7.65625 
Q 5.515625 15.328125 5.515625 27.984375 
Q 5.515625 40.671875 11.671875 48.328125 
Q 17.828125 56 27.875 56 
Q 33.9375 56 38.28125 53.609375 
Q 42.625 51.21875 45.40625 46.390625 
L 45.40625 54.6875 
L 54.390625 54.6875 
z
" id="DejaVuSans-103"/>
       <path d="M 8.015625 75.875 
L 15.828125 75.875 
Q 23.140625 64.359375 26.78125 53.3125 
Q 30.421875 42.28125 30.421875 31.390625 
Q 30.421875 20.453125 26.78125 9.375 
Q 23.140625 -1.703125 15.828125 -13.1875 
L 8.015625 -13.1875 
Q 14.5 -2 17.703125 9.0625 
Q 20.90625 20.125 20.90625 31.390625 
Q 20.90625 42.671875 17.703125 53.65625 
Q 14.5 64.65625 8.015625 75.875 
z
" id="DejaVuSans-41"/>
      </defs>
      <use xlink:href="#DejaVuSans-80"/>
      <use x="58.552734" xlink:href="#DejaVuSans-114"/>
      <use x="97.416016" xlink:href="#DejaVuSans-111"/>
      <use x="158.597656" xlink:href="#DejaVuSans-106"/>
      <use x="186.380859" xlink:href="#DejaVuSans-101"/>
      <use x="247.904297" xlink:href="#DejaVuSans-99"/>
      <use x="302.884766" xlink:href="#DejaVuSans-116"/>
      <use x="342.09375" xlink:href="#DejaVuSans-101"/>
      <use x="403.617188" xlink:href="#DejaVuSans-100"/>
      <use x="467.09375" xlink:href="#DejaVuSans-32"/>
      <use x="498.880859" xlink:href="#DejaVuSans-67"/>
      <use x="568.705078" xlink:href="#DejaVuSans-97"/>
      <use x="629.984375" xlink:href="#DejaVuSans-115"/>
      <use x="682.083984" xlink:href="#DejaVuSans-101"/>
      <use x="743.607422" xlink:href="#DejaVuSans-115"/>
      <use x="795.707031" xlink:href="#DejaVuSans-32"/>
      <use x="827.494141" xlink:href="#DejaVuSans-40"/>
      <use x="866.507812" xlink:href="#DejaVuSans-108"/>
      <use x="894.291016" xlink:href="#DejaVuSans-97"/>
      <use x="955.570312" xlink:href="#DejaVuSans-115"/>
      <use x="1007.669922" xlink:href="#DejaVuSans-116"/>
      <use x="1046.878906" xlink:href="#DejaVuSans-32"/>
      <use x="1078.666016" xlink:href="#DejaVuSans-49"/>
      <use x="1142.289062" xlink:href="#DejaVuSans-68"/>
      <use x="1219.291016" xlink:href="#DejaVuSans-32"/>
      <use x="1251.078125" xlink:href="#DejaVuSans-97"/>
      <use x="1312.357422" xlink:href="#DejaVuSans-118"/>
      <use x="1371.537109" xlink:href="#DejaVuSans-103"/>
      <use x="1435.013672" xlink:href="#DejaVuSans-32"/>
      <use x="1466.800781" xlink:href="#DejaVuSans-114"/>
      <use x="1507.914062" xlink:href="#DejaVuSans-97"/>
      <use x="1569.193359" xlink:href="#DejaVuSans-116"/>
      <use x="1608.402344" xlink:href="#DejaVuSans-101"/>
      <use x="1669.925781" xlink:href="#DejaVuSans-41"/>
     </g>
    </g>
    <g id="line2d_81">
     <path d="M 474.829375 355.979284 
L 494.829375 355.979284 
" style="fill:none;stroke:#988ed5;stroke-linecap:square;stroke-width:1.5;"/>
    </g>
    <g id="line2d_82"/>
    <g id="text_26">
     <!-- Projected Cases (last 7D avg rate) -->
     <g transform="translate(502.829375 359.479284)scale(0.1 -0.1)">
      <use xlink:href="#DejaVuSans-80"/>
      <use x="58.552734" xlink:href="#DejaVuSans-114"/>
      <use x="97.416016" xlink:href="#DejaVuSans-111"/>
      <use x="158.597656" xlink:href="#DejaVuSans-106"/>
      <use x="186.380859" xlink:href="#DejaVuSans-101"/>
      <use x="247.904297" xlink:href="#DejaVuSans-99"/>
      <use x="302.884766" xlink:href="#DejaVuSans-116"/>
      <use x="342.09375" xlink:href="#DejaVuSans-101"/>
      <use x="403.617188" xlink:href="#DejaVuSans-100"/>
      <use x="467.09375" xlink:href="#DejaVuSans-32"/>
      <use x="498.880859" xlink:href="#DejaVuSans-67"/>
      <use x="568.705078" xlink:href="#DejaVuSans-97"/>
      <use x="629.984375" xlink:href="#DejaVuSans-115"/>
      <use x="682.083984" xlink:href="#DejaVuSans-101"/>
      <use x="743.607422" xlink:href="#DejaVuSans-115"/>
      <use x="795.707031" xlink:href="#DejaVuSans-32"/>
      <use x="827.494141" xlink:href="#DejaVuSans-40"/>
      <use x="866.507812" xlink:href="#DejaVuSans-108"/>
      <use x="894.291016" xlink:href="#DejaVuSans-97"/>
      <use x="955.570312" xlink:href="#DejaVuSans-115"/>
      <use x="1007.669922" xlink:href="#DejaVuSans-116"/>
      <use x="1046.878906" xlink:href="#DejaVuSans-32"/>
      <use x="1078.666016" xlink:href="#DejaVuSans-55"/>
      <use x="1142.289062" xlink:href="#DejaVuSans-68"/>
      <use x="1219.291016" xlink:href="#DejaVuSans-32"/>
      <use x="1251.078125" xlink:href="#DejaVuSans-97"/>
      <use x="1312.357422" xlink:href="#DejaVuSans-118"/>
      <use x="1371.537109" xlink:href="#DejaVuSans-103"/>
      <use x="1435.013672" xlink:href="#DejaVuSans-32"/>
      <use x="1466.800781" xlink:href="#DejaVuSans-114"/>
      <use x="1507.914062" xlink:href="#DejaVuSans-97"/>
      <use x="1569.193359" xlink:href="#DejaVuSans-116"/>
      <use x="1608.402344" xlink:href="#DejaVuSans-101"/>
      <use x="1669.925781" xlink:href="#DejaVuSans-41"/>
     </g>
    </g>
    <g id="line2d_83">
     <path d="M 474.829375 370.657409 
L 494.829375 370.657409 
" style="fill:none;stroke:#777777;stroke-linecap:square;stroke-width:1.5;"/>
    </g>
    <g id="line2d_84"/>
    <g id="text_27">
     <!-- Projected Cases (last 14D avg rate) -->
     <g transform="translate(502.829375 374.157409)scale(0.1 -0.1)">
      <use xlink:href="#DejaVuSans-80"/>
      <use x="58.552734" xlink:href="#DejaVuSans-114"/>
      <use x="97.416016" xlink:href="#DejaVuSans-111"/>
      <use x="158.597656" xlink:href="#DejaVuSans-106"/>
      <use x="186.380859" xlink:href="#DejaVuSans-101"/>
      <use x="247.904297" xlink:href="#DejaVuSans-99"/>
      <use x="302.884766" xlink:href="#DejaVuSans-116"/>
      <use x="342.09375" xlink:href="#DejaVuSans-101"/>
      <use x="403.617188" xlink:href="#DejaVuSans-100"/>
      <use x="467.09375" xlink:href="#DejaVuSans-32"/>
      <use x="498.880859" xlink:href="#DejaVuSans-67"/>
      <use x="568.705078" xlink:href="#DejaVuSans-97"/>
      <use x="629.984375" xlink:href="#DejaVuSans-115"/>
      <use x="682.083984" xlink:href="#DejaVuSans-101"/>
      <use x="743.607422" xlink:href="#DejaVuSans-115"/>
      <use x="795.707031" xlink:href="#DejaVuSans-32"/>
      <use x="827.494141" xlink:href="#DejaVuSans-40"/>
      <use x="866.507812" xlink:href="#DejaVuSans-108"/>
      <use x="894.291016" xlink:href="#DejaVuSans-97"/>
      <use x="955.570312" xlink:href="#DejaVuSans-115"/>
      <use x="1007.669922" xlink:href="#DejaVuSans-116"/>
      <use x="1046.878906" xlink:href="#DejaVuSans-32"/>
      <use x="1078.666016" xlink:href="#DejaVuSans-49"/>
      <use x="1142.289062" xlink:href="#DejaVuSans-52"/>
      <use x="1205.912109" xlink:href="#DejaVuSans-68"/>
      <use x="1282.914062" xlink:href="#DejaVuSans-32"/>
      <use x="1314.701172" xlink:href="#DejaVuSans-97"/>
      <use x="1375.980469" xlink:href="#DejaVuSans-118"/>
      <use x="1435.160156" xlink:href="#DejaVuSans-103"/>
      <use x="1498.636719" xlink:href="#DejaVuSans-32"/>
      <use x="1530.423828" xlink:href="#DejaVuSans-114"/>
      <use x="1571.537109" xlink:href="#DejaVuSans-97"/>
      <use x="1632.816406" xlink:href="#DejaVuSans-116"/>
      <use x="1672.025391" xlink:href="#DejaVuSans-101"/>
      <use x="1733.548828" xlink:href="#DejaVuSans-41"/>
     </g>
    </g>
    <g id="line2d_85">
     <path d="M 474.829375 385.335534 
L 494.829375 385.335534 
" style="fill:none;stroke:#fbc15e;stroke-linecap:square;stroke-width:1.5;"/>
    </g>
    <g id="line2d_86"/>
    <g id="text_28">
     <!-- Cases x4 -->
     <g transform="translate(502.829375 388.835534)scale(0.1 -0.1)">
      <defs>
       <path d="M 54.890625 54.6875 
L 35.109375 28.078125 
L 55.90625 0 
L 45.3125 0 
L 29.390625 21.484375 
L 13.484375 0 
L 2.875 0 
L 24.125 28.609375 
L 4.6875 54.6875 
L 15.28125 54.6875 
L 29.78125 35.203125 
L 44.28125 54.6875 
z
" id="DejaVuSans-120"/>
      </defs>
      <use xlink:href="#DejaVuSans-67"/>
      <use x="69.824219" xlink:href="#DejaVuSans-97"/>
      <use x="131.103516" xlink:href="#DejaVuSans-115"/>
      <use x="183.203125" xlink:href="#DejaVuSans-101"/>
      <use x="244.726562" xlink:href="#DejaVuSans-115"/>
      <use x="296.826172" xlink:href="#DejaVuSans-32"/>
      <use x="328.613281" xlink:href="#DejaVuSans-120"/>
      <use x="387.792969" xlink:href="#DejaVuSans-52"/>
     </g>
    </g>
    <g id="line2d_87">
     <path d="M 474.829375 400.013659 
L 494.829375 400.013659 
" style="fill:none;stroke:#8eba42;stroke-linecap:square;stroke-width:1.5;"/>
    </g>
    <g id="line2d_88"/>
    <g id="text_29">
     <!-- Projected Cases x4,  (last 7D avg rate) -->
     <g transform="translate(502.829375 403.513659)scale(0.1 -0.1)">
      <defs>
       <path d="M 11.71875 12.40625 
L 22.015625 12.40625 
L 22.015625 4 
L 14.015625 -11.625 
L 7.71875 -11.625 
L 11.71875 4 
z
" id="DejaVuSans-44"/>
      </defs>
      <use xlink:href="#DejaVuSans-80"/>
      <use x="58.552734" xlink:href="#DejaVuSans-114"/>
      <use x="97.416016" xlink:href="#DejaVuSans-111"/>
      <use x="158.597656" xlink:href="#DejaVuSans-106"/>
      <use x="186.380859" xlink:href="#DejaVuSans-101"/>
      <use x="247.904297" xlink:href="#DejaVuSans-99"/>
      <use x="302.884766" xlink:href="#DejaVuSans-116"/>
      <use x="342.09375" xlink:href="#DejaVuSans-101"/>
      <use x="403.617188" xlink:href="#DejaVuSans-100"/>
      <use x="467.09375" xlink:href="#DejaVuSans-32"/>
      <use x="498.880859" xlink:href="#DejaVuSans-67"/>
      <use x="568.705078" xlink:href="#DejaVuSans-97"/>
      <use x="629.984375" xlink:href="#DejaVuSans-115"/>
      <use x="682.083984" xlink:href="#DejaVuSans-101"/>
      <use x="743.607422" xlink:href="#DejaVuSans-115"/>
      <use x="795.707031" xlink:href="#DejaVuSans-32"/>
      <use x="827.494141" xlink:href="#DejaVuSans-120"/>
      <use x="886.673828" xlink:href="#DejaVuSans-52"/>
      <use x="950.296875" xlink:href="#DejaVuSans-44"/>
      <use x="982.083984" xlink:href="#DejaVuSans-32"/>
      <use x="1013.871094" xlink:href="#DejaVuSans-32"/>
      <use x="1045.658203" xlink:href="#DejaVuSans-40"/>
      <use x="1084.671875" xlink:href="#DejaVuSans-108"/>
      <use x="1112.455078" xlink:href="#DejaVuSans-97"/>
      <use x="1173.734375" xlink:href="#DejaVuSans-115"/>
      <use x="1225.833984" xlink:href="#DejaVuSans-116"/>
      <use x="1265.042969" xlink:href="#DejaVuSans-32"/>
      <use x="1296.830078" xlink:href="#DejaVuSans-55"/>
      <use x="1360.453125" xlink:href="#DejaVuSans-68"/>
      <use x="1437.455078" xlink:href="#DejaVuSans-32"/>
      <use x="1469.242188" xlink:href="#DejaVuSans-97"/>
      <use x="1530.521484" xlink:href="#DejaVuSans-118"/>
      <use x="1589.701172" xlink:href="#DejaVuSans-103"/>
      <use x="1653.177734" xlink:href="#DejaVuSans-32"/>
      <use x="1684.964844" xlink:href="#DejaVuSans-114"/>
      <use x="1726.078125" xlink:href="#DejaVuSans-97"/>
      <use x="1787.357422" xlink:href="#DejaVuSans-116"/>
      <use x="1826.566406" xlink:href="#DejaVuSans-101"/>
      <use x="1888.089844" xlink:href="#DejaVuSans-41"/>
     </g>
    </g>
   </g>
  </g>
  <g id="text_30">
   <!-- COVID-19 spread projection using Logistic map -->
   <g transform="translate(213.93 16.318125)scale(0.12 -0.12)">
    <defs>
     <path d="M 39.40625 66.21875 
Q 28.65625 66.21875 22.328125 58.203125 
Q 16.015625 50.203125 16.015625 36.375 
Q 16.015625 22.609375 22.328125 14.59375 
Q 28.65625 6.59375 39.40625 6.59375 
Q 50.140625 6.59375 56.421875 14.59375 
Q 62.703125 22.609375 62.703125 36.375 
Q 62.703125 50.203125 56.421875 58.203125 
Q 50.140625 66.21875 39.40625 66.21875 
z
M 39.40625 74.21875 
Q 54.734375 74.21875 63.90625 63.9375 
Q 73.09375 53.65625 73.09375 36.375 
Q 73.09375 19.140625 63.90625 8.859375 
Q 54.734375 -1.421875 39.40625 -1.421875 
Q 24.03125 -1.421875 14.8125 8.828125 
Q 5.609375 19.09375 5.609375 36.375 
Q 5.609375 53.65625 14.8125 63.9375 
Q 24.03125 74.21875 39.40625 74.21875 
z
" id="DejaVuSans-79"/>
     <path d="M 28.609375 0 
L 0.78125 72.90625 
L 11.078125 72.90625 
L 34.1875 11.53125 
L 57.328125 72.90625 
L 67.578125 72.90625 
L 39.796875 0 
z
" id="DejaVuSans-86"/>
     <path d="M 9.8125 72.90625 
L 19.671875 72.90625 
L 19.671875 0 
L 9.8125 0 
z
" id="DejaVuSans-73"/>
     <path d="M 4.890625 31.390625 
L 31.203125 31.390625 
L 31.203125 23.390625 
L 4.890625 23.390625 
z
" id="DejaVuSans-45"/>
     <path d="M 10.984375 1.515625 
L 10.984375 10.5 
Q 14.703125 8.734375 18.5 7.8125 
Q 22.3125 6.890625 25.984375 6.890625 
Q 35.75 6.890625 40.890625 13.453125 
Q 46.046875 20.015625 46.78125 33.40625 
Q 43.953125 29.203125 39.59375 26.953125 
Q 35.25 24.703125 29.984375 24.703125 
Q 19.046875 24.703125 12.671875 31.3125 
Q 6.296875 37.9375 6.296875 49.421875 
Q 6.296875 60.640625 12.9375 67.421875 
Q 19.578125 74.21875 30.609375 74.21875 
Q 43.265625 74.21875 49.921875 64.515625 
Q 56.59375 54.828125 56.59375 36.375 
Q 56.59375 19.140625 48.40625 8.859375 
Q 40.234375 -1.421875 26.421875 -1.421875 
Q 22.703125 -1.421875 18.890625 -0.6875 
Q 15.09375 0.046875 10.984375 1.515625 
z
M 30.609375 32.421875 
Q 37.25 32.421875 41.125 36.953125 
Q 45.015625 41.5 45.015625 49.421875 
Q 45.015625 57.28125 41.125 61.84375 
Q 37.25 66.40625 30.609375 66.40625 
Q 23.96875 66.40625 20.09375 61.84375 
Q 16.21875 57.28125 16.21875 49.421875 
Q 16.21875 41.5 20.09375 36.953125 
Q 23.96875 32.421875 30.609375 32.421875 
z
" id="DejaVuSans-57"/>
     <path d="M 18.109375 8.203125 
L 18.109375 -20.796875 
L 9.078125 -20.796875 
L 9.078125 54.6875 
L 18.109375 54.6875 
L 18.109375 46.390625 
Q 20.953125 51.265625 25.265625 53.625 
Q 29.59375 56 35.59375 56 
Q 45.5625 56 51.78125 48.09375 
Q 58.015625 40.1875 58.015625 27.296875 
Q 58.015625 14.40625 51.78125 6.484375 
Q 45.5625 -1.421875 35.59375 -1.421875 
Q 29.59375 -1.421875 25.265625 0.953125 
Q 20.953125 3.328125 18.109375 8.203125 
z
M 48.6875 27.296875 
Q 48.6875 37.203125 44.609375 42.84375 
Q 40.53125 48.484375 33.40625 48.484375 
Q 26.265625 48.484375 22.1875 42.84375 
Q 18.109375 37.203125 18.109375 27.296875 
Q 18.109375 17.390625 22.1875 11.75 
Q 26.265625 6.109375 33.40625 6.109375 
Q 40.53125 6.109375 44.609375 11.75 
Q 48.6875 17.390625 48.6875 27.296875 
z
" id="DejaVuSans-112"/>
     <path d="M 54.890625 33.015625 
L 54.890625 0 
L 45.90625 0 
L 45.90625 32.71875 
Q 45.90625 40.484375 42.875 44.328125 
Q 39.84375 48.1875 33.796875 48.1875 
Q 26.515625 48.1875 22.3125 43.546875 
Q 18.109375 38.921875 18.109375 30.90625 
L 18.109375 0 
L 9.078125 0 
L 9.078125 54.6875 
L 18.109375 54.6875 
L 18.109375 46.1875 
Q 21.34375 51.125 25.703125 53.5625 
Q 30.078125 56 35.796875 56 
Q 45.21875 56 50.046875 50.171875 
Q 54.890625 44.34375 54.890625 33.015625 
z
" id="DejaVuSans-110"/>
     <path d="M 8.5 21.578125 
L 8.5 54.6875 
L 17.484375 54.6875 
L 17.484375 21.921875 
Q 17.484375 14.15625 20.5 10.265625 
Q 23.53125 6.390625 29.59375 6.390625 
Q 36.859375 6.390625 41.078125 11.03125 
Q 45.3125 15.671875 45.3125 23.6875 
L 45.3125 54.6875 
L 54.296875 54.6875 
L 54.296875 0 
L 45.3125 0 
L 45.3125 8.40625 
Q 42.046875 3.421875 37.71875 1 
Q 33.40625 -1.421875 27.6875 -1.421875 
Q 18.265625 -1.421875 13.375 4.4375 
Q 8.5 10.296875 8.5 21.578125 
z
M 31.109375 56 
z
" id="DejaVuSans-117"/>
     <path d="M 9.8125 72.90625 
L 19.671875 72.90625 
L 19.671875 8.296875 
L 55.171875 8.296875 
L 55.171875 0 
L 9.8125 0 
z
" id="DejaVuSans-76"/>
     <path d="M 52 44.1875 
Q 55.375 50.25 60.0625 53.125 
Q 64.75 56 71.09375 56 
Q 79.640625 56 84.28125 50.015625 
Q 88.921875 44.046875 88.921875 33.015625 
L 88.921875 0 
L 79.890625 0 
L 79.890625 32.71875 
Q 79.890625 40.578125 77.09375 44.375 
Q 74.3125 48.1875 68.609375 48.1875 
Q 61.625 48.1875 57.5625 43.546875 
Q 53.515625 38.921875 53.515625 30.90625 
L 53.515625 0 
L 44.484375 0 
L 44.484375 32.71875 
Q 44.484375 40.625 41.703125 44.40625 
Q 38.921875 48.1875 33.109375 48.1875 
Q 26.21875 48.1875 22.15625 43.53125 
Q 18.109375 38.875 18.109375 30.90625 
L 18.109375 0 
L 9.078125 0 
L 9.078125 54.6875 
L 18.109375 54.6875 
L 18.109375 46.1875 
Q 21.1875 51.21875 25.484375 53.609375 
Q 29.78125 56 35.6875 56 
Q 41.65625 56 45.828125 52.96875 
Q 50 49.953125 52 44.1875 
z
" id="DejaVuSans-109"/>
    </defs>
    <use xlink:href="#DejaVuSans-67"/>
    <use x="69.824219" xlink:href="#DejaVuSans-79"/>
    <use x="146.785156" xlink:href="#DejaVuSans-86"/>
    <use x="215.193359" xlink:href="#DejaVuSans-73"/>
    <use x="244.685547" xlink:href="#DejaVuSans-68"/>
    <use x="321.6875" xlink:href="#DejaVuSans-45"/>
    <use x="357.771484" xlink:href="#DejaVuSans-49"/>
    <use x="421.394531" xlink:href="#DejaVuSans-57"/>
    <use x="485.017578" xlink:href="#DejaVuSans-32"/>
    <use x="516.804688" xlink:href="#DejaVuSans-115"/>
    <use x="568.904297" xlink:href="#DejaVuSans-112"/>
    <use x="632.380859" xlink:href="#DejaVuSans-114"/>
    <use x="671.244141" xlink:href="#DejaVuSans-101"/>
    <use x="732.767578" xlink:href="#DejaVuSans-97"/>
    <use x="794.046875" xlink:href="#DejaVuSans-100"/>
    <use x="857.523438" xlink:href="#DejaVuSans-32"/>
    <use x="889.310547" xlink:href="#DejaVuSans-112"/>
    <use x="952.787109" xlink:href="#DejaVuSans-114"/>
    <use x="991.650391" xlink:href="#DejaVuSans-111"/>
    <use x="1052.832031" xlink:href="#DejaVuSans-106"/>
    <use x="1080.615234" xlink:href="#DejaVuSans-101"/>
    <use x="1142.138672" xlink:href="#DejaVuSans-99"/>
    <use x="1197.119141" xlink:href="#DejaVuSans-116"/>
    <use x="1236.328125" xlink:href="#DejaVuSans-105"/>
    <use x="1264.111328" xlink:href="#DejaVuSans-111"/>
    <use x="1325.292969" xlink:href="#DejaVuSans-110"/>
    <use x="1388.671875" xlink:href="#DejaVuSans-32"/>
    <use x="1420.458984" xlink:href="#DejaVuSans-117"/>
    <use x="1483.837891" xlink:href="#DejaVuSans-115"/>
    <use x="1535.9375" xlink:href="#DejaVuSans-105"/>
    <use x="1563.720703" xlink:href="#DejaVuSans-110"/>
    <use x="1627.099609" xlink:href="#DejaVuSans-103"/>
    <use x="1690.576172" xlink:href="#DejaVuSans-32"/>
    <use x="1722.363281" xlink:href="#DejaVuSans-76"/>
    <use x="1776.326172" xlink:href="#DejaVuSans-111"/>
    <use x="1837.507812" xlink:href="#DejaVuSans-103"/>
    <use x="1900.984375" xlink:href="#DejaVuSans-105"/>
    <use x="1928.767578" xlink:href="#DejaVuSans-115"/>
    <use x="1980.867188" xlink:href="#DejaVuSans-116"/>
    <use x="2020.076172" xlink:href="#DejaVuSans-105"/>
    <use x="2047.859375" xlink:href="#DejaVuSans-99"/>
    <use x="2102.839844" xlink:href="#DejaVuSans-32"/>
    <use x="2134.626953" xlink:href="#DejaVuSans-109"/>
    <use x="2232.039062" xlink:href="#DejaVuSans-97"/>
    <use x="2293.318359" xlink:href="#DejaVuSans-112"/>
   </g>
   <!-- assuming a carrying capacity of K=83M people and dt=4D tick time. -->
   <g transform="translate(148.707188 29.7555)scale(0.12 -0.12)">
    <defs>
     <path d="M 37.109375 75.984375 
L 37.109375 68.5 
L 28.515625 68.5 
Q 23.6875 68.5 21.796875 66.546875 
Q 19.921875 64.59375 19.921875 59.515625 
L 19.921875 54.6875 
L 34.71875 54.6875 
L 34.71875 47.703125 
L 19.921875 47.703125 
L 19.921875 0 
L 10.890625 0 
L 10.890625 47.703125 
L 2.296875 47.703125 
L 2.296875 54.6875 
L 10.890625 54.6875 
L 10.890625 58.5 
Q 10.890625 67.625 15.140625 71.796875 
Q 19.390625 75.984375 28.609375 75.984375 
z
" id="DejaVuSans-102"/>
     <path d="M 9.8125 72.90625 
L 19.671875 72.90625 
L 19.671875 42.09375 
L 52.390625 72.90625 
L 65.09375 72.90625 
L 28.90625 38.921875 
L 67.671875 0 
L 54.6875 0 
L 19.671875 35.109375 
L 19.671875 0 
L 9.8125 0 
z
" id="DejaVuSans-75"/>
     <path d="M 10.59375 45.40625 
L 73.1875 45.40625 
L 73.1875 37.203125 
L 10.59375 37.203125 
z
M 10.59375 25.484375 
L 73.1875 25.484375 
L 73.1875 17.1875 
L 10.59375 17.1875 
z
" id="DejaVuSans-61"/>
     <path d="M 9.8125 72.90625 
L 24.515625 72.90625 
L 43.109375 23.296875 
L 61.8125 72.90625 
L 76.515625 72.90625 
L 76.515625 0 
L 66.890625 0 
L 66.890625 64.015625 
L 48.09375 14.015625 
L 38.1875 14.015625 
L 19.390625 64.015625 
L 19.390625 0 
L 9.8125 0 
z
" id="DejaVuSans-77"/>
     <path d="M 9.078125 75.984375 
L 18.109375 75.984375 
L 18.109375 31.109375 
L 44.921875 54.6875 
L 56.390625 54.6875 
L 27.390625 29.109375 
L 57.625 0 
L 45.90625 0 
L 18.109375 26.703125 
L 18.109375 0 
L 9.078125 0 
z
" id="DejaVuSans-107"/>
    </defs>
    <use xlink:href="#DejaVuSans-97"/>
    <use x="61.279297" xlink:href="#DejaVuSans-115"/>
    <use x="113.378906" xlink:href="#DejaVuSans-115"/>
    <use x="165.478516" xlink:href="#DejaVuSans-117"/>
    <use x="228.857422" xlink:href="#DejaVuSans-109"/>
    <use x="326.269531" xlink:href="#DejaVuSans-105"/>
    <use x="354.052734" xlink:href="#DejaVuSans-110"/>
    <use x="417.431641" xlink:href="#DejaVuSans-103"/>
    <use x="480.908203" xlink:href="#DejaVuSans-32"/>
    <use x="512.695312" xlink:href="#DejaVuSans-97"/>
    <use x="573.974609" xlink:href="#DejaVuSans-32"/>
    <use x="605.761719" xlink:href="#DejaVuSans-99"/>
    <use x="660.742188" xlink:href="#DejaVuSans-97"/>
    <use x="722.021484" xlink:href="#DejaVuSans-114"/>
    <use x="761.384766" xlink:href="#DejaVuSans-114"/>
    <use x="802.498047" xlink:href="#DejaVuSans-121"/>
    <use x="861.677734" xlink:href="#DejaVuSans-105"/>
    <use x="889.460938" xlink:href="#DejaVuSans-110"/>
    <use x="952.839844" xlink:href="#DejaVuSans-103"/>
    <use x="1016.316406" xlink:href="#DejaVuSans-32"/>
    <use x="1048.103516" xlink:href="#DejaVuSans-99"/>
    <use x="1103.083984" xlink:href="#DejaVuSans-97"/>
    <use x="1164.363281" xlink:href="#DejaVuSans-112"/>
    <use x="1227.839844" xlink:href="#DejaVuSans-97"/>
    <use x="1289.119141" xlink:href="#DejaVuSans-99"/>
    <use x="1344.099609" xlink:href="#DejaVuSans-105"/>
    <use x="1371.882812" xlink:href="#DejaVuSans-116"/>
    <use x="1411.091797" xlink:href="#DejaVuSans-121"/>
    <use x="1470.271484" xlink:href="#DejaVuSans-32"/>
    <use x="1502.058594" xlink:href="#DejaVuSans-111"/>
    <use x="1563.240234" xlink:href="#DejaVuSans-102"/>
    <use x="1598.445312" xlink:href="#DejaVuSans-32"/>
    <use x="1630.232422" xlink:href="#DejaVuSans-75"/>
    <use x="1695.808594" xlink:href="#DejaVuSans-61"/>
    <use x="1779.597656" xlink:href="#DejaVuSans-56"/>
    <use x="1843.220703" xlink:href="#DejaVuSans-51"/>
    <use x="1906.84375" xlink:href="#DejaVuSans-77"/>
    <use x="1993.123047" xlink:href="#DejaVuSans-32"/>
    <use x="2024.910156" xlink:href="#DejaVuSans-112"/>
    <use x="2088.386719" xlink:href="#DejaVuSans-101"/>
    <use x="2149.910156" xlink:href="#DejaVuSans-111"/>
    <use x="2211.091797" xlink:href="#DejaVuSans-112"/>
    <use x="2274.568359" xlink:href="#DejaVuSans-108"/>
    <use x="2302.351562" xlink:href="#DejaVuSans-101"/>
    <use x="2363.875" xlink:href="#DejaVuSans-32"/>
    <use x="2395.662109" xlink:href="#DejaVuSans-97"/>
    <use x="2456.941406" xlink:href="#DejaVuSans-110"/>
    <use x="2520.320312" xlink:href="#DejaVuSans-100"/>
    <use x="2583.796875" xlink:href="#DejaVuSans-32"/>
    <use x="2615.583984" xlink:href="#DejaVuSans-100"/>
    <use x="2679.060547" xlink:href="#DejaVuSans-116"/>
    <use x="2718.269531" xlink:href="#DejaVuSans-61"/>
    <use x="2802.058594" xlink:href="#DejaVuSans-52"/>
    <use x="2865.681641" xlink:href="#DejaVuSans-68"/>
    <use x="2942.683594" xlink:href="#DejaVuSans-32"/>
    <use x="2974.470703" xlink:href="#DejaVuSans-116"/>
    <use x="3013.679688" xlink:href="#DejaVuSans-105"/>
    <use x="3041.462891" xlink:href="#DejaVuSans-99"/>
    <use x="3096.443359" xlink:href="#DejaVuSans-107"/>
    <use x="3154.353516" xlink:href="#DejaVuSans-32"/>
    <use x="3186.140625" xlink:href="#DejaVuSans-116"/>
    <use x="3225.349609" xlink:href="#DejaVuSans-105"/>
    <use x="3253.132812" xlink:href="#DejaVuSans-109"/>
    <use x="3350.544922" xlink:href="#DejaVuSans-101"/>
    <use x="3412.068359" xlink:href="#DejaVuSans-46"/>
   </g>
   <!-- created: 2020-11-01, author: @pschwede, source: JHU CSSE via @entorb &amp; @pomber. -->
   <g transform="translate(96.654375 43.192875)scale(0.12 -0.12)">
    <defs>
     <path d="M 11.71875 12.40625 
L 22.015625 12.40625 
L 22.015625 0 
L 11.71875 0 
z
M 11.71875 51.703125 
L 22.015625 51.703125 
L 22.015625 39.3125 
L 11.71875 39.3125 
z
" id="DejaVuSans-58"/>
     <path d="M 54.890625 33.015625 
L 54.890625 0 
L 45.90625 0 
L 45.90625 32.71875 
Q 45.90625 40.484375 42.875 44.328125 
Q 39.84375 48.1875 33.796875 48.1875 
Q 26.515625 48.1875 22.3125 43.546875 
Q 18.109375 38.921875 18.109375 30.90625 
L 18.109375 0 
L 9.078125 0 
L 9.078125 75.984375 
L 18.109375 75.984375 
L 18.109375 46.1875 
Q 21.34375 51.125 25.703125 53.5625 
Q 30.078125 56 35.796875 56 
Q 45.21875 56 50.046875 50.171875 
Q 54.890625 44.34375 54.890625 33.015625 
z
" id="DejaVuSans-104"/>
     <path d="M 37.203125 26.21875 
Q 37.203125 19.234375 40.671875 15.25 
Q 44.140625 11.28125 50.203125 11.28125 
Q 56.203125 11.28125 59.640625 15.28125 
Q 63.09375 19.28125 63.09375 26.21875 
Q 63.09375 33.0625 59.578125 37.078125 
Q 56.0625 41.109375 50.09375 41.109375 
Q 44.1875 41.109375 40.6875 37.109375 
Q 37.203125 33.109375 37.203125 26.21875 
z
M 63.8125 11.625 
Q 60.890625 7.859375 57.109375 6.078125 
Q 53.328125 4.296875 48.296875 4.296875 
Q 39.890625 4.296875 34.640625 10.375 
Q 29.390625 16.453125 29.390625 26.21875 
Q 29.390625 35.984375 34.65625 42.078125 
Q 39.9375 48.1875 48.296875 48.1875 
Q 53.328125 48.1875 57.125 46.359375 
Q 60.9375 44.53125 63.8125 40.828125 
L 63.8125 47.21875 
L 70.796875 47.21875 
L 70.796875 11.28125 
Q 77.9375 12.359375 81.953125 17.796875 
Q 85.984375 23.25 85.984375 31.890625 
Q 85.984375 37.109375 84.4375 41.703125 
Q 82.90625 46.296875 79.78125 50.203125 
Q 74.703125 56.59375 67.40625 59.984375 
Q 60.109375 63.375 51.515625 63.375 
Q 45.515625 63.375 39.984375 61.78125 
Q 34.46875 60.203125 29.78125 57.078125 
Q 22.125 52.09375 17.796875 44.015625 
Q 13.484375 35.9375 13.484375 26.515625 
Q 13.484375 18.75 16.28125 11.953125 
Q 19.09375 5.171875 24.421875 0 
Q 29.546875 -5.078125 36.28125 -7.734375 
Q 43.015625 -10.40625 50.6875 -10.40625 
Q 56.984375 -10.40625 63.0625 -8.28125 
Q 69.140625 -6.15625 74.21875 -2.203125 
L 78.609375 -7.625 
Q 72.515625 -12.359375 65.3125 -14.875 
Q 58.109375 -17.390625 50.6875 -17.390625 
Q 41.65625 -17.390625 33.640625 -14.1875 
Q 25.640625 -10.984375 19.390625 -4.890625 
Q 13.140625 1.21875 9.859375 9.25 
Q 6.59375 17.28125 6.59375 26.515625 
Q 6.59375 35.40625 9.90625 43.453125 
Q 13.234375 51.515625 19.390625 57.625 
Q 25.6875 63.8125 33.9375 67.109375 
Q 42.1875 70.40625 51.421875 70.40625 
Q 61.765625 70.40625 70.625 66.15625 
Q 79.5 61.921875 85.5 54.109375 
Q 89.15625 49.3125 91.078125 43.703125 
Q 93.015625 38.09375 93.015625 32.078125 
Q 93.015625 19.234375 85.25 11.8125 
Q 77.484375 4.390625 63.8125 4.109375 
z
" id="DejaVuSans-64"/>
     <path d="M 4.203125 54.6875 
L 13.1875 54.6875 
L 24.421875 12.015625 
L 35.59375 54.6875 
L 46.1875 54.6875 
L 57.421875 12.015625 
L 68.609375 54.6875 
L 77.59375 54.6875 
L 63.28125 0 
L 52.6875 0 
L 40.921875 44.828125 
L 29.109375 0 
L 18.5 0 
z
" id="DejaVuSans-119"/>
     <path d="M 9.8125 72.90625 
L 19.671875 72.90625 
L 19.671875 5.078125 
Q 19.671875 -8.109375 14.671875 -14.0625 
Q 9.671875 -20.015625 -1.421875 -20.015625 
L -5.171875 -20.015625 
L -5.171875 -11.71875 
L -2.09375 -11.71875 
Q 4.4375 -11.71875 7.125 -8.046875 
Q 9.8125 -4.390625 9.8125 5.078125 
z
" id="DejaVuSans-74"/>
     <path d="M 9.8125 72.90625 
L 19.671875 72.90625 
L 19.671875 43.015625 
L 55.515625 43.015625 
L 55.515625 72.90625 
L 65.375 72.90625 
L 65.375 0 
L 55.515625 0 
L 55.515625 34.71875 
L 19.671875 34.71875 
L 19.671875 0 
L 9.8125 0 
z
" id="DejaVuSans-72"/>
     <path d="M 8.6875 72.90625 
L 18.609375 72.90625 
L 18.609375 28.609375 
Q 18.609375 16.890625 22.84375 11.734375 
Q 27.09375 6.59375 36.625 6.59375 
Q 46.09375 6.59375 50.34375 11.734375 
Q 54.59375 16.890625 54.59375 28.609375 
L 54.59375 72.90625 
L 64.5 72.90625 
L 64.5 27.390625 
Q 64.5 13.140625 57.4375 5.859375 
Q 50.390625 -1.421875 36.625 -1.421875 
Q 22.796875 -1.421875 15.734375 5.859375 
Q 8.6875 13.140625 8.6875 27.390625 
z
" id="DejaVuSans-85"/>
     <path d="M 53.515625 70.515625 
L 53.515625 60.890625 
Q 47.90625 63.578125 42.921875 64.890625 
Q 37.9375 66.21875 33.296875 66.21875 
Q 25.25 66.21875 20.875 63.09375 
Q 16.5 59.96875 16.5 54.203125 
Q 16.5 49.359375 19.40625 46.890625 
Q 22.3125 44.4375 30.421875 42.921875 
L 36.375 41.703125 
Q 47.40625 39.59375 52.65625 34.296875 
Q 57.90625 29 57.90625 20.125 
Q 57.90625 9.515625 50.796875 4.046875 
Q 43.703125 -1.421875 29.984375 -1.421875 
Q 24.8125 -1.421875 18.96875 -0.25 
Q 13.140625 0.921875 6.890625 3.21875 
L 6.890625 13.375 
Q 12.890625 10.015625 18.65625 8.296875 
Q 24.421875 6.59375 29.984375 6.59375 
Q 38.421875 6.59375 43.015625 9.90625 
Q 47.609375 13.234375 47.609375 19.390625 
Q 47.609375 24.75 44.3125 27.78125 
Q 41.015625 30.8125 33.5 32.328125 
L 27.484375 33.5 
Q 16.453125 35.6875 11.515625 40.375 
Q 6.59375 45.0625 6.59375 53.421875 
Q 6.59375 63.09375 13.40625 68.65625 
Q 20.21875 74.21875 32.171875 74.21875 
Q 37.3125 74.21875 42.625 73.28125 
Q 47.953125 72.359375 53.515625 70.515625 
z
" id="DejaVuSans-83"/>
     <path d="M 9.8125 72.90625 
L 55.90625 72.90625 
L 55.90625 64.59375 
L 19.671875 64.59375 
L 19.671875 43.015625 
L 54.390625 43.015625 
L 54.390625 34.71875 
L 19.671875 34.71875 
L 19.671875 8.296875 
L 56.78125 8.296875 
L 56.78125 0 
L 9.8125 0 
z
" id="DejaVuSans-69"/>
     <path d="M 48.6875 27.296875 
Q 48.6875 37.203125 44.609375 42.84375 
Q 40.53125 48.484375 33.40625 48.484375 
Q 26.265625 48.484375 22.1875 42.84375 
Q 18.109375 37.203125 18.109375 27.296875 
Q 18.109375 17.390625 22.1875 11.75 
Q 26.265625 6.109375 33.40625 6.109375 
Q 40.53125 6.109375 44.609375 11.75 
Q 48.6875 17.390625 48.6875 27.296875 
z
M 18.109375 46.390625 
Q 20.953125 51.265625 25.265625 53.625 
Q 29.59375 56 35.59375 56 
Q 45.5625 56 51.78125 48.09375 
Q 58.015625 40.1875 58.015625 27.296875 
Q 58.015625 14.40625 51.78125 6.484375 
Q 45.5625 -1.421875 35.59375 -1.421875 
Q 29.59375 -1.421875 25.265625 0.953125 
Q 20.953125 3.328125 18.109375 8.203125 
L 18.109375 0 
L 9.078125 0 
L 9.078125 75.984375 
L 18.109375 75.984375 
z
" id="DejaVuSans-98"/>
     <path d="M 24.3125 39.203125 
Q 19.875 35.25 17.796875 31.3125 
Q 15.71875 27.390625 15.71875 23.09375 
Q 15.71875 15.96875 20.890625 11.234375 
Q 26.078125 6.5 33.890625 6.5 
Q 38.53125 6.5 42.578125 8.03125 
Q 46.625 9.578125 50.203125 12.703125 
z
M 31.203125 44.671875 
L 56 19.28125 
Q 58.890625 23.640625 60.5 28.59375 
Q 62.109375 33.546875 62.40625 39.109375 
L 71.484375 39.109375 
Q 70.90625 32.671875 68.359375 26.359375 
Q 65.828125 20.0625 61.28125 13.921875 
L 74.90625 0 
L 62.59375 0 
L 55.609375 7.171875 
Q 50.53125 2.828125 44.96875 0.703125 
Q 39.40625 -1.421875 33.015625 -1.421875 
Q 21.234375 -1.421875 13.765625 5.296875 
Q 6.296875 12.015625 6.296875 22.515625 
Q 6.296875 28.765625 9.5625 34.25 
Q 12.84375 39.75 19.390625 44.578125 
Q 17.046875 47.65625 15.8125 50.703125 
Q 14.59375 53.765625 14.59375 56.6875 
Q 14.59375 64.59375 20.015625 69.40625 
Q 25.4375 74.21875 34.421875 74.21875 
Q 38.484375 74.21875 42.5 73.34375 
Q 46.53125 72.46875 50.6875 70.703125 
L 50.6875 61.8125 
Q 46.4375 64.109375 42.578125 65.296875 
Q 38.71875 66.5 35.40625 66.5 
Q 30.28125 66.5 27.078125 63.78125 
Q 23.875 61.078125 23.875 56.78125 
Q 23.875 54.296875 25.3125 51.78125 
Q 26.765625 49.265625 31.203125 44.671875 
z
" id="DejaVuSans-38"/>
    </defs>
    <use xlink:href="#DejaVuSans-99"/>
    <use x="54.980469" xlink:href="#DejaVuSans-114"/>
    <use x="93.84375" xlink:href="#DejaVuSans-101"/>
    <use x="155.367188" xlink:href="#DejaVuSans-97"/>
    <use x="216.646484" xlink:href="#DejaVuSans-116"/>
    <use x="255.855469" xlink:href="#DejaVuSans-101"/>
    <use x="317.378906" xlink:href="#DejaVuSans-100"/>
    <use x="380.855469" xlink:href="#DejaVuSans-58"/>
    <use x="414.546875" xlink:href="#DejaVuSans-32"/>
    <use x="446.333984" xlink:href="#DejaVuSans-50"/>
    <use x="509.957031" xlink:href="#DejaVuSans-48"/>
    <use x="573.580078" xlink:href="#DejaVuSans-50"/>
    <use x="637.203125" xlink:href="#DejaVuSans-48"/>
    <use x="700.826172" xlink:href="#DejaVuSans-45"/>
    <use x="736.910156" xlink:href="#DejaVuSans-49"/>
    <use x="800.533203" xlink:href="#DejaVuSans-49"/>
    <use x="864.15625" xlink:href="#DejaVuSans-45"/>
    <use x="900.240234" xlink:href="#DejaVuSans-48"/>
    <use x="963.863281" xlink:href="#DejaVuSans-49"/>
    <use x="1027.486328" xlink:href="#DejaVuSans-44"/>
    <use x="1059.273438" xlink:href="#DejaVuSans-32"/>
    <use x="1091.060547" xlink:href="#DejaVuSans-97"/>
    <use x="1152.339844" xlink:href="#DejaVuSans-117"/>
    <use x="1215.71875" xlink:href="#DejaVuSans-116"/>
    <use x="1254.927734" xlink:href="#DejaVuSans-104"/>
    <use x="1318.306641" xlink:href="#DejaVuSans-111"/>
    <use x="1379.488281" xlink:href="#DejaVuSans-114"/>
    <use x="1418.851562" xlink:href="#DejaVuSans-58"/>
    <use x="1452.542969" xlink:href="#DejaVuSans-32"/>
    <use x="1484.330078" xlink:href="#DejaVuSans-64"/>
    <use x="1584.330078" xlink:href="#DejaVuSans-112"/>
    <use x="1647.806641" xlink:href="#DejaVuSans-115"/>
    <use x="1699.90625" xlink:href="#DejaVuSans-99"/>
    <use x="1754.886719" xlink:href="#DejaVuSans-104"/>
    <use x="1818.265625" xlink:href="#DejaVuSans-119"/>
    <use x="1900.052734" xlink:href="#DejaVuSans-101"/>
    <use x="1961.576172" xlink:href="#DejaVuSans-100"/>
    <use x="2025.052734" xlink:href="#DejaVuSans-101"/>
    <use x="2086.576172" xlink:href="#DejaVuSans-44"/>
    <use x="2118.363281" xlink:href="#DejaVuSans-32"/>
    <use x="2150.150391" xlink:href="#DejaVuSans-115"/>
    <use x="2202.25" xlink:href="#DejaVuSans-111"/>
    <use x="2263.431641" xlink:href="#DejaVuSans-117"/>
    <use x="2326.810547" xlink:href="#DejaVuSans-114"/>
    <use x="2365.673828" xlink:href="#DejaVuSans-99"/>
    <use x="2420.654297" xlink:href="#DejaVuSans-101"/>
    <use x="2482.177734" xlink:href="#DejaVuSans-58"/>
    <use x="2515.869141" xlink:href="#DejaVuSans-32"/>
    <use x="2547.65625" xlink:href="#DejaVuSans-74"/>
    <use x="2577.148438" xlink:href="#DejaVuSans-72"/>
    <use x="2652.34375" xlink:href="#DejaVuSans-85"/>
    <use x="2725.537109" xlink:href="#DejaVuSans-32"/>
    <use x="2757.324219" xlink:href="#DejaVuSans-67"/>
    <use x="2827.148438" xlink:href="#DejaVuSans-83"/>
    <use x="2890.625" xlink:href="#DejaVuSans-83"/>
    <use x="2954.101562" xlink:href="#DejaVuSans-69"/>
    <use x="3017.285156" xlink:href="#DejaVuSans-32"/>
    <use x="3049.072266" xlink:href="#DejaVuSans-118"/>
    <use x="3108.251953" xlink:href="#DejaVuSans-105"/>
    <use x="3136.035156" xlink:href="#DejaVuSans-97"/>
    <use x="3197.314453" xlink:href="#DejaVuSans-32"/>
    <use x="3229.101562" xlink:href="#DejaVuSans-64"/>
    <use x="3329.101562" xlink:href="#DejaVuSans-101"/>
    <use x="3390.625" xlink:href="#DejaVuSans-110"/>
    <use x="3454.003906" xlink:href="#DejaVuSans-116"/>
    <use x="3493.212891" xlink:href="#DejaVuSans-111"/>
    <use x="3554.394531" xlink:href="#DejaVuSans-114"/>
    <use x="3595.507812" xlink:href="#DejaVuSans-98"/>
    <use x="3658.984375" xlink:href="#DejaVuSans-32"/>
    <use x="3690.771484" xlink:href="#DejaVuSans-38"/>
    <use x="3768.75" xlink:href="#DejaVuSans-32"/>
    <use x="3800.537109" xlink:href="#DejaVuSans-64"/>
    <use x="3900.537109" xlink:href="#DejaVuSans-112"/>
    <use x="3964.013672" xlink:href="#DejaVuSans-111"/>
    <use x="4025.195312" xlink:href="#DejaVuSans-109"/>
    <use x="4122.607422" xlink:href="#DejaVuSans-98"/>
    <use x="4186.083984" xlink:href="#DejaVuSans-101"/>
    <use x="4247.607422" xlink:href="#DejaVuSans-114"/>
    <use x="4279.595703" xlink:href="#DejaVuSans-46"/>
   </g>
  </g>
 </g>
 <defs>
  <clipPath id="pce2ebacbb4">
   <rect height="199.115403" width="636.55" x="67.98875" y="102.072"/>
  </clipPath>
  <clipPath id="pfd2d79ebce">
   <rect height="199.115403" width="636.55" x="67.98875" y="313.524597"/>
  </clipPath>
 </defs>
</svg>
