<?xml version="1.0" encoding="utf-8" standalone="no"?>
<!DOCTYPE svg PUBLIC "-//W3C//DTD SVG 1.1//EN"
  "http://www.w3.org/Graphics/SVG/1.1/DTD/svg11.dtd">
<svg height="573.257842pt" version="1.1" viewBox="0 0 705.69125 573.257842" width="705.69125pt" xmlns="http://www.w3.org/2000/svg" xmlns:xlink="http://www.w3.org/1999/xlink">
 <metadata>
  <rdf:RDF xmlns:cc="http://creativecommons.org/ns#" xmlns:dc="http://purl.org/dc/elements/1.1/" xmlns:rdf="http://www.w3.org/1999/02/22-rdf-syntax-ns#">
   <cc:Work>
    <dc:type rdf:resource="http://purl.org/dc/dcmitype/StillImage"/>
    <dc:date>2021-07-02T09:03:20.620385</dc:date>
    <dc:format>image/svg+xml</dc:format>
    <dc:creator>
     <cc:Agent>
      <dc:title>Matplotlib v3.4.2, https://matplotlib.org/</dc:title>
     </cc:Agent>
    </dc:creator>
   </cc:Work>
  </rdf:RDF>
 </metadata>
 <defs>
  <style type="text/css">*{stroke-linecap:butt;stroke-linejoin:round;}</style>
 </defs>
 <g id="figure_1">
  <g id="patch_1">
   <path d="M 0 573.257842 
L 705.69125 573.257842 
L 705.69125 0 
L 0 0 
z
" style="fill:#ffffff;"/>
  </g>
  <g id="axes_1">
   <g id="patch_2">
    <path d="M 61.62625 301.032412 
L 698.49125 301.032412 
L 698.49125 102.072 
L 61.62625 102.072 
z
" style="fill:#e5e5e5;"/>
   </g>
   <g id="matplotlib.axis_1">
    <g id="xtick_1">
     <g id="line2d_1">
      <defs>
       <path d="M 0 0 
L 0 3.5 
" id="m29ea0f21c7" style="stroke:#555555;stroke-width:0.8;"/>
      </defs>
      <g>
       <use style="fill:#555555;stroke:#555555;stroke-width:0.8;" x="61.62625" xlink:href="#m29ea0f21c7" y="301.032412"/>
      </g>
     </g>
    </g>
    <g id="xtick_2">
     <g id="line2d_2">
      <g>
       <use style="fill:#555555;stroke:#555555;stroke-width:0.8;" x="86.235787" xlink:href="#m29ea0f21c7" y="301.032412"/>
      </g>
     </g>
    </g>
    <g id="xtick_3">
     <g id="line2d_3">
      <g>
       <use style="fill:#555555;stroke:#555555;stroke-width:0.8;" x="154.098451" xlink:href="#m29ea0f21c7" y="301.032412"/>
      </g>
     </g>
    </g>
    <g id="xtick_4">
     <g id="line2d_4">
      <g>
       <use style="fill:#555555;stroke:#555555;stroke-width:0.8;" x="222.706859" xlink:href="#m29ea0f21c7" y="301.032412"/>
      </g>
     </g>
    </g>
    <g id="xtick_5">
     <g id="line2d_5">
      <g>
       <use style="fill:#555555;stroke:#555555;stroke-width:0.8;" x="291.315266" xlink:href="#m29ea0f21c7" y="301.032412"/>
      </g>
     </g>
    </g>
    <g id="xtick_6">
     <g id="line2d_6">
      <g>
       <use style="fill:#555555;stroke:#555555;stroke-width:0.8;" x="358.432187" xlink:href="#m29ea0f21c7" y="301.032412"/>
      </g>
     </g>
    </g>
    <g id="xtick_7">
     <g id="line2d_7">
      <g>
       <use style="fill:#555555;stroke:#555555;stroke-width:0.8;" x="426.294851" xlink:href="#m29ea0f21c7" y="301.032412"/>
      </g>
     </g>
    </g>
    <g id="xtick_8">
     <g id="line2d_8">
      <g>
       <use style="fill:#555555;stroke:#555555;stroke-width:0.8;" x="494.903258" xlink:href="#m29ea0f21c7" y="301.032412"/>
      </g>
     </g>
    </g>
    <g id="xtick_9">
     <g id="line2d_9">
      <g>
       <use style="fill:#555555;stroke:#555555;stroke-width:0.8;" x="563.511666" xlink:href="#m29ea0f21c7" y="301.032412"/>
      </g>
     </g>
    </g>
    <g id="xtick_10">
     <g id="line2d_10">
      <g>
       <use style="fill:#555555;stroke:#555555;stroke-width:0.8;" x="630.628586" xlink:href="#m29ea0f21c7" y="301.032412"/>
      </g>
     </g>
    </g>
    <g id="xtick_11">
     <g id="line2d_11">
      <g>
       <use style="fill:#555555;stroke:#555555;stroke-width:0.8;" x="698.49125" xlink:href="#m29ea0f21c7" y="301.032412"/>
      </g>
     </g>
    </g>
    <g id="xtick_12">
     <g id="line2d_12">
      <defs>
       <path d="M 0 0 
L 0 2 
" id="m1ae37d4312" style="stroke:#555555;stroke-width:0.6;"/>
      </defs>
      <g>
       <use style="fill:#555555;stroke:#555555;stroke-width:0.6;" x="63.117737" xlink:href="#m1ae37d4312" y="301.032412"/>
      </g>
     </g>
    </g>
    <g id="xtick_13">
     <g id="line2d_13">
      <g>
       <use style="fill:#555555;stroke:#555555;stroke-width:0.6;" x="108.608094" xlink:href="#m1ae37d4312" y="301.032412"/>
      </g>
     </g>
    </g>
    <g id="xtick_14">
     <g id="line2d_14">
      <g>
       <use style="fill:#555555;stroke:#555555;stroke-width:0.6;" x="131.726145" xlink:href="#m1ae37d4312" y="301.032412"/>
      </g>
     </g>
    </g>
    <g id="xtick_15">
     <g id="line2d_15">
      <g>
       <use style="fill:#555555;stroke:#555555;stroke-width:0.6;" x="177.216502" xlink:href="#m1ae37d4312" y="301.032412"/>
      </g>
     </g>
    </g>
    <g id="xtick_16">
     <g id="line2d_16">
      <g>
       <use style="fill:#555555;stroke:#555555;stroke-width:0.6;" x="200.334552" xlink:href="#m1ae37d4312" y="301.032412"/>
      </g>
     </g>
    </g>
    <g id="xtick_17">
     <g id="line2d_17">
      <g>
       <use style="fill:#555555;stroke:#555555;stroke-width:0.6;" x="245.824909" xlink:href="#m1ae37d4312" y="301.032412"/>
      </g>
     </g>
    </g>
    <g id="xtick_18">
     <g id="line2d_18">
      <g>
       <use style="fill:#555555;stroke:#555555;stroke-width:0.6;" x="268.197216" xlink:href="#m1ae37d4312" y="301.032412"/>
      </g>
     </g>
    </g>
    <g id="xtick_19">
     <g id="line2d_19">
      <g>
       <use style="fill:#555555;stroke:#555555;stroke-width:0.6;" x="314.433317" xlink:href="#m1ae37d4312" y="301.032412"/>
      </g>
     </g>
    </g>
    <g id="xtick_20">
     <g id="line2d_20">
      <g>
       <use style="fill:#555555;stroke:#555555;stroke-width:0.6;" x="335.314136" xlink:href="#m1ae37d4312" y="301.032412"/>
      </g>
     </g>
    </g>
    <g id="xtick_21">
     <g id="line2d_21">
      <g>
       <use style="fill:#555555;stroke:#555555;stroke-width:0.6;" x="380.804494" xlink:href="#m1ae37d4312" y="301.032412"/>
      </g>
     </g>
    </g>
    <g id="xtick_22">
     <g id="line2d_22">
      <g>
       <use style="fill:#555555;stroke:#555555;stroke-width:0.6;" x="403.922544" xlink:href="#m1ae37d4312" y="301.032412"/>
      </g>
     </g>
    </g>
    <g id="xtick_23">
     <g id="line2d_23">
      <g>
       <use style="fill:#555555;stroke:#555555;stroke-width:0.6;" x="449.412901" xlink:href="#m1ae37d4312" y="301.032412"/>
      </g>
     </g>
    </g>
    <g id="xtick_24">
     <g id="line2d_24">
      <g>
       <use style="fill:#555555;stroke:#555555;stroke-width:0.6;" x="472.530951" xlink:href="#m1ae37d4312" y="301.032412"/>
      </g>
     </g>
    </g>
    <g id="xtick_25">
     <g id="line2d_25">
      <g>
       <use style="fill:#555555;stroke:#555555;stroke-width:0.6;" x="518.021309" xlink:href="#m1ae37d4312" y="301.032412"/>
      </g>
     </g>
    </g>
    <g id="xtick_26">
     <g id="line2d_26">
      <g>
       <use style="fill:#555555;stroke:#555555;stroke-width:0.6;" x="540.393615" xlink:href="#m1ae37d4312" y="301.032412"/>
      </g>
     </g>
    </g>
    <g id="xtick_27">
     <g id="line2d_27">
      <g>
       <use style="fill:#555555;stroke:#555555;stroke-width:0.6;" x="586.629716" xlink:href="#m1ae37d4312" y="301.032412"/>
      </g>
     </g>
    </g>
    <g id="xtick_28">
     <g id="line2d_28">
      <g>
       <use style="fill:#555555;stroke:#555555;stroke-width:0.6;" x="607.510536" xlink:href="#m1ae37d4312" y="301.032412"/>
      </g>
     </g>
    </g>
    <g id="xtick_29">
     <g id="line2d_29">
      <g>
       <use style="fill:#555555;stroke:#555555;stroke-width:0.6;" x="653.000893" xlink:href="#m1ae37d4312" y="301.032412"/>
      </g>
     </g>
    </g>
    <g id="xtick_30">
     <g id="line2d_30">
      <g>
       <use style="fill:#555555;stroke:#555555;stroke-width:0.6;" x="676.118943" xlink:href="#m1ae37d4312" y="301.032412"/>
      </g>
     </g>
    </g>
   </g>
   <g id="matplotlib.axis_2">
    <g id="ytick_1">
     <g id="line2d_31">
      <defs>
       <path d="M 0 0 
L -3.5 0 
" id="m6e31511b21" style="stroke:#555555;stroke-width:0.8;"/>
      </defs>
      <g>
       <use style="fill:#555555;stroke:#555555;stroke-width:0.8;" x="61.62625" xlink:href="#m6e31511b21" y="291.99132"/>
      </g>
     </g>
     <g id="text_1">
      <!-- 0.0 -->
      <g style="fill:#555555;" transform="translate(38.723125 295.790539)scale(0.1 -0.1)">
       <defs>
        <path d="M 2034 4250 
Q 1547 4250 1301 3770 
Q 1056 3291 1056 2328 
Q 1056 1369 1301 889 
Q 1547 409 2034 409 
Q 2525 409 2770 889 
Q 3016 1369 3016 2328 
Q 3016 3291 2770 3770 
Q 2525 4250 2034 4250 
z
M 2034 4750 
Q 2819 4750 3233 4129 
Q 3647 3509 3647 2328 
Q 3647 1150 3233 529 
Q 2819 -91 2034 -91 
Q 1250 -91 836 529 
Q 422 1150 422 2328 
Q 422 3509 836 4129 
Q 1250 4750 2034 4750 
z
" id="DejaVuSans-30" transform="scale(0.015625)"/>
        <path d="M 684 794 
L 1344 794 
L 1344 0 
L 684 0 
L 684 794 
z
" id="DejaVuSans-2e" transform="scale(0.015625)"/>
       </defs>
       <use xlink:href="#DejaVuSans-30"/>
       <use x="63.623047" xlink:href="#DejaVuSans-2e"/>
       <use x="95.410156" xlink:href="#DejaVuSans-30"/>
      </g>
     </g>
    </g>
    <g id="ytick_2">
     <g id="line2d_32">
      <g>
       <use style="fill:#555555;stroke:#555555;stroke-width:0.8;" x="61.62625" xlink:href="#m6e31511b21" y="267.811727"/>
      </g>
     </g>
     <g id="text_2">
      <!-- 0.5 -->
      <g style="fill:#555555;" transform="translate(38.723125 271.610946)scale(0.1 -0.1)">
       <defs>
        <path d="M 691 4666 
L 3169 4666 
L 3169 4134 
L 1269 4134 
L 1269 2991 
Q 1406 3038 1543 3061 
Q 1681 3084 1819 3084 
Q 2600 3084 3056 2656 
Q 3513 2228 3513 1497 
Q 3513 744 3044 326 
Q 2575 -91 1722 -91 
Q 1428 -91 1123 -41 
Q 819 9 494 109 
L 494 744 
Q 775 591 1075 516 
Q 1375 441 1709 441 
Q 2250 441 2565 725 
Q 2881 1009 2881 1497 
Q 2881 1984 2565 2268 
Q 2250 2553 1709 2553 
Q 1456 2553 1204 2497 
Q 953 2441 691 2322 
L 691 4666 
z
" id="DejaVuSans-35" transform="scale(0.015625)"/>
       </defs>
       <use xlink:href="#DejaVuSans-30"/>
       <use x="63.623047" xlink:href="#DejaVuSans-2e"/>
       <use x="95.410156" xlink:href="#DejaVuSans-35"/>
      </g>
     </g>
    </g>
    <g id="ytick_3">
     <g id="line2d_33">
      <g>
       <use style="fill:#555555;stroke:#555555;stroke-width:0.8;" x="61.62625" xlink:href="#m6e31511b21" y="243.632134"/>
      </g>
     </g>
     <g id="text_3">
      <!-- 1.0 -->
      <g style="fill:#555555;" transform="translate(38.723125 247.431353)scale(0.1 -0.1)">
       <defs>
        <path d="M 794 531 
L 1825 531 
L 1825 4091 
L 703 3866 
L 703 4441 
L 1819 4666 
L 2450 4666 
L 2450 531 
L 3481 531 
L 3481 0 
L 794 0 
L 794 531 
z
" id="DejaVuSans-31" transform="scale(0.015625)"/>
       </defs>
       <use xlink:href="#DejaVuSans-31"/>
       <use x="63.623047" xlink:href="#DejaVuSans-2e"/>
       <use x="95.410156" xlink:href="#DejaVuSans-30"/>
      </g>
     </g>
    </g>
    <g id="ytick_4">
     <g id="line2d_34">
      <g>
       <use style="fill:#555555;stroke:#555555;stroke-width:0.8;" x="61.62625" xlink:href="#m6e31511b21" y="219.452542"/>
      </g>
     </g>
     <g id="text_4">
      <!-- 1.5 -->
      <g style="fill:#555555;" transform="translate(38.723125 223.25176)scale(0.1 -0.1)">
       <use xlink:href="#DejaVuSans-31"/>
       <use x="63.623047" xlink:href="#DejaVuSans-2e"/>
       <use x="95.410156" xlink:href="#DejaVuSans-35"/>
      </g>
     </g>
    </g>
    <g id="ytick_5">
     <g id="line2d_35">
      <g>
       <use style="fill:#555555;stroke:#555555;stroke-width:0.8;" x="61.62625" xlink:href="#m6e31511b21" y="195.272949"/>
      </g>
     </g>
     <g id="text_5">
      <!-- 2.0 -->
      <g style="fill:#555555;" transform="translate(38.723125 199.072167)scale(0.1 -0.1)">
       <defs>
        <path d="M 1228 531 
L 3431 531 
L 3431 0 
L 469 0 
L 469 531 
Q 828 903 1448 1529 
Q 2069 2156 2228 2338 
Q 2531 2678 2651 2914 
Q 2772 3150 2772 3378 
Q 2772 3750 2511 3984 
Q 2250 4219 1831 4219 
Q 1534 4219 1204 4116 
Q 875 4013 500 3803 
L 500 4441 
Q 881 4594 1212 4672 
Q 1544 4750 1819 4750 
Q 2544 4750 2975 4387 
Q 3406 4025 3406 3419 
Q 3406 3131 3298 2873 
Q 3191 2616 2906 2266 
Q 2828 2175 2409 1742 
Q 1991 1309 1228 531 
z
" id="DejaVuSans-32" transform="scale(0.015625)"/>
       </defs>
       <use xlink:href="#DejaVuSans-32"/>
       <use x="63.623047" xlink:href="#DejaVuSans-2e"/>
       <use x="95.410156" xlink:href="#DejaVuSans-30"/>
      </g>
     </g>
    </g>
    <g id="ytick_6">
     <g id="line2d_36">
      <g>
       <use style="fill:#555555;stroke:#555555;stroke-width:0.8;" x="61.62625" xlink:href="#m6e31511b21" y="171.093356"/>
      </g>
     </g>
     <g id="text_6">
      <!-- 2.5 -->
      <g style="fill:#555555;" transform="translate(38.723125 174.892575)scale(0.1 -0.1)">
       <use xlink:href="#DejaVuSans-32"/>
       <use x="63.623047" xlink:href="#DejaVuSans-2e"/>
       <use x="95.410156" xlink:href="#DejaVuSans-35"/>
      </g>
     </g>
    </g>
    <g id="ytick_7">
     <g id="line2d_37">
      <g>
       <use style="fill:#555555;stroke:#555555;stroke-width:0.8;" x="61.62625" xlink:href="#m6e31511b21" y="146.913763"/>
      </g>
     </g>
     <g id="text_7">
      <!-- 3.0 -->
      <g style="fill:#555555;" transform="translate(38.723125 150.712982)scale(0.1 -0.1)">
       <defs>
        <path d="M 2597 2516 
Q 3050 2419 3304 2112 
Q 3559 1806 3559 1356 
Q 3559 666 3084 287 
Q 2609 -91 1734 -91 
Q 1441 -91 1130 -33 
Q 819 25 488 141 
L 488 750 
Q 750 597 1062 519 
Q 1375 441 1716 441 
Q 2309 441 2620 675 
Q 2931 909 2931 1356 
Q 2931 1769 2642 2001 
Q 2353 2234 1838 2234 
L 1294 2234 
L 1294 2753 
L 1863 2753 
Q 2328 2753 2575 2939 
Q 2822 3125 2822 3475 
Q 2822 3834 2567 4026 
Q 2313 4219 1838 4219 
Q 1578 4219 1281 4162 
Q 984 4106 628 3988 
L 628 4550 
Q 988 4650 1302 4700 
Q 1616 4750 1894 4750 
Q 2613 4750 3031 4423 
Q 3450 4097 3450 3541 
Q 3450 3153 3228 2886 
Q 3006 2619 2597 2516 
z
" id="DejaVuSans-33" transform="scale(0.015625)"/>
       </defs>
       <use xlink:href="#DejaVuSans-33"/>
       <use x="63.623047" xlink:href="#DejaVuSans-2e"/>
       <use x="95.410156" xlink:href="#DejaVuSans-30"/>
      </g>
     </g>
    </g>
    <g id="ytick_8">
     <g id="line2d_38">
      <g>
       <use style="fill:#555555;stroke:#555555;stroke-width:0.8;" x="61.62625" xlink:href="#m6e31511b21" y="122.73417"/>
      </g>
     </g>
     <g id="text_8">
      <!-- 3.5 -->
      <g style="fill:#555555;" transform="translate(38.723125 126.533389)scale(0.1 -0.1)">
       <use xlink:href="#DejaVuSans-33"/>
       <use x="63.623047" xlink:href="#DejaVuSans-2e"/>
       <use x="95.410156" xlink:href="#DejaVuSans-35"/>
      </g>
     </g>
    </g>
    <g id="text_9">
     <!-- Total -->
     <g style="fill:#555555;" transform="translate(32.2275 215.564081)rotate(-90)scale(0.12 -0.12)">
      <defs>
       <path d="M -19 4666 
L 3928 4666 
L 3928 4134 
L 2272 4134 
L 2272 0 
L 1638 0 
L 1638 4134 
L -19 4134 
L -19 4666 
z
" id="DejaVuSans-54" transform="scale(0.015625)"/>
       <path d="M 1959 3097 
Q 1497 3097 1228 2736 
Q 959 2375 959 1747 
Q 959 1119 1226 758 
Q 1494 397 1959 397 
Q 2419 397 2687 759 
Q 2956 1122 2956 1747 
Q 2956 2369 2687 2733 
Q 2419 3097 1959 3097 
z
M 1959 3584 
Q 2709 3584 3137 3096 
Q 3566 2609 3566 1747 
Q 3566 888 3137 398 
Q 2709 -91 1959 -91 
Q 1206 -91 779 398 
Q 353 888 353 1747 
Q 353 2609 779 3096 
Q 1206 3584 1959 3584 
z
" id="DejaVuSans-6f" transform="scale(0.015625)"/>
       <path d="M 1172 4494 
L 1172 3500 
L 2356 3500 
L 2356 3053 
L 1172 3053 
L 1172 1153 
Q 1172 725 1289 603 
Q 1406 481 1766 481 
L 2356 481 
L 2356 0 
L 1766 0 
Q 1100 0 847 248 
Q 594 497 594 1153 
L 594 3053 
L 172 3053 
L 172 3500 
L 594 3500 
L 594 4494 
L 1172 4494 
z
" id="DejaVuSans-74" transform="scale(0.015625)"/>
       <path d="M 2194 1759 
Q 1497 1759 1228 1600 
Q 959 1441 959 1056 
Q 959 750 1161 570 
Q 1363 391 1709 391 
Q 2188 391 2477 730 
Q 2766 1069 2766 1631 
L 2766 1759 
L 2194 1759 
z
M 3341 1997 
L 3341 0 
L 2766 0 
L 2766 531 
Q 2569 213 2275 61 
Q 1981 -91 1556 -91 
Q 1019 -91 701 211 
Q 384 513 384 1019 
Q 384 1609 779 1909 
Q 1175 2209 1959 2209 
L 2766 2209 
L 2766 2266 
Q 2766 2663 2505 2880 
Q 2244 3097 1772 3097 
Q 1472 3097 1187 3025 
Q 903 2953 641 2809 
L 641 3341 
Q 956 3463 1253 3523 
Q 1550 3584 1831 3584 
Q 2591 3584 2966 3190 
Q 3341 2797 3341 1997 
z
" id="DejaVuSans-61" transform="scale(0.015625)"/>
       <path d="M 603 4863 
L 1178 4863 
L 1178 0 
L 603 0 
L 603 4863 
z
" id="DejaVuSans-6c" transform="scale(0.015625)"/>
      </defs>
      <use xlink:href="#DejaVuSans-54"/>
      <use x="44.083984" xlink:href="#DejaVuSans-6f"/>
      <use x="105.265625" xlink:href="#DejaVuSans-74"/>
      <use x="144.474609" xlink:href="#DejaVuSans-61"/>
      <use x="205.753906" xlink:href="#DejaVuSans-6c"/>
     </g>
    </g>
    <g id="text_10">
     <!-- 1e6 -->
     <g style="fill:#555555;" transform="translate(61.62625 99.072)scale(0.1 -0.1)">
      <defs>
       <path d="M 3597 1894 
L 3597 1613 
L 953 1613 
Q 991 1019 1311 708 
Q 1631 397 2203 397 
Q 2534 397 2845 478 
Q 3156 559 3463 722 
L 3463 178 
Q 3153 47 2828 -22 
Q 2503 -91 2169 -91 
Q 1331 -91 842 396 
Q 353 884 353 1716 
Q 353 2575 817 3079 
Q 1281 3584 2069 3584 
Q 2775 3584 3186 3129 
Q 3597 2675 3597 1894 
z
M 3022 2063 
Q 3016 2534 2758 2815 
Q 2500 3097 2075 3097 
Q 1594 3097 1305 2825 
Q 1016 2553 972 2059 
L 3022 2063 
z
" id="DejaVuSans-65" transform="scale(0.015625)"/>
       <path d="M 2113 2584 
Q 1688 2584 1439 2293 
Q 1191 2003 1191 1497 
Q 1191 994 1439 701 
Q 1688 409 2113 409 
Q 2538 409 2786 701 
Q 3034 994 3034 1497 
Q 3034 2003 2786 2293 
Q 2538 2584 2113 2584 
z
M 3366 4563 
L 3366 3988 
Q 3128 4100 2886 4159 
Q 2644 4219 2406 4219 
Q 1781 4219 1451 3797 
Q 1122 3375 1075 2522 
Q 1259 2794 1537 2939 
Q 1816 3084 2150 3084 
Q 2853 3084 3261 2657 
Q 3669 2231 3669 1497 
Q 3669 778 3244 343 
Q 2819 -91 2113 -91 
Q 1303 -91 875 529 
Q 447 1150 447 2328 
Q 447 3434 972 4092 
Q 1497 4750 2381 4750 
Q 2619 4750 2861 4703 
Q 3103 4656 3366 4563 
z
" id="DejaVuSans-36" transform="scale(0.015625)"/>
      </defs>
      <use xlink:href="#DejaVuSans-31"/>
      <use x="63.623047" xlink:href="#DejaVuSans-65"/>
      <use x="125.146484" xlink:href="#DejaVuSans-36"/>
     </g>
    </g>
   </g>
   <g id="line2d_39">
    <path clip-path="url(#p258077f61b)" d="M 61.62625 291.988757 
L 72.812403 291.893704 
L 76.541121 291.686934 
L 79.524095 291.312537 
L 82.50707 290.639128 
L 86.981531 289.203648 
L 93.693223 286.95545 
L 97.421941 286.065178 
L 103.387889 285.037352 
L 108.608094 284.421995 
L 115.319786 283.956773 
L 125.014453 283.47953 
L 138.437837 283.098142 
L 172.74204 282.148492 
L 183.18245 281.682434 
L 191.385629 281.126759 
L 213.012193 279.298291 
L 223.452602 278.071066 
L 227.927064 277.409665 
L 231.655782 276.599842 
L 234.638756 275.69842 
L 237.62173 274.524196 
L 239.858961 273.369255 
L 242.096191 271.884752 
L 244.333422 270.027455 
L 247.316396 267.106823 
L 250.299371 263.838751 
L 255.519576 257.61855 
L 261.485524 250.4946 
L 269.688703 240.937443 
L 273.417421 236.530153 
L 276.400395 232.675269 
L 279.383369 228.410466 
L 282.366344 223.741504 
L 286.840805 216.574293 
L 289.078036 213.654938 
L 293.552497 208.324133 
L 297.281215 204.041561 
L 302.50142 197.234902 
L 305.484394 193.936916 
L 308.467368 191.038301 
L 310.704599 189.032555 
L 313.687573 186.677221 
L 317.416291 184.037797 
L 320.399265 182.184376 
L 322.636496 180.971099 
L 327.856701 178.516062 
L 333.076906 175.975077 
L 341.280085 171.636409 
L 344.263059 169.914815 
L 347.246033 167.926727 
L 349.483264 166.195344 
L 353.211982 162.936633 
L 356.194956 159.880484 
L 362.160905 153.474488 
L 365.889622 149.87787 
L 368.126853 147.302702 
L 381.550237 129.653838 
L 384.533211 126.302373 
L 387.516186 123.384877 
L 389.753416 121.389743 
L 391.990647 119.763368 
L 394.973621 117.913471 
L 398.702339 116.018855 
L 400.93957 115.23898 
L 405.414031 113.969779 
L 408.397005 113.348219 
L 412.125723 112.753808 
L 416.600184 112.255785 
L 423.311876 111.87287 
L 427.040594 111.722093 
L 427.040594 111.722093 
" style="fill:none;stroke:#e24a33;stroke-linecap:square;stroke-width:1.5;"/>
   </g>
   <g id="line2d_40">
    <path clip-path="url(#p258077f61b)" d="M 427.040594 111.722093 
L 437.481004 111.425762 
L 453.141619 111.228888 
L 481.479874 111.133918 
L 594.087152 111.115668 
L 698.49125 111.115655 
L 698.49125 111.115655 
" style="fill:none;stroke:#348abd;stroke-linecap:square;stroke-width:1.5;"/>
   </g>
   <g id="patch_3">
    <path d="M 61.62625 301.032412 
L 61.62625 102.072 
" style="fill:none;stroke:#ffffff;stroke-linecap:square;stroke-linejoin:miter;"/>
   </g>
   <g id="patch_4">
    <path d="M 698.49125 301.032412 
L 698.49125 102.072 
" style="fill:none;stroke:#ffffff;stroke-linecap:square;stroke-linejoin:miter;"/>
   </g>
   <g id="patch_5">
    <path d="M 61.62625 301.032412 
L 698.49125 301.032412 
" style="fill:none;stroke:#ffffff;stroke-linecap:square;stroke-linejoin:miter;"/>
   </g>
   <g id="patch_6">
    <path d="M 61.62625 102.072 
L 698.49125 102.072 
" style="fill:none;stroke:#ffffff;stroke-linecap:square;stroke-linejoin:miter;"/>
   </g>
  </g>
  <g id="axes_2">
   <g id="patch_7">
    <path d="M 61.62625 512.64 
L 698.49125 512.64 
L 698.49125 313.679588 
L 61.62625 313.679588 
z
" style="fill:#e5e5e5;"/>
   </g>
   <g id="matplotlib.axis_3">
    <g id="xtick_31">
     <g id="line2d_41">
      <g>
       <use style="fill:#555555;stroke:#555555;stroke-width:0.8;" x="61.62625" xlink:href="#m29ea0f21c7" y="512.64"/>
      </g>
     </g>
    </g>
    <g id="xtick_32">
     <g id="line2d_42">
      <g>
       <use style="fill:#555555;stroke:#555555;stroke-width:0.8;" x="86.235787" xlink:href="#m29ea0f21c7" y="512.64"/>
      </g>
     </g>
     <g id="text_11">
      <!-- Apr -->
      <g style="fill:#555555;" transform="translate(70.213704 534.87044)rotate(-30)scale(0.1 -0.1)">
       <defs>
        <path d="M 2188 4044 
L 1331 1722 
L 3047 1722 
L 2188 4044 
z
M 1831 4666 
L 2547 4666 
L 4325 0 
L 3669 0 
L 3244 1197 
L 1141 1197 
L 716 0 
L 50 0 
L 1831 4666 
z
" id="DejaVuSans-41" transform="scale(0.015625)"/>
        <path d="M 1159 525 
L 1159 -1331 
L 581 -1331 
L 581 3500 
L 1159 3500 
L 1159 2969 
Q 1341 3281 1617 3432 
Q 1894 3584 2278 3584 
Q 2916 3584 3314 3078 
Q 3713 2572 3713 1747 
Q 3713 922 3314 415 
Q 2916 -91 2278 -91 
Q 1894 -91 1617 61 
Q 1341 213 1159 525 
z
M 3116 1747 
Q 3116 2381 2855 2742 
Q 2594 3103 2138 3103 
Q 1681 3103 1420 2742 
Q 1159 2381 1159 1747 
Q 1159 1113 1420 752 
Q 1681 391 2138 391 
Q 2594 391 2855 752 
Q 3116 1113 3116 1747 
z
" id="DejaVuSans-70" transform="scale(0.015625)"/>
        <path d="M 2631 2963 
Q 2534 3019 2420 3045 
Q 2306 3072 2169 3072 
Q 1681 3072 1420 2755 
Q 1159 2438 1159 1844 
L 1159 0 
L 581 0 
L 581 3500 
L 1159 3500 
L 1159 2956 
Q 1341 3275 1631 3429 
Q 1922 3584 2338 3584 
Q 2397 3584 2469 3576 
Q 2541 3569 2628 3553 
L 2631 2963 
z
" id="DejaVuSans-72" transform="scale(0.015625)"/>
       </defs>
       <use xlink:href="#DejaVuSans-41"/>
       <use x="68.408203" xlink:href="#DejaVuSans-70"/>
       <use x="131.884766" xlink:href="#DejaVuSans-72"/>
      </g>
     </g>
    </g>
    <g id="xtick_33">
     <g id="line2d_43">
      <g>
       <use style="fill:#555555;stroke:#555555;stroke-width:0.8;" x="154.098451" xlink:href="#m29ea0f21c7" y="512.64"/>
      </g>
     </g>
     <g id="text_12">
      <!-- Jul -->
      <g style="fill:#555555;" transform="translate(142.60947 532.253252)rotate(-30)scale(0.1 -0.1)">
       <defs>
        <path d="M 628 4666 
L 1259 4666 
L 1259 325 
Q 1259 -519 939 -900 
Q 619 -1281 -91 -1281 
L -331 -1281 
L -331 -750 
L -134 -750 
Q 284 -750 456 -515 
Q 628 -281 628 325 
L 628 4666 
z
" id="DejaVuSans-4a" transform="scale(0.015625)"/>
        <path d="M 544 1381 
L 544 3500 
L 1119 3500 
L 1119 1403 
Q 1119 906 1312 657 
Q 1506 409 1894 409 
Q 2359 409 2629 706 
Q 2900 1003 2900 1516 
L 2900 3500 
L 3475 3500 
L 3475 0 
L 2900 0 
L 2900 538 
Q 2691 219 2414 64 
Q 2138 -91 1772 -91 
Q 1169 -91 856 284 
Q 544 659 544 1381 
z
M 1991 3584 
L 1991 3584 
z
" id="DejaVuSans-75" transform="scale(0.015625)"/>
       </defs>
       <use xlink:href="#DejaVuSans-4a"/>
       <use x="29.492188" xlink:href="#DejaVuSans-75"/>
       <use x="92.871094" xlink:href="#DejaVuSans-6c"/>
      </g>
     </g>
    </g>
    <g id="xtick_34">
     <g id="line2d_44">
      <g>
       <use style="fill:#555555;stroke:#555555;stroke-width:0.8;" x="222.706859" xlink:href="#m29ea0f21c7" y="512.64"/>
      </g>
     </g>
     <g id="text_13">
      <!-- Oct -->
      <g style="fill:#555555;" transform="translate(206.692895 534.865752)rotate(-30)scale(0.1 -0.1)">
       <defs>
        <path d="M 2522 4238 
Q 1834 4238 1429 3725 
Q 1025 3213 1025 2328 
Q 1025 1447 1429 934 
Q 1834 422 2522 422 
Q 3209 422 3611 934 
Q 4013 1447 4013 2328 
Q 4013 3213 3611 3725 
Q 3209 4238 2522 4238 
z
M 2522 4750 
Q 3503 4750 4090 4092 
Q 4678 3434 4678 2328 
Q 4678 1225 4090 567 
Q 3503 -91 2522 -91 
Q 1538 -91 948 565 
Q 359 1222 359 2328 
Q 359 3434 948 4092 
Q 1538 4750 2522 4750 
z
" id="DejaVuSans-4f" transform="scale(0.015625)"/>
        <path d="M 3122 3366 
L 3122 2828 
Q 2878 2963 2633 3030 
Q 2388 3097 2138 3097 
Q 1578 3097 1268 2742 
Q 959 2388 959 1747 
Q 959 1106 1268 751 
Q 1578 397 2138 397 
Q 2388 397 2633 464 
Q 2878 531 3122 666 
L 3122 134 
Q 2881 22 2623 -34 
Q 2366 -91 2075 -91 
Q 1284 -91 818 406 
Q 353 903 353 1747 
Q 353 2603 823 3093 
Q 1294 3584 2113 3584 
Q 2378 3584 2631 3529 
Q 2884 3475 3122 3366 
z
" id="DejaVuSans-63" transform="scale(0.015625)"/>
       </defs>
       <use xlink:href="#DejaVuSans-4f"/>
       <use x="78.710938" xlink:href="#DejaVuSans-63"/>
       <use x="133.691406" xlink:href="#DejaVuSans-74"/>
      </g>
     </g>
    </g>
    <g id="xtick_35">
     <g id="line2d_45">
      <g>
       <use style="fill:#555555;stroke:#555555;stroke-width:0.8;" x="291.315266" xlink:href="#m29ea0f21c7" y="512.64"/>
      </g>
     </g>
     <g id="text_14">
      <!-- Jan -->
      <g style="fill:#555555;" transform="translate(271.326194 533.928252)rotate(-30)scale(0.1 -0.1)">
       <defs>
        <path d="M 3513 2113 
L 3513 0 
L 2938 0 
L 2938 2094 
Q 2938 2591 2744 2837 
Q 2550 3084 2163 3084 
Q 1697 3084 1428 2787 
Q 1159 2491 1159 1978 
L 1159 0 
L 581 0 
L 581 3500 
L 1159 3500 
L 1159 2956 
Q 1366 3272 1645 3428 
Q 1925 3584 2291 3584 
Q 2894 3584 3203 3211 
Q 3513 2838 3513 2113 
z
" id="DejaVuSans-6e" transform="scale(0.015625)"/>
       </defs>
       <use xlink:href="#DejaVuSans-4a"/>
       <use x="29.492188" xlink:href="#DejaVuSans-61"/>
       <use x="90.771484" xlink:href="#DejaVuSans-6e"/>
      </g>
      <!-- 2021 -->
      <g style="fill:#555555;" transform="translate(268.235076 548.64303)rotate(-30)scale(0.1 -0.1)">
       <use xlink:href="#DejaVuSans-32"/>
       <use x="63.623047" xlink:href="#DejaVuSans-30"/>
       <use x="127.246094" xlink:href="#DejaVuSans-32"/>
       <use x="190.869141" xlink:href="#DejaVuSans-31"/>
      </g>
     </g>
    </g>
    <g id="xtick_36">
     <g id="line2d_46">
      <g>
       <use style="fill:#555555;stroke:#555555;stroke-width:0.8;" x="358.432187" xlink:href="#m29ea0f21c7" y="512.64"/>
      </g>
     </g>
     <g id="text_15">
      <!-- Apr -->
      <g style="fill:#555555;" transform="translate(342.410104 534.87044)rotate(-30)scale(0.1 -0.1)">
       <use xlink:href="#DejaVuSans-41"/>
       <use x="68.408203" xlink:href="#DejaVuSans-70"/>
       <use x="131.884766" xlink:href="#DejaVuSans-72"/>
      </g>
     </g>
    </g>
    <g id="xtick_37">
     <g id="line2d_47">
      <g>
       <use style="fill:#555555;stroke:#555555;stroke-width:0.8;" x="426.294851" xlink:href="#m29ea0f21c7" y="512.64"/>
      </g>
     </g>
     <g id="text_16">
      <!-- Jul -->
      <g style="fill:#555555;" transform="translate(414.805869 532.253252)rotate(-30)scale(0.1 -0.1)">
       <use xlink:href="#DejaVuSans-4a"/>
       <use x="29.492188" xlink:href="#DejaVuSans-75"/>
       <use x="92.871094" xlink:href="#DejaVuSans-6c"/>
      </g>
     </g>
    </g>
    <g id="xtick_38">
     <g id="line2d_48">
      <g>
       <use style="fill:#555555;stroke:#555555;stroke-width:0.8;" x="494.903258" xlink:href="#m29ea0f21c7" y="512.64"/>
      </g>
     </g>
     <g id="text_17">
      <!-- Oct -->
      <g style="fill:#555555;" transform="translate(478.889294 534.865752)rotate(-30)scale(0.1 -0.1)">
       <use xlink:href="#DejaVuSans-4f"/>
       <use x="78.710938" xlink:href="#DejaVuSans-63"/>
       <use x="133.691406" xlink:href="#DejaVuSans-74"/>
      </g>
     </g>
    </g>
    <g id="xtick_39">
     <g id="line2d_49">
      <g>
       <use style="fill:#555555;stroke:#555555;stroke-width:0.8;" x="563.511666" xlink:href="#m29ea0f21c7" y="512.64"/>
      </g>
     </g>
     <g id="text_18">
      <!-- Jan -->
      <g style="fill:#555555;" transform="translate(543.522593 533.928252)rotate(-30)scale(0.1 -0.1)">
       <use xlink:href="#DejaVuSans-4a"/>
       <use x="29.492188" xlink:href="#DejaVuSans-61"/>
       <use x="90.771484" xlink:href="#DejaVuSans-6e"/>
      </g>
      <!-- 2022 -->
      <g style="fill:#555555;" transform="translate(540.431475 548.64303)rotate(-30)scale(0.1 -0.1)">
       <use xlink:href="#DejaVuSans-32"/>
       <use x="63.623047" xlink:href="#DejaVuSans-30"/>
       <use x="127.246094" xlink:href="#DejaVuSans-32"/>
       <use x="190.869141" xlink:href="#DejaVuSans-32"/>
      </g>
     </g>
    </g>
    <g id="xtick_40">
     <g id="line2d_50">
      <g>
       <use style="fill:#555555;stroke:#555555;stroke-width:0.8;" x="630.628586" xlink:href="#m29ea0f21c7" y="512.64"/>
      </g>
     </g>
     <g id="text_19">
      <!-- Apr -->
      <g style="fill:#555555;" transform="translate(614.606503 534.87044)rotate(-30)scale(0.1 -0.1)">
       <use xlink:href="#DejaVuSans-41"/>
       <use x="68.408203" xlink:href="#DejaVuSans-70"/>
       <use x="131.884766" xlink:href="#DejaVuSans-72"/>
      </g>
     </g>
    </g>
    <g id="xtick_41">
     <g id="line2d_51">
      <g>
       <use style="fill:#555555;stroke:#555555;stroke-width:0.8;" x="698.49125" xlink:href="#m29ea0f21c7" y="512.64"/>
      </g>
     </g>
     <g id="text_20">
      <!-- Jul -->
      <g style="fill:#555555;" transform="translate(687.002268 532.253252)rotate(-30)scale(0.1 -0.1)">
       <use xlink:href="#DejaVuSans-4a"/>
       <use x="29.492188" xlink:href="#DejaVuSans-75"/>
       <use x="92.871094" xlink:href="#DejaVuSans-6c"/>
      </g>
     </g>
    </g>
    <g id="xtick_42">
     <g id="line2d_52">
      <g>
       <use style="fill:#555555;stroke:#555555;stroke-width:0.6;" x="63.117737" xlink:href="#m1ae37d4312" y="512.64"/>
      </g>
     </g>
    </g>
    <g id="xtick_43">
     <g id="line2d_53">
      <g>
       <use style="fill:#555555;stroke:#555555;stroke-width:0.6;" x="108.608094" xlink:href="#m1ae37d4312" y="512.64"/>
      </g>
     </g>
    </g>
    <g id="xtick_44">
     <g id="line2d_54">
      <g>
       <use style="fill:#555555;stroke:#555555;stroke-width:0.6;" x="131.726145" xlink:href="#m1ae37d4312" y="512.64"/>
      </g>
     </g>
    </g>
    <g id="xtick_45">
     <g id="line2d_55">
      <g>
       <use style="fill:#555555;stroke:#555555;stroke-width:0.6;" x="177.216502" xlink:href="#m1ae37d4312" y="512.64"/>
      </g>
     </g>
    </g>
    <g id="xtick_46">
     <g id="line2d_56">
      <g>
       <use style="fill:#555555;stroke:#555555;stroke-width:0.6;" x="200.334552" xlink:href="#m1ae37d4312" y="512.64"/>
      </g>
     </g>
    </g>
    <g id="xtick_47">
     <g id="line2d_57">
      <g>
       <use style="fill:#555555;stroke:#555555;stroke-width:0.6;" x="245.824909" xlink:href="#m1ae37d4312" y="512.64"/>
      </g>
     </g>
    </g>
    <g id="xtick_48">
     <g id="line2d_58">
      <g>
       <use style="fill:#555555;stroke:#555555;stroke-width:0.6;" x="268.197216" xlink:href="#m1ae37d4312" y="512.64"/>
      </g>
     </g>
    </g>
    <g id="xtick_49">
     <g id="line2d_59">
      <g>
       <use style="fill:#555555;stroke:#555555;stroke-width:0.6;" x="314.433317" xlink:href="#m1ae37d4312" y="512.64"/>
      </g>
     </g>
    </g>
    <g id="xtick_50">
     <g id="line2d_60">
      <g>
       <use style="fill:#555555;stroke:#555555;stroke-width:0.6;" x="335.314136" xlink:href="#m1ae37d4312" y="512.64"/>
      </g>
     </g>
    </g>
    <g id="xtick_51">
     <g id="line2d_61">
      <g>
       <use style="fill:#555555;stroke:#555555;stroke-width:0.6;" x="380.804494" xlink:href="#m1ae37d4312" y="512.64"/>
      </g>
     </g>
    </g>
    <g id="xtick_52">
     <g id="line2d_62">
      <g>
       <use style="fill:#555555;stroke:#555555;stroke-width:0.6;" x="403.922544" xlink:href="#m1ae37d4312" y="512.64"/>
      </g>
     </g>
    </g>
    <g id="xtick_53">
     <g id="line2d_63">
      <g>
       <use style="fill:#555555;stroke:#555555;stroke-width:0.6;" x="449.412901" xlink:href="#m1ae37d4312" y="512.64"/>
      </g>
     </g>
    </g>
    <g id="xtick_54">
     <g id="line2d_64">
      <g>
       <use style="fill:#555555;stroke:#555555;stroke-width:0.6;" x="472.530951" xlink:href="#m1ae37d4312" y="512.64"/>
      </g>
     </g>
    </g>
    <g id="xtick_55">
     <g id="line2d_65">
      <g>
       <use style="fill:#555555;stroke:#555555;stroke-width:0.6;" x="518.021309" xlink:href="#m1ae37d4312" y="512.64"/>
      </g>
     </g>
    </g>
    <g id="xtick_56">
     <g id="line2d_66">
      <g>
       <use style="fill:#555555;stroke:#555555;stroke-width:0.6;" x="540.393615" xlink:href="#m1ae37d4312" y="512.64"/>
      </g>
     </g>
    </g>
    <g id="xtick_57">
     <g id="line2d_67">
      <g>
       <use style="fill:#555555;stroke:#555555;stroke-width:0.6;" x="586.629716" xlink:href="#m1ae37d4312" y="512.64"/>
      </g>
     </g>
    </g>
    <g id="xtick_58">
     <g id="line2d_68">
      <g>
       <use style="fill:#555555;stroke:#555555;stroke-width:0.6;" x="607.510536" xlink:href="#m1ae37d4312" y="512.64"/>
      </g>
     </g>
    </g>
    <g id="xtick_59">
     <g id="line2d_69">
      <g>
       <use style="fill:#555555;stroke:#555555;stroke-width:0.6;" x="653.000893" xlink:href="#m1ae37d4312" y="512.64"/>
      </g>
     </g>
    </g>
    <g id="xtick_60">
     <g id="line2d_70">
      <g>
       <use style="fill:#555555;stroke:#555555;stroke-width:0.6;" x="676.118943" xlink:href="#m1ae37d4312" y="512.64"/>
      </g>
     </g>
    </g>
    <g id="text_21">
     <!-- Date -->
     <g style="fill:#555555;" transform="translate(365.717813 563.562217)scale(0.12 -0.12)">
      <defs>
       <path d="M 1259 4147 
L 1259 519 
L 2022 519 
Q 2988 519 3436 956 
Q 3884 1394 3884 2338 
Q 3884 3275 3436 3711 
Q 2988 4147 2022 4147 
L 1259 4147 
z
M 628 4666 
L 1925 4666 
Q 3281 4666 3915 4102 
Q 4550 3538 4550 2338 
Q 4550 1131 3912 565 
Q 3275 0 1925 0 
L 628 0 
L 628 4666 
z
" id="DejaVuSans-44" transform="scale(0.015625)"/>
      </defs>
      <use xlink:href="#DejaVuSans-44"/>
      <use x="77.001953" xlink:href="#DejaVuSans-61"/>
      <use x="138.28125" xlink:href="#DejaVuSans-74"/>
      <use x="177.490234" xlink:href="#DejaVuSans-65"/>
     </g>
    </g>
   </g>
   <g id="matplotlib.axis_4">
    <g id="ytick_9">
     <g id="line2d_71">
      <g>
       <use style="fill:#555555;stroke:#555555;stroke-width:0.8;" x="61.62625" xlink:href="#m6e31511b21" y="503.596345"/>
      </g>
     </g>
     <g id="text_22">
      <!-- 0 -->
      <g style="fill:#555555;" transform="translate(48.26375 507.395564)scale(0.1 -0.1)">
       <use xlink:href="#DejaVuSans-30"/>
      </g>
     </g>
    </g>
    <g id="ytick_10">
     <g id="line2d_72">
      <g>
       <use style="fill:#555555;stroke:#555555;stroke-width:0.8;" x="61.62625" xlink:href="#m6e31511b21" y="468.611992"/>
      </g>
     </g>
     <g id="text_23">
      <!-- 5000 -->
      <g style="fill:#555555;" transform="translate(29.17625 472.411211)scale(0.1 -0.1)">
       <use xlink:href="#DejaVuSans-35"/>
       <use x="63.623047" xlink:href="#DejaVuSans-30"/>
       <use x="127.246094" xlink:href="#DejaVuSans-30"/>
       <use x="190.869141" xlink:href="#DejaVuSans-30"/>
      </g>
     </g>
    </g>
    <g id="ytick_11">
     <g id="line2d_73">
      <g>
       <use style="fill:#555555;stroke:#555555;stroke-width:0.8;" x="61.62625" xlink:href="#m6e31511b21" y="433.627639"/>
      </g>
     </g>
     <g id="text_24">
      <!-- 10000 -->
      <g style="fill:#555555;" transform="translate(22.81375 437.426858)scale(0.1 -0.1)">
       <use xlink:href="#DejaVuSans-31"/>
       <use x="63.623047" xlink:href="#DejaVuSans-30"/>
       <use x="127.246094" xlink:href="#DejaVuSans-30"/>
       <use x="190.869141" xlink:href="#DejaVuSans-30"/>
       <use x="254.492188" xlink:href="#DejaVuSans-30"/>
      </g>
     </g>
    </g>
    <g id="ytick_12">
     <g id="line2d_74">
      <g>
       <use style="fill:#555555;stroke:#555555;stroke-width:0.8;" x="61.62625" xlink:href="#m6e31511b21" y="398.643287"/>
      </g>
     </g>
     <g id="text_25">
      <!-- 15000 -->
      <g style="fill:#555555;" transform="translate(22.81375 402.442505)scale(0.1 -0.1)">
       <use xlink:href="#DejaVuSans-31"/>
       <use x="63.623047" xlink:href="#DejaVuSans-35"/>
       <use x="127.246094" xlink:href="#DejaVuSans-30"/>
       <use x="190.869141" xlink:href="#DejaVuSans-30"/>
       <use x="254.492188" xlink:href="#DejaVuSans-30"/>
      </g>
     </g>
    </g>
    <g id="ytick_13">
     <g id="line2d_75">
      <g>
       <use style="fill:#555555;stroke:#555555;stroke-width:0.8;" x="61.62625" xlink:href="#m6e31511b21" y="363.658934"/>
      </g>
     </g>
     <g id="text_26">
      <!-- 20000 -->
      <g style="fill:#555555;" transform="translate(22.81375 367.458153)scale(0.1 -0.1)">
       <use xlink:href="#DejaVuSans-32"/>
       <use x="63.623047" xlink:href="#DejaVuSans-30"/>
       <use x="127.246094" xlink:href="#DejaVuSans-30"/>
       <use x="190.869141" xlink:href="#DejaVuSans-30"/>
       <use x="254.492188" xlink:href="#DejaVuSans-30"/>
      </g>
     </g>
    </g>
    <g id="ytick_14">
     <g id="line2d_76">
      <g>
       <use style="fill:#555555;stroke:#555555;stroke-width:0.8;" x="61.62625" xlink:href="#m6e31511b21" y="328.674581"/>
      </g>
     </g>
     <g id="text_27">
      <!-- 25000 -->
      <g style="fill:#555555;" transform="translate(22.81375 332.4738)scale(0.1 -0.1)">
       <use xlink:href="#DejaVuSans-32"/>
       <use x="63.623047" xlink:href="#DejaVuSans-35"/>
       <use x="127.246094" xlink:href="#DejaVuSans-30"/>
       <use x="190.869141" xlink:href="#DejaVuSans-30"/>
       <use x="254.492188" xlink:href="#DejaVuSans-30"/>
      </g>
     </g>
    </g>
    <g id="text_28">
     <!-- Daily -->
     <g style="fill:#555555;" transform="translate(16.318125 428.341669)rotate(-90)scale(0.12 -0.12)">
      <defs>
       <path d="M 603 3500 
L 1178 3500 
L 1178 0 
L 603 0 
L 603 3500 
z
M 603 4863 
L 1178 4863 
L 1178 4134 
L 603 4134 
L 603 4863 
z
" id="DejaVuSans-69" transform="scale(0.015625)"/>
       <path d="M 2059 -325 
Q 1816 -950 1584 -1140 
Q 1353 -1331 966 -1331 
L 506 -1331 
L 506 -850 
L 844 -850 
Q 1081 -850 1212 -737 
Q 1344 -625 1503 -206 
L 1606 56 
L 191 3500 
L 800 3500 
L 1894 763 
L 2988 3500 
L 3597 3500 
L 2059 -325 
z
" id="DejaVuSans-79" transform="scale(0.015625)"/>
      </defs>
      <use xlink:href="#DejaVuSans-44"/>
      <use x="77.001953" xlink:href="#DejaVuSans-61"/>
      <use x="138.28125" xlink:href="#DejaVuSans-69"/>
      <use x="166.064453" xlink:href="#DejaVuSans-6c"/>
      <use x="193.847656" xlink:href="#DejaVuSans-79"/>
     </g>
    </g>
   </g>
   <g id="line2d_77">
    <path clip-path="url(#p8d4323f924)" d="M 61.62625 503.225511 
L 62.371994 503.372445 
L 63.863481 503.325216 
L 65.354968 503.290815 
L 66.846455 503.010607 
L 70.575173 502.291928 
L 71.320916 501.628225 
L 72.812403 500.597686 
L 75.795378 496.968309 
L 78.032608 490.735097 
L 78.778352 489.830502 
L 79.524095 486.943793 
L 81.015583 480.250787 
L 81.761326 478.098749 
L 82.50707 475.278011 
L 83.252813 471.690615 
L 83.998557 469.674517 
L 84.7443 468.985825 
L 85.490044 469.134758 
L 86.981531 466.598893 
L 87.727275 466.205069 
L 88.473018 466.416974 
L 89.218762 464.446855 
L 89.964505 465.520375 
L 90.710249 466.301026 
L 91.455992 467.750378 
L 92.201736 468.931849 
L 92.94748 469.782469 
L 93.693223 471.730597 
L 94.438967 474.844205 
L 95.18471 475.983695 
L 97.421941 481.358291 
L 98.167684 483.300423 
L 98.913428 483.824188 
L 99.659172 484.187026 
L 100.404915 484.948685 
L 101.896402 485.494441 
L 102.642146 486.008212 
L 103.387889 487.050745 
L 104.133633 488.604051 
L 106.370864 490.722103 
L 107.862351 492.528295 
L 108.608094 493.225983 
L 110.099581 495.279065 
L 111.591069 496.076708 
L 112.336812 496.433549 
L 113.082556 496.627462 
L 113.828299 497.05727 
L 114.574043 496.751406 
L 115.319786 496.87735 
L 116.06553 497.199206 
L 116.811273 496.951317 
L 117.557017 497.10025 
L 119.048504 497.746961 
L 119.794248 498.377679 
L 121.285735 498.476635 
L 122.031478 498.896447 
L 122.777222 498.897447 
L 123.522965 499.085363 
L 124.268709 499.53816 
L 125.014453 499.520168 
L 126.50594 499.725076 
L 127.251683 499.80604 
L 128.74317 500.632671 
L 129.488914 500.351796 
L 130.234657 500.251841 
L 130.980401 500.396776 
L 131.726145 500.352796 
L 132.471888 500.571698 
L 133.963375 500.550707 
L 135.454862 501.115455 
L 136.200606 501.100461 
L 136.94635 501.219408 
L 137.692093 501.082469 
L 138.437837 501.106459 
L 139.18358 500.945531 
L 139.929324 501.194419 
L 142.166554 501.329359 
L 144.403785 501.249395 
L 145.149529 500.737624 
L 145.895272 500.484737 
L 147.386759 499.700088 
L 148.132503 499.575144 
L 148.878246 499.333252 
L 149.62399 499.283274 
L 150.369734 499.576143 
L 151.115477 499.490182 
L 151.861221 499.920989 
L 152.606964 500.195866 
L 153.352708 500.200864 
L 157.081426 500.761613 
L 160.0644 501.042487 
L 163.047374 501.188422 
L 165.284605 501.120452 
L 166.776092 500.781604 
L 167.521835 500.827583 
L 170.50481 500.489734 
L 172.74204 499.902997 
L 174.233528 499.701087 
L 176.470758 499.083363 
L 177.216502 498.909441 
L 177.962245 498.974412 
L 182.436707 497.915886 
L 183.18245 497.601026 
L 183.928194 497.673994 
L 184.673937 497.587033 
L 186.165424 496.702428 
L 187.656912 496.107694 
L 189.148399 495.912782 
L 189.894142 495.488971 
L 191.385629 494.943215 
L 192.131373 494.965205 
L 192.877117 494.346482 
L 194.368604 494.039619 
L 195.114347 494.151569 
L 195.860091 494.085599 
L 196.605834 494.285509 
L 197.351578 494.141574 
L 198.097321 494.696326 
L 199.588809 494.794282 
L 200.334552 494.854255 
L 201.080296 495.174112 
L 202.571783 495.487972 
L 203.317526 495.588926 
L 205.554757 494.901234 
L 206.300501 494.981198 
L 207.046244 494.400458 
L 207.791988 494.369472 
L 208.537731 494.117585 
L 209.283475 494.157567 
L 210.029218 494.044617 
L 210.774962 494.136576 
L 211.520706 493.4119 
L 212.266449 493.110035 
L 213.012193 492.678228 
L 213.757936 492.011526 
L 214.50368 491.614704 
L 215.249423 491.619702 
L 215.995167 491.205887 
L 217.486654 491.388805 
L 218.978141 490.942005 
L 219.723885 490.877034 
L 221.215372 490.339274 
L 221.961115 490.310287 
L 222.706859 489.950448 
L 223.452602 489.430681 
L 224.198346 489.374706 
L 224.94409 488.506094 
L 225.689833 488.316179 
L 226.435577 487.766425 
L 227.18132 486.736886 
L 227.927064 485.182581 
L 228.672807 483.340405 
L 229.418551 481.18337 
L 231.655782 477.413056 
L 233.147269 472.531239 
L 235.384499 464.50383 
L 236.130243 462.64666 
L 237.62173 457.439989 
L 238.367474 452.793067 
L 239.113217 448.886815 
L 239.858961 442.005892 
L 240.604704 436.419391 
L 242.096191 427.52237 
L 242.841935 420.156664 
L 243.587679 414.672118 
L 244.333422 407.236443 
L 245.079166 402.893386 
L 246.570653 396.483253 
L 247.316396 392.542015 
L 248.06214 390.293021 
L 249.553627 384.254722 
L 250.299371 379.916662 
L 251.045114 378.077485 
L 251.790858 376.812051 
L 252.536601 376.832042 
L 253.282345 375.559611 
L 254.773832 371.64936 
L 255.519576 372.586941 
L 256.265319 371.657356 
L 257.011063 374.195221 
L 258.50255 376.033399 
L 259.248293 375.290731 
L 259.994037 375.184779 
L 260.73978 374.682004 
L 261.485524 375.887464 
L 262.231268 375.847482 
L 262.977011 376.712096 
L 263.722755 375.640575 
L 264.468498 375.981422 
L 265.214242 376.823046 
L 266.705729 379.220974 
L 267.451472 378.91611 
L 268.197216 378.866132 
L 268.94296 380.228523 
L 269.688703 380.450424 
L 270.434447 379.807711 
L 271.18019 378.185437 
L 271.925934 375.030848 
L 272.671677 373.868368 
L 273.417421 373.418569 
L 274.163165 369.875154 
L 274.908908 368.242884 
L 275.654652 361.819756 
L 276.400395 356.702045 
L 277.146139 354.270133 
L 277.891882 350.241935 
L 278.637626 349.864104 
L 279.383369 342.954194 
L 280.129113 339.711645 
L 280.874857 335.811389 
L 282.366344 330.380818 
L 283.112087 330.099944 
L 283.857831 325.006222 
L 284.603574 327.992886 
L 285.349318 322.723243 
L 286.095061 330.963557 
L 286.840805 347.801026 
L 287.586549 356.812996 
L 288.332292 362.477462 
L 289.078036 369.110496 
L 289.823779 371.390476 
L 290.569523 371.033635 
L 291.315266 373.641469 
L 292.06101 375.40568 
L 292.806754 378.844142 
L 295.043984 382.188646 
L 295.789728 388.346892 
L 296.535471 379.425882 
L 297.281215 367.427248 
L 298.026958 360.779222 
L 298.772702 358.150398 
L 299.518446 357.245802 
L 300.264189 358.88207 
L 301.009933 360.108522 
L 301.755676 369.585283 
L 302.50142 375.598594 
L 303.247163 378.681215 
L 303.992907 384.014829 
L 304.73865 385.447189 
L 305.484394 389.071568 
L 306.975881 398.339423 
L 307.721625 400.599412 
L 308.467368 402.223685 
L 309.213112 402.635501 
L 309.958855 407.590285 
L 311.450343 413.208772 
L 312.94183 421.141224 
L 314.433317 423.326247 
L 315.17906 423.624114 
L 316.670547 430.456058 
L 317.416291 431.56956 
L 318.162035 433.404739 
L 318.907778 435.979587 
L 319.653522 437.052108 
L 320.399265 439.785885 
L 321.145009 441.418155 
L 321.890752 445.390378 
L 322.636496 448.437016 
L 323.382239 450.567063 
L 324.127983 453.067944 
L 324.873727 453.176896 
L 325.61947 452.700109 
L 326.365214 453.215878 
L 327.110957 453.245865 
L 327.856701 453.992531 
L 328.602444 453.182893 
L 329.348188 451.621591 
L 330.839675 451.651578 
L 331.585419 451.20078 
L 332.331162 449.539523 
L 333.076906 448.655918 
L 333.822649 448.058185 
L 334.568393 447.844281 
L 335.314136 447.481443 
L 336.05988 447.42147 
L 336.805624 446.409922 
L 337.551367 446.366942 
L 338.297111 445.784202 
L 339.042854 445.989111 
L 340.534341 445.497331 
L 341.280085 445.188469 
L 342.025828 445.061525 
L 343.517316 440.365626 
L 345.008803 434.564221 
L 345.754546 432.971933 
L 346.50029 431.744482 
L 347.246033 427.457399 
L 347.991777 424.310806 
L 348.73752 419.664884 
L 350.229008 413.365702 
L 350.974751 412.261196 
L 351.720495 410.257092 
L 352.466238 407.880155 
L 353.211982 402.729459 
L 355.449213 390.761812 
L 356.9407 386.536701 
L 357.686443 385.299255 
L 358.432187 383.656989 
L 359.17793 383.34213 
L 359.923674 385.684083 
L 360.669417 390.661856 
L 361.415161 392.036242 
L 362.160905 394.699051 
L 362.906648 402.069754 
L 363.652392 405.961014 
L 364.398135 402.386612 
L 365.889622 390.76481 
L 366.635366 386.018933 
L 367.381109 382.095688 
L 368.126853 370.08506 
L 368.872597 361.070092 
L 369.61834 360.703256 
L 370.364084 360.996125 
L 371.109827 359.666719 
L 371.855571 361.473911 
L 372.601314 362.674374 
L 373.347058 359.484801 
L 374.092802 359.392842 
L 374.838545 357.681607 
L 376.330032 358.505239 
L 377.075776 358.035449 
L 377.821519 356.66906 
L 378.567263 359.320874 
L 379.313006 364.100736 
L 380.05875 367.313299 
L 380.804494 371.768307 
L 382.295981 376.995969 
L 383.041724 380.43643 
L 383.787468 384.631554 
L 384.533211 387.413309 
L 385.278955 393.254697 
L 386.770442 400.135619 
L 387.516186 402.372619 
L 388.261929 403.780989 
L 389.007673 406.904592 
L 389.753416 411.436565 
L 391.244903 426.369886 
L 391.990647 430.524028 
L 392.736391 432.033352 
L 393.482134 433.948496 
L 394.227878 437.815766 
L 394.973621 442.934477 
L 395.719365 445.500329 
L 396.465108 446.311966 
L 397.210852 448.097168 
L 397.956595 450.825947 
L 398.702339 453.12292 
L 399.448083 461.533158 
L 400.193826 467.515483 
L 400.93957 468.903862 
L 401.685313 470.559121 
L 402.431057 473.419842 
L 403.1768 474.123527 
L 403.922544 474.249471 
L 404.668287 471.959495 
L 405.414031 473.631747 
L 406.159775 477.844863 
L 406.905518 480.975462 
L 407.651262 482.386831 
L 408.397005 483.247446 
L 409.142749 483.828187 
L 410.634236 486.942794 
L 411.37998 487.667469 
L 412.125723 488.050298 
L 412.871467 489.000873 
L 414.362954 490.120372 
L 415.854441 493.774738 
L 416.600184 495.138128 
L 418.091672 496.58748 
L 419.583159 496.987301 
L 421.074646 497.747961 
L 421.820389 498.049826 
L 422.566133 498.565595 
L 423.311876 498.869459 
L 427.040594 499.496179 
L 427.040594 499.496179 
" style="fill:none;stroke:#e24a33;stroke-linecap:square;stroke-width:1.5;"/>
   </g>
   <g id="line2d_78">
    <path clip-path="url(#p8d4323f924)" d="M 427.786338 499.495534 
L 431.515056 500.366268 
L 435.989517 501.1717 
L 441.209722 501.861983 
L 447.17567 502.414199 
L 454.633106 502.864515 
L 464.327772 503.204158 
L 477.751156 503.431073 
L 500.123463 503.557214 
L 560.528691 503.595545 
L 698.49125 503.596345 
L 698.49125 503.596345 
" style="fill:none;stroke:#348abd;stroke-linecap:square;stroke-width:1.5;"/>
   </g>
   <g id="patch_8">
    <path d="M 61.62625 512.64 
L 61.62625 313.679588 
" style="fill:none;stroke:#ffffff;stroke-linecap:square;stroke-linejoin:miter;"/>
   </g>
   <g id="patch_9">
    <path d="M 698.49125 512.64 
L 698.49125 313.679588 
" style="fill:none;stroke:#ffffff;stroke-linecap:square;stroke-linejoin:miter;"/>
   </g>
   <g id="patch_10">
    <path d="M 61.62625 512.64 
L 698.49125 512.64 
" style="fill:none;stroke:#ffffff;stroke-linecap:square;stroke-linejoin:miter;"/>
   </g>
   <g id="patch_11">
    <path d="M 61.62625 313.679588 
L 698.49125 313.679588 
" style="fill:none;stroke:#ffffff;stroke-linecap:square;stroke-linejoin:miter;"/>
   </g>
   <g id="legend_1">
    <g id="patch_12">
     <path d="M 488.5975 351.035838 
L 691.49125 351.035838 
Q 693.49125 351.035838 693.49125 349.035838 
L 693.49125 320.679588 
Q 693.49125 318.679588 691.49125 318.679588 
L 488.5975 318.679588 
Q 486.5975 318.679588 486.5975 320.679588 
L 486.5975 349.035838 
Q 486.5975 351.035838 488.5975 351.035838 
z
" style="fill:#e5e5e5;opacity:0.8;stroke:#cccccc;stroke-linejoin:miter;stroke-width:0.5;"/>
    </g>
    <g id="line2d_79">
     <path d="M 490.5975 326.778025 
L 510.5975 326.778025 
" style="fill:none;stroke:#e24a33;stroke-linecap:square;stroke-width:1.5;"/>
    </g>
    <g id="line2d_80"/>
    <g id="text_29">
     <!-- Cases -->
     <g transform="translate(518.5975 330.278025)scale(0.1 -0.1)">
      <defs>
       <path d="M 4122 4306 
L 4122 3641 
Q 3803 3938 3442 4084 
Q 3081 4231 2675 4231 
Q 1875 4231 1450 3742 
Q 1025 3253 1025 2328 
Q 1025 1406 1450 917 
Q 1875 428 2675 428 
Q 3081 428 3442 575 
Q 3803 722 4122 1019 
L 4122 359 
Q 3791 134 3420 21 
Q 3050 -91 2638 -91 
Q 1578 -91 968 557 
Q 359 1206 359 2328 
Q 359 3453 968 4101 
Q 1578 4750 2638 4750 
Q 3056 4750 3426 4639 
Q 3797 4528 4122 4306 
z
" id="DejaVuSans-43" transform="scale(0.015625)"/>
       <path d="M 2834 3397 
L 2834 2853 
Q 2591 2978 2328 3040 
Q 2066 3103 1784 3103 
Q 1356 3103 1142 2972 
Q 928 2841 928 2578 
Q 928 2378 1081 2264 
Q 1234 2150 1697 2047 
L 1894 2003 
Q 2506 1872 2764 1633 
Q 3022 1394 3022 966 
Q 3022 478 2636 193 
Q 2250 -91 1575 -91 
Q 1294 -91 989 -36 
Q 684 19 347 128 
L 347 722 
Q 666 556 975 473 
Q 1284 391 1588 391 
Q 1994 391 2212 530 
Q 2431 669 2431 922 
Q 2431 1156 2273 1281 
Q 2116 1406 1581 1522 
L 1381 1569 
Q 847 1681 609 1914 
Q 372 2147 372 2553 
Q 372 3047 722 3315 
Q 1072 3584 1716 3584 
Q 2034 3584 2315 3537 
Q 2597 3491 2834 3397 
z
" id="DejaVuSans-73" transform="scale(0.015625)"/>
      </defs>
      <use xlink:href="#DejaVuSans-43"/>
      <use x="69.824219" xlink:href="#DejaVuSans-61"/>
      <use x="131.103516" xlink:href="#DejaVuSans-73"/>
      <use x="183.203125" xlink:href="#DejaVuSans-65"/>
      <use x="244.726562" xlink:href="#DejaVuSans-73"/>
     </g>
    </g>
    <g id="line2d_81">
     <path d="M 490.5975 341.45615 
L 510.5975 341.45615 
" style="fill:none;stroke:#348abd;stroke-linecap:square;stroke-width:1.5;"/>
    </g>
    <g id="line2d_82"/>
    <g id="text_30">
     <!-- Projected Cases (last 1D avg rate) -->
     <g transform="translate(518.5975 344.95615)scale(0.1 -0.1)">
      <defs>
       <path d="M 1259 4147 
L 1259 2394 
L 2053 2394 
Q 2494 2394 2734 2622 
Q 2975 2850 2975 3272 
Q 2975 3691 2734 3919 
Q 2494 4147 2053 4147 
L 1259 4147 
z
M 628 4666 
L 2053 4666 
Q 2838 4666 3239 4311 
Q 3641 3956 3641 3272 
Q 3641 2581 3239 2228 
Q 2838 1875 2053 1875 
L 1259 1875 
L 1259 0 
L 628 0 
L 628 4666 
z
" id="DejaVuSans-50" transform="scale(0.015625)"/>
       <path d="M 603 3500 
L 1178 3500 
L 1178 -63 
Q 1178 -731 923 -1031 
Q 669 -1331 103 -1331 
L -116 -1331 
L -116 -844 
L 38 -844 
Q 366 -844 484 -692 
Q 603 -541 603 -63 
L 603 3500 
z
M 603 4863 
L 1178 4863 
L 1178 4134 
L 603 4134 
L 603 4863 
z
" id="DejaVuSans-6a" transform="scale(0.015625)"/>
       <path d="M 2906 2969 
L 2906 4863 
L 3481 4863 
L 3481 0 
L 2906 0 
L 2906 525 
Q 2725 213 2448 61 
Q 2172 -91 1784 -91 
Q 1150 -91 751 415 
Q 353 922 353 1747 
Q 353 2572 751 3078 
Q 1150 3584 1784 3584 
Q 2172 3584 2448 3432 
Q 2725 3281 2906 2969 
z
M 947 1747 
Q 947 1113 1208 752 
Q 1469 391 1925 391 
Q 2381 391 2643 752 
Q 2906 1113 2906 1747 
Q 2906 2381 2643 2742 
Q 2381 3103 1925 3103 
Q 1469 3103 1208 2742 
Q 947 2381 947 1747 
z
" id="DejaVuSans-64" transform="scale(0.015625)"/>
       <path id="DejaVuSans-20" transform="scale(0.015625)"/>
       <path d="M 1984 4856 
Q 1566 4138 1362 3434 
Q 1159 2731 1159 2009 
Q 1159 1288 1364 580 
Q 1569 -128 1984 -844 
L 1484 -844 
Q 1016 -109 783 600 
Q 550 1309 550 2009 
Q 550 2706 781 3412 
Q 1013 4119 1484 4856 
L 1984 4856 
z
" id="DejaVuSans-28" transform="scale(0.015625)"/>
       <path d="M 191 3500 
L 800 3500 
L 1894 563 
L 2988 3500 
L 3597 3500 
L 2284 0 
L 1503 0 
L 191 3500 
z
" id="DejaVuSans-76" transform="scale(0.015625)"/>
       <path d="M 2906 1791 
Q 2906 2416 2648 2759 
Q 2391 3103 1925 3103 
Q 1463 3103 1205 2759 
Q 947 2416 947 1791 
Q 947 1169 1205 825 
Q 1463 481 1925 481 
Q 2391 481 2648 825 
Q 2906 1169 2906 1791 
z
M 3481 434 
Q 3481 -459 3084 -895 
Q 2688 -1331 1869 -1331 
Q 1566 -1331 1297 -1286 
Q 1028 -1241 775 -1147 
L 775 -588 
Q 1028 -725 1275 -790 
Q 1522 -856 1778 -856 
Q 2344 -856 2625 -561 
Q 2906 -266 2906 331 
L 2906 616 
Q 2728 306 2450 153 
Q 2172 0 1784 0 
Q 1141 0 747 490 
Q 353 981 353 1791 
Q 353 2603 747 3093 
Q 1141 3584 1784 3584 
Q 2172 3584 2450 3431 
Q 2728 3278 2906 2969 
L 2906 3500 
L 3481 3500 
L 3481 434 
z
" id="DejaVuSans-67" transform="scale(0.015625)"/>
       <path d="M 513 4856 
L 1013 4856 
Q 1481 4119 1714 3412 
Q 1947 2706 1947 2009 
Q 1947 1309 1714 600 
Q 1481 -109 1013 -844 
L 513 -844 
Q 928 -128 1133 580 
Q 1338 1288 1338 2009 
Q 1338 2731 1133 3434 
Q 928 4138 513 4856 
z
" id="DejaVuSans-29" transform="scale(0.015625)"/>
      </defs>
      <use xlink:href="#DejaVuSans-50"/>
      <use x="58.552734" xlink:href="#DejaVuSans-72"/>
      <use x="97.416016" xlink:href="#DejaVuSans-6f"/>
      <use x="158.597656" xlink:href="#DejaVuSans-6a"/>
      <use x="186.380859" xlink:href="#DejaVuSans-65"/>
      <use x="247.904297" xlink:href="#DejaVuSans-63"/>
      <use x="302.884766" xlink:href="#DejaVuSans-74"/>
      <use x="342.09375" xlink:href="#DejaVuSans-65"/>
      <use x="403.617188" xlink:href="#DejaVuSans-64"/>
      <use x="467.09375" xlink:href="#DejaVuSans-20"/>
      <use x="498.880859" xlink:href="#DejaVuSans-43"/>
      <use x="568.705078" xlink:href="#DejaVuSans-61"/>
      <use x="629.984375" xlink:href="#DejaVuSans-73"/>
      <use x="682.083984" xlink:href="#DejaVuSans-65"/>
      <use x="743.607422" xlink:href="#DejaVuSans-73"/>
      <use x="795.707031" xlink:href="#DejaVuSans-20"/>
      <use x="827.494141" xlink:href="#DejaVuSans-28"/>
      <use x="866.507812" xlink:href="#DejaVuSans-6c"/>
      <use x="894.291016" xlink:href="#DejaVuSans-61"/>
      <use x="955.570312" xlink:href="#DejaVuSans-73"/>
      <use x="1007.669922" xlink:href="#DejaVuSans-74"/>
      <use x="1046.878906" xlink:href="#DejaVuSans-20"/>
      <use x="1078.666016" xlink:href="#DejaVuSans-31"/>
      <use x="1142.289062" xlink:href="#DejaVuSans-44"/>
      <use x="1219.291016" xlink:href="#DejaVuSans-20"/>
      <use x="1251.078125" xlink:href="#DejaVuSans-61"/>
      <use x="1312.357422" xlink:href="#DejaVuSans-76"/>
      <use x="1371.537109" xlink:href="#DejaVuSans-67"/>
      <use x="1435.013672" xlink:href="#DejaVuSans-20"/>
      <use x="1466.800781" xlink:href="#DejaVuSans-72"/>
      <use x="1507.914062" xlink:href="#DejaVuSans-61"/>
      <use x="1569.193359" xlink:href="#DejaVuSans-74"/>
      <use x="1608.402344" xlink:href="#DejaVuSans-65"/>
      <use x="1669.925781" xlink:href="#DejaVuSans-29"/>
     </g>
    </g>
   </g>
  </g>
  <g id="text_31">
   <!-- COVID-19 spread projection using Logistic map -->
   <g transform="translate(213.8675 16.318125)scale(0.12 -0.12)">
    <defs>
     <path d="M 1831 0 
L 50 4666 
L 709 4666 
L 2188 738 
L 3669 4666 
L 4325 4666 
L 2547 0 
L 1831 0 
z
" id="DejaVuSans-56" transform="scale(0.015625)"/>
     <path d="M 628 4666 
L 1259 4666 
L 1259 0 
L 628 0 
L 628 4666 
z
" id="DejaVuSans-49" transform="scale(0.015625)"/>
     <path d="M 313 2009 
L 1997 2009 
L 1997 1497 
L 313 1497 
L 313 2009 
z
" id="DejaVuSans-2d" transform="scale(0.015625)"/>
     <path d="M 703 97 
L 703 672 
Q 941 559 1184 500 
Q 1428 441 1663 441 
Q 2288 441 2617 861 
Q 2947 1281 2994 2138 
Q 2813 1869 2534 1725 
Q 2256 1581 1919 1581 
Q 1219 1581 811 2004 
Q 403 2428 403 3163 
Q 403 3881 828 4315 
Q 1253 4750 1959 4750 
Q 2769 4750 3195 4129 
Q 3622 3509 3622 2328 
Q 3622 1225 3098 567 
Q 2575 -91 1691 -91 
Q 1453 -91 1209 -44 
Q 966 3 703 97 
z
M 1959 2075 
Q 2384 2075 2632 2365 
Q 2881 2656 2881 3163 
Q 2881 3666 2632 3958 
Q 2384 4250 1959 4250 
Q 1534 4250 1286 3958 
Q 1038 3666 1038 3163 
Q 1038 2656 1286 2365 
Q 1534 2075 1959 2075 
z
" id="DejaVuSans-39" transform="scale(0.015625)"/>
     <path d="M 628 4666 
L 1259 4666 
L 1259 531 
L 3531 531 
L 3531 0 
L 628 0 
L 628 4666 
z
" id="DejaVuSans-4c" transform="scale(0.015625)"/>
     <path d="M 3328 2828 
Q 3544 3216 3844 3400 
Q 4144 3584 4550 3584 
Q 5097 3584 5394 3201 
Q 5691 2819 5691 2113 
L 5691 0 
L 5113 0 
L 5113 2094 
Q 5113 2597 4934 2840 
Q 4756 3084 4391 3084 
Q 3944 3084 3684 2787 
Q 3425 2491 3425 1978 
L 3425 0 
L 2847 0 
L 2847 2094 
Q 2847 2600 2669 2842 
Q 2491 3084 2119 3084 
Q 1678 3084 1418 2786 
Q 1159 2488 1159 1978 
L 1159 0 
L 581 0 
L 581 3500 
L 1159 3500 
L 1159 2956 
Q 1356 3278 1631 3431 
Q 1906 3584 2284 3584 
Q 2666 3584 2933 3390 
Q 3200 3197 3328 2828 
z
" id="DejaVuSans-6d" transform="scale(0.015625)"/>
    </defs>
    <use xlink:href="#DejaVuSans-43"/>
    <use x="69.824219" xlink:href="#DejaVuSans-4f"/>
    <use x="146.785156" xlink:href="#DejaVuSans-56"/>
    <use x="215.193359" xlink:href="#DejaVuSans-49"/>
    <use x="244.685547" xlink:href="#DejaVuSans-44"/>
    <use x="321.6875" xlink:href="#DejaVuSans-2d"/>
    <use x="357.771484" xlink:href="#DejaVuSans-31"/>
    <use x="421.394531" xlink:href="#DejaVuSans-39"/>
    <use x="485.017578" xlink:href="#DejaVuSans-20"/>
    <use x="516.804688" xlink:href="#DejaVuSans-73"/>
    <use x="568.904297" xlink:href="#DejaVuSans-70"/>
    <use x="632.380859" xlink:href="#DejaVuSans-72"/>
    <use x="671.244141" xlink:href="#DejaVuSans-65"/>
    <use x="732.767578" xlink:href="#DejaVuSans-61"/>
    <use x="794.046875" xlink:href="#DejaVuSans-64"/>
    <use x="857.523438" xlink:href="#DejaVuSans-20"/>
    <use x="889.310547" xlink:href="#DejaVuSans-70"/>
    <use x="952.787109" xlink:href="#DejaVuSans-72"/>
    <use x="991.650391" xlink:href="#DejaVuSans-6f"/>
    <use x="1052.832031" xlink:href="#DejaVuSans-6a"/>
    <use x="1080.615234" xlink:href="#DejaVuSans-65"/>
    <use x="1142.138672" xlink:href="#DejaVuSans-63"/>
    <use x="1197.119141" xlink:href="#DejaVuSans-74"/>
    <use x="1236.328125" xlink:href="#DejaVuSans-69"/>
    <use x="1264.111328" xlink:href="#DejaVuSans-6f"/>
    <use x="1325.292969" xlink:href="#DejaVuSans-6e"/>
    <use x="1388.671875" xlink:href="#DejaVuSans-20"/>
    <use x="1420.458984" xlink:href="#DejaVuSans-75"/>
    <use x="1483.837891" xlink:href="#DejaVuSans-73"/>
    <use x="1535.9375" xlink:href="#DejaVuSans-69"/>
    <use x="1563.720703" xlink:href="#DejaVuSans-6e"/>
    <use x="1627.099609" xlink:href="#DejaVuSans-67"/>
    <use x="1690.576172" xlink:href="#DejaVuSans-20"/>
    <use x="1722.363281" xlink:href="#DejaVuSans-4c"/>
    <use x="1776.326172" xlink:href="#DejaVuSans-6f"/>
    <use x="1837.507812" xlink:href="#DejaVuSans-67"/>
    <use x="1900.984375" xlink:href="#DejaVuSans-69"/>
    <use x="1928.767578" xlink:href="#DejaVuSans-73"/>
    <use x="1980.867188" xlink:href="#DejaVuSans-74"/>
    <use x="2020.076172" xlink:href="#DejaVuSans-69"/>
    <use x="2047.859375" xlink:href="#DejaVuSans-63"/>
    <use x="2102.839844" xlink:href="#DejaVuSans-20"/>
    <use x="2134.626953" xlink:href="#DejaVuSans-6d"/>
    <use x="2232.039062" xlink:href="#DejaVuSans-61"/>
    <use x="2293.318359" xlink:href="#DejaVuSans-70"/>
   </g>
   <!-- assuming a carrying capacity of K=83M people and dt=4D tick time. -->
   <g transform="translate(148.644688 29.7555)scale(0.12 -0.12)">
    <defs>
     <path d="M 2375 4863 
L 2375 4384 
L 1825 4384 
Q 1516 4384 1395 4259 
Q 1275 4134 1275 3809 
L 1275 3500 
L 2222 3500 
L 2222 3053 
L 1275 3053 
L 1275 0 
L 697 0 
L 697 3053 
L 147 3053 
L 147 3500 
L 697 3500 
L 697 3744 
Q 697 4328 969 4595 
Q 1241 4863 1831 4863 
L 2375 4863 
z
" id="DejaVuSans-66" transform="scale(0.015625)"/>
     <path d="M 628 4666 
L 1259 4666 
L 1259 2694 
L 3353 4666 
L 4166 4666 
L 1850 2491 
L 4331 0 
L 3500 0 
L 1259 2247 
L 1259 0 
L 628 0 
L 628 4666 
z
" id="DejaVuSans-4b" transform="scale(0.015625)"/>
     <path d="M 678 2906 
L 4684 2906 
L 4684 2381 
L 678 2381 
L 678 2906 
z
M 678 1631 
L 4684 1631 
L 4684 1100 
L 678 1100 
L 678 1631 
z
" id="DejaVuSans-3d" transform="scale(0.015625)"/>
     <path d="M 2034 2216 
Q 1584 2216 1326 1975 
Q 1069 1734 1069 1313 
Q 1069 891 1326 650 
Q 1584 409 2034 409 
Q 2484 409 2743 651 
Q 3003 894 3003 1313 
Q 3003 1734 2745 1975 
Q 2488 2216 2034 2216 
z
M 1403 2484 
Q 997 2584 770 2862 
Q 544 3141 544 3541 
Q 544 4100 942 4425 
Q 1341 4750 2034 4750 
Q 2731 4750 3128 4425 
Q 3525 4100 3525 3541 
Q 3525 3141 3298 2862 
Q 3072 2584 2669 2484 
Q 3125 2378 3379 2068 
Q 3634 1759 3634 1313 
Q 3634 634 3220 271 
Q 2806 -91 2034 -91 
Q 1263 -91 848 271 
Q 434 634 434 1313 
Q 434 1759 690 2068 
Q 947 2378 1403 2484 
z
M 1172 3481 
Q 1172 3119 1398 2916 
Q 1625 2713 2034 2713 
Q 2441 2713 2670 2916 
Q 2900 3119 2900 3481 
Q 2900 3844 2670 4047 
Q 2441 4250 2034 4250 
Q 1625 4250 1398 4047 
Q 1172 3844 1172 3481 
z
" id="DejaVuSans-38" transform="scale(0.015625)"/>
     <path d="M 628 4666 
L 1569 4666 
L 2759 1491 
L 3956 4666 
L 4897 4666 
L 4897 0 
L 4281 0 
L 4281 4097 
L 3078 897 
L 2444 897 
L 1241 4097 
L 1241 0 
L 628 0 
L 628 4666 
z
" id="DejaVuSans-4d" transform="scale(0.015625)"/>
     <path d="M 2419 4116 
L 825 1625 
L 2419 1625 
L 2419 4116 
z
M 2253 4666 
L 3047 4666 
L 3047 1625 
L 3713 1625 
L 3713 1100 
L 3047 1100 
L 3047 0 
L 2419 0 
L 2419 1100 
L 313 1100 
L 313 1709 
L 2253 4666 
z
" id="DejaVuSans-34" transform="scale(0.015625)"/>
     <path d="M 581 4863 
L 1159 4863 
L 1159 1991 
L 2875 3500 
L 3609 3500 
L 1753 1863 
L 3688 0 
L 2938 0 
L 1159 1709 
L 1159 0 
L 581 0 
L 581 4863 
z
" id="DejaVuSans-6b" transform="scale(0.015625)"/>
    </defs>
    <use xlink:href="#DejaVuSans-61"/>
    <use x="61.279297" xlink:href="#DejaVuSans-73"/>
    <use x="113.378906" xlink:href="#DejaVuSans-73"/>
    <use x="165.478516" xlink:href="#DejaVuSans-75"/>
    <use x="228.857422" xlink:href="#DejaVuSans-6d"/>
    <use x="326.269531" xlink:href="#DejaVuSans-69"/>
    <use x="354.052734" xlink:href="#DejaVuSans-6e"/>
    <use x="417.431641" xlink:href="#DejaVuSans-67"/>
    <use x="480.908203" xlink:href="#DejaVuSans-20"/>
    <use x="512.695312" xlink:href="#DejaVuSans-61"/>
    <use x="573.974609" xlink:href="#DejaVuSans-20"/>
    <use x="605.761719" xlink:href="#DejaVuSans-63"/>
    <use x="660.742188" xlink:href="#DejaVuSans-61"/>
    <use x="722.021484" xlink:href="#DejaVuSans-72"/>
    <use x="761.384766" xlink:href="#DejaVuSans-72"/>
    <use x="802.498047" xlink:href="#DejaVuSans-79"/>
    <use x="861.677734" xlink:href="#DejaVuSans-69"/>
    <use x="889.460938" xlink:href="#DejaVuSans-6e"/>
    <use x="952.839844" xlink:href="#DejaVuSans-67"/>
    <use x="1016.316406" xlink:href="#DejaVuSans-20"/>
    <use x="1048.103516" xlink:href="#DejaVuSans-63"/>
    <use x="1103.083984" xlink:href="#DejaVuSans-61"/>
    <use x="1164.363281" xlink:href="#DejaVuSans-70"/>
    <use x="1227.839844" xlink:href="#DejaVuSans-61"/>
    <use x="1289.119141" xlink:href="#DejaVuSans-63"/>
    <use x="1344.099609" xlink:href="#DejaVuSans-69"/>
    <use x="1371.882812" xlink:href="#DejaVuSans-74"/>
    <use x="1411.091797" xlink:href="#DejaVuSans-79"/>
    <use x="1470.271484" xlink:href="#DejaVuSans-20"/>
    <use x="1502.058594" xlink:href="#DejaVuSans-6f"/>
    <use x="1563.240234" xlink:href="#DejaVuSans-66"/>
    <use x="1598.445312" xlink:href="#DejaVuSans-20"/>
    <use x="1630.232422" xlink:href="#DejaVuSans-4b"/>
    <use x="1695.808594" xlink:href="#DejaVuSans-3d"/>
    <use x="1779.597656" xlink:href="#DejaVuSans-38"/>
    <use x="1843.220703" xlink:href="#DejaVuSans-33"/>
    <use x="1906.84375" xlink:href="#DejaVuSans-4d"/>
    <use x="1993.123047" xlink:href="#DejaVuSans-20"/>
    <use x="2024.910156" xlink:href="#DejaVuSans-70"/>
    <use x="2088.386719" xlink:href="#DejaVuSans-65"/>
    <use x="2149.910156" xlink:href="#DejaVuSans-6f"/>
    <use x="2211.091797" xlink:href="#DejaVuSans-70"/>
    <use x="2274.568359" xlink:href="#DejaVuSans-6c"/>
    <use x="2302.351562" xlink:href="#DejaVuSans-65"/>
    <use x="2363.875" xlink:href="#DejaVuSans-20"/>
    <use x="2395.662109" xlink:href="#DejaVuSans-61"/>
    <use x="2456.941406" xlink:href="#DejaVuSans-6e"/>
    <use x="2520.320312" xlink:href="#DejaVuSans-64"/>
    <use x="2583.796875" xlink:href="#DejaVuSans-20"/>
    <use x="2615.583984" xlink:href="#DejaVuSans-64"/>
    <use x="2679.060547" xlink:href="#DejaVuSans-74"/>
    <use x="2718.269531" xlink:href="#DejaVuSans-3d"/>
    <use x="2802.058594" xlink:href="#DejaVuSans-34"/>
    <use x="2865.681641" xlink:href="#DejaVuSans-44"/>
    <use x="2942.683594" xlink:href="#DejaVuSans-20"/>
    <use x="2974.470703" xlink:href="#DejaVuSans-74"/>
    <use x="3013.679688" xlink:href="#DejaVuSans-69"/>
    <use x="3041.462891" xlink:href="#DejaVuSans-63"/>
    <use x="3096.443359" xlink:href="#DejaVuSans-6b"/>
    <use x="3154.353516" xlink:href="#DejaVuSans-20"/>
    <use x="3186.140625" xlink:href="#DejaVuSans-74"/>
    <use x="3225.349609" xlink:href="#DejaVuSans-69"/>
    <use x="3253.132812" xlink:href="#DejaVuSans-6d"/>
    <use x="3350.544922" xlink:href="#DejaVuSans-65"/>
    <use x="3412.068359" xlink:href="#DejaVuSans-2e"/>
   </g>
   <!-- created: 2021-07-02 author: @pschwede, source: JHU CSSE via @entorb &amp; @pomber. -->
   <g transform="translate(98.49875 43.192875)scale(0.12 -0.12)">
    <defs>
     <path d="M 750 794 
L 1409 794 
L 1409 0 
L 750 0 
L 750 794 
z
M 750 3309 
L 1409 3309 
L 1409 2516 
L 750 2516 
L 750 3309 
z
" id="DejaVuSans-3a" transform="scale(0.015625)"/>
     <path d="M 525 4666 
L 3525 4666 
L 3525 4397 
L 1831 0 
L 1172 0 
L 2766 4134 
L 525 4134 
L 525 4666 
z
" id="DejaVuSans-37" transform="scale(0.015625)"/>
     <path d="M 3513 2113 
L 3513 0 
L 2938 0 
L 2938 2094 
Q 2938 2591 2744 2837 
Q 2550 3084 2163 3084 
Q 1697 3084 1428 2787 
Q 1159 2491 1159 1978 
L 1159 0 
L 581 0 
L 581 4863 
L 1159 4863 
L 1159 2956 
Q 1366 3272 1645 3428 
Q 1925 3584 2291 3584 
Q 2894 3584 3203 3211 
Q 3513 2838 3513 2113 
z
" id="DejaVuSans-68" transform="scale(0.015625)"/>
     <path d="M 2381 1678 
Q 2381 1231 2603 976 
Q 2825 722 3213 722 
Q 3597 722 3817 978 
Q 4038 1234 4038 1678 
Q 4038 2116 3813 2373 
Q 3588 2631 3206 2631 
Q 2828 2631 2604 2375 
Q 2381 2119 2381 1678 
z
M 4084 744 
Q 3897 503 3655 389 
Q 3413 275 3091 275 
Q 2553 275 2217 664 
Q 1881 1053 1881 1678 
Q 1881 2303 2218 2693 
Q 2556 3084 3091 3084 
Q 3413 3084 3656 2967 
Q 3900 2850 4084 2613 
L 4084 3022 
L 4531 3022 
L 4531 722 
Q 4988 791 5245 1139 
Q 5503 1488 5503 2041 
Q 5503 2375 5404 2669 
Q 5306 2963 5106 3213 
Q 4781 3622 4314 3839 
Q 3847 4056 3297 4056 
Q 2913 4056 2559 3954 
Q 2206 3853 1906 3653 
Q 1416 3334 1139 2817 
Q 863 2300 863 1697 
Q 863 1200 1042 765 
Q 1222 331 1563 0 
Q 1891 -325 2322 -495 
Q 2753 -666 3244 -666 
Q 3647 -666 4036 -530 
Q 4425 -394 4750 -141 
L 5031 -488 
Q 4641 -791 4180 -952 
Q 3719 -1113 3244 -1113 
Q 2666 -1113 2153 -908 
Q 1641 -703 1241 -313 
Q 841 78 631 592 
Q 422 1106 422 1697 
Q 422 2266 634 2781 
Q 847 3297 1241 3688 
Q 1644 4084 2172 4295 
Q 2700 4506 3291 4506 
Q 3953 4506 4520 4234 
Q 5088 3963 5472 3463 
Q 5706 3156 5829 2797 
Q 5953 2438 5953 2053 
Q 5953 1231 5456 756 
Q 4959 281 4084 263 
L 4084 744 
z
" id="DejaVuSans-40" transform="scale(0.015625)"/>
     <path d="M 269 3500 
L 844 3500 
L 1563 769 
L 2278 3500 
L 2956 3500 
L 3675 769 
L 4391 3500 
L 4966 3500 
L 4050 0 
L 3372 0 
L 2619 2869 
L 1863 0 
L 1184 0 
L 269 3500 
z
" id="DejaVuSans-77" transform="scale(0.015625)"/>
     <path d="M 750 794 
L 1409 794 
L 1409 256 
L 897 -744 
L 494 -744 
L 750 256 
L 750 794 
z
" id="DejaVuSans-2c" transform="scale(0.015625)"/>
     <path d="M 628 4666 
L 1259 4666 
L 1259 2753 
L 3553 2753 
L 3553 4666 
L 4184 4666 
L 4184 0 
L 3553 0 
L 3553 2222 
L 1259 2222 
L 1259 0 
L 628 0 
L 628 4666 
z
" id="DejaVuSans-48" transform="scale(0.015625)"/>
     <path d="M 556 4666 
L 1191 4666 
L 1191 1831 
Q 1191 1081 1462 751 
Q 1734 422 2344 422 
Q 2950 422 3222 751 
Q 3494 1081 3494 1831 
L 3494 4666 
L 4128 4666 
L 4128 1753 
Q 4128 841 3676 375 
Q 3225 -91 2344 -91 
Q 1459 -91 1007 375 
Q 556 841 556 1753 
L 556 4666 
z
" id="DejaVuSans-55" transform="scale(0.015625)"/>
     <path d="M 3425 4513 
L 3425 3897 
Q 3066 4069 2747 4153 
Q 2428 4238 2131 4238 
Q 1616 4238 1336 4038 
Q 1056 3838 1056 3469 
Q 1056 3159 1242 3001 
Q 1428 2844 1947 2747 
L 2328 2669 
Q 3034 2534 3370 2195 
Q 3706 1856 3706 1288 
Q 3706 609 3251 259 
Q 2797 -91 1919 -91 
Q 1588 -91 1214 -16 
Q 841 59 441 206 
L 441 856 
Q 825 641 1194 531 
Q 1563 422 1919 422 
Q 2459 422 2753 634 
Q 3047 847 3047 1241 
Q 3047 1584 2836 1778 
Q 2625 1972 2144 2069 
L 1759 2144 
Q 1053 2284 737 2584 
Q 422 2884 422 3419 
Q 422 4038 858 4394 
Q 1294 4750 2059 4750 
Q 2388 4750 2728 4690 
Q 3069 4631 3425 4513 
z
" id="DejaVuSans-53" transform="scale(0.015625)"/>
     <path d="M 628 4666 
L 3578 4666 
L 3578 4134 
L 1259 4134 
L 1259 2753 
L 3481 2753 
L 3481 2222 
L 1259 2222 
L 1259 531 
L 3634 531 
L 3634 0 
L 628 0 
L 628 4666 
z
" id="DejaVuSans-45" transform="scale(0.015625)"/>
     <path d="M 3116 1747 
Q 3116 2381 2855 2742 
Q 2594 3103 2138 3103 
Q 1681 3103 1420 2742 
Q 1159 2381 1159 1747 
Q 1159 1113 1420 752 
Q 1681 391 2138 391 
Q 2594 391 2855 752 
Q 3116 1113 3116 1747 
z
M 1159 2969 
Q 1341 3281 1617 3432 
Q 1894 3584 2278 3584 
Q 2916 3584 3314 3078 
Q 3713 2572 3713 1747 
Q 3713 922 3314 415 
Q 2916 -91 2278 -91 
Q 1894 -91 1617 61 
Q 1341 213 1159 525 
L 1159 0 
L 581 0 
L 581 4863 
L 1159 4863 
L 1159 2969 
z
" id="DejaVuSans-62" transform="scale(0.015625)"/>
     <path d="M 1556 2509 
Q 1272 2256 1139 2004 
Q 1006 1753 1006 1478 
Q 1006 1022 1337 719 
Q 1669 416 2169 416 
Q 2466 416 2725 514 
Q 2984 613 3213 813 
L 1556 2509 
z
M 1997 2859 
L 3584 1234 
Q 3769 1513 3872 1830 
Q 3975 2147 3994 2503 
L 4575 2503 
Q 4538 2091 4375 1687 
Q 4213 1284 3922 891 
L 4794 0 
L 4006 0 
L 3559 459 
Q 3234 181 2878 45 
Q 2522 -91 2113 -91 
Q 1359 -91 881 339 
Q 403 769 403 1441 
Q 403 1841 612 2192 
Q 822 2544 1241 2853 
Q 1091 3050 1012 3245 
Q 934 3441 934 3628 
Q 934 4134 1281 4442 
Q 1628 4750 2203 4750 
Q 2463 4750 2720 4694 
Q 2978 4638 3244 4525 
L 3244 3956 
Q 2972 4103 2725 4179 
Q 2478 4256 2266 4256 
Q 1938 4256 1733 4082 
Q 1528 3909 1528 3634 
Q 1528 3475 1620 3314 
Q 1713 3153 1997 2859 
z
" id="DejaVuSans-26" transform="scale(0.015625)"/>
    </defs>
    <use xlink:href="#DejaVuSans-63"/>
    <use x="54.980469" xlink:href="#DejaVuSans-72"/>
    <use x="93.84375" xlink:href="#DejaVuSans-65"/>
    <use x="155.367188" xlink:href="#DejaVuSans-61"/>
    <use x="216.646484" xlink:href="#DejaVuSans-74"/>
    <use x="255.855469" xlink:href="#DejaVuSans-65"/>
    <use x="317.378906" xlink:href="#DejaVuSans-64"/>
    <use x="380.855469" xlink:href="#DejaVuSans-3a"/>
    <use x="414.546875" xlink:href="#DejaVuSans-20"/>
    <use x="446.333984" xlink:href="#DejaVuSans-32"/>
    <use x="509.957031" xlink:href="#DejaVuSans-30"/>
    <use x="573.580078" xlink:href="#DejaVuSans-32"/>
    <use x="637.203125" xlink:href="#DejaVuSans-31"/>
    <use x="700.826172" xlink:href="#DejaVuSans-2d"/>
    <use x="736.910156" xlink:href="#DejaVuSans-30"/>
    <use x="800.533203" xlink:href="#DejaVuSans-37"/>
    <use x="864.15625" xlink:href="#DejaVuSans-2d"/>
    <use x="900.240234" xlink:href="#DejaVuSans-30"/>
    <use x="963.863281" xlink:href="#DejaVuSans-32"/>
    <use x="1027.486328" xlink:href="#DejaVuSans-20"/>
    <use x="1059.273438" xlink:href="#DejaVuSans-61"/>
    <use x="1120.552734" xlink:href="#DejaVuSans-75"/>
    <use x="1183.931641" xlink:href="#DejaVuSans-74"/>
    <use x="1223.140625" xlink:href="#DejaVuSans-68"/>
    <use x="1286.519531" xlink:href="#DejaVuSans-6f"/>
    <use x="1347.701172" xlink:href="#DejaVuSans-72"/>
    <use x="1387.064453" xlink:href="#DejaVuSans-3a"/>
    <use x="1420.755859" xlink:href="#DejaVuSans-20"/>
    <use x="1452.542969" xlink:href="#DejaVuSans-40"/>
    <use x="1552.542969" xlink:href="#DejaVuSans-70"/>
    <use x="1616.019531" xlink:href="#DejaVuSans-73"/>
    <use x="1668.119141" xlink:href="#DejaVuSans-63"/>
    <use x="1723.099609" xlink:href="#DejaVuSans-68"/>
    <use x="1786.478516" xlink:href="#DejaVuSans-77"/>
    <use x="1868.265625" xlink:href="#DejaVuSans-65"/>
    <use x="1929.789062" xlink:href="#DejaVuSans-64"/>
    <use x="1993.265625" xlink:href="#DejaVuSans-65"/>
    <use x="2054.789062" xlink:href="#DejaVuSans-2c"/>
    <use x="2086.576172" xlink:href="#DejaVuSans-20"/>
    <use x="2118.363281" xlink:href="#DejaVuSans-73"/>
    <use x="2170.462891" xlink:href="#DejaVuSans-6f"/>
    <use x="2231.644531" xlink:href="#DejaVuSans-75"/>
    <use x="2295.023438" xlink:href="#DejaVuSans-72"/>
    <use x="2333.886719" xlink:href="#DejaVuSans-63"/>
    <use x="2388.867188" xlink:href="#DejaVuSans-65"/>
    <use x="2450.390625" xlink:href="#DejaVuSans-3a"/>
    <use x="2484.082031" xlink:href="#DejaVuSans-20"/>
    <use x="2515.869141" xlink:href="#DejaVuSans-4a"/>
    <use x="2545.361328" xlink:href="#DejaVuSans-48"/>
    <use x="2620.556641" xlink:href="#DejaVuSans-55"/>
    <use x="2693.75" xlink:href="#DejaVuSans-20"/>
    <use x="2725.537109" xlink:href="#DejaVuSans-43"/>
    <use x="2795.361328" xlink:href="#DejaVuSans-53"/>
    <use x="2858.837891" xlink:href="#DejaVuSans-53"/>
    <use x="2922.314453" xlink:href="#DejaVuSans-45"/>
    <use x="2985.498047" xlink:href="#DejaVuSans-20"/>
    <use x="3017.285156" xlink:href="#DejaVuSans-76"/>
    <use x="3076.464844" xlink:href="#DejaVuSans-69"/>
    <use x="3104.248047" xlink:href="#DejaVuSans-61"/>
    <use x="3165.527344" xlink:href="#DejaVuSans-20"/>
    <use x="3197.314453" xlink:href="#DejaVuSans-40"/>
    <use x="3297.314453" xlink:href="#DejaVuSans-65"/>
    <use x="3358.837891" xlink:href="#DejaVuSans-6e"/>
    <use x="3422.216797" xlink:href="#DejaVuSans-74"/>
    <use x="3461.425781" xlink:href="#DejaVuSans-6f"/>
    <use x="3522.607422" xlink:href="#DejaVuSans-72"/>
    <use x="3563.720703" xlink:href="#DejaVuSans-62"/>
    <use x="3627.197266" xlink:href="#DejaVuSans-20"/>
    <use x="3658.984375" xlink:href="#DejaVuSans-26"/>
    <use x="3736.962891" xlink:href="#DejaVuSans-20"/>
    <use x="3768.75" xlink:href="#DejaVuSans-40"/>
    <use x="3868.75" xlink:href="#DejaVuSans-70"/>
    <use x="3932.226562" xlink:href="#DejaVuSans-6f"/>
    <use x="3993.408203" xlink:href="#DejaVuSans-6d"/>
    <use x="4090.820312" xlink:href="#DejaVuSans-62"/>
    <use x="4154.296875" xlink:href="#DejaVuSans-65"/>
    <use x="4215.820312" xlink:href="#DejaVuSans-72"/>
    <use x="4247.808594" xlink:href="#DejaVuSans-2e"/>
   </g>
  </g>
 </g>
 <defs>
  <clipPath id="p258077f61b">
   <rect height="198.960412" width="636.865" x="61.62625" y="102.072"/>
  </clipPath>
  <clipPath id="p8d4323f924">
   <rect height="198.960412" width="636.865" x="61.62625" y="313.679588"/>
  </clipPath>
 </defs>
</svg>
