<?xml version="1.0" encoding="utf-8" standalone="no"?>
<!DOCTYPE svg PUBLIC "-//W3C//DTD SVG 1.1//EN"
  "http://www.w3.org/Graphics/SVG/1.1/DTD/svg11.dtd">
<svg height="573.257842pt" version="1.1" viewBox="0 0 711.67625 573.257842" width="711.67625pt" xmlns="http://www.w3.org/2000/svg" xmlns:xlink="http://www.w3.org/1999/xlink">
 <metadata>
  <rdf:RDF xmlns:cc="http://creativecommons.org/ns#" xmlns:dc="http://purl.org/dc/elements/1.1/" xmlns:rdf="http://www.w3.org/1999/02/22-rdf-syntax-ns#">
   <cc:Work>
    <dc:type rdf:resource="http://purl.org/dc/dcmitype/StillImage"/>
    <dc:date>2021-05-23T13:02:41.215081</dc:date>
    <dc:format>image/svg+xml</dc:format>
    <dc:creator>
     <cc:Agent>
      <dc:title>Matplotlib v3.4.2, https://matplotlib.org/</dc:title>
     </cc:Agent>
    </dc:creator>
   </cc:Work>
  </rdf:RDF>
 </metadata>
 <defs>
  <style type="text/css">*{stroke-linecap:butt;stroke-linejoin:round;}</style>
 </defs>
 <g id="figure_1">
  <g id="patch_1">
   <path d="M 0 573.257842 
L 711.67625 573.257842 
L 711.67625 0 
L 0 0 
z
" style="fill:#ffffff;"/>
  </g>
  <g id="axes_1">
   <g id="patch_2">
    <path d="M 61.62625 301.032412 
L 704.47625 301.032412 
L 704.47625 102.072 
L 61.62625 102.072 
z
" style="fill:#e5e5e5;"/>
   </g>
   <g id="matplotlib.axis_1">
    <g id="xtick_1">
     <g id="line2d_1">
      <defs>
       <path d="M 0 0 
L 0 3.5 
" id="m4f20274bdb" style="stroke:#555555;stroke-width:0.8;"/>
      </defs>
      <g>
       <use style="fill:#555555;stroke:#555555;stroke-width:0.8;" x="61.62625" xlink:href="#m4f20274bdb" y="301.032412"/>
      </g>
     </g>
    </g>
    <g id="xtick_2">
     <g id="line2d_2">
      <g>
       <use style="fill:#555555;stroke:#555555;stroke-width:0.8;" x="87.687736" xlink:href="#m4f20274bdb" y="301.032412"/>
      </g>
     </g>
    </g>
    <g id="xtick_3">
     <g id="line2d_3">
      <g>
       <use style="fill:#555555;stroke:#555555;stroke-width:0.8;" x="159.55426" xlink:href="#m4f20274bdb" y="301.032412"/>
      </g>
     </g>
    </g>
    <g id="xtick_4">
     <g id="line2d_4">
      <g>
       <use style="fill:#555555;stroke:#555555;stroke-width:0.8;" x="232.210525" xlink:href="#m4f20274bdb" y="301.032412"/>
      </g>
     </g>
    </g>
    <g id="xtick_5">
     <g id="line2d_5">
      <g>
       <use style="fill:#555555;stroke:#555555;stroke-width:0.8;" x="304.866791" xlink:href="#m4f20274bdb" y="301.032412"/>
      </g>
     </g>
    </g>
    <g id="xtick_6">
     <g id="line2d_6">
      <g>
       <use style="fill:#555555;stroke:#555555;stroke-width:0.8;" x="375.943572" xlink:href="#m4f20274bdb" y="301.032412"/>
      </g>
     </g>
    </g>
    <g id="xtick_7">
     <g id="line2d_7">
      <g>
       <use style="fill:#555555;stroke:#555555;stroke-width:0.8;" x="447.810095" xlink:href="#m4f20274bdb" y="301.032412"/>
      </g>
     </g>
    </g>
    <g id="xtick_8">
     <g id="line2d_8">
      <g>
       <use style="fill:#555555;stroke:#555555;stroke-width:0.8;" x="520.466361" xlink:href="#m4f20274bdb" y="301.032412"/>
      </g>
     </g>
    </g>
    <g id="xtick_9">
     <g id="line2d_9">
      <g>
       <use style="fill:#555555;stroke:#555555;stroke-width:0.8;" x="593.122626" xlink:href="#m4f20274bdb" y="301.032412"/>
      </g>
     </g>
    </g>
    <g id="xtick_10">
     <g id="line2d_10">
      <g>
       <use style="fill:#555555;stroke:#555555;stroke-width:0.8;" x="664.199407" xlink:href="#m4f20274bdb" y="301.032412"/>
      </g>
     </g>
    </g>
    <g id="xtick_11">
     <g id="line2d_11">
      <g>
       <use style="fill:#555555;stroke:#555555;stroke-width:0.8;" x="704.47625" xlink:href="#m4f20274bdb" y="301.032412"/>
      </g>
     </g>
    </g>
    <g id="xtick_12">
     <g id="line2d_12">
      <defs>
       <path d="M 0 0 
L 0 2 
" id="m0351392fa9" style="stroke:#555555;stroke-width:0.6;"/>
      </defs>
      <g>
       <use style="fill:#555555;stroke:#555555;stroke-width:0.6;" x="63.205734" xlink:href="#m0351392fa9" y="301.032412"/>
      </g>
     </g>
    </g>
    <g id="xtick_13">
     <g id="line2d_13">
      <g>
       <use style="fill:#555555;stroke:#555555;stroke-width:0.6;" x="111.379997" xlink:href="#m0351392fa9" y="301.032412"/>
      </g>
     </g>
    </g>
    <g id="xtick_14">
     <g id="line2d_14">
      <g>
       <use style="fill:#555555;stroke:#555555;stroke-width:0.6;" x="135.861999" xlink:href="#m0351392fa9" y="301.032412"/>
      </g>
     </g>
    </g>
    <g id="xtick_15">
     <g id="line2d_15">
      <g>
       <use style="fill:#555555;stroke:#555555;stroke-width:0.6;" x="184.036262" xlink:href="#m0351392fa9" y="301.032412"/>
      </g>
     </g>
    </g>
    <g id="xtick_16">
     <g id="line2d_16">
      <g>
       <use style="fill:#555555;stroke:#555555;stroke-width:0.6;" x="208.518265" xlink:href="#m0351392fa9" y="301.032412"/>
      </g>
     </g>
    </g>
    <g id="xtick_17">
     <g id="line2d_17">
      <g>
       <use style="fill:#555555;stroke:#555555;stroke-width:0.6;" x="256.692528" xlink:href="#m0351392fa9" y="301.032412"/>
      </g>
     </g>
    </g>
    <g id="xtick_18">
     <g id="line2d_18">
      <g>
       <use style="fill:#555555;stroke:#555555;stroke-width:0.6;" x="280.384788" xlink:href="#m0351392fa9" y="301.032412"/>
      </g>
     </g>
    </g>
    <g id="xtick_19">
     <g id="line2d_19">
      <g>
       <use style="fill:#555555;stroke:#555555;stroke-width:0.6;" x="329.348793" xlink:href="#m0351392fa9" y="301.032412"/>
      </g>
     </g>
    </g>
    <g id="xtick_20">
     <g id="line2d_20">
      <g>
       <use style="fill:#555555;stroke:#555555;stroke-width:0.6;" x="351.461569" xlink:href="#m0351392fa9" y="301.032412"/>
      </g>
     </g>
    </g>
    <g id="xtick_21">
     <g id="line2d_21">
      <g>
       <use style="fill:#555555;stroke:#555555;stroke-width:0.6;" x="399.635832" xlink:href="#m0351392fa9" y="301.032412"/>
      </g>
     </g>
    </g>
    <g id="xtick_22">
     <g id="line2d_22">
      <g>
       <use style="fill:#555555;stroke:#555555;stroke-width:0.6;" x="424.117835" xlink:href="#m0351392fa9" y="301.032412"/>
      </g>
     </g>
    </g>
    <g id="xtick_23">
     <g id="line2d_23">
      <g>
       <use style="fill:#555555;stroke:#555555;stroke-width:0.6;" x="472.292098" xlink:href="#m0351392fa9" y="301.032412"/>
      </g>
     </g>
    </g>
    <g id="xtick_24">
     <g id="line2d_24">
      <g>
       <use style="fill:#555555;stroke:#555555;stroke-width:0.6;" x="496.7741" xlink:href="#m0351392fa9" y="301.032412"/>
      </g>
     </g>
    </g>
    <g id="xtick_25">
     <g id="line2d_25">
      <g>
       <use style="fill:#555555;stroke:#555555;stroke-width:0.6;" x="544.948363" xlink:href="#m0351392fa9" y="301.032412"/>
      </g>
     </g>
    </g>
    <g id="xtick_26">
     <g id="line2d_26">
      <g>
       <use style="fill:#555555;stroke:#555555;stroke-width:0.6;" x="568.640623" xlink:href="#m0351392fa9" y="301.032412"/>
      </g>
     </g>
    </g>
    <g id="xtick_27">
     <g id="line2d_27">
      <g>
       <use style="fill:#555555;stroke:#555555;stroke-width:0.6;" x="617.604628" xlink:href="#m0351392fa9" y="301.032412"/>
      </g>
     </g>
    </g>
    <g id="xtick_28">
     <g id="line2d_28">
      <g>
       <use style="fill:#555555;stroke:#555555;stroke-width:0.6;" x="639.717405" xlink:href="#m0351392fa9" y="301.032412"/>
      </g>
     </g>
    </g>
    <g id="xtick_29">
     <g id="line2d_29">
      <g>
       <use style="fill:#555555;stroke:#555555;stroke-width:0.6;" x="687.891668" xlink:href="#m0351392fa9" y="301.032412"/>
      </g>
     </g>
    </g>
   </g>
   <g id="matplotlib.axis_2">
    <g id="ytick_1">
     <g id="line2d_30">
      <defs>
       <path d="M 0 0 
L -3.5 0 
" id="maff01ef869" style="stroke:#555555;stroke-width:0.8;"/>
      </defs>
      <g>
       <use style="fill:#555555;stroke:#555555;stroke-width:0.8;" x="61.62625" xlink:href="#maff01ef869" y="291.991281"/>
      </g>
     </g>
     <g id="text_1">
      <!-- 0.0 -->
      <g style="fill:#555555;" transform="translate(38.723125 295.790499)scale(0.1 -0.1)">
       <defs>
        <path d="M 2034 4250 
Q 1547 4250 1301 3770 
Q 1056 3291 1056 2328 
Q 1056 1369 1301 889 
Q 1547 409 2034 409 
Q 2525 409 2770 889 
Q 3016 1369 3016 2328 
Q 3016 3291 2770 3770 
Q 2525 4250 2034 4250 
z
M 2034 4750 
Q 2819 4750 3233 4129 
Q 3647 3509 3647 2328 
Q 3647 1150 3233 529 
Q 2819 -91 2034 -91 
Q 1250 -91 836 529 
Q 422 1150 422 2328 
Q 422 3509 836 4129 
Q 1250 4750 2034 4750 
z
" id="DejaVuSans-30" transform="scale(0.015625)"/>
        <path d="M 684 794 
L 1344 794 
L 1344 0 
L 684 0 
L 684 794 
z
" id="DejaVuSans-2e" transform="scale(0.015625)"/>
       </defs>
       <use xlink:href="#DejaVuSans-30"/>
       <use x="63.623047" xlink:href="#DejaVuSans-2e"/>
       <use x="95.410156" xlink:href="#DejaVuSans-30"/>
      </g>
     </g>
    </g>
    <g id="ytick_2">
     <g id="line2d_31">
      <g>
       <use style="fill:#555555;stroke:#555555;stroke-width:0.8;" x="61.62625" xlink:href="#maff01ef869" y="268.185153"/>
      </g>
     </g>
     <g id="text_2">
      <!-- 0.5 -->
      <g style="fill:#555555;" transform="translate(38.723125 271.984372)scale(0.1 -0.1)">
       <defs>
        <path d="M 691 4666 
L 3169 4666 
L 3169 4134 
L 1269 4134 
L 1269 2991 
Q 1406 3038 1543 3061 
Q 1681 3084 1819 3084 
Q 2600 3084 3056 2656 
Q 3513 2228 3513 1497 
Q 3513 744 3044 326 
Q 2575 -91 1722 -91 
Q 1428 -91 1123 -41 
Q 819 9 494 109 
L 494 744 
Q 775 591 1075 516 
Q 1375 441 1709 441 
Q 2250 441 2565 725 
Q 2881 1009 2881 1497 
Q 2881 1984 2565 2268 
Q 2250 2553 1709 2553 
Q 1456 2553 1204 2497 
Q 953 2441 691 2322 
L 691 4666 
z
" id="DejaVuSans-35" transform="scale(0.015625)"/>
       </defs>
       <use xlink:href="#DejaVuSans-30"/>
       <use x="63.623047" xlink:href="#DejaVuSans-2e"/>
       <use x="95.410156" xlink:href="#DejaVuSans-35"/>
      </g>
     </g>
    </g>
    <g id="ytick_3">
     <g id="line2d_32">
      <g>
       <use style="fill:#555555;stroke:#555555;stroke-width:0.8;" x="61.62625" xlink:href="#maff01ef869" y="244.379026"/>
      </g>
     </g>
     <g id="text_3">
      <!-- 1.0 -->
      <g style="fill:#555555;" transform="translate(38.723125 248.178245)scale(0.1 -0.1)">
       <defs>
        <path d="M 794 531 
L 1825 531 
L 1825 4091 
L 703 3866 
L 703 4441 
L 1819 4666 
L 2450 4666 
L 2450 531 
L 3481 531 
L 3481 0 
L 794 0 
L 794 531 
z
" id="DejaVuSans-31" transform="scale(0.015625)"/>
       </defs>
       <use xlink:href="#DejaVuSans-31"/>
       <use x="63.623047" xlink:href="#DejaVuSans-2e"/>
       <use x="95.410156" xlink:href="#DejaVuSans-30"/>
      </g>
     </g>
    </g>
    <g id="ytick_4">
     <g id="line2d_33">
      <g>
       <use style="fill:#555555;stroke:#555555;stroke-width:0.8;" x="61.62625" xlink:href="#maff01ef869" y="220.572899"/>
      </g>
     </g>
     <g id="text_4">
      <!-- 1.5 -->
      <g style="fill:#555555;" transform="translate(38.723125 224.372118)scale(0.1 -0.1)">
       <use xlink:href="#DejaVuSans-31"/>
       <use x="63.623047" xlink:href="#DejaVuSans-2e"/>
       <use x="95.410156" xlink:href="#DejaVuSans-35"/>
      </g>
     </g>
    </g>
    <g id="ytick_5">
     <g id="line2d_34">
      <g>
       <use style="fill:#555555;stroke:#555555;stroke-width:0.8;" x="61.62625" xlink:href="#maff01ef869" y="196.766772"/>
      </g>
     </g>
     <g id="text_5">
      <!-- 2.0 -->
      <g style="fill:#555555;" transform="translate(38.723125 200.56599)scale(0.1 -0.1)">
       <defs>
        <path d="M 1228 531 
L 3431 531 
L 3431 0 
L 469 0 
L 469 531 
Q 828 903 1448 1529 
Q 2069 2156 2228 2338 
Q 2531 2678 2651 2914 
Q 2772 3150 2772 3378 
Q 2772 3750 2511 3984 
Q 2250 4219 1831 4219 
Q 1534 4219 1204 4116 
Q 875 4013 500 3803 
L 500 4441 
Q 881 4594 1212 4672 
Q 1544 4750 1819 4750 
Q 2544 4750 2975 4387 
Q 3406 4025 3406 3419 
Q 3406 3131 3298 2873 
Q 3191 2616 2906 2266 
Q 2828 2175 2409 1742 
Q 1991 1309 1228 531 
z
" id="DejaVuSans-32" transform="scale(0.015625)"/>
       </defs>
       <use xlink:href="#DejaVuSans-32"/>
       <use x="63.623047" xlink:href="#DejaVuSans-2e"/>
       <use x="95.410156" xlink:href="#DejaVuSans-30"/>
      </g>
     </g>
    </g>
    <g id="ytick_6">
     <g id="line2d_35">
      <g>
       <use style="fill:#555555;stroke:#555555;stroke-width:0.8;" x="61.62625" xlink:href="#maff01ef869" y="172.960644"/>
      </g>
     </g>
     <g id="text_6">
      <!-- 2.5 -->
      <g style="fill:#555555;" transform="translate(38.723125 176.759863)scale(0.1 -0.1)">
       <use xlink:href="#DejaVuSans-32"/>
       <use x="63.623047" xlink:href="#DejaVuSans-2e"/>
       <use x="95.410156" xlink:href="#DejaVuSans-35"/>
      </g>
     </g>
    </g>
    <g id="ytick_7">
     <g id="line2d_36">
      <g>
       <use style="fill:#555555;stroke:#555555;stroke-width:0.8;" x="61.62625" xlink:href="#maff01ef869" y="149.154517"/>
      </g>
     </g>
     <g id="text_7">
      <!-- 3.0 -->
      <g style="fill:#555555;" transform="translate(38.723125 152.953736)scale(0.1 -0.1)">
       <defs>
        <path d="M 2597 2516 
Q 3050 2419 3304 2112 
Q 3559 1806 3559 1356 
Q 3559 666 3084 287 
Q 2609 -91 1734 -91 
Q 1441 -91 1130 -33 
Q 819 25 488 141 
L 488 750 
Q 750 597 1062 519 
Q 1375 441 1716 441 
Q 2309 441 2620 675 
Q 2931 909 2931 1356 
Q 2931 1769 2642 2001 
Q 2353 2234 1838 2234 
L 1294 2234 
L 1294 2753 
L 1863 2753 
Q 2328 2753 2575 2939 
Q 2822 3125 2822 3475 
Q 2822 3834 2567 4026 
Q 2313 4219 1838 4219 
Q 1578 4219 1281 4162 
Q 984 4106 628 3988 
L 628 4550 
Q 988 4650 1302 4700 
Q 1616 4750 1894 4750 
Q 2613 4750 3031 4423 
Q 3450 4097 3450 3541 
Q 3450 3153 3228 2886 
Q 3006 2619 2597 2516 
z
" id="DejaVuSans-33" transform="scale(0.015625)"/>
       </defs>
       <use xlink:href="#DejaVuSans-33"/>
       <use x="63.623047" xlink:href="#DejaVuSans-2e"/>
       <use x="95.410156" xlink:href="#DejaVuSans-30"/>
      </g>
     </g>
    </g>
    <g id="ytick_8">
     <g id="line2d_37">
      <g>
       <use style="fill:#555555;stroke:#555555;stroke-width:0.8;" x="61.62625" xlink:href="#maff01ef869" y="125.34839"/>
      </g>
     </g>
     <g id="text_8">
      <!-- 3.5 -->
      <g style="fill:#555555;" transform="translate(38.723125 129.147609)scale(0.1 -0.1)">
       <use xlink:href="#DejaVuSans-33"/>
       <use x="63.623047" xlink:href="#DejaVuSans-2e"/>
       <use x="95.410156" xlink:href="#DejaVuSans-35"/>
      </g>
     </g>
    </g>
    <g id="text_9">
     <!-- Total -->
     <g style="fill:#555555;" transform="translate(32.2275 215.564081)rotate(-90)scale(0.12 -0.12)">
      <defs>
       <path d="M -19 4666 
L 3928 4666 
L 3928 4134 
L 2272 4134 
L 2272 0 
L 1638 0 
L 1638 4134 
L -19 4134 
L -19 4666 
z
" id="DejaVuSans-54" transform="scale(0.015625)"/>
       <path d="M 1959 3097 
Q 1497 3097 1228 2736 
Q 959 2375 959 1747 
Q 959 1119 1226 758 
Q 1494 397 1959 397 
Q 2419 397 2687 759 
Q 2956 1122 2956 1747 
Q 2956 2369 2687 2733 
Q 2419 3097 1959 3097 
z
M 1959 3584 
Q 2709 3584 3137 3096 
Q 3566 2609 3566 1747 
Q 3566 888 3137 398 
Q 2709 -91 1959 -91 
Q 1206 -91 779 398 
Q 353 888 353 1747 
Q 353 2609 779 3096 
Q 1206 3584 1959 3584 
z
" id="DejaVuSans-6f" transform="scale(0.015625)"/>
       <path d="M 1172 4494 
L 1172 3500 
L 2356 3500 
L 2356 3053 
L 1172 3053 
L 1172 1153 
Q 1172 725 1289 603 
Q 1406 481 1766 481 
L 2356 481 
L 2356 0 
L 1766 0 
Q 1100 0 847 248 
Q 594 497 594 1153 
L 594 3053 
L 172 3053 
L 172 3500 
L 594 3500 
L 594 4494 
L 1172 4494 
z
" id="DejaVuSans-74" transform="scale(0.015625)"/>
       <path d="M 2194 1759 
Q 1497 1759 1228 1600 
Q 959 1441 959 1056 
Q 959 750 1161 570 
Q 1363 391 1709 391 
Q 2188 391 2477 730 
Q 2766 1069 2766 1631 
L 2766 1759 
L 2194 1759 
z
M 3341 1997 
L 3341 0 
L 2766 0 
L 2766 531 
Q 2569 213 2275 61 
Q 1981 -91 1556 -91 
Q 1019 -91 701 211 
Q 384 513 384 1019 
Q 384 1609 779 1909 
Q 1175 2209 1959 2209 
L 2766 2209 
L 2766 2266 
Q 2766 2663 2505 2880 
Q 2244 3097 1772 3097 
Q 1472 3097 1187 3025 
Q 903 2953 641 2809 
L 641 3341 
Q 956 3463 1253 3523 
Q 1550 3584 1831 3584 
Q 2591 3584 2966 3190 
Q 3341 2797 3341 1997 
z
" id="DejaVuSans-61" transform="scale(0.015625)"/>
       <path d="M 603 4863 
L 1178 4863 
L 1178 0 
L 603 0 
L 603 4863 
z
" id="DejaVuSans-6c" transform="scale(0.015625)"/>
      </defs>
      <use xlink:href="#DejaVuSans-54"/>
      <use x="44.083984" xlink:href="#DejaVuSans-6f"/>
      <use x="105.265625" xlink:href="#DejaVuSans-74"/>
      <use x="144.474609" xlink:href="#DejaVuSans-61"/>
      <use x="205.753906" xlink:href="#DejaVuSans-6c"/>
     </g>
    </g>
    <g id="text_10">
     <!-- 1e6 -->
     <g style="fill:#555555;" transform="translate(61.62625 99.072)scale(0.1 -0.1)">
      <defs>
       <path d="M 3597 1894 
L 3597 1613 
L 953 1613 
Q 991 1019 1311 708 
Q 1631 397 2203 397 
Q 2534 397 2845 478 
Q 3156 559 3463 722 
L 3463 178 
Q 3153 47 2828 -22 
Q 2503 -91 2169 -91 
Q 1331 -91 842 396 
Q 353 884 353 1716 
Q 353 2575 817 3079 
Q 1281 3584 2069 3584 
Q 2775 3584 3186 3129 
Q 3597 2675 3597 1894 
z
M 3022 2063 
Q 3016 2534 2758 2815 
Q 2500 3097 2075 3097 
Q 1594 3097 1305 2825 
Q 1016 2553 972 2059 
L 3022 2063 
z
" id="DejaVuSans-65" transform="scale(0.015625)"/>
       <path d="M 2113 2584 
Q 1688 2584 1439 2293 
Q 1191 2003 1191 1497 
Q 1191 994 1439 701 
Q 1688 409 2113 409 
Q 2538 409 2786 701 
Q 3034 994 3034 1497 
Q 3034 2003 2786 2293 
Q 2538 2584 2113 2584 
z
M 3366 4563 
L 3366 3988 
Q 3128 4100 2886 4159 
Q 2644 4219 2406 4219 
Q 1781 4219 1451 3797 
Q 1122 3375 1075 2522 
Q 1259 2794 1537 2939 
Q 1816 3084 2150 3084 
Q 2853 3084 3261 2657 
Q 3669 2231 3669 1497 
Q 3669 778 3244 343 
Q 2819 -91 2113 -91 
Q 1303 -91 875 529 
Q 447 1150 447 2328 
Q 447 3434 972 4092 
Q 1497 4750 2381 4750 
Q 2619 4750 2861 4703 
Q 3103 4656 3366 4563 
z
" id="DejaVuSans-36" transform="scale(0.015625)"/>
      </defs>
      <use xlink:href="#DejaVuSans-31"/>
      <use x="63.623047" xlink:href="#DejaVuSans-65"/>
      <use x="125.146484" xlink:href="#DejaVuSans-36"/>
     </g>
    </g>
   </g>
   <g id="line2d_38">
    <path clip-path="url(#p81ca602144)" d="M 61.62625 291.988757 
L 73.47238 291.895172 
L 77.42109 291.691595 
L 80.580058 291.322981 
L 83.739026 290.659974 
L 88.477479 289.246665 
L 95.585157 287.033192 
L 99.533867 286.156671 
L 105.851803 285.14472 
L 111.379997 284.538868 
L 118.487675 284.080831 
L 128.754321 283.610959 
L 142.969678 283.235462 
L 179.29781 282.30048 
L 190.354198 281.84162 
L 199.041361 281.294528 
L 221.943879 279.494302 
L 233.000267 278.286032 
L 238.528461 277.497008 
L 242.477171 276.643688 
L 245.636139 275.684015 
L 248.005365 274.793945 
L 250.374592 273.656842 
L 252.743818 272.195268 
L 255.113044 270.366658 
L 258.272012 267.491137 
L 261.43098 264.273541 
L 266.959174 258.149415 
L 272.487368 252.00453 
L 281.964272 241.725956 
L 285.912982 237.386738 
L 289.07195 233.591395 
L 292.230918 229.392464 
L 295.389886 224.795616 
L 300.128338 217.739106 
L 302.497564 214.864843 
L 307.236017 209.616374 
L 311.184727 205.399948 
L 316.712921 198.698421 
L 319.871889 195.451374 
L 323.030857 192.59753 
L 325.400083 190.622764 
L 327.769309 188.857655 
L 331.718019 186.19528 
L 334.876987 184.314576 
L 338.035955 182.685822 
L 343.564149 180.268704 
L 349.092343 177.766966 
L 357.779506 173.49531 
L 360.938474 171.800307 
L 364.097442 169.842926 
L 366.466668 168.138285 
L 370.415378 164.929906 
L 372.784604 162.703489 
L 380.682024 154.923041 
L 383.05125 152.840638 
L 385.420476 150.445966 
L 387.789702 147.595229 
L 400.425574 132.16118 
L 403.584542 128.861481 
L 406.74351 125.989047 
L 409.112736 124.024729 
L 411.481963 122.423474 
L 414.640931 120.602149 
L 417.010157 119.439349 
L 417.010157 119.439349 
" style="fill:none;stroke:#e24a33;stroke-linecap:square;stroke-width:1.5;"/>
   </g>
   <g id="line2d_39">
    <path clip-path="url(#p81ca602144)" d="M 417.010157 119.439349 
L 420.169125 118.021354 
L 423.328093 116.836527 
L 427.276803 115.629466 
L 431.225513 114.671662 
L 435.963965 113.78241 
L 440.702417 113.112904 
L 446.230611 112.539364 
L 453.338289 112.035698 
L 462.025451 111.654497 
L 473.871582 111.375082 
L 492.035648 111.20011 
L 528.363781 111.124591 
L 704.47625 111.115655 
L 704.47625 111.115655 
" style="fill:none;stroke:#348abd;stroke-linecap:square;stroke-width:1.5;"/>
   </g>
   <g id="patch_3">
    <path d="M 61.62625 301.032412 
L 61.62625 102.072 
" style="fill:none;stroke:#ffffff;stroke-linecap:square;stroke-linejoin:miter;"/>
   </g>
   <g id="patch_4">
    <path d="M 704.47625 301.032412 
L 704.47625 102.072 
" style="fill:none;stroke:#ffffff;stroke-linecap:square;stroke-linejoin:miter;"/>
   </g>
   <g id="patch_5">
    <path d="M 61.62625 301.032412 
L 704.47625 301.032412 
" style="fill:none;stroke:#ffffff;stroke-linecap:square;stroke-linejoin:miter;"/>
   </g>
   <g id="patch_6">
    <path d="M 61.62625 102.072 
L 704.47625 102.072 
" style="fill:none;stroke:#ffffff;stroke-linecap:square;stroke-linejoin:miter;"/>
   </g>
  </g>
  <g id="axes_2">
   <g id="patch_7">
    <path d="M 61.62625 512.64 
L 704.47625 512.64 
L 704.47625 313.679588 
L 61.62625 313.679588 
z
" style="fill:#e5e5e5;"/>
   </g>
   <g id="matplotlib.axis_3">
    <g id="xtick_30">
     <g id="line2d_40">
      <g>
       <use style="fill:#555555;stroke:#555555;stroke-width:0.8;" x="61.62625" xlink:href="#m4f20274bdb" y="512.64"/>
      </g>
     </g>
    </g>
    <g id="xtick_31">
     <g id="line2d_41">
      <g>
       <use style="fill:#555555;stroke:#555555;stroke-width:0.8;" x="87.687736" xlink:href="#m4f20274bdb" y="512.64"/>
      </g>
     </g>
     <g id="text_11">
      <!-- Apr -->
      <g style="fill:#555555;" transform="translate(71.665653 534.87044)rotate(-30)scale(0.1 -0.1)">
       <defs>
        <path d="M 2188 4044 
L 1331 1722 
L 3047 1722 
L 2188 4044 
z
M 1831 4666 
L 2547 4666 
L 4325 0 
L 3669 0 
L 3244 1197 
L 1141 1197 
L 716 0 
L 50 0 
L 1831 4666 
z
" id="DejaVuSans-41" transform="scale(0.015625)"/>
        <path d="M 1159 525 
L 1159 -1331 
L 581 -1331 
L 581 3500 
L 1159 3500 
L 1159 2969 
Q 1341 3281 1617 3432 
Q 1894 3584 2278 3584 
Q 2916 3584 3314 3078 
Q 3713 2572 3713 1747 
Q 3713 922 3314 415 
Q 2916 -91 2278 -91 
Q 1894 -91 1617 61 
Q 1341 213 1159 525 
z
M 3116 1747 
Q 3116 2381 2855 2742 
Q 2594 3103 2138 3103 
Q 1681 3103 1420 2742 
Q 1159 2381 1159 1747 
Q 1159 1113 1420 752 
Q 1681 391 2138 391 
Q 2594 391 2855 752 
Q 3116 1113 3116 1747 
z
" id="DejaVuSans-70" transform="scale(0.015625)"/>
        <path d="M 2631 2963 
Q 2534 3019 2420 3045 
Q 2306 3072 2169 3072 
Q 1681 3072 1420 2755 
Q 1159 2438 1159 1844 
L 1159 0 
L 581 0 
L 581 3500 
L 1159 3500 
L 1159 2956 
Q 1341 3275 1631 3429 
Q 1922 3584 2338 3584 
Q 2397 3584 2469 3576 
Q 2541 3569 2628 3553 
L 2631 2963 
z
" id="DejaVuSans-72" transform="scale(0.015625)"/>
       </defs>
       <use xlink:href="#DejaVuSans-41"/>
       <use x="68.408203" xlink:href="#DejaVuSans-70"/>
       <use x="131.884766" xlink:href="#DejaVuSans-72"/>
      </g>
     </g>
    </g>
    <g id="xtick_32">
     <g id="line2d_42">
      <g>
       <use style="fill:#555555;stroke:#555555;stroke-width:0.8;" x="159.55426" xlink:href="#m4f20274bdb" y="512.64"/>
      </g>
     </g>
     <g id="text_12">
      <!-- Jul -->
      <g style="fill:#555555;" transform="translate(148.065278 532.253252)rotate(-30)scale(0.1 -0.1)">
       <defs>
        <path d="M 628 4666 
L 1259 4666 
L 1259 325 
Q 1259 -519 939 -900 
Q 619 -1281 -91 -1281 
L -331 -1281 
L -331 -750 
L -134 -750 
Q 284 -750 456 -515 
Q 628 -281 628 325 
L 628 4666 
z
" id="DejaVuSans-4a" transform="scale(0.015625)"/>
        <path d="M 544 1381 
L 544 3500 
L 1119 3500 
L 1119 1403 
Q 1119 906 1312 657 
Q 1506 409 1894 409 
Q 2359 409 2629 706 
Q 2900 1003 2900 1516 
L 2900 3500 
L 3475 3500 
L 3475 0 
L 2900 0 
L 2900 538 
Q 2691 219 2414 64 
Q 2138 -91 1772 -91 
Q 1169 -91 856 284 
Q 544 659 544 1381 
z
M 1991 3584 
L 1991 3584 
z
" id="DejaVuSans-75" transform="scale(0.015625)"/>
       </defs>
       <use xlink:href="#DejaVuSans-4a"/>
       <use x="29.492188" xlink:href="#DejaVuSans-75"/>
       <use x="92.871094" xlink:href="#DejaVuSans-6c"/>
      </g>
     </g>
    </g>
    <g id="xtick_33">
     <g id="line2d_43">
      <g>
       <use style="fill:#555555;stroke:#555555;stroke-width:0.8;" x="232.210525" xlink:href="#m4f20274bdb" y="512.64"/>
      </g>
     </g>
     <g id="text_13">
      <!-- Oct -->
      <g style="fill:#555555;" transform="translate(216.196561 534.865752)rotate(-30)scale(0.1 -0.1)">
       <defs>
        <path d="M 2522 4238 
Q 1834 4238 1429 3725 
Q 1025 3213 1025 2328 
Q 1025 1447 1429 934 
Q 1834 422 2522 422 
Q 3209 422 3611 934 
Q 4013 1447 4013 2328 
Q 4013 3213 3611 3725 
Q 3209 4238 2522 4238 
z
M 2522 4750 
Q 3503 4750 4090 4092 
Q 4678 3434 4678 2328 
Q 4678 1225 4090 567 
Q 3503 -91 2522 -91 
Q 1538 -91 948 565 
Q 359 1222 359 2328 
Q 359 3434 948 4092 
Q 1538 4750 2522 4750 
z
" id="DejaVuSans-4f" transform="scale(0.015625)"/>
        <path d="M 3122 3366 
L 3122 2828 
Q 2878 2963 2633 3030 
Q 2388 3097 2138 3097 
Q 1578 3097 1268 2742 
Q 959 2388 959 1747 
Q 959 1106 1268 751 
Q 1578 397 2138 397 
Q 2388 397 2633 464 
Q 2878 531 3122 666 
L 3122 134 
Q 2881 22 2623 -34 
Q 2366 -91 2075 -91 
Q 1284 -91 818 406 
Q 353 903 353 1747 
Q 353 2603 823 3093 
Q 1294 3584 2113 3584 
Q 2378 3584 2631 3529 
Q 2884 3475 3122 3366 
z
" id="DejaVuSans-63" transform="scale(0.015625)"/>
       </defs>
       <use xlink:href="#DejaVuSans-4f"/>
       <use x="78.710938" xlink:href="#DejaVuSans-63"/>
       <use x="133.691406" xlink:href="#DejaVuSans-74"/>
      </g>
     </g>
    </g>
    <g id="xtick_34">
     <g id="line2d_44">
      <g>
       <use style="fill:#555555;stroke:#555555;stroke-width:0.8;" x="304.866791" xlink:href="#m4f20274bdb" y="512.64"/>
      </g>
     </g>
     <g id="text_14">
      <!-- Jan -->
      <g style="fill:#555555;" transform="translate(284.877718 533.928252)rotate(-30)scale(0.1 -0.1)">
       <defs>
        <path d="M 3513 2113 
L 3513 0 
L 2938 0 
L 2938 2094 
Q 2938 2591 2744 2837 
Q 2550 3084 2163 3084 
Q 1697 3084 1428 2787 
Q 1159 2491 1159 1978 
L 1159 0 
L 581 0 
L 581 3500 
L 1159 3500 
L 1159 2956 
Q 1366 3272 1645 3428 
Q 1925 3584 2291 3584 
Q 2894 3584 3203 3211 
Q 3513 2838 3513 2113 
z
" id="DejaVuSans-6e" transform="scale(0.015625)"/>
       </defs>
       <use xlink:href="#DejaVuSans-4a"/>
       <use x="29.492188" xlink:href="#DejaVuSans-61"/>
       <use x="90.771484" xlink:href="#DejaVuSans-6e"/>
      </g>
      <!-- 2021 -->
      <g style="fill:#555555;" transform="translate(281.7866 548.64303)rotate(-30)scale(0.1 -0.1)">
       <use xlink:href="#DejaVuSans-32"/>
       <use x="63.623047" xlink:href="#DejaVuSans-30"/>
       <use x="127.246094" xlink:href="#DejaVuSans-32"/>
       <use x="190.869141" xlink:href="#DejaVuSans-31"/>
      </g>
     </g>
    </g>
    <g id="xtick_35">
     <g id="line2d_45">
      <g>
       <use style="fill:#555555;stroke:#555555;stroke-width:0.8;" x="375.943572" xlink:href="#m4f20274bdb" y="512.64"/>
      </g>
     </g>
     <g id="text_15">
      <!-- Apr -->
      <g style="fill:#555555;" transform="translate(359.921489 534.87044)rotate(-30)scale(0.1 -0.1)">
       <use xlink:href="#DejaVuSans-41"/>
       <use x="68.408203" xlink:href="#DejaVuSans-70"/>
       <use x="131.884766" xlink:href="#DejaVuSans-72"/>
      </g>
     </g>
    </g>
    <g id="xtick_36">
     <g id="line2d_46">
      <g>
       <use style="fill:#555555;stroke:#555555;stroke-width:0.8;" x="447.810095" xlink:href="#m4f20274bdb" y="512.64"/>
      </g>
     </g>
     <g id="text_16">
      <!-- Jul -->
      <g style="fill:#555555;" transform="translate(436.321114 532.253252)rotate(-30)scale(0.1 -0.1)">
       <use xlink:href="#DejaVuSans-4a"/>
       <use x="29.492188" xlink:href="#DejaVuSans-75"/>
       <use x="92.871094" xlink:href="#DejaVuSans-6c"/>
      </g>
     </g>
    </g>
    <g id="xtick_37">
     <g id="line2d_47">
      <g>
       <use style="fill:#555555;stroke:#555555;stroke-width:0.8;" x="520.466361" xlink:href="#m4f20274bdb" y="512.64"/>
      </g>
     </g>
     <g id="text_17">
      <!-- Oct -->
      <g style="fill:#555555;" transform="translate(504.452396 534.865752)rotate(-30)scale(0.1 -0.1)">
       <use xlink:href="#DejaVuSans-4f"/>
       <use x="78.710938" xlink:href="#DejaVuSans-63"/>
       <use x="133.691406" xlink:href="#DejaVuSans-74"/>
      </g>
     </g>
    </g>
    <g id="xtick_38">
     <g id="line2d_48">
      <g>
       <use style="fill:#555555;stroke:#555555;stroke-width:0.8;" x="593.122626" xlink:href="#m4f20274bdb" y="512.64"/>
      </g>
     </g>
     <g id="text_18">
      <!-- Jan -->
      <g style="fill:#555555;" transform="translate(573.133553 533.928252)rotate(-30)scale(0.1 -0.1)">
       <use xlink:href="#DejaVuSans-4a"/>
       <use x="29.492188" xlink:href="#DejaVuSans-61"/>
       <use x="90.771484" xlink:href="#DejaVuSans-6e"/>
      </g>
      <!-- 2022 -->
      <g style="fill:#555555;" transform="translate(570.042436 548.64303)rotate(-30)scale(0.1 -0.1)">
       <use xlink:href="#DejaVuSans-32"/>
       <use x="63.623047" xlink:href="#DejaVuSans-30"/>
       <use x="127.246094" xlink:href="#DejaVuSans-32"/>
       <use x="190.869141" xlink:href="#DejaVuSans-32"/>
      </g>
     </g>
    </g>
    <g id="xtick_39">
     <g id="line2d_49">
      <g>
       <use style="fill:#555555;stroke:#555555;stroke-width:0.8;" x="664.199407" xlink:href="#m4f20274bdb" y="512.64"/>
      </g>
     </g>
     <g id="text_19">
      <!-- Apr -->
      <g style="fill:#555555;" transform="translate(648.177324 534.87044)rotate(-30)scale(0.1 -0.1)">
       <use xlink:href="#DejaVuSans-41"/>
       <use x="68.408203" xlink:href="#DejaVuSans-70"/>
       <use x="131.884766" xlink:href="#DejaVuSans-72"/>
      </g>
     </g>
    </g>
    <g id="xtick_40">
     <g id="line2d_50">
      <g>
       <use style="fill:#555555;stroke:#555555;stroke-width:0.8;" x="704.47625" xlink:href="#m4f20274bdb" y="512.64"/>
      </g>
     </g>
    </g>
    <g id="xtick_41">
     <g id="line2d_51">
      <g>
       <use style="fill:#555555;stroke:#555555;stroke-width:0.6;" x="63.205734" xlink:href="#m0351392fa9" y="512.64"/>
      </g>
     </g>
    </g>
    <g id="xtick_42">
     <g id="line2d_52">
      <g>
       <use style="fill:#555555;stroke:#555555;stroke-width:0.6;" x="111.379997" xlink:href="#m0351392fa9" y="512.64"/>
      </g>
     </g>
    </g>
    <g id="xtick_43">
     <g id="line2d_53">
      <g>
       <use style="fill:#555555;stroke:#555555;stroke-width:0.6;" x="135.861999" xlink:href="#m0351392fa9" y="512.64"/>
      </g>
     </g>
    </g>
    <g id="xtick_44">
     <g id="line2d_54">
      <g>
       <use style="fill:#555555;stroke:#555555;stroke-width:0.6;" x="184.036262" xlink:href="#m0351392fa9" y="512.64"/>
      </g>
     </g>
    </g>
    <g id="xtick_45">
     <g id="line2d_55">
      <g>
       <use style="fill:#555555;stroke:#555555;stroke-width:0.6;" x="208.518265" xlink:href="#m0351392fa9" y="512.64"/>
      </g>
     </g>
    </g>
    <g id="xtick_46">
     <g id="line2d_56">
      <g>
       <use style="fill:#555555;stroke:#555555;stroke-width:0.6;" x="256.692528" xlink:href="#m0351392fa9" y="512.64"/>
      </g>
     </g>
    </g>
    <g id="xtick_47">
     <g id="line2d_57">
      <g>
       <use style="fill:#555555;stroke:#555555;stroke-width:0.6;" x="280.384788" xlink:href="#m0351392fa9" y="512.64"/>
      </g>
     </g>
    </g>
    <g id="xtick_48">
     <g id="line2d_58">
      <g>
       <use style="fill:#555555;stroke:#555555;stroke-width:0.6;" x="329.348793" xlink:href="#m0351392fa9" y="512.64"/>
      </g>
     </g>
    </g>
    <g id="xtick_49">
     <g id="line2d_59">
      <g>
       <use style="fill:#555555;stroke:#555555;stroke-width:0.6;" x="351.461569" xlink:href="#m0351392fa9" y="512.64"/>
      </g>
     </g>
    </g>
    <g id="xtick_50">
     <g id="line2d_60">
      <g>
       <use style="fill:#555555;stroke:#555555;stroke-width:0.6;" x="399.635832" xlink:href="#m0351392fa9" y="512.64"/>
      </g>
     </g>
    </g>
    <g id="xtick_51">
     <g id="line2d_61">
      <g>
       <use style="fill:#555555;stroke:#555555;stroke-width:0.6;" x="424.117835" xlink:href="#m0351392fa9" y="512.64"/>
      </g>
     </g>
    </g>
    <g id="xtick_52">
     <g id="line2d_62">
      <g>
       <use style="fill:#555555;stroke:#555555;stroke-width:0.6;" x="472.292098" xlink:href="#m0351392fa9" y="512.64"/>
      </g>
     </g>
    </g>
    <g id="xtick_53">
     <g id="line2d_63">
      <g>
       <use style="fill:#555555;stroke:#555555;stroke-width:0.6;" x="496.7741" xlink:href="#m0351392fa9" y="512.64"/>
      </g>
     </g>
    </g>
    <g id="xtick_54">
     <g id="line2d_64">
      <g>
       <use style="fill:#555555;stroke:#555555;stroke-width:0.6;" x="544.948363" xlink:href="#m0351392fa9" y="512.64"/>
      </g>
     </g>
    </g>
    <g id="xtick_55">
     <g id="line2d_65">
      <g>
       <use style="fill:#555555;stroke:#555555;stroke-width:0.6;" x="568.640623" xlink:href="#m0351392fa9" y="512.64"/>
      </g>
     </g>
    </g>
    <g id="xtick_56">
     <g id="line2d_66">
      <g>
       <use style="fill:#555555;stroke:#555555;stroke-width:0.6;" x="617.604628" xlink:href="#m0351392fa9" y="512.64"/>
      </g>
     </g>
    </g>
    <g id="xtick_57">
     <g id="line2d_67">
      <g>
       <use style="fill:#555555;stroke:#555555;stroke-width:0.6;" x="639.717405" xlink:href="#m0351392fa9" y="512.64"/>
      </g>
     </g>
    </g>
    <g id="xtick_58">
     <g id="line2d_68">
      <g>
       <use style="fill:#555555;stroke:#555555;stroke-width:0.6;" x="687.891668" xlink:href="#m0351392fa9" y="512.64"/>
      </g>
     </g>
    </g>
    <g id="text_20">
     <!-- Date -->
     <g style="fill:#555555;" transform="translate(368.710312 563.562217)scale(0.12 -0.12)">
      <defs>
       <path d="M 1259 4147 
L 1259 519 
L 2022 519 
Q 2988 519 3436 956 
Q 3884 1394 3884 2338 
Q 3884 3275 3436 3711 
Q 2988 4147 2022 4147 
L 1259 4147 
z
M 628 4666 
L 1925 4666 
Q 3281 4666 3915 4102 
Q 4550 3538 4550 2338 
Q 4550 1131 3912 565 
Q 3275 0 1925 0 
L 628 0 
L 628 4666 
z
" id="DejaVuSans-44" transform="scale(0.015625)"/>
      </defs>
      <use xlink:href="#DejaVuSans-44"/>
      <use x="77.001953" xlink:href="#DejaVuSans-61"/>
      <use x="138.28125" xlink:href="#DejaVuSans-74"/>
      <use x="177.490234" xlink:href="#DejaVuSans-65"/>
     </g>
    </g>
   </g>
   <g id="matplotlib.axis_4">
    <g id="ytick_9">
     <g id="line2d_69">
      <g>
       <use style="fill:#555555;stroke:#555555;stroke-width:0.8;" x="61.62625" xlink:href="#maff01ef869" y="503.596346"/>
      </g>
     </g>
     <g id="text_21">
      <!-- 0 -->
      <g style="fill:#555555;" transform="translate(48.26375 507.395565)scale(0.1 -0.1)">
       <use xlink:href="#DejaVuSans-30"/>
      </g>
     </g>
    </g>
    <g id="ytick_10">
     <g id="line2d_70">
      <g>
       <use style="fill:#555555;stroke:#555555;stroke-width:0.8;" x="61.62625" xlink:href="#maff01ef869" y="468.611993"/>
      </g>
     </g>
     <g id="text_22">
      <!-- 5000 -->
      <g style="fill:#555555;" transform="translate(29.17625 472.411212)scale(0.1 -0.1)">
       <use xlink:href="#DejaVuSans-35"/>
       <use x="63.623047" xlink:href="#DejaVuSans-30"/>
       <use x="127.246094" xlink:href="#DejaVuSans-30"/>
       <use x="190.869141" xlink:href="#DejaVuSans-30"/>
      </g>
     </g>
    </g>
    <g id="ytick_11">
     <g id="line2d_71">
      <g>
       <use style="fill:#555555;stroke:#555555;stroke-width:0.8;" x="61.62625" xlink:href="#maff01ef869" y="433.62764"/>
      </g>
     </g>
     <g id="text_23">
      <!-- 10000 -->
      <g style="fill:#555555;" transform="translate(22.81375 437.426859)scale(0.1 -0.1)">
       <use xlink:href="#DejaVuSans-31"/>
       <use x="63.623047" xlink:href="#DejaVuSans-30"/>
       <use x="127.246094" xlink:href="#DejaVuSans-30"/>
       <use x="190.869141" xlink:href="#DejaVuSans-30"/>
       <use x="254.492188" xlink:href="#DejaVuSans-30"/>
      </g>
     </g>
    </g>
    <g id="ytick_12">
     <g id="line2d_72">
      <g>
       <use style="fill:#555555;stroke:#555555;stroke-width:0.8;" x="61.62625" xlink:href="#maff01ef869" y="398.643287"/>
      </g>
     </g>
     <g id="text_24">
      <!-- 15000 -->
      <g style="fill:#555555;" transform="translate(22.81375 402.442506)scale(0.1 -0.1)">
       <use xlink:href="#DejaVuSans-31"/>
       <use x="63.623047" xlink:href="#DejaVuSans-35"/>
       <use x="127.246094" xlink:href="#DejaVuSans-30"/>
       <use x="190.869141" xlink:href="#DejaVuSans-30"/>
       <use x="254.492188" xlink:href="#DejaVuSans-30"/>
      </g>
     </g>
    </g>
    <g id="ytick_13">
     <g id="line2d_73">
      <g>
       <use style="fill:#555555;stroke:#555555;stroke-width:0.8;" x="61.62625" xlink:href="#maff01ef869" y="363.658934"/>
      </g>
     </g>
     <g id="text_25">
      <!-- 20000 -->
      <g style="fill:#555555;" transform="translate(22.81375 367.458153)scale(0.1 -0.1)">
       <use xlink:href="#DejaVuSans-32"/>
       <use x="63.623047" xlink:href="#DejaVuSans-30"/>
       <use x="127.246094" xlink:href="#DejaVuSans-30"/>
       <use x="190.869141" xlink:href="#DejaVuSans-30"/>
       <use x="254.492188" xlink:href="#DejaVuSans-30"/>
      </g>
     </g>
    </g>
    <g id="ytick_14">
     <g id="line2d_74">
      <g>
       <use style="fill:#555555;stroke:#555555;stroke-width:0.8;" x="61.62625" xlink:href="#maff01ef869" y="328.674581"/>
      </g>
     </g>
     <g id="text_26">
      <!-- 25000 -->
      <g style="fill:#555555;" transform="translate(22.81375 332.4738)scale(0.1 -0.1)">
       <use xlink:href="#DejaVuSans-32"/>
       <use x="63.623047" xlink:href="#DejaVuSans-35"/>
       <use x="127.246094" xlink:href="#DejaVuSans-30"/>
       <use x="190.869141" xlink:href="#DejaVuSans-30"/>
       <use x="254.492188" xlink:href="#DejaVuSans-30"/>
      </g>
     </g>
    </g>
    <g id="text_27">
     <!-- Daily -->
     <g style="fill:#555555;" transform="translate(16.318125 428.341669)rotate(-90)scale(0.12 -0.12)">
      <defs>
       <path d="M 603 3500 
L 1178 3500 
L 1178 0 
L 603 0 
L 603 3500 
z
M 603 4863 
L 1178 4863 
L 1178 4134 
L 603 4134 
L 603 4863 
z
" id="DejaVuSans-69" transform="scale(0.015625)"/>
       <path d="M 2059 -325 
Q 1816 -950 1584 -1140 
Q 1353 -1331 966 -1331 
L 506 -1331 
L 506 -850 
L 844 -850 
Q 1081 -850 1212 -737 
Q 1344 -625 1503 -206 
L 1606 56 
L 191 3500 
L 800 3500 
L 1894 763 
L 2988 3500 
L 3597 3500 
L 2059 -325 
z
" id="DejaVuSans-79" transform="scale(0.015625)"/>
      </defs>
      <use xlink:href="#DejaVuSans-44"/>
      <use x="77.001953" xlink:href="#DejaVuSans-61"/>
      <use x="138.28125" xlink:href="#DejaVuSans-69"/>
      <use x="166.064453" xlink:href="#DejaVuSans-6c"/>
      <use x="193.847656" xlink:href="#DejaVuSans-79"/>
     </g>
    </g>
   </g>
   <g id="line2d_75">
    <path clip-path="url(#pa59ca74f03)" d="M 61.62625 503.225512 
L 62.415992 503.372446 
L 63.995476 503.325217 
L 65.57496 503.290816 
L 67.154444 503.010608 
L 71.103154 502.29193 
L 71.892896 501.628226 
L 73.47238 500.597687 
L 76.631348 496.968311 
L 79.000574 490.735098 
L 79.790316 489.830503 
L 80.580058 486.943794 
L 81.3698 483.325412 
L 82.159542 480.250788 
L 82.949284 478.09875 
L 83.739026 475.278012 
L 84.528768 471.690616 
L 85.31851 469.674518 
L 86.108252 468.985826 
L 86.897994 469.134759 
L 88.477479 466.598893 
L 89.267221 466.20507 
L 90.056963 466.416975 
L 90.846705 464.446856 
L 91.636447 465.520376 
L 92.426189 466.301027 
L 93.215931 467.750378 
L 94.005673 468.93185 
L 94.795415 469.78247 
L 95.585157 471.730598 
L 96.374899 474.844206 
L 97.164641 475.983696 
L 99.533867 481.358292 
L 100.323609 483.300424 
L 101.113351 483.824189 
L 101.903093 484.187027 
L 102.692835 484.948686 
L 104.272319 485.494442 
L 105.062061 486.008213 
L 105.851803 487.050746 
L 106.641545 488.604052 
L 109.010771 490.722104 
L 110.590255 492.528296 
L 111.379997 493.225984 
L 112.959481 495.279066 
L 114.538965 496.076709 
L 115.328707 496.43355 
L 116.118449 496.627463 
L 116.908191 497.057271 
L 117.697933 496.751408 
L 118.487675 496.877351 
L 119.277417 497.199207 
L 120.067159 496.951318 
L 120.856901 497.100252 
L 122.436385 497.746962 
L 123.226127 498.37768 
L 124.805611 498.476636 
L 125.595353 498.896448 
L 126.385095 498.897448 
L 127.174837 499.085364 
L 127.964579 499.538161 
L 128.754321 499.520169 
L 130.333805 499.725078 
L 131.123547 499.806041 
L 132.703031 500.632672 
L 133.492773 500.351797 
L 134.282515 500.251842 
L 135.072257 500.396777 
L 135.861999 500.352797 
L 136.651741 500.571699 
L 138.231225 500.550708 
L 139.810709 501.115456 
L 140.600451 501.100462 
L 141.390193 501.219409 
L 142.179936 501.08247 
L 142.969678 501.10646 
L 143.75942 500.945532 
L 144.549162 501.19442 
L 146.918388 501.32936 
L 149.287614 501.249396 
L 150.077356 500.737625 
L 150.867098 500.484738 
L 152.446582 499.700089 
L 153.236324 499.575145 
L 154.026066 499.333253 
L 154.815808 499.283275 
L 155.60555 499.576144 
L 156.395292 499.490183 
L 157.185034 499.92099 
L 157.974776 500.195867 
L 158.764518 500.200865 
L 162.713228 500.761614 
L 165.872196 501.042488 
L 169.031164 501.188423 
L 171.40039 501.120453 
L 172.979874 500.781605 
L 173.769616 500.827584 
L 176.928584 500.489736 
L 179.29781 499.902998 
L 180.877294 499.701088 
L 183.24652 499.083365 
L 184.036262 498.909442 
L 184.826004 498.974413 
L 189.564456 497.915887 
L 190.354198 497.601028 
L 191.14394 497.673995 
L 191.933682 497.587034 
L 193.513166 496.702429 
L 195.09265 496.107695 
L 196.672135 495.912783 
L 197.461877 495.488972 
L 199.041361 494.943216 
L 199.831103 494.965206 
L 200.620845 494.346483 
L 202.200329 494.03962 
L 202.990071 494.15157 
L 203.779813 494.0856 
L 204.569555 494.28551 
L 205.359297 494.141575 
L 206.149039 494.696327 
L 207.728523 494.794283 
L 208.518265 494.854256 
L 209.308007 495.174113 
L 210.887491 495.487973 
L 211.677233 495.588927 
L 214.046459 494.901235 
L 214.836201 494.981199 
L 215.625943 494.400459 
L 216.415685 494.369473 
L 217.205427 494.117586 
L 217.995169 494.157568 
L 218.784911 494.044618 
L 219.574653 494.136577 
L 220.364395 493.411901 
L 221.154137 493.110036 
L 221.943879 492.678229 
L 222.733621 492.011528 
L 223.523363 491.614705 
L 224.313105 491.619703 
L 225.102847 491.205888 
L 226.682331 491.388806 
L 228.261815 490.942006 
L 229.051557 490.877035 
L 230.631041 490.339275 
L 231.420783 490.310288 
L 232.210525 489.950449 
L 233.000267 489.430682 
L 233.790009 489.374707 
L 234.579751 488.506095 
L 235.369493 488.31618 
L 236.159235 487.766426 
L 236.948977 486.736887 
L 237.738719 485.182582 
L 238.528461 483.340406 
L 239.318203 481.18337 
L 241.687429 477.413057 
L 243.266913 472.53124 
L 244.846397 466.60689 
L 246.425881 462.646661 
L 248.005365 457.43999 
L 248.795107 452.793068 
L 249.58485 448.886815 
L 250.374592 442.005893 
L 251.164334 436.419391 
L 252.743818 427.522371 
L 253.53356 420.156665 
L 254.323302 414.672118 
L 255.113044 407.236444 
L 255.902786 402.893386 
L 257.48227 396.483253 
L 258.272012 392.542016 
L 259.061754 390.293022 
L 260.641238 384.254722 
L 261.43098 379.916663 
L 262.220722 378.077485 
L 263.010464 376.812051 
L 263.800206 376.832042 
L 264.589948 375.559611 
L 266.169432 371.64936 
L 266.959174 372.586941 
L 267.748916 371.657357 
L 268.538658 374.195222 
L 270.118142 376.0334 
L 270.907884 375.290732 
L 271.697626 375.184779 
L 272.487368 374.682004 
L 273.27711 375.887465 
L 274.066852 375.847483 
L 274.856594 376.712096 
L 275.646336 375.640575 
L 276.436078 375.981423 
L 277.22582 376.823046 
L 278.805304 379.220974 
L 279.595046 378.91611 
L 280.384788 378.866133 
L 281.17453 380.228523 
L 281.964272 380.450424 
L 282.754014 379.807711 
L 283.543756 378.185437 
L 284.333498 375.030848 
L 285.12324 373.868368 
L 285.912982 373.418569 
L 286.702724 369.875154 
L 287.492466 368.242884 
L 288.282208 361.819757 
L 289.07195 356.702046 
L 289.861692 354.270133 
L 290.651434 350.241935 
L 291.441176 349.864104 
L 292.230918 342.954194 
L 293.02066 339.711645 
L 293.810402 335.811389 
L 295.389886 330.380818 
L 296.179628 330.099944 
L 296.96937 325.006222 
L 297.759112 327.992886 
L 298.548854 322.723243 
L 299.338596 330.963557 
L 300.128338 347.801027 
L 300.91808 356.812996 
L 301.707822 362.477463 
L 302.497564 369.110496 
L 303.287307 371.390476 
L 304.077049 371.033636 
L 304.866791 373.641469 
L 305.656533 375.40568 
L 306.446275 378.844142 
L 308.815501 382.188647 
L 309.605243 388.346892 
L 310.394985 379.425882 
L 311.184727 367.427249 
L 311.974469 360.779222 
L 312.764211 358.150398 
L 313.553953 357.245802 
L 314.343695 358.882071 
L 315.133437 360.108522 
L 315.923179 369.585283 
L 316.712921 375.598594 
L 317.502663 378.681215 
L 318.292405 384.01483 
L 319.082147 385.447189 
L 319.871889 389.071568 
L 321.451373 398.339423 
L 322.241115 400.599412 
L 323.030857 402.223686 
L 323.820599 402.635502 
L 324.610341 407.590285 
L 326.189825 413.208773 
L 327.769309 421.141225 
L 329.348793 423.326247 
L 330.138535 423.624114 
L 331.718019 430.456059 
L 332.507761 431.569561 
L 333.297503 433.40474 
L 334.087245 435.979588 
L 334.876987 437.052108 
L 335.666729 439.785886 
L 336.456471 441.418156 
L 337.246213 445.390379 
L 338.035955 448.437017 
L 338.825697 450.567064 
L 339.615439 453.067945 
L 340.405181 453.176897 
L 341.194923 452.70011 
L 341.984665 453.215879 
L 342.774407 453.245866 
L 343.564149 453.992532 
L 344.353891 453.182894 
L 345.143633 451.621592 
L 346.723117 451.651579 
L 347.512859 451.20078 
L 348.302601 449.539523 
L 349.092343 448.655919 
L 349.882085 448.058186 
L 350.671827 447.844282 
L 351.461569 447.481444 
L 352.251311 447.421471 
L 353.041053 446.409923 
L 353.830795 446.366942 
L 354.620537 445.784203 
L 355.410279 445.989111 
L 356.989764 445.497331 
L 357.779506 445.188469 
L 358.569248 445.061526 
L 360.148732 440.365626 
L 361.728216 434.564221 
L 362.517958 432.971933 
L 363.3077 431.744482 
L 364.097442 427.4574 
L 364.887184 424.310807 
L 365.676926 419.664885 
L 367.25641 413.365702 
L 368.046152 412.261196 
L 368.835894 410.257093 
L 369.625636 407.880156 
L 370.415378 402.72946 
L 372.784604 390.761812 
L 374.364088 386.536702 
L 375.15383 385.299255 
L 375.943572 383.65699 
L 376.733314 383.342131 
L 377.523056 385.684083 
L 378.312798 390.661857 
L 379.10254 392.036242 
L 379.892282 394.699051 
L 380.682024 402.069755 
L 381.471766 405.961014 
L 382.261508 402.386613 
L 383.840992 390.764811 
L 384.630734 386.018933 
L 385.420476 382.095688 
L 386.210218 370.08506 
L 386.99996 361.070092 
L 387.789702 360.703256 
L 388.579444 360.996125 
L 389.369186 359.66672 
L 390.158928 361.473911 
L 390.94867 362.674374 
L 391.738412 359.484801 
L 392.528154 359.392842 
L 393.317896 357.681607 
L 394.89738 358.505239 
L 395.687122 358.035449 
L 396.476864 356.66906 
L 397.266606 359.320874 
L 398.056348 364.100736 
L 398.84609 367.3133 
L 399.635832 371.768307 
L 401.215316 376.995969 
L 402.005058 380.43643 
L 402.7948 384.631554 
L 403.584542 387.41331 
L 404.374284 393.254697 
L 405.953768 400.13562 
L 406.74351 402.372619 
L 407.533252 403.780989 
L 408.322994 406.904592 
L 409.112736 411.436565 
L 410.692221 426.369886 
L 411.481963 430.524028 
L 412.271705 432.033353 
L 413.061447 433.948497 
L 413.851189 437.815767 
L 414.640931 442.934478 
L 415.430673 445.50033 
L 416.220415 446.311967 
L 417.010157 448.097169 
L 417.010157 448.097169 
" style="fill:none;stroke:#e24a33;stroke-linecap:square;stroke-width:1.5;"/>
   </g>
   <g id="line2d_76">
    <path clip-path="url(#pa59ca74f03)" d="M 417.799899 447.975432 
L 420.169125 454.933457 
L 422.538351 461.092619 
L 424.907577 466.526785 
L 427.276803 471.307657 
L 429.646029 475.503386 
L 432.015255 479.177698 
L 434.384481 482.389412 
L 436.753707 485.192246 
L 439.122933 487.634842 
L 441.492159 489.760927 
L 443.861385 491.609577 
L 446.230611 493.21554 
L 448.599837 494.609582 
L 451.758805 496.185088 
L 454.917773 497.487188 
L 458.076741 498.562423 
L 462.025451 499.646087 
L 465.974162 500.497654 
L 470.712614 501.281766 
L 476.240808 501.950182 
L 482.558744 502.481624 
L 490.456164 502.911854 
L 500.72281 503.233383 
L 515.727908 503.452789 
L 541.789395 503.567693 
L 622.34308 503.596149 
L 704.47625 503.596345 
L 704.47625 503.596345 
" style="fill:none;stroke:#348abd;stroke-linecap:square;stroke-width:1.5;"/>
   </g>
   <g id="patch_8">
    <path d="M 61.62625 512.64 
L 61.62625 313.679588 
" style="fill:none;stroke:#ffffff;stroke-linecap:square;stroke-linejoin:miter;"/>
   </g>
   <g id="patch_9">
    <path d="M 704.47625 512.64 
L 704.47625 313.679588 
" style="fill:none;stroke:#ffffff;stroke-linecap:square;stroke-linejoin:miter;"/>
   </g>
   <g id="patch_10">
    <path d="M 61.62625 512.64 
L 704.47625 512.64 
" style="fill:none;stroke:#ffffff;stroke-linecap:square;stroke-linejoin:miter;"/>
   </g>
   <g id="patch_11">
    <path d="M 61.62625 313.679588 
L 704.47625 313.679588 
" style="fill:none;stroke:#ffffff;stroke-linecap:square;stroke-linejoin:miter;"/>
   </g>
   <g id="legend_1">
    <g id="patch_12">
     <path d="M 494.5825 351.035838 
L 697.47625 351.035838 
Q 699.47625 351.035838 699.47625 349.035838 
L 699.47625 320.679588 
Q 699.47625 318.679588 697.47625 318.679588 
L 494.5825 318.679588 
Q 492.5825 318.679588 492.5825 320.679588 
L 492.5825 349.035838 
Q 492.5825 351.035838 494.5825 351.035838 
z
" style="fill:#e5e5e5;opacity:0.8;stroke:#cccccc;stroke-linejoin:miter;stroke-width:0.5;"/>
    </g>
    <g id="line2d_77">
     <path d="M 496.5825 326.778025 
L 516.5825 326.778025 
" style="fill:none;stroke:#e24a33;stroke-linecap:square;stroke-width:1.5;"/>
    </g>
    <g id="line2d_78"/>
    <g id="text_28">
     <!-- Cases -->
     <g transform="translate(524.5825 330.278025)scale(0.1 -0.1)">
      <defs>
       <path d="M 4122 4306 
L 4122 3641 
Q 3803 3938 3442 4084 
Q 3081 4231 2675 4231 
Q 1875 4231 1450 3742 
Q 1025 3253 1025 2328 
Q 1025 1406 1450 917 
Q 1875 428 2675 428 
Q 3081 428 3442 575 
Q 3803 722 4122 1019 
L 4122 359 
Q 3791 134 3420 21 
Q 3050 -91 2638 -91 
Q 1578 -91 968 557 
Q 359 1206 359 2328 
Q 359 3453 968 4101 
Q 1578 4750 2638 4750 
Q 3056 4750 3426 4639 
Q 3797 4528 4122 4306 
z
" id="DejaVuSans-43" transform="scale(0.015625)"/>
       <path d="M 2834 3397 
L 2834 2853 
Q 2591 2978 2328 3040 
Q 2066 3103 1784 3103 
Q 1356 3103 1142 2972 
Q 928 2841 928 2578 
Q 928 2378 1081 2264 
Q 1234 2150 1697 2047 
L 1894 2003 
Q 2506 1872 2764 1633 
Q 3022 1394 3022 966 
Q 3022 478 2636 193 
Q 2250 -91 1575 -91 
Q 1294 -91 989 -36 
Q 684 19 347 128 
L 347 722 
Q 666 556 975 473 
Q 1284 391 1588 391 
Q 1994 391 2212 530 
Q 2431 669 2431 922 
Q 2431 1156 2273 1281 
Q 2116 1406 1581 1522 
L 1381 1569 
Q 847 1681 609 1914 
Q 372 2147 372 2553 
Q 372 3047 722 3315 
Q 1072 3584 1716 3584 
Q 2034 3584 2315 3537 
Q 2597 3491 2834 3397 
z
" id="DejaVuSans-73" transform="scale(0.015625)"/>
      </defs>
      <use xlink:href="#DejaVuSans-43"/>
      <use x="69.824219" xlink:href="#DejaVuSans-61"/>
      <use x="131.103516" xlink:href="#DejaVuSans-73"/>
      <use x="183.203125" xlink:href="#DejaVuSans-65"/>
      <use x="244.726562" xlink:href="#DejaVuSans-73"/>
     </g>
    </g>
    <g id="line2d_79">
     <path d="M 496.5825 341.45615 
L 516.5825 341.45615 
" style="fill:none;stroke:#348abd;stroke-linecap:square;stroke-width:1.5;"/>
    </g>
    <g id="line2d_80"/>
    <g id="text_29">
     <!-- Projected Cases (last 1D avg rate) -->
     <g transform="translate(524.5825 344.95615)scale(0.1 -0.1)">
      <defs>
       <path d="M 1259 4147 
L 1259 2394 
L 2053 2394 
Q 2494 2394 2734 2622 
Q 2975 2850 2975 3272 
Q 2975 3691 2734 3919 
Q 2494 4147 2053 4147 
L 1259 4147 
z
M 628 4666 
L 2053 4666 
Q 2838 4666 3239 4311 
Q 3641 3956 3641 3272 
Q 3641 2581 3239 2228 
Q 2838 1875 2053 1875 
L 1259 1875 
L 1259 0 
L 628 0 
L 628 4666 
z
" id="DejaVuSans-50" transform="scale(0.015625)"/>
       <path d="M 603 3500 
L 1178 3500 
L 1178 -63 
Q 1178 -731 923 -1031 
Q 669 -1331 103 -1331 
L -116 -1331 
L -116 -844 
L 38 -844 
Q 366 -844 484 -692 
Q 603 -541 603 -63 
L 603 3500 
z
M 603 4863 
L 1178 4863 
L 1178 4134 
L 603 4134 
L 603 4863 
z
" id="DejaVuSans-6a" transform="scale(0.015625)"/>
       <path d="M 2906 2969 
L 2906 4863 
L 3481 4863 
L 3481 0 
L 2906 0 
L 2906 525 
Q 2725 213 2448 61 
Q 2172 -91 1784 -91 
Q 1150 -91 751 415 
Q 353 922 353 1747 
Q 353 2572 751 3078 
Q 1150 3584 1784 3584 
Q 2172 3584 2448 3432 
Q 2725 3281 2906 2969 
z
M 947 1747 
Q 947 1113 1208 752 
Q 1469 391 1925 391 
Q 2381 391 2643 752 
Q 2906 1113 2906 1747 
Q 2906 2381 2643 2742 
Q 2381 3103 1925 3103 
Q 1469 3103 1208 2742 
Q 947 2381 947 1747 
z
" id="DejaVuSans-64" transform="scale(0.015625)"/>
       <path id="DejaVuSans-20" transform="scale(0.015625)"/>
       <path d="M 1984 4856 
Q 1566 4138 1362 3434 
Q 1159 2731 1159 2009 
Q 1159 1288 1364 580 
Q 1569 -128 1984 -844 
L 1484 -844 
Q 1016 -109 783 600 
Q 550 1309 550 2009 
Q 550 2706 781 3412 
Q 1013 4119 1484 4856 
L 1984 4856 
z
" id="DejaVuSans-28" transform="scale(0.015625)"/>
       <path d="M 191 3500 
L 800 3500 
L 1894 563 
L 2988 3500 
L 3597 3500 
L 2284 0 
L 1503 0 
L 191 3500 
z
" id="DejaVuSans-76" transform="scale(0.015625)"/>
       <path d="M 2906 1791 
Q 2906 2416 2648 2759 
Q 2391 3103 1925 3103 
Q 1463 3103 1205 2759 
Q 947 2416 947 1791 
Q 947 1169 1205 825 
Q 1463 481 1925 481 
Q 2391 481 2648 825 
Q 2906 1169 2906 1791 
z
M 3481 434 
Q 3481 -459 3084 -895 
Q 2688 -1331 1869 -1331 
Q 1566 -1331 1297 -1286 
Q 1028 -1241 775 -1147 
L 775 -588 
Q 1028 -725 1275 -790 
Q 1522 -856 1778 -856 
Q 2344 -856 2625 -561 
Q 2906 -266 2906 331 
L 2906 616 
Q 2728 306 2450 153 
Q 2172 0 1784 0 
Q 1141 0 747 490 
Q 353 981 353 1791 
Q 353 2603 747 3093 
Q 1141 3584 1784 3584 
Q 2172 3584 2450 3431 
Q 2728 3278 2906 2969 
L 2906 3500 
L 3481 3500 
L 3481 434 
z
" id="DejaVuSans-67" transform="scale(0.015625)"/>
       <path d="M 513 4856 
L 1013 4856 
Q 1481 4119 1714 3412 
Q 1947 2706 1947 2009 
Q 1947 1309 1714 600 
Q 1481 -109 1013 -844 
L 513 -844 
Q 928 -128 1133 580 
Q 1338 1288 1338 2009 
Q 1338 2731 1133 3434 
Q 928 4138 513 4856 
z
" id="DejaVuSans-29" transform="scale(0.015625)"/>
      </defs>
      <use xlink:href="#DejaVuSans-50"/>
      <use x="58.552734" xlink:href="#DejaVuSans-72"/>
      <use x="97.416016" xlink:href="#DejaVuSans-6f"/>
      <use x="158.597656" xlink:href="#DejaVuSans-6a"/>
      <use x="186.380859" xlink:href="#DejaVuSans-65"/>
      <use x="247.904297" xlink:href="#DejaVuSans-63"/>
      <use x="302.884766" xlink:href="#DejaVuSans-74"/>
      <use x="342.09375" xlink:href="#DejaVuSans-65"/>
      <use x="403.617188" xlink:href="#DejaVuSans-64"/>
      <use x="467.09375" xlink:href="#DejaVuSans-20"/>
      <use x="498.880859" xlink:href="#DejaVuSans-43"/>
      <use x="568.705078" xlink:href="#DejaVuSans-61"/>
      <use x="629.984375" xlink:href="#DejaVuSans-73"/>
      <use x="682.083984" xlink:href="#DejaVuSans-65"/>
      <use x="743.607422" xlink:href="#DejaVuSans-73"/>
      <use x="795.707031" xlink:href="#DejaVuSans-20"/>
      <use x="827.494141" xlink:href="#DejaVuSans-28"/>
      <use x="866.507812" xlink:href="#DejaVuSans-6c"/>
      <use x="894.291016" xlink:href="#DejaVuSans-61"/>
      <use x="955.570312" xlink:href="#DejaVuSans-73"/>
      <use x="1007.669922" xlink:href="#DejaVuSans-74"/>
      <use x="1046.878906" xlink:href="#DejaVuSans-20"/>
      <use x="1078.666016" xlink:href="#DejaVuSans-31"/>
      <use x="1142.289062" xlink:href="#DejaVuSans-44"/>
      <use x="1219.291016" xlink:href="#DejaVuSans-20"/>
      <use x="1251.078125" xlink:href="#DejaVuSans-61"/>
      <use x="1312.357422" xlink:href="#DejaVuSans-76"/>
      <use x="1371.537109" xlink:href="#DejaVuSans-67"/>
      <use x="1435.013672" xlink:href="#DejaVuSans-20"/>
      <use x="1466.800781" xlink:href="#DejaVuSans-72"/>
      <use x="1507.914062" xlink:href="#DejaVuSans-61"/>
      <use x="1569.193359" xlink:href="#DejaVuSans-74"/>
      <use x="1608.402344" xlink:href="#DejaVuSans-65"/>
      <use x="1669.925781" xlink:href="#DejaVuSans-29"/>
     </g>
    </g>
   </g>
  </g>
  <g id="text_30">
   <!-- COVID-19 spread projection using Logistic map -->
   <g transform="translate(213.8675 16.318125)scale(0.12 -0.12)">
    <defs>
     <path d="M 1831 0 
L 50 4666 
L 709 4666 
L 2188 738 
L 3669 4666 
L 4325 4666 
L 2547 0 
L 1831 0 
z
" id="DejaVuSans-56" transform="scale(0.015625)"/>
     <path d="M 628 4666 
L 1259 4666 
L 1259 0 
L 628 0 
L 628 4666 
z
" id="DejaVuSans-49" transform="scale(0.015625)"/>
     <path d="M 313 2009 
L 1997 2009 
L 1997 1497 
L 313 1497 
L 313 2009 
z
" id="DejaVuSans-2d" transform="scale(0.015625)"/>
     <path d="M 703 97 
L 703 672 
Q 941 559 1184 500 
Q 1428 441 1663 441 
Q 2288 441 2617 861 
Q 2947 1281 2994 2138 
Q 2813 1869 2534 1725 
Q 2256 1581 1919 1581 
Q 1219 1581 811 2004 
Q 403 2428 403 3163 
Q 403 3881 828 4315 
Q 1253 4750 1959 4750 
Q 2769 4750 3195 4129 
Q 3622 3509 3622 2328 
Q 3622 1225 3098 567 
Q 2575 -91 1691 -91 
Q 1453 -91 1209 -44 
Q 966 3 703 97 
z
M 1959 2075 
Q 2384 2075 2632 2365 
Q 2881 2656 2881 3163 
Q 2881 3666 2632 3958 
Q 2384 4250 1959 4250 
Q 1534 4250 1286 3958 
Q 1038 3666 1038 3163 
Q 1038 2656 1286 2365 
Q 1534 2075 1959 2075 
z
" id="DejaVuSans-39" transform="scale(0.015625)"/>
     <path d="M 628 4666 
L 1259 4666 
L 1259 531 
L 3531 531 
L 3531 0 
L 628 0 
L 628 4666 
z
" id="DejaVuSans-4c" transform="scale(0.015625)"/>
     <path d="M 3328 2828 
Q 3544 3216 3844 3400 
Q 4144 3584 4550 3584 
Q 5097 3584 5394 3201 
Q 5691 2819 5691 2113 
L 5691 0 
L 5113 0 
L 5113 2094 
Q 5113 2597 4934 2840 
Q 4756 3084 4391 3084 
Q 3944 3084 3684 2787 
Q 3425 2491 3425 1978 
L 3425 0 
L 2847 0 
L 2847 2094 
Q 2847 2600 2669 2842 
Q 2491 3084 2119 3084 
Q 1678 3084 1418 2786 
Q 1159 2488 1159 1978 
L 1159 0 
L 581 0 
L 581 3500 
L 1159 3500 
L 1159 2956 
Q 1356 3278 1631 3431 
Q 1906 3584 2284 3584 
Q 2666 3584 2933 3390 
Q 3200 3197 3328 2828 
z
" id="DejaVuSans-6d" transform="scale(0.015625)"/>
    </defs>
    <use xlink:href="#DejaVuSans-43"/>
    <use x="69.824219" xlink:href="#DejaVuSans-4f"/>
    <use x="146.785156" xlink:href="#DejaVuSans-56"/>
    <use x="215.193359" xlink:href="#DejaVuSans-49"/>
    <use x="244.685547" xlink:href="#DejaVuSans-44"/>
    <use x="321.6875" xlink:href="#DejaVuSans-2d"/>
    <use x="357.771484" xlink:href="#DejaVuSans-31"/>
    <use x="421.394531" xlink:href="#DejaVuSans-39"/>
    <use x="485.017578" xlink:href="#DejaVuSans-20"/>
    <use x="516.804688" xlink:href="#DejaVuSans-73"/>
    <use x="568.904297" xlink:href="#DejaVuSans-70"/>
    <use x="632.380859" xlink:href="#DejaVuSans-72"/>
    <use x="671.244141" xlink:href="#DejaVuSans-65"/>
    <use x="732.767578" xlink:href="#DejaVuSans-61"/>
    <use x="794.046875" xlink:href="#DejaVuSans-64"/>
    <use x="857.523438" xlink:href="#DejaVuSans-20"/>
    <use x="889.310547" xlink:href="#DejaVuSans-70"/>
    <use x="952.787109" xlink:href="#DejaVuSans-72"/>
    <use x="991.650391" xlink:href="#DejaVuSans-6f"/>
    <use x="1052.832031" xlink:href="#DejaVuSans-6a"/>
    <use x="1080.615234" xlink:href="#DejaVuSans-65"/>
    <use x="1142.138672" xlink:href="#DejaVuSans-63"/>
    <use x="1197.119141" xlink:href="#DejaVuSans-74"/>
    <use x="1236.328125" xlink:href="#DejaVuSans-69"/>
    <use x="1264.111328" xlink:href="#DejaVuSans-6f"/>
    <use x="1325.292969" xlink:href="#DejaVuSans-6e"/>
    <use x="1388.671875" xlink:href="#DejaVuSans-20"/>
    <use x="1420.458984" xlink:href="#DejaVuSans-75"/>
    <use x="1483.837891" xlink:href="#DejaVuSans-73"/>
    <use x="1535.9375" xlink:href="#DejaVuSans-69"/>
    <use x="1563.720703" xlink:href="#DejaVuSans-6e"/>
    <use x="1627.099609" xlink:href="#DejaVuSans-67"/>
    <use x="1690.576172" xlink:href="#DejaVuSans-20"/>
    <use x="1722.363281" xlink:href="#DejaVuSans-4c"/>
    <use x="1776.326172" xlink:href="#DejaVuSans-6f"/>
    <use x="1837.507812" xlink:href="#DejaVuSans-67"/>
    <use x="1900.984375" xlink:href="#DejaVuSans-69"/>
    <use x="1928.767578" xlink:href="#DejaVuSans-73"/>
    <use x="1980.867188" xlink:href="#DejaVuSans-74"/>
    <use x="2020.076172" xlink:href="#DejaVuSans-69"/>
    <use x="2047.859375" xlink:href="#DejaVuSans-63"/>
    <use x="2102.839844" xlink:href="#DejaVuSans-20"/>
    <use x="2134.626953" xlink:href="#DejaVuSans-6d"/>
    <use x="2232.039062" xlink:href="#DejaVuSans-61"/>
    <use x="2293.318359" xlink:href="#DejaVuSans-70"/>
   </g>
   <!-- assuming a carrying capacity of K=83M people and dt=4D tick time. -->
   <g transform="translate(148.644688 29.7555)scale(0.12 -0.12)">
    <defs>
     <path d="M 2375 4863 
L 2375 4384 
L 1825 4384 
Q 1516 4384 1395 4259 
Q 1275 4134 1275 3809 
L 1275 3500 
L 2222 3500 
L 2222 3053 
L 1275 3053 
L 1275 0 
L 697 0 
L 697 3053 
L 147 3053 
L 147 3500 
L 697 3500 
L 697 3744 
Q 697 4328 969 4595 
Q 1241 4863 1831 4863 
L 2375 4863 
z
" id="DejaVuSans-66" transform="scale(0.015625)"/>
     <path d="M 628 4666 
L 1259 4666 
L 1259 2694 
L 3353 4666 
L 4166 4666 
L 1850 2491 
L 4331 0 
L 3500 0 
L 1259 2247 
L 1259 0 
L 628 0 
L 628 4666 
z
" id="DejaVuSans-4b" transform="scale(0.015625)"/>
     <path d="M 678 2906 
L 4684 2906 
L 4684 2381 
L 678 2381 
L 678 2906 
z
M 678 1631 
L 4684 1631 
L 4684 1100 
L 678 1100 
L 678 1631 
z
" id="DejaVuSans-3d" transform="scale(0.015625)"/>
     <path d="M 2034 2216 
Q 1584 2216 1326 1975 
Q 1069 1734 1069 1313 
Q 1069 891 1326 650 
Q 1584 409 2034 409 
Q 2484 409 2743 651 
Q 3003 894 3003 1313 
Q 3003 1734 2745 1975 
Q 2488 2216 2034 2216 
z
M 1403 2484 
Q 997 2584 770 2862 
Q 544 3141 544 3541 
Q 544 4100 942 4425 
Q 1341 4750 2034 4750 
Q 2731 4750 3128 4425 
Q 3525 4100 3525 3541 
Q 3525 3141 3298 2862 
Q 3072 2584 2669 2484 
Q 3125 2378 3379 2068 
Q 3634 1759 3634 1313 
Q 3634 634 3220 271 
Q 2806 -91 2034 -91 
Q 1263 -91 848 271 
Q 434 634 434 1313 
Q 434 1759 690 2068 
Q 947 2378 1403 2484 
z
M 1172 3481 
Q 1172 3119 1398 2916 
Q 1625 2713 2034 2713 
Q 2441 2713 2670 2916 
Q 2900 3119 2900 3481 
Q 2900 3844 2670 4047 
Q 2441 4250 2034 4250 
Q 1625 4250 1398 4047 
Q 1172 3844 1172 3481 
z
" id="DejaVuSans-38" transform="scale(0.015625)"/>
     <path d="M 628 4666 
L 1569 4666 
L 2759 1491 
L 3956 4666 
L 4897 4666 
L 4897 0 
L 4281 0 
L 4281 4097 
L 3078 897 
L 2444 897 
L 1241 4097 
L 1241 0 
L 628 0 
L 628 4666 
z
" id="DejaVuSans-4d" transform="scale(0.015625)"/>
     <path d="M 2419 4116 
L 825 1625 
L 2419 1625 
L 2419 4116 
z
M 2253 4666 
L 3047 4666 
L 3047 1625 
L 3713 1625 
L 3713 1100 
L 3047 1100 
L 3047 0 
L 2419 0 
L 2419 1100 
L 313 1100 
L 313 1709 
L 2253 4666 
z
" id="DejaVuSans-34" transform="scale(0.015625)"/>
     <path d="M 581 4863 
L 1159 4863 
L 1159 1991 
L 2875 3500 
L 3609 3500 
L 1753 1863 
L 3688 0 
L 2938 0 
L 1159 1709 
L 1159 0 
L 581 0 
L 581 4863 
z
" id="DejaVuSans-6b" transform="scale(0.015625)"/>
    </defs>
    <use xlink:href="#DejaVuSans-61"/>
    <use x="61.279297" xlink:href="#DejaVuSans-73"/>
    <use x="113.378906" xlink:href="#DejaVuSans-73"/>
    <use x="165.478516" xlink:href="#DejaVuSans-75"/>
    <use x="228.857422" xlink:href="#DejaVuSans-6d"/>
    <use x="326.269531" xlink:href="#DejaVuSans-69"/>
    <use x="354.052734" xlink:href="#DejaVuSans-6e"/>
    <use x="417.431641" xlink:href="#DejaVuSans-67"/>
    <use x="480.908203" xlink:href="#DejaVuSans-20"/>
    <use x="512.695312" xlink:href="#DejaVuSans-61"/>
    <use x="573.974609" xlink:href="#DejaVuSans-20"/>
    <use x="605.761719" xlink:href="#DejaVuSans-63"/>
    <use x="660.742188" xlink:href="#DejaVuSans-61"/>
    <use x="722.021484" xlink:href="#DejaVuSans-72"/>
    <use x="761.384766" xlink:href="#DejaVuSans-72"/>
    <use x="802.498047" xlink:href="#DejaVuSans-79"/>
    <use x="861.677734" xlink:href="#DejaVuSans-69"/>
    <use x="889.460938" xlink:href="#DejaVuSans-6e"/>
    <use x="952.839844" xlink:href="#DejaVuSans-67"/>
    <use x="1016.316406" xlink:href="#DejaVuSans-20"/>
    <use x="1048.103516" xlink:href="#DejaVuSans-63"/>
    <use x="1103.083984" xlink:href="#DejaVuSans-61"/>
    <use x="1164.363281" xlink:href="#DejaVuSans-70"/>
    <use x="1227.839844" xlink:href="#DejaVuSans-61"/>
    <use x="1289.119141" xlink:href="#DejaVuSans-63"/>
    <use x="1344.099609" xlink:href="#DejaVuSans-69"/>
    <use x="1371.882812" xlink:href="#DejaVuSans-74"/>
    <use x="1411.091797" xlink:href="#DejaVuSans-79"/>
    <use x="1470.271484" xlink:href="#DejaVuSans-20"/>
    <use x="1502.058594" xlink:href="#DejaVuSans-6f"/>
    <use x="1563.240234" xlink:href="#DejaVuSans-66"/>
    <use x="1598.445312" xlink:href="#DejaVuSans-20"/>
    <use x="1630.232422" xlink:href="#DejaVuSans-4b"/>
    <use x="1695.808594" xlink:href="#DejaVuSans-3d"/>
    <use x="1779.597656" xlink:href="#DejaVuSans-38"/>
    <use x="1843.220703" xlink:href="#DejaVuSans-33"/>
    <use x="1906.84375" xlink:href="#DejaVuSans-4d"/>
    <use x="1993.123047" xlink:href="#DejaVuSans-20"/>
    <use x="2024.910156" xlink:href="#DejaVuSans-70"/>
    <use x="2088.386719" xlink:href="#DejaVuSans-65"/>
    <use x="2149.910156" xlink:href="#DejaVuSans-6f"/>
    <use x="2211.091797" xlink:href="#DejaVuSans-70"/>
    <use x="2274.568359" xlink:href="#DejaVuSans-6c"/>
    <use x="2302.351562" xlink:href="#DejaVuSans-65"/>
    <use x="2363.875" xlink:href="#DejaVuSans-20"/>
    <use x="2395.662109" xlink:href="#DejaVuSans-61"/>
    <use x="2456.941406" xlink:href="#DejaVuSans-6e"/>
    <use x="2520.320312" xlink:href="#DejaVuSans-64"/>
    <use x="2583.796875" xlink:href="#DejaVuSans-20"/>
    <use x="2615.583984" xlink:href="#DejaVuSans-64"/>
    <use x="2679.060547" xlink:href="#DejaVuSans-74"/>
    <use x="2718.269531" xlink:href="#DejaVuSans-3d"/>
    <use x="2802.058594" xlink:href="#DejaVuSans-34"/>
    <use x="2865.681641" xlink:href="#DejaVuSans-44"/>
    <use x="2942.683594" xlink:href="#DejaVuSans-20"/>
    <use x="2974.470703" xlink:href="#DejaVuSans-74"/>
    <use x="3013.679688" xlink:href="#DejaVuSans-69"/>
    <use x="3041.462891" xlink:href="#DejaVuSans-63"/>
    <use x="3096.443359" xlink:href="#DejaVuSans-6b"/>
    <use x="3154.353516" xlink:href="#DejaVuSans-20"/>
    <use x="3186.140625" xlink:href="#DejaVuSans-74"/>
    <use x="3225.349609" xlink:href="#DejaVuSans-69"/>
    <use x="3253.132812" xlink:href="#DejaVuSans-6d"/>
    <use x="3350.544922" xlink:href="#DejaVuSans-65"/>
    <use x="3412.068359" xlink:href="#DejaVuSans-2e"/>
   </g>
   <!-- created: 2021-05-23 author: @pschwede, source: JHU CSSE via @entorb &amp; @pomber. -->
   <g transform="translate(98.49875 43.192875)scale(0.12 -0.12)">
    <defs>
     <path d="M 750 794 
L 1409 794 
L 1409 0 
L 750 0 
L 750 794 
z
M 750 3309 
L 1409 3309 
L 1409 2516 
L 750 2516 
L 750 3309 
z
" id="DejaVuSans-3a" transform="scale(0.015625)"/>
     <path d="M 3513 2113 
L 3513 0 
L 2938 0 
L 2938 2094 
Q 2938 2591 2744 2837 
Q 2550 3084 2163 3084 
Q 1697 3084 1428 2787 
Q 1159 2491 1159 1978 
L 1159 0 
L 581 0 
L 581 4863 
L 1159 4863 
L 1159 2956 
Q 1366 3272 1645 3428 
Q 1925 3584 2291 3584 
Q 2894 3584 3203 3211 
Q 3513 2838 3513 2113 
z
" id="DejaVuSans-68" transform="scale(0.015625)"/>
     <path d="M 2381 1678 
Q 2381 1231 2603 976 
Q 2825 722 3213 722 
Q 3597 722 3817 978 
Q 4038 1234 4038 1678 
Q 4038 2116 3813 2373 
Q 3588 2631 3206 2631 
Q 2828 2631 2604 2375 
Q 2381 2119 2381 1678 
z
M 4084 744 
Q 3897 503 3655 389 
Q 3413 275 3091 275 
Q 2553 275 2217 664 
Q 1881 1053 1881 1678 
Q 1881 2303 2218 2693 
Q 2556 3084 3091 3084 
Q 3413 3084 3656 2967 
Q 3900 2850 4084 2613 
L 4084 3022 
L 4531 3022 
L 4531 722 
Q 4988 791 5245 1139 
Q 5503 1488 5503 2041 
Q 5503 2375 5404 2669 
Q 5306 2963 5106 3213 
Q 4781 3622 4314 3839 
Q 3847 4056 3297 4056 
Q 2913 4056 2559 3954 
Q 2206 3853 1906 3653 
Q 1416 3334 1139 2817 
Q 863 2300 863 1697 
Q 863 1200 1042 765 
Q 1222 331 1563 0 
Q 1891 -325 2322 -495 
Q 2753 -666 3244 -666 
Q 3647 -666 4036 -530 
Q 4425 -394 4750 -141 
L 5031 -488 
Q 4641 -791 4180 -952 
Q 3719 -1113 3244 -1113 
Q 2666 -1113 2153 -908 
Q 1641 -703 1241 -313 
Q 841 78 631 592 
Q 422 1106 422 1697 
Q 422 2266 634 2781 
Q 847 3297 1241 3688 
Q 1644 4084 2172 4295 
Q 2700 4506 3291 4506 
Q 3953 4506 4520 4234 
Q 5088 3963 5472 3463 
Q 5706 3156 5829 2797 
Q 5953 2438 5953 2053 
Q 5953 1231 5456 756 
Q 4959 281 4084 263 
L 4084 744 
z
" id="DejaVuSans-40" transform="scale(0.015625)"/>
     <path d="M 269 3500 
L 844 3500 
L 1563 769 
L 2278 3500 
L 2956 3500 
L 3675 769 
L 4391 3500 
L 4966 3500 
L 4050 0 
L 3372 0 
L 2619 2869 
L 1863 0 
L 1184 0 
L 269 3500 
z
" id="DejaVuSans-77" transform="scale(0.015625)"/>
     <path d="M 750 794 
L 1409 794 
L 1409 256 
L 897 -744 
L 494 -744 
L 750 256 
L 750 794 
z
" id="DejaVuSans-2c" transform="scale(0.015625)"/>
     <path d="M 628 4666 
L 1259 4666 
L 1259 2753 
L 3553 2753 
L 3553 4666 
L 4184 4666 
L 4184 0 
L 3553 0 
L 3553 2222 
L 1259 2222 
L 1259 0 
L 628 0 
L 628 4666 
z
" id="DejaVuSans-48" transform="scale(0.015625)"/>
     <path d="M 556 4666 
L 1191 4666 
L 1191 1831 
Q 1191 1081 1462 751 
Q 1734 422 2344 422 
Q 2950 422 3222 751 
Q 3494 1081 3494 1831 
L 3494 4666 
L 4128 4666 
L 4128 1753 
Q 4128 841 3676 375 
Q 3225 -91 2344 -91 
Q 1459 -91 1007 375 
Q 556 841 556 1753 
L 556 4666 
z
" id="DejaVuSans-55" transform="scale(0.015625)"/>
     <path d="M 3425 4513 
L 3425 3897 
Q 3066 4069 2747 4153 
Q 2428 4238 2131 4238 
Q 1616 4238 1336 4038 
Q 1056 3838 1056 3469 
Q 1056 3159 1242 3001 
Q 1428 2844 1947 2747 
L 2328 2669 
Q 3034 2534 3370 2195 
Q 3706 1856 3706 1288 
Q 3706 609 3251 259 
Q 2797 -91 1919 -91 
Q 1588 -91 1214 -16 
Q 841 59 441 206 
L 441 856 
Q 825 641 1194 531 
Q 1563 422 1919 422 
Q 2459 422 2753 634 
Q 3047 847 3047 1241 
Q 3047 1584 2836 1778 
Q 2625 1972 2144 2069 
L 1759 2144 
Q 1053 2284 737 2584 
Q 422 2884 422 3419 
Q 422 4038 858 4394 
Q 1294 4750 2059 4750 
Q 2388 4750 2728 4690 
Q 3069 4631 3425 4513 
z
" id="DejaVuSans-53" transform="scale(0.015625)"/>
     <path d="M 628 4666 
L 3578 4666 
L 3578 4134 
L 1259 4134 
L 1259 2753 
L 3481 2753 
L 3481 2222 
L 1259 2222 
L 1259 531 
L 3634 531 
L 3634 0 
L 628 0 
L 628 4666 
z
" id="DejaVuSans-45" transform="scale(0.015625)"/>
     <path d="M 3116 1747 
Q 3116 2381 2855 2742 
Q 2594 3103 2138 3103 
Q 1681 3103 1420 2742 
Q 1159 2381 1159 1747 
Q 1159 1113 1420 752 
Q 1681 391 2138 391 
Q 2594 391 2855 752 
Q 3116 1113 3116 1747 
z
M 1159 2969 
Q 1341 3281 1617 3432 
Q 1894 3584 2278 3584 
Q 2916 3584 3314 3078 
Q 3713 2572 3713 1747 
Q 3713 922 3314 415 
Q 2916 -91 2278 -91 
Q 1894 -91 1617 61 
Q 1341 213 1159 525 
L 1159 0 
L 581 0 
L 581 4863 
L 1159 4863 
L 1159 2969 
z
" id="DejaVuSans-62" transform="scale(0.015625)"/>
     <path d="M 1556 2509 
Q 1272 2256 1139 2004 
Q 1006 1753 1006 1478 
Q 1006 1022 1337 719 
Q 1669 416 2169 416 
Q 2466 416 2725 514 
Q 2984 613 3213 813 
L 1556 2509 
z
M 1997 2859 
L 3584 1234 
Q 3769 1513 3872 1830 
Q 3975 2147 3994 2503 
L 4575 2503 
Q 4538 2091 4375 1687 
Q 4213 1284 3922 891 
L 4794 0 
L 4006 0 
L 3559 459 
Q 3234 181 2878 45 
Q 2522 -91 2113 -91 
Q 1359 -91 881 339 
Q 403 769 403 1441 
Q 403 1841 612 2192 
Q 822 2544 1241 2853 
Q 1091 3050 1012 3245 
Q 934 3441 934 3628 
Q 934 4134 1281 4442 
Q 1628 4750 2203 4750 
Q 2463 4750 2720 4694 
Q 2978 4638 3244 4525 
L 3244 3956 
Q 2972 4103 2725 4179 
Q 2478 4256 2266 4256 
Q 1938 4256 1733 4082 
Q 1528 3909 1528 3634 
Q 1528 3475 1620 3314 
Q 1713 3153 1997 2859 
z
" id="DejaVuSans-26" transform="scale(0.015625)"/>
    </defs>
    <use xlink:href="#DejaVuSans-63"/>
    <use x="54.980469" xlink:href="#DejaVuSans-72"/>
    <use x="93.84375" xlink:href="#DejaVuSans-65"/>
    <use x="155.367188" xlink:href="#DejaVuSans-61"/>
    <use x="216.646484" xlink:href="#DejaVuSans-74"/>
    <use x="255.855469" xlink:href="#DejaVuSans-65"/>
    <use x="317.378906" xlink:href="#DejaVuSans-64"/>
    <use x="380.855469" xlink:href="#DejaVuSans-3a"/>
    <use x="414.546875" xlink:href="#DejaVuSans-20"/>
    <use x="446.333984" xlink:href="#DejaVuSans-32"/>
    <use x="509.957031" xlink:href="#DejaVuSans-30"/>
    <use x="573.580078" xlink:href="#DejaVuSans-32"/>
    <use x="637.203125" xlink:href="#DejaVuSans-31"/>
    <use x="700.826172" xlink:href="#DejaVuSans-2d"/>
    <use x="736.910156" xlink:href="#DejaVuSans-30"/>
    <use x="800.533203" xlink:href="#DejaVuSans-35"/>
    <use x="864.15625" xlink:href="#DejaVuSans-2d"/>
    <use x="900.240234" xlink:href="#DejaVuSans-32"/>
    <use x="963.863281" xlink:href="#DejaVuSans-33"/>
    <use x="1027.486328" xlink:href="#DejaVuSans-20"/>
    <use x="1059.273438" xlink:href="#DejaVuSans-61"/>
    <use x="1120.552734" xlink:href="#DejaVuSans-75"/>
    <use x="1183.931641" xlink:href="#DejaVuSans-74"/>
    <use x="1223.140625" xlink:href="#DejaVuSans-68"/>
    <use x="1286.519531" xlink:href="#DejaVuSans-6f"/>
    <use x="1347.701172" xlink:href="#DejaVuSans-72"/>
    <use x="1387.064453" xlink:href="#DejaVuSans-3a"/>
    <use x="1420.755859" xlink:href="#DejaVuSans-20"/>
    <use x="1452.542969" xlink:href="#DejaVuSans-40"/>
    <use x="1552.542969" xlink:href="#DejaVuSans-70"/>
    <use x="1616.019531" xlink:href="#DejaVuSans-73"/>
    <use x="1668.119141" xlink:href="#DejaVuSans-63"/>
    <use x="1723.099609" xlink:href="#DejaVuSans-68"/>
    <use x="1786.478516" xlink:href="#DejaVuSans-77"/>
    <use x="1868.265625" xlink:href="#DejaVuSans-65"/>
    <use x="1929.789062" xlink:href="#DejaVuSans-64"/>
    <use x="1993.265625" xlink:href="#DejaVuSans-65"/>
    <use x="2054.789062" xlink:href="#DejaVuSans-2c"/>
    <use x="2086.576172" xlink:href="#DejaVuSans-20"/>
    <use x="2118.363281" xlink:href="#DejaVuSans-73"/>
    <use x="2170.462891" xlink:href="#DejaVuSans-6f"/>
    <use x="2231.644531" xlink:href="#DejaVuSans-75"/>
    <use x="2295.023438" xlink:href="#DejaVuSans-72"/>
    <use x="2333.886719" xlink:href="#DejaVuSans-63"/>
    <use x="2388.867188" xlink:href="#DejaVuSans-65"/>
    <use x="2450.390625" xlink:href="#DejaVuSans-3a"/>
    <use x="2484.082031" xlink:href="#DejaVuSans-20"/>
    <use x="2515.869141" xlink:href="#DejaVuSans-4a"/>
    <use x="2545.361328" xlink:href="#DejaVuSans-48"/>
    <use x="2620.556641" xlink:href="#DejaVuSans-55"/>
    <use x="2693.75" xlink:href="#DejaVuSans-20"/>
    <use x="2725.537109" xlink:href="#DejaVuSans-43"/>
    <use x="2795.361328" xlink:href="#DejaVuSans-53"/>
    <use x="2858.837891" xlink:href="#DejaVuSans-53"/>
    <use x="2922.314453" xlink:href="#DejaVuSans-45"/>
    <use x="2985.498047" xlink:href="#DejaVuSans-20"/>
    <use x="3017.285156" xlink:href="#DejaVuSans-76"/>
    <use x="3076.464844" xlink:href="#DejaVuSans-69"/>
    <use x="3104.248047" xlink:href="#DejaVuSans-61"/>
    <use x="3165.527344" xlink:href="#DejaVuSans-20"/>
    <use x="3197.314453" xlink:href="#DejaVuSans-40"/>
    <use x="3297.314453" xlink:href="#DejaVuSans-65"/>
    <use x="3358.837891" xlink:href="#DejaVuSans-6e"/>
    <use x="3422.216797" xlink:href="#DejaVuSans-74"/>
    <use x="3461.425781" xlink:href="#DejaVuSans-6f"/>
    <use x="3522.607422" xlink:href="#DejaVuSans-72"/>
    <use x="3563.720703" xlink:href="#DejaVuSans-62"/>
    <use x="3627.197266" xlink:href="#DejaVuSans-20"/>
    <use x="3658.984375" xlink:href="#DejaVuSans-26"/>
    <use x="3736.962891" xlink:href="#DejaVuSans-20"/>
    <use x="3768.75" xlink:href="#DejaVuSans-40"/>
    <use x="3868.75" xlink:href="#DejaVuSans-70"/>
    <use x="3932.226562" xlink:href="#DejaVuSans-6f"/>
    <use x="3993.408203" xlink:href="#DejaVuSans-6d"/>
    <use x="4090.820312" xlink:href="#DejaVuSans-62"/>
    <use x="4154.296875" xlink:href="#DejaVuSans-65"/>
    <use x="4215.820312" xlink:href="#DejaVuSans-72"/>
    <use x="4247.808594" xlink:href="#DejaVuSans-2e"/>
   </g>
  </g>
 </g>
 <defs>
  <clipPath id="p81ca602144">
   <rect height="198.960412" width="642.85" x="61.62625" y="102.072"/>
  </clipPath>
  <clipPath id="pa59ca74f03">
   <rect height="198.960412" width="642.85" x="61.62625" y="313.679588"/>
  </clipPath>
 </defs>
</svg>
