<?xml version="1.0" encoding="utf-8" standalone="no"?>
<!DOCTYPE svg PUBLIC "-//W3C//DTD SVG 1.1//EN"
  "http://www.w3.org/Graphics/SVG/1.1/DTD/svg11.dtd">
<svg height="573.257842pt" version="1.1" viewBox="0 0 711.73875 573.257842" width="711.73875pt" xmlns="http://www.w3.org/2000/svg" xmlns:xlink="http://www.w3.org/1999/xlink">
 <metadata>
  <rdf:RDF xmlns:cc="http://creativecommons.org/ns#" xmlns:dc="http://purl.org/dc/elements/1.1/" xmlns:rdf="http://www.w3.org/1999/02/22-rdf-syntax-ns#">
   <cc:Work>
    <dc:type rdf:resource="http://purl.org/dc/dcmitype/StillImage"/>
    <dc:date>2021-06-08T13:03:23.719640</dc:date>
    <dc:format>image/svg+xml</dc:format>
    <dc:creator>
     <cc:Agent>
      <dc:title>Matplotlib v3.4.2, https://matplotlib.org/</dc:title>
     </cc:Agent>
    </dc:creator>
   </cc:Work>
  </rdf:RDF>
 </metadata>
 <defs>
  <style type="text/css">*{stroke-linecap:butt;stroke-linejoin:round;}</style>
 </defs>
 <g id="figure_1">
  <g id="patch_1">
   <path d="M 0 573.257842 
L 711.73875 573.257842 
L 711.73875 0 
L 0 0 
z
" style="fill:#ffffff;"/>
  </g>
  <g id="axes_1">
   <g id="patch_2">
    <path d="M 67.98875 301.032412 
L 704.53875 301.032412 
L 704.53875 102.072 
L 67.98875 102.072 
z
" style="fill:#e5e5e5;"/>
   </g>
   <g id="matplotlib.axis_1">
    <g id="xtick_1">
     <g id="line2d_1">
      <defs>
       <path d="M 0 0 
L 0 3.5 
" id="m449def3b3d" style="stroke:#555555;stroke-width:0.8;"/>
      </defs>
      <g>
       <use style="fill:#555555;stroke:#555555;stroke-width:0.8;" x="67.98875" xlink:href="#m449def3b3d" y="301.032412"/>
      </g>
     </g>
    </g>
    <g id="xtick_2">
     <g id="line2d_2">
      <g>
       <use style="fill:#555555;stroke:#555555;stroke-width:0.8;" x="119.501467" xlink:href="#m449def3b3d" y="301.032412"/>
      </g>
     </g>
    </g>
    <g id="xtick_3">
     <g id="line2d_3">
      <g>
       <use style="fill:#555555;stroke:#555555;stroke-width:0.8;" x="186.467999" xlink:href="#m449def3b3d" y="301.032412"/>
      </g>
     </g>
    </g>
    <g id="xtick_4">
     <g id="line2d_4">
      <g>
       <use style="fill:#555555;stroke:#555555;stroke-width:0.8;" x="254.170426" xlink:href="#m449def3b3d" y="301.032412"/>
      </g>
     </g>
    </g>
    <g id="xtick_5">
     <g id="line2d_5">
      <g>
       <use style="fill:#555555;stroke:#555555;stroke-width:0.8;" x="321.872854" xlink:href="#m449def3b3d" y="301.032412"/>
      </g>
     </g>
    </g>
    <g id="xtick_6">
     <g id="line2d_6">
      <g>
       <use style="fill:#555555;stroke:#555555;stroke-width:0.8;" x="388.10349" xlink:href="#m449def3b3d" y="301.032412"/>
      </g>
     </g>
    </g>
    <g id="xtick_7">
     <g id="line2d_7">
      <g>
       <use style="fill:#555555;stroke:#555555;stroke-width:0.8;" x="455.070022" xlink:href="#m449def3b3d" y="301.032412"/>
      </g>
     </g>
    </g>
    <g id="xtick_8">
     <g id="line2d_8">
      <g>
       <use style="fill:#555555;stroke:#555555;stroke-width:0.8;" x="522.772449" xlink:href="#m449def3b3d" y="301.032412"/>
      </g>
     </g>
    </g>
    <g id="xtick_9">
     <g id="line2d_9">
      <g>
       <use style="fill:#555555;stroke:#555555;stroke-width:0.8;" x="590.474877" xlink:href="#m449def3b3d" y="301.032412"/>
      </g>
     </g>
    </g>
    <g id="xtick_10">
     <g id="line2d_10">
      <g>
       <use style="fill:#555555;stroke:#555555;stroke-width:0.8;" x="656.705513" xlink:href="#m449def3b3d" y="301.032412"/>
      </g>
     </g>
    </g>
    <g id="xtick_11">
     <g id="line2d_11">
      <g>
       <use style="fill:#555555;stroke:#555555;stroke-width:0.8;" x="704.53875" xlink:href="#m449def3b3d" y="301.032412"/>
      </g>
     </g>
    </g>
    <g id="xtick_12">
     <g id="line2d_12">
      <defs>
       <path d="M 0 0 
L 0 2 
" id="md91576700d" style="stroke:#555555;stroke-width:0.6;"/>
      </defs>
      <g>
       <use style="fill:#555555;stroke:#555555;stroke-width:0.6;" x="75.34771" xlink:href="#md91576700d" y="301.032412"/>
      </g>
     </g>
    </g>
    <g id="xtick_13">
     <g id="line2d_13">
      <g>
       <use style="fill:#555555;stroke:#555555;stroke-width:0.6;" x="96.688692" xlink:href="#md91576700d" y="301.032412"/>
      </g>
     </g>
    </g>
    <g id="xtick_14">
     <g id="line2d_14">
      <g>
       <use style="fill:#555555;stroke:#555555;stroke-width:0.6;" x="141.578345" xlink:href="#md91576700d" y="301.032412"/>
      </g>
     </g>
    </g>
    <g id="xtick_15">
     <g id="line2d_15">
      <g>
       <use style="fill:#555555;stroke:#555555;stroke-width:0.6;" x="164.39112" xlink:href="#md91576700d" y="301.032412"/>
      </g>
     </g>
    </g>
    <g id="xtick_16">
     <g id="line2d_16">
      <g>
       <use style="fill:#555555;stroke:#555555;stroke-width:0.6;" x="209.280773" xlink:href="#md91576700d" y="301.032412"/>
      </g>
     </g>
    </g>
    <g id="xtick_17">
     <g id="line2d_17">
      <g>
       <use style="fill:#555555;stroke:#555555;stroke-width:0.6;" x="232.093548" xlink:href="#md91576700d" y="301.032412"/>
      </g>
     </g>
    </g>
    <g id="xtick_18">
     <g id="line2d_18">
      <g>
       <use style="fill:#555555;stroke:#555555;stroke-width:0.6;" x="276.983201" xlink:href="#md91576700d" y="301.032412"/>
      </g>
     </g>
    </g>
    <g id="xtick_19">
     <g id="line2d_19">
      <g>
       <use style="fill:#555555;stroke:#555555;stroke-width:0.6;" x="299.060079" xlink:href="#md91576700d" y="301.032412"/>
      </g>
     </g>
    </g>
    <g id="xtick_20">
     <g id="line2d_20">
      <g>
       <use style="fill:#555555;stroke:#555555;stroke-width:0.6;" x="344.685629" xlink:href="#md91576700d" y="301.032412"/>
      </g>
     </g>
    </g>
    <g id="xtick_21">
     <g id="line2d_21">
      <g>
       <use style="fill:#555555;stroke:#555555;stroke-width:0.6;" x="365.290715" xlink:href="#md91576700d" y="301.032412"/>
      </g>
     </g>
    </g>
    <g id="xtick_22">
     <g id="line2d_22">
      <g>
       <use style="fill:#555555;stroke:#555555;stroke-width:0.6;" x="410.180368" xlink:href="#md91576700d" y="301.032412"/>
      </g>
     </g>
    </g>
    <g id="xtick_23">
     <g id="line2d_23">
      <g>
       <use style="fill:#555555;stroke:#555555;stroke-width:0.6;" x="432.993143" xlink:href="#md91576700d" y="301.032412"/>
      </g>
     </g>
    </g>
    <g id="xtick_24">
     <g id="line2d_24">
      <g>
       <use style="fill:#555555;stroke:#555555;stroke-width:0.6;" x="477.882796" xlink:href="#md91576700d" y="301.032412"/>
      </g>
     </g>
    </g>
    <g id="xtick_25">
     <g id="line2d_25">
      <g>
       <use style="fill:#555555;stroke:#555555;stroke-width:0.6;" x="500.695571" xlink:href="#md91576700d" y="301.032412"/>
      </g>
     </g>
    </g>
    <g id="xtick_26">
     <g id="line2d_26">
      <g>
       <use style="fill:#555555;stroke:#555555;stroke-width:0.6;" x="545.585224" xlink:href="#md91576700d" y="301.032412"/>
      </g>
     </g>
    </g>
    <g id="xtick_27">
     <g id="line2d_27">
      <g>
       <use style="fill:#555555;stroke:#555555;stroke-width:0.6;" x="567.662103" xlink:href="#md91576700d" y="301.032412"/>
      </g>
     </g>
    </g>
    <g id="xtick_28">
     <g id="line2d_28">
      <g>
       <use style="fill:#555555;stroke:#555555;stroke-width:0.6;" x="613.287652" xlink:href="#md91576700d" y="301.032412"/>
      </g>
     </g>
    </g>
    <g id="xtick_29">
     <g id="line2d_29">
      <g>
       <use style="fill:#555555;stroke:#555555;stroke-width:0.6;" x="633.892738" xlink:href="#md91576700d" y="301.032412"/>
      </g>
     </g>
    </g>
    <g id="xtick_30">
     <g id="line2d_30">
      <g>
       <use style="fill:#555555;stroke:#555555;stroke-width:0.6;" x="678.782392" xlink:href="#md91576700d" y="301.032412"/>
      </g>
     </g>
    </g>
    <g id="xtick_31">
     <g id="line2d_31">
      <g>
       <use style="fill:#555555;stroke:#555555;stroke-width:0.6;" x="701.595166" xlink:href="#md91576700d" y="301.032412"/>
      </g>
     </g>
    </g>
   </g>
   <g id="matplotlib.axis_2">
    <g id="ytick_1">
     <g id="line2d_32">
      <defs>
       <path d="M 0 0 
L -3.5 0 
" id="m0a2b6b7156" style="stroke:#555555;stroke-width:0.8;"/>
      </defs>
      <g>
       <use style="fill:#555555;stroke:#555555;stroke-width:0.8;" x="67.98875" xlink:href="#m0a2b6b7156" y="291.988763"/>
      </g>
     </g>
     <g id="text_1">
      <!-- 0.0 -->
      <g style="fill:#555555;" transform="translate(45.085625 295.787981)scale(0.1 -0.1)">
       <defs>
        <path d="M 2034 4250 
Q 1547 4250 1301 3770 
Q 1056 3291 1056 2328 
Q 1056 1369 1301 889 
Q 1547 409 2034 409 
Q 2525 409 2770 889 
Q 3016 1369 3016 2328 
Q 3016 3291 2770 3770 
Q 2525 4250 2034 4250 
z
M 2034 4750 
Q 2819 4750 3233 4129 
Q 3647 3509 3647 2328 
Q 3647 1150 3233 529 
Q 2819 -91 2034 -91 
Q 1250 -91 836 529 
Q 422 1150 422 2328 
Q 422 3509 836 4129 
Q 1250 4750 2034 4750 
z
" id="DejaVuSans-30" transform="scale(0.015625)"/>
        <path d="M 684 794 
L 1344 794 
L 1344 0 
L 684 0 
L 684 794 
z
" id="DejaVuSans-2e" transform="scale(0.015625)"/>
       </defs>
       <use xlink:href="#DejaVuSans-30"/>
       <use x="63.623047" xlink:href="#DejaVuSans-2e"/>
       <use x="95.410156" xlink:href="#DejaVuSans-30"/>
      </g>
     </g>
    </g>
    <g id="ytick_2">
     <g id="line2d_33">
      <g>
       <use style="fill:#555555;stroke:#555555;stroke-width:0.8;" x="67.98875" xlink:href="#m0a2b6b7156" y="264.952338"/>
      </g>
     </g>
     <g id="text_2">
      <!-- 0.5 -->
      <g style="fill:#555555;" transform="translate(45.085625 268.751557)scale(0.1 -0.1)">
       <defs>
        <path d="M 691 4666 
L 3169 4666 
L 3169 4134 
L 1269 4134 
L 1269 2991 
Q 1406 3038 1543 3061 
Q 1681 3084 1819 3084 
Q 2600 3084 3056 2656 
Q 3513 2228 3513 1497 
Q 3513 744 3044 326 
Q 2575 -91 1722 -91 
Q 1428 -91 1123 -41 
Q 819 9 494 109 
L 494 744 
Q 775 591 1075 516 
Q 1375 441 1709 441 
Q 2250 441 2565 725 
Q 2881 1009 2881 1497 
Q 2881 1984 2565 2268 
Q 2250 2553 1709 2553 
Q 1456 2553 1204 2497 
Q 953 2441 691 2322 
L 691 4666 
z
" id="DejaVuSans-35" transform="scale(0.015625)"/>
       </defs>
       <use xlink:href="#DejaVuSans-30"/>
       <use x="63.623047" xlink:href="#DejaVuSans-2e"/>
       <use x="95.410156" xlink:href="#DejaVuSans-35"/>
      </g>
     </g>
    </g>
    <g id="ytick_3">
     <g id="line2d_34">
      <g>
       <use style="fill:#555555;stroke:#555555;stroke-width:0.8;" x="67.98875" xlink:href="#m0a2b6b7156" y="237.915914"/>
      </g>
     </g>
     <g id="text_3">
      <!-- 1.0 -->
      <g style="fill:#555555;" transform="translate(45.085625 241.715133)scale(0.1 -0.1)">
       <defs>
        <path d="M 794 531 
L 1825 531 
L 1825 4091 
L 703 3866 
L 703 4441 
L 1819 4666 
L 2450 4666 
L 2450 531 
L 3481 531 
L 3481 0 
L 794 0 
L 794 531 
z
" id="DejaVuSans-31" transform="scale(0.015625)"/>
       </defs>
       <use xlink:href="#DejaVuSans-31"/>
       <use x="63.623047" xlink:href="#DejaVuSans-2e"/>
       <use x="95.410156" xlink:href="#DejaVuSans-30"/>
      </g>
     </g>
    </g>
    <g id="ytick_4">
     <g id="line2d_35">
      <g>
       <use style="fill:#555555;stroke:#555555;stroke-width:0.8;" x="67.98875" xlink:href="#m0a2b6b7156" y="210.87949"/>
      </g>
     </g>
     <g id="text_4">
      <!-- 1.5 -->
      <g style="fill:#555555;" transform="translate(45.085625 214.678708)scale(0.1 -0.1)">
       <use xlink:href="#DejaVuSans-31"/>
       <use x="63.623047" xlink:href="#DejaVuSans-2e"/>
       <use x="95.410156" xlink:href="#DejaVuSans-35"/>
      </g>
     </g>
    </g>
    <g id="ytick_5">
     <g id="line2d_36">
      <g>
       <use style="fill:#555555;stroke:#555555;stroke-width:0.8;" x="67.98875" xlink:href="#m0a2b6b7156" y="183.843065"/>
      </g>
     </g>
     <g id="text_5">
      <!-- 2.0 -->
      <g style="fill:#555555;" transform="translate(45.085625 187.642284)scale(0.1 -0.1)">
       <defs>
        <path d="M 1228 531 
L 3431 531 
L 3431 0 
L 469 0 
L 469 531 
Q 828 903 1448 1529 
Q 2069 2156 2228 2338 
Q 2531 2678 2651 2914 
Q 2772 3150 2772 3378 
Q 2772 3750 2511 3984 
Q 2250 4219 1831 4219 
Q 1534 4219 1204 4116 
Q 875 4013 500 3803 
L 500 4441 
Q 881 4594 1212 4672 
Q 1544 4750 1819 4750 
Q 2544 4750 2975 4387 
Q 3406 4025 3406 3419 
Q 3406 3131 3298 2873 
Q 3191 2616 2906 2266 
Q 2828 2175 2409 1742 
Q 1991 1309 1228 531 
z
" id="DejaVuSans-32" transform="scale(0.015625)"/>
       </defs>
       <use xlink:href="#DejaVuSans-32"/>
       <use x="63.623047" xlink:href="#DejaVuSans-2e"/>
       <use x="95.410156" xlink:href="#DejaVuSans-30"/>
      </g>
     </g>
    </g>
    <g id="ytick_6">
     <g id="line2d_37">
      <g>
       <use style="fill:#555555;stroke:#555555;stroke-width:0.8;" x="67.98875" xlink:href="#m0a2b6b7156" y="156.806641"/>
      </g>
     </g>
     <g id="text_6">
      <!-- 2.5 -->
      <g style="fill:#555555;" transform="translate(45.085625 160.60586)scale(0.1 -0.1)">
       <use xlink:href="#DejaVuSans-32"/>
       <use x="63.623047" xlink:href="#DejaVuSans-2e"/>
       <use x="95.410156" xlink:href="#DejaVuSans-35"/>
      </g>
     </g>
    </g>
    <g id="ytick_7">
     <g id="line2d_38">
      <g>
       <use style="fill:#555555;stroke:#555555;stroke-width:0.8;" x="67.98875" xlink:href="#m0a2b6b7156" y="129.770217"/>
      </g>
     </g>
     <g id="text_7">
      <!-- 3.0 -->
      <g style="fill:#555555;" transform="translate(45.085625 133.569435)scale(0.1 -0.1)">
       <defs>
        <path d="M 2597 2516 
Q 3050 2419 3304 2112 
Q 3559 1806 3559 1356 
Q 3559 666 3084 287 
Q 2609 -91 1734 -91 
Q 1441 -91 1130 -33 
Q 819 25 488 141 
L 488 750 
Q 750 597 1062 519 
Q 1375 441 1716 441 
Q 2309 441 2620 675 
Q 2931 909 2931 1356 
Q 2931 1769 2642 2001 
Q 2353 2234 1838 2234 
L 1294 2234 
L 1294 2753 
L 1863 2753 
Q 2328 2753 2575 2939 
Q 2822 3125 2822 3475 
Q 2822 3834 2567 4026 
Q 2313 4219 1838 4219 
Q 1578 4219 1281 4162 
Q 984 4106 628 3988 
L 628 4550 
Q 988 4650 1302 4700 
Q 1616 4750 1894 4750 
Q 2613 4750 3031 4423 
Q 3450 4097 3450 3541 
Q 3450 3153 3228 2886 
Q 3006 2619 2597 2516 
z
" id="DejaVuSans-33" transform="scale(0.015625)"/>
       </defs>
       <use xlink:href="#DejaVuSans-33"/>
       <use x="63.623047" xlink:href="#DejaVuSans-2e"/>
       <use x="95.410156" xlink:href="#DejaVuSans-30"/>
      </g>
     </g>
    </g>
    <g id="ytick_8">
     <g id="line2d_39">
      <g>
       <use style="fill:#555555;stroke:#555555;stroke-width:0.8;" x="67.98875" xlink:href="#m0a2b6b7156" y="102.733792"/>
      </g>
     </g>
     <g id="text_8">
      <!-- 3.5 -->
      <g style="fill:#555555;" transform="translate(45.085625 106.533011)scale(0.1 -0.1)">
       <use xlink:href="#DejaVuSans-33"/>
       <use x="63.623047" xlink:href="#DejaVuSans-2e"/>
       <use x="95.410156" xlink:href="#DejaVuSans-35"/>
      </g>
     </g>
    </g>
    <g id="text_9">
     <!-- Total -->
     <g style="fill:#555555;" transform="translate(38.59 215.564081)rotate(-90)scale(0.12 -0.12)">
      <defs>
       <path d="M -19 4666 
L 3928 4666 
L 3928 4134 
L 2272 4134 
L 2272 0 
L 1638 0 
L 1638 4134 
L -19 4134 
L -19 4666 
z
" id="DejaVuSans-54" transform="scale(0.015625)"/>
       <path d="M 1959 3097 
Q 1497 3097 1228 2736 
Q 959 2375 959 1747 
Q 959 1119 1226 758 
Q 1494 397 1959 397 
Q 2419 397 2687 759 
Q 2956 1122 2956 1747 
Q 2956 2369 2687 2733 
Q 2419 3097 1959 3097 
z
M 1959 3584 
Q 2709 3584 3137 3096 
Q 3566 2609 3566 1747 
Q 3566 888 3137 398 
Q 2709 -91 1959 -91 
Q 1206 -91 779 398 
Q 353 888 353 1747 
Q 353 2609 779 3096 
Q 1206 3584 1959 3584 
z
" id="DejaVuSans-6f" transform="scale(0.015625)"/>
       <path d="M 1172 4494 
L 1172 3500 
L 2356 3500 
L 2356 3053 
L 1172 3053 
L 1172 1153 
Q 1172 725 1289 603 
Q 1406 481 1766 481 
L 2356 481 
L 2356 0 
L 1766 0 
Q 1100 0 847 248 
Q 594 497 594 1153 
L 594 3053 
L 172 3053 
L 172 3500 
L 594 3500 
L 594 4494 
L 1172 4494 
z
" id="DejaVuSans-74" transform="scale(0.015625)"/>
       <path d="M 2194 1759 
Q 1497 1759 1228 1600 
Q 959 1441 959 1056 
Q 959 750 1161 570 
Q 1363 391 1709 391 
Q 2188 391 2477 730 
Q 2766 1069 2766 1631 
L 2766 1759 
L 2194 1759 
z
M 3341 1997 
L 3341 0 
L 2766 0 
L 2766 531 
Q 2569 213 2275 61 
Q 1981 -91 1556 -91 
Q 1019 -91 701 211 
Q 384 513 384 1019 
Q 384 1609 779 1909 
Q 1175 2209 1959 2209 
L 2766 2209 
L 2766 2266 
Q 2766 2663 2505 2880 
Q 2244 3097 1772 3097 
Q 1472 3097 1187 3025 
Q 903 2953 641 2809 
L 641 3341 
Q 956 3463 1253 3523 
Q 1550 3584 1831 3584 
Q 2591 3584 2966 3190 
Q 3341 2797 3341 1997 
z
" id="DejaVuSans-61" transform="scale(0.015625)"/>
       <path d="M 603 4863 
L 1178 4863 
L 1178 0 
L 603 0 
L 603 4863 
z
" id="DejaVuSans-6c" transform="scale(0.015625)"/>
      </defs>
      <use xlink:href="#DejaVuSans-54"/>
      <use x="44.083984" xlink:href="#DejaVuSans-6f"/>
      <use x="105.265625" xlink:href="#DejaVuSans-74"/>
      <use x="144.474609" xlink:href="#DejaVuSans-61"/>
      <use x="205.753906" xlink:href="#DejaVuSans-6c"/>
     </g>
    </g>
    <g id="text_10">
     <!-- 1e7 -->
     <g style="fill:#555555;" transform="translate(67.98875 99.072)scale(0.1 -0.1)">
      <defs>
       <path d="M 3597 1894 
L 3597 1613 
L 953 1613 
Q 991 1019 1311 708 
Q 1631 397 2203 397 
Q 2534 397 2845 478 
Q 3156 559 3463 722 
L 3463 178 
Q 3153 47 2828 -22 
Q 2503 -91 2169 -91 
Q 1331 -91 842 396 
Q 353 884 353 1716 
Q 353 2575 817 3079 
Q 1281 3584 2069 3584 
Q 2775 3584 3186 3129 
Q 3597 2675 3597 1894 
z
M 3022 2063 
Q 3016 2534 2758 2815 
Q 2500 3097 2075 3097 
Q 1594 3097 1305 2825 
Q 1016 2553 972 2059 
L 3022 2063 
z
" id="DejaVuSans-65" transform="scale(0.015625)"/>
       <path d="M 525 4666 
L 3525 4666 
L 3525 4397 
L 1831 0 
L 1172 0 
L 2766 4134 
L 525 4134 
L 525 4666 
z
" id="DejaVuSans-37" transform="scale(0.015625)"/>
      </defs>
      <use xlink:href="#DejaVuSans-31"/>
      <use x="63.623047" xlink:href="#DejaVuSans-65"/>
      <use x="125.146484" xlink:href="#DejaVuSans-37"/>
     </g>
    </g>
   </g>
   <g id="line2d_40">
    <path clip-path="url(#p9a0016a323)" d="M 67.98875 291.988757 
L 112.142507 291.899947 
L 115.821987 291.660674 
L 119.501467 291.1824 
L 123.180947 290.429534 
L 133.48349 288.133306 
L 148.937305 285.006989 
L 161.447536 282.951387 
L 177.637247 280.405297 
L 181.316727 279.627619 
L 184.996207 278.625523 
L 188.675686 277.399078 
L 193.091062 275.712666 
L 197.506438 273.716261 
L 211.488461 267.054504 
L 217.375629 264.708478 
L 223.262796 262.556166 
L 232.093548 259.816404 
L 238.716611 257.902457 
L 244.603779 256.290348 
L 250.490947 254.426268 
L 263.001178 250.259984 
L 267.416553 248.45334 
L 271.096033 246.716843 
L 275.511409 244.299211 
L 277.719097 242.908197 
L 279.926785 241.271416 
L 282.870368 238.764717 
L 285.078056 236.666321 
L 288.02164 233.431317 
L 290.965224 229.84551 
L 302.003663 215.793014 
L 304.947247 211.302668 
L 317.457478 191.725758 
L 322.60875 184.54483 
L 326.28823 178.54631 
L 331.439501 169.203944 
L 333.647189 165.557211 
L 335.854877 162.290391 
L 338.062565 159.336962 
L 341.742045 154.84804 
L 344.685629 151.586012 
L 346.893316 149.36635 
L 349.101004 147.391878 
L 352.044588 145.083825 
L 354.988172 143.087004 
L 357.931756 141.455678 
L 368.970195 136.059963 
L 374.121467 133.921682 
L 382.952218 130.344475 
L 388.10349 127.918112 
L 396.198345 123.979004 
L 402.085513 121.000238 
L 406.500889 119.067325 
L 411.65216 117.1362 
L 415.33164 115.91457 
L 419.747016 114.700159 
L 424.898288 113.528263 
L 430.785455 112.505009 
L 435.200831 111.963423 
L 436.672623 111.806603 
L 436.672623 111.806603 
" style="fill:none;stroke:#e24a33;stroke-linecap:square;stroke-width:1.5;"/>
   </g>
   <g id="line2d_41">
    <path clip-path="url(#p9a0016a323)" d="M 436.672623 111.806603 
L 440.352103 111.495382 
L 446.23927 111.261133 
L 455.805918 111.146203 
L 485.241756 111.115905 
L 704.53875 111.115655 
L 704.53875 111.115655 
" style="fill:none;stroke:#348abd;stroke-linecap:square;stroke-width:1.5;"/>
   </g>
   <g id="patch_3">
    <path d="M 67.98875 301.032412 
L 67.98875 102.072 
" style="fill:none;stroke:#ffffff;stroke-linecap:square;stroke-linejoin:miter;"/>
   </g>
   <g id="patch_4">
    <path d="M 704.53875 301.032412 
L 704.53875 102.072 
" style="fill:none;stroke:#ffffff;stroke-linecap:square;stroke-linejoin:miter;"/>
   </g>
   <g id="patch_5">
    <path d="M 67.98875 301.032412 
L 704.53875 301.032412 
" style="fill:none;stroke:#ffffff;stroke-linecap:square;stroke-linejoin:miter;"/>
   </g>
   <g id="patch_6">
    <path d="M 67.98875 102.072 
L 704.53875 102.072 
" style="fill:none;stroke:#ffffff;stroke-linecap:square;stroke-linejoin:miter;"/>
   </g>
  </g>
  <g id="axes_2">
   <g id="patch_7">
    <path d="M 67.98875 512.64 
L 704.53875 512.64 
L 704.53875 313.679588 
L 67.98875 313.679588 
z
" style="fill:#e5e5e5;"/>
   </g>
   <g id="matplotlib.axis_3">
    <g id="xtick_32">
     <g id="line2d_42">
      <g>
       <use style="fill:#555555;stroke:#555555;stroke-width:0.8;" x="67.98875" xlink:href="#m449def3b3d" y="512.64"/>
      </g>
     </g>
    </g>
    <g id="xtick_33">
     <g id="line2d_43">
      <g>
       <use style="fill:#555555;stroke:#555555;stroke-width:0.8;" x="119.501467" xlink:href="#m449def3b3d" y="512.64"/>
      </g>
     </g>
     <g id="text_11">
      <!-- Apr -->
      <g style="fill:#555555;" transform="translate(103.479384 534.87044)rotate(-30)scale(0.1 -0.1)">
       <defs>
        <path d="M 2188 4044 
L 1331 1722 
L 3047 1722 
L 2188 4044 
z
M 1831 4666 
L 2547 4666 
L 4325 0 
L 3669 0 
L 3244 1197 
L 1141 1197 
L 716 0 
L 50 0 
L 1831 4666 
z
" id="DejaVuSans-41" transform="scale(0.015625)"/>
        <path d="M 1159 525 
L 1159 -1331 
L 581 -1331 
L 581 3500 
L 1159 3500 
L 1159 2969 
Q 1341 3281 1617 3432 
Q 1894 3584 2278 3584 
Q 2916 3584 3314 3078 
Q 3713 2572 3713 1747 
Q 3713 922 3314 415 
Q 2916 -91 2278 -91 
Q 1894 -91 1617 61 
Q 1341 213 1159 525 
z
M 3116 1747 
Q 3116 2381 2855 2742 
Q 2594 3103 2138 3103 
Q 1681 3103 1420 2742 
Q 1159 2381 1159 1747 
Q 1159 1113 1420 752 
Q 1681 391 2138 391 
Q 2594 391 2855 752 
Q 3116 1113 3116 1747 
z
" id="DejaVuSans-70" transform="scale(0.015625)"/>
        <path d="M 2631 2963 
Q 2534 3019 2420 3045 
Q 2306 3072 2169 3072 
Q 1681 3072 1420 2755 
Q 1159 2438 1159 1844 
L 1159 0 
L 581 0 
L 581 3500 
L 1159 3500 
L 1159 2956 
Q 1341 3275 1631 3429 
Q 1922 3584 2338 3584 
Q 2397 3584 2469 3576 
Q 2541 3569 2628 3553 
L 2631 2963 
z
" id="DejaVuSans-72" transform="scale(0.015625)"/>
       </defs>
       <use xlink:href="#DejaVuSans-41"/>
       <use x="68.408203" xlink:href="#DejaVuSans-70"/>
       <use x="131.884766" xlink:href="#DejaVuSans-72"/>
      </g>
     </g>
    </g>
    <g id="xtick_34">
     <g id="line2d_44">
      <g>
       <use style="fill:#555555;stroke:#555555;stroke-width:0.8;" x="186.467999" xlink:href="#m449def3b3d" y="512.64"/>
      </g>
     </g>
     <g id="text_12">
      <!-- Jul -->
      <g style="fill:#555555;" transform="translate(174.979017 532.253252)rotate(-30)scale(0.1 -0.1)">
       <defs>
        <path d="M 628 4666 
L 1259 4666 
L 1259 325 
Q 1259 -519 939 -900 
Q 619 -1281 -91 -1281 
L -331 -1281 
L -331 -750 
L -134 -750 
Q 284 -750 456 -515 
Q 628 -281 628 325 
L 628 4666 
z
" id="DejaVuSans-4a" transform="scale(0.015625)"/>
        <path d="M 544 1381 
L 544 3500 
L 1119 3500 
L 1119 1403 
Q 1119 906 1312 657 
Q 1506 409 1894 409 
Q 2359 409 2629 706 
Q 2900 1003 2900 1516 
L 2900 3500 
L 3475 3500 
L 3475 0 
L 2900 0 
L 2900 538 
Q 2691 219 2414 64 
Q 2138 -91 1772 -91 
Q 1169 -91 856 284 
Q 544 659 544 1381 
z
M 1991 3584 
L 1991 3584 
z
" id="DejaVuSans-75" transform="scale(0.015625)"/>
       </defs>
       <use xlink:href="#DejaVuSans-4a"/>
       <use x="29.492188" xlink:href="#DejaVuSans-75"/>
       <use x="92.871094" xlink:href="#DejaVuSans-6c"/>
      </g>
     </g>
    </g>
    <g id="xtick_35">
     <g id="line2d_45">
      <g>
       <use style="fill:#555555;stroke:#555555;stroke-width:0.8;" x="254.170426" xlink:href="#m449def3b3d" y="512.64"/>
      </g>
     </g>
     <g id="text_13">
      <!-- Oct -->
      <g style="fill:#555555;" transform="translate(238.156462 534.865752)rotate(-30)scale(0.1 -0.1)">
       <defs>
        <path d="M 2522 4238 
Q 1834 4238 1429 3725 
Q 1025 3213 1025 2328 
Q 1025 1447 1429 934 
Q 1834 422 2522 422 
Q 3209 422 3611 934 
Q 4013 1447 4013 2328 
Q 4013 3213 3611 3725 
Q 3209 4238 2522 4238 
z
M 2522 4750 
Q 3503 4750 4090 4092 
Q 4678 3434 4678 2328 
Q 4678 1225 4090 567 
Q 3503 -91 2522 -91 
Q 1538 -91 948 565 
Q 359 1222 359 2328 
Q 359 3434 948 4092 
Q 1538 4750 2522 4750 
z
" id="DejaVuSans-4f" transform="scale(0.015625)"/>
        <path d="M 3122 3366 
L 3122 2828 
Q 2878 2963 2633 3030 
Q 2388 3097 2138 3097 
Q 1578 3097 1268 2742 
Q 959 2388 959 1747 
Q 959 1106 1268 751 
Q 1578 397 2138 397 
Q 2388 397 2633 464 
Q 2878 531 3122 666 
L 3122 134 
Q 2881 22 2623 -34 
Q 2366 -91 2075 -91 
Q 1284 -91 818 406 
Q 353 903 353 1747 
Q 353 2603 823 3093 
Q 1294 3584 2113 3584 
Q 2378 3584 2631 3529 
Q 2884 3475 3122 3366 
z
" id="DejaVuSans-63" transform="scale(0.015625)"/>
       </defs>
       <use xlink:href="#DejaVuSans-4f"/>
       <use x="78.710938" xlink:href="#DejaVuSans-63"/>
       <use x="133.691406" xlink:href="#DejaVuSans-74"/>
      </g>
     </g>
    </g>
    <g id="xtick_36">
     <g id="line2d_46">
      <g>
       <use style="fill:#555555;stroke:#555555;stroke-width:0.8;" x="321.872854" xlink:href="#m449def3b3d" y="512.64"/>
      </g>
     </g>
     <g id="text_14">
      <!-- Jan -->
      <g style="fill:#555555;" transform="translate(301.883781 533.928252)rotate(-30)scale(0.1 -0.1)">
       <defs>
        <path d="M 3513 2113 
L 3513 0 
L 2938 0 
L 2938 2094 
Q 2938 2591 2744 2837 
Q 2550 3084 2163 3084 
Q 1697 3084 1428 2787 
Q 1159 2491 1159 1978 
L 1159 0 
L 581 0 
L 581 3500 
L 1159 3500 
L 1159 2956 
Q 1366 3272 1645 3428 
Q 1925 3584 2291 3584 
Q 2894 3584 3203 3211 
Q 3513 2838 3513 2113 
z
" id="DejaVuSans-6e" transform="scale(0.015625)"/>
       </defs>
       <use xlink:href="#DejaVuSans-4a"/>
       <use x="29.492188" xlink:href="#DejaVuSans-61"/>
       <use x="90.771484" xlink:href="#DejaVuSans-6e"/>
      </g>
      <!-- 2021 -->
      <g style="fill:#555555;" transform="translate(298.792664 548.64303)rotate(-30)scale(0.1 -0.1)">
       <use xlink:href="#DejaVuSans-32"/>
       <use x="63.623047" xlink:href="#DejaVuSans-30"/>
       <use x="127.246094" xlink:href="#DejaVuSans-32"/>
       <use x="190.869141" xlink:href="#DejaVuSans-31"/>
      </g>
     </g>
    </g>
    <g id="xtick_37">
     <g id="line2d_47">
      <g>
       <use style="fill:#555555;stroke:#555555;stroke-width:0.8;" x="388.10349" xlink:href="#m449def3b3d" y="512.64"/>
      </g>
     </g>
     <g id="text_15">
      <!-- Apr -->
      <g style="fill:#555555;" transform="translate(372.081407 534.87044)rotate(-30)scale(0.1 -0.1)">
       <use xlink:href="#DejaVuSans-41"/>
       <use x="68.408203" xlink:href="#DejaVuSans-70"/>
       <use x="131.884766" xlink:href="#DejaVuSans-72"/>
      </g>
     </g>
    </g>
    <g id="xtick_38">
     <g id="line2d_48">
      <g>
       <use style="fill:#555555;stroke:#555555;stroke-width:0.8;" x="455.070022" xlink:href="#m449def3b3d" y="512.64"/>
      </g>
     </g>
     <g id="text_16">
      <!-- Jul -->
      <g style="fill:#555555;" transform="translate(443.58104 532.253252)rotate(-30)scale(0.1 -0.1)">
       <use xlink:href="#DejaVuSans-4a"/>
       <use x="29.492188" xlink:href="#DejaVuSans-75"/>
       <use x="92.871094" xlink:href="#DejaVuSans-6c"/>
      </g>
     </g>
    </g>
    <g id="xtick_39">
     <g id="line2d_49">
      <g>
       <use style="fill:#555555;stroke:#555555;stroke-width:0.8;" x="522.772449" xlink:href="#m449def3b3d" y="512.64"/>
      </g>
     </g>
     <g id="text_17">
      <!-- Oct -->
      <g style="fill:#555555;" transform="translate(506.758485 534.865752)rotate(-30)scale(0.1 -0.1)">
       <use xlink:href="#DejaVuSans-4f"/>
       <use x="78.710938" xlink:href="#DejaVuSans-63"/>
       <use x="133.691406" xlink:href="#DejaVuSans-74"/>
      </g>
     </g>
    </g>
    <g id="xtick_40">
     <g id="line2d_50">
      <g>
       <use style="fill:#555555;stroke:#555555;stroke-width:0.8;" x="590.474877" xlink:href="#m449def3b3d" y="512.64"/>
      </g>
     </g>
     <g id="text_18">
      <!-- Jan -->
      <g style="fill:#555555;" transform="translate(570.485804 533.928252)rotate(-30)scale(0.1 -0.1)">
       <use xlink:href="#DejaVuSans-4a"/>
       <use x="29.492188" xlink:href="#DejaVuSans-61"/>
       <use x="90.771484" xlink:href="#DejaVuSans-6e"/>
      </g>
      <!-- 2022 -->
      <g style="fill:#555555;" transform="translate(567.394687 548.64303)rotate(-30)scale(0.1 -0.1)">
       <use xlink:href="#DejaVuSans-32"/>
       <use x="63.623047" xlink:href="#DejaVuSans-30"/>
       <use x="127.246094" xlink:href="#DejaVuSans-32"/>
       <use x="190.869141" xlink:href="#DejaVuSans-32"/>
      </g>
     </g>
    </g>
    <g id="xtick_41">
     <g id="line2d_51">
      <g>
       <use style="fill:#555555;stroke:#555555;stroke-width:0.8;" x="656.705513" xlink:href="#m449def3b3d" y="512.64"/>
      </g>
     </g>
     <g id="text_19">
      <!-- Apr -->
      <g style="fill:#555555;" transform="translate(640.68343 534.87044)rotate(-30)scale(0.1 -0.1)">
       <use xlink:href="#DejaVuSans-41"/>
       <use x="68.408203" xlink:href="#DejaVuSans-70"/>
       <use x="131.884766" xlink:href="#DejaVuSans-72"/>
      </g>
     </g>
    </g>
    <g id="xtick_42">
     <g id="line2d_52">
      <g>
       <use style="fill:#555555;stroke:#555555;stroke-width:0.8;" x="704.53875" xlink:href="#m449def3b3d" y="512.64"/>
      </g>
     </g>
    </g>
    <g id="xtick_43">
     <g id="line2d_53">
      <g>
       <use style="fill:#555555;stroke:#555555;stroke-width:0.6;" x="75.34771" xlink:href="#md91576700d" y="512.64"/>
      </g>
     </g>
    </g>
    <g id="xtick_44">
     <g id="line2d_54">
      <g>
       <use style="fill:#555555;stroke:#555555;stroke-width:0.6;" x="96.688692" xlink:href="#md91576700d" y="512.64"/>
      </g>
     </g>
    </g>
    <g id="xtick_45">
     <g id="line2d_55">
      <g>
       <use style="fill:#555555;stroke:#555555;stroke-width:0.6;" x="141.578345" xlink:href="#md91576700d" y="512.64"/>
      </g>
     </g>
    </g>
    <g id="xtick_46">
     <g id="line2d_56">
      <g>
       <use style="fill:#555555;stroke:#555555;stroke-width:0.6;" x="164.39112" xlink:href="#md91576700d" y="512.64"/>
      </g>
     </g>
    </g>
    <g id="xtick_47">
     <g id="line2d_57">
      <g>
       <use style="fill:#555555;stroke:#555555;stroke-width:0.6;" x="209.280773" xlink:href="#md91576700d" y="512.64"/>
      </g>
     </g>
    </g>
    <g id="xtick_48">
     <g id="line2d_58">
      <g>
       <use style="fill:#555555;stroke:#555555;stroke-width:0.6;" x="232.093548" xlink:href="#md91576700d" y="512.64"/>
      </g>
     </g>
    </g>
    <g id="xtick_49">
     <g id="line2d_59">
      <g>
       <use style="fill:#555555;stroke:#555555;stroke-width:0.6;" x="276.983201" xlink:href="#md91576700d" y="512.64"/>
      </g>
     </g>
    </g>
    <g id="xtick_50">
     <g id="line2d_60">
      <g>
       <use style="fill:#555555;stroke:#555555;stroke-width:0.6;" x="299.060079" xlink:href="#md91576700d" y="512.64"/>
      </g>
     </g>
    </g>
    <g id="xtick_51">
     <g id="line2d_61">
      <g>
       <use style="fill:#555555;stroke:#555555;stroke-width:0.6;" x="344.685629" xlink:href="#md91576700d" y="512.64"/>
      </g>
     </g>
    </g>
    <g id="xtick_52">
     <g id="line2d_62">
      <g>
       <use style="fill:#555555;stroke:#555555;stroke-width:0.6;" x="365.290715" xlink:href="#md91576700d" y="512.64"/>
      </g>
     </g>
    </g>
    <g id="xtick_53">
     <g id="line2d_63">
      <g>
       <use style="fill:#555555;stroke:#555555;stroke-width:0.6;" x="410.180368" xlink:href="#md91576700d" y="512.64"/>
      </g>
     </g>
    </g>
    <g id="xtick_54">
     <g id="line2d_64">
      <g>
       <use style="fill:#555555;stroke:#555555;stroke-width:0.6;" x="432.993143" xlink:href="#md91576700d" y="512.64"/>
      </g>
     </g>
    </g>
    <g id="xtick_55">
     <g id="line2d_65">
      <g>
       <use style="fill:#555555;stroke:#555555;stroke-width:0.6;" x="477.882796" xlink:href="#md91576700d" y="512.64"/>
      </g>
     </g>
    </g>
    <g id="xtick_56">
     <g id="line2d_66">
      <g>
       <use style="fill:#555555;stroke:#555555;stroke-width:0.6;" x="500.695571" xlink:href="#md91576700d" y="512.64"/>
      </g>
     </g>
    </g>
    <g id="xtick_57">
     <g id="line2d_67">
      <g>
       <use style="fill:#555555;stroke:#555555;stroke-width:0.6;" x="545.585224" xlink:href="#md91576700d" y="512.64"/>
      </g>
     </g>
    </g>
    <g id="xtick_58">
     <g id="line2d_68">
      <g>
       <use style="fill:#555555;stroke:#555555;stroke-width:0.6;" x="567.662103" xlink:href="#md91576700d" y="512.64"/>
      </g>
     </g>
    </g>
    <g id="xtick_59">
     <g id="line2d_69">
      <g>
       <use style="fill:#555555;stroke:#555555;stroke-width:0.6;" x="613.287652" xlink:href="#md91576700d" y="512.64"/>
      </g>
     </g>
    </g>
    <g id="xtick_60">
     <g id="line2d_70">
      <g>
       <use style="fill:#555555;stroke:#555555;stroke-width:0.6;" x="633.892738" xlink:href="#md91576700d" y="512.64"/>
      </g>
     </g>
    </g>
    <g id="xtick_61">
     <g id="line2d_71">
      <g>
       <use style="fill:#555555;stroke:#555555;stroke-width:0.6;" x="678.782392" xlink:href="#md91576700d" y="512.64"/>
      </g>
     </g>
    </g>
    <g id="xtick_62">
     <g id="line2d_72">
      <g>
       <use style="fill:#555555;stroke:#555555;stroke-width:0.6;" x="701.595166" xlink:href="#md91576700d" y="512.64"/>
      </g>
     </g>
    </g>
    <g id="text_20">
     <!-- Date -->
     <g style="fill:#555555;" transform="translate(371.922812 563.562217)scale(0.12 -0.12)">
      <defs>
       <path d="M 1259 4147 
L 1259 519 
L 2022 519 
Q 2988 519 3436 956 
Q 3884 1394 3884 2338 
Q 3884 3275 3436 3711 
Q 2988 4147 2022 4147 
L 1259 4147 
z
M 628 4666 
L 1925 4666 
Q 3281 4666 3915 4102 
Q 4550 3538 4550 2338 
Q 4550 1131 3912 565 
Q 3275 0 1925 0 
L 628 0 
L 628 4666 
z
" id="DejaVuSans-44" transform="scale(0.015625)"/>
      </defs>
      <use xlink:href="#DejaVuSans-44"/>
      <use x="77.001953" xlink:href="#DejaVuSans-61"/>
      <use x="138.28125" xlink:href="#DejaVuSans-74"/>
      <use x="177.490234" xlink:href="#DejaVuSans-65"/>
     </g>
    </g>
   </g>
   <g id="matplotlib.axis_4">
    <g id="ytick_9">
     <g id="line2d_73">
      <g>
       <use style="fill:#555555;stroke:#555555;stroke-width:0.8;" x="67.98875" xlink:href="#m0a2b6b7156" y="503.596345"/>
      </g>
     </g>
     <g id="text_21">
      <!-- 0 -->
      <g style="fill:#555555;" transform="translate(54.62625 507.395564)scale(0.1 -0.1)">
       <use xlink:href="#DejaVuSans-30"/>
      </g>
     </g>
    </g>
    <g id="ytick_10">
     <g id="line2d_74">
      <g>
       <use style="fill:#555555;stroke:#555555;stroke-width:0.8;" x="67.98875" xlink:href="#m0a2b6b7156" y="467.578003"/>
      </g>
     </g>
     <g id="text_22">
      <!-- 50000 -->
      <g style="fill:#555555;" transform="translate(29.17625 471.377222)scale(0.1 -0.1)">
       <use xlink:href="#DejaVuSans-35"/>
       <use x="63.623047" xlink:href="#DejaVuSans-30"/>
       <use x="127.246094" xlink:href="#DejaVuSans-30"/>
       <use x="190.869141" xlink:href="#DejaVuSans-30"/>
       <use x="254.492188" xlink:href="#DejaVuSans-30"/>
      </g>
     </g>
    </g>
    <g id="ytick_11">
     <g id="line2d_75">
      <g>
       <use style="fill:#555555;stroke:#555555;stroke-width:0.8;" x="67.98875" xlink:href="#m0a2b6b7156" y="431.559661"/>
      </g>
     </g>
     <g id="text_23">
      <!-- 100000 -->
      <g style="fill:#555555;" transform="translate(22.81375 435.35888)scale(0.1 -0.1)">
       <use xlink:href="#DejaVuSans-31"/>
       <use x="63.623047" xlink:href="#DejaVuSans-30"/>
       <use x="127.246094" xlink:href="#DejaVuSans-30"/>
       <use x="190.869141" xlink:href="#DejaVuSans-30"/>
       <use x="254.492188" xlink:href="#DejaVuSans-30"/>
       <use x="318.115234" xlink:href="#DejaVuSans-30"/>
      </g>
     </g>
    </g>
    <g id="ytick_12">
     <g id="line2d_76">
      <g>
       <use style="fill:#555555;stroke:#555555;stroke-width:0.8;" x="67.98875" xlink:href="#m0a2b6b7156" y="395.541319"/>
      </g>
     </g>
     <g id="text_24">
      <!-- 150000 -->
      <g style="fill:#555555;" transform="translate(22.81375 399.340538)scale(0.1 -0.1)">
       <use xlink:href="#DejaVuSans-31"/>
       <use x="63.623047" xlink:href="#DejaVuSans-35"/>
       <use x="127.246094" xlink:href="#DejaVuSans-30"/>
       <use x="190.869141" xlink:href="#DejaVuSans-30"/>
       <use x="254.492188" xlink:href="#DejaVuSans-30"/>
       <use x="318.115234" xlink:href="#DejaVuSans-30"/>
      </g>
     </g>
    </g>
    <g id="ytick_13">
     <g id="line2d_77">
      <g>
       <use style="fill:#555555;stroke:#555555;stroke-width:0.8;" x="67.98875" xlink:href="#m0a2b6b7156" y="359.522977"/>
      </g>
     </g>
     <g id="text_25">
      <!-- 200000 -->
      <g style="fill:#555555;" transform="translate(22.81375 363.322196)scale(0.1 -0.1)">
       <use xlink:href="#DejaVuSans-32"/>
       <use x="63.623047" xlink:href="#DejaVuSans-30"/>
       <use x="127.246094" xlink:href="#DejaVuSans-30"/>
       <use x="190.869141" xlink:href="#DejaVuSans-30"/>
       <use x="254.492188" xlink:href="#DejaVuSans-30"/>
       <use x="318.115234" xlink:href="#DejaVuSans-30"/>
      </g>
     </g>
    </g>
    <g id="ytick_14">
     <g id="line2d_78">
      <g>
       <use style="fill:#555555;stroke:#555555;stroke-width:0.8;" x="67.98875" xlink:href="#m0a2b6b7156" y="323.504635"/>
      </g>
     </g>
     <g id="text_26">
      <!-- 250000 -->
      <g style="fill:#555555;" transform="translate(22.81375 327.303854)scale(0.1 -0.1)">
       <use xlink:href="#DejaVuSans-32"/>
       <use x="63.623047" xlink:href="#DejaVuSans-35"/>
       <use x="127.246094" xlink:href="#DejaVuSans-30"/>
       <use x="190.869141" xlink:href="#DejaVuSans-30"/>
       <use x="254.492188" xlink:href="#DejaVuSans-30"/>
       <use x="318.115234" xlink:href="#DejaVuSans-30"/>
      </g>
     </g>
    </g>
    <g id="text_27">
     <!-- Daily -->
     <g style="fill:#555555;" transform="translate(16.318125 428.341669)rotate(-90)scale(0.12 -0.12)">
      <defs>
       <path d="M 603 3500 
L 1178 3500 
L 1178 0 
L 603 0 
L 603 3500 
z
M 603 4863 
L 1178 4863 
L 1178 4134 
L 603 4134 
L 603 4863 
z
" id="DejaVuSans-69" transform="scale(0.015625)"/>
       <path d="M 2059 -325 
Q 1816 -950 1584 -1140 
Q 1353 -1331 966 -1331 
L 506 -1331 
L 506 -850 
L 844 -850 
Q 1081 -850 1212 -737 
Q 1344 -625 1503 -206 
L 1606 56 
L 191 3500 
L 800 3500 
L 1894 763 
L 2988 3500 
L 3597 3500 
L 2059 -325 
z
" id="DejaVuSans-79" transform="scale(0.015625)"/>
      </defs>
      <use xlink:href="#DejaVuSans-44"/>
      <use x="77.001953" xlink:href="#DejaVuSans-61"/>
      <use x="138.28125" xlink:href="#DejaVuSans-69"/>
      <use x="166.064453" xlink:href="#DejaVuSans-6c"/>
      <use x="193.847656" xlink:href="#DejaVuSans-79"/>
     </g>
    </g>
   </g>
   <g id="line2d_79">
    <path clip-path="url(#p8d7bfbeb07)" d="M 67.98875 503.595625 
L 103.311756 503.523485 
L 106.991236 503.319209 
L 108.463027 503.006673 
L 109.198923 502.770804 
L 109.934819 502.353506 
L 111.406611 501.224589 
L 113.614299 498.42586 
L 114.350195 497.455938 
L 116.557883 493.409535 
L 118.029675 491.262533 
L 118.765571 489.647367 
L 119.501467 487.568183 
L 121.709155 483.375751 
L 123.180947 481.285555 
L 123.916842 480.826064 
L 124.652738 480.934222 
L 125.388634 480.551398 
L 126.12453 480.3357 
L 129.068114 481.607044 
L 130.539906 482.817981 
L 132.747594 483.199467 
L 133.48349 482.902984 
L 134.219386 483.200599 
L 135.691178 482.468603 
L 136.427074 482.544653 
L 137.16297 482.290158 
L 137.898866 482.246318 
L 138.634762 482.874581 
L 139.370658 483.013612 
L 140.106553 483.265946 
L 140.842449 483.719469 
L 141.578345 483.453962 
L 143.050137 483.988989 
L 144.521929 483.957498 
L 145.993721 484.334765 
L 146.729617 485.165965 
L 147.465513 485.389485 
L 148.937305 486.448012 
L 149.673201 486.61277 
L 150.409097 487.038404 
L 151.144993 487.101385 
L 152.616785 487.424315 
L 153.352681 487.467228 
L 154.088577 487.149135 
L 154.824473 487.349603 
L 155.560368 487.113734 
L 157.03216 487.333137 
L 157.768056 487.645571 
L 158.503952 487.471756 
L 159.239848 487.8553 
L 159.975744 487.990729 
L 161.447536 488.775209 
L 162.183432 488.689897 
L 162.919328 488.429227 
L 164.39112 488.670241 
L 165.862912 488.346591 
L 166.598808 488.414717 
L 167.334704 488.319525 
L 168.0706 488.57577 
L 168.806496 488.68434 
L 169.542392 488.663552 
L 170.278288 488.984527 
L 171.750079 488.700291 
L 172.485975 488.759464 
L 173.221871 488.340622 
L 173.957767 488.236374 
L 174.693663 488.008841 
L 176.901351 486.298896 
L 179.109039 484.241426 
L 180.580831 481.594386 
L 181.316727 480.688165 
L 182.052623 479.474964 
L 182.788519 477.987407 
L 183.524415 477.056075 
L 184.260311 475.452333 
L 185.732103 473.548197 
L 187.203895 470.229159 
L 188.675686 469.229392 
L 189.411582 468.198959 
L 190.147478 468.013002 
L 190.883374 466.547467 
L 191.61927 465.69342 
L 192.355166 465.089033 
L 193.826958 461.895749 
L 194.562854 461.105713 
L 195.29875 459.477272 
L 196.770542 457.896478 
L 197.506438 456.521916 
L 198.242334 456.091857 
L 200.450022 455.296572 
L 201.185918 455.666017 
L 201.921814 455.409875 
L 202.65771 456.173567 
L 203.393605 456.062116 
L 204.129501 455.813383 
L 205.601293 456.941684 
L 207.073085 456.607742 
L 207.808981 456.708491 
L 208.544877 457.182595 
L 210.016669 459.034967 
L 210.752565 460.195992 
L 211.488461 460.982015 
L 212.224357 462.773362 
L 213.696149 464.576955 
L 214.432045 464.789669 
L 215.167941 464.768984 
L 215.903837 464.552359 
L 216.639733 465.660798 
L 217.375629 465.498818 
L 218.111525 466.325491 
L 218.847421 465.704638 
L 220.319212 467.118615 
L 221.055108 468.245886 
L 221.791004 468.551527 
L 223.262796 470.197565 
L 223.998692 471.894853 
L 225.470484 472.805808 
L 226.20638 472.823303 
L 226.942276 473.304816 
L 227.678172 473.525866 
L 228.414068 473.386732 
L 229.149964 473.593683 
L 231.357652 473.724687 
L 232.093548 473.571146 
L 232.829444 473.998633 
L 233.56534 474.116155 
L 234.301236 473.750826 
L 235.037132 473.709251 
L 235.773027 474.037121 
L 236.508923 475.246205 
L 237.244819 476.750743 
L 238.716611 478.311263 
L 240.188403 478.791851 
L 240.924299 478.467274 
L 242.396091 476.092533 
L 243.131987 475.579941 
L 243.867883 474.646139 
L 245.339675 474.377134 
L 246.075571 473.957777 
L 246.811467 472.161491 
L 248.283259 472.11899 
L 249.019155 471.915949 
L 249.755051 472.017521 
L 250.490947 471.763231 
L 251.226842 471.857805 
L 251.962738 473.770276 
L 252.698634 473.412974 
L 253.43453 473.374486 
L 254.170426 473.524014 
L 254.906322 472.839151 
L 255.642218 472.437392 
L 256.378114 472.6216 
L 257.11401 471.995704 
L 257.849906 471.794927 
L 259.321698 469.267263 
L 260.057594 469.119691 
L 260.79349 468.46354 
L 261.529386 467.409437 
L 262.265282 467.16266 
L 263.001178 466.448262 
L 263.737074 465.550685 
L 264.47297 464.90431 
L 265.208866 463.590875 
L 265.944762 463.405021 
L 266.680658 463.056569 
L 267.416553 460.386787 
L 268.152449 459.385991 
L 268.888345 459.023441 
L 270.360137 456.531383 
L 271.096033 453.854912 
L 271.831929 452.533862 
L 272.567825 452.575746 
L 274.775513 447.871133 
L 275.511409 446.087608 
L 276.247305 445.368579 
L 276.983201 440.974753 
L 277.719097 439.132569 
L 278.454993 433.950044 
L 279.190889 431.365471 
L 279.926785 427.419095 
L 280.662681 424.45849 
L 281.398577 420.573038 
L 282.134473 419.516157 
L 282.870368 415.891373 
L 283.606264 414.522059 
L 284.34216 410.17835 
L 285.078056 406.537101 
L 285.813952 401.148243 
L 286.549848 396.989051 
L 287.285744 394.808809 
L 288.02164 390.467055 
L 289.493432 385.326208 
L 290.229328 382.572349 
L 290.965224 380.726666 
L 293.908808 376.080094 
L 294.644704 375.035357 
L 295.3806 383.163564 
L 296.116496 382.175633 
L 296.852392 384.622307 
L 297.588288 385.303465 
L 298.324184 386.720324 
L 299.060079 385.403596 
L 299.795975 383.397786 
L 300.531871 371.985632 
L 301.267767 369.442634 
L 302.003663 363.252625 
L 302.739559 359.041052 
L 304.211351 351.816698 
L 304.947247 349.783823 
L 306.419039 348.193665 
L 307.154935 347.989286 
L 307.890831 347.29794 
L 308.626727 347.307717 
L 309.362623 348.898698 
L 310.098519 346.429281 
L 310.834415 345.557431 
L 311.570311 344.348964 
L 312.306207 346.993225 
L 313.042103 346.988697 
L 313.777999 346.537027 
L 314.513895 347.657197 
L 315.24979 349.408718 
L 315.985686 354.116315 
L 316.721582 369.959446 
L 317.457478 366.428208 
L 318.193374 369.738808 
L 318.92927 372.26534 
L 319.665166 372.028545 
L 320.401062 371.608983 
L 321.136958 367.343897 
L 321.872854 361.577257 
L 322.60875 353.957217 
L 323.344646 348.502188 
L 324.080542 347.48822 
L 324.816438 343.924051 
L 325.552334 341.666627 
L 326.28823 337.268581 
L 327.024126 322.723243 
L 327.760022 326.787655 
L 328.495918 326.318182 
L 329.231814 323.163078 
L 329.96771 323.994073 
L 330.703605 326.601389 
L 331.439501 330.982352 
L 332.911293 342.465616 
L 333.647189 346.117259 
L 334.383085 353.430629 
L 335.854877 363.494256 
L 336.590773 367.807196 
L 337.326669 373.16055 
L 338.062565 376.360934 
L 338.798461 381.170206 
L 339.534357 380.3388 
L 341.742045 388.874324 
L 342.477941 391.359281 
L 343.213837 394.271621 
L 344.685629 397.950432 
L 346.157421 404.597668 
L 346.893316 409.20781 
L 347.629212 412.520571 
L 348.365108 416.460257 
L 349.101004 418.766049 
L 349.8369 423.349331 
L 350.572796 425.411433 
L 351.308692 428.132464 
L 352.044588 430.00974 
L 352.780484 433.586053 
L 353.51638 435.33109 
L 354.252276 437.863797 
L 355.724068 444.956941 
L 356.459964 447.541102 
L 357.19586 451.230718 
L 357.931756 453.328838 
L 358.667652 454.935359 
L 359.403548 455.75596 
L 360.139444 455.563313 
L 360.87534 454.556858 
L 361.611236 454.083783 
L 362.347132 453.301361 
L 363.083027 453.501932 
L 364.554819 454.809501 
L 365.290715 454.609033 
L 366.026611 456.172023 
L 366.762507 456.947447 
L 369.706091 460.765597 
L 370.441987 462.121944 
L 371.177883 462.063904 
L 371.913779 463.020242 
L 374.121467 464.639215 
L 374.857363 464.926641 
L 375.593259 463.730112 
L 376.329155 464.106864 
L 377.065051 463.965775 
L 377.800947 464.180547 
L 378.536842 464.164596 
L 379.272738 463.910718 
L 380.74453 464.894019 
L 381.480426 464.927465 
L 382.216322 462.079443 
L 382.952218 461.341067 
L 383.688114 459.724975 
L 384.42401 458.968384 
L 385.159906 458.003093 
L 385.895802 456.16626 
L 386.631698 455.367888 
L 387.367594 457.445117 
L 388.10349 456.254865 
L 388.839386 457.02504 
L 389.575282 456.982847 
L 390.311178 457.815797 
L 391.047074 456.980481 
L 391.78297 457.056222 
L 392.518866 456.208659 
L 393.254762 456.129727 
L 393.990658 454.809707 
L 394.726553 454.455903 
L 395.462449 453.284793 
L 396.198345 454.03665 
L 396.934241 452.259711 
L 397.670137 452.217724 
L 398.406033 452.791753 
L 399.141929 453.065698 
L 399.877825 454.521869 
L 400.613721 454.973847 
L 401.349617 455.176579 
L 402.085513 456.927688 
L 402.821409 458.219614 
L 403.557305 458.943583 
L 404.293201 460.759525 
L 405.029097 460.662173 
L 405.764993 461.68602 
L 406.500889 463.801531 
L 407.236785 464.840918 
L 408.708577 466.5628 
L 409.444473 467.02435 
L 410.180368 467.858843 
L 410.916264 468.142976 
L 411.65216 467.841863 
L 414.595744 472.065168 
L 415.33164 473.26993 
L 416.067536 474.090531 
L 416.803432 475.499157 
L 417.539328 476.226933 
L 419.01112 478.115323 
L 420.482912 479.216455 
L 421.218808 479.683973 
L 421.954704 480.525979 
L 423.426496 481.802058 
L 424.162392 482.61175 
L 424.898288 484.084077 
L 425.634184 485.015923 
L 429.313663 487.068969 
L 430.049559 487.696099 
L 430.785455 488.498794 
L 431.521351 489.129938 
L 432.257247 491.192554 
L 432.993143 491.171561 
L 435.200831 493.274723 
L 435.936727 493.078269 
L 436.672623 493.222651 
L 436.672623 493.222651 
" style="fill:none;stroke:#e24a33;stroke-linecap:square;stroke-width:1.5;"/>
   </g>
   <g id="line2d_80">
    <path clip-path="url(#p8d7bfbeb07)" d="M 437.408519 493.218166 
L 438.880311 495.420221 
L 440.352103 497.157421 
L 441.823895 498.526989 
L 443.295686 499.606162 
L 444.767478 500.456166 
L 446.975166 501.404623 
L 449.182854 502.066952 
L 452.126438 502.649973 
L 455.805918 503.077081 
L 460.221293 503.343709 
L 467.580253 503.520327 
L 483.034068 503.590242 
L 607.400484 503.596345 
L 704.53875 503.596345 
L 704.53875 503.596345 
" style="fill:none;stroke:#348abd;stroke-linecap:square;stroke-width:1.5;"/>
   </g>
   <g id="patch_8">
    <path d="M 67.98875 512.64 
L 67.98875 313.679588 
" style="fill:none;stroke:#ffffff;stroke-linecap:square;stroke-linejoin:miter;"/>
   </g>
   <g id="patch_9">
    <path d="M 704.53875 512.64 
L 704.53875 313.679588 
" style="fill:none;stroke:#ffffff;stroke-linecap:square;stroke-linejoin:miter;"/>
   </g>
   <g id="patch_10">
    <path d="M 67.98875 512.64 
L 704.53875 512.64 
" style="fill:none;stroke:#ffffff;stroke-linecap:square;stroke-linejoin:miter;"/>
   </g>
   <g id="patch_11">
    <path d="M 67.98875 313.679588 
L 704.53875 313.679588 
" style="fill:none;stroke:#ffffff;stroke-linecap:square;stroke-linejoin:miter;"/>
   </g>
   <g id="legend_1">
    <g id="patch_12">
     <path d="M 494.645 351.035838 
L 697.53875 351.035838 
Q 699.53875 351.035838 699.53875 349.035838 
L 699.53875 320.679588 
Q 699.53875 318.679588 697.53875 318.679588 
L 494.645 318.679588 
Q 492.645 318.679588 492.645 320.679588 
L 492.645 349.035838 
Q 492.645 351.035838 494.645 351.035838 
z
" style="fill:#e5e5e5;opacity:0.8;stroke:#cccccc;stroke-linejoin:miter;stroke-width:0.5;"/>
    </g>
    <g id="line2d_81">
     <path d="M 496.645 326.778025 
L 516.645 326.778025 
" style="fill:none;stroke:#e24a33;stroke-linecap:square;stroke-width:1.5;"/>
    </g>
    <g id="line2d_82"/>
    <g id="text_28">
     <!-- Cases -->
     <g transform="translate(524.645 330.278025)scale(0.1 -0.1)">
      <defs>
       <path d="M 4122 4306 
L 4122 3641 
Q 3803 3938 3442 4084 
Q 3081 4231 2675 4231 
Q 1875 4231 1450 3742 
Q 1025 3253 1025 2328 
Q 1025 1406 1450 917 
Q 1875 428 2675 428 
Q 3081 428 3442 575 
Q 3803 722 4122 1019 
L 4122 359 
Q 3791 134 3420 21 
Q 3050 -91 2638 -91 
Q 1578 -91 968 557 
Q 359 1206 359 2328 
Q 359 3453 968 4101 
Q 1578 4750 2638 4750 
Q 3056 4750 3426 4639 
Q 3797 4528 4122 4306 
z
" id="DejaVuSans-43" transform="scale(0.015625)"/>
       <path d="M 2834 3397 
L 2834 2853 
Q 2591 2978 2328 3040 
Q 2066 3103 1784 3103 
Q 1356 3103 1142 2972 
Q 928 2841 928 2578 
Q 928 2378 1081 2264 
Q 1234 2150 1697 2047 
L 1894 2003 
Q 2506 1872 2764 1633 
Q 3022 1394 3022 966 
Q 3022 478 2636 193 
Q 2250 -91 1575 -91 
Q 1294 -91 989 -36 
Q 684 19 347 128 
L 347 722 
Q 666 556 975 473 
Q 1284 391 1588 391 
Q 1994 391 2212 530 
Q 2431 669 2431 922 
Q 2431 1156 2273 1281 
Q 2116 1406 1581 1522 
L 1381 1569 
Q 847 1681 609 1914 
Q 372 2147 372 2553 
Q 372 3047 722 3315 
Q 1072 3584 1716 3584 
Q 2034 3584 2315 3537 
Q 2597 3491 2834 3397 
z
" id="DejaVuSans-73" transform="scale(0.015625)"/>
      </defs>
      <use xlink:href="#DejaVuSans-43"/>
      <use x="69.824219" xlink:href="#DejaVuSans-61"/>
      <use x="131.103516" xlink:href="#DejaVuSans-73"/>
      <use x="183.203125" xlink:href="#DejaVuSans-65"/>
      <use x="244.726562" xlink:href="#DejaVuSans-73"/>
     </g>
    </g>
    <g id="line2d_83">
     <path d="M 496.645 341.45615 
L 516.645 341.45615 
" style="fill:none;stroke:#348abd;stroke-linecap:square;stroke-width:1.5;"/>
    </g>
    <g id="line2d_84"/>
    <g id="text_29">
     <!-- Projected Cases (last 1D avg rate) -->
     <g transform="translate(524.645 344.95615)scale(0.1 -0.1)">
      <defs>
       <path d="M 1259 4147 
L 1259 2394 
L 2053 2394 
Q 2494 2394 2734 2622 
Q 2975 2850 2975 3272 
Q 2975 3691 2734 3919 
Q 2494 4147 2053 4147 
L 1259 4147 
z
M 628 4666 
L 2053 4666 
Q 2838 4666 3239 4311 
Q 3641 3956 3641 3272 
Q 3641 2581 3239 2228 
Q 2838 1875 2053 1875 
L 1259 1875 
L 1259 0 
L 628 0 
L 628 4666 
z
" id="DejaVuSans-50" transform="scale(0.015625)"/>
       <path d="M 603 3500 
L 1178 3500 
L 1178 -63 
Q 1178 -731 923 -1031 
Q 669 -1331 103 -1331 
L -116 -1331 
L -116 -844 
L 38 -844 
Q 366 -844 484 -692 
Q 603 -541 603 -63 
L 603 3500 
z
M 603 4863 
L 1178 4863 
L 1178 4134 
L 603 4134 
L 603 4863 
z
" id="DejaVuSans-6a" transform="scale(0.015625)"/>
       <path d="M 2906 2969 
L 2906 4863 
L 3481 4863 
L 3481 0 
L 2906 0 
L 2906 525 
Q 2725 213 2448 61 
Q 2172 -91 1784 -91 
Q 1150 -91 751 415 
Q 353 922 353 1747 
Q 353 2572 751 3078 
Q 1150 3584 1784 3584 
Q 2172 3584 2448 3432 
Q 2725 3281 2906 2969 
z
M 947 1747 
Q 947 1113 1208 752 
Q 1469 391 1925 391 
Q 2381 391 2643 752 
Q 2906 1113 2906 1747 
Q 2906 2381 2643 2742 
Q 2381 3103 1925 3103 
Q 1469 3103 1208 2742 
Q 947 2381 947 1747 
z
" id="DejaVuSans-64" transform="scale(0.015625)"/>
       <path id="DejaVuSans-20" transform="scale(0.015625)"/>
       <path d="M 1984 4856 
Q 1566 4138 1362 3434 
Q 1159 2731 1159 2009 
Q 1159 1288 1364 580 
Q 1569 -128 1984 -844 
L 1484 -844 
Q 1016 -109 783 600 
Q 550 1309 550 2009 
Q 550 2706 781 3412 
Q 1013 4119 1484 4856 
L 1984 4856 
z
" id="DejaVuSans-28" transform="scale(0.015625)"/>
       <path d="M 191 3500 
L 800 3500 
L 1894 563 
L 2988 3500 
L 3597 3500 
L 2284 0 
L 1503 0 
L 191 3500 
z
" id="DejaVuSans-76" transform="scale(0.015625)"/>
       <path d="M 2906 1791 
Q 2906 2416 2648 2759 
Q 2391 3103 1925 3103 
Q 1463 3103 1205 2759 
Q 947 2416 947 1791 
Q 947 1169 1205 825 
Q 1463 481 1925 481 
Q 2391 481 2648 825 
Q 2906 1169 2906 1791 
z
M 3481 434 
Q 3481 -459 3084 -895 
Q 2688 -1331 1869 -1331 
Q 1566 -1331 1297 -1286 
Q 1028 -1241 775 -1147 
L 775 -588 
Q 1028 -725 1275 -790 
Q 1522 -856 1778 -856 
Q 2344 -856 2625 -561 
Q 2906 -266 2906 331 
L 2906 616 
Q 2728 306 2450 153 
Q 2172 0 1784 0 
Q 1141 0 747 490 
Q 353 981 353 1791 
Q 353 2603 747 3093 
Q 1141 3584 1784 3584 
Q 2172 3584 2450 3431 
Q 2728 3278 2906 2969 
L 2906 3500 
L 3481 3500 
L 3481 434 
z
" id="DejaVuSans-67" transform="scale(0.015625)"/>
       <path d="M 513 4856 
L 1013 4856 
Q 1481 4119 1714 3412 
Q 1947 2706 1947 2009 
Q 1947 1309 1714 600 
Q 1481 -109 1013 -844 
L 513 -844 
Q 928 -128 1133 580 
Q 1338 1288 1338 2009 
Q 1338 2731 1133 3434 
Q 928 4138 513 4856 
z
" id="DejaVuSans-29" transform="scale(0.015625)"/>
      </defs>
      <use xlink:href="#DejaVuSans-50"/>
      <use x="58.552734" xlink:href="#DejaVuSans-72"/>
      <use x="97.416016" xlink:href="#DejaVuSans-6f"/>
      <use x="158.597656" xlink:href="#DejaVuSans-6a"/>
      <use x="186.380859" xlink:href="#DejaVuSans-65"/>
      <use x="247.904297" xlink:href="#DejaVuSans-63"/>
      <use x="302.884766" xlink:href="#DejaVuSans-74"/>
      <use x="342.09375" xlink:href="#DejaVuSans-65"/>
      <use x="403.617188" xlink:href="#DejaVuSans-64"/>
      <use x="467.09375" xlink:href="#DejaVuSans-20"/>
      <use x="498.880859" xlink:href="#DejaVuSans-43"/>
      <use x="568.705078" xlink:href="#DejaVuSans-61"/>
      <use x="629.984375" xlink:href="#DejaVuSans-73"/>
      <use x="682.083984" xlink:href="#DejaVuSans-65"/>
      <use x="743.607422" xlink:href="#DejaVuSans-73"/>
      <use x="795.707031" xlink:href="#DejaVuSans-20"/>
      <use x="827.494141" xlink:href="#DejaVuSans-28"/>
      <use x="866.507812" xlink:href="#DejaVuSans-6c"/>
      <use x="894.291016" xlink:href="#DejaVuSans-61"/>
      <use x="955.570312" xlink:href="#DejaVuSans-73"/>
      <use x="1007.669922" xlink:href="#DejaVuSans-74"/>
      <use x="1046.878906" xlink:href="#DejaVuSans-20"/>
      <use x="1078.666016" xlink:href="#DejaVuSans-31"/>
      <use x="1142.289062" xlink:href="#DejaVuSans-44"/>
      <use x="1219.291016" xlink:href="#DejaVuSans-20"/>
      <use x="1251.078125" xlink:href="#DejaVuSans-61"/>
      <use x="1312.357422" xlink:href="#DejaVuSans-76"/>
      <use x="1371.537109" xlink:href="#DejaVuSans-67"/>
      <use x="1435.013672" xlink:href="#DejaVuSans-20"/>
      <use x="1466.800781" xlink:href="#DejaVuSans-72"/>
      <use x="1507.914062" xlink:href="#DejaVuSans-61"/>
      <use x="1569.193359" xlink:href="#DejaVuSans-74"/>
      <use x="1608.402344" xlink:href="#DejaVuSans-65"/>
      <use x="1669.925781" xlink:href="#DejaVuSans-29"/>
     </g>
    </g>
   </g>
  </g>
  <g id="text_30">
   <!-- COVID-19 spread projection using Logistic map -->
   <g transform="translate(213.93 16.318125)scale(0.12 -0.12)">
    <defs>
     <path d="M 1831 0 
L 50 4666 
L 709 4666 
L 2188 738 
L 3669 4666 
L 4325 4666 
L 2547 0 
L 1831 0 
z
" id="DejaVuSans-56" transform="scale(0.015625)"/>
     <path d="M 628 4666 
L 1259 4666 
L 1259 0 
L 628 0 
L 628 4666 
z
" id="DejaVuSans-49" transform="scale(0.015625)"/>
     <path d="M 313 2009 
L 1997 2009 
L 1997 1497 
L 313 1497 
L 313 2009 
z
" id="DejaVuSans-2d" transform="scale(0.015625)"/>
     <path d="M 703 97 
L 703 672 
Q 941 559 1184 500 
Q 1428 441 1663 441 
Q 2288 441 2617 861 
Q 2947 1281 2994 2138 
Q 2813 1869 2534 1725 
Q 2256 1581 1919 1581 
Q 1219 1581 811 2004 
Q 403 2428 403 3163 
Q 403 3881 828 4315 
Q 1253 4750 1959 4750 
Q 2769 4750 3195 4129 
Q 3622 3509 3622 2328 
Q 3622 1225 3098 567 
Q 2575 -91 1691 -91 
Q 1453 -91 1209 -44 
Q 966 3 703 97 
z
M 1959 2075 
Q 2384 2075 2632 2365 
Q 2881 2656 2881 3163 
Q 2881 3666 2632 3958 
Q 2384 4250 1959 4250 
Q 1534 4250 1286 3958 
Q 1038 3666 1038 3163 
Q 1038 2656 1286 2365 
Q 1534 2075 1959 2075 
z
" id="DejaVuSans-39" transform="scale(0.015625)"/>
     <path d="M 628 4666 
L 1259 4666 
L 1259 531 
L 3531 531 
L 3531 0 
L 628 0 
L 628 4666 
z
" id="DejaVuSans-4c" transform="scale(0.015625)"/>
     <path d="M 3328 2828 
Q 3544 3216 3844 3400 
Q 4144 3584 4550 3584 
Q 5097 3584 5394 3201 
Q 5691 2819 5691 2113 
L 5691 0 
L 5113 0 
L 5113 2094 
Q 5113 2597 4934 2840 
Q 4756 3084 4391 3084 
Q 3944 3084 3684 2787 
Q 3425 2491 3425 1978 
L 3425 0 
L 2847 0 
L 2847 2094 
Q 2847 2600 2669 2842 
Q 2491 3084 2119 3084 
Q 1678 3084 1418 2786 
Q 1159 2488 1159 1978 
L 1159 0 
L 581 0 
L 581 3500 
L 1159 3500 
L 1159 2956 
Q 1356 3278 1631 3431 
Q 1906 3584 2284 3584 
Q 2666 3584 2933 3390 
Q 3200 3197 3328 2828 
z
" id="DejaVuSans-6d" transform="scale(0.015625)"/>
    </defs>
    <use xlink:href="#DejaVuSans-43"/>
    <use x="69.824219" xlink:href="#DejaVuSans-4f"/>
    <use x="146.785156" xlink:href="#DejaVuSans-56"/>
    <use x="215.193359" xlink:href="#DejaVuSans-49"/>
    <use x="244.685547" xlink:href="#DejaVuSans-44"/>
    <use x="321.6875" xlink:href="#DejaVuSans-2d"/>
    <use x="357.771484" xlink:href="#DejaVuSans-31"/>
    <use x="421.394531" xlink:href="#DejaVuSans-39"/>
    <use x="485.017578" xlink:href="#DejaVuSans-20"/>
    <use x="516.804688" xlink:href="#DejaVuSans-73"/>
    <use x="568.904297" xlink:href="#DejaVuSans-70"/>
    <use x="632.380859" xlink:href="#DejaVuSans-72"/>
    <use x="671.244141" xlink:href="#DejaVuSans-65"/>
    <use x="732.767578" xlink:href="#DejaVuSans-61"/>
    <use x="794.046875" xlink:href="#DejaVuSans-64"/>
    <use x="857.523438" xlink:href="#DejaVuSans-20"/>
    <use x="889.310547" xlink:href="#DejaVuSans-70"/>
    <use x="952.787109" xlink:href="#DejaVuSans-72"/>
    <use x="991.650391" xlink:href="#DejaVuSans-6f"/>
    <use x="1052.832031" xlink:href="#DejaVuSans-6a"/>
    <use x="1080.615234" xlink:href="#DejaVuSans-65"/>
    <use x="1142.138672" xlink:href="#DejaVuSans-63"/>
    <use x="1197.119141" xlink:href="#DejaVuSans-74"/>
    <use x="1236.328125" xlink:href="#DejaVuSans-69"/>
    <use x="1264.111328" xlink:href="#DejaVuSans-6f"/>
    <use x="1325.292969" xlink:href="#DejaVuSans-6e"/>
    <use x="1388.671875" xlink:href="#DejaVuSans-20"/>
    <use x="1420.458984" xlink:href="#DejaVuSans-75"/>
    <use x="1483.837891" xlink:href="#DejaVuSans-73"/>
    <use x="1535.9375" xlink:href="#DejaVuSans-69"/>
    <use x="1563.720703" xlink:href="#DejaVuSans-6e"/>
    <use x="1627.099609" xlink:href="#DejaVuSans-67"/>
    <use x="1690.576172" xlink:href="#DejaVuSans-20"/>
    <use x="1722.363281" xlink:href="#DejaVuSans-4c"/>
    <use x="1776.326172" xlink:href="#DejaVuSans-6f"/>
    <use x="1837.507812" xlink:href="#DejaVuSans-67"/>
    <use x="1900.984375" xlink:href="#DejaVuSans-69"/>
    <use x="1928.767578" xlink:href="#DejaVuSans-73"/>
    <use x="1980.867188" xlink:href="#DejaVuSans-74"/>
    <use x="2020.076172" xlink:href="#DejaVuSans-69"/>
    <use x="2047.859375" xlink:href="#DejaVuSans-63"/>
    <use x="2102.839844" xlink:href="#DejaVuSans-20"/>
    <use x="2134.626953" xlink:href="#DejaVuSans-6d"/>
    <use x="2232.039062" xlink:href="#DejaVuSans-61"/>
    <use x="2293.318359" xlink:href="#DejaVuSans-70"/>
   </g>
   <!-- assuming a carrying capacity of K=329M people and dt=4D tick time. -->
   <g transform="translate(144.889688 29.7555)scale(0.12 -0.12)">
    <defs>
     <path d="M 2375 4863 
L 2375 4384 
L 1825 4384 
Q 1516 4384 1395 4259 
Q 1275 4134 1275 3809 
L 1275 3500 
L 2222 3500 
L 2222 3053 
L 1275 3053 
L 1275 0 
L 697 0 
L 697 3053 
L 147 3053 
L 147 3500 
L 697 3500 
L 697 3744 
Q 697 4328 969 4595 
Q 1241 4863 1831 4863 
L 2375 4863 
z
" id="DejaVuSans-66" transform="scale(0.015625)"/>
     <path d="M 628 4666 
L 1259 4666 
L 1259 2694 
L 3353 4666 
L 4166 4666 
L 1850 2491 
L 4331 0 
L 3500 0 
L 1259 2247 
L 1259 0 
L 628 0 
L 628 4666 
z
" id="DejaVuSans-4b" transform="scale(0.015625)"/>
     <path d="M 678 2906 
L 4684 2906 
L 4684 2381 
L 678 2381 
L 678 2906 
z
M 678 1631 
L 4684 1631 
L 4684 1100 
L 678 1100 
L 678 1631 
z
" id="DejaVuSans-3d" transform="scale(0.015625)"/>
     <path d="M 628 4666 
L 1569 4666 
L 2759 1491 
L 3956 4666 
L 4897 4666 
L 4897 0 
L 4281 0 
L 4281 4097 
L 3078 897 
L 2444 897 
L 1241 4097 
L 1241 0 
L 628 0 
L 628 4666 
z
" id="DejaVuSans-4d" transform="scale(0.015625)"/>
     <path d="M 2419 4116 
L 825 1625 
L 2419 1625 
L 2419 4116 
z
M 2253 4666 
L 3047 4666 
L 3047 1625 
L 3713 1625 
L 3713 1100 
L 3047 1100 
L 3047 0 
L 2419 0 
L 2419 1100 
L 313 1100 
L 313 1709 
L 2253 4666 
z
" id="DejaVuSans-34" transform="scale(0.015625)"/>
     <path d="M 581 4863 
L 1159 4863 
L 1159 1991 
L 2875 3500 
L 3609 3500 
L 1753 1863 
L 3688 0 
L 2938 0 
L 1159 1709 
L 1159 0 
L 581 0 
L 581 4863 
z
" id="DejaVuSans-6b" transform="scale(0.015625)"/>
    </defs>
    <use xlink:href="#DejaVuSans-61"/>
    <use x="61.279297" xlink:href="#DejaVuSans-73"/>
    <use x="113.378906" xlink:href="#DejaVuSans-73"/>
    <use x="165.478516" xlink:href="#DejaVuSans-75"/>
    <use x="228.857422" xlink:href="#DejaVuSans-6d"/>
    <use x="326.269531" xlink:href="#DejaVuSans-69"/>
    <use x="354.052734" xlink:href="#DejaVuSans-6e"/>
    <use x="417.431641" xlink:href="#DejaVuSans-67"/>
    <use x="480.908203" xlink:href="#DejaVuSans-20"/>
    <use x="512.695312" xlink:href="#DejaVuSans-61"/>
    <use x="573.974609" xlink:href="#DejaVuSans-20"/>
    <use x="605.761719" xlink:href="#DejaVuSans-63"/>
    <use x="660.742188" xlink:href="#DejaVuSans-61"/>
    <use x="722.021484" xlink:href="#DejaVuSans-72"/>
    <use x="761.384766" xlink:href="#DejaVuSans-72"/>
    <use x="802.498047" xlink:href="#DejaVuSans-79"/>
    <use x="861.677734" xlink:href="#DejaVuSans-69"/>
    <use x="889.460938" xlink:href="#DejaVuSans-6e"/>
    <use x="952.839844" xlink:href="#DejaVuSans-67"/>
    <use x="1016.316406" xlink:href="#DejaVuSans-20"/>
    <use x="1048.103516" xlink:href="#DejaVuSans-63"/>
    <use x="1103.083984" xlink:href="#DejaVuSans-61"/>
    <use x="1164.363281" xlink:href="#DejaVuSans-70"/>
    <use x="1227.839844" xlink:href="#DejaVuSans-61"/>
    <use x="1289.119141" xlink:href="#DejaVuSans-63"/>
    <use x="1344.099609" xlink:href="#DejaVuSans-69"/>
    <use x="1371.882812" xlink:href="#DejaVuSans-74"/>
    <use x="1411.091797" xlink:href="#DejaVuSans-79"/>
    <use x="1470.271484" xlink:href="#DejaVuSans-20"/>
    <use x="1502.058594" xlink:href="#DejaVuSans-6f"/>
    <use x="1563.240234" xlink:href="#DejaVuSans-66"/>
    <use x="1598.445312" xlink:href="#DejaVuSans-20"/>
    <use x="1630.232422" xlink:href="#DejaVuSans-4b"/>
    <use x="1695.808594" xlink:href="#DejaVuSans-3d"/>
    <use x="1779.597656" xlink:href="#DejaVuSans-33"/>
    <use x="1843.220703" xlink:href="#DejaVuSans-32"/>
    <use x="1906.84375" xlink:href="#DejaVuSans-39"/>
    <use x="1970.466797" xlink:href="#DejaVuSans-4d"/>
    <use x="2056.746094" xlink:href="#DejaVuSans-20"/>
    <use x="2088.533203" xlink:href="#DejaVuSans-70"/>
    <use x="2152.009766" xlink:href="#DejaVuSans-65"/>
    <use x="2213.533203" xlink:href="#DejaVuSans-6f"/>
    <use x="2274.714844" xlink:href="#DejaVuSans-70"/>
    <use x="2338.191406" xlink:href="#DejaVuSans-6c"/>
    <use x="2365.974609" xlink:href="#DejaVuSans-65"/>
    <use x="2427.498047" xlink:href="#DejaVuSans-20"/>
    <use x="2459.285156" xlink:href="#DejaVuSans-61"/>
    <use x="2520.564453" xlink:href="#DejaVuSans-6e"/>
    <use x="2583.943359" xlink:href="#DejaVuSans-64"/>
    <use x="2647.419922" xlink:href="#DejaVuSans-20"/>
    <use x="2679.207031" xlink:href="#DejaVuSans-64"/>
    <use x="2742.683594" xlink:href="#DejaVuSans-74"/>
    <use x="2781.892578" xlink:href="#DejaVuSans-3d"/>
    <use x="2865.681641" xlink:href="#DejaVuSans-34"/>
    <use x="2929.304688" xlink:href="#DejaVuSans-44"/>
    <use x="3006.306641" xlink:href="#DejaVuSans-20"/>
    <use x="3038.09375" xlink:href="#DejaVuSans-74"/>
    <use x="3077.302734" xlink:href="#DejaVuSans-69"/>
    <use x="3105.085938" xlink:href="#DejaVuSans-63"/>
    <use x="3160.066406" xlink:href="#DejaVuSans-6b"/>
    <use x="3217.976562" xlink:href="#DejaVuSans-20"/>
    <use x="3249.763672" xlink:href="#DejaVuSans-74"/>
    <use x="3288.972656" xlink:href="#DejaVuSans-69"/>
    <use x="3316.755859" xlink:href="#DejaVuSans-6d"/>
    <use x="3414.167969" xlink:href="#DejaVuSans-65"/>
    <use x="3475.691406" xlink:href="#DejaVuSans-2e"/>
   </g>
   <!-- created: 2021-06-06 author: @pschwede, source: JHU CSSE via @entorb &amp; @pomber. -->
   <g transform="translate(98.56125 43.192875)scale(0.12 -0.12)">
    <defs>
     <path d="M 750 794 
L 1409 794 
L 1409 0 
L 750 0 
L 750 794 
z
M 750 3309 
L 1409 3309 
L 1409 2516 
L 750 2516 
L 750 3309 
z
" id="DejaVuSans-3a" transform="scale(0.015625)"/>
     <path d="M 2113 2584 
Q 1688 2584 1439 2293 
Q 1191 2003 1191 1497 
Q 1191 994 1439 701 
Q 1688 409 2113 409 
Q 2538 409 2786 701 
Q 3034 994 3034 1497 
Q 3034 2003 2786 2293 
Q 2538 2584 2113 2584 
z
M 3366 4563 
L 3366 3988 
Q 3128 4100 2886 4159 
Q 2644 4219 2406 4219 
Q 1781 4219 1451 3797 
Q 1122 3375 1075 2522 
Q 1259 2794 1537 2939 
Q 1816 3084 2150 3084 
Q 2853 3084 3261 2657 
Q 3669 2231 3669 1497 
Q 3669 778 3244 343 
Q 2819 -91 2113 -91 
Q 1303 -91 875 529 
Q 447 1150 447 2328 
Q 447 3434 972 4092 
Q 1497 4750 2381 4750 
Q 2619 4750 2861 4703 
Q 3103 4656 3366 4563 
z
" id="DejaVuSans-36" transform="scale(0.015625)"/>
     <path d="M 3513 2113 
L 3513 0 
L 2938 0 
L 2938 2094 
Q 2938 2591 2744 2837 
Q 2550 3084 2163 3084 
Q 1697 3084 1428 2787 
Q 1159 2491 1159 1978 
L 1159 0 
L 581 0 
L 581 4863 
L 1159 4863 
L 1159 2956 
Q 1366 3272 1645 3428 
Q 1925 3584 2291 3584 
Q 2894 3584 3203 3211 
Q 3513 2838 3513 2113 
z
" id="DejaVuSans-68" transform="scale(0.015625)"/>
     <path d="M 2381 1678 
Q 2381 1231 2603 976 
Q 2825 722 3213 722 
Q 3597 722 3817 978 
Q 4038 1234 4038 1678 
Q 4038 2116 3813 2373 
Q 3588 2631 3206 2631 
Q 2828 2631 2604 2375 
Q 2381 2119 2381 1678 
z
M 4084 744 
Q 3897 503 3655 389 
Q 3413 275 3091 275 
Q 2553 275 2217 664 
Q 1881 1053 1881 1678 
Q 1881 2303 2218 2693 
Q 2556 3084 3091 3084 
Q 3413 3084 3656 2967 
Q 3900 2850 4084 2613 
L 4084 3022 
L 4531 3022 
L 4531 722 
Q 4988 791 5245 1139 
Q 5503 1488 5503 2041 
Q 5503 2375 5404 2669 
Q 5306 2963 5106 3213 
Q 4781 3622 4314 3839 
Q 3847 4056 3297 4056 
Q 2913 4056 2559 3954 
Q 2206 3853 1906 3653 
Q 1416 3334 1139 2817 
Q 863 2300 863 1697 
Q 863 1200 1042 765 
Q 1222 331 1563 0 
Q 1891 -325 2322 -495 
Q 2753 -666 3244 -666 
Q 3647 -666 4036 -530 
Q 4425 -394 4750 -141 
L 5031 -488 
Q 4641 -791 4180 -952 
Q 3719 -1113 3244 -1113 
Q 2666 -1113 2153 -908 
Q 1641 -703 1241 -313 
Q 841 78 631 592 
Q 422 1106 422 1697 
Q 422 2266 634 2781 
Q 847 3297 1241 3688 
Q 1644 4084 2172 4295 
Q 2700 4506 3291 4506 
Q 3953 4506 4520 4234 
Q 5088 3963 5472 3463 
Q 5706 3156 5829 2797 
Q 5953 2438 5953 2053 
Q 5953 1231 5456 756 
Q 4959 281 4084 263 
L 4084 744 
z
" id="DejaVuSans-40" transform="scale(0.015625)"/>
     <path d="M 269 3500 
L 844 3500 
L 1563 769 
L 2278 3500 
L 2956 3500 
L 3675 769 
L 4391 3500 
L 4966 3500 
L 4050 0 
L 3372 0 
L 2619 2869 
L 1863 0 
L 1184 0 
L 269 3500 
z
" id="DejaVuSans-77" transform="scale(0.015625)"/>
     <path d="M 750 794 
L 1409 794 
L 1409 256 
L 897 -744 
L 494 -744 
L 750 256 
L 750 794 
z
" id="DejaVuSans-2c" transform="scale(0.015625)"/>
     <path d="M 628 4666 
L 1259 4666 
L 1259 2753 
L 3553 2753 
L 3553 4666 
L 4184 4666 
L 4184 0 
L 3553 0 
L 3553 2222 
L 1259 2222 
L 1259 0 
L 628 0 
L 628 4666 
z
" id="DejaVuSans-48" transform="scale(0.015625)"/>
     <path d="M 556 4666 
L 1191 4666 
L 1191 1831 
Q 1191 1081 1462 751 
Q 1734 422 2344 422 
Q 2950 422 3222 751 
Q 3494 1081 3494 1831 
L 3494 4666 
L 4128 4666 
L 4128 1753 
Q 4128 841 3676 375 
Q 3225 -91 2344 -91 
Q 1459 -91 1007 375 
Q 556 841 556 1753 
L 556 4666 
z
" id="DejaVuSans-55" transform="scale(0.015625)"/>
     <path d="M 3425 4513 
L 3425 3897 
Q 3066 4069 2747 4153 
Q 2428 4238 2131 4238 
Q 1616 4238 1336 4038 
Q 1056 3838 1056 3469 
Q 1056 3159 1242 3001 
Q 1428 2844 1947 2747 
L 2328 2669 
Q 3034 2534 3370 2195 
Q 3706 1856 3706 1288 
Q 3706 609 3251 259 
Q 2797 -91 1919 -91 
Q 1588 -91 1214 -16 
Q 841 59 441 206 
L 441 856 
Q 825 641 1194 531 
Q 1563 422 1919 422 
Q 2459 422 2753 634 
Q 3047 847 3047 1241 
Q 3047 1584 2836 1778 
Q 2625 1972 2144 2069 
L 1759 2144 
Q 1053 2284 737 2584 
Q 422 2884 422 3419 
Q 422 4038 858 4394 
Q 1294 4750 2059 4750 
Q 2388 4750 2728 4690 
Q 3069 4631 3425 4513 
z
" id="DejaVuSans-53" transform="scale(0.015625)"/>
     <path d="M 628 4666 
L 3578 4666 
L 3578 4134 
L 1259 4134 
L 1259 2753 
L 3481 2753 
L 3481 2222 
L 1259 2222 
L 1259 531 
L 3634 531 
L 3634 0 
L 628 0 
L 628 4666 
z
" id="DejaVuSans-45" transform="scale(0.015625)"/>
     <path d="M 3116 1747 
Q 3116 2381 2855 2742 
Q 2594 3103 2138 3103 
Q 1681 3103 1420 2742 
Q 1159 2381 1159 1747 
Q 1159 1113 1420 752 
Q 1681 391 2138 391 
Q 2594 391 2855 752 
Q 3116 1113 3116 1747 
z
M 1159 2969 
Q 1341 3281 1617 3432 
Q 1894 3584 2278 3584 
Q 2916 3584 3314 3078 
Q 3713 2572 3713 1747 
Q 3713 922 3314 415 
Q 2916 -91 2278 -91 
Q 1894 -91 1617 61 
Q 1341 213 1159 525 
L 1159 0 
L 581 0 
L 581 4863 
L 1159 4863 
L 1159 2969 
z
" id="DejaVuSans-62" transform="scale(0.015625)"/>
     <path d="M 1556 2509 
Q 1272 2256 1139 2004 
Q 1006 1753 1006 1478 
Q 1006 1022 1337 719 
Q 1669 416 2169 416 
Q 2466 416 2725 514 
Q 2984 613 3213 813 
L 1556 2509 
z
M 1997 2859 
L 3584 1234 
Q 3769 1513 3872 1830 
Q 3975 2147 3994 2503 
L 4575 2503 
Q 4538 2091 4375 1687 
Q 4213 1284 3922 891 
L 4794 0 
L 4006 0 
L 3559 459 
Q 3234 181 2878 45 
Q 2522 -91 2113 -91 
Q 1359 -91 881 339 
Q 403 769 403 1441 
Q 403 1841 612 2192 
Q 822 2544 1241 2853 
Q 1091 3050 1012 3245 
Q 934 3441 934 3628 
Q 934 4134 1281 4442 
Q 1628 4750 2203 4750 
Q 2463 4750 2720 4694 
Q 2978 4638 3244 4525 
L 3244 3956 
Q 2972 4103 2725 4179 
Q 2478 4256 2266 4256 
Q 1938 4256 1733 4082 
Q 1528 3909 1528 3634 
Q 1528 3475 1620 3314 
Q 1713 3153 1997 2859 
z
" id="DejaVuSans-26" transform="scale(0.015625)"/>
    </defs>
    <use xlink:href="#DejaVuSans-63"/>
    <use x="54.980469" xlink:href="#DejaVuSans-72"/>
    <use x="93.84375" xlink:href="#DejaVuSans-65"/>
    <use x="155.367188" xlink:href="#DejaVuSans-61"/>
    <use x="216.646484" xlink:href="#DejaVuSans-74"/>
    <use x="255.855469" xlink:href="#DejaVuSans-65"/>
    <use x="317.378906" xlink:href="#DejaVuSans-64"/>
    <use x="380.855469" xlink:href="#DejaVuSans-3a"/>
    <use x="414.546875" xlink:href="#DejaVuSans-20"/>
    <use x="446.333984" xlink:href="#DejaVuSans-32"/>
    <use x="509.957031" xlink:href="#DejaVuSans-30"/>
    <use x="573.580078" xlink:href="#DejaVuSans-32"/>
    <use x="637.203125" xlink:href="#DejaVuSans-31"/>
    <use x="700.826172" xlink:href="#DejaVuSans-2d"/>
    <use x="736.910156" xlink:href="#DejaVuSans-30"/>
    <use x="800.533203" xlink:href="#DejaVuSans-36"/>
    <use x="864.15625" xlink:href="#DejaVuSans-2d"/>
    <use x="900.240234" xlink:href="#DejaVuSans-30"/>
    <use x="963.863281" xlink:href="#DejaVuSans-36"/>
    <use x="1027.486328" xlink:href="#DejaVuSans-20"/>
    <use x="1059.273438" xlink:href="#DejaVuSans-61"/>
    <use x="1120.552734" xlink:href="#DejaVuSans-75"/>
    <use x="1183.931641" xlink:href="#DejaVuSans-74"/>
    <use x="1223.140625" xlink:href="#DejaVuSans-68"/>
    <use x="1286.519531" xlink:href="#DejaVuSans-6f"/>
    <use x="1347.701172" xlink:href="#DejaVuSans-72"/>
    <use x="1387.064453" xlink:href="#DejaVuSans-3a"/>
    <use x="1420.755859" xlink:href="#DejaVuSans-20"/>
    <use x="1452.542969" xlink:href="#DejaVuSans-40"/>
    <use x="1552.542969" xlink:href="#DejaVuSans-70"/>
    <use x="1616.019531" xlink:href="#DejaVuSans-73"/>
    <use x="1668.119141" xlink:href="#DejaVuSans-63"/>
    <use x="1723.099609" xlink:href="#DejaVuSans-68"/>
    <use x="1786.478516" xlink:href="#DejaVuSans-77"/>
    <use x="1868.265625" xlink:href="#DejaVuSans-65"/>
    <use x="1929.789062" xlink:href="#DejaVuSans-64"/>
    <use x="1993.265625" xlink:href="#DejaVuSans-65"/>
    <use x="2054.789062" xlink:href="#DejaVuSans-2c"/>
    <use x="2086.576172" xlink:href="#DejaVuSans-20"/>
    <use x="2118.363281" xlink:href="#DejaVuSans-73"/>
    <use x="2170.462891" xlink:href="#DejaVuSans-6f"/>
    <use x="2231.644531" xlink:href="#DejaVuSans-75"/>
    <use x="2295.023438" xlink:href="#DejaVuSans-72"/>
    <use x="2333.886719" xlink:href="#DejaVuSans-63"/>
    <use x="2388.867188" xlink:href="#DejaVuSans-65"/>
    <use x="2450.390625" xlink:href="#DejaVuSans-3a"/>
    <use x="2484.082031" xlink:href="#DejaVuSans-20"/>
    <use x="2515.869141" xlink:href="#DejaVuSans-4a"/>
    <use x="2545.361328" xlink:href="#DejaVuSans-48"/>
    <use x="2620.556641" xlink:href="#DejaVuSans-55"/>
    <use x="2693.75" xlink:href="#DejaVuSans-20"/>
    <use x="2725.537109" xlink:href="#DejaVuSans-43"/>
    <use x="2795.361328" xlink:href="#DejaVuSans-53"/>
    <use x="2858.837891" xlink:href="#DejaVuSans-53"/>
    <use x="2922.314453" xlink:href="#DejaVuSans-45"/>
    <use x="2985.498047" xlink:href="#DejaVuSans-20"/>
    <use x="3017.285156" xlink:href="#DejaVuSans-76"/>
    <use x="3076.464844" xlink:href="#DejaVuSans-69"/>
    <use x="3104.248047" xlink:href="#DejaVuSans-61"/>
    <use x="3165.527344" xlink:href="#DejaVuSans-20"/>
    <use x="3197.314453" xlink:href="#DejaVuSans-40"/>
    <use x="3297.314453" xlink:href="#DejaVuSans-65"/>
    <use x="3358.837891" xlink:href="#DejaVuSans-6e"/>
    <use x="3422.216797" xlink:href="#DejaVuSans-74"/>
    <use x="3461.425781" xlink:href="#DejaVuSans-6f"/>
    <use x="3522.607422" xlink:href="#DejaVuSans-72"/>
    <use x="3563.720703" xlink:href="#DejaVuSans-62"/>
    <use x="3627.197266" xlink:href="#DejaVuSans-20"/>
    <use x="3658.984375" xlink:href="#DejaVuSans-26"/>
    <use x="3736.962891" xlink:href="#DejaVuSans-20"/>
    <use x="3768.75" xlink:href="#DejaVuSans-40"/>
    <use x="3868.75" xlink:href="#DejaVuSans-70"/>
    <use x="3932.226562" xlink:href="#DejaVuSans-6f"/>
    <use x="3993.408203" xlink:href="#DejaVuSans-6d"/>
    <use x="4090.820312" xlink:href="#DejaVuSans-62"/>
    <use x="4154.296875" xlink:href="#DejaVuSans-65"/>
    <use x="4215.820312" xlink:href="#DejaVuSans-72"/>
    <use x="4247.808594" xlink:href="#DejaVuSans-2e"/>
   </g>
  </g>
 </g>
 <defs>
  <clipPath id="p9a0016a323">
   <rect height="198.960412" width="636.55" x="67.98875" y="102.072"/>
  </clipPath>
  <clipPath id="p8d7bfbeb07">
   <rect height="198.960412" width="636.55" x="67.98875" y="313.679588"/>
  </clipPath>
 </defs>
</svg>
