<?xml version="1.0" encoding="utf-8" standalone="no"?>
<!DOCTYPE svg PUBLIC "-//W3C//DTD SVG 1.1//EN"
  "http://www.w3.org/Graphics/SVG/1.1/DTD/svg11.dtd">
<!-- Created with matplotlib (https://matplotlib.org/) -->
<svg height="563.560252pt" version="1.1" viewBox="0 0 711.73875 563.560252" width="711.73875pt" xmlns="http://www.w3.org/2000/svg" xmlns:xlink="http://www.w3.org/1999/xlink">
 <metadata>
  <rdf:RDF xmlns:cc="http://creativecommons.org/ns#" xmlns:dc="http://purl.org/dc/elements/1.1/" xmlns:rdf="http://www.w3.org/1999/02/22-rdf-syntax-ns#">
   <cc:Work>
    <dc:type rdf:resource="http://purl.org/dc/dcmitype/StillImage"/>
    <dc:date>2020-12-31T09:02:51.593607</dc:date>
    <dc:format>image/svg+xml</dc:format>
    <dc:creator>
     <cc:Agent>
      <dc:title>Matplotlib v3.3.2, https://matplotlib.org/</dc:title>
     </cc:Agent>
    </dc:creator>
   </cc:Work>
  </rdf:RDF>
 </metadata>
 <defs>
  <style type="text/css">*{stroke-linecap:butt;stroke-linejoin:round;}</style>
 </defs>
 <g id="figure_1">
  <g id="patch_1">
   <path d="M 0 563.560252 
L 711.73875 563.560252 
L 711.73875 0 
L 0 0 
z
" style="fill:#ffffff;"/>
  </g>
  <g id="axes_1">
   <g id="patch_2">
    <path d="M 67.98875 301.037441 
L 704.53875 301.037441 
L 704.53875 102.072 
L 67.98875 102.072 
z
" style="fill:#e5e5e5;"/>
   </g>
   <g id="matplotlib.axis_1">
    <g id="xtick_1">
     <g id="line2d_1">
      <defs>
       <path d="M 0 0 
L 0 3.5 
" id="m9bbb4992bf" style="stroke:#555555;stroke-width:0.8;"/>
      </defs>
      <g>
       <use style="fill:#555555;stroke:#555555;stroke-width:0.8;" x="81.172702" xlink:href="#m9bbb4992bf" y="301.037441"/>
      </g>
     </g>
    </g>
    <g id="xtick_2">
     <g id="line2d_2">
      <g>
       <use style="fill:#555555;stroke:#555555;stroke-width:0.8;" x="180.561508" xlink:href="#m9bbb4992bf" y="301.037441"/>
      </g>
     </g>
    </g>
    <g id="xtick_3">
     <g id="line2d_3">
      <g>
       <use style="fill:#555555;stroke:#555555;stroke-width:0.8;" x="279.67876" xlink:href="#m9bbb4992bf" y="301.037441"/>
      </g>
     </g>
    </g>
    <g id="xtick_4">
     <g id="line2d_4">
      <g>
       <use style="fill:#555555;stroke:#555555;stroke-width:0.8;" x="378.796012" xlink:href="#m9bbb4992bf" y="301.037441"/>
      </g>
     </g>
    </g>
    <g id="xtick_5">
     <g id="line2d_5">
      <g>
       <use style="fill:#555555;stroke:#555555;stroke-width:0.8;" x="477.913264" xlink:href="#m9bbb4992bf" y="301.037441"/>
      </g>
     </g>
    </g>
    <g id="xtick_6">
     <g id="line2d_6">
      <g>
       <use style="fill:#555555;stroke:#555555;stroke-width:0.8;" x="577.30207" xlink:href="#m9bbb4992bf" y="301.037441"/>
      </g>
     </g>
    </g>
    <g id="xtick_7">
     <g id="line2d_7">
      <g>
       <use style="fill:#555555;stroke:#555555;stroke-width:0.8;" x="676.419321" xlink:href="#m9bbb4992bf" y="301.037441"/>
      </g>
     </g>
    </g>
    <g id="xtick_8">
     <g id="line2d_8">
      <defs>
       <path d="M 0 0 
L 0 2 
" id="m5f8a07212e" style="stroke:#555555;stroke-width:0.6;"/>
      </defs>
      <g>
       <use style="fill:#555555;stroke:#555555;stroke-width:0.6;" x="145.802582" xlink:href="#m5f8a07212e" y="301.037441"/>
      </g>
     </g>
    </g>
    <g id="xtick_9">
     <g id="line2d_9">
      <g>
       <use style="fill:#555555;stroke:#555555;stroke-width:0.6;" x="281.579639" xlink:href="#m5f8a07212e" y="301.037441"/>
      </g>
     </g>
    </g>
    <g id="xtick_10">
     <g id="line2d_10">
      <g>
       <use style="fill:#555555;stroke:#555555;stroke-width:0.6;" x="417.356696" xlink:href="#m5f8a07212e" y="301.037441"/>
      </g>
     </g>
    </g>
    <g id="xtick_11">
     <g id="line2d_11">
      <g>
       <use style="fill:#555555;stroke:#555555;stroke-width:0.6;" x="553.133753" xlink:href="#m5f8a07212e" y="301.037441"/>
      </g>
     </g>
    </g>
    <g id="xtick_12">
     <g id="line2d_12">
      <g>
       <use style="fill:#555555;stroke:#555555;stroke-width:0.6;" x="688.910811" xlink:href="#m5f8a07212e" y="301.037441"/>
      </g>
     </g>
    </g>
   </g>
   <g id="matplotlib.axis_2">
    <g id="ytick_1">
     <g id="line2d_13">
      <defs>
       <path d="M 0 0 
L -3.5 0 
" id="m4abfa7cae5" style="stroke:#555555;stroke-width:0.8;"/>
      </defs>
      <g>
       <use style="fill:#555555;stroke:#555555;stroke-width:0.8;" x="67.98875" xlink:href="#m4abfa7cae5" y="291.994775"/>
      </g>
     </g>
     <g id="text_1">
      <!-- 0 -->
      <g style="fill:#555555;" transform="translate(54.62625 295.793993)scale(0.1 -0.1)">
       <defs>
        <path d="M 31.78125 66.40625 
Q 24.171875 66.40625 20.328125 58.90625 
Q 16.5 51.421875 16.5 36.375 
Q 16.5 21.390625 20.328125 13.890625 
Q 24.171875 6.390625 31.78125 6.390625 
Q 39.453125 6.390625 43.28125 13.890625 
Q 47.125 21.390625 47.125 36.375 
Q 47.125 51.421875 43.28125 58.90625 
Q 39.453125 66.40625 31.78125 66.40625 
z
M 31.78125 74.21875 
Q 44.046875 74.21875 50.515625 64.515625 
Q 56.984375 54.828125 56.984375 36.375 
Q 56.984375 17.96875 50.515625 8.265625 
Q 44.046875 -1.421875 31.78125 -1.421875 
Q 19.53125 -1.421875 13.0625 8.265625 
Q 6.59375 17.96875 6.59375 36.375 
Q 6.59375 54.828125 13.0625 64.515625 
Q 19.53125 74.21875 31.78125 74.21875 
z
" id="DejaVuSans-48"/>
       </defs>
       <use xlink:href="#DejaVuSans-48"/>
      </g>
     </g>
    </g>
    <g id="ytick_2">
     <g id="line2d_14">
      <g>
       <use style="fill:#555555;stroke:#555555;stroke-width:0.8;" x="67.98875" xlink:href="#m4abfa7cae5" y="269.027196"/>
      </g>
     </g>
     <g id="text_2">
      <!-- 1 -->
      <g style="fill:#555555;" transform="translate(54.62625 272.826415)scale(0.1 -0.1)">
       <defs>
        <path d="M 12.40625 8.296875 
L 28.515625 8.296875 
L 28.515625 63.921875 
L 10.984375 60.40625 
L 10.984375 69.390625 
L 28.421875 72.90625 
L 38.28125 72.90625 
L 38.28125 8.296875 
L 54.390625 8.296875 
L 54.390625 0 
L 12.40625 0 
z
" id="DejaVuSans-49"/>
       </defs>
       <use xlink:href="#DejaVuSans-49"/>
      </g>
     </g>
    </g>
    <g id="ytick_3">
     <g id="line2d_15">
      <g>
       <use style="fill:#555555;stroke:#555555;stroke-width:0.8;" x="67.98875" xlink:href="#m4abfa7cae5" y="246.059618"/>
      </g>
     </g>
     <g id="text_3">
      <!-- 2 -->
      <g style="fill:#555555;" transform="translate(54.62625 249.858836)scale(0.1 -0.1)">
       <defs>
        <path d="M 19.1875 8.296875 
L 53.609375 8.296875 
L 53.609375 0 
L 7.328125 0 
L 7.328125 8.296875 
Q 12.9375 14.109375 22.625 23.890625 
Q 32.328125 33.6875 34.8125 36.53125 
Q 39.546875 41.84375 41.421875 45.53125 
Q 43.3125 49.21875 43.3125 52.78125 
Q 43.3125 58.59375 39.234375 62.25 
Q 35.15625 65.921875 28.609375 65.921875 
Q 23.96875 65.921875 18.8125 64.3125 
Q 13.671875 62.703125 7.8125 59.421875 
L 7.8125 69.390625 
Q 13.765625 71.78125 18.9375 73 
Q 24.125 74.21875 28.421875 74.21875 
Q 39.75 74.21875 46.484375 68.546875 
Q 53.21875 62.890625 53.21875 53.421875 
Q 53.21875 48.921875 51.53125 44.890625 
Q 49.859375 40.875 45.40625 35.40625 
Q 44.1875 33.984375 37.640625 27.21875 
Q 31.109375 20.453125 19.1875 8.296875 
z
" id="DejaVuSans-50"/>
       </defs>
       <use xlink:href="#DejaVuSans-50"/>
      </g>
     </g>
    </g>
    <g id="ytick_4">
     <g id="line2d_16">
      <g>
       <use style="fill:#555555;stroke:#555555;stroke-width:0.8;" x="67.98875" xlink:href="#m4abfa7cae5" y="223.092039"/>
      </g>
     </g>
     <g id="text_4">
      <!-- 3 -->
      <g style="fill:#555555;" transform="translate(54.62625 226.891258)scale(0.1 -0.1)">
       <defs>
        <path d="M 40.578125 39.3125 
Q 47.65625 37.796875 51.625 33 
Q 55.609375 28.21875 55.609375 21.1875 
Q 55.609375 10.40625 48.1875 4.484375 
Q 40.765625 -1.421875 27.09375 -1.421875 
Q 22.515625 -1.421875 17.65625 -0.515625 
Q 12.796875 0.390625 7.625 2.203125 
L 7.625 11.71875 
Q 11.71875 9.328125 16.59375 8.109375 
Q 21.484375 6.890625 26.8125 6.890625 
Q 36.078125 6.890625 40.9375 10.546875 
Q 45.796875 14.203125 45.796875 21.1875 
Q 45.796875 27.640625 41.28125 31.265625 
Q 36.765625 34.90625 28.71875 34.90625 
L 20.21875 34.90625 
L 20.21875 43.015625 
L 29.109375 43.015625 
Q 36.375 43.015625 40.234375 45.921875 
Q 44.09375 48.828125 44.09375 54.296875 
Q 44.09375 59.90625 40.109375 62.90625 
Q 36.140625 65.921875 28.71875 65.921875 
Q 24.65625 65.921875 20.015625 65.03125 
Q 15.375 64.15625 9.8125 62.3125 
L 9.8125 71.09375 
Q 15.4375 72.65625 20.34375 73.4375 
Q 25.25 74.21875 29.59375 74.21875 
Q 40.828125 74.21875 47.359375 69.109375 
Q 53.90625 64.015625 53.90625 55.328125 
Q 53.90625 49.265625 50.4375 45.09375 
Q 46.96875 40.921875 40.578125 39.3125 
z
" id="DejaVuSans-51"/>
       </defs>
       <use xlink:href="#DejaVuSans-51"/>
      </g>
     </g>
    </g>
    <g id="ytick_5">
     <g id="line2d_17">
      <g>
       <use style="fill:#555555;stroke:#555555;stroke-width:0.8;" x="67.98875" xlink:href="#m4abfa7cae5" y="200.124461"/>
      </g>
     </g>
     <g id="text_5">
      <!-- 4 -->
      <g style="fill:#555555;" transform="translate(54.62625 203.92368)scale(0.1 -0.1)">
       <defs>
        <path d="M 37.796875 64.3125 
L 12.890625 25.390625 
L 37.796875 25.390625 
z
M 35.203125 72.90625 
L 47.609375 72.90625 
L 47.609375 25.390625 
L 58.015625 25.390625 
L 58.015625 17.1875 
L 47.609375 17.1875 
L 47.609375 0 
L 37.796875 0 
L 37.796875 17.1875 
L 4.890625 17.1875 
L 4.890625 26.703125 
z
" id="DejaVuSans-52"/>
       </defs>
       <use xlink:href="#DejaVuSans-52"/>
      </g>
     </g>
    </g>
    <g id="ytick_6">
     <g id="line2d_18">
      <g>
       <use style="fill:#555555;stroke:#555555;stroke-width:0.8;" x="67.98875" xlink:href="#m4abfa7cae5" y="177.156882"/>
      </g>
     </g>
     <g id="text_6">
      <!-- 5 -->
      <g style="fill:#555555;" transform="translate(54.62625 180.956101)scale(0.1 -0.1)">
       <defs>
        <path d="M 10.796875 72.90625 
L 49.515625 72.90625 
L 49.515625 64.59375 
L 19.828125 64.59375 
L 19.828125 46.734375 
Q 21.96875 47.46875 24.109375 47.828125 
Q 26.265625 48.1875 28.421875 48.1875 
Q 40.625 48.1875 47.75 41.5 
Q 54.890625 34.8125 54.890625 23.390625 
Q 54.890625 11.625 47.5625 5.09375 
Q 40.234375 -1.421875 26.90625 -1.421875 
Q 22.3125 -1.421875 17.546875 -0.640625 
Q 12.796875 0.140625 7.71875 1.703125 
L 7.71875 11.625 
Q 12.109375 9.234375 16.796875 8.0625 
Q 21.484375 6.890625 26.703125 6.890625 
Q 35.15625 6.890625 40.078125 11.328125 
Q 45.015625 15.765625 45.015625 23.390625 
Q 45.015625 31 40.078125 35.4375 
Q 35.15625 39.890625 26.703125 39.890625 
Q 22.75 39.890625 18.8125 39.015625 
Q 14.890625 38.140625 10.796875 36.28125 
z
" id="DejaVuSans-53"/>
       </defs>
       <use xlink:href="#DejaVuSans-53"/>
      </g>
     </g>
    </g>
    <g id="ytick_7">
     <g id="line2d_19">
      <g>
       <use style="fill:#555555;stroke:#555555;stroke-width:0.8;" x="67.98875" xlink:href="#m4abfa7cae5" y="154.189304"/>
      </g>
     </g>
     <g id="text_7">
      <!-- 6 -->
      <g style="fill:#555555;" transform="translate(54.62625 157.988523)scale(0.1 -0.1)">
       <defs>
        <path d="M 33.015625 40.375 
Q 26.375 40.375 22.484375 35.828125 
Q 18.609375 31.296875 18.609375 23.390625 
Q 18.609375 15.53125 22.484375 10.953125 
Q 26.375 6.390625 33.015625 6.390625 
Q 39.65625 6.390625 43.53125 10.953125 
Q 47.40625 15.53125 47.40625 23.390625 
Q 47.40625 31.296875 43.53125 35.828125 
Q 39.65625 40.375 33.015625 40.375 
z
M 52.59375 71.296875 
L 52.59375 62.3125 
Q 48.875 64.0625 45.09375 64.984375 
Q 41.3125 65.921875 37.59375 65.921875 
Q 27.828125 65.921875 22.671875 59.328125 
Q 17.53125 52.734375 16.796875 39.40625 
Q 19.671875 43.65625 24.015625 45.921875 
Q 28.375 48.1875 33.59375 48.1875 
Q 44.578125 48.1875 50.953125 41.515625 
Q 57.328125 34.859375 57.328125 23.390625 
Q 57.328125 12.15625 50.6875 5.359375 
Q 44.046875 -1.421875 33.015625 -1.421875 
Q 20.359375 -1.421875 13.671875 8.265625 
Q 6.984375 17.96875 6.984375 36.375 
Q 6.984375 53.65625 15.1875 63.9375 
Q 23.390625 74.21875 37.203125 74.21875 
Q 40.921875 74.21875 44.703125 73.484375 
Q 48.484375 72.75 52.59375 71.296875 
z
" id="DejaVuSans-54"/>
       </defs>
       <use xlink:href="#DejaVuSans-54"/>
      </g>
     </g>
    </g>
    <g id="ytick_8">
     <g id="line2d_20">
      <g>
       <use style="fill:#555555;stroke:#555555;stroke-width:0.8;" x="67.98875" xlink:href="#m4abfa7cae5" y="131.221725"/>
      </g>
     </g>
     <g id="text_8">
      <!-- 7 -->
      <g style="fill:#555555;" transform="translate(54.62625 135.020944)scale(0.1 -0.1)">
       <defs>
        <path d="M 8.203125 72.90625 
L 55.078125 72.90625 
L 55.078125 68.703125 
L 28.609375 0 
L 18.3125 0 
L 43.21875 64.59375 
L 8.203125 64.59375 
z
" id="DejaVuSans-55"/>
       </defs>
       <use xlink:href="#DejaVuSans-55"/>
      </g>
     </g>
    </g>
    <g id="ytick_9">
     <g id="line2d_21">
      <g>
       <use style="fill:#555555;stroke:#555555;stroke-width:0.8;" x="67.98875" xlink:href="#m4abfa7cae5" y="108.254147"/>
      </g>
     </g>
     <g id="text_9">
      <!-- 8 -->
      <g style="fill:#555555;" transform="translate(54.62625 112.053366)scale(0.1 -0.1)">
       <defs>
        <path d="M 31.78125 34.625 
Q 24.75 34.625 20.71875 30.859375 
Q 16.703125 27.09375 16.703125 20.515625 
Q 16.703125 13.921875 20.71875 10.15625 
Q 24.75 6.390625 31.78125 6.390625 
Q 38.8125 6.390625 42.859375 10.171875 
Q 46.921875 13.96875 46.921875 20.515625 
Q 46.921875 27.09375 42.890625 30.859375 
Q 38.875 34.625 31.78125 34.625 
z
M 21.921875 38.8125 
Q 15.578125 40.375 12.03125 44.71875 
Q 8.5 49.078125 8.5 55.328125 
Q 8.5 64.0625 14.71875 69.140625 
Q 20.953125 74.21875 31.78125 74.21875 
Q 42.671875 74.21875 48.875 69.140625 
Q 55.078125 64.0625 55.078125 55.328125 
Q 55.078125 49.078125 51.53125 44.71875 
Q 48 40.375 41.703125 38.8125 
Q 48.828125 37.15625 52.796875 32.3125 
Q 56.78125 27.484375 56.78125 20.515625 
Q 56.78125 9.90625 50.3125 4.234375 
Q 43.84375 -1.421875 31.78125 -1.421875 
Q 19.734375 -1.421875 13.25 4.234375 
Q 6.78125 9.90625 6.78125 20.515625 
Q 6.78125 27.484375 10.78125 32.3125 
Q 14.796875 37.15625 21.921875 38.8125 
z
M 18.3125 54.390625 
Q 18.3125 48.734375 21.84375 45.5625 
Q 25.390625 42.390625 31.78125 42.390625 
Q 38.140625 42.390625 41.71875 45.5625 
Q 45.3125 48.734375 45.3125 54.390625 
Q 45.3125 60.0625 41.71875 63.234375 
Q 38.140625 66.40625 31.78125 66.40625 
Q 25.390625 66.40625 21.84375 63.234375 
Q 18.3125 60.0625 18.3125 54.390625 
z
" id="DejaVuSans-56"/>
       </defs>
       <use xlink:href="#DejaVuSans-56"/>
      </g>
     </g>
    </g>
    <g id="text_10">
     <!-- Total -->
     <g style="fill:#555555;" transform="translate(48.130625 215.566596)rotate(-90)scale(0.12 -0.12)">
      <defs>
       <path d="M -0.296875 72.90625 
L 61.375 72.90625 
L 61.375 64.59375 
L 35.5 64.59375 
L 35.5 0 
L 25.59375 0 
L 25.59375 64.59375 
L -0.296875 64.59375 
z
" id="DejaVuSans-84"/>
       <path d="M 30.609375 48.390625 
Q 23.390625 48.390625 19.1875 42.75 
Q 14.984375 37.109375 14.984375 27.296875 
Q 14.984375 17.484375 19.15625 11.84375 
Q 23.34375 6.203125 30.609375 6.203125 
Q 37.796875 6.203125 41.984375 11.859375 
Q 46.1875 17.53125 46.1875 27.296875 
Q 46.1875 37.015625 41.984375 42.703125 
Q 37.796875 48.390625 30.609375 48.390625 
z
M 30.609375 56 
Q 42.328125 56 49.015625 48.375 
Q 55.71875 40.765625 55.71875 27.296875 
Q 55.71875 13.875 49.015625 6.21875 
Q 42.328125 -1.421875 30.609375 -1.421875 
Q 18.84375 -1.421875 12.171875 6.21875 
Q 5.515625 13.875 5.515625 27.296875 
Q 5.515625 40.765625 12.171875 48.375 
Q 18.84375 56 30.609375 56 
z
" id="DejaVuSans-111"/>
       <path d="M 18.3125 70.21875 
L 18.3125 54.6875 
L 36.8125 54.6875 
L 36.8125 47.703125 
L 18.3125 47.703125 
L 18.3125 18.015625 
Q 18.3125 11.328125 20.140625 9.421875 
Q 21.96875 7.515625 27.59375 7.515625 
L 36.8125 7.515625 
L 36.8125 0 
L 27.59375 0 
Q 17.1875 0 13.234375 3.875 
Q 9.28125 7.765625 9.28125 18.015625 
L 9.28125 47.703125 
L 2.6875 47.703125 
L 2.6875 54.6875 
L 9.28125 54.6875 
L 9.28125 70.21875 
z
" id="DejaVuSans-116"/>
       <path d="M 34.28125 27.484375 
Q 23.390625 27.484375 19.1875 25 
Q 14.984375 22.515625 14.984375 16.5 
Q 14.984375 11.71875 18.140625 8.90625 
Q 21.296875 6.109375 26.703125 6.109375 
Q 34.1875 6.109375 38.703125 11.40625 
Q 43.21875 16.703125 43.21875 25.484375 
L 43.21875 27.484375 
z
M 52.203125 31.203125 
L 52.203125 0 
L 43.21875 0 
L 43.21875 8.296875 
Q 40.140625 3.328125 35.546875 0.953125 
Q 30.953125 -1.421875 24.3125 -1.421875 
Q 15.921875 -1.421875 10.953125 3.296875 
Q 6 8.015625 6 15.921875 
Q 6 25.140625 12.171875 29.828125 
Q 18.359375 34.515625 30.609375 34.515625 
L 43.21875 34.515625 
L 43.21875 35.40625 
Q 43.21875 41.609375 39.140625 45 
Q 35.0625 48.390625 27.6875 48.390625 
Q 23 48.390625 18.546875 47.265625 
Q 14.109375 46.140625 10.015625 43.890625 
L 10.015625 52.203125 
Q 14.9375 54.109375 19.578125 55.046875 
Q 24.21875 56 28.609375 56 
Q 40.484375 56 46.34375 49.84375 
Q 52.203125 43.703125 52.203125 31.203125 
z
" id="DejaVuSans-97"/>
       <path d="M 9.421875 75.984375 
L 18.40625 75.984375 
L 18.40625 0 
L 9.421875 0 
z
" id="DejaVuSans-108"/>
      </defs>
      <use xlink:href="#DejaVuSans-84"/>
      <use x="44.083984" xlink:href="#DejaVuSans-111"/>
      <use x="105.265625" xlink:href="#DejaVuSans-116"/>
      <use x="144.474609" xlink:href="#DejaVuSans-97"/>
      <use x="205.753906" xlink:href="#DejaVuSans-108"/>
     </g>
    </g>
    <g id="text_11">
     <!-- 1e6 -->
     <g style="fill:#555555;" transform="translate(67.98875 99.072)scale(0.1 -0.1)">
      <defs>
       <path d="M 56.203125 29.59375 
L 56.203125 25.203125 
L 14.890625 25.203125 
Q 15.484375 15.921875 20.484375 11.0625 
Q 25.484375 6.203125 34.421875 6.203125 
Q 39.59375 6.203125 44.453125 7.46875 
Q 49.3125 8.734375 54.109375 11.28125 
L 54.109375 2.78125 
Q 49.265625 0.734375 44.1875 -0.34375 
Q 39.109375 -1.421875 33.890625 -1.421875 
Q 20.796875 -1.421875 13.15625 6.1875 
Q 5.515625 13.8125 5.515625 26.8125 
Q 5.515625 40.234375 12.765625 48.109375 
Q 20.015625 56 32.328125 56 
Q 43.359375 56 49.78125 48.890625 
Q 56.203125 41.796875 56.203125 29.59375 
z
M 47.21875 32.234375 
Q 47.125 39.59375 43.09375 43.984375 
Q 39.0625 48.390625 32.421875 48.390625 
Q 24.90625 48.390625 20.390625 44.140625 
Q 15.875 39.890625 15.1875 32.171875 
z
" id="DejaVuSans-101"/>
      </defs>
      <use xlink:href="#DejaVuSans-49"/>
      <use x="63.623047" xlink:href="#DejaVuSans-101"/>
      <use x="125.146484" xlink:href="#DejaVuSans-54"/>
     </g>
    </g>
   </g>
   <g id="line2d_22">
    <path clip-path="url(#pc62fe4b2ee)" d="M 96.922841 291.993557 
L 101.810815 291.900283 
L 103.44014 291.672395 
L 104.79791 291.247836 
L 110.228993 289.113607 
L 113.216088 288.509392 
L 115.931629 288.223393 
L 121.091157 287.903163 
L 141.72927 287.059534 
L 146.34569 286.590024 
L 154.492313 285.604587 
L 157.750963 285.002912 
L 159.651841 284.378089 
L 161.281166 283.532223 
L 162.367383 282.695133 
L 163.453599 281.563317 
L 165.082924 279.4218 
L 167.255357 276.099911 
L 172.143331 268.556581 
L 174.587318 264.77095 
L 176.216642 261.797859 
L 178.389075 257.254501 
L 178.932184 256.176419 
L 179.746846 255.032995 
L 180.289954 253.816233 
L 180.289954 253.816233 
" style="fill:none;stroke:#e24a33;stroke-linecap:square;stroke-width:1.5;"/>
   </g>
   <g id="line2d_23">
    <path clip-path="url(#pc62fe4b2ee)" d="M 180.289954 253.816233 
L 183.277049 247.230823 
L 185.449482 242.900458 
L 187.350361 239.535598 
L 189.25124 236.604984 
L 191.152119 234.110359 
L 193.052997 232.028105 
L 194.953876 230.318434 
L 196.854755 228.933612 
L 198.755634 227.824233 
L 200.928067 226.833654 
L 203.1005 226.079426 
L 205.816041 225.390105 
L 208.803136 224.86854 
L 212.604894 224.445447 
L 217.492868 224.141542 
L 224.553275 223.943912 
L 237.316318 223.84448 
L 284.29518 223.823936 
L 675.604659 223.823905 
L 675.604659 223.823905 
" style="fill:none;stroke:#348abd;stroke-linecap:square;stroke-width:1.5;"/>
   </g>
   <g id="line2d_24">
    <path clip-path="url(#pc62fe4b2ee)" d="M 180.289954 253.816233 
L 183.277049 247.230823 
L 185.449482 242.900458 
L 187.350361 239.535598 
L 189.25124 236.604984 
L 191.152119 234.110359 
L 193.052997 232.028105 
L 194.953876 230.318434 
L 196.854755 228.933612 
L 198.755634 227.824233 
L 200.928067 226.833654 
L 203.1005 226.079426 
L 205.816041 225.390105 
L 208.803136 224.86854 
L 212.604894 224.445447 
L 217.492868 224.141542 
L 224.553275 223.943912 
L 237.316318 223.84448 
L 284.29518 223.823936 
L 675.604659 223.823905 
L 675.604659 223.823905 
" style="fill:none;stroke:#988ed5;stroke-linecap:square;stroke-width:1.5;"/>
   </g>
   <g id="line2d_25">
    <path clip-path="url(#pc62fe4b2ee)" d="M 96.922841 291.991123 
L 100.724599 291.885219 
L 102.082369 291.646028 
L 103.168586 291.191625 
L 103.983248 290.598116 
L 104.79791 289.753959 
L 106.698789 287.288521 
L 108.328114 285.133411 
L 109.41433 284.009873 
L 110.500547 283.156562 
L 112.401425 281.939041 
L 114.03075 281.209912 
L 115.931629 280.68063 
L 118.918724 280.037876 
L 122.177374 279.594359 
L 126.793794 279.160508 
L 129.237781 278.841616 
L 132.49643 278.468459 
L 138.47062 277.810448 
L 142.000824 277.125102 
L 144.716365 276.338734 
L 153.949205 273.074083 
L 156.664746 271.721907 
L 157.750963 271.019187 
L 159.108733 269.784293 
L 160.19495 268.395489 
L 161.281166 266.607119 
L 162.095828 264.800302 
L 162.910491 262.525016 
L 163.996707 258.687488 
L 165.354478 253.100618 
L 168.070019 240.446463 
L 175.673534 204.499876 
L 177.031305 196.457401 
L 178.932184 184.539709 
L 179.746846 181.109437 
L 180.289954 177.459149 
L 180.289954 177.459149 
" style="fill:none;stroke:#777777;stroke-linecap:square;stroke-width:1.5;"/>
   </g>
   <g id="line2d_26">
    <path clip-path="url(#pc62fe4b2ee)" d="M 180.289954 177.459149 
L 181.376171 170.576233 
L 182.462387 165.08595 
L 183.548603 160.824034 
L 184.63482 157.585607 
L 185.721036 155.164901 
L 186.807253 153.377644 
L 187.893469 152.070119 
L 188.979686 151.11998 
L 190.065902 150.432925 
L 191.423673 149.837592 
L 193.052997 149.382926 
L 195.22543 149.04186 
L 198.212526 148.826688 
L 203.372054 148.71381 
L 219.665301 148.685407 
L 675.604659 148.685224 
L 675.604659 148.685224 
" style="fill:none;stroke:#fbc15e;stroke-linecap:square;stroke-width:1.5;"/>
   </g>
   <g id="line2d_27">
    <path clip-path="url(#pc62fe4b2ee)" d="M 96.922841 291.989905 
L 100.453044 291.880501 
L 101.810815 291.616807 
L 102.625477 291.273527 
L 103.44014 290.705257 
L 104.254802 289.797775 
L 105.069464 288.56162 
L 106.970343 285.205729 
L 108.599668 282.427886 
L 109.685884 281.028583 
L 111.043655 279.710795 
L 112.67298 278.39974 
L 114.03075 277.614957 
L 115.660075 276.995108 
L 119.190278 275.990546 
L 121.905819 275.502898 
L 126.250685 274.943041 
L 128.694672 274.566648 
L 131.410213 274.103136 
L 139.013729 272.961542 
L 141.72927 272.253813 
L 143.901703 271.468453 
L 151.233664 268.295974 
L 153.134543 267.251829 
L 156.121638 265.363054 
L 157.479408 264.29329 
L 158.565625 263.098621 
L 159.380287 261.972908 
L 160.466504 259.991383 
L 161.281166 258.144567 
L 162.095828 255.735478 
L 162.910491 252.701763 
L 163.996707 247.585059 
L 165.354478 240.135899 
L 168.070019 223.263692 
L 175.673534 175.33491 
L 177.031305 164.61161 
L 178.932184 148.721353 
L 179.746846 144.147658 
L 180.289954 139.280608 
L 180.289954 139.280608 
" style="fill:none;stroke:#8eba42;stroke-linecap:square;stroke-width:1.5;"/>
   </g>
   <g id="line2d_28">
    <path clip-path="url(#pc62fe4b2ee)" d="M 180.289954 139.280608 
L 181.104616 132.388014 
L 181.919279 126.988635 
L 182.733941 122.848203 
L 183.548603 119.72528 
L 184.363266 117.399301 
L 185.177928 115.683187 
L 185.99259 114.425879 
L 186.807253 113.509452 
L 187.893469 112.665757 
L 188.979686 112.117589 
L 190.337456 111.695421 
L 192.238335 111.384792 
L 194.953876 111.205522 
L 200.384959 111.125827 
L 231.885236 111.115884 
L 675.604659 111.115884 
L 675.604659 111.115884 
" style="fill:none;stroke:#ffb5b8;stroke-linecap:square;stroke-width:1.5;"/>
   </g>
   <g id="patch_3">
    <path d="M 67.98875 301.037441 
L 67.98875 102.072 
" style="fill:none;stroke:#ffffff;stroke-linecap:square;stroke-linejoin:miter;"/>
   </g>
   <g id="patch_4">
    <path d="M 704.53875 301.037441 
L 704.53875 102.072 
" style="fill:none;stroke:#ffffff;stroke-linecap:square;stroke-linejoin:miter;"/>
   </g>
   <g id="patch_5">
    <path d="M 67.98875 301.037441 
L 704.53875 301.037441 
" style="fill:none;stroke:#ffffff;stroke-linecap:square;stroke-linejoin:miter;"/>
   </g>
   <g id="patch_6">
    <path d="M 67.98875 102.072 
L 704.53875 102.072 
" style="fill:none;stroke:#ffffff;stroke-linecap:square;stroke-linejoin:miter;"/>
   </g>
  </g>
  <g id="axes_2">
   <g id="patch_7">
    <path d="M 67.98875 512.64 
L 704.53875 512.64 
L 704.53875 313.674559 
L 67.98875 313.674559 
z
" style="fill:#e5e5e5;"/>
   </g>
   <g id="matplotlib.axis_3">
    <g id="xtick_13">
     <g id="line2d_29">
      <g>
       <use style="fill:#555555;stroke:#555555;stroke-width:0.8;" x="81.172702" xlink:href="#m9bbb4992bf" y="512.64"/>
      </g>
     </g>
     <g id="text_12">
      <!-- 2020 -->
      <g style="fill:#555555;" transform="translate(58.092512 538.94544)rotate(-30)scale(0.1 -0.1)">
       <use xlink:href="#DejaVuSans-50"/>
       <use x="63.623047" xlink:href="#DejaVuSans-48"/>
       <use x="127.246094" xlink:href="#DejaVuSans-50"/>
       <use x="190.869141" xlink:href="#DejaVuSans-48"/>
      </g>
     </g>
    </g>
    <g id="xtick_14">
     <g id="line2d_30">
      <g>
       <use style="fill:#555555;stroke:#555555;stroke-width:0.8;" x="180.561508" xlink:href="#m9bbb4992bf" y="512.64"/>
      </g>
     </g>
     <g id="text_13">
      <!-- 2021 -->
      <g style="fill:#555555;" transform="translate(157.481318 538.94544)rotate(-30)scale(0.1 -0.1)">
       <use xlink:href="#DejaVuSans-50"/>
       <use x="63.623047" xlink:href="#DejaVuSans-48"/>
       <use x="127.246094" xlink:href="#DejaVuSans-50"/>
       <use x="190.869141" xlink:href="#DejaVuSans-49"/>
      </g>
     </g>
    </g>
    <g id="xtick_15">
     <g id="line2d_31">
      <g>
       <use style="fill:#555555;stroke:#555555;stroke-width:0.8;" x="279.67876" xlink:href="#m9bbb4992bf" y="512.64"/>
      </g>
     </g>
     <g id="text_14">
      <!-- 2022 -->
      <g style="fill:#555555;" transform="translate(256.59857 538.94544)rotate(-30)scale(0.1 -0.1)">
       <use xlink:href="#DejaVuSans-50"/>
       <use x="63.623047" xlink:href="#DejaVuSans-48"/>
       <use x="127.246094" xlink:href="#DejaVuSans-50"/>
       <use x="190.869141" xlink:href="#DejaVuSans-50"/>
      </g>
     </g>
    </g>
    <g id="xtick_16">
     <g id="line2d_32">
      <g>
       <use style="fill:#555555;stroke:#555555;stroke-width:0.8;" x="378.796012" xlink:href="#m9bbb4992bf" y="512.64"/>
      </g>
     </g>
     <g id="text_15">
      <!-- 2023 -->
      <g style="fill:#555555;" transform="translate(355.715822 538.94544)rotate(-30)scale(0.1 -0.1)">
       <use xlink:href="#DejaVuSans-50"/>
       <use x="63.623047" xlink:href="#DejaVuSans-48"/>
       <use x="127.246094" xlink:href="#DejaVuSans-50"/>
       <use x="190.869141" xlink:href="#DejaVuSans-51"/>
      </g>
     </g>
    </g>
    <g id="xtick_17">
     <g id="line2d_33">
      <g>
       <use style="fill:#555555;stroke:#555555;stroke-width:0.8;" x="477.913264" xlink:href="#m9bbb4992bf" y="512.64"/>
      </g>
     </g>
     <g id="text_16">
      <!-- 2024 -->
      <g style="fill:#555555;" transform="translate(454.833073 538.94544)rotate(-30)scale(0.1 -0.1)">
       <use xlink:href="#DejaVuSans-50"/>
       <use x="63.623047" xlink:href="#DejaVuSans-48"/>
       <use x="127.246094" xlink:href="#DejaVuSans-50"/>
       <use x="190.869141" xlink:href="#DejaVuSans-52"/>
      </g>
     </g>
    </g>
    <g id="xtick_18">
     <g id="line2d_34">
      <g>
       <use style="fill:#555555;stroke:#555555;stroke-width:0.8;" x="577.30207" xlink:href="#m9bbb4992bf" y="512.64"/>
      </g>
     </g>
     <g id="text_17">
      <!-- 2025 -->
      <g style="fill:#555555;" transform="translate(554.221879 538.94544)rotate(-30)scale(0.1 -0.1)">
       <use xlink:href="#DejaVuSans-50"/>
       <use x="63.623047" xlink:href="#DejaVuSans-48"/>
       <use x="127.246094" xlink:href="#DejaVuSans-50"/>
       <use x="190.869141" xlink:href="#DejaVuSans-53"/>
      </g>
     </g>
    </g>
    <g id="xtick_19">
     <g id="line2d_35">
      <g>
       <use style="fill:#555555;stroke:#555555;stroke-width:0.8;" x="676.419321" xlink:href="#m9bbb4992bf" y="512.64"/>
      </g>
     </g>
     <g id="text_18">
      <!-- 2026 -->
      <g style="fill:#555555;" transform="translate(653.339131 538.94544)rotate(-30)scale(0.1 -0.1)">
       <use xlink:href="#DejaVuSans-50"/>
       <use x="63.623047" xlink:href="#DejaVuSans-48"/>
       <use x="127.246094" xlink:href="#DejaVuSans-50"/>
       <use x="190.869141" xlink:href="#DejaVuSans-54"/>
      </g>
     </g>
    </g>
    <g id="xtick_20">
     <g id="line2d_36">
      <g>
       <use style="fill:#555555;stroke:#555555;stroke-width:0.6;" x="145.802582" xlink:href="#m5f8a07212e" y="512.64"/>
      </g>
     </g>
    </g>
    <g id="xtick_21">
     <g id="line2d_37">
      <g>
       <use style="fill:#555555;stroke:#555555;stroke-width:0.6;" x="281.579639" xlink:href="#m5f8a07212e" y="512.64"/>
      </g>
     </g>
    </g>
    <g id="xtick_22">
     <g id="line2d_38">
      <g>
       <use style="fill:#555555;stroke:#555555;stroke-width:0.6;" x="417.356696" xlink:href="#m5f8a07212e" y="512.64"/>
      </g>
     </g>
    </g>
    <g id="xtick_23">
     <g id="line2d_39">
      <g>
       <use style="fill:#555555;stroke:#555555;stroke-width:0.6;" x="553.133753" xlink:href="#m5f8a07212e" y="512.64"/>
      </g>
     </g>
    </g>
    <g id="xtick_24">
     <g id="line2d_40">
      <g>
       <use style="fill:#555555;stroke:#555555;stroke-width:0.6;" x="688.910811" xlink:href="#m5f8a07212e" y="512.64"/>
      </g>
     </g>
    </g>
    <g id="text_19">
     <!-- Date -->
     <g style="fill:#555555;" transform="translate(371.922813 553.864627)scale(0.12 -0.12)">
      <defs>
       <path d="M 19.671875 64.796875 
L 19.671875 8.109375 
L 31.59375 8.109375 
Q 46.6875 8.109375 53.6875 14.9375 
Q 60.6875 21.78125 60.6875 36.53125 
Q 60.6875 51.171875 53.6875 57.984375 
Q 46.6875 64.796875 31.59375 64.796875 
z
M 9.8125 72.90625 
L 30.078125 72.90625 
Q 51.265625 72.90625 61.171875 64.09375 
Q 71.09375 55.28125 71.09375 36.53125 
Q 71.09375 17.671875 61.125 8.828125 
Q 51.171875 0 30.078125 0 
L 9.8125 0 
z
" id="DejaVuSans-68"/>
      </defs>
      <use xlink:href="#DejaVuSans-68"/>
      <use x="77.001953" xlink:href="#DejaVuSans-97"/>
      <use x="138.28125" xlink:href="#DejaVuSans-116"/>
      <use x="177.490234" xlink:href="#DejaVuSans-101"/>
     </g>
    </g>
   </g>
   <g id="matplotlib.axis_4">
    <g id="ytick_10">
     <g id="line2d_41">
      <g>
       <use style="fill:#555555;stroke:#555555;stroke-width:0.8;" x="67.98875" xlink:href="#m4abfa7cae5" y="503.596116"/>
      </g>
     </g>
     <g id="text_20">
      <!-- 0 -->
      <g style="fill:#555555;" transform="translate(54.62625 507.395335)scale(0.1 -0.1)">
       <use xlink:href="#DejaVuSans-48"/>
      </g>
     </g>
    </g>
    <g id="ytick_11">
     <g id="line2d_42">
      <g>
       <use style="fill:#555555;stroke:#555555;stroke-width:0.8;" x="67.98875" xlink:href="#m4abfa7cae5" y="480.888427"/>
      </g>
     </g>
     <g id="text_21">
      <!-- 25000 -->
      <g style="fill:#555555;" transform="translate(29.17625 484.687645)scale(0.1 -0.1)">
       <use xlink:href="#DejaVuSans-50"/>
       <use x="63.623047" xlink:href="#DejaVuSans-53"/>
       <use x="127.246094" xlink:href="#DejaVuSans-48"/>
       <use x="190.869141" xlink:href="#DejaVuSans-48"/>
       <use x="254.492188" xlink:href="#DejaVuSans-48"/>
      </g>
     </g>
    </g>
    <g id="ytick_12">
     <g id="line2d_43">
      <g>
       <use style="fill:#555555;stroke:#555555;stroke-width:0.8;" x="67.98875" xlink:href="#m4abfa7cae5" y="458.180737"/>
      </g>
     </g>
     <g id="text_22">
      <!-- 50000 -->
      <g style="fill:#555555;" transform="translate(29.17625 461.979956)scale(0.1 -0.1)">
       <use xlink:href="#DejaVuSans-53"/>
       <use x="63.623047" xlink:href="#DejaVuSans-48"/>
       <use x="127.246094" xlink:href="#DejaVuSans-48"/>
       <use x="190.869141" xlink:href="#DejaVuSans-48"/>
       <use x="254.492188" xlink:href="#DejaVuSans-48"/>
      </g>
     </g>
    </g>
    <g id="ytick_13">
     <g id="line2d_44">
      <g>
       <use style="fill:#555555;stroke:#555555;stroke-width:0.8;" x="67.98875" xlink:href="#m4abfa7cae5" y="435.473047"/>
      </g>
     </g>
     <g id="text_23">
      <!-- 75000 -->
      <g style="fill:#555555;" transform="translate(29.17625 439.272266)scale(0.1 -0.1)">
       <use xlink:href="#DejaVuSans-55"/>
       <use x="63.623047" xlink:href="#DejaVuSans-53"/>
       <use x="127.246094" xlink:href="#DejaVuSans-48"/>
       <use x="190.869141" xlink:href="#DejaVuSans-48"/>
       <use x="254.492188" xlink:href="#DejaVuSans-48"/>
      </g>
     </g>
    </g>
    <g id="ytick_14">
     <g id="line2d_45">
      <g>
       <use style="fill:#555555;stroke:#555555;stroke-width:0.8;" x="67.98875" xlink:href="#m4abfa7cae5" y="412.765358"/>
      </g>
     </g>
     <g id="text_24">
      <!-- 100000 -->
      <g style="fill:#555555;" transform="translate(22.81375 416.564576)scale(0.1 -0.1)">
       <use xlink:href="#DejaVuSans-49"/>
       <use x="63.623047" xlink:href="#DejaVuSans-48"/>
       <use x="127.246094" xlink:href="#DejaVuSans-48"/>
       <use x="190.869141" xlink:href="#DejaVuSans-48"/>
       <use x="254.492188" xlink:href="#DejaVuSans-48"/>
       <use x="318.115234" xlink:href="#DejaVuSans-48"/>
      </g>
     </g>
    </g>
    <g id="ytick_15">
     <g id="line2d_46">
      <g>
       <use style="fill:#555555;stroke:#555555;stroke-width:0.8;" x="67.98875" xlink:href="#m4abfa7cae5" y="390.057668"/>
      </g>
     </g>
     <g id="text_25">
      <!-- 125000 -->
      <g style="fill:#555555;" transform="translate(22.81375 393.856887)scale(0.1 -0.1)">
       <use xlink:href="#DejaVuSans-49"/>
       <use x="63.623047" xlink:href="#DejaVuSans-50"/>
       <use x="127.246094" xlink:href="#DejaVuSans-53"/>
       <use x="190.869141" xlink:href="#DejaVuSans-48"/>
       <use x="254.492188" xlink:href="#DejaVuSans-48"/>
       <use x="318.115234" xlink:href="#DejaVuSans-48"/>
      </g>
     </g>
    </g>
    <g id="ytick_16">
     <g id="line2d_47">
      <g>
       <use style="fill:#555555;stroke:#555555;stroke-width:0.8;" x="67.98875" xlink:href="#m4abfa7cae5" y="367.349978"/>
      </g>
     </g>
     <g id="text_26">
      <!-- 150000 -->
      <g style="fill:#555555;" transform="translate(22.81375 371.149197)scale(0.1 -0.1)">
       <use xlink:href="#DejaVuSans-49"/>
       <use x="63.623047" xlink:href="#DejaVuSans-53"/>
       <use x="127.246094" xlink:href="#DejaVuSans-48"/>
       <use x="190.869141" xlink:href="#DejaVuSans-48"/>
       <use x="254.492188" xlink:href="#DejaVuSans-48"/>
       <use x="318.115234" xlink:href="#DejaVuSans-48"/>
      </g>
     </g>
    </g>
    <g id="ytick_17">
     <g id="line2d_48">
      <g>
       <use style="fill:#555555;stroke:#555555;stroke-width:0.8;" x="67.98875" xlink:href="#m4abfa7cae5" y="344.642289"/>
      </g>
     </g>
     <g id="text_27">
      <!-- 175000 -->
      <g style="fill:#555555;" transform="translate(22.81375 348.441508)scale(0.1 -0.1)">
       <use xlink:href="#DejaVuSans-49"/>
       <use x="63.623047" xlink:href="#DejaVuSans-55"/>
       <use x="127.246094" xlink:href="#DejaVuSans-53"/>
       <use x="190.869141" xlink:href="#DejaVuSans-48"/>
       <use x="254.492188" xlink:href="#DejaVuSans-48"/>
       <use x="318.115234" xlink:href="#DejaVuSans-48"/>
      </g>
     </g>
    </g>
    <g id="ytick_18">
     <g id="line2d_49">
      <g>
       <use style="fill:#555555;stroke:#555555;stroke-width:0.8;" x="67.98875" xlink:href="#m4abfa7cae5" y="321.934599"/>
      </g>
     </g>
     <g id="text_28">
      <!-- 200000 -->
      <g style="fill:#555555;" transform="translate(22.81375 325.733818)scale(0.1 -0.1)">
       <use xlink:href="#DejaVuSans-50"/>
       <use x="63.623047" xlink:href="#DejaVuSans-48"/>
       <use x="127.246094" xlink:href="#DejaVuSans-48"/>
       <use x="190.869141" xlink:href="#DejaVuSans-48"/>
       <use x="254.492188" xlink:href="#DejaVuSans-48"/>
       <use x="318.115234" xlink:href="#DejaVuSans-48"/>
      </g>
     </g>
    </g>
    <g id="text_29">
     <!-- Daily -->
     <g style="fill:#555555;" transform="translate(16.318125 428.339154)rotate(-90)scale(0.12 -0.12)">
      <defs>
       <path d="M 9.421875 54.6875 
L 18.40625 54.6875 
L 18.40625 0 
L 9.421875 0 
z
M 9.421875 75.984375 
L 18.40625 75.984375 
L 18.40625 64.59375 
L 9.421875 64.59375 
z
" id="DejaVuSans-105"/>
       <path d="M 32.171875 -5.078125 
Q 28.375 -14.84375 24.75 -17.8125 
Q 21.140625 -20.796875 15.09375 -20.796875 
L 7.90625 -20.796875 
L 7.90625 -13.28125 
L 13.1875 -13.28125 
Q 16.890625 -13.28125 18.9375 -11.515625 
Q 21 -9.765625 23.484375 -3.21875 
L 25.09375 0.875 
L 2.984375 54.6875 
L 12.5 54.6875 
L 29.59375 11.921875 
L 46.6875 54.6875 
L 56.203125 54.6875 
z
" id="DejaVuSans-121"/>
      </defs>
      <use xlink:href="#DejaVuSans-68"/>
      <use x="77.001953" xlink:href="#DejaVuSans-97"/>
      <use x="138.28125" xlink:href="#DejaVuSans-105"/>
      <use x="166.064453" xlink:href="#DejaVuSans-108"/>
      <use x="193.847656" xlink:href="#DejaVuSans-121"/>
     </g>
    </g>
   </g>
   <g id="line2d_50">
    <path clip-path="url(#p5882e5b75a)" d="M 97.194395 503.591121 
L 100.724599 503.281712 
L 101.539261 502.963804 
L 102.353923 502.476303 
L 102.897031 501.926517 
L 103.168586 501.809086 
L 105.069464 499.192511 
L 106.970343 498.513876 
L 108.599668 499.459424 
L 108.871222 499.863621 
L 109.41433 500.238882 
L 110.500547 501.029369 
L 111.858317 501.312891 
L 113.759196 502.159303 
L 115.660075 502.691442 
L 116.203183 502.707532 
L 118.64717 502.931495 
L 119.733387 503.069298 
L 121.091157 503.160518 
L 121.634265 503.174921 
L 123.26359 503.200743 
L 124.892915 503.272889 
L 125.979131 503.29897 
L 127.336902 503.225008 
L 129.509335 503.06307 
L 130.323997 503.155328 
L 134.397309 503.286643 
L 140.371499 502.916313 
L 145.259473 502.355498 
L 149.604339 502.47773 
L 150.419001 502.365619 
L 151.233664 502.368084 
L 152.31988 502.092218 
L 153.134543 501.987633 
L 154.220759 501.953377 
L 155.57853 501.824657 
L 157.207854 501.407484 
L 159.108733 499.898137 
L 161.009612 497.604271 
L 161.824274 495.600674 
L 163.725153 490.523235 
L 165.354478 488.103633 
L 165.626032 487.540482 
L 166.16914 487.137453 
L 166.440694 487.140048 
L 166.983802 486.73144 
L 167.255357 486.467252 
L 167.526911 486.588965 
L 167.798465 486.46829 
L 168.070019 486.797746 
L 168.613127 487.036371 
L 169.42779 486.860938 
L 169.699344 487.017427 
L 169.970898 487.012236 
L 170.242452 487.124477 
L 170.514006 486.985376 
L 171.057114 487.13888 
L 171.600222 487.45017 
L 172.143331 487.404106 
L 172.414885 487.580967 
L 172.686439 487.609773 
L 172.957993 487.526339 
L 173.229547 487.315741 
L 173.501101 486.906224 
L 174.044209 486.696924 
L 174.315764 486.236931 
L 174.587318 486.025036 
L 175.130426 484.526847 
L 175.40198 484.211146 
L 175.673534 483.68822 
L 175.945088 483.639171 
L 176.216642 482.742153 
L 177.302859 481.109924 
L 177.574413 481.073462 
L 177.845967 480.412214 
L 178.117521 480.799932 
L 178.389075 480.115846 
L 178.660629 481.185573 
L 178.932184 483.37135 
L 179.746846 458.376698 
L 180.0184 479.568656 
L 180.289954 479.503803 
L 180.289954 479.503803 
" style="fill:none;stroke:#e24a33;stroke-linecap:square;stroke-width:1.5;"/>
   </g>
   <g id="line2d_51">
    <path clip-path="url(#p5882e5b75a)" d="M 180.561508 479.113136 
L 181.647725 479.672282 
L 182.733941 480.464413 
L 184.091712 481.734471 
L 185.721036 483.571422 
L 188.436578 487.039064 
L 191.966781 491.520511 
L 194.139214 493.948282 
L 196.040093 495.783887 
L 197.940972 497.339426 
L 199.84185 498.629285 
L 202.014283 499.813487 
L 204.186716 500.735475 
L 206.630703 501.520057 
L 209.346244 502.150403 
L 212.604894 502.664737 
L 216.678205 503.061423 
L 222.109288 503.342337 
L 230.255911 503.513566 
L 246.820712 503.58775 
L 351.912155 503.596116 
L 675.604659 503.596116 
L 675.604659 503.596116 
" style="fill:none;stroke:#348abd;stroke-linecap:square;stroke-width:1.5;"/>
   </g>
   <g id="line2d_52">
    <path clip-path="url(#p5882e5b75a)" d="M 180.561508 479.113136 
L 181.647725 479.672282 
L 182.733941 480.464413 
L 184.091712 481.734471 
L 185.721036 483.571422 
L 188.436578 487.039064 
L 191.966781 491.520511 
L 194.139214 493.948282 
L 196.040093 495.783887 
L 197.940972 497.339426 
L 199.84185 498.629285 
L 202.014283 499.813487 
L 204.186716 500.735475 
L 206.630703 501.520057 
L 209.346244 502.150403 
L 212.604894 502.664737 
L 216.678205 503.061423 
L 222.109288 503.342337 
L 230.255911 503.513566 
L 246.820712 503.58775 
L 351.912155 503.596116 
L 675.604659 503.596116 
L 675.604659 503.596116 
" style="fill:none;stroke:#988ed5;stroke-linecap:square;stroke-width:1.5;"/>
   </g>
   <g id="line2d_53">
    <path clip-path="url(#p5882e5b75a)" d="M 97.194395 503.581129 
L 98.009057 503.543662 
L 98.552166 503.496008 
L 99.095274 503.311557 
L 99.909936 503.167914 
L 100.18149 503.088113 
L 101.539261 501.699181 
L 102.082369 501.014836 
L 103.44014 497.1108 
L 103.983248 494.504217 
L 104.526356 492.567575 
L 104.79791 491.170469 
L 105.069464 490.385302 
L 105.341018 490.117091 
L 105.612573 490.175093 
L 106.155681 489.187503 
L 106.427235 489.034129 
L 106.698789 489.116655 
L 106.970343 488.349395 
L 108.328114 490.427343 
L 108.599668 491.18604 
L 108.871222 492.39863 
L 109.142776 492.842403 
L 110.228993 495.691894 
L 111.315209 496.449422 
L 111.858317 496.746439 
L 113.216088 498.582258 
L 114.573858 500.356962 
L 115.931629 501.049481 
L 116.203183 500.930363 
L 117.832508 501.318081 
L 118.104062 501.563713 
L 119.190278 501.766136 
L 121.634265 502.332531 
L 122.177374 502.350048 
L 122.720482 502.418171 
L 123.535144 502.501087 
L 123.806698 502.629937 
L 125.707577 502.683656 
L 127.065348 502.682099 
L 127.88001 502.213023 
L 128.423118 502.030064 
L 128.966226 501.916396 
L 129.237781 502.030454 
L 129.509335 501.996976 
L 130.052443 502.271804 
L 131.138659 502.382358 
L 131.681768 502.492133 
L 134.668863 502.631883 
L 135.483525 502.517825 
L 137.11285 502.197842 
L 138.199066 501.98958 
L 138.742175 501.838541 
L 140.099945 501.612373 
L 140.914607 501.383868 
L 141.186162 501.261247 
L 141.72927 501.255797 
L 142.543932 500.793728 
L 143.08704 500.652421 
L 143.358595 500.603762 
L 144.173257 500.226165 
L 144.444811 500.234729 
L 144.716365 499.993768 
L 145.531027 499.91786 
L 146.34569 499.913967 
L 146.617244 500.130015 
L 147.431906 500.19152 
L 147.975014 500.392386 
L 148.518123 500.477637 
L 150.96211 499.876207 
L 151.233664 499.912021 
L 151.505218 499.629797 
L 152.048326 499.344069 
L 152.591434 498.929881 
L 152.862989 498.931827 
L 153.134543 498.770667 
L 153.677651 498.841905 
L 155.035421 498.433166 
L 155.306976 498.421877 
L 156.121638 498.057516 
L 156.393192 497.719236 
L 156.664746 497.645274 
L 156.9363 497.431173 
L 157.207854 497.03022 
L 157.750963 495.707465 
L 158.022517 494.86741 
L 158.837179 493.399066 
L 159.651841 490.400873 
L 160.19495 488.371584 
L 160.466504 487.648311 
L 161.009612 485.620579 
L 161.824274 479.609789 
L 163.725153 464.377471 
L 164.268261 461.881052 
L 164.539815 460.346142 
L 164.81137 459.470274 
L 165.897586 454.712948 
L 166.16914 454.220127 
L 166.440694 454.227912 
L 166.712248 453.732366 
L 167.255357 452.209523 
L 167.526911 452.574663 
L 167.798465 452.212637 
L 168.070019 453.201006 
L 168.613127 453.916882 
L 168.884681 453.627651 
L 169.156235 453.586388 
L 169.42779 453.390582 
L 169.699344 453.860048 
L 169.970898 453.844477 
L 170.242452 454.181199 
L 170.514006 453.763897 
L 170.78556 453.896639 
L 171.328668 454.718398 
L 171.600222 455.158279 
L 172.143331 455.020086 
L 172.414885 455.550668 
L 172.686439 455.637087 
L 172.957993 455.386783 
L 173.229547 454.75499 
L 173.501101 453.526439 
L 173.772655 453.073713 
L 174.044209 452.898539 
L 174.315764 451.51856 
L 174.587318 450.882875 
L 175.130426 446.388309 
L 175.40198 445.441204 
L 175.673534 443.872427 
L 175.945088 443.725281 
L 176.216642 441.034225 
L 177.302859 436.137539 
L 177.574413 436.028153 
L 177.845967 434.044409 
L 178.117521 435.207562 
L 178.389075 433.155306 
L 178.660629 436.364486 
L 178.932184 442.921818 
L 179.746846 367.937861 
L 180.0184 431.513735 
L 180.289954 431.319175 
L 180.289954 431.319175 
" style="fill:none;stroke:#777777;stroke-linecap:square;stroke-width:1.5;"/>
   </g>
   <g id="line2d_54">
    <path clip-path="url(#p5882e5b75a)" d="M 180.561508 430.147177 
L 182.462387 454.165083 
L 183.548603 465.580479 
L 184.63482 474.918011 
L 185.721036 482.276829 
L 186.807253 487.920131 
L 187.893469 492.162553 
L 188.979686 495.306087 
L 190.065902 497.61116 
L 191.152119 499.288729 
L 192.238335 500.503026 
L 193.324552 501.378578 
L 194.682322 502.135519 
L 196.040093 502.635235 
L 197.940972 503.062145 
L 200.384959 503.345543 
L 204.186716 503.518977 
L 212.061785 503.589405 
L 270.989028 503.596116 
L 675.604659 503.596116 
L 675.604659 503.596116 
" style="fill:none;stroke:#fbc15e;stroke-linecap:square;stroke-width:1.5;"/>
   </g>
   <g id="line2d_55">
    <path clip-path="url(#p5882e5b75a)" d="M 97.194395 503.576134 
L 97.737503 503.529204 
L 98.552166 503.462638 
L 99.095274 503.216703 
L 99.638382 503.085388 
L 100.18149 502.918778 
L 101.539261 501.066869 
L 102.082369 500.154409 
L 102.897031 496.91772 
L 103.168586 496.447995 
L 105.069464 485.981697 
L 105.341018 485.624083 
L 105.612573 485.701419 
L 106.155681 484.384632 
L 106.427235 484.180133 
L 106.698789 484.290168 
L 106.970343 483.267154 
L 108.328114 486.037752 
L 108.599668 487.049347 
L 108.871222 488.666135 
L 109.142776 489.257832 
L 110.228993 493.057153 
L 111.315209 494.067191 
L 111.586763 494.19643 
L 111.858317 494.463213 
L 112.129871 495.004565 
L 112.401425 495.811142 
L 114.03075 498.21115 
L 114.573858 499.277244 
L 115.931629 500.200603 
L 116.203183 500.041779 
L 117.560954 500.405102 
L 117.832508 500.558736 
L 118.104062 500.886246 
L 118.64717 500.93763 
L 118.918724 501.155624 
L 119.461832 501.253721 
L 119.733387 501.488843 
L 120.276495 501.558393 
L 120.819603 501.627944 
L 121.362711 502.057184 
L 121.905819 501.859432 
L 122.720482 502.025523 
L 123.535144 502.136077 
L 123.806698 502.307877 
L 125.436023 502.34888 
L 126.793794 502.390403 
L 127.065348 502.377427 
L 127.608456 501.980367 
L 128.151564 501.572926 
L 128.966226 501.356489 
L 129.237781 501.508566 
L 129.509335 501.463929 
L 130.052443 501.830366 
L 130.595551 501.895765 
L 132.224876 502.202513 
L 133.8542 502.345766 
L 134.940417 502.212894 
L 135.483525 502.158395 
L 136.841296 501.862546 
L 137.384404 501.67829 
L 138.199066 501.454068 
L 138.47062 501.28123 
L 139.556837 501.108392 
L 140.099945 500.951125 
L 140.914607 500.646452 
L 141.186162 500.482957 
L 141.72927 500.47569 
L 142.543932 499.859598 
L 143.08704 499.671189 
L 143.358595 499.60631 
L 143.901703 499.238835 
L 144.173257 499.102848 
L 144.444811 499.114267 
L 144.716365 498.792986 
L 145.259473 498.633643 
L 146.074136 498.761325 
L 146.34569 498.686584 
L 146.617244 498.974647 
L 147.431906 499.056655 
L 147.975014 499.324475 
L 148.518123 499.438144 
L 150.690556 498.694889 
L 151.233664 498.683989 
L 151.505218 498.30769 
L 152.048326 497.92672 
L 152.591434 497.374469 
L 152.862989 497.377064 
L 153.134543 497.162184 
L 153.677651 497.257167 
L 155.035421 496.712183 
L 155.306976 496.697131 
L 156.121638 496.211316 
L 156.393192 495.760277 
L 156.664746 495.66166 
L 156.9363 495.376192 
L 157.207854 494.841588 
L 157.750963 493.077914 
L 158.022517 491.957841 
L 158.837179 490.000049 
L 159.651841 486.002458 
L 160.19495 483.296739 
L 160.466504 482.332376 
L 161.009612 479.628734 
L 161.824274 471.614347 
L 163.725153 451.304589 
L 164.268261 447.976031 
L 164.539815 445.929484 
L 164.81137 444.76166 
L 165.897586 438.418559 
L 166.16914 437.761463 
L 166.440694 437.771844 
L 166.712248 437.111115 
L 167.255357 435.080659 
L 167.526911 435.567511 
L 167.798465 435.084811 
L 168.070019 436.402635 
L 168.613127 437.357137 
L 168.884681 436.971495 
L 169.156235 436.916478 
L 169.42779 436.655404 
L 169.699344 437.281358 
L 169.970898 437.260597 
L 170.242452 437.70956 
L 170.514006 437.153157 
L 170.78556 437.330147 
L 171.057114 437.767173 
L 171.600222 439.012333 
L 171.871777 438.854028 
L 172.143331 438.828076 
L 172.414885 439.535518 
L 172.686439 439.650743 
L 172.957993 439.317005 
L 173.229547 438.474615 
L 173.501101 436.836547 
L 173.772655 436.232912 
L 174.044209 435.999347 
L 174.315764 434.159375 
L 174.587318 433.311794 
L 175.130426 427.31904 
L 175.40198 426.056233 
L 175.673534 423.964531 
L 175.945088 423.768336 
L 176.216642 420.180262 
L 177.302859 413.651347 
L 177.574413 413.505499 
L 177.845967 410.860507 
L 178.117521 412.411377 
L 178.389075 409.675036 
L 178.660629 413.953943 
L 178.932184 422.697052 
L 179.746846 322.718443 
L 180.0184 407.486274 
L 180.289954 407.226861 
L 180.289954 407.226861 
" style="fill:none;stroke:#8eba42;stroke-linecap:square;stroke-width:1.5;"/>
   </g>
   <g id="line2d_56">
    <path clip-path="url(#p5882e5b75a)" d="M 180.561508 405.664197 
L 181.647725 432.535949 
L 182.733941 453.948291 
L 183.548603 466.33636 
L 184.363266 475.949603 
L 185.177928 483.255957 
L 185.99259 488.724972 
L 186.807253 492.773394 
L 187.621915 495.746089 
L 188.436578 497.916135 
L 189.25124 499.493551 
L 190.065902 500.636677 
L 190.880565 501.463253 
L 191.966781 502.219329 
L 193.052997 502.708068 
L 194.410768 503.083129 
L 196.311647 503.358359 
L 199.298742 503.52516 
L 205.544487 503.590459 
L 259.312201 503.596116 
L 675.604659 503.596116 
L 675.604659 503.596116 
" style="fill:none;stroke:#ffb5b8;stroke-linecap:square;stroke-width:1.5;"/>
   </g>
   <g id="patch_8">
    <path d="M 67.98875 512.64 
L 67.98875 313.674559 
" style="fill:none;stroke:#ffffff;stroke-linecap:square;stroke-linejoin:miter;"/>
   </g>
   <g id="patch_9">
    <path d="M 704.53875 512.64 
L 704.53875 313.674559 
" style="fill:none;stroke:#ffffff;stroke-linecap:square;stroke-linejoin:miter;"/>
   </g>
   <g id="patch_10">
    <path d="M 67.98875 512.64 
L 704.53875 512.64 
" style="fill:none;stroke:#ffffff;stroke-linecap:square;stroke-linejoin:miter;"/>
   </g>
   <g id="patch_11">
    <path d="M 67.98875 313.674559 
L 704.53875 313.674559 
" style="fill:none;stroke:#ffffff;stroke-linecap:square;stroke-linejoin:miter;"/>
   </g>
   <g id="legend_1">
    <g id="patch_12">
     <path d="M 472.829375 424.421434 
L 697.53875 424.421434 
Q 699.53875 424.421434 699.53875 422.421434 
L 699.53875 320.674559 
Q 699.53875 318.674559 697.53875 318.674559 
L 472.829375 318.674559 
Q 470.829375 318.674559 470.829375 320.674559 
L 470.829375 422.421434 
Q 470.829375 424.421434 472.829375 424.421434 
z
" style="fill:#e5e5e5;opacity:0.8;stroke:#cccccc;stroke-linejoin:miter;stroke-width:0.5;"/>
    </g>
    <g id="line2d_57">
     <path d="M 474.829375 326.772996 
L 494.829375 326.772996 
" style="fill:none;stroke:#e24a33;stroke-linecap:square;stroke-width:1.5;"/>
    </g>
    <g id="line2d_58"/>
    <g id="text_30">
     <!-- Cases -->
     <g transform="translate(502.829375 330.272996)scale(0.1 -0.1)">
      <defs>
       <path d="M 64.40625 67.28125 
L 64.40625 56.890625 
Q 59.421875 61.53125 53.78125 63.8125 
Q 48.140625 66.109375 41.796875 66.109375 
Q 29.296875 66.109375 22.65625 58.46875 
Q 16.015625 50.828125 16.015625 36.375 
Q 16.015625 21.96875 22.65625 14.328125 
Q 29.296875 6.6875 41.796875 6.6875 
Q 48.140625 6.6875 53.78125 8.984375 
Q 59.421875 11.28125 64.40625 15.921875 
L 64.40625 5.609375 
Q 59.234375 2.09375 53.4375 0.328125 
Q 47.65625 -1.421875 41.21875 -1.421875 
Q 24.65625 -1.421875 15.125 8.703125 
Q 5.609375 18.84375 5.609375 36.375 
Q 5.609375 53.953125 15.125 64.078125 
Q 24.65625 74.21875 41.21875 74.21875 
Q 47.75 74.21875 53.53125 72.484375 
Q 59.328125 70.75 64.40625 67.28125 
z
" id="DejaVuSans-67"/>
       <path d="M 44.28125 53.078125 
L 44.28125 44.578125 
Q 40.484375 46.53125 36.375 47.5 
Q 32.28125 48.484375 27.875 48.484375 
Q 21.1875 48.484375 17.84375 46.4375 
Q 14.5 44.390625 14.5 40.28125 
Q 14.5 37.15625 16.890625 35.375 
Q 19.28125 33.59375 26.515625 31.984375 
L 29.59375 31.296875 
Q 39.15625 29.25 43.1875 25.515625 
Q 47.21875 21.78125 47.21875 15.09375 
Q 47.21875 7.46875 41.1875 3.015625 
Q 35.15625 -1.421875 24.609375 -1.421875 
Q 20.21875 -1.421875 15.453125 -0.5625 
Q 10.6875 0.296875 5.421875 2 
L 5.421875 11.28125 
Q 10.40625 8.6875 15.234375 7.390625 
Q 20.0625 6.109375 24.8125 6.109375 
Q 31.15625 6.109375 34.5625 8.28125 
Q 37.984375 10.453125 37.984375 14.40625 
Q 37.984375 18.0625 35.515625 20.015625 
Q 33.0625 21.96875 24.703125 23.78125 
L 21.578125 24.515625 
Q 13.234375 26.265625 9.515625 29.90625 
Q 5.8125 33.546875 5.8125 39.890625 
Q 5.8125 47.609375 11.28125 51.796875 
Q 16.75 56 26.8125 56 
Q 31.78125 56 36.171875 55.265625 
Q 40.578125 54.546875 44.28125 53.078125 
z
" id="DejaVuSans-115"/>
      </defs>
      <use xlink:href="#DejaVuSans-67"/>
      <use x="69.824219" xlink:href="#DejaVuSans-97"/>
      <use x="131.103516" xlink:href="#DejaVuSans-115"/>
      <use x="183.203125" xlink:href="#DejaVuSans-101"/>
      <use x="244.726562" xlink:href="#DejaVuSans-115"/>
     </g>
    </g>
    <g id="line2d_59">
     <path d="M 474.829375 341.451121 
L 494.829375 341.451121 
" style="fill:none;stroke:#348abd;stroke-linecap:square;stroke-width:1.5;"/>
    </g>
    <g id="line2d_60"/>
    <g id="text_31">
     <!-- Projected Cases (last 1D avg rate) -->
     <g transform="translate(502.829375 344.951121)scale(0.1 -0.1)">
      <defs>
       <path d="M 19.671875 64.796875 
L 19.671875 37.40625 
L 32.078125 37.40625 
Q 38.96875 37.40625 42.71875 40.96875 
Q 46.484375 44.53125 46.484375 51.125 
Q 46.484375 57.671875 42.71875 61.234375 
Q 38.96875 64.796875 32.078125 64.796875 
z
M 9.8125 72.90625 
L 32.078125 72.90625 
Q 44.34375 72.90625 50.609375 67.359375 
Q 56.890625 61.8125 56.890625 51.125 
Q 56.890625 40.328125 50.609375 34.8125 
Q 44.34375 29.296875 32.078125 29.296875 
L 19.671875 29.296875 
L 19.671875 0 
L 9.8125 0 
z
" id="DejaVuSans-80"/>
       <path d="M 41.109375 46.296875 
Q 39.59375 47.171875 37.8125 47.578125 
Q 36.03125 48 33.890625 48 
Q 26.265625 48 22.1875 43.046875 
Q 18.109375 38.09375 18.109375 28.8125 
L 18.109375 0 
L 9.078125 0 
L 9.078125 54.6875 
L 18.109375 54.6875 
L 18.109375 46.1875 
Q 20.953125 51.171875 25.484375 53.578125 
Q 30.03125 56 36.53125 56 
Q 37.453125 56 38.578125 55.875 
Q 39.703125 55.765625 41.0625 55.515625 
z
" id="DejaVuSans-114"/>
       <path d="M 9.421875 54.6875 
L 18.40625 54.6875 
L 18.40625 -0.984375 
Q 18.40625 -11.421875 14.421875 -16.109375 
Q 10.453125 -20.796875 1.609375 -20.796875 
L -1.8125 -20.796875 
L -1.8125 -13.1875 
L 0.59375 -13.1875 
Q 5.71875 -13.1875 7.5625 -10.8125 
Q 9.421875 -8.453125 9.421875 -0.984375 
z
M 9.421875 75.984375 
L 18.40625 75.984375 
L 18.40625 64.59375 
L 9.421875 64.59375 
z
" id="DejaVuSans-106"/>
       <path d="M 48.78125 52.59375 
L 48.78125 44.1875 
Q 44.96875 46.296875 41.140625 47.34375 
Q 37.3125 48.390625 33.40625 48.390625 
Q 24.65625 48.390625 19.8125 42.84375 
Q 14.984375 37.3125 14.984375 27.296875 
Q 14.984375 17.28125 19.8125 11.734375 
Q 24.65625 6.203125 33.40625 6.203125 
Q 37.3125 6.203125 41.140625 7.25 
Q 44.96875 8.296875 48.78125 10.40625 
L 48.78125 2.09375 
Q 45.015625 0.34375 40.984375 -0.53125 
Q 36.96875 -1.421875 32.421875 -1.421875 
Q 20.0625 -1.421875 12.78125 6.34375 
Q 5.515625 14.109375 5.515625 27.296875 
Q 5.515625 40.671875 12.859375 48.328125 
Q 20.21875 56 33.015625 56 
Q 37.15625 56 41.109375 55.140625 
Q 45.0625 54.296875 48.78125 52.59375 
z
" id="DejaVuSans-99"/>
       <path d="M 45.40625 46.390625 
L 45.40625 75.984375 
L 54.390625 75.984375 
L 54.390625 0 
L 45.40625 0 
L 45.40625 8.203125 
Q 42.578125 3.328125 38.25 0.953125 
Q 33.9375 -1.421875 27.875 -1.421875 
Q 17.96875 -1.421875 11.734375 6.484375 
Q 5.515625 14.40625 5.515625 27.296875 
Q 5.515625 40.1875 11.734375 48.09375 
Q 17.96875 56 27.875 56 
Q 33.9375 56 38.25 53.625 
Q 42.578125 51.265625 45.40625 46.390625 
z
M 14.796875 27.296875 
Q 14.796875 17.390625 18.875 11.75 
Q 22.953125 6.109375 30.078125 6.109375 
Q 37.203125 6.109375 41.296875 11.75 
Q 45.40625 17.390625 45.40625 27.296875 
Q 45.40625 37.203125 41.296875 42.84375 
Q 37.203125 48.484375 30.078125 48.484375 
Q 22.953125 48.484375 18.875 42.84375 
Q 14.796875 37.203125 14.796875 27.296875 
z
" id="DejaVuSans-100"/>
       <path id="DejaVuSans-32"/>
       <path d="M 31 75.875 
Q 24.46875 64.65625 21.28125 53.65625 
Q 18.109375 42.671875 18.109375 31.390625 
Q 18.109375 20.125 21.3125 9.0625 
Q 24.515625 -2 31 -13.1875 
L 23.1875 -13.1875 
Q 15.875 -1.703125 12.234375 9.375 
Q 8.59375 20.453125 8.59375 31.390625 
Q 8.59375 42.28125 12.203125 53.3125 
Q 15.828125 64.359375 23.1875 75.875 
z
" id="DejaVuSans-40"/>
       <path d="M 2.984375 54.6875 
L 12.5 54.6875 
L 29.59375 8.796875 
L 46.6875 54.6875 
L 56.203125 54.6875 
L 35.6875 0 
L 23.484375 0 
z
" id="DejaVuSans-118"/>
       <path d="M 45.40625 27.984375 
Q 45.40625 37.75 41.375 43.109375 
Q 37.359375 48.484375 30.078125 48.484375 
Q 22.859375 48.484375 18.828125 43.109375 
Q 14.796875 37.75 14.796875 27.984375 
Q 14.796875 18.265625 18.828125 12.890625 
Q 22.859375 7.515625 30.078125 7.515625 
Q 37.359375 7.515625 41.375 12.890625 
Q 45.40625 18.265625 45.40625 27.984375 
z
M 54.390625 6.78125 
Q 54.390625 -7.171875 48.1875 -13.984375 
Q 42 -20.796875 29.203125 -20.796875 
Q 24.46875 -20.796875 20.265625 -20.09375 
Q 16.0625 -19.390625 12.109375 -17.921875 
L 12.109375 -9.1875 
Q 16.0625 -11.328125 19.921875 -12.34375 
Q 23.78125 -13.375 27.78125 -13.375 
Q 36.625 -13.375 41.015625 -8.765625 
Q 45.40625 -4.15625 45.40625 5.171875 
L 45.40625 9.625 
Q 42.625 4.78125 38.28125 2.390625 
Q 33.9375 0 27.875 0 
Q 17.828125 0 11.671875 7.65625 
Q 5.515625 15.328125 5.515625 27.984375 
Q 5.515625 40.671875 11.671875 48.328125 
Q 17.828125 56 27.875 56 
Q 33.9375 56 38.28125 53.609375 
Q 42.625 51.21875 45.40625 46.390625 
L 45.40625 54.6875 
L 54.390625 54.6875 
z
" id="DejaVuSans-103"/>
       <path d="M 8.015625 75.875 
L 15.828125 75.875 
Q 23.140625 64.359375 26.78125 53.3125 
Q 30.421875 42.28125 30.421875 31.390625 
Q 30.421875 20.453125 26.78125 9.375 
Q 23.140625 -1.703125 15.828125 -13.1875 
L 8.015625 -13.1875 
Q 14.5 -2 17.703125 9.0625 
Q 20.90625 20.125 20.90625 31.390625 
Q 20.90625 42.671875 17.703125 53.65625 
Q 14.5 64.65625 8.015625 75.875 
z
" id="DejaVuSans-41"/>
      </defs>
      <use xlink:href="#DejaVuSans-80"/>
      <use x="58.552734" xlink:href="#DejaVuSans-114"/>
      <use x="97.416016" xlink:href="#DejaVuSans-111"/>
      <use x="158.597656" xlink:href="#DejaVuSans-106"/>
      <use x="186.380859" xlink:href="#DejaVuSans-101"/>
      <use x="247.904297" xlink:href="#DejaVuSans-99"/>
      <use x="302.884766" xlink:href="#DejaVuSans-116"/>
      <use x="342.09375" xlink:href="#DejaVuSans-101"/>
      <use x="403.617188" xlink:href="#DejaVuSans-100"/>
      <use x="467.09375" xlink:href="#DejaVuSans-32"/>
      <use x="498.880859" xlink:href="#DejaVuSans-67"/>
      <use x="568.705078" xlink:href="#DejaVuSans-97"/>
      <use x="629.984375" xlink:href="#DejaVuSans-115"/>
      <use x="682.083984" xlink:href="#DejaVuSans-101"/>
      <use x="743.607422" xlink:href="#DejaVuSans-115"/>
      <use x="795.707031" xlink:href="#DejaVuSans-32"/>
      <use x="827.494141" xlink:href="#DejaVuSans-40"/>
      <use x="866.507812" xlink:href="#DejaVuSans-108"/>
      <use x="894.291016" xlink:href="#DejaVuSans-97"/>
      <use x="955.570312" xlink:href="#DejaVuSans-115"/>
      <use x="1007.669922" xlink:href="#DejaVuSans-116"/>
      <use x="1046.878906" xlink:href="#DejaVuSans-32"/>
      <use x="1078.666016" xlink:href="#DejaVuSans-49"/>
      <use x="1142.289062" xlink:href="#DejaVuSans-68"/>
      <use x="1219.291016" xlink:href="#DejaVuSans-32"/>
      <use x="1251.078125" xlink:href="#DejaVuSans-97"/>
      <use x="1312.357422" xlink:href="#DejaVuSans-118"/>
      <use x="1371.537109" xlink:href="#DejaVuSans-103"/>
      <use x="1435.013672" xlink:href="#DejaVuSans-32"/>
      <use x="1466.800781" xlink:href="#DejaVuSans-114"/>
      <use x="1507.914062" xlink:href="#DejaVuSans-97"/>
      <use x="1569.193359" xlink:href="#DejaVuSans-116"/>
      <use x="1608.402344" xlink:href="#DejaVuSans-101"/>
      <use x="1669.925781" xlink:href="#DejaVuSans-41"/>
     </g>
    </g>
    <g id="line2d_61">
     <path d="M 474.829375 356.129246 
L 494.829375 356.129246 
" style="fill:none;stroke:#988ed5;stroke-linecap:square;stroke-width:1.5;"/>
    </g>
    <g id="line2d_62"/>
    <g id="text_32">
     <!-- Projected Cases (last 7D avg rate) -->
     <g transform="translate(502.829375 359.629246)scale(0.1 -0.1)">
      <use xlink:href="#DejaVuSans-80"/>
      <use x="58.552734" xlink:href="#DejaVuSans-114"/>
      <use x="97.416016" xlink:href="#DejaVuSans-111"/>
      <use x="158.597656" xlink:href="#DejaVuSans-106"/>
      <use x="186.380859" xlink:href="#DejaVuSans-101"/>
      <use x="247.904297" xlink:href="#DejaVuSans-99"/>
      <use x="302.884766" xlink:href="#DejaVuSans-116"/>
      <use x="342.09375" xlink:href="#DejaVuSans-101"/>
      <use x="403.617188" xlink:href="#DejaVuSans-100"/>
      <use x="467.09375" xlink:href="#DejaVuSans-32"/>
      <use x="498.880859" xlink:href="#DejaVuSans-67"/>
      <use x="568.705078" xlink:href="#DejaVuSans-97"/>
      <use x="629.984375" xlink:href="#DejaVuSans-115"/>
      <use x="682.083984" xlink:href="#DejaVuSans-101"/>
      <use x="743.607422" xlink:href="#DejaVuSans-115"/>
      <use x="795.707031" xlink:href="#DejaVuSans-32"/>
      <use x="827.494141" xlink:href="#DejaVuSans-40"/>
      <use x="866.507812" xlink:href="#DejaVuSans-108"/>
      <use x="894.291016" xlink:href="#DejaVuSans-97"/>
      <use x="955.570312" xlink:href="#DejaVuSans-115"/>
      <use x="1007.669922" xlink:href="#DejaVuSans-116"/>
      <use x="1046.878906" xlink:href="#DejaVuSans-32"/>
      <use x="1078.666016" xlink:href="#DejaVuSans-55"/>
      <use x="1142.289062" xlink:href="#DejaVuSans-68"/>
      <use x="1219.291016" xlink:href="#DejaVuSans-32"/>
      <use x="1251.078125" xlink:href="#DejaVuSans-97"/>
      <use x="1312.357422" xlink:href="#DejaVuSans-118"/>
      <use x="1371.537109" xlink:href="#DejaVuSans-103"/>
      <use x="1435.013672" xlink:href="#DejaVuSans-32"/>
      <use x="1466.800781" xlink:href="#DejaVuSans-114"/>
      <use x="1507.914062" xlink:href="#DejaVuSans-97"/>
      <use x="1569.193359" xlink:href="#DejaVuSans-116"/>
      <use x="1608.402344" xlink:href="#DejaVuSans-101"/>
      <use x="1669.925781" xlink:href="#DejaVuSans-41"/>
     </g>
    </g>
    <g id="line2d_63">
     <path d="M 474.829375 370.807371 
L 494.829375 370.807371 
" style="fill:none;stroke:#777777;stroke-linecap:square;stroke-width:1.5;"/>
    </g>
    <g id="line2d_64"/>
    <g id="text_33">
     <!-- Cases x3 -->
     <g transform="translate(502.829375 374.307371)scale(0.1 -0.1)">
      <defs>
       <path d="M 54.890625 54.6875 
L 35.109375 28.078125 
L 55.90625 0 
L 45.3125 0 
L 29.390625 21.484375 
L 13.484375 0 
L 2.875 0 
L 24.125 28.609375 
L 4.6875 54.6875 
L 15.28125 54.6875 
L 29.78125 35.203125 
L 44.28125 54.6875 
z
" id="DejaVuSans-120"/>
      </defs>
      <use xlink:href="#DejaVuSans-67"/>
      <use x="69.824219" xlink:href="#DejaVuSans-97"/>
      <use x="131.103516" xlink:href="#DejaVuSans-115"/>
      <use x="183.203125" xlink:href="#DejaVuSans-101"/>
      <use x="244.726562" xlink:href="#DejaVuSans-115"/>
      <use x="296.826172" xlink:href="#DejaVuSans-32"/>
      <use x="328.613281" xlink:href="#DejaVuSans-120"/>
      <use x="387.792969" xlink:href="#DejaVuSans-51"/>
     </g>
    </g>
    <g id="line2d_65">
     <path d="M 474.829375 385.485496 
L 494.829375 385.485496 
" style="fill:none;stroke:#fbc15e;stroke-linecap:square;stroke-width:1.5;"/>
    </g>
    <g id="line2d_66"/>
    <g id="text_34">
     <!-- Projected Cases x3,  (last 7D avg rate) -->
     <g transform="translate(502.829375 388.985496)scale(0.1 -0.1)">
      <defs>
       <path d="M 11.71875 12.40625 
L 22.015625 12.40625 
L 22.015625 4 
L 14.015625 -11.625 
L 7.71875 -11.625 
L 11.71875 4 
z
" id="DejaVuSans-44"/>
      </defs>
      <use xlink:href="#DejaVuSans-80"/>
      <use x="58.552734" xlink:href="#DejaVuSans-114"/>
      <use x="97.416016" xlink:href="#DejaVuSans-111"/>
      <use x="158.597656" xlink:href="#DejaVuSans-106"/>
      <use x="186.380859" xlink:href="#DejaVuSans-101"/>
      <use x="247.904297" xlink:href="#DejaVuSans-99"/>
      <use x="302.884766" xlink:href="#DejaVuSans-116"/>
      <use x="342.09375" xlink:href="#DejaVuSans-101"/>
      <use x="403.617188" xlink:href="#DejaVuSans-100"/>
      <use x="467.09375" xlink:href="#DejaVuSans-32"/>
      <use x="498.880859" xlink:href="#DejaVuSans-67"/>
      <use x="568.705078" xlink:href="#DejaVuSans-97"/>
      <use x="629.984375" xlink:href="#DejaVuSans-115"/>
      <use x="682.083984" xlink:href="#DejaVuSans-101"/>
      <use x="743.607422" xlink:href="#DejaVuSans-115"/>
      <use x="795.707031" xlink:href="#DejaVuSans-32"/>
      <use x="827.494141" xlink:href="#DejaVuSans-120"/>
      <use x="886.673828" xlink:href="#DejaVuSans-51"/>
      <use x="950.296875" xlink:href="#DejaVuSans-44"/>
      <use x="982.083984" xlink:href="#DejaVuSans-32"/>
      <use x="1013.871094" xlink:href="#DejaVuSans-32"/>
      <use x="1045.658203" xlink:href="#DejaVuSans-40"/>
      <use x="1084.671875" xlink:href="#DejaVuSans-108"/>
      <use x="1112.455078" xlink:href="#DejaVuSans-97"/>
      <use x="1173.734375" xlink:href="#DejaVuSans-115"/>
      <use x="1225.833984" xlink:href="#DejaVuSans-116"/>
      <use x="1265.042969" xlink:href="#DejaVuSans-32"/>
      <use x="1296.830078" xlink:href="#DejaVuSans-55"/>
      <use x="1360.453125" xlink:href="#DejaVuSans-68"/>
      <use x="1437.455078" xlink:href="#DejaVuSans-32"/>
      <use x="1469.242188" xlink:href="#DejaVuSans-97"/>
      <use x="1530.521484" xlink:href="#DejaVuSans-118"/>
      <use x="1589.701172" xlink:href="#DejaVuSans-103"/>
      <use x="1653.177734" xlink:href="#DejaVuSans-32"/>
      <use x="1684.964844" xlink:href="#DejaVuSans-114"/>
      <use x="1726.078125" xlink:href="#DejaVuSans-97"/>
      <use x="1787.357422" xlink:href="#DejaVuSans-116"/>
      <use x="1826.566406" xlink:href="#DejaVuSans-101"/>
      <use x="1888.089844" xlink:href="#DejaVuSans-41"/>
     </g>
    </g>
    <g id="line2d_67">
     <path d="M 474.829375 400.163621 
L 494.829375 400.163621 
" style="fill:none;stroke:#8eba42;stroke-linecap:square;stroke-width:1.5;"/>
    </g>
    <g id="line2d_68"/>
    <g id="text_35">
     <!-- Cases x4 -->
     <g transform="translate(502.829375 403.663621)scale(0.1 -0.1)">
      <use xlink:href="#DejaVuSans-67"/>
      <use x="69.824219" xlink:href="#DejaVuSans-97"/>
      <use x="131.103516" xlink:href="#DejaVuSans-115"/>
      <use x="183.203125" xlink:href="#DejaVuSans-101"/>
      <use x="244.726562" xlink:href="#DejaVuSans-115"/>
      <use x="296.826172" xlink:href="#DejaVuSans-32"/>
      <use x="328.613281" xlink:href="#DejaVuSans-120"/>
      <use x="387.792969" xlink:href="#DejaVuSans-52"/>
     </g>
    </g>
    <g id="line2d_69">
     <path d="M 474.829375 414.841746 
L 494.829375 414.841746 
" style="fill:none;stroke:#ffb5b8;stroke-linecap:square;stroke-width:1.5;"/>
    </g>
    <g id="line2d_70"/>
    <g id="text_36">
     <!-- Projected Cases x4,  (last 7D avg rate) -->
     <g transform="translate(502.829375 418.341746)scale(0.1 -0.1)">
      <use xlink:href="#DejaVuSans-80"/>
      <use x="58.552734" xlink:href="#DejaVuSans-114"/>
      <use x="97.416016" xlink:href="#DejaVuSans-111"/>
      <use x="158.597656" xlink:href="#DejaVuSans-106"/>
      <use x="186.380859" xlink:href="#DejaVuSans-101"/>
      <use x="247.904297" xlink:href="#DejaVuSans-99"/>
      <use x="302.884766" xlink:href="#DejaVuSans-116"/>
      <use x="342.09375" xlink:href="#DejaVuSans-101"/>
      <use x="403.617188" xlink:href="#DejaVuSans-100"/>
      <use x="467.09375" xlink:href="#DejaVuSans-32"/>
      <use x="498.880859" xlink:href="#DejaVuSans-67"/>
      <use x="568.705078" xlink:href="#DejaVuSans-97"/>
      <use x="629.984375" xlink:href="#DejaVuSans-115"/>
      <use x="682.083984" xlink:href="#DejaVuSans-101"/>
      <use x="743.607422" xlink:href="#DejaVuSans-115"/>
      <use x="795.707031" xlink:href="#DejaVuSans-32"/>
      <use x="827.494141" xlink:href="#DejaVuSans-120"/>
      <use x="886.673828" xlink:href="#DejaVuSans-52"/>
      <use x="950.296875" xlink:href="#DejaVuSans-44"/>
      <use x="982.083984" xlink:href="#DejaVuSans-32"/>
      <use x="1013.871094" xlink:href="#DejaVuSans-32"/>
      <use x="1045.658203" xlink:href="#DejaVuSans-40"/>
      <use x="1084.671875" xlink:href="#DejaVuSans-108"/>
      <use x="1112.455078" xlink:href="#DejaVuSans-97"/>
      <use x="1173.734375" xlink:href="#DejaVuSans-115"/>
      <use x="1225.833984" xlink:href="#DejaVuSans-116"/>
      <use x="1265.042969" xlink:href="#DejaVuSans-32"/>
      <use x="1296.830078" xlink:href="#DejaVuSans-55"/>
      <use x="1360.453125" xlink:href="#DejaVuSans-68"/>
      <use x="1437.455078" xlink:href="#DejaVuSans-32"/>
      <use x="1469.242188" xlink:href="#DejaVuSans-97"/>
      <use x="1530.521484" xlink:href="#DejaVuSans-118"/>
      <use x="1589.701172" xlink:href="#DejaVuSans-103"/>
      <use x="1653.177734" xlink:href="#DejaVuSans-32"/>
      <use x="1684.964844" xlink:href="#DejaVuSans-114"/>
      <use x="1726.078125" xlink:href="#DejaVuSans-97"/>
      <use x="1787.357422" xlink:href="#DejaVuSans-116"/>
      <use x="1826.566406" xlink:href="#DejaVuSans-101"/>
      <use x="1888.089844" xlink:href="#DejaVuSans-41"/>
     </g>
    </g>
   </g>
  </g>
  <g id="text_37">
   <!-- COVID-19 spread projection using Logistic map -->
   <g transform="translate(213.93 16.318125)scale(0.12 -0.12)">
    <defs>
     <path d="M 39.40625 66.21875 
Q 28.65625 66.21875 22.328125 58.203125 
Q 16.015625 50.203125 16.015625 36.375 
Q 16.015625 22.609375 22.328125 14.59375 
Q 28.65625 6.59375 39.40625 6.59375 
Q 50.140625 6.59375 56.421875 14.59375 
Q 62.703125 22.609375 62.703125 36.375 
Q 62.703125 50.203125 56.421875 58.203125 
Q 50.140625 66.21875 39.40625 66.21875 
z
M 39.40625 74.21875 
Q 54.734375 74.21875 63.90625 63.9375 
Q 73.09375 53.65625 73.09375 36.375 
Q 73.09375 19.140625 63.90625 8.859375 
Q 54.734375 -1.421875 39.40625 -1.421875 
Q 24.03125 -1.421875 14.8125 8.828125 
Q 5.609375 19.09375 5.609375 36.375 
Q 5.609375 53.65625 14.8125 63.9375 
Q 24.03125 74.21875 39.40625 74.21875 
z
" id="DejaVuSans-79"/>
     <path d="M 28.609375 0 
L 0.78125 72.90625 
L 11.078125 72.90625 
L 34.1875 11.53125 
L 57.328125 72.90625 
L 67.578125 72.90625 
L 39.796875 0 
z
" id="DejaVuSans-86"/>
     <path d="M 9.8125 72.90625 
L 19.671875 72.90625 
L 19.671875 0 
L 9.8125 0 
z
" id="DejaVuSans-73"/>
     <path d="M 4.890625 31.390625 
L 31.203125 31.390625 
L 31.203125 23.390625 
L 4.890625 23.390625 
z
" id="DejaVuSans-45"/>
     <path d="M 10.984375 1.515625 
L 10.984375 10.5 
Q 14.703125 8.734375 18.5 7.8125 
Q 22.3125 6.890625 25.984375 6.890625 
Q 35.75 6.890625 40.890625 13.453125 
Q 46.046875 20.015625 46.78125 33.40625 
Q 43.953125 29.203125 39.59375 26.953125 
Q 35.25 24.703125 29.984375 24.703125 
Q 19.046875 24.703125 12.671875 31.3125 
Q 6.296875 37.9375 6.296875 49.421875 
Q 6.296875 60.640625 12.9375 67.421875 
Q 19.578125 74.21875 30.609375 74.21875 
Q 43.265625 74.21875 49.921875 64.515625 
Q 56.59375 54.828125 56.59375 36.375 
Q 56.59375 19.140625 48.40625 8.859375 
Q 40.234375 -1.421875 26.421875 -1.421875 
Q 22.703125 -1.421875 18.890625 -0.6875 
Q 15.09375 0.046875 10.984375 1.515625 
z
M 30.609375 32.421875 
Q 37.25 32.421875 41.125 36.953125 
Q 45.015625 41.5 45.015625 49.421875 
Q 45.015625 57.28125 41.125 61.84375 
Q 37.25 66.40625 30.609375 66.40625 
Q 23.96875 66.40625 20.09375 61.84375 
Q 16.21875 57.28125 16.21875 49.421875 
Q 16.21875 41.5 20.09375 36.953125 
Q 23.96875 32.421875 30.609375 32.421875 
z
" id="DejaVuSans-57"/>
     <path d="M 18.109375 8.203125 
L 18.109375 -20.796875 
L 9.078125 -20.796875 
L 9.078125 54.6875 
L 18.109375 54.6875 
L 18.109375 46.390625 
Q 20.953125 51.265625 25.265625 53.625 
Q 29.59375 56 35.59375 56 
Q 45.5625 56 51.78125 48.09375 
Q 58.015625 40.1875 58.015625 27.296875 
Q 58.015625 14.40625 51.78125 6.484375 
Q 45.5625 -1.421875 35.59375 -1.421875 
Q 29.59375 -1.421875 25.265625 0.953125 
Q 20.953125 3.328125 18.109375 8.203125 
z
M 48.6875 27.296875 
Q 48.6875 37.203125 44.609375 42.84375 
Q 40.53125 48.484375 33.40625 48.484375 
Q 26.265625 48.484375 22.1875 42.84375 
Q 18.109375 37.203125 18.109375 27.296875 
Q 18.109375 17.390625 22.1875 11.75 
Q 26.265625 6.109375 33.40625 6.109375 
Q 40.53125 6.109375 44.609375 11.75 
Q 48.6875 17.390625 48.6875 27.296875 
z
" id="DejaVuSans-112"/>
     <path d="M 54.890625 33.015625 
L 54.890625 0 
L 45.90625 0 
L 45.90625 32.71875 
Q 45.90625 40.484375 42.875 44.328125 
Q 39.84375 48.1875 33.796875 48.1875 
Q 26.515625 48.1875 22.3125 43.546875 
Q 18.109375 38.921875 18.109375 30.90625 
L 18.109375 0 
L 9.078125 0 
L 9.078125 54.6875 
L 18.109375 54.6875 
L 18.109375 46.1875 
Q 21.34375 51.125 25.703125 53.5625 
Q 30.078125 56 35.796875 56 
Q 45.21875 56 50.046875 50.171875 
Q 54.890625 44.34375 54.890625 33.015625 
z
" id="DejaVuSans-110"/>
     <path d="M 8.5 21.578125 
L 8.5 54.6875 
L 17.484375 54.6875 
L 17.484375 21.921875 
Q 17.484375 14.15625 20.5 10.265625 
Q 23.53125 6.390625 29.59375 6.390625 
Q 36.859375 6.390625 41.078125 11.03125 
Q 45.3125 15.671875 45.3125 23.6875 
L 45.3125 54.6875 
L 54.296875 54.6875 
L 54.296875 0 
L 45.3125 0 
L 45.3125 8.40625 
Q 42.046875 3.421875 37.71875 1 
Q 33.40625 -1.421875 27.6875 -1.421875 
Q 18.265625 -1.421875 13.375 4.4375 
Q 8.5 10.296875 8.5 21.578125 
z
M 31.109375 56 
z
" id="DejaVuSans-117"/>
     <path d="M 9.8125 72.90625 
L 19.671875 72.90625 
L 19.671875 8.296875 
L 55.171875 8.296875 
L 55.171875 0 
L 9.8125 0 
z
" id="DejaVuSans-76"/>
     <path d="M 52 44.1875 
Q 55.375 50.25 60.0625 53.125 
Q 64.75 56 71.09375 56 
Q 79.640625 56 84.28125 50.015625 
Q 88.921875 44.046875 88.921875 33.015625 
L 88.921875 0 
L 79.890625 0 
L 79.890625 32.71875 
Q 79.890625 40.578125 77.09375 44.375 
Q 74.3125 48.1875 68.609375 48.1875 
Q 61.625 48.1875 57.5625 43.546875 
Q 53.515625 38.921875 53.515625 30.90625 
L 53.515625 0 
L 44.484375 0 
L 44.484375 32.71875 
Q 44.484375 40.625 41.703125 44.40625 
Q 38.921875 48.1875 33.109375 48.1875 
Q 26.21875 48.1875 22.15625 43.53125 
Q 18.109375 38.875 18.109375 30.90625 
L 18.109375 0 
L 9.078125 0 
L 9.078125 54.6875 
L 18.109375 54.6875 
L 18.109375 46.1875 
Q 21.1875 51.21875 25.484375 53.609375 
Q 29.78125 56 35.6875 56 
Q 41.65625 56 45.828125 52.96875 
Q 50 49.953125 52 44.1875 
z
" id="DejaVuSans-109"/>
    </defs>
    <use xlink:href="#DejaVuSans-67"/>
    <use x="69.824219" xlink:href="#DejaVuSans-79"/>
    <use x="146.785156" xlink:href="#DejaVuSans-86"/>
    <use x="215.193359" xlink:href="#DejaVuSans-73"/>
    <use x="244.685547" xlink:href="#DejaVuSans-68"/>
    <use x="321.6875" xlink:href="#DejaVuSans-45"/>
    <use x="357.771484" xlink:href="#DejaVuSans-49"/>
    <use x="421.394531" xlink:href="#DejaVuSans-57"/>
    <use x="485.017578" xlink:href="#DejaVuSans-32"/>
    <use x="516.804688" xlink:href="#DejaVuSans-115"/>
    <use x="568.904297" xlink:href="#DejaVuSans-112"/>
    <use x="632.380859" xlink:href="#DejaVuSans-114"/>
    <use x="671.244141" xlink:href="#DejaVuSans-101"/>
    <use x="732.767578" xlink:href="#DejaVuSans-97"/>
    <use x="794.046875" xlink:href="#DejaVuSans-100"/>
    <use x="857.523438" xlink:href="#DejaVuSans-32"/>
    <use x="889.310547" xlink:href="#DejaVuSans-112"/>
    <use x="952.787109" xlink:href="#DejaVuSans-114"/>
    <use x="991.650391" xlink:href="#DejaVuSans-111"/>
    <use x="1052.832031" xlink:href="#DejaVuSans-106"/>
    <use x="1080.615234" xlink:href="#DejaVuSans-101"/>
    <use x="1142.138672" xlink:href="#DejaVuSans-99"/>
    <use x="1197.119141" xlink:href="#DejaVuSans-116"/>
    <use x="1236.328125" xlink:href="#DejaVuSans-105"/>
    <use x="1264.111328" xlink:href="#DejaVuSans-111"/>
    <use x="1325.292969" xlink:href="#DejaVuSans-110"/>
    <use x="1388.671875" xlink:href="#DejaVuSans-32"/>
    <use x="1420.458984" xlink:href="#DejaVuSans-117"/>
    <use x="1483.837891" xlink:href="#DejaVuSans-115"/>
    <use x="1535.9375" xlink:href="#DejaVuSans-105"/>
    <use x="1563.720703" xlink:href="#DejaVuSans-110"/>
    <use x="1627.099609" xlink:href="#DejaVuSans-103"/>
    <use x="1690.576172" xlink:href="#DejaVuSans-32"/>
    <use x="1722.363281" xlink:href="#DejaVuSans-76"/>
    <use x="1776.326172" xlink:href="#DejaVuSans-111"/>
    <use x="1837.507812" xlink:href="#DejaVuSans-103"/>
    <use x="1900.984375" xlink:href="#DejaVuSans-105"/>
    <use x="1928.767578" xlink:href="#DejaVuSans-115"/>
    <use x="1980.867188" xlink:href="#DejaVuSans-116"/>
    <use x="2020.076172" xlink:href="#DejaVuSans-105"/>
    <use x="2047.859375" xlink:href="#DejaVuSans-99"/>
    <use x="2102.839844" xlink:href="#DejaVuSans-32"/>
    <use x="2134.626953" xlink:href="#DejaVuSans-109"/>
    <use x="2232.039062" xlink:href="#DejaVuSans-97"/>
    <use x="2293.318359" xlink:href="#DejaVuSans-112"/>
   </g>
   <!-- assuming a carrying capacity of K=83M people and dt=4D tick time. -->
   <g transform="translate(148.707188 29.7555)scale(0.12 -0.12)">
    <defs>
     <path d="M 37.109375 75.984375 
L 37.109375 68.5 
L 28.515625 68.5 
Q 23.6875 68.5 21.796875 66.546875 
Q 19.921875 64.59375 19.921875 59.515625 
L 19.921875 54.6875 
L 34.71875 54.6875 
L 34.71875 47.703125 
L 19.921875 47.703125 
L 19.921875 0 
L 10.890625 0 
L 10.890625 47.703125 
L 2.296875 47.703125 
L 2.296875 54.6875 
L 10.890625 54.6875 
L 10.890625 58.5 
Q 10.890625 67.625 15.140625 71.796875 
Q 19.390625 75.984375 28.609375 75.984375 
z
" id="DejaVuSans-102"/>
     <path d="M 9.8125 72.90625 
L 19.671875 72.90625 
L 19.671875 42.09375 
L 52.390625 72.90625 
L 65.09375 72.90625 
L 28.90625 38.921875 
L 67.671875 0 
L 54.6875 0 
L 19.671875 35.109375 
L 19.671875 0 
L 9.8125 0 
z
" id="DejaVuSans-75"/>
     <path d="M 10.59375 45.40625 
L 73.1875 45.40625 
L 73.1875 37.203125 
L 10.59375 37.203125 
z
M 10.59375 25.484375 
L 73.1875 25.484375 
L 73.1875 17.1875 
L 10.59375 17.1875 
z
" id="DejaVuSans-61"/>
     <path d="M 9.8125 72.90625 
L 24.515625 72.90625 
L 43.109375 23.296875 
L 61.8125 72.90625 
L 76.515625 72.90625 
L 76.515625 0 
L 66.890625 0 
L 66.890625 64.015625 
L 48.09375 14.015625 
L 38.1875 14.015625 
L 19.390625 64.015625 
L 19.390625 0 
L 9.8125 0 
z
" id="DejaVuSans-77"/>
     <path d="M 9.078125 75.984375 
L 18.109375 75.984375 
L 18.109375 31.109375 
L 44.921875 54.6875 
L 56.390625 54.6875 
L 27.390625 29.109375 
L 57.625 0 
L 45.90625 0 
L 18.109375 26.703125 
L 18.109375 0 
L 9.078125 0 
z
" id="DejaVuSans-107"/>
     <path d="M 10.6875 12.40625 
L 21 12.40625 
L 21 0 
L 10.6875 0 
z
" id="DejaVuSans-46"/>
    </defs>
    <use xlink:href="#DejaVuSans-97"/>
    <use x="61.279297" xlink:href="#DejaVuSans-115"/>
    <use x="113.378906" xlink:href="#DejaVuSans-115"/>
    <use x="165.478516" xlink:href="#DejaVuSans-117"/>
    <use x="228.857422" xlink:href="#DejaVuSans-109"/>
    <use x="326.269531" xlink:href="#DejaVuSans-105"/>
    <use x="354.052734" xlink:href="#DejaVuSans-110"/>
    <use x="417.431641" xlink:href="#DejaVuSans-103"/>
    <use x="480.908203" xlink:href="#DejaVuSans-32"/>
    <use x="512.695312" xlink:href="#DejaVuSans-97"/>
    <use x="573.974609" xlink:href="#DejaVuSans-32"/>
    <use x="605.761719" xlink:href="#DejaVuSans-99"/>
    <use x="660.742188" xlink:href="#DejaVuSans-97"/>
    <use x="722.021484" xlink:href="#DejaVuSans-114"/>
    <use x="761.384766" xlink:href="#DejaVuSans-114"/>
    <use x="802.498047" xlink:href="#DejaVuSans-121"/>
    <use x="861.677734" xlink:href="#DejaVuSans-105"/>
    <use x="889.460938" xlink:href="#DejaVuSans-110"/>
    <use x="952.839844" xlink:href="#DejaVuSans-103"/>
    <use x="1016.316406" xlink:href="#DejaVuSans-32"/>
    <use x="1048.103516" xlink:href="#DejaVuSans-99"/>
    <use x="1103.083984" xlink:href="#DejaVuSans-97"/>
    <use x="1164.363281" xlink:href="#DejaVuSans-112"/>
    <use x="1227.839844" xlink:href="#DejaVuSans-97"/>
    <use x="1289.119141" xlink:href="#DejaVuSans-99"/>
    <use x="1344.099609" xlink:href="#DejaVuSans-105"/>
    <use x="1371.882812" xlink:href="#DejaVuSans-116"/>
    <use x="1411.091797" xlink:href="#DejaVuSans-121"/>
    <use x="1470.271484" xlink:href="#DejaVuSans-32"/>
    <use x="1502.058594" xlink:href="#DejaVuSans-111"/>
    <use x="1563.240234" xlink:href="#DejaVuSans-102"/>
    <use x="1598.445312" xlink:href="#DejaVuSans-32"/>
    <use x="1630.232422" xlink:href="#DejaVuSans-75"/>
    <use x="1695.808594" xlink:href="#DejaVuSans-61"/>
    <use x="1779.597656" xlink:href="#DejaVuSans-56"/>
    <use x="1843.220703" xlink:href="#DejaVuSans-51"/>
    <use x="1906.84375" xlink:href="#DejaVuSans-77"/>
    <use x="1993.123047" xlink:href="#DejaVuSans-32"/>
    <use x="2024.910156" xlink:href="#DejaVuSans-112"/>
    <use x="2088.386719" xlink:href="#DejaVuSans-101"/>
    <use x="2149.910156" xlink:href="#DejaVuSans-111"/>
    <use x="2211.091797" xlink:href="#DejaVuSans-112"/>
    <use x="2274.568359" xlink:href="#DejaVuSans-108"/>
    <use x="2302.351562" xlink:href="#DejaVuSans-101"/>
    <use x="2363.875" xlink:href="#DejaVuSans-32"/>
    <use x="2395.662109" xlink:href="#DejaVuSans-97"/>
    <use x="2456.941406" xlink:href="#DejaVuSans-110"/>
    <use x="2520.320312" xlink:href="#DejaVuSans-100"/>
    <use x="2583.796875" xlink:href="#DejaVuSans-32"/>
    <use x="2615.583984" xlink:href="#DejaVuSans-100"/>
    <use x="2679.060547" xlink:href="#DejaVuSans-116"/>
    <use x="2718.269531" xlink:href="#DejaVuSans-61"/>
    <use x="2802.058594" xlink:href="#DejaVuSans-52"/>
    <use x="2865.681641" xlink:href="#DejaVuSans-68"/>
    <use x="2942.683594" xlink:href="#DejaVuSans-32"/>
    <use x="2974.470703" xlink:href="#DejaVuSans-116"/>
    <use x="3013.679688" xlink:href="#DejaVuSans-105"/>
    <use x="3041.462891" xlink:href="#DejaVuSans-99"/>
    <use x="3096.443359" xlink:href="#DejaVuSans-107"/>
    <use x="3154.353516" xlink:href="#DejaVuSans-32"/>
    <use x="3186.140625" xlink:href="#DejaVuSans-116"/>
    <use x="3225.349609" xlink:href="#DejaVuSans-105"/>
    <use x="3253.132812" xlink:href="#DejaVuSans-109"/>
    <use x="3350.544922" xlink:href="#DejaVuSans-101"/>
    <use x="3412.068359" xlink:href="#DejaVuSans-46"/>
   </g>
   <!-- created: 2020-12-31 author: @pschwede, source: JHU CSSE via @entorb &amp; @pomber. -->
   <g transform="translate(98.56125 43.192875)scale(0.12 -0.12)">
    <defs>
     <path d="M 11.71875 12.40625 
L 22.015625 12.40625 
L 22.015625 0 
L 11.71875 0 
z
M 11.71875 51.703125 
L 22.015625 51.703125 
L 22.015625 39.3125 
L 11.71875 39.3125 
z
" id="DejaVuSans-58"/>
     <path d="M 54.890625 33.015625 
L 54.890625 0 
L 45.90625 0 
L 45.90625 32.71875 
Q 45.90625 40.484375 42.875 44.328125 
Q 39.84375 48.1875 33.796875 48.1875 
Q 26.515625 48.1875 22.3125 43.546875 
Q 18.109375 38.921875 18.109375 30.90625 
L 18.109375 0 
L 9.078125 0 
L 9.078125 75.984375 
L 18.109375 75.984375 
L 18.109375 46.1875 
Q 21.34375 51.125 25.703125 53.5625 
Q 30.078125 56 35.796875 56 
Q 45.21875 56 50.046875 50.171875 
Q 54.890625 44.34375 54.890625 33.015625 
z
" id="DejaVuSans-104"/>
     <path d="M 37.203125 26.21875 
Q 37.203125 19.234375 40.671875 15.25 
Q 44.140625 11.28125 50.203125 11.28125 
Q 56.203125 11.28125 59.640625 15.28125 
Q 63.09375 19.28125 63.09375 26.21875 
Q 63.09375 33.0625 59.578125 37.078125 
Q 56.0625 41.109375 50.09375 41.109375 
Q 44.1875 41.109375 40.6875 37.109375 
Q 37.203125 33.109375 37.203125 26.21875 
z
M 63.8125 11.625 
Q 60.890625 7.859375 57.109375 6.078125 
Q 53.328125 4.296875 48.296875 4.296875 
Q 39.890625 4.296875 34.640625 10.375 
Q 29.390625 16.453125 29.390625 26.21875 
Q 29.390625 35.984375 34.65625 42.078125 
Q 39.9375 48.1875 48.296875 48.1875 
Q 53.328125 48.1875 57.125 46.359375 
Q 60.9375 44.53125 63.8125 40.828125 
L 63.8125 47.21875 
L 70.796875 47.21875 
L 70.796875 11.28125 
Q 77.9375 12.359375 81.953125 17.796875 
Q 85.984375 23.25 85.984375 31.890625 
Q 85.984375 37.109375 84.4375 41.703125 
Q 82.90625 46.296875 79.78125 50.203125 
Q 74.703125 56.59375 67.40625 59.984375 
Q 60.109375 63.375 51.515625 63.375 
Q 45.515625 63.375 39.984375 61.78125 
Q 34.46875 60.203125 29.78125 57.078125 
Q 22.125 52.09375 17.796875 44.015625 
Q 13.484375 35.9375 13.484375 26.515625 
Q 13.484375 18.75 16.28125 11.953125 
Q 19.09375 5.171875 24.421875 0 
Q 29.546875 -5.078125 36.28125 -7.734375 
Q 43.015625 -10.40625 50.6875 -10.40625 
Q 56.984375 -10.40625 63.0625 -8.28125 
Q 69.140625 -6.15625 74.21875 -2.203125 
L 78.609375 -7.625 
Q 72.515625 -12.359375 65.3125 -14.875 
Q 58.109375 -17.390625 50.6875 -17.390625 
Q 41.65625 -17.390625 33.640625 -14.1875 
Q 25.640625 -10.984375 19.390625 -4.890625 
Q 13.140625 1.21875 9.859375 9.25 
Q 6.59375 17.28125 6.59375 26.515625 
Q 6.59375 35.40625 9.90625 43.453125 
Q 13.234375 51.515625 19.390625 57.625 
Q 25.6875 63.8125 33.9375 67.109375 
Q 42.1875 70.40625 51.421875 70.40625 
Q 61.765625 70.40625 70.625 66.15625 
Q 79.5 61.921875 85.5 54.109375 
Q 89.15625 49.3125 91.078125 43.703125 
Q 93.015625 38.09375 93.015625 32.078125 
Q 93.015625 19.234375 85.25 11.8125 
Q 77.484375 4.390625 63.8125 4.109375 
z
" id="DejaVuSans-64"/>
     <path d="M 4.203125 54.6875 
L 13.1875 54.6875 
L 24.421875 12.015625 
L 35.59375 54.6875 
L 46.1875 54.6875 
L 57.421875 12.015625 
L 68.609375 54.6875 
L 77.59375 54.6875 
L 63.28125 0 
L 52.6875 0 
L 40.921875 44.828125 
L 29.109375 0 
L 18.5 0 
z
" id="DejaVuSans-119"/>
     <path d="M 9.8125 72.90625 
L 19.671875 72.90625 
L 19.671875 5.078125 
Q 19.671875 -8.109375 14.671875 -14.0625 
Q 9.671875 -20.015625 -1.421875 -20.015625 
L -5.171875 -20.015625 
L -5.171875 -11.71875 
L -2.09375 -11.71875 
Q 4.4375 -11.71875 7.125 -8.046875 
Q 9.8125 -4.390625 9.8125 5.078125 
z
" id="DejaVuSans-74"/>
     <path d="M 9.8125 72.90625 
L 19.671875 72.90625 
L 19.671875 43.015625 
L 55.515625 43.015625 
L 55.515625 72.90625 
L 65.375 72.90625 
L 65.375 0 
L 55.515625 0 
L 55.515625 34.71875 
L 19.671875 34.71875 
L 19.671875 0 
L 9.8125 0 
z
" id="DejaVuSans-72"/>
     <path d="M 8.6875 72.90625 
L 18.609375 72.90625 
L 18.609375 28.609375 
Q 18.609375 16.890625 22.84375 11.734375 
Q 27.09375 6.59375 36.625 6.59375 
Q 46.09375 6.59375 50.34375 11.734375 
Q 54.59375 16.890625 54.59375 28.609375 
L 54.59375 72.90625 
L 64.5 72.90625 
L 64.5 27.390625 
Q 64.5 13.140625 57.4375 5.859375 
Q 50.390625 -1.421875 36.625 -1.421875 
Q 22.796875 -1.421875 15.734375 5.859375 
Q 8.6875 13.140625 8.6875 27.390625 
z
" id="DejaVuSans-85"/>
     <path d="M 53.515625 70.515625 
L 53.515625 60.890625 
Q 47.90625 63.578125 42.921875 64.890625 
Q 37.9375 66.21875 33.296875 66.21875 
Q 25.25 66.21875 20.875 63.09375 
Q 16.5 59.96875 16.5 54.203125 
Q 16.5 49.359375 19.40625 46.890625 
Q 22.3125 44.4375 30.421875 42.921875 
L 36.375 41.703125 
Q 47.40625 39.59375 52.65625 34.296875 
Q 57.90625 29 57.90625 20.125 
Q 57.90625 9.515625 50.796875 4.046875 
Q 43.703125 -1.421875 29.984375 -1.421875 
Q 24.8125 -1.421875 18.96875 -0.25 
Q 13.140625 0.921875 6.890625 3.21875 
L 6.890625 13.375 
Q 12.890625 10.015625 18.65625 8.296875 
Q 24.421875 6.59375 29.984375 6.59375 
Q 38.421875 6.59375 43.015625 9.90625 
Q 47.609375 13.234375 47.609375 19.390625 
Q 47.609375 24.75 44.3125 27.78125 
Q 41.015625 30.8125 33.5 32.328125 
L 27.484375 33.5 
Q 16.453125 35.6875 11.515625 40.375 
Q 6.59375 45.0625 6.59375 53.421875 
Q 6.59375 63.09375 13.40625 68.65625 
Q 20.21875 74.21875 32.171875 74.21875 
Q 37.3125 74.21875 42.625 73.28125 
Q 47.953125 72.359375 53.515625 70.515625 
z
" id="DejaVuSans-83"/>
     <path d="M 9.8125 72.90625 
L 55.90625 72.90625 
L 55.90625 64.59375 
L 19.671875 64.59375 
L 19.671875 43.015625 
L 54.390625 43.015625 
L 54.390625 34.71875 
L 19.671875 34.71875 
L 19.671875 8.296875 
L 56.78125 8.296875 
L 56.78125 0 
L 9.8125 0 
z
" id="DejaVuSans-69"/>
     <path d="M 48.6875 27.296875 
Q 48.6875 37.203125 44.609375 42.84375 
Q 40.53125 48.484375 33.40625 48.484375 
Q 26.265625 48.484375 22.1875 42.84375 
Q 18.109375 37.203125 18.109375 27.296875 
Q 18.109375 17.390625 22.1875 11.75 
Q 26.265625 6.109375 33.40625 6.109375 
Q 40.53125 6.109375 44.609375 11.75 
Q 48.6875 17.390625 48.6875 27.296875 
z
M 18.109375 46.390625 
Q 20.953125 51.265625 25.265625 53.625 
Q 29.59375 56 35.59375 56 
Q 45.5625 56 51.78125 48.09375 
Q 58.015625 40.1875 58.015625 27.296875 
Q 58.015625 14.40625 51.78125 6.484375 
Q 45.5625 -1.421875 35.59375 -1.421875 
Q 29.59375 -1.421875 25.265625 0.953125 
Q 20.953125 3.328125 18.109375 8.203125 
L 18.109375 0 
L 9.078125 0 
L 9.078125 75.984375 
L 18.109375 75.984375 
z
" id="DejaVuSans-98"/>
     <path d="M 24.3125 39.203125 
Q 19.875 35.25 17.796875 31.3125 
Q 15.71875 27.390625 15.71875 23.09375 
Q 15.71875 15.96875 20.890625 11.234375 
Q 26.078125 6.5 33.890625 6.5 
Q 38.53125 6.5 42.578125 8.03125 
Q 46.625 9.578125 50.203125 12.703125 
z
M 31.203125 44.671875 
L 56 19.28125 
Q 58.890625 23.640625 60.5 28.59375 
Q 62.109375 33.546875 62.40625 39.109375 
L 71.484375 39.109375 
Q 70.90625 32.671875 68.359375 26.359375 
Q 65.828125 20.0625 61.28125 13.921875 
L 74.90625 0 
L 62.59375 0 
L 55.609375 7.171875 
Q 50.53125 2.828125 44.96875 0.703125 
Q 39.40625 -1.421875 33.015625 -1.421875 
Q 21.234375 -1.421875 13.765625 5.296875 
Q 6.296875 12.015625 6.296875 22.515625 
Q 6.296875 28.765625 9.5625 34.25 
Q 12.84375 39.75 19.390625 44.578125 
Q 17.046875 47.65625 15.8125 50.703125 
Q 14.59375 53.765625 14.59375 56.6875 
Q 14.59375 64.59375 20.015625 69.40625 
Q 25.4375 74.21875 34.421875 74.21875 
Q 38.484375 74.21875 42.5 73.34375 
Q 46.53125 72.46875 50.6875 70.703125 
L 50.6875 61.8125 
Q 46.4375 64.109375 42.578125 65.296875 
Q 38.71875 66.5 35.40625 66.5 
Q 30.28125 66.5 27.078125 63.78125 
Q 23.875 61.078125 23.875 56.78125 
Q 23.875 54.296875 25.3125 51.78125 
Q 26.765625 49.265625 31.203125 44.671875 
z
" id="DejaVuSans-38"/>
    </defs>
    <use xlink:href="#DejaVuSans-99"/>
    <use x="54.980469" xlink:href="#DejaVuSans-114"/>
    <use x="93.84375" xlink:href="#DejaVuSans-101"/>
    <use x="155.367188" xlink:href="#DejaVuSans-97"/>
    <use x="216.646484" xlink:href="#DejaVuSans-116"/>
    <use x="255.855469" xlink:href="#DejaVuSans-101"/>
    <use x="317.378906" xlink:href="#DejaVuSans-100"/>
    <use x="380.855469" xlink:href="#DejaVuSans-58"/>
    <use x="414.546875" xlink:href="#DejaVuSans-32"/>
    <use x="446.333984" xlink:href="#DejaVuSans-50"/>
    <use x="509.957031" xlink:href="#DejaVuSans-48"/>
    <use x="573.580078" xlink:href="#DejaVuSans-50"/>
    <use x="637.203125" xlink:href="#DejaVuSans-48"/>
    <use x="700.826172" xlink:href="#DejaVuSans-45"/>
    <use x="736.910156" xlink:href="#DejaVuSans-49"/>
    <use x="800.533203" xlink:href="#DejaVuSans-50"/>
    <use x="864.15625" xlink:href="#DejaVuSans-45"/>
    <use x="900.240234" xlink:href="#DejaVuSans-51"/>
    <use x="963.863281" xlink:href="#DejaVuSans-49"/>
    <use x="1027.486328" xlink:href="#DejaVuSans-32"/>
    <use x="1059.273438" xlink:href="#DejaVuSans-97"/>
    <use x="1120.552734" xlink:href="#DejaVuSans-117"/>
    <use x="1183.931641" xlink:href="#DejaVuSans-116"/>
    <use x="1223.140625" xlink:href="#DejaVuSans-104"/>
    <use x="1286.519531" xlink:href="#DejaVuSans-111"/>
    <use x="1347.701172" xlink:href="#DejaVuSans-114"/>
    <use x="1387.064453" xlink:href="#DejaVuSans-58"/>
    <use x="1420.755859" xlink:href="#DejaVuSans-32"/>
    <use x="1452.542969" xlink:href="#DejaVuSans-64"/>
    <use x="1552.542969" xlink:href="#DejaVuSans-112"/>
    <use x="1616.019531" xlink:href="#DejaVuSans-115"/>
    <use x="1668.119141" xlink:href="#DejaVuSans-99"/>
    <use x="1723.099609" xlink:href="#DejaVuSans-104"/>
    <use x="1786.478516" xlink:href="#DejaVuSans-119"/>
    <use x="1868.265625" xlink:href="#DejaVuSans-101"/>
    <use x="1929.789062" xlink:href="#DejaVuSans-100"/>
    <use x="1993.265625" xlink:href="#DejaVuSans-101"/>
    <use x="2054.789062" xlink:href="#DejaVuSans-44"/>
    <use x="2086.576172" xlink:href="#DejaVuSans-32"/>
    <use x="2118.363281" xlink:href="#DejaVuSans-115"/>
    <use x="2170.462891" xlink:href="#DejaVuSans-111"/>
    <use x="2231.644531" xlink:href="#DejaVuSans-117"/>
    <use x="2295.023438" xlink:href="#DejaVuSans-114"/>
    <use x="2333.886719" xlink:href="#DejaVuSans-99"/>
    <use x="2388.867188" xlink:href="#DejaVuSans-101"/>
    <use x="2450.390625" xlink:href="#DejaVuSans-58"/>
    <use x="2484.082031" xlink:href="#DejaVuSans-32"/>
    <use x="2515.869141" xlink:href="#DejaVuSans-74"/>
    <use x="2545.361328" xlink:href="#DejaVuSans-72"/>
    <use x="2620.556641" xlink:href="#DejaVuSans-85"/>
    <use x="2693.75" xlink:href="#DejaVuSans-32"/>
    <use x="2725.537109" xlink:href="#DejaVuSans-67"/>
    <use x="2795.361328" xlink:href="#DejaVuSans-83"/>
    <use x="2858.837891" xlink:href="#DejaVuSans-83"/>
    <use x="2922.314453" xlink:href="#DejaVuSans-69"/>
    <use x="2985.498047" xlink:href="#DejaVuSans-32"/>
    <use x="3017.285156" xlink:href="#DejaVuSans-118"/>
    <use x="3076.464844" xlink:href="#DejaVuSans-105"/>
    <use x="3104.248047" xlink:href="#DejaVuSans-97"/>
    <use x="3165.527344" xlink:href="#DejaVuSans-32"/>
    <use x="3197.314453" xlink:href="#DejaVuSans-64"/>
    <use x="3297.314453" xlink:href="#DejaVuSans-101"/>
    <use x="3358.837891" xlink:href="#DejaVuSans-110"/>
    <use x="3422.216797" xlink:href="#DejaVuSans-116"/>
    <use x="3461.425781" xlink:href="#DejaVuSans-111"/>
    <use x="3522.607422" xlink:href="#DejaVuSans-114"/>
    <use x="3563.720703" xlink:href="#DejaVuSans-98"/>
    <use x="3627.197266" xlink:href="#DejaVuSans-32"/>
    <use x="3658.984375" xlink:href="#DejaVuSans-38"/>
    <use x="3736.962891" xlink:href="#DejaVuSans-32"/>
    <use x="3768.75" xlink:href="#DejaVuSans-64"/>
    <use x="3868.75" xlink:href="#DejaVuSans-112"/>
    <use x="3932.226562" xlink:href="#DejaVuSans-111"/>
    <use x="3993.408203" xlink:href="#DejaVuSans-109"/>
    <use x="4090.820312" xlink:href="#DejaVuSans-98"/>
    <use x="4154.296875" xlink:href="#DejaVuSans-101"/>
    <use x="4215.820312" xlink:href="#DejaVuSans-114"/>
    <use x="4247.808594" xlink:href="#DejaVuSans-46"/>
   </g>
  </g>
 </g>
 <defs>
  <clipPath id="pc62fe4b2ee">
   <rect height="198.965441" width="636.55" x="67.98875" y="102.072"/>
  </clipPath>
  <clipPath id="p5882e5b75a">
   <rect height="198.965441" width="636.55" x="67.98875" y="313.674559"/>
  </clipPath>
 </defs>
</svg>
