<?xml version="1.0" encoding="utf-8" standalone="no"?>
<!DOCTYPE svg PUBLIC "-//W3C//DTD SVG 1.1//EN"
  "http://www.w3.org/Graphics/SVG/1.1/DTD/svg11.dtd">
<svg height="573.257842pt" version="1.1" viewBox="0 0 711.67625 573.257842" width="711.67625pt" xmlns="http://www.w3.org/2000/svg" xmlns:xlink="http://www.w3.org/1999/xlink">
 <metadata>
  <rdf:RDF xmlns:cc="http://creativecommons.org/ns#" xmlns:dc="http://purl.org/dc/elements/1.1/" xmlns:rdf="http://www.w3.org/1999/02/22-rdf-syntax-ns#">
   <cc:Work>
    <dc:type rdf:resource="http://purl.org/dc/dcmitype/StillImage"/>
    <dc:date>2021-06-30T13:02:46.848785</dc:date>
    <dc:format>image/svg+xml</dc:format>
    <dc:creator>
     <cc:Agent>
      <dc:title>Matplotlib v3.4.2, https://matplotlib.org/</dc:title>
     </cc:Agent>
    </dc:creator>
   </cc:Work>
  </rdf:RDF>
 </metadata>
 <defs>
  <style type="text/css">*{stroke-linecap:butt;stroke-linejoin:round;}</style>
 </defs>
 <g id="figure_1">
  <g id="patch_1">
   <path d="M 0 573.257842 
L 711.67625 573.257842 
L 711.67625 0 
L 0 0 
z
" style="fill:#ffffff;"/>
  </g>
  <g id="axes_1">
   <g id="patch_2">
    <path d="M 61.62625 301.032412 
L 704.47625 301.032412 
L 704.47625 102.072 
L 61.62625 102.072 
z
" style="fill:#e5e5e5;"/>
   </g>
   <g id="matplotlib.axis_1">
    <g id="xtick_1">
     <g id="line2d_1">
      <defs>
       <path d="M 0 0 
L 0 3.5 
" id="mf32f477716" style="stroke:#555555;stroke-width:0.8;"/>
      </defs>
      <g>
       <use style="fill:#555555;stroke:#555555;stroke-width:0.8;" x="61.62625" xlink:href="#mf32f477716" y="301.032412"/>
      </g>
     </g>
    </g>
    <g id="xtick_2">
     <g id="line2d_2">
      <g>
       <use style="fill:#555555;stroke:#555555;stroke-width:0.8;" x="86.52537" xlink:href="#mf32f477716" y="301.032412"/>
      </g>
     </g>
    </g>
    <g id="xtick_3">
     <g id="line2d_3">
      <g>
       <use style="fill:#555555;stroke:#555555;stroke-width:0.8;" x="155.186579" xlink:href="#mf32f477716" y="301.032412"/>
      </g>
     </g>
    </g>
    <g id="xtick_4">
     <g id="line2d_4">
      <g>
       <use style="fill:#555555;stroke:#555555;stroke-width:0.8;" x="224.602306" xlink:href="#mf32f477716" y="301.032412"/>
      </g>
     </g>
    </g>
    <g id="xtick_5">
     <g id="line2d_5">
      <g>
       <use style="fill:#555555;stroke:#555555;stroke-width:0.8;" x="294.018034" xlink:href="#mf32f477716" y="301.032412"/>
      </g>
     </g>
    </g>
    <g id="xtick_6">
     <g id="line2d_6">
      <g>
       <use style="fill:#555555;stroke:#555555;stroke-width:0.8;" x="361.924724" xlink:href="#mf32f477716" y="301.032412"/>
      </g>
     </g>
    </g>
    <g id="xtick_7">
     <g id="line2d_7">
      <g>
       <use style="fill:#555555;stroke:#555555;stroke-width:0.8;" x="430.585933" xlink:href="#mf32f477716" y="301.032412"/>
      </g>
     </g>
    </g>
    <g id="xtick_8">
     <g id="line2d_8">
      <g>
       <use style="fill:#555555;stroke:#555555;stroke-width:0.8;" x="500.001661" xlink:href="#mf32f477716" y="301.032412"/>
      </g>
     </g>
    </g>
    <g id="xtick_9">
     <g id="line2d_9">
      <g>
       <use style="fill:#555555;stroke:#555555;stroke-width:0.8;" x="569.417388" xlink:href="#mf32f477716" y="301.032412"/>
      </g>
     </g>
    </g>
    <g id="xtick_10">
     <g id="line2d_10">
      <g>
       <use style="fill:#555555;stroke:#555555;stroke-width:0.8;" x="637.324079" xlink:href="#mf32f477716" y="301.032412"/>
      </g>
     </g>
    </g>
    <g id="xtick_11">
     <g id="line2d_11">
      <g>
       <use style="fill:#555555;stroke:#555555;stroke-width:0.8;" x="704.47625" xlink:href="#mf32f477716" y="301.032412"/>
      </g>
     </g>
    </g>
    <g id="xtick_12">
     <g id="line2d_12">
      <defs>
       <path d="M 0 0 
L 0 2 
" id="mb051fd6f5d" style="stroke:#555555;stroke-width:0.6;"/>
      </defs>
      <g>
       <use style="fill:#555555;stroke:#555555;stroke-width:0.6;" x="63.135288" xlink:href="#mb051fd6f5d" y="301.032412"/>
      </g>
     </g>
    </g>
    <g id="xtick_13">
     <g id="line2d_13">
      <g>
       <use style="fill:#555555;stroke:#555555;stroke-width:0.6;" x="109.160933" xlink:href="#mb051fd6f5d" y="301.032412"/>
      </g>
     </g>
    </g>
    <g id="xtick_14">
     <g id="line2d_14">
      <g>
       <use style="fill:#555555;stroke:#555555;stroke-width:0.6;" x="132.551015" xlink:href="#mb051fd6f5d" y="301.032412"/>
      </g>
     </g>
    </g>
    <g id="xtick_15">
     <g id="line2d_15">
      <g>
       <use style="fill:#555555;stroke:#555555;stroke-width:0.6;" x="178.576661" xlink:href="#mb051fd6f5d" y="301.032412"/>
      </g>
     </g>
    </g>
    <g id="xtick_16">
     <g id="line2d_16">
      <g>
       <use style="fill:#555555;stroke:#555555;stroke-width:0.6;" x="201.966743" xlink:href="#mb051fd6f5d" y="301.032412"/>
      </g>
     </g>
    </g>
    <g id="xtick_17">
     <g id="line2d_17">
      <g>
       <use style="fill:#555555;stroke:#555555;stroke-width:0.6;" x="247.992388" xlink:href="#mb051fd6f5d" y="301.032412"/>
      </g>
     </g>
    </g>
    <g id="xtick_18">
     <g id="line2d_18">
      <g>
       <use style="fill:#555555;stroke:#555555;stroke-width:0.6;" x="270.627952" xlink:href="#mb051fd6f5d" y="301.032412"/>
      </g>
     </g>
    </g>
    <g id="xtick_19">
     <g id="line2d_19">
      <g>
       <use style="fill:#555555;stroke:#555555;stroke-width:0.6;" x="317.408116" xlink:href="#mb051fd6f5d" y="301.032412"/>
      </g>
     </g>
    </g>
    <g id="xtick_20">
     <g id="line2d_20">
      <g>
       <use style="fill:#555555;stroke:#555555;stroke-width:0.6;" x="338.534642" xlink:href="#mb051fd6f5d" y="301.032412"/>
      </g>
     </g>
    </g>
    <g id="xtick_21">
     <g id="line2d_21">
      <g>
       <use style="fill:#555555;stroke:#555555;stroke-width:0.6;" x="384.560288" xlink:href="#mb051fd6f5d" y="301.032412"/>
      </g>
     </g>
    </g>
    <g id="xtick_22">
     <g id="line2d_22">
      <g>
       <use style="fill:#555555;stroke:#555555;stroke-width:0.6;" x="407.95037" xlink:href="#mb051fd6f5d" y="301.032412"/>
      </g>
     </g>
    </g>
    <g id="xtick_23">
     <g id="line2d_23">
      <g>
       <use style="fill:#555555;stroke:#555555;stroke-width:0.6;" x="453.976015" xlink:href="#mb051fd6f5d" y="301.032412"/>
      </g>
     </g>
    </g>
    <g id="xtick_24">
     <g id="line2d_24">
      <g>
       <use style="fill:#555555;stroke:#555555;stroke-width:0.6;" x="477.366097" xlink:href="#mb051fd6f5d" y="301.032412"/>
      </g>
     </g>
    </g>
    <g id="xtick_25">
     <g id="line2d_25">
      <g>
       <use style="fill:#555555;stroke:#555555;stroke-width:0.6;" x="523.391743" xlink:href="#mb051fd6f5d" y="301.032412"/>
      </g>
     </g>
    </g>
    <g id="xtick_26">
     <g id="line2d_26">
      <g>
       <use style="fill:#555555;stroke:#555555;stroke-width:0.6;" x="546.027306" xlink:href="#mb051fd6f5d" y="301.032412"/>
      </g>
     </g>
    </g>
    <g id="xtick_27">
     <g id="line2d_27">
      <g>
       <use style="fill:#555555;stroke:#555555;stroke-width:0.6;" x="592.807471" xlink:href="#mb051fd6f5d" y="301.032412"/>
      </g>
     </g>
    </g>
    <g id="xtick_28">
     <g id="line2d_28">
      <g>
       <use style="fill:#555555;stroke:#555555;stroke-width:0.6;" x="613.933996" xlink:href="#mb051fd6f5d" y="301.032412"/>
      </g>
     </g>
    </g>
    <g id="xtick_29">
     <g id="line2d_29">
      <g>
       <use style="fill:#555555;stroke:#555555;stroke-width:0.6;" x="659.959642" xlink:href="#mb051fd6f5d" y="301.032412"/>
      </g>
     </g>
    </g>
    <g id="xtick_30">
     <g id="line2d_30">
      <g>
       <use style="fill:#555555;stroke:#555555;stroke-width:0.6;" x="683.349724" xlink:href="#mb051fd6f5d" y="301.032412"/>
      </g>
     </g>
    </g>
   </g>
   <g id="matplotlib.axis_2">
    <g id="ytick_1">
     <g id="line2d_31">
      <defs>
       <path d="M 0 0 
L -3.5 0 
" id="m0f14b9766b" style="stroke:#555555;stroke-width:0.8;"/>
      </defs>
      <g>
       <use style="fill:#555555;stroke:#555555;stroke-width:0.8;" x="61.62625" xlink:href="#m0f14b9766b" y="291.99132"/>
      </g>
     </g>
     <g id="text_1">
      <!-- 0.0 -->
      <g style="fill:#555555;" transform="translate(38.723125 295.790539)scale(0.1 -0.1)">
       <defs>
        <path d="M 2034 4250 
Q 1547 4250 1301 3770 
Q 1056 3291 1056 2328 
Q 1056 1369 1301 889 
Q 1547 409 2034 409 
Q 2525 409 2770 889 
Q 3016 1369 3016 2328 
Q 3016 3291 2770 3770 
Q 2525 4250 2034 4250 
z
M 2034 4750 
Q 2819 4750 3233 4129 
Q 3647 3509 3647 2328 
Q 3647 1150 3233 529 
Q 2819 -91 2034 -91 
Q 1250 -91 836 529 
Q 422 1150 422 2328 
Q 422 3509 836 4129 
Q 1250 4750 2034 4750 
z
" id="DejaVuSans-30" transform="scale(0.015625)"/>
        <path d="M 684 794 
L 1344 794 
L 1344 0 
L 684 0 
L 684 794 
z
" id="DejaVuSans-2e" transform="scale(0.015625)"/>
       </defs>
       <use xlink:href="#DejaVuSans-30"/>
       <use x="63.623047" xlink:href="#DejaVuSans-2e"/>
       <use x="95.410156" xlink:href="#DejaVuSans-30"/>
      </g>
     </g>
    </g>
    <g id="ytick_2">
     <g id="line2d_32">
      <g>
       <use style="fill:#555555;stroke:#555555;stroke-width:0.8;" x="61.62625" xlink:href="#m0f14b9766b" y="267.808827"/>
      </g>
     </g>
     <g id="text_2">
      <!-- 0.5 -->
      <g style="fill:#555555;" transform="translate(38.723125 271.608046)scale(0.1 -0.1)">
       <defs>
        <path d="M 691 4666 
L 3169 4666 
L 3169 4134 
L 1269 4134 
L 1269 2991 
Q 1406 3038 1543 3061 
Q 1681 3084 1819 3084 
Q 2600 3084 3056 2656 
Q 3513 2228 3513 1497 
Q 3513 744 3044 326 
Q 2575 -91 1722 -91 
Q 1428 -91 1123 -41 
Q 819 9 494 109 
L 494 744 
Q 775 591 1075 516 
Q 1375 441 1709 441 
Q 2250 441 2565 725 
Q 2881 1009 2881 1497 
Q 2881 1984 2565 2268 
Q 2250 2553 1709 2553 
Q 1456 2553 1204 2497 
Q 953 2441 691 2322 
L 691 4666 
z
" id="DejaVuSans-35" transform="scale(0.015625)"/>
       </defs>
       <use xlink:href="#DejaVuSans-30"/>
       <use x="63.623047" xlink:href="#DejaVuSans-2e"/>
       <use x="95.410156" xlink:href="#DejaVuSans-35"/>
      </g>
     </g>
    </g>
    <g id="ytick_3">
     <g id="line2d_33">
      <g>
       <use style="fill:#555555;stroke:#555555;stroke-width:0.8;" x="61.62625" xlink:href="#m0f14b9766b" y="243.626333"/>
      </g>
     </g>
     <g id="text_3">
      <!-- 1.0 -->
      <g style="fill:#555555;" transform="translate(38.723125 247.425552)scale(0.1 -0.1)">
       <defs>
        <path d="M 794 531 
L 1825 531 
L 1825 4091 
L 703 3866 
L 703 4441 
L 1819 4666 
L 2450 4666 
L 2450 531 
L 3481 531 
L 3481 0 
L 794 0 
L 794 531 
z
" id="DejaVuSans-31" transform="scale(0.015625)"/>
       </defs>
       <use xlink:href="#DejaVuSans-31"/>
       <use x="63.623047" xlink:href="#DejaVuSans-2e"/>
       <use x="95.410156" xlink:href="#DejaVuSans-30"/>
      </g>
     </g>
    </g>
    <g id="ytick_4">
     <g id="line2d_34">
      <g>
       <use style="fill:#555555;stroke:#555555;stroke-width:0.8;" x="61.62625" xlink:href="#m0f14b9766b" y="219.443839"/>
      </g>
     </g>
     <g id="text_4">
      <!-- 1.5 -->
      <g style="fill:#555555;" transform="translate(38.723125 223.243058)scale(0.1 -0.1)">
       <use xlink:href="#DejaVuSans-31"/>
       <use x="63.623047" xlink:href="#DejaVuSans-2e"/>
       <use x="95.410156" xlink:href="#DejaVuSans-35"/>
      </g>
     </g>
    </g>
    <g id="ytick_5">
     <g id="line2d_35">
      <g>
       <use style="fill:#555555;stroke:#555555;stroke-width:0.8;" x="61.62625" xlink:href="#m0f14b9766b" y="195.261346"/>
      </g>
     </g>
     <g id="text_5">
      <!-- 2.0 -->
      <g style="fill:#555555;" transform="translate(38.723125 199.060564)scale(0.1 -0.1)">
       <defs>
        <path d="M 1228 531 
L 3431 531 
L 3431 0 
L 469 0 
L 469 531 
Q 828 903 1448 1529 
Q 2069 2156 2228 2338 
Q 2531 2678 2651 2914 
Q 2772 3150 2772 3378 
Q 2772 3750 2511 3984 
Q 2250 4219 1831 4219 
Q 1534 4219 1204 4116 
Q 875 4013 500 3803 
L 500 4441 
Q 881 4594 1212 4672 
Q 1544 4750 1819 4750 
Q 2544 4750 2975 4387 
Q 3406 4025 3406 3419 
Q 3406 3131 3298 2873 
Q 3191 2616 2906 2266 
Q 2828 2175 2409 1742 
Q 1991 1309 1228 531 
z
" id="DejaVuSans-32" transform="scale(0.015625)"/>
       </defs>
       <use xlink:href="#DejaVuSans-32"/>
       <use x="63.623047" xlink:href="#DejaVuSans-2e"/>
       <use x="95.410156" xlink:href="#DejaVuSans-30"/>
      </g>
     </g>
    </g>
    <g id="ytick_6">
     <g id="line2d_36">
      <g>
       <use style="fill:#555555;stroke:#555555;stroke-width:0.8;" x="61.62625" xlink:href="#m0f14b9766b" y="171.078852"/>
      </g>
     </g>
     <g id="text_6">
      <!-- 2.5 -->
      <g style="fill:#555555;" transform="translate(38.723125 174.878071)scale(0.1 -0.1)">
       <use xlink:href="#DejaVuSans-32"/>
       <use x="63.623047" xlink:href="#DejaVuSans-2e"/>
       <use x="95.410156" xlink:href="#DejaVuSans-35"/>
      </g>
     </g>
    </g>
    <g id="ytick_7">
     <g id="line2d_37">
      <g>
       <use style="fill:#555555;stroke:#555555;stroke-width:0.8;" x="61.62625" xlink:href="#m0f14b9766b" y="146.896358"/>
      </g>
     </g>
     <g id="text_7">
      <!-- 3.0 -->
      <g style="fill:#555555;" transform="translate(38.723125 150.695577)scale(0.1 -0.1)">
       <defs>
        <path d="M 2597 2516 
Q 3050 2419 3304 2112 
Q 3559 1806 3559 1356 
Q 3559 666 3084 287 
Q 2609 -91 1734 -91 
Q 1441 -91 1130 -33 
Q 819 25 488 141 
L 488 750 
Q 750 597 1062 519 
Q 1375 441 1716 441 
Q 2309 441 2620 675 
Q 2931 909 2931 1356 
Q 2931 1769 2642 2001 
Q 2353 2234 1838 2234 
L 1294 2234 
L 1294 2753 
L 1863 2753 
Q 2328 2753 2575 2939 
Q 2822 3125 2822 3475 
Q 2822 3834 2567 4026 
Q 2313 4219 1838 4219 
Q 1578 4219 1281 4162 
Q 984 4106 628 3988 
L 628 4550 
Q 988 4650 1302 4700 
Q 1616 4750 1894 4750 
Q 2613 4750 3031 4423 
Q 3450 4097 3450 3541 
Q 3450 3153 3228 2886 
Q 3006 2619 2597 2516 
z
" id="DejaVuSans-33" transform="scale(0.015625)"/>
       </defs>
       <use xlink:href="#DejaVuSans-33"/>
       <use x="63.623047" xlink:href="#DejaVuSans-2e"/>
       <use x="95.410156" xlink:href="#DejaVuSans-30"/>
      </g>
     </g>
    </g>
    <g id="ytick_8">
     <g id="line2d_38">
      <g>
       <use style="fill:#555555;stroke:#555555;stroke-width:0.8;" x="61.62625" xlink:href="#m0f14b9766b" y="122.713865"/>
      </g>
     </g>
     <g id="text_8">
      <!-- 3.5 -->
      <g style="fill:#555555;" transform="translate(38.723125 126.513083)scale(0.1 -0.1)">
       <use xlink:href="#DejaVuSans-33"/>
       <use x="63.623047" xlink:href="#DejaVuSans-2e"/>
       <use x="95.410156" xlink:href="#DejaVuSans-35"/>
      </g>
     </g>
    </g>
    <g id="text_9">
     <!-- Total -->
     <g style="fill:#555555;" transform="translate(32.2275 215.564081)rotate(-90)scale(0.12 -0.12)">
      <defs>
       <path d="M -19 4666 
L 3928 4666 
L 3928 4134 
L 2272 4134 
L 2272 0 
L 1638 0 
L 1638 4134 
L -19 4134 
L -19 4666 
z
" id="DejaVuSans-54" transform="scale(0.015625)"/>
       <path d="M 1959 3097 
Q 1497 3097 1228 2736 
Q 959 2375 959 1747 
Q 959 1119 1226 758 
Q 1494 397 1959 397 
Q 2419 397 2687 759 
Q 2956 1122 2956 1747 
Q 2956 2369 2687 2733 
Q 2419 3097 1959 3097 
z
M 1959 3584 
Q 2709 3584 3137 3096 
Q 3566 2609 3566 1747 
Q 3566 888 3137 398 
Q 2709 -91 1959 -91 
Q 1206 -91 779 398 
Q 353 888 353 1747 
Q 353 2609 779 3096 
Q 1206 3584 1959 3584 
z
" id="DejaVuSans-6f" transform="scale(0.015625)"/>
       <path d="M 1172 4494 
L 1172 3500 
L 2356 3500 
L 2356 3053 
L 1172 3053 
L 1172 1153 
Q 1172 725 1289 603 
Q 1406 481 1766 481 
L 2356 481 
L 2356 0 
L 1766 0 
Q 1100 0 847 248 
Q 594 497 594 1153 
L 594 3053 
L 172 3053 
L 172 3500 
L 594 3500 
L 594 4494 
L 1172 4494 
z
" id="DejaVuSans-74" transform="scale(0.015625)"/>
       <path d="M 2194 1759 
Q 1497 1759 1228 1600 
Q 959 1441 959 1056 
Q 959 750 1161 570 
Q 1363 391 1709 391 
Q 2188 391 2477 730 
Q 2766 1069 2766 1631 
L 2766 1759 
L 2194 1759 
z
M 3341 1997 
L 3341 0 
L 2766 0 
L 2766 531 
Q 2569 213 2275 61 
Q 1981 -91 1556 -91 
Q 1019 -91 701 211 
Q 384 513 384 1019 
Q 384 1609 779 1909 
Q 1175 2209 1959 2209 
L 2766 2209 
L 2766 2266 
Q 2766 2663 2505 2880 
Q 2244 3097 1772 3097 
Q 1472 3097 1187 3025 
Q 903 2953 641 2809 
L 641 3341 
Q 956 3463 1253 3523 
Q 1550 3584 1831 3584 
Q 2591 3584 2966 3190 
Q 3341 2797 3341 1997 
z
" id="DejaVuSans-61" transform="scale(0.015625)"/>
       <path d="M 603 4863 
L 1178 4863 
L 1178 0 
L 603 0 
L 603 4863 
z
" id="DejaVuSans-6c" transform="scale(0.015625)"/>
      </defs>
      <use xlink:href="#DejaVuSans-54"/>
      <use x="44.083984" xlink:href="#DejaVuSans-6f"/>
      <use x="105.265625" xlink:href="#DejaVuSans-74"/>
      <use x="144.474609" xlink:href="#DejaVuSans-61"/>
      <use x="205.753906" xlink:href="#DejaVuSans-6c"/>
     </g>
    </g>
    <g id="text_10">
     <!-- 1e6 -->
     <g style="fill:#555555;" transform="translate(61.62625 99.072)scale(0.1 -0.1)">
      <defs>
       <path d="M 3597 1894 
L 3597 1613 
L 953 1613 
Q 991 1019 1311 708 
Q 1631 397 2203 397 
Q 2534 397 2845 478 
Q 3156 559 3463 722 
L 3463 178 
Q 3153 47 2828 -22 
Q 2503 -91 2169 -91 
Q 1331 -91 842 396 
Q 353 884 353 1716 
Q 353 2575 817 3079 
Q 1281 3584 2069 3584 
Q 2775 3584 3186 3129 
Q 3597 2675 3597 1894 
z
M 3022 2063 
Q 3016 2534 2758 2815 
Q 2500 3097 2075 3097 
Q 1594 3097 1305 2825 
Q 1016 2553 972 2059 
L 3022 2063 
z
" id="DejaVuSans-65" transform="scale(0.015625)"/>
       <path d="M 2113 2584 
Q 1688 2584 1439 2293 
Q 1191 2003 1191 1497 
Q 1191 994 1439 701 
Q 1688 409 2113 409 
Q 2538 409 2786 701 
Q 3034 994 3034 1497 
Q 3034 2003 2786 2293 
Q 2538 2584 2113 2584 
z
M 3366 4563 
L 3366 3988 
Q 3128 4100 2886 4159 
Q 2644 4219 2406 4219 
Q 1781 4219 1451 3797 
Q 1122 3375 1075 2522 
Q 1259 2794 1537 2939 
Q 1816 3084 2150 3084 
Q 2853 3084 3261 2657 
Q 3669 2231 3669 1497 
Q 3669 778 3244 343 
Q 2819 -91 2113 -91 
Q 1303 -91 875 529 
Q 447 1150 447 2328 
Q 447 3434 972 4092 
Q 1497 4750 2381 4750 
Q 2619 4750 2861 4703 
Q 3103 4656 3366 4563 
z
" id="DejaVuSans-36" transform="scale(0.015625)"/>
      </defs>
      <use xlink:href="#DejaVuSans-31"/>
      <use x="63.623047" xlink:href="#DejaVuSans-65"/>
      <use x="125.146484" xlink:href="#DejaVuSans-36"/>
     </g>
    </g>
   </g>
   <g id="line2d_39">
    <path clip-path="url(#p53a8f7087e)" d="M 61.62625 291.988757 
L 72.944032 291.893692 
L 76.716626 291.686897 
L 79.734701 291.312456 
L 82.752776 290.638966 
L 87.279888 289.203314 
L 94.070558 286.954846 
L 97.843151 286.064468 
L 103.879302 285.036518 
L 109.160933 284.421088 
L 115.951602 283.955809 
L 125.760346 283.478509 
L 139.341684 283.097075 
L 174.049548 282.147311 
L 184.612811 281.681197 
L 192.912518 281.125456 
L 214.793562 279.296769 
L 225.356825 278.069397 
L 229.883938 277.407916 
L 233.656532 276.597996 
L 236.674607 275.696465 
L 239.692682 274.522101 
L 241.956238 273.367021 
L 244.219795 271.88234 
L 246.483351 270.024821 
L 249.501426 267.103838 
L 252.519501 263.835374 
L 257.801133 257.614427 
L 263.837283 250.489622 
L 272.136989 240.931319 
L 275.909583 236.523499 
L 278.927658 232.668154 
L 281.945734 228.402838 
L 284.963809 223.733316 
L 289.490921 216.565245 
L 291.754478 213.645541 
L 296.28159 208.314095 
L 300.054184 204.03101 
L 305.335816 197.223534 
L 308.353891 193.925152 
L 311.371966 191.02619 
L 313.635522 189.020203 
L 316.653597 186.664587 
L 320.426191 184.024846 
L 323.444266 182.171203 
L 325.707823 180.957781 
L 330.989454 178.502449 
L 336.271086 175.961159 
L 344.570792 171.62197 
L 347.588867 169.90017 
L 350.606942 167.911844 
L 352.870499 166.180253 
L 356.643093 162.92115 
L 358.906649 160.659534 
L 366.451837 152.756081 
L 368.715393 150.640755 
L 370.97895 148.208224 
L 373.242506 145.312419 
L 385.314806 129.634362 
L 388.332881 126.282496 
L 391.350957 123.36465 
L 393.614513 121.369277 
L 395.878069 119.742707 
L 398.896144 117.892587 
L 402.668738 115.997744 
L 404.932295 115.217775 
L 409.459407 113.948422 
L 412.477482 113.326787 
L 416.250076 112.732305 
L 420.777189 112.234222 
L 427.567858 111.851261 
L 429.831414 111.758013 
L 429.831414 111.758013 
" style="fill:none;stroke:#e24a33;stroke-linecap:square;stroke-width:1.5;"/>
   </g>
   <g id="line2d_40">
    <path clip-path="url(#p53a8f7087e)" d="M 429.831414 111.758013 
L 440.394677 111.444192 
L 455.485053 111.24154 
L 482.647729 111.138012 
L 578.471614 111.115705 
L 704.47625 111.115655 
L 704.47625 111.115655 
" style="fill:none;stroke:#348abd;stroke-linecap:square;stroke-width:1.5;"/>
   </g>
   <g id="patch_3">
    <path d="M 61.62625 301.032412 
L 61.62625 102.072 
" style="fill:none;stroke:#ffffff;stroke-linecap:square;stroke-linejoin:miter;"/>
   </g>
   <g id="patch_4">
    <path d="M 704.47625 301.032412 
L 704.47625 102.072 
" style="fill:none;stroke:#ffffff;stroke-linecap:square;stroke-linejoin:miter;"/>
   </g>
   <g id="patch_5">
    <path d="M 61.62625 301.032412 
L 704.47625 301.032412 
" style="fill:none;stroke:#ffffff;stroke-linecap:square;stroke-linejoin:miter;"/>
   </g>
   <g id="patch_6">
    <path d="M 61.62625 102.072 
L 704.47625 102.072 
" style="fill:none;stroke:#ffffff;stroke-linecap:square;stroke-linejoin:miter;"/>
   </g>
  </g>
  <g id="axes_2">
   <g id="patch_7">
    <path d="M 61.62625 512.64 
L 704.47625 512.64 
L 704.47625 313.679588 
L 61.62625 313.679588 
z
" style="fill:#e5e5e5;"/>
   </g>
   <g id="matplotlib.axis_3">
    <g id="xtick_31">
     <g id="line2d_41">
      <g>
       <use style="fill:#555555;stroke:#555555;stroke-width:0.8;" x="61.62625" xlink:href="#mf32f477716" y="512.64"/>
      </g>
     </g>
    </g>
    <g id="xtick_32">
     <g id="line2d_42">
      <g>
       <use style="fill:#555555;stroke:#555555;stroke-width:0.8;" x="86.52537" xlink:href="#mf32f477716" y="512.64"/>
      </g>
     </g>
     <g id="text_11">
      <!-- Apr -->
      <g style="fill:#555555;" transform="translate(70.503286 534.87044)rotate(-30)scale(0.1 -0.1)">
       <defs>
        <path d="M 2188 4044 
L 1331 1722 
L 3047 1722 
L 2188 4044 
z
M 1831 4666 
L 2547 4666 
L 4325 0 
L 3669 0 
L 3244 1197 
L 1141 1197 
L 716 0 
L 50 0 
L 1831 4666 
z
" id="DejaVuSans-41" transform="scale(0.015625)"/>
        <path d="M 1159 525 
L 1159 -1331 
L 581 -1331 
L 581 3500 
L 1159 3500 
L 1159 2969 
Q 1341 3281 1617 3432 
Q 1894 3584 2278 3584 
Q 2916 3584 3314 3078 
Q 3713 2572 3713 1747 
Q 3713 922 3314 415 
Q 2916 -91 2278 -91 
Q 1894 -91 1617 61 
Q 1341 213 1159 525 
z
M 3116 1747 
Q 3116 2381 2855 2742 
Q 2594 3103 2138 3103 
Q 1681 3103 1420 2742 
Q 1159 2381 1159 1747 
Q 1159 1113 1420 752 
Q 1681 391 2138 391 
Q 2594 391 2855 752 
Q 3116 1113 3116 1747 
z
" id="DejaVuSans-70" transform="scale(0.015625)"/>
        <path d="M 2631 2963 
Q 2534 3019 2420 3045 
Q 2306 3072 2169 3072 
Q 1681 3072 1420 2755 
Q 1159 2438 1159 1844 
L 1159 0 
L 581 0 
L 581 3500 
L 1159 3500 
L 1159 2956 
Q 1341 3275 1631 3429 
Q 1922 3584 2338 3584 
Q 2397 3584 2469 3576 
Q 2541 3569 2628 3553 
L 2631 2963 
z
" id="DejaVuSans-72" transform="scale(0.015625)"/>
       </defs>
       <use xlink:href="#DejaVuSans-41"/>
       <use x="68.408203" xlink:href="#DejaVuSans-70"/>
       <use x="131.884766" xlink:href="#DejaVuSans-72"/>
      </g>
     </g>
    </g>
    <g id="xtick_33">
     <g id="line2d_43">
      <g>
       <use style="fill:#555555;stroke:#555555;stroke-width:0.8;" x="155.186579" xlink:href="#mf32f477716" y="512.64"/>
      </g>
     </g>
     <g id="text_12">
      <!-- Jul -->
      <g style="fill:#555555;" transform="translate(143.697597 532.253252)rotate(-30)scale(0.1 -0.1)">
       <defs>
        <path d="M 628 4666 
L 1259 4666 
L 1259 325 
Q 1259 -519 939 -900 
Q 619 -1281 -91 -1281 
L -331 -1281 
L -331 -750 
L -134 -750 
Q 284 -750 456 -515 
Q 628 -281 628 325 
L 628 4666 
z
" id="DejaVuSans-4a" transform="scale(0.015625)"/>
        <path d="M 544 1381 
L 544 3500 
L 1119 3500 
L 1119 1403 
Q 1119 906 1312 657 
Q 1506 409 1894 409 
Q 2359 409 2629 706 
Q 2900 1003 2900 1516 
L 2900 3500 
L 3475 3500 
L 3475 0 
L 2900 0 
L 2900 538 
Q 2691 219 2414 64 
Q 2138 -91 1772 -91 
Q 1169 -91 856 284 
Q 544 659 544 1381 
z
M 1991 3584 
L 1991 3584 
z
" id="DejaVuSans-75" transform="scale(0.015625)"/>
       </defs>
       <use xlink:href="#DejaVuSans-4a"/>
       <use x="29.492188" xlink:href="#DejaVuSans-75"/>
       <use x="92.871094" xlink:href="#DejaVuSans-6c"/>
      </g>
     </g>
    </g>
    <g id="xtick_34">
     <g id="line2d_44">
      <g>
       <use style="fill:#555555;stroke:#555555;stroke-width:0.8;" x="224.602306" xlink:href="#mf32f477716" y="512.64"/>
      </g>
     </g>
     <g id="text_13">
      <!-- Oct -->
      <g style="fill:#555555;" transform="translate(208.588342 534.865752)rotate(-30)scale(0.1 -0.1)">
       <defs>
        <path d="M 2522 4238 
Q 1834 4238 1429 3725 
Q 1025 3213 1025 2328 
Q 1025 1447 1429 934 
Q 1834 422 2522 422 
Q 3209 422 3611 934 
Q 4013 1447 4013 2328 
Q 4013 3213 3611 3725 
Q 3209 4238 2522 4238 
z
M 2522 4750 
Q 3503 4750 4090 4092 
Q 4678 3434 4678 2328 
Q 4678 1225 4090 567 
Q 3503 -91 2522 -91 
Q 1538 -91 948 565 
Q 359 1222 359 2328 
Q 359 3434 948 4092 
Q 1538 4750 2522 4750 
z
" id="DejaVuSans-4f" transform="scale(0.015625)"/>
        <path d="M 3122 3366 
L 3122 2828 
Q 2878 2963 2633 3030 
Q 2388 3097 2138 3097 
Q 1578 3097 1268 2742 
Q 959 2388 959 1747 
Q 959 1106 1268 751 
Q 1578 397 2138 397 
Q 2388 397 2633 464 
Q 2878 531 3122 666 
L 3122 134 
Q 2881 22 2623 -34 
Q 2366 -91 2075 -91 
Q 1284 -91 818 406 
Q 353 903 353 1747 
Q 353 2603 823 3093 
Q 1294 3584 2113 3584 
Q 2378 3584 2631 3529 
Q 2884 3475 3122 3366 
z
" id="DejaVuSans-63" transform="scale(0.015625)"/>
       </defs>
       <use xlink:href="#DejaVuSans-4f"/>
       <use x="78.710938" xlink:href="#DejaVuSans-63"/>
       <use x="133.691406" xlink:href="#DejaVuSans-74"/>
      </g>
     </g>
    </g>
    <g id="xtick_35">
     <g id="line2d_45">
      <g>
       <use style="fill:#555555;stroke:#555555;stroke-width:0.8;" x="294.018034" xlink:href="#mf32f477716" y="512.64"/>
      </g>
     </g>
     <g id="text_14">
      <!-- Jan -->
      <g style="fill:#555555;" transform="translate(274.028961 533.928252)rotate(-30)scale(0.1 -0.1)">
       <defs>
        <path d="M 3513 2113 
L 3513 0 
L 2938 0 
L 2938 2094 
Q 2938 2591 2744 2837 
Q 2550 3084 2163 3084 
Q 1697 3084 1428 2787 
Q 1159 2491 1159 1978 
L 1159 0 
L 581 0 
L 581 3500 
L 1159 3500 
L 1159 2956 
Q 1366 3272 1645 3428 
Q 1925 3584 2291 3584 
Q 2894 3584 3203 3211 
Q 3513 2838 3513 2113 
z
" id="DejaVuSans-6e" transform="scale(0.015625)"/>
       </defs>
       <use xlink:href="#DejaVuSans-4a"/>
       <use x="29.492188" xlink:href="#DejaVuSans-61"/>
       <use x="90.771484" xlink:href="#DejaVuSans-6e"/>
      </g>
      <!-- 2021 -->
      <g style="fill:#555555;" transform="translate(270.937844 548.64303)rotate(-30)scale(0.1 -0.1)">
       <use xlink:href="#DejaVuSans-32"/>
       <use x="63.623047" xlink:href="#DejaVuSans-30"/>
       <use x="127.246094" xlink:href="#DejaVuSans-32"/>
       <use x="190.869141" xlink:href="#DejaVuSans-31"/>
      </g>
     </g>
    </g>
    <g id="xtick_36">
     <g id="line2d_46">
      <g>
       <use style="fill:#555555;stroke:#555555;stroke-width:0.8;" x="361.924724" xlink:href="#mf32f477716" y="512.64"/>
      </g>
     </g>
     <g id="text_15">
      <!-- Apr -->
      <g style="fill:#555555;" transform="translate(345.902641 534.87044)rotate(-30)scale(0.1 -0.1)">
       <use xlink:href="#DejaVuSans-41"/>
       <use x="68.408203" xlink:href="#DejaVuSans-70"/>
       <use x="131.884766" xlink:href="#DejaVuSans-72"/>
      </g>
     </g>
    </g>
    <g id="xtick_37">
     <g id="line2d_47">
      <g>
       <use style="fill:#555555;stroke:#555555;stroke-width:0.8;" x="430.585933" xlink:href="#mf32f477716" y="512.64"/>
      </g>
     </g>
     <g id="text_16">
      <!-- Jul -->
      <g style="fill:#555555;" transform="translate(419.096952 532.253252)rotate(-30)scale(0.1 -0.1)">
       <use xlink:href="#DejaVuSans-4a"/>
       <use x="29.492188" xlink:href="#DejaVuSans-75"/>
       <use x="92.871094" xlink:href="#DejaVuSans-6c"/>
      </g>
     </g>
    </g>
    <g id="xtick_38">
     <g id="line2d_48">
      <g>
       <use style="fill:#555555;stroke:#555555;stroke-width:0.8;" x="500.001661" xlink:href="#mf32f477716" y="512.64"/>
      </g>
     </g>
     <g id="text_17">
      <!-- Oct -->
      <g style="fill:#555555;" transform="translate(483.987697 534.865752)rotate(-30)scale(0.1 -0.1)">
       <use xlink:href="#DejaVuSans-4f"/>
       <use x="78.710938" xlink:href="#DejaVuSans-63"/>
       <use x="133.691406" xlink:href="#DejaVuSans-74"/>
      </g>
     </g>
    </g>
    <g id="xtick_39">
     <g id="line2d_49">
      <g>
       <use style="fill:#555555;stroke:#555555;stroke-width:0.8;" x="569.417388" xlink:href="#mf32f477716" y="512.64"/>
      </g>
     </g>
     <g id="text_18">
      <!-- Jan -->
      <g style="fill:#555555;" transform="translate(549.428316 533.928252)rotate(-30)scale(0.1 -0.1)">
       <use xlink:href="#DejaVuSans-4a"/>
       <use x="29.492188" xlink:href="#DejaVuSans-61"/>
       <use x="90.771484" xlink:href="#DejaVuSans-6e"/>
      </g>
      <!-- 2022 -->
      <g style="fill:#555555;" transform="translate(546.337198 548.64303)rotate(-30)scale(0.1 -0.1)">
       <use xlink:href="#DejaVuSans-32"/>
       <use x="63.623047" xlink:href="#DejaVuSans-30"/>
       <use x="127.246094" xlink:href="#DejaVuSans-32"/>
       <use x="190.869141" xlink:href="#DejaVuSans-32"/>
      </g>
     </g>
    </g>
    <g id="xtick_40">
     <g id="line2d_50">
      <g>
       <use style="fill:#555555;stroke:#555555;stroke-width:0.8;" x="637.324079" xlink:href="#mf32f477716" y="512.64"/>
      </g>
     </g>
     <g id="text_19">
      <!-- Apr -->
      <g style="fill:#555555;" transform="translate(621.301995 534.87044)rotate(-30)scale(0.1 -0.1)">
       <use xlink:href="#DejaVuSans-41"/>
       <use x="68.408203" xlink:href="#DejaVuSans-70"/>
       <use x="131.884766" xlink:href="#DejaVuSans-72"/>
      </g>
     </g>
    </g>
    <g id="xtick_41">
     <g id="line2d_51">
      <g>
       <use style="fill:#555555;stroke:#555555;stroke-width:0.8;" x="704.47625" xlink:href="#mf32f477716" y="512.64"/>
      </g>
     </g>
    </g>
    <g id="xtick_42">
     <g id="line2d_52">
      <g>
       <use style="fill:#555555;stroke:#555555;stroke-width:0.6;" x="63.135288" xlink:href="#mb051fd6f5d" y="512.64"/>
      </g>
     </g>
    </g>
    <g id="xtick_43">
     <g id="line2d_53">
      <g>
       <use style="fill:#555555;stroke:#555555;stroke-width:0.6;" x="109.160933" xlink:href="#mb051fd6f5d" y="512.64"/>
      </g>
     </g>
    </g>
    <g id="xtick_44">
     <g id="line2d_54">
      <g>
       <use style="fill:#555555;stroke:#555555;stroke-width:0.6;" x="132.551015" xlink:href="#mb051fd6f5d" y="512.64"/>
      </g>
     </g>
    </g>
    <g id="xtick_45">
     <g id="line2d_55">
      <g>
       <use style="fill:#555555;stroke:#555555;stroke-width:0.6;" x="178.576661" xlink:href="#mb051fd6f5d" y="512.64"/>
      </g>
     </g>
    </g>
    <g id="xtick_46">
     <g id="line2d_56">
      <g>
       <use style="fill:#555555;stroke:#555555;stroke-width:0.6;" x="201.966743" xlink:href="#mb051fd6f5d" y="512.64"/>
      </g>
     </g>
    </g>
    <g id="xtick_47">
     <g id="line2d_57">
      <g>
       <use style="fill:#555555;stroke:#555555;stroke-width:0.6;" x="247.992388" xlink:href="#mb051fd6f5d" y="512.64"/>
      </g>
     </g>
    </g>
    <g id="xtick_48">
     <g id="line2d_58">
      <g>
       <use style="fill:#555555;stroke:#555555;stroke-width:0.6;" x="270.627952" xlink:href="#mb051fd6f5d" y="512.64"/>
      </g>
     </g>
    </g>
    <g id="xtick_49">
     <g id="line2d_59">
      <g>
       <use style="fill:#555555;stroke:#555555;stroke-width:0.6;" x="317.408116" xlink:href="#mb051fd6f5d" y="512.64"/>
      </g>
     </g>
    </g>
    <g id="xtick_50">
     <g id="line2d_60">
      <g>
       <use style="fill:#555555;stroke:#555555;stroke-width:0.6;" x="338.534642" xlink:href="#mb051fd6f5d" y="512.64"/>
      </g>
     </g>
    </g>
    <g id="xtick_51">
     <g id="line2d_61">
      <g>
       <use style="fill:#555555;stroke:#555555;stroke-width:0.6;" x="384.560288" xlink:href="#mb051fd6f5d" y="512.64"/>
      </g>
     </g>
    </g>
    <g id="xtick_52">
     <g id="line2d_62">
      <g>
       <use style="fill:#555555;stroke:#555555;stroke-width:0.6;" x="407.95037" xlink:href="#mb051fd6f5d" y="512.64"/>
      </g>
     </g>
    </g>
    <g id="xtick_53">
     <g id="line2d_63">
      <g>
       <use style="fill:#555555;stroke:#555555;stroke-width:0.6;" x="453.976015" xlink:href="#mb051fd6f5d" y="512.64"/>
      </g>
     </g>
    </g>
    <g id="xtick_54">
     <g id="line2d_64">
      <g>
       <use style="fill:#555555;stroke:#555555;stroke-width:0.6;" x="477.366097" xlink:href="#mb051fd6f5d" y="512.64"/>
      </g>
     </g>
    </g>
    <g id="xtick_55">
     <g id="line2d_65">
      <g>
       <use style="fill:#555555;stroke:#555555;stroke-width:0.6;" x="523.391743" xlink:href="#mb051fd6f5d" y="512.64"/>
      </g>
     </g>
    </g>
    <g id="xtick_56">
     <g id="line2d_66">
      <g>
       <use style="fill:#555555;stroke:#555555;stroke-width:0.6;" x="546.027306" xlink:href="#mb051fd6f5d" y="512.64"/>
      </g>
     </g>
    </g>
    <g id="xtick_57">
     <g id="line2d_67">
      <g>
       <use style="fill:#555555;stroke:#555555;stroke-width:0.6;" x="592.807471" xlink:href="#mb051fd6f5d" y="512.64"/>
      </g>
     </g>
    </g>
    <g id="xtick_58">
     <g id="line2d_68">
      <g>
       <use style="fill:#555555;stroke:#555555;stroke-width:0.6;" x="613.933996" xlink:href="#mb051fd6f5d" y="512.64"/>
      </g>
     </g>
    </g>
    <g id="xtick_59">
     <g id="line2d_69">
      <g>
       <use style="fill:#555555;stroke:#555555;stroke-width:0.6;" x="659.959642" xlink:href="#mb051fd6f5d" y="512.64"/>
      </g>
     </g>
    </g>
    <g id="xtick_60">
     <g id="line2d_70">
      <g>
       <use style="fill:#555555;stroke:#555555;stroke-width:0.6;" x="683.349724" xlink:href="#mb051fd6f5d" y="512.64"/>
      </g>
     </g>
    </g>
    <g id="text_20">
     <!-- Date -->
     <g style="fill:#555555;" transform="translate(368.710312 563.562217)scale(0.12 -0.12)">
      <defs>
       <path d="M 1259 4147 
L 1259 519 
L 2022 519 
Q 2988 519 3436 956 
Q 3884 1394 3884 2338 
Q 3884 3275 3436 3711 
Q 2988 4147 2022 4147 
L 1259 4147 
z
M 628 4666 
L 1925 4666 
Q 3281 4666 3915 4102 
Q 4550 3538 4550 2338 
Q 4550 1131 3912 565 
Q 3275 0 1925 0 
L 628 0 
L 628 4666 
z
" id="DejaVuSans-44" transform="scale(0.015625)"/>
      </defs>
      <use xlink:href="#DejaVuSans-44"/>
      <use x="77.001953" xlink:href="#DejaVuSans-61"/>
      <use x="138.28125" xlink:href="#DejaVuSans-74"/>
      <use x="177.490234" xlink:href="#DejaVuSans-65"/>
     </g>
    </g>
   </g>
   <g id="matplotlib.axis_4">
    <g id="ytick_9">
     <g id="line2d_71">
      <g>
       <use style="fill:#555555;stroke:#555555;stroke-width:0.8;" x="61.62625" xlink:href="#m0f14b9766b" y="503.596345"/>
      </g>
     </g>
     <g id="text_21">
      <!-- 0 -->
      <g style="fill:#555555;" transform="translate(48.26375 507.395564)scale(0.1 -0.1)">
       <use xlink:href="#DejaVuSans-30"/>
      </g>
     </g>
    </g>
    <g id="ytick_10">
     <g id="line2d_72">
      <g>
       <use style="fill:#555555;stroke:#555555;stroke-width:0.8;" x="61.62625" xlink:href="#m0f14b9766b" y="468.611992"/>
      </g>
     </g>
     <g id="text_22">
      <!-- 5000 -->
      <g style="fill:#555555;" transform="translate(29.17625 472.411211)scale(0.1 -0.1)">
       <use xlink:href="#DejaVuSans-35"/>
       <use x="63.623047" xlink:href="#DejaVuSans-30"/>
       <use x="127.246094" xlink:href="#DejaVuSans-30"/>
       <use x="190.869141" xlink:href="#DejaVuSans-30"/>
      </g>
     </g>
    </g>
    <g id="ytick_11">
     <g id="line2d_73">
      <g>
       <use style="fill:#555555;stroke:#555555;stroke-width:0.8;" x="61.62625" xlink:href="#m0f14b9766b" y="433.627639"/>
      </g>
     </g>
     <g id="text_23">
      <!-- 10000 -->
      <g style="fill:#555555;" transform="translate(22.81375 437.426858)scale(0.1 -0.1)">
       <use xlink:href="#DejaVuSans-31"/>
       <use x="63.623047" xlink:href="#DejaVuSans-30"/>
       <use x="127.246094" xlink:href="#DejaVuSans-30"/>
       <use x="190.869141" xlink:href="#DejaVuSans-30"/>
       <use x="254.492188" xlink:href="#DejaVuSans-30"/>
      </g>
     </g>
    </g>
    <g id="ytick_12">
     <g id="line2d_74">
      <g>
       <use style="fill:#555555;stroke:#555555;stroke-width:0.8;" x="61.62625" xlink:href="#m0f14b9766b" y="398.643287"/>
      </g>
     </g>
     <g id="text_24">
      <!-- 15000 -->
      <g style="fill:#555555;" transform="translate(22.81375 402.442505)scale(0.1 -0.1)">
       <use xlink:href="#DejaVuSans-31"/>
       <use x="63.623047" xlink:href="#DejaVuSans-35"/>
       <use x="127.246094" xlink:href="#DejaVuSans-30"/>
       <use x="190.869141" xlink:href="#DejaVuSans-30"/>
       <use x="254.492188" xlink:href="#DejaVuSans-30"/>
      </g>
     </g>
    </g>
    <g id="ytick_13">
     <g id="line2d_75">
      <g>
       <use style="fill:#555555;stroke:#555555;stroke-width:0.8;" x="61.62625" xlink:href="#m0f14b9766b" y="363.658934"/>
      </g>
     </g>
     <g id="text_25">
      <!-- 20000 -->
      <g style="fill:#555555;" transform="translate(22.81375 367.458153)scale(0.1 -0.1)">
       <use xlink:href="#DejaVuSans-32"/>
       <use x="63.623047" xlink:href="#DejaVuSans-30"/>
       <use x="127.246094" xlink:href="#DejaVuSans-30"/>
       <use x="190.869141" xlink:href="#DejaVuSans-30"/>
       <use x="254.492188" xlink:href="#DejaVuSans-30"/>
      </g>
     </g>
    </g>
    <g id="ytick_14">
     <g id="line2d_76">
      <g>
       <use style="fill:#555555;stroke:#555555;stroke-width:0.8;" x="61.62625" xlink:href="#m0f14b9766b" y="328.674581"/>
      </g>
     </g>
     <g id="text_26">
      <!-- 25000 -->
      <g style="fill:#555555;" transform="translate(22.81375 332.4738)scale(0.1 -0.1)">
       <use xlink:href="#DejaVuSans-32"/>
       <use x="63.623047" xlink:href="#DejaVuSans-35"/>
       <use x="127.246094" xlink:href="#DejaVuSans-30"/>
       <use x="190.869141" xlink:href="#DejaVuSans-30"/>
       <use x="254.492188" xlink:href="#DejaVuSans-30"/>
      </g>
     </g>
    </g>
    <g id="text_27">
     <!-- Daily -->
     <g style="fill:#555555;" transform="translate(16.318125 428.341669)rotate(-90)scale(0.12 -0.12)">
      <defs>
       <path d="M 603 3500 
L 1178 3500 
L 1178 0 
L 603 0 
L 603 3500 
z
M 603 4863 
L 1178 4863 
L 1178 4134 
L 603 4134 
L 603 4863 
z
" id="DejaVuSans-69" transform="scale(0.015625)"/>
       <path d="M 2059 -325 
Q 1816 -950 1584 -1140 
Q 1353 -1331 966 -1331 
L 506 -1331 
L 506 -850 
L 844 -850 
Q 1081 -850 1212 -737 
Q 1344 -625 1503 -206 
L 1606 56 
L 191 3500 
L 800 3500 
L 1894 763 
L 2988 3500 
L 3597 3500 
L 2059 -325 
z
" id="DejaVuSans-79" transform="scale(0.015625)"/>
      </defs>
      <use xlink:href="#DejaVuSans-44"/>
      <use x="77.001953" xlink:href="#DejaVuSans-61"/>
      <use x="138.28125" xlink:href="#DejaVuSans-69"/>
      <use x="166.064453" xlink:href="#DejaVuSans-6c"/>
      <use x="193.847656" xlink:href="#DejaVuSans-79"/>
     </g>
    </g>
   </g>
   <g id="line2d_77">
    <path clip-path="url(#pcb09bee4f5)" d="M 61.62625 503.225511 
L 62.380769 503.372445 
L 63.889806 503.325216 
L 65.398844 503.290815 
L 66.907881 503.010607 
L 70.680475 502.291928 
L 71.434994 501.628225 
L 72.944032 500.597686 
L 75.962107 496.968309 
L 78.225663 490.735097 
L 78.980182 489.830502 
L 79.734701 486.943793 
L 81.243738 480.250787 
L 81.998257 478.098749 
L 82.752776 475.278011 
L 83.507295 471.690615 
L 84.261813 469.674517 
L 85.016332 468.985825 
L 85.770851 469.134758 
L 87.279888 466.598893 
L 88.034407 466.205069 
L 88.788926 466.416974 
L 89.543445 464.446855 
L 90.297964 465.520375 
L 91.052482 466.301026 
L 91.807001 467.750378 
L 92.56152 468.931849 
L 93.316039 469.782469 
L 94.070558 471.730597 
L 94.825076 474.844205 
L 95.579595 475.983695 
L 97.843151 481.358291 
L 98.59767 483.300423 
L 99.352189 483.824188 
L 100.106708 484.187026 
L 100.861227 484.948685 
L 102.370264 485.494441 
L 103.124783 486.008212 
L 103.879302 487.050745 
L 104.63382 488.604051 
L 106.897377 490.722103 
L 108.406414 492.528295 
L 109.160933 493.225983 
L 110.669971 495.279065 
L 112.179008 496.076708 
L 112.933527 496.433549 
L 113.688046 496.627462 
L 114.442565 497.05727 
L 115.197083 496.751407 
L 115.951602 496.87735 
L 116.706121 497.199206 
L 117.46064 496.951317 
L 118.215158 497.10025 
L 119.724196 497.746961 
L 120.478715 498.377679 
L 121.987752 498.476635 
L 122.742271 498.896447 
L 123.49679 498.897447 
L 124.251309 499.085363 
L 125.005827 499.53816 
L 125.760346 499.520168 
L 127.269384 499.725076 
L 128.023903 499.80604 
L 129.53294 500.632671 
L 130.287459 500.351796 
L 131.041978 500.251841 
L 131.796496 500.396776 
L 132.551015 500.352796 
L 133.305534 500.571698 
L 134.814572 500.550707 
L 136.323609 501.115455 
L 137.078128 501.100461 
L 137.832647 501.219408 
L 138.587165 501.082469 
L 139.341684 501.106459 
L 140.096203 500.945531 
L 140.850722 501.194419 
L 143.114278 501.329359 
L 145.377835 501.249395 
L 146.132353 500.737624 
L 146.886872 500.484737 
L 148.39591 499.700088 
L 149.150428 499.575144 
L 149.904947 499.333252 
L 150.659466 499.283274 
L 151.413985 499.576143 
L 152.168504 499.490182 
L 152.923022 499.920989 
L 153.677541 500.195866 
L 154.43206 500.200864 
L 158.204654 500.761613 
L 161.222729 501.042487 
L 164.240804 501.188422 
L 166.50436 501.120452 
L 168.013398 500.781604 
L 168.767917 500.827583 
L 171.785992 500.489734 
L 174.049548 499.902997 
L 175.558586 499.701087 
L 177.822142 499.083364 
L 178.576661 498.909441 
L 179.33118 498.974412 
L 183.858292 497.915886 
L 184.612811 497.601026 
L 185.36733 497.673994 
L 186.121849 497.587033 
L 187.630886 496.702428 
L 189.139924 496.107694 
L 190.648961 495.912782 
L 191.40348 495.488971 
L 192.912518 494.943215 
L 193.667036 494.965205 
L 194.421555 494.346482 
L 195.930593 494.039619 
L 196.685112 494.151569 
L 197.43963 494.085599 
L 198.194149 494.285509 
L 198.948668 494.141574 
L 199.703187 494.696326 
L 201.212224 494.794282 
L 201.966743 494.854255 
L 202.721262 495.174112 
L 204.230299 495.487972 
L 204.984818 495.588926 
L 207.248374 494.901234 
L 208.002893 494.981198 
L 208.757412 494.400458 
L 209.511931 494.369472 
L 210.26645 494.117585 
L 211.020968 494.157567 
L 211.775487 494.044617 
L 212.530006 494.136576 
L 213.284525 493.4119 
L 214.039043 493.110035 
L 214.793562 492.678228 
L 215.548081 492.011526 
L 216.3026 491.614704 
L 217.057119 491.619702 
L 217.811637 491.205887 
L 219.320675 491.388805 
L 220.829712 490.942005 
L 221.584231 490.877034 
L 223.093269 490.339274 
L 223.847788 490.310287 
L 224.602306 489.950448 
L 225.356825 489.430681 
L 226.111344 489.374706 
L 226.865863 488.506094 
L 227.620381 488.316179 
L 228.3749 487.766425 
L 229.129419 486.736886 
L 229.883938 485.182581 
L 230.638457 483.340405 
L 231.392975 481.18337 
L 233.656532 477.413056 
L 235.165569 472.531239 
L 237.429126 464.50383 
L 238.183644 462.64666 
L 239.692682 457.439989 
L 240.447201 452.793067 
L 241.201719 448.886815 
L 241.956238 442.005892 
L 242.710757 436.419391 
L 244.219795 427.52237 
L 244.974313 420.156664 
L 245.728832 414.672118 
L 246.483351 407.236443 
L 247.23787 402.893386 
L 248.746907 396.483253 
L 249.501426 392.542016 
L 250.255945 390.293021 
L 251.764982 384.254722 
L 252.519501 379.916662 
L 253.27402 378.077485 
L 254.028539 376.812051 
L 254.783058 376.832042 
L 255.537576 375.559611 
L 257.046614 371.64936 
L 257.801133 372.586941 
L 258.555651 371.657356 
L 259.31017 374.195221 
L 260.819208 376.033399 
L 261.573727 375.290731 
L 262.328245 375.184779 
L 263.082764 374.682004 
L 263.837283 375.887464 
L 264.591802 375.847482 
L 265.34632 376.712096 
L 266.100839 375.640575 
L 266.855358 375.981422 
L 267.609877 376.823046 
L 269.118914 379.220974 
L 269.873433 378.91611 
L 270.627952 378.866132 
L 271.382471 380.228523 
L 272.136989 380.450424 
L 272.891508 379.807711 
L 273.646027 378.185437 
L 274.400546 375.030848 
L 275.155065 373.868368 
L 275.909583 373.418569 
L 276.664102 369.875154 
L 277.418621 368.242884 
L 278.17314 361.819756 
L 278.927658 356.702045 
L 279.682177 354.270133 
L 280.436696 350.241935 
L 281.191215 349.864104 
L 281.945734 342.954194 
L 282.700252 339.711645 
L 283.454771 335.811389 
L 284.963809 330.380818 
L 285.718327 330.099944 
L 286.472846 325.006222 
L 287.227365 327.992886 
L 287.981884 322.723243 
L 288.736403 330.963557 
L 289.490921 347.801026 
L 290.24544 356.812996 
L 290.999959 362.477462 
L 291.754478 369.110496 
L 292.508996 371.390476 
L 293.263515 371.033635 
L 294.018034 373.641469 
L 294.772553 375.40568 
L 295.527072 378.844142 
L 297.790628 382.188646 
L 298.545147 388.346892 
L 299.299665 379.425882 
L 300.054184 367.427248 
L 300.808703 360.779222 
L 301.563222 358.150398 
L 302.317741 357.245802 
L 303.072259 358.88207 
L 303.826778 360.108522 
L 304.581297 369.585283 
L 305.335816 375.598594 
L 306.090335 378.681215 
L 306.844853 384.014829 
L 307.599372 385.447189 
L 308.353891 389.071568 
L 309.862928 398.339423 
L 310.617447 400.599412 
L 311.371966 402.223685 
L 312.126485 402.635501 
L 312.881004 407.590285 
L 314.390041 413.208772 
L 315.899079 421.141224 
L 317.408116 423.326247 
L 318.162635 423.624114 
L 319.671673 430.456058 
L 320.426191 431.56956 
L 321.18071 433.404739 
L 321.935229 435.979587 
L 322.689748 437.052108 
L 323.444266 439.785885 
L 324.198785 441.418155 
L 324.953304 445.390378 
L 325.707823 448.437016 
L 326.462342 450.567063 
L 327.21686 453.067944 
L 327.971379 453.176896 
L 328.725898 452.700109 
L 329.480417 453.215878 
L 330.234935 453.245865 
L 330.989454 453.992531 
L 331.743973 453.182893 
L 332.498492 451.621591 
L 334.007529 451.651578 
L 334.762048 451.20078 
L 335.516567 449.539523 
L 336.271086 448.655918 
L 337.025604 448.058185 
L 337.780123 447.844281 
L 338.534642 447.481443 
L 339.289161 447.42147 
L 340.04368 446.409922 
L 340.798198 446.366942 
L 341.552717 445.784202 
L 342.307236 445.989111 
L 343.816273 445.497331 
L 344.570792 445.188469 
L 345.325311 445.061525 
L 346.834349 440.365626 
L 348.343386 434.564221 
L 349.097905 432.971933 
L 349.852424 431.744482 
L 350.606942 427.457399 
L 351.361461 424.310806 
L 352.11598 419.664884 
L 353.625018 413.365702 
L 354.379536 412.261196 
L 355.134055 410.257092 
L 355.888574 407.880155 
L 356.643093 402.729459 
L 358.906649 390.761812 
L 360.415687 386.536701 
L 361.170205 385.299255 
L 361.924724 383.656989 
L 362.679243 383.34213 
L 363.433762 385.684083 
L 364.188281 390.661856 
L 364.942799 392.036242 
L 365.697318 394.699051 
L 366.451837 402.069754 
L 367.206356 405.961014 
L 367.960874 402.386612 
L 369.469912 390.76481 
L 370.224431 386.018933 
L 370.97895 382.095688 
L 371.733468 370.08506 
L 372.487987 361.070092 
L 373.242506 360.703256 
L 373.997025 360.996125 
L 374.751543 359.666719 
L 375.506062 361.473911 
L 376.260581 362.674374 
L 377.0151 359.484801 
L 377.769619 359.392842 
L 378.524137 357.681607 
L 380.033175 358.505239 
L 380.787694 358.035449 
L 381.542212 356.66906 
L 382.296731 359.320874 
L 383.05125 364.100736 
L 383.805769 367.313299 
L 384.560288 371.768307 
L 386.069325 376.995969 
L 386.823844 380.43643 
L 387.578363 384.631554 
L 388.332881 387.413309 
L 389.0874 393.254697 
L 390.596438 400.135619 
L 391.350957 402.372619 
L 392.105475 403.780989 
L 392.859994 406.904592 
L 393.614513 411.436565 
L 395.12355 426.369886 
L 395.878069 430.524028 
L 396.632588 432.033352 
L 397.387107 433.948496 
L 398.141626 437.815766 
L 398.896144 442.934477 
L 399.650663 445.500329 
L 400.405182 446.311966 
L 401.159701 448.097168 
L 401.914219 450.825947 
L 402.668738 453.12292 
L 403.423257 461.533158 
L 404.177776 467.515483 
L 404.932295 468.903862 
L 405.686813 470.559121 
L 406.441332 473.419842 
L 407.195851 474.123527 
L 407.95037 474.249471 
L 408.704888 471.959495 
L 409.459407 473.631747 
L 410.213926 477.844863 
L 410.968445 480.975462 
L 411.722964 482.386831 
L 412.477482 483.247446 
L 413.232001 483.828187 
L 414.741039 486.942794 
L 415.495558 487.667469 
L 416.250076 488.050298 
L 417.004595 489.000873 
L 418.513633 490.120372 
L 420.02267 493.774738 
L 420.777189 495.138128 
L 422.286227 496.58748 
L 423.795264 496.987301 
L 425.304302 497.747961 
L 426.05882 498.049826 
L 426.813339 498.565595 
L 427.567858 498.869459 
L 429.831414 499.255287 
L 429.831414 499.255287 
" style="fill:none;stroke:#e24a33;stroke-linecap:square;stroke-width:1.5;"/>
   </g>
   <g id="line2d_78">
    <path clip-path="url(#pcb09bee4f5)" d="M 430.585933 499.254564 
L 434.358527 500.176061 
L 438.88564 501.028621 
L 444.167271 501.759432 
L 450.203421 502.344169 
L 457.748609 502.821079 
L 466.802835 503.160408 
L 479.629654 503.403572 
L 500.75618 503.54609 
L 551.308938 503.594332 
L 704.47625 503.596345 
L 704.47625 503.596345 
" style="fill:none;stroke:#348abd;stroke-linecap:square;stroke-width:1.5;"/>
   </g>
   <g id="patch_8">
    <path d="M 61.62625 512.64 
L 61.62625 313.679588 
" style="fill:none;stroke:#ffffff;stroke-linecap:square;stroke-linejoin:miter;"/>
   </g>
   <g id="patch_9">
    <path d="M 704.47625 512.64 
L 704.47625 313.679588 
" style="fill:none;stroke:#ffffff;stroke-linecap:square;stroke-linejoin:miter;"/>
   </g>
   <g id="patch_10">
    <path d="M 61.62625 512.64 
L 704.47625 512.64 
" style="fill:none;stroke:#ffffff;stroke-linecap:square;stroke-linejoin:miter;"/>
   </g>
   <g id="patch_11">
    <path d="M 61.62625 313.679588 
L 704.47625 313.679588 
" style="fill:none;stroke:#ffffff;stroke-linecap:square;stroke-linejoin:miter;"/>
   </g>
   <g id="legend_1">
    <g id="patch_12">
     <path d="M 494.5825 351.035838 
L 697.47625 351.035838 
Q 699.47625 351.035838 699.47625 349.035838 
L 699.47625 320.679588 
Q 699.47625 318.679588 697.47625 318.679588 
L 494.5825 318.679588 
Q 492.5825 318.679588 492.5825 320.679588 
L 492.5825 349.035838 
Q 492.5825 351.035838 494.5825 351.035838 
z
" style="fill:#e5e5e5;opacity:0.8;stroke:#cccccc;stroke-linejoin:miter;stroke-width:0.5;"/>
    </g>
    <g id="line2d_79">
     <path d="M 496.5825 326.778025 
L 516.5825 326.778025 
" style="fill:none;stroke:#e24a33;stroke-linecap:square;stroke-width:1.5;"/>
    </g>
    <g id="line2d_80"/>
    <g id="text_28">
     <!-- Cases -->
     <g transform="translate(524.5825 330.278025)scale(0.1 -0.1)">
      <defs>
       <path d="M 4122 4306 
L 4122 3641 
Q 3803 3938 3442 4084 
Q 3081 4231 2675 4231 
Q 1875 4231 1450 3742 
Q 1025 3253 1025 2328 
Q 1025 1406 1450 917 
Q 1875 428 2675 428 
Q 3081 428 3442 575 
Q 3803 722 4122 1019 
L 4122 359 
Q 3791 134 3420 21 
Q 3050 -91 2638 -91 
Q 1578 -91 968 557 
Q 359 1206 359 2328 
Q 359 3453 968 4101 
Q 1578 4750 2638 4750 
Q 3056 4750 3426 4639 
Q 3797 4528 4122 4306 
z
" id="DejaVuSans-43" transform="scale(0.015625)"/>
       <path d="M 2834 3397 
L 2834 2853 
Q 2591 2978 2328 3040 
Q 2066 3103 1784 3103 
Q 1356 3103 1142 2972 
Q 928 2841 928 2578 
Q 928 2378 1081 2264 
Q 1234 2150 1697 2047 
L 1894 2003 
Q 2506 1872 2764 1633 
Q 3022 1394 3022 966 
Q 3022 478 2636 193 
Q 2250 -91 1575 -91 
Q 1294 -91 989 -36 
Q 684 19 347 128 
L 347 722 
Q 666 556 975 473 
Q 1284 391 1588 391 
Q 1994 391 2212 530 
Q 2431 669 2431 922 
Q 2431 1156 2273 1281 
Q 2116 1406 1581 1522 
L 1381 1569 
Q 847 1681 609 1914 
Q 372 2147 372 2553 
Q 372 3047 722 3315 
Q 1072 3584 1716 3584 
Q 2034 3584 2315 3537 
Q 2597 3491 2834 3397 
z
" id="DejaVuSans-73" transform="scale(0.015625)"/>
      </defs>
      <use xlink:href="#DejaVuSans-43"/>
      <use x="69.824219" xlink:href="#DejaVuSans-61"/>
      <use x="131.103516" xlink:href="#DejaVuSans-73"/>
      <use x="183.203125" xlink:href="#DejaVuSans-65"/>
      <use x="244.726562" xlink:href="#DejaVuSans-73"/>
     </g>
    </g>
    <g id="line2d_81">
     <path d="M 496.5825 341.45615 
L 516.5825 341.45615 
" style="fill:none;stroke:#348abd;stroke-linecap:square;stroke-width:1.5;"/>
    </g>
    <g id="line2d_82"/>
    <g id="text_29">
     <!-- Projected Cases (last 1D avg rate) -->
     <g transform="translate(524.5825 344.95615)scale(0.1 -0.1)">
      <defs>
       <path d="M 1259 4147 
L 1259 2394 
L 2053 2394 
Q 2494 2394 2734 2622 
Q 2975 2850 2975 3272 
Q 2975 3691 2734 3919 
Q 2494 4147 2053 4147 
L 1259 4147 
z
M 628 4666 
L 2053 4666 
Q 2838 4666 3239 4311 
Q 3641 3956 3641 3272 
Q 3641 2581 3239 2228 
Q 2838 1875 2053 1875 
L 1259 1875 
L 1259 0 
L 628 0 
L 628 4666 
z
" id="DejaVuSans-50" transform="scale(0.015625)"/>
       <path d="M 603 3500 
L 1178 3500 
L 1178 -63 
Q 1178 -731 923 -1031 
Q 669 -1331 103 -1331 
L -116 -1331 
L -116 -844 
L 38 -844 
Q 366 -844 484 -692 
Q 603 -541 603 -63 
L 603 3500 
z
M 603 4863 
L 1178 4863 
L 1178 4134 
L 603 4134 
L 603 4863 
z
" id="DejaVuSans-6a" transform="scale(0.015625)"/>
       <path d="M 2906 2969 
L 2906 4863 
L 3481 4863 
L 3481 0 
L 2906 0 
L 2906 525 
Q 2725 213 2448 61 
Q 2172 -91 1784 -91 
Q 1150 -91 751 415 
Q 353 922 353 1747 
Q 353 2572 751 3078 
Q 1150 3584 1784 3584 
Q 2172 3584 2448 3432 
Q 2725 3281 2906 2969 
z
M 947 1747 
Q 947 1113 1208 752 
Q 1469 391 1925 391 
Q 2381 391 2643 752 
Q 2906 1113 2906 1747 
Q 2906 2381 2643 2742 
Q 2381 3103 1925 3103 
Q 1469 3103 1208 2742 
Q 947 2381 947 1747 
z
" id="DejaVuSans-64" transform="scale(0.015625)"/>
       <path id="DejaVuSans-20" transform="scale(0.015625)"/>
       <path d="M 1984 4856 
Q 1566 4138 1362 3434 
Q 1159 2731 1159 2009 
Q 1159 1288 1364 580 
Q 1569 -128 1984 -844 
L 1484 -844 
Q 1016 -109 783 600 
Q 550 1309 550 2009 
Q 550 2706 781 3412 
Q 1013 4119 1484 4856 
L 1984 4856 
z
" id="DejaVuSans-28" transform="scale(0.015625)"/>
       <path d="M 191 3500 
L 800 3500 
L 1894 563 
L 2988 3500 
L 3597 3500 
L 2284 0 
L 1503 0 
L 191 3500 
z
" id="DejaVuSans-76" transform="scale(0.015625)"/>
       <path d="M 2906 1791 
Q 2906 2416 2648 2759 
Q 2391 3103 1925 3103 
Q 1463 3103 1205 2759 
Q 947 2416 947 1791 
Q 947 1169 1205 825 
Q 1463 481 1925 481 
Q 2391 481 2648 825 
Q 2906 1169 2906 1791 
z
M 3481 434 
Q 3481 -459 3084 -895 
Q 2688 -1331 1869 -1331 
Q 1566 -1331 1297 -1286 
Q 1028 -1241 775 -1147 
L 775 -588 
Q 1028 -725 1275 -790 
Q 1522 -856 1778 -856 
Q 2344 -856 2625 -561 
Q 2906 -266 2906 331 
L 2906 616 
Q 2728 306 2450 153 
Q 2172 0 1784 0 
Q 1141 0 747 490 
Q 353 981 353 1791 
Q 353 2603 747 3093 
Q 1141 3584 1784 3584 
Q 2172 3584 2450 3431 
Q 2728 3278 2906 2969 
L 2906 3500 
L 3481 3500 
L 3481 434 
z
" id="DejaVuSans-67" transform="scale(0.015625)"/>
       <path d="M 513 4856 
L 1013 4856 
Q 1481 4119 1714 3412 
Q 1947 2706 1947 2009 
Q 1947 1309 1714 600 
Q 1481 -109 1013 -844 
L 513 -844 
Q 928 -128 1133 580 
Q 1338 1288 1338 2009 
Q 1338 2731 1133 3434 
Q 928 4138 513 4856 
z
" id="DejaVuSans-29" transform="scale(0.015625)"/>
      </defs>
      <use xlink:href="#DejaVuSans-50"/>
      <use x="58.552734" xlink:href="#DejaVuSans-72"/>
      <use x="97.416016" xlink:href="#DejaVuSans-6f"/>
      <use x="158.597656" xlink:href="#DejaVuSans-6a"/>
      <use x="186.380859" xlink:href="#DejaVuSans-65"/>
      <use x="247.904297" xlink:href="#DejaVuSans-63"/>
      <use x="302.884766" xlink:href="#DejaVuSans-74"/>
      <use x="342.09375" xlink:href="#DejaVuSans-65"/>
      <use x="403.617188" xlink:href="#DejaVuSans-64"/>
      <use x="467.09375" xlink:href="#DejaVuSans-20"/>
      <use x="498.880859" xlink:href="#DejaVuSans-43"/>
      <use x="568.705078" xlink:href="#DejaVuSans-61"/>
      <use x="629.984375" xlink:href="#DejaVuSans-73"/>
      <use x="682.083984" xlink:href="#DejaVuSans-65"/>
      <use x="743.607422" xlink:href="#DejaVuSans-73"/>
      <use x="795.707031" xlink:href="#DejaVuSans-20"/>
      <use x="827.494141" xlink:href="#DejaVuSans-28"/>
      <use x="866.507812" xlink:href="#DejaVuSans-6c"/>
      <use x="894.291016" xlink:href="#DejaVuSans-61"/>
      <use x="955.570312" xlink:href="#DejaVuSans-73"/>
      <use x="1007.669922" xlink:href="#DejaVuSans-74"/>
      <use x="1046.878906" xlink:href="#DejaVuSans-20"/>
      <use x="1078.666016" xlink:href="#DejaVuSans-31"/>
      <use x="1142.289062" xlink:href="#DejaVuSans-44"/>
      <use x="1219.291016" xlink:href="#DejaVuSans-20"/>
      <use x="1251.078125" xlink:href="#DejaVuSans-61"/>
      <use x="1312.357422" xlink:href="#DejaVuSans-76"/>
      <use x="1371.537109" xlink:href="#DejaVuSans-67"/>
      <use x="1435.013672" xlink:href="#DejaVuSans-20"/>
      <use x="1466.800781" xlink:href="#DejaVuSans-72"/>
      <use x="1507.914062" xlink:href="#DejaVuSans-61"/>
      <use x="1569.193359" xlink:href="#DejaVuSans-74"/>
      <use x="1608.402344" xlink:href="#DejaVuSans-65"/>
      <use x="1669.925781" xlink:href="#DejaVuSans-29"/>
     </g>
    </g>
   </g>
  </g>
  <g id="text_30">
   <!-- COVID-19 spread projection using Logistic map -->
   <g transform="translate(213.8675 16.318125)scale(0.12 -0.12)">
    <defs>
     <path d="M 1831 0 
L 50 4666 
L 709 4666 
L 2188 738 
L 3669 4666 
L 4325 4666 
L 2547 0 
L 1831 0 
z
" id="DejaVuSans-56" transform="scale(0.015625)"/>
     <path d="M 628 4666 
L 1259 4666 
L 1259 0 
L 628 0 
L 628 4666 
z
" id="DejaVuSans-49" transform="scale(0.015625)"/>
     <path d="M 313 2009 
L 1997 2009 
L 1997 1497 
L 313 1497 
L 313 2009 
z
" id="DejaVuSans-2d" transform="scale(0.015625)"/>
     <path d="M 703 97 
L 703 672 
Q 941 559 1184 500 
Q 1428 441 1663 441 
Q 2288 441 2617 861 
Q 2947 1281 2994 2138 
Q 2813 1869 2534 1725 
Q 2256 1581 1919 1581 
Q 1219 1581 811 2004 
Q 403 2428 403 3163 
Q 403 3881 828 4315 
Q 1253 4750 1959 4750 
Q 2769 4750 3195 4129 
Q 3622 3509 3622 2328 
Q 3622 1225 3098 567 
Q 2575 -91 1691 -91 
Q 1453 -91 1209 -44 
Q 966 3 703 97 
z
M 1959 2075 
Q 2384 2075 2632 2365 
Q 2881 2656 2881 3163 
Q 2881 3666 2632 3958 
Q 2384 4250 1959 4250 
Q 1534 4250 1286 3958 
Q 1038 3666 1038 3163 
Q 1038 2656 1286 2365 
Q 1534 2075 1959 2075 
z
" id="DejaVuSans-39" transform="scale(0.015625)"/>
     <path d="M 628 4666 
L 1259 4666 
L 1259 531 
L 3531 531 
L 3531 0 
L 628 0 
L 628 4666 
z
" id="DejaVuSans-4c" transform="scale(0.015625)"/>
     <path d="M 3328 2828 
Q 3544 3216 3844 3400 
Q 4144 3584 4550 3584 
Q 5097 3584 5394 3201 
Q 5691 2819 5691 2113 
L 5691 0 
L 5113 0 
L 5113 2094 
Q 5113 2597 4934 2840 
Q 4756 3084 4391 3084 
Q 3944 3084 3684 2787 
Q 3425 2491 3425 1978 
L 3425 0 
L 2847 0 
L 2847 2094 
Q 2847 2600 2669 2842 
Q 2491 3084 2119 3084 
Q 1678 3084 1418 2786 
Q 1159 2488 1159 1978 
L 1159 0 
L 581 0 
L 581 3500 
L 1159 3500 
L 1159 2956 
Q 1356 3278 1631 3431 
Q 1906 3584 2284 3584 
Q 2666 3584 2933 3390 
Q 3200 3197 3328 2828 
z
" id="DejaVuSans-6d" transform="scale(0.015625)"/>
    </defs>
    <use xlink:href="#DejaVuSans-43"/>
    <use x="69.824219" xlink:href="#DejaVuSans-4f"/>
    <use x="146.785156" xlink:href="#DejaVuSans-56"/>
    <use x="215.193359" xlink:href="#DejaVuSans-49"/>
    <use x="244.685547" xlink:href="#DejaVuSans-44"/>
    <use x="321.6875" xlink:href="#DejaVuSans-2d"/>
    <use x="357.771484" xlink:href="#DejaVuSans-31"/>
    <use x="421.394531" xlink:href="#DejaVuSans-39"/>
    <use x="485.017578" xlink:href="#DejaVuSans-20"/>
    <use x="516.804688" xlink:href="#DejaVuSans-73"/>
    <use x="568.904297" xlink:href="#DejaVuSans-70"/>
    <use x="632.380859" xlink:href="#DejaVuSans-72"/>
    <use x="671.244141" xlink:href="#DejaVuSans-65"/>
    <use x="732.767578" xlink:href="#DejaVuSans-61"/>
    <use x="794.046875" xlink:href="#DejaVuSans-64"/>
    <use x="857.523438" xlink:href="#DejaVuSans-20"/>
    <use x="889.310547" xlink:href="#DejaVuSans-70"/>
    <use x="952.787109" xlink:href="#DejaVuSans-72"/>
    <use x="991.650391" xlink:href="#DejaVuSans-6f"/>
    <use x="1052.832031" xlink:href="#DejaVuSans-6a"/>
    <use x="1080.615234" xlink:href="#DejaVuSans-65"/>
    <use x="1142.138672" xlink:href="#DejaVuSans-63"/>
    <use x="1197.119141" xlink:href="#DejaVuSans-74"/>
    <use x="1236.328125" xlink:href="#DejaVuSans-69"/>
    <use x="1264.111328" xlink:href="#DejaVuSans-6f"/>
    <use x="1325.292969" xlink:href="#DejaVuSans-6e"/>
    <use x="1388.671875" xlink:href="#DejaVuSans-20"/>
    <use x="1420.458984" xlink:href="#DejaVuSans-75"/>
    <use x="1483.837891" xlink:href="#DejaVuSans-73"/>
    <use x="1535.9375" xlink:href="#DejaVuSans-69"/>
    <use x="1563.720703" xlink:href="#DejaVuSans-6e"/>
    <use x="1627.099609" xlink:href="#DejaVuSans-67"/>
    <use x="1690.576172" xlink:href="#DejaVuSans-20"/>
    <use x="1722.363281" xlink:href="#DejaVuSans-4c"/>
    <use x="1776.326172" xlink:href="#DejaVuSans-6f"/>
    <use x="1837.507812" xlink:href="#DejaVuSans-67"/>
    <use x="1900.984375" xlink:href="#DejaVuSans-69"/>
    <use x="1928.767578" xlink:href="#DejaVuSans-73"/>
    <use x="1980.867188" xlink:href="#DejaVuSans-74"/>
    <use x="2020.076172" xlink:href="#DejaVuSans-69"/>
    <use x="2047.859375" xlink:href="#DejaVuSans-63"/>
    <use x="2102.839844" xlink:href="#DejaVuSans-20"/>
    <use x="2134.626953" xlink:href="#DejaVuSans-6d"/>
    <use x="2232.039062" xlink:href="#DejaVuSans-61"/>
    <use x="2293.318359" xlink:href="#DejaVuSans-70"/>
   </g>
   <!-- assuming a carrying capacity of K=83M people and dt=4D tick time. -->
   <g transform="translate(148.644688 29.7555)scale(0.12 -0.12)">
    <defs>
     <path d="M 2375 4863 
L 2375 4384 
L 1825 4384 
Q 1516 4384 1395 4259 
Q 1275 4134 1275 3809 
L 1275 3500 
L 2222 3500 
L 2222 3053 
L 1275 3053 
L 1275 0 
L 697 0 
L 697 3053 
L 147 3053 
L 147 3500 
L 697 3500 
L 697 3744 
Q 697 4328 969 4595 
Q 1241 4863 1831 4863 
L 2375 4863 
z
" id="DejaVuSans-66" transform="scale(0.015625)"/>
     <path d="M 628 4666 
L 1259 4666 
L 1259 2694 
L 3353 4666 
L 4166 4666 
L 1850 2491 
L 4331 0 
L 3500 0 
L 1259 2247 
L 1259 0 
L 628 0 
L 628 4666 
z
" id="DejaVuSans-4b" transform="scale(0.015625)"/>
     <path d="M 678 2906 
L 4684 2906 
L 4684 2381 
L 678 2381 
L 678 2906 
z
M 678 1631 
L 4684 1631 
L 4684 1100 
L 678 1100 
L 678 1631 
z
" id="DejaVuSans-3d" transform="scale(0.015625)"/>
     <path d="M 2034 2216 
Q 1584 2216 1326 1975 
Q 1069 1734 1069 1313 
Q 1069 891 1326 650 
Q 1584 409 2034 409 
Q 2484 409 2743 651 
Q 3003 894 3003 1313 
Q 3003 1734 2745 1975 
Q 2488 2216 2034 2216 
z
M 1403 2484 
Q 997 2584 770 2862 
Q 544 3141 544 3541 
Q 544 4100 942 4425 
Q 1341 4750 2034 4750 
Q 2731 4750 3128 4425 
Q 3525 4100 3525 3541 
Q 3525 3141 3298 2862 
Q 3072 2584 2669 2484 
Q 3125 2378 3379 2068 
Q 3634 1759 3634 1313 
Q 3634 634 3220 271 
Q 2806 -91 2034 -91 
Q 1263 -91 848 271 
Q 434 634 434 1313 
Q 434 1759 690 2068 
Q 947 2378 1403 2484 
z
M 1172 3481 
Q 1172 3119 1398 2916 
Q 1625 2713 2034 2713 
Q 2441 2713 2670 2916 
Q 2900 3119 2900 3481 
Q 2900 3844 2670 4047 
Q 2441 4250 2034 4250 
Q 1625 4250 1398 4047 
Q 1172 3844 1172 3481 
z
" id="DejaVuSans-38" transform="scale(0.015625)"/>
     <path d="M 628 4666 
L 1569 4666 
L 2759 1491 
L 3956 4666 
L 4897 4666 
L 4897 0 
L 4281 0 
L 4281 4097 
L 3078 897 
L 2444 897 
L 1241 4097 
L 1241 0 
L 628 0 
L 628 4666 
z
" id="DejaVuSans-4d" transform="scale(0.015625)"/>
     <path d="M 2419 4116 
L 825 1625 
L 2419 1625 
L 2419 4116 
z
M 2253 4666 
L 3047 4666 
L 3047 1625 
L 3713 1625 
L 3713 1100 
L 3047 1100 
L 3047 0 
L 2419 0 
L 2419 1100 
L 313 1100 
L 313 1709 
L 2253 4666 
z
" id="DejaVuSans-34" transform="scale(0.015625)"/>
     <path d="M 581 4863 
L 1159 4863 
L 1159 1991 
L 2875 3500 
L 3609 3500 
L 1753 1863 
L 3688 0 
L 2938 0 
L 1159 1709 
L 1159 0 
L 581 0 
L 581 4863 
z
" id="DejaVuSans-6b" transform="scale(0.015625)"/>
    </defs>
    <use xlink:href="#DejaVuSans-61"/>
    <use x="61.279297" xlink:href="#DejaVuSans-73"/>
    <use x="113.378906" xlink:href="#DejaVuSans-73"/>
    <use x="165.478516" xlink:href="#DejaVuSans-75"/>
    <use x="228.857422" xlink:href="#DejaVuSans-6d"/>
    <use x="326.269531" xlink:href="#DejaVuSans-69"/>
    <use x="354.052734" xlink:href="#DejaVuSans-6e"/>
    <use x="417.431641" xlink:href="#DejaVuSans-67"/>
    <use x="480.908203" xlink:href="#DejaVuSans-20"/>
    <use x="512.695312" xlink:href="#DejaVuSans-61"/>
    <use x="573.974609" xlink:href="#DejaVuSans-20"/>
    <use x="605.761719" xlink:href="#DejaVuSans-63"/>
    <use x="660.742188" xlink:href="#DejaVuSans-61"/>
    <use x="722.021484" xlink:href="#DejaVuSans-72"/>
    <use x="761.384766" xlink:href="#DejaVuSans-72"/>
    <use x="802.498047" xlink:href="#DejaVuSans-79"/>
    <use x="861.677734" xlink:href="#DejaVuSans-69"/>
    <use x="889.460938" xlink:href="#DejaVuSans-6e"/>
    <use x="952.839844" xlink:href="#DejaVuSans-67"/>
    <use x="1016.316406" xlink:href="#DejaVuSans-20"/>
    <use x="1048.103516" xlink:href="#DejaVuSans-63"/>
    <use x="1103.083984" xlink:href="#DejaVuSans-61"/>
    <use x="1164.363281" xlink:href="#DejaVuSans-70"/>
    <use x="1227.839844" xlink:href="#DejaVuSans-61"/>
    <use x="1289.119141" xlink:href="#DejaVuSans-63"/>
    <use x="1344.099609" xlink:href="#DejaVuSans-69"/>
    <use x="1371.882812" xlink:href="#DejaVuSans-74"/>
    <use x="1411.091797" xlink:href="#DejaVuSans-79"/>
    <use x="1470.271484" xlink:href="#DejaVuSans-20"/>
    <use x="1502.058594" xlink:href="#DejaVuSans-6f"/>
    <use x="1563.240234" xlink:href="#DejaVuSans-66"/>
    <use x="1598.445312" xlink:href="#DejaVuSans-20"/>
    <use x="1630.232422" xlink:href="#DejaVuSans-4b"/>
    <use x="1695.808594" xlink:href="#DejaVuSans-3d"/>
    <use x="1779.597656" xlink:href="#DejaVuSans-38"/>
    <use x="1843.220703" xlink:href="#DejaVuSans-33"/>
    <use x="1906.84375" xlink:href="#DejaVuSans-4d"/>
    <use x="1993.123047" xlink:href="#DejaVuSans-20"/>
    <use x="2024.910156" xlink:href="#DejaVuSans-70"/>
    <use x="2088.386719" xlink:href="#DejaVuSans-65"/>
    <use x="2149.910156" xlink:href="#DejaVuSans-6f"/>
    <use x="2211.091797" xlink:href="#DejaVuSans-70"/>
    <use x="2274.568359" xlink:href="#DejaVuSans-6c"/>
    <use x="2302.351562" xlink:href="#DejaVuSans-65"/>
    <use x="2363.875" xlink:href="#DejaVuSans-20"/>
    <use x="2395.662109" xlink:href="#DejaVuSans-61"/>
    <use x="2456.941406" xlink:href="#DejaVuSans-6e"/>
    <use x="2520.320312" xlink:href="#DejaVuSans-64"/>
    <use x="2583.796875" xlink:href="#DejaVuSans-20"/>
    <use x="2615.583984" xlink:href="#DejaVuSans-64"/>
    <use x="2679.060547" xlink:href="#DejaVuSans-74"/>
    <use x="2718.269531" xlink:href="#DejaVuSans-3d"/>
    <use x="2802.058594" xlink:href="#DejaVuSans-34"/>
    <use x="2865.681641" xlink:href="#DejaVuSans-44"/>
    <use x="2942.683594" xlink:href="#DejaVuSans-20"/>
    <use x="2974.470703" xlink:href="#DejaVuSans-74"/>
    <use x="3013.679688" xlink:href="#DejaVuSans-69"/>
    <use x="3041.462891" xlink:href="#DejaVuSans-63"/>
    <use x="3096.443359" xlink:href="#DejaVuSans-6b"/>
    <use x="3154.353516" xlink:href="#DejaVuSans-20"/>
    <use x="3186.140625" xlink:href="#DejaVuSans-74"/>
    <use x="3225.349609" xlink:href="#DejaVuSans-69"/>
    <use x="3253.132812" xlink:href="#DejaVuSans-6d"/>
    <use x="3350.544922" xlink:href="#DejaVuSans-65"/>
    <use x="3412.068359" xlink:href="#DejaVuSans-2e"/>
   </g>
   <!-- created: 2021-06-30 author: @pschwede, source: JHU CSSE via @entorb &amp; @pomber. -->
   <g transform="translate(98.49875 43.192875)scale(0.12 -0.12)">
    <defs>
     <path d="M 750 794 
L 1409 794 
L 1409 0 
L 750 0 
L 750 794 
z
M 750 3309 
L 1409 3309 
L 1409 2516 
L 750 2516 
L 750 3309 
z
" id="DejaVuSans-3a" transform="scale(0.015625)"/>
     <path d="M 3513 2113 
L 3513 0 
L 2938 0 
L 2938 2094 
Q 2938 2591 2744 2837 
Q 2550 3084 2163 3084 
Q 1697 3084 1428 2787 
Q 1159 2491 1159 1978 
L 1159 0 
L 581 0 
L 581 4863 
L 1159 4863 
L 1159 2956 
Q 1366 3272 1645 3428 
Q 1925 3584 2291 3584 
Q 2894 3584 3203 3211 
Q 3513 2838 3513 2113 
z
" id="DejaVuSans-68" transform="scale(0.015625)"/>
     <path d="M 2381 1678 
Q 2381 1231 2603 976 
Q 2825 722 3213 722 
Q 3597 722 3817 978 
Q 4038 1234 4038 1678 
Q 4038 2116 3813 2373 
Q 3588 2631 3206 2631 
Q 2828 2631 2604 2375 
Q 2381 2119 2381 1678 
z
M 4084 744 
Q 3897 503 3655 389 
Q 3413 275 3091 275 
Q 2553 275 2217 664 
Q 1881 1053 1881 1678 
Q 1881 2303 2218 2693 
Q 2556 3084 3091 3084 
Q 3413 3084 3656 2967 
Q 3900 2850 4084 2613 
L 4084 3022 
L 4531 3022 
L 4531 722 
Q 4988 791 5245 1139 
Q 5503 1488 5503 2041 
Q 5503 2375 5404 2669 
Q 5306 2963 5106 3213 
Q 4781 3622 4314 3839 
Q 3847 4056 3297 4056 
Q 2913 4056 2559 3954 
Q 2206 3853 1906 3653 
Q 1416 3334 1139 2817 
Q 863 2300 863 1697 
Q 863 1200 1042 765 
Q 1222 331 1563 0 
Q 1891 -325 2322 -495 
Q 2753 -666 3244 -666 
Q 3647 -666 4036 -530 
Q 4425 -394 4750 -141 
L 5031 -488 
Q 4641 -791 4180 -952 
Q 3719 -1113 3244 -1113 
Q 2666 -1113 2153 -908 
Q 1641 -703 1241 -313 
Q 841 78 631 592 
Q 422 1106 422 1697 
Q 422 2266 634 2781 
Q 847 3297 1241 3688 
Q 1644 4084 2172 4295 
Q 2700 4506 3291 4506 
Q 3953 4506 4520 4234 
Q 5088 3963 5472 3463 
Q 5706 3156 5829 2797 
Q 5953 2438 5953 2053 
Q 5953 1231 5456 756 
Q 4959 281 4084 263 
L 4084 744 
z
" id="DejaVuSans-40" transform="scale(0.015625)"/>
     <path d="M 269 3500 
L 844 3500 
L 1563 769 
L 2278 3500 
L 2956 3500 
L 3675 769 
L 4391 3500 
L 4966 3500 
L 4050 0 
L 3372 0 
L 2619 2869 
L 1863 0 
L 1184 0 
L 269 3500 
z
" id="DejaVuSans-77" transform="scale(0.015625)"/>
     <path d="M 750 794 
L 1409 794 
L 1409 256 
L 897 -744 
L 494 -744 
L 750 256 
L 750 794 
z
" id="DejaVuSans-2c" transform="scale(0.015625)"/>
     <path d="M 628 4666 
L 1259 4666 
L 1259 2753 
L 3553 2753 
L 3553 4666 
L 4184 4666 
L 4184 0 
L 3553 0 
L 3553 2222 
L 1259 2222 
L 1259 0 
L 628 0 
L 628 4666 
z
" id="DejaVuSans-48" transform="scale(0.015625)"/>
     <path d="M 556 4666 
L 1191 4666 
L 1191 1831 
Q 1191 1081 1462 751 
Q 1734 422 2344 422 
Q 2950 422 3222 751 
Q 3494 1081 3494 1831 
L 3494 4666 
L 4128 4666 
L 4128 1753 
Q 4128 841 3676 375 
Q 3225 -91 2344 -91 
Q 1459 -91 1007 375 
Q 556 841 556 1753 
L 556 4666 
z
" id="DejaVuSans-55" transform="scale(0.015625)"/>
     <path d="M 3425 4513 
L 3425 3897 
Q 3066 4069 2747 4153 
Q 2428 4238 2131 4238 
Q 1616 4238 1336 4038 
Q 1056 3838 1056 3469 
Q 1056 3159 1242 3001 
Q 1428 2844 1947 2747 
L 2328 2669 
Q 3034 2534 3370 2195 
Q 3706 1856 3706 1288 
Q 3706 609 3251 259 
Q 2797 -91 1919 -91 
Q 1588 -91 1214 -16 
Q 841 59 441 206 
L 441 856 
Q 825 641 1194 531 
Q 1563 422 1919 422 
Q 2459 422 2753 634 
Q 3047 847 3047 1241 
Q 3047 1584 2836 1778 
Q 2625 1972 2144 2069 
L 1759 2144 
Q 1053 2284 737 2584 
Q 422 2884 422 3419 
Q 422 4038 858 4394 
Q 1294 4750 2059 4750 
Q 2388 4750 2728 4690 
Q 3069 4631 3425 4513 
z
" id="DejaVuSans-53" transform="scale(0.015625)"/>
     <path d="M 628 4666 
L 3578 4666 
L 3578 4134 
L 1259 4134 
L 1259 2753 
L 3481 2753 
L 3481 2222 
L 1259 2222 
L 1259 531 
L 3634 531 
L 3634 0 
L 628 0 
L 628 4666 
z
" id="DejaVuSans-45" transform="scale(0.015625)"/>
     <path d="M 3116 1747 
Q 3116 2381 2855 2742 
Q 2594 3103 2138 3103 
Q 1681 3103 1420 2742 
Q 1159 2381 1159 1747 
Q 1159 1113 1420 752 
Q 1681 391 2138 391 
Q 2594 391 2855 752 
Q 3116 1113 3116 1747 
z
M 1159 2969 
Q 1341 3281 1617 3432 
Q 1894 3584 2278 3584 
Q 2916 3584 3314 3078 
Q 3713 2572 3713 1747 
Q 3713 922 3314 415 
Q 2916 -91 2278 -91 
Q 1894 -91 1617 61 
Q 1341 213 1159 525 
L 1159 0 
L 581 0 
L 581 4863 
L 1159 4863 
L 1159 2969 
z
" id="DejaVuSans-62" transform="scale(0.015625)"/>
     <path d="M 1556 2509 
Q 1272 2256 1139 2004 
Q 1006 1753 1006 1478 
Q 1006 1022 1337 719 
Q 1669 416 2169 416 
Q 2466 416 2725 514 
Q 2984 613 3213 813 
L 1556 2509 
z
M 1997 2859 
L 3584 1234 
Q 3769 1513 3872 1830 
Q 3975 2147 3994 2503 
L 4575 2503 
Q 4538 2091 4375 1687 
Q 4213 1284 3922 891 
L 4794 0 
L 4006 0 
L 3559 459 
Q 3234 181 2878 45 
Q 2522 -91 2113 -91 
Q 1359 -91 881 339 
Q 403 769 403 1441 
Q 403 1841 612 2192 
Q 822 2544 1241 2853 
Q 1091 3050 1012 3245 
Q 934 3441 934 3628 
Q 934 4134 1281 4442 
Q 1628 4750 2203 4750 
Q 2463 4750 2720 4694 
Q 2978 4638 3244 4525 
L 3244 3956 
Q 2972 4103 2725 4179 
Q 2478 4256 2266 4256 
Q 1938 4256 1733 4082 
Q 1528 3909 1528 3634 
Q 1528 3475 1620 3314 
Q 1713 3153 1997 2859 
z
" id="DejaVuSans-26" transform="scale(0.015625)"/>
    </defs>
    <use xlink:href="#DejaVuSans-63"/>
    <use x="54.980469" xlink:href="#DejaVuSans-72"/>
    <use x="93.84375" xlink:href="#DejaVuSans-65"/>
    <use x="155.367188" xlink:href="#DejaVuSans-61"/>
    <use x="216.646484" xlink:href="#DejaVuSans-74"/>
    <use x="255.855469" xlink:href="#DejaVuSans-65"/>
    <use x="317.378906" xlink:href="#DejaVuSans-64"/>
    <use x="380.855469" xlink:href="#DejaVuSans-3a"/>
    <use x="414.546875" xlink:href="#DejaVuSans-20"/>
    <use x="446.333984" xlink:href="#DejaVuSans-32"/>
    <use x="509.957031" xlink:href="#DejaVuSans-30"/>
    <use x="573.580078" xlink:href="#DejaVuSans-32"/>
    <use x="637.203125" xlink:href="#DejaVuSans-31"/>
    <use x="700.826172" xlink:href="#DejaVuSans-2d"/>
    <use x="736.910156" xlink:href="#DejaVuSans-30"/>
    <use x="800.533203" xlink:href="#DejaVuSans-36"/>
    <use x="864.15625" xlink:href="#DejaVuSans-2d"/>
    <use x="900.240234" xlink:href="#DejaVuSans-33"/>
    <use x="963.863281" xlink:href="#DejaVuSans-30"/>
    <use x="1027.486328" xlink:href="#DejaVuSans-20"/>
    <use x="1059.273438" xlink:href="#DejaVuSans-61"/>
    <use x="1120.552734" xlink:href="#DejaVuSans-75"/>
    <use x="1183.931641" xlink:href="#DejaVuSans-74"/>
    <use x="1223.140625" xlink:href="#DejaVuSans-68"/>
    <use x="1286.519531" xlink:href="#DejaVuSans-6f"/>
    <use x="1347.701172" xlink:href="#DejaVuSans-72"/>
    <use x="1387.064453" xlink:href="#DejaVuSans-3a"/>
    <use x="1420.755859" xlink:href="#DejaVuSans-20"/>
    <use x="1452.542969" xlink:href="#DejaVuSans-40"/>
    <use x="1552.542969" xlink:href="#DejaVuSans-70"/>
    <use x="1616.019531" xlink:href="#DejaVuSans-73"/>
    <use x="1668.119141" xlink:href="#DejaVuSans-63"/>
    <use x="1723.099609" xlink:href="#DejaVuSans-68"/>
    <use x="1786.478516" xlink:href="#DejaVuSans-77"/>
    <use x="1868.265625" xlink:href="#DejaVuSans-65"/>
    <use x="1929.789062" xlink:href="#DejaVuSans-64"/>
    <use x="1993.265625" xlink:href="#DejaVuSans-65"/>
    <use x="2054.789062" xlink:href="#DejaVuSans-2c"/>
    <use x="2086.576172" xlink:href="#DejaVuSans-20"/>
    <use x="2118.363281" xlink:href="#DejaVuSans-73"/>
    <use x="2170.462891" xlink:href="#DejaVuSans-6f"/>
    <use x="2231.644531" xlink:href="#DejaVuSans-75"/>
    <use x="2295.023438" xlink:href="#DejaVuSans-72"/>
    <use x="2333.886719" xlink:href="#DejaVuSans-63"/>
    <use x="2388.867188" xlink:href="#DejaVuSans-65"/>
    <use x="2450.390625" xlink:href="#DejaVuSans-3a"/>
    <use x="2484.082031" xlink:href="#DejaVuSans-20"/>
    <use x="2515.869141" xlink:href="#DejaVuSans-4a"/>
    <use x="2545.361328" xlink:href="#DejaVuSans-48"/>
    <use x="2620.556641" xlink:href="#DejaVuSans-55"/>
    <use x="2693.75" xlink:href="#DejaVuSans-20"/>
    <use x="2725.537109" xlink:href="#DejaVuSans-43"/>
    <use x="2795.361328" xlink:href="#DejaVuSans-53"/>
    <use x="2858.837891" xlink:href="#DejaVuSans-53"/>
    <use x="2922.314453" xlink:href="#DejaVuSans-45"/>
    <use x="2985.498047" xlink:href="#DejaVuSans-20"/>
    <use x="3017.285156" xlink:href="#DejaVuSans-76"/>
    <use x="3076.464844" xlink:href="#DejaVuSans-69"/>
    <use x="3104.248047" xlink:href="#DejaVuSans-61"/>
    <use x="3165.527344" xlink:href="#DejaVuSans-20"/>
    <use x="3197.314453" xlink:href="#DejaVuSans-40"/>
    <use x="3297.314453" xlink:href="#DejaVuSans-65"/>
    <use x="3358.837891" xlink:href="#DejaVuSans-6e"/>
    <use x="3422.216797" xlink:href="#DejaVuSans-74"/>
    <use x="3461.425781" xlink:href="#DejaVuSans-6f"/>
    <use x="3522.607422" xlink:href="#DejaVuSans-72"/>
    <use x="3563.720703" xlink:href="#DejaVuSans-62"/>
    <use x="3627.197266" xlink:href="#DejaVuSans-20"/>
    <use x="3658.984375" xlink:href="#DejaVuSans-26"/>
    <use x="3736.962891" xlink:href="#DejaVuSans-20"/>
    <use x="3768.75" xlink:href="#DejaVuSans-40"/>
    <use x="3868.75" xlink:href="#DejaVuSans-70"/>
    <use x="3932.226562" xlink:href="#DejaVuSans-6f"/>
    <use x="3993.408203" xlink:href="#DejaVuSans-6d"/>
    <use x="4090.820312" xlink:href="#DejaVuSans-62"/>
    <use x="4154.296875" xlink:href="#DejaVuSans-65"/>
    <use x="4215.820312" xlink:href="#DejaVuSans-72"/>
    <use x="4247.808594" xlink:href="#DejaVuSans-2e"/>
   </g>
  </g>
 </g>
 <defs>
  <clipPath id="p53a8f7087e">
   <rect height="198.960412" width="642.85" x="61.62625" y="102.072"/>
  </clipPath>
  <clipPath id="pcb09bee4f5">
   <rect height="198.960412" width="642.85" x="61.62625" y="313.679588"/>
  </clipPath>
 </defs>
</svg>
