<?xml version="1.0" encoding="utf-8" standalone="no"?>
<!DOCTYPE svg PUBLIC "-//W3C//DTD SVG 1.1//EN"
  "http://www.w3.org/Graphics/SVG/1.1/DTD/svg11.dtd">
<!-- Created with matplotlib (https://matplotlib.org/) -->
<svg height="563.560252pt" version="1.1" viewBox="0 0 711.73875 563.560252" width="711.73875pt" xmlns="http://www.w3.org/2000/svg" xmlns:xlink="http://www.w3.org/1999/xlink">
 <metadata>
  <rdf:RDF xmlns:cc="http://creativecommons.org/ns#" xmlns:dc="http://purl.org/dc/elements/1.1/" xmlns:rdf="http://www.w3.org/1999/02/22-rdf-syntax-ns#">
   <cc:Work>
    <dc:type rdf:resource="http://purl.org/dc/dcmitype/StillImage"/>
    <dc:date>2020-12-18T09:04:01.877865</dc:date>
    <dc:format>image/svg+xml</dc:format>
    <dc:creator>
     <cc:Agent>
      <dc:title>Matplotlib v3.3.2, https://matplotlib.org/</dc:title>
     </cc:Agent>
    </dc:creator>
   </cc:Work>
  </rdf:RDF>
 </metadata>
 <defs>
  <style type="text/css">*{stroke-linecap:butt;stroke-linejoin:round;}</style>
 </defs>
 <g id="figure_1">
  <g id="patch_1">
   <path d="M 0 563.560252 
L 711.73875 563.560252 
L 711.73875 0 
L 0 0 
z
" style="fill:#ffffff;"/>
  </g>
  <g id="axes_1">
   <g id="patch_2">
    <path d="M 67.98875 301.187403 
L 704.53875 301.187403 
L 704.53875 102.072 
L 67.98875 102.072 
z
" style="fill:#e5e5e5;"/>
   </g>
   <g id="matplotlib.axis_1">
    <g id="xtick_1">
     <g id="line2d_1">
      <defs>
       <path d="M 0 0 
L 0 3.5 
" id="md7d3a1b319" style="stroke:#555555;stroke-width:0.8;"/>
      </defs>
      <g>
       <use style="fill:#555555;stroke:#555555;stroke-width:0.8;" x="67.98875" xlink:href="#md7d3a1b319" y="301.187403"/>
      </g>
     </g>
    </g>
    <g id="xtick_2">
     <g id="line2d_2">
      <g>
       <use style="fill:#555555;stroke:#555555;stroke-width:0.8;" x="169.990492" xlink:href="#md7d3a1b319" y="301.187403"/>
      </g>
     </g>
    </g>
    <g id="xtick_3">
     <g id="line2d_3">
      <g>
       <use style="fill:#555555;stroke:#555555;stroke-width:0.8;" x="277.905378" xlink:href="#md7d3a1b319" y="301.187403"/>
      </g>
     </g>
    </g>
    <g id="xtick_4">
     <g id="line2d_4">
      <g>
       <use style="fill:#555555;stroke:#555555;stroke-width:0.8;" x="385.820264" xlink:href="#md7d3a1b319" y="301.187403"/>
      </g>
     </g>
    </g>
    <g id="xtick_5">
     <g id="line2d_5">
      <g>
       <use style="fill:#555555;stroke:#555555;stroke-width:0.8;" x="493.73515" xlink:href="#md7d3a1b319" y="301.187403"/>
      </g>
     </g>
    </g>
    <g id="xtick_6">
     <g id="line2d_6">
      <g>
       <use style="fill:#555555;stroke:#555555;stroke-width:0.8;" x="601.945694" xlink:href="#md7d3a1b319" y="301.187403"/>
      </g>
     </g>
    </g>
    <g id="xtick_7">
     <g id="line2d_7">
      <g>
       <use style="fill:#555555;stroke:#555555;stroke-width:0.8;" x="704.53875" xlink:href="#md7d3a1b319" y="301.187403"/>
      </g>
     </g>
    </g>
    <g id="xtick_8">
     <g id="line2d_8">
      <defs>
       <path d="M 0 0 
L 0 2 
" id="m85b4be6339" style="stroke:#555555;stroke-width:0.6;"/>
      </defs>
      <g>
       <use style="fill:#555555;stroke:#555555;stroke-width:0.6;" x="88.684756" xlink:href="#m85b4be6339" y="301.187403"/>
      </g>
     </g>
    </g>
    <g id="xtick_9">
     <g id="line2d_9">
      <g>
       <use style="fill:#555555;stroke:#555555;stroke-width:0.6;" x="115.589563" xlink:href="#m85b4be6339" y="301.187403"/>
      </g>
     </g>
    </g>
    <g id="xtick_10">
     <g id="line2d_10">
      <g>
       <use style="fill:#555555;stroke:#555555;stroke-width:0.6;" x="142.790027" xlink:href="#m85b4be6339" y="301.187403"/>
      </g>
     </g>
    </g>
    <g id="xtick_11">
     <g id="line2d_11">
      <g>
       <use style="fill:#555555;stroke:#555555;stroke-width:0.6;" x="196.599642" xlink:href="#m85b4be6339" y="301.187403"/>
      </g>
     </g>
    </g>
    <g id="xtick_12">
     <g id="line2d_12">
      <g>
       <use style="fill:#555555;stroke:#555555;stroke-width:0.6;" x="223.504449" xlink:href="#m85b4be6339" y="301.187403"/>
      </g>
     </g>
    </g>
    <g id="xtick_13">
     <g id="line2d_13">
      <g>
       <use style="fill:#555555;stroke:#555555;stroke-width:0.6;" x="250.704913" xlink:href="#m85b4be6339" y="301.187403"/>
      </g>
     </g>
    </g>
    <g id="xtick_14">
     <g id="line2d_14">
      <g>
       <use style="fill:#555555;stroke:#555555;stroke-width:0.6;" x="304.514528" xlink:href="#m85b4be6339" y="301.187403"/>
      </g>
     </g>
    </g>
    <g id="xtick_15">
     <g id="line2d_15">
      <g>
       <use style="fill:#555555;stroke:#555555;stroke-width:0.6;" x="331.419335" xlink:href="#m85b4be6339" y="301.187403"/>
      </g>
     </g>
    </g>
    <g id="xtick_16">
     <g id="line2d_16">
      <g>
       <use style="fill:#555555;stroke:#555555;stroke-width:0.6;" x="358.6198" xlink:href="#m85b4be6339" y="301.187403"/>
      </g>
     </g>
    </g>
    <g id="xtick_17">
     <g id="line2d_17">
      <g>
       <use style="fill:#555555;stroke:#555555;stroke-width:0.6;" x="412.429414" xlink:href="#m85b4be6339" y="301.187403"/>
      </g>
     </g>
    </g>
    <g id="xtick_18">
     <g id="line2d_18">
      <g>
       <use style="fill:#555555;stroke:#555555;stroke-width:0.6;" x="439.334221" xlink:href="#m85b4be6339" y="301.187403"/>
      </g>
     </g>
    </g>
    <g id="xtick_19">
     <g id="line2d_19">
      <g>
       <use style="fill:#555555;stroke:#555555;stroke-width:0.6;" x="466.534686" xlink:href="#m85b4be6339" y="301.187403"/>
      </g>
     </g>
    </g>
    <g id="xtick_20">
     <g id="line2d_20">
      <g>
       <use style="fill:#555555;stroke:#555555;stroke-width:0.6;" x="520.639958" xlink:href="#m85b4be6339" y="301.187403"/>
      </g>
     </g>
    </g>
    <g id="xtick_21">
     <g id="line2d_21">
      <g>
       <use style="fill:#555555;stroke:#555555;stroke-width:0.6;" x="547.544765" xlink:href="#m85b4be6339" y="301.187403"/>
      </g>
     </g>
    </g>
    <g id="xtick_22">
     <g id="line2d_22">
      <g>
       <use style="fill:#555555;stroke:#555555;stroke-width:0.6;" x="574.745229" xlink:href="#m85b4be6339" y="301.187403"/>
      </g>
     </g>
    </g>
    <g id="xtick_23">
     <g id="line2d_23">
      <g>
       <use style="fill:#555555;stroke:#555555;stroke-width:0.6;" x="628.554844" xlink:href="#m85b4be6339" y="301.187403"/>
      </g>
     </g>
    </g>
    <g id="xtick_24">
     <g id="line2d_24">
      <g>
       <use style="fill:#555555;stroke:#555555;stroke-width:0.6;" x="655.459651" xlink:href="#m85b4be6339" y="301.187403"/>
      </g>
     </g>
    </g>
    <g id="xtick_25">
     <g id="line2d_25">
      <g>
       <use style="fill:#555555;stroke:#555555;stroke-width:0.6;" x="682.660116" xlink:href="#m85b4be6339" y="301.187403"/>
      </g>
     </g>
    </g>
   </g>
   <g id="matplotlib.axis_2">
    <g id="ytick_1">
     <g id="line2d_26">
      <defs>
       <path d="M 0 0 
L -3.5 0 
" id="mb79bdd3244" style="stroke:#555555;stroke-width:0.8;"/>
      </defs>
      <g>
       <use style="fill:#555555;stroke:#555555;stroke-width:0.8;" x="67.98875" xlink:href="#mb79bdd3244" y="292.136706"/>
      </g>
     </g>
     <g id="text_1">
      <!-- 0 -->
      <g style="fill:#555555;" transform="translate(54.62625 295.935924)scale(0.1 -0.1)">
       <defs>
        <path d="M 31.78125 66.40625 
Q 24.171875 66.40625 20.328125 58.90625 
Q 16.5 51.421875 16.5 36.375 
Q 16.5 21.390625 20.328125 13.890625 
Q 24.171875 6.390625 31.78125 6.390625 
Q 39.453125 6.390625 43.28125 13.890625 
Q 47.125 21.390625 47.125 36.375 
Q 47.125 51.421875 43.28125 58.90625 
Q 39.453125 66.40625 31.78125 66.40625 
z
M 31.78125 74.21875 
Q 44.046875 74.21875 50.515625 64.515625 
Q 56.984375 54.828125 56.984375 36.375 
Q 56.984375 17.96875 50.515625 8.265625 
Q 44.046875 -1.421875 31.78125 -1.421875 
Q 19.53125 -1.421875 13.0625 8.265625 
Q 6.59375 17.96875 6.59375 36.375 
Q 6.59375 54.828125 13.0625 64.515625 
Q 19.53125 74.21875 31.78125 74.21875 
z
" id="DejaVuSans-48"/>
       </defs>
       <use xlink:href="#DejaVuSans-48"/>
      </g>
     </g>
    </g>
    <g id="ytick_2">
     <g id="line2d_27">
      <g>
       <use style="fill:#555555;stroke:#555555;stroke-width:0.8;" x="67.98875" xlink:href="#mb79bdd3244" y="265.829498"/>
      </g>
     </g>
     <g id="text_2">
      <!-- 1 -->
      <g style="fill:#555555;" transform="translate(54.62625 269.628717)scale(0.1 -0.1)">
       <defs>
        <path d="M 12.40625 8.296875 
L 28.515625 8.296875 
L 28.515625 63.921875 
L 10.984375 60.40625 
L 10.984375 69.390625 
L 28.421875 72.90625 
L 38.28125 72.90625 
L 38.28125 8.296875 
L 54.390625 8.296875 
L 54.390625 0 
L 12.40625 0 
z
" id="DejaVuSans-49"/>
       </defs>
       <use xlink:href="#DejaVuSans-49"/>
      </g>
     </g>
    </g>
    <g id="ytick_3">
     <g id="line2d_28">
      <g>
       <use style="fill:#555555;stroke:#555555;stroke-width:0.8;" x="67.98875" xlink:href="#mb79bdd3244" y="239.52229"/>
      </g>
     </g>
     <g id="text_3">
      <!-- 2 -->
      <g style="fill:#555555;" transform="translate(54.62625 243.321509)scale(0.1 -0.1)">
       <defs>
        <path d="M 19.1875 8.296875 
L 53.609375 8.296875 
L 53.609375 0 
L 7.328125 0 
L 7.328125 8.296875 
Q 12.9375 14.109375 22.625 23.890625 
Q 32.328125 33.6875 34.8125 36.53125 
Q 39.546875 41.84375 41.421875 45.53125 
Q 43.3125 49.21875 43.3125 52.78125 
Q 43.3125 58.59375 39.234375 62.25 
Q 35.15625 65.921875 28.609375 65.921875 
Q 23.96875 65.921875 18.8125 64.3125 
Q 13.671875 62.703125 7.8125 59.421875 
L 7.8125 69.390625 
Q 13.765625 71.78125 18.9375 73 
Q 24.125 74.21875 28.421875 74.21875 
Q 39.75 74.21875 46.484375 68.546875 
Q 53.21875 62.890625 53.21875 53.421875 
Q 53.21875 48.921875 51.53125 44.890625 
Q 49.859375 40.875 45.40625 35.40625 
Q 44.1875 33.984375 37.640625 27.21875 
Q 31.109375 20.453125 19.1875 8.296875 
z
" id="DejaVuSans-50"/>
       </defs>
       <use xlink:href="#DejaVuSans-50"/>
      </g>
     </g>
    </g>
    <g id="ytick_4">
     <g id="line2d_29">
      <g>
       <use style="fill:#555555;stroke:#555555;stroke-width:0.8;" x="67.98875" xlink:href="#mb79bdd3244" y="213.215082"/>
      </g>
     </g>
     <g id="text_4">
      <!-- 3 -->
      <g style="fill:#555555;" transform="translate(54.62625 217.014301)scale(0.1 -0.1)">
       <defs>
        <path d="M 40.578125 39.3125 
Q 47.65625 37.796875 51.625 33 
Q 55.609375 28.21875 55.609375 21.1875 
Q 55.609375 10.40625 48.1875 4.484375 
Q 40.765625 -1.421875 27.09375 -1.421875 
Q 22.515625 -1.421875 17.65625 -0.515625 
Q 12.796875 0.390625 7.625 2.203125 
L 7.625 11.71875 
Q 11.71875 9.328125 16.59375 8.109375 
Q 21.484375 6.890625 26.8125 6.890625 
Q 36.078125 6.890625 40.9375 10.546875 
Q 45.796875 14.203125 45.796875 21.1875 
Q 45.796875 27.640625 41.28125 31.265625 
Q 36.765625 34.90625 28.71875 34.90625 
L 20.21875 34.90625 
L 20.21875 43.015625 
L 29.109375 43.015625 
Q 36.375 43.015625 40.234375 45.921875 
Q 44.09375 48.828125 44.09375 54.296875 
Q 44.09375 59.90625 40.109375 62.90625 
Q 36.140625 65.921875 28.71875 65.921875 
Q 24.65625 65.921875 20.015625 65.03125 
Q 15.375 64.15625 9.8125 62.3125 
L 9.8125 71.09375 
Q 15.4375 72.65625 20.34375 73.4375 
Q 25.25 74.21875 29.59375 74.21875 
Q 40.828125 74.21875 47.359375 69.109375 
Q 53.90625 64.015625 53.90625 55.328125 
Q 53.90625 49.265625 50.4375 45.09375 
Q 46.96875 40.921875 40.578125 39.3125 
z
" id="DejaVuSans-51"/>
       </defs>
       <use xlink:href="#DejaVuSans-51"/>
      </g>
     </g>
    </g>
    <g id="ytick_5">
     <g id="line2d_30">
      <g>
       <use style="fill:#555555;stroke:#555555;stroke-width:0.8;" x="67.98875" xlink:href="#mb79bdd3244" y="186.907874"/>
      </g>
     </g>
     <g id="text_5">
      <!-- 4 -->
      <g style="fill:#555555;" transform="translate(54.62625 190.707093)scale(0.1 -0.1)">
       <defs>
        <path d="M 37.796875 64.3125 
L 12.890625 25.390625 
L 37.796875 25.390625 
z
M 35.203125 72.90625 
L 47.609375 72.90625 
L 47.609375 25.390625 
L 58.015625 25.390625 
L 58.015625 17.1875 
L 47.609375 17.1875 
L 47.609375 0 
L 37.796875 0 
L 37.796875 17.1875 
L 4.890625 17.1875 
L 4.890625 26.703125 
z
" id="DejaVuSans-52"/>
       </defs>
       <use xlink:href="#DejaVuSans-52"/>
      </g>
     </g>
    </g>
    <g id="ytick_6">
     <g id="line2d_31">
      <g>
       <use style="fill:#555555;stroke:#555555;stroke-width:0.8;" x="67.98875" xlink:href="#mb79bdd3244" y="160.600666"/>
      </g>
     </g>
     <g id="text_6">
      <!-- 5 -->
      <g style="fill:#555555;" transform="translate(54.62625 164.399885)scale(0.1 -0.1)">
       <defs>
        <path d="M 10.796875 72.90625 
L 49.515625 72.90625 
L 49.515625 64.59375 
L 19.828125 64.59375 
L 19.828125 46.734375 
Q 21.96875 47.46875 24.109375 47.828125 
Q 26.265625 48.1875 28.421875 48.1875 
Q 40.625 48.1875 47.75 41.5 
Q 54.890625 34.8125 54.890625 23.390625 
Q 54.890625 11.625 47.5625 5.09375 
Q 40.234375 -1.421875 26.90625 -1.421875 
Q 22.3125 -1.421875 17.546875 -0.640625 
Q 12.796875 0.140625 7.71875 1.703125 
L 7.71875 11.625 
Q 12.109375 9.234375 16.796875 8.0625 
Q 21.484375 6.890625 26.703125 6.890625 
Q 35.15625 6.890625 40.078125 11.328125 
Q 45.015625 15.765625 45.015625 23.390625 
Q 45.015625 31 40.078125 35.4375 
Q 35.15625 39.890625 26.703125 39.890625 
Q 22.75 39.890625 18.8125 39.015625 
Q 14.890625 38.140625 10.796875 36.28125 
z
" id="DejaVuSans-53"/>
       </defs>
       <use xlink:href="#DejaVuSans-53"/>
      </g>
     </g>
    </g>
    <g id="ytick_7">
     <g id="line2d_32">
      <g>
       <use style="fill:#555555;stroke:#555555;stroke-width:0.8;" x="67.98875" xlink:href="#mb79bdd3244" y="134.293459"/>
      </g>
     </g>
     <g id="text_7">
      <!-- 6 -->
      <g style="fill:#555555;" transform="translate(54.62625 138.092677)scale(0.1 -0.1)">
       <defs>
        <path d="M 33.015625 40.375 
Q 26.375 40.375 22.484375 35.828125 
Q 18.609375 31.296875 18.609375 23.390625 
Q 18.609375 15.53125 22.484375 10.953125 
Q 26.375 6.390625 33.015625 6.390625 
Q 39.65625 6.390625 43.53125 10.953125 
Q 47.40625 15.53125 47.40625 23.390625 
Q 47.40625 31.296875 43.53125 35.828125 
Q 39.65625 40.375 33.015625 40.375 
z
M 52.59375 71.296875 
L 52.59375 62.3125 
Q 48.875 64.0625 45.09375 64.984375 
Q 41.3125 65.921875 37.59375 65.921875 
Q 27.828125 65.921875 22.671875 59.328125 
Q 17.53125 52.734375 16.796875 39.40625 
Q 19.671875 43.65625 24.015625 45.921875 
Q 28.375 48.1875 33.59375 48.1875 
Q 44.578125 48.1875 50.953125 41.515625 
Q 57.328125 34.859375 57.328125 23.390625 
Q 57.328125 12.15625 50.6875 5.359375 
Q 44.046875 -1.421875 33.015625 -1.421875 
Q 20.359375 -1.421875 13.671875 8.265625 
Q 6.984375 17.96875 6.984375 36.375 
Q 6.984375 53.65625 15.1875 63.9375 
Q 23.390625 74.21875 37.203125 74.21875 
Q 40.921875 74.21875 44.703125 73.484375 
Q 48.484375 72.75 52.59375 71.296875 
z
" id="DejaVuSans-54"/>
       </defs>
       <use xlink:href="#DejaVuSans-54"/>
      </g>
     </g>
    </g>
    <g id="ytick_8">
     <g id="line2d_33">
      <g>
       <use style="fill:#555555;stroke:#555555;stroke-width:0.8;" x="67.98875" xlink:href="#mb79bdd3244" y="107.986251"/>
      </g>
     </g>
     <g id="text_8">
      <!-- 7 -->
      <g style="fill:#555555;" transform="translate(54.62625 111.78547)scale(0.1 -0.1)">
       <defs>
        <path d="M 8.203125 72.90625 
L 55.078125 72.90625 
L 55.078125 68.703125 
L 28.609375 0 
L 18.3125 0 
L 43.21875 64.59375 
L 8.203125 64.59375 
z
" id="DejaVuSans-55"/>
       </defs>
       <use xlink:href="#DejaVuSans-55"/>
      </g>
     </g>
    </g>
    <g id="text_9">
     <!-- Total -->
     <g style="fill:#555555;" transform="translate(48.130625 215.641577)rotate(-90)scale(0.12 -0.12)">
      <defs>
       <path d="M -0.296875 72.90625 
L 61.375 72.90625 
L 61.375 64.59375 
L 35.5 64.59375 
L 35.5 0 
L 25.59375 0 
L 25.59375 64.59375 
L -0.296875 64.59375 
z
" id="DejaVuSans-84"/>
       <path d="M 30.609375 48.390625 
Q 23.390625 48.390625 19.1875 42.75 
Q 14.984375 37.109375 14.984375 27.296875 
Q 14.984375 17.484375 19.15625 11.84375 
Q 23.34375 6.203125 30.609375 6.203125 
Q 37.796875 6.203125 41.984375 11.859375 
Q 46.1875 17.53125 46.1875 27.296875 
Q 46.1875 37.015625 41.984375 42.703125 
Q 37.796875 48.390625 30.609375 48.390625 
z
M 30.609375 56 
Q 42.328125 56 49.015625 48.375 
Q 55.71875 40.765625 55.71875 27.296875 
Q 55.71875 13.875 49.015625 6.21875 
Q 42.328125 -1.421875 30.609375 -1.421875 
Q 18.84375 -1.421875 12.171875 6.21875 
Q 5.515625 13.875 5.515625 27.296875 
Q 5.515625 40.765625 12.171875 48.375 
Q 18.84375 56 30.609375 56 
z
" id="DejaVuSans-111"/>
       <path d="M 18.3125 70.21875 
L 18.3125 54.6875 
L 36.8125 54.6875 
L 36.8125 47.703125 
L 18.3125 47.703125 
L 18.3125 18.015625 
Q 18.3125 11.328125 20.140625 9.421875 
Q 21.96875 7.515625 27.59375 7.515625 
L 36.8125 7.515625 
L 36.8125 0 
L 27.59375 0 
Q 17.1875 0 13.234375 3.875 
Q 9.28125 7.765625 9.28125 18.015625 
L 9.28125 47.703125 
L 2.6875 47.703125 
L 2.6875 54.6875 
L 9.28125 54.6875 
L 9.28125 70.21875 
z
" id="DejaVuSans-116"/>
       <path d="M 34.28125 27.484375 
Q 23.390625 27.484375 19.1875 25 
Q 14.984375 22.515625 14.984375 16.5 
Q 14.984375 11.71875 18.140625 8.90625 
Q 21.296875 6.109375 26.703125 6.109375 
Q 34.1875 6.109375 38.703125 11.40625 
Q 43.21875 16.703125 43.21875 25.484375 
L 43.21875 27.484375 
z
M 52.203125 31.203125 
L 52.203125 0 
L 43.21875 0 
L 43.21875 8.296875 
Q 40.140625 3.328125 35.546875 0.953125 
Q 30.953125 -1.421875 24.3125 -1.421875 
Q 15.921875 -1.421875 10.953125 3.296875 
Q 6 8.015625 6 15.921875 
Q 6 25.140625 12.171875 29.828125 
Q 18.359375 34.515625 30.609375 34.515625 
L 43.21875 34.515625 
L 43.21875 35.40625 
Q 43.21875 41.609375 39.140625 45 
Q 35.0625 48.390625 27.6875 48.390625 
Q 23 48.390625 18.546875 47.265625 
Q 14.109375 46.140625 10.015625 43.890625 
L 10.015625 52.203125 
Q 14.9375 54.109375 19.578125 55.046875 
Q 24.21875 56 28.609375 56 
Q 40.484375 56 46.34375 49.84375 
Q 52.203125 43.703125 52.203125 31.203125 
z
" id="DejaVuSans-97"/>
       <path d="M 9.421875 75.984375 
L 18.40625 75.984375 
L 18.40625 0 
L 9.421875 0 
z
" id="DejaVuSans-108"/>
      </defs>
      <use xlink:href="#DejaVuSans-84"/>
      <use x="44.083984" xlink:href="#DejaVuSans-111"/>
      <use x="105.265625" xlink:href="#DejaVuSans-116"/>
      <use x="144.474609" xlink:href="#DejaVuSans-97"/>
      <use x="205.753906" xlink:href="#DejaVuSans-108"/>
     </g>
    </g>
    <g id="text_10">
     <!-- 1e7 -->
     <g style="fill:#555555;" transform="translate(67.98875 99.072)scale(0.1 -0.1)">
      <defs>
       <path d="M 56.203125 29.59375 
L 56.203125 25.203125 
L 14.890625 25.203125 
Q 15.484375 15.921875 20.484375 11.0625 
Q 25.484375 6.203125 34.421875 6.203125 
Q 39.59375 6.203125 44.453125 7.46875 
Q 49.3125 8.734375 54.109375 11.28125 
L 54.109375 2.78125 
Q 49.265625 0.734375 44.1875 -0.34375 
Q 39.109375 -1.421875 33.890625 -1.421875 
Q 20.796875 -1.421875 13.15625 6.1875 
Q 5.515625 13.8125 5.515625 26.8125 
Q 5.515625 40.234375 12.765625 48.109375 
Q 20.015625 56 32.328125 56 
Q 43.359375 56 49.78125 48.890625 
Q 56.203125 41.796875 56.203125 29.59375 
z
M 47.21875 32.234375 
Q 47.125 39.59375 43.09375 43.984375 
Q 39.0625 48.390625 32.421875 48.390625 
Q 24.90625 48.390625 20.390625 44.140625 
Q 15.875 39.890625 15.1875 32.171875 
z
" id="DejaVuSans-101"/>
      </defs>
      <use xlink:href="#DejaVuSans-49"/>
      <use x="63.623047" xlink:href="#DejaVuSans-101"/>
      <use x="125.146484" xlink:href="#DejaVuSans-55"/>
     </g>
    </g>
   </g>
   <g id="line2d_34">
    <path clip-path="url(#p9d930f199f)" d="M 67.98875 292.136703 
L 86.615155 292.036689 
L 88.684756 291.747102 
L 91.050013 291.15361 
L 96.667501 289.669164 
L 101.398016 288.570175 
L 114.406934 285.848308 
L 116.772192 284.923957 
L 119.137449 283.777213 
L 122.389679 281.886028 
L 125.937566 279.893975 
L 130.076767 277.974913 
L 133.624653 276.623874 
L 137.17254 275.399307 
L 139.833455 274.472189 
L 146.633571 271.744616 
L 148.998829 270.521054 
L 151.06843 269.211419 
L 152.546716 268.080014 
L 154.025002 266.653899 
L 155.503288 264.954361 
L 157.277231 262.481778 
L 162.303404 254.746868 
L 164.964319 249.741532 
L 165.259976 249.173997 
L 165.259976 249.173997 
" style="fill:none;stroke:#e24a33;stroke-linecap:square;stroke-width:1.5;"/>
   </g>
   <g id="line2d_35">
    <path clip-path="url(#p9d930f199f)" d="M 165.259976 249.173997 
L 166.738262 246.527756 
L 167.920891 244.807428 
L 169.10352 243.404371 
L 170.581806 242.033349 
L 172.060092 241.009357 
L 173.538378 240.255164 
L 175.312322 239.615147 
L 177.381922 239.124743 
L 180.042837 238.751851 
L 183.590724 238.50391 
L 189.208211 238.361503 
L 202.512786 238.310652 
L 410.359814 238.30822 
L 704.53875 238.30822 
L 704.53875 238.30822 
" style="fill:none;stroke:#348abd;stroke-linecap:square;stroke-width:1.5;"/>
   </g>
   <g id="line2d_36">
    <path clip-path="url(#p9d930f199f)" d="M 165.259976 249.173997 
L 166.738262 246.527756 
L 167.920891 244.807428 
L 169.10352 243.404371 
L 170.581806 242.033349 
L 172.060092 241.009357 
L 173.538378 240.255164 
L 175.312322 239.615147 
L 177.381922 239.124743 
L 180.042837 238.751851 
L 183.590724 238.50391 
L 189.208211 238.361503 
L 202.512786 238.310652 
L 410.359814 238.30822 
L 704.53875 238.30822 
L 704.53875 238.30822 
" style="fill:none;stroke:#988ed5;stroke-linecap:square;stroke-width:1.5;"/>
   </g>
   <g id="line2d_37">
    <path clip-path="url(#p9d930f199f)" d="M 67.98875 292.136698 
L 85.432526 292.0428 
L 86.910812 291.754409 
L 88.093441 291.288956 
L 89.27607 290.587992 
L 91.050013 289.187418 
L 94.006586 286.808381 
L 99.328416 282.770864 
L 101.989331 281.078852 
L 108.789447 277.104689 
L 111.746019 275.407854 
L 113.224305 274.340175 
L 114.702591 272.968107 
L 116.180877 271.255919 
L 117.954821 268.870374 
L 119.433107 266.575887 
L 121.502707 262.954969 
L 125.050594 256.796347 
L 126.824537 254.12342 
L 130.076767 249.651329 
L 132.146367 247.252249 
L 136.285568 242.745829 
L 138.946483 240.127481 
L 141.311741 237.423201 
L 146.042257 231.779245 
L 147.8162 229.224338 
L 149.590143 226.236896 
L 151.364087 222.73528 
L 152.546716 219.966631 
L 153.729345 216.59724 
L 155.207631 211.701601 
L 156.685917 205.767106 
L 158.755517 196.381311 
L 160.529461 188.507741 
L 161.71209 183.050912 
L 163.486033 173.383509 
L 165.259976 163.248579 
L 165.259976 163.248579 
" style="fill:none;stroke:#777777;stroke-linecap:square;stroke-width:1.5;"/>
   </g>
   <g id="line2d_38">
    <path clip-path="url(#p9d930f199f)" d="M 165.259976 163.248579 
L 165.851291 160.084718 
L 166.442605 157.90666 
L 167.03392 156.43143 
L 167.625234 155.443323 
L 168.216548 154.786463 
L 169.10352 154.19389 
L 169.990492 153.87722 
L 171.468778 153.642889 
L 174.129693 153.53651 
L 184.773353 153.517883 
L 704.53875 153.517873 
L 704.53875 153.517873 
" style="fill:none;stroke:#fbc15e;stroke-linecap:square;stroke-width:1.5;"/>
   </g>
   <g id="line2d_39">
    <path clip-path="url(#p9d930f199f)" d="M 67.98875 292.136695 
L 85.136869 292.046144 
L 86.319498 291.826242 
L 87.206469 291.498804 
L 88.389098 290.802711 
L 89.571727 289.788339 
L 91.345671 287.869008 
L 94.302243 284.724351 
L 99.624073 279.378798 
L 101.989331 277.3929 
L 108.493789 272.311609 
L 112.041676 269.57145 
L 113.519962 268.080079 
L 114.702591 266.578574 
L 116.180877 264.295657 
L 117.954821 261.114931 
L 119.433107 258.055614 
L 121.502707 253.227723 
L 125.050594 245.016227 
L 126.824537 241.452325 
L 130.076767 235.489536 
L 131.85071 232.730495 
L 136.285568 226.282203 
L 138.946483 222.791073 
L 141.016084 219.646007 
L 146.042257 211.660092 
L 147.8162 208.253549 
L 149.590143 204.270293 
L 151.364087 199.601472 
L 152.546716 195.909939 
L 153.729345 191.417418 
L 155.207631 184.8899 
L 156.685917 176.97724 
L 158.755517 164.462846 
L 160.529461 153.964753 
L 161.71209 146.688981 
L 163.486033 133.79911 
L 165.259976 120.28587 
L 165.259976 120.28587 
" style="fill:none;stroke:#8eba42;stroke-linecap:square;stroke-width:1.5;"/>
   </g>
   <g id="line2d_40">
    <path clip-path="url(#p9d930f199f)" d="M 165.259976 120.28587 
L 165.851291 116.239319 
L 166.442605 113.940215 
L 167.03392 112.661947 
L 167.625234 111.959916 
L 168.216548 111.576972 
L 169.10352 111.303853 
L 170.581806 111.161746 
L 174.721007 111.12323 
L 410.064156 111.1227 
L 704.53875 111.1227 
L 704.53875 111.1227 
" style="fill:none;stroke:#ffb5b8;stroke-linecap:square;stroke-width:1.5;"/>
   </g>
   <g id="patch_3">
    <path d="M 67.98875 301.187403 
L 67.98875 102.072 
" style="fill:none;stroke:#ffffff;stroke-linecap:square;stroke-linejoin:miter;"/>
   </g>
   <g id="patch_4">
    <path d="M 704.53875 301.187403 
L 704.53875 102.072 
" style="fill:none;stroke:#ffffff;stroke-linecap:square;stroke-linejoin:miter;"/>
   </g>
   <g id="patch_5">
    <path d="M 67.98875 301.187403 
L 704.53875 301.187403 
" style="fill:none;stroke:#ffffff;stroke-linecap:square;stroke-linejoin:miter;"/>
   </g>
   <g id="patch_6">
    <path d="M 67.98875 102.072 
L 704.53875 102.072 
" style="fill:none;stroke:#ffffff;stroke-linecap:square;stroke-linejoin:miter;"/>
   </g>
  </g>
  <g id="axes_2">
   <g id="patch_7">
    <path d="M 67.98875 512.64 
L 704.53875 512.64 
L 704.53875 313.524597 
L 67.98875 313.524597 
z
" style="fill:#e5e5e5;"/>
   </g>
   <g id="matplotlib.axis_3">
    <g id="xtick_26">
     <g id="line2d_41">
      <g>
       <use style="fill:#555555;stroke:#555555;stroke-width:0.8;" x="67.98875" xlink:href="#md7d3a1b319" y="512.64"/>
      </g>
     </g>
    </g>
    <g id="xtick_27">
     <g id="line2d_42">
      <g>
       <use style="fill:#555555;stroke:#555555;stroke-width:0.8;" x="169.990492" xlink:href="#md7d3a1b319" y="512.64"/>
      </g>
     </g>
     <g id="text_11">
      <!-- 2021 -->
      <g style="fill:#555555;" transform="translate(146.910301 538.94544)rotate(-30)scale(0.1 -0.1)">
       <use xlink:href="#DejaVuSans-50"/>
       <use x="63.623047" xlink:href="#DejaVuSans-48"/>
       <use x="127.246094" xlink:href="#DejaVuSans-50"/>
       <use x="190.869141" xlink:href="#DejaVuSans-49"/>
      </g>
     </g>
    </g>
    <g id="xtick_28">
     <g id="line2d_43">
      <g>
       <use style="fill:#555555;stroke:#555555;stroke-width:0.8;" x="277.905378" xlink:href="#md7d3a1b319" y="512.64"/>
      </g>
     </g>
     <g id="text_12">
      <!-- 2022 -->
      <g style="fill:#555555;" transform="translate(254.825188 538.94544)rotate(-30)scale(0.1 -0.1)">
       <use xlink:href="#DejaVuSans-50"/>
       <use x="63.623047" xlink:href="#DejaVuSans-48"/>
       <use x="127.246094" xlink:href="#DejaVuSans-50"/>
       <use x="190.869141" xlink:href="#DejaVuSans-50"/>
      </g>
     </g>
    </g>
    <g id="xtick_29">
     <g id="line2d_44">
      <g>
       <use style="fill:#555555;stroke:#555555;stroke-width:0.8;" x="385.820264" xlink:href="#md7d3a1b319" y="512.64"/>
      </g>
     </g>
     <g id="text_13">
      <!-- 2023 -->
      <g style="fill:#555555;" transform="translate(362.740074 538.94544)rotate(-30)scale(0.1 -0.1)">
       <use xlink:href="#DejaVuSans-50"/>
       <use x="63.623047" xlink:href="#DejaVuSans-48"/>
       <use x="127.246094" xlink:href="#DejaVuSans-50"/>
       <use x="190.869141" xlink:href="#DejaVuSans-51"/>
      </g>
     </g>
    </g>
    <g id="xtick_30">
     <g id="line2d_45">
      <g>
       <use style="fill:#555555;stroke:#555555;stroke-width:0.8;" x="493.73515" xlink:href="#md7d3a1b319" y="512.64"/>
      </g>
     </g>
     <g id="text_14">
      <!-- 2024 -->
      <g style="fill:#555555;" transform="translate(470.65496 538.94544)rotate(-30)scale(0.1 -0.1)">
       <use xlink:href="#DejaVuSans-50"/>
       <use x="63.623047" xlink:href="#DejaVuSans-48"/>
       <use x="127.246094" xlink:href="#DejaVuSans-50"/>
       <use x="190.869141" xlink:href="#DejaVuSans-52"/>
      </g>
     </g>
    </g>
    <g id="xtick_31">
     <g id="line2d_46">
      <g>
       <use style="fill:#555555;stroke:#555555;stroke-width:0.8;" x="601.945694" xlink:href="#md7d3a1b319" y="512.64"/>
      </g>
     </g>
     <g id="text_15">
      <!-- 2025 -->
      <g style="fill:#555555;" transform="translate(578.865504 538.94544)rotate(-30)scale(0.1 -0.1)">
       <use xlink:href="#DejaVuSans-50"/>
       <use x="63.623047" xlink:href="#DejaVuSans-48"/>
       <use x="127.246094" xlink:href="#DejaVuSans-50"/>
       <use x="190.869141" xlink:href="#DejaVuSans-53"/>
      </g>
     </g>
    </g>
    <g id="xtick_32">
     <g id="line2d_47">
      <g>
       <use style="fill:#555555;stroke:#555555;stroke-width:0.8;" x="704.53875" xlink:href="#md7d3a1b319" y="512.64"/>
      </g>
     </g>
    </g>
    <g id="xtick_33">
     <g id="line2d_48">
      <g>
       <use style="fill:#555555;stroke:#555555;stroke-width:0.6;" x="88.684756" xlink:href="#m85b4be6339" y="512.64"/>
      </g>
     </g>
    </g>
    <g id="xtick_34">
     <g id="line2d_49">
      <g>
       <use style="fill:#555555;stroke:#555555;stroke-width:0.6;" x="115.589563" xlink:href="#m85b4be6339" y="512.64"/>
      </g>
     </g>
    </g>
    <g id="xtick_35">
     <g id="line2d_50">
      <g>
       <use style="fill:#555555;stroke:#555555;stroke-width:0.6;" x="142.790027" xlink:href="#m85b4be6339" y="512.64"/>
      </g>
     </g>
    </g>
    <g id="xtick_36">
     <g id="line2d_51">
      <g>
       <use style="fill:#555555;stroke:#555555;stroke-width:0.6;" x="196.599642" xlink:href="#m85b4be6339" y="512.64"/>
      </g>
     </g>
    </g>
    <g id="xtick_37">
     <g id="line2d_52">
      <g>
       <use style="fill:#555555;stroke:#555555;stroke-width:0.6;" x="223.504449" xlink:href="#m85b4be6339" y="512.64"/>
      </g>
     </g>
    </g>
    <g id="xtick_38">
     <g id="line2d_53">
      <g>
       <use style="fill:#555555;stroke:#555555;stroke-width:0.6;" x="250.704913" xlink:href="#m85b4be6339" y="512.64"/>
      </g>
     </g>
    </g>
    <g id="xtick_39">
     <g id="line2d_54">
      <g>
       <use style="fill:#555555;stroke:#555555;stroke-width:0.6;" x="304.514528" xlink:href="#m85b4be6339" y="512.64"/>
      </g>
     </g>
    </g>
    <g id="xtick_40">
     <g id="line2d_55">
      <g>
       <use style="fill:#555555;stroke:#555555;stroke-width:0.6;" x="331.419335" xlink:href="#m85b4be6339" y="512.64"/>
      </g>
     </g>
    </g>
    <g id="xtick_41">
     <g id="line2d_56">
      <g>
       <use style="fill:#555555;stroke:#555555;stroke-width:0.6;" x="358.6198" xlink:href="#m85b4be6339" y="512.64"/>
      </g>
     </g>
    </g>
    <g id="xtick_42">
     <g id="line2d_57">
      <g>
       <use style="fill:#555555;stroke:#555555;stroke-width:0.6;" x="412.429414" xlink:href="#m85b4be6339" y="512.64"/>
      </g>
     </g>
    </g>
    <g id="xtick_43">
     <g id="line2d_58">
      <g>
       <use style="fill:#555555;stroke:#555555;stroke-width:0.6;" x="439.334221" xlink:href="#m85b4be6339" y="512.64"/>
      </g>
     </g>
    </g>
    <g id="xtick_44">
     <g id="line2d_59">
      <g>
       <use style="fill:#555555;stroke:#555555;stroke-width:0.6;" x="466.534686" xlink:href="#m85b4be6339" y="512.64"/>
      </g>
     </g>
    </g>
    <g id="xtick_45">
     <g id="line2d_60">
      <g>
       <use style="fill:#555555;stroke:#555555;stroke-width:0.6;" x="520.639958" xlink:href="#m85b4be6339" y="512.64"/>
      </g>
     </g>
    </g>
    <g id="xtick_46">
     <g id="line2d_61">
      <g>
       <use style="fill:#555555;stroke:#555555;stroke-width:0.6;" x="547.544765" xlink:href="#m85b4be6339" y="512.64"/>
      </g>
     </g>
    </g>
    <g id="xtick_47">
     <g id="line2d_62">
      <g>
       <use style="fill:#555555;stroke:#555555;stroke-width:0.6;" x="574.745229" xlink:href="#m85b4be6339" y="512.64"/>
      </g>
     </g>
    </g>
    <g id="xtick_48">
     <g id="line2d_63">
      <g>
       <use style="fill:#555555;stroke:#555555;stroke-width:0.6;" x="628.554844" xlink:href="#m85b4be6339" y="512.64"/>
      </g>
     </g>
    </g>
    <g id="xtick_49">
     <g id="line2d_64">
      <g>
       <use style="fill:#555555;stroke:#555555;stroke-width:0.6;" x="655.459651" xlink:href="#m85b4be6339" y="512.64"/>
      </g>
     </g>
    </g>
    <g id="xtick_50">
     <g id="line2d_65">
      <g>
       <use style="fill:#555555;stroke:#555555;stroke-width:0.6;" x="682.660116" xlink:href="#m85b4be6339" y="512.64"/>
      </g>
     </g>
    </g>
    <g id="text_16">
     <!-- Date -->
     <g style="fill:#555555;" transform="translate(371.922813 553.864627)scale(0.12 -0.12)">
      <defs>
       <path d="M 19.671875 64.796875 
L 19.671875 8.109375 
L 31.59375 8.109375 
Q 46.6875 8.109375 53.6875 14.9375 
Q 60.6875 21.78125 60.6875 36.53125 
Q 60.6875 51.171875 53.6875 57.984375 
Q 46.6875 64.796875 31.59375 64.796875 
z
M 9.8125 72.90625 
L 30.078125 72.90625 
Q 51.265625 72.90625 61.171875 64.09375 
Q 71.09375 55.28125 71.09375 36.53125 
Q 71.09375 17.671875 61.125 8.828125 
Q 51.171875 0 30.078125 0 
L 9.8125 0 
z
" id="DejaVuSans-68"/>
      </defs>
      <use xlink:href="#DejaVuSans-68"/>
      <use x="77.001953" xlink:href="#DejaVuSans-97"/>
      <use x="138.28125" xlink:href="#DejaVuSans-116"/>
      <use x="177.490234" xlink:href="#DejaVuSans-101"/>
     </g>
    </g>
   </g>
   <g id="matplotlib.axis_4">
    <g id="ytick_9">
     <g id="line2d_66">
      <g>
       <use style="fill:#555555;stroke:#555555;stroke-width:0.8;" x="67.98875" xlink:href="#mb79bdd3244" y="503.5893"/>
      </g>
     </g>
     <g id="text_17">
      <!-- 0 -->
      <g style="fill:#555555;" transform="translate(54.62625 507.388519)scale(0.1 -0.1)">
       <use xlink:href="#DejaVuSans-48"/>
      </g>
     </g>
    </g>
    <g id="ytick_10">
     <g id="line2d_67">
      <g>
       <use style="fill:#555555;stroke:#555555;stroke-width:0.8;" x="67.98875" xlink:href="#mb79bdd3244" y="462.190417"/>
      </g>
     </g>
     <g id="text_18">
      <!-- 200000 -->
      <g style="fill:#555555;" transform="translate(22.81375 465.989635)scale(0.1 -0.1)">
       <use xlink:href="#DejaVuSans-50"/>
       <use x="63.623047" xlink:href="#DejaVuSans-48"/>
       <use x="127.246094" xlink:href="#DejaVuSans-48"/>
       <use x="190.869141" xlink:href="#DejaVuSans-48"/>
       <use x="254.492188" xlink:href="#DejaVuSans-48"/>
       <use x="318.115234" xlink:href="#DejaVuSans-48"/>
      </g>
     </g>
    </g>
    <g id="ytick_11">
     <g id="line2d_68">
      <g>
       <use style="fill:#555555;stroke:#555555;stroke-width:0.8;" x="67.98875" xlink:href="#mb79bdd3244" y="420.791533"/>
      </g>
     </g>
     <g id="text_19">
      <!-- 400000 -->
      <g style="fill:#555555;" transform="translate(22.81375 424.590752)scale(0.1 -0.1)">
       <use xlink:href="#DejaVuSans-52"/>
       <use x="63.623047" xlink:href="#DejaVuSans-48"/>
       <use x="127.246094" xlink:href="#DejaVuSans-48"/>
       <use x="190.869141" xlink:href="#DejaVuSans-48"/>
       <use x="254.492188" xlink:href="#DejaVuSans-48"/>
       <use x="318.115234" xlink:href="#DejaVuSans-48"/>
      </g>
     </g>
    </g>
    <g id="ytick_12">
     <g id="line2d_69">
      <g>
       <use style="fill:#555555;stroke:#555555;stroke-width:0.8;" x="67.98875" xlink:href="#mb79bdd3244" y="379.39265"/>
      </g>
     </g>
     <g id="text_20">
      <!-- 600000 -->
      <g style="fill:#555555;" transform="translate(22.81375 383.191869)scale(0.1 -0.1)">
       <use xlink:href="#DejaVuSans-54"/>
       <use x="63.623047" xlink:href="#DejaVuSans-48"/>
       <use x="127.246094" xlink:href="#DejaVuSans-48"/>
       <use x="190.869141" xlink:href="#DejaVuSans-48"/>
       <use x="254.492188" xlink:href="#DejaVuSans-48"/>
       <use x="318.115234" xlink:href="#DejaVuSans-48"/>
      </g>
     </g>
    </g>
    <g id="ytick_13">
     <g id="line2d_70">
      <g>
       <use style="fill:#555555;stroke:#555555;stroke-width:0.8;" x="67.98875" xlink:href="#mb79bdd3244" y="337.993766"/>
      </g>
     </g>
     <g id="text_21">
      <!-- 800000 -->
      <g style="fill:#555555;" transform="translate(22.81375 341.792985)scale(0.1 -0.1)">
       <defs>
        <path d="M 31.78125 34.625 
Q 24.75 34.625 20.71875 30.859375 
Q 16.703125 27.09375 16.703125 20.515625 
Q 16.703125 13.921875 20.71875 10.15625 
Q 24.75 6.390625 31.78125 6.390625 
Q 38.8125 6.390625 42.859375 10.171875 
Q 46.921875 13.96875 46.921875 20.515625 
Q 46.921875 27.09375 42.890625 30.859375 
Q 38.875 34.625 31.78125 34.625 
z
M 21.921875 38.8125 
Q 15.578125 40.375 12.03125 44.71875 
Q 8.5 49.078125 8.5 55.328125 
Q 8.5 64.0625 14.71875 69.140625 
Q 20.953125 74.21875 31.78125 74.21875 
Q 42.671875 74.21875 48.875 69.140625 
Q 55.078125 64.0625 55.078125 55.328125 
Q 55.078125 49.078125 51.53125 44.71875 
Q 48 40.375 41.703125 38.8125 
Q 48.828125 37.15625 52.796875 32.3125 
Q 56.78125 27.484375 56.78125 20.515625 
Q 56.78125 9.90625 50.3125 4.234375 
Q 43.84375 -1.421875 31.78125 -1.421875 
Q 19.734375 -1.421875 13.25 4.234375 
Q 6.78125 9.90625 6.78125 20.515625 
Q 6.78125 27.484375 10.78125 32.3125 
Q 14.796875 37.15625 21.921875 38.8125 
z
M 18.3125 54.390625 
Q 18.3125 48.734375 21.84375 45.5625 
Q 25.390625 42.390625 31.78125 42.390625 
Q 38.140625 42.390625 41.71875 45.5625 
Q 45.3125 48.734375 45.3125 54.390625 
Q 45.3125 60.0625 41.71875 63.234375 
Q 38.140625 66.40625 31.78125 66.40625 
Q 25.390625 66.40625 21.84375 63.234375 
Q 18.3125 60.0625 18.3125 54.390625 
z
" id="DejaVuSans-56"/>
       </defs>
       <use xlink:href="#DejaVuSans-56"/>
       <use x="63.623047" xlink:href="#DejaVuSans-48"/>
       <use x="127.246094" xlink:href="#DejaVuSans-48"/>
       <use x="190.869141" xlink:href="#DejaVuSans-48"/>
       <use x="254.492188" xlink:href="#DejaVuSans-48"/>
       <use x="318.115234" xlink:href="#DejaVuSans-48"/>
      </g>
     </g>
    </g>
    <g id="text_22">
     <!-- Daily -->
     <g style="fill:#555555;" transform="translate(16.318125 428.264173)rotate(-90)scale(0.12 -0.12)">
      <defs>
       <path d="M 9.421875 54.6875 
L 18.40625 54.6875 
L 18.40625 0 
L 9.421875 0 
z
M 9.421875 75.984375 
L 18.40625 75.984375 
L 18.40625 64.59375 
L 9.421875 64.59375 
z
" id="DejaVuSans-105"/>
       <path d="M 32.171875 -5.078125 
Q 28.375 -14.84375 24.75 -17.8125 
Q 21.140625 -20.796875 15.09375 -20.796875 
L 7.90625 -20.796875 
L 7.90625 -13.28125 
L 13.1875 -13.28125 
Q 16.890625 -13.28125 18.9375 -11.515625 
Q 21 -9.765625 23.484375 -3.21875 
L 25.09375 0.875 
L 2.984375 54.6875 
L 12.5 54.6875 
L 29.59375 11.921875 
L 46.6875 54.6875 
L 56.203125 54.6875 
z
" id="DejaVuSans-121"/>
      </defs>
      <use xlink:href="#DejaVuSans-68"/>
      <use x="77.001953" xlink:href="#DejaVuSans-97"/>
      <use x="138.28125" xlink:href="#DejaVuSans-105"/>
      <use x="166.064453" xlink:href="#DejaVuSans-108"/>
      <use x="193.847656" xlink:href="#DejaVuSans-121"/>
     </g>
    </g>
   </g>
   <g id="line2d_71">
    <path clip-path="url(#p9ef583f5ab)" d="M 68.284407 503.5893 
L 83.658583 503.509666 
L 84.545554 503.352084 
L 85.432526 502.907786 
L 86.615155 501.826772 
L 87.797784 500.368348 
L 88.389098 499.5831 
L 89.571727 498.01429 
L 90.163042 497.499495 
L 91.345671 496.993364 
L 92.528299 497.353741 
L 94.006586 497.609409 
L 94.302243 497.5322 
L 94.893557 497.631409 
L 96.076186 497.40475 
L 96.667501 497.600863 
L 99.328416 498.054328 
L 99.91973 498.359113 
L 100.511044 498.641246 
L 102.284988 498.92131 
L 102.580645 498.845609 
L 103.171959 498.832923 
L 104.945903 499.121621 
L 105.537217 499.34417 
L 106.424189 499.26291 
L 106.719846 499.062569 
L 107.311161 498.961171 
L 108.493789 499.083091 
L 109.085104 499.403281 
L 110.859047 499.122774 
L 112.632991 498.08174 
L 115.589563 494.56387 
L 115.88522 494.11212 
L 117.067849 493.416471 
L 117.659163 492.73333 
L 118.250478 492.281905 
L 118.841792 491.574575 
L 119.137449 491.139029 
L 119.728764 490.693459 
L 120.320078 489.924149 
L 121.798364 489.718515 
L 122.094022 489.954755 
L 122.685336 489.829169 
L 123.276651 490.161513 
L 123.867965 490.11831 
L 124.163622 490.142943 
L 124.754937 490.529963 
L 125.641908 491.368379 
L 125.937566 491.878916 
L 126.824537 492.506375 
L 127.415852 492.38348 
L 127.711509 492.689772 
L 128.007166 492.620577 
L 128.302823 492.840908 
L 128.598481 492.659048 
L 130.372424 493.960836 
L 130.668081 494.434233 
L 132.146367 494.939388 
L 133.328996 494.888023 
L 134.511625 495.050573 
L 134.807282 494.955208 
L 135.398597 495.115422 
L 136.581226 496.332135 
L 137.17254 496.47984 
L 137.468197 496.395712 
L 138.355169 495.587191 
L 138.650826 495.328596 
L 139.537798 495.118438 
L 139.833455 494.592317 
L 141.607398 494.562953 
L 141.903056 495.135116 
L 142.49437 494.958934 
L 142.790027 494.980225 
L 143.381342 494.656397 
L 143.676999 494.690787 
L 143.972656 494.49707 
L 144.268313 494.437042 
L 145.155285 493.732788 
L 146.633571 492.724399 
L 146.929228 492.542688 
L 147.224886 492.168146 
L 147.8162 492.01225 
L 148.111857 491.250363 
L 148.407515 490.967845 
L 148.703172 490.862692 
L 149.294486 490.165091 
L 149.590143 489.399448 
L 149.885801 489.031057 
L 150.181458 489.043684 
L 151.659744 486.996125 
L 151.955401 485.737066 
L 152.251058 485.245396 
L 152.546716 483.762901 
L 152.842373 483.031561 
L 153.729345 479.92972 
L 154.025002 479.749368 
L 154.320659 478.618085 
L 154.616316 478.23553 
L 155.798945 473.249921 
L 156.094602 472.493002 
L 156.39026 471.385168 
L 156.981574 469.965275 
L 157.572888 468.631787 
L 159.051175 466.966783 
L 159.346832 469.196941 
L 159.642489 468.97111 
L 159.938146 469.715994 
L 160.529461 470.253795 
L 160.825118 469.961637 
L 161.120775 469.427414 
L 161.416432 466.300941 
L 161.71209 465.546328 
L 162.303404 462.538552 
L 163.190376 459.889674 
L 163.78169 459.547423 
L 164.077347 459.437982 
L 164.373005 459.130507 
L 164.668662 459.02148 
L 164.964319 459.647431 
L 165.259976 458.933596 
L 165.259976 458.933596 
" style="fill:none;stroke:#e24a33;stroke-linecap:square;stroke-width:1.5;"/>
   </g>
   <g id="line2d_72">
    <path clip-path="url(#p9ef583f5ab)" d="M 165.555633 458.335799 
L 167.625234 470.597166 
L 169.10352 478.157598 
L 170.286149 483.263351 
L 171.468778 487.523997 
L 172.651407 491.003323 
L 173.834036 493.797422 
L 175.016665 496.012428 
L 176.199293 497.750984 
L 177.381922 499.105197 
L 178.564551 500.153882 
L 180.042837 501.133378 
L 181.521123 501.837369 
L 183.295067 502.423514 
L 185.364667 502.86579 
L 188.025582 503.198182 
L 191.869126 503.428739 
L 198.373585 503.553784 
L 216.704333 503.588795 
L 704.53875 503.5893 
L 704.53875 503.5893 
" style="fill:none;stroke:#348abd;stroke-linecap:square;stroke-width:1.5;"/>
   </g>
   <g id="line2d_73">
    <path clip-path="url(#p9ef583f5ab)" d="M 165.555633 458.335799 
L 167.625234 470.597166 
L 169.10352 478.157598 
L 170.286149 483.263351 
L 171.468778 487.523997 
L 172.651407 491.003323 
L 173.834036 493.797422 
L 175.016665 496.012428 
L 176.199293 497.750984 
L 177.381922 499.105197 
L 178.564551 500.153882 
L 180.042837 501.133378 
L 181.521123 501.837369 
L 183.295067 502.423514 
L 185.364667 502.86579 
L 188.025582 503.198182 
L 191.869126 503.428739 
L 198.373585 503.553784 
L 216.704333 503.588795 
L 704.53875 503.5893 
L 704.53875 503.5893 
" style="fill:none;stroke:#988ed5;stroke-linecap:square;stroke-width:1.5;"/>
   </g>
   <g id="line2d_74">
    <path clip-path="url(#p9ef583f5ab)" d="M 68.284407 503.5893 
L 82.475954 503.497039 
L 83.95424 503.226912 
L 84.545554 502.877653 
L 85.136869 502.009252 
L 85.432526 501.544757 
L 86.615155 498.301716 
L 87.797784 493.926446 
L 88.093441 492.963833 
L 88.980413 489.232699 
L 89.867384 486.037652 
L 90.458699 484.867986 
L 91.050013 483.93589 
L 91.345671 483.801491 
L 91.641328 484.130346 
L 91.936985 484.24301 
L 92.528299 484.882623 
L 93.710928 485.539801 
L 94.006586 485.649626 
L 94.302243 485.417999 
L 94.5979 485.640134 
L 94.893557 485.715628 
L 96.076186 485.035651 
L 96.371843 485.49988 
L 96.963158 485.757322 
L 97.258815 486.08529 
L 97.554472 486.04191 
L 98.145787 486.59148 
L 98.737101 486.587577 
L 99.328416 486.984385 
L 99.624073 487.648926 
L 99.91973 487.898739 
L 100.511044 488.745139 
L 100.806702 488.90349 
L 101.102359 489.269515 
L 102.284988 489.585329 
L 102.580645 489.358227 
L 102.876302 489.506376 
L 103.171959 489.320169 
L 103.763274 489.60733 
L 104.058931 489.865747 
L 104.354588 489.721058 
L 104.650246 490.04397 
L 104.945903 490.186264 
L 105.537217 490.853909 
L 105.832874 490.770165 
L 106.128532 490.52949 
L 106.424189 490.610129 
L 106.719846 490.009106 
L 107.311161 489.704913 
L 107.606818 489.83665 
L 107.902475 489.7223 
L 108.493789 490.070672 
L 108.789447 490.748608 
L 109.085104 491.031244 
L 109.676418 490.782496 
L 109.972076 490.840691 
L 110.267733 490.490811 
L 110.859047 490.189723 
L 112.337333 487.656999 
L 112.632991 487.066621 
L 115.589563 476.513011 
L 115.88522 475.157759 
L 117.067849 473.070812 
L 117.363506 471.755569 
L 118.250478 469.667114 
L 118.546135 468.32029 
L 118.841792 467.545126 
L 119.137449 466.238488 
L 119.728764 464.901777 
L 120.320078 462.593849 
L 120.911393 462.291519 
L 121.20705 462.000455 
L 121.502707 462.315826 
L 121.798364 461.976946 
L 122.094022 462.685665 
L 122.685336 462.308906 
L 123.276651 463.305939 
L 123.572308 463.162935 
L 124.163622 463.250228 
L 124.459279 463.664512 
L 125.641908 466.926537 
L 125.937566 468.458148 
L 126.52888 470.108811 
L 126.824537 470.340526 
L 127.120194 470.321719 
L 127.415852 469.971839 
L 127.711509 470.890717 
L 128.007166 470.683131 
L 128.302823 471.344124 
L 128.598481 470.798545 
L 129.485452 473.007294 
L 129.781109 473.177444 
L 130.372424 474.703909 
L 130.668081 476.124098 
L 130.963738 476.419952 
L 131.259396 476.991434 
L 131.555053 477.021241 
L 131.85071 477.456817 
L 132.146367 477.639563 
L 132.442025 477.528052 
L 132.737682 477.682411 
L 133.033339 477.504987 
L 133.328996 477.485471 
L 133.624653 477.599909 
L 133.920311 477.446437 
L 134.215968 477.852205 
L 134.511625 477.97312 
L 134.807282 477.687024 
L 135.398597 478.167665 
L 136.285568 481.144393 
L 136.581226 481.817805 
L 137.17254 482.26092 
L 137.468197 482.008535 
L 138.355169 479.582975 
L 138.650826 478.807189 
L 139.242141 478.54265 
L 139.537798 478.176714 
L 139.833455 476.598352 
L 141.016084 476.578569 
L 141.311741 476.405669 
L 141.607398 476.510261 
L 141.903056 478.226747 
L 142.49437 477.698202 
L 142.790027 477.762074 
L 143.381342 476.79059 
L 143.676999 476.893762 
L 143.972656 476.312611 
L 144.268313 476.132525 
L 144.859628 474.151323 
L 145.155285 474.019763 
L 145.450942 473.49104 
L 145.7466 472.580235 
L 146.042257 472.378859 
L 146.929228 470.449464 
L 147.224886 469.325839 
L 147.8162 468.85815 
L 148.111857 466.572488 
L 148.407515 465.724935 
L 148.703172 465.409475 
L 149.294486 463.316673 
L 149.590143 461.019745 
L 149.885801 459.914572 
L 150.181458 459.952452 
L 151.659744 453.809774 
L 151.955401 450.032599 
L 152.251058 448.557587 
L 152.546716 444.110105 
L 152.842373 441.916082 
L 153.729345 432.61056 
L 154.025002 432.069506 
L 154.320659 428.675655 
L 154.616316 427.527989 
L 155.798945 412.571164 
L 156.094602 410.300406 
L 156.39026 406.976903 
L 156.981574 402.717224 
L 157.572888 398.716761 
L 158.164203 396.702026 
L 158.45986 395.889159 
L 159.051175 393.72175 
L 159.346832 400.412223 
L 159.642489 399.73473 
L 159.938146 401.969383 
L 160.233803 402.594624 
L 160.529461 403.582786 
L 160.825118 402.706313 
L 161.120775 401.103644 
L 161.416432 391.724224 
L 161.71209 389.460385 
L 162.303404 380.437055 
L 163.190376 372.490421 
L 163.78169 371.46367 
L 164.077347 371.135347 
L 164.373005 370.212921 
L 164.668662 369.88584 
L 164.964319 371.763693 
L 165.259976 369.622188 
L 165.259976 369.622188 
" style="fill:none;stroke:#777777;stroke-linecap:square;stroke-width:1.5;"/>
   </g>
   <g id="line2d_75">
    <path clip-path="url(#p9ef583f5ab)" d="M 165.555633 367.828798 
L 166.146948 409.721236 
L 166.738262 439.820189 
L 167.329577 460.790028 
L 167.920891 475.099072 
L 168.512206 484.728205 
L 169.10352 491.148446 
L 169.694835 495.40308 
L 170.286149 498.211255 
L 170.877463 500.059825 
L 171.468778 501.274589 
L 172.060092 502.071944 
L 172.947064 502.784392 
L 173.834036 503.162476 
L 175.016665 503.406154 
L 177.086265 503.547649 
L 182.703752 503.588552 
L 414.499015 503.5893 
L 704.53875 503.5893 
L 704.53875 503.5893 
" style="fill:none;stroke:#fbc15e;stroke-linecap:square;stroke-width:1.5;"/>
   </g>
   <g id="line2d_76">
    <path clip-path="url(#p9ef583f5ab)" d="M 68.284407 503.5893 
L 82.475954 503.466286 
L 83.658583 503.270765 
L 84.249897 502.911541 
L 84.545554 502.640437 
L 85.136869 501.48257 
L 85.432526 500.863243 
L 86.615155 496.539188 
L 87.797784 490.705494 
L 88.093441 489.422011 
L 88.980413 484.447166 
L 89.867384 480.187103 
L 90.458699 478.627547 
L 91.050013 477.384753 
L 91.345671 477.205555 
L 91.641328 477.644028 
L 91.936985 477.794247 
L 92.528299 478.647064 
L 93.710928 479.523301 
L 94.006586 479.669735 
L 94.302243 479.360899 
L 94.5979 479.657079 
L 94.893557 479.757737 
L 95.484872 479.418858 
L 95.780529 478.987718 
L 96.076186 478.851101 
L 96.371843 479.470074 
L 96.963158 479.81333 
L 97.258815 480.25062 
L 97.554472 480.19278 
L 98.145787 480.92554 
L 98.737101 480.920336 
L 99.328416 481.449414 
L 99.624073 482.335468 
L 99.91973 482.668552 
L 100.511044 483.797085 
L 100.806702 484.008219 
L 101.102359 484.496253 
L 101.693673 484.741335 
L 102.284988 484.917339 
L 102.580645 484.614536 
L 102.876302 484.812067 
L 103.171959 484.563792 
L 103.763274 484.946673 
L 104.058931 485.29123 
L 104.354588 485.098311 
L 104.650246 485.52886 
L 104.945903 485.718585 
L 105.537217 486.608779 
L 105.832874 486.49712 
L 106.128532 486.17622 
L 106.424189 486.283739 
L 106.719846 485.482375 
L 107.311161 485.076784 
L 107.606818 485.252433 
L 107.902475 485.099967 
L 108.493789 485.564463 
L 108.789447 486.468378 
L 109.085104 486.845226 
L 109.676418 486.513562 
L 109.972076 486.591155 
L 110.267733 486.124649 
L 110.859047 485.723198 
L 112.337333 482.346232 
L 112.632991 481.559062 
L 115.589563 467.487581 
L 115.88522 465.680579 
L 117.067849 462.897983 
L 117.363506 461.144326 
L 118.250478 458.359719 
L 118.546135 456.563953 
L 118.841792 455.530401 
L 119.137449 453.788217 
L 119.728764 452.005936 
L 120.320078 448.928698 
L 120.911393 448.525591 
L 121.20705 448.137506 
L 121.502707 448.558001 
L 121.798364 448.106162 
L 122.094022 449.051121 
L 122.389679 448.868611 
L 122.685336 448.548775 
L 123.276651 449.878152 
L 123.572308 449.687481 
L 124.163622 449.803871 
L 124.459279 450.35625 
L 125.641908 454.705617 
L 125.937566 456.747764 
L 126.52888 458.948647 
L 126.824537 459.257601 
L 127.120194 459.232525 
L 127.415852 458.766019 
L 127.711509 459.99119 
L 128.007166 459.714408 
L 128.302823 460.595732 
L 128.598481 459.868294 
L 129.485452 462.813292 
L 129.781109 463.040158 
L 130.372424 465.075446 
L 130.668081 466.96903 
L 130.963738 467.363503 
L 131.259396 468.125479 
L 131.555053 468.165222 
L 131.85071 468.745989 
L 132.146367 468.989651 
L 132.442025 468.84097 
L 132.737682 469.046781 
L 133.033339 468.810216 
L 133.328996 468.784194 
L 133.624653 468.936779 
L 133.920311 468.73215 
L 134.215968 469.273174 
L 134.511625 469.434393 
L 134.807282 469.052932 
L 135.398597 469.693787 
L 136.285568 473.662757 
L 136.581226 474.560639 
L 137.17254 475.151461 
L 137.468197 474.814947 
L 138.355169 471.580866 
L 138.650826 470.546485 
L 139.242141 470.193767 
L 139.537798 469.705852 
L 139.833455 467.601369 
L 140.42477 467.572271 
L 140.720427 467.424891 
L 141.016084 467.574992 
L 141.311741 467.344459 
L 141.607398 467.483914 
L 141.903056 469.772563 
L 142.49437 469.067836 
L 142.790027 469.152999 
L 143.381342 467.857687 
L 143.676999 467.99525 
L 143.972656 467.220381 
L 144.268313 466.980267 
L 144.859628 464.338664 
L 145.155285 464.163251 
L 145.450942 463.458287 
L 145.7466 462.24388 
L 146.042257 461.975379 
L 146.929228 459.402852 
L 147.224886 457.904686 
L 147.8162 457.2811 
L 148.111857 454.233551 
L 148.407515 453.10348 
L 148.703172 452.682867 
L 149.294486 449.892464 
L 149.590143 446.829893 
L 149.885801 445.356329 
L 150.181458 445.406836 
L 151.659744 437.216599 
L 151.955401 432.180366 
L 152.251058 430.213682 
L 152.546716 424.283706 
L 152.842373 421.358343 
L 153.729345 408.950979 
L 154.025002 408.229574 
L 154.320659 403.70444 
L 154.616316 402.174219 
L 155.798945 382.231785 
L 156.094602 379.204107 
L 156.39026 374.772771 
L 156.981574 369.093199 
L 157.572888 363.759249 
L 158.164203 361.072934 
L 158.45986 359.989111 
L 159.051175 357.099233 
L 159.346832 366.019864 
L 159.642489 365.116541 
L 159.938146 368.096077 
L 160.233803 368.929733 
L 160.529461 370.247282 
L 160.825118 369.07865 
L 161.120775 366.941758 
L 161.416432 354.435865 
L 161.71209 351.417414 
L 162.303404 339.386307 
L 163.190376 328.790795 
L 163.78169 327.421793 
L 164.077347 326.984029 
L 164.373005 325.754127 
L 164.668662 325.31802 
L 164.964319 327.821824 
L 165.259976 324.966484 
L 165.259976 324.966484 
" style="fill:none;stroke:#8eba42;stroke-linecap:square;stroke-width:1.5;"/>
   </g>
   <g id="line2d_77">
    <path clip-path="url(#p9ef583f5ab)" d="M 165.555633 322.575297 
L 166.146948 400.132922 
L 166.738262 445.875446 
L 167.329577 471.833243 
L 167.920891 486.249224 
L 168.512206 494.160615 
L 169.10352 498.474175 
L 169.694835 500.817764 
L 170.286149 502.088608 
L 170.877463 502.777023 
L 171.468778 503.149728 
L 172.35575 503.41434 
L 173.834036 503.551626 
L 177.973237 503.588789 
L 421.890445 503.5893 
L 704.53875 503.5893 
L 704.53875 503.5893 
" style="fill:none;stroke:#ffb5b8;stroke-linecap:square;stroke-width:1.5;"/>
   </g>
   <g id="patch_8">
    <path d="M 67.98875 512.64 
L 67.98875 313.524597 
" style="fill:none;stroke:#ffffff;stroke-linecap:square;stroke-linejoin:miter;"/>
   </g>
   <g id="patch_9">
    <path d="M 704.53875 512.64 
L 704.53875 313.524597 
" style="fill:none;stroke:#ffffff;stroke-linecap:square;stroke-linejoin:miter;"/>
   </g>
   <g id="patch_10">
    <path d="M 67.98875 512.64 
L 704.53875 512.64 
" style="fill:none;stroke:#ffffff;stroke-linecap:square;stroke-linejoin:miter;"/>
   </g>
   <g id="patch_11">
    <path d="M 67.98875 313.524597 
L 704.53875 313.524597 
" style="fill:none;stroke:#ffffff;stroke-linecap:square;stroke-linejoin:miter;"/>
   </g>
   <g id="legend_1">
    <g id="patch_12">
     <path d="M 472.829375 424.271472 
L 697.53875 424.271472 
Q 699.53875 424.271472 699.53875 422.271472 
L 699.53875 320.524597 
Q 699.53875 318.524597 697.53875 318.524597 
L 472.829375 318.524597 
Q 470.829375 318.524597 470.829375 320.524597 
L 470.829375 422.271472 
Q 470.829375 424.271472 472.829375 424.271472 
z
" style="fill:#e5e5e5;opacity:0.8;stroke:#cccccc;stroke-linejoin:miter;stroke-width:0.5;"/>
    </g>
    <g id="line2d_78">
     <path d="M 474.829375 326.623034 
L 494.829375 326.623034 
" style="fill:none;stroke:#e24a33;stroke-linecap:square;stroke-width:1.5;"/>
    </g>
    <g id="line2d_79"/>
    <g id="text_23">
     <!-- Cases -->
     <g transform="translate(502.829375 330.123034)scale(0.1 -0.1)">
      <defs>
       <path d="M 64.40625 67.28125 
L 64.40625 56.890625 
Q 59.421875 61.53125 53.78125 63.8125 
Q 48.140625 66.109375 41.796875 66.109375 
Q 29.296875 66.109375 22.65625 58.46875 
Q 16.015625 50.828125 16.015625 36.375 
Q 16.015625 21.96875 22.65625 14.328125 
Q 29.296875 6.6875 41.796875 6.6875 
Q 48.140625 6.6875 53.78125 8.984375 
Q 59.421875 11.28125 64.40625 15.921875 
L 64.40625 5.609375 
Q 59.234375 2.09375 53.4375 0.328125 
Q 47.65625 -1.421875 41.21875 -1.421875 
Q 24.65625 -1.421875 15.125 8.703125 
Q 5.609375 18.84375 5.609375 36.375 
Q 5.609375 53.953125 15.125 64.078125 
Q 24.65625 74.21875 41.21875 74.21875 
Q 47.75 74.21875 53.53125 72.484375 
Q 59.328125 70.75 64.40625 67.28125 
z
" id="DejaVuSans-67"/>
       <path d="M 44.28125 53.078125 
L 44.28125 44.578125 
Q 40.484375 46.53125 36.375 47.5 
Q 32.28125 48.484375 27.875 48.484375 
Q 21.1875 48.484375 17.84375 46.4375 
Q 14.5 44.390625 14.5 40.28125 
Q 14.5 37.15625 16.890625 35.375 
Q 19.28125 33.59375 26.515625 31.984375 
L 29.59375 31.296875 
Q 39.15625 29.25 43.1875 25.515625 
Q 47.21875 21.78125 47.21875 15.09375 
Q 47.21875 7.46875 41.1875 3.015625 
Q 35.15625 -1.421875 24.609375 -1.421875 
Q 20.21875 -1.421875 15.453125 -0.5625 
Q 10.6875 0.296875 5.421875 2 
L 5.421875 11.28125 
Q 10.40625 8.6875 15.234375 7.390625 
Q 20.0625 6.109375 24.8125 6.109375 
Q 31.15625 6.109375 34.5625 8.28125 
Q 37.984375 10.453125 37.984375 14.40625 
Q 37.984375 18.0625 35.515625 20.015625 
Q 33.0625 21.96875 24.703125 23.78125 
L 21.578125 24.515625 
Q 13.234375 26.265625 9.515625 29.90625 
Q 5.8125 33.546875 5.8125 39.890625 
Q 5.8125 47.609375 11.28125 51.796875 
Q 16.75 56 26.8125 56 
Q 31.78125 56 36.171875 55.265625 
Q 40.578125 54.546875 44.28125 53.078125 
z
" id="DejaVuSans-115"/>
      </defs>
      <use xlink:href="#DejaVuSans-67"/>
      <use x="69.824219" xlink:href="#DejaVuSans-97"/>
      <use x="131.103516" xlink:href="#DejaVuSans-115"/>
      <use x="183.203125" xlink:href="#DejaVuSans-101"/>
      <use x="244.726562" xlink:href="#DejaVuSans-115"/>
     </g>
    </g>
    <g id="line2d_80">
     <path d="M 474.829375 341.301159 
L 494.829375 341.301159 
" style="fill:none;stroke:#348abd;stroke-linecap:square;stroke-width:1.5;"/>
    </g>
    <g id="line2d_81"/>
    <g id="text_24">
     <!-- Projected Cases (last 1D avg rate) -->
     <g transform="translate(502.829375 344.801159)scale(0.1 -0.1)">
      <defs>
       <path d="M 19.671875 64.796875 
L 19.671875 37.40625 
L 32.078125 37.40625 
Q 38.96875 37.40625 42.71875 40.96875 
Q 46.484375 44.53125 46.484375 51.125 
Q 46.484375 57.671875 42.71875 61.234375 
Q 38.96875 64.796875 32.078125 64.796875 
z
M 9.8125 72.90625 
L 32.078125 72.90625 
Q 44.34375 72.90625 50.609375 67.359375 
Q 56.890625 61.8125 56.890625 51.125 
Q 56.890625 40.328125 50.609375 34.8125 
Q 44.34375 29.296875 32.078125 29.296875 
L 19.671875 29.296875 
L 19.671875 0 
L 9.8125 0 
z
" id="DejaVuSans-80"/>
       <path d="M 41.109375 46.296875 
Q 39.59375 47.171875 37.8125 47.578125 
Q 36.03125 48 33.890625 48 
Q 26.265625 48 22.1875 43.046875 
Q 18.109375 38.09375 18.109375 28.8125 
L 18.109375 0 
L 9.078125 0 
L 9.078125 54.6875 
L 18.109375 54.6875 
L 18.109375 46.1875 
Q 20.953125 51.171875 25.484375 53.578125 
Q 30.03125 56 36.53125 56 
Q 37.453125 56 38.578125 55.875 
Q 39.703125 55.765625 41.0625 55.515625 
z
" id="DejaVuSans-114"/>
       <path d="M 9.421875 54.6875 
L 18.40625 54.6875 
L 18.40625 -0.984375 
Q 18.40625 -11.421875 14.421875 -16.109375 
Q 10.453125 -20.796875 1.609375 -20.796875 
L -1.8125 -20.796875 
L -1.8125 -13.1875 
L 0.59375 -13.1875 
Q 5.71875 -13.1875 7.5625 -10.8125 
Q 9.421875 -8.453125 9.421875 -0.984375 
z
M 9.421875 75.984375 
L 18.40625 75.984375 
L 18.40625 64.59375 
L 9.421875 64.59375 
z
" id="DejaVuSans-106"/>
       <path d="M 48.78125 52.59375 
L 48.78125 44.1875 
Q 44.96875 46.296875 41.140625 47.34375 
Q 37.3125 48.390625 33.40625 48.390625 
Q 24.65625 48.390625 19.8125 42.84375 
Q 14.984375 37.3125 14.984375 27.296875 
Q 14.984375 17.28125 19.8125 11.734375 
Q 24.65625 6.203125 33.40625 6.203125 
Q 37.3125 6.203125 41.140625 7.25 
Q 44.96875 8.296875 48.78125 10.40625 
L 48.78125 2.09375 
Q 45.015625 0.34375 40.984375 -0.53125 
Q 36.96875 -1.421875 32.421875 -1.421875 
Q 20.0625 -1.421875 12.78125 6.34375 
Q 5.515625 14.109375 5.515625 27.296875 
Q 5.515625 40.671875 12.859375 48.328125 
Q 20.21875 56 33.015625 56 
Q 37.15625 56 41.109375 55.140625 
Q 45.0625 54.296875 48.78125 52.59375 
z
" id="DejaVuSans-99"/>
       <path d="M 45.40625 46.390625 
L 45.40625 75.984375 
L 54.390625 75.984375 
L 54.390625 0 
L 45.40625 0 
L 45.40625 8.203125 
Q 42.578125 3.328125 38.25 0.953125 
Q 33.9375 -1.421875 27.875 -1.421875 
Q 17.96875 -1.421875 11.734375 6.484375 
Q 5.515625 14.40625 5.515625 27.296875 
Q 5.515625 40.1875 11.734375 48.09375 
Q 17.96875 56 27.875 56 
Q 33.9375 56 38.25 53.625 
Q 42.578125 51.265625 45.40625 46.390625 
z
M 14.796875 27.296875 
Q 14.796875 17.390625 18.875 11.75 
Q 22.953125 6.109375 30.078125 6.109375 
Q 37.203125 6.109375 41.296875 11.75 
Q 45.40625 17.390625 45.40625 27.296875 
Q 45.40625 37.203125 41.296875 42.84375 
Q 37.203125 48.484375 30.078125 48.484375 
Q 22.953125 48.484375 18.875 42.84375 
Q 14.796875 37.203125 14.796875 27.296875 
z
" id="DejaVuSans-100"/>
       <path id="DejaVuSans-32"/>
       <path d="M 31 75.875 
Q 24.46875 64.65625 21.28125 53.65625 
Q 18.109375 42.671875 18.109375 31.390625 
Q 18.109375 20.125 21.3125 9.0625 
Q 24.515625 -2 31 -13.1875 
L 23.1875 -13.1875 
Q 15.875 -1.703125 12.234375 9.375 
Q 8.59375 20.453125 8.59375 31.390625 
Q 8.59375 42.28125 12.203125 53.3125 
Q 15.828125 64.359375 23.1875 75.875 
z
" id="DejaVuSans-40"/>
       <path d="M 2.984375 54.6875 
L 12.5 54.6875 
L 29.59375 8.796875 
L 46.6875 54.6875 
L 56.203125 54.6875 
L 35.6875 0 
L 23.484375 0 
z
" id="DejaVuSans-118"/>
       <path d="M 45.40625 27.984375 
Q 45.40625 37.75 41.375 43.109375 
Q 37.359375 48.484375 30.078125 48.484375 
Q 22.859375 48.484375 18.828125 43.109375 
Q 14.796875 37.75 14.796875 27.984375 
Q 14.796875 18.265625 18.828125 12.890625 
Q 22.859375 7.515625 30.078125 7.515625 
Q 37.359375 7.515625 41.375 12.890625 
Q 45.40625 18.265625 45.40625 27.984375 
z
M 54.390625 6.78125 
Q 54.390625 -7.171875 48.1875 -13.984375 
Q 42 -20.796875 29.203125 -20.796875 
Q 24.46875 -20.796875 20.265625 -20.09375 
Q 16.0625 -19.390625 12.109375 -17.921875 
L 12.109375 -9.1875 
Q 16.0625 -11.328125 19.921875 -12.34375 
Q 23.78125 -13.375 27.78125 -13.375 
Q 36.625 -13.375 41.015625 -8.765625 
Q 45.40625 -4.15625 45.40625 5.171875 
L 45.40625 9.625 
Q 42.625 4.78125 38.28125 2.390625 
Q 33.9375 0 27.875 0 
Q 17.828125 0 11.671875 7.65625 
Q 5.515625 15.328125 5.515625 27.984375 
Q 5.515625 40.671875 11.671875 48.328125 
Q 17.828125 56 27.875 56 
Q 33.9375 56 38.28125 53.609375 
Q 42.625 51.21875 45.40625 46.390625 
L 45.40625 54.6875 
L 54.390625 54.6875 
z
" id="DejaVuSans-103"/>
       <path d="M 8.015625 75.875 
L 15.828125 75.875 
Q 23.140625 64.359375 26.78125 53.3125 
Q 30.421875 42.28125 30.421875 31.390625 
Q 30.421875 20.453125 26.78125 9.375 
Q 23.140625 -1.703125 15.828125 -13.1875 
L 8.015625 -13.1875 
Q 14.5 -2 17.703125 9.0625 
Q 20.90625 20.125 20.90625 31.390625 
Q 20.90625 42.671875 17.703125 53.65625 
Q 14.5 64.65625 8.015625 75.875 
z
" id="DejaVuSans-41"/>
      </defs>
      <use xlink:href="#DejaVuSans-80"/>
      <use x="58.552734" xlink:href="#DejaVuSans-114"/>
      <use x="97.416016" xlink:href="#DejaVuSans-111"/>
      <use x="158.597656" xlink:href="#DejaVuSans-106"/>
      <use x="186.380859" xlink:href="#DejaVuSans-101"/>
      <use x="247.904297" xlink:href="#DejaVuSans-99"/>
      <use x="302.884766" xlink:href="#DejaVuSans-116"/>
      <use x="342.09375" xlink:href="#DejaVuSans-101"/>
      <use x="403.617188" xlink:href="#DejaVuSans-100"/>
      <use x="467.09375" xlink:href="#DejaVuSans-32"/>
      <use x="498.880859" xlink:href="#DejaVuSans-67"/>
      <use x="568.705078" xlink:href="#DejaVuSans-97"/>
      <use x="629.984375" xlink:href="#DejaVuSans-115"/>
      <use x="682.083984" xlink:href="#DejaVuSans-101"/>
      <use x="743.607422" xlink:href="#DejaVuSans-115"/>
      <use x="795.707031" xlink:href="#DejaVuSans-32"/>
      <use x="827.494141" xlink:href="#DejaVuSans-40"/>
      <use x="866.507812" xlink:href="#DejaVuSans-108"/>
      <use x="894.291016" xlink:href="#DejaVuSans-97"/>
      <use x="955.570312" xlink:href="#DejaVuSans-115"/>
      <use x="1007.669922" xlink:href="#DejaVuSans-116"/>
      <use x="1046.878906" xlink:href="#DejaVuSans-32"/>
      <use x="1078.666016" xlink:href="#DejaVuSans-49"/>
      <use x="1142.289062" xlink:href="#DejaVuSans-68"/>
      <use x="1219.291016" xlink:href="#DejaVuSans-32"/>
      <use x="1251.078125" xlink:href="#DejaVuSans-97"/>
      <use x="1312.357422" xlink:href="#DejaVuSans-118"/>
      <use x="1371.537109" xlink:href="#DejaVuSans-103"/>
      <use x="1435.013672" xlink:href="#DejaVuSans-32"/>
      <use x="1466.800781" xlink:href="#DejaVuSans-114"/>
      <use x="1507.914062" xlink:href="#DejaVuSans-97"/>
      <use x="1569.193359" xlink:href="#DejaVuSans-116"/>
      <use x="1608.402344" xlink:href="#DejaVuSans-101"/>
      <use x="1669.925781" xlink:href="#DejaVuSans-41"/>
     </g>
    </g>
    <g id="line2d_82">
     <path d="M 474.829375 355.979284 
L 494.829375 355.979284 
" style="fill:none;stroke:#988ed5;stroke-linecap:square;stroke-width:1.5;"/>
    </g>
    <g id="line2d_83"/>
    <g id="text_25">
     <!-- Projected Cases (last 7D avg rate) -->
     <g transform="translate(502.829375 359.479284)scale(0.1 -0.1)">
      <use xlink:href="#DejaVuSans-80"/>
      <use x="58.552734" xlink:href="#DejaVuSans-114"/>
      <use x="97.416016" xlink:href="#DejaVuSans-111"/>
      <use x="158.597656" xlink:href="#DejaVuSans-106"/>
      <use x="186.380859" xlink:href="#DejaVuSans-101"/>
      <use x="247.904297" xlink:href="#DejaVuSans-99"/>
      <use x="302.884766" xlink:href="#DejaVuSans-116"/>
      <use x="342.09375" xlink:href="#DejaVuSans-101"/>
      <use x="403.617188" xlink:href="#DejaVuSans-100"/>
      <use x="467.09375" xlink:href="#DejaVuSans-32"/>
      <use x="498.880859" xlink:href="#DejaVuSans-67"/>
      <use x="568.705078" xlink:href="#DejaVuSans-97"/>
      <use x="629.984375" xlink:href="#DejaVuSans-115"/>
      <use x="682.083984" xlink:href="#DejaVuSans-101"/>
      <use x="743.607422" xlink:href="#DejaVuSans-115"/>
      <use x="795.707031" xlink:href="#DejaVuSans-32"/>
      <use x="827.494141" xlink:href="#DejaVuSans-40"/>
      <use x="866.507812" xlink:href="#DejaVuSans-108"/>
      <use x="894.291016" xlink:href="#DejaVuSans-97"/>
      <use x="955.570312" xlink:href="#DejaVuSans-115"/>
      <use x="1007.669922" xlink:href="#DejaVuSans-116"/>
      <use x="1046.878906" xlink:href="#DejaVuSans-32"/>
      <use x="1078.666016" xlink:href="#DejaVuSans-55"/>
      <use x="1142.289062" xlink:href="#DejaVuSans-68"/>
      <use x="1219.291016" xlink:href="#DejaVuSans-32"/>
      <use x="1251.078125" xlink:href="#DejaVuSans-97"/>
      <use x="1312.357422" xlink:href="#DejaVuSans-118"/>
      <use x="1371.537109" xlink:href="#DejaVuSans-103"/>
      <use x="1435.013672" xlink:href="#DejaVuSans-32"/>
      <use x="1466.800781" xlink:href="#DejaVuSans-114"/>
      <use x="1507.914062" xlink:href="#DejaVuSans-97"/>
      <use x="1569.193359" xlink:href="#DejaVuSans-116"/>
      <use x="1608.402344" xlink:href="#DejaVuSans-101"/>
      <use x="1669.925781" xlink:href="#DejaVuSans-41"/>
     </g>
    </g>
    <g id="line2d_84">
     <path d="M 474.829375 370.657409 
L 494.829375 370.657409 
" style="fill:none;stroke:#777777;stroke-linecap:square;stroke-width:1.5;"/>
    </g>
    <g id="line2d_85"/>
    <g id="text_26">
     <!-- Cases x3 -->
     <g transform="translate(502.829375 374.157409)scale(0.1 -0.1)">
      <defs>
       <path d="M 54.890625 54.6875 
L 35.109375 28.078125 
L 55.90625 0 
L 45.3125 0 
L 29.390625 21.484375 
L 13.484375 0 
L 2.875 0 
L 24.125 28.609375 
L 4.6875 54.6875 
L 15.28125 54.6875 
L 29.78125 35.203125 
L 44.28125 54.6875 
z
" id="DejaVuSans-120"/>
      </defs>
      <use xlink:href="#DejaVuSans-67"/>
      <use x="69.824219" xlink:href="#DejaVuSans-97"/>
      <use x="131.103516" xlink:href="#DejaVuSans-115"/>
      <use x="183.203125" xlink:href="#DejaVuSans-101"/>
      <use x="244.726562" xlink:href="#DejaVuSans-115"/>
      <use x="296.826172" xlink:href="#DejaVuSans-32"/>
      <use x="328.613281" xlink:href="#DejaVuSans-120"/>
      <use x="387.792969" xlink:href="#DejaVuSans-51"/>
     </g>
    </g>
    <g id="line2d_86">
     <path d="M 474.829375 385.335534 
L 494.829375 385.335534 
" style="fill:none;stroke:#fbc15e;stroke-linecap:square;stroke-width:1.5;"/>
    </g>
    <g id="line2d_87"/>
    <g id="text_27">
     <!-- Projected Cases x3,  (last 7D avg rate) -->
     <g transform="translate(502.829375 388.835534)scale(0.1 -0.1)">
      <defs>
       <path d="M 11.71875 12.40625 
L 22.015625 12.40625 
L 22.015625 4 
L 14.015625 -11.625 
L 7.71875 -11.625 
L 11.71875 4 
z
" id="DejaVuSans-44"/>
      </defs>
      <use xlink:href="#DejaVuSans-80"/>
      <use x="58.552734" xlink:href="#DejaVuSans-114"/>
      <use x="97.416016" xlink:href="#DejaVuSans-111"/>
      <use x="158.597656" xlink:href="#DejaVuSans-106"/>
      <use x="186.380859" xlink:href="#DejaVuSans-101"/>
      <use x="247.904297" xlink:href="#DejaVuSans-99"/>
      <use x="302.884766" xlink:href="#DejaVuSans-116"/>
      <use x="342.09375" xlink:href="#DejaVuSans-101"/>
      <use x="403.617188" xlink:href="#DejaVuSans-100"/>
      <use x="467.09375" xlink:href="#DejaVuSans-32"/>
      <use x="498.880859" xlink:href="#DejaVuSans-67"/>
      <use x="568.705078" xlink:href="#DejaVuSans-97"/>
      <use x="629.984375" xlink:href="#DejaVuSans-115"/>
      <use x="682.083984" xlink:href="#DejaVuSans-101"/>
      <use x="743.607422" xlink:href="#DejaVuSans-115"/>
      <use x="795.707031" xlink:href="#DejaVuSans-32"/>
      <use x="827.494141" xlink:href="#DejaVuSans-120"/>
      <use x="886.673828" xlink:href="#DejaVuSans-51"/>
      <use x="950.296875" xlink:href="#DejaVuSans-44"/>
      <use x="982.083984" xlink:href="#DejaVuSans-32"/>
      <use x="1013.871094" xlink:href="#DejaVuSans-32"/>
      <use x="1045.658203" xlink:href="#DejaVuSans-40"/>
      <use x="1084.671875" xlink:href="#DejaVuSans-108"/>
      <use x="1112.455078" xlink:href="#DejaVuSans-97"/>
      <use x="1173.734375" xlink:href="#DejaVuSans-115"/>
      <use x="1225.833984" xlink:href="#DejaVuSans-116"/>
      <use x="1265.042969" xlink:href="#DejaVuSans-32"/>
      <use x="1296.830078" xlink:href="#DejaVuSans-55"/>
      <use x="1360.453125" xlink:href="#DejaVuSans-68"/>
      <use x="1437.455078" xlink:href="#DejaVuSans-32"/>
      <use x="1469.242188" xlink:href="#DejaVuSans-97"/>
      <use x="1530.521484" xlink:href="#DejaVuSans-118"/>
      <use x="1589.701172" xlink:href="#DejaVuSans-103"/>
      <use x="1653.177734" xlink:href="#DejaVuSans-32"/>
      <use x="1684.964844" xlink:href="#DejaVuSans-114"/>
      <use x="1726.078125" xlink:href="#DejaVuSans-97"/>
      <use x="1787.357422" xlink:href="#DejaVuSans-116"/>
      <use x="1826.566406" xlink:href="#DejaVuSans-101"/>
      <use x="1888.089844" xlink:href="#DejaVuSans-41"/>
     </g>
    </g>
    <g id="line2d_88">
     <path d="M 474.829375 400.013659 
L 494.829375 400.013659 
" style="fill:none;stroke:#8eba42;stroke-linecap:square;stroke-width:1.5;"/>
    </g>
    <g id="line2d_89"/>
    <g id="text_28">
     <!-- Cases x4 -->
     <g transform="translate(502.829375 403.513659)scale(0.1 -0.1)">
      <use xlink:href="#DejaVuSans-67"/>
      <use x="69.824219" xlink:href="#DejaVuSans-97"/>
      <use x="131.103516" xlink:href="#DejaVuSans-115"/>
      <use x="183.203125" xlink:href="#DejaVuSans-101"/>
      <use x="244.726562" xlink:href="#DejaVuSans-115"/>
      <use x="296.826172" xlink:href="#DejaVuSans-32"/>
      <use x="328.613281" xlink:href="#DejaVuSans-120"/>
      <use x="387.792969" xlink:href="#DejaVuSans-52"/>
     </g>
    </g>
    <g id="line2d_90">
     <path d="M 474.829375 414.691784 
L 494.829375 414.691784 
" style="fill:none;stroke:#ffb5b8;stroke-linecap:square;stroke-width:1.5;"/>
    </g>
    <g id="line2d_91"/>
    <g id="text_29">
     <!-- Projected Cases x4,  (last 7D avg rate) -->
     <g transform="translate(502.829375 418.191784)scale(0.1 -0.1)">
      <use xlink:href="#DejaVuSans-80"/>
      <use x="58.552734" xlink:href="#DejaVuSans-114"/>
      <use x="97.416016" xlink:href="#DejaVuSans-111"/>
      <use x="158.597656" xlink:href="#DejaVuSans-106"/>
      <use x="186.380859" xlink:href="#DejaVuSans-101"/>
      <use x="247.904297" xlink:href="#DejaVuSans-99"/>
      <use x="302.884766" xlink:href="#DejaVuSans-116"/>
      <use x="342.09375" xlink:href="#DejaVuSans-101"/>
      <use x="403.617188" xlink:href="#DejaVuSans-100"/>
      <use x="467.09375" xlink:href="#DejaVuSans-32"/>
      <use x="498.880859" xlink:href="#DejaVuSans-67"/>
      <use x="568.705078" xlink:href="#DejaVuSans-97"/>
      <use x="629.984375" xlink:href="#DejaVuSans-115"/>
      <use x="682.083984" xlink:href="#DejaVuSans-101"/>
      <use x="743.607422" xlink:href="#DejaVuSans-115"/>
      <use x="795.707031" xlink:href="#DejaVuSans-32"/>
      <use x="827.494141" xlink:href="#DejaVuSans-120"/>
      <use x="886.673828" xlink:href="#DejaVuSans-52"/>
      <use x="950.296875" xlink:href="#DejaVuSans-44"/>
      <use x="982.083984" xlink:href="#DejaVuSans-32"/>
      <use x="1013.871094" xlink:href="#DejaVuSans-32"/>
      <use x="1045.658203" xlink:href="#DejaVuSans-40"/>
      <use x="1084.671875" xlink:href="#DejaVuSans-108"/>
      <use x="1112.455078" xlink:href="#DejaVuSans-97"/>
      <use x="1173.734375" xlink:href="#DejaVuSans-115"/>
      <use x="1225.833984" xlink:href="#DejaVuSans-116"/>
      <use x="1265.042969" xlink:href="#DejaVuSans-32"/>
      <use x="1296.830078" xlink:href="#DejaVuSans-55"/>
      <use x="1360.453125" xlink:href="#DejaVuSans-68"/>
      <use x="1437.455078" xlink:href="#DejaVuSans-32"/>
      <use x="1469.242188" xlink:href="#DejaVuSans-97"/>
      <use x="1530.521484" xlink:href="#DejaVuSans-118"/>
      <use x="1589.701172" xlink:href="#DejaVuSans-103"/>
      <use x="1653.177734" xlink:href="#DejaVuSans-32"/>
      <use x="1684.964844" xlink:href="#DejaVuSans-114"/>
      <use x="1726.078125" xlink:href="#DejaVuSans-97"/>
      <use x="1787.357422" xlink:href="#DejaVuSans-116"/>
      <use x="1826.566406" xlink:href="#DejaVuSans-101"/>
      <use x="1888.089844" xlink:href="#DejaVuSans-41"/>
     </g>
    </g>
   </g>
  </g>
  <g id="text_30">
   <!-- COVID-19 spread projection using Logistic map -->
   <g transform="translate(213.93 16.318125)scale(0.12 -0.12)">
    <defs>
     <path d="M 39.40625 66.21875 
Q 28.65625 66.21875 22.328125 58.203125 
Q 16.015625 50.203125 16.015625 36.375 
Q 16.015625 22.609375 22.328125 14.59375 
Q 28.65625 6.59375 39.40625 6.59375 
Q 50.140625 6.59375 56.421875 14.59375 
Q 62.703125 22.609375 62.703125 36.375 
Q 62.703125 50.203125 56.421875 58.203125 
Q 50.140625 66.21875 39.40625 66.21875 
z
M 39.40625 74.21875 
Q 54.734375 74.21875 63.90625 63.9375 
Q 73.09375 53.65625 73.09375 36.375 
Q 73.09375 19.140625 63.90625 8.859375 
Q 54.734375 -1.421875 39.40625 -1.421875 
Q 24.03125 -1.421875 14.8125 8.828125 
Q 5.609375 19.09375 5.609375 36.375 
Q 5.609375 53.65625 14.8125 63.9375 
Q 24.03125 74.21875 39.40625 74.21875 
z
" id="DejaVuSans-79"/>
     <path d="M 28.609375 0 
L 0.78125 72.90625 
L 11.078125 72.90625 
L 34.1875 11.53125 
L 57.328125 72.90625 
L 67.578125 72.90625 
L 39.796875 0 
z
" id="DejaVuSans-86"/>
     <path d="M 9.8125 72.90625 
L 19.671875 72.90625 
L 19.671875 0 
L 9.8125 0 
z
" id="DejaVuSans-73"/>
     <path d="M 4.890625 31.390625 
L 31.203125 31.390625 
L 31.203125 23.390625 
L 4.890625 23.390625 
z
" id="DejaVuSans-45"/>
     <path d="M 10.984375 1.515625 
L 10.984375 10.5 
Q 14.703125 8.734375 18.5 7.8125 
Q 22.3125 6.890625 25.984375 6.890625 
Q 35.75 6.890625 40.890625 13.453125 
Q 46.046875 20.015625 46.78125 33.40625 
Q 43.953125 29.203125 39.59375 26.953125 
Q 35.25 24.703125 29.984375 24.703125 
Q 19.046875 24.703125 12.671875 31.3125 
Q 6.296875 37.9375 6.296875 49.421875 
Q 6.296875 60.640625 12.9375 67.421875 
Q 19.578125 74.21875 30.609375 74.21875 
Q 43.265625 74.21875 49.921875 64.515625 
Q 56.59375 54.828125 56.59375 36.375 
Q 56.59375 19.140625 48.40625 8.859375 
Q 40.234375 -1.421875 26.421875 -1.421875 
Q 22.703125 -1.421875 18.890625 -0.6875 
Q 15.09375 0.046875 10.984375 1.515625 
z
M 30.609375 32.421875 
Q 37.25 32.421875 41.125 36.953125 
Q 45.015625 41.5 45.015625 49.421875 
Q 45.015625 57.28125 41.125 61.84375 
Q 37.25 66.40625 30.609375 66.40625 
Q 23.96875 66.40625 20.09375 61.84375 
Q 16.21875 57.28125 16.21875 49.421875 
Q 16.21875 41.5 20.09375 36.953125 
Q 23.96875 32.421875 30.609375 32.421875 
z
" id="DejaVuSans-57"/>
     <path d="M 18.109375 8.203125 
L 18.109375 -20.796875 
L 9.078125 -20.796875 
L 9.078125 54.6875 
L 18.109375 54.6875 
L 18.109375 46.390625 
Q 20.953125 51.265625 25.265625 53.625 
Q 29.59375 56 35.59375 56 
Q 45.5625 56 51.78125 48.09375 
Q 58.015625 40.1875 58.015625 27.296875 
Q 58.015625 14.40625 51.78125 6.484375 
Q 45.5625 -1.421875 35.59375 -1.421875 
Q 29.59375 -1.421875 25.265625 0.953125 
Q 20.953125 3.328125 18.109375 8.203125 
z
M 48.6875 27.296875 
Q 48.6875 37.203125 44.609375 42.84375 
Q 40.53125 48.484375 33.40625 48.484375 
Q 26.265625 48.484375 22.1875 42.84375 
Q 18.109375 37.203125 18.109375 27.296875 
Q 18.109375 17.390625 22.1875 11.75 
Q 26.265625 6.109375 33.40625 6.109375 
Q 40.53125 6.109375 44.609375 11.75 
Q 48.6875 17.390625 48.6875 27.296875 
z
" id="DejaVuSans-112"/>
     <path d="M 54.890625 33.015625 
L 54.890625 0 
L 45.90625 0 
L 45.90625 32.71875 
Q 45.90625 40.484375 42.875 44.328125 
Q 39.84375 48.1875 33.796875 48.1875 
Q 26.515625 48.1875 22.3125 43.546875 
Q 18.109375 38.921875 18.109375 30.90625 
L 18.109375 0 
L 9.078125 0 
L 9.078125 54.6875 
L 18.109375 54.6875 
L 18.109375 46.1875 
Q 21.34375 51.125 25.703125 53.5625 
Q 30.078125 56 35.796875 56 
Q 45.21875 56 50.046875 50.171875 
Q 54.890625 44.34375 54.890625 33.015625 
z
" id="DejaVuSans-110"/>
     <path d="M 8.5 21.578125 
L 8.5 54.6875 
L 17.484375 54.6875 
L 17.484375 21.921875 
Q 17.484375 14.15625 20.5 10.265625 
Q 23.53125 6.390625 29.59375 6.390625 
Q 36.859375 6.390625 41.078125 11.03125 
Q 45.3125 15.671875 45.3125 23.6875 
L 45.3125 54.6875 
L 54.296875 54.6875 
L 54.296875 0 
L 45.3125 0 
L 45.3125 8.40625 
Q 42.046875 3.421875 37.71875 1 
Q 33.40625 -1.421875 27.6875 -1.421875 
Q 18.265625 -1.421875 13.375 4.4375 
Q 8.5 10.296875 8.5 21.578125 
z
M 31.109375 56 
z
" id="DejaVuSans-117"/>
     <path d="M 9.8125 72.90625 
L 19.671875 72.90625 
L 19.671875 8.296875 
L 55.171875 8.296875 
L 55.171875 0 
L 9.8125 0 
z
" id="DejaVuSans-76"/>
     <path d="M 52 44.1875 
Q 55.375 50.25 60.0625 53.125 
Q 64.75 56 71.09375 56 
Q 79.640625 56 84.28125 50.015625 
Q 88.921875 44.046875 88.921875 33.015625 
L 88.921875 0 
L 79.890625 0 
L 79.890625 32.71875 
Q 79.890625 40.578125 77.09375 44.375 
Q 74.3125 48.1875 68.609375 48.1875 
Q 61.625 48.1875 57.5625 43.546875 
Q 53.515625 38.921875 53.515625 30.90625 
L 53.515625 0 
L 44.484375 0 
L 44.484375 32.71875 
Q 44.484375 40.625 41.703125 44.40625 
Q 38.921875 48.1875 33.109375 48.1875 
Q 26.21875 48.1875 22.15625 43.53125 
Q 18.109375 38.875 18.109375 30.90625 
L 18.109375 0 
L 9.078125 0 
L 9.078125 54.6875 
L 18.109375 54.6875 
L 18.109375 46.1875 
Q 21.1875 51.21875 25.484375 53.609375 
Q 29.78125 56 35.6875 56 
Q 41.65625 56 45.828125 52.96875 
Q 50 49.953125 52 44.1875 
z
" id="DejaVuSans-109"/>
    </defs>
    <use xlink:href="#DejaVuSans-67"/>
    <use x="69.824219" xlink:href="#DejaVuSans-79"/>
    <use x="146.785156" xlink:href="#DejaVuSans-86"/>
    <use x="215.193359" xlink:href="#DejaVuSans-73"/>
    <use x="244.685547" xlink:href="#DejaVuSans-68"/>
    <use x="321.6875" xlink:href="#DejaVuSans-45"/>
    <use x="357.771484" xlink:href="#DejaVuSans-49"/>
    <use x="421.394531" xlink:href="#DejaVuSans-57"/>
    <use x="485.017578" xlink:href="#DejaVuSans-32"/>
    <use x="516.804688" xlink:href="#DejaVuSans-115"/>
    <use x="568.904297" xlink:href="#DejaVuSans-112"/>
    <use x="632.380859" xlink:href="#DejaVuSans-114"/>
    <use x="671.244141" xlink:href="#DejaVuSans-101"/>
    <use x="732.767578" xlink:href="#DejaVuSans-97"/>
    <use x="794.046875" xlink:href="#DejaVuSans-100"/>
    <use x="857.523438" xlink:href="#DejaVuSans-32"/>
    <use x="889.310547" xlink:href="#DejaVuSans-112"/>
    <use x="952.787109" xlink:href="#DejaVuSans-114"/>
    <use x="991.650391" xlink:href="#DejaVuSans-111"/>
    <use x="1052.832031" xlink:href="#DejaVuSans-106"/>
    <use x="1080.615234" xlink:href="#DejaVuSans-101"/>
    <use x="1142.138672" xlink:href="#DejaVuSans-99"/>
    <use x="1197.119141" xlink:href="#DejaVuSans-116"/>
    <use x="1236.328125" xlink:href="#DejaVuSans-105"/>
    <use x="1264.111328" xlink:href="#DejaVuSans-111"/>
    <use x="1325.292969" xlink:href="#DejaVuSans-110"/>
    <use x="1388.671875" xlink:href="#DejaVuSans-32"/>
    <use x="1420.458984" xlink:href="#DejaVuSans-117"/>
    <use x="1483.837891" xlink:href="#DejaVuSans-115"/>
    <use x="1535.9375" xlink:href="#DejaVuSans-105"/>
    <use x="1563.720703" xlink:href="#DejaVuSans-110"/>
    <use x="1627.099609" xlink:href="#DejaVuSans-103"/>
    <use x="1690.576172" xlink:href="#DejaVuSans-32"/>
    <use x="1722.363281" xlink:href="#DejaVuSans-76"/>
    <use x="1776.326172" xlink:href="#DejaVuSans-111"/>
    <use x="1837.507812" xlink:href="#DejaVuSans-103"/>
    <use x="1900.984375" xlink:href="#DejaVuSans-105"/>
    <use x="1928.767578" xlink:href="#DejaVuSans-115"/>
    <use x="1980.867188" xlink:href="#DejaVuSans-116"/>
    <use x="2020.076172" xlink:href="#DejaVuSans-105"/>
    <use x="2047.859375" xlink:href="#DejaVuSans-99"/>
    <use x="2102.839844" xlink:href="#DejaVuSans-32"/>
    <use x="2134.626953" xlink:href="#DejaVuSans-109"/>
    <use x="2232.039062" xlink:href="#DejaVuSans-97"/>
    <use x="2293.318359" xlink:href="#DejaVuSans-112"/>
   </g>
   <!-- assuming a carrying capacity of K=329M people and dt=4D tick time. -->
   <g transform="translate(144.889688 29.7555)scale(0.12 -0.12)">
    <defs>
     <path d="M 37.109375 75.984375 
L 37.109375 68.5 
L 28.515625 68.5 
Q 23.6875 68.5 21.796875 66.546875 
Q 19.921875 64.59375 19.921875 59.515625 
L 19.921875 54.6875 
L 34.71875 54.6875 
L 34.71875 47.703125 
L 19.921875 47.703125 
L 19.921875 0 
L 10.890625 0 
L 10.890625 47.703125 
L 2.296875 47.703125 
L 2.296875 54.6875 
L 10.890625 54.6875 
L 10.890625 58.5 
Q 10.890625 67.625 15.140625 71.796875 
Q 19.390625 75.984375 28.609375 75.984375 
z
" id="DejaVuSans-102"/>
     <path d="M 9.8125 72.90625 
L 19.671875 72.90625 
L 19.671875 42.09375 
L 52.390625 72.90625 
L 65.09375 72.90625 
L 28.90625 38.921875 
L 67.671875 0 
L 54.6875 0 
L 19.671875 35.109375 
L 19.671875 0 
L 9.8125 0 
z
" id="DejaVuSans-75"/>
     <path d="M 10.59375 45.40625 
L 73.1875 45.40625 
L 73.1875 37.203125 
L 10.59375 37.203125 
z
M 10.59375 25.484375 
L 73.1875 25.484375 
L 73.1875 17.1875 
L 10.59375 17.1875 
z
" id="DejaVuSans-61"/>
     <path d="M 9.8125 72.90625 
L 24.515625 72.90625 
L 43.109375 23.296875 
L 61.8125 72.90625 
L 76.515625 72.90625 
L 76.515625 0 
L 66.890625 0 
L 66.890625 64.015625 
L 48.09375 14.015625 
L 38.1875 14.015625 
L 19.390625 64.015625 
L 19.390625 0 
L 9.8125 0 
z
" id="DejaVuSans-77"/>
     <path d="M 9.078125 75.984375 
L 18.109375 75.984375 
L 18.109375 31.109375 
L 44.921875 54.6875 
L 56.390625 54.6875 
L 27.390625 29.109375 
L 57.625 0 
L 45.90625 0 
L 18.109375 26.703125 
L 18.109375 0 
L 9.078125 0 
z
" id="DejaVuSans-107"/>
     <path d="M 10.6875 12.40625 
L 21 12.40625 
L 21 0 
L 10.6875 0 
z
" id="DejaVuSans-46"/>
    </defs>
    <use xlink:href="#DejaVuSans-97"/>
    <use x="61.279297" xlink:href="#DejaVuSans-115"/>
    <use x="113.378906" xlink:href="#DejaVuSans-115"/>
    <use x="165.478516" xlink:href="#DejaVuSans-117"/>
    <use x="228.857422" xlink:href="#DejaVuSans-109"/>
    <use x="326.269531" xlink:href="#DejaVuSans-105"/>
    <use x="354.052734" xlink:href="#DejaVuSans-110"/>
    <use x="417.431641" xlink:href="#DejaVuSans-103"/>
    <use x="480.908203" xlink:href="#DejaVuSans-32"/>
    <use x="512.695312" xlink:href="#DejaVuSans-97"/>
    <use x="573.974609" xlink:href="#DejaVuSans-32"/>
    <use x="605.761719" xlink:href="#DejaVuSans-99"/>
    <use x="660.742188" xlink:href="#DejaVuSans-97"/>
    <use x="722.021484" xlink:href="#DejaVuSans-114"/>
    <use x="761.384766" xlink:href="#DejaVuSans-114"/>
    <use x="802.498047" xlink:href="#DejaVuSans-121"/>
    <use x="861.677734" xlink:href="#DejaVuSans-105"/>
    <use x="889.460938" xlink:href="#DejaVuSans-110"/>
    <use x="952.839844" xlink:href="#DejaVuSans-103"/>
    <use x="1016.316406" xlink:href="#DejaVuSans-32"/>
    <use x="1048.103516" xlink:href="#DejaVuSans-99"/>
    <use x="1103.083984" xlink:href="#DejaVuSans-97"/>
    <use x="1164.363281" xlink:href="#DejaVuSans-112"/>
    <use x="1227.839844" xlink:href="#DejaVuSans-97"/>
    <use x="1289.119141" xlink:href="#DejaVuSans-99"/>
    <use x="1344.099609" xlink:href="#DejaVuSans-105"/>
    <use x="1371.882812" xlink:href="#DejaVuSans-116"/>
    <use x="1411.091797" xlink:href="#DejaVuSans-121"/>
    <use x="1470.271484" xlink:href="#DejaVuSans-32"/>
    <use x="1502.058594" xlink:href="#DejaVuSans-111"/>
    <use x="1563.240234" xlink:href="#DejaVuSans-102"/>
    <use x="1598.445312" xlink:href="#DejaVuSans-32"/>
    <use x="1630.232422" xlink:href="#DejaVuSans-75"/>
    <use x="1695.808594" xlink:href="#DejaVuSans-61"/>
    <use x="1779.597656" xlink:href="#DejaVuSans-51"/>
    <use x="1843.220703" xlink:href="#DejaVuSans-50"/>
    <use x="1906.84375" xlink:href="#DejaVuSans-57"/>
    <use x="1970.466797" xlink:href="#DejaVuSans-77"/>
    <use x="2056.746094" xlink:href="#DejaVuSans-32"/>
    <use x="2088.533203" xlink:href="#DejaVuSans-112"/>
    <use x="2152.009766" xlink:href="#DejaVuSans-101"/>
    <use x="2213.533203" xlink:href="#DejaVuSans-111"/>
    <use x="2274.714844" xlink:href="#DejaVuSans-112"/>
    <use x="2338.191406" xlink:href="#DejaVuSans-108"/>
    <use x="2365.974609" xlink:href="#DejaVuSans-101"/>
    <use x="2427.498047" xlink:href="#DejaVuSans-32"/>
    <use x="2459.285156" xlink:href="#DejaVuSans-97"/>
    <use x="2520.564453" xlink:href="#DejaVuSans-110"/>
    <use x="2583.943359" xlink:href="#DejaVuSans-100"/>
    <use x="2647.419922" xlink:href="#DejaVuSans-32"/>
    <use x="2679.207031" xlink:href="#DejaVuSans-100"/>
    <use x="2742.683594" xlink:href="#DejaVuSans-116"/>
    <use x="2781.892578" xlink:href="#DejaVuSans-61"/>
    <use x="2865.681641" xlink:href="#DejaVuSans-52"/>
    <use x="2929.304688" xlink:href="#DejaVuSans-68"/>
    <use x="3006.306641" xlink:href="#DejaVuSans-32"/>
    <use x="3038.09375" xlink:href="#DejaVuSans-116"/>
    <use x="3077.302734" xlink:href="#DejaVuSans-105"/>
    <use x="3105.085938" xlink:href="#DejaVuSans-99"/>
    <use x="3160.066406" xlink:href="#DejaVuSans-107"/>
    <use x="3217.976562" xlink:href="#DejaVuSans-32"/>
    <use x="3249.763672" xlink:href="#DejaVuSans-116"/>
    <use x="3288.972656" xlink:href="#DejaVuSans-105"/>
    <use x="3316.755859" xlink:href="#DejaVuSans-109"/>
    <use x="3414.167969" xlink:href="#DejaVuSans-101"/>
    <use x="3475.691406" xlink:href="#DejaVuSans-46"/>
   </g>
   <!-- created: 2020-12-16 author: @pschwede, source: JHU CSSE via @entorb &amp; @pomber. -->
   <g transform="translate(98.56125 43.192875)scale(0.12 -0.12)">
    <defs>
     <path d="M 11.71875 12.40625 
L 22.015625 12.40625 
L 22.015625 0 
L 11.71875 0 
z
M 11.71875 51.703125 
L 22.015625 51.703125 
L 22.015625 39.3125 
L 11.71875 39.3125 
z
" id="DejaVuSans-58"/>
     <path d="M 54.890625 33.015625 
L 54.890625 0 
L 45.90625 0 
L 45.90625 32.71875 
Q 45.90625 40.484375 42.875 44.328125 
Q 39.84375 48.1875 33.796875 48.1875 
Q 26.515625 48.1875 22.3125 43.546875 
Q 18.109375 38.921875 18.109375 30.90625 
L 18.109375 0 
L 9.078125 0 
L 9.078125 75.984375 
L 18.109375 75.984375 
L 18.109375 46.1875 
Q 21.34375 51.125 25.703125 53.5625 
Q 30.078125 56 35.796875 56 
Q 45.21875 56 50.046875 50.171875 
Q 54.890625 44.34375 54.890625 33.015625 
z
" id="DejaVuSans-104"/>
     <path d="M 37.203125 26.21875 
Q 37.203125 19.234375 40.671875 15.25 
Q 44.140625 11.28125 50.203125 11.28125 
Q 56.203125 11.28125 59.640625 15.28125 
Q 63.09375 19.28125 63.09375 26.21875 
Q 63.09375 33.0625 59.578125 37.078125 
Q 56.0625 41.109375 50.09375 41.109375 
Q 44.1875 41.109375 40.6875 37.109375 
Q 37.203125 33.109375 37.203125 26.21875 
z
M 63.8125 11.625 
Q 60.890625 7.859375 57.109375 6.078125 
Q 53.328125 4.296875 48.296875 4.296875 
Q 39.890625 4.296875 34.640625 10.375 
Q 29.390625 16.453125 29.390625 26.21875 
Q 29.390625 35.984375 34.65625 42.078125 
Q 39.9375 48.1875 48.296875 48.1875 
Q 53.328125 48.1875 57.125 46.359375 
Q 60.9375 44.53125 63.8125 40.828125 
L 63.8125 47.21875 
L 70.796875 47.21875 
L 70.796875 11.28125 
Q 77.9375 12.359375 81.953125 17.796875 
Q 85.984375 23.25 85.984375 31.890625 
Q 85.984375 37.109375 84.4375 41.703125 
Q 82.90625 46.296875 79.78125 50.203125 
Q 74.703125 56.59375 67.40625 59.984375 
Q 60.109375 63.375 51.515625 63.375 
Q 45.515625 63.375 39.984375 61.78125 
Q 34.46875 60.203125 29.78125 57.078125 
Q 22.125 52.09375 17.796875 44.015625 
Q 13.484375 35.9375 13.484375 26.515625 
Q 13.484375 18.75 16.28125 11.953125 
Q 19.09375 5.171875 24.421875 0 
Q 29.546875 -5.078125 36.28125 -7.734375 
Q 43.015625 -10.40625 50.6875 -10.40625 
Q 56.984375 -10.40625 63.0625 -8.28125 
Q 69.140625 -6.15625 74.21875 -2.203125 
L 78.609375 -7.625 
Q 72.515625 -12.359375 65.3125 -14.875 
Q 58.109375 -17.390625 50.6875 -17.390625 
Q 41.65625 -17.390625 33.640625 -14.1875 
Q 25.640625 -10.984375 19.390625 -4.890625 
Q 13.140625 1.21875 9.859375 9.25 
Q 6.59375 17.28125 6.59375 26.515625 
Q 6.59375 35.40625 9.90625 43.453125 
Q 13.234375 51.515625 19.390625 57.625 
Q 25.6875 63.8125 33.9375 67.109375 
Q 42.1875 70.40625 51.421875 70.40625 
Q 61.765625 70.40625 70.625 66.15625 
Q 79.5 61.921875 85.5 54.109375 
Q 89.15625 49.3125 91.078125 43.703125 
Q 93.015625 38.09375 93.015625 32.078125 
Q 93.015625 19.234375 85.25 11.8125 
Q 77.484375 4.390625 63.8125 4.109375 
z
" id="DejaVuSans-64"/>
     <path d="M 4.203125 54.6875 
L 13.1875 54.6875 
L 24.421875 12.015625 
L 35.59375 54.6875 
L 46.1875 54.6875 
L 57.421875 12.015625 
L 68.609375 54.6875 
L 77.59375 54.6875 
L 63.28125 0 
L 52.6875 0 
L 40.921875 44.828125 
L 29.109375 0 
L 18.5 0 
z
" id="DejaVuSans-119"/>
     <path d="M 9.8125 72.90625 
L 19.671875 72.90625 
L 19.671875 5.078125 
Q 19.671875 -8.109375 14.671875 -14.0625 
Q 9.671875 -20.015625 -1.421875 -20.015625 
L -5.171875 -20.015625 
L -5.171875 -11.71875 
L -2.09375 -11.71875 
Q 4.4375 -11.71875 7.125 -8.046875 
Q 9.8125 -4.390625 9.8125 5.078125 
z
" id="DejaVuSans-74"/>
     <path d="M 9.8125 72.90625 
L 19.671875 72.90625 
L 19.671875 43.015625 
L 55.515625 43.015625 
L 55.515625 72.90625 
L 65.375 72.90625 
L 65.375 0 
L 55.515625 0 
L 55.515625 34.71875 
L 19.671875 34.71875 
L 19.671875 0 
L 9.8125 0 
z
" id="DejaVuSans-72"/>
     <path d="M 8.6875 72.90625 
L 18.609375 72.90625 
L 18.609375 28.609375 
Q 18.609375 16.890625 22.84375 11.734375 
Q 27.09375 6.59375 36.625 6.59375 
Q 46.09375 6.59375 50.34375 11.734375 
Q 54.59375 16.890625 54.59375 28.609375 
L 54.59375 72.90625 
L 64.5 72.90625 
L 64.5 27.390625 
Q 64.5 13.140625 57.4375 5.859375 
Q 50.390625 -1.421875 36.625 -1.421875 
Q 22.796875 -1.421875 15.734375 5.859375 
Q 8.6875 13.140625 8.6875 27.390625 
z
" id="DejaVuSans-85"/>
     <path d="M 53.515625 70.515625 
L 53.515625 60.890625 
Q 47.90625 63.578125 42.921875 64.890625 
Q 37.9375 66.21875 33.296875 66.21875 
Q 25.25 66.21875 20.875 63.09375 
Q 16.5 59.96875 16.5 54.203125 
Q 16.5 49.359375 19.40625 46.890625 
Q 22.3125 44.4375 30.421875 42.921875 
L 36.375 41.703125 
Q 47.40625 39.59375 52.65625 34.296875 
Q 57.90625 29 57.90625 20.125 
Q 57.90625 9.515625 50.796875 4.046875 
Q 43.703125 -1.421875 29.984375 -1.421875 
Q 24.8125 -1.421875 18.96875 -0.25 
Q 13.140625 0.921875 6.890625 3.21875 
L 6.890625 13.375 
Q 12.890625 10.015625 18.65625 8.296875 
Q 24.421875 6.59375 29.984375 6.59375 
Q 38.421875 6.59375 43.015625 9.90625 
Q 47.609375 13.234375 47.609375 19.390625 
Q 47.609375 24.75 44.3125 27.78125 
Q 41.015625 30.8125 33.5 32.328125 
L 27.484375 33.5 
Q 16.453125 35.6875 11.515625 40.375 
Q 6.59375 45.0625 6.59375 53.421875 
Q 6.59375 63.09375 13.40625 68.65625 
Q 20.21875 74.21875 32.171875 74.21875 
Q 37.3125 74.21875 42.625 73.28125 
Q 47.953125 72.359375 53.515625 70.515625 
z
" id="DejaVuSans-83"/>
     <path d="M 9.8125 72.90625 
L 55.90625 72.90625 
L 55.90625 64.59375 
L 19.671875 64.59375 
L 19.671875 43.015625 
L 54.390625 43.015625 
L 54.390625 34.71875 
L 19.671875 34.71875 
L 19.671875 8.296875 
L 56.78125 8.296875 
L 56.78125 0 
L 9.8125 0 
z
" id="DejaVuSans-69"/>
     <path d="M 48.6875 27.296875 
Q 48.6875 37.203125 44.609375 42.84375 
Q 40.53125 48.484375 33.40625 48.484375 
Q 26.265625 48.484375 22.1875 42.84375 
Q 18.109375 37.203125 18.109375 27.296875 
Q 18.109375 17.390625 22.1875 11.75 
Q 26.265625 6.109375 33.40625 6.109375 
Q 40.53125 6.109375 44.609375 11.75 
Q 48.6875 17.390625 48.6875 27.296875 
z
M 18.109375 46.390625 
Q 20.953125 51.265625 25.265625 53.625 
Q 29.59375 56 35.59375 56 
Q 45.5625 56 51.78125 48.09375 
Q 58.015625 40.1875 58.015625 27.296875 
Q 58.015625 14.40625 51.78125 6.484375 
Q 45.5625 -1.421875 35.59375 -1.421875 
Q 29.59375 -1.421875 25.265625 0.953125 
Q 20.953125 3.328125 18.109375 8.203125 
L 18.109375 0 
L 9.078125 0 
L 9.078125 75.984375 
L 18.109375 75.984375 
z
" id="DejaVuSans-98"/>
     <path d="M 24.3125 39.203125 
Q 19.875 35.25 17.796875 31.3125 
Q 15.71875 27.390625 15.71875 23.09375 
Q 15.71875 15.96875 20.890625 11.234375 
Q 26.078125 6.5 33.890625 6.5 
Q 38.53125 6.5 42.578125 8.03125 
Q 46.625 9.578125 50.203125 12.703125 
z
M 31.203125 44.671875 
L 56 19.28125 
Q 58.890625 23.640625 60.5 28.59375 
Q 62.109375 33.546875 62.40625 39.109375 
L 71.484375 39.109375 
Q 70.90625 32.671875 68.359375 26.359375 
Q 65.828125 20.0625 61.28125 13.921875 
L 74.90625 0 
L 62.59375 0 
L 55.609375 7.171875 
Q 50.53125 2.828125 44.96875 0.703125 
Q 39.40625 -1.421875 33.015625 -1.421875 
Q 21.234375 -1.421875 13.765625 5.296875 
Q 6.296875 12.015625 6.296875 22.515625 
Q 6.296875 28.765625 9.5625 34.25 
Q 12.84375 39.75 19.390625 44.578125 
Q 17.046875 47.65625 15.8125 50.703125 
Q 14.59375 53.765625 14.59375 56.6875 
Q 14.59375 64.59375 20.015625 69.40625 
Q 25.4375 74.21875 34.421875 74.21875 
Q 38.484375 74.21875 42.5 73.34375 
Q 46.53125 72.46875 50.6875 70.703125 
L 50.6875 61.8125 
Q 46.4375 64.109375 42.578125 65.296875 
Q 38.71875 66.5 35.40625 66.5 
Q 30.28125 66.5 27.078125 63.78125 
Q 23.875 61.078125 23.875 56.78125 
Q 23.875 54.296875 25.3125 51.78125 
Q 26.765625 49.265625 31.203125 44.671875 
z
" id="DejaVuSans-38"/>
    </defs>
    <use xlink:href="#DejaVuSans-99"/>
    <use x="54.980469" xlink:href="#DejaVuSans-114"/>
    <use x="93.84375" xlink:href="#DejaVuSans-101"/>
    <use x="155.367188" xlink:href="#DejaVuSans-97"/>
    <use x="216.646484" xlink:href="#DejaVuSans-116"/>
    <use x="255.855469" xlink:href="#DejaVuSans-101"/>
    <use x="317.378906" xlink:href="#DejaVuSans-100"/>
    <use x="380.855469" xlink:href="#DejaVuSans-58"/>
    <use x="414.546875" xlink:href="#DejaVuSans-32"/>
    <use x="446.333984" xlink:href="#DejaVuSans-50"/>
    <use x="509.957031" xlink:href="#DejaVuSans-48"/>
    <use x="573.580078" xlink:href="#DejaVuSans-50"/>
    <use x="637.203125" xlink:href="#DejaVuSans-48"/>
    <use x="700.826172" xlink:href="#DejaVuSans-45"/>
    <use x="736.910156" xlink:href="#DejaVuSans-49"/>
    <use x="800.533203" xlink:href="#DejaVuSans-50"/>
    <use x="864.15625" xlink:href="#DejaVuSans-45"/>
    <use x="900.240234" xlink:href="#DejaVuSans-49"/>
    <use x="963.863281" xlink:href="#DejaVuSans-54"/>
    <use x="1027.486328" xlink:href="#DejaVuSans-32"/>
    <use x="1059.273438" xlink:href="#DejaVuSans-97"/>
    <use x="1120.552734" xlink:href="#DejaVuSans-117"/>
    <use x="1183.931641" xlink:href="#DejaVuSans-116"/>
    <use x="1223.140625" xlink:href="#DejaVuSans-104"/>
    <use x="1286.519531" xlink:href="#DejaVuSans-111"/>
    <use x="1347.701172" xlink:href="#DejaVuSans-114"/>
    <use x="1387.064453" xlink:href="#DejaVuSans-58"/>
    <use x="1420.755859" xlink:href="#DejaVuSans-32"/>
    <use x="1452.542969" xlink:href="#DejaVuSans-64"/>
    <use x="1552.542969" xlink:href="#DejaVuSans-112"/>
    <use x="1616.019531" xlink:href="#DejaVuSans-115"/>
    <use x="1668.119141" xlink:href="#DejaVuSans-99"/>
    <use x="1723.099609" xlink:href="#DejaVuSans-104"/>
    <use x="1786.478516" xlink:href="#DejaVuSans-119"/>
    <use x="1868.265625" xlink:href="#DejaVuSans-101"/>
    <use x="1929.789062" xlink:href="#DejaVuSans-100"/>
    <use x="1993.265625" xlink:href="#DejaVuSans-101"/>
    <use x="2054.789062" xlink:href="#DejaVuSans-44"/>
    <use x="2086.576172" xlink:href="#DejaVuSans-32"/>
    <use x="2118.363281" xlink:href="#DejaVuSans-115"/>
    <use x="2170.462891" xlink:href="#DejaVuSans-111"/>
    <use x="2231.644531" xlink:href="#DejaVuSans-117"/>
    <use x="2295.023438" xlink:href="#DejaVuSans-114"/>
    <use x="2333.886719" xlink:href="#DejaVuSans-99"/>
    <use x="2388.867188" xlink:href="#DejaVuSans-101"/>
    <use x="2450.390625" xlink:href="#DejaVuSans-58"/>
    <use x="2484.082031" xlink:href="#DejaVuSans-32"/>
    <use x="2515.869141" xlink:href="#DejaVuSans-74"/>
    <use x="2545.361328" xlink:href="#DejaVuSans-72"/>
    <use x="2620.556641" xlink:href="#DejaVuSans-85"/>
    <use x="2693.75" xlink:href="#DejaVuSans-32"/>
    <use x="2725.537109" xlink:href="#DejaVuSans-67"/>
    <use x="2795.361328" xlink:href="#DejaVuSans-83"/>
    <use x="2858.837891" xlink:href="#DejaVuSans-83"/>
    <use x="2922.314453" xlink:href="#DejaVuSans-69"/>
    <use x="2985.498047" xlink:href="#DejaVuSans-32"/>
    <use x="3017.285156" xlink:href="#DejaVuSans-118"/>
    <use x="3076.464844" xlink:href="#DejaVuSans-105"/>
    <use x="3104.248047" xlink:href="#DejaVuSans-97"/>
    <use x="3165.527344" xlink:href="#DejaVuSans-32"/>
    <use x="3197.314453" xlink:href="#DejaVuSans-64"/>
    <use x="3297.314453" xlink:href="#DejaVuSans-101"/>
    <use x="3358.837891" xlink:href="#DejaVuSans-110"/>
    <use x="3422.216797" xlink:href="#DejaVuSans-116"/>
    <use x="3461.425781" xlink:href="#DejaVuSans-111"/>
    <use x="3522.607422" xlink:href="#DejaVuSans-114"/>
    <use x="3563.720703" xlink:href="#DejaVuSans-98"/>
    <use x="3627.197266" xlink:href="#DejaVuSans-32"/>
    <use x="3658.984375" xlink:href="#DejaVuSans-38"/>
    <use x="3736.962891" xlink:href="#DejaVuSans-32"/>
    <use x="3768.75" xlink:href="#DejaVuSans-64"/>
    <use x="3868.75" xlink:href="#DejaVuSans-112"/>
    <use x="3932.226562" xlink:href="#DejaVuSans-111"/>
    <use x="3993.408203" xlink:href="#DejaVuSans-109"/>
    <use x="4090.820312" xlink:href="#DejaVuSans-98"/>
    <use x="4154.296875" xlink:href="#DejaVuSans-101"/>
    <use x="4215.820312" xlink:href="#DejaVuSans-114"/>
    <use x="4247.808594" xlink:href="#DejaVuSans-46"/>
   </g>
  </g>
 </g>
 <defs>
  <clipPath id="p9d930f199f">
   <rect height="199.115403" width="636.55" x="67.98875" y="102.072"/>
  </clipPath>
  <clipPath id="p9ef583f5ab">
   <rect height="199.115403" width="636.55" x="67.98875" y="313.524597"/>
  </clipPath>
 </defs>
</svg>
