<?xml version="1.0" encoding="utf-8" standalone="no"?>
<!DOCTYPE svg PUBLIC "-//W3C//DTD SVG 1.1//EN"
  "http://www.w3.org/Graphics/SVG/1.1/DTD/svg11.dtd">
<svg height="573.257842pt" version="1.1" viewBox="0 0 711.73875 573.257842" width="711.73875pt" xmlns="http://www.w3.org/2000/svg" xmlns:xlink="http://www.w3.org/1999/xlink">
 <metadata>
  <rdf:RDF xmlns:cc="http://creativecommons.org/ns#" xmlns:dc="http://purl.org/dc/elements/1.1/" xmlns:rdf="http://www.w3.org/1999/02/22-rdf-syntax-ns#">
   <cc:Work>
    <dc:type rdf:resource="http://purl.org/dc/dcmitype/StillImage"/>
    <dc:date>2021-06-30T09:03:49.224523</dc:date>
    <dc:format>image/svg+xml</dc:format>
    <dc:creator>
     <cc:Agent>
      <dc:title>Matplotlib v3.4.2, https://matplotlib.org/</dc:title>
     </cc:Agent>
    </dc:creator>
   </cc:Work>
  </rdf:RDF>
 </metadata>
 <defs>
  <style type="text/css">*{stroke-linecap:butt;stroke-linejoin:round;}</style>
 </defs>
 <g id="figure_1">
  <g id="patch_1">
   <path d="M 0 573.257842 
L 711.73875 573.257842 
L 711.73875 0 
L 0 0 
z
" style="fill:#ffffff;"/>
  </g>
  <g id="axes_1">
   <g id="patch_2">
    <path d="M 67.98875 301.032412 
L 704.53875 301.032412 
L 704.53875 102.072 
L 67.98875 102.072 
z
" style="fill:#e5e5e5;"/>
   </g>
   <g id="matplotlib.axis_1">
    <g id="xtick_1">
     <g id="line2d_1">
      <defs>
       <path d="M 0 0 
L 0 3.5 
" id="md924e724f2" style="stroke:#555555;stroke-width:0.8;"/>
      </defs>
      <g>
       <use style="fill:#555555;stroke:#555555;stroke-width:0.8;" x="67.98875" xlink:href="#md924e724f2" y="301.032412"/>
      </g>
     </g>
    </g>
    <g id="xtick_2">
     <g id="line2d_2">
      <g>
       <use style="fill:#555555;stroke:#555555;stroke-width:0.8;" x="118.223812" xlink:href="#md924e724f2" y="301.032412"/>
      </g>
     </g>
    </g>
    <g id="xtick_3">
     <g id="line2d_3">
      <g>
       <use style="fill:#555555;stroke:#555555;stroke-width:0.8;" x="183.529393" xlink:href="#md924e724f2" y="301.032412"/>
      </g>
     </g>
    </g>
    <g id="xtick_4">
     <g id="line2d_4">
      <g>
       <use style="fill:#555555;stroke:#555555;stroke-width:0.8;" x="249.552617" xlink:href="#md924e724f2" y="301.032412"/>
      </g>
     </g>
    </g>
    <g id="xtick_5">
     <g id="line2d_5">
      <g>
       <use style="fill:#555555;stroke:#555555;stroke-width:0.8;" x="315.575841" xlink:href="#md924e724f2" y="301.032412"/>
      </g>
     </g>
    </g>
    <g id="xtick_6">
     <g id="line2d_6">
      <g>
       <use style="fill:#555555;stroke:#555555;stroke-width:0.8;" x="380.163778" xlink:href="#md924e724f2" y="301.032412"/>
      </g>
     </g>
    </g>
    <g id="xtick_7">
     <g id="line2d_7">
      <g>
       <use style="fill:#555555;stroke:#555555;stroke-width:0.8;" x="445.469359" xlink:href="#md924e724f2" y="301.032412"/>
      </g>
     </g>
    </g>
    <g id="xtick_8">
     <g id="line2d_8">
      <g>
       <use style="fill:#555555;stroke:#555555;stroke-width:0.8;" x="511.492583" xlink:href="#md924e724f2" y="301.032412"/>
      </g>
     </g>
    </g>
    <g id="xtick_9">
     <g id="line2d_9">
      <g>
       <use style="fill:#555555;stroke:#555555;stroke-width:0.8;" x="577.515807" xlink:href="#md924e724f2" y="301.032412"/>
      </g>
     </g>
    </g>
    <g id="xtick_10">
     <g id="line2d_10">
      <g>
       <use style="fill:#555555;stroke:#555555;stroke-width:0.8;" x="642.103744" xlink:href="#md924e724f2" y="301.032412"/>
      </g>
     </g>
    </g>
    <g id="xtick_11">
     <g id="line2d_11">
      <g>
       <use style="fill:#555555;stroke:#555555;stroke-width:0.8;" x="704.53875" xlink:href="#md924e724f2" y="301.032412"/>
      </g>
     </g>
    </g>
    <g id="xtick_12">
     <g id="line2d_12">
      <defs>
       <path d="M 0 0 
L 0 2 
" id="mfac210cfe7" style="stroke:#555555;stroke-width:0.6;"/>
      </defs>
      <g>
       <use style="fill:#555555;stroke:#555555;stroke-width:0.6;" x="75.165187" xlink:href="#mfac210cfe7" y="301.032412"/>
      </g>
     </g>
    </g>
    <g id="xtick_13">
     <g id="line2d_13">
      <g>
       <use style="fill:#555555;stroke:#555555;stroke-width:0.6;" x="95.976856" xlink:href="#mfac210cfe7" y="301.032412"/>
      </g>
     </g>
    </g>
    <g id="xtick_14">
     <g id="line2d_14">
      <g>
       <use style="fill:#555555;stroke:#555555;stroke-width:0.6;" x="139.753124" xlink:href="#mfac210cfe7" y="301.032412"/>
      </g>
     </g>
    </g>
    <g id="xtick_15">
     <g id="line2d_15">
      <g>
       <use style="fill:#555555;stroke:#555555;stroke-width:0.6;" x="162.00008" xlink:href="#mfac210cfe7" y="301.032412"/>
      </g>
     </g>
    </g>
    <g id="xtick_16">
     <g id="line2d_16">
      <g>
       <use style="fill:#555555;stroke:#555555;stroke-width:0.6;" x="205.776349" xlink:href="#mfac210cfe7" y="301.032412"/>
      </g>
     </g>
    </g>
    <g id="xtick_17">
     <g id="line2d_17">
      <g>
       <use style="fill:#555555;stroke:#555555;stroke-width:0.6;" x="228.023305" xlink:href="#mfac210cfe7" y="301.032412"/>
      </g>
     </g>
    </g>
    <g id="xtick_18">
     <g id="line2d_18">
      <g>
       <use style="fill:#555555;stroke:#555555;stroke-width:0.6;" x="271.799573" xlink:href="#mfac210cfe7" y="301.032412"/>
      </g>
     </g>
    </g>
    <g id="xtick_19">
     <g id="line2d_19">
      <g>
       <use style="fill:#555555;stroke:#555555;stroke-width:0.6;" x="293.328885" xlink:href="#mfac210cfe7" y="301.032412"/>
      </g>
     </g>
    </g>
    <g id="xtick_20">
     <g id="line2d_20">
      <g>
       <use style="fill:#555555;stroke:#555555;stroke-width:0.6;" x="337.822797" xlink:href="#mfac210cfe7" y="301.032412"/>
      </g>
     </g>
    </g>
    <g id="xtick_21">
     <g id="line2d_21">
      <g>
       <use style="fill:#555555;stroke:#555555;stroke-width:0.6;" x="357.916822" xlink:href="#mfac210cfe7" y="301.032412"/>
      </g>
     </g>
    </g>
    <g id="xtick_22">
     <g id="line2d_22">
      <g>
       <use style="fill:#555555;stroke:#555555;stroke-width:0.6;" x="401.69309" xlink:href="#mfac210cfe7" y="301.032412"/>
      </g>
     </g>
    </g>
    <g id="xtick_23">
     <g id="line2d_23">
      <g>
       <use style="fill:#555555;stroke:#555555;stroke-width:0.6;" x="423.940047" xlink:href="#mfac210cfe7" y="301.032412"/>
      </g>
     </g>
    </g>
    <g id="xtick_24">
     <g id="line2d_24">
      <g>
       <use style="fill:#555555;stroke:#555555;stroke-width:0.6;" x="467.716315" xlink:href="#mfac210cfe7" y="301.032412"/>
      </g>
     </g>
    </g>
    <g id="xtick_25">
     <g id="line2d_25">
      <g>
       <use style="fill:#555555;stroke:#555555;stroke-width:0.6;" x="489.963271" xlink:href="#mfac210cfe7" y="301.032412"/>
      </g>
     </g>
    </g>
    <g id="xtick_26">
     <g id="line2d_26">
      <g>
       <use style="fill:#555555;stroke:#555555;stroke-width:0.6;" x="533.739539" xlink:href="#mfac210cfe7" y="301.032412"/>
      </g>
     </g>
    </g>
    <g id="xtick_27">
     <g id="line2d_27">
      <g>
       <use style="fill:#555555;stroke:#555555;stroke-width:0.6;" x="555.268851" xlink:href="#mfac210cfe7" y="301.032412"/>
      </g>
     </g>
    </g>
    <g id="xtick_28">
     <g id="line2d_28">
      <g>
       <use style="fill:#555555;stroke:#555555;stroke-width:0.6;" x="599.762764" xlink:href="#mfac210cfe7" y="301.032412"/>
      </g>
     </g>
    </g>
    <g id="xtick_29">
     <g id="line2d_29">
      <g>
       <use style="fill:#555555;stroke:#555555;stroke-width:0.6;" x="619.856788" xlink:href="#mfac210cfe7" y="301.032412"/>
      </g>
     </g>
    </g>
    <g id="xtick_30">
     <g id="line2d_30">
      <g>
       <use style="fill:#555555;stroke:#555555;stroke-width:0.6;" x="663.633057" xlink:href="#mfac210cfe7" y="301.032412"/>
      </g>
     </g>
    </g>
    <g id="xtick_31">
     <g id="line2d_31">
      <g>
       <use style="fill:#555555;stroke:#555555;stroke-width:0.6;" x="685.880013" xlink:href="#mfac210cfe7" y="301.032412"/>
      </g>
     </g>
    </g>
   </g>
   <g id="matplotlib.axis_2">
    <g id="ytick_1">
     <g id="line2d_32">
      <defs>
       <path d="M 0 0 
L -3.5 0 
" id="m0879356dc7" style="stroke:#555555;stroke-width:0.8;"/>
      </defs>
      <g>
       <use style="fill:#555555;stroke:#555555;stroke-width:0.8;" x="67.98875" xlink:href="#m0879356dc7" y="291.988763"/>
      </g>
     </g>
     <g id="text_1">
      <!-- 0.0 -->
      <g style="fill:#555555;" transform="translate(45.085625 295.787981)scale(0.1 -0.1)">
       <defs>
        <path d="M 2034 4250 
Q 1547 4250 1301 3770 
Q 1056 3291 1056 2328 
Q 1056 1369 1301 889 
Q 1547 409 2034 409 
Q 2525 409 2770 889 
Q 3016 1369 3016 2328 
Q 3016 3291 2770 3770 
Q 2525 4250 2034 4250 
z
M 2034 4750 
Q 2819 4750 3233 4129 
Q 3647 3509 3647 2328 
Q 3647 1150 3233 529 
Q 2819 -91 2034 -91 
Q 1250 -91 836 529 
Q 422 1150 422 2328 
Q 422 3509 836 4129 
Q 1250 4750 2034 4750 
z
" id="DejaVuSans-30" transform="scale(0.015625)"/>
        <path d="M 684 794 
L 1344 794 
L 1344 0 
L 684 0 
L 684 794 
z
" id="DejaVuSans-2e" transform="scale(0.015625)"/>
       </defs>
       <use xlink:href="#DejaVuSans-30"/>
       <use x="63.623047" xlink:href="#DejaVuSans-2e"/>
       <use x="95.410156" xlink:href="#DejaVuSans-30"/>
      </g>
     </g>
    </g>
    <g id="ytick_2">
     <g id="line2d_33">
      <g>
       <use style="fill:#555555;stroke:#555555;stroke-width:0.8;" x="67.98875" xlink:href="#m0879356dc7" y="265.163556"/>
      </g>
     </g>
     <g id="text_2">
      <!-- 0.5 -->
      <g style="fill:#555555;" transform="translate(45.085625 268.962775)scale(0.1 -0.1)">
       <defs>
        <path d="M 691 4666 
L 3169 4666 
L 3169 4134 
L 1269 4134 
L 1269 2991 
Q 1406 3038 1543 3061 
Q 1681 3084 1819 3084 
Q 2600 3084 3056 2656 
Q 3513 2228 3513 1497 
Q 3513 744 3044 326 
Q 2575 -91 1722 -91 
Q 1428 -91 1123 -41 
Q 819 9 494 109 
L 494 744 
Q 775 591 1075 516 
Q 1375 441 1709 441 
Q 2250 441 2565 725 
Q 2881 1009 2881 1497 
Q 2881 1984 2565 2268 
Q 2250 2553 1709 2553 
Q 1456 2553 1204 2497 
Q 953 2441 691 2322 
L 691 4666 
z
" id="DejaVuSans-35" transform="scale(0.015625)"/>
       </defs>
       <use xlink:href="#DejaVuSans-30"/>
       <use x="63.623047" xlink:href="#DejaVuSans-2e"/>
       <use x="95.410156" xlink:href="#DejaVuSans-35"/>
      </g>
     </g>
    </g>
    <g id="ytick_3">
     <g id="line2d_34">
      <g>
       <use style="fill:#555555;stroke:#555555;stroke-width:0.8;" x="67.98875" xlink:href="#m0879356dc7" y="238.338349"/>
      </g>
     </g>
     <g id="text_3">
      <!-- 1.0 -->
      <g style="fill:#555555;" transform="translate(45.085625 242.137568)scale(0.1 -0.1)">
       <defs>
        <path d="M 794 531 
L 1825 531 
L 1825 4091 
L 703 3866 
L 703 4441 
L 1819 4666 
L 2450 4666 
L 2450 531 
L 3481 531 
L 3481 0 
L 794 0 
L 794 531 
z
" id="DejaVuSans-31" transform="scale(0.015625)"/>
       </defs>
       <use xlink:href="#DejaVuSans-31"/>
       <use x="63.623047" xlink:href="#DejaVuSans-2e"/>
       <use x="95.410156" xlink:href="#DejaVuSans-30"/>
      </g>
     </g>
    </g>
    <g id="ytick_4">
     <g id="line2d_35">
      <g>
       <use style="fill:#555555;stroke:#555555;stroke-width:0.8;" x="67.98875" xlink:href="#m0879356dc7" y="211.513142"/>
      </g>
     </g>
     <g id="text_4">
      <!-- 1.5 -->
      <g style="fill:#555555;" transform="translate(45.085625 215.312361)scale(0.1 -0.1)">
       <use xlink:href="#DejaVuSans-31"/>
       <use x="63.623047" xlink:href="#DejaVuSans-2e"/>
       <use x="95.410156" xlink:href="#DejaVuSans-35"/>
      </g>
     </g>
    </g>
    <g id="ytick_5">
     <g id="line2d_36">
      <g>
       <use style="fill:#555555;stroke:#555555;stroke-width:0.8;" x="67.98875" xlink:href="#m0879356dc7" y="184.687936"/>
      </g>
     </g>
     <g id="text_5">
      <!-- 2.0 -->
      <g style="fill:#555555;" transform="translate(45.085625 188.487155)scale(0.1 -0.1)">
       <defs>
        <path d="M 1228 531 
L 3431 531 
L 3431 0 
L 469 0 
L 469 531 
Q 828 903 1448 1529 
Q 2069 2156 2228 2338 
Q 2531 2678 2651 2914 
Q 2772 3150 2772 3378 
Q 2772 3750 2511 3984 
Q 2250 4219 1831 4219 
Q 1534 4219 1204 4116 
Q 875 4013 500 3803 
L 500 4441 
Q 881 4594 1212 4672 
Q 1544 4750 1819 4750 
Q 2544 4750 2975 4387 
Q 3406 4025 3406 3419 
Q 3406 3131 3298 2873 
Q 3191 2616 2906 2266 
Q 2828 2175 2409 1742 
Q 1991 1309 1228 531 
z
" id="DejaVuSans-32" transform="scale(0.015625)"/>
       </defs>
       <use xlink:href="#DejaVuSans-32"/>
       <use x="63.623047" xlink:href="#DejaVuSans-2e"/>
       <use x="95.410156" xlink:href="#DejaVuSans-30"/>
      </g>
     </g>
    </g>
    <g id="ytick_6">
     <g id="line2d_37">
      <g>
       <use style="fill:#555555;stroke:#555555;stroke-width:0.8;" x="67.98875" xlink:href="#m0879356dc7" y="157.862729"/>
      </g>
     </g>
     <g id="text_6">
      <!-- 2.5 -->
      <g style="fill:#555555;" transform="translate(45.085625 161.661948)scale(0.1 -0.1)">
       <use xlink:href="#DejaVuSans-32"/>
       <use x="63.623047" xlink:href="#DejaVuSans-2e"/>
       <use x="95.410156" xlink:href="#DejaVuSans-35"/>
      </g>
     </g>
    </g>
    <g id="ytick_7">
     <g id="line2d_38">
      <g>
       <use style="fill:#555555;stroke:#555555;stroke-width:0.8;" x="67.98875" xlink:href="#m0879356dc7" y="131.037522"/>
      </g>
     </g>
     <g id="text_7">
      <!-- 3.0 -->
      <g style="fill:#555555;" transform="translate(45.085625 134.836741)scale(0.1 -0.1)">
       <defs>
        <path d="M 2597 2516 
Q 3050 2419 3304 2112 
Q 3559 1806 3559 1356 
Q 3559 666 3084 287 
Q 2609 -91 1734 -91 
Q 1441 -91 1130 -33 
Q 819 25 488 141 
L 488 750 
Q 750 597 1062 519 
Q 1375 441 1716 441 
Q 2309 441 2620 675 
Q 2931 909 2931 1356 
Q 2931 1769 2642 2001 
Q 2353 2234 1838 2234 
L 1294 2234 
L 1294 2753 
L 1863 2753 
Q 2328 2753 2575 2939 
Q 2822 3125 2822 3475 
Q 2822 3834 2567 4026 
Q 2313 4219 1838 4219 
Q 1578 4219 1281 4162 
Q 984 4106 628 3988 
L 628 4550 
Q 988 4650 1302 4700 
Q 1616 4750 1894 4750 
Q 2613 4750 3031 4423 
Q 3450 4097 3450 3541 
Q 3450 3153 3228 2886 
Q 3006 2619 2597 2516 
z
" id="DejaVuSans-33" transform="scale(0.015625)"/>
       </defs>
       <use xlink:href="#DejaVuSans-33"/>
       <use x="63.623047" xlink:href="#DejaVuSans-2e"/>
       <use x="95.410156" xlink:href="#DejaVuSans-30"/>
      </g>
     </g>
    </g>
    <g id="ytick_8">
     <g id="line2d_39">
      <g>
       <use style="fill:#555555;stroke:#555555;stroke-width:0.8;" x="67.98875" xlink:href="#m0879356dc7" y="104.212316"/>
      </g>
     </g>
     <g id="text_8">
      <!-- 3.5 -->
      <g style="fill:#555555;" transform="translate(45.085625 108.011535)scale(0.1 -0.1)">
       <use xlink:href="#DejaVuSans-33"/>
       <use x="63.623047" xlink:href="#DejaVuSans-2e"/>
       <use x="95.410156" xlink:href="#DejaVuSans-35"/>
      </g>
     </g>
    </g>
    <g id="text_9">
     <!-- Total -->
     <g style="fill:#555555;" transform="translate(38.59 215.564081)rotate(-90)scale(0.12 -0.12)">
      <defs>
       <path d="M -19 4666 
L 3928 4666 
L 3928 4134 
L 2272 4134 
L 2272 0 
L 1638 0 
L 1638 4134 
L -19 4134 
L -19 4666 
z
" id="DejaVuSans-54" transform="scale(0.015625)"/>
       <path d="M 1959 3097 
Q 1497 3097 1228 2736 
Q 959 2375 959 1747 
Q 959 1119 1226 758 
Q 1494 397 1959 397 
Q 2419 397 2687 759 
Q 2956 1122 2956 1747 
Q 2956 2369 2687 2733 
Q 2419 3097 1959 3097 
z
M 1959 3584 
Q 2709 3584 3137 3096 
Q 3566 2609 3566 1747 
Q 3566 888 3137 398 
Q 2709 -91 1959 -91 
Q 1206 -91 779 398 
Q 353 888 353 1747 
Q 353 2609 779 3096 
Q 1206 3584 1959 3584 
z
" id="DejaVuSans-6f" transform="scale(0.015625)"/>
       <path d="M 1172 4494 
L 1172 3500 
L 2356 3500 
L 2356 3053 
L 1172 3053 
L 1172 1153 
Q 1172 725 1289 603 
Q 1406 481 1766 481 
L 2356 481 
L 2356 0 
L 1766 0 
Q 1100 0 847 248 
Q 594 497 594 1153 
L 594 3053 
L 172 3053 
L 172 3500 
L 594 3500 
L 594 4494 
L 1172 4494 
z
" id="DejaVuSans-74" transform="scale(0.015625)"/>
       <path d="M 2194 1759 
Q 1497 1759 1228 1600 
Q 959 1441 959 1056 
Q 959 750 1161 570 
Q 1363 391 1709 391 
Q 2188 391 2477 730 
Q 2766 1069 2766 1631 
L 2766 1759 
L 2194 1759 
z
M 3341 1997 
L 3341 0 
L 2766 0 
L 2766 531 
Q 2569 213 2275 61 
Q 1981 -91 1556 -91 
Q 1019 -91 701 211 
Q 384 513 384 1019 
Q 384 1609 779 1909 
Q 1175 2209 1959 2209 
L 2766 2209 
L 2766 2266 
Q 2766 2663 2505 2880 
Q 2244 3097 1772 3097 
Q 1472 3097 1187 3025 
Q 903 2953 641 2809 
L 641 3341 
Q 956 3463 1253 3523 
Q 1550 3584 1831 3584 
Q 2591 3584 2966 3190 
Q 3341 2797 3341 1997 
z
" id="DejaVuSans-61" transform="scale(0.015625)"/>
       <path d="M 603 4863 
L 1178 4863 
L 1178 0 
L 603 0 
L 603 4863 
z
" id="DejaVuSans-6c" transform="scale(0.015625)"/>
      </defs>
      <use xlink:href="#DejaVuSans-54"/>
      <use x="44.083984" xlink:href="#DejaVuSans-6f"/>
      <use x="105.265625" xlink:href="#DejaVuSans-74"/>
      <use x="144.474609" xlink:href="#DejaVuSans-61"/>
      <use x="205.753906" xlink:href="#DejaVuSans-6c"/>
     </g>
    </g>
    <g id="text_10">
     <!-- 1e7 -->
     <g style="fill:#555555;" transform="translate(67.98875 99.072)scale(0.1 -0.1)">
      <defs>
       <path d="M 3597 1894 
L 3597 1613 
L 953 1613 
Q 991 1019 1311 708 
Q 1631 397 2203 397 
Q 2534 397 2845 478 
Q 3156 559 3463 722 
L 3463 178 
Q 3153 47 2828 -22 
Q 2503 -91 2169 -91 
Q 1331 -91 842 396 
Q 353 884 353 1716 
Q 353 2575 817 3079 
Q 1281 3584 2069 3584 
Q 2775 3584 3186 3129 
Q 3597 2675 3597 1894 
z
M 3022 2063 
Q 3016 2534 2758 2815 
Q 2500 3097 2075 3097 
Q 1594 3097 1305 2825 
Q 1016 2553 972 2059 
L 3022 2063 
z
" id="DejaVuSans-65" transform="scale(0.015625)"/>
       <path d="M 525 4666 
L 3525 4666 
L 3525 4397 
L 1831 0 
L 1172 0 
L 2766 4134 
L 525 4134 
L 525 4666 
z
" id="DejaVuSans-37" transform="scale(0.015625)"/>
      </defs>
      <use xlink:href="#DejaVuSans-31"/>
      <use x="63.623047" xlink:href="#DejaVuSans-65"/>
      <use x="125.146484" xlink:href="#DejaVuSans-37"/>
     </g>
    </g>
   </g>
   <g id="line2d_40">
    <path clip-path="url(#p516742bd61)" d="M 67.98875 291.988757 
L 111.047375 291.900641 
L 114.635593 291.663237 
L 118.223812 291.1887 
L 121.812031 290.441715 
L 132.576687 288.011526 
L 145.494274 285.320619 
L 154.823643 283.717743 
L 168.458874 281.568984 
L 175.635311 280.356401 
L 179.22353 279.544541 
L 182.811749 278.506133 
L 187.117611 276.984417 
L 191.423474 275.212793 
L 196.44698 272.792202 
L 205.776349 268.221783 
L 209.364567 266.647449 
L 217.258649 263.550166 
L 221.564511 262.087562 
L 232.329167 258.751597 
L 243.093823 255.662366 
L 257.446698 250.862649 
L 261.752561 249.115263 
L 266.058423 247.070523 
L 270.364286 244.671778 
L 272.517217 243.29163 
L 274.670148 241.667637 
L 277.540723 239.180521 
L 279.693654 237.098519 
L 282.564229 233.888788 
L 285.434804 230.330994 
L 296.19946 216.38828 
L 299.070035 211.933015 
L 311.269979 192.509046 
L 316.293485 185.384218 
L 319.881704 179.432561 
L 324.90521 170.16318 
L 327.058141 166.544936 
L 329.211072 163.303638 
L 331.364004 160.373283 
L 334.952222 155.919429 
L 337.822797 152.682885 
L 339.975729 150.480564 
L 342.12866 148.521518 
L 344.999235 146.231496 
L 347.86981 144.250275 
L 350.740385 142.631693 
L 361.505041 137.277694 
L 366.528547 135.156108 
L 375.140272 131.606784 
L 380.163778 129.199396 
L 388.057859 125.29099 
L 393.799009 122.335528 
L 398.104872 120.417701 
L 403.128378 118.501653 
L 406.716597 117.289552 
L 411.022459 116.084666 
L 416.045965 114.921966 
L 421.787115 113.906741 
L 426.092978 113.369383 
L 438.292921 112.139243 
L 443.316428 111.696577 
L 443.316428 111.696577 
" style="fill:none;stroke:#e24a33;stroke-linecap:square;stroke-width:1.5;"/>
   </g>
   <g id="line2d_41">
    <path clip-path="url(#p516742bd61)" d="M 443.316428 111.696577 
L 447.62229 111.396865 
L 454.081084 111.21021 
L 466.998671 111.126326 
L 538.045402 111.115655 
L 704.53875 111.115655 
L 704.53875 111.115655 
" style="fill:none;stroke:#348abd;stroke-linecap:square;stroke-width:1.5;"/>
   </g>
   <g id="patch_3">
    <path d="M 67.98875 301.032412 
L 67.98875 102.072 
" style="fill:none;stroke:#ffffff;stroke-linecap:square;stroke-linejoin:miter;"/>
   </g>
   <g id="patch_4">
    <path d="M 704.53875 301.032412 
L 704.53875 102.072 
" style="fill:none;stroke:#ffffff;stroke-linecap:square;stroke-linejoin:miter;"/>
   </g>
   <g id="patch_5">
    <path d="M 67.98875 301.032412 
L 704.53875 301.032412 
" style="fill:none;stroke:#ffffff;stroke-linecap:square;stroke-linejoin:miter;"/>
   </g>
   <g id="patch_6">
    <path d="M 67.98875 102.072 
L 704.53875 102.072 
" style="fill:none;stroke:#ffffff;stroke-linecap:square;stroke-linejoin:miter;"/>
   </g>
  </g>
  <g id="axes_2">
   <g id="patch_7">
    <path d="M 67.98875 512.64 
L 704.53875 512.64 
L 704.53875 313.679588 
L 67.98875 313.679588 
z
" style="fill:#e5e5e5;"/>
   </g>
   <g id="matplotlib.axis_3">
    <g id="xtick_32">
     <g id="line2d_42">
      <g>
       <use style="fill:#555555;stroke:#555555;stroke-width:0.8;" x="67.98875" xlink:href="#md924e724f2" y="512.64"/>
      </g>
     </g>
    </g>
    <g id="xtick_33">
     <g id="line2d_43">
      <g>
       <use style="fill:#555555;stroke:#555555;stroke-width:0.8;" x="118.223812" xlink:href="#md924e724f2" y="512.64"/>
      </g>
     </g>
     <g id="text_11">
      <!-- Apr -->
      <g style="fill:#555555;" transform="translate(102.201729 534.87044)rotate(-30)scale(0.1 -0.1)">
       <defs>
        <path d="M 2188 4044 
L 1331 1722 
L 3047 1722 
L 2188 4044 
z
M 1831 4666 
L 2547 4666 
L 4325 0 
L 3669 0 
L 3244 1197 
L 1141 1197 
L 716 0 
L 50 0 
L 1831 4666 
z
" id="DejaVuSans-41" transform="scale(0.015625)"/>
        <path d="M 1159 525 
L 1159 -1331 
L 581 -1331 
L 581 3500 
L 1159 3500 
L 1159 2969 
Q 1341 3281 1617 3432 
Q 1894 3584 2278 3584 
Q 2916 3584 3314 3078 
Q 3713 2572 3713 1747 
Q 3713 922 3314 415 
Q 2916 -91 2278 -91 
Q 1894 -91 1617 61 
Q 1341 213 1159 525 
z
M 3116 1747 
Q 3116 2381 2855 2742 
Q 2594 3103 2138 3103 
Q 1681 3103 1420 2742 
Q 1159 2381 1159 1747 
Q 1159 1113 1420 752 
Q 1681 391 2138 391 
Q 2594 391 2855 752 
Q 3116 1113 3116 1747 
z
" id="DejaVuSans-70" transform="scale(0.015625)"/>
        <path d="M 2631 2963 
Q 2534 3019 2420 3045 
Q 2306 3072 2169 3072 
Q 1681 3072 1420 2755 
Q 1159 2438 1159 1844 
L 1159 0 
L 581 0 
L 581 3500 
L 1159 3500 
L 1159 2956 
Q 1341 3275 1631 3429 
Q 1922 3584 2338 3584 
Q 2397 3584 2469 3576 
Q 2541 3569 2628 3553 
L 2631 2963 
z
" id="DejaVuSans-72" transform="scale(0.015625)"/>
       </defs>
       <use xlink:href="#DejaVuSans-41"/>
       <use x="68.408203" xlink:href="#DejaVuSans-70"/>
       <use x="131.884766" xlink:href="#DejaVuSans-72"/>
      </g>
     </g>
    </g>
    <g id="xtick_34">
     <g id="line2d_44">
      <g>
       <use style="fill:#555555;stroke:#555555;stroke-width:0.8;" x="183.529393" xlink:href="#md924e724f2" y="512.64"/>
      </g>
     </g>
     <g id="text_12">
      <!-- Jul -->
      <g style="fill:#555555;" transform="translate(172.040411 532.253252)rotate(-30)scale(0.1 -0.1)">
       <defs>
        <path d="M 628 4666 
L 1259 4666 
L 1259 325 
Q 1259 -519 939 -900 
Q 619 -1281 -91 -1281 
L -331 -1281 
L -331 -750 
L -134 -750 
Q 284 -750 456 -515 
Q 628 -281 628 325 
L 628 4666 
z
" id="DejaVuSans-4a" transform="scale(0.015625)"/>
        <path d="M 544 1381 
L 544 3500 
L 1119 3500 
L 1119 1403 
Q 1119 906 1312 657 
Q 1506 409 1894 409 
Q 2359 409 2629 706 
Q 2900 1003 2900 1516 
L 2900 3500 
L 3475 3500 
L 3475 0 
L 2900 0 
L 2900 538 
Q 2691 219 2414 64 
Q 2138 -91 1772 -91 
Q 1169 -91 856 284 
Q 544 659 544 1381 
z
M 1991 3584 
L 1991 3584 
z
" id="DejaVuSans-75" transform="scale(0.015625)"/>
       </defs>
       <use xlink:href="#DejaVuSans-4a"/>
       <use x="29.492188" xlink:href="#DejaVuSans-75"/>
       <use x="92.871094" xlink:href="#DejaVuSans-6c"/>
      </g>
     </g>
    </g>
    <g id="xtick_35">
     <g id="line2d_45">
      <g>
       <use style="fill:#555555;stroke:#555555;stroke-width:0.8;" x="249.552617" xlink:href="#md924e724f2" y="512.64"/>
      </g>
     </g>
     <g id="text_13">
      <!-- Oct -->
      <g style="fill:#555555;" transform="translate(233.538653 534.865752)rotate(-30)scale(0.1 -0.1)">
       <defs>
        <path d="M 2522 4238 
Q 1834 4238 1429 3725 
Q 1025 3213 1025 2328 
Q 1025 1447 1429 934 
Q 1834 422 2522 422 
Q 3209 422 3611 934 
Q 4013 1447 4013 2328 
Q 4013 3213 3611 3725 
Q 3209 4238 2522 4238 
z
M 2522 4750 
Q 3503 4750 4090 4092 
Q 4678 3434 4678 2328 
Q 4678 1225 4090 567 
Q 3503 -91 2522 -91 
Q 1538 -91 948 565 
Q 359 1222 359 2328 
Q 359 3434 948 4092 
Q 1538 4750 2522 4750 
z
" id="DejaVuSans-4f" transform="scale(0.015625)"/>
        <path d="M 3122 3366 
L 3122 2828 
Q 2878 2963 2633 3030 
Q 2388 3097 2138 3097 
Q 1578 3097 1268 2742 
Q 959 2388 959 1747 
Q 959 1106 1268 751 
Q 1578 397 2138 397 
Q 2388 397 2633 464 
Q 2878 531 3122 666 
L 3122 134 
Q 2881 22 2623 -34 
Q 2366 -91 2075 -91 
Q 1284 -91 818 406 
Q 353 903 353 1747 
Q 353 2603 823 3093 
Q 1294 3584 2113 3584 
Q 2378 3584 2631 3529 
Q 2884 3475 3122 3366 
z
" id="DejaVuSans-63" transform="scale(0.015625)"/>
       </defs>
       <use xlink:href="#DejaVuSans-4f"/>
       <use x="78.710938" xlink:href="#DejaVuSans-63"/>
       <use x="133.691406" xlink:href="#DejaVuSans-74"/>
      </g>
     </g>
    </g>
    <g id="xtick_36">
     <g id="line2d_46">
      <g>
       <use style="fill:#555555;stroke:#555555;stroke-width:0.8;" x="315.575841" xlink:href="#md924e724f2" y="512.64"/>
      </g>
     </g>
     <g id="text_14">
      <!-- Jan -->
      <g style="fill:#555555;" transform="translate(295.586768 533.928252)rotate(-30)scale(0.1 -0.1)">
       <defs>
        <path d="M 3513 2113 
L 3513 0 
L 2938 0 
L 2938 2094 
Q 2938 2591 2744 2837 
Q 2550 3084 2163 3084 
Q 1697 3084 1428 2787 
Q 1159 2491 1159 1978 
L 1159 0 
L 581 0 
L 581 3500 
L 1159 3500 
L 1159 2956 
Q 1366 3272 1645 3428 
Q 1925 3584 2291 3584 
Q 2894 3584 3203 3211 
Q 3513 2838 3513 2113 
z
" id="DejaVuSans-6e" transform="scale(0.015625)"/>
       </defs>
       <use xlink:href="#DejaVuSans-4a"/>
       <use x="29.492188" xlink:href="#DejaVuSans-61"/>
       <use x="90.771484" xlink:href="#DejaVuSans-6e"/>
      </g>
      <!-- 2021 -->
      <g style="fill:#555555;" transform="translate(292.495651 548.64303)rotate(-30)scale(0.1 -0.1)">
       <use xlink:href="#DejaVuSans-32"/>
       <use x="63.623047" xlink:href="#DejaVuSans-30"/>
       <use x="127.246094" xlink:href="#DejaVuSans-32"/>
       <use x="190.869141" xlink:href="#DejaVuSans-31"/>
      </g>
     </g>
    </g>
    <g id="xtick_37">
     <g id="line2d_47">
      <g>
       <use style="fill:#555555;stroke:#555555;stroke-width:0.8;" x="380.163778" xlink:href="#md924e724f2" y="512.64"/>
      </g>
     </g>
     <g id="text_15">
      <!-- Apr -->
      <g style="fill:#555555;" transform="translate(364.141695 534.87044)rotate(-30)scale(0.1 -0.1)">
       <use xlink:href="#DejaVuSans-41"/>
       <use x="68.408203" xlink:href="#DejaVuSans-70"/>
       <use x="131.884766" xlink:href="#DejaVuSans-72"/>
      </g>
     </g>
    </g>
    <g id="xtick_38">
     <g id="line2d_48">
      <g>
       <use style="fill:#555555;stroke:#555555;stroke-width:0.8;" x="445.469359" xlink:href="#md924e724f2" y="512.64"/>
      </g>
     </g>
     <g id="text_16">
      <!-- Jul -->
      <g style="fill:#555555;" transform="translate(433.980377 532.253252)rotate(-30)scale(0.1 -0.1)">
       <use xlink:href="#DejaVuSans-4a"/>
       <use x="29.492188" xlink:href="#DejaVuSans-75"/>
       <use x="92.871094" xlink:href="#DejaVuSans-6c"/>
      </g>
     </g>
    </g>
    <g id="xtick_39">
     <g id="line2d_49">
      <g>
       <use style="fill:#555555;stroke:#555555;stroke-width:0.8;" x="511.492583" xlink:href="#md924e724f2" y="512.64"/>
      </g>
     </g>
     <g id="text_17">
      <!-- Oct -->
      <g style="fill:#555555;" transform="translate(495.478619 534.865752)rotate(-30)scale(0.1 -0.1)">
       <use xlink:href="#DejaVuSans-4f"/>
       <use x="78.710938" xlink:href="#DejaVuSans-63"/>
       <use x="133.691406" xlink:href="#DejaVuSans-74"/>
      </g>
     </g>
    </g>
    <g id="xtick_40">
     <g id="line2d_50">
      <g>
       <use style="fill:#555555;stroke:#555555;stroke-width:0.8;" x="577.515807" xlink:href="#md924e724f2" y="512.64"/>
      </g>
     </g>
     <g id="text_18">
      <!-- Jan -->
      <g style="fill:#555555;" transform="translate(557.526735 533.928252)rotate(-30)scale(0.1 -0.1)">
       <use xlink:href="#DejaVuSans-4a"/>
       <use x="29.492188" xlink:href="#DejaVuSans-61"/>
       <use x="90.771484" xlink:href="#DejaVuSans-6e"/>
      </g>
      <!-- 2022 -->
      <g style="fill:#555555;" transform="translate(554.435617 548.64303)rotate(-30)scale(0.1 -0.1)">
       <use xlink:href="#DejaVuSans-32"/>
       <use x="63.623047" xlink:href="#DejaVuSans-30"/>
       <use x="127.246094" xlink:href="#DejaVuSans-32"/>
       <use x="190.869141" xlink:href="#DejaVuSans-32"/>
      </g>
     </g>
    </g>
    <g id="xtick_41">
     <g id="line2d_51">
      <g>
       <use style="fill:#555555;stroke:#555555;stroke-width:0.8;" x="642.103744" xlink:href="#md924e724f2" y="512.64"/>
      </g>
     </g>
     <g id="text_19">
      <!-- Apr -->
      <g style="fill:#555555;" transform="translate(626.081661 534.87044)rotate(-30)scale(0.1 -0.1)">
       <use xlink:href="#DejaVuSans-41"/>
       <use x="68.408203" xlink:href="#DejaVuSans-70"/>
       <use x="131.884766" xlink:href="#DejaVuSans-72"/>
      </g>
     </g>
    </g>
    <g id="xtick_42">
     <g id="line2d_52">
      <g>
       <use style="fill:#555555;stroke:#555555;stroke-width:0.8;" x="704.53875" xlink:href="#md924e724f2" y="512.64"/>
      </g>
     </g>
    </g>
    <g id="xtick_43">
     <g id="line2d_53">
      <g>
       <use style="fill:#555555;stroke:#555555;stroke-width:0.6;" x="75.165187" xlink:href="#mfac210cfe7" y="512.64"/>
      </g>
     </g>
    </g>
    <g id="xtick_44">
     <g id="line2d_54">
      <g>
       <use style="fill:#555555;stroke:#555555;stroke-width:0.6;" x="95.976856" xlink:href="#mfac210cfe7" y="512.64"/>
      </g>
     </g>
    </g>
    <g id="xtick_45">
     <g id="line2d_55">
      <g>
       <use style="fill:#555555;stroke:#555555;stroke-width:0.6;" x="139.753124" xlink:href="#mfac210cfe7" y="512.64"/>
      </g>
     </g>
    </g>
    <g id="xtick_46">
     <g id="line2d_56">
      <g>
       <use style="fill:#555555;stroke:#555555;stroke-width:0.6;" x="162.00008" xlink:href="#mfac210cfe7" y="512.64"/>
      </g>
     </g>
    </g>
    <g id="xtick_47">
     <g id="line2d_57">
      <g>
       <use style="fill:#555555;stroke:#555555;stroke-width:0.6;" x="205.776349" xlink:href="#mfac210cfe7" y="512.64"/>
      </g>
     </g>
    </g>
    <g id="xtick_48">
     <g id="line2d_58">
      <g>
       <use style="fill:#555555;stroke:#555555;stroke-width:0.6;" x="228.023305" xlink:href="#mfac210cfe7" y="512.64"/>
      </g>
     </g>
    </g>
    <g id="xtick_49">
     <g id="line2d_59">
      <g>
       <use style="fill:#555555;stroke:#555555;stroke-width:0.6;" x="271.799573" xlink:href="#mfac210cfe7" y="512.64"/>
      </g>
     </g>
    </g>
    <g id="xtick_50">
     <g id="line2d_60">
      <g>
       <use style="fill:#555555;stroke:#555555;stroke-width:0.6;" x="293.328885" xlink:href="#mfac210cfe7" y="512.64"/>
      </g>
     </g>
    </g>
    <g id="xtick_51">
     <g id="line2d_61">
      <g>
       <use style="fill:#555555;stroke:#555555;stroke-width:0.6;" x="337.822797" xlink:href="#mfac210cfe7" y="512.64"/>
      </g>
     </g>
    </g>
    <g id="xtick_52">
     <g id="line2d_62">
      <g>
       <use style="fill:#555555;stroke:#555555;stroke-width:0.6;" x="357.916822" xlink:href="#mfac210cfe7" y="512.64"/>
      </g>
     </g>
    </g>
    <g id="xtick_53">
     <g id="line2d_63">
      <g>
       <use style="fill:#555555;stroke:#555555;stroke-width:0.6;" x="401.69309" xlink:href="#mfac210cfe7" y="512.64"/>
      </g>
     </g>
    </g>
    <g id="xtick_54">
     <g id="line2d_64">
      <g>
       <use style="fill:#555555;stroke:#555555;stroke-width:0.6;" x="423.940047" xlink:href="#mfac210cfe7" y="512.64"/>
      </g>
     </g>
    </g>
    <g id="xtick_55">
     <g id="line2d_65">
      <g>
       <use style="fill:#555555;stroke:#555555;stroke-width:0.6;" x="467.716315" xlink:href="#mfac210cfe7" y="512.64"/>
      </g>
     </g>
    </g>
    <g id="xtick_56">
     <g id="line2d_66">
      <g>
       <use style="fill:#555555;stroke:#555555;stroke-width:0.6;" x="489.963271" xlink:href="#mfac210cfe7" y="512.64"/>
      </g>
     </g>
    </g>
    <g id="xtick_57">
     <g id="line2d_67">
      <g>
       <use style="fill:#555555;stroke:#555555;stroke-width:0.6;" x="533.739539" xlink:href="#mfac210cfe7" y="512.64"/>
      </g>
     </g>
    </g>
    <g id="xtick_58">
     <g id="line2d_68">
      <g>
       <use style="fill:#555555;stroke:#555555;stroke-width:0.6;" x="555.268851" xlink:href="#mfac210cfe7" y="512.64"/>
      </g>
     </g>
    </g>
    <g id="xtick_59">
     <g id="line2d_69">
      <g>
       <use style="fill:#555555;stroke:#555555;stroke-width:0.6;" x="599.762764" xlink:href="#mfac210cfe7" y="512.64"/>
      </g>
     </g>
    </g>
    <g id="xtick_60">
     <g id="line2d_70">
      <g>
       <use style="fill:#555555;stroke:#555555;stroke-width:0.6;" x="619.856788" xlink:href="#mfac210cfe7" y="512.64"/>
      </g>
     </g>
    </g>
    <g id="xtick_61">
     <g id="line2d_71">
      <g>
       <use style="fill:#555555;stroke:#555555;stroke-width:0.6;" x="663.633057" xlink:href="#mfac210cfe7" y="512.64"/>
      </g>
     </g>
    </g>
    <g id="xtick_62">
     <g id="line2d_72">
      <g>
       <use style="fill:#555555;stroke:#555555;stroke-width:0.6;" x="685.880013" xlink:href="#mfac210cfe7" y="512.64"/>
      </g>
     </g>
    </g>
    <g id="text_20">
     <!-- Date -->
     <g style="fill:#555555;" transform="translate(371.922813 563.562217)scale(0.12 -0.12)">
      <defs>
       <path d="M 1259 4147 
L 1259 519 
L 2022 519 
Q 2988 519 3436 956 
Q 3884 1394 3884 2338 
Q 3884 3275 3436 3711 
Q 2988 4147 2022 4147 
L 1259 4147 
z
M 628 4666 
L 1925 4666 
Q 3281 4666 3915 4102 
Q 4550 3538 4550 2338 
Q 4550 1131 3912 565 
Q 3275 0 1925 0 
L 628 0 
L 628 4666 
z
" id="DejaVuSans-44" transform="scale(0.015625)"/>
      </defs>
      <use xlink:href="#DejaVuSans-44"/>
      <use x="77.001953" xlink:href="#DejaVuSans-61"/>
      <use x="138.28125" xlink:href="#DejaVuSans-74"/>
      <use x="177.490234" xlink:href="#DejaVuSans-65"/>
     </g>
    </g>
   </g>
   <g id="matplotlib.axis_4">
    <g id="ytick_9">
     <g id="line2d_73">
      <g>
       <use style="fill:#555555;stroke:#555555;stroke-width:0.8;" x="67.98875" xlink:href="#m0879356dc7" y="503.596345"/>
      </g>
     </g>
     <g id="text_21">
      <!-- 0 -->
      <g style="fill:#555555;" transform="translate(54.62625 507.395564)scale(0.1 -0.1)">
       <use xlink:href="#DejaVuSans-30"/>
      </g>
     </g>
    </g>
    <g id="ytick_10">
     <g id="line2d_74">
      <g>
       <use style="fill:#555555;stroke:#555555;stroke-width:0.8;" x="67.98875" xlink:href="#m0879356dc7" y="467.578003"/>
      </g>
     </g>
     <g id="text_22">
      <!-- 50000 -->
      <g style="fill:#555555;" transform="translate(29.17625 471.377222)scale(0.1 -0.1)">
       <use xlink:href="#DejaVuSans-35"/>
       <use x="63.623047" xlink:href="#DejaVuSans-30"/>
       <use x="127.246094" xlink:href="#DejaVuSans-30"/>
       <use x="190.869141" xlink:href="#DejaVuSans-30"/>
       <use x="254.492188" xlink:href="#DejaVuSans-30"/>
      </g>
     </g>
    </g>
    <g id="ytick_11">
     <g id="line2d_75">
      <g>
       <use style="fill:#555555;stroke:#555555;stroke-width:0.8;" x="67.98875" xlink:href="#m0879356dc7" y="431.559661"/>
      </g>
     </g>
     <g id="text_23">
      <!-- 100000 -->
      <g style="fill:#555555;" transform="translate(22.81375 435.35888)scale(0.1 -0.1)">
       <use xlink:href="#DejaVuSans-31"/>
       <use x="63.623047" xlink:href="#DejaVuSans-30"/>
       <use x="127.246094" xlink:href="#DejaVuSans-30"/>
       <use x="190.869141" xlink:href="#DejaVuSans-30"/>
       <use x="254.492188" xlink:href="#DejaVuSans-30"/>
       <use x="318.115234" xlink:href="#DejaVuSans-30"/>
      </g>
     </g>
    </g>
    <g id="ytick_12">
     <g id="line2d_76">
      <g>
       <use style="fill:#555555;stroke:#555555;stroke-width:0.8;" x="67.98875" xlink:href="#m0879356dc7" y="395.541319"/>
      </g>
     </g>
     <g id="text_24">
      <!-- 150000 -->
      <g style="fill:#555555;" transform="translate(22.81375 399.340538)scale(0.1 -0.1)">
       <use xlink:href="#DejaVuSans-31"/>
       <use x="63.623047" xlink:href="#DejaVuSans-35"/>
       <use x="127.246094" xlink:href="#DejaVuSans-30"/>
       <use x="190.869141" xlink:href="#DejaVuSans-30"/>
       <use x="254.492188" xlink:href="#DejaVuSans-30"/>
       <use x="318.115234" xlink:href="#DejaVuSans-30"/>
      </g>
     </g>
    </g>
    <g id="ytick_13">
     <g id="line2d_77">
      <g>
       <use style="fill:#555555;stroke:#555555;stroke-width:0.8;" x="67.98875" xlink:href="#m0879356dc7" y="359.522977"/>
      </g>
     </g>
     <g id="text_25">
      <!-- 200000 -->
      <g style="fill:#555555;" transform="translate(22.81375 363.322196)scale(0.1 -0.1)">
       <use xlink:href="#DejaVuSans-32"/>
       <use x="63.623047" xlink:href="#DejaVuSans-30"/>
       <use x="127.246094" xlink:href="#DejaVuSans-30"/>
       <use x="190.869141" xlink:href="#DejaVuSans-30"/>
       <use x="254.492188" xlink:href="#DejaVuSans-30"/>
       <use x="318.115234" xlink:href="#DejaVuSans-30"/>
      </g>
     </g>
    </g>
    <g id="ytick_14">
     <g id="line2d_78">
      <g>
       <use style="fill:#555555;stroke:#555555;stroke-width:0.8;" x="67.98875" xlink:href="#m0879356dc7" y="323.504635"/>
      </g>
     </g>
     <g id="text_26">
      <!-- 250000 -->
      <g style="fill:#555555;" transform="translate(22.81375 327.303854)scale(0.1 -0.1)">
       <use xlink:href="#DejaVuSans-32"/>
       <use x="63.623047" xlink:href="#DejaVuSans-35"/>
       <use x="127.246094" xlink:href="#DejaVuSans-30"/>
       <use x="190.869141" xlink:href="#DejaVuSans-30"/>
       <use x="254.492188" xlink:href="#DejaVuSans-30"/>
       <use x="318.115234" xlink:href="#DejaVuSans-30"/>
      </g>
     </g>
    </g>
    <g id="text_27">
     <!-- Daily -->
     <g style="fill:#555555;" transform="translate(16.318125 428.341669)rotate(-90)scale(0.12 -0.12)">
      <defs>
       <path d="M 603 3500 
L 1178 3500 
L 1178 0 
L 603 0 
L 603 3500 
z
M 603 4863 
L 1178 4863 
L 1178 4134 
L 603 4134 
L 603 4863 
z
" id="DejaVuSans-69" transform="scale(0.015625)"/>
       <path d="M 2059 -325 
Q 1816 -950 1584 -1140 
Q 1353 -1331 966 -1331 
L 506 -1331 
L 506 -850 
L 844 -850 
Q 1081 -850 1212 -737 
Q 1344 -625 1503 -206 
L 1606 56 
L 191 3500 
L 800 3500 
L 1894 763 
L 2988 3500 
L 3597 3500 
L 2059 -325 
z
" id="DejaVuSans-79" transform="scale(0.015625)"/>
      </defs>
      <use xlink:href="#DejaVuSans-44"/>
      <use x="77.001953" xlink:href="#DejaVuSans-61"/>
      <use x="138.28125" xlink:href="#DejaVuSans-69"/>
      <use x="166.064453" xlink:href="#DejaVuSans-6c"/>
      <use x="193.847656" xlink:href="#DejaVuSans-79"/>
     </g>
    </g>
   </g>
   <g id="line2d_79">
    <path clip-path="url(#p83ac60d25f)" d="M 67.98875 503.595625 
L 102.43565 503.523485 
L 106.023868 503.319209 
L 107.459156 503.006673 
L 108.1768 502.770804 
L 108.894443 502.353506 
L 110.329731 501.224589 
L 112.482662 498.42586 
L 113.200306 497.455938 
L 115.353237 493.409535 
L 116.788525 491.262533 
L 117.506168 489.647367 
L 118.223812 487.568183 
L 120.376743 483.375751 
L 121.812031 481.285555 
L 122.529674 480.826064 
L 123.247318 480.934222 
L 123.964962 480.551398 
L 124.682606 480.3357 
L 127.553181 481.607044 
L 128.988468 482.817981 
L 131.141399 483.199467 
L 131.859043 482.902984 
L 132.576687 483.200599 
L 134.011974 482.468603 
L 134.729618 482.544653 
L 135.447262 482.290158 
L 136.164906 482.246318 
L 136.882549 482.874581 
L 137.600193 483.013612 
L 138.317837 483.265946 
L 139.035481 483.719469 
L 139.753124 483.453962 
L 141.188412 483.988989 
L 142.623699 483.957498 
L 144.058987 484.334765 
L 144.77663 485.165965 
L 145.494274 485.389485 
L 146.929562 486.448012 
L 147.647205 486.61277 
L 148.364849 487.038404 
L 149.082493 487.101385 
L 150.51778 487.424315 
L 151.235424 487.467228 
L 151.953068 487.149135 
L 152.670712 487.349603 
L 153.388355 487.113734 
L 154.823643 487.333137 
L 155.541287 487.645571 
L 156.25893 487.471756 
L 156.976574 487.8553 
L 157.694218 487.990729 
L 159.129505 488.775209 
L 159.847149 488.689897 
L 160.564793 488.429227 
L 162.00008 488.670241 
L 163.435368 488.346591 
L 164.153012 488.414717 
L 164.870655 488.319525 
L 165.588299 488.57577 
L 166.305943 488.68434 
L 167.023587 488.663552 
L 167.74123 488.984527 
L 169.176518 488.700291 
L 169.894161 488.759464 
L 170.611805 488.340622 
L 171.329449 488.236374 
L 172.047093 488.008841 
L 174.200024 486.298896 
L 176.352955 484.241426 
L 177.788243 481.594386 
L 178.505886 480.688165 
L 179.22353 479.474964 
L 179.941174 477.987407 
L 180.658818 477.056075 
L 181.376461 475.452333 
L 182.811749 473.548197 
L 184.247036 470.229159 
L 185.682324 469.229392 
L 186.399968 468.198959 
L 187.117611 468.013002 
L 187.835255 466.547467 
L 188.552899 465.69342 
L 189.270543 465.089033 
L 190.70583 461.895749 
L 191.423474 461.105713 
L 192.141118 459.477272 
L 193.576405 457.896478 
L 194.294049 456.521916 
L 195.011693 456.091857 
L 197.164624 455.296572 
L 197.882267 455.666017 
L 198.599911 455.409875 
L 199.317555 456.173567 
L 200.035199 456.062116 
L 200.752842 455.813383 
L 202.18813 456.941684 
L 203.623417 456.607742 
L 204.341061 456.708491 
L 205.058705 457.182595 
L 206.493992 459.034967 
L 207.211636 460.195992 
L 207.92928 460.982015 
L 208.646924 462.773362 
L 210.082211 464.576955 
L 210.799855 464.789669 
L 211.517499 464.768984 
L 212.235142 464.552359 
L 212.952786 465.660798 
L 213.67043 465.498818 
L 214.388074 466.325491 
L 215.105717 465.704638 
L 216.541005 467.118615 
L 217.258649 468.245886 
L 217.976292 468.551527 
L 219.41158 470.197565 
L 220.129224 471.894853 
L 221.564511 472.805808 
L 222.282155 472.823303 
L 222.999798 473.304816 
L 223.717442 473.525866 
L 224.435086 473.386732 
L 225.15273 473.593683 
L 227.305661 473.724687 
L 228.023305 473.571146 
L 228.740948 473.998633 
L 229.458592 474.116155 
L 230.176236 473.750826 
L 230.89388 473.709251 
L 231.611523 474.037121 
L 232.329167 475.246205 
L 233.046811 476.750743 
L 234.482098 478.311263 
L 235.917386 478.791851 
L 236.63503 478.467274 
L 238.070317 476.092533 
L 238.787961 475.579941 
L 239.505605 474.646139 
L 240.940892 474.377134 
L 241.658536 473.957777 
L 242.37618 472.161491 
L 243.811467 472.11899 
L 244.529111 471.915949 
L 245.246755 472.017521 
L 245.964398 471.763231 
L 246.682042 471.857805 
L 247.399686 473.770276 
L 248.117329 473.412974 
L 248.834973 473.374486 
L 249.552617 473.524014 
L 250.270261 472.839151 
L 250.987904 472.437392 
L 251.705548 472.6216 
L 252.423192 471.995704 
L 253.140836 471.794927 
L 254.576123 469.267263 
L 255.293767 469.119691 
L 256.011411 468.46354 
L 256.729054 467.409437 
L 257.446698 467.16266 
L 258.164342 466.448262 
L 258.881986 465.550685 
L 259.599629 464.90431 
L 260.317273 463.590875 
L 261.034917 463.405021 
L 261.752561 463.056569 
L 262.470204 460.386787 
L 263.187848 459.385991 
L 263.905492 459.023441 
L 265.340779 456.531383 
L 266.058423 453.854912 
L 266.776067 452.533862 
L 267.493711 452.575746 
L 269.646642 447.871133 
L 270.364286 446.087608 
L 271.081929 445.368579 
L 271.799573 440.974753 
L 272.517217 439.132569 
L 273.23486 433.950044 
L 273.952504 431.365471 
L 274.670148 427.419095 
L 275.387792 424.45849 
L 276.105435 420.573038 
L 276.823079 419.516157 
L 277.540723 415.891373 
L 278.258367 414.522059 
L 278.97601 410.17835 
L 279.693654 406.537101 
L 280.411298 401.148243 
L 281.128942 396.989051 
L 281.846585 394.808809 
L 282.564229 390.467055 
L 283.999517 385.326208 
L 284.71716 382.572349 
L 285.434804 380.726666 
L 288.305379 376.080094 
L 289.023023 375.035357 
L 289.740667 383.163564 
L 290.45831 382.175633 
L 291.175954 384.622307 
L 291.893598 385.303465 
L 292.611242 386.720324 
L 293.328885 385.403596 
L 294.046529 383.397786 
L 294.764173 371.985632 
L 295.481817 369.442634 
L 296.19946 363.252625 
L 296.917104 359.041052 
L 298.352391 351.816698 
L 299.070035 349.783823 
L 300.505323 348.193665 
L 301.222966 347.989286 
L 301.94061 347.29794 
L 302.658254 347.307717 
L 303.375898 348.898698 
L 304.093541 346.429281 
L 304.811185 345.557431 
L 305.528829 344.348964 
L 306.246473 346.993225 
L 306.964116 346.988697 
L 307.68176 346.537027 
L 308.399404 347.657197 
L 309.117048 349.408718 
L 309.834691 354.116315 
L 310.552335 369.959446 
L 311.269979 366.428208 
L 311.987623 369.738808 
L 312.705266 372.26534 
L 313.42291 372.028545 
L 314.140554 371.608983 
L 314.858198 367.343897 
L 315.575841 361.577257 
L 316.293485 353.957217 
L 317.011129 348.502188 
L 317.728773 347.48822 
L 318.446416 343.924051 
L 319.16406 341.666627 
L 319.881704 337.268581 
L 320.599348 322.723243 
L 321.316991 326.787655 
L 322.034635 326.318182 
L 322.752279 323.163078 
L 323.469922 323.994073 
L 324.187566 326.601389 
L 324.90521 330.982352 
L 326.340497 342.465616 
L 327.058141 346.117259 
L 327.775785 353.430629 
L 329.211072 363.494256 
L 329.928716 367.807196 
L 330.64636 373.16055 
L 331.364004 376.360934 
L 332.081647 381.170206 
L 332.799291 380.3388 
L 334.952222 388.874324 
L 335.669866 391.359281 
L 336.38751 394.271621 
L 337.822797 397.950432 
L 339.258085 404.597668 
L 339.975729 409.20781 
L 340.693372 412.520571 
L 341.411016 416.460257 
L 342.12866 418.766049 
L 342.846304 423.349331 
L 343.563947 425.411433 
L 344.281591 428.132464 
L 344.999235 430.00974 
L 345.716879 433.586053 
L 346.434522 435.33109 
L 347.152166 437.863797 
L 348.587453 444.956941 
L 349.305097 447.541102 
L 350.022741 451.230718 
L 350.740385 453.328838 
L 351.458028 454.926303 
L 352.175672 455.74783 
L 352.893316 455.55436 
L 353.61096 454.548728 
L 354.328603 454.074315 
L 355.046247 453.292923 
L 355.763891 453.491847 
L 357.199178 454.809089 
L 357.916822 454.609547 
L 358.634466 456.170891 
L 359.35211 456.948681 
L 362.222685 460.766111 
L 362.940328 462.122562 
L 363.657972 462.064006 
L 364.375616 463.020654 
L 366.528547 464.638186 
L 367.246191 464.925818 
L 367.963835 463.729597 
L 368.681478 464.106143 
L 369.399122 463.963614 
L 370.116766 464.179312 
L 370.83441 464.165111 
L 371.552053 463.909072 
L 372.987341 464.89299 
L 373.704984 464.925921 
L 374.422628 462.079649 
L 375.140272 461.341684 
L 375.857916 459.723329 
L 376.575559 458.969722 
L 377.293203 458.002269 
L 378.010847 456.166672 
L 378.728491 455.370049 
L 379.446134 457.446043 
L 380.163778 456.255071 
L 380.881422 457.025864 
L 381.599066 456.982745 
L 382.316709 457.815283 
L 383.034353 456.978525 
L 383.751997 457.056222 
L 384.469641 456.206601 
L 385.187284 456.126846 
L 385.904928 454.807237 
L 386.622572 454.454669 
L 387.340216 453.28397 
L 388.057859 454.038194 
L 388.775503 452.258682 
L 389.493147 452.21937 
L 390.210791 452.794223 
L 390.928434 453.065801 
L 391.646078 454.522486 
L 392.363722 454.974053 
L 393.081366 455.176785 
L 393.799009 456.927997 
L 394.516653 458.219306 
L 395.234297 458.94276 
L 395.951941 460.760142 
L 396.669584 460.661041 
L 397.387228 461.686843 
L 398.104872 463.800296 
L 398.822516 464.841021 
L 400.257803 466.562903 
L 400.975447 467.025173 
L 401.69309 467.859152 
L 402.410734 468.142153 
L 403.128378 467.841348 
L 405.998953 472.064962 
L 406.716597 473.27065 
L 407.43424 474.091457 
L 408.151884 475.500597 
L 408.869528 476.227242 
L 410.304815 478.116558 
L 411.740103 479.216455 
L 412.457747 479.6849 
L 413.17539 480.526391 
L 414.610678 481.802264 
L 415.328322 482.612162 
L 416.045965 484.085209 
L 416.763609 485.017467 
L 420.351828 487.070101 
L 421.069472 487.696511 
L 421.787115 488.498897 
L 422.504759 489.130144 
L 423.222403 491.192451 
L 423.940047 491.171766 
L 426.092978 493.274826 
L 426.810621 493.078783 
L 427.528265 493.216579 
L 428.245909 492.216195 
L 428.963553 493.237778 
L 429.681196 493.059745 
L 430.39884 493.52644 
L 431.116484 492.718703 
L 431.834128 493.303023 
L 432.551771 493.366621 
L 433.987059 493.827039 
L 434.704703 494.467342 
L 436.13999 495.317375 
L 436.857634 495.287325 
L 439.010565 495.456714 
L 439.728209 495.455582 
L 441.163496 494.883302 
L 441.88114 495.008543 
L 442.598784 495.005662 
L 443.316428 494.722763 
L 443.316428 494.722763 
" style="fill:none;stroke:#e24a33;stroke-linecap:square;stroke-width:1.5;"/>
   </g>
   <g id="line2d_80">
    <path clip-path="url(#p83ac60d25f)" d="M 444.034071 494.719509 
L 445.469359 496.620497 
L 446.904646 498.116118 
L 448.339934 499.292146 
L 449.775221 500.216465 
L 451.210509 500.942695 
L 453.36344 501.750637 
L 455.516371 502.312833 
L 458.386946 502.805733 
L 461.975165 503.164993 
L 466.998671 503.411689 
L 474.892752 503.547676 
L 494.986777 503.594712 
L 704.53875 503.596345 
L 704.53875 503.596345 
" style="fill:none;stroke:#348abd;stroke-linecap:square;stroke-width:1.5;"/>
   </g>
   <g id="patch_8">
    <path d="M 67.98875 512.64 
L 67.98875 313.679588 
" style="fill:none;stroke:#ffffff;stroke-linecap:square;stroke-linejoin:miter;"/>
   </g>
   <g id="patch_9">
    <path d="M 704.53875 512.64 
L 704.53875 313.679588 
" style="fill:none;stroke:#ffffff;stroke-linecap:square;stroke-linejoin:miter;"/>
   </g>
   <g id="patch_10">
    <path d="M 67.98875 512.64 
L 704.53875 512.64 
" style="fill:none;stroke:#ffffff;stroke-linecap:square;stroke-linejoin:miter;"/>
   </g>
   <g id="patch_11">
    <path d="M 67.98875 313.679588 
L 704.53875 313.679588 
" style="fill:none;stroke:#ffffff;stroke-linecap:square;stroke-linejoin:miter;"/>
   </g>
   <g id="legend_1">
    <g id="patch_12">
     <path d="M 494.645 351.035838 
L 697.53875 351.035838 
Q 699.53875 351.035838 699.53875 349.035838 
L 699.53875 320.679588 
Q 699.53875 318.679588 697.53875 318.679588 
L 494.645 318.679588 
Q 492.645 318.679588 492.645 320.679588 
L 492.645 349.035838 
Q 492.645 351.035838 494.645 351.035838 
z
" style="fill:#e5e5e5;opacity:0.8;stroke:#cccccc;stroke-linejoin:miter;stroke-width:0.5;"/>
    </g>
    <g id="line2d_81">
     <path d="M 496.645 326.778025 
L 516.645 326.778025 
" style="fill:none;stroke:#e24a33;stroke-linecap:square;stroke-width:1.5;"/>
    </g>
    <g id="line2d_82"/>
    <g id="text_28">
     <!-- Cases -->
     <g transform="translate(524.645 330.278025)scale(0.1 -0.1)">
      <defs>
       <path d="M 4122 4306 
L 4122 3641 
Q 3803 3938 3442 4084 
Q 3081 4231 2675 4231 
Q 1875 4231 1450 3742 
Q 1025 3253 1025 2328 
Q 1025 1406 1450 917 
Q 1875 428 2675 428 
Q 3081 428 3442 575 
Q 3803 722 4122 1019 
L 4122 359 
Q 3791 134 3420 21 
Q 3050 -91 2638 -91 
Q 1578 -91 968 557 
Q 359 1206 359 2328 
Q 359 3453 968 4101 
Q 1578 4750 2638 4750 
Q 3056 4750 3426 4639 
Q 3797 4528 4122 4306 
z
" id="DejaVuSans-43" transform="scale(0.015625)"/>
       <path d="M 2834 3397 
L 2834 2853 
Q 2591 2978 2328 3040 
Q 2066 3103 1784 3103 
Q 1356 3103 1142 2972 
Q 928 2841 928 2578 
Q 928 2378 1081 2264 
Q 1234 2150 1697 2047 
L 1894 2003 
Q 2506 1872 2764 1633 
Q 3022 1394 3022 966 
Q 3022 478 2636 193 
Q 2250 -91 1575 -91 
Q 1294 -91 989 -36 
Q 684 19 347 128 
L 347 722 
Q 666 556 975 473 
Q 1284 391 1588 391 
Q 1994 391 2212 530 
Q 2431 669 2431 922 
Q 2431 1156 2273 1281 
Q 2116 1406 1581 1522 
L 1381 1569 
Q 847 1681 609 1914 
Q 372 2147 372 2553 
Q 372 3047 722 3315 
Q 1072 3584 1716 3584 
Q 2034 3584 2315 3537 
Q 2597 3491 2834 3397 
z
" id="DejaVuSans-73" transform="scale(0.015625)"/>
      </defs>
      <use xlink:href="#DejaVuSans-43"/>
      <use x="69.824219" xlink:href="#DejaVuSans-61"/>
      <use x="131.103516" xlink:href="#DejaVuSans-73"/>
      <use x="183.203125" xlink:href="#DejaVuSans-65"/>
      <use x="244.726562" xlink:href="#DejaVuSans-73"/>
     </g>
    </g>
    <g id="line2d_83">
     <path d="M 496.645 341.45615 
L 516.645 341.45615 
" style="fill:none;stroke:#348abd;stroke-linecap:square;stroke-width:1.5;"/>
    </g>
    <g id="line2d_84"/>
    <g id="text_29">
     <!-- Projected Cases (last 1D avg rate) -->
     <g transform="translate(524.645 344.95615)scale(0.1 -0.1)">
      <defs>
       <path d="M 1259 4147 
L 1259 2394 
L 2053 2394 
Q 2494 2394 2734 2622 
Q 2975 2850 2975 3272 
Q 2975 3691 2734 3919 
Q 2494 4147 2053 4147 
L 1259 4147 
z
M 628 4666 
L 2053 4666 
Q 2838 4666 3239 4311 
Q 3641 3956 3641 3272 
Q 3641 2581 3239 2228 
Q 2838 1875 2053 1875 
L 1259 1875 
L 1259 0 
L 628 0 
L 628 4666 
z
" id="DejaVuSans-50" transform="scale(0.015625)"/>
       <path d="M 603 3500 
L 1178 3500 
L 1178 -63 
Q 1178 -731 923 -1031 
Q 669 -1331 103 -1331 
L -116 -1331 
L -116 -844 
L 38 -844 
Q 366 -844 484 -692 
Q 603 -541 603 -63 
L 603 3500 
z
M 603 4863 
L 1178 4863 
L 1178 4134 
L 603 4134 
L 603 4863 
z
" id="DejaVuSans-6a" transform="scale(0.015625)"/>
       <path d="M 2906 2969 
L 2906 4863 
L 3481 4863 
L 3481 0 
L 2906 0 
L 2906 525 
Q 2725 213 2448 61 
Q 2172 -91 1784 -91 
Q 1150 -91 751 415 
Q 353 922 353 1747 
Q 353 2572 751 3078 
Q 1150 3584 1784 3584 
Q 2172 3584 2448 3432 
Q 2725 3281 2906 2969 
z
M 947 1747 
Q 947 1113 1208 752 
Q 1469 391 1925 391 
Q 2381 391 2643 752 
Q 2906 1113 2906 1747 
Q 2906 2381 2643 2742 
Q 2381 3103 1925 3103 
Q 1469 3103 1208 2742 
Q 947 2381 947 1747 
z
" id="DejaVuSans-64" transform="scale(0.015625)"/>
       <path id="DejaVuSans-20" transform="scale(0.015625)"/>
       <path d="M 1984 4856 
Q 1566 4138 1362 3434 
Q 1159 2731 1159 2009 
Q 1159 1288 1364 580 
Q 1569 -128 1984 -844 
L 1484 -844 
Q 1016 -109 783 600 
Q 550 1309 550 2009 
Q 550 2706 781 3412 
Q 1013 4119 1484 4856 
L 1984 4856 
z
" id="DejaVuSans-28" transform="scale(0.015625)"/>
       <path d="M 191 3500 
L 800 3500 
L 1894 563 
L 2988 3500 
L 3597 3500 
L 2284 0 
L 1503 0 
L 191 3500 
z
" id="DejaVuSans-76" transform="scale(0.015625)"/>
       <path d="M 2906 1791 
Q 2906 2416 2648 2759 
Q 2391 3103 1925 3103 
Q 1463 3103 1205 2759 
Q 947 2416 947 1791 
Q 947 1169 1205 825 
Q 1463 481 1925 481 
Q 2391 481 2648 825 
Q 2906 1169 2906 1791 
z
M 3481 434 
Q 3481 -459 3084 -895 
Q 2688 -1331 1869 -1331 
Q 1566 -1331 1297 -1286 
Q 1028 -1241 775 -1147 
L 775 -588 
Q 1028 -725 1275 -790 
Q 1522 -856 1778 -856 
Q 2344 -856 2625 -561 
Q 2906 -266 2906 331 
L 2906 616 
Q 2728 306 2450 153 
Q 2172 0 1784 0 
Q 1141 0 747 490 
Q 353 981 353 1791 
Q 353 2603 747 3093 
Q 1141 3584 1784 3584 
Q 2172 3584 2450 3431 
Q 2728 3278 2906 2969 
L 2906 3500 
L 3481 3500 
L 3481 434 
z
" id="DejaVuSans-67" transform="scale(0.015625)"/>
       <path d="M 513 4856 
L 1013 4856 
Q 1481 4119 1714 3412 
Q 1947 2706 1947 2009 
Q 1947 1309 1714 600 
Q 1481 -109 1013 -844 
L 513 -844 
Q 928 -128 1133 580 
Q 1338 1288 1338 2009 
Q 1338 2731 1133 3434 
Q 928 4138 513 4856 
z
" id="DejaVuSans-29" transform="scale(0.015625)"/>
      </defs>
      <use xlink:href="#DejaVuSans-50"/>
      <use x="58.552734" xlink:href="#DejaVuSans-72"/>
      <use x="97.416016" xlink:href="#DejaVuSans-6f"/>
      <use x="158.597656" xlink:href="#DejaVuSans-6a"/>
      <use x="186.380859" xlink:href="#DejaVuSans-65"/>
      <use x="247.904297" xlink:href="#DejaVuSans-63"/>
      <use x="302.884766" xlink:href="#DejaVuSans-74"/>
      <use x="342.09375" xlink:href="#DejaVuSans-65"/>
      <use x="403.617188" xlink:href="#DejaVuSans-64"/>
      <use x="467.09375" xlink:href="#DejaVuSans-20"/>
      <use x="498.880859" xlink:href="#DejaVuSans-43"/>
      <use x="568.705078" xlink:href="#DejaVuSans-61"/>
      <use x="629.984375" xlink:href="#DejaVuSans-73"/>
      <use x="682.083984" xlink:href="#DejaVuSans-65"/>
      <use x="743.607422" xlink:href="#DejaVuSans-73"/>
      <use x="795.707031" xlink:href="#DejaVuSans-20"/>
      <use x="827.494141" xlink:href="#DejaVuSans-28"/>
      <use x="866.507812" xlink:href="#DejaVuSans-6c"/>
      <use x="894.291016" xlink:href="#DejaVuSans-61"/>
      <use x="955.570312" xlink:href="#DejaVuSans-73"/>
      <use x="1007.669922" xlink:href="#DejaVuSans-74"/>
      <use x="1046.878906" xlink:href="#DejaVuSans-20"/>
      <use x="1078.666016" xlink:href="#DejaVuSans-31"/>
      <use x="1142.289062" xlink:href="#DejaVuSans-44"/>
      <use x="1219.291016" xlink:href="#DejaVuSans-20"/>
      <use x="1251.078125" xlink:href="#DejaVuSans-61"/>
      <use x="1312.357422" xlink:href="#DejaVuSans-76"/>
      <use x="1371.537109" xlink:href="#DejaVuSans-67"/>
      <use x="1435.013672" xlink:href="#DejaVuSans-20"/>
      <use x="1466.800781" xlink:href="#DejaVuSans-72"/>
      <use x="1507.914062" xlink:href="#DejaVuSans-61"/>
      <use x="1569.193359" xlink:href="#DejaVuSans-74"/>
      <use x="1608.402344" xlink:href="#DejaVuSans-65"/>
      <use x="1669.925781" xlink:href="#DejaVuSans-29"/>
     </g>
    </g>
   </g>
  </g>
  <g id="text_30">
   <!-- COVID-19 spread projection using Logistic map -->
   <g transform="translate(213.93 16.318125)scale(0.12 -0.12)">
    <defs>
     <path d="M 1831 0 
L 50 4666 
L 709 4666 
L 2188 738 
L 3669 4666 
L 4325 4666 
L 2547 0 
L 1831 0 
z
" id="DejaVuSans-56" transform="scale(0.015625)"/>
     <path d="M 628 4666 
L 1259 4666 
L 1259 0 
L 628 0 
L 628 4666 
z
" id="DejaVuSans-49" transform="scale(0.015625)"/>
     <path d="M 313 2009 
L 1997 2009 
L 1997 1497 
L 313 1497 
L 313 2009 
z
" id="DejaVuSans-2d" transform="scale(0.015625)"/>
     <path d="M 703 97 
L 703 672 
Q 941 559 1184 500 
Q 1428 441 1663 441 
Q 2288 441 2617 861 
Q 2947 1281 2994 2138 
Q 2813 1869 2534 1725 
Q 2256 1581 1919 1581 
Q 1219 1581 811 2004 
Q 403 2428 403 3163 
Q 403 3881 828 4315 
Q 1253 4750 1959 4750 
Q 2769 4750 3195 4129 
Q 3622 3509 3622 2328 
Q 3622 1225 3098 567 
Q 2575 -91 1691 -91 
Q 1453 -91 1209 -44 
Q 966 3 703 97 
z
M 1959 2075 
Q 2384 2075 2632 2365 
Q 2881 2656 2881 3163 
Q 2881 3666 2632 3958 
Q 2384 4250 1959 4250 
Q 1534 4250 1286 3958 
Q 1038 3666 1038 3163 
Q 1038 2656 1286 2365 
Q 1534 2075 1959 2075 
z
" id="DejaVuSans-39" transform="scale(0.015625)"/>
     <path d="M 628 4666 
L 1259 4666 
L 1259 531 
L 3531 531 
L 3531 0 
L 628 0 
L 628 4666 
z
" id="DejaVuSans-4c" transform="scale(0.015625)"/>
     <path d="M 3328 2828 
Q 3544 3216 3844 3400 
Q 4144 3584 4550 3584 
Q 5097 3584 5394 3201 
Q 5691 2819 5691 2113 
L 5691 0 
L 5113 0 
L 5113 2094 
Q 5113 2597 4934 2840 
Q 4756 3084 4391 3084 
Q 3944 3084 3684 2787 
Q 3425 2491 3425 1978 
L 3425 0 
L 2847 0 
L 2847 2094 
Q 2847 2600 2669 2842 
Q 2491 3084 2119 3084 
Q 1678 3084 1418 2786 
Q 1159 2488 1159 1978 
L 1159 0 
L 581 0 
L 581 3500 
L 1159 3500 
L 1159 2956 
Q 1356 3278 1631 3431 
Q 1906 3584 2284 3584 
Q 2666 3584 2933 3390 
Q 3200 3197 3328 2828 
z
" id="DejaVuSans-6d" transform="scale(0.015625)"/>
    </defs>
    <use xlink:href="#DejaVuSans-43"/>
    <use x="69.824219" xlink:href="#DejaVuSans-4f"/>
    <use x="146.785156" xlink:href="#DejaVuSans-56"/>
    <use x="215.193359" xlink:href="#DejaVuSans-49"/>
    <use x="244.685547" xlink:href="#DejaVuSans-44"/>
    <use x="321.6875" xlink:href="#DejaVuSans-2d"/>
    <use x="357.771484" xlink:href="#DejaVuSans-31"/>
    <use x="421.394531" xlink:href="#DejaVuSans-39"/>
    <use x="485.017578" xlink:href="#DejaVuSans-20"/>
    <use x="516.804688" xlink:href="#DejaVuSans-73"/>
    <use x="568.904297" xlink:href="#DejaVuSans-70"/>
    <use x="632.380859" xlink:href="#DejaVuSans-72"/>
    <use x="671.244141" xlink:href="#DejaVuSans-65"/>
    <use x="732.767578" xlink:href="#DejaVuSans-61"/>
    <use x="794.046875" xlink:href="#DejaVuSans-64"/>
    <use x="857.523438" xlink:href="#DejaVuSans-20"/>
    <use x="889.310547" xlink:href="#DejaVuSans-70"/>
    <use x="952.787109" xlink:href="#DejaVuSans-72"/>
    <use x="991.650391" xlink:href="#DejaVuSans-6f"/>
    <use x="1052.832031" xlink:href="#DejaVuSans-6a"/>
    <use x="1080.615234" xlink:href="#DejaVuSans-65"/>
    <use x="1142.138672" xlink:href="#DejaVuSans-63"/>
    <use x="1197.119141" xlink:href="#DejaVuSans-74"/>
    <use x="1236.328125" xlink:href="#DejaVuSans-69"/>
    <use x="1264.111328" xlink:href="#DejaVuSans-6f"/>
    <use x="1325.292969" xlink:href="#DejaVuSans-6e"/>
    <use x="1388.671875" xlink:href="#DejaVuSans-20"/>
    <use x="1420.458984" xlink:href="#DejaVuSans-75"/>
    <use x="1483.837891" xlink:href="#DejaVuSans-73"/>
    <use x="1535.9375" xlink:href="#DejaVuSans-69"/>
    <use x="1563.720703" xlink:href="#DejaVuSans-6e"/>
    <use x="1627.099609" xlink:href="#DejaVuSans-67"/>
    <use x="1690.576172" xlink:href="#DejaVuSans-20"/>
    <use x="1722.363281" xlink:href="#DejaVuSans-4c"/>
    <use x="1776.326172" xlink:href="#DejaVuSans-6f"/>
    <use x="1837.507812" xlink:href="#DejaVuSans-67"/>
    <use x="1900.984375" xlink:href="#DejaVuSans-69"/>
    <use x="1928.767578" xlink:href="#DejaVuSans-73"/>
    <use x="1980.867188" xlink:href="#DejaVuSans-74"/>
    <use x="2020.076172" xlink:href="#DejaVuSans-69"/>
    <use x="2047.859375" xlink:href="#DejaVuSans-63"/>
    <use x="2102.839844" xlink:href="#DejaVuSans-20"/>
    <use x="2134.626953" xlink:href="#DejaVuSans-6d"/>
    <use x="2232.039062" xlink:href="#DejaVuSans-61"/>
    <use x="2293.318359" xlink:href="#DejaVuSans-70"/>
   </g>
   <!-- assuming a carrying capacity of K=329M people and dt=4D tick time. -->
   <g transform="translate(144.889688 29.7555)scale(0.12 -0.12)">
    <defs>
     <path d="M 2375 4863 
L 2375 4384 
L 1825 4384 
Q 1516 4384 1395 4259 
Q 1275 4134 1275 3809 
L 1275 3500 
L 2222 3500 
L 2222 3053 
L 1275 3053 
L 1275 0 
L 697 0 
L 697 3053 
L 147 3053 
L 147 3500 
L 697 3500 
L 697 3744 
Q 697 4328 969 4595 
Q 1241 4863 1831 4863 
L 2375 4863 
z
" id="DejaVuSans-66" transform="scale(0.015625)"/>
     <path d="M 628 4666 
L 1259 4666 
L 1259 2694 
L 3353 4666 
L 4166 4666 
L 1850 2491 
L 4331 0 
L 3500 0 
L 1259 2247 
L 1259 0 
L 628 0 
L 628 4666 
z
" id="DejaVuSans-4b" transform="scale(0.015625)"/>
     <path d="M 678 2906 
L 4684 2906 
L 4684 2381 
L 678 2381 
L 678 2906 
z
M 678 1631 
L 4684 1631 
L 4684 1100 
L 678 1100 
L 678 1631 
z
" id="DejaVuSans-3d" transform="scale(0.015625)"/>
     <path d="M 628 4666 
L 1569 4666 
L 2759 1491 
L 3956 4666 
L 4897 4666 
L 4897 0 
L 4281 0 
L 4281 4097 
L 3078 897 
L 2444 897 
L 1241 4097 
L 1241 0 
L 628 0 
L 628 4666 
z
" id="DejaVuSans-4d" transform="scale(0.015625)"/>
     <path d="M 2419 4116 
L 825 1625 
L 2419 1625 
L 2419 4116 
z
M 2253 4666 
L 3047 4666 
L 3047 1625 
L 3713 1625 
L 3713 1100 
L 3047 1100 
L 3047 0 
L 2419 0 
L 2419 1100 
L 313 1100 
L 313 1709 
L 2253 4666 
z
" id="DejaVuSans-34" transform="scale(0.015625)"/>
     <path d="M 581 4863 
L 1159 4863 
L 1159 1991 
L 2875 3500 
L 3609 3500 
L 1753 1863 
L 3688 0 
L 2938 0 
L 1159 1709 
L 1159 0 
L 581 0 
L 581 4863 
z
" id="DejaVuSans-6b" transform="scale(0.015625)"/>
    </defs>
    <use xlink:href="#DejaVuSans-61"/>
    <use x="61.279297" xlink:href="#DejaVuSans-73"/>
    <use x="113.378906" xlink:href="#DejaVuSans-73"/>
    <use x="165.478516" xlink:href="#DejaVuSans-75"/>
    <use x="228.857422" xlink:href="#DejaVuSans-6d"/>
    <use x="326.269531" xlink:href="#DejaVuSans-69"/>
    <use x="354.052734" xlink:href="#DejaVuSans-6e"/>
    <use x="417.431641" xlink:href="#DejaVuSans-67"/>
    <use x="480.908203" xlink:href="#DejaVuSans-20"/>
    <use x="512.695312" xlink:href="#DejaVuSans-61"/>
    <use x="573.974609" xlink:href="#DejaVuSans-20"/>
    <use x="605.761719" xlink:href="#DejaVuSans-63"/>
    <use x="660.742188" xlink:href="#DejaVuSans-61"/>
    <use x="722.021484" xlink:href="#DejaVuSans-72"/>
    <use x="761.384766" xlink:href="#DejaVuSans-72"/>
    <use x="802.498047" xlink:href="#DejaVuSans-79"/>
    <use x="861.677734" xlink:href="#DejaVuSans-69"/>
    <use x="889.460938" xlink:href="#DejaVuSans-6e"/>
    <use x="952.839844" xlink:href="#DejaVuSans-67"/>
    <use x="1016.316406" xlink:href="#DejaVuSans-20"/>
    <use x="1048.103516" xlink:href="#DejaVuSans-63"/>
    <use x="1103.083984" xlink:href="#DejaVuSans-61"/>
    <use x="1164.363281" xlink:href="#DejaVuSans-70"/>
    <use x="1227.839844" xlink:href="#DejaVuSans-61"/>
    <use x="1289.119141" xlink:href="#DejaVuSans-63"/>
    <use x="1344.099609" xlink:href="#DejaVuSans-69"/>
    <use x="1371.882812" xlink:href="#DejaVuSans-74"/>
    <use x="1411.091797" xlink:href="#DejaVuSans-79"/>
    <use x="1470.271484" xlink:href="#DejaVuSans-20"/>
    <use x="1502.058594" xlink:href="#DejaVuSans-6f"/>
    <use x="1563.240234" xlink:href="#DejaVuSans-66"/>
    <use x="1598.445312" xlink:href="#DejaVuSans-20"/>
    <use x="1630.232422" xlink:href="#DejaVuSans-4b"/>
    <use x="1695.808594" xlink:href="#DejaVuSans-3d"/>
    <use x="1779.597656" xlink:href="#DejaVuSans-33"/>
    <use x="1843.220703" xlink:href="#DejaVuSans-32"/>
    <use x="1906.84375" xlink:href="#DejaVuSans-39"/>
    <use x="1970.466797" xlink:href="#DejaVuSans-4d"/>
    <use x="2056.746094" xlink:href="#DejaVuSans-20"/>
    <use x="2088.533203" xlink:href="#DejaVuSans-70"/>
    <use x="2152.009766" xlink:href="#DejaVuSans-65"/>
    <use x="2213.533203" xlink:href="#DejaVuSans-6f"/>
    <use x="2274.714844" xlink:href="#DejaVuSans-70"/>
    <use x="2338.191406" xlink:href="#DejaVuSans-6c"/>
    <use x="2365.974609" xlink:href="#DejaVuSans-65"/>
    <use x="2427.498047" xlink:href="#DejaVuSans-20"/>
    <use x="2459.285156" xlink:href="#DejaVuSans-61"/>
    <use x="2520.564453" xlink:href="#DejaVuSans-6e"/>
    <use x="2583.943359" xlink:href="#DejaVuSans-64"/>
    <use x="2647.419922" xlink:href="#DejaVuSans-20"/>
    <use x="2679.207031" xlink:href="#DejaVuSans-64"/>
    <use x="2742.683594" xlink:href="#DejaVuSans-74"/>
    <use x="2781.892578" xlink:href="#DejaVuSans-3d"/>
    <use x="2865.681641" xlink:href="#DejaVuSans-34"/>
    <use x="2929.304688" xlink:href="#DejaVuSans-44"/>
    <use x="3006.306641" xlink:href="#DejaVuSans-20"/>
    <use x="3038.09375" xlink:href="#DejaVuSans-74"/>
    <use x="3077.302734" xlink:href="#DejaVuSans-69"/>
    <use x="3105.085938" xlink:href="#DejaVuSans-63"/>
    <use x="3160.066406" xlink:href="#DejaVuSans-6b"/>
    <use x="3217.976562" xlink:href="#DejaVuSans-20"/>
    <use x="3249.763672" xlink:href="#DejaVuSans-74"/>
    <use x="3288.972656" xlink:href="#DejaVuSans-69"/>
    <use x="3316.755859" xlink:href="#DejaVuSans-6d"/>
    <use x="3414.167969" xlink:href="#DejaVuSans-65"/>
    <use x="3475.691406" xlink:href="#DejaVuSans-2e"/>
   </g>
   <!-- created: 2021-06-28 author: @pschwede, source: JHU CSSE via @entorb &amp; @pomber. -->
   <g transform="translate(98.56125 43.192875)scale(0.12 -0.12)">
    <defs>
     <path d="M 750 794 
L 1409 794 
L 1409 0 
L 750 0 
L 750 794 
z
M 750 3309 
L 1409 3309 
L 1409 2516 
L 750 2516 
L 750 3309 
z
" id="DejaVuSans-3a" transform="scale(0.015625)"/>
     <path d="M 2113 2584 
Q 1688 2584 1439 2293 
Q 1191 2003 1191 1497 
Q 1191 994 1439 701 
Q 1688 409 2113 409 
Q 2538 409 2786 701 
Q 3034 994 3034 1497 
Q 3034 2003 2786 2293 
Q 2538 2584 2113 2584 
z
M 3366 4563 
L 3366 3988 
Q 3128 4100 2886 4159 
Q 2644 4219 2406 4219 
Q 1781 4219 1451 3797 
Q 1122 3375 1075 2522 
Q 1259 2794 1537 2939 
Q 1816 3084 2150 3084 
Q 2853 3084 3261 2657 
Q 3669 2231 3669 1497 
Q 3669 778 3244 343 
Q 2819 -91 2113 -91 
Q 1303 -91 875 529 
Q 447 1150 447 2328 
Q 447 3434 972 4092 
Q 1497 4750 2381 4750 
Q 2619 4750 2861 4703 
Q 3103 4656 3366 4563 
z
" id="DejaVuSans-36" transform="scale(0.015625)"/>
     <path d="M 2034 2216 
Q 1584 2216 1326 1975 
Q 1069 1734 1069 1313 
Q 1069 891 1326 650 
Q 1584 409 2034 409 
Q 2484 409 2743 651 
Q 3003 894 3003 1313 
Q 3003 1734 2745 1975 
Q 2488 2216 2034 2216 
z
M 1403 2484 
Q 997 2584 770 2862 
Q 544 3141 544 3541 
Q 544 4100 942 4425 
Q 1341 4750 2034 4750 
Q 2731 4750 3128 4425 
Q 3525 4100 3525 3541 
Q 3525 3141 3298 2862 
Q 3072 2584 2669 2484 
Q 3125 2378 3379 2068 
Q 3634 1759 3634 1313 
Q 3634 634 3220 271 
Q 2806 -91 2034 -91 
Q 1263 -91 848 271 
Q 434 634 434 1313 
Q 434 1759 690 2068 
Q 947 2378 1403 2484 
z
M 1172 3481 
Q 1172 3119 1398 2916 
Q 1625 2713 2034 2713 
Q 2441 2713 2670 2916 
Q 2900 3119 2900 3481 
Q 2900 3844 2670 4047 
Q 2441 4250 2034 4250 
Q 1625 4250 1398 4047 
Q 1172 3844 1172 3481 
z
" id="DejaVuSans-38" transform="scale(0.015625)"/>
     <path d="M 3513 2113 
L 3513 0 
L 2938 0 
L 2938 2094 
Q 2938 2591 2744 2837 
Q 2550 3084 2163 3084 
Q 1697 3084 1428 2787 
Q 1159 2491 1159 1978 
L 1159 0 
L 581 0 
L 581 4863 
L 1159 4863 
L 1159 2956 
Q 1366 3272 1645 3428 
Q 1925 3584 2291 3584 
Q 2894 3584 3203 3211 
Q 3513 2838 3513 2113 
z
" id="DejaVuSans-68" transform="scale(0.015625)"/>
     <path d="M 2381 1678 
Q 2381 1231 2603 976 
Q 2825 722 3213 722 
Q 3597 722 3817 978 
Q 4038 1234 4038 1678 
Q 4038 2116 3813 2373 
Q 3588 2631 3206 2631 
Q 2828 2631 2604 2375 
Q 2381 2119 2381 1678 
z
M 4084 744 
Q 3897 503 3655 389 
Q 3413 275 3091 275 
Q 2553 275 2217 664 
Q 1881 1053 1881 1678 
Q 1881 2303 2218 2693 
Q 2556 3084 3091 3084 
Q 3413 3084 3656 2967 
Q 3900 2850 4084 2613 
L 4084 3022 
L 4531 3022 
L 4531 722 
Q 4988 791 5245 1139 
Q 5503 1488 5503 2041 
Q 5503 2375 5404 2669 
Q 5306 2963 5106 3213 
Q 4781 3622 4314 3839 
Q 3847 4056 3297 4056 
Q 2913 4056 2559 3954 
Q 2206 3853 1906 3653 
Q 1416 3334 1139 2817 
Q 863 2300 863 1697 
Q 863 1200 1042 765 
Q 1222 331 1563 0 
Q 1891 -325 2322 -495 
Q 2753 -666 3244 -666 
Q 3647 -666 4036 -530 
Q 4425 -394 4750 -141 
L 5031 -488 
Q 4641 -791 4180 -952 
Q 3719 -1113 3244 -1113 
Q 2666 -1113 2153 -908 
Q 1641 -703 1241 -313 
Q 841 78 631 592 
Q 422 1106 422 1697 
Q 422 2266 634 2781 
Q 847 3297 1241 3688 
Q 1644 4084 2172 4295 
Q 2700 4506 3291 4506 
Q 3953 4506 4520 4234 
Q 5088 3963 5472 3463 
Q 5706 3156 5829 2797 
Q 5953 2438 5953 2053 
Q 5953 1231 5456 756 
Q 4959 281 4084 263 
L 4084 744 
z
" id="DejaVuSans-40" transform="scale(0.015625)"/>
     <path d="M 269 3500 
L 844 3500 
L 1563 769 
L 2278 3500 
L 2956 3500 
L 3675 769 
L 4391 3500 
L 4966 3500 
L 4050 0 
L 3372 0 
L 2619 2869 
L 1863 0 
L 1184 0 
L 269 3500 
z
" id="DejaVuSans-77" transform="scale(0.015625)"/>
     <path d="M 750 794 
L 1409 794 
L 1409 256 
L 897 -744 
L 494 -744 
L 750 256 
L 750 794 
z
" id="DejaVuSans-2c" transform="scale(0.015625)"/>
     <path d="M 628 4666 
L 1259 4666 
L 1259 2753 
L 3553 2753 
L 3553 4666 
L 4184 4666 
L 4184 0 
L 3553 0 
L 3553 2222 
L 1259 2222 
L 1259 0 
L 628 0 
L 628 4666 
z
" id="DejaVuSans-48" transform="scale(0.015625)"/>
     <path d="M 556 4666 
L 1191 4666 
L 1191 1831 
Q 1191 1081 1462 751 
Q 1734 422 2344 422 
Q 2950 422 3222 751 
Q 3494 1081 3494 1831 
L 3494 4666 
L 4128 4666 
L 4128 1753 
Q 4128 841 3676 375 
Q 3225 -91 2344 -91 
Q 1459 -91 1007 375 
Q 556 841 556 1753 
L 556 4666 
z
" id="DejaVuSans-55" transform="scale(0.015625)"/>
     <path d="M 3425 4513 
L 3425 3897 
Q 3066 4069 2747 4153 
Q 2428 4238 2131 4238 
Q 1616 4238 1336 4038 
Q 1056 3838 1056 3469 
Q 1056 3159 1242 3001 
Q 1428 2844 1947 2747 
L 2328 2669 
Q 3034 2534 3370 2195 
Q 3706 1856 3706 1288 
Q 3706 609 3251 259 
Q 2797 -91 1919 -91 
Q 1588 -91 1214 -16 
Q 841 59 441 206 
L 441 856 
Q 825 641 1194 531 
Q 1563 422 1919 422 
Q 2459 422 2753 634 
Q 3047 847 3047 1241 
Q 3047 1584 2836 1778 
Q 2625 1972 2144 2069 
L 1759 2144 
Q 1053 2284 737 2584 
Q 422 2884 422 3419 
Q 422 4038 858 4394 
Q 1294 4750 2059 4750 
Q 2388 4750 2728 4690 
Q 3069 4631 3425 4513 
z
" id="DejaVuSans-53" transform="scale(0.015625)"/>
     <path d="M 628 4666 
L 3578 4666 
L 3578 4134 
L 1259 4134 
L 1259 2753 
L 3481 2753 
L 3481 2222 
L 1259 2222 
L 1259 531 
L 3634 531 
L 3634 0 
L 628 0 
L 628 4666 
z
" id="DejaVuSans-45" transform="scale(0.015625)"/>
     <path d="M 3116 1747 
Q 3116 2381 2855 2742 
Q 2594 3103 2138 3103 
Q 1681 3103 1420 2742 
Q 1159 2381 1159 1747 
Q 1159 1113 1420 752 
Q 1681 391 2138 391 
Q 2594 391 2855 752 
Q 3116 1113 3116 1747 
z
M 1159 2969 
Q 1341 3281 1617 3432 
Q 1894 3584 2278 3584 
Q 2916 3584 3314 3078 
Q 3713 2572 3713 1747 
Q 3713 922 3314 415 
Q 2916 -91 2278 -91 
Q 1894 -91 1617 61 
Q 1341 213 1159 525 
L 1159 0 
L 581 0 
L 581 4863 
L 1159 4863 
L 1159 2969 
z
" id="DejaVuSans-62" transform="scale(0.015625)"/>
     <path d="M 1556 2509 
Q 1272 2256 1139 2004 
Q 1006 1753 1006 1478 
Q 1006 1022 1337 719 
Q 1669 416 2169 416 
Q 2466 416 2725 514 
Q 2984 613 3213 813 
L 1556 2509 
z
M 1997 2859 
L 3584 1234 
Q 3769 1513 3872 1830 
Q 3975 2147 3994 2503 
L 4575 2503 
Q 4538 2091 4375 1687 
Q 4213 1284 3922 891 
L 4794 0 
L 4006 0 
L 3559 459 
Q 3234 181 2878 45 
Q 2522 -91 2113 -91 
Q 1359 -91 881 339 
Q 403 769 403 1441 
Q 403 1841 612 2192 
Q 822 2544 1241 2853 
Q 1091 3050 1012 3245 
Q 934 3441 934 3628 
Q 934 4134 1281 4442 
Q 1628 4750 2203 4750 
Q 2463 4750 2720 4694 
Q 2978 4638 3244 4525 
L 3244 3956 
Q 2972 4103 2725 4179 
Q 2478 4256 2266 4256 
Q 1938 4256 1733 4082 
Q 1528 3909 1528 3634 
Q 1528 3475 1620 3314 
Q 1713 3153 1997 2859 
z
" id="DejaVuSans-26" transform="scale(0.015625)"/>
    </defs>
    <use xlink:href="#DejaVuSans-63"/>
    <use x="54.980469" xlink:href="#DejaVuSans-72"/>
    <use x="93.84375" xlink:href="#DejaVuSans-65"/>
    <use x="155.367188" xlink:href="#DejaVuSans-61"/>
    <use x="216.646484" xlink:href="#DejaVuSans-74"/>
    <use x="255.855469" xlink:href="#DejaVuSans-65"/>
    <use x="317.378906" xlink:href="#DejaVuSans-64"/>
    <use x="380.855469" xlink:href="#DejaVuSans-3a"/>
    <use x="414.546875" xlink:href="#DejaVuSans-20"/>
    <use x="446.333984" xlink:href="#DejaVuSans-32"/>
    <use x="509.957031" xlink:href="#DejaVuSans-30"/>
    <use x="573.580078" xlink:href="#DejaVuSans-32"/>
    <use x="637.203125" xlink:href="#DejaVuSans-31"/>
    <use x="700.826172" xlink:href="#DejaVuSans-2d"/>
    <use x="736.910156" xlink:href="#DejaVuSans-30"/>
    <use x="800.533203" xlink:href="#DejaVuSans-36"/>
    <use x="864.15625" xlink:href="#DejaVuSans-2d"/>
    <use x="900.240234" xlink:href="#DejaVuSans-32"/>
    <use x="963.863281" xlink:href="#DejaVuSans-38"/>
    <use x="1027.486328" xlink:href="#DejaVuSans-20"/>
    <use x="1059.273438" xlink:href="#DejaVuSans-61"/>
    <use x="1120.552734" xlink:href="#DejaVuSans-75"/>
    <use x="1183.931641" xlink:href="#DejaVuSans-74"/>
    <use x="1223.140625" xlink:href="#DejaVuSans-68"/>
    <use x="1286.519531" xlink:href="#DejaVuSans-6f"/>
    <use x="1347.701172" xlink:href="#DejaVuSans-72"/>
    <use x="1387.064453" xlink:href="#DejaVuSans-3a"/>
    <use x="1420.755859" xlink:href="#DejaVuSans-20"/>
    <use x="1452.542969" xlink:href="#DejaVuSans-40"/>
    <use x="1552.542969" xlink:href="#DejaVuSans-70"/>
    <use x="1616.019531" xlink:href="#DejaVuSans-73"/>
    <use x="1668.119141" xlink:href="#DejaVuSans-63"/>
    <use x="1723.099609" xlink:href="#DejaVuSans-68"/>
    <use x="1786.478516" xlink:href="#DejaVuSans-77"/>
    <use x="1868.265625" xlink:href="#DejaVuSans-65"/>
    <use x="1929.789062" xlink:href="#DejaVuSans-64"/>
    <use x="1993.265625" xlink:href="#DejaVuSans-65"/>
    <use x="2054.789062" xlink:href="#DejaVuSans-2c"/>
    <use x="2086.576172" xlink:href="#DejaVuSans-20"/>
    <use x="2118.363281" xlink:href="#DejaVuSans-73"/>
    <use x="2170.462891" xlink:href="#DejaVuSans-6f"/>
    <use x="2231.644531" xlink:href="#DejaVuSans-75"/>
    <use x="2295.023438" xlink:href="#DejaVuSans-72"/>
    <use x="2333.886719" xlink:href="#DejaVuSans-63"/>
    <use x="2388.867188" xlink:href="#DejaVuSans-65"/>
    <use x="2450.390625" xlink:href="#DejaVuSans-3a"/>
    <use x="2484.082031" xlink:href="#DejaVuSans-20"/>
    <use x="2515.869141" xlink:href="#DejaVuSans-4a"/>
    <use x="2545.361328" xlink:href="#DejaVuSans-48"/>
    <use x="2620.556641" xlink:href="#DejaVuSans-55"/>
    <use x="2693.75" xlink:href="#DejaVuSans-20"/>
    <use x="2725.537109" xlink:href="#DejaVuSans-43"/>
    <use x="2795.361328" xlink:href="#DejaVuSans-53"/>
    <use x="2858.837891" xlink:href="#DejaVuSans-53"/>
    <use x="2922.314453" xlink:href="#DejaVuSans-45"/>
    <use x="2985.498047" xlink:href="#DejaVuSans-20"/>
    <use x="3017.285156" xlink:href="#DejaVuSans-76"/>
    <use x="3076.464844" xlink:href="#DejaVuSans-69"/>
    <use x="3104.248047" xlink:href="#DejaVuSans-61"/>
    <use x="3165.527344" xlink:href="#DejaVuSans-20"/>
    <use x="3197.314453" xlink:href="#DejaVuSans-40"/>
    <use x="3297.314453" xlink:href="#DejaVuSans-65"/>
    <use x="3358.837891" xlink:href="#DejaVuSans-6e"/>
    <use x="3422.216797" xlink:href="#DejaVuSans-74"/>
    <use x="3461.425781" xlink:href="#DejaVuSans-6f"/>
    <use x="3522.607422" xlink:href="#DejaVuSans-72"/>
    <use x="3563.720703" xlink:href="#DejaVuSans-62"/>
    <use x="3627.197266" xlink:href="#DejaVuSans-20"/>
    <use x="3658.984375" xlink:href="#DejaVuSans-26"/>
    <use x="3736.962891" xlink:href="#DejaVuSans-20"/>
    <use x="3768.75" xlink:href="#DejaVuSans-40"/>
    <use x="3868.75" xlink:href="#DejaVuSans-70"/>
    <use x="3932.226562" xlink:href="#DejaVuSans-6f"/>
    <use x="3993.408203" xlink:href="#DejaVuSans-6d"/>
    <use x="4090.820312" xlink:href="#DejaVuSans-62"/>
    <use x="4154.296875" xlink:href="#DejaVuSans-65"/>
    <use x="4215.820312" xlink:href="#DejaVuSans-72"/>
    <use x="4247.808594" xlink:href="#DejaVuSans-2e"/>
   </g>
  </g>
 </g>
 <defs>
  <clipPath id="p516742bd61">
   <rect height="198.960412" width="636.55" x="67.98875" y="102.072"/>
  </clipPath>
  <clipPath id="p83ac60d25f">
   <rect height="198.960412" width="636.55" x="67.98875" y="313.679588"/>
  </clipPath>
 </defs>
</svg>
