<?xml version="1.0" encoding="utf-8" standalone="no"?>
<!DOCTYPE svg PUBLIC "-//W3C//DTD SVG 1.1//EN"
  "http://www.w3.org/Graphics/SVG/1.1/DTD/svg11.dtd">
<!-- Created with matplotlib (https://matplotlib.org/) -->
<svg height="563.560252pt" version="1.1" viewBox="0 0 711.67625 563.560252" width="711.67625pt" xmlns="http://www.w3.org/2000/svg" xmlns:xlink="http://www.w3.org/1999/xlink">
 <metadata>
  <rdf:RDF xmlns:cc="http://creativecommons.org/ns#" xmlns:dc="http://purl.org/dc/elements/1.1/" xmlns:rdf="http://www.w3.org/1999/02/22-rdf-syntax-ns#">
   <cc:Work>
    <dc:type rdf:resource="http://purl.org/dc/dcmitype/StillImage"/>
    <dc:date>2020-11-21T09:05:15.200806</dc:date>
    <dc:format>image/svg+xml</dc:format>
    <dc:creator>
     <cc:Agent>
      <dc:title>Matplotlib v3.3.2, https://matplotlib.org/</dc:title>
     </cc:Agent>
    </dc:creator>
   </cc:Work>
  </rdf:RDF>
 </metadata>
 <defs>
  <style type="text/css">*{stroke-linecap:butt;stroke-linejoin:round;}</style>
 </defs>
 <g id="figure_1">
  <g id="patch_1">
   <path d="M 0 563.560252 
L 711.67625 563.560252 
L 711.67625 0 
L 0 0 
z
" style="fill:#ffffff;"/>
  </g>
  <g id="axes_1">
   <g id="patch_2">
    <path d="M 61.62625 301.187403 
L 704.47625 301.187403 
L 704.47625 102.072 
L 61.62625 102.072 
z
" style="fill:#e5e5e5;"/>
   </g>
   <g id="matplotlib.axis_1">
    <g id="xtick_1">
     <g id="line2d_1">
      <defs>
       <path d="M 0 0 
L 0 3.5 
" id="m27d5d220ff" style="stroke:#555555;stroke-width:0.8;"/>
      </defs>
      <g>
       <use style="fill:#555555;stroke:#555555;stroke-width:0.8;" x="61.62625" xlink:href="#m27d5d220ff" y="301.187403"/>
      </g>
     </g>
    </g>
    <g id="xtick_2">
     <g id="line2d_2">
      <g>
       <use style="fill:#555555;stroke:#555555;stroke-width:0.8;" x="156.316733" xlink:href="#m27d5d220ff" y="301.187403"/>
      </g>
     </g>
    </g>
    <g id="xtick_3">
     <g id="line2d_3">
      <g>
       <use style="fill:#555555;stroke:#555555;stroke-width:0.8;" x="268.531104" xlink:href="#m27d5d220ff" y="301.187403"/>
      </g>
     </g>
    </g>
    <g id="xtick_4">
     <g id="line2d_4">
      <g>
       <use style="fill:#555555;stroke:#555555;stroke-width:0.8;" x="380.745475" xlink:href="#m27d5d220ff" y="301.187403"/>
      </g>
     </g>
    </g>
    <g id="xtick_5">
     <g id="line2d_5">
      <g>
       <use style="fill:#555555;stroke:#555555;stroke-width:0.8;" x="492.959846" xlink:href="#m27d5d220ff" y="301.187403"/>
      </g>
     </g>
    </g>
    <g id="xtick_6">
     <g id="line2d_6">
      <g>
       <use style="fill:#555555;stroke:#555555;stroke-width:0.8;" x="605.481654" xlink:href="#m27d5d220ff" y="301.187403"/>
      </g>
     </g>
    </g>
    <g id="xtick_7">
     <g id="line2d_7">
      <g>
       <use style="fill:#555555;stroke:#555555;stroke-width:0.8;" x="704.47625" xlink:href="#m27d5d220ff" y="301.187403"/>
      </g>
     </g>
    </g>
    <g id="xtick_8">
     <g id="line2d_8">
      <defs>
       <path d="M 0 0 
L 0 2 
" id="m2ca95a9049" style="stroke:#555555;stroke-width:0.6;"/>
      </defs>
      <g>
       <use style="fill:#555555;stroke:#555555;stroke-width:0.6;" x="71.771659" xlink:href="#m2ca95a9049" y="301.187403"/>
      </g>
     </g>
    </g>
    <g id="xtick_9">
     <g id="line2d_9">
      <g>
       <use style="fill:#555555;stroke:#555555;stroke-width:0.6;" x="99.748393" xlink:href="#m2ca95a9049" y="301.187403"/>
      </g>
     </g>
    </g>
    <g id="xtick_10">
     <g id="line2d_10">
      <g>
       <use style="fill:#555555;stroke:#555555;stroke-width:0.6;" x="128.032563" xlink:href="#m2ca95a9049" y="301.187403"/>
      </g>
     </g>
    </g>
    <g id="xtick_11">
     <g id="line2d_11">
      <g>
       <use style="fill:#555555;stroke:#555555;stroke-width:0.6;" x="183.98603" xlink:href="#m2ca95a9049" y="301.187403"/>
      </g>
     </g>
    </g>
    <g id="xtick_12">
     <g id="line2d_12">
      <g>
       <use style="fill:#555555;stroke:#555555;stroke-width:0.6;" x="211.962764" xlink:href="#m2ca95a9049" y="301.187403"/>
      </g>
     </g>
    </g>
    <g id="xtick_13">
     <g id="line2d_13">
      <g>
       <use style="fill:#555555;stroke:#555555;stroke-width:0.6;" x="240.246934" xlink:href="#m2ca95a9049" y="301.187403"/>
      </g>
     </g>
    </g>
    <g id="xtick_14">
     <g id="line2d_14">
      <g>
       <use style="fill:#555555;stroke:#555555;stroke-width:0.6;" x="296.200401" xlink:href="#m2ca95a9049" y="301.187403"/>
      </g>
     </g>
    </g>
    <g id="xtick_15">
     <g id="line2d_15">
      <g>
       <use style="fill:#555555;stroke:#555555;stroke-width:0.6;" x="324.177135" xlink:href="#m2ca95a9049" y="301.187403"/>
      </g>
     </g>
    </g>
    <g id="xtick_16">
     <g id="line2d_16">
      <g>
       <use style="fill:#555555;stroke:#555555;stroke-width:0.6;" x="352.461305" xlink:href="#m2ca95a9049" y="301.187403"/>
      </g>
     </g>
    </g>
    <g id="xtick_17">
     <g id="line2d_17">
      <g>
       <use style="fill:#555555;stroke:#555555;stroke-width:0.6;" x="408.414772" xlink:href="#m2ca95a9049" y="301.187403"/>
      </g>
     </g>
    </g>
    <g id="xtick_18">
     <g id="line2d_18">
      <g>
       <use style="fill:#555555;stroke:#555555;stroke-width:0.6;" x="436.391506" xlink:href="#m2ca95a9049" y="301.187403"/>
      </g>
     </g>
    </g>
    <g id="xtick_19">
     <g id="line2d_19">
      <g>
       <use style="fill:#555555;stroke:#555555;stroke-width:0.6;" x="464.675676" xlink:href="#m2ca95a9049" y="301.187403"/>
      </g>
     </g>
    </g>
    <g id="xtick_20">
     <g id="line2d_20">
      <g>
       <use style="fill:#555555;stroke:#555555;stroke-width:0.6;" x="520.93658" xlink:href="#m2ca95a9049" y="301.187403"/>
      </g>
     </g>
    </g>
    <g id="xtick_21">
     <g id="line2d_21">
      <g>
       <use style="fill:#555555;stroke:#555555;stroke-width:0.6;" x="548.913314" xlink:href="#m2ca95a9049" y="301.187403"/>
      </g>
     </g>
    </g>
    <g id="xtick_22">
     <g id="line2d_22">
      <g>
       <use style="fill:#555555;stroke:#555555;stroke-width:0.6;" x="577.197484" xlink:href="#m2ca95a9049" y="301.187403"/>
      </g>
     </g>
    </g>
    <g id="xtick_23">
     <g id="line2d_23">
      <g>
       <use style="fill:#555555;stroke:#555555;stroke-width:0.6;" x="633.150951" xlink:href="#m2ca95a9049" y="301.187403"/>
      </g>
     </g>
    </g>
    <g id="xtick_24">
     <g id="line2d_24">
      <g>
       <use style="fill:#555555;stroke:#555555;stroke-width:0.6;" x="661.127685" xlink:href="#m2ca95a9049" y="301.187403"/>
      </g>
     </g>
    </g>
    <g id="xtick_25">
     <g id="line2d_25">
      <g>
       <use style="fill:#555555;stroke:#555555;stroke-width:0.6;" x="689.411855" xlink:href="#m2ca95a9049" y="301.187403"/>
      </g>
     </g>
    </g>
   </g>
   <g id="matplotlib.axis_2">
    <g id="ytick_1">
     <g id="line2d_26">
      <defs>
       <path d="M 0 0 
L -3.5 0 
" id="m6c418dc2de" style="stroke:#555555;stroke-width:0.8;"/>
      </defs>
      <g>
       <use style="fill:#555555;stroke:#555555;stroke-width:0.8;" x="61.62625" xlink:href="#m6c418dc2de" y="292.142762"/>
      </g>
     </g>
     <g id="text_1">
      <!-- 0 -->
      <g style="fill:#555555;" transform="translate(48.26375 295.94198)scale(0.1 -0.1)">
       <defs>
        <path d="M 31.78125 66.40625 
Q 24.171875 66.40625 20.328125 58.90625 
Q 16.5 51.421875 16.5 36.375 
Q 16.5 21.390625 20.328125 13.890625 
Q 24.171875 6.390625 31.78125 6.390625 
Q 39.453125 6.390625 43.28125 13.890625 
Q 47.125 21.390625 47.125 36.375 
Q 47.125 51.421875 43.28125 58.90625 
Q 39.453125 66.40625 31.78125 66.40625 
z
M 31.78125 74.21875 
Q 44.046875 74.21875 50.515625 64.515625 
Q 56.984375 54.828125 56.984375 36.375 
Q 56.984375 17.96875 50.515625 8.265625 
Q 44.046875 -1.421875 31.78125 -1.421875 
Q 19.53125 -1.421875 13.0625 8.265625 
Q 6.59375 17.96875 6.59375 36.375 
Q 6.59375 54.828125 13.0625 64.515625 
Q 19.53125 74.21875 31.78125 74.21875 
z
" id="DejaVuSans-48"/>
       </defs>
       <use xlink:href="#DejaVuSans-48"/>
      </g>
     </g>
    </g>
    <g id="ytick_2">
     <g id="line2d_27">
      <g>
       <use style="fill:#555555;stroke:#555555;stroke-width:0.8;" x="61.62625" xlink:href="#m6c418dc2de" y="254.037696"/>
      </g>
     </g>
     <g id="text_2">
      <!-- 1 -->
      <g style="fill:#555555;" transform="translate(48.26375 257.836915)scale(0.1 -0.1)">
       <defs>
        <path d="M 12.40625 8.296875 
L 28.515625 8.296875 
L 28.515625 63.921875 
L 10.984375 60.40625 
L 10.984375 69.390625 
L 28.421875 72.90625 
L 38.28125 72.90625 
L 38.28125 8.296875 
L 54.390625 8.296875 
L 54.390625 0 
L 12.40625 0 
z
" id="DejaVuSans-49"/>
       </defs>
       <use xlink:href="#DejaVuSans-49"/>
      </g>
     </g>
    </g>
    <g id="ytick_3">
     <g id="line2d_28">
      <g>
       <use style="fill:#555555;stroke:#555555;stroke-width:0.8;" x="61.62625" xlink:href="#m6c418dc2de" y="215.932631"/>
      </g>
     </g>
     <g id="text_3">
      <!-- 2 -->
      <g style="fill:#555555;" transform="translate(48.26375 219.73185)scale(0.1 -0.1)">
       <defs>
        <path d="M 19.1875 8.296875 
L 53.609375 8.296875 
L 53.609375 0 
L 7.328125 0 
L 7.328125 8.296875 
Q 12.9375 14.109375 22.625 23.890625 
Q 32.328125 33.6875 34.8125 36.53125 
Q 39.546875 41.84375 41.421875 45.53125 
Q 43.3125 49.21875 43.3125 52.78125 
Q 43.3125 58.59375 39.234375 62.25 
Q 35.15625 65.921875 28.609375 65.921875 
Q 23.96875 65.921875 18.8125 64.3125 
Q 13.671875 62.703125 7.8125 59.421875 
L 7.8125 69.390625 
Q 13.765625 71.78125 18.9375 73 
Q 24.125 74.21875 28.421875 74.21875 
Q 39.75 74.21875 46.484375 68.546875 
Q 53.21875 62.890625 53.21875 53.421875 
Q 53.21875 48.921875 51.53125 44.890625 
Q 49.859375 40.875 45.40625 35.40625 
Q 44.1875 33.984375 37.640625 27.21875 
Q 31.109375 20.453125 19.1875 8.296875 
z
" id="DejaVuSans-50"/>
       </defs>
       <use xlink:href="#DejaVuSans-50"/>
      </g>
     </g>
    </g>
    <g id="ytick_4">
     <g id="line2d_29">
      <g>
       <use style="fill:#555555;stroke:#555555;stroke-width:0.8;" x="61.62625" xlink:href="#m6c418dc2de" y="177.827566"/>
      </g>
     </g>
     <g id="text_4">
      <!-- 3 -->
      <g style="fill:#555555;" transform="translate(48.26375 181.626784)scale(0.1 -0.1)">
       <defs>
        <path d="M 40.578125 39.3125 
Q 47.65625 37.796875 51.625 33 
Q 55.609375 28.21875 55.609375 21.1875 
Q 55.609375 10.40625 48.1875 4.484375 
Q 40.765625 -1.421875 27.09375 -1.421875 
Q 22.515625 -1.421875 17.65625 -0.515625 
Q 12.796875 0.390625 7.625 2.203125 
L 7.625 11.71875 
Q 11.71875 9.328125 16.59375 8.109375 
Q 21.484375 6.890625 26.8125 6.890625 
Q 36.078125 6.890625 40.9375 10.546875 
Q 45.796875 14.203125 45.796875 21.1875 
Q 45.796875 27.640625 41.28125 31.265625 
Q 36.765625 34.90625 28.71875 34.90625 
L 20.21875 34.90625 
L 20.21875 43.015625 
L 29.109375 43.015625 
Q 36.375 43.015625 40.234375 45.921875 
Q 44.09375 48.828125 44.09375 54.296875 
Q 44.09375 59.90625 40.109375 62.90625 
Q 36.140625 65.921875 28.71875 65.921875 
Q 24.65625 65.921875 20.015625 65.03125 
Q 15.375 64.15625 9.8125 62.3125 
L 9.8125 71.09375 
Q 15.4375 72.65625 20.34375 73.4375 
Q 25.25 74.21875 29.59375 74.21875 
Q 40.828125 74.21875 47.359375 69.109375 
Q 53.90625 64.015625 53.90625 55.328125 
Q 53.90625 49.265625 50.4375 45.09375 
Q 46.96875 40.921875 40.578125 39.3125 
z
" id="DejaVuSans-51"/>
       </defs>
       <use xlink:href="#DejaVuSans-51"/>
      </g>
     </g>
    </g>
    <g id="ytick_5">
     <g id="line2d_30">
      <g>
       <use style="fill:#555555;stroke:#555555;stroke-width:0.8;" x="61.62625" xlink:href="#m6c418dc2de" y="139.7225"/>
      </g>
     </g>
     <g id="text_5">
      <!-- 4 -->
      <g style="fill:#555555;" transform="translate(48.26375 143.521719)scale(0.1 -0.1)">
       <defs>
        <path d="M 37.796875 64.3125 
L 12.890625 25.390625 
L 37.796875 25.390625 
z
M 35.203125 72.90625 
L 47.609375 72.90625 
L 47.609375 25.390625 
L 58.015625 25.390625 
L 58.015625 17.1875 
L 47.609375 17.1875 
L 47.609375 0 
L 37.796875 0 
L 37.796875 17.1875 
L 4.890625 17.1875 
L 4.890625 26.703125 
z
" id="DejaVuSans-52"/>
       </defs>
       <use xlink:href="#DejaVuSans-52"/>
      </g>
     </g>
    </g>
    <g id="text_6">
     <!-- Total -->
     <g style="fill:#555555;" transform="translate(41.768125 215.641577)rotate(-90)scale(0.12 -0.12)">
      <defs>
       <path d="M -0.296875 72.90625 
L 61.375 72.90625 
L 61.375 64.59375 
L 35.5 64.59375 
L 35.5 0 
L 25.59375 0 
L 25.59375 64.59375 
L -0.296875 64.59375 
z
" id="DejaVuSans-84"/>
       <path d="M 30.609375 48.390625 
Q 23.390625 48.390625 19.1875 42.75 
Q 14.984375 37.109375 14.984375 27.296875 
Q 14.984375 17.484375 19.15625 11.84375 
Q 23.34375 6.203125 30.609375 6.203125 
Q 37.796875 6.203125 41.984375 11.859375 
Q 46.1875 17.53125 46.1875 27.296875 
Q 46.1875 37.015625 41.984375 42.703125 
Q 37.796875 48.390625 30.609375 48.390625 
z
M 30.609375 56 
Q 42.328125 56 49.015625 48.375 
Q 55.71875 40.765625 55.71875 27.296875 
Q 55.71875 13.875 49.015625 6.21875 
Q 42.328125 -1.421875 30.609375 -1.421875 
Q 18.84375 -1.421875 12.171875 6.21875 
Q 5.515625 13.875 5.515625 27.296875 
Q 5.515625 40.765625 12.171875 48.375 
Q 18.84375 56 30.609375 56 
z
" id="DejaVuSans-111"/>
       <path d="M 18.3125 70.21875 
L 18.3125 54.6875 
L 36.8125 54.6875 
L 36.8125 47.703125 
L 18.3125 47.703125 
L 18.3125 18.015625 
Q 18.3125 11.328125 20.140625 9.421875 
Q 21.96875 7.515625 27.59375 7.515625 
L 36.8125 7.515625 
L 36.8125 0 
L 27.59375 0 
Q 17.1875 0 13.234375 3.875 
Q 9.28125 7.765625 9.28125 18.015625 
L 9.28125 47.703125 
L 2.6875 47.703125 
L 2.6875 54.6875 
L 9.28125 54.6875 
L 9.28125 70.21875 
z
" id="DejaVuSans-116"/>
       <path d="M 34.28125 27.484375 
Q 23.390625 27.484375 19.1875 25 
Q 14.984375 22.515625 14.984375 16.5 
Q 14.984375 11.71875 18.140625 8.90625 
Q 21.296875 6.109375 26.703125 6.109375 
Q 34.1875 6.109375 38.703125 11.40625 
Q 43.21875 16.703125 43.21875 25.484375 
L 43.21875 27.484375 
z
M 52.203125 31.203125 
L 52.203125 0 
L 43.21875 0 
L 43.21875 8.296875 
Q 40.140625 3.328125 35.546875 0.953125 
Q 30.953125 -1.421875 24.3125 -1.421875 
Q 15.921875 -1.421875 10.953125 3.296875 
Q 6 8.015625 6 15.921875 
Q 6 25.140625 12.171875 29.828125 
Q 18.359375 34.515625 30.609375 34.515625 
L 43.21875 34.515625 
L 43.21875 35.40625 
Q 43.21875 41.609375 39.140625 45 
Q 35.0625 48.390625 27.6875 48.390625 
Q 23 48.390625 18.546875 47.265625 
Q 14.109375 46.140625 10.015625 43.890625 
L 10.015625 52.203125 
Q 14.9375 54.109375 19.578125 55.046875 
Q 24.21875 56 28.609375 56 
Q 40.484375 56 46.34375 49.84375 
Q 52.203125 43.703125 52.203125 31.203125 
z
" id="DejaVuSans-97"/>
       <path d="M 9.421875 75.984375 
L 18.40625 75.984375 
L 18.40625 0 
L 9.421875 0 
z
" id="DejaVuSans-108"/>
      </defs>
      <use xlink:href="#DejaVuSans-84"/>
      <use x="44.083984" xlink:href="#DejaVuSans-111"/>
      <use x="105.265625" xlink:href="#DejaVuSans-116"/>
      <use x="144.474609" xlink:href="#DejaVuSans-97"/>
      <use x="205.753906" xlink:href="#DejaVuSans-108"/>
     </g>
    </g>
    <g id="text_7">
     <!-- 1e6 -->
     <g style="fill:#555555;" transform="translate(61.62625 99.072)scale(0.1 -0.1)">
      <defs>
       <path d="M 56.203125 29.59375 
L 56.203125 25.203125 
L 14.890625 25.203125 
Q 15.484375 15.921875 20.484375 11.0625 
Q 25.484375 6.203125 34.421875 6.203125 
Q 39.59375 6.203125 44.453125 7.46875 
Q 49.3125 8.734375 54.109375 11.28125 
L 54.109375 2.78125 
Q 49.265625 0.734375 44.1875 -0.34375 
Q 39.109375 -1.421875 33.890625 -1.421875 
Q 20.796875 -1.421875 13.15625 6.1875 
Q 5.515625 13.8125 5.515625 26.8125 
Q 5.515625 40.234375 12.765625 48.109375 
Q 20.015625 56 32.328125 56 
Q 43.359375 56 49.78125 48.890625 
Q 56.203125 41.796875 56.203125 29.59375 
z
M 47.21875 32.234375 
Q 47.125 39.59375 43.09375 43.984375 
Q 39.0625 48.390625 32.421875 48.390625 
Q 24.90625 48.390625 20.390625 44.140625 
Q 15.875 39.890625 15.1875 32.171875 
z
" id="DejaVuSans-101"/>
       <path d="M 33.015625 40.375 
Q 26.375 40.375 22.484375 35.828125 
Q 18.609375 31.296875 18.609375 23.390625 
Q 18.609375 15.53125 22.484375 10.953125 
Q 26.375 6.390625 33.015625 6.390625 
Q 39.65625 6.390625 43.53125 10.953125 
Q 47.40625 15.53125 47.40625 23.390625 
Q 47.40625 31.296875 43.53125 35.828125 
Q 39.65625 40.375 33.015625 40.375 
z
M 52.59375 71.296875 
L 52.59375 62.3125 
Q 48.875 64.0625 45.09375 64.984375 
Q 41.3125 65.921875 37.59375 65.921875 
Q 27.828125 65.921875 22.671875 59.328125 
Q 17.53125 52.734375 16.796875 39.40625 
Q 19.671875 43.65625 24.015625 45.921875 
Q 28.375 48.1875 33.59375 48.1875 
Q 44.578125 48.1875 50.953125 41.515625 
Q 57.328125 34.859375 57.328125 23.390625 
Q 57.328125 12.15625 50.6875 5.359375 
Q 44.046875 -1.421875 33.015625 -1.421875 
Q 20.359375 -1.421875 13.671875 8.265625 
Q 6.984375 17.96875 6.984375 36.375 
Q 6.984375 53.65625 15.1875 63.9375 
Q 23.390625 74.21875 37.203125 74.21875 
Q 40.921875 74.21875 44.703125 73.484375 
Q 48.484375 72.75 52.59375 71.296875 
z
" id="DejaVuSans-54"/>
      </defs>
      <use xlink:href="#DejaVuSans-49"/>
      <use x="63.623047" xlink:href="#DejaVuSans-101"/>
      <use x="125.146484" xlink:href="#DejaVuSans-54"/>
     </g>
    </g>
   </g>
   <g id="line2d_31">
    <path clip-path="url(#pb49d4f2e37)" d="M 61.62625 292.136703 
L 64.39318 292.039649 
L 65.930363 291.792729 
L 66.852673 291.455499 
L 67.467546 291.205606 
L 69.004729 289.551008 
L 70.234476 287.308601 
L 70.849349 286.135841 
L 72.079096 283.73808 
L 73.001405 281.658458 
L 73.923715 280.342233 
L 74.846025 278.692664 
L 77.612955 275.947499 
L 78.535265 275.218854 
L 79.457575 274.518216 
L 80.687321 273.953042 
L 81.302195 273.657652 
L 83.146814 273.017829 
L 83.761688 272.798573 
L 84.376561 272.651106 
L 87.143491 271.937322 
L 92.984787 271.046692 
L 96.059153 270.590461 
L 99.440956 269.936006 
L 102.822759 269.444794 
L 104.667379 269.183355 
L 110.201238 267.990133 
L 111.123548 267.654846 
L 111.738421 267.46314 
L 112.353294 267.30287 
L 115.427661 265.844779 
L 115.735097 265.612262 
L 116.657407 265.295495 
L 118.194591 264.504662 
L 118.809464 264.295694 
L 123.113577 262.219387 
L 128.647436 258.19595 
L 129.877183 257.152481 
L 132.029239 253.894612 
L 134.181295 248.615879 
L 136.025915 240.783802 
L 136.640788 237.155666 
L 137.563098 231.220764 
L 138.177972 228.082926 
L 138.792845 223.829944 
L 139.715155 216.865633 
L 140.330028 213.585359 
L 140.944901 208.972398 
L 141.867211 201.776256 
L 142.482085 198.890598 
L 143.096958 194.298556 
L 143.711831 188.970096 
L 143.711831 188.970096 
" style="fill:none;stroke:#e24a33;stroke-linecap:square;stroke-width:1.5;"/>
   </g>
   <g id="line2d_32">
    <path clip-path="url(#pb49d4f2e37)" d="M 143.711831 188.970096 
L 146.171324 168.369472 
L 147.708507 157.059053 
L 149.24569 147.297062 
L 150.475437 140.656395 
L 151.705184 135.022517 
L 152.93493 130.319395 
L 154.164677 126.446224 
L 155.394423 123.292229 
L 156.62417 120.747409 
L 157.853916 118.709362 
L 159.083663 117.086922 
L 160.313409 115.8015 
L 161.543156 114.786949 
L 163.080339 113.817357 
L 164.617522 113.101282 
L 166.462142 112.486455 
L 168.614198 112.004908 
L 171.381128 111.625897 
L 175.070368 111.360391 
L 180.911664 111.195081 
L 193.209129 111.128613 
L 293.433471 111.1227 
L 704.47625 111.1227 
L 704.47625 111.1227 
" style="fill:none;stroke:#348abd;stroke-linecap:square;stroke-width:1.5;"/>
   </g>
   <g id="patch_3">
    <path d="M 61.62625 301.187403 
L 61.62625 102.072 
" style="fill:none;stroke:#ffffff;stroke-linecap:square;stroke-linejoin:miter;"/>
   </g>
   <g id="patch_4">
    <path d="M 704.47625 301.187403 
L 704.47625 102.072 
" style="fill:none;stroke:#ffffff;stroke-linecap:square;stroke-linejoin:miter;"/>
   </g>
   <g id="patch_5">
    <path d="M 61.62625 301.187403 
L 704.47625 301.187403 
" style="fill:none;stroke:#ffffff;stroke-linecap:square;stroke-linejoin:miter;"/>
   </g>
   <g id="patch_6">
    <path d="M 61.62625 102.072 
L 704.47625 102.072 
" style="fill:none;stroke:#ffffff;stroke-linecap:square;stroke-linejoin:miter;"/>
   </g>
  </g>
  <g id="axes_2">
   <g id="patch_7">
    <path d="M 61.62625 512.64 
L 704.47625 512.64 
L 704.47625 313.524597 
L 61.62625 313.524597 
z
" style="fill:#e5e5e5;"/>
   </g>
   <g id="matplotlib.axis_3">
    <g id="xtick_26">
     <g id="line2d_33">
      <g>
       <use style="fill:#555555;stroke:#555555;stroke-width:0.8;" x="61.62625" xlink:href="#m27d5d220ff" y="512.64"/>
      </g>
     </g>
    </g>
    <g id="xtick_27">
     <g id="line2d_34">
      <g>
       <use style="fill:#555555;stroke:#555555;stroke-width:0.8;" x="156.316733" xlink:href="#m27d5d220ff" y="512.64"/>
      </g>
     </g>
     <g id="text_8">
      <!-- 2021 -->
      <g style="fill:#555555;" transform="translate(133.236543 538.94544)rotate(-30)scale(0.1 -0.1)">
       <use xlink:href="#DejaVuSans-50"/>
       <use x="63.623047" xlink:href="#DejaVuSans-48"/>
       <use x="127.246094" xlink:href="#DejaVuSans-50"/>
       <use x="190.869141" xlink:href="#DejaVuSans-49"/>
      </g>
     </g>
    </g>
    <g id="xtick_28">
     <g id="line2d_35">
      <g>
       <use style="fill:#555555;stroke:#555555;stroke-width:0.8;" x="268.531104" xlink:href="#m27d5d220ff" y="512.64"/>
      </g>
     </g>
     <g id="text_9">
      <!-- 2022 -->
      <g style="fill:#555555;" transform="translate(245.450914 538.94544)rotate(-30)scale(0.1 -0.1)">
       <use xlink:href="#DejaVuSans-50"/>
       <use x="63.623047" xlink:href="#DejaVuSans-48"/>
       <use x="127.246094" xlink:href="#DejaVuSans-50"/>
       <use x="190.869141" xlink:href="#DejaVuSans-50"/>
      </g>
     </g>
    </g>
    <g id="xtick_29">
     <g id="line2d_36">
      <g>
       <use style="fill:#555555;stroke:#555555;stroke-width:0.8;" x="380.745475" xlink:href="#m27d5d220ff" y="512.64"/>
      </g>
     </g>
     <g id="text_10">
      <!-- 2023 -->
      <g style="fill:#555555;" transform="translate(357.665285 538.94544)rotate(-30)scale(0.1 -0.1)">
       <use xlink:href="#DejaVuSans-50"/>
       <use x="63.623047" xlink:href="#DejaVuSans-48"/>
       <use x="127.246094" xlink:href="#DejaVuSans-50"/>
       <use x="190.869141" xlink:href="#DejaVuSans-51"/>
      </g>
     </g>
    </g>
    <g id="xtick_30">
     <g id="line2d_37">
      <g>
       <use style="fill:#555555;stroke:#555555;stroke-width:0.8;" x="492.959846" xlink:href="#m27d5d220ff" y="512.64"/>
      </g>
     </g>
     <g id="text_11">
      <!-- 2024 -->
      <g style="fill:#555555;" transform="translate(469.879656 538.94544)rotate(-30)scale(0.1 -0.1)">
       <use xlink:href="#DejaVuSans-50"/>
       <use x="63.623047" xlink:href="#DejaVuSans-48"/>
       <use x="127.246094" xlink:href="#DejaVuSans-50"/>
       <use x="190.869141" xlink:href="#DejaVuSans-52"/>
      </g>
     </g>
    </g>
    <g id="xtick_31">
     <g id="line2d_38">
      <g>
       <use style="fill:#555555;stroke:#555555;stroke-width:0.8;" x="605.481654" xlink:href="#m27d5d220ff" y="512.64"/>
      </g>
     </g>
     <g id="text_12">
      <!-- 2025 -->
      <g style="fill:#555555;" transform="translate(582.401464 538.94544)rotate(-30)scale(0.1 -0.1)">
       <defs>
        <path d="M 10.796875 72.90625 
L 49.515625 72.90625 
L 49.515625 64.59375 
L 19.828125 64.59375 
L 19.828125 46.734375 
Q 21.96875 47.46875 24.109375 47.828125 
Q 26.265625 48.1875 28.421875 48.1875 
Q 40.625 48.1875 47.75 41.5 
Q 54.890625 34.8125 54.890625 23.390625 
Q 54.890625 11.625 47.5625 5.09375 
Q 40.234375 -1.421875 26.90625 -1.421875 
Q 22.3125 -1.421875 17.546875 -0.640625 
Q 12.796875 0.140625 7.71875 1.703125 
L 7.71875 11.625 
Q 12.109375 9.234375 16.796875 8.0625 
Q 21.484375 6.890625 26.703125 6.890625 
Q 35.15625 6.890625 40.078125 11.328125 
Q 45.015625 15.765625 45.015625 23.390625 
Q 45.015625 31 40.078125 35.4375 
Q 35.15625 39.890625 26.703125 39.890625 
Q 22.75 39.890625 18.8125 39.015625 
Q 14.890625 38.140625 10.796875 36.28125 
z
" id="DejaVuSans-53"/>
       </defs>
       <use xlink:href="#DejaVuSans-50"/>
       <use x="63.623047" xlink:href="#DejaVuSans-48"/>
       <use x="127.246094" xlink:href="#DejaVuSans-50"/>
       <use x="190.869141" xlink:href="#DejaVuSans-53"/>
      </g>
     </g>
    </g>
    <g id="xtick_32">
     <g id="line2d_39">
      <g>
       <use style="fill:#555555;stroke:#555555;stroke-width:0.8;" x="704.47625" xlink:href="#m27d5d220ff" y="512.64"/>
      </g>
     </g>
    </g>
    <g id="xtick_33">
     <g id="line2d_40">
      <g>
       <use style="fill:#555555;stroke:#555555;stroke-width:0.6;" x="71.771659" xlink:href="#m2ca95a9049" y="512.64"/>
      </g>
     </g>
    </g>
    <g id="xtick_34">
     <g id="line2d_41">
      <g>
       <use style="fill:#555555;stroke:#555555;stroke-width:0.6;" x="99.748393" xlink:href="#m2ca95a9049" y="512.64"/>
      </g>
     </g>
    </g>
    <g id="xtick_35">
     <g id="line2d_42">
      <g>
       <use style="fill:#555555;stroke:#555555;stroke-width:0.6;" x="128.032563" xlink:href="#m2ca95a9049" y="512.64"/>
      </g>
     </g>
    </g>
    <g id="xtick_36">
     <g id="line2d_43">
      <g>
       <use style="fill:#555555;stroke:#555555;stroke-width:0.6;" x="183.98603" xlink:href="#m2ca95a9049" y="512.64"/>
      </g>
     </g>
    </g>
    <g id="xtick_37">
     <g id="line2d_44">
      <g>
       <use style="fill:#555555;stroke:#555555;stroke-width:0.6;" x="211.962764" xlink:href="#m2ca95a9049" y="512.64"/>
      </g>
     </g>
    </g>
    <g id="xtick_38">
     <g id="line2d_45">
      <g>
       <use style="fill:#555555;stroke:#555555;stroke-width:0.6;" x="240.246934" xlink:href="#m2ca95a9049" y="512.64"/>
      </g>
     </g>
    </g>
    <g id="xtick_39">
     <g id="line2d_46">
      <g>
       <use style="fill:#555555;stroke:#555555;stroke-width:0.6;" x="296.200401" xlink:href="#m2ca95a9049" y="512.64"/>
      </g>
     </g>
    </g>
    <g id="xtick_40">
     <g id="line2d_47">
      <g>
       <use style="fill:#555555;stroke:#555555;stroke-width:0.6;" x="324.177135" xlink:href="#m2ca95a9049" y="512.64"/>
      </g>
     </g>
    </g>
    <g id="xtick_41">
     <g id="line2d_48">
      <g>
       <use style="fill:#555555;stroke:#555555;stroke-width:0.6;" x="352.461305" xlink:href="#m2ca95a9049" y="512.64"/>
      </g>
     </g>
    </g>
    <g id="xtick_42">
     <g id="line2d_49">
      <g>
       <use style="fill:#555555;stroke:#555555;stroke-width:0.6;" x="408.414772" xlink:href="#m2ca95a9049" y="512.64"/>
      </g>
     </g>
    </g>
    <g id="xtick_43">
     <g id="line2d_50">
      <g>
       <use style="fill:#555555;stroke:#555555;stroke-width:0.6;" x="436.391506" xlink:href="#m2ca95a9049" y="512.64"/>
      </g>
     </g>
    </g>
    <g id="xtick_44">
     <g id="line2d_51">
      <g>
       <use style="fill:#555555;stroke:#555555;stroke-width:0.6;" x="464.675676" xlink:href="#m2ca95a9049" y="512.64"/>
      </g>
     </g>
    </g>
    <g id="xtick_45">
     <g id="line2d_52">
      <g>
       <use style="fill:#555555;stroke:#555555;stroke-width:0.6;" x="520.93658" xlink:href="#m2ca95a9049" y="512.64"/>
      </g>
     </g>
    </g>
    <g id="xtick_46">
     <g id="line2d_53">
      <g>
       <use style="fill:#555555;stroke:#555555;stroke-width:0.6;" x="548.913314" xlink:href="#m2ca95a9049" y="512.64"/>
      </g>
     </g>
    </g>
    <g id="xtick_47">
     <g id="line2d_54">
      <g>
       <use style="fill:#555555;stroke:#555555;stroke-width:0.6;" x="577.197484" xlink:href="#m2ca95a9049" y="512.64"/>
      </g>
     </g>
    </g>
    <g id="xtick_48">
     <g id="line2d_55">
      <g>
       <use style="fill:#555555;stroke:#555555;stroke-width:0.6;" x="633.150951" xlink:href="#m2ca95a9049" y="512.64"/>
      </g>
     </g>
    </g>
    <g id="xtick_49">
     <g id="line2d_56">
      <g>
       <use style="fill:#555555;stroke:#555555;stroke-width:0.6;" x="661.127685" xlink:href="#m2ca95a9049" y="512.64"/>
      </g>
     </g>
    </g>
    <g id="xtick_50">
     <g id="line2d_57">
      <g>
       <use style="fill:#555555;stroke:#555555;stroke-width:0.6;" x="689.411855" xlink:href="#m2ca95a9049" y="512.64"/>
      </g>
     </g>
    </g>
    <g id="text_13">
     <!-- Date -->
     <g style="fill:#555555;" transform="translate(368.710312 553.864627)scale(0.12 -0.12)">
      <defs>
       <path d="M 19.671875 64.796875 
L 19.671875 8.109375 
L 31.59375 8.109375 
Q 46.6875 8.109375 53.6875 14.9375 
Q 60.6875 21.78125 60.6875 36.53125 
Q 60.6875 51.171875 53.6875 57.984375 
Q 46.6875 64.796875 31.59375 64.796875 
z
M 9.8125 72.90625 
L 30.078125 72.90625 
Q 51.265625 72.90625 61.171875 64.09375 
Q 71.09375 55.28125 71.09375 36.53125 
Q 71.09375 17.671875 61.125 8.828125 
Q 51.171875 0 30.078125 0 
L 9.8125 0 
z
" id="DejaVuSans-68"/>
      </defs>
      <use xlink:href="#DejaVuSans-68"/>
      <use x="77.001953" xlink:href="#DejaVuSans-97"/>
      <use x="138.28125" xlink:href="#DejaVuSans-116"/>
      <use x="177.490234" xlink:href="#DejaVuSans-101"/>
     </g>
    </g>
   </g>
   <g id="matplotlib.axis_4">
    <g id="ytick_6">
     <g id="line2d_58">
      <g>
       <use style="fill:#555555;stroke:#555555;stroke-width:0.8;" x="61.62625" xlink:href="#m6c418dc2de" y="503.5893"/>
      </g>
     </g>
     <g id="text_14">
      <!-- 0 -->
      <g style="fill:#555555;" transform="translate(48.26375 507.388519)scale(0.1 -0.1)">
       <use xlink:href="#DejaVuSans-48"/>
      </g>
     </g>
    </g>
    <g id="ytick_7">
     <g id="line2d_59">
      <g>
       <use style="fill:#555555;stroke:#555555;stroke-width:0.8;" x="61.62625" xlink:href="#m6c418dc2de" y="478.074245"/>
      </g>
     </g>
     <g id="text_15">
      <!-- 10000 -->
      <g style="fill:#555555;" transform="translate(22.81375 481.873464)scale(0.1 -0.1)">
       <use xlink:href="#DejaVuSans-49"/>
       <use x="63.623047" xlink:href="#DejaVuSans-48"/>
       <use x="127.246094" xlink:href="#DejaVuSans-48"/>
       <use x="190.869141" xlink:href="#DejaVuSans-48"/>
       <use x="254.492188" xlink:href="#DejaVuSans-48"/>
      </g>
     </g>
    </g>
    <g id="ytick_8">
     <g id="line2d_60">
      <g>
       <use style="fill:#555555;stroke:#555555;stroke-width:0.8;" x="61.62625" xlink:href="#m6c418dc2de" y="452.559191"/>
      </g>
     </g>
     <g id="text_16">
      <!-- 20000 -->
      <g style="fill:#555555;" transform="translate(22.81375 456.35841)scale(0.1 -0.1)">
       <use xlink:href="#DejaVuSans-50"/>
       <use x="63.623047" xlink:href="#DejaVuSans-48"/>
       <use x="127.246094" xlink:href="#DejaVuSans-48"/>
       <use x="190.869141" xlink:href="#DejaVuSans-48"/>
       <use x="254.492188" xlink:href="#DejaVuSans-48"/>
      </g>
     </g>
    </g>
    <g id="ytick_9">
     <g id="line2d_61">
      <g>
       <use style="fill:#555555;stroke:#555555;stroke-width:0.8;" x="61.62625" xlink:href="#m6c418dc2de" y="427.044136"/>
      </g>
     </g>
     <g id="text_17">
      <!-- 30000 -->
      <g style="fill:#555555;" transform="translate(22.81375 430.843355)scale(0.1 -0.1)">
       <use xlink:href="#DejaVuSans-51"/>
       <use x="63.623047" xlink:href="#DejaVuSans-48"/>
       <use x="127.246094" xlink:href="#DejaVuSans-48"/>
       <use x="190.869141" xlink:href="#DejaVuSans-48"/>
       <use x="254.492188" xlink:href="#DejaVuSans-48"/>
      </g>
     </g>
    </g>
    <g id="ytick_10">
     <g id="line2d_62">
      <g>
       <use style="fill:#555555;stroke:#555555;stroke-width:0.8;" x="61.62625" xlink:href="#m6c418dc2de" y="401.529082"/>
      </g>
     </g>
     <g id="text_18">
      <!-- 40000 -->
      <g style="fill:#555555;" transform="translate(22.81375 405.3283)scale(0.1 -0.1)">
       <use xlink:href="#DejaVuSans-52"/>
       <use x="63.623047" xlink:href="#DejaVuSans-48"/>
       <use x="127.246094" xlink:href="#DejaVuSans-48"/>
       <use x="190.869141" xlink:href="#DejaVuSans-48"/>
       <use x="254.492188" xlink:href="#DejaVuSans-48"/>
      </g>
     </g>
    </g>
    <g id="ytick_11">
     <g id="line2d_63">
      <g>
       <use style="fill:#555555;stroke:#555555;stroke-width:0.8;" x="61.62625" xlink:href="#m6c418dc2de" y="376.014027"/>
      </g>
     </g>
     <g id="text_19">
      <!-- 50000 -->
      <g style="fill:#555555;" transform="translate(22.81375 379.813246)scale(0.1 -0.1)">
       <use xlink:href="#DejaVuSans-53"/>
       <use x="63.623047" xlink:href="#DejaVuSans-48"/>
       <use x="127.246094" xlink:href="#DejaVuSans-48"/>
       <use x="190.869141" xlink:href="#DejaVuSans-48"/>
       <use x="254.492188" xlink:href="#DejaVuSans-48"/>
      </g>
     </g>
    </g>
    <g id="ytick_12">
     <g id="line2d_64">
      <g>
       <use style="fill:#555555;stroke:#555555;stroke-width:0.8;" x="61.62625" xlink:href="#m6c418dc2de" y="350.498973"/>
      </g>
     </g>
     <g id="text_20">
      <!-- 60000 -->
      <g style="fill:#555555;" transform="translate(22.81375 354.298191)scale(0.1 -0.1)">
       <use xlink:href="#DejaVuSans-54"/>
       <use x="63.623047" xlink:href="#DejaVuSans-48"/>
       <use x="127.246094" xlink:href="#DejaVuSans-48"/>
       <use x="190.869141" xlink:href="#DejaVuSans-48"/>
       <use x="254.492188" xlink:href="#DejaVuSans-48"/>
      </g>
     </g>
    </g>
    <g id="ytick_13">
     <g id="line2d_65">
      <g>
       <use style="fill:#555555;stroke:#555555;stroke-width:0.8;" x="61.62625" xlink:href="#m6c418dc2de" y="324.983918"/>
      </g>
     </g>
     <g id="text_21">
      <!-- 70000 -->
      <g style="fill:#555555;" transform="translate(22.81375 328.783137)scale(0.1 -0.1)">
       <defs>
        <path d="M 8.203125 72.90625 
L 55.078125 72.90625 
L 55.078125 68.703125 
L 28.609375 0 
L 18.3125 0 
L 43.21875 64.59375 
L 8.203125 64.59375 
z
" id="DejaVuSans-55"/>
       </defs>
       <use xlink:href="#DejaVuSans-55"/>
       <use x="63.623047" xlink:href="#DejaVuSans-48"/>
       <use x="127.246094" xlink:href="#DejaVuSans-48"/>
       <use x="190.869141" xlink:href="#DejaVuSans-48"/>
       <use x="254.492188" xlink:href="#DejaVuSans-48"/>
      </g>
     </g>
    </g>
    <g id="text_22">
     <!-- Daily -->
     <g style="fill:#555555;" transform="translate(16.318125 428.264173)rotate(-90)scale(0.12 -0.12)">
      <defs>
       <path d="M 9.421875 54.6875 
L 18.40625 54.6875 
L 18.40625 0 
L 9.421875 0 
z
M 9.421875 75.984375 
L 18.40625 75.984375 
L 18.40625 64.59375 
L 9.421875 64.59375 
z
" id="DejaVuSans-105"/>
       <path d="M 32.171875 -5.078125 
Q 28.375 -14.84375 24.75 -17.8125 
Q 21.140625 -20.796875 15.09375 -20.796875 
L 7.90625 -20.796875 
L 7.90625 -13.28125 
L 13.1875 -13.28125 
Q 16.890625 -13.28125 18.9375 -11.515625 
Q 21 -9.765625 23.484375 -3.21875 
L 25.09375 0.875 
L 2.984375 54.6875 
L 12.5 54.6875 
L 29.59375 11.921875 
L 46.6875 54.6875 
L 56.203125 54.6875 
z
" id="DejaVuSans-121"/>
      </defs>
      <use xlink:href="#DejaVuSans-68"/>
      <use x="77.001953" xlink:href="#DejaVuSans-97"/>
      <use x="138.28125" xlink:href="#DejaVuSans-105"/>
      <use x="166.064453" xlink:href="#DejaVuSans-108"/>
      <use x="193.847656" xlink:href="#DejaVuSans-121"/>
     </g>
    </g>
   </g>
   <g id="line2d_66">
    <path clip-path="url(#pde58f09af4)" d="M 61.933687 503.5051 
L 62.241123 503.107065 
L 62.54856 503.374973 
L 63.163433 503.084102 
L 63.778306 501.75987 
L 64.085743 502.395195 
L 64.39318 502.770267 
L 64.700616 501.775179 
L 65.008053 502.387541 
L 65.31549 501.514926 
L 65.622926 497.450378 
L 65.930363 498.28472 
L 66.237799 497.978539 
L 66.545236 495.605639 
L 66.852673 494.602898 
L 67.160109 494.832533 
L 67.467546 495.613294 
L 67.774983 482.149 
L 68.082419 480.94724 
L 68.389856 482.883833 
L 68.697293 488.678302 
L 69.004729 472.496654 
L 69.312166 467.123184 
L 69.619602 472.068001 
L 70.234476 459.346195 
L 70.541912 455.411774 
L 70.849349 473.239142 
L 71.156786 467.222693 
L 71.464222 468.263707 
L 72.079096 456.468097 
L 72.386532 456.330316 
L 72.693969 457.034531 
L 73.001405 458.152091 
L 73.308842 475.443643 
L 73.923715 472.948271 
L 74.231152 465.515735 
L 74.538589 462.844309 
L 75.153462 481.995909 
L 75.460898 484.169792 
L 75.768335 487.652597 
L 76.998082 475.96415 
L 77.305518 484.774499 
L 77.612955 490.002533 
L 77.920392 489.925988 
L 78.227828 486.466147 
L 78.535265 485.585877 
L 78.842701 485.700695 
L 79.457575 490.293405 
L 79.765011 495.797002 
L 80.379885 493.607811 
L 80.994758 491.043548 
L 81.302195 496.355782 
L 81.917068 498.391883 
L 82.224504 498.345956 
L 82.839378 493.760901 
L 83.146814 494.33499 
L 83.454251 494.0135 
L 83.761688 498.483737 
L 84.069124 500.856638 
L 84.376561 496.447636 
L 84.683997 497.480996 
L 84.991434 496.447636 
L 85.298871 496.600726 
L 85.606307 498.8435 
L 85.913744 499.126717 
L 86.221181 500.971455 
L 86.528617 499.662533 
L 86.836054 497.48865 
L 87.143491 497.886685 
L 87.450927 500.068222 
L 87.758364 498.705718 
L 88.373237 501.377145 
L 88.680674 500.282549 
L 88.98811 500.818365 
L 89.295547 500.887256 
L 89.602984 497.917303 
L 89.91042 497.940267 
L 90.217857 501.400108 
L 90.525294 501.040346 
L 90.83273 501.958888 
L 91.140167 500.971455 
L 91.447603 500.57342 
L 91.75504 499.70846 
L 92.67735 501.951233 
L 92.984787 500.910219 
L 93.292223 501.155164 
L 93.59966 499.341043 
L 93.907096 501.614435 
L 94.214533 500.925528 
L 94.52197 501.698634 
L 94.829406 502.119633 
L 95.136843 500.695893 
L 95.44428 500.948492 
L 96.059153 497.695322 
L 96.36659 498.988936 
L 96.674026 498.330647 
L 96.981463 499.478825 
L 97.288899 499.739078 
L 97.596336 499.096099 
L 97.903773 498.766955 
L 98.211209 499.938096 
L 98.518646 498.330647 
L 98.826083 501.629744 
L 99.133519 501.583817 
L 99.440956 499.777351 
L 99.748393 500.022295 
L 100.055829 499.739078 
L 100.363266 500.175386 
L 100.670702 500.359094 
L 100.978139 501.75987 
L 101.285576 501.912961 
L 101.593012 500.604038 
L 101.900449 500.550457 
L 102.207886 500.206004 
L 102.515322 500.565766 
L 102.822759 500.695893 
L 103.437632 502.372232 
L 103.745069 500.435639 
L 104.052505 500.902565 
L 104.359942 499.501788 
L 104.667379 499.126717 
L 104.974815 499.540061 
L 105.282252 502.043088 
L 105.589689 501.683325 
L 105.897125 499.593642 
L 106.204562 500.114149 
L 106.511998 499.23388 
L 106.819435 497.350869 
L 107.126872 497.611123 
L 107.434308 501.254672 
L 107.741745 500.986764 
L 108.049182 498.743991 
L 108.356618 498.353611 
L 108.664055 496.684926 
L 108.971492 496.929871 
L 109.278928 496.279237 
L 109.586365 501.752216 
L 109.893801 499.693151 
L 110.201238 496.86098 
L 110.508675 497.917303 
L 110.816111 495.59033 
L 111.123548 494.80957 
L 111.430985 495.000932 
L 111.738421 499.341043 
L 112.045858 500.251931 
L 112.353294 496.195037 
L 112.968168 492.528524 
L 113.275604 492.497906 
L 113.583041 492.758159 
L 113.890478 498.805227 
L 114.197914 499.295116 
L 114.505351 492.949522 
L 114.812788 492.03098 
L 115.120224 490.52304 
L 115.427661 492.666305 
L 115.735097 488.020014 
L 116.042534 497.603468 
L 116.349971 498.146939 
L 116.657407 493.806828 
L 116.964844 491.525782 
L 117.272281 492.053944 
L 117.579717 491.564055 
L 117.887154 492.26827 
L 118.194591 497.580505 
L 118.502027 498.920045 
L 118.809464 494.266099 
L 119.424337 493.554229 
L 119.731774 492.467288 
L 120.03921 493.041376 
L 120.346647 496.026638 
L 120.654084 497.358524 
L 120.96152 492.11518 
L 121.268957 494.587589 
L 121.576393 489.106955 
L 121.88383 492.229998 
L 122.191267 491.112438 
L 122.498703 496.332818 
L 122.80614 496.493563 
L 123.72845 486.795291 
L 124.035887 488.923247 
L 124.343323 486.006876 
L 124.65076 493.293975 
L 124.958196 496.531836 
L 125.265633 489.650426 
L 125.57307 490.04846 
L 125.880506 487.185671 
L 126.187943 487.109126 
L 126.49538 484.399427 
L 126.802816 492.796432 
L 127.110253 494.465116 
L 127.41769 487.599015 
L 127.725126 489.826479 
L 128.032563 484.430045 
L 128.339999 483.128778 
L 128.647436 483.970774 
L 128.954873 486.144657 
L 129.262309 493.010758 
L 129.569746 483.389031 
L 129.877183 481.942328 
L 130.184619 472.527272 
L 130.492056 469.021504 
L 130.799492 467.452328 
L 131.414366 484.705608 
L 131.721802 472.037383 
L 132.029239 464.306322 
L 132.336676 452.77862 
L 132.951549 443.654437 
L 133.258986 460.823517 
L 133.566422 470.483517 
L 133.873859 451.018081 
L 134.181295 445.453248 
L 134.488732 417.192774 
L 134.796169 417.537227 
L 135.103605 390.960746 
L 135.718479 437.109825 
L 136.948225 360.59528 
L 137.255662 357.701873 
L 137.563098 395.071221 
L 137.870535 410.992615 
L 138.177972 386.077165 
L 138.485408 371.824455 
L 138.792845 350.575518 
L 139.407718 324.481272 
L 139.715155 380.986911 
L 140.022591 401.301998 
L 140.330028 386.230255 
L 140.944901 336.215645 
L 141.252338 323.386676 
L 141.559775 331.661208 
L 142.174648 420.736815 
L 143.096958 330.528339 
L 143.404394 322.575297 
L 143.711831 327.810986 
L 143.711831 327.810986 
" style="fill:none;stroke:#e24a33;stroke-linecap:square;stroke-width:1.5;"/>
   </g>
   <g id="line2d_67">
    <path clip-path="url(#pde58f09af4)" d="M 144.019268 323.221697 
L 144.634141 326.916897 
L 145.556451 334.607715 
L 146.478761 344.468216 
L 147.708507 360.050202 
L 152.93493 430.351122 
L 154.472113 446.57 
L 155.70186 457.444157 
L 156.931606 466.543717 
L 158.161353 474.040948 
L 159.391099 480.142682 
L 160.620846 485.060888 
L 161.850592 488.995102 
L 163.080339 492.123469 
L 164.310085 494.599448 
L 165.539832 496.551929 
L 166.769579 498.087199 
L 167.999325 499.291716 
L 169.536508 500.436917 
L 171.073691 501.278968 
L 172.918311 501.999449 
L 175.070368 502.562129 
L 177.529861 502.966235 
L 180.911664 503.276183 
L 185.83065 503.474289 
L 194.746312 503.570591 
L 229.794088 503.589285 
L 704.47625 503.5893 
L 704.47625 503.5893 
" style="fill:none;stroke:#348abd;stroke-linecap:square;stroke-width:1.5;"/>
   </g>
   <g id="patch_8">
    <path d="M 61.62625 512.64 
L 61.62625 313.524597 
" style="fill:none;stroke:#ffffff;stroke-linecap:square;stroke-linejoin:miter;"/>
   </g>
   <g id="patch_9">
    <path d="M 704.47625 512.64 
L 704.47625 313.524597 
" style="fill:none;stroke:#ffffff;stroke-linecap:square;stroke-linejoin:miter;"/>
   </g>
   <g id="patch_10">
    <path d="M 61.62625 512.64 
L 704.47625 512.64 
" style="fill:none;stroke:#ffffff;stroke-linecap:square;stroke-linejoin:miter;"/>
   </g>
   <g id="patch_11">
    <path d="M 61.62625 313.524597 
L 704.47625 313.524597 
" style="fill:none;stroke:#ffffff;stroke-linecap:square;stroke-linejoin:miter;"/>
   </g>
   <g id="legend_1">
    <g id="patch_12">
     <path d="M 463.66375 350.880847 
L 697.47625 350.880847 
Q 699.47625 350.880847 699.47625 348.880847 
L 699.47625 320.524597 
Q 699.47625 318.524597 697.47625 318.524597 
L 463.66375 318.524597 
Q 461.66375 318.524597 461.66375 320.524597 
L 461.66375 348.880847 
Q 461.66375 350.880847 463.66375 350.880847 
z
" style="fill:#e5e5e5;opacity:0.8;stroke:#cccccc;stroke-linejoin:miter;stroke-width:0.5;"/>
    </g>
    <g id="line2d_68">
     <path d="M 465.66375 326.623034 
L 485.66375 326.623034 
" style="fill:none;stroke:#e24a33;stroke-linecap:square;stroke-width:1.5;"/>
    </g>
    <g id="line2d_69"/>
    <g id="text_23">
     <!-- Cases x3 -->
     <g transform="translate(493.66375 330.123034)scale(0.1 -0.1)">
      <defs>
       <path d="M 64.40625 67.28125 
L 64.40625 56.890625 
Q 59.421875 61.53125 53.78125 63.8125 
Q 48.140625 66.109375 41.796875 66.109375 
Q 29.296875 66.109375 22.65625 58.46875 
Q 16.015625 50.828125 16.015625 36.375 
Q 16.015625 21.96875 22.65625 14.328125 
Q 29.296875 6.6875 41.796875 6.6875 
Q 48.140625 6.6875 53.78125 8.984375 
Q 59.421875 11.28125 64.40625 15.921875 
L 64.40625 5.609375 
Q 59.234375 2.09375 53.4375 0.328125 
Q 47.65625 -1.421875 41.21875 -1.421875 
Q 24.65625 -1.421875 15.125 8.703125 
Q 5.609375 18.84375 5.609375 36.375 
Q 5.609375 53.953125 15.125 64.078125 
Q 24.65625 74.21875 41.21875 74.21875 
Q 47.75 74.21875 53.53125 72.484375 
Q 59.328125 70.75 64.40625 67.28125 
z
" id="DejaVuSans-67"/>
       <path d="M 44.28125 53.078125 
L 44.28125 44.578125 
Q 40.484375 46.53125 36.375 47.5 
Q 32.28125 48.484375 27.875 48.484375 
Q 21.1875 48.484375 17.84375 46.4375 
Q 14.5 44.390625 14.5 40.28125 
Q 14.5 37.15625 16.890625 35.375 
Q 19.28125 33.59375 26.515625 31.984375 
L 29.59375 31.296875 
Q 39.15625 29.25 43.1875 25.515625 
Q 47.21875 21.78125 47.21875 15.09375 
Q 47.21875 7.46875 41.1875 3.015625 
Q 35.15625 -1.421875 24.609375 -1.421875 
Q 20.21875 -1.421875 15.453125 -0.5625 
Q 10.6875 0.296875 5.421875 2 
L 5.421875 11.28125 
Q 10.40625 8.6875 15.234375 7.390625 
Q 20.0625 6.109375 24.8125 6.109375 
Q 31.15625 6.109375 34.5625 8.28125 
Q 37.984375 10.453125 37.984375 14.40625 
Q 37.984375 18.0625 35.515625 20.015625 
Q 33.0625 21.96875 24.703125 23.78125 
L 21.578125 24.515625 
Q 13.234375 26.265625 9.515625 29.90625 
Q 5.8125 33.546875 5.8125 39.890625 
Q 5.8125 47.609375 11.28125 51.796875 
Q 16.75 56 26.8125 56 
Q 31.78125 56 36.171875 55.265625 
Q 40.578125 54.546875 44.28125 53.078125 
z
" id="DejaVuSans-115"/>
       <path id="DejaVuSans-32"/>
       <path d="M 54.890625 54.6875 
L 35.109375 28.078125 
L 55.90625 0 
L 45.3125 0 
L 29.390625 21.484375 
L 13.484375 0 
L 2.875 0 
L 24.125 28.609375 
L 4.6875 54.6875 
L 15.28125 54.6875 
L 29.78125 35.203125 
L 44.28125 54.6875 
z
" id="DejaVuSans-120"/>
      </defs>
      <use xlink:href="#DejaVuSans-67"/>
      <use x="69.824219" xlink:href="#DejaVuSans-97"/>
      <use x="131.103516" xlink:href="#DejaVuSans-115"/>
      <use x="183.203125" xlink:href="#DejaVuSans-101"/>
      <use x="244.726562" xlink:href="#DejaVuSans-115"/>
      <use x="296.826172" xlink:href="#DejaVuSans-32"/>
      <use x="328.613281" xlink:href="#DejaVuSans-120"/>
      <use x="387.792969" xlink:href="#DejaVuSans-51"/>
     </g>
    </g>
    <g id="line2d_70">
     <path d="M 465.66375 341.301159 
L 485.66375 341.301159 
" style="fill:none;stroke:#348abd;stroke-linecap:square;stroke-width:1.5;"/>
    </g>
    <g id="line2d_71"/>
    <g id="text_24">
     <!-- Projected Cases x3 (last 1D avg rate) x3 -->
     <g transform="translate(493.66375 344.801159)scale(0.1 -0.1)">
      <defs>
       <path d="M 19.671875 64.796875 
L 19.671875 37.40625 
L 32.078125 37.40625 
Q 38.96875 37.40625 42.71875 40.96875 
Q 46.484375 44.53125 46.484375 51.125 
Q 46.484375 57.671875 42.71875 61.234375 
Q 38.96875 64.796875 32.078125 64.796875 
z
M 9.8125 72.90625 
L 32.078125 72.90625 
Q 44.34375 72.90625 50.609375 67.359375 
Q 56.890625 61.8125 56.890625 51.125 
Q 56.890625 40.328125 50.609375 34.8125 
Q 44.34375 29.296875 32.078125 29.296875 
L 19.671875 29.296875 
L 19.671875 0 
L 9.8125 0 
z
" id="DejaVuSans-80"/>
       <path d="M 41.109375 46.296875 
Q 39.59375 47.171875 37.8125 47.578125 
Q 36.03125 48 33.890625 48 
Q 26.265625 48 22.1875 43.046875 
Q 18.109375 38.09375 18.109375 28.8125 
L 18.109375 0 
L 9.078125 0 
L 9.078125 54.6875 
L 18.109375 54.6875 
L 18.109375 46.1875 
Q 20.953125 51.171875 25.484375 53.578125 
Q 30.03125 56 36.53125 56 
Q 37.453125 56 38.578125 55.875 
Q 39.703125 55.765625 41.0625 55.515625 
z
" id="DejaVuSans-114"/>
       <path d="M 9.421875 54.6875 
L 18.40625 54.6875 
L 18.40625 -0.984375 
Q 18.40625 -11.421875 14.421875 -16.109375 
Q 10.453125 -20.796875 1.609375 -20.796875 
L -1.8125 -20.796875 
L -1.8125 -13.1875 
L 0.59375 -13.1875 
Q 5.71875 -13.1875 7.5625 -10.8125 
Q 9.421875 -8.453125 9.421875 -0.984375 
z
M 9.421875 75.984375 
L 18.40625 75.984375 
L 18.40625 64.59375 
L 9.421875 64.59375 
z
" id="DejaVuSans-106"/>
       <path d="M 48.78125 52.59375 
L 48.78125 44.1875 
Q 44.96875 46.296875 41.140625 47.34375 
Q 37.3125 48.390625 33.40625 48.390625 
Q 24.65625 48.390625 19.8125 42.84375 
Q 14.984375 37.3125 14.984375 27.296875 
Q 14.984375 17.28125 19.8125 11.734375 
Q 24.65625 6.203125 33.40625 6.203125 
Q 37.3125 6.203125 41.140625 7.25 
Q 44.96875 8.296875 48.78125 10.40625 
L 48.78125 2.09375 
Q 45.015625 0.34375 40.984375 -0.53125 
Q 36.96875 -1.421875 32.421875 -1.421875 
Q 20.0625 -1.421875 12.78125 6.34375 
Q 5.515625 14.109375 5.515625 27.296875 
Q 5.515625 40.671875 12.859375 48.328125 
Q 20.21875 56 33.015625 56 
Q 37.15625 56 41.109375 55.140625 
Q 45.0625 54.296875 48.78125 52.59375 
z
" id="DejaVuSans-99"/>
       <path d="M 45.40625 46.390625 
L 45.40625 75.984375 
L 54.390625 75.984375 
L 54.390625 0 
L 45.40625 0 
L 45.40625 8.203125 
Q 42.578125 3.328125 38.25 0.953125 
Q 33.9375 -1.421875 27.875 -1.421875 
Q 17.96875 -1.421875 11.734375 6.484375 
Q 5.515625 14.40625 5.515625 27.296875 
Q 5.515625 40.1875 11.734375 48.09375 
Q 17.96875 56 27.875 56 
Q 33.9375 56 38.25 53.625 
Q 42.578125 51.265625 45.40625 46.390625 
z
M 14.796875 27.296875 
Q 14.796875 17.390625 18.875 11.75 
Q 22.953125 6.109375 30.078125 6.109375 
Q 37.203125 6.109375 41.296875 11.75 
Q 45.40625 17.390625 45.40625 27.296875 
Q 45.40625 37.203125 41.296875 42.84375 
Q 37.203125 48.484375 30.078125 48.484375 
Q 22.953125 48.484375 18.875 42.84375 
Q 14.796875 37.203125 14.796875 27.296875 
z
" id="DejaVuSans-100"/>
       <path d="M 31 75.875 
Q 24.46875 64.65625 21.28125 53.65625 
Q 18.109375 42.671875 18.109375 31.390625 
Q 18.109375 20.125 21.3125 9.0625 
Q 24.515625 -2 31 -13.1875 
L 23.1875 -13.1875 
Q 15.875 -1.703125 12.234375 9.375 
Q 8.59375 20.453125 8.59375 31.390625 
Q 8.59375 42.28125 12.203125 53.3125 
Q 15.828125 64.359375 23.1875 75.875 
z
" id="DejaVuSans-40"/>
       <path d="M 2.984375 54.6875 
L 12.5 54.6875 
L 29.59375 8.796875 
L 46.6875 54.6875 
L 56.203125 54.6875 
L 35.6875 0 
L 23.484375 0 
z
" id="DejaVuSans-118"/>
       <path d="M 45.40625 27.984375 
Q 45.40625 37.75 41.375 43.109375 
Q 37.359375 48.484375 30.078125 48.484375 
Q 22.859375 48.484375 18.828125 43.109375 
Q 14.796875 37.75 14.796875 27.984375 
Q 14.796875 18.265625 18.828125 12.890625 
Q 22.859375 7.515625 30.078125 7.515625 
Q 37.359375 7.515625 41.375 12.890625 
Q 45.40625 18.265625 45.40625 27.984375 
z
M 54.390625 6.78125 
Q 54.390625 -7.171875 48.1875 -13.984375 
Q 42 -20.796875 29.203125 -20.796875 
Q 24.46875 -20.796875 20.265625 -20.09375 
Q 16.0625 -19.390625 12.109375 -17.921875 
L 12.109375 -9.1875 
Q 16.0625 -11.328125 19.921875 -12.34375 
Q 23.78125 -13.375 27.78125 -13.375 
Q 36.625 -13.375 41.015625 -8.765625 
Q 45.40625 -4.15625 45.40625 5.171875 
L 45.40625 9.625 
Q 42.625 4.78125 38.28125 2.390625 
Q 33.9375 0 27.875 0 
Q 17.828125 0 11.671875 7.65625 
Q 5.515625 15.328125 5.515625 27.984375 
Q 5.515625 40.671875 11.671875 48.328125 
Q 17.828125 56 27.875 56 
Q 33.9375 56 38.28125 53.609375 
Q 42.625 51.21875 45.40625 46.390625 
L 45.40625 54.6875 
L 54.390625 54.6875 
z
" id="DejaVuSans-103"/>
       <path d="M 8.015625 75.875 
L 15.828125 75.875 
Q 23.140625 64.359375 26.78125 53.3125 
Q 30.421875 42.28125 30.421875 31.390625 
Q 30.421875 20.453125 26.78125 9.375 
Q 23.140625 -1.703125 15.828125 -13.1875 
L 8.015625 -13.1875 
Q 14.5 -2 17.703125 9.0625 
Q 20.90625 20.125 20.90625 31.390625 
Q 20.90625 42.671875 17.703125 53.65625 
Q 14.5 64.65625 8.015625 75.875 
z
" id="DejaVuSans-41"/>
      </defs>
      <use xlink:href="#DejaVuSans-80"/>
      <use x="58.552734" xlink:href="#DejaVuSans-114"/>
      <use x="97.416016" xlink:href="#DejaVuSans-111"/>
      <use x="158.597656" xlink:href="#DejaVuSans-106"/>
      <use x="186.380859" xlink:href="#DejaVuSans-101"/>
      <use x="247.904297" xlink:href="#DejaVuSans-99"/>
      <use x="302.884766" xlink:href="#DejaVuSans-116"/>
      <use x="342.09375" xlink:href="#DejaVuSans-101"/>
      <use x="403.617188" xlink:href="#DejaVuSans-100"/>
      <use x="467.09375" xlink:href="#DejaVuSans-32"/>
      <use x="498.880859" xlink:href="#DejaVuSans-67"/>
      <use x="568.705078" xlink:href="#DejaVuSans-97"/>
      <use x="629.984375" xlink:href="#DejaVuSans-115"/>
      <use x="682.083984" xlink:href="#DejaVuSans-101"/>
      <use x="743.607422" xlink:href="#DejaVuSans-115"/>
      <use x="795.707031" xlink:href="#DejaVuSans-32"/>
      <use x="827.494141" xlink:href="#DejaVuSans-120"/>
      <use x="886.673828" xlink:href="#DejaVuSans-51"/>
      <use x="950.296875" xlink:href="#DejaVuSans-32"/>
      <use x="982.083984" xlink:href="#DejaVuSans-40"/>
      <use x="1021.097656" xlink:href="#DejaVuSans-108"/>
      <use x="1048.880859" xlink:href="#DejaVuSans-97"/>
      <use x="1110.160156" xlink:href="#DejaVuSans-115"/>
      <use x="1162.259766" xlink:href="#DejaVuSans-116"/>
      <use x="1201.46875" xlink:href="#DejaVuSans-32"/>
      <use x="1233.255859" xlink:href="#DejaVuSans-49"/>
      <use x="1296.878906" xlink:href="#DejaVuSans-68"/>
      <use x="1373.880859" xlink:href="#DejaVuSans-32"/>
      <use x="1405.667969" xlink:href="#DejaVuSans-97"/>
      <use x="1466.947266" xlink:href="#DejaVuSans-118"/>
      <use x="1526.126953" xlink:href="#DejaVuSans-103"/>
      <use x="1589.603516" xlink:href="#DejaVuSans-32"/>
      <use x="1621.390625" xlink:href="#DejaVuSans-114"/>
      <use x="1662.503906" xlink:href="#DejaVuSans-97"/>
      <use x="1723.783203" xlink:href="#DejaVuSans-116"/>
      <use x="1762.992188" xlink:href="#DejaVuSans-101"/>
      <use x="1824.515625" xlink:href="#DejaVuSans-41"/>
      <use x="1863.529297" xlink:href="#DejaVuSans-32"/>
      <use x="1895.316406" xlink:href="#DejaVuSans-120"/>
      <use x="1954.496094" xlink:href="#DejaVuSans-51"/>
     </g>
    </g>
   </g>
  </g>
  <g id="text_25">
   <!-- COVID-19 spread projection using Logistic map -->
   <g transform="translate(213.8675 16.318125)scale(0.12 -0.12)">
    <defs>
     <path d="M 39.40625 66.21875 
Q 28.65625 66.21875 22.328125 58.203125 
Q 16.015625 50.203125 16.015625 36.375 
Q 16.015625 22.609375 22.328125 14.59375 
Q 28.65625 6.59375 39.40625 6.59375 
Q 50.140625 6.59375 56.421875 14.59375 
Q 62.703125 22.609375 62.703125 36.375 
Q 62.703125 50.203125 56.421875 58.203125 
Q 50.140625 66.21875 39.40625 66.21875 
z
M 39.40625 74.21875 
Q 54.734375 74.21875 63.90625 63.9375 
Q 73.09375 53.65625 73.09375 36.375 
Q 73.09375 19.140625 63.90625 8.859375 
Q 54.734375 -1.421875 39.40625 -1.421875 
Q 24.03125 -1.421875 14.8125 8.828125 
Q 5.609375 19.09375 5.609375 36.375 
Q 5.609375 53.65625 14.8125 63.9375 
Q 24.03125 74.21875 39.40625 74.21875 
z
" id="DejaVuSans-79"/>
     <path d="M 28.609375 0 
L 0.78125 72.90625 
L 11.078125 72.90625 
L 34.1875 11.53125 
L 57.328125 72.90625 
L 67.578125 72.90625 
L 39.796875 0 
z
" id="DejaVuSans-86"/>
     <path d="M 9.8125 72.90625 
L 19.671875 72.90625 
L 19.671875 0 
L 9.8125 0 
z
" id="DejaVuSans-73"/>
     <path d="M 4.890625 31.390625 
L 31.203125 31.390625 
L 31.203125 23.390625 
L 4.890625 23.390625 
z
" id="DejaVuSans-45"/>
     <path d="M 10.984375 1.515625 
L 10.984375 10.5 
Q 14.703125 8.734375 18.5 7.8125 
Q 22.3125 6.890625 25.984375 6.890625 
Q 35.75 6.890625 40.890625 13.453125 
Q 46.046875 20.015625 46.78125 33.40625 
Q 43.953125 29.203125 39.59375 26.953125 
Q 35.25 24.703125 29.984375 24.703125 
Q 19.046875 24.703125 12.671875 31.3125 
Q 6.296875 37.9375 6.296875 49.421875 
Q 6.296875 60.640625 12.9375 67.421875 
Q 19.578125 74.21875 30.609375 74.21875 
Q 43.265625 74.21875 49.921875 64.515625 
Q 56.59375 54.828125 56.59375 36.375 
Q 56.59375 19.140625 48.40625 8.859375 
Q 40.234375 -1.421875 26.421875 -1.421875 
Q 22.703125 -1.421875 18.890625 -0.6875 
Q 15.09375 0.046875 10.984375 1.515625 
z
M 30.609375 32.421875 
Q 37.25 32.421875 41.125 36.953125 
Q 45.015625 41.5 45.015625 49.421875 
Q 45.015625 57.28125 41.125 61.84375 
Q 37.25 66.40625 30.609375 66.40625 
Q 23.96875 66.40625 20.09375 61.84375 
Q 16.21875 57.28125 16.21875 49.421875 
Q 16.21875 41.5 20.09375 36.953125 
Q 23.96875 32.421875 30.609375 32.421875 
z
" id="DejaVuSans-57"/>
     <path d="M 18.109375 8.203125 
L 18.109375 -20.796875 
L 9.078125 -20.796875 
L 9.078125 54.6875 
L 18.109375 54.6875 
L 18.109375 46.390625 
Q 20.953125 51.265625 25.265625 53.625 
Q 29.59375 56 35.59375 56 
Q 45.5625 56 51.78125 48.09375 
Q 58.015625 40.1875 58.015625 27.296875 
Q 58.015625 14.40625 51.78125 6.484375 
Q 45.5625 -1.421875 35.59375 -1.421875 
Q 29.59375 -1.421875 25.265625 0.953125 
Q 20.953125 3.328125 18.109375 8.203125 
z
M 48.6875 27.296875 
Q 48.6875 37.203125 44.609375 42.84375 
Q 40.53125 48.484375 33.40625 48.484375 
Q 26.265625 48.484375 22.1875 42.84375 
Q 18.109375 37.203125 18.109375 27.296875 
Q 18.109375 17.390625 22.1875 11.75 
Q 26.265625 6.109375 33.40625 6.109375 
Q 40.53125 6.109375 44.609375 11.75 
Q 48.6875 17.390625 48.6875 27.296875 
z
" id="DejaVuSans-112"/>
     <path d="M 54.890625 33.015625 
L 54.890625 0 
L 45.90625 0 
L 45.90625 32.71875 
Q 45.90625 40.484375 42.875 44.328125 
Q 39.84375 48.1875 33.796875 48.1875 
Q 26.515625 48.1875 22.3125 43.546875 
Q 18.109375 38.921875 18.109375 30.90625 
L 18.109375 0 
L 9.078125 0 
L 9.078125 54.6875 
L 18.109375 54.6875 
L 18.109375 46.1875 
Q 21.34375 51.125 25.703125 53.5625 
Q 30.078125 56 35.796875 56 
Q 45.21875 56 50.046875 50.171875 
Q 54.890625 44.34375 54.890625 33.015625 
z
" id="DejaVuSans-110"/>
     <path d="M 8.5 21.578125 
L 8.5 54.6875 
L 17.484375 54.6875 
L 17.484375 21.921875 
Q 17.484375 14.15625 20.5 10.265625 
Q 23.53125 6.390625 29.59375 6.390625 
Q 36.859375 6.390625 41.078125 11.03125 
Q 45.3125 15.671875 45.3125 23.6875 
L 45.3125 54.6875 
L 54.296875 54.6875 
L 54.296875 0 
L 45.3125 0 
L 45.3125 8.40625 
Q 42.046875 3.421875 37.71875 1 
Q 33.40625 -1.421875 27.6875 -1.421875 
Q 18.265625 -1.421875 13.375 4.4375 
Q 8.5 10.296875 8.5 21.578125 
z
M 31.109375 56 
z
" id="DejaVuSans-117"/>
     <path d="M 9.8125 72.90625 
L 19.671875 72.90625 
L 19.671875 8.296875 
L 55.171875 8.296875 
L 55.171875 0 
L 9.8125 0 
z
" id="DejaVuSans-76"/>
     <path d="M 52 44.1875 
Q 55.375 50.25 60.0625 53.125 
Q 64.75 56 71.09375 56 
Q 79.640625 56 84.28125 50.015625 
Q 88.921875 44.046875 88.921875 33.015625 
L 88.921875 0 
L 79.890625 0 
L 79.890625 32.71875 
Q 79.890625 40.578125 77.09375 44.375 
Q 74.3125 48.1875 68.609375 48.1875 
Q 61.625 48.1875 57.5625 43.546875 
Q 53.515625 38.921875 53.515625 30.90625 
L 53.515625 0 
L 44.484375 0 
L 44.484375 32.71875 
Q 44.484375 40.625 41.703125 44.40625 
Q 38.921875 48.1875 33.109375 48.1875 
Q 26.21875 48.1875 22.15625 43.53125 
Q 18.109375 38.875 18.109375 30.90625 
L 18.109375 0 
L 9.078125 0 
L 9.078125 54.6875 
L 18.109375 54.6875 
L 18.109375 46.1875 
Q 21.1875 51.21875 25.484375 53.609375 
Q 29.78125 56 35.6875 56 
Q 41.65625 56 45.828125 52.96875 
Q 50 49.953125 52 44.1875 
z
" id="DejaVuSans-109"/>
    </defs>
    <use xlink:href="#DejaVuSans-67"/>
    <use x="69.824219" xlink:href="#DejaVuSans-79"/>
    <use x="146.785156" xlink:href="#DejaVuSans-86"/>
    <use x="215.193359" xlink:href="#DejaVuSans-73"/>
    <use x="244.685547" xlink:href="#DejaVuSans-68"/>
    <use x="321.6875" xlink:href="#DejaVuSans-45"/>
    <use x="357.771484" xlink:href="#DejaVuSans-49"/>
    <use x="421.394531" xlink:href="#DejaVuSans-57"/>
    <use x="485.017578" xlink:href="#DejaVuSans-32"/>
    <use x="516.804688" xlink:href="#DejaVuSans-115"/>
    <use x="568.904297" xlink:href="#DejaVuSans-112"/>
    <use x="632.380859" xlink:href="#DejaVuSans-114"/>
    <use x="671.244141" xlink:href="#DejaVuSans-101"/>
    <use x="732.767578" xlink:href="#DejaVuSans-97"/>
    <use x="794.046875" xlink:href="#DejaVuSans-100"/>
    <use x="857.523438" xlink:href="#DejaVuSans-32"/>
    <use x="889.310547" xlink:href="#DejaVuSans-112"/>
    <use x="952.787109" xlink:href="#DejaVuSans-114"/>
    <use x="991.650391" xlink:href="#DejaVuSans-111"/>
    <use x="1052.832031" xlink:href="#DejaVuSans-106"/>
    <use x="1080.615234" xlink:href="#DejaVuSans-101"/>
    <use x="1142.138672" xlink:href="#DejaVuSans-99"/>
    <use x="1197.119141" xlink:href="#DejaVuSans-116"/>
    <use x="1236.328125" xlink:href="#DejaVuSans-105"/>
    <use x="1264.111328" xlink:href="#DejaVuSans-111"/>
    <use x="1325.292969" xlink:href="#DejaVuSans-110"/>
    <use x="1388.671875" xlink:href="#DejaVuSans-32"/>
    <use x="1420.458984" xlink:href="#DejaVuSans-117"/>
    <use x="1483.837891" xlink:href="#DejaVuSans-115"/>
    <use x="1535.9375" xlink:href="#DejaVuSans-105"/>
    <use x="1563.720703" xlink:href="#DejaVuSans-110"/>
    <use x="1627.099609" xlink:href="#DejaVuSans-103"/>
    <use x="1690.576172" xlink:href="#DejaVuSans-32"/>
    <use x="1722.363281" xlink:href="#DejaVuSans-76"/>
    <use x="1776.326172" xlink:href="#DejaVuSans-111"/>
    <use x="1837.507812" xlink:href="#DejaVuSans-103"/>
    <use x="1900.984375" xlink:href="#DejaVuSans-105"/>
    <use x="1928.767578" xlink:href="#DejaVuSans-115"/>
    <use x="1980.867188" xlink:href="#DejaVuSans-116"/>
    <use x="2020.076172" xlink:href="#DejaVuSans-105"/>
    <use x="2047.859375" xlink:href="#DejaVuSans-99"/>
    <use x="2102.839844" xlink:href="#DejaVuSans-32"/>
    <use x="2134.626953" xlink:href="#DejaVuSans-109"/>
    <use x="2232.039062" xlink:href="#DejaVuSans-97"/>
    <use x="2293.318359" xlink:href="#DejaVuSans-112"/>
   </g>
   <!-- assuming a carrying capacity of K=83M people and dt=4D tick time. -->
   <g transform="translate(148.644688 29.7555)scale(0.12 -0.12)">
    <defs>
     <path d="M 37.109375 75.984375 
L 37.109375 68.5 
L 28.515625 68.5 
Q 23.6875 68.5 21.796875 66.546875 
Q 19.921875 64.59375 19.921875 59.515625 
L 19.921875 54.6875 
L 34.71875 54.6875 
L 34.71875 47.703125 
L 19.921875 47.703125 
L 19.921875 0 
L 10.890625 0 
L 10.890625 47.703125 
L 2.296875 47.703125 
L 2.296875 54.6875 
L 10.890625 54.6875 
L 10.890625 58.5 
Q 10.890625 67.625 15.140625 71.796875 
Q 19.390625 75.984375 28.609375 75.984375 
z
" id="DejaVuSans-102"/>
     <path d="M 9.8125 72.90625 
L 19.671875 72.90625 
L 19.671875 42.09375 
L 52.390625 72.90625 
L 65.09375 72.90625 
L 28.90625 38.921875 
L 67.671875 0 
L 54.6875 0 
L 19.671875 35.109375 
L 19.671875 0 
L 9.8125 0 
z
" id="DejaVuSans-75"/>
     <path d="M 10.59375 45.40625 
L 73.1875 45.40625 
L 73.1875 37.203125 
L 10.59375 37.203125 
z
M 10.59375 25.484375 
L 73.1875 25.484375 
L 73.1875 17.1875 
L 10.59375 17.1875 
z
" id="DejaVuSans-61"/>
     <path d="M 31.78125 34.625 
Q 24.75 34.625 20.71875 30.859375 
Q 16.703125 27.09375 16.703125 20.515625 
Q 16.703125 13.921875 20.71875 10.15625 
Q 24.75 6.390625 31.78125 6.390625 
Q 38.8125 6.390625 42.859375 10.171875 
Q 46.921875 13.96875 46.921875 20.515625 
Q 46.921875 27.09375 42.890625 30.859375 
Q 38.875 34.625 31.78125 34.625 
z
M 21.921875 38.8125 
Q 15.578125 40.375 12.03125 44.71875 
Q 8.5 49.078125 8.5 55.328125 
Q 8.5 64.0625 14.71875 69.140625 
Q 20.953125 74.21875 31.78125 74.21875 
Q 42.671875 74.21875 48.875 69.140625 
Q 55.078125 64.0625 55.078125 55.328125 
Q 55.078125 49.078125 51.53125 44.71875 
Q 48 40.375 41.703125 38.8125 
Q 48.828125 37.15625 52.796875 32.3125 
Q 56.78125 27.484375 56.78125 20.515625 
Q 56.78125 9.90625 50.3125 4.234375 
Q 43.84375 -1.421875 31.78125 -1.421875 
Q 19.734375 -1.421875 13.25 4.234375 
Q 6.78125 9.90625 6.78125 20.515625 
Q 6.78125 27.484375 10.78125 32.3125 
Q 14.796875 37.15625 21.921875 38.8125 
z
M 18.3125 54.390625 
Q 18.3125 48.734375 21.84375 45.5625 
Q 25.390625 42.390625 31.78125 42.390625 
Q 38.140625 42.390625 41.71875 45.5625 
Q 45.3125 48.734375 45.3125 54.390625 
Q 45.3125 60.0625 41.71875 63.234375 
Q 38.140625 66.40625 31.78125 66.40625 
Q 25.390625 66.40625 21.84375 63.234375 
Q 18.3125 60.0625 18.3125 54.390625 
z
" id="DejaVuSans-56"/>
     <path d="M 9.8125 72.90625 
L 24.515625 72.90625 
L 43.109375 23.296875 
L 61.8125 72.90625 
L 76.515625 72.90625 
L 76.515625 0 
L 66.890625 0 
L 66.890625 64.015625 
L 48.09375 14.015625 
L 38.1875 14.015625 
L 19.390625 64.015625 
L 19.390625 0 
L 9.8125 0 
z
" id="DejaVuSans-77"/>
     <path d="M 9.078125 75.984375 
L 18.109375 75.984375 
L 18.109375 31.109375 
L 44.921875 54.6875 
L 56.390625 54.6875 
L 27.390625 29.109375 
L 57.625 0 
L 45.90625 0 
L 18.109375 26.703125 
L 18.109375 0 
L 9.078125 0 
z
" id="DejaVuSans-107"/>
     <path d="M 10.6875 12.40625 
L 21 12.40625 
L 21 0 
L 10.6875 0 
z
" id="DejaVuSans-46"/>
    </defs>
    <use xlink:href="#DejaVuSans-97"/>
    <use x="61.279297" xlink:href="#DejaVuSans-115"/>
    <use x="113.378906" xlink:href="#DejaVuSans-115"/>
    <use x="165.478516" xlink:href="#DejaVuSans-117"/>
    <use x="228.857422" xlink:href="#DejaVuSans-109"/>
    <use x="326.269531" xlink:href="#DejaVuSans-105"/>
    <use x="354.052734" xlink:href="#DejaVuSans-110"/>
    <use x="417.431641" xlink:href="#DejaVuSans-103"/>
    <use x="480.908203" xlink:href="#DejaVuSans-32"/>
    <use x="512.695312" xlink:href="#DejaVuSans-97"/>
    <use x="573.974609" xlink:href="#DejaVuSans-32"/>
    <use x="605.761719" xlink:href="#DejaVuSans-99"/>
    <use x="660.742188" xlink:href="#DejaVuSans-97"/>
    <use x="722.021484" xlink:href="#DejaVuSans-114"/>
    <use x="761.384766" xlink:href="#DejaVuSans-114"/>
    <use x="802.498047" xlink:href="#DejaVuSans-121"/>
    <use x="861.677734" xlink:href="#DejaVuSans-105"/>
    <use x="889.460938" xlink:href="#DejaVuSans-110"/>
    <use x="952.839844" xlink:href="#DejaVuSans-103"/>
    <use x="1016.316406" xlink:href="#DejaVuSans-32"/>
    <use x="1048.103516" xlink:href="#DejaVuSans-99"/>
    <use x="1103.083984" xlink:href="#DejaVuSans-97"/>
    <use x="1164.363281" xlink:href="#DejaVuSans-112"/>
    <use x="1227.839844" xlink:href="#DejaVuSans-97"/>
    <use x="1289.119141" xlink:href="#DejaVuSans-99"/>
    <use x="1344.099609" xlink:href="#DejaVuSans-105"/>
    <use x="1371.882812" xlink:href="#DejaVuSans-116"/>
    <use x="1411.091797" xlink:href="#DejaVuSans-121"/>
    <use x="1470.271484" xlink:href="#DejaVuSans-32"/>
    <use x="1502.058594" xlink:href="#DejaVuSans-111"/>
    <use x="1563.240234" xlink:href="#DejaVuSans-102"/>
    <use x="1598.445312" xlink:href="#DejaVuSans-32"/>
    <use x="1630.232422" xlink:href="#DejaVuSans-75"/>
    <use x="1695.808594" xlink:href="#DejaVuSans-61"/>
    <use x="1779.597656" xlink:href="#DejaVuSans-56"/>
    <use x="1843.220703" xlink:href="#DejaVuSans-51"/>
    <use x="1906.84375" xlink:href="#DejaVuSans-77"/>
    <use x="1993.123047" xlink:href="#DejaVuSans-32"/>
    <use x="2024.910156" xlink:href="#DejaVuSans-112"/>
    <use x="2088.386719" xlink:href="#DejaVuSans-101"/>
    <use x="2149.910156" xlink:href="#DejaVuSans-111"/>
    <use x="2211.091797" xlink:href="#DejaVuSans-112"/>
    <use x="2274.568359" xlink:href="#DejaVuSans-108"/>
    <use x="2302.351562" xlink:href="#DejaVuSans-101"/>
    <use x="2363.875" xlink:href="#DejaVuSans-32"/>
    <use x="2395.662109" xlink:href="#DejaVuSans-97"/>
    <use x="2456.941406" xlink:href="#DejaVuSans-110"/>
    <use x="2520.320312" xlink:href="#DejaVuSans-100"/>
    <use x="2583.796875" xlink:href="#DejaVuSans-32"/>
    <use x="2615.583984" xlink:href="#DejaVuSans-100"/>
    <use x="2679.060547" xlink:href="#DejaVuSans-116"/>
    <use x="2718.269531" xlink:href="#DejaVuSans-61"/>
    <use x="2802.058594" xlink:href="#DejaVuSans-52"/>
    <use x="2865.681641" xlink:href="#DejaVuSans-68"/>
    <use x="2942.683594" xlink:href="#DejaVuSans-32"/>
    <use x="2974.470703" xlink:href="#DejaVuSans-116"/>
    <use x="3013.679688" xlink:href="#DejaVuSans-105"/>
    <use x="3041.462891" xlink:href="#DejaVuSans-99"/>
    <use x="3096.443359" xlink:href="#DejaVuSans-107"/>
    <use x="3154.353516" xlink:href="#DejaVuSans-32"/>
    <use x="3186.140625" xlink:href="#DejaVuSans-116"/>
    <use x="3225.349609" xlink:href="#DejaVuSans-105"/>
    <use x="3253.132812" xlink:href="#DejaVuSans-109"/>
    <use x="3350.544922" xlink:href="#DejaVuSans-101"/>
    <use x="3412.068359" xlink:href="#DejaVuSans-46"/>
   </g>
   <!-- created: 2020-11-21 author: @pschwede, source: JHU CSSE via @entorb &amp; @pomber. -->
   <g transform="translate(98.49875 43.192875)scale(0.12 -0.12)">
    <defs>
     <path d="M 11.71875 12.40625 
L 22.015625 12.40625 
L 22.015625 0 
L 11.71875 0 
z
M 11.71875 51.703125 
L 22.015625 51.703125 
L 22.015625 39.3125 
L 11.71875 39.3125 
z
" id="DejaVuSans-58"/>
     <path d="M 54.890625 33.015625 
L 54.890625 0 
L 45.90625 0 
L 45.90625 32.71875 
Q 45.90625 40.484375 42.875 44.328125 
Q 39.84375 48.1875 33.796875 48.1875 
Q 26.515625 48.1875 22.3125 43.546875 
Q 18.109375 38.921875 18.109375 30.90625 
L 18.109375 0 
L 9.078125 0 
L 9.078125 75.984375 
L 18.109375 75.984375 
L 18.109375 46.1875 
Q 21.34375 51.125 25.703125 53.5625 
Q 30.078125 56 35.796875 56 
Q 45.21875 56 50.046875 50.171875 
Q 54.890625 44.34375 54.890625 33.015625 
z
" id="DejaVuSans-104"/>
     <path d="M 37.203125 26.21875 
Q 37.203125 19.234375 40.671875 15.25 
Q 44.140625 11.28125 50.203125 11.28125 
Q 56.203125 11.28125 59.640625 15.28125 
Q 63.09375 19.28125 63.09375 26.21875 
Q 63.09375 33.0625 59.578125 37.078125 
Q 56.0625 41.109375 50.09375 41.109375 
Q 44.1875 41.109375 40.6875 37.109375 
Q 37.203125 33.109375 37.203125 26.21875 
z
M 63.8125 11.625 
Q 60.890625 7.859375 57.109375 6.078125 
Q 53.328125 4.296875 48.296875 4.296875 
Q 39.890625 4.296875 34.640625 10.375 
Q 29.390625 16.453125 29.390625 26.21875 
Q 29.390625 35.984375 34.65625 42.078125 
Q 39.9375 48.1875 48.296875 48.1875 
Q 53.328125 48.1875 57.125 46.359375 
Q 60.9375 44.53125 63.8125 40.828125 
L 63.8125 47.21875 
L 70.796875 47.21875 
L 70.796875 11.28125 
Q 77.9375 12.359375 81.953125 17.796875 
Q 85.984375 23.25 85.984375 31.890625 
Q 85.984375 37.109375 84.4375 41.703125 
Q 82.90625 46.296875 79.78125 50.203125 
Q 74.703125 56.59375 67.40625 59.984375 
Q 60.109375 63.375 51.515625 63.375 
Q 45.515625 63.375 39.984375 61.78125 
Q 34.46875 60.203125 29.78125 57.078125 
Q 22.125 52.09375 17.796875 44.015625 
Q 13.484375 35.9375 13.484375 26.515625 
Q 13.484375 18.75 16.28125 11.953125 
Q 19.09375 5.171875 24.421875 0 
Q 29.546875 -5.078125 36.28125 -7.734375 
Q 43.015625 -10.40625 50.6875 -10.40625 
Q 56.984375 -10.40625 63.0625 -8.28125 
Q 69.140625 -6.15625 74.21875 -2.203125 
L 78.609375 -7.625 
Q 72.515625 -12.359375 65.3125 -14.875 
Q 58.109375 -17.390625 50.6875 -17.390625 
Q 41.65625 -17.390625 33.640625 -14.1875 
Q 25.640625 -10.984375 19.390625 -4.890625 
Q 13.140625 1.21875 9.859375 9.25 
Q 6.59375 17.28125 6.59375 26.515625 
Q 6.59375 35.40625 9.90625 43.453125 
Q 13.234375 51.515625 19.390625 57.625 
Q 25.6875 63.8125 33.9375 67.109375 
Q 42.1875 70.40625 51.421875 70.40625 
Q 61.765625 70.40625 70.625 66.15625 
Q 79.5 61.921875 85.5 54.109375 
Q 89.15625 49.3125 91.078125 43.703125 
Q 93.015625 38.09375 93.015625 32.078125 
Q 93.015625 19.234375 85.25 11.8125 
Q 77.484375 4.390625 63.8125 4.109375 
z
" id="DejaVuSans-64"/>
     <path d="M 4.203125 54.6875 
L 13.1875 54.6875 
L 24.421875 12.015625 
L 35.59375 54.6875 
L 46.1875 54.6875 
L 57.421875 12.015625 
L 68.609375 54.6875 
L 77.59375 54.6875 
L 63.28125 0 
L 52.6875 0 
L 40.921875 44.828125 
L 29.109375 0 
L 18.5 0 
z
" id="DejaVuSans-119"/>
     <path d="M 11.71875 12.40625 
L 22.015625 12.40625 
L 22.015625 4 
L 14.015625 -11.625 
L 7.71875 -11.625 
L 11.71875 4 
z
" id="DejaVuSans-44"/>
     <path d="M 9.8125 72.90625 
L 19.671875 72.90625 
L 19.671875 5.078125 
Q 19.671875 -8.109375 14.671875 -14.0625 
Q 9.671875 -20.015625 -1.421875 -20.015625 
L -5.171875 -20.015625 
L -5.171875 -11.71875 
L -2.09375 -11.71875 
Q 4.4375 -11.71875 7.125 -8.046875 
Q 9.8125 -4.390625 9.8125 5.078125 
z
" id="DejaVuSans-74"/>
     <path d="M 9.8125 72.90625 
L 19.671875 72.90625 
L 19.671875 43.015625 
L 55.515625 43.015625 
L 55.515625 72.90625 
L 65.375 72.90625 
L 65.375 0 
L 55.515625 0 
L 55.515625 34.71875 
L 19.671875 34.71875 
L 19.671875 0 
L 9.8125 0 
z
" id="DejaVuSans-72"/>
     <path d="M 8.6875 72.90625 
L 18.609375 72.90625 
L 18.609375 28.609375 
Q 18.609375 16.890625 22.84375 11.734375 
Q 27.09375 6.59375 36.625 6.59375 
Q 46.09375 6.59375 50.34375 11.734375 
Q 54.59375 16.890625 54.59375 28.609375 
L 54.59375 72.90625 
L 64.5 72.90625 
L 64.5 27.390625 
Q 64.5 13.140625 57.4375 5.859375 
Q 50.390625 -1.421875 36.625 -1.421875 
Q 22.796875 -1.421875 15.734375 5.859375 
Q 8.6875 13.140625 8.6875 27.390625 
z
" id="DejaVuSans-85"/>
     <path d="M 53.515625 70.515625 
L 53.515625 60.890625 
Q 47.90625 63.578125 42.921875 64.890625 
Q 37.9375 66.21875 33.296875 66.21875 
Q 25.25 66.21875 20.875 63.09375 
Q 16.5 59.96875 16.5 54.203125 
Q 16.5 49.359375 19.40625 46.890625 
Q 22.3125 44.4375 30.421875 42.921875 
L 36.375 41.703125 
Q 47.40625 39.59375 52.65625 34.296875 
Q 57.90625 29 57.90625 20.125 
Q 57.90625 9.515625 50.796875 4.046875 
Q 43.703125 -1.421875 29.984375 -1.421875 
Q 24.8125 -1.421875 18.96875 -0.25 
Q 13.140625 0.921875 6.890625 3.21875 
L 6.890625 13.375 
Q 12.890625 10.015625 18.65625 8.296875 
Q 24.421875 6.59375 29.984375 6.59375 
Q 38.421875 6.59375 43.015625 9.90625 
Q 47.609375 13.234375 47.609375 19.390625 
Q 47.609375 24.75 44.3125 27.78125 
Q 41.015625 30.8125 33.5 32.328125 
L 27.484375 33.5 
Q 16.453125 35.6875 11.515625 40.375 
Q 6.59375 45.0625 6.59375 53.421875 
Q 6.59375 63.09375 13.40625 68.65625 
Q 20.21875 74.21875 32.171875 74.21875 
Q 37.3125 74.21875 42.625 73.28125 
Q 47.953125 72.359375 53.515625 70.515625 
z
" id="DejaVuSans-83"/>
     <path d="M 9.8125 72.90625 
L 55.90625 72.90625 
L 55.90625 64.59375 
L 19.671875 64.59375 
L 19.671875 43.015625 
L 54.390625 43.015625 
L 54.390625 34.71875 
L 19.671875 34.71875 
L 19.671875 8.296875 
L 56.78125 8.296875 
L 56.78125 0 
L 9.8125 0 
z
" id="DejaVuSans-69"/>
     <path d="M 48.6875 27.296875 
Q 48.6875 37.203125 44.609375 42.84375 
Q 40.53125 48.484375 33.40625 48.484375 
Q 26.265625 48.484375 22.1875 42.84375 
Q 18.109375 37.203125 18.109375 27.296875 
Q 18.109375 17.390625 22.1875 11.75 
Q 26.265625 6.109375 33.40625 6.109375 
Q 40.53125 6.109375 44.609375 11.75 
Q 48.6875 17.390625 48.6875 27.296875 
z
M 18.109375 46.390625 
Q 20.953125 51.265625 25.265625 53.625 
Q 29.59375 56 35.59375 56 
Q 45.5625 56 51.78125 48.09375 
Q 58.015625 40.1875 58.015625 27.296875 
Q 58.015625 14.40625 51.78125 6.484375 
Q 45.5625 -1.421875 35.59375 -1.421875 
Q 29.59375 -1.421875 25.265625 0.953125 
Q 20.953125 3.328125 18.109375 8.203125 
L 18.109375 0 
L 9.078125 0 
L 9.078125 75.984375 
L 18.109375 75.984375 
z
" id="DejaVuSans-98"/>
     <path d="M 24.3125 39.203125 
Q 19.875 35.25 17.796875 31.3125 
Q 15.71875 27.390625 15.71875 23.09375 
Q 15.71875 15.96875 20.890625 11.234375 
Q 26.078125 6.5 33.890625 6.5 
Q 38.53125 6.5 42.578125 8.03125 
Q 46.625 9.578125 50.203125 12.703125 
z
M 31.203125 44.671875 
L 56 19.28125 
Q 58.890625 23.640625 60.5 28.59375 
Q 62.109375 33.546875 62.40625 39.109375 
L 71.484375 39.109375 
Q 70.90625 32.671875 68.359375 26.359375 
Q 65.828125 20.0625 61.28125 13.921875 
L 74.90625 0 
L 62.59375 0 
L 55.609375 7.171875 
Q 50.53125 2.828125 44.96875 0.703125 
Q 39.40625 -1.421875 33.015625 -1.421875 
Q 21.234375 -1.421875 13.765625 5.296875 
Q 6.296875 12.015625 6.296875 22.515625 
Q 6.296875 28.765625 9.5625 34.25 
Q 12.84375 39.75 19.390625 44.578125 
Q 17.046875 47.65625 15.8125 50.703125 
Q 14.59375 53.765625 14.59375 56.6875 
Q 14.59375 64.59375 20.015625 69.40625 
Q 25.4375 74.21875 34.421875 74.21875 
Q 38.484375 74.21875 42.5 73.34375 
Q 46.53125 72.46875 50.6875 70.703125 
L 50.6875 61.8125 
Q 46.4375 64.109375 42.578125 65.296875 
Q 38.71875 66.5 35.40625 66.5 
Q 30.28125 66.5 27.078125 63.78125 
Q 23.875 61.078125 23.875 56.78125 
Q 23.875 54.296875 25.3125 51.78125 
Q 26.765625 49.265625 31.203125 44.671875 
z
" id="DejaVuSans-38"/>
    </defs>
    <use xlink:href="#DejaVuSans-99"/>
    <use x="54.980469" xlink:href="#DejaVuSans-114"/>
    <use x="93.84375" xlink:href="#DejaVuSans-101"/>
    <use x="155.367188" xlink:href="#DejaVuSans-97"/>
    <use x="216.646484" xlink:href="#DejaVuSans-116"/>
    <use x="255.855469" xlink:href="#DejaVuSans-101"/>
    <use x="317.378906" xlink:href="#DejaVuSans-100"/>
    <use x="380.855469" xlink:href="#DejaVuSans-58"/>
    <use x="414.546875" xlink:href="#DejaVuSans-32"/>
    <use x="446.333984" xlink:href="#DejaVuSans-50"/>
    <use x="509.957031" xlink:href="#DejaVuSans-48"/>
    <use x="573.580078" xlink:href="#DejaVuSans-50"/>
    <use x="637.203125" xlink:href="#DejaVuSans-48"/>
    <use x="700.826172" xlink:href="#DejaVuSans-45"/>
    <use x="736.910156" xlink:href="#DejaVuSans-49"/>
    <use x="800.533203" xlink:href="#DejaVuSans-49"/>
    <use x="864.15625" xlink:href="#DejaVuSans-45"/>
    <use x="900.240234" xlink:href="#DejaVuSans-50"/>
    <use x="963.863281" xlink:href="#DejaVuSans-49"/>
    <use x="1027.486328" xlink:href="#DejaVuSans-32"/>
    <use x="1059.273438" xlink:href="#DejaVuSans-97"/>
    <use x="1120.552734" xlink:href="#DejaVuSans-117"/>
    <use x="1183.931641" xlink:href="#DejaVuSans-116"/>
    <use x="1223.140625" xlink:href="#DejaVuSans-104"/>
    <use x="1286.519531" xlink:href="#DejaVuSans-111"/>
    <use x="1347.701172" xlink:href="#DejaVuSans-114"/>
    <use x="1387.064453" xlink:href="#DejaVuSans-58"/>
    <use x="1420.755859" xlink:href="#DejaVuSans-32"/>
    <use x="1452.542969" xlink:href="#DejaVuSans-64"/>
    <use x="1552.542969" xlink:href="#DejaVuSans-112"/>
    <use x="1616.019531" xlink:href="#DejaVuSans-115"/>
    <use x="1668.119141" xlink:href="#DejaVuSans-99"/>
    <use x="1723.099609" xlink:href="#DejaVuSans-104"/>
    <use x="1786.478516" xlink:href="#DejaVuSans-119"/>
    <use x="1868.265625" xlink:href="#DejaVuSans-101"/>
    <use x="1929.789062" xlink:href="#DejaVuSans-100"/>
    <use x="1993.265625" xlink:href="#DejaVuSans-101"/>
    <use x="2054.789062" xlink:href="#DejaVuSans-44"/>
    <use x="2086.576172" xlink:href="#DejaVuSans-32"/>
    <use x="2118.363281" xlink:href="#DejaVuSans-115"/>
    <use x="2170.462891" xlink:href="#DejaVuSans-111"/>
    <use x="2231.644531" xlink:href="#DejaVuSans-117"/>
    <use x="2295.023438" xlink:href="#DejaVuSans-114"/>
    <use x="2333.886719" xlink:href="#DejaVuSans-99"/>
    <use x="2388.867188" xlink:href="#DejaVuSans-101"/>
    <use x="2450.390625" xlink:href="#DejaVuSans-58"/>
    <use x="2484.082031" xlink:href="#DejaVuSans-32"/>
    <use x="2515.869141" xlink:href="#DejaVuSans-74"/>
    <use x="2545.361328" xlink:href="#DejaVuSans-72"/>
    <use x="2620.556641" xlink:href="#DejaVuSans-85"/>
    <use x="2693.75" xlink:href="#DejaVuSans-32"/>
    <use x="2725.537109" xlink:href="#DejaVuSans-67"/>
    <use x="2795.361328" xlink:href="#DejaVuSans-83"/>
    <use x="2858.837891" xlink:href="#DejaVuSans-83"/>
    <use x="2922.314453" xlink:href="#DejaVuSans-69"/>
    <use x="2985.498047" xlink:href="#DejaVuSans-32"/>
    <use x="3017.285156" xlink:href="#DejaVuSans-118"/>
    <use x="3076.464844" xlink:href="#DejaVuSans-105"/>
    <use x="3104.248047" xlink:href="#DejaVuSans-97"/>
    <use x="3165.527344" xlink:href="#DejaVuSans-32"/>
    <use x="3197.314453" xlink:href="#DejaVuSans-64"/>
    <use x="3297.314453" xlink:href="#DejaVuSans-101"/>
    <use x="3358.837891" xlink:href="#DejaVuSans-110"/>
    <use x="3422.216797" xlink:href="#DejaVuSans-116"/>
    <use x="3461.425781" xlink:href="#DejaVuSans-111"/>
    <use x="3522.607422" xlink:href="#DejaVuSans-114"/>
    <use x="3563.720703" xlink:href="#DejaVuSans-98"/>
    <use x="3627.197266" xlink:href="#DejaVuSans-32"/>
    <use x="3658.984375" xlink:href="#DejaVuSans-38"/>
    <use x="3736.962891" xlink:href="#DejaVuSans-32"/>
    <use x="3768.75" xlink:href="#DejaVuSans-64"/>
    <use x="3868.75" xlink:href="#DejaVuSans-112"/>
    <use x="3932.226562" xlink:href="#DejaVuSans-111"/>
    <use x="3993.408203" xlink:href="#DejaVuSans-109"/>
    <use x="4090.820312" xlink:href="#DejaVuSans-98"/>
    <use x="4154.296875" xlink:href="#DejaVuSans-101"/>
    <use x="4215.820312" xlink:href="#DejaVuSans-114"/>
    <use x="4247.808594" xlink:href="#DejaVuSans-46"/>
   </g>
  </g>
 </g>
 <defs>
  <clipPath id="pb49d4f2e37">
   <rect height="199.115403" width="642.85" x="61.62625" y="102.072"/>
  </clipPath>
  <clipPath id="pde58f09af4">
   <rect height="199.115403" width="642.85" x="61.62625" y="313.524597"/>
  </clipPath>
 </defs>
</svg>
