<?xml version="1.0" encoding="utf-8" standalone="no"?>
<!DOCTYPE svg PUBLIC "-//W3C//DTD SVG 1.1//EN"
  "http://www.w3.org/Graphics/SVG/1.1/DTD/svg11.dtd">
<!-- Created with matplotlib (https://matplotlib.org/) -->
<svg height="573.257842pt" version="1.1" viewBox="0 0 713.80875 573.257842" width="713.80875pt" xmlns="http://www.w3.org/2000/svg" xmlns:xlink="http://www.w3.org/1999/xlink">
 <defs>
  <style type="text/css">
*{stroke-linecap:butt;stroke-linejoin:round;}
  </style>
 </defs>
 <g id="figure_1">
  <g id="patch_1">
   <path d="M 0 573.257842 
L 713.80875 573.257842 
L 713.80875 0 
L 0 0 
z
" style="fill:#ffffff;"/>
  </g>
  <g id="axes_1">
   <g id="patch_2">
    <path d="M 67.98875 274.117328 
L 706.60875 274.117328 
L 706.60875 48.36 
L 67.98875 48.36 
z
" style="fill:#e5e5e5;"/>
   </g>
   <g id="matplotlib.axis_1">
    <g id="xtick_1">
     <g id="line2d_1">
      <defs>
       <path d="M 0 0 
L 0 3.5 
" id="m4c16f72f50" style="stroke:#555555;stroke-width:0.8;"/>
      </defs>
      <g>
       <use style="fill:#555555;stroke:#555555;stroke-width:0.8;" x="67.98875" xlink:href="#m4c16f72f50" y="274.117328"/>
      </g>
     </g>
    </g>
    <g id="xtick_2">
     <g id="line2d_2">
      <g>
       <use style="fill:#555555;stroke:#555555;stroke-width:0.8;" x="121.718798" xlink:href="#m4c16f72f50" y="274.117328"/>
      </g>
     </g>
    </g>
    <g id="xtick_3">
     <g id="line2d_3">
      <g>
       <use style="fill:#555555;stroke:#555555;stroke-width:0.8;" x="191.567861" xlink:href="#m4c16f72f50" y="274.117328"/>
      </g>
     </g>
    </g>
    <g id="xtick_4">
     <g id="line2d_4">
      <g>
       <use style="fill:#555555;stroke:#555555;stroke-width:0.8;" x="262.184495" xlink:href="#m4c16f72f50" y="274.117328"/>
      </g>
     </g>
    </g>
    <g id="xtick_5">
     <g id="line2d_5">
      <g>
       <use style="fill:#555555;stroke:#555555;stroke-width:0.8;" x="332.80113" xlink:href="#m4c16f72f50" y="274.117328"/>
      </g>
     </g>
    </g>
    <g id="xtick_6">
     <g id="line2d_6">
      <g>
       <use style="fill:#555555;stroke:#555555;stroke-width:0.8;" x="401.88262" xlink:href="#m4c16f72f50" y="274.117328"/>
      </g>
     </g>
    </g>
    <g id="xtick_7">
     <g id="line2d_7">
      <g>
       <use style="fill:#555555;stroke:#555555;stroke-width:0.8;" x="471.731683" xlink:href="#m4c16f72f50" y="274.117328"/>
      </g>
     </g>
    </g>
    <g id="xtick_8">
     <g id="line2d_8">
      <g>
       <use style="fill:#555555;stroke:#555555;stroke-width:0.8;" x="542.348317" xlink:href="#m4c16f72f50" y="274.117328"/>
      </g>
     </g>
    </g>
    <g id="xtick_9">
     <g id="line2d_9">
      <g>
       <use style="fill:#555555;stroke:#555555;stroke-width:0.8;" x="612.964952" xlink:href="#m4c16f72f50" y="274.117328"/>
      </g>
     </g>
    </g>
    <g id="xtick_10">
     <g id="line2d_10">
      <g>
       <use style="fill:#555555;stroke:#555555;stroke-width:0.8;" x="682.046442" xlink:href="#m4c16f72f50" y="274.117328"/>
      </g>
     </g>
    </g>
    <g id="xtick_11">
     <g id="line2d_11">
      <g>
       <use style="fill:#555555;stroke:#555555;stroke-width:0.8;" x="706.60875" xlink:href="#m4c16f72f50" y="274.117328"/>
      </g>
     </g>
    </g>
    <g id="xtick_12">
     <g id="line2d_12">
      <defs>
       <path d="M 0 0 
L 0 2 
" id="m39d79bfd51" style="stroke:#555555;stroke-width:0.6;"/>
      </defs>
      <g>
       <use style="fill:#555555;stroke:#555555;stroke-width:0.6;" x="75.664471" xlink:href="#m39d79bfd51" y="274.117328"/>
      </g>
     </g>
    </g>
    <g id="xtick_13">
     <g id="line2d_13">
      <g>
       <use style="fill:#555555;stroke:#555555;stroke-width:0.6;" x="97.924063" xlink:href="#m39d79bfd51" y="274.117328"/>
      </g>
     </g>
    </g>
    <g id="xtick_14">
     <g id="line2d_14">
      <g>
       <use style="fill:#555555;stroke:#555555;stroke-width:0.6;" x="144.745962" xlink:href="#m39d79bfd51" y="274.117328"/>
      </g>
     </g>
    </g>
    <g id="xtick_15">
     <g id="line2d_15">
      <g>
       <use style="fill:#555555;stroke:#555555;stroke-width:0.6;" x="168.540697" xlink:href="#m39d79bfd51" y="274.117328"/>
      </g>
     </g>
    </g>
    <g id="xtick_16">
     <g id="line2d_16">
      <g>
       <use style="fill:#555555;stroke:#555555;stroke-width:0.6;" x="215.362596" xlink:href="#m39d79bfd51" y="274.117328"/>
      </g>
     </g>
    </g>
    <g id="xtick_17">
     <g id="line2d_17">
      <g>
       <use style="fill:#555555;stroke:#555555;stroke-width:0.6;" x="239.157332" xlink:href="#m39d79bfd51" y="274.117328"/>
      </g>
     </g>
    </g>
    <g id="xtick_18">
     <g id="line2d_18">
      <g>
       <use style="fill:#555555;stroke:#555555;stroke-width:0.6;" x="285.979231" xlink:href="#m39d79bfd51" y="274.117328"/>
      </g>
     </g>
    </g>
    <g id="xtick_19">
     <g id="line2d_19">
      <g>
       <use style="fill:#555555;stroke:#555555;stroke-width:0.6;" x="309.006394" xlink:href="#m39d79bfd51" y="274.117328"/>
      </g>
     </g>
    </g>
    <g id="xtick_20">
     <g id="line2d_20">
      <g>
       <use style="fill:#555555;stroke:#555555;stroke-width:0.6;" x="356.595865" xlink:href="#m39d79bfd51" y="274.117328"/>
      </g>
     </g>
    </g>
    <g id="xtick_21">
     <g id="line2d_21">
      <g>
       <use style="fill:#555555;stroke:#555555;stroke-width:0.6;" x="378.087885" xlink:href="#m39d79bfd51" y="274.117328"/>
      </g>
     </g>
    </g>
    <g id="xtick_22">
     <g id="line2d_22">
      <g>
       <use style="fill:#555555;stroke:#555555;stroke-width:0.6;" x="424.909784" xlink:href="#m39d79bfd51" y="274.117328"/>
      </g>
     </g>
    </g>
    <g id="xtick_23">
     <g id="line2d_23">
      <g>
       <use style="fill:#555555;stroke:#555555;stroke-width:0.6;" x="448.704519" xlink:href="#m39d79bfd51" y="274.117328"/>
      </g>
     </g>
    </g>
    <g id="xtick_24">
     <g id="line2d_24">
      <g>
       <use style="fill:#555555;stroke:#555555;stroke-width:0.6;" x="495.526418" xlink:href="#m39d79bfd51" y="274.117328"/>
      </g>
     </g>
    </g>
    <g id="xtick_25">
     <g id="line2d_25">
      <g>
       <use style="fill:#555555;stroke:#555555;stroke-width:0.6;" x="519.321154" xlink:href="#m39d79bfd51" y="274.117328"/>
      </g>
     </g>
    </g>
    <g id="xtick_26">
     <g id="line2d_26">
      <g>
       <use style="fill:#555555;stroke:#555555;stroke-width:0.6;" x="566.143053" xlink:href="#m39d79bfd51" y="274.117328"/>
      </g>
     </g>
    </g>
    <g id="xtick_27">
     <g id="line2d_27">
      <g>
       <use style="fill:#555555;stroke:#555555;stroke-width:0.6;" x="589.170216" xlink:href="#m39d79bfd51" y="274.117328"/>
      </g>
     </g>
    </g>
    <g id="xtick_28">
     <g id="line2d_28">
      <g>
       <use style="fill:#555555;stroke:#555555;stroke-width:0.6;" x="636.759687" xlink:href="#m39d79bfd51" y="274.117328"/>
      </g>
     </g>
    </g>
    <g id="xtick_29">
     <g id="line2d_29">
      <g>
       <use style="fill:#555555;stroke:#555555;stroke-width:0.6;" x="658.251707" xlink:href="#m39d79bfd51" y="274.117328"/>
      </g>
     </g>
    </g>
    <g id="xtick_30">
     <g id="line2d_30">
      <g>
       <use style="fill:#555555;stroke:#555555;stroke-width:0.6;" x="705.073606" xlink:href="#m39d79bfd51" y="274.117328"/>
      </g>
     </g>
    </g>
   </g>
   <g id="matplotlib.axis_2">
    <g id="ytick_1">
     <g id="line2d_31">
      <defs>
       <path d="M 0 0 
L -3.5 0 
" id="ma627e33641" style="stroke:#555555;stroke-width:0.8;"/>
      </defs>
      <g>
       <use style="fill:#555555;stroke:#555555;stroke-width:0.8;" x="67.98875" xlink:href="#ma627e33641" y="263.855638"/>
      </g>
     </g>
     <g id="text_1">
      <!-- 0.0 -->
      <defs>
       <path d="M 31.78125 66.40625 
Q 24.171875 66.40625 20.328125 58.90625 
Q 16.5 51.421875 16.5 36.375 
Q 16.5 21.390625 20.328125 13.890625 
Q 24.171875 6.390625 31.78125 6.390625 
Q 39.453125 6.390625 43.28125 13.890625 
Q 47.125 21.390625 47.125 36.375 
Q 47.125 51.421875 43.28125 58.90625 
Q 39.453125 66.40625 31.78125 66.40625 
z
M 31.78125 74.21875 
Q 44.046875 74.21875 50.515625 64.515625 
Q 56.984375 54.828125 56.984375 36.375 
Q 56.984375 17.96875 50.515625 8.265625 
Q 44.046875 -1.421875 31.78125 -1.421875 
Q 19.53125 -1.421875 13.0625 8.265625 
Q 6.59375 17.96875 6.59375 36.375 
Q 6.59375 54.828125 13.0625 64.515625 
Q 19.53125 74.21875 31.78125 74.21875 
z
" id="DejaVuSans-48"/>
       <path d="M 10.6875 12.40625 
L 21 12.40625 
L 21 0 
L 10.6875 0 
z
" id="DejaVuSans-46"/>
      </defs>
      <g style="fill:#555555;" transform="translate(45.085625 267.654857)scale(0.1 -0.1)">
       <use xlink:href="#DejaVuSans-48"/>
       <use x="63.623047" xlink:href="#DejaVuSans-46"/>
       <use x="95.410156" xlink:href="#DejaVuSans-48"/>
      </g>
     </g>
    </g>
    <g id="ytick_2">
     <g id="line2d_32">
      <g>
       <use style="fill:#555555;stroke:#555555;stroke-width:0.8;" x="67.98875" xlink:href="#ma627e33641" y="232.591064"/>
      </g>
     </g>
     <g id="text_2">
      <!-- 0.5 -->
      <defs>
       <path d="M 10.796875 72.90625 
L 49.515625 72.90625 
L 49.515625 64.59375 
L 19.828125 64.59375 
L 19.828125 46.734375 
Q 21.96875 47.46875 24.109375 47.828125 
Q 26.265625 48.1875 28.421875 48.1875 
Q 40.625 48.1875 47.75 41.5 
Q 54.890625 34.8125 54.890625 23.390625 
Q 54.890625 11.625 47.5625 5.09375 
Q 40.234375 -1.421875 26.90625 -1.421875 
Q 22.3125 -1.421875 17.546875 -0.640625 
Q 12.796875 0.140625 7.71875 1.703125 
L 7.71875 11.625 
Q 12.109375 9.234375 16.796875 8.0625 
Q 21.484375 6.890625 26.703125 6.890625 
Q 35.15625 6.890625 40.078125 11.328125 
Q 45.015625 15.765625 45.015625 23.390625 
Q 45.015625 31 40.078125 35.4375 
Q 35.15625 39.890625 26.703125 39.890625 
Q 22.75 39.890625 18.8125 39.015625 
Q 14.890625 38.140625 10.796875 36.28125 
z
" id="DejaVuSans-53"/>
      </defs>
      <g style="fill:#555555;" transform="translate(45.085625 236.390283)scale(0.1 -0.1)">
       <use xlink:href="#DejaVuSans-48"/>
       <use x="63.623047" xlink:href="#DejaVuSans-46"/>
       <use x="95.410156" xlink:href="#DejaVuSans-53"/>
      </g>
     </g>
    </g>
    <g id="ytick_3">
     <g id="line2d_33">
      <g>
       <use style="fill:#555555;stroke:#555555;stroke-width:0.8;" x="67.98875" xlink:href="#ma627e33641" y="201.32649"/>
      </g>
     </g>
     <g id="text_3">
      <!-- 1.0 -->
      <defs>
       <path d="M 12.40625 8.296875 
L 28.515625 8.296875 
L 28.515625 63.921875 
L 10.984375 60.40625 
L 10.984375 69.390625 
L 28.421875 72.90625 
L 38.28125 72.90625 
L 38.28125 8.296875 
L 54.390625 8.296875 
L 54.390625 0 
L 12.40625 0 
z
" id="DejaVuSans-49"/>
      </defs>
      <g style="fill:#555555;" transform="translate(45.085625 205.125709)scale(0.1 -0.1)">
       <use xlink:href="#DejaVuSans-49"/>
       <use x="63.623047" xlink:href="#DejaVuSans-46"/>
       <use x="95.410156" xlink:href="#DejaVuSans-48"/>
      </g>
     </g>
    </g>
    <g id="ytick_4">
     <g id="line2d_34">
      <g>
       <use style="fill:#555555;stroke:#555555;stroke-width:0.8;" x="67.98875" xlink:href="#ma627e33641" y="170.061916"/>
      </g>
     </g>
     <g id="text_4">
      <!-- 1.5 -->
      <g style="fill:#555555;" transform="translate(45.085625 173.861135)scale(0.1 -0.1)">
       <use xlink:href="#DejaVuSans-49"/>
       <use x="63.623047" xlink:href="#DejaVuSans-46"/>
       <use x="95.410156" xlink:href="#DejaVuSans-53"/>
      </g>
     </g>
    </g>
    <g id="ytick_5">
     <g id="line2d_35">
      <g>
       <use style="fill:#555555;stroke:#555555;stroke-width:0.8;" x="67.98875" xlink:href="#ma627e33641" y="138.797342"/>
      </g>
     </g>
     <g id="text_5">
      <!-- 2.0 -->
      <defs>
       <path d="M 19.1875 8.296875 
L 53.609375 8.296875 
L 53.609375 0 
L 7.328125 0 
L 7.328125 8.296875 
Q 12.9375 14.109375 22.625 23.890625 
Q 32.328125 33.6875 34.8125 36.53125 
Q 39.546875 41.84375 41.421875 45.53125 
Q 43.3125 49.21875 43.3125 52.78125 
Q 43.3125 58.59375 39.234375 62.25 
Q 35.15625 65.921875 28.609375 65.921875 
Q 23.96875 65.921875 18.8125 64.3125 
Q 13.671875 62.703125 7.8125 59.421875 
L 7.8125 69.390625 
Q 13.765625 71.78125 18.9375 73 
Q 24.125 74.21875 28.421875 74.21875 
Q 39.75 74.21875 46.484375 68.546875 
Q 53.21875 62.890625 53.21875 53.421875 
Q 53.21875 48.921875 51.53125 44.890625 
Q 49.859375 40.875 45.40625 35.40625 
Q 44.1875 33.984375 37.640625 27.21875 
Q 31.109375 20.453125 19.1875 8.296875 
z
" id="DejaVuSans-50"/>
      </defs>
      <g style="fill:#555555;" transform="translate(45.085625 142.596561)scale(0.1 -0.1)">
       <use xlink:href="#DejaVuSans-50"/>
       <use x="63.623047" xlink:href="#DejaVuSans-46"/>
       <use x="95.410156" xlink:href="#DejaVuSans-48"/>
      </g>
     </g>
    </g>
    <g id="ytick_6">
     <g id="line2d_36">
      <g>
       <use style="fill:#555555;stroke:#555555;stroke-width:0.8;" x="67.98875" xlink:href="#ma627e33641" y="107.532769"/>
      </g>
     </g>
     <g id="text_6">
      <!-- 2.5 -->
      <g style="fill:#555555;" transform="translate(45.085625 111.331987)scale(0.1 -0.1)">
       <use xlink:href="#DejaVuSans-50"/>
       <use x="63.623047" xlink:href="#DejaVuSans-46"/>
       <use x="95.410156" xlink:href="#DejaVuSans-53"/>
      </g>
     </g>
    </g>
    <g id="ytick_7">
     <g id="line2d_37">
      <g>
       <use style="fill:#555555;stroke:#555555;stroke-width:0.8;" x="67.98875" xlink:href="#ma627e33641" y="76.268195"/>
      </g>
     </g>
     <g id="text_7">
      <!-- 3.0 -->
      <defs>
       <path d="M 40.578125 39.3125 
Q 47.65625 37.796875 51.625 33 
Q 55.609375 28.21875 55.609375 21.1875 
Q 55.609375 10.40625 48.1875 4.484375 
Q 40.765625 -1.421875 27.09375 -1.421875 
Q 22.515625 -1.421875 17.65625 -0.515625 
Q 12.796875 0.390625 7.625 2.203125 
L 7.625 11.71875 
Q 11.71875 9.328125 16.59375 8.109375 
Q 21.484375 6.890625 26.8125 6.890625 
Q 36.078125 6.890625 40.9375 10.546875 
Q 45.796875 14.203125 45.796875 21.1875 
Q 45.796875 27.640625 41.28125 31.265625 
Q 36.765625 34.90625 28.71875 34.90625 
L 20.21875 34.90625 
L 20.21875 43.015625 
L 29.109375 43.015625 
Q 36.375 43.015625 40.234375 45.921875 
Q 44.09375 48.828125 44.09375 54.296875 
Q 44.09375 59.90625 40.109375 62.90625 
Q 36.140625 65.921875 28.71875 65.921875 
Q 24.65625 65.921875 20.015625 65.03125 
Q 15.375 64.15625 9.8125 62.3125 
L 9.8125 71.09375 
Q 15.4375 72.65625 20.34375 73.4375 
Q 25.25 74.21875 29.59375 74.21875 
Q 40.828125 74.21875 47.359375 69.109375 
Q 53.90625 64.015625 53.90625 55.328125 
Q 53.90625 49.265625 50.4375 45.09375 
Q 46.96875 40.921875 40.578125 39.3125 
z
" id="DejaVuSans-51"/>
      </defs>
      <g style="fill:#555555;" transform="translate(45.085625 80.067414)scale(0.1 -0.1)">
       <use xlink:href="#DejaVuSans-51"/>
       <use x="63.623047" xlink:href="#DejaVuSans-46"/>
       <use x="95.410156" xlink:href="#DejaVuSans-48"/>
      </g>
     </g>
    </g>
    <g id="text_8">
     <!-- Total -->
     <defs>
      <path d="M -0.296875 72.90625 
L 61.375 72.90625 
L 61.375 64.59375 
L 35.5 64.59375 
L 35.5 0 
L 25.59375 0 
L 25.59375 64.59375 
L -0.296875 64.59375 
z
" id="DejaVuSans-84"/>
      <path d="M 30.609375 48.390625 
Q 23.390625 48.390625 19.1875 42.75 
Q 14.984375 37.109375 14.984375 27.296875 
Q 14.984375 17.484375 19.15625 11.84375 
Q 23.34375 6.203125 30.609375 6.203125 
Q 37.796875 6.203125 41.984375 11.859375 
Q 46.1875 17.53125 46.1875 27.296875 
Q 46.1875 37.015625 41.984375 42.703125 
Q 37.796875 48.390625 30.609375 48.390625 
z
M 30.609375 56 
Q 42.328125 56 49.015625 48.375 
Q 55.71875 40.765625 55.71875 27.296875 
Q 55.71875 13.875 49.015625 6.21875 
Q 42.328125 -1.421875 30.609375 -1.421875 
Q 18.84375 -1.421875 12.171875 6.21875 
Q 5.515625 13.875 5.515625 27.296875 
Q 5.515625 40.765625 12.171875 48.375 
Q 18.84375 56 30.609375 56 
z
" id="DejaVuSans-111"/>
      <path d="M 18.3125 70.21875 
L 18.3125 54.6875 
L 36.8125 54.6875 
L 36.8125 47.703125 
L 18.3125 47.703125 
L 18.3125 18.015625 
Q 18.3125 11.328125 20.140625 9.421875 
Q 21.96875 7.515625 27.59375 7.515625 
L 36.8125 7.515625 
L 36.8125 0 
L 27.59375 0 
Q 17.1875 0 13.234375 3.875 
Q 9.28125 7.765625 9.28125 18.015625 
L 9.28125 47.703125 
L 2.6875 47.703125 
L 2.6875 54.6875 
L 9.28125 54.6875 
L 9.28125 70.21875 
z
" id="DejaVuSans-116"/>
      <path d="M 34.28125 27.484375 
Q 23.390625 27.484375 19.1875 25 
Q 14.984375 22.515625 14.984375 16.5 
Q 14.984375 11.71875 18.140625 8.90625 
Q 21.296875 6.109375 26.703125 6.109375 
Q 34.1875 6.109375 38.703125 11.40625 
Q 43.21875 16.703125 43.21875 25.484375 
L 43.21875 27.484375 
z
M 52.203125 31.203125 
L 52.203125 0 
L 43.21875 0 
L 43.21875 8.296875 
Q 40.140625 3.328125 35.546875 0.953125 
Q 30.953125 -1.421875 24.3125 -1.421875 
Q 15.921875 -1.421875 10.953125 3.296875 
Q 6 8.015625 6 15.921875 
Q 6 25.140625 12.171875 29.828125 
Q 18.359375 34.515625 30.609375 34.515625 
L 43.21875 34.515625 
L 43.21875 35.40625 
Q 43.21875 41.609375 39.140625 45 
Q 35.0625 48.390625 27.6875 48.390625 
Q 23 48.390625 18.546875 47.265625 
Q 14.109375 46.140625 10.015625 43.890625 
L 10.015625 52.203125 
Q 14.9375 54.109375 19.578125 55.046875 
Q 24.21875 56 28.609375 56 
Q 40.484375 56 46.34375 49.84375 
Q 52.203125 43.703125 52.203125 31.203125 
z
" id="DejaVuSans-97"/>
      <path d="M 9.421875 75.984375 
L 18.40625 75.984375 
L 18.40625 0 
L 9.421875 0 
z
" id="DejaVuSans-108"/>
     </defs>
     <g style="fill:#555555;" transform="translate(38.59 175.250539)rotate(-90)scale(0.12 -0.12)">
      <use xlink:href="#DejaVuSans-84"/>
      <use x="44.083984" xlink:href="#DejaVuSans-111"/>
      <use x="105.265625" xlink:href="#DejaVuSans-116"/>
      <use x="144.474609" xlink:href="#DejaVuSans-97"/>
      <use x="205.753906" xlink:href="#DejaVuSans-108"/>
     </g>
    </g>
    <g id="text_9">
     <!-- 1e7 -->
     <defs>
      <path d="M 56.203125 29.59375 
L 56.203125 25.203125 
L 14.890625 25.203125 
Q 15.484375 15.921875 20.484375 11.0625 
Q 25.484375 6.203125 34.421875 6.203125 
Q 39.59375 6.203125 44.453125 7.46875 
Q 49.3125 8.734375 54.109375 11.28125 
L 54.109375 2.78125 
Q 49.265625 0.734375 44.1875 -0.34375 
Q 39.109375 -1.421875 33.890625 -1.421875 
Q 20.796875 -1.421875 13.15625 6.1875 
Q 5.515625 13.8125 5.515625 26.8125 
Q 5.515625 40.234375 12.765625 48.109375 
Q 20.015625 56 32.328125 56 
Q 43.359375 56 49.78125 48.890625 
Q 56.203125 41.796875 56.203125 29.59375 
z
M 47.21875 32.234375 
Q 47.125 39.59375 43.09375 43.984375 
Q 39.0625 48.390625 32.421875 48.390625 
Q 24.90625 48.390625 20.390625 44.140625 
Q 15.875 39.890625 15.1875 32.171875 
z
" id="DejaVuSans-101"/>
      <path d="M 8.203125 72.90625 
L 55.078125 72.90625 
L 55.078125 68.703125 
L 28.609375 0 
L 18.3125 0 
L 43.21875 64.59375 
L 8.203125 64.59375 
z
" id="DejaVuSans-55"/>
     </defs>
     <g style="fill:#555555;" transform="translate(67.98875 45.36)scale(0.1 -0.1)">
      <use xlink:href="#DejaVuSans-49"/>
      <use x="63.623047" xlink:href="#DejaVuSans-101"/>
      <use x="125.146484" xlink:href="#DejaVuSans-55"/>
     </g>
    </g>
   </g>
   <g id="line2d_38">
    <path clip-path="url(#pa42a9dfac8)" d="M 67.98875 263.855632 
L 114.043077 263.752933 
L 117.880938 263.47624 
L 121.718798 262.923195 
L 125.556659 262.052728 
L 136.302668 259.397415 
L 152.421683 255.782547 
L 164.702837 253.534036 
L 181.589423 250.617127 
L 185.427284 249.760564 
L 189.265144 248.655371 
L 193.103005 247.282995 
L 197.708438 245.383775 
L 201.546298 243.531383 
L 206.919303 240.647461 
L 215.362596 236.155782 
L 219.200457 234.320836 
L 227.64375 230.711024 
L 231.481611 229.273613 
L 242.995192 225.364586 
L 246.833053 224.222195 
L 251.438486 222.827549 
L 257.579063 220.695682 
L 270.627788 215.924076 
L 275.233221 213.88747 
L 279.071082 211.936161 
L 282.908942 209.691688 
L 285.979231 207.659854 
L 288.281947 205.868912 
L 290.584663 203.800276 
L 292.88738 201.536141 
L 295.190096 198.993812 
L 298.260385 195.139649 
L 302.098245 189.833219 
L 306.703678 183.382472 
L 310.541538 178.129966 
L 312.844255 174.493155 
L 316.682115 167.864204 
L 327.428125 149.108307 
L 334.336274 138.269266 
L 337.406563 132.680057 
L 342.779567 121.878474 
L 345.082284 117.661798 
L 347.385 113.884823 
L 349.687716 110.469764 
L 353.525577 105.279001 
L 356.595865 101.508111 
L 358.898582 98.942042 
L 361.201298 96.659217 
L 364.271587 93.991064 
L 367.341875 91.682265 
L 369.644591 90.232558 
L 378.087885 85.538069 
L 382.693317 83.18561 
L 389.601466 80.060238 
L 398.04476 76.181165 
L 406.488053 71.719506 
L 411.093486 69.146055 
L 416.46649 66.149287 
L 420.304351 64.260198 
L 424.909784 62.300152 
L 427.2125 61.380969 
L 427.2125 61.380969 
" style="fill:none;stroke:#e24a33;stroke-linecap:square;stroke-width:1.5;"/>
   </g>
   <g id="line2d_39">
    <path clip-path="url(#pa42a9dfac8)" d="M 427.2125 61.380969 
L 429.515216 60.57027 
L 431.817933 59.995945 
L 434.888221 59.483192 
L 438.726082 59.101557 
L 444.099087 58.832893 
L 452.54238 58.679766 
L 471.731683 58.624779 
L 706.60875 58.621697 
L 706.60875 58.621697 
" style="fill:none;stroke:#348abd;stroke-linecap:square;stroke-width:1.5;"/>
   </g>
   <g id="patch_3">
    <path d="M 67.98875 274.117328 
L 67.98875 48.36 
" style="fill:none;stroke:#ffffff;stroke-linecap:square;stroke-linejoin:miter;"/>
   </g>
   <g id="patch_4">
    <path d="M 706.60875 274.117328 
L 706.60875 48.36 
" style="fill:none;stroke:#ffffff;stroke-linecap:square;stroke-linejoin:miter;"/>
   </g>
   <g id="patch_5">
    <path d="M 67.98875 274.117328 
L 706.60875 274.117328 
" style="fill:none;stroke:#ffffff;stroke-linecap:square;stroke-linejoin:miter;"/>
   </g>
   <g id="patch_6">
    <path d="M 67.98875 48.36 
L 706.60875 48.36 
" style="fill:none;stroke:#ffffff;stroke-linecap:square;stroke-linejoin:miter;"/>
   </g>
  </g>
  <g id="axes_2">
   <g id="patch_7">
    <path d="M 67.98875 512.64 
L 706.60875 512.64 
L 706.60875 286.882672 
L 67.98875 286.882672 
z
" style="fill:#e5e5e5;"/>
   </g>
   <g id="matplotlib.axis_3">
    <g id="xtick_31">
     <g id="line2d_40">
      <g>
       <use style="fill:#555555;stroke:#555555;stroke-width:0.8;" x="67.98875" xlink:href="#m4c16f72f50" y="512.64"/>
      </g>
     </g>
    </g>
    <g id="xtick_32">
     <g id="line2d_41">
      <g>
       <use style="fill:#555555;stroke:#555555;stroke-width:0.8;" x="121.718798" xlink:href="#m4c16f72f50" y="512.64"/>
      </g>
     </g>
     <g id="text_10">
      <!-- Apr -->
      <defs>
       <path d="M 34.1875 63.1875 
L 20.796875 26.90625 
L 47.609375 26.90625 
z
M 28.609375 72.90625 
L 39.796875 72.90625 
L 67.578125 0 
L 57.328125 0 
L 50.6875 18.703125 
L 17.828125 18.703125 
L 11.1875 0 
L 0.78125 0 
z
" id="DejaVuSans-65"/>
       <path d="M 18.109375 8.203125 
L 18.109375 -20.796875 
L 9.078125 -20.796875 
L 9.078125 54.6875 
L 18.109375 54.6875 
L 18.109375 46.390625 
Q 20.953125 51.265625 25.265625 53.625 
Q 29.59375 56 35.59375 56 
Q 45.5625 56 51.78125 48.09375 
Q 58.015625 40.1875 58.015625 27.296875 
Q 58.015625 14.40625 51.78125 6.484375 
Q 45.5625 -1.421875 35.59375 -1.421875 
Q 29.59375 -1.421875 25.265625 0.953125 
Q 20.953125 3.328125 18.109375 8.203125 
z
M 48.6875 27.296875 
Q 48.6875 37.203125 44.609375 42.84375 
Q 40.53125 48.484375 33.40625 48.484375 
Q 26.265625 48.484375 22.1875 42.84375 
Q 18.109375 37.203125 18.109375 27.296875 
Q 18.109375 17.390625 22.1875 11.75 
Q 26.265625 6.109375 33.40625 6.109375 
Q 40.53125 6.109375 44.609375 11.75 
Q 48.6875 17.390625 48.6875 27.296875 
z
" id="DejaVuSans-112"/>
       <path d="M 41.109375 46.296875 
Q 39.59375 47.171875 37.8125 47.578125 
Q 36.03125 48 33.890625 48 
Q 26.265625 48 22.1875 43.046875 
Q 18.109375 38.09375 18.109375 28.8125 
L 18.109375 0 
L 9.078125 0 
L 9.078125 54.6875 
L 18.109375 54.6875 
L 18.109375 46.1875 
Q 20.953125 51.171875 25.484375 53.578125 
Q 30.03125 56 36.53125 56 
Q 37.453125 56 38.578125 55.875 
Q 39.703125 55.765625 41.0625 55.515625 
z
" id="DejaVuSans-114"/>
      </defs>
      <g style="fill:#555555;" transform="translate(105.696715 534.87044)rotate(-30)scale(0.1 -0.1)">
       <use xlink:href="#DejaVuSans-65"/>
       <use x="68.408203" xlink:href="#DejaVuSans-112"/>
       <use x="131.884766" xlink:href="#DejaVuSans-114"/>
      </g>
     </g>
    </g>
    <g id="xtick_33">
     <g id="line2d_42">
      <g>
       <use style="fill:#555555;stroke:#555555;stroke-width:0.8;" x="191.567861" xlink:href="#m4c16f72f50" y="512.64"/>
      </g>
     </g>
     <g id="text_11">
      <!-- Jul -->
      <defs>
       <path d="M 9.8125 72.90625 
L 19.671875 72.90625 
L 19.671875 5.078125 
Q 19.671875 -8.109375 14.671875 -14.0625 
Q 9.671875 -20.015625 -1.421875 -20.015625 
L -5.171875 -20.015625 
L -5.171875 -11.71875 
L -2.09375 -11.71875 
Q 4.4375 -11.71875 7.125 -8.046875 
Q 9.8125 -4.390625 9.8125 5.078125 
z
" id="DejaVuSans-74"/>
       <path d="M 8.5 21.578125 
L 8.5 54.6875 
L 17.484375 54.6875 
L 17.484375 21.921875 
Q 17.484375 14.15625 20.5 10.265625 
Q 23.53125 6.390625 29.59375 6.390625 
Q 36.859375 6.390625 41.078125 11.03125 
Q 45.3125 15.671875 45.3125 23.6875 
L 45.3125 54.6875 
L 54.296875 54.6875 
L 54.296875 0 
L 45.3125 0 
L 45.3125 8.40625 
Q 42.046875 3.421875 37.71875 1 
Q 33.40625 -1.421875 27.6875 -1.421875 
Q 18.265625 -1.421875 13.375 4.4375 
Q 8.5 10.296875 8.5 21.578125 
z
M 31.109375 56 
z
" id="DejaVuSans-117"/>
      </defs>
      <g style="fill:#555555;" transform="translate(180.078879 532.253252)rotate(-30)scale(0.1 -0.1)">
       <use xlink:href="#DejaVuSans-74"/>
       <use x="29.492188" xlink:href="#DejaVuSans-117"/>
       <use x="92.871094" xlink:href="#DejaVuSans-108"/>
      </g>
     </g>
    </g>
    <g id="xtick_34">
     <g id="line2d_43">
      <g>
       <use style="fill:#555555;stroke:#555555;stroke-width:0.8;" x="262.184495" xlink:href="#m4c16f72f50" y="512.64"/>
      </g>
     </g>
     <g id="text_12">
      <!-- Oct -->
      <defs>
       <path d="M 39.40625 66.21875 
Q 28.65625 66.21875 22.328125 58.203125 
Q 16.015625 50.203125 16.015625 36.375 
Q 16.015625 22.609375 22.328125 14.59375 
Q 28.65625 6.59375 39.40625 6.59375 
Q 50.140625 6.59375 56.421875 14.59375 
Q 62.703125 22.609375 62.703125 36.375 
Q 62.703125 50.203125 56.421875 58.203125 
Q 50.140625 66.21875 39.40625 66.21875 
z
M 39.40625 74.21875 
Q 54.734375 74.21875 63.90625 63.9375 
Q 73.09375 53.65625 73.09375 36.375 
Q 73.09375 19.140625 63.90625 8.859375 
Q 54.734375 -1.421875 39.40625 -1.421875 
Q 24.03125 -1.421875 14.8125 8.828125 
Q 5.609375 19.09375 5.609375 36.375 
Q 5.609375 53.65625 14.8125 63.9375 
Q 24.03125 74.21875 39.40625 74.21875 
z
" id="DejaVuSans-79"/>
       <path d="M 48.78125 52.59375 
L 48.78125 44.1875 
Q 44.96875 46.296875 41.140625 47.34375 
Q 37.3125 48.390625 33.40625 48.390625 
Q 24.65625 48.390625 19.8125 42.84375 
Q 14.984375 37.3125 14.984375 27.296875 
Q 14.984375 17.28125 19.8125 11.734375 
Q 24.65625 6.203125 33.40625 6.203125 
Q 37.3125 6.203125 41.140625 7.25 
Q 44.96875 8.296875 48.78125 10.40625 
L 48.78125 2.09375 
Q 45.015625 0.34375 40.984375 -0.53125 
Q 36.96875 -1.421875 32.421875 -1.421875 
Q 20.0625 -1.421875 12.78125 6.34375 
Q 5.515625 14.109375 5.515625 27.296875 
Q 5.515625 40.671875 12.859375 48.328125 
Q 20.21875 56 33.015625 56 
Q 37.15625 56 41.109375 55.140625 
Q 45.0625 54.296875 48.78125 52.59375 
z
" id="DejaVuSans-99"/>
      </defs>
      <g style="fill:#555555;" transform="translate(246.170531 534.865752)rotate(-30)scale(0.1 -0.1)">
       <use xlink:href="#DejaVuSans-79"/>
       <use x="78.710938" xlink:href="#DejaVuSans-99"/>
       <use x="133.691406" xlink:href="#DejaVuSans-116"/>
      </g>
     </g>
    </g>
    <g id="xtick_35">
     <g id="line2d_44">
      <g>
       <use style="fill:#555555;stroke:#555555;stroke-width:0.8;" x="332.80113" xlink:href="#m4c16f72f50" y="512.64"/>
      </g>
     </g>
     <g id="text_13">
      <!-- Jan -->
      <defs>
       <path d="M 54.890625 33.015625 
L 54.890625 0 
L 45.90625 0 
L 45.90625 32.71875 
Q 45.90625 40.484375 42.875 44.328125 
Q 39.84375 48.1875 33.796875 48.1875 
Q 26.515625 48.1875 22.3125 43.546875 
Q 18.109375 38.921875 18.109375 30.90625 
L 18.109375 0 
L 9.078125 0 
L 9.078125 54.6875 
L 18.109375 54.6875 
L 18.109375 46.1875 
Q 21.34375 51.125 25.703125 53.5625 
Q 30.078125 56 35.796875 56 
Q 45.21875 56 50.046875 50.171875 
Q 54.890625 44.34375 54.890625 33.015625 
z
" id="DejaVuSans-110"/>
      </defs>
      <g style="fill:#555555;" transform="translate(312.812057 533.928252)rotate(-30)scale(0.1 -0.1)">
       <use xlink:href="#DejaVuSans-74"/>
       <use x="29.492188" xlink:href="#DejaVuSans-97"/>
       <use x="90.771484" xlink:href="#DejaVuSans-110"/>
      </g>
      <!-- 2021 -->
      <g style="fill:#555555;" transform="translate(309.72094 548.64303)rotate(-30)scale(0.1 -0.1)">
       <use xlink:href="#DejaVuSans-50"/>
       <use x="63.623047" xlink:href="#DejaVuSans-48"/>
       <use x="127.246094" xlink:href="#DejaVuSans-50"/>
       <use x="190.869141" xlink:href="#DejaVuSans-49"/>
      </g>
     </g>
    </g>
    <g id="xtick_36">
     <g id="line2d_45">
      <g>
       <use style="fill:#555555;stroke:#555555;stroke-width:0.8;" x="401.88262" xlink:href="#m4c16f72f50" y="512.64"/>
      </g>
     </g>
     <g id="text_14">
      <!-- Apr -->
      <g style="fill:#555555;" transform="translate(385.860537 534.87044)rotate(-30)scale(0.1 -0.1)">
       <use xlink:href="#DejaVuSans-65"/>
       <use x="68.408203" xlink:href="#DejaVuSans-112"/>
       <use x="131.884766" xlink:href="#DejaVuSans-114"/>
      </g>
     </g>
    </g>
    <g id="xtick_37">
     <g id="line2d_46">
      <g>
       <use style="fill:#555555;stroke:#555555;stroke-width:0.8;" x="471.731683" xlink:href="#m4c16f72f50" y="512.64"/>
      </g>
     </g>
     <g id="text_15">
      <!-- Jul -->
      <g style="fill:#555555;" transform="translate(460.242701 532.253252)rotate(-30)scale(0.1 -0.1)">
       <use xlink:href="#DejaVuSans-74"/>
       <use x="29.492188" xlink:href="#DejaVuSans-117"/>
       <use x="92.871094" xlink:href="#DejaVuSans-108"/>
      </g>
     </g>
    </g>
    <g id="xtick_38">
     <g id="line2d_47">
      <g>
       <use style="fill:#555555;stroke:#555555;stroke-width:0.8;" x="542.348317" xlink:href="#m4c16f72f50" y="512.64"/>
      </g>
     </g>
     <g id="text_16">
      <!-- Oct -->
      <g style="fill:#555555;" transform="translate(526.334353 534.865752)rotate(-30)scale(0.1 -0.1)">
       <use xlink:href="#DejaVuSans-79"/>
       <use x="78.710938" xlink:href="#DejaVuSans-99"/>
       <use x="133.691406" xlink:href="#DejaVuSans-116"/>
      </g>
     </g>
    </g>
    <g id="xtick_39">
     <g id="line2d_48">
      <g>
       <use style="fill:#555555;stroke:#555555;stroke-width:0.8;" x="612.964952" xlink:href="#m4c16f72f50" y="512.64"/>
      </g>
     </g>
     <g id="text_17">
      <!-- Jan -->
      <g style="fill:#555555;" transform="translate(592.975879 533.928252)rotate(-30)scale(0.1 -0.1)">
       <use xlink:href="#DejaVuSans-74"/>
       <use x="29.492188" xlink:href="#DejaVuSans-97"/>
       <use x="90.771484" xlink:href="#DejaVuSans-110"/>
      </g>
      <!-- 2022 -->
      <g style="fill:#555555;" transform="translate(589.884762 548.64303)rotate(-30)scale(0.1 -0.1)">
       <use xlink:href="#DejaVuSans-50"/>
       <use x="63.623047" xlink:href="#DejaVuSans-48"/>
       <use x="127.246094" xlink:href="#DejaVuSans-50"/>
       <use x="190.869141" xlink:href="#DejaVuSans-50"/>
      </g>
     </g>
    </g>
    <g id="xtick_40">
     <g id="line2d_49">
      <g>
       <use style="fill:#555555;stroke:#555555;stroke-width:0.8;" x="682.046442" xlink:href="#m4c16f72f50" y="512.64"/>
      </g>
     </g>
     <g id="text_18">
      <!-- Apr -->
      <g style="fill:#555555;" transform="translate(666.024359 534.87044)rotate(-30)scale(0.1 -0.1)">
       <use xlink:href="#DejaVuSans-65"/>
       <use x="68.408203" xlink:href="#DejaVuSans-112"/>
       <use x="131.884766" xlink:href="#DejaVuSans-114"/>
      </g>
     </g>
    </g>
    <g id="xtick_41">
     <g id="line2d_50">
      <g>
       <use style="fill:#555555;stroke:#555555;stroke-width:0.8;" x="706.60875" xlink:href="#m4c16f72f50" y="512.64"/>
      </g>
     </g>
    </g>
    <g id="xtick_42">
     <g id="line2d_51">
      <g>
       <use style="fill:#555555;stroke:#555555;stroke-width:0.6;" x="75.664471" xlink:href="#m39d79bfd51" y="512.64"/>
      </g>
     </g>
    </g>
    <g id="xtick_43">
     <g id="line2d_52">
      <g>
       <use style="fill:#555555;stroke:#555555;stroke-width:0.6;" x="97.924063" xlink:href="#m39d79bfd51" y="512.64"/>
      </g>
     </g>
    </g>
    <g id="xtick_44">
     <g id="line2d_53">
      <g>
       <use style="fill:#555555;stroke:#555555;stroke-width:0.6;" x="144.745962" xlink:href="#m39d79bfd51" y="512.64"/>
      </g>
     </g>
    </g>
    <g id="xtick_45">
     <g id="line2d_54">
      <g>
       <use style="fill:#555555;stroke:#555555;stroke-width:0.6;" x="168.540697" xlink:href="#m39d79bfd51" y="512.64"/>
      </g>
     </g>
    </g>
    <g id="xtick_46">
     <g id="line2d_55">
      <g>
       <use style="fill:#555555;stroke:#555555;stroke-width:0.6;" x="215.362596" xlink:href="#m39d79bfd51" y="512.64"/>
      </g>
     </g>
    </g>
    <g id="xtick_47">
     <g id="line2d_56">
      <g>
       <use style="fill:#555555;stroke:#555555;stroke-width:0.6;" x="239.157332" xlink:href="#m39d79bfd51" y="512.64"/>
      </g>
     </g>
    </g>
    <g id="xtick_48">
     <g id="line2d_57">
      <g>
       <use style="fill:#555555;stroke:#555555;stroke-width:0.6;" x="285.979231" xlink:href="#m39d79bfd51" y="512.64"/>
      </g>
     </g>
    </g>
    <g id="xtick_49">
     <g id="line2d_58">
      <g>
       <use style="fill:#555555;stroke:#555555;stroke-width:0.6;" x="309.006394" xlink:href="#m39d79bfd51" y="512.64"/>
      </g>
     </g>
    </g>
    <g id="xtick_50">
     <g id="line2d_59">
      <g>
       <use style="fill:#555555;stroke:#555555;stroke-width:0.6;" x="356.595865" xlink:href="#m39d79bfd51" y="512.64"/>
      </g>
     </g>
    </g>
    <g id="xtick_51">
     <g id="line2d_60">
      <g>
       <use style="fill:#555555;stroke:#555555;stroke-width:0.6;" x="378.087885" xlink:href="#m39d79bfd51" y="512.64"/>
      </g>
     </g>
    </g>
    <g id="xtick_52">
     <g id="line2d_61">
      <g>
       <use style="fill:#555555;stroke:#555555;stroke-width:0.6;" x="424.909784" xlink:href="#m39d79bfd51" y="512.64"/>
      </g>
     </g>
    </g>
    <g id="xtick_53">
     <g id="line2d_62">
      <g>
       <use style="fill:#555555;stroke:#555555;stroke-width:0.6;" x="448.704519" xlink:href="#m39d79bfd51" y="512.64"/>
      </g>
     </g>
    </g>
    <g id="xtick_54">
     <g id="line2d_63">
      <g>
       <use style="fill:#555555;stroke:#555555;stroke-width:0.6;" x="495.526418" xlink:href="#m39d79bfd51" y="512.64"/>
      </g>
     </g>
    </g>
    <g id="xtick_55">
     <g id="line2d_64">
      <g>
       <use style="fill:#555555;stroke:#555555;stroke-width:0.6;" x="519.321154" xlink:href="#m39d79bfd51" y="512.64"/>
      </g>
     </g>
    </g>
    <g id="xtick_56">
     <g id="line2d_65">
      <g>
       <use style="fill:#555555;stroke:#555555;stroke-width:0.6;" x="566.143053" xlink:href="#m39d79bfd51" y="512.64"/>
      </g>
     </g>
    </g>
    <g id="xtick_57">
     <g id="line2d_66">
      <g>
       <use style="fill:#555555;stroke:#555555;stroke-width:0.6;" x="589.170216" xlink:href="#m39d79bfd51" y="512.64"/>
      </g>
     </g>
    </g>
    <g id="xtick_58">
     <g id="line2d_67">
      <g>
       <use style="fill:#555555;stroke:#555555;stroke-width:0.6;" x="636.759687" xlink:href="#m39d79bfd51" y="512.64"/>
      </g>
     </g>
    </g>
    <g id="xtick_59">
     <g id="line2d_68">
      <g>
       <use style="fill:#555555;stroke:#555555;stroke-width:0.6;" x="658.251707" xlink:href="#m39d79bfd51" y="512.64"/>
      </g>
     </g>
    </g>
    <g id="xtick_60">
     <g id="line2d_69">
      <g>
       <use style="fill:#555555;stroke:#555555;stroke-width:0.6;" x="705.073606" xlink:href="#m39d79bfd51" y="512.64"/>
      </g>
     </g>
    </g>
    <g id="text_19">
     <!-- Date -->
     <defs>
      <path d="M 19.671875 64.796875 
L 19.671875 8.109375 
L 31.59375 8.109375 
Q 46.6875 8.109375 53.6875 14.9375 
Q 60.6875 21.78125 60.6875 36.53125 
Q 60.6875 51.171875 53.6875 57.984375 
Q 46.6875 64.796875 31.59375 64.796875 
z
M 9.8125 72.90625 
L 30.078125 72.90625 
Q 51.265625 72.90625 61.171875 64.09375 
Q 71.09375 55.28125 71.09375 36.53125 
Q 71.09375 17.671875 61.125 8.828125 
Q 51.171875 0 30.078125 0 
L 9.8125 0 
z
" id="DejaVuSans-68"/>
     </defs>
     <g style="fill:#555555;" transform="translate(372.957813 563.562217)scale(0.12 -0.12)">
      <use xlink:href="#DejaVuSans-68"/>
      <use x="77.001953" xlink:href="#DejaVuSans-97"/>
      <use x="138.28125" xlink:href="#DejaVuSans-116"/>
      <use x="177.490234" xlink:href="#DejaVuSans-101"/>
     </g>
    </g>
   </g>
   <g id="matplotlib.axis_4">
    <g id="ytick_8">
     <g id="line2d_70">
      <g>
       <use style="fill:#555555;stroke:#555555;stroke-width:0.8;" x="67.98875" xlink:href="#ma627e33641" y="502.378303"/>
      </g>
     </g>
     <g id="text_20">
      <!-- 0 -->
      <g style="fill:#555555;" transform="translate(54.62625 506.177522)scale(0.1 -0.1)">
       <use xlink:href="#DejaVuSans-48"/>
      </g>
     </g>
    </g>
    <g id="ytick_9">
     <g id="line2d_71">
      <g>
       <use style="fill:#555555;stroke:#555555;stroke-width:0.8;" x="67.98875" xlink:href="#ma627e33641" y="461.504308"/>
      </g>
     </g>
     <g id="text_21">
      <!-- 50000 -->
      <g style="fill:#555555;" transform="translate(29.17625 465.303527)scale(0.1 -0.1)">
       <use xlink:href="#DejaVuSans-53"/>
       <use x="63.623047" xlink:href="#DejaVuSans-48"/>
       <use x="127.246094" xlink:href="#DejaVuSans-48"/>
       <use x="190.869141" xlink:href="#DejaVuSans-48"/>
       <use x="254.492188" xlink:href="#DejaVuSans-48"/>
      </g>
     </g>
    </g>
    <g id="ytick_10">
     <g id="line2d_72">
      <g>
       <use style="fill:#555555;stroke:#555555;stroke-width:0.8;" x="67.98875" xlink:href="#ma627e33641" y="420.630313"/>
      </g>
     </g>
     <g id="text_22">
      <!-- 100000 -->
      <g style="fill:#555555;" transform="translate(22.81375 424.429532)scale(0.1 -0.1)">
       <use xlink:href="#DejaVuSans-49"/>
       <use x="63.623047" xlink:href="#DejaVuSans-48"/>
       <use x="127.246094" xlink:href="#DejaVuSans-48"/>
       <use x="190.869141" xlink:href="#DejaVuSans-48"/>
       <use x="254.492188" xlink:href="#DejaVuSans-48"/>
       <use x="318.115234" xlink:href="#DejaVuSans-48"/>
      </g>
     </g>
    </g>
    <g id="ytick_11">
     <g id="line2d_73">
      <g>
       <use style="fill:#555555;stroke:#555555;stroke-width:0.8;" x="67.98875" xlink:href="#ma627e33641" y="379.756318"/>
      </g>
     </g>
     <g id="text_23">
      <!-- 150000 -->
      <g style="fill:#555555;" transform="translate(22.81375 383.555537)scale(0.1 -0.1)">
       <use xlink:href="#DejaVuSans-49"/>
       <use x="63.623047" xlink:href="#DejaVuSans-53"/>
       <use x="127.246094" xlink:href="#DejaVuSans-48"/>
       <use x="190.869141" xlink:href="#DejaVuSans-48"/>
       <use x="254.492188" xlink:href="#DejaVuSans-48"/>
       <use x="318.115234" xlink:href="#DejaVuSans-48"/>
      </g>
     </g>
    </g>
    <g id="ytick_12">
     <g id="line2d_74">
      <g>
       <use style="fill:#555555;stroke:#555555;stroke-width:0.8;" x="67.98875" xlink:href="#ma627e33641" y="338.882323"/>
      </g>
     </g>
     <g id="text_24">
      <!-- 200000 -->
      <g style="fill:#555555;" transform="translate(22.81375 342.681542)scale(0.1 -0.1)">
       <use xlink:href="#DejaVuSans-50"/>
       <use x="63.623047" xlink:href="#DejaVuSans-48"/>
       <use x="127.246094" xlink:href="#DejaVuSans-48"/>
       <use x="190.869141" xlink:href="#DejaVuSans-48"/>
       <use x="254.492188" xlink:href="#DejaVuSans-48"/>
       <use x="318.115234" xlink:href="#DejaVuSans-48"/>
      </g>
     </g>
    </g>
    <g id="ytick_13">
     <g id="line2d_75">
      <g>
       <use style="fill:#555555;stroke:#555555;stroke-width:0.8;" x="67.98875" xlink:href="#ma627e33641" y="298.008328"/>
      </g>
     </g>
     <g id="text_25">
      <!-- 250000 -->
      <g style="fill:#555555;" transform="translate(22.81375 301.807547)scale(0.1 -0.1)">
       <use xlink:href="#DejaVuSans-50"/>
       <use x="63.623047" xlink:href="#DejaVuSans-53"/>
       <use x="127.246094" xlink:href="#DejaVuSans-48"/>
       <use x="190.869141" xlink:href="#DejaVuSans-48"/>
       <use x="254.492188" xlink:href="#DejaVuSans-48"/>
       <use x="318.115234" xlink:href="#DejaVuSans-48"/>
      </g>
     </g>
    </g>
    <g id="text_26">
     <!-- Daily -->
     <defs>
      <path d="M 9.421875 54.6875 
L 18.40625 54.6875 
L 18.40625 0 
L 9.421875 0 
z
M 9.421875 75.984375 
L 18.40625 75.984375 
L 18.40625 64.59375 
L 9.421875 64.59375 
z
" id="DejaVuSans-105"/>
      <path d="M 32.171875 -5.078125 
Q 28.375 -14.84375 24.75 -17.8125 
Q 21.140625 -20.796875 15.09375 -20.796875 
L 7.90625 -20.796875 
L 7.90625 -13.28125 
L 13.1875 -13.28125 
Q 16.890625 -13.28125 18.9375 -11.515625 
Q 21 -9.765625 23.484375 -3.21875 
L 25.09375 0.875 
L 2.984375 54.6875 
L 12.5 54.6875 
L 29.59375 11.921875 
L 46.6875 54.6875 
L 56.203125 54.6875 
z
" id="DejaVuSans-121"/>
     </defs>
     <g style="fill:#555555;" transform="translate(16.318125 414.943211)rotate(-90)scale(0.12 -0.12)">
      <use xlink:href="#DejaVuSans-68"/>
      <use x="77.001953" xlink:href="#DejaVuSans-97"/>
      <use x="138.28125" xlink:href="#DejaVuSans-105"/>
      <use x="166.064453" xlink:href="#DejaVuSans-108"/>
      <use x="193.847656" xlink:href="#DejaVuSans-121"/>
     </g>
    </g>
   </g>
   <g id="line2d_76">
    <path clip-path="url(#p0b0e9f399a)" d="M 68.756322 502.378303 
L 105.599784 502.256849 
L 108.670072 502.063807 
L 110.205216 501.709138 
L 110.972788 501.441471 
L 111.740361 500.967917 
L 113.275505 499.686809 
L 115.578221 496.510783 
L 116.345793 495.410105 
L 118.64851 490.818203 
L 120.183654 488.381763 
L 120.951226 486.548856 
L 121.718798 484.192529 
L 123.253942 480.924828 
L 124.789087 478.152637 
L 125.556659 477.064454 
L 126.324231 476.544187 
L 127.091803 476.666108 
L 127.859375 476.233544 
L 128.626947 475.986081 
L 131.697236 477.423094 
L 133.23238 478.792957 
L 135.535096 479.226805 
L 136.302668 478.889536 
L 137.07024 479.229141 
L 138.605385 478.410727 
L 139.372957 478.492825 
L 140.140529 478.205072 
L 140.908101 478.157775 
L 141.675673 478.87307 
L 142.443245 479.029559 
L 143.210817 479.31229 
L 143.978389 479.820296 
L 144.745962 479.516777 
L 146.281106 480.129887 
L 147.81625 480.090648 
L 149.351394 480.521226 
L 150.118966 481.465649 
L 150.886538 481.724206 
L 152.421683 482.92053 
L 153.189255 483.105397 
L 153.956827 483.590279 
L 154.724399 483.659532 
L 155.491971 483.903841 
L 157.027115 484.076797 
L 157.794687 483.712551 
L 158.56226 483.939227 
L 159.329832 483.671911 
L 160.864976 483.92206 
L 161.632548 484.278014 
L 162.40012 484.079016 
L 163.167692 484.513097 
L 163.935264 484.671572 
L 165.470409 485.558187 
L 166.237981 485.462892 
L 167.005553 485.168366 
L 168.540697 485.438952 
L 170.075841 485.070152 
L 170.843413 485.149914 
L 171.610986 485.041657 
L 172.378558 485.330461 
L 173.14613 485.455535 
L 173.913702 485.432062 
L 174.681274 485.796191 
L 176.216418 485.475155 
L 176.98399 485.537517 
L 177.751562 485.06478 
L 178.519135 484.94426 
L 179.286707 484.68944 
L 181.589423 482.746991 
L 183.892139 480.416239 
L 185.427284 477.410482 
L 186.194856 476.381391 
L 186.962428 475.004405 
L 187.73 473.318995 
L 188.497572 472.259074 
L 189.265144 470.439364 
L 190.800288 468.280516 
L 192.335433 464.513685 
L 193.870577 463.380658 
L 194.638149 462.208392 
L 195.405721 461.997949 
L 196.173293 460.33683 
L 196.940865 459.367533 
L 197.708438 458.682368 
L 199.243582 455.056727 
L 200.011154 454.161003 
L 200.778726 452.314549 
L 202.31387 450.518079 
L 203.081442 448.962064 
L 203.849014 448.470876 
L 206.151731 447.567677 
L 206.919303 447.978286 
L 207.686875 447.692868 
L 208.454447 448.554726 
L 209.222019 448.430702 
L 209.989591 448.152759 
L 211.524736 449.430364 
L 213.05988 449.053622 
L 213.827452 449.16842 
L 214.595024 449.706088 
L 216.130168 451.803625 
L 216.89774 453.12584 
L 217.665313 454.019929 
L 218.432885 456.051484 
L 219.968029 458.097753 
L 220.735601 458.338909 
L 221.503173 458.314502 
L 222.270745 458.069842 
L 223.038317 459.331096 
L 223.805889 459.145178 
L 224.573462 460.084462 
L 225.341034 459.378744 
L 226.876178 460.985676 
L 227.64375 462.264214 
L 228.411322 462.610709 
L 229.946466 464.47503 
L 230.714038 466.403232 
L 232.249183 467.435125 
L 233.016755 467.453109 
L 233.784327 467.998952 
L 234.551899 468.255057 
L 235.319471 468.098568 
L 236.087043 468.329915 
L 238.38976 468.481616 
L 239.157332 468.305975 
L 239.924904 468.790857 
L 240.692476 468.927493 
L 241.460048 468.513498 
L 242.22762 468.471806 
L 242.995192 468.846913 
L 243.762764 470.227403 
L 244.530337 471.917367 
L 246.065481 473.680087 
L 247.600625 474.222077 
L 248.368197 473.850474 
L 249.903341 471.167388 
L 250.670913 470.588028 
L 251.438486 469.529508 
L 252.97363 469.225523 
L 253.741202 468.750917 
L 254.508774 466.702079 
L 256.043918 466.655483 
L 256.81149 466.424953 
L 257.579063 466.54197 
L 258.346635 466.25083 
L 259.114207 466.356752 
L 259.881779 468.544912 
L 260.649351 468.126129 
L 261.416923 468.082686 
L 262.184495 468.252955 
L 262.952067 467.472846 
L 263.719639 467.019378 
L 264.487212 467.22877 
L 265.254784 466.503081 
L 266.022356 466.291938 
L 267.5575 463.422817 
L 268.325072 463.257102 
L 269.092644 462.511677 
L 269.860216 461.317456 
L 270.627788 461.037994 
L 271.395361 460.221449 
L 272.162933 459.205088 
L 272.930505 458.46994 
L 273.698077 456.979207 
L 274.465649 456.766895 
L 275.233221 456.36995 
L 276.000793 453.344107 
L 276.768365 452.208627 
L 277.535938 451.797785 
L 279.071082 448.969889 
L 279.838654 445.934352 
L 280.606226 444.439532 
L 281.373798 444.480289 
L 283.676514 439.138058 
L 284.444087 437.118766 
L 285.211659 436.305257 
L 285.979231 431.317695 
L 286.746803 429.226698 
L 287.514375 423.355674 
L 288.281947 420.41228 
L 289.049519 415.939263 
L 289.817091 412.580005 
L 290.584663 408.170868 
L 291.352236 406.976881 
L 292.119808 402.858534 
L 292.88738 401.295979 
L 293.654952 396.388998 
L 294.422524 392.244958 
L 295.190096 386.127406 
L 295.957668 381.419773 
L 296.72524 378.949582 
L 297.492813 374.00126 
L 299.027957 368.164803 
L 299.795529 365.04565 
L 300.563101 362.954303 
L 303.633389 357.679339 
L 304.400962 356.498664 
L 305.168534 365.750902 
L 305.936106 364.595803 
L 306.703678 367.368344 
L 307.47125 368.133272 
L 308.238822 369.754101 
L 309.006394 368.270375 
L 309.773966 366.01997 
L 310.541538 353.02309 
L 311.309111 350.150583 
L 312.076683 343.142561 
L 312.844255 338.38039 
L 314.379399 330.140076 
L 315.146971 327.806521 
L 316.682115 326.043801 
L 317.449688 325.805214 
L 318.21726 325.02382 
L 318.984832 325.028141 
L 319.752404 326.83664 
L 320.519976 324.01505 
L 321.287548 323.056262 
L 322.05512 321.655803 
L 322.822692 324.654669 
L 323.590264 324.641122 
L 324.357837 324.147365 
L 325.125409 325.431392 
L 325.892981 327.426276 
L 326.660553 332.742348 
L 327.428125 350.764627 
L 328.195697 346.749399 
L 328.963269 350.507938 
L 329.730841 353.359191 
L 330.498413 353.097481 
L 331.265986 352.622642 
L 332.033558 347.780475 
L 332.80113 341.242738 
L 333.568702 332.598238 
L 334.336274 326.395785 
L 335.103846 325.269064 
L 335.871418 321.198131 
L 336.63899 318.656936 
L 337.406563 313.679301 
L 338.174135 297.144368 
L 338.941707 301.770721 
L 339.709279 301.244964 
L 340.476851 297.65833 
L 341.244423 298.614898 
L 342.011995 301.544045 
L 342.779567 306.517009 
L 344.314712 319.538179 
L 345.082284 323.68 
L 345.849856 332.039082 
L 347.385 343.406724 
L 348.152572 348.29864 
L 348.920144 354.368779 
L 349.687716 357.996872 
L 350.455288 363.452966 
L 351.222861 362.454122 
L 353.525577 372.224759 
L 354.293149 375.049152 
L 355.060721 378.354223 
L 356.595865 382.538786 
L 358.13101 390.072564 
L 358.898582 395.285166 
L 359.666154 399.042187 
L 360.433726 403.51789 
L 361.201298 406.127869 
L 361.96887 411.369901 
L 362.736442 413.67064 
L 363.504014 416.761181 
L 364.271587 418.88838 
L 365.039159 422.947635 
L 365.806731 424.917178 
L 366.574303 427.793189 
L 368.109447 435.85611 
L 368.877019 438.782571 
L 369.644591 442.967601 
L 370.412163 445.343081 
L 371.179736 447.164543 
L 371.947308 448.091915 
L 372.71488 447.854379 
L 373.482452 446.739804 
L 374.250024 446.200968 
L 375.017596 445.316104 
L 375.785168 445.543947 
L 377.320312 447.023936 
L 378.087885 446.78932 
L 378.855457 448.564769 
L 379.623029 449.445195 
L 382.693317 453.773985 
L 383.460889 455.314701 
L 384.228462 455.246733 
L 384.996034 456.32966 
L 387.29875 458.172027 
L 388.066322 458.497384 
L 388.833894 457.139199 
L 389.601466 457.569544 
L 390.369038 457.427536 
L 391.136611 457.653627 
L 391.904183 457.641249 
L 392.671755 457.356065 
L 394.206899 458.468538 
L 394.974471 458.509879 
L 395.742043 455.260513 
L 396.509615 454.451559 
L 397.277187 452.619002 
L 398.04476 451.763451 
L 398.812332 450.673984 
L 399.579904 448.591045 
L 400.347476 447.698124 
L 401.115048 450.024555 
L 401.88262 448.672209 
L 402.650192 449.546913 
L 403.417764 449.504054 
L 404.185337 450.452914 
L 404.952909 449.489456 
L 405.720481 449.571788 
L 406.488053 448.637642 
L 407.255625 448.540362 
L 408.023197 447.037717 
L 408.790769 446.632714 
L 409.558341 445.300455 
L 410.325913 446.170371 
L 411.093486 444.146057 
L 411.861058 444.106701 
L 412.62863 444.7594 
L 413.396202 445.075531 
L 414.163774 446.72941 
L 414.931346 447.238817 
L 415.698918 447.507067 
L 416.46649 449.446246 
L 417.234062 450.908134 
L 418.001635 451.729351 
L 418.769207 453.783794 
L 419.536779 453.668179 
L 420.304351 454.830519 
L 421.071923 457.194437 
L 421.839495 458.410964 
L 423.374639 460.371748 
L 424.142212 460.894585 
L 424.909784 461.835855 
L 425.677356 462.150935 
L 426.444928 461.815885 
L 427.2125 462.998078 
L 427.2125 462.998078 
" style="fill:none;stroke:#e24a33;stroke-linecap:square;stroke-width:1.5;"/>
   </g>
   <g id="line2d_77">
    <path clip-path="url(#p0b0e9f399a)" d="M 427.980072 462.939405 
L 429.515216 471.009176 
L 431.050361 477.458602 
L 432.585505 482.601503 
L 434.120649 486.695274 
L 435.655793 489.949346 
L 437.190938 492.533071 
L 438.726082 494.582729 
L 440.261226 496.207577 
L 441.79637 497.494947 
L 443.331514 498.514486 
L 444.866659 499.321635 
L 447.169375 500.227994 
L 449.472091 500.865892 
L 452.54238 501.432487 
L 456.38024 501.852422 
L 460.985673 502.11834 
L 468.661394 502.297975 
L 484.012837 502.370635 
L 590.705361 502.378303 
L 706.60875 502.378303 
L 706.60875 502.378303 
" style="fill:none;stroke:#348abd;stroke-linecap:square;stroke-width:1.5;"/>
   </g>
   <g id="patch_8">
    <path d="M 67.98875 512.64 
L 67.98875 286.882672 
" style="fill:none;stroke:#ffffff;stroke-linecap:square;stroke-linejoin:miter;"/>
   </g>
   <g id="patch_9">
    <path d="M 706.60875 512.64 
L 706.60875 286.882672 
" style="fill:none;stroke:#ffffff;stroke-linecap:square;stroke-linejoin:miter;"/>
   </g>
   <g id="patch_10">
    <path d="M 67.98875 512.64 
L 706.60875 512.64 
" style="fill:none;stroke:#ffffff;stroke-linecap:square;stroke-linejoin:miter;"/>
   </g>
   <g id="patch_11">
    <path d="M 67.98875 286.882672 
L 706.60875 286.882672 
" style="fill:none;stroke:#ffffff;stroke-linecap:square;stroke-linejoin:miter;"/>
   </g>
   <g id="legend_1">
    <g id="patch_12">
     <path d="M 496.715 324.238922 
L 699.60875 324.238922 
Q 701.60875 324.238922 701.60875 322.238922 
L 701.60875 293.882672 
Q 701.60875 291.882672 699.60875 291.882672 
L 496.715 291.882672 
Q 494.715 291.882672 494.715 293.882672 
L 494.715 322.238922 
Q 494.715 324.238922 496.715 324.238922 
z
" style="fill:#e5e5e5;opacity:0.8;stroke:#cccccc;stroke-linejoin:miter;stroke-width:0.5;"/>
    </g>
    <g id="line2d_78">
     <path d="M 498.715 299.981109 
L 518.715 299.981109 
" style="fill:none;stroke:#e24a33;stroke-linecap:square;stroke-width:1.5;"/>
    </g>
    <g id="line2d_79"/>
    <g id="text_27">
     <!-- Cases -->
     <defs>
      <path d="M 64.40625 67.28125 
L 64.40625 56.890625 
Q 59.421875 61.53125 53.78125 63.8125 
Q 48.140625 66.109375 41.796875 66.109375 
Q 29.296875 66.109375 22.65625 58.46875 
Q 16.015625 50.828125 16.015625 36.375 
Q 16.015625 21.96875 22.65625 14.328125 
Q 29.296875 6.6875 41.796875 6.6875 
Q 48.140625 6.6875 53.78125 8.984375 
Q 59.421875 11.28125 64.40625 15.921875 
L 64.40625 5.609375 
Q 59.234375 2.09375 53.4375 0.328125 
Q 47.65625 -1.421875 41.21875 -1.421875 
Q 24.65625 -1.421875 15.125 8.703125 
Q 5.609375 18.84375 5.609375 36.375 
Q 5.609375 53.953125 15.125 64.078125 
Q 24.65625 74.21875 41.21875 74.21875 
Q 47.75 74.21875 53.53125 72.484375 
Q 59.328125 70.75 64.40625 67.28125 
z
" id="DejaVuSans-67"/>
      <path d="M 44.28125 53.078125 
L 44.28125 44.578125 
Q 40.484375 46.53125 36.375 47.5 
Q 32.28125 48.484375 27.875 48.484375 
Q 21.1875 48.484375 17.84375 46.4375 
Q 14.5 44.390625 14.5 40.28125 
Q 14.5 37.15625 16.890625 35.375 
Q 19.28125 33.59375 26.515625 31.984375 
L 29.59375 31.296875 
Q 39.15625 29.25 43.1875 25.515625 
Q 47.21875 21.78125 47.21875 15.09375 
Q 47.21875 7.46875 41.1875 3.015625 
Q 35.15625 -1.421875 24.609375 -1.421875 
Q 20.21875 -1.421875 15.453125 -0.5625 
Q 10.6875 0.296875 5.421875 2 
L 5.421875 11.28125 
Q 10.40625 8.6875 15.234375 7.390625 
Q 20.0625 6.109375 24.8125 6.109375 
Q 31.15625 6.109375 34.5625 8.28125 
Q 37.984375 10.453125 37.984375 14.40625 
Q 37.984375 18.0625 35.515625 20.015625 
Q 33.0625 21.96875 24.703125 23.78125 
L 21.578125 24.515625 
Q 13.234375 26.265625 9.515625 29.90625 
Q 5.8125 33.546875 5.8125 39.890625 
Q 5.8125 47.609375 11.28125 51.796875 
Q 16.75 56 26.8125 56 
Q 31.78125 56 36.171875 55.265625 
Q 40.578125 54.546875 44.28125 53.078125 
z
" id="DejaVuSans-115"/>
     </defs>
     <g transform="translate(526.715 303.481109)scale(0.1 -0.1)">
      <use xlink:href="#DejaVuSans-67"/>
      <use x="69.824219" xlink:href="#DejaVuSans-97"/>
      <use x="131.103516" xlink:href="#DejaVuSans-115"/>
      <use x="183.203125" xlink:href="#DejaVuSans-101"/>
      <use x="244.726562" xlink:href="#DejaVuSans-115"/>
     </g>
    </g>
    <g id="line2d_80">
     <path d="M 498.715 314.659234 
L 518.715 314.659234 
" style="fill:none;stroke:#348abd;stroke-linecap:square;stroke-width:1.5;"/>
    </g>
    <g id="line2d_81"/>
    <g id="text_28">
     <!-- Projected Cases (last 1D avg rate) -->
     <defs>
      <path d="M 19.671875 64.796875 
L 19.671875 37.40625 
L 32.078125 37.40625 
Q 38.96875 37.40625 42.71875 40.96875 
Q 46.484375 44.53125 46.484375 51.125 
Q 46.484375 57.671875 42.71875 61.234375 
Q 38.96875 64.796875 32.078125 64.796875 
z
M 9.8125 72.90625 
L 32.078125 72.90625 
Q 44.34375 72.90625 50.609375 67.359375 
Q 56.890625 61.8125 56.890625 51.125 
Q 56.890625 40.328125 50.609375 34.8125 
Q 44.34375 29.296875 32.078125 29.296875 
L 19.671875 29.296875 
L 19.671875 0 
L 9.8125 0 
z
" id="DejaVuSans-80"/>
      <path d="M 9.421875 54.6875 
L 18.40625 54.6875 
L 18.40625 -0.984375 
Q 18.40625 -11.421875 14.421875 -16.109375 
Q 10.453125 -20.796875 1.609375 -20.796875 
L -1.8125 -20.796875 
L -1.8125 -13.1875 
L 0.59375 -13.1875 
Q 5.71875 -13.1875 7.5625 -10.8125 
Q 9.421875 -8.453125 9.421875 -0.984375 
z
M 9.421875 75.984375 
L 18.40625 75.984375 
L 18.40625 64.59375 
L 9.421875 64.59375 
z
" id="DejaVuSans-106"/>
      <path d="M 45.40625 46.390625 
L 45.40625 75.984375 
L 54.390625 75.984375 
L 54.390625 0 
L 45.40625 0 
L 45.40625 8.203125 
Q 42.578125 3.328125 38.25 0.953125 
Q 33.9375 -1.421875 27.875 -1.421875 
Q 17.96875 -1.421875 11.734375 6.484375 
Q 5.515625 14.40625 5.515625 27.296875 
Q 5.515625 40.1875 11.734375 48.09375 
Q 17.96875 56 27.875 56 
Q 33.9375 56 38.25 53.625 
Q 42.578125 51.265625 45.40625 46.390625 
z
M 14.796875 27.296875 
Q 14.796875 17.390625 18.875 11.75 
Q 22.953125 6.109375 30.078125 6.109375 
Q 37.203125 6.109375 41.296875 11.75 
Q 45.40625 17.390625 45.40625 27.296875 
Q 45.40625 37.203125 41.296875 42.84375 
Q 37.203125 48.484375 30.078125 48.484375 
Q 22.953125 48.484375 18.875 42.84375 
Q 14.796875 37.203125 14.796875 27.296875 
z
" id="DejaVuSans-100"/>
      <path id="DejaVuSans-32"/>
      <path d="M 31 75.875 
Q 24.46875 64.65625 21.28125 53.65625 
Q 18.109375 42.671875 18.109375 31.390625 
Q 18.109375 20.125 21.3125 9.0625 
Q 24.515625 -2 31 -13.1875 
L 23.1875 -13.1875 
Q 15.875 -1.703125 12.234375 9.375 
Q 8.59375 20.453125 8.59375 31.390625 
Q 8.59375 42.28125 12.203125 53.3125 
Q 15.828125 64.359375 23.1875 75.875 
z
" id="DejaVuSans-40"/>
      <path d="M 2.984375 54.6875 
L 12.5 54.6875 
L 29.59375 8.796875 
L 46.6875 54.6875 
L 56.203125 54.6875 
L 35.6875 0 
L 23.484375 0 
z
" id="DejaVuSans-118"/>
      <path d="M 45.40625 27.984375 
Q 45.40625 37.75 41.375 43.109375 
Q 37.359375 48.484375 30.078125 48.484375 
Q 22.859375 48.484375 18.828125 43.109375 
Q 14.796875 37.75 14.796875 27.984375 
Q 14.796875 18.265625 18.828125 12.890625 
Q 22.859375 7.515625 30.078125 7.515625 
Q 37.359375 7.515625 41.375 12.890625 
Q 45.40625 18.265625 45.40625 27.984375 
z
M 54.390625 6.78125 
Q 54.390625 -7.171875 48.1875 -13.984375 
Q 42 -20.796875 29.203125 -20.796875 
Q 24.46875 -20.796875 20.265625 -20.09375 
Q 16.0625 -19.390625 12.109375 -17.921875 
L 12.109375 -9.1875 
Q 16.0625 -11.328125 19.921875 -12.34375 
Q 23.78125 -13.375 27.78125 -13.375 
Q 36.625 -13.375 41.015625 -8.765625 
Q 45.40625 -4.15625 45.40625 5.171875 
L 45.40625 9.625 
Q 42.625 4.78125 38.28125 2.390625 
Q 33.9375 0 27.875 0 
Q 17.828125 0 11.671875 7.65625 
Q 5.515625 15.328125 5.515625 27.984375 
Q 5.515625 40.671875 11.671875 48.328125 
Q 17.828125 56 27.875 56 
Q 33.9375 56 38.28125 53.609375 
Q 42.625 51.21875 45.40625 46.390625 
L 45.40625 54.6875 
L 54.390625 54.6875 
z
" id="DejaVuSans-103"/>
      <path d="M 8.015625 75.875 
L 15.828125 75.875 
Q 23.140625 64.359375 26.78125 53.3125 
Q 30.421875 42.28125 30.421875 31.390625 
Q 30.421875 20.453125 26.78125 9.375 
Q 23.140625 -1.703125 15.828125 -13.1875 
L 8.015625 -13.1875 
Q 14.5 -2 17.703125 9.0625 
Q 20.90625 20.125 20.90625 31.390625 
Q 20.90625 42.671875 17.703125 53.65625 
Q 14.5 64.65625 8.015625 75.875 
z
" id="DejaVuSans-41"/>
     </defs>
     <g transform="translate(526.715 318.159234)scale(0.1 -0.1)">
      <use xlink:href="#DejaVuSans-80"/>
      <use x="58.552734" xlink:href="#DejaVuSans-114"/>
      <use x="97.416016" xlink:href="#DejaVuSans-111"/>
      <use x="158.597656" xlink:href="#DejaVuSans-106"/>
      <use x="186.380859" xlink:href="#DejaVuSans-101"/>
      <use x="247.904297" xlink:href="#DejaVuSans-99"/>
      <use x="302.884766" xlink:href="#DejaVuSans-116"/>
      <use x="342.09375" xlink:href="#DejaVuSans-101"/>
      <use x="403.617188" xlink:href="#DejaVuSans-100"/>
      <use x="467.09375" xlink:href="#DejaVuSans-32"/>
      <use x="498.880859" xlink:href="#DejaVuSans-67"/>
      <use x="568.705078" xlink:href="#DejaVuSans-97"/>
      <use x="629.984375" xlink:href="#DejaVuSans-115"/>
      <use x="682.083984" xlink:href="#DejaVuSans-101"/>
      <use x="743.607422" xlink:href="#DejaVuSans-115"/>
      <use x="795.707031" xlink:href="#DejaVuSans-32"/>
      <use x="827.494141" xlink:href="#DejaVuSans-40"/>
      <use x="866.507812" xlink:href="#DejaVuSans-108"/>
      <use x="894.291016" xlink:href="#DejaVuSans-97"/>
      <use x="955.570312" xlink:href="#DejaVuSans-115"/>
      <use x="1007.669922" xlink:href="#DejaVuSans-116"/>
      <use x="1046.878906" xlink:href="#DejaVuSans-32"/>
      <use x="1078.666016" xlink:href="#DejaVuSans-49"/>
      <use x="1142.289062" xlink:href="#DejaVuSans-68"/>
      <use x="1219.291016" xlink:href="#DejaVuSans-32"/>
      <use x="1251.078125" xlink:href="#DejaVuSans-97"/>
      <use x="1312.357422" xlink:href="#DejaVuSans-118"/>
      <use x="1371.537109" xlink:href="#DejaVuSans-103"/>
      <use x="1435.013672" xlink:href="#DejaVuSans-32"/>
      <use x="1466.800781" xlink:href="#DejaVuSans-114"/>
      <use x="1507.914062" xlink:href="#DejaVuSans-97"/>
      <use x="1569.193359" xlink:href="#DejaVuSans-116"/>
      <use x="1608.402344" xlink:href="#DejaVuSans-101"/>
      <use x="1669.925781" xlink:href="#DejaVuSans-41"/>
     </g>
    </g>
   </g>
  </g>
  <g id="text_29">
   <!-- COVID-19 spread projection using Logistic map -->
   <defs>
    <path d="M 28.609375 0 
L 0.78125 72.90625 
L 11.078125 72.90625 
L 34.1875 11.53125 
L 57.328125 72.90625 
L 67.578125 72.90625 
L 39.796875 0 
z
" id="DejaVuSans-86"/>
    <path d="M 9.8125 72.90625 
L 19.671875 72.90625 
L 19.671875 0 
L 9.8125 0 
z
" id="DejaVuSans-73"/>
    <path d="M 4.890625 31.390625 
L 31.203125 31.390625 
L 31.203125 23.390625 
L 4.890625 23.390625 
z
" id="DejaVuSans-45"/>
    <path d="M 10.984375 1.515625 
L 10.984375 10.5 
Q 14.703125 8.734375 18.5 7.8125 
Q 22.3125 6.890625 25.984375 6.890625 
Q 35.75 6.890625 40.890625 13.453125 
Q 46.046875 20.015625 46.78125 33.40625 
Q 43.953125 29.203125 39.59375 26.953125 
Q 35.25 24.703125 29.984375 24.703125 
Q 19.046875 24.703125 12.671875 31.3125 
Q 6.296875 37.9375 6.296875 49.421875 
Q 6.296875 60.640625 12.9375 67.421875 
Q 19.578125 74.21875 30.609375 74.21875 
Q 43.265625 74.21875 49.921875 64.515625 
Q 56.59375 54.828125 56.59375 36.375 
Q 56.59375 19.140625 48.40625 8.859375 
Q 40.234375 -1.421875 26.421875 -1.421875 
Q 22.703125 -1.421875 18.890625 -0.6875 
Q 15.09375 0.046875 10.984375 1.515625 
z
M 30.609375 32.421875 
Q 37.25 32.421875 41.125 36.953125 
Q 45.015625 41.5 45.015625 49.421875 
Q 45.015625 57.28125 41.125 61.84375 
Q 37.25 66.40625 30.609375 66.40625 
Q 23.96875 66.40625 20.09375 61.84375 
Q 16.21875 57.28125 16.21875 49.421875 
Q 16.21875 41.5 20.09375 36.953125 
Q 23.96875 32.421875 30.609375 32.421875 
z
" id="DejaVuSans-57"/>
    <path d="M 9.8125 72.90625 
L 19.671875 72.90625 
L 19.671875 8.296875 
L 55.171875 8.296875 
L 55.171875 0 
L 9.8125 0 
z
" id="DejaVuSans-76"/>
    <path d="M 52 44.1875 
Q 55.375 50.25 60.0625 53.125 
Q 64.75 56 71.09375 56 
Q 79.640625 56 84.28125 50.015625 
Q 88.921875 44.046875 88.921875 33.015625 
L 88.921875 0 
L 79.890625 0 
L 79.890625 32.71875 
Q 79.890625 40.578125 77.09375 44.375 
Q 74.3125 48.1875 68.609375 48.1875 
Q 61.625 48.1875 57.5625 43.546875 
Q 53.515625 38.921875 53.515625 30.90625 
L 53.515625 0 
L 44.484375 0 
L 44.484375 32.71875 
Q 44.484375 40.625 41.703125 44.40625 
Q 38.921875 48.1875 33.109375 48.1875 
Q 26.21875 48.1875 22.15625 43.53125 
Q 18.109375 38.875 18.109375 30.90625 
L 18.109375 0 
L 9.078125 0 
L 9.078125 54.6875 
L 18.109375 54.6875 
L 18.109375 46.1875 
Q 21.1875 51.21875 25.484375 53.609375 
Q 29.78125 56 35.6875 56 
Q 41.65625 56 45.828125 52.96875 
Q 50 49.953125 52 44.1875 
z
" id="DejaVuSans-109"/>
   </defs>
   <g transform="translate(216 16.318125)scale(0.12 -0.12)">
    <use xlink:href="#DejaVuSans-67"/>
    <use x="69.824219" xlink:href="#DejaVuSans-79"/>
    <use x="146.785156" xlink:href="#DejaVuSans-86"/>
    <use x="215.193359" xlink:href="#DejaVuSans-73"/>
    <use x="244.685547" xlink:href="#DejaVuSans-68"/>
    <use x="321.6875" xlink:href="#DejaVuSans-45"/>
    <use x="357.771484" xlink:href="#DejaVuSans-49"/>
    <use x="421.394531" xlink:href="#DejaVuSans-57"/>
    <use x="485.017578" xlink:href="#DejaVuSans-32"/>
    <use x="516.804688" xlink:href="#DejaVuSans-115"/>
    <use x="568.904297" xlink:href="#DejaVuSans-112"/>
    <use x="632.380859" xlink:href="#DejaVuSans-114"/>
    <use x="671.244141" xlink:href="#DejaVuSans-101"/>
    <use x="732.767578" xlink:href="#DejaVuSans-97"/>
    <use x="794.046875" xlink:href="#DejaVuSans-100"/>
    <use x="857.523438" xlink:href="#DejaVuSans-32"/>
    <use x="889.310547" xlink:href="#DejaVuSans-112"/>
    <use x="952.787109" xlink:href="#DejaVuSans-114"/>
    <use x="991.650391" xlink:href="#DejaVuSans-111"/>
    <use x="1052.832031" xlink:href="#DejaVuSans-106"/>
    <use x="1080.615234" xlink:href="#DejaVuSans-101"/>
    <use x="1142.138672" xlink:href="#DejaVuSans-99"/>
    <use x="1197.119141" xlink:href="#DejaVuSans-116"/>
    <use x="1236.328125" xlink:href="#DejaVuSans-105"/>
    <use x="1264.111328" xlink:href="#DejaVuSans-111"/>
    <use x="1325.292969" xlink:href="#DejaVuSans-110"/>
    <use x="1388.671875" xlink:href="#DejaVuSans-32"/>
    <use x="1420.458984" xlink:href="#DejaVuSans-117"/>
    <use x="1483.837891" xlink:href="#DejaVuSans-115"/>
    <use x="1535.9375" xlink:href="#DejaVuSans-105"/>
    <use x="1563.720703" xlink:href="#DejaVuSans-110"/>
    <use x="1627.099609" xlink:href="#DejaVuSans-103"/>
    <use x="1690.576172" xlink:href="#DejaVuSans-32"/>
    <use x="1722.363281" xlink:href="#DejaVuSans-76"/>
    <use x="1776.326172" xlink:href="#DejaVuSans-111"/>
    <use x="1837.507812" xlink:href="#DejaVuSans-103"/>
    <use x="1900.984375" xlink:href="#DejaVuSans-105"/>
    <use x="1928.767578" xlink:href="#DejaVuSans-115"/>
    <use x="1980.867188" xlink:href="#DejaVuSans-116"/>
    <use x="2020.076172" xlink:href="#DejaVuSans-105"/>
    <use x="2047.859375" xlink:href="#DejaVuSans-99"/>
    <use x="2102.839844" xlink:href="#DejaVuSans-32"/>
    <use x="2134.626953" xlink:href="#DejaVuSans-109"/>
    <use x="2232.039062" xlink:href="#DejaVuSans-97"/>
    <use x="2293.318359" xlink:href="#DejaVuSans-112"/>
   </g>
   <!-- assuming a carrying capacity of K=329M people and dt=4D tick time. -->
   <defs>
    <path d="M 37.109375 75.984375 
L 37.109375 68.5 
L 28.515625 68.5 
Q 23.6875 68.5 21.796875 66.546875 
Q 19.921875 64.59375 19.921875 59.515625 
L 19.921875 54.6875 
L 34.71875 54.6875 
L 34.71875 47.703125 
L 19.921875 47.703125 
L 19.921875 0 
L 10.890625 0 
L 10.890625 47.703125 
L 2.296875 47.703125 
L 2.296875 54.6875 
L 10.890625 54.6875 
L 10.890625 58.5 
Q 10.890625 67.625 15.140625 71.796875 
Q 19.390625 75.984375 28.609375 75.984375 
z
" id="DejaVuSans-102"/>
    <path d="M 9.8125 72.90625 
L 19.671875 72.90625 
L 19.671875 42.09375 
L 52.390625 72.90625 
L 65.09375 72.90625 
L 28.90625 38.921875 
L 67.671875 0 
L 54.6875 0 
L 19.671875 35.109375 
L 19.671875 0 
L 9.8125 0 
z
" id="DejaVuSans-75"/>
    <path d="M 10.59375 45.40625 
L 73.1875 45.40625 
L 73.1875 37.203125 
L 10.59375 37.203125 
z
M 10.59375 25.484375 
L 73.1875 25.484375 
L 73.1875 17.1875 
L 10.59375 17.1875 
z
" id="DejaVuSans-61"/>
    <path d="M 9.8125 72.90625 
L 24.515625 72.90625 
L 43.109375 23.296875 
L 61.8125 72.90625 
L 76.515625 72.90625 
L 76.515625 0 
L 66.890625 0 
L 66.890625 64.015625 
L 48.09375 14.015625 
L 38.1875 14.015625 
L 19.390625 64.015625 
L 19.390625 0 
L 9.8125 0 
z
" id="DejaVuSans-77"/>
    <path d="M 37.796875 64.3125 
L 12.890625 25.390625 
L 37.796875 25.390625 
z
M 35.203125 72.90625 
L 47.609375 72.90625 
L 47.609375 25.390625 
L 58.015625 25.390625 
L 58.015625 17.1875 
L 47.609375 17.1875 
L 47.609375 0 
L 37.796875 0 
L 37.796875 17.1875 
L 4.890625 17.1875 
L 4.890625 26.703125 
z
" id="DejaVuSans-52"/>
    <path d="M 9.078125 75.984375 
L 18.109375 75.984375 
L 18.109375 31.109375 
L 44.921875 54.6875 
L 56.390625 54.6875 
L 27.390625 29.109375 
L 57.625 0 
L 45.90625 0 
L 18.109375 26.703125 
L 18.109375 0 
L 9.078125 0 
z
" id="DejaVuSans-107"/>
   </defs>
   <g transform="translate(146.959688 29.7555)scale(0.12 -0.12)">
    <use xlink:href="#DejaVuSans-97"/>
    <use x="61.279297" xlink:href="#DejaVuSans-115"/>
    <use x="113.378906" xlink:href="#DejaVuSans-115"/>
    <use x="165.478516" xlink:href="#DejaVuSans-117"/>
    <use x="228.857422" xlink:href="#DejaVuSans-109"/>
    <use x="326.269531" xlink:href="#DejaVuSans-105"/>
    <use x="354.052734" xlink:href="#DejaVuSans-110"/>
    <use x="417.431641" xlink:href="#DejaVuSans-103"/>
    <use x="480.908203" xlink:href="#DejaVuSans-32"/>
    <use x="512.695312" xlink:href="#DejaVuSans-97"/>
    <use x="573.974609" xlink:href="#DejaVuSans-32"/>
    <use x="605.761719" xlink:href="#DejaVuSans-99"/>
    <use x="660.742188" xlink:href="#DejaVuSans-97"/>
    <use x="722.021484" xlink:href="#DejaVuSans-114"/>
    <use x="761.384766" xlink:href="#DejaVuSans-114"/>
    <use x="802.498047" xlink:href="#DejaVuSans-121"/>
    <use x="861.677734" xlink:href="#DejaVuSans-105"/>
    <use x="889.460938" xlink:href="#DejaVuSans-110"/>
    <use x="952.839844" xlink:href="#DejaVuSans-103"/>
    <use x="1016.316406" xlink:href="#DejaVuSans-32"/>
    <use x="1048.103516" xlink:href="#DejaVuSans-99"/>
    <use x="1103.083984" xlink:href="#DejaVuSans-97"/>
    <use x="1164.363281" xlink:href="#DejaVuSans-112"/>
    <use x="1227.839844" xlink:href="#DejaVuSans-97"/>
    <use x="1289.119141" xlink:href="#DejaVuSans-99"/>
    <use x="1344.099609" xlink:href="#DejaVuSans-105"/>
    <use x="1371.882812" xlink:href="#DejaVuSans-116"/>
    <use x="1411.091797" xlink:href="#DejaVuSans-121"/>
    <use x="1470.271484" xlink:href="#DejaVuSans-32"/>
    <use x="1502.058594" xlink:href="#DejaVuSans-111"/>
    <use x="1563.240234" xlink:href="#DejaVuSans-102"/>
    <use x="1598.445312" xlink:href="#DejaVuSans-32"/>
    <use x="1630.232422" xlink:href="#DejaVuSans-75"/>
    <use x="1695.808594" xlink:href="#DejaVuSans-61"/>
    <use x="1779.597656" xlink:href="#DejaVuSans-51"/>
    <use x="1843.220703" xlink:href="#DejaVuSans-50"/>
    <use x="1906.84375" xlink:href="#DejaVuSans-57"/>
    <use x="1970.466797" xlink:href="#DejaVuSans-77"/>
    <use x="2056.746094" xlink:href="#DejaVuSans-32"/>
    <use x="2088.533203" xlink:href="#DejaVuSans-112"/>
    <use x="2152.009766" xlink:href="#DejaVuSans-101"/>
    <use x="2213.533203" xlink:href="#DejaVuSans-111"/>
    <use x="2274.714844" xlink:href="#DejaVuSans-112"/>
    <use x="2338.191406" xlink:href="#DejaVuSans-108"/>
    <use x="2365.974609" xlink:href="#DejaVuSans-101"/>
    <use x="2427.498047" xlink:href="#DejaVuSans-32"/>
    <use x="2459.285156" xlink:href="#DejaVuSans-97"/>
    <use x="2520.564453" xlink:href="#DejaVuSans-110"/>
    <use x="2583.943359" xlink:href="#DejaVuSans-100"/>
    <use x="2647.419922" xlink:href="#DejaVuSans-32"/>
    <use x="2679.207031" xlink:href="#DejaVuSans-100"/>
    <use x="2742.683594" xlink:href="#DejaVuSans-116"/>
    <use x="2781.892578" xlink:href="#DejaVuSans-61"/>
    <use x="2865.681641" xlink:href="#DejaVuSans-52"/>
    <use x="2929.304688" xlink:href="#DejaVuSans-68"/>
    <use x="3006.306641" xlink:href="#DejaVuSans-32"/>
    <use x="3038.09375" xlink:href="#DejaVuSans-116"/>
    <use x="3077.302734" xlink:href="#DejaVuSans-105"/>
    <use x="3105.085938" xlink:href="#DejaVuSans-99"/>
    <use x="3160.066406" xlink:href="#DejaVuSans-107"/>
    <use x="3217.976562" xlink:href="#DejaVuSans-32"/>
    <use x="3249.763672" xlink:href="#DejaVuSans-116"/>
    <use x="3288.972656" xlink:href="#DejaVuSans-105"/>
    <use x="3316.755859" xlink:href="#DejaVuSans-109"/>
    <use x="3414.167969" xlink:href="#DejaVuSans-101"/>
    <use x="3475.691406" xlink:href="#DejaVuSans-46"/>
   </g>
   <!-- created: 2021-05-04 author: @pschwede, source: JHU CSSE via @entorb &amp; @pomber. -->
   <defs>
    <path d="M 11.71875 12.40625 
L 22.015625 12.40625 
L 22.015625 0 
L 11.71875 0 
z
M 11.71875 51.703125 
L 22.015625 51.703125 
L 22.015625 39.3125 
L 11.71875 39.3125 
z
" id="DejaVuSans-58"/>
    <path d="M 54.890625 33.015625 
L 54.890625 0 
L 45.90625 0 
L 45.90625 32.71875 
Q 45.90625 40.484375 42.875 44.328125 
Q 39.84375 48.1875 33.796875 48.1875 
Q 26.515625 48.1875 22.3125 43.546875 
Q 18.109375 38.921875 18.109375 30.90625 
L 18.109375 0 
L 9.078125 0 
L 9.078125 75.984375 
L 18.109375 75.984375 
L 18.109375 46.1875 
Q 21.34375 51.125 25.703125 53.5625 
Q 30.078125 56 35.796875 56 
Q 45.21875 56 50.046875 50.171875 
Q 54.890625 44.34375 54.890625 33.015625 
z
" id="DejaVuSans-104"/>
    <path d="M 37.203125 26.21875 
Q 37.203125 19.234375 40.671875 15.25 
Q 44.140625 11.28125 50.203125 11.28125 
Q 56.203125 11.28125 59.640625 15.28125 
Q 63.09375 19.28125 63.09375 26.21875 
Q 63.09375 33.0625 59.578125 37.078125 
Q 56.0625 41.109375 50.09375 41.109375 
Q 44.1875 41.109375 40.6875 37.109375 
Q 37.203125 33.109375 37.203125 26.21875 
z
M 63.8125 11.625 
Q 60.890625 7.859375 57.109375 6.078125 
Q 53.328125 4.296875 48.296875 4.296875 
Q 39.890625 4.296875 34.640625 10.375 
Q 29.390625 16.453125 29.390625 26.21875 
Q 29.390625 35.984375 34.65625 42.078125 
Q 39.9375 48.1875 48.296875 48.1875 
Q 53.328125 48.1875 57.125 46.359375 
Q 60.9375 44.53125 63.8125 40.828125 
L 63.8125 47.21875 
L 70.796875 47.21875 
L 70.796875 11.28125 
Q 77.9375 12.359375 81.953125 17.796875 
Q 85.984375 23.25 85.984375 31.890625 
Q 85.984375 37.109375 84.4375 41.703125 
Q 82.90625 46.296875 79.78125 50.203125 
Q 74.703125 56.59375 67.40625 59.984375 
Q 60.109375 63.375 51.515625 63.375 
Q 45.515625 63.375 39.984375 61.78125 
Q 34.46875 60.203125 29.78125 57.078125 
Q 22.125 52.09375 17.796875 44.015625 
Q 13.484375 35.9375 13.484375 26.515625 
Q 13.484375 18.75 16.28125 11.953125 
Q 19.09375 5.171875 24.421875 0 
Q 29.546875 -5.078125 36.28125 -7.734375 
Q 43.015625 -10.40625 50.6875 -10.40625 
Q 56.984375 -10.40625 63.0625 -8.28125 
Q 69.140625 -6.15625 74.21875 -2.203125 
L 78.609375 -7.625 
Q 72.515625 -12.359375 65.3125 -14.875 
Q 58.109375 -17.390625 50.6875 -17.390625 
Q 41.65625 -17.390625 33.640625 -14.1875 
Q 25.640625 -10.984375 19.390625 -4.890625 
Q 13.140625 1.21875 9.859375 9.25 
Q 6.59375 17.28125 6.59375 26.515625 
Q 6.59375 35.40625 9.90625 43.453125 
Q 13.234375 51.515625 19.390625 57.625 
Q 25.6875 63.8125 33.9375 67.109375 
Q 42.1875 70.40625 51.421875 70.40625 
Q 61.765625 70.40625 70.625 66.15625 
Q 79.5 61.921875 85.5 54.109375 
Q 89.15625 49.3125 91.078125 43.703125 
Q 93.015625 38.09375 93.015625 32.078125 
Q 93.015625 19.234375 85.25 11.8125 
Q 77.484375 4.390625 63.8125 4.109375 
z
" id="DejaVuSans-64"/>
    <path d="M 4.203125 54.6875 
L 13.1875 54.6875 
L 24.421875 12.015625 
L 35.59375 54.6875 
L 46.1875 54.6875 
L 57.421875 12.015625 
L 68.609375 54.6875 
L 77.59375 54.6875 
L 63.28125 0 
L 52.6875 0 
L 40.921875 44.828125 
L 29.109375 0 
L 18.5 0 
z
" id="DejaVuSans-119"/>
    <path d="M 11.71875 12.40625 
L 22.015625 12.40625 
L 22.015625 4 
L 14.015625 -11.625 
L 7.71875 -11.625 
L 11.71875 4 
z
" id="DejaVuSans-44"/>
    <path d="M 9.8125 72.90625 
L 19.671875 72.90625 
L 19.671875 43.015625 
L 55.515625 43.015625 
L 55.515625 72.90625 
L 65.375 72.90625 
L 65.375 0 
L 55.515625 0 
L 55.515625 34.71875 
L 19.671875 34.71875 
L 19.671875 0 
L 9.8125 0 
z
" id="DejaVuSans-72"/>
    <path d="M 8.6875 72.90625 
L 18.609375 72.90625 
L 18.609375 28.609375 
Q 18.609375 16.890625 22.84375 11.734375 
Q 27.09375 6.59375 36.625 6.59375 
Q 46.09375 6.59375 50.34375 11.734375 
Q 54.59375 16.890625 54.59375 28.609375 
L 54.59375 72.90625 
L 64.5 72.90625 
L 64.5 27.390625 
Q 64.5 13.140625 57.4375 5.859375 
Q 50.390625 -1.421875 36.625 -1.421875 
Q 22.796875 -1.421875 15.734375 5.859375 
Q 8.6875 13.140625 8.6875 27.390625 
z
" id="DejaVuSans-85"/>
    <path d="M 53.515625 70.515625 
L 53.515625 60.890625 
Q 47.90625 63.578125 42.921875 64.890625 
Q 37.9375 66.21875 33.296875 66.21875 
Q 25.25 66.21875 20.875 63.09375 
Q 16.5 59.96875 16.5 54.203125 
Q 16.5 49.359375 19.40625 46.890625 
Q 22.3125 44.4375 30.421875 42.921875 
L 36.375 41.703125 
Q 47.40625 39.59375 52.65625 34.296875 
Q 57.90625 29 57.90625 20.125 
Q 57.90625 9.515625 50.796875 4.046875 
Q 43.703125 -1.421875 29.984375 -1.421875 
Q 24.8125 -1.421875 18.96875 -0.25 
Q 13.140625 0.921875 6.890625 3.21875 
L 6.890625 13.375 
Q 12.890625 10.015625 18.65625 8.296875 
Q 24.421875 6.59375 29.984375 6.59375 
Q 38.421875 6.59375 43.015625 9.90625 
Q 47.609375 13.234375 47.609375 19.390625 
Q 47.609375 24.75 44.3125 27.78125 
Q 41.015625 30.8125 33.5 32.328125 
L 27.484375 33.5 
Q 16.453125 35.6875 11.515625 40.375 
Q 6.59375 45.0625 6.59375 53.421875 
Q 6.59375 63.09375 13.40625 68.65625 
Q 20.21875 74.21875 32.171875 74.21875 
Q 37.3125 74.21875 42.625 73.28125 
Q 47.953125 72.359375 53.515625 70.515625 
z
" id="DejaVuSans-83"/>
    <path d="M 9.8125 72.90625 
L 55.90625 72.90625 
L 55.90625 64.59375 
L 19.671875 64.59375 
L 19.671875 43.015625 
L 54.390625 43.015625 
L 54.390625 34.71875 
L 19.671875 34.71875 
L 19.671875 8.296875 
L 56.78125 8.296875 
L 56.78125 0 
L 9.8125 0 
z
" id="DejaVuSans-69"/>
    <path d="M 48.6875 27.296875 
Q 48.6875 37.203125 44.609375 42.84375 
Q 40.53125 48.484375 33.40625 48.484375 
Q 26.265625 48.484375 22.1875 42.84375 
Q 18.109375 37.203125 18.109375 27.296875 
Q 18.109375 17.390625 22.1875 11.75 
Q 26.265625 6.109375 33.40625 6.109375 
Q 40.53125 6.109375 44.609375 11.75 
Q 48.6875 17.390625 48.6875 27.296875 
z
M 18.109375 46.390625 
Q 20.953125 51.265625 25.265625 53.625 
Q 29.59375 56 35.59375 56 
Q 45.5625 56 51.78125 48.09375 
Q 58.015625 40.1875 58.015625 27.296875 
Q 58.015625 14.40625 51.78125 6.484375 
Q 45.5625 -1.421875 35.59375 -1.421875 
Q 29.59375 -1.421875 25.265625 0.953125 
Q 20.953125 3.328125 18.109375 8.203125 
L 18.109375 0 
L 9.078125 0 
L 9.078125 75.984375 
L 18.109375 75.984375 
z
" id="DejaVuSans-98"/>
    <path d="M 24.3125 39.203125 
Q 19.875 35.25 17.796875 31.3125 
Q 15.71875 27.390625 15.71875 23.09375 
Q 15.71875 15.96875 20.890625 11.234375 
Q 26.078125 6.5 33.890625 6.5 
Q 38.53125 6.5 42.578125 8.03125 
Q 46.625 9.578125 50.203125 12.703125 
z
M 31.203125 44.671875 
L 56 19.28125 
Q 58.890625 23.640625 60.5 28.59375 
Q 62.109375 33.546875 62.40625 39.109375 
L 71.484375 39.109375 
Q 70.90625 32.671875 68.359375 26.359375 
Q 65.828125 20.0625 61.28125 13.921875 
L 74.90625 0 
L 62.59375 0 
L 55.609375 7.171875 
Q 50.53125 2.828125 44.96875 0.703125 
Q 39.40625 -1.421875 33.015625 -1.421875 
Q 21.234375 -1.421875 13.765625 5.296875 
Q 6.296875 12.015625 6.296875 22.515625 
Q 6.296875 28.765625 9.5625 34.25 
Q 12.84375 39.75 19.390625 44.578125 
Q 17.046875 47.65625 15.8125 50.703125 
Q 14.59375 53.765625 14.59375 56.6875 
Q 14.59375 64.59375 20.015625 69.40625 
Q 25.4375 74.21875 34.421875 74.21875 
Q 38.484375 74.21875 42.5 73.34375 
Q 46.53125 72.46875 50.6875 70.703125 
L 50.6875 61.8125 
Q 46.4375 64.109375 42.578125 65.296875 
Q 38.71875 66.5 35.40625 66.5 
Q 30.28125 66.5 27.078125 63.78125 
Q 23.875 61.078125 23.875 56.78125 
Q 23.875 54.296875 25.3125 51.78125 
Q 26.765625 49.265625 31.203125 44.671875 
z
" id="DejaVuSans-38"/>
   </defs>
   <g transform="translate(100.63125 43.192875)scale(0.12 -0.12)">
    <use xlink:href="#DejaVuSans-99"/>
    <use x="54.980469" xlink:href="#DejaVuSans-114"/>
    <use x="93.84375" xlink:href="#DejaVuSans-101"/>
    <use x="155.367188" xlink:href="#DejaVuSans-97"/>
    <use x="216.646484" xlink:href="#DejaVuSans-116"/>
    <use x="255.855469" xlink:href="#DejaVuSans-101"/>
    <use x="317.378906" xlink:href="#DejaVuSans-100"/>
    <use x="380.855469" xlink:href="#DejaVuSans-58"/>
    <use x="414.546875" xlink:href="#DejaVuSans-32"/>
    <use x="446.333984" xlink:href="#DejaVuSans-50"/>
    <use x="509.957031" xlink:href="#DejaVuSans-48"/>
    <use x="573.580078" xlink:href="#DejaVuSans-50"/>
    <use x="637.203125" xlink:href="#DejaVuSans-49"/>
    <use x="700.826172" xlink:href="#DejaVuSans-45"/>
    <use x="736.910156" xlink:href="#DejaVuSans-48"/>
    <use x="800.533203" xlink:href="#DejaVuSans-53"/>
    <use x="864.15625" xlink:href="#DejaVuSans-45"/>
    <use x="900.240234" xlink:href="#DejaVuSans-48"/>
    <use x="963.863281" xlink:href="#DejaVuSans-52"/>
    <use x="1027.486328" xlink:href="#DejaVuSans-32"/>
    <use x="1059.273438" xlink:href="#DejaVuSans-97"/>
    <use x="1120.552734" xlink:href="#DejaVuSans-117"/>
    <use x="1183.931641" xlink:href="#DejaVuSans-116"/>
    <use x="1223.140625" xlink:href="#DejaVuSans-104"/>
    <use x="1286.519531" xlink:href="#DejaVuSans-111"/>
    <use x="1347.701172" xlink:href="#DejaVuSans-114"/>
    <use x="1387.064453" xlink:href="#DejaVuSans-58"/>
    <use x="1420.755859" xlink:href="#DejaVuSans-32"/>
    <use x="1452.542969" xlink:href="#DejaVuSans-64"/>
    <use x="1552.542969" xlink:href="#DejaVuSans-112"/>
    <use x="1616.019531" xlink:href="#DejaVuSans-115"/>
    <use x="1668.119141" xlink:href="#DejaVuSans-99"/>
    <use x="1723.099609" xlink:href="#DejaVuSans-104"/>
    <use x="1786.478516" xlink:href="#DejaVuSans-119"/>
    <use x="1868.265625" xlink:href="#DejaVuSans-101"/>
    <use x="1929.789062" xlink:href="#DejaVuSans-100"/>
    <use x="1993.265625" xlink:href="#DejaVuSans-101"/>
    <use x="2054.789062" xlink:href="#DejaVuSans-44"/>
    <use x="2086.576172" xlink:href="#DejaVuSans-32"/>
    <use x="2118.363281" xlink:href="#DejaVuSans-115"/>
    <use x="2170.462891" xlink:href="#DejaVuSans-111"/>
    <use x="2231.644531" xlink:href="#DejaVuSans-117"/>
    <use x="2295.023438" xlink:href="#DejaVuSans-114"/>
    <use x="2333.886719" xlink:href="#DejaVuSans-99"/>
    <use x="2388.867188" xlink:href="#DejaVuSans-101"/>
    <use x="2450.390625" xlink:href="#DejaVuSans-58"/>
    <use x="2484.082031" xlink:href="#DejaVuSans-32"/>
    <use x="2515.869141" xlink:href="#DejaVuSans-74"/>
    <use x="2545.361328" xlink:href="#DejaVuSans-72"/>
    <use x="2620.556641" xlink:href="#DejaVuSans-85"/>
    <use x="2693.75" xlink:href="#DejaVuSans-32"/>
    <use x="2725.537109" xlink:href="#DejaVuSans-67"/>
    <use x="2795.361328" xlink:href="#DejaVuSans-83"/>
    <use x="2858.837891" xlink:href="#DejaVuSans-83"/>
    <use x="2922.314453" xlink:href="#DejaVuSans-69"/>
    <use x="2985.498047" xlink:href="#DejaVuSans-32"/>
    <use x="3017.285156" xlink:href="#DejaVuSans-118"/>
    <use x="3076.464844" xlink:href="#DejaVuSans-105"/>
    <use x="3104.248047" xlink:href="#DejaVuSans-97"/>
    <use x="3165.527344" xlink:href="#DejaVuSans-32"/>
    <use x="3197.314453" xlink:href="#DejaVuSans-64"/>
    <use x="3297.314453" xlink:href="#DejaVuSans-101"/>
    <use x="3358.837891" xlink:href="#DejaVuSans-110"/>
    <use x="3422.216797" xlink:href="#DejaVuSans-116"/>
    <use x="3461.425781" xlink:href="#DejaVuSans-111"/>
    <use x="3522.607422" xlink:href="#DejaVuSans-114"/>
    <use x="3563.720703" xlink:href="#DejaVuSans-98"/>
    <use x="3627.197266" xlink:href="#DejaVuSans-32"/>
    <use x="3658.984375" xlink:href="#DejaVuSans-38"/>
    <use x="3736.962891" xlink:href="#DejaVuSans-32"/>
    <use x="3768.75" xlink:href="#DejaVuSans-64"/>
    <use x="3868.75" xlink:href="#DejaVuSans-112"/>
    <use x="3932.226562" xlink:href="#DejaVuSans-111"/>
    <use x="3993.408203" xlink:href="#DejaVuSans-109"/>
    <use x="4090.820312" xlink:href="#DejaVuSans-98"/>
    <use x="4154.296875" xlink:href="#DejaVuSans-101"/>
    <use x="4215.820312" xlink:href="#DejaVuSans-114"/>
    <use x="4247.808594" xlink:href="#DejaVuSans-46"/>
   </g>
  </g>
 </g>
 <defs>
  <clipPath id="pa42a9dfac8">
   <rect height="225.757328" width="638.62" x="67.98875" y="48.36"/>
  </clipPath>
  <clipPath id="p0b0e9f399a">
   <rect height="225.757328" width="638.62" x="67.98875" y="286.882672"/>
  </clipPath>
 </defs>
</svg>
