<?xml version="1.0" encoding="utf-8" standalone="no"?>
<!DOCTYPE svg PUBLIC "-//W3C//DTD SVG 1.1//EN"
  "http://www.w3.org/Graphics/SVG/1.1/DTD/svg11.dtd">
<!-- Created with matplotlib (https://matplotlib.org/) -->
<svg height="563.560252pt" version="1.1" viewBox="0 0 711.67625 563.560252" width="711.67625pt" xmlns="http://www.w3.org/2000/svg" xmlns:xlink="http://www.w3.org/1999/xlink">
 <metadata>
  <rdf:RDF xmlns:cc="http://creativecommons.org/ns#" xmlns:dc="http://purl.org/dc/elements/1.1/" xmlns:rdf="http://www.w3.org/1999/02/22-rdf-syntax-ns#">
   <cc:Work>
    <dc:type rdf:resource="http://purl.org/dc/dcmitype/StillImage"/>
    <dc:date>2020-12-17T05:28:32.167173</dc:date>
    <dc:format>image/svg+xml</dc:format>
    <dc:creator>
     <cc:Agent>
      <dc:title>Matplotlib v3.3.2, https://matplotlib.org/</dc:title>
     </cc:Agent>
    </dc:creator>
   </cc:Work>
  </rdf:RDF>
 </metadata>
 <defs>
  <style type="text/css">*{stroke-linecap:butt;stroke-linejoin:round;}</style>
 </defs>
 <g id="figure_1">
  <g id="patch_1">
   <path d="M 0 563.560252 
L 711.67625 563.560252 
L 711.67625 0 
L 0 0 
z
" style="fill:#ffffff;"/>
  </g>
  <g id="axes_1">
   <g id="patch_2">
    <path d="M 61.62625 301.187403 
L 704.47625 301.187403 
L 704.47625 102.072 
L 61.62625 102.072 
z
" style="fill:#e5e5e5;"/>
   </g>
   <g id="matplotlib.axis_1">
    <g id="xtick_1">
     <g id="line2d_1">
      <defs>
       <path d="M 0 0 
L 0 3.5 
" id="m702ec98822" style="stroke:#555555;stroke-width:0.8;"/>
      </defs>
      <g>
       <use style="fill:#555555;stroke:#555555;stroke-width:0.8;" x="61.62625" xlink:href="#m702ec98822" y="301.187403"/>
      </g>
     </g>
    </g>
    <g id="xtick_2">
     <g id="line2d_2">
      <g>
       <use style="fill:#555555;stroke:#555555;stroke-width:0.8;" x="155.197989" xlink:href="#m702ec98822" y="301.187403"/>
      </g>
     </g>
    </g>
    <g id="xtick_3">
     <g id="line2d_3">
      <g>
       <use style="fill:#555555;stroke:#555555;stroke-width:0.8;" x="266.086576" xlink:href="#m702ec98822" y="301.187403"/>
      </g>
     </g>
    </g>
    <g id="xtick_4">
     <g id="line2d_4">
      <g>
       <use style="fill:#555555;stroke:#555555;stroke-width:0.8;" x="376.975163" xlink:href="#m702ec98822" y="301.187403"/>
      </g>
     </g>
    </g>
    <g id="xtick_5">
     <g id="line2d_5">
      <g>
       <use style="fill:#555555;stroke:#555555;stroke-width:0.8;" x="487.86375" xlink:href="#m702ec98822" y="301.187403"/>
      </g>
     </g>
    </g>
    <g id="xtick_6">
     <g id="line2d_6">
      <g>
       <use style="fill:#555555;stroke:#555555;stroke-width:0.8;" x="599.056141" xlink:href="#m702ec98822" y="301.187403"/>
      </g>
     </g>
    </g>
    <g id="xtick_7">
     <g id="line2d_7">
      <g>
       <use style="fill:#555555;stroke:#555555;stroke-width:0.8;" x="704.47625" xlink:href="#m702ec98822" y="301.187403"/>
      </g>
     </g>
    </g>
    <g id="xtick_8">
     <g id="line2d_8">
      <defs>
       <path d="M 0 0 
L 0 2 
" id="m6bf3f20422" style="stroke:#555555;stroke-width:0.6;"/>
      </defs>
      <g>
       <use style="fill:#555555;stroke:#555555;stroke-width:0.6;" x="71.651793" xlink:href="#m6bf3f20422" y="301.187403"/>
      </g>
     </g>
    </g>
    <g id="xtick_9">
     <g id="line2d_9">
      <g>
       <use style="fill:#555555;stroke:#555555;stroke-width:0.6;" x="99.297989" xlink:href="#m6bf3f20422" y="301.187403"/>
      </g>
     </g>
    </g>
    <g id="xtick_10">
     <g id="line2d_10">
      <g>
       <use style="fill:#555555;stroke:#555555;stroke-width:0.6;" x="127.247989" xlink:href="#m6bf3f20422" y="301.187403"/>
      </g>
     </g>
    </g>
    <g id="xtick_11">
     <g id="line2d_11">
      <g>
       <use style="fill:#555555;stroke:#555555;stroke-width:0.6;" x="182.54038" xlink:href="#m6bf3f20422" y="301.187403"/>
      </g>
     </g>
    </g>
    <g id="xtick_12">
     <g id="line2d_12">
      <g>
       <use style="fill:#555555;stroke:#555555;stroke-width:0.6;" x="210.186576" xlink:href="#m6bf3f20422" y="301.187403"/>
      </g>
     </g>
    </g>
    <g id="xtick_13">
     <g id="line2d_13">
      <g>
       <use style="fill:#555555;stroke:#555555;stroke-width:0.6;" x="238.136576" xlink:href="#m6bf3f20422" y="301.187403"/>
      </g>
     </g>
    </g>
    <g id="xtick_14">
     <g id="line2d_14">
      <g>
       <use style="fill:#555555;stroke:#555555;stroke-width:0.6;" x="293.428967" xlink:href="#m6bf3f20422" y="301.187403"/>
      </g>
     </g>
    </g>
    <g id="xtick_15">
     <g id="line2d_15">
      <g>
       <use style="fill:#555555;stroke:#555555;stroke-width:0.6;" x="321.075163" xlink:href="#m6bf3f20422" y="301.187403"/>
      </g>
     </g>
    </g>
    <g id="xtick_16">
     <g id="line2d_16">
      <g>
       <use style="fill:#555555;stroke:#555555;stroke-width:0.6;" x="349.025163" xlink:href="#m6bf3f20422" y="301.187403"/>
      </g>
     </g>
    </g>
    <g id="xtick_17">
     <g id="line2d_17">
      <g>
       <use style="fill:#555555;stroke:#555555;stroke-width:0.6;" x="404.317554" xlink:href="#m6bf3f20422" y="301.187403"/>
      </g>
     </g>
    </g>
    <g id="xtick_18">
     <g id="line2d_18">
      <g>
       <use style="fill:#555555;stroke:#555555;stroke-width:0.6;" x="431.96375" xlink:href="#m6bf3f20422" y="301.187403"/>
      </g>
     </g>
    </g>
    <g id="xtick_19">
     <g id="line2d_19">
      <g>
       <use style="fill:#555555;stroke:#555555;stroke-width:0.6;" x="459.91375" xlink:href="#m6bf3f20422" y="301.187403"/>
      </g>
     </g>
    </g>
    <g id="xtick_20">
     <g id="line2d_20">
      <g>
       <use style="fill:#555555;stroke:#555555;stroke-width:0.6;" x="515.509946" xlink:href="#m6bf3f20422" y="301.187403"/>
      </g>
     </g>
    </g>
    <g id="xtick_21">
     <g id="line2d_21">
      <g>
       <use style="fill:#555555;stroke:#555555;stroke-width:0.6;" x="543.156141" xlink:href="#m6bf3f20422" y="301.187403"/>
      </g>
     </g>
    </g>
    <g id="xtick_22">
     <g id="line2d_22">
      <g>
       <use style="fill:#555555;stroke:#555555;stroke-width:0.6;" x="571.106141" xlink:href="#m6bf3f20422" y="301.187403"/>
      </g>
     </g>
    </g>
    <g id="xtick_23">
     <g id="line2d_23">
      <g>
       <use style="fill:#555555;stroke:#555555;stroke-width:0.6;" x="626.398533" xlink:href="#m6bf3f20422" y="301.187403"/>
      </g>
     </g>
    </g>
    <g id="xtick_24">
     <g id="line2d_24">
      <g>
       <use style="fill:#555555;stroke:#555555;stroke-width:0.6;" x="654.044728" xlink:href="#m6bf3f20422" y="301.187403"/>
      </g>
     </g>
    </g>
    <g id="xtick_25">
     <g id="line2d_25">
      <g>
       <use style="fill:#555555;stroke:#555555;stroke-width:0.6;" x="681.994728" xlink:href="#m6bf3f20422" y="301.187403"/>
      </g>
     </g>
    </g>
   </g>
   <g id="matplotlib.axis_2">
    <g id="ytick_1">
     <g id="line2d_26">
      <defs>
       <path d="M 0 0 
L -3.5 0 
" id="mbad9b9d486" style="stroke:#555555;stroke-width:0.8;"/>
      </defs>
      <g>
       <use style="fill:#555555;stroke:#555555;stroke-width:0.8;" x="61.62625" xlink:href="#mbad9b9d486" y="292.138151"/>
      </g>
     </g>
     <g id="text_1">
      <!-- 0 -->
      <g style="fill:#555555;" transform="translate(48.26375 295.93737)scale(0.1 -0.1)">
       <defs>
        <path d="M 31.78125 66.40625 
Q 24.171875 66.40625 20.328125 58.90625 
Q 16.5 51.421875 16.5 36.375 
Q 16.5 21.390625 20.328125 13.890625 
Q 24.171875 6.390625 31.78125 6.390625 
Q 39.453125 6.390625 43.28125 13.890625 
Q 47.125 21.390625 47.125 36.375 
Q 47.125 51.421875 43.28125 58.90625 
Q 39.453125 66.40625 31.78125 66.40625 
z
M 31.78125 74.21875 
Q 44.046875 74.21875 50.515625 64.515625 
Q 56.984375 54.828125 56.984375 36.375 
Q 56.984375 17.96875 50.515625 8.265625 
Q 44.046875 -1.421875 31.78125 -1.421875 
Q 19.53125 -1.421875 13.0625 8.265625 
Q 6.59375 17.96875 6.59375 36.375 
Q 6.59375 54.828125 13.0625 64.515625 
Q 19.53125 74.21875 31.78125 74.21875 
z
" id="DejaVuSans-48"/>
       </defs>
       <use xlink:href="#DejaVuSans-48"/>
      </g>
     </g>
    </g>
    <g id="ytick_2">
     <g id="line2d_27">
      <g>
       <use style="fill:#555555;stroke:#555555;stroke-width:0.8;" x="61.62625" xlink:href="#mbad9b9d486" y="264.816464"/>
      </g>
     </g>
     <g id="text_2">
      <!-- 1 -->
      <g style="fill:#555555;" transform="translate(48.26375 268.615682)scale(0.1 -0.1)">
       <defs>
        <path d="M 12.40625 8.296875 
L 28.515625 8.296875 
L 28.515625 63.921875 
L 10.984375 60.40625 
L 10.984375 69.390625 
L 28.421875 72.90625 
L 38.28125 72.90625 
L 38.28125 8.296875 
L 54.390625 8.296875 
L 54.390625 0 
L 12.40625 0 
z
" id="DejaVuSans-49"/>
       </defs>
       <use xlink:href="#DejaVuSans-49"/>
      </g>
     </g>
    </g>
    <g id="ytick_3">
     <g id="line2d_28">
      <g>
       <use style="fill:#555555;stroke:#555555;stroke-width:0.8;" x="61.62625" xlink:href="#mbad9b9d486" y="237.494776"/>
      </g>
     </g>
     <g id="text_3">
      <!-- 2 -->
      <g style="fill:#555555;" transform="translate(48.26375 241.293995)scale(0.1 -0.1)">
       <defs>
        <path d="M 19.1875 8.296875 
L 53.609375 8.296875 
L 53.609375 0 
L 7.328125 0 
L 7.328125 8.296875 
Q 12.9375 14.109375 22.625 23.890625 
Q 32.328125 33.6875 34.8125 36.53125 
Q 39.546875 41.84375 41.421875 45.53125 
Q 43.3125 49.21875 43.3125 52.78125 
Q 43.3125 58.59375 39.234375 62.25 
Q 35.15625 65.921875 28.609375 65.921875 
Q 23.96875 65.921875 18.8125 64.3125 
Q 13.671875 62.703125 7.8125 59.421875 
L 7.8125 69.390625 
Q 13.765625 71.78125 18.9375 73 
Q 24.125 74.21875 28.421875 74.21875 
Q 39.75 74.21875 46.484375 68.546875 
Q 53.21875 62.890625 53.21875 53.421875 
Q 53.21875 48.921875 51.53125 44.890625 
Q 49.859375 40.875 45.40625 35.40625 
Q 44.1875 33.984375 37.640625 27.21875 
Q 31.109375 20.453125 19.1875 8.296875 
z
" id="DejaVuSans-50"/>
       </defs>
       <use xlink:href="#DejaVuSans-50"/>
      </g>
     </g>
    </g>
    <g id="ytick_4">
     <g id="line2d_29">
      <g>
       <use style="fill:#555555;stroke:#555555;stroke-width:0.8;" x="61.62625" xlink:href="#mbad9b9d486" y="210.173088"/>
      </g>
     </g>
     <g id="text_4">
      <!-- 3 -->
      <g style="fill:#555555;" transform="translate(48.26375 213.972307)scale(0.1 -0.1)">
       <defs>
        <path d="M 40.578125 39.3125 
Q 47.65625 37.796875 51.625 33 
Q 55.609375 28.21875 55.609375 21.1875 
Q 55.609375 10.40625 48.1875 4.484375 
Q 40.765625 -1.421875 27.09375 -1.421875 
Q 22.515625 -1.421875 17.65625 -0.515625 
Q 12.796875 0.390625 7.625 2.203125 
L 7.625 11.71875 
Q 11.71875 9.328125 16.59375 8.109375 
Q 21.484375 6.890625 26.8125 6.890625 
Q 36.078125 6.890625 40.9375 10.546875 
Q 45.796875 14.203125 45.796875 21.1875 
Q 45.796875 27.640625 41.28125 31.265625 
Q 36.765625 34.90625 28.71875 34.90625 
L 20.21875 34.90625 
L 20.21875 43.015625 
L 29.109375 43.015625 
Q 36.375 43.015625 40.234375 45.921875 
Q 44.09375 48.828125 44.09375 54.296875 
Q 44.09375 59.90625 40.109375 62.90625 
Q 36.140625 65.921875 28.71875 65.921875 
Q 24.65625 65.921875 20.015625 65.03125 
Q 15.375 64.15625 9.8125 62.3125 
L 9.8125 71.09375 
Q 15.4375 72.65625 20.34375 73.4375 
Q 25.25 74.21875 29.59375 74.21875 
Q 40.828125 74.21875 47.359375 69.109375 
Q 53.90625 64.015625 53.90625 55.328125 
Q 53.90625 49.265625 50.4375 45.09375 
Q 46.96875 40.921875 40.578125 39.3125 
z
" id="DejaVuSans-51"/>
       </defs>
       <use xlink:href="#DejaVuSans-51"/>
      </g>
     </g>
    </g>
    <g id="ytick_5">
     <g id="line2d_30">
      <g>
       <use style="fill:#555555;stroke:#555555;stroke-width:0.8;" x="61.62625" xlink:href="#mbad9b9d486" y="182.851401"/>
      </g>
     </g>
     <g id="text_5">
      <!-- 4 -->
      <g style="fill:#555555;" transform="translate(48.26375 186.65062)scale(0.1 -0.1)">
       <defs>
        <path d="M 37.796875 64.3125 
L 12.890625 25.390625 
L 37.796875 25.390625 
z
M 35.203125 72.90625 
L 47.609375 72.90625 
L 47.609375 25.390625 
L 58.015625 25.390625 
L 58.015625 17.1875 
L 47.609375 17.1875 
L 47.609375 0 
L 37.796875 0 
L 37.796875 17.1875 
L 4.890625 17.1875 
L 4.890625 26.703125 
z
" id="DejaVuSans-52"/>
       </defs>
       <use xlink:href="#DejaVuSans-52"/>
      </g>
     </g>
    </g>
    <g id="ytick_6">
     <g id="line2d_31">
      <g>
       <use style="fill:#555555;stroke:#555555;stroke-width:0.8;" x="61.62625" xlink:href="#mbad9b9d486" y="155.529713"/>
      </g>
     </g>
     <g id="text_6">
      <!-- 5 -->
      <g style="fill:#555555;" transform="translate(48.26375 159.328932)scale(0.1 -0.1)">
       <defs>
        <path d="M 10.796875 72.90625 
L 49.515625 72.90625 
L 49.515625 64.59375 
L 19.828125 64.59375 
L 19.828125 46.734375 
Q 21.96875 47.46875 24.109375 47.828125 
Q 26.265625 48.1875 28.421875 48.1875 
Q 40.625 48.1875 47.75 41.5 
Q 54.890625 34.8125 54.890625 23.390625 
Q 54.890625 11.625 47.5625 5.09375 
Q 40.234375 -1.421875 26.90625 -1.421875 
Q 22.3125 -1.421875 17.546875 -0.640625 
Q 12.796875 0.140625 7.71875 1.703125 
L 7.71875 11.625 
Q 12.109375 9.234375 16.796875 8.0625 
Q 21.484375 6.890625 26.703125 6.890625 
Q 35.15625 6.890625 40.078125 11.328125 
Q 45.015625 15.765625 45.015625 23.390625 
Q 45.015625 31 40.078125 35.4375 
Q 35.15625 39.890625 26.703125 39.890625 
Q 22.75 39.890625 18.8125 39.015625 
Q 14.890625 38.140625 10.796875 36.28125 
z
" id="DejaVuSans-53"/>
       </defs>
       <use xlink:href="#DejaVuSans-53"/>
      </g>
     </g>
    </g>
    <g id="ytick_7">
     <g id="line2d_32">
      <g>
       <use style="fill:#555555;stroke:#555555;stroke-width:0.8;" x="61.62625" xlink:href="#mbad9b9d486" y="128.208026"/>
      </g>
     </g>
     <g id="text_7">
      <!-- 6 -->
      <g style="fill:#555555;" transform="translate(48.26375 132.007244)scale(0.1 -0.1)">
       <defs>
        <path d="M 33.015625 40.375 
Q 26.375 40.375 22.484375 35.828125 
Q 18.609375 31.296875 18.609375 23.390625 
Q 18.609375 15.53125 22.484375 10.953125 
Q 26.375 6.390625 33.015625 6.390625 
Q 39.65625 6.390625 43.53125 10.953125 
Q 47.40625 15.53125 47.40625 23.390625 
Q 47.40625 31.296875 43.53125 35.828125 
Q 39.65625 40.375 33.015625 40.375 
z
M 52.59375 71.296875 
L 52.59375 62.3125 
Q 48.875 64.0625 45.09375 64.984375 
Q 41.3125 65.921875 37.59375 65.921875 
Q 27.828125 65.921875 22.671875 59.328125 
Q 17.53125 52.734375 16.796875 39.40625 
Q 19.671875 43.65625 24.015625 45.921875 
Q 28.375 48.1875 33.59375 48.1875 
Q 44.578125 48.1875 50.953125 41.515625 
Q 57.328125 34.859375 57.328125 23.390625 
Q 57.328125 12.15625 50.6875 5.359375 
Q 44.046875 -1.421875 33.015625 -1.421875 
Q 20.359375 -1.421875 13.671875 8.265625 
Q 6.984375 17.96875 6.984375 36.375 
Q 6.984375 53.65625 15.1875 63.9375 
Q 23.390625 74.21875 37.203125 74.21875 
Q 40.921875 74.21875 44.703125 73.484375 
Q 48.484375 72.75 52.59375 71.296875 
z
" id="DejaVuSans-54"/>
       </defs>
       <use xlink:href="#DejaVuSans-54"/>
      </g>
     </g>
    </g>
    <g id="text_8">
     <!-- Total -->
     <g style="fill:#555555;" transform="translate(41.768125 215.641577)rotate(-90)scale(0.12 -0.12)">
      <defs>
       <path d="M -0.296875 72.90625 
L 61.375 72.90625 
L 61.375 64.59375 
L 35.5 64.59375 
L 35.5 0 
L 25.59375 0 
L 25.59375 64.59375 
L -0.296875 64.59375 
z
" id="DejaVuSans-84"/>
       <path d="M 30.609375 48.390625 
Q 23.390625 48.390625 19.1875 42.75 
Q 14.984375 37.109375 14.984375 27.296875 
Q 14.984375 17.484375 19.15625 11.84375 
Q 23.34375 6.203125 30.609375 6.203125 
Q 37.796875 6.203125 41.984375 11.859375 
Q 46.1875 17.53125 46.1875 27.296875 
Q 46.1875 37.015625 41.984375 42.703125 
Q 37.796875 48.390625 30.609375 48.390625 
z
M 30.609375 56 
Q 42.328125 56 49.015625 48.375 
Q 55.71875 40.765625 55.71875 27.296875 
Q 55.71875 13.875 49.015625 6.21875 
Q 42.328125 -1.421875 30.609375 -1.421875 
Q 18.84375 -1.421875 12.171875 6.21875 
Q 5.515625 13.875 5.515625 27.296875 
Q 5.515625 40.765625 12.171875 48.375 
Q 18.84375 56 30.609375 56 
z
" id="DejaVuSans-111"/>
       <path d="M 18.3125 70.21875 
L 18.3125 54.6875 
L 36.8125 54.6875 
L 36.8125 47.703125 
L 18.3125 47.703125 
L 18.3125 18.015625 
Q 18.3125 11.328125 20.140625 9.421875 
Q 21.96875 7.515625 27.59375 7.515625 
L 36.8125 7.515625 
L 36.8125 0 
L 27.59375 0 
Q 17.1875 0 13.234375 3.875 
Q 9.28125 7.765625 9.28125 18.015625 
L 9.28125 47.703125 
L 2.6875 47.703125 
L 2.6875 54.6875 
L 9.28125 54.6875 
L 9.28125 70.21875 
z
" id="DejaVuSans-116"/>
       <path d="M 34.28125 27.484375 
Q 23.390625 27.484375 19.1875 25 
Q 14.984375 22.515625 14.984375 16.5 
Q 14.984375 11.71875 18.140625 8.90625 
Q 21.296875 6.109375 26.703125 6.109375 
Q 34.1875 6.109375 38.703125 11.40625 
Q 43.21875 16.703125 43.21875 25.484375 
L 43.21875 27.484375 
z
M 52.203125 31.203125 
L 52.203125 0 
L 43.21875 0 
L 43.21875 8.296875 
Q 40.140625 3.328125 35.546875 0.953125 
Q 30.953125 -1.421875 24.3125 -1.421875 
Q 15.921875 -1.421875 10.953125 3.296875 
Q 6 8.015625 6 15.921875 
Q 6 25.140625 12.171875 29.828125 
Q 18.359375 34.515625 30.609375 34.515625 
L 43.21875 34.515625 
L 43.21875 35.40625 
Q 43.21875 41.609375 39.140625 45 
Q 35.0625 48.390625 27.6875 48.390625 
Q 23 48.390625 18.546875 47.265625 
Q 14.109375 46.140625 10.015625 43.890625 
L 10.015625 52.203125 
Q 14.9375 54.109375 19.578125 55.046875 
Q 24.21875 56 28.609375 56 
Q 40.484375 56 46.34375 49.84375 
Q 52.203125 43.703125 52.203125 31.203125 
z
" id="DejaVuSans-97"/>
       <path d="M 9.421875 75.984375 
L 18.40625 75.984375 
L 18.40625 0 
L 9.421875 0 
z
" id="DejaVuSans-108"/>
      </defs>
      <use xlink:href="#DejaVuSans-84"/>
      <use x="44.083984" xlink:href="#DejaVuSans-111"/>
      <use x="105.265625" xlink:href="#DejaVuSans-116"/>
      <use x="144.474609" xlink:href="#DejaVuSans-97"/>
      <use x="205.753906" xlink:href="#DejaVuSans-108"/>
     </g>
    </g>
    <g id="text_9">
     <!-- 1e6 -->
     <g style="fill:#555555;" transform="translate(61.62625 99.072)scale(0.1 -0.1)">
      <defs>
       <path d="M 56.203125 29.59375 
L 56.203125 25.203125 
L 14.890625 25.203125 
Q 15.484375 15.921875 20.484375 11.0625 
Q 25.484375 6.203125 34.421875 6.203125 
Q 39.59375 6.203125 44.453125 7.46875 
Q 49.3125 8.734375 54.109375 11.28125 
L 54.109375 2.78125 
Q 49.265625 0.734375 44.1875 -0.34375 
Q 39.109375 -1.421875 33.890625 -1.421875 
Q 20.796875 -1.421875 13.15625 6.1875 
Q 5.515625 13.8125 5.515625 26.8125 
Q 5.515625 40.234375 12.765625 48.109375 
Q 20.015625 56 32.328125 56 
Q 43.359375 56 49.78125 48.890625 
Q 56.203125 41.796875 56.203125 29.59375 
z
M 47.21875 32.234375 
Q 47.125 39.59375 43.09375 43.984375 
Q 39.0625 48.390625 32.421875 48.390625 
Q 24.90625 48.390625 20.390625 44.140625 
Q 15.875 39.890625 15.1875 32.171875 
z
" id="DejaVuSans-101"/>
      </defs>
      <use xlink:href="#DejaVuSans-49"/>
      <use x="63.623047" xlink:href="#DejaVuSans-101"/>
      <use x="125.146484" xlink:href="#DejaVuSans-54"/>
     </g>
    </g>
   </g>
   <g id="line2d_33">
    <path clip-path="url(#pbb4a432086)" d="M 61.62625 292.136703 
L 67.094728 292.025746 
L 68.61375 291.819682 
L 69.828967 291.484776 
L 71.651793 290.707658 
L 75.297446 289.072919 
L 77.120272 288.557784 
L 79.854511 287.992023 
L 82.58875 287.677339 
L 88.664837 287.270867 
L 111.146359 286.313897 
L 115.703424 285.856083 
L 126.944185 284.382168 
L 129.678424 283.820797 
L 131.50125 283.209826 
L 133.020272 282.449912 
L 134.235489 281.617166 
L 135.450707 280.452642 
L 136.665924 278.930964 
L 138.48875 276.232678 
L 143.957228 267.199629 
L 149.425707 258.043023 
L 150.33712 256.216615 
L 150.33712 256.216615 
" style="fill:none;stroke:#e24a33;stroke-linecap:square;stroke-width:1.5;"/>
   </g>
   <g id="line2d_34">
    <path clip-path="url(#pbb4a432086)" d="M 150.33712 256.216615 
L 156.109402 244.308006 
L 158.843641 239.205024 
L 161.274076 235.162578 
L 163.400707 232.056789 
L 165.527337 229.363652 
L 167.653967 227.069233 
L 169.780598 225.143842 
L 171.907228 223.548586 
L 174.033859 222.240791 
L 176.160489 221.17796 
L 178.590924 220.212413 
L 181.325163 219.381369 
L 184.363207 218.701883 
L 188.008859 218.133771 
L 192.26212 217.70428 
L 197.730598 217.381691 
L 205.629511 217.158766 
L 218.996902 217.038895 
L 257.27625 217.005886 
L 704.47625 217.005461 
L 704.47625 217.005461 
" style="fill:none;stroke:#348abd;stroke-linecap:square;stroke-width:1.5;"/>
   </g>
   <g id="line2d_35">
    <path clip-path="url(#pbb4a432086)" d="M 150.33712 256.216615 
L 156.109402 244.308006 
L 158.843641 239.205024 
L 161.274076 235.162578 
L 163.400707 232.056789 
L 165.527337 229.363652 
L 167.653967 227.069233 
L 169.780598 225.143842 
L 171.907228 223.548586 
L 174.033859 222.240791 
L 176.160489 221.17796 
L 178.590924 220.212413 
L 181.325163 219.381369 
L 184.363207 218.701883 
L 188.008859 218.133771 
L 192.26212 217.70428 
L 197.730598 217.381691 
L 205.629511 217.158766 
L 218.996902 217.038895 
L 257.27625 217.005886 
L 704.47625 217.005461 
L 704.47625 217.005461 
" style="fill:none;stroke:#988ed5;stroke-linecap:square;stroke-width:1.5;"/>
   </g>
   <g id="line2d_36">
    <path clip-path="url(#pbb4a432086)" d="M 61.62625 292.133807 
L 65.575707 292.036198 
L 67.094728 291.800935 
L 68.006141 291.494667 
L 68.917554 290.987666 
L 69.828967 290.178027 
L 70.74038 289.075152 
L 72.867011 286.081085 
L 74.386033 283.976035 
L 75.60125 282.639501 
L 76.816467 281.624422 
L 78.639293 280.351716 
L 80.158315 279.559875 
L 81.677337 279.00935 
L 85.019185 278.150825 
L 88.361033 277.575606 
L 93.829511 276.978268 
L 97.171359 276.589086 
L 100.513207 276.142341 
L 108.715924 275.157039 
L 112.057772 274.44954 
L 114.792011 273.622454 
L 124.51375 270.062934 
L 127.855598 268.377803 
L 129.37462 267.423378 
L 130.589837 266.357516 
L 131.50125 265.353175 
L 132.716467 263.585294 
L 133.62788 261.937597 
L 134.539293 259.78825 
L 135.450707 257.081624 
L 136.36212 253.731419 
L 137.881141 247.268614 
L 140.007772 236.959388 
L 144.564837 214.342546 
L 148.818098 193.322851 
L 150.33712 184.373543 
L 150.33712 184.373543 
" style="fill:none;stroke:#777777;stroke-linecap:square;stroke-width:1.5;"/>
   </g>
   <g id="line2d_37">
    <path clip-path="url(#pbb4a432086)" d="M 150.33712 184.373543 
L 151.856141 175.449485 
L 153.071359 169.49951 
L 154.286576 164.567288 
L 155.501793 160.559496 
L 156.717011 157.355693 
L 157.932228 154.828094 
L 159.147446 152.854705 
L 160.362663 151.326583 
L 161.57788 150.150775 
L 162.793098 149.250489 
L 164.31212 148.419433 
L 165.831141 147.829536 
L 167.653967 147.344682 
L 170.084402 146.945596 
L 173.42625 146.66043 
L 178.28712 146.49564 
L 188.616467 146.424075 
L 262.440924 146.416954 
L 704.47625 146.416954 
L 704.47625 146.416954 
" style="fill:none;stroke:#fbc15e;stroke-linecap:square;stroke-width:1.5;"/>
   </g>
   <g id="line2d_38">
    <path clip-path="url(#pbb4a432086)" d="M 61.62625 292.132359 
L 65.271902 292.032955 
L 66.790924 291.780018 
L 67.702337 291.450269 
L 68.61375 290.864274 
L 69.221359 290.287552 
L 70.132772 289.082337 
L 71.651793 286.416178 
L 74.689837 280.757607 
L 75.905054 279.093029 
L 77.120272 277.816685 
L 78.943098 276.188733 
L 80.46212 275.19424 
L 81.677337 274.633083 
L 84.411576 273.675731 
L 86.538207 273.0999 
L 89.272446 272.572045 
L 93.221902 271.999085 
L 97.171359 271.406064 
L 99.905598 270.899224 
L 108.715924 269.496669 
L 111.450163 268.748632 
L 113.576793 267.978223 
L 116.007228 266.862358 
L 119.045272 265.481911 
L 121.779511 264.243567 
L 123.906141 263.085127 
L 127.247989 260.901078 
L 129.070815 259.472732 
L 129.982228 258.518658 
L 131.197446 256.910067 
L 132.108859 255.317884 
L 133.324076 252.664261 
L 134.235489 250.054212 
L 135.146902 246.69939 
L 136.058315 242.502092 
L 137.577337 234.132038 
L 139.400163 222.595463 
L 149.121902 158.090021 
L 150.33712 148.452007 
L 150.33712 148.452007 
" style="fill:none;stroke:#8eba42;stroke-linecap:square;stroke-width:1.5;"/>
   </g>
   <g id="line2d_39">
    <path clip-path="url(#pbb4a432086)" d="M 150.33712 148.452007 
L 151.552337 139.026252 
L 152.767554 131.613209 
L 153.678967 127.226795 
L 154.59038 123.699436 
L 155.501793 120.894863 
L 156.413207 118.685102 
L 157.32462 116.956463 
L 158.236033 115.611798 
L 159.45125 114.278936 
L 160.666467 113.33639 
L 161.881685 112.672635 
L 163.400707 112.113728 
L 165.223533 111.701232 
L 167.653967 111.404525 
L 171.29962 111.21837 
L 178.28712 111.134744 
L 214.136033 111.1227 
L 704.47625 111.1227 
L 704.47625 111.1227 
" style="fill:none;stroke:#ffb5b8;stroke-linecap:square;stroke-width:1.5;"/>
   </g>
   <g id="patch_3">
    <path d="M 61.62625 301.187403 
L 61.62625 102.072 
" style="fill:none;stroke:#ffffff;stroke-linecap:square;stroke-linejoin:miter;"/>
   </g>
   <g id="patch_4">
    <path d="M 704.47625 301.187403 
L 704.47625 102.072 
" style="fill:none;stroke:#ffffff;stroke-linecap:square;stroke-linejoin:miter;"/>
   </g>
   <g id="patch_5">
    <path d="M 61.62625 301.187403 
L 704.47625 301.187403 
" style="fill:none;stroke:#ffffff;stroke-linecap:square;stroke-linejoin:miter;"/>
   </g>
   <g id="patch_6">
    <path d="M 61.62625 102.072 
L 704.47625 102.072 
" style="fill:none;stroke:#ffffff;stroke-linecap:square;stroke-linejoin:miter;"/>
   </g>
  </g>
  <g id="axes_2">
   <g id="patch_7">
    <path d="M 61.62625 512.64 
L 704.47625 512.64 
L 704.47625 313.524597 
L 61.62625 313.524597 
z
" style="fill:#e5e5e5;"/>
   </g>
   <g id="matplotlib.axis_3">
    <g id="xtick_26">
     <g id="line2d_40">
      <g>
       <use style="fill:#555555;stroke:#555555;stroke-width:0.8;" x="61.62625" xlink:href="#m702ec98822" y="512.64"/>
      </g>
     </g>
    </g>
    <g id="xtick_27">
     <g id="line2d_41">
      <g>
       <use style="fill:#555555;stroke:#555555;stroke-width:0.8;" x="155.197989" xlink:href="#m702ec98822" y="512.64"/>
      </g>
     </g>
     <g id="text_10">
      <!-- 2021 -->
      <g style="fill:#555555;" transform="translate(132.117799 538.94544)rotate(-30)scale(0.1 -0.1)">
       <use xlink:href="#DejaVuSans-50"/>
       <use x="63.623047" xlink:href="#DejaVuSans-48"/>
       <use x="127.246094" xlink:href="#DejaVuSans-50"/>
       <use x="190.869141" xlink:href="#DejaVuSans-49"/>
      </g>
     </g>
    </g>
    <g id="xtick_28">
     <g id="line2d_42">
      <g>
       <use style="fill:#555555;stroke:#555555;stroke-width:0.8;" x="266.086576" xlink:href="#m702ec98822" y="512.64"/>
      </g>
     </g>
     <g id="text_11">
      <!-- 2022 -->
      <g style="fill:#555555;" transform="translate(243.006386 538.94544)rotate(-30)scale(0.1 -0.1)">
       <use xlink:href="#DejaVuSans-50"/>
       <use x="63.623047" xlink:href="#DejaVuSans-48"/>
       <use x="127.246094" xlink:href="#DejaVuSans-50"/>
       <use x="190.869141" xlink:href="#DejaVuSans-50"/>
      </g>
     </g>
    </g>
    <g id="xtick_29">
     <g id="line2d_43">
      <g>
       <use style="fill:#555555;stroke:#555555;stroke-width:0.8;" x="376.975163" xlink:href="#m702ec98822" y="512.64"/>
      </g>
     </g>
     <g id="text_12">
      <!-- 2023 -->
      <g style="fill:#555555;" transform="translate(353.894973 538.94544)rotate(-30)scale(0.1 -0.1)">
       <use xlink:href="#DejaVuSans-50"/>
       <use x="63.623047" xlink:href="#DejaVuSans-48"/>
       <use x="127.246094" xlink:href="#DejaVuSans-50"/>
       <use x="190.869141" xlink:href="#DejaVuSans-51"/>
      </g>
     </g>
    </g>
    <g id="xtick_30">
     <g id="line2d_44">
      <g>
       <use style="fill:#555555;stroke:#555555;stroke-width:0.8;" x="487.86375" xlink:href="#m702ec98822" y="512.64"/>
      </g>
     </g>
     <g id="text_13">
      <!-- 2024 -->
      <g style="fill:#555555;" transform="translate(464.78356 538.94544)rotate(-30)scale(0.1 -0.1)">
       <use xlink:href="#DejaVuSans-50"/>
       <use x="63.623047" xlink:href="#DejaVuSans-48"/>
       <use x="127.246094" xlink:href="#DejaVuSans-50"/>
       <use x="190.869141" xlink:href="#DejaVuSans-52"/>
      </g>
     </g>
    </g>
    <g id="xtick_31">
     <g id="line2d_45">
      <g>
       <use style="fill:#555555;stroke:#555555;stroke-width:0.8;" x="599.056141" xlink:href="#m702ec98822" y="512.64"/>
      </g>
     </g>
     <g id="text_14">
      <!-- 2025 -->
      <g style="fill:#555555;" transform="translate(575.975951 538.94544)rotate(-30)scale(0.1 -0.1)">
       <use xlink:href="#DejaVuSans-50"/>
       <use x="63.623047" xlink:href="#DejaVuSans-48"/>
       <use x="127.246094" xlink:href="#DejaVuSans-50"/>
       <use x="190.869141" xlink:href="#DejaVuSans-53"/>
      </g>
     </g>
    </g>
    <g id="xtick_32">
     <g id="line2d_46">
      <g>
       <use style="fill:#555555;stroke:#555555;stroke-width:0.8;" x="704.47625" xlink:href="#m702ec98822" y="512.64"/>
      </g>
     </g>
    </g>
    <g id="xtick_33">
     <g id="line2d_47">
      <g>
       <use style="fill:#555555;stroke:#555555;stroke-width:0.6;" x="71.651793" xlink:href="#m6bf3f20422" y="512.64"/>
      </g>
     </g>
    </g>
    <g id="xtick_34">
     <g id="line2d_48">
      <g>
       <use style="fill:#555555;stroke:#555555;stroke-width:0.6;" x="99.297989" xlink:href="#m6bf3f20422" y="512.64"/>
      </g>
     </g>
    </g>
    <g id="xtick_35">
     <g id="line2d_49">
      <g>
       <use style="fill:#555555;stroke:#555555;stroke-width:0.6;" x="127.247989" xlink:href="#m6bf3f20422" y="512.64"/>
      </g>
     </g>
    </g>
    <g id="xtick_36">
     <g id="line2d_50">
      <g>
       <use style="fill:#555555;stroke:#555555;stroke-width:0.6;" x="182.54038" xlink:href="#m6bf3f20422" y="512.64"/>
      </g>
     </g>
    </g>
    <g id="xtick_37">
     <g id="line2d_51">
      <g>
       <use style="fill:#555555;stroke:#555555;stroke-width:0.6;" x="210.186576" xlink:href="#m6bf3f20422" y="512.64"/>
      </g>
     </g>
    </g>
    <g id="xtick_38">
     <g id="line2d_52">
      <g>
       <use style="fill:#555555;stroke:#555555;stroke-width:0.6;" x="238.136576" xlink:href="#m6bf3f20422" y="512.64"/>
      </g>
     </g>
    </g>
    <g id="xtick_39">
     <g id="line2d_53">
      <g>
       <use style="fill:#555555;stroke:#555555;stroke-width:0.6;" x="293.428967" xlink:href="#m6bf3f20422" y="512.64"/>
      </g>
     </g>
    </g>
    <g id="xtick_40">
     <g id="line2d_54">
      <g>
       <use style="fill:#555555;stroke:#555555;stroke-width:0.6;" x="321.075163" xlink:href="#m6bf3f20422" y="512.64"/>
      </g>
     </g>
    </g>
    <g id="xtick_41">
     <g id="line2d_55">
      <g>
       <use style="fill:#555555;stroke:#555555;stroke-width:0.6;" x="349.025163" xlink:href="#m6bf3f20422" y="512.64"/>
      </g>
     </g>
    </g>
    <g id="xtick_42">
     <g id="line2d_56">
      <g>
       <use style="fill:#555555;stroke:#555555;stroke-width:0.6;" x="404.317554" xlink:href="#m6bf3f20422" y="512.64"/>
      </g>
     </g>
    </g>
    <g id="xtick_43">
     <g id="line2d_57">
      <g>
       <use style="fill:#555555;stroke:#555555;stroke-width:0.6;" x="431.96375" xlink:href="#m6bf3f20422" y="512.64"/>
      </g>
     </g>
    </g>
    <g id="xtick_44">
     <g id="line2d_58">
      <g>
       <use style="fill:#555555;stroke:#555555;stroke-width:0.6;" x="459.91375" xlink:href="#m6bf3f20422" y="512.64"/>
      </g>
     </g>
    </g>
    <g id="xtick_45">
     <g id="line2d_59">
      <g>
       <use style="fill:#555555;stroke:#555555;stroke-width:0.6;" x="515.509946" xlink:href="#m6bf3f20422" y="512.64"/>
      </g>
     </g>
    </g>
    <g id="xtick_46">
     <g id="line2d_60">
      <g>
       <use style="fill:#555555;stroke:#555555;stroke-width:0.6;" x="543.156141" xlink:href="#m6bf3f20422" y="512.64"/>
      </g>
     </g>
    </g>
    <g id="xtick_47">
     <g id="line2d_61">
      <g>
       <use style="fill:#555555;stroke:#555555;stroke-width:0.6;" x="571.106141" xlink:href="#m6bf3f20422" y="512.64"/>
      </g>
     </g>
    </g>
    <g id="xtick_48">
     <g id="line2d_62">
      <g>
       <use style="fill:#555555;stroke:#555555;stroke-width:0.6;" x="626.398533" xlink:href="#m6bf3f20422" y="512.64"/>
      </g>
     </g>
    </g>
    <g id="xtick_49">
     <g id="line2d_63">
      <g>
       <use style="fill:#555555;stroke:#555555;stroke-width:0.6;" x="654.044728" xlink:href="#m6bf3f20422" y="512.64"/>
      </g>
     </g>
    </g>
    <g id="xtick_50">
     <g id="line2d_64">
      <g>
       <use style="fill:#555555;stroke:#555555;stroke-width:0.6;" x="681.994728" xlink:href="#m6bf3f20422" y="512.64"/>
      </g>
     </g>
    </g>
    <g id="text_15">
     <!-- Date -->
     <g style="fill:#555555;" transform="translate(368.710312 553.864627)scale(0.12 -0.12)">
      <defs>
       <path d="M 19.671875 64.796875 
L 19.671875 8.109375 
L 31.59375 8.109375 
Q 46.6875 8.109375 53.6875 14.9375 
Q 60.6875 21.78125 60.6875 36.53125 
Q 60.6875 51.171875 53.6875 57.984375 
Q 46.6875 64.796875 31.59375 64.796875 
z
M 9.8125 72.90625 
L 30.078125 72.90625 
Q 51.265625 72.90625 61.171875 64.09375 
Q 71.09375 55.28125 71.09375 36.53125 
Q 71.09375 17.671875 61.125 8.828125 
Q 51.171875 0 30.078125 0 
L 9.8125 0 
z
" id="DejaVuSans-68"/>
      </defs>
      <use xlink:href="#DejaVuSans-68"/>
      <use x="77.001953" xlink:href="#DejaVuSans-97"/>
      <use x="138.28125" xlink:href="#DejaVuSans-116"/>
      <use x="177.490234" xlink:href="#DejaVuSans-101"/>
     </g>
    </g>
   </g>
   <g id="matplotlib.axis_4">
    <g id="ytick_8">
     <g id="line2d_65">
      <g>
       <use style="fill:#555555;stroke:#555555;stroke-width:0.8;" x="61.62625" xlink:href="#mbad9b9d486" y="503.5893"/>
      </g>
     </g>
     <g id="text_16">
      <!-- 0 -->
      <g style="fill:#555555;" transform="translate(48.26375 507.388519)scale(0.1 -0.1)">
       <use xlink:href="#DejaVuSans-48"/>
      </g>
     </g>
    </g>
    <g id="ytick_9">
     <g id="line2d_66">
      <g>
       <use style="fill:#555555;stroke:#555555;stroke-width:0.8;" x="61.62625" xlink:href="#mbad9b9d486" y="464.856793"/>
      </g>
     </g>
     <g id="text_17">
      <!-- 20000 -->
      <g style="fill:#555555;" transform="translate(22.81375 468.656012)scale(0.1 -0.1)">
       <use xlink:href="#DejaVuSans-50"/>
       <use x="63.623047" xlink:href="#DejaVuSans-48"/>
       <use x="127.246094" xlink:href="#DejaVuSans-48"/>
       <use x="190.869141" xlink:href="#DejaVuSans-48"/>
       <use x="254.492188" xlink:href="#DejaVuSans-48"/>
      </g>
     </g>
    </g>
    <g id="ytick_10">
     <g id="line2d_67">
      <g>
       <use style="fill:#555555;stroke:#555555;stroke-width:0.8;" x="61.62625" xlink:href="#mbad9b9d486" y="426.124286"/>
      </g>
     </g>
     <g id="text_18">
      <!-- 40000 -->
      <g style="fill:#555555;" transform="translate(22.81375 429.923505)scale(0.1 -0.1)">
       <use xlink:href="#DejaVuSans-52"/>
       <use x="63.623047" xlink:href="#DejaVuSans-48"/>
       <use x="127.246094" xlink:href="#DejaVuSans-48"/>
       <use x="190.869141" xlink:href="#DejaVuSans-48"/>
       <use x="254.492188" xlink:href="#DejaVuSans-48"/>
      </g>
     </g>
    </g>
    <g id="ytick_11">
     <g id="line2d_68">
      <g>
       <use style="fill:#555555;stroke:#555555;stroke-width:0.8;" x="61.62625" xlink:href="#mbad9b9d486" y="387.391779"/>
      </g>
     </g>
     <g id="text_19">
      <!-- 60000 -->
      <g style="fill:#555555;" transform="translate(22.81375 391.190998)scale(0.1 -0.1)">
       <use xlink:href="#DejaVuSans-54"/>
       <use x="63.623047" xlink:href="#DejaVuSans-48"/>
       <use x="127.246094" xlink:href="#DejaVuSans-48"/>
       <use x="190.869141" xlink:href="#DejaVuSans-48"/>
       <use x="254.492188" xlink:href="#DejaVuSans-48"/>
      </g>
     </g>
    </g>
    <g id="ytick_12">
     <g id="line2d_69">
      <g>
       <use style="fill:#555555;stroke:#555555;stroke-width:0.8;" x="61.62625" xlink:href="#mbad9b9d486" y="348.659272"/>
      </g>
     </g>
     <g id="text_20">
      <!-- 80000 -->
      <g style="fill:#555555;" transform="translate(22.81375 352.458491)scale(0.1 -0.1)">
       <defs>
        <path d="M 31.78125 34.625 
Q 24.75 34.625 20.71875 30.859375 
Q 16.703125 27.09375 16.703125 20.515625 
Q 16.703125 13.921875 20.71875 10.15625 
Q 24.75 6.390625 31.78125 6.390625 
Q 38.8125 6.390625 42.859375 10.171875 
Q 46.921875 13.96875 46.921875 20.515625 
Q 46.921875 27.09375 42.890625 30.859375 
Q 38.875 34.625 31.78125 34.625 
z
M 21.921875 38.8125 
Q 15.578125 40.375 12.03125 44.71875 
Q 8.5 49.078125 8.5 55.328125 
Q 8.5 64.0625 14.71875 69.140625 
Q 20.953125 74.21875 31.78125 74.21875 
Q 42.671875 74.21875 48.875 69.140625 
Q 55.078125 64.0625 55.078125 55.328125 
Q 55.078125 49.078125 51.53125 44.71875 
Q 48 40.375 41.703125 38.8125 
Q 48.828125 37.15625 52.796875 32.3125 
Q 56.78125 27.484375 56.78125 20.515625 
Q 56.78125 9.90625 50.3125 4.234375 
Q 43.84375 -1.421875 31.78125 -1.421875 
Q 19.734375 -1.421875 13.25 4.234375 
Q 6.78125 9.90625 6.78125 20.515625 
Q 6.78125 27.484375 10.78125 32.3125 
Q 14.796875 37.15625 21.921875 38.8125 
z
M 18.3125 54.390625 
Q 18.3125 48.734375 21.84375 45.5625 
Q 25.390625 42.390625 31.78125 42.390625 
Q 38.140625 42.390625 41.71875 45.5625 
Q 45.3125 48.734375 45.3125 54.390625 
Q 45.3125 60.0625 41.71875 63.234375 
Q 38.140625 66.40625 31.78125 66.40625 
Q 25.390625 66.40625 21.84375 63.234375 
Q 18.3125 60.0625 18.3125 54.390625 
z
" id="DejaVuSans-56"/>
       </defs>
       <use xlink:href="#DejaVuSans-56"/>
       <use x="63.623047" xlink:href="#DejaVuSans-48"/>
       <use x="127.246094" xlink:href="#DejaVuSans-48"/>
       <use x="190.869141" xlink:href="#DejaVuSans-48"/>
       <use x="254.492188" xlink:href="#DejaVuSans-48"/>
      </g>
     </g>
    </g>
    <g id="text_21">
     <!-- Daily -->
     <g style="fill:#555555;" transform="translate(16.318125 428.264173)rotate(-90)scale(0.12 -0.12)">
      <defs>
       <path d="M 9.421875 54.6875 
L 18.40625 54.6875 
L 18.40625 0 
L 9.421875 0 
z
M 9.421875 75.984375 
L 18.40625 75.984375 
L 18.40625 64.59375 
L 9.421875 64.59375 
z
" id="DejaVuSans-105"/>
       <path d="M 32.171875 -5.078125 
Q 28.375 -14.84375 24.75 -17.8125 
Q 21.140625 -20.796875 15.09375 -20.796875 
L 7.90625 -20.796875 
L 7.90625 -13.28125 
L 13.1875 -13.28125 
Q 16.890625 -13.28125 18.9375 -11.515625 
Q 21 -9.765625 23.484375 -3.21875 
L 25.09375 0.875 
L 2.984375 54.6875 
L 12.5 54.6875 
L 29.59375 11.921875 
L 46.6875 54.6875 
L 56.203125 54.6875 
z
" id="DejaVuSans-121"/>
      </defs>
      <use xlink:href="#DejaVuSans-68"/>
      <use x="77.001953" xlink:href="#DejaVuSans-97"/>
      <use x="138.28125" xlink:href="#DejaVuSans-105"/>
      <use x="166.064453" xlink:href="#DejaVuSans-108"/>
      <use x="193.847656" xlink:href="#DejaVuSans-121"/>
     </g>
    </g>
   </g>
   <g id="line2d_70">
    <path clip-path="url(#pf1096068df)" d="M 61.930054 503.578648 
L 65.271902 503.228258 
L 66.790924 502.241132 
L 67.398533 501.754762 
L 68.309946 500.029506 
L 68.61375 499.779128 
L 70.74038 494.200263 
L 71.044185 494.009644 
L 71.347989 494.050867 
L 71.955598 493.348978 
L 72.259402 493.239974 
L 72.563207 493.298626 
L 72.867011 492.753328 
L 74.386033 494.230143 
L 74.689837 494.769355 
L 74.993641 495.631153 
L 75.297446 495.946546 
L 76.512663 497.971703 
L 78.639293 499.009734 
L 78.943098 499.439665 
L 80.765924 500.718944 
L 81.373533 501.287206 
L 82.892554 501.779385 
L 83.196359 501.694727 
L 85.019185 501.970281 
L 85.322989 502.144854 
L 86.842011 502.34073 
L 87.145815 502.466057 
L 88.361033 502.540202 
L 88.968641 502.769001 
L 89.57625 502.663593 
L 90.791467 502.757658 
L 91.399076 502.811053 
L 92.006685 502.898478 
L 92.918098 502.900138 
L 93.221902 502.855596 
L 94.133315 502.955747 
L 95.348533 502.9397 
L 96.259946 502.606324 
L 97.171359 502.409342 
L 98.082772 502.452777 
L 98.69038 502.6481 
L 99.905598 502.726672 
L 100.513207 502.80469 
L 104.158859 502.851999 
L 105.67788 502.739121 
L 106.285489 502.665253 
L 107.196902 502.541862 
L 110.234946 502.139874 
L 111.146359 501.929889 
L 111.753967 501.926015 
L 112.66538 501.597619 
L 114.488207 501.194248 
L 114.792011 501.200334 
L 115.095815 501.029081 
L 116.311033 500.956873 
L 117.830054 501.153025 
L 118.741467 501.312382 
L 119.65288 501.316808 
L 122.083315 500.94553 
L 122.38712 500.970982 
L 122.994728 500.686852 
L 124.51375 500.159813 
L 125.121359 500.210442 
L 127.855598 499.652971 
L 128.159402 499.412552 
L 128.767011 499.207823 
L 129.37462 498.492655 
L 130.286033 497.052636 
L 130.893641 496.342171 
L 131.805054 494.21133 
L 132.412663 492.769097 
L 132.716467 492.255062 
L 133.324076 490.813936 
L 134.235489 486.542017 
L 134.843098 483.789519 
L 135.146902 482.533202 
L 136.058315 476.918372 
L 136.665924 474.886022 
L 137.881141 471.338955 
L 138.184946 470.557388 
L 138.48875 469.35668 
L 139.096359 468.497372 
L 139.400163 468.502905 
L 140.007772 467.6317 
L 140.311576 467.068419 
L 140.61538 467.327927 
L 140.919185 467.070632 
L 141.222989 467.773074 
L 141.830598 468.281853 
L 142.134402 468.076294 
L 142.742011 467.907808 
L 143.045815 468.241461 
L 143.34962 468.230394 
L 143.653424 468.469706 
L 143.957228 468.173125 
L 144.261033 468.267467 
L 144.868641 468.851498 
L 145.172446 469.164124 
L 145.780054 469.06591 
L 146.083859 469.442998 
L 146.387663 469.504417 
L 146.691467 469.326524 
L 146.995272 468.877504 
L 147.299076 468.004362 
L 147.60288 467.682606 
L 147.906685 467.558109 
L 148.210489 466.577346 
L 148.514293 466.125559 
L 149.121902 462.931234 
L 149.425707 462.258118 
L 149.729511 461.143175 
L 150.033315 461.038598 
L 150.33712 459.126042 
L 150.33712 459.126042 
" style="fill:none;stroke:#e24a33;stroke-linecap:square;stroke-width:1.5;"/>
   </g>
   <g id="line2d_71">
    <path clip-path="url(#pf1096068df)" d="M 150.640924 458.335799 
L 151.552337 458.251264 
L 152.46375 458.402954 
L 153.375163 458.788331 
L 154.286576 459.400041 
L 155.501793 460.546633 
L 156.717011 462.035083 
L 158.236033 464.301297 
L 160.058859 467.470563 
L 162.793098 472.735763 
L 167.046359 480.924264 
L 169.476793 485.107553 
L 171.603424 488.329887 
L 173.730054 491.11573 
L 175.55288 493.163912 
L 177.375707 494.919542 
L 179.502337 496.634329 
L 181.628967 498.035492 
L 183.755598 499.170613 
L 186.186033 500.19873 
L 188.920272 501.08107 
L 191.958315 501.800636 
L 195.300163 502.359597 
L 199.553424 502.828173 
L 205.021902 503.179726 
L 212.617011 503.416595 
L 225.072989 503.547517 
L 257.27625 503.588238 
L 704.47625 503.5893 
L 704.47625 503.5893 
" style="fill:none;stroke:#348abd;stroke-linecap:square;stroke-width:1.5;"/>
   </g>
   <g id="line2d_72">
    <path clip-path="url(#pf1096068df)" d="M 150.640924 458.335799 
L 151.552337 458.251264 
L 152.46375 458.402954 
L 153.375163 458.788331 
L 154.286576 459.400041 
L 155.501793 460.546633 
L 156.717011 462.035083 
L 158.236033 464.301297 
L 160.058859 467.470563 
L 162.793098 472.735763 
L 167.046359 480.924264 
L 169.476793 485.107553 
L 171.603424 488.329887 
L 173.730054 491.11573 
L 175.55288 493.163912 
L 177.375707 494.919542 
L 179.502337 496.634329 
L 181.628967 498.035492 
L 183.755598 499.170613 
L 186.186033 500.19873 
L 188.920272 501.08107 
L 191.958315 501.800636 
L 195.300163 502.359597 
L 199.553424 502.828173 
L 205.021902 503.179726 
L 212.617011 503.416595 
L 225.072989 503.547517 
L 257.27625 503.588238 
L 704.47625 503.5893 
L 704.47625 503.5893 
" style="fill:none;stroke:#988ed5;stroke-linecap:square;stroke-width:1.5;"/>
   </g>
   <g id="line2d_73">
    <path clip-path="url(#pf1096068df)" d="M 61.930054 503.557346 
L 62.233859 503.456641 
L 63.145272 503.450831 
L 63.449076 503.375856 
L 63.75288 503.10293 
L 65.271902 502.506173 
L 65.879511 501.578253 
L 66.183315 501.099353 
L 67.398533 498.085687 
L 68.309946 492.909918 
L 68.61375 492.158784 
L 70.74038 475.422191 
L 71.044185 474.850333 
L 71.347989 474.974 
L 71.955598 472.868335 
L 72.259402 472.541322 
L 72.563207 472.717278 
L 72.867011 471.081383 
L 74.386033 475.511829 
L 74.689837 477.129464 
L 74.993641 479.714859 
L 75.297446 480.661039 
L 76.512663 486.736509 
L 77.72788 488.351655 
L 78.031685 488.558321 
L 78.335489 488.984931 
L 78.639293 489.850603 
L 78.943098 491.140395 
L 80.158315 493.673501 
L 81.373533 496.683017 
L 82.892554 498.159556 
L 83.196359 497.905581 
L 83.500163 498.010159 
L 83.803967 498.277413 
L 84.107772 498.071578 
L 84.411576 498.195245 
L 85.019185 498.732243 
L 85.322989 499.255962 
L 85.930598 499.338131 
L 86.234402 499.686723 
L 86.538207 499.687553 
L 86.842011 499.84359 
L 87.145815 500.219572 
L 87.44962 500.204632 
L 88.057228 500.374778 
L 88.361033 500.442007 
L 88.968641 501.128402 
L 89.272446 500.895177 
L 89.57625 500.812179 
L 89.880054 500.932527 
L 90.183859 500.896007 
L 90.487663 501.077773 
L 91.095272 501.060344 
L 92.006685 501.516834 
L 92.310489 501.615602 
L 92.614293 501.501894 
L 92.918098 501.521814 
L 93.221902 501.388187 
L 93.525707 501.594852 
L 94.740924 501.683661 
L 95.348533 501.640501 
L 95.652337 501.21555 
L 95.956141 501.005565 
L 96.56375 500.354029 
L 97.475163 500.007926 
L 97.778967 500.251111 
L 98.082772 500.179733 
L 98.69038 500.7657 
L 99.297989 500.870278 
L 100.513207 501.23547 
L 103.855054 501.533434 
L 104.462663 501.25207 
L 104.766467 501.290249 
L 106.285489 500.817159 
L 106.893098 500.522515 
L 107.500707 500.354859 
L 108.715924 499.697513 
L 109.019728 499.751462 
L 110.842554 498.87251 
L 111.146359 498.611066 
L 111.450163 498.671655 
L 111.753967 498.599446 
L 112.361576 497.864912 
L 112.969185 497.371073 
L 113.576793 497.209226 
L 114.184402 496.621599 
L 114.488207 496.404143 
L 114.792011 496.422403 
L 115.095815 495.908644 
L 115.703424 495.653839 
L 116.007228 495.746797 
L 116.311033 495.692018 
L 116.614837 495.858015 
L 116.918641 495.738497 
L 117.222446 496.199138 
L 117.830054 496.280476 
L 118.133859 496.330275 
L 118.741467 496.758546 
L 119.349076 496.940312 
L 120.260489 496.369284 
L 120.564293 496.435682 
L 120.868098 495.953463 
L 121.171902 495.927733 
L 121.475707 495.718578 
L 121.779511 495.751777 
L 122.083315 495.657989 
L 122.38712 495.734347 
L 122.690924 495.13261 
L 123.298533 494.523403 
L 123.906141 493.640302 
L 124.209946 493.644452 
L 124.51375 493.300839 
L 125.121359 493.452726 
L 125.728967 493.081724 
L 126.032772 493.027775 
L 126.64038 492.581245 
L 126.944185 492.557175 
L 127.855598 491.780312 
L 128.159402 491.059057 
L 128.463207 490.901361 
L 128.767011 490.44487 
L 129.070815 489.589989 
L 129.678424 486.769709 
L 129.982228 484.978607 
L 130.893641 481.847914 
L 131.805054 475.45539 
L 132.412663 471.128692 
L 132.716467 469.586585 
L 133.324076 465.263208 
L 134.235489 452.447451 
L 134.843098 444.189957 
L 135.146902 440.421008 
L 136.058315 423.576517 
L 136.665924 417.479467 
L 137.881141 406.838264 
L 138.184946 404.493564 
L 138.48875 400.891441 
L 139.096359 398.313516 
L 139.400163 398.330116 
L 139.703967 397.273548 
L 140.311576 394.026657 
L 140.61538 394.805181 
L 140.919185 394.033297 
L 141.222989 396.140622 
L 141.830598 397.66696 
L 142.134402 397.050283 
L 142.438207 396.962305 
L 142.742011 396.544824 
L 143.045815 397.545782 
L 143.34962 397.512583 
L 143.653424 398.230518 
L 143.957228 397.340777 
L 144.261033 397.623801 
L 144.564837 398.322646 
L 145.172446 400.313773 
L 145.47625 400.060629 
L 145.780054 400.019129 
L 146.083859 401.150395 
L 146.387663 401.334651 
L 146.691467 400.800973 
L 146.995272 399.453912 
L 147.299076 396.834487 
L 147.60288 395.869218 
L 147.906685 395.495726 
L 148.210489 392.553439 
L 148.514293 391.198078 
L 149.121902 381.615102 
L 149.425707 379.595755 
L 149.729511 376.250927 
L 150.033315 375.937193 
L 150.33712 370.199526 
L 150.33712 370.199526 
" style="fill:none;stroke:#777777;stroke-linecap:square;stroke-width:1.5;"/>
   </g>
   <g id="line2d_74">
    <path clip-path="url(#pf1096068df)" d="M 150.640924 367.828798 
L 155.197989 434.558169 
L 156.413207 448.526664 
L 157.628424 460.224738 
L 158.843641 469.780271 
L 160.058859 477.437487 
L 161.274076 483.484001 
L 162.489293 488.205308 
L 163.704511 491.860439 
L 164.919728 494.67181 
L 166.134946 496.823548 
L 167.350163 498.464275 
L 168.56538 499.711815 
L 169.780598 500.658363 
L 171.29962 501.525523 
L 172.818641 502.137233 
L 174.641467 502.637659 
L 177.071902 503.047976 
L 180.109946 503.322072 
L 184.970815 503.502996 
L 194.692554 503.580306 
L 253.934402 503.5893 
L 704.47625 503.5893 
L 704.47625 503.5893 
" style="fill:none;stroke:#fbc15e;stroke-linecap:square;stroke-width:1.5;"/>
   </g>
   <g id="line2d_75">
    <path clip-path="url(#pf1096068df)" d="M 61.930054 503.546694 
L 62.233859 503.412421 
L 63.145272 503.404675 
L 63.449076 503.304708 
L 63.75288 502.940807 
L 65.271902 502.145131 
L 65.879511 500.907904 
L 66.183315 500.269371 
L 67.398533 496.25115 
L 68.309946 489.350124 
L 68.61375 488.348612 
L 70.74038 466.033154 
L 71.044185 465.270677 
L 71.347989 465.435567 
L 71.955598 462.628014 
L 72.259402 462.191996 
L 72.563207 462.426605 
L 72.867011 460.245411 
L 74.386033 466.152672 
L 74.689837 468.309519 
L 74.993641 471.756712 
L 75.297446 473.018285 
L 76.512663 481.118913 
L 77.72788 483.27244 
L 78.031685 483.547994 
L 78.335489 484.116809 
L 78.639293 485.271037 
L 78.943098 486.990761 
L 80.158315 490.368235 
L 81.373533 494.380923 
L 82.892554 496.349641 
L 83.196359 496.011008 
L 83.500163 496.150445 
L 83.803967 496.506784 
L 84.107772 496.232337 
L 84.411576 496.397227 
L 85.019185 497.113225 
L 85.322989 497.811516 
L 85.930598 497.921074 
L 86.234402 498.385864 
L 86.538207 498.386971 
L 86.842011 498.59502 
L 87.145815 499.096329 
L 87.44962 499.076409 
L 88.057228 499.303271 
L 88.361033 499.392909 
L 88.968641 500.308103 
L 89.272446 499.997136 
L 89.57625 499.886472 
L 89.880054 500.046935 
L 90.183859 499.998243 
L 90.487663 500.240598 
L 91.095272 500.217358 
L 91.70288 500.842612 
L 92.006685 500.826012 
L 92.310489 500.957703 
L 92.614293 500.806093 
L 92.918098 500.832652 
L 93.221902 500.654482 
L 93.525707 500.930037 
L 94.43712 501.079433 
L 95.348533 500.990902 
L 95.652337 500.424301 
L 95.956141 500.14432 
L 96.56375 499.275605 
L 96.867554 499.137275 
L 97.171359 498.869467 
L 97.475163 498.814135 
L 97.778967 499.138381 
L 98.082772 499.04321 
L 98.69038 499.8245 
L 98.994185 499.830033 
L 100.513207 500.45086 
L 101.42462 500.694322 
L 102.943641 500.923397 
L 103.855054 500.848145 
L 104.462663 500.472993 
L 104.766467 500.523899 
L 105.981685 500.149853 
L 106.893098 499.500254 
L 107.500707 499.276712 
L 108.715924 498.400251 
L 109.019728 498.472182 
L 110.842554 497.300247 
L 111.146359 496.951655 
L 111.450163 497.03244 
L 111.753967 496.936162 
L 112.361576 495.956783 
L 112.969185 495.29833 
L 113.576793 495.082535 
L 114.184402 494.299031 
L 114.488207 494.009091 
L 114.792011 494.033437 
L 115.095815 493.348425 
L 115.703424 493.008686 
L 116.007228 493.13263 
L 116.311033 493.059591 
L 116.614837 493.28092 
L 116.918641 493.121563 
L 117.222446 493.73575 
L 117.52625 493.73243 
L 118.133859 493.9106 
L 118.741467 494.481627 
L 119.349076 494.723982 
L 120.260489 493.962612 
L 120.564293 494.051143 
L 120.868098 493.408184 
L 121.171902 493.373878 
L 121.475707 493.095004 
L 121.779511 493.139269 
L 122.083315 493.014219 
L 122.38712 493.11603 
L 122.690924 492.313714 
L 123.298533 491.501438 
L 123.602337 490.763307 
L 123.906141 490.32397 
L 124.209946 490.329503 
L 124.51375 489.871353 
L 125.121359 490.073868 
L 125.728967 489.579199 
L 126.032772 489.507267 
L 126.64038 488.911893 
L 126.944185 488.8798 
L 127.855598 487.843982 
L 128.159402 486.88231 
L 128.463207 486.672047 
L 128.767011 486.063394 
L 129.070815 484.923551 
L 129.678424 481.163178 
L 129.982228 478.775043 
L 130.893641 474.600785 
L 131.805054 466.07742 
L 132.412663 460.30849 
L 132.716467 458.252347 
L 133.324076 452.487843 
L 134.235489 435.400168 
L 134.843098 424.390176 
L 135.146902 419.36491 
L 136.058315 396.905589 
L 136.665924 388.776189 
L 137.881141 374.587919 
L 138.184946 371.461652 
L 138.48875 366.658821 
L 139.096359 363.221588 
L 139.400163 363.243721 
L 139.703967 361.834964 
L 140.311576 357.505776 
L 140.61538 358.543808 
L 140.919185 357.51463 
L 141.222989 360.324396 
L 141.830598 362.359513 
L 142.134402 361.537277 
L 142.438207 361.419973 
L 142.742011 360.863332 
L 143.045815 362.197943 
L 143.34962 362.153677 
L 143.653424 363.110924 
L 143.957228 361.924602 
L 144.261033 362.301967 
L 144.564837 363.233761 
L 145.172446 365.888598 
L 145.47625 365.551072 
L 145.780054 365.495739 
L 146.083859 367.004094 
L 146.387663 367.249769 
L 146.691467 366.538197 
L 146.995272 364.742115 
L 147.299076 361.24955 
L 147.60288 359.962524 
L 147.906685 359.464535 
L 148.210489 355.541485 
L 148.514293 353.734337 
L 149.121902 340.957036 
L 149.425707 338.264574 
L 149.729511 333.804802 
L 150.033315 333.386491 
L 150.33712 325.736268 
L 150.33712 325.736268 
" style="fill:none;stroke:#8eba42;stroke-linecap:square;stroke-width:1.5;"/>
   </g>
   <g id="line2d_76">
    <path clip-path="url(#pf1096068df)" d="M 150.640924 322.575297 
L 152.46375 376.600729 
L 153.678967 407.196321 
L 154.894185 432.097336 
L 155.805598 447.114903 
L 156.717011 459.321386 
L 157.628424 469.099966 
L 158.539837 476.845938 
L 159.45125 482.928722 
L 160.362663 487.67356 
L 161.274076 491.355736 
L 162.185489 494.201976 
L 163.096902 496.395402 
L 164.008315 498.081825 
L 164.919728 499.376138 
L 165.831141 500.368163 
L 167.046359 501.338954 
L 168.261576 502.018046 
L 169.780598 502.58697 
L 171.603424 503.005171 
L 174.033859 503.305098 
L 177.679511 503.492897 
L 184.667011 503.577168 
L 220.21212 503.5893 
L 704.47625 503.5893 
L 704.47625 503.5893 
" style="fill:none;stroke:#ffb5b8;stroke-linecap:square;stroke-width:1.5;"/>
   </g>
   <g id="patch_8">
    <path d="M 61.62625 512.64 
L 61.62625 313.524597 
" style="fill:none;stroke:#ffffff;stroke-linecap:square;stroke-linejoin:miter;"/>
   </g>
   <g id="patch_9">
    <path d="M 704.47625 512.64 
L 704.47625 313.524597 
" style="fill:none;stroke:#ffffff;stroke-linecap:square;stroke-linejoin:miter;"/>
   </g>
   <g id="patch_10">
    <path d="M 61.62625 512.64 
L 704.47625 512.64 
" style="fill:none;stroke:#ffffff;stroke-linecap:square;stroke-linejoin:miter;"/>
   </g>
   <g id="patch_11">
    <path d="M 61.62625 313.524597 
L 704.47625 313.524597 
" style="fill:none;stroke:#ffffff;stroke-linecap:square;stroke-linejoin:miter;"/>
   </g>
   <g id="legend_1">
    <g id="patch_12">
     <path d="M 472.766875 424.271472 
L 697.47625 424.271472 
Q 699.47625 424.271472 699.47625 422.271472 
L 699.47625 320.524597 
Q 699.47625 318.524597 697.47625 318.524597 
L 472.766875 318.524597 
Q 470.766875 318.524597 470.766875 320.524597 
L 470.766875 422.271472 
Q 470.766875 424.271472 472.766875 424.271472 
z
" style="fill:#e5e5e5;opacity:0.8;stroke:#cccccc;stroke-linejoin:miter;stroke-width:0.5;"/>
    </g>
    <g id="line2d_77">
     <path d="M 474.766875 326.623034 
L 494.766875 326.623034 
" style="fill:none;stroke:#e24a33;stroke-linecap:square;stroke-width:1.5;"/>
    </g>
    <g id="line2d_78"/>
    <g id="text_22">
     <!-- Cases -->
     <g transform="translate(502.766875 330.123034)scale(0.1 -0.1)">
      <defs>
       <path d="M 64.40625 67.28125 
L 64.40625 56.890625 
Q 59.421875 61.53125 53.78125 63.8125 
Q 48.140625 66.109375 41.796875 66.109375 
Q 29.296875 66.109375 22.65625 58.46875 
Q 16.015625 50.828125 16.015625 36.375 
Q 16.015625 21.96875 22.65625 14.328125 
Q 29.296875 6.6875 41.796875 6.6875 
Q 48.140625 6.6875 53.78125 8.984375 
Q 59.421875 11.28125 64.40625 15.921875 
L 64.40625 5.609375 
Q 59.234375 2.09375 53.4375 0.328125 
Q 47.65625 -1.421875 41.21875 -1.421875 
Q 24.65625 -1.421875 15.125 8.703125 
Q 5.609375 18.84375 5.609375 36.375 
Q 5.609375 53.953125 15.125 64.078125 
Q 24.65625 74.21875 41.21875 74.21875 
Q 47.75 74.21875 53.53125 72.484375 
Q 59.328125 70.75 64.40625 67.28125 
z
" id="DejaVuSans-67"/>
       <path d="M 44.28125 53.078125 
L 44.28125 44.578125 
Q 40.484375 46.53125 36.375 47.5 
Q 32.28125 48.484375 27.875 48.484375 
Q 21.1875 48.484375 17.84375 46.4375 
Q 14.5 44.390625 14.5 40.28125 
Q 14.5 37.15625 16.890625 35.375 
Q 19.28125 33.59375 26.515625 31.984375 
L 29.59375 31.296875 
Q 39.15625 29.25 43.1875 25.515625 
Q 47.21875 21.78125 47.21875 15.09375 
Q 47.21875 7.46875 41.1875 3.015625 
Q 35.15625 -1.421875 24.609375 -1.421875 
Q 20.21875 -1.421875 15.453125 -0.5625 
Q 10.6875 0.296875 5.421875 2 
L 5.421875 11.28125 
Q 10.40625 8.6875 15.234375 7.390625 
Q 20.0625 6.109375 24.8125 6.109375 
Q 31.15625 6.109375 34.5625 8.28125 
Q 37.984375 10.453125 37.984375 14.40625 
Q 37.984375 18.0625 35.515625 20.015625 
Q 33.0625 21.96875 24.703125 23.78125 
L 21.578125 24.515625 
Q 13.234375 26.265625 9.515625 29.90625 
Q 5.8125 33.546875 5.8125 39.890625 
Q 5.8125 47.609375 11.28125 51.796875 
Q 16.75 56 26.8125 56 
Q 31.78125 56 36.171875 55.265625 
Q 40.578125 54.546875 44.28125 53.078125 
z
" id="DejaVuSans-115"/>
      </defs>
      <use xlink:href="#DejaVuSans-67"/>
      <use x="69.824219" xlink:href="#DejaVuSans-97"/>
      <use x="131.103516" xlink:href="#DejaVuSans-115"/>
      <use x="183.203125" xlink:href="#DejaVuSans-101"/>
      <use x="244.726562" xlink:href="#DejaVuSans-115"/>
     </g>
    </g>
    <g id="line2d_79">
     <path d="M 474.766875 341.301159 
L 494.766875 341.301159 
" style="fill:none;stroke:#348abd;stroke-linecap:square;stroke-width:1.5;"/>
    </g>
    <g id="line2d_80"/>
    <g id="text_23">
     <!-- Projected Cases (last 1D avg rate) -->
     <g transform="translate(502.766875 344.801159)scale(0.1 -0.1)">
      <defs>
       <path d="M 19.671875 64.796875 
L 19.671875 37.40625 
L 32.078125 37.40625 
Q 38.96875 37.40625 42.71875 40.96875 
Q 46.484375 44.53125 46.484375 51.125 
Q 46.484375 57.671875 42.71875 61.234375 
Q 38.96875 64.796875 32.078125 64.796875 
z
M 9.8125 72.90625 
L 32.078125 72.90625 
Q 44.34375 72.90625 50.609375 67.359375 
Q 56.890625 61.8125 56.890625 51.125 
Q 56.890625 40.328125 50.609375 34.8125 
Q 44.34375 29.296875 32.078125 29.296875 
L 19.671875 29.296875 
L 19.671875 0 
L 9.8125 0 
z
" id="DejaVuSans-80"/>
       <path d="M 41.109375 46.296875 
Q 39.59375 47.171875 37.8125 47.578125 
Q 36.03125 48 33.890625 48 
Q 26.265625 48 22.1875 43.046875 
Q 18.109375 38.09375 18.109375 28.8125 
L 18.109375 0 
L 9.078125 0 
L 9.078125 54.6875 
L 18.109375 54.6875 
L 18.109375 46.1875 
Q 20.953125 51.171875 25.484375 53.578125 
Q 30.03125 56 36.53125 56 
Q 37.453125 56 38.578125 55.875 
Q 39.703125 55.765625 41.0625 55.515625 
z
" id="DejaVuSans-114"/>
       <path d="M 9.421875 54.6875 
L 18.40625 54.6875 
L 18.40625 -0.984375 
Q 18.40625 -11.421875 14.421875 -16.109375 
Q 10.453125 -20.796875 1.609375 -20.796875 
L -1.8125 -20.796875 
L -1.8125 -13.1875 
L 0.59375 -13.1875 
Q 5.71875 -13.1875 7.5625 -10.8125 
Q 9.421875 -8.453125 9.421875 -0.984375 
z
M 9.421875 75.984375 
L 18.40625 75.984375 
L 18.40625 64.59375 
L 9.421875 64.59375 
z
" id="DejaVuSans-106"/>
       <path d="M 48.78125 52.59375 
L 48.78125 44.1875 
Q 44.96875 46.296875 41.140625 47.34375 
Q 37.3125 48.390625 33.40625 48.390625 
Q 24.65625 48.390625 19.8125 42.84375 
Q 14.984375 37.3125 14.984375 27.296875 
Q 14.984375 17.28125 19.8125 11.734375 
Q 24.65625 6.203125 33.40625 6.203125 
Q 37.3125 6.203125 41.140625 7.25 
Q 44.96875 8.296875 48.78125 10.40625 
L 48.78125 2.09375 
Q 45.015625 0.34375 40.984375 -0.53125 
Q 36.96875 -1.421875 32.421875 -1.421875 
Q 20.0625 -1.421875 12.78125 6.34375 
Q 5.515625 14.109375 5.515625 27.296875 
Q 5.515625 40.671875 12.859375 48.328125 
Q 20.21875 56 33.015625 56 
Q 37.15625 56 41.109375 55.140625 
Q 45.0625 54.296875 48.78125 52.59375 
z
" id="DejaVuSans-99"/>
       <path d="M 45.40625 46.390625 
L 45.40625 75.984375 
L 54.390625 75.984375 
L 54.390625 0 
L 45.40625 0 
L 45.40625 8.203125 
Q 42.578125 3.328125 38.25 0.953125 
Q 33.9375 -1.421875 27.875 -1.421875 
Q 17.96875 -1.421875 11.734375 6.484375 
Q 5.515625 14.40625 5.515625 27.296875 
Q 5.515625 40.1875 11.734375 48.09375 
Q 17.96875 56 27.875 56 
Q 33.9375 56 38.25 53.625 
Q 42.578125 51.265625 45.40625 46.390625 
z
M 14.796875 27.296875 
Q 14.796875 17.390625 18.875 11.75 
Q 22.953125 6.109375 30.078125 6.109375 
Q 37.203125 6.109375 41.296875 11.75 
Q 45.40625 17.390625 45.40625 27.296875 
Q 45.40625 37.203125 41.296875 42.84375 
Q 37.203125 48.484375 30.078125 48.484375 
Q 22.953125 48.484375 18.875 42.84375 
Q 14.796875 37.203125 14.796875 27.296875 
z
" id="DejaVuSans-100"/>
       <path id="DejaVuSans-32"/>
       <path d="M 31 75.875 
Q 24.46875 64.65625 21.28125 53.65625 
Q 18.109375 42.671875 18.109375 31.390625 
Q 18.109375 20.125 21.3125 9.0625 
Q 24.515625 -2 31 -13.1875 
L 23.1875 -13.1875 
Q 15.875 -1.703125 12.234375 9.375 
Q 8.59375 20.453125 8.59375 31.390625 
Q 8.59375 42.28125 12.203125 53.3125 
Q 15.828125 64.359375 23.1875 75.875 
z
" id="DejaVuSans-40"/>
       <path d="M 2.984375 54.6875 
L 12.5 54.6875 
L 29.59375 8.796875 
L 46.6875 54.6875 
L 56.203125 54.6875 
L 35.6875 0 
L 23.484375 0 
z
" id="DejaVuSans-118"/>
       <path d="M 45.40625 27.984375 
Q 45.40625 37.75 41.375 43.109375 
Q 37.359375 48.484375 30.078125 48.484375 
Q 22.859375 48.484375 18.828125 43.109375 
Q 14.796875 37.75 14.796875 27.984375 
Q 14.796875 18.265625 18.828125 12.890625 
Q 22.859375 7.515625 30.078125 7.515625 
Q 37.359375 7.515625 41.375 12.890625 
Q 45.40625 18.265625 45.40625 27.984375 
z
M 54.390625 6.78125 
Q 54.390625 -7.171875 48.1875 -13.984375 
Q 42 -20.796875 29.203125 -20.796875 
Q 24.46875 -20.796875 20.265625 -20.09375 
Q 16.0625 -19.390625 12.109375 -17.921875 
L 12.109375 -9.1875 
Q 16.0625 -11.328125 19.921875 -12.34375 
Q 23.78125 -13.375 27.78125 -13.375 
Q 36.625 -13.375 41.015625 -8.765625 
Q 45.40625 -4.15625 45.40625 5.171875 
L 45.40625 9.625 
Q 42.625 4.78125 38.28125 2.390625 
Q 33.9375 0 27.875 0 
Q 17.828125 0 11.671875 7.65625 
Q 5.515625 15.328125 5.515625 27.984375 
Q 5.515625 40.671875 11.671875 48.328125 
Q 17.828125 56 27.875 56 
Q 33.9375 56 38.28125 53.609375 
Q 42.625 51.21875 45.40625 46.390625 
L 45.40625 54.6875 
L 54.390625 54.6875 
z
" id="DejaVuSans-103"/>
       <path d="M 8.015625 75.875 
L 15.828125 75.875 
Q 23.140625 64.359375 26.78125 53.3125 
Q 30.421875 42.28125 30.421875 31.390625 
Q 30.421875 20.453125 26.78125 9.375 
Q 23.140625 -1.703125 15.828125 -13.1875 
L 8.015625 -13.1875 
Q 14.5 -2 17.703125 9.0625 
Q 20.90625 20.125 20.90625 31.390625 
Q 20.90625 42.671875 17.703125 53.65625 
Q 14.5 64.65625 8.015625 75.875 
z
" id="DejaVuSans-41"/>
      </defs>
      <use xlink:href="#DejaVuSans-80"/>
      <use x="58.552734" xlink:href="#DejaVuSans-114"/>
      <use x="97.416016" xlink:href="#DejaVuSans-111"/>
      <use x="158.597656" xlink:href="#DejaVuSans-106"/>
      <use x="186.380859" xlink:href="#DejaVuSans-101"/>
      <use x="247.904297" xlink:href="#DejaVuSans-99"/>
      <use x="302.884766" xlink:href="#DejaVuSans-116"/>
      <use x="342.09375" xlink:href="#DejaVuSans-101"/>
      <use x="403.617188" xlink:href="#DejaVuSans-100"/>
      <use x="467.09375" xlink:href="#DejaVuSans-32"/>
      <use x="498.880859" xlink:href="#DejaVuSans-67"/>
      <use x="568.705078" xlink:href="#DejaVuSans-97"/>
      <use x="629.984375" xlink:href="#DejaVuSans-115"/>
      <use x="682.083984" xlink:href="#DejaVuSans-101"/>
      <use x="743.607422" xlink:href="#DejaVuSans-115"/>
      <use x="795.707031" xlink:href="#DejaVuSans-32"/>
      <use x="827.494141" xlink:href="#DejaVuSans-40"/>
      <use x="866.507812" xlink:href="#DejaVuSans-108"/>
      <use x="894.291016" xlink:href="#DejaVuSans-97"/>
      <use x="955.570312" xlink:href="#DejaVuSans-115"/>
      <use x="1007.669922" xlink:href="#DejaVuSans-116"/>
      <use x="1046.878906" xlink:href="#DejaVuSans-32"/>
      <use x="1078.666016" xlink:href="#DejaVuSans-49"/>
      <use x="1142.289062" xlink:href="#DejaVuSans-68"/>
      <use x="1219.291016" xlink:href="#DejaVuSans-32"/>
      <use x="1251.078125" xlink:href="#DejaVuSans-97"/>
      <use x="1312.357422" xlink:href="#DejaVuSans-118"/>
      <use x="1371.537109" xlink:href="#DejaVuSans-103"/>
      <use x="1435.013672" xlink:href="#DejaVuSans-32"/>
      <use x="1466.800781" xlink:href="#DejaVuSans-114"/>
      <use x="1507.914062" xlink:href="#DejaVuSans-97"/>
      <use x="1569.193359" xlink:href="#DejaVuSans-116"/>
      <use x="1608.402344" xlink:href="#DejaVuSans-101"/>
      <use x="1669.925781" xlink:href="#DejaVuSans-41"/>
     </g>
    </g>
    <g id="line2d_81">
     <path d="M 474.766875 355.979284 
L 494.766875 355.979284 
" style="fill:none;stroke:#988ed5;stroke-linecap:square;stroke-width:1.5;"/>
    </g>
    <g id="line2d_82"/>
    <g id="text_24">
     <!-- Projected Cases (last 7D avg rate) -->
     <g transform="translate(502.766875 359.479284)scale(0.1 -0.1)">
      <defs>
       <path d="M 8.203125 72.90625 
L 55.078125 72.90625 
L 55.078125 68.703125 
L 28.609375 0 
L 18.3125 0 
L 43.21875 64.59375 
L 8.203125 64.59375 
z
" id="DejaVuSans-55"/>
      </defs>
      <use xlink:href="#DejaVuSans-80"/>
      <use x="58.552734" xlink:href="#DejaVuSans-114"/>
      <use x="97.416016" xlink:href="#DejaVuSans-111"/>
      <use x="158.597656" xlink:href="#DejaVuSans-106"/>
      <use x="186.380859" xlink:href="#DejaVuSans-101"/>
      <use x="247.904297" xlink:href="#DejaVuSans-99"/>
      <use x="302.884766" xlink:href="#DejaVuSans-116"/>
      <use x="342.09375" xlink:href="#DejaVuSans-101"/>
      <use x="403.617188" xlink:href="#DejaVuSans-100"/>
      <use x="467.09375" xlink:href="#DejaVuSans-32"/>
      <use x="498.880859" xlink:href="#DejaVuSans-67"/>
      <use x="568.705078" xlink:href="#DejaVuSans-97"/>
      <use x="629.984375" xlink:href="#DejaVuSans-115"/>
      <use x="682.083984" xlink:href="#DejaVuSans-101"/>
      <use x="743.607422" xlink:href="#DejaVuSans-115"/>
      <use x="795.707031" xlink:href="#DejaVuSans-32"/>
      <use x="827.494141" xlink:href="#DejaVuSans-40"/>
      <use x="866.507812" xlink:href="#DejaVuSans-108"/>
      <use x="894.291016" xlink:href="#DejaVuSans-97"/>
      <use x="955.570312" xlink:href="#DejaVuSans-115"/>
      <use x="1007.669922" xlink:href="#DejaVuSans-116"/>
      <use x="1046.878906" xlink:href="#DejaVuSans-32"/>
      <use x="1078.666016" xlink:href="#DejaVuSans-55"/>
      <use x="1142.289062" xlink:href="#DejaVuSans-68"/>
      <use x="1219.291016" xlink:href="#DejaVuSans-32"/>
      <use x="1251.078125" xlink:href="#DejaVuSans-97"/>
      <use x="1312.357422" xlink:href="#DejaVuSans-118"/>
      <use x="1371.537109" xlink:href="#DejaVuSans-103"/>
      <use x="1435.013672" xlink:href="#DejaVuSans-32"/>
      <use x="1466.800781" xlink:href="#DejaVuSans-114"/>
      <use x="1507.914062" xlink:href="#DejaVuSans-97"/>
      <use x="1569.193359" xlink:href="#DejaVuSans-116"/>
      <use x="1608.402344" xlink:href="#DejaVuSans-101"/>
      <use x="1669.925781" xlink:href="#DejaVuSans-41"/>
     </g>
    </g>
    <g id="line2d_83">
     <path d="M 474.766875 370.657409 
L 494.766875 370.657409 
" style="fill:none;stroke:#777777;stroke-linecap:square;stroke-width:1.5;"/>
    </g>
    <g id="line2d_84"/>
    <g id="text_25">
     <!-- Cases x3 -->
     <g transform="translate(502.766875 374.157409)scale(0.1 -0.1)">
      <defs>
       <path d="M 54.890625 54.6875 
L 35.109375 28.078125 
L 55.90625 0 
L 45.3125 0 
L 29.390625 21.484375 
L 13.484375 0 
L 2.875 0 
L 24.125 28.609375 
L 4.6875 54.6875 
L 15.28125 54.6875 
L 29.78125 35.203125 
L 44.28125 54.6875 
z
" id="DejaVuSans-120"/>
      </defs>
      <use xlink:href="#DejaVuSans-67"/>
      <use x="69.824219" xlink:href="#DejaVuSans-97"/>
      <use x="131.103516" xlink:href="#DejaVuSans-115"/>
      <use x="183.203125" xlink:href="#DejaVuSans-101"/>
      <use x="244.726562" xlink:href="#DejaVuSans-115"/>
      <use x="296.826172" xlink:href="#DejaVuSans-32"/>
      <use x="328.613281" xlink:href="#DejaVuSans-120"/>
      <use x="387.792969" xlink:href="#DejaVuSans-51"/>
     </g>
    </g>
    <g id="line2d_85">
     <path d="M 474.766875 385.335534 
L 494.766875 385.335534 
" style="fill:none;stroke:#fbc15e;stroke-linecap:square;stroke-width:1.5;"/>
    </g>
    <g id="line2d_86"/>
    <g id="text_26">
     <!-- Projected Cases x3,  (last 7D avg rate) -->
     <g transform="translate(502.766875 388.835534)scale(0.1 -0.1)">
      <defs>
       <path d="M 11.71875 12.40625 
L 22.015625 12.40625 
L 22.015625 4 
L 14.015625 -11.625 
L 7.71875 -11.625 
L 11.71875 4 
z
" id="DejaVuSans-44"/>
      </defs>
      <use xlink:href="#DejaVuSans-80"/>
      <use x="58.552734" xlink:href="#DejaVuSans-114"/>
      <use x="97.416016" xlink:href="#DejaVuSans-111"/>
      <use x="158.597656" xlink:href="#DejaVuSans-106"/>
      <use x="186.380859" xlink:href="#DejaVuSans-101"/>
      <use x="247.904297" xlink:href="#DejaVuSans-99"/>
      <use x="302.884766" xlink:href="#DejaVuSans-116"/>
      <use x="342.09375" xlink:href="#DejaVuSans-101"/>
      <use x="403.617188" xlink:href="#DejaVuSans-100"/>
      <use x="467.09375" xlink:href="#DejaVuSans-32"/>
      <use x="498.880859" xlink:href="#DejaVuSans-67"/>
      <use x="568.705078" xlink:href="#DejaVuSans-97"/>
      <use x="629.984375" xlink:href="#DejaVuSans-115"/>
      <use x="682.083984" xlink:href="#DejaVuSans-101"/>
      <use x="743.607422" xlink:href="#DejaVuSans-115"/>
      <use x="795.707031" xlink:href="#DejaVuSans-32"/>
      <use x="827.494141" xlink:href="#DejaVuSans-120"/>
      <use x="886.673828" xlink:href="#DejaVuSans-51"/>
      <use x="950.296875" xlink:href="#DejaVuSans-44"/>
      <use x="982.083984" xlink:href="#DejaVuSans-32"/>
      <use x="1013.871094" xlink:href="#DejaVuSans-32"/>
      <use x="1045.658203" xlink:href="#DejaVuSans-40"/>
      <use x="1084.671875" xlink:href="#DejaVuSans-108"/>
      <use x="1112.455078" xlink:href="#DejaVuSans-97"/>
      <use x="1173.734375" xlink:href="#DejaVuSans-115"/>
      <use x="1225.833984" xlink:href="#DejaVuSans-116"/>
      <use x="1265.042969" xlink:href="#DejaVuSans-32"/>
      <use x="1296.830078" xlink:href="#DejaVuSans-55"/>
      <use x="1360.453125" xlink:href="#DejaVuSans-68"/>
      <use x="1437.455078" xlink:href="#DejaVuSans-32"/>
      <use x="1469.242188" xlink:href="#DejaVuSans-97"/>
      <use x="1530.521484" xlink:href="#DejaVuSans-118"/>
      <use x="1589.701172" xlink:href="#DejaVuSans-103"/>
      <use x="1653.177734" xlink:href="#DejaVuSans-32"/>
      <use x="1684.964844" xlink:href="#DejaVuSans-114"/>
      <use x="1726.078125" xlink:href="#DejaVuSans-97"/>
      <use x="1787.357422" xlink:href="#DejaVuSans-116"/>
      <use x="1826.566406" xlink:href="#DejaVuSans-101"/>
      <use x="1888.089844" xlink:href="#DejaVuSans-41"/>
     </g>
    </g>
    <g id="line2d_87">
     <path d="M 474.766875 400.013659 
L 494.766875 400.013659 
" style="fill:none;stroke:#8eba42;stroke-linecap:square;stroke-width:1.5;"/>
    </g>
    <g id="line2d_88"/>
    <g id="text_27">
     <!-- Cases x4 -->
     <g transform="translate(502.766875 403.513659)scale(0.1 -0.1)">
      <use xlink:href="#DejaVuSans-67"/>
      <use x="69.824219" xlink:href="#DejaVuSans-97"/>
      <use x="131.103516" xlink:href="#DejaVuSans-115"/>
      <use x="183.203125" xlink:href="#DejaVuSans-101"/>
      <use x="244.726562" xlink:href="#DejaVuSans-115"/>
      <use x="296.826172" xlink:href="#DejaVuSans-32"/>
      <use x="328.613281" xlink:href="#DejaVuSans-120"/>
      <use x="387.792969" xlink:href="#DejaVuSans-52"/>
     </g>
    </g>
    <g id="line2d_89">
     <path d="M 474.766875 414.691784 
L 494.766875 414.691784 
" style="fill:none;stroke:#ffb5b8;stroke-linecap:square;stroke-width:1.5;"/>
    </g>
    <g id="line2d_90"/>
    <g id="text_28">
     <!-- Projected Cases x4,  (last 7D avg rate) -->
     <g transform="translate(502.766875 418.191784)scale(0.1 -0.1)">
      <use xlink:href="#DejaVuSans-80"/>
      <use x="58.552734" xlink:href="#DejaVuSans-114"/>
      <use x="97.416016" xlink:href="#DejaVuSans-111"/>
      <use x="158.597656" xlink:href="#DejaVuSans-106"/>
      <use x="186.380859" xlink:href="#DejaVuSans-101"/>
      <use x="247.904297" xlink:href="#DejaVuSans-99"/>
      <use x="302.884766" xlink:href="#DejaVuSans-116"/>
      <use x="342.09375" xlink:href="#DejaVuSans-101"/>
      <use x="403.617188" xlink:href="#DejaVuSans-100"/>
      <use x="467.09375" xlink:href="#DejaVuSans-32"/>
      <use x="498.880859" xlink:href="#DejaVuSans-67"/>
      <use x="568.705078" xlink:href="#DejaVuSans-97"/>
      <use x="629.984375" xlink:href="#DejaVuSans-115"/>
      <use x="682.083984" xlink:href="#DejaVuSans-101"/>
      <use x="743.607422" xlink:href="#DejaVuSans-115"/>
      <use x="795.707031" xlink:href="#DejaVuSans-32"/>
      <use x="827.494141" xlink:href="#DejaVuSans-120"/>
      <use x="886.673828" xlink:href="#DejaVuSans-52"/>
      <use x="950.296875" xlink:href="#DejaVuSans-44"/>
      <use x="982.083984" xlink:href="#DejaVuSans-32"/>
      <use x="1013.871094" xlink:href="#DejaVuSans-32"/>
      <use x="1045.658203" xlink:href="#DejaVuSans-40"/>
      <use x="1084.671875" xlink:href="#DejaVuSans-108"/>
      <use x="1112.455078" xlink:href="#DejaVuSans-97"/>
      <use x="1173.734375" xlink:href="#DejaVuSans-115"/>
      <use x="1225.833984" xlink:href="#DejaVuSans-116"/>
      <use x="1265.042969" xlink:href="#DejaVuSans-32"/>
      <use x="1296.830078" xlink:href="#DejaVuSans-55"/>
      <use x="1360.453125" xlink:href="#DejaVuSans-68"/>
      <use x="1437.455078" xlink:href="#DejaVuSans-32"/>
      <use x="1469.242188" xlink:href="#DejaVuSans-97"/>
      <use x="1530.521484" xlink:href="#DejaVuSans-118"/>
      <use x="1589.701172" xlink:href="#DejaVuSans-103"/>
      <use x="1653.177734" xlink:href="#DejaVuSans-32"/>
      <use x="1684.964844" xlink:href="#DejaVuSans-114"/>
      <use x="1726.078125" xlink:href="#DejaVuSans-97"/>
      <use x="1787.357422" xlink:href="#DejaVuSans-116"/>
      <use x="1826.566406" xlink:href="#DejaVuSans-101"/>
      <use x="1888.089844" xlink:href="#DejaVuSans-41"/>
     </g>
    </g>
   </g>
  </g>
  <g id="text_29">
   <!-- COVID-19 spread projection using Logistic map -->
   <g transform="translate(213.8675 16.318125)scale(0.12 -0.12)">
    <defs>
     <path d="M 39.40625 66.21875 
Q 28.65625 66.21875 22.328125 58.203125 
Q 16.015625 50.203125 16.015625 36.375 
Q 16.015625 22.609375 22.328125 14.59375 
Q 28.65625 6.59375 39.40625 6.59375 
Q 50.140625 6.59375 56.421875 14.59375 
Q 62.703125 22.609375 62.703125 36.375 
Q 62.703125 50.203125 56.421875 58.203125 
Q 50.140625 66.21875 39.40625 66.21875 
z
M 39.40625 74.21875 
Q 54.734375 74.21875 63.90625 63.9375 
Q 73.09375 53.65625 73.09375 36.375 
Q 73.09375 19.140625 63.90625 8.859375 
Q 54.734375 -1.421875 39.40625 -1.421875 
Q 24.03125 -1.421875 14.8125 8.828125 
Q 5.609375 19.09375 5.609375 36.375 
Q 5.609375 53.65625 14.8125 63.9375 
Q 24.03125 74.21875 39.40625 74.21875 
z
" id="DejaVuSans-79"/>
     <path d="M 28.609375 0 
L 0.78125 72.90625 
L 11.078125 72.90625 
L 34.1875 11.53125 
L 57.328125 72.90625 
L 67.578125 72.90625 
L 39.796875 0 
z
" id="DejaVuSans-86"/>
     <path d="M 9.8125 72.90625 
L 19.671875 72.90625 
L 19.671875 0 
L 9.8125 0 
z
" id="DejaVuSans-73"/>
     <path d="M 4.890625 31.390625 
L 31.203125 31.390625 
L 31.203125 23.390625 
L 4.890625 23.390625 
z
" id="DejaVuSans-45"/>
     <path d="M 10.984375 1.515625 
L 10.984375 10.5 
Q 14.703125 8.734375 18.5 7.8125 
Q 22.3125 6.890625 25.984375 6.890625 
Q 35.75 6.890625 40.890625 13.453125 
Q 46.046875 20.015625 46.78125 33.40625 
Q 43.953125 29.203125 39.59375 26.953125 
Q 35.25 24.703125 29.984375 24.703125 
Q 19.046875 24.703125 12.671875 31.3125 
Q 6.296875 37.9375 6.296875 49.421875 
Q 6.296875 60.640625 12.9375 67.421875 
Q 19.578125 74.21875 30.609375 74.21875 
Q 43.265625 74.21875 49.921875 64.515625 
Q 56.59375 54.828125 56.59375 36.375 
Q 56.59375 19.140625 48.40625 8.859375 
Q 40.234375 -1.421875 26.421875 -1.421875 
Q 22.703125 -1.421875 18.890625 -0.6875 
Q 15.09375 0.046875 10.984375 1.515625 
z
M 30.609375 32.421875 
Q 37.25 32.421875 41.125 36.953125 
Q 45.015625 41.5 45.015625 49.421875 
Q 45.015625 57.28125 41.125 61.84375 
Q 37.25 66.40625 30.609375 66.40625 
Q 23.96875 66.40625 20.09375 61.84375 
Q 16.21875 57.28125 16.21875 49.421875 
Q 16.21875 41.5 20.09375 36.953125 
Q 23.96875 32.421875 30.609375 32.421875 
z
" id="DejaVuSans-57"/>
     <path d="M 18.109375 8.203125 
L 18.109375 -20.796875 
L 9.078125 -20.796875 
L 9.078125 54.6875 
L 18.109375 54.6875 
L 18.109375 46.390625 
Q 20.953125 51.265625 25.265625 53.625 
Q 29.59375 56 35.59375 56 
Q 45.5625 56 51.78125 48.09375 
Q 58.015625 40.1875 58.015625 27.296875 
Q 58.015625 14.40625 51.78125 6.484375 
Q 45.5625 -1.421875 35.59375 -1.421875 
Q 29.59375 -1.421875 25.265625 0.953125 
Q 20.953125 3.328125 18.109375 8.203125 
z
M 48.6875 27.296875 
Q 48.6875 37.203125 44.609375 42.84375 
Q 40.53125 48.484375 33.40625 48.484375 
Q 26.265625 48.484375 22.1875 42.84375 
Q 18.109375 37.203125 18.109375 27.296875 
Q 18.109375 17.390625 22.1875 11.75 
Q 26.265625 6.109375 33.40625 6.109375 
Q 40.53125 6.109375 44.609375 11.75 
Q 48.6875 17.390625 48.6875 27.296875 
z
" id="DejaVuSans-112"/>
     <path d="M 54.890625 33.015625 
L 54.890625 0 
L 45.90625 0 
L 45.90625 32.71875 
Q 45.90625 40.484375 42.875 44.328125 
Q 39.84375 48.1875 33.796875 48.1875 
Q 26.515625 48.1875 22.3125 43.546875 
Q 18.109375 38.921875 18.109375 30.90625 
L 18.109375 0 
L 9.078125 0 
L 9.078125 54.6875 
L 18.109375 54.6875 
L 18.109375 46.1875 
Q 21.34375 51.125 25.703125 53.5625 
Q 30.078125 56 35.796875 56 
Q 45.21875 56 50.046875 50.171875 
Q 54.890625 44.34375 54.890625 33.015625 
z
" id="DejaVuSans-110"/>
     <path d="M 8.5 21.578125 
L 8.5 54.6875 
L 17.484375 54.6875 
L 17.484375 21.921875 
Q 17.484375 14.15625 20.5 10.265625 
Q 23.53125 6.390625 29.59375 6.390625 
Q 36.859375 6.390625 41.078125 11.03125 
Q 45.3125 15.671875 45.3125 23.6875 
L 45.3125 54.6875 
L 54.296875 54.6875 
L 54.296875 0 
L 45.3125 0 
L 45.3125 8.40625 
Q 42.046875 3.421875 37.71875 1 
Q 33.40625 -1.421875 27.6875 -1.421875 
Q 18.265625 -1.421875 13.375 4.4375 
Q 8.5 10.296875 8.5 21.578125 
z
M 31.109375 56 
z
" id="DejaVuSans-117"/>
     <path d="M 9.8125 72.90625 
L 19.671875 72.90625 
L 19.671875 8.296875 
L 55.171875 8.296875 
L 55.171875 0 
L 9.8125 0 
z
" id="DejaVuSans-76"/>
     <path d="M 52 44.1875 
Q 55.375 50.25 60.0625 53.125 
Q 64.75 56 71.09375 56 
Q 79.640625 56 84.28125 50.015625 
Q 88.921875 44.046875 88.921875 33.015625 
L 88.921875 0 
L 79.890625 0 
L 79.890625 32.71875 
Q 79.890625 40.578125 77.09375 44.375 
Q 74.3125 48.1875 68.609375 48.1875 
Q 61.625 48.1875 57.5625 43.546875 
Q 53.515625 38.921875 53.515625 30.90625 
L 53.515625 0 
L 44.484375 0 
L 44.484375 32.71875 
Q 44.484375 40.625 41.703125 44.40625 
Q 38.921875 48.1875 33.109375 48.1875 
Q 26.21875 48.1875 22.15625 43.53125 
Q 18.109375 38.875 18.109375 30.90625 
L 18.109375 0 
L 9.078125 0 
L 9.078125 54.6875 
L 18.109375 54.6875 
L 18.109375 46.1875 
Q 21.1875 51.21875 25.484375 53.609375 
Q 29.78125 56 35.6875 56 
Q 41.65625 56 45.828125 52.96875 
Q 50 49.953125 52 44.1875 
z
" id="DejaVuSans-109"/>
    </defs>
    <use xlink:href="#DejaVuSans-67"/>
    <use x="69.824219" xlink:href="#DejaVuSans-79"/>
    <use x="146.785156" xlink:href="#DejaVuSans-86"/>
    <use x="215.193359" xlink:href="#DejaVuSans-73"/>
    <use x="244.685547" xlink:href="#DejaVuSans-68"/>
    <use x="321.6875" xlink:href="#DejaVuSans-45"/>
    <use x="357.771484" xlink:href="#DejaVuSans-49"/>
    <use x="421.394531" xlink:href="#DejaVuSans-57"/>
    <use x="485.017578" xlink:href="#DejaVuSans-32"/>
    <use x="516.804688" xlink:href="#DejaVuSans-115"/>
    <use x="568.904297" xlink:href="#DejaVuSans-112"/>
    <use x="632.380859" xlink:href="#DejaVuSans-114"/>
    <use x="671.244141" xlink:href="#DejaVuSans-101"/>
    <use x="732.767578" xlink:href="#DejaVuSans-97"/>
    <use x="794.046875" xlink:href="#DejaVuSans-100"/>
    <use x="857.523438" xlink:href="#DejaVuSans-32"/>
    <use x="889.310547" xlink:href="#DejaVuSans-112"/>
    <use x="952.787109" xlink:href="#DejaVuSans-114"/>
    <use x="991.650391" xlink:href="#DejaVuSans-111"/>
    <use x="1052.832031" xlink:href="#DejaVuSans-106"/>
    <use x="1080.615234" xlink:href="#DejaVuSans-101"/>
    <use x="1142.138672" xlink:href="#DejaVuSans-99"/>
    <use x="1197.119141" xlink:href="#DejaVuSans-116"/>
    <use x="1236.328125" xlink:href="#DejaVuSans-105"/>
    <use x="1264.111328" xlink:href="#DejaVuSans-111"/>
    <use x="1325.292969" xlink:href="#DejaVuSans-110"/>
    <use x="1388.671875" xlink:href="#DejaVuSans-32"/>
    <use x="1420.458984" xlink:href="#DejaVuSans-117"/>
    <use x="1483.837891" xlink:href="#DejaVuSans-115"/>
    <use x="1535.9375" xlink:href="#DejaVuSans-105"/>
    <use x="1563.720703" xlink:href="#DejaVuSans-110"/>
    <use x="1627.099609" xlink:href="#DejaVuSans-103"/>
    <use x="1690.576172" xlink:href="#DejaVuSans-32"/>
    <use x="1722.363281" xlink:href="#DejaVuSans-76"/>
    <use x="1776.326172" xlink:href="#DejaVuSans-111"/>
    <use x="1837.507812" xlink:href="#DejaVuSans-103"/>
    <use x="1900.984375" xlink:href="#DejaVuSans-105"/>
    <use x="1928.767578" xlink:href="#DejaVuSans-115"/>
    <use x="1980.867188" xlink:href="#DejaVuSans-116"/>
    <use x="2020.076172" xlink:href="#DejaVuSans-105"/>
    <use x="2047.859375" xlink:href="#DejaVuSans-99"/>
    <use x="2102.839844" xlink:href="#DejaVuSans-32"/>
    <use x="2134.626953" xlink:href="#DejaVuSans-109"/>
    <use x="2232.039062" xlink:href="#DejaVuSans-97"/>
    <use x="2293.318359" xlink:href="#DejaVuSans-112"/>
   </g>
   <!-- assuming a carrying capacity of K=83M people and dt=4D tick time. -->
   <g transform="translate(148.644688 29.7555)scale(0.12 -0.12)">
    <defs>
     <path d="M 37.109375 75.984375 
L 37.109375 68.5 
L 28.515625 68.5 
Q 23.6875 68.5 21.796875 66.546875 
Q 19.921875 64.59375 19.921875 59.515625 
L 19.921875 54.6875 
L 34.71875 54.6875 
L 34.71875 47.703125 
L 19.921875 47.703125 
L 19.921875 0 
L 10.890625 0 
L 10.890625 47.703125 
L 2.296875 47.703125 
L 2.296875 54.6875 
L 10.890625 54.6875 
L 10.890625 58.5 
Q 10.890625 67.625 15.140625 71.796875 
Q 19.390625 75.984375 28.609375 75.984375 
z
" id="DejaVuSans-102"/>
     <path d="M 9.8125 72.90625 
L 19.671875 72.90625 
L 19.671875 42.09375 
L 52.390625 72.90625 
L 65.09375 72.90625 
L 28.90625 38.921875 
L 67.671875 0 
L 54.6875 0 
L 19.671875 35.109375 
L 19.671875 0 
L 9.8125 0 
z
" id="DejaVuSans-75"/>
     <path d="M 10.59375 45.40625 
L 73.1875 45.40625 
L 73.1875 37.203125 
L 10.59375 37.203125 
z
M 10.59375 25.484375 
L 73.1875 25.484375 
L 73.1875 17.1875 
L 10.59375 17.1875 
z
" id="DejaVuSans-61"/>
     <path d="M 9.8125 72.90625 
L 24.515625 72.90625 
L 43.109375 23.296875 
L 61.8125 72.90625 
L 76.515625 72.90625 
L 76.515625 0 
L 66.890625 0 
L 66.890625 64.015625 
L 48.09375 14.015625 
L 38.1875 14.015625 
L 19.390625 64.015625 
L 19.390625 0 
L 9.8125 0 
z
" id="DejaVuSans-77"/>
     <path d="M 9.078125 75.984375 
L 18.109375 75.984375 
L 18.109375 31.109375 
L 44.921875 54.6875 
L 56.390625 54.6875 
L 27.390625 29.109375 
L 57.625 0 
L 45.90625 0 
L 18.109375 26.703125 
L 18.109375 0 
L 9.078125 0 
z
" id="DejaVuSans-107"/>
     <path d="M 10.6875 12.40625 
L 21 12.40625 
L 21 0 
L 10.6875 0 
z
" id="DejaVuSans-46"/>
    </defs>
    <use xlink:href="#DejaVuSans-97"/>
    <use x="61.279297" xlink:href="#DejaVuSans-115"/>
    <use x="113.378906" xlink:href="#DejaVuSans-115"/>
    <use x="165.478516" xlink:href="#DejaVuSans-117"/>
    <use x="228.857422" xlink:href="#DejaVuSans-109"/>
    <use x="326.269531" xlink:href="#DejaVuSans-105"/>
    <use x="354.052734" xlink:href="#DejaVuSans-110"/>
    <use x="417.431641" xlink:href="#DejaVuSans-103"/>
    <use x="480.908203" xlink:href="#DejaVuSans-32"/>
    <use x="512.695312" xlink:href="#DejaVuSans-97"/>
    <use x="573.974609" xlink:href="#DejaVuSans-32"/>
    <use x="605.761719" xlink:href="#DejaVuSans-99"/>
    <use x="660.742188" xlink:href="#DejaVuSans-97"/>
    <use x="722.021484" xlink:href="#DejaVuSans-114"/>
    <use x="761.384766" xlink:href="#DejaVuSans-114"/>
    <use x="802.498047" xlink:href="#DejaVuSans-121"/>
    <use x="861.677734" xlink:href="#DejaVuSans-105"/>
    <use x="889.460938" xlink:href="#DejaVuSans-110"/>
    <use x="952.839844" xlink:href="#DejaVuSans-103"/>
    <use x="1016.316406" xlink:href="#DejaVuSans-32"/>
    <use x="1048.103516" xlink:href="#DejaVuSans-99"/>
    <use x="1103.083984" xlink:href="#DejaVuSans-97"/>
    <use x="1164.363281" xlink:href="#DejaVuSans-112"/>
    <use x="1227.839844" xlink:href="#DejaVuSans-97"/>
    <use x="1289.119141" xlink:href="#DejaVuSans-99"/>
    <use x="1344.099609" xlink:href="#DejaVuSans-105"/>
    <use x="1371.882812" xlink:href="#DejaVuSans-116"/>
    <use x="1411.091797" xlink:href="#DejaVuSans-121"/>
    <use x="1470.271484" xlink:href="#DejaVuSans-32"/>
    <use x="1502.058594" xlink:href="#DejaVuSans-111"/>
    <use x="1563.240234" xlink:href="#DejaVuSans-102"/>
    <use x="1598.445312" xlink:href="#DejaVuSans-32"/>
    <use x="1630.232422" xlink:href="#DejaVuSans-75"/>
    <use x="1695.808594" xlink:href="#DejaVuSans-61"/>
    <use x="1779.597656" xlink:href="#DejaVuSans-56"/>
    <use x="1843.220703" xlink:href="#DejaVuSans-51"/>
    <use x="1906.84375" xlink:href="#DejaVuSans-77"/>
    <use x="1993.123047" xlink:href="#DejaVuSans-32"/>
    <use x="2024.910156" xlink:href="#DejaVuSans-112"/>
    <use x="2088.386719" xlink:href="#DejaVuSans-101"/>
    <use x="2149.910156" xlink:href="#DejaVuSans-111"/>
    <use x="2211.091797" xlink:href="#DejaVuSans-112"/>
    <use x="2274.568359" xlink:href="#DejaVuSans-108"/>
    <use x="2302.351562" xlink:href="#DejaVuSans-101"/>
    <use x="2363.875" xlink:href="#DejaVuSans-32"/>
    <use x="2395.662109" xlink:href="#DejaVuSans-97"/>
    <use x="2456.941406" xlink:href="#DejaVuSans-110"/>
    <use x="2520.320312" xlink:href="#DejaVuSans-100"/>
    <use x="2583.796875" xlink:href="#DejaVuSans-32"/>
    <use x="2615.583984" xlink:href="#DejaVuSans-100"/>
    <use x="2679.060547" xlink:href="#DejaVuSans-116"/>
    <use x="2718.269531" xlink:href="#DejaVuSans-61"/>
    <use x="2802.058594" xlink:href="#DejaVuSans-52"/>
    <use x="2865.681641" xlink:href="#DejaVuSans-68"/>
    <use x="2942.683594" xlink:href="#DejaVuSans-32"/>
    <use x="2974.470703" xlink:href="#DejaVuSans-116"/>
    <use x="3013.679688" xlink:href="#DejaVuSans-105"/>
    <use x="3041.462891" xlink:href="#DejaVuSans-99"/>
    <use x="3096.443359" xlink:href="#DejaVuSans-107"/>
    <use x="3154.353516" xlink:href="#DejaVuSans-32"/>
    <use x="3186.140625" xlink:href="#DejaVuSans-116"/>
    <use x="3225.349609" xlink:href="#DejaVuSans-105"/>
    <use x="3253.132812" xlink:href="#DejaVuSans-109"/>
    <use x="3350.544922" xlink:href="#DejaVuSans-101"/>
    <use x="3412.068359" xlink:href="#DejaVuSans-46"/>
   </g>
   <!-- created: 2020-12-16 author: @pschwede, source: JHU CSSE via @entorb &amp; @pomber. -->
   <g transform="translate(98.49875 43.192875)scale(0.12 -0.12)">
    <defs>
     <path d="M 11.71875 12.40625 
L 22.015625 12.40625 
L 22.015625 0 
L 11.71875 0 
z
M 11.71875 51.703125 
L 22.015625 51.703125 
L 22.015625 39.3125 
L 11.71875 39.3125 
z
" id="DejaVuSans-58"/>
     <path d="M 54.890625 33.015625 
L 54.890625 0 
L 45.90625 0 
L 45.90625 32.71875 
Q 45.90625 40.484375 42.875 44.328125 
Q 39.84375 48.1875 33.796875 48.1875 
Q 26.515625 48.1875 22.3125 43.546875 
Q 18.109375 38.921875 18.109375 30.90625 
L 18.109375 0 
L 9.078125 0 
L 9.078125 75.984375 
L 18.109375 75.984375 
L 18.109375 46.1875 
Q 21.34375 51.125 25.703125 53.5625 
Q 30.078125 56 35.796875 56 
Q 45.21875 56 50.046875 50.171875 
Q 54.890625 44.34375 54.890625 33.015625 
z
" id="DejaVuSans-104"/>
     <path d="M 37.203125 26.21875 
Q 37.203125 19.234375 40.671875 15.25 
Q 44.140625 11.28125 50.203125 11.28125 
Q 56.203125 11.28125 59.640625 15.28125 
Q 63.09375 19.28125 63.09375 26.21875 
Q 63.09375 33.0625 59.578125 37.078125 
Q 56.0625 41.109375 50.09375 41.109375 
Q 44.1875 41.109375 40.6875 37.109375 
Q 37.203125 33.109375 37.203125 26.21875 
z
M 63.8125 11.625 
Q 60.890625 7.859375 57.109375 6.078125 
Q 53.328125 4.296875 48.296875 4.296875 
Q 39.890625 4.296875 34.640625 10.375 
Q 29.390625 16.453125 29.390625 26.21875 
Q 29.390625 35.984375 34.65625 42.078125 
Q 39.9375 48.1875 48.296875 48.1875 
Q 53.328125 48.1875 57.125 46.359375 
Q 60.9375 44.53125 63.8125 40.828125 
L 63.8125 47.21875 
L 70.796875 47.21875 
L 70.796875 11.28125 
Q 77.9375 12.359375 81.953125 17.796875 
Q 85.984375 23.25 85.984375 31.890625 
Q 85.984375 37.109375 84.4375 41.703125 
Q 82.90625 46.296875 79.78125 50.203125 
Q 74.703125 56.59375 67.40625 59.984375 
Q 60.109375 63.375 51.515625 63.375 
Q 45.515625 63.375 39.984375 61.78125 
Q 34.46875 60.203125 29.78125 57.078125 
Q 22.125 52.09375 17.796875 44.015625 
Q 13.484375 35.9375 13.484375 26.515625 
Q 13.484375 18.75 16.28125 11.953125 
Q 19.09375 5.171875 24.421875 0 
Q 29.546875 -5.078125 36.28125 -7.734375 
Q 43.015625 -10.40625 50.6875 -10.40625 
Q 56.984375 -10.40625 63.0625 -8.28125 
Q 69.140625 -6.15625 74.21875 -2.203125 
L 78.609375 -7.625 
Q 72.515625 -12.359375 65.3125 -14.875 
Q 58.109375 -17.390625 50.6875 -17.390625 
Q 41.65625 -17.390625 33.640625 -14.1875 
Q 25.640625 -10.984375 19.390625 -4.890625 
Q 13.140625 1.21875 9.859375 9.25 
Q 6.59375 17.28125 6.59375 26.515625 
Q 6.59375 35.40625 9.90625 43.453125 
Q 13.234375 51.515625 19.390625 57.625 
Q 25.6875 63.8125 33.9375 67.109375 
Q 42.1875 70.40625 51.421875 70.40625 
Q 61.765625 70.40625 70.625 66.15625 
Q 79.5 61.921875 85.5 54.109375 
Q 89.15625 49.3125 91.078125 43.703125 
Q 93.015625 38.09375 93.015625 32.078125 
Q 93.015625 19.234375 85.25 11.8125 
Q 77.484375 4.390625 63.8125 4.109375 
z
" id="DejaVuSans-64"/>
     <path d="M 4.203125 54.6875 
L 13.1875 54.6875 
L 24.421875 12.015625 
L 35.59375 54.6875 
L 46.1875 54.6875 
L 57.421875 12.015625 
L 68.609375 54.6875 
L 77.59375 54.6875 
L 63.28125 0 
L 52.6875 0 
L 40.921875 44.828125 
L 29.109375 0 
L 18.5 0 
z
" id="DejaVuSans-119"/>
     <path d="M 9.8125 72.90625 
L 19.671875 72.90625 
L 19.671875 5.078125 
Q 19.671875 -8.109375 14.671875 -14.0625 
Q 9.671875 -20.015625 -1.421875 -20.015625 
L -5.171875 -20.015625 
L -5.171875 -11.71875 
L -2.09375 -11.71875 
Q 4.4375 -11.71875 7.125 -8.046875 
Q 9.8125 -4.390625 9.8125 5.078125 
z
" id="DejaVuSans-74"/>
     <path d="M 9.8125 72.90625 
L 19.671875 72.90625 
L 19.671875 43.015625 
L 55.515625 43.015625 
L 55.515625 72.90625 
L 65.375 72.90625 
L 65.375 0 
L 55.515625 0 
L 55.515625 34.71875 
L 19.671875 34.71875 
L 19.671875 0 
L 9.8125 0 
z
" id="DejaVuSans-72"/>
     <path d="M 8.6875 72.90625 
L 18.609375 72.90625 
L 18.609375 28.609375 
Q 18.609375 16.890625 22.84375 11.734375 
Q 27.09375 6.59375 36.625 6.59375 
Q 46.09375 6.59375 50.34375 11.734375 
Q 54.59375 16.890625 54.59375 28.609375 
L 54.59375 72.90625 
L 64.5 72.90625 
L 64.5 27.390625 
Q 64.5 13.140625 57.4375 5.859375 
Q 50.390625 -1.421875 36.625 -1.421875 
Q 22.796875 -1.421875 15.734375 5.859375 
Q 8.6875 13.140625 8.6875 27.390625 
z
" id="DejaVuSans-85"/>
     <path d="M 53.515625 70.515625 
L 53.515625 60.890625 
Q 47.90625 63.578125 42.921875 64.890625 
Q 37.9375 66.21875 33.296875 66.21875 
Q 25.25 66.21875 20.875 63.09375 
Q 16.5 59.96875 16.5 54.203125 
Q 16.5 49.359375 19.40625 46.890625 
Q 22.3125 44.4375 30.421875 42.921875 
L 36.375 41.703125 
Q 47.40625 39.59375 52.65625 34.296875 
Q 57.90625 29 57.90625 20.125 
Q 57.90625 9.515625 50.796875 4.046875 
Q 43.703125 -1.421875 29.984375 -1.421875 
Q 24.8125 -1.421875 18.96875 -0.25 
Q 13.140625 0.921875 6.890625 3.21875 
L 6.890625 13.375 
Q 12.890625 10.015625 18.65625 8.296875 
Q 24.421875 6.59375 29.984375 6.59375 
Q 38.421875 6.59375 43.015625 9.90625 
Q 47.609375 13.234375 47.609375 19.390625 
Q 47.609375 24.75 44.3125 27.78125 
Q 41.015625 30.8125 33.5 32.328125 
L 27.484375 33.5 
Q 16.453125 35.6875 11.515625 40.375 
Q 6.59375 45.0625 6.59375 53.421875 
Q 6.59375 63.09375 13.40625 68.65625 
Q 20.21875 74.21875 32.171875 74.21875 
Q 37.3125 74.21875 42.625 73.28125 
Q 47.953125 72.359375 53.515625 70.515625 
z
" id="DejaVuSans-83"/>
     <path d="M 9.8125 72.90625 
L 55.90625 72.90625 
L 55.90625 64.59375 
L 19.671875 64.59375 
L 19.671875 43.015625 
L 54.390625 43.015625 
L 54.390625 34.71875 
L 19.671875 34.71875 
L 19.671875 8.296875 
L 56.78125 8.296875 
L 56.78125 0 
L 9.8125 0 
z
" id="DejaVuSans-69"/>
     <path d="M 48.6875 27.296875 
Q 48.6875 37.203125 44.609375 42.84375 
Q 40.53125 48.484375 33.40625 48.484375 
Q 26.265625 48.484375 22.1875 42.84375 
Q 18.109375 37.203125 18.109375 27.296875 
Q 18.109375 17.390625 22.1875 11.75 
Q 26.265625 6.109375 33.40625 6.109375 
Q 40.53125 6.109375 44.609375 11.75 
Q 48.6875 17.390625 48.6875 27.296875 
z
M 18.109375 46.390625 
Q 20.953125 51.265625 25.265625 53.625 
Q 29.59375 56 35.59375 56 
Q 45.5625 56 51.78125 48.09375 
Q 58.015625 40.1875 58.015625 27.296875 
Q 58.015625 14.40625 51.78125 6.484375 
Q 45.5625 -1.421875 35.59375 -1.421875 
Q 29.59375 -1.421875 25.265625 0.953125 
Q 20.953125 3.328125 18.109375 8.203125 
L 18.109375 0 
L 9.078125 0 
L 9.078125 75.984375 
L 18.109375 75.984375 
z
" id="DejaVuSans-98"/>
     <path d="M 24.3125 39.203125 
Q 19.875 35.25 17.796875 31.3125 
Q 15.71875 27.390625 15.71875 23.09375 
Q 15.71875 15.96875 20.890625 11.234375 
Q 26.078125 6.5 33.890625 6.5 
Q 38.53125 6.5 42.578125 8.03125 
Q 46.625 9.578125 50.203125 12.703125 
z
M 31.203125 44.671875 
L 56 19.28125 
Q 58.890625 23.640625 60.5 28.59375 
Q 62.109375 33.546875 62.40625 39.109375 
L 71.484375 39.109375 
Q 70.90625 32.671875 68.359375 26.359375 
Q 65.828125 20.0625 61.28125 13.921875 
L 74.90625 0 
L 62.59375 0 
L 55.609375 7.171875 
Q 50.53125 2.828125 44.96875 0.703125 
Q 39.40625 -1.421875 33.015625 -1.421875 
Q 21.234375 -1.421875 13.765625 5.296875 
Q 6.296875 12.015625 6.296875 22.515625 
Q 6.296875 28.765625 9.5625 34.25 
Q 12.84375 39.75 19.390625 44.578125 
Q 17.046875 47.65625 15.8125 50.703125 
Q 14.59375 53.765625 14.59375 56.6875 
Q 14.59375 64.59375 20.015625 69.40625 
Q 25.4375 74.21875 34.421875 74.21875 
Q 38.484375 74.21875 42.5 73.34375 
Q 46.53125 72.46875 50.6875 70.703125 
L 50.6875 61.8125 
Q 46.4375 64.109375 42.578125 65.296875 
Q 38.71875 66.5 35.40625 66.5 
Q 30.28125 66.5 27.078125 63.78125 
Q 23.875 61.078125 23.875 56.78125 
Q 23.875 54.296875 25.3125 51.78125 
Q 26.765625 49.265625 31.203125 44.671875 
z
" id="DejaVuSans-38"/>
    </defs>
    <use xlink:href="#DejaVuSans-99"/>
    <use x="54.980469" xlink:href="#DejaVuSans-114"/>
    <use x="93.84375" xlink:href="#DejaVuSans-101"/>
    <use x="155.367188" xlink:href="#DejaVuSans-97"/>
    <use x="216.646484" xlink:href="#DejaVuSans-116"/>
    <use x="255.855469" xlink:href="#DejaVuSans-101"/>
    <use x="317.378906" xlink:href="#DejaVuSans-100"/>
    <use x="380.855469" xlink:href="#DejaVuSans-58"/>
    <use x="414.546875" xlink:href="#DejaVuSans-32"/>
    <use x="446.333984" xlink:href="#DejaVuSans-50"/>
    <use x="509.957031" xlink:href="#DejaVuSans-48"/>
    <use x="573.580078" xlink:href="#DejaVuSans-50"/>
    <use x="637.203125" xlink:href="#DejaVuSans-48"/>
    <use x="700.826172" xlink:href="#DejaVuSans-45"/>
    <use x="736.910156" xlink:href="#DejaVuSans-49"/>
    <use x="800.533203" xlink:href="#DejaVuSans-50"/>
    <use x="864.15625" xlink:href="#DejaVuSans-45"/>
    <use x="900.240234" xlink:href="#DejaVuSans-49"/>
    <use x="963.863281" xlink:href="#DejaVuSans-54"/>
    <use x="1027.486328" xlink:href="#DejaVuSans-32"/>
    <use x="1059.273438" xlink:href="#DejaVuSans-97"/>
    <use x="1120.552734" xlink:href="#DejaVuSans-117"/>
    <use x="1183.931641" xlink:href="#DejaVuSans-116"/>
    <use x="1223.140625" xlink:href="#DejaVuSans-104"/>
    <use x="1286.519531" xlink:href="#DejaVuSans-111"/>
    <use x="1347.701172" xlink:href="#DejaVuSans-114"/>
    <use x="1387.064453" xlink:href="#DejaVuSans-58"/>
    <use x="1420.755859" xlink:href="#DejaVuSans-32"/>
    <use x="1452.542969" xlink:href="#DejaVuSans-64"/>
    <use x="1552.542969" xlink:href="#DejaVuSans-112"/>
    <use x="1616.019531" xlink:href="#DejaVuSans-115"/>
    <use x="1668.119141" xlink:href="#DejaVuSans-99"/>
    <use x="1723.099609" xlink:href="#DejaVuSans-104"/>
    <use x="1786.478516" xlink:href="#DejaVuSans-119"/>
    <use x="1868.265625" xlink:href="#DejaVuSans-101"/>
    <use x="1929.789062" xlink:href="#DejaVuSans-100"/>
    <use x="1993.265625" xlink:href="#DejaVuSans-101"/>
    <use x="2054.789062" xlink:href="#DejaVuSans-44"/>
    <use x="2086.576172" xlink:href="#DejaVuSans-32"/>
    <use x="2118.363281" xlink:href="#DejaVuSans-115"/>
    <use x="2170.462891" xlink:href="#DejaVuSans-111"/>
    <use x="2231.644531" xlink:href="#DejaVuSans-117"/>
    <use x="2295.023438" xlink:href="#DejaVuSans-114"/>
    <use x="2333.886719" xlink:href="#DejaVuSans-99"/>
    <use x="2388.867188" xlink:href="#DejaVuSans-101"/>
    <use x="2450.390625" xlink:href="#DejaVuSans-58"/>
    <use x="2484.082031" xlink:href="#DejaVuSans-32"/>
    <use x="2515.869141" xlink:href="#DejaVuSans-74"/>
    <use x="2545.361328" xlink:href="#DejaVuSans-72"/>
    <use x="2620.556641" xlink:href="#DejaVuSans-85"/>
    <use x="2693.75" xlink:href="#DejaVuSans-32"/>
    <use x="2725.537109" xlink:href="#DejaVuSans-67"/>
    <use x="2795.361328" xlink:href="#DejaVuSans-83"/>
    <use x="2858.837891" xlink:href="#DejaVuSans-83"/>
    <use x="2922.314453" xlink:href="#DejaVuSans-69"/>
    <use x="2985.498047" xlink:href="#DejaVuSans-32"/>
    <use x="3017.285156" xlink:href="#DejaVuSans-118"/>
    <use x="3076.464844" xlink:href="#DejaVuSans-105"/>
    <use x="3104.248047" xlink:href="#DejaVuSans-97"/>
    <use x="3165.527344" xlink:href="#DejaVuSans-32"/>
    <use x="3197.314453" xlink:href="#DejaVuSans-64"/>
    <use x="3297.314453" xlink:href="#DejaVuSans-101"/>
    <use x="3358.837891" xlink:href="#DejaVuSans-110"/>
    <use x="3422.216797" xlink:href="#DejaVuSans-116"/>
    <use x="3461.425781" xlink:href="#DejaVuSans-111"/>
    <use x="3522.607422" xlink:href="#DejaVuSans-114"/>
    <use x="3563.720703" xlink:href="#DejaVuSans-98"/>
    <use x="3627.197266" xlink:href="#DejaVuSans-32"/>
    <use x="3658.984375" xlink:href="#DejaVuSans-38"/>
    <use x="3736.962891" xlink:href="#DejaVuSans-32"/>
    <use x="3768.75" xlink:href="#DejaVuSans-64"/>
    <use x="3868.75" xlink:href="#DejaVuSans-112"/>
    <use x="3932.226562" xlink:href="#DejaVuSans-111"/>
    <use x="3993.408203" xlink:href="#DejaVuSans-109"/>
    <use x="4090.820312" xlink:href="#DejaVuSans-98"/>
    <use x="4154.296875" xlink:href="#DejaVuSans-101"/>
    <use x="4215.820312" xlink:href="#DejaVuSans-114"/>
    <use x="4247.808594" xlink:href="#DejaVuSans-46"/>
   </g>
  </g>
 </g>
 <defs>
  <clipPath id="pbb4a432086">
   <rect height="199.115403" width="642.85" x="61.62625" y="102.072"/>
  </clipPath>
  <clipPath id="pf1096068df">
   <rect height="199.115403" width="642.85" x="61.62625" y="313.524597"/>
  </clipPath>
 </defs>
</svg>
