<?xml version="1.0" encoding="utf-8" standalone="no"?>
<!DOCTYPE svg PUBLIC "-//W3C//DTD SVG 1.1//EN"
  "http://www.w3.org/Graphics/SVG/1.1/DTD/svg11.dtd">
<svg height="640.398125pt" version="1.1" viewBox="0 0 1145.085625 640.398125" width="1145.085625pt" xmlns="http://www.w3.org/2000/svg" xmlns:xlink="http://www.w3.org/1999/xlink">
 <metadata>
  <rdf:RDF xmlns:cc="http://creativecommons.org/ns#" xmlns:dc="http://purl.org/dc/elements/1.1/" xmlns:rdf="http://www.w3.org/1999/02/22-rdf-syntax-ns#">
   <cc:Work>
    <dc:type rdf:resource="http://purl.org/dc/dcmitype/StillImage"/>
    <dc:date>2021-05-20T11:20:49.408936</dc:date>
    <dc:format>image/svg+xml</dc:format>
    <dc:creator>
     <cc:Agent>
      <dc:title>Matplotlib v3.4.2, https://matplotlib.org/</dc:title>
     </cc:Agent>
    </dc:creator>
   </cc:Work>
  </rdf:RDF>
 </metadata>
 <defs>
  <style type="text/css">*{stroke-linecap:butt;stroke-linejoin:round;}</style>
 </defs>
 <g id="figure_1">
  <g id="patch_1">
   <path d="M 0 640.398125 
L 1145.085625 640.398125 
L 1145.085625 0 
L 0 0 
z
" style="fill:#ffffff;"/>
  </g>
  <g id="axes_1">
   <g id="patch_2">
    <path d="M 30.103125 616.52 
L 1099.073125 616.52 
L 1099.073125 7.2 
L 30.103125 7.2 
z
" style="fill:#e5e5e5;"/>
   </g>
   <g id="matplotlib.axis_1">
    <g id="xtick_1">
     <g id="line2d_1">
      <path clip-path="url(#p178048c257)" d="M 83.040728 616.52 
L 83.040728 7.2 
" style="fill:none;stroke:#ffffff;stroke-linecap:square;stroke-width:0.8;"/>
     </g>
     <g id="line2d_2">
      <defs>
       <path d="M 0 0 
L 0 3.5 
" id="mac206c6ff5" style="stroke:#555555;stroke-width:0.8;"/>
      </defs>
      <g>
       <use style="fill:#555555;stroke:#555555;stroke-width:0.8;" x="83.040728" xlink:href="#mac206c6ff5" y="616.52"/>
      </g>
     </g>
     <g id="text_1">
      <!-- 2020-03 -->
      <g style="fill:#555555;" transform="translate(62.149322 631.118437)scale(0.1 -0.1)">
       <defs>
        <path d="M 1228 531 
L 3431 531 
L 3431 0 
L 469 0 
L 469 531 
Q 828 903 1448 1529 
Q 2069 2156 2228 2338 
Q 2531 2678 2651 2914 
Q 2772 3150 2772 3378 
Q 2772 3750 2511 3984 
Q 2250 4219 1831 4219 
Q 1534 4219 1204 4116 
Q 875 4013 500 3803 
L 500 4441 
Q 881 4594 1212 4672 
Q 1544 4750 1819 4750 
Q 2544 4750 2975 4387 
Q 3406 4025 3406 3419 
Q 3406 3131 3298 2873 
Q 3191 2616 2906 2266 
Q 2828 2175 2409 1742 
Q 1991 1309 1228 531 
z
" id="DejaVuSans-32" transform="scale(0.015625)"/>
        <path d="M 2034 4250 
Q 1547 4250 1301 3770 
Q 1056 3291 1056 2328 
Q 1056 1369 1301 889 
Q 1547 409 2034 409 
Q 2525 409 2770 889 
Q 3016 1369 3016 2328 
Q 3016 3291 2770 3770 
Q 2525 4250 2034 4250 
z
M 2034 4750 
Q 2819 4750 3233 4129 
Q 3647 3509 3647 2328 
Q 3647 1150 3233 529 
Q 2819 -91 2034 -91 
Q 1250 -91 836 529 
Q 422 1150 422 2328 
Q 422 3509 836 4129 
Q 1250 4750 2034 4750 
z
" id="DejaVuSans-30" transform="scale(0.015625)"/>
        <path d="M 313 2009 
L 1997 2009 
L 1997 1497 
L 313 1497 
L 313 2009 
z
" id="DejaVuSans-2d" transform="scale(0.015625)"/>
        <path d="M 2597 2516 
Q 3050 2419 3304 2112 
Q 3559 1806 3559 1356 
Q 3559 666 3084 287 
Q 2609 -91 1734 -91 
Q 1441 -91 1130 -33 
Q 819 25 488 141 
L 488 750 
Q 750 597 1062 519 
Q 1375 441 1716 441 
Q 2309 441 2620 675 
Q 2931 909 2931 1356 
Q 2931 1769 2642 2001 
Q 2353 2234 1838 2234 
L 1294 2234 
L 1294 2753 
L 1863 2753 
Q 2328 2753 2575 2939 
Q 2822 3125 2822 3475 
Q 2822 3834 2567 4026 
Q 2313 4219 1838 4219 
Q 1578 4219 1281 4162 
Q 984 4106 628 3988 
L 628 4550 
Q 988 4650 1302 4700 
Q 1616 4750 1894 4750 
Q 2613 4750 3031 4423 
Q 3450 4097 3450 3541 
Q 3450 3153 3228 2886 
Q 3006 2619 2597 2516 
z
" id="DejaVuSans-33" transform="scale(0.015625)"/>
       </defs>
       <use xlink:href="#DejaVuSans-32"/>
       <use x="63.623047" xlink:href="#DejaVuSans-30"/>
       <use x="127.246094" xlink:href="#DejaVuSans-32"/>
       <use x="190.869141" xlink:href="#DejaVuSans-30"/>
       <use x="254.492188" xlink:href="#DejaVuSans-2d"/>
       <use x="290.576172" xlink:href="#DejaVuSans-30"/>
       <use x="354.199219" xlink:href="#DejaVuSans-33"/>
      </g>
     </g>
    </g>
    <g id="xtick_2">
     <g id="line2d_3">
      <path clip-path="url(#p178048c257)" d="M 215.65649 616.52 
L 215.65649 7.2 
" style="fill:none;stroke:#ffffff;stroke-linecap:square;stroke-width:0.8;"/>
     </g>
     <g id="line2d_4">
      <g>
       <use style="fill:#555555;stroke:#555555;stroke-width:0.8;" x="215.65649" xlink:href="#mac206c6ff5" y="616.52"/>
      </g>
     </g>
     <g id="text_2">
      <!-- 2020-05 -->
      <g style="fill:#555555;" transform="translate(194.765084 631.118437)scale(0.1 -0.1)">
       <defs>
        <path d="M 691 4666 
L 3169 4666 
L 3169 4134 
L 1269 4134 
L 1269 2991 
Q 1406 3038 1543 3061 
Q 1681 3084 1819 3084 
Q 2600 3084 3056 2656 
Q 3513 2228 3513 1497 
Q 3513 744 3044 326 
Q 2575 -91 1722 -91 
Q 1428 -91 1123 -41 
Q 819 9 494 109 
L 494 744 
Q 775 591 1075 516 
Q 1375 441 1709 441 
Q 2250 441 2565 725 
Q 2881 1009 2881 1497 
Q 2881 1984 2565 2268 
Q 2250 2553 1709 2553 
Q 1456 2553 1204 2497 
Q 953 2441 691 2322 
L 691 4666 
z
" id="DejaVuSans-35" transform="scale(0.015625)"/>
       </defs>
       <use xlink:href="#DejaVuSans-32"/>
       <use x="63.623047" xlink:href="#DejaVuSans-30"/>
       <use x="127.246094" xlink:href="#DejaVuSans-32"/>
       <use x="190.869141" xlink:href="#DejaVuSans-30"/>
       <use x="254.492188" xlink:href="#DejaVuSans-2d"/>
       <use x="290.576172" xlink:href="#DejaVuSans-30"/>
       <use x="354.199219" xlink:href="#DejaVuSans-35"/>
      </g>
     </g>
    </g>
    <g id="xtick_3">
     <g id="line2d_5">
      <path clip-path="url(#p178048c257)" d="M 348.272251 616.52 
L 348.272251 7.2 
" style="fill:none;stroke:#ffffff;stroke-linecap:square;stroke-width:0.8;"/>
     </g>
     <g id="line2d_6">
      <g>
       <use style="fill:#555555;stroke:#555555;stroke-width:0.8;" x="348.272251" xlink:href="#mac206c6ff5" y="616.52"/>
      </g>
     </g>
     <g id="text_3">
      <!-- 2020-07 -->
      <g style="fill:#555555;" transform="translate(327.380845 631.118437)scale(0.1 -0.1)">
       <defs>
        <path d="M 525 4666 
L 3525 4666 
L 3525 4397 
L 1831 0 
L 1172 0 
L 2766 4134 
L 525 4134 
L 525 4666 
z
" id="DejaVuSans-37" transform="scale(0.015625)"/>
       </defs>
       <use xlink:href="#DejaVuSans-32"/>
       <use x="63.623047" xlink:href="#DejaVuSans-30"/>
       <use x="127.246094" xlink:href="#DejaVuSans-32"/>
       <use x="190.869141" xlink:href="#DejaVuSans-30"/>
       <use x="254.492188" xlink:href="#DejaVuSans-2d"/>
       <use x="290.576172" xlink:href="#DejaVuSans-30"/>
       <use x="354.199219" xlink:href="#DejaVuSans-37"/>
      </g>
     </g>
    </g>
    <g id="xtick_4">
     <g id="line2d_7">
      <path clip-path="url(#p178048c257)" d="M 483.062042 616.52 
L 483.062042 7.2 
" style="fill:none;stroke:#ffffff;stroke-linecap:square;stroke-width:0.8;"/>
     </g>
     <g id="line2d_8">
      <g>
       <use style="fill:#555555;stroke:#555555;stroke-width:0.8;" x="483.062042" xlink:href="#mac206c6ff5" y="616.52"/>
      </g>
     </g>
     <g id="text_4">
      <!-- 2020-09 -->
      <g style="fill:#555555;" transform="translate(462.170636 631.118437)scale(0.1 -0.1)">
       <defs>
        <path d="M 703 97 
L 703 672 
Q 941 559 1184 500 
Q 1428 441 1663 441 
Q 2288 441 2617 861 
Q 2947 1281 2994 2138 
Q 2813 1869 2534 1725 
Q 2256 1581 1919 1581 
Q 1219 1581 811 2004 
Q 403 2428 403 3163 
Q 403 3881 828 4315 
Q 1253 4750 1959 4750 
Q 2769 4750 3195 4129 
Q 3622 3509 3622 2328 
Q 3622 1225 3098 567 
Q 2575 -91 1691 -91 
Q 1453 -91 1209 -44 
Q 966 3 703 97 
z
M 1959 2075 
Q 2384 2075 2632 2365 
Q 2881 2656 2881 3163 
Q 2881 3666 2632 3958 
Q 2384 4250 1959 4250 
Q 1534 4250 1286 3958 
Q 1038 3666 1038 3163 
Q 1038 2656 1286 2365 
Q 1534 2075 1959 2075 
z
" id="DejaVuSans-39" transform="scale(0.015625)"/>
       </defs>
       <use xlink:href="#DejaVuSans-32"/>
       <use x="63.623047" xlink:href="#DejaVuSans-30"/>
       <use x="127.246094" xlink:href="#DejaVuSans-32"/>
       <use x="190.869141" xlink:href="#DejaVuSans-30"/>
       <use x="254.492188" xlink:href="#DejaVuSans-2d"/>
       <use x="290.576172" xlink:href="#DejaVuSans-30"/>
       <use x="354.199219" xlink:href="#DejaVuSans-39"/>
      </g>
     </g>
    </g>
    <g id="xtick_5">
     <g id="line2d_9">
      <path clip-path="url(#p178048c257)" d="M 615.677804 616.52 
L 615.677804 7.2 
" style="fill:none;stroke:#ffffff;stroke-linecap:square;stroke-width:0.8;"/>
     </g>
     <g id="line2d_10">
      <g>
       <use style="fill:#555555;stroke:#555555;stroke-width:0.8;" x="615.677804" xlink:href="#mac206c6ff5" y="616.52"/>
      </g>
     </g>
     <g id="text_5">
      <!-- 2020-11 -->
      <g style="fill:#555555;" transform="translate(594.786397 631.118437)scale(0.1 -0.1)">
       <defs>
        <path d="M 794 531 
L 1825 531 
L 1825 4091 
L 703 3866 
L 703 4441 
L 1819 4666 
L 2450 4666 
L 2450 531 
L 3481 531 
L 3481 0 
L 794 0 
L 794 531 
z
" id="DejaVuSans-31" transform="scale(0.015625)"/>
       </defs>
       <use xlink:href="#DejaVuSans-32"/>
       <use x="63.623047" xlink:href="#DejaVuSans-30"/>
       <use x="127.246094" xlink:href="#DejaVuSans-32"/>
       <use x="190.869141" xlink:href="#DejaVuSans-30"/>
       <use x="254.492188" xlink:href="#DejaVuSans-2d"/>
       <use x="290.576172" xlink:href="#DejaVuSans-31"/>
       <use x="354.199219" xlink:href="#DejaVuSans-31"/>
      </g>
     </g>
    </g>
    <g id="xtick_6">
     <g id="line2d_11">
      <path clip-path="url(#p178048c257)" d="M 748.293565 616.52 
L 748.293565 7.2 
" style="fill:none;stroke:#ffffff;stroke-linecap:square;stroke-width:0.8;"/>
     </g>
     <g id="line2d_12">
      <g>
       <use style="fill:#555555;stroke:#555555;stroke-width:0.8;" x="748.293565" xlink:href="#mac206c6ff5" y="616.52"/>
      </g>
     </g>
     <g id="text_6">
      <!-- 2021-01 -->
      <g style="fill:#555555;" transform="translate(727.402159 631.118437)scale(0.1 -0.1)">
       <use xlink:href="#DejaVuSans-32"/>
       <use x="63.623047" xlink:href="#DejaVuSans-30"/>
       <use x="127.246094" xlink:href="#DejaVuSans-32"/>
       <use x="190.869141" xlink:href="#DejaVuSans-31"/>
       <use x="254.492188" xlink:href="#DejaVuSans-2d"/>
       <use x="290.576172" xlink:href="#DejaVuSans-30"/>
       <use x="354.199219" xlink:href="#DejaVuSans-31"/>
      </g>
     </g>
    </g>
    <g id="xtick_7">
     <g id="line2d_13">
      <path clip-path="url(#p178048c257)" d="M 876.561269 616.52 
L 876.561269 7.2 
" style="fill:none;stroke:#ffffff;stroke-linecap:square;stroke-width:0.8;"/>
     </g>
     <g id="line2d_14">
      <g>
       <use style="fill:#555555;stroke:#555555;stroke-width:0.8;" x="876.561269" xlink:href="#mac206c6ff5" y="616.52"/>
      </g>
     </g>
     <g id="text_7">
      <!-- 2021-03 -->
      <g style="fill:#555555;" transform="translate(855.669863 631.118437)scale(0.1 -0.1)">
       <use xlink:href="#DejaVuSans-32"/>
       <use x="63.623047" xlink:href="#DejaVuSans-30"/>
       <use x="127.246094" xlink:href="#DejaVuSans-32"/>
       <use x="190.869141" xlink:href="#DejaVuSans-31"/>
       <use x="254.492188" xlink:href="#DejaVuSans-2d"/>
       <use x="290.576172" xlink:href="#DejaVuSans-30"/>
       <use x="354.199219" xlink:href="#DejaVuSans-33"/>
      </g>
     </g>
    </g>
    <g id="xtick_8">
     <g id="line2d_15">
      <path clip-path="url(#p178048c257)" d="M 1009.177031 616.52 
L 1009.177031 7.2 
" style="fill:none;stroke:#ffffff;stroke-linecap:square;stroke-width:0.8;"/>
     </g>
     <g id="line2d_16">
      <g>
       <use style="fill:#555555;stroke:#555555;stroke-width:0.8;" x="1009.177031" xlink:href="#mac206c6ff5" y="616.52"/>
      </g>
     </g>
     <g id="text_8">
      <!-- 2021-05 -->
      <g style="fill:#555555;" transform="translate(988.285625 631.118437)scale(0.1 -0.1)">
       <use xlink:href="#DejaVuSans-32"/>
       <use x="63.623047" xlink:href="#DejaVuSans-30"/>
       <use x="127.246094" xlink:href="#DejaVuSans-32"/>
       <use x="190.869141" xlink:href="#DejaVuSans-31"/>
       <use x="254.492188" xlink:href="#DejaVuSans-2d"/>
       <use x="290.576172" xlink:href="#DejaVuSans-30"/>
       <use x="354.199219" xlink:href="#DejaVuSans-35"/>
      </g>
     </g>
    </g>
   </g>
   <g id="matplotlib.axis_2">
    <g id="ytick_1">
     <g id="line2d_17">
      <path clip-path="url(#p178048c257)" d="M 30.103125 582.646772 
L 1099.073125 582.646772 
" style="fill:none;stroke:#ffffff;stroke-linecap:square;stroke-width:0.8;"/>
     </g>
     <g id="line2d_18">
      <defs>
       <path d="M 0 0 
L -3.5 0 
" id="m720f191877" style="stroke:#555555;stroke-width:0.8;"/>
      </defs>
      <g>
       <use style="fill:#555555;stroke:#555555;stroke-width:0.8;" x="30.103125" xlink:href="#m720f191877" y="582.646772"/>
      </g>
     </g>
     <g id="text_9">
      <!-- 0.5 -->
      <g style="fill:#555555;" transform="translate(7.2 586.445991)scale(0.1 -0.1)">
       <defs>
        <path d="M 684 794 
L 1344 794 
L 1344 0 
L 684 0 
L 684 794 
z
" id="DejaVuSans-2e" transform="scale(0.015625)"/>
       </defs>
       <use xlink:href="#DejaVuSans-30"/>
       <use x="63.623047" xlink:href="#DejaVuSans-2e"/>
       <use x="95.410156" xlink:href="#DejaVuSans-35"/>
      </g>
     </g>
    </g>
    <g id="ytick_2">
     <g id="line2d_19">
      <path clip-path="url(#p178048c257)" d="M 30.103125 509.360236 
L 1099.073125 509.360236 
" style="fill:none;stroke:#ffffff;stroke-linecap:square;stroke-width:0.8;"/>
     </g>
     <g id="line2d_20">
      <g>
       <use style="fill:#555555;stroke:#555555;stroke-width:0.8;" x="30.103125" xlink:href="#m720f191877" y="509.360236"/>
      </g>
     </g>
     <g id="text_10">
      <!-- 1.0 -->
      <g style="fill:#555555;" transform="translate(7.2 513.159455)scale(0.1 -0.1)">
       <use xlink:href="#DejaVuSans-31"/>
       <use x="63.623047" xlink:href="#DejaVuSans-2e"/>
       <use x="95.410156" xlink:href="#DejaVuSans-30"/>
      </g>
     </g>
    </g>
    <g id="ytick_3">
     <g id="line2d_21">
      <path clip-path="url(#p178048c257)" d="M 30.103125 436.073699 
L 1099.073125 436.073699 
" style="fill:none;stroke:#ffffff;stroke-linecap:square;stroke-width:0.8;"/>
     </g>
     <g id="line2d_22">
      <g>
       <use style="fill:#555555;stroke:#555555;stroke-width:0.8;" x="30.103125" xlink:href="#m720f191877" y="436.073699"/>
      </g>
     </g>
     <g id="text_11">
      <!-- 1.5 -->
      <g style="fill:#555555;" transform="translate(7.2 439.872918)scale(0.1 -0.1)">
       <use xlink:href="#DejaVuSans-31"/>
       <use x="63.623047" xlink:href="#DejaVuSans-2e"/>
       <use x="95.410156" xlink:href="#DejaVuSans-35"/>
      </g>
     </g>
    </g>
    <g id="ytick_4">
     <g id="line2d_23">
      <path clip-path="url(#p178048c257)" d="M 30.103125 362.787163 
L 1099.073125 362.787163 
" style="fill:none;stroke:#ffffff;stroke-linecap:square;stroke-width:0.8;"/>
     </g>
     <g id="line2d_24">
      <g>
       <use style="fill:#555555;stroke:#555555;stroke-width:0.8;" x="30.103125" xlink:href="#m720f191877" y="362.787163"/>
      </g>
     </g>
     <g id="text_12">
      <!-- 2.0 -->
      <g style="fill:#555555;" transform="translate(7.2 366.586382)scale(0.1 -0.1)">
       <use xlink:href="#DejaVuSans-32"/>
       <use x="63.623047" xlink:href="#DejaVuSans-2e"/>
       <use x="95.410156" xlink:href="#DejaVuSans-30"/>
      </g>
     </g>
    </g>
    <g id="ytick_5">
     <g id="line2d_25">
      <path clip-path="url(#p178048c257)" d="M 30.103125 289.500626 
L 1099.073125 289.500626 
" style="fill:none;stroke:#ffffff;stroke-linecap:square;stroke-width:0.8;"/>
     </g>
     <g id="line2d_26">
      <g>
       <use style="fill:#555555;stroke:#555555;stroke-width:0.8;" x="30.103125" xlink:href="#m720f191877" y="289.500626"/>
      </g>
     </g>
     <g id="text_13">
      <!-- 2.5 -->
      <g style="fill:#555555;" transform="translate(7.2 293.299845)scale(0.1 -0.1)">
       <use xlink:href="#DejaVuSans-32"/>
       <use x="63.623047" xlink:href="#DejaVuSans-2e"/>
       <use x="95.410156" xlink:href="#DejaVuSans-35"/>
      </g>
     </g>
    </g>
    <g id="ytick_6">
     <g id="line2d_27">
      <path clip-path="url(#p178048c257)" d="M 30.103125 216.21409 
L 1099.073125 216.21409 
" style="fill:none;stroke:#ffffff;stroke-linecap:square;stroke-width:0.8;"/>
     </g>
     <g id="line2d_28">
      <g>
       <use style="fill:#555555;stroke:#555555;stroke-width:0.8;" x="30.103125" xlink:href="#m720f191877" y="216.21409"/>
      </g>
     </g>
     <g id="text_14">
      <!-- 3.0 -->
      <g style="fill:#555555;" transform="translate(7.2 220.013309)scale(0.1 -0.1)">
       <use xlink:href="#DejaVuSans-33"/>
       <use x="63.623047" xlink:href="#DejaVuSans-2e"/>
       <use x="95.410156" xlink:href="#DejaVuSans-30"/>
      </g>
     </g>
    </g>
    <g id="ytick_7">
     <g id="line2d_29">
      <path clip-path="url(#p178048c257)" d="M 30.103125 142.927553 
L 1099.073125 142.927553 
" style="fill:none;stroke:#ffffff;stroke-linecap:square;stroke-width:0.8;"/>
     </g>
     <g id="line2d_30">
      <g>
       <use style="fill:#555555;stroke:#555555;stroke-width:0.8;" x="30.103125" xlink:href="#m720f191877" y="142.927553"/>
      </g>
     </g>
     <g id="text_15">
      <!-- 3.5 -->
      <g style="fill:#555555;" transform="translate(7.2 146.726772)scale(0.1 -0.1)">
       <use xlink:href="#DejaVuSans-33"/>
       <use x="63.623047" xlink:href="#DejaVuSans-2e"/>
       <use x="95.410156" xlink:href="#DejaVuSans-35"/>
      </g>
     </g>
    </g>
    <g id="ytick_8">
     <g id="line2d_31">
      <path clip-path="url(#p178048c257)" d="M 30.103125 69.641017 
L 1099.073125 69.641017 
" style="fill:none;stroke:#ffffff;stroke-linecap:square;stroke-width:0.8;"/>
     </g>
     <g id="line2d_32">
      <g>
       <use style="fill:#555555;stroke:#555555;stroke-width:0.8;" x="30.103125" xlink:href="#m720f191877" y="69.641017"/>
      </g>
     </g>
     <g id="text_16">
      <!-- 4.0 -->
      <g style="fill:#555555;" transform="translate(7.2 73.440236)scale(0.1 -0.1)">
       <defs>
        <path d="M 2419 4116 
L 825 1625 
L 2419 1625 
L 2419 4116 
z
M 2253 4666 
L 3047 4666 
L 3047 1625 
L 3713 1625 
L 3713 1100 
L 3047 1100 
L 3047 0 
L 2419 0 
L 2419 1100 
L 313 1100 
L 313 1709 
L 2253 4666 
z
" id="DejaVuSans-34" transform="scale(0.015625)"/>
       </defs>
       <use xlink:href="#DejaVuSans-34"/>
       <use x="63.623047" xlink:href="#DejaVuSans-2e"/>
       <use x="95.410156" xlink:href="#DejaVuSans-30"/>
      </g>
     </g>
    </g>
   </g>
   <g id="line2d_33">
    <path clip-path="url(#p178048c257)" d="M 87.388786 113.888219 
L 89.562815 84.893064 
L 91.736844 121.356584 
L 93.910873 103.934781 
L 96.084901 95.429688 
L 98.25893 104.743688 
L 100.432959 123.860417 
L 102.606988 158.826919 
L 104.781017 203.273249 
L 106.955046 214.227724 
L 109.129075 244.258254 
L 111.303104 267.873003 
L 113.477133 275.310082 
L 115.651161 281.792307 
L 117.82519 275.321432 
L 119.999219 271.357327 
L 124.347277 286.416886 
L 126.521306 298.970103 
L 128.695335 316.078011 
L 130.869364 326.047582 
L 133.043392 333.812539 
L 135.217421 339.380991 
L 137.39145 345.896384 
L 139.565479 355.439515 
L 141.739508 367.104438 
L 143.913537 379.756193 
L 150.435623 411.148994 
L 152.609652 422.920897 
L 154.783681 432.844329 
L 156.95771 440.903441 
L 159.131739 447.256902 
L 161.305768 452.944139 
L 163.479797 457.522267 
L 165.653826 461.350822 
L 167.827855 465.938401 
L 174.349941 478.377769 
L 176.52397 481.73522 
L 178.697999 484.728017 
L 180.872028 487.217648 
L 187.394114 493.204127 
L 189.568143 494.679338 
L 191.742172 495.741301 
L 193.916201 496.365626 
L 200.438288 497.929435 
L 209.134403 500.944142 
L 224.352605 504.629714 
L 228.700663 505.148034 
L 233.048721 505.485995 
L 248.266923 506.092924 
L 254.78901 506.570868 
L 263.485125 506.951698 
L 276.529298 507.460696 
L 280.877356 507.541333 
L 285.225414 507.54 
L 309.139732 507.903979 
L 320.009876 507.985708 
L 326.531963 507.693088 
L 333.054049 507.265095 
L 337.402107 507.172985 
L 341.750165 507.238137 
L 350.44628 507.572409 
L 380.882685 507.97965 
L 398.274916 507.697673 
L 446.103551 506.234149 
L 463.495782 505.584055 
L 470.017869 505.439988 
L 478.713984 505.641052 
L 496.106215 506.092376 
L 517.846504 505.632204 
L 526.54262 505.1507 
L 530.890677 505.010828 
L 541.760822 504.955882 
L 554.804995 504.621833 
L 561.327082 504.260791 
L 565.675139 503.731398 
L 574.371255 502.118277 
L 578.719313 501.318936 
L 583.06737 500.179905 
L 587.415428 499.074139 
L 593.937515 497.551518 
L 596.111544 496.913947 
L 598.285573 496.088938 
L 604.807659 493.249852 
L 609.155717 491.520405 
L 613.503775 489.891069 
L 617.851833 489.050896 
L 622.19989 488.771595 
L 624.373919 488.726878 
L 630.896006 489.06906 
L 635.244064 489.422702 
L 641.76615 490.356355 
L 652.636295 492.469076 
L 659.158381 493.664056 
L 663.506439 494.31316 
L 680.89867 496.379066 
L 691.768814 497.164665 
L 698.290901 497.094756 
L 702.638959 496.99105 
L 715.683132 496.153575 
L 722.205219 495.91786 
L 730.901334 495.889453 
L 733.075363 496.041998 
L 737.423421 497.092425 
L 741.771479 498.380941 
L 743.945508 498.770894 
L 748.293565 499.270492 
L 761.337739 500.095323 
L 763.511767 500.136426 
L 767.859825 499.790431 
L 772.207883 499.184323 
L 776.555941 499.111515 
L 780.903999 499.548642 
L 787.426085 500.308498 
L 804.818316 501.454107 
L 822.210547 502.283421 
L 850.472923 503.255081 
L 867.865154 503.116524 
L 889.605442 502.849946 
L 900.475587 502.707561 
L 913.51976 502.150364 
L 941.782136 500.618176 
L 948.304222 500.48429 
L 954.826309 500.654575 
L 961.348395 500.946358 
L 965.696453 500.858312 
L 972.21854 500.304559 
L 978.740627 499.691477 
L 983.088684 499.596839 
L 991.7848 499.509745 
L 1002.654944 499.391186 
L 1009.177031 499.558645 
L 1028.743291 500.280965 
L 1037.439406 500.522174 
L 1046.135522 500.987314 
L 1050.48358 501.109 
L 1050.48358 501.109 
" style="fill:none;stroke:#e24a33;stroke-linecap:square;stroke-width:1.5;"/>
   </g>
   <g id="line2d_34">
    <path clip-path="url(#p178048c257)" d="M 87.388786 113.888219 
L 89.562815 55.897909 
L 91.736844 194.283623 
L 93.910873 51.669371 
L 96.084901 61.409317 
L 100.432959 238.56079 
L 102.606988 358.65373 
L 104.781017 367.02222 
L 106.955046 270.964948 
L 109.129075 261.883082 
L 111.303104 226.712557 
L 113.477133 203.373248 
L 115.651161 283.936363 
L 117.82519 313.357604 
L 119.999219 339.273484 
L 122.173248 322.661375 
L 124.347277 315.603572 
L 126.521306 314.585074 
L 128.695335 323.128605 
L 130.869364 353.723358 
L 133.043392 367.712302 
L 135.217421 378.25265 
L 137.39145 368.269129 
L 141.739508 396.239531 
L 143.913537 411.690892 
L 146.087566 425.734151 
L 148.261595 441.179422 
L 150.435623 452.524346 
L 152.609652 450.672448 
L 154.783681 451.869513 
L 156.95771 452.653318 
L 159.131739 456.165114 
L 161.305768 465.544811 
L 163.479797 473.226318 
L 165.653826 479.32423 
L 167.827855 482.785506 
L 170.001883 481.258948 
L 172.175912 481.886152 
L 174.349941 484.618418 
L 176.52397 489.046965 
L 178.697999 494.175898 
L 180.872028 496.751647 
L 183.046057 496.981329 
L 185.220086 496.219416 
L 187.394114 494.635213 
L 189.568143 494.944898 
L 191.742172 496.480705 
L 193.916201 498.54617 
L 196.09023 500.285035 
L 198.264259 500.546854 
L 200.438288 500.067169 
L 202.612317 499.8993 
L 204.786345 500.541147 
L 206.960374 501.998239 
L 209.134403 503.27125 
L 211.308432 504.070713 
L 213.482461 504.371191 
L 215.65649 503.811462 
L 217.830519 504.035206 
L 220.004548 504.551506 
L 222.178576 505.329728 
L 224.352605 506.238188 
L 226.526634 506.251232 
L 233.048721 504.859173 
L 235.22275 505.131651 
L 237.396779 505.981124 
L 239.570808 506.24401 
L 241.744836 506.658221 
L 243.918865 506.435133 
L 246.092894 505.957435 
L 250.440952 506.43929 
L 252.614981 506.956825 
L 254.78901 507.306272 
L 263.485125 506.834154 
L 267.833183 507.535286 
L 270.007212 507.561647 
L 272.181241 507.794277 
L 274.35527 507.860938 
L 276.529298 507.489723 
L 278.703327 507.241048 
L 283.051385 507.325573 
L 287.399443 508.087658 
L 291.747501 507.861461 
L 293.92153 507.705556 
L 296.095558 507.740543 
L 302.617645 508.088901 
L 304.791674 507.886656 
L 309.139732 507.855653 
L 311.313761 507.91366 
L 313.487789 508.204265 
L 320.009876 507.850848 
L 322.183905 507.395311 
L 326.531963 506.955896 
L 328.705992 506.994975 
L 330.88002 507.210419 
L 339.576136 507.187499 
L 343.924194 507.732825 
L 346.098223 507.719104 
L 348.272251 507.890912 
L 352.620309 507.565436 
L 354.794338 507.625882 
L 361.316425 508.060145 
L 363.490454 508.080223 
L 367.838511 507.797613 
L 372.186569 507.921207 
L 374.360598 508.133585 
L 378.708656 508.143044 
L 385.230742 507.534231 
L 393.926858 507.96218 
L 396.100887 507.6947 
L 398.274916 507.2828 
L 400.448945 507.097765 
L 409.14506 507.589559 
L 413.493118 506.785395 
L 415.667147 506.561044 
L 420.015205 507.170042 
L 422.189233 507.169722 
L 424.363262 507.326676 
L 426.537291 506.763122 
L 428.71132 506.320848 
L 430.885349 506.160895 
L 433.059378 506.298671 
L 435.233407 506.731072 
L 437.407436 506.86555 
L 439.581464 506.803386 
L 443.929522 505.515344 
L 446.103551 505.224469 
L 448.27758 505.648548 
L 450.451609 506.259973 
L 454.799667 506.265797 
L 456.973695 505.558585 
L 459.147724 504.996329 
L 461.321753 504.597117 
L 463.495782 505.096234 
L 465.669811 505.764067 
L 467.84384 505.876721 
L 470.017869 506.190863 
L 474.365927 505.205445 
L 476.539955 505.097274 
L 480.888013 506.187354 
L 485.236071 506.569029 
L 487.4101 506.254511 
L 489.584129 505.747327 
L 491.758158 505.664167 
L 493.932186 505.840004 
L 496.106215 506.151757 
L 498.280244 506.137985 
L 500.454273 506.270513 
L 502.628302 505.745893 
L 504.802331 505.360715 
L 506.97636 505.302501 
L 509.150389 505.449754 
L 511.324417 506.029283 
L 513.498446 506.087424 
L 515.672475 505.947575 
L 517.846504 505.248175 
L 522.194562 504.217484 
L 524.368591 504.558777 
L 526.54262 505.296357 
L 528.716648 505.370881 
L 530.890677 505.685012 
L 533.064706 505.264562 
L 535.238735 504.608111 
L 537.412764 504.263837 
L 539.586793 504.482102 
L 541.760822 505.016669 
L 543.934851 505.075983 
L 546.10888 505.475062 
L 548.282908 504.921489 
L 550.456937 504.169564 
L 554.804995 503.737802 
L 556.979024 504.344264 
L 559.153053 504.397181 
L 561.327082 504.298975 
L 563.501111 503.451376 
L 565.675139 501.933924 
L 567.849168 500.974835 
L 570.023197 500.725752 
L 572.197226 501.581525 
L 574.371255 501.86155 
L 576.545284 501.764932 
L 578.719313 500.39003 
L 580.893342 498.237831 
L 583.06737 496.697711 
L 585.241399 496.671417 
L 587.415428 497.895504 
L 591.763486 498.618046 
L 593.937515 496.433169 
L 596.111544 493.774838 
L 598.285573 490.92265 
L 600.459602 489.867944 
L 602.63363 491.367936 
L 606.981688 492.238222 
L 609.155717 490.706861 
L 611.329746 487.656648 
L 613.503775 485.635492 
L 615.677804 486.591786 
L 617.851833 488.762884 
L 620.025861 490.449183 
L 622.19989 491.598309 
L 624.373919 490.393846 
L 626.547948 488.199263 
L 628.721977 486.580678 
L 630.896006 487.499257 
L 633.070035 489.803133 
L 635.244064 491.884431 
L 637.418092 493.570237 
L 639.592121 492.567776 
L 641.76615 490.588971 
L 643.940179 489.398539 
L 646.114208 490.174471 
L 648.288237 492.933435 
L 650.462266 495.173331 
L 652.636295 496.447012 
L 654.810323 495.587903 
L 656.984352 493.336935 
L 659.158381 491.995304 
L 661.33241 492.619999 
L 663.506439 495.031634 
L 665.680468 497.04747 
L 667.854497 497.993924 
L 670.028526 497.062674 
L 672.202555 495.235286 
L 674.376583 494.088861 
L 676.550612 494.941806 
L 678.724641 496.879601 
L 680.89867 498.451311 
L 683.072699 499.247669 
L 685.246728 498.261264 
L 687.420757 496.581817 
L 689.594786 495.321452 
L 691.768814 495.40954 
L 696.116872 498.350023 
L 698.290901 498.812394 
L 700.46493 498.143301 
L 702.638959 495.973838 
L 704.812988 494.26088 
L 706.987017 494.514675 
L 709.161045 495.598078 
L 711.335074 497.645814 
L 713.509103 497.877227 
L 715.683132 497.204516 
L 720.03119 493.513804 
L 722.205219 494.270885 
L 724.379248 495.567191 
L 726.553277 497.266745 
L 728.727305 498.083921 
L 733.075363 496.382506 
L 735.249392 496.978733 
L 737.423421 498.158948 
L 739.59745 500.304598 
L 741.771479 501.548947 
L 743.945508 500.813596 
L 746.119536 499.083786 
L 748.293565 498.004837 
L 750.467594 498.062242 
L 752.641623 499.228621 
L 754.815652 501.318785 
L 756.989681 502.307931 
L 759.16371 501.566324 
L 761.337739 500.178519 
L 763.511767 498.292561 
L 765.685796 497.222515 
L 767.859825 497.646382 
L 770.033854 498.878895 
L 772.207883 500.505065 
L 774.381912 500.942134 
L 776.555941 500.293053 
L 778.72997 499.512925 
L 780.903999 499.062037 
L 783.078027 499.541946 
L 785.252056 500.975165 
L 787.426085 501.832222 
L 789.600114 502.038692 
L 791.774143 501.542998 
L 793.948172 500.733341 
L 796.122201 500.358842 
L 798.29623 500.645771 
L 800.470258 501.665088 
L 802.644287 502.503304 
L 804.818316 502.729402 
L 806.992345 502.338999 
L 811.340403 501.382894 
L 813.514432 501.526091 
L 815.688461 502.371597 
L 817.862489 502.922185 
L 820.036518 503.096101 
L 822.210547 502.875433 
L 824.384576 502.362254 
L 826.558605 502.054821 
L 828.732634 502.125708 
L 833.080692 503.425914 
L 835.25472 503.578878 
L 837.428749 503.458831 
L 841.776807 502.752994 
L 843.950836 502.878256 
L 848.298894 503.650234 
L 850.472923 503.693049 
L 854.82098 503.096933 
L 856.995009 502.741112 
L 859.169038 502.726374 
L 863.517096 503.434511 
L 865.691125 503.499009 
L 870.039183 502.845479 
L 872.213211 502.459873 
L 874.38724 502.460614 
L 878.735298 503.288099 
L 880.909327 503.323779 
L 885.257385 502.680298 
L 887.431414 502.319688 
L 889.605442 502.369864 
L 893.9535 503.179915 
L 896.127529 503.193873 
L 900.475587 502.301539 
L 902.649616 501.774169 
L 904.823645 501.665628 
L 909.171702 502.572551 
L 911.345731 502.512552 
L 913.51976 502.092973 
L 917.867818 500.784354 
L 920.041847 500.760184 
L 924.389905 501.920928 
L 926.563933 501.919075 
L 928.737962 501.380766 
L 933.08602 499.796029 
L 935.260049 499.712828 
L 939.608107 501.125543 
L 941.782136 501.304674 
L 943.956164 500.886532 
L 946.130193 500.200828 
L 948.304222 499.712885 
L 950.478251 499.978523 
L 954.826309 501.654112 
L 957.000338 502.097669 
L 959.174367 501.634752 
L 963.522424 499.761521 
L 965.696453 499.313569 
L 967.870482 499.69132 
L 970.044511 500.460209 
L 972.21854 500.568448 
L 978.740627 498.588975 
L 980.914655 498.713079 
L 985.262713 500.441194 
L 987.436742 500.364316 
L 989.610771 499.825214 
L 991.7848 499.006097 
L 993.958829 498.309137 
L 996.132858 498.604363 
L 1000.480915 500.250374 
L 1002.654944 500.283327 
L 1004.828973 499.975327 
L 1007.003002 499.36454 
L 1009.177031 498.972793 
L 1011.35106 499.241103 
L 1015.699117 500.727798 
L 1017.873146 500.746414 
L 1020.047175 500.461309 
L 1024.395233 499.628492 
L 1026.569262 499.85946 
L 1028.743291 500.52747 
L 1030.91732 501.069827 
L 1033.091349 501.082927 
L 1037.439406 500.638642 
L 1039.613435 500.550376 
L 1041.787464 500.819887 
L 1043.961493 501.334696 
L 1046.135522 501.636271 
L 1050.48358 501.300172 
L 1050.48358 501.300172 
" style="fill:none;stroke:#e24a33;stroke-dasharray:1.5,2.475;stroke-dashoffset:0;stroke-width:1.5;"/>
   </g>
   <g id="line2d_35">
    <path clip-path="url(#p178048c257)" d="M 87.388786 260.462565 
L 89.562815 231.467715 
L 91.736844 267.931446 
L 93.910873 250.510351 
L 96.084901 208.801557 
L 98.25893 204.361591 
L 100.432959 212.190779 
L 102.606988 240.263191 
L 104.781017 278.05675 
L 106.955046 275.071241 
L 109.129075 285.968227 
L 111.303104 294.033059 
L 113.477133 272.995146 
L 115.651161 277.678374 
L 117.82519 261.523359 
L 119.999219 251.617322 
L 124.347277 268.995357 
L 126.521306 300.021075 
L 128.695335 339.225086 
L 130.869364 351.55061 
L 133.043392 360.605193 
L 135.217421 364.6949 
L 137.39145 368.140284 
L 139.565479 378.618912 
L 141.739508 394.388579 
L 143.913537 414.386763 
L 148.261595 444.311908 
L 150.435623 458.514611 
L 152.609652 473.587255 
L 154.783681 486.215872 
L 156.95771 493.602312 
L 161.305768 498.469243 
L 163.479797 501.160965 
L 165.653826 504.450569 
L 167.827855 511.192128 
L 170.001883 516.387821 
L 172.175912 522.086846 
L 174.349941 528.52797 
L 176.52397 531.54634 
L 178.697999 536.440095 
L 180.872028 540.475159 
L 185.220086 544.62968 
L 187.394114 542.065006 
L 189.568143 536.790814 
L 191.742172 532.037821 
L 193.916201 526.760323 
L 196.09023 524.029504 
L 198.264259 522.274284 
L 200.438288 521.305688 
L 202.612317 524.100299 
L 204.786345 528.562448 
L 206.960374 533.764195 
L 209.134403 538.092943 
L 211.308432 539.968541 
L 213.482461 541.620016 
L 215.65649 541.569652 
L 217.830519 542.232459 
L 220.004548 544.206209 
L 222.178576 545.392441 
L 224.352605 548.032666 
L 226.526634 548.051034 
L 228.700663 544.752645 
L 230.874692 539.761551 
L 233.048721 526.967662 
L 235.22275 516.750387 
L 237.396779 513.636014 
L 239.570808 509.023473 
L 241.744836 508.838417 
L 243.918865 510.002522 
L 246.092894 509.799798 
L 248.266923 520.160291 
L 250.440952 526.742564 
L 252.614981 529.998285 
L 254.78901 534.235388 
L 259.137067 530.074209 
L 261.311096 530.147577 
L 263.485125 524.591568 
L 265.659154 526.460697 
L 267.833183 527.616317 
L 270.007212 524.760505 
L 272.181241 527.090133 
L 274.35527 530.328834 
L 276.529298 530.008168 
L 278.703327 531.203796 
L 280.877356 523.215699 
L 283.051385 508.504898 
L 285.225414 505.995606 
L 287.399443 506.799436 
L 289.573472 507.348004 
L 291.747501 514.561693 
L 293.92153 518.220637 
L 296.095558 518.815621 
L 298.269587 526.0676 
L 300.443616 525.186935 
L 302.617645 521.378674 
L 304.791674 515.352148 
L 306.965703 508.18274 
L 309.139732 505.842168 
L 311.313761 509.618177 
L 313.487789 517.731104 
L 315.661818 519.552708 
L 317.835847 518.114276 
L 320.009876 514.582106 
L 322.183905 494.745682 
L 324.357934 477.825294 
L 326.531963 455.210549 
L 328.705992 434.091955 
L 330.88002 427.048502 
L 333.054049 422.396404 
L 335.228078 426.714392 
L 337.402107 450.524223 
L 339.576136 470.375433 
L 341.750165 499.361555 
L 343.924194 520.102669 
L 346.098223 527.386559 
L 348.272251 535.456708 
L 350.44628 535.71128 
L 352.620309 529.624134 
L 354.794338 528.45326 
L 356.968367 524.255869 
L 359.142396 523.801906 
L 361.316425 526.131773 
L 365.664483 523.801844 
L 367.838511 521.971784 
L 370.01254 517.98067 
L 372.186569 516.122738 
L 374.360598 515.117669 
L 376.534627 513.585138 
L 378.708656 512.578578 
L 380.882685 510.571858 
L 383.056714 502.856162 
L 387.404771 486.033071 
L 389.5788 480.618832 
L 391.752829 479.323394 
L 393.926858 479.558635 
L 396.100887 480.070302 
L 398.274916 481.814595 
L 400.448945 480.237101 
L 402.622973 477.066583 
L 404.797002 473.388125 
L 406.971031 471.848658 
L 409.14506 471.124817 
L 411.319089 469.75848 
L 413.493118 472.51226 
L 415.667147 474.33491 
L 417.841176 478.913677 
L 420.015205 484.008184 
L 422.189233 484.767531 
L 424.363262 485.911286 
L 426.537291 485.204907 
L 428.71132 483.057381 
L 430.885349 484.873829 
L 433.059378 482.341337 
L 435.233407 481.896728 
L 437.407436 482.493081 
L 439.581464 480.599376 
L 441.755493 480.95619 
L 443.929522 479.298674 
L 446.103551 474.529153 
L 448.27758 476.268527 
L 450.451609 476.954114 
L 452.625638 477.435908 
L 454.799667 478.414711 
L 456.973695 478.525704 
L 459.147724 479.996589 
L 461.321753 482.601334 
L 463.495782 484.567886 
L 465.669811 485.316701 
L 467.84384 485.073437 
L 470.017869 486.900742 
L 472.191898 490.98362 
L 474.365927 497.107449 
L 476.539955 505.417851 
L 478.713984 510.177254 
L 480.888013 511.898676 
L 483.062042 514.128741 
L 485.236071 514.549487 
L 487.4101 515.171615 
L 489.584129 515.569739 
L 491.758158 514.673957 
L 493.932186 512.642234 
L 496.106215 508.919857 
L 500.454273 500.502507 
L 502.628302 495.766055 
L 504.802331 493.092928 
L 509.150389 492.966299 
L 511.324417 495.625581 
L 513.498446 497.332388 
L 515.672475 497.143506 
L 517.846504 496.497529 
L 520.020533 492.711631 
L 522.194562 484.961149 
L 524.368591 481.490498 
L 526.54262 479.799009 
L 528.716648 478.773469 
L 530.890677 481.567124 
L 533.064706 486.200721 
L 535.238735 491.852072 
L 537.412764 499.156573 
L 539.586793 501.112385 
L 541.760822 499.368651 
L 546.10888 497.190386 
L 548.282908 495.836 
L 550.456937 495.186304 
L 552.630966 495.554206 
L 554.804995 492.589457 
L 556.979024 490.867696 
L 559.153053 489.502986 
L 561.327082 485.312779 
L 563.501111 481.845913 
L 565.675139 474.932499 
L 567.849168 464.584767 
L 570.023197 458.423731 
L 572.197226 453.838686 
L 574.371255 452.255169 
L 576.545284 452.550696 
L 578.719313 452.435736 
L 580.893342 453.458357 
L 583.06737 453.425058 
L 585.241399 454.192406 
L 587.415428 454.748105 
L 589.589457 454.621823 
L 591.763486 455.41773 
L 593.937515 455.337365 
L 596.111544 456.47098 
L 598.285573 456.445512 
L 600.459602 452.572074 
L 602.63363 449.273025 
L 604.807659 445.430901 
L 606.981688 442.789564 
L 609.155717 443.367055 
L 611.329746 445.999926 
L 613.503775 452.512491 
L 615.677804 462.996564 
L 617.851833 469.035295 
L 620.025861 474.512236 
L 622.19989 478.370197 
L 624.373919 481.077063 
L 626.547948 485.107609 
L 628.721977 488.413474 
L 630.896006 490.72945 
L 633.070035 492.531223 
L 635.244064 493.826611 
L 637.418092 495.442902 
L 643.940179 500.959204 
L 646.114208 501.651708 
L 648.288237 503.338027 
L 650.462266 505.507854 
L 654.810323 508.856397 
L 656.984352 508.982701 
L 661.33241 505.75116 
L 663.506439 504.686236 
L 670.028526 505.232398 
L 672.202555 505.342589 
L 674.376583 505.119987 
L 678.724641 506.817519 
L 683.072699 507.453041 
L 685.246728 507.060955 
L 687.420757 506.403666 
L 689.594786 505.222169 
L 691.768814 502.206491 
L 693.942843 499.622664 
L 698.290901 495.764319 
L 700.46493 495.112337 
L 702.638959 493.777918 
L 704.812988 491.383546 
L 706.987017 490.446838 
L 709.161045 487.532829 
L 715.683132 486.626138 
L 717.857161 488.012074 
L 720.03119 488.355881 
L 724.379248 493.185618 
L 726.553277 493.625126 
L 728.727305 495.023681 
L 730.901334 495.54484 
L 733.075363 497.807112 
L 737.423421 515.903365 
L 739.59745 526.954821 
L 741.771479 534.633989 
L 743.945508 536.28901 
L 746.119536 534.056355 
L 748.293565 525.109469 
L 750.467594 511.161074 
L 752.641623 505.313389 
L 754.815652 505.062175 
L 756.989681 505.437083 
L 761.337739 506.813321 
L 763.511767 501.896297 
L 767.859825 477.692413 
L 770.033854 466.544838 
L 772.207883 461.521597 
L 774.381912 461.404475 
L 776.555941 465.232179 
L 778.72997 480.069877 
L 780.903999 501.97171 
L 783.078027 514.103627 
L 785.252056 521.502128 
L 787.426085 523.463705 
L 789.600114 524.092853 
L 791.774143 524.425661 
L 793.948172 521.759702 
L 796.122201 519.634361 
L 800.470258 516.006821 
L 802.644287 516.038386 
L 804.818316 516.400485 
L 806.992345 517.017904 
L 809.166374 519.02777 
L 811.340403 519.405085 
L 813.514432 518.501764 
L 815.688461 518.24215 
L 817.862489 517.174456 
L 820.036518 516.651537 
L 822.210547 516.835275 
L 824.384576 516.117101 
L 826.558605 516.59293 
L 828.732634 516.804018 
L 830.906663 515.914384 
L 833.080692 517.15444 
L 835.25472 518.228466 
L 837.428749 519.895708 
L 839.602778 522.658826 
L 841.776807 522.46447 
L 843.950836 522.715707 
L 846.124865 521.227027 
L 848.298894 519.301467 
L 850.472923 517.60503 
L 852.646952 513.707106 
L 854.82098 509.40409 
L 859.169038 499.468814 
L 861.343067 498.051296 
L 863.517096 496.054665 
L 865.691125 494.73389 
L 867.865154 494.223643 
L 870.039183 493.292681 
L 872.213211 493.388764 
L 874.38724 493.30868 
L 876.561269 493.581183 
L 878.735298 494.346657 
L 880.909327 494.736816 
L 883.083356 495.337734 
L 887.431414 496.133781 
L 889.605442 497.84317 
L 891.779471 498.431236 
L 893.9535 498.861371 
L 896.127529 498.859835 
L 898.301558 497.460135 
L 900.475587 494.826977 
L 902.649616 489.373262 
L 904.823645 482.22912 
L 906.997674 478.328851 
L 909.171702 475.890566 
L 911.345731 473.895385 
L 915.693789 472.449622 
L 917.867818 472.600856 
L 920.041847 475.265282 
L 922.215876 475.935299 
L 926.563933 477.786599 
L 928.737962 478.217701 
L 933.08602 479.264076 
L 935.260049 478.285691 
L 939.608107 477.843481 
L 941.782136 478.426169 
L 943.956164 480.238143 
L 946.130193 483.907994 
L 948.304222 491.551387 
L 950.478251 500.008251 
L 952.65228 506.049812 
L 957.000338 514.961909 
L 959.174367 518.060892 
L 961.348395 518.586415 
L 963.522424 511.954418 
L 965.696453 492.457187 
L 967.870482 476.227043 
L 970.044511 467.237958 
L 972.21854 460.103554 
L 974.392569 454.622855 
L 976.566598 453.374272 
L 978.740627 457.899155 
L 980.914655 474.915712 
L 983.088684 489.708672 
L 985.262713 496.567976 
L 987.436742 499.757074 
L 989.610771 501.600164 
L 991.7848 500.495632 
L 993.958829 498.012743 
L 996.132858 498.448647 
L 998.306886 498.152947 
L 1000.480915 498.554403 
L 1002.654944 499.387274 
L 1004.828973 500.727397 
L 1007.003002 503.50622 
L 1009.177031 508.905263 
L 1011.35106 513.187229 
L 1013.525089 515.23929 
L 1015.699117 516.90232 
L 1017.873146 517.762612 
L 1020.047175 518.422114 
L 1022.221204 519.415873 
L 1024.395233 518.553685 
L 1026.569262 517.951243 
L 1028.743291 518.694207 
L 1030.91732 518.77862 
L 1035.265377 519.417198 
L 1037.439406 520.134334 
L 1039.613435 523.957748 
L 1041.787464 528.908071 
L 1043.961493 533.469678 
L 1046.135522 535.65841 
L 1048.309551 535.282615 
L 1050.48358 533.810951 
L 1050.48358 533.810951 
" style="fill:none;stroke:#348abd;stroke-linecap:square;stroke-width:1.5;"/>
   </g>
   <g id="line2d_36">
    <path clip-path="url(#p178048c257)" d="M 87.388786 260.462565 
L 89.562815 202.472864 
L 91.736844 340.858908 
L 93.910873 198.247068 
L 96.084901 41.966381 
L 98.25893 182.16176 
L 100.432959 259.165906 
L 102.606988 456.969447 
L 104.781017 467.027779 
L 106.955046 319.960343 
L 109.129075 274.525976 
L 111.303104 98.420205 
L 113.477133 34.896364 
L 115.651161 291.948507 
L 119.999219 397.685514 
L 122.173248 379.859722 
L 124.347277 336.272846 
L 126.521306 315.600228 
L 128.695335 309.324443 
L 130.869364 378.227177 
L 133.043392 407.266418 
L 135.217421 426.313468 
L 137.39145 403.977406 
L 139.565479 409.623243 
L 141.739508 425.987897 
L 143.913537 449.311732 
L 146.087566 485.676622 
L 148.261595 509.292987 
L 150.435623 525.732391 
L 152.609652 509.485912 
L 154.783681 498.02356 
L 156.95771 477.692983 
L 159.131739 465.943893 
L 161.305768 503.112974 
L 163.479797 528.135044 
L 165.653826 548.759618 
L 167.827855 556.676827 
L 170.001883 534.393407 
L 172.175912 517.586161 
L 174.349941 511.031757 
L 176.52397 524.241563 
L 178.697999 562.391334 
L 180.872028 577.005065 
L 183.046057 571.214735 
L 185.220086 548.937142 
L 187.394114 499.633448 
L 189.568143 474.112409 
L 191.742172 490.970615 
L 193.916201 525.448847 
L 196.09023 557.889332 
L 198.264259 558.928195 
L 200.438288 542.156973 
L 202.612317 519.19572 
L 204.786345 505.347454 
L 206.960374 527.382842 
L 209.134403 555.750083 
L 211.308432 571.018522 
L 213.482461 570.488518 
L 215.65649 541.804422 
L 217.830519 523.835373 
L 220.004548 519.163701 
L 222.178576 535.686467 
L 224.352605 574.231661 
L 226.526634 571.147096 
L 228.700663 547.399798 
L 230.874692 506.866759 
L 233.048721 434.278156 
L 235.22275 447.642773 
L 237.396779 513.885858 
L 241.744836 569.851702 
L 243.918865 555.548531 
L 246.092894 505.447694 
L 248.266923 506.801604 
L 250.440952 493.718681 
L 252.614981 536.675906 
L 254.78901 571.603596 
L 256.963039 555.568475 
L 259.137067 540.70351 
L 261.311096 505.961267 
L 263.485125 467.909542 
L 267.833183 544.765246 
L 270.007212 551.612911 
L 272.181241 571.875872 
L 274.35527 563.374411 
L 276.529298 503.716608 
L 278.703327 476.278939 
L 280.877356 450.885906 
L 283.051385 441.789641 
L 285.225414 534.047862 
L 287.399443 577.502686 
L 289.573472 567.214386 
L 291.747501 554.212435 
L 293.92153 501.891544 
L 296.095558 455.050792 
L 298.269587 492.553495 
L 300.443616 527.883207 
L 302.617645 550.844857 
L 304.791674 525.028706 
L 306.965703 504.026576 
L 309.139732 485.507542 
L 311.313761 481.482855 
L 313.487789 549.343983 
L 315.661818 540.634436 
L 317.835847 540.77583 
L 320.009876 500.303519 
L 322.183905 365.171605 
L 324.357934 367.064832 
L 326.531963 323.179637 
L 328.705992 401.513828 
L 330.88002 491.330263 
L 333.054049 508.211144 
L 335.228078 530.529433 
L 337.402107 531.840422 
L 339.576136 506.023306 
L 343.924194 546.701626 
L 346.098223 542.317495 
L 348.272251 564.70219 
L 350.44628 532.311434 
L 352.620309 489.230402 
L 354.794338 497.827181 
L 356.968367 496.700753 
L 359.142396 543.523884 
L 361.316425 558.626564 
L 363.490454 556.595543 
L 365.664483 524.108582 
L 367.838511 476.419983 
L 370.01254 469.889377 
L 372.186569 483.695232 
L 374.360598 536.488401 
L 376.534627 547.898846 
L 378.708656 549.549627 
L 380.882685 510.061542 
L 383.056714 422.410108 
L 385.230742 411.399953 
L 387.404771 424.423019 
L 389.5788 498.588726 
L 391.752829 538.830779 
L 393.926858 551.196316 
L 396.100887 513.643215 
L 398.274916 434.62016 
L 400.448945 400.357491 
L 402.622973 402.229391 
L 404.797002 472.83952 
L 406.971031 528.054513 
L 409.14506 546.129426 
L 411.319089 504.078858 
L 413.493118 453.896619 
L 415.667147 413.116042 
L 417.841176 434.280757 
L 420.015205 508.501074 
L 422.189233 533.36994 
L 424.363262 554.13571 
L 426.537291 499.134208 
L 428.71132 438.863941 
L 430.885349 425.831175 
L 433.059378 416.553309 
L 435.233407 505.388817 
L 437.407436 537.544408 
L 439.581464 540.879772 
L 441.755493 501.631906 
L 443.929522 427.261331 
L 446.103551 392.444527 
L 448.27758 428.728929 
L 450.451609 510.187926 
L 452.625638 540.916963 
L 454.799667 547.731398 
L 456.973695 502.408858 
L 459.147724 437.557526 
L 461.321753 410.677739 
L 463.495782 442.494791 
L 465.669811 515.429632 
L 467.84384 539.214115 
L 470.017869 560.522535 
L 472.191898 530.989002 
L 474.365927 480.424333 
L 476.539955 468.85055 
L 478.713984 475.810614 
L 480.888013 527.479581 
L 483.062042 554.824574 
L 485.236071 563.467759 
L 487.4101 535.343894 
L 489.584129 483.211204 
L 491.758158 462.580071 
L 493.932186 461.588552 
L 496.106215 501.422945 
L 498.280244 525.002532 
L 500.454273 534.36835 
L 502.628302 502.188727 
L 504.802331 464.499321 
L 506.97636 462.277669 
L 509.150389 461.004545 
L 511.324417 520.037925 
L 513.498446 536.950176 
L 515.672475 533.046179 
L 517.846504 497.666885 
L 520.020533 437.99804 
L 522.194562 408.024292 
L 524.368591 436.70999 
L 526.54262 508.1975 
L 528.716648 529.771396 
L 530.890677 552.601762 
L 533.064706 530.102065 
L 535.238735 477.557498 
L 537.412764 459.155802 
L 539.586793 450.400673 
L 541.760822 495.991362 
L 543.934851 522.147742 
L 546.10888 544.977561 
L 548.282908 520.62136 
L 550.456937 473.009629 
L 552.630966 461.731114 
L 554.804995 429.647434 
L 556.979024 483.939029 
L 559.153053 512.594774 
L 561.327082 515.646111 
L 563.501111 496.353302 
L 565.675139 424.615728 
L 567.849168 389.296994 
L 570.023197 386.520182 
L 572.197226 451.84371 
L 574.371255 501.510157 
L 576.545284 517.714801 
L 578.719313 495.548576 
L 580.893342 431.774081 
L 583.06737 389.063901 
L 585.241399 391.891616 
L 587.415428 455.733604 
L 589.589457 500.626182 
L 591.763486 523.286147 
L 593.937515 494.986025 
L 596.111544 439.709385 
L 598.285573 388.885627 
L 600.459602 364.77755 
L 602.63363 432.640259 
L 604.807659 473.731314 
L 606.981688 504.796785 
L 609.155717 499.028467 
L 611.329746 458.139478 
L 613.503775 434.473585 
L 615.677804 438.166061 
L 620.025861 512.069899 
L 622.19989 531.80251 
L 624.373919 517.976533 
L 626.547948 486.353296 
L 628.721977 457.61464 
L 630.896006 454.377896 
L 635.244064 521.137616 
L 637.418092 543.116545 
L 639.592121 530.852016 
L 641.76615 499.609087 
L 643.940179 470.097478 
L 646.114208 459.225422 
L 648.288237 499.328021 
L 650.462266 536.32641 
L 652.636295 554.517221 
L 654.810323 542.891142 
L 659.158381 459.18609 
L 661.33241 447.51602 
L 665.680468 537.675553 
L 667.854497 556.63479 
L 670.028526 543.247561 
L 674.376583 457.62788 
L 676.550612 453.046578 
L 678.724641 498.225718 
L 680.89867 540.059366 
L 683.072699 558.699627 
L 685.246728 540.502961 
L 687.420757 496.663535 
L 689.594786 449.357402 
L 691.768814 431.936827 
L 696.116872 526.43794 
L 698.290901 545.312636 
L 700.46493 535.939091 
L 702.638959 487.322599 
L 704.812988 432.596795 
L 706.987017 425.379875 
L 709.161045 459.740867 
L 711.335074 524.264034 
L 713.509103 543.698486 
L 715.683132 533.380308 
L 717.857161 497.024152 
L 720.03119 435.003446 
L 722.205219 442.240337 
L 724.379248 476.688567 
L 726.553277 527.340588 
L 728.727305 553.488368 
L 730.901334 537.028424 
L 733.075363 512.860057 
L 735.249392 498.508806 
L 737.423421 505.408743 
L 739.59745 554.048761 
L 741.771479 581.094761 
L 743.945508 565.073519 
L 746.119536 521.399838 
L 748.293565 450.231853 
L 750.467594 400.870043 
L 752.641623 464.474946 
L 754.815652 552.290264 
L 756.989681 583.719117 
L 759.16371 569.734594 
L 761.337739 526.372431 
L 763.511767 415.812684 
L 765.685796 314.726498 
L 767.859825 381.191302 
L 770.033854 474.25724 
L 772.207883 548.55643 
L 774.381912 568.914737 
L 776.555941 553.166364 
L 778.72997 519.676569 
L 780.903999 468.039325 
L 783.078027 466.114721 
L 785.252056 526.046753 
L 787.426085 562.287466 
L 789.600114 573.318774 
L 791.774143 555.496019 
L 793.948172 501.014858 
L 796.122201 453.161933 
L 798.29623 453.089946 
L 800.470258 513.678749 
L 802.644287 562.508419 
L 804.818316 575.853471 
L 806.992345 559.817952 
L 809.166374 515.083919 
L 811.340403 455.80314 
L 813.514432 446.766699 
L 815.688461 511.861449 
L 817.862489 555.034565 
L 820.036518 572.193037 
L 822.210547 561.104118 
L 826.558605 459.133947 
L 828.732634 448.244311 
L 833.080692 563.714958 
L 835.25472 579.711221 
L 837.428749 572.774813 
L 839.602778 529.398521 
L 841.776807 457.773459 
L 843.950836 450.002967 
L 846.124865 495.213249 
L 848.298894 550.236041 
L 850.472923 567.836162 
L 852.646952 545.489343 
L 854.82098 499.277411 
L 856.995009 423.73579 
L 859.169038 414.493699 
L 861.343067 485.290624 
L 863.517096 536.259628 
L 865.691125 558.590731 
L 867.865154 541.917618 
L 870.039183 492.760673 
L 872.213211 424.408371 
L 874.38724 413.933113 
L 876.561269 487.198145 
L 878.735298 541.617949 
L 880.909327 561.321842 
L 883.083356 546.124047 
L 885.257385 495.450256 
L 887.431414 427.291118 
L 889.605442 425.898833 
L 891.779471 491.314608 
L 893.9535 544.628891 
L 896.127529 561.311089 
L 898.301558 536.326148 
L 900.475587 477.018152 
L 902.649616 389.115112 
L 904.823645 375.88984 
L 906.997674 464.012724 
L 909.171702 527.560893 
L 911.345731 547.344823 
L 913.51976 531.441397 
L 915.693789 471.782565 
L 917.867818 390.173749 
L 920.041847 394.540827 
L 922.215876 468.702842 
L 924.389905 533.673511 
L 926.563933 554.191302 
L 928.737962 534.459109 
L 930.911991 475.832749 
L 933.08602 393.448189 
L 935.260049 387.692136 
L 937.434078 467.218839 
L 939.608107 532.062045 
L 941.782136 558.270113 
L 943.956164 547.142928 
L 946.130193 501.521707 
L 948.304222 446.951939 
L 950.478251 446.890185 
L 952.65228 509.509771 
L 954.826309 563.8932 
L 957.000338 588.823636 
L 959.174367 568.835805 
L 961.348395 505.200371 
L 963.522424 400.527957 
L 965.696453 310.409567 
L 967.870482 395.898764 
L 970.044511 500.969607 
L 972.21854 538.882808 
L 974.392569 530.470911 
L 976.566598 496.460294 
L 978.740627 432.202138 
L 980.914655 429.525464 
L 983.088684 499.449483 
L 985.262713 548.984736 
L 987.436742 561.206493 
L 989.610771 543.372541 
L 991.7848 488.728565 
L 993.958829 414.82192 
L 996.132858 432.57679 
L 998.306886 497.379585 
L 1000.480915 551.794929 
L 1002.654944 567.036588 
L 1004.828973 552.753405 
L 1007.003002 508.180324 
L 1009.177031 452.615221 
L 1011.35106 462.55055 
L 1015.699117 563.436136 
L 1017.873146 573.058631 
L 1020.047175 557.369916 
L 1022.221204 515.136641 
L 1024.395233 446.579905 
L 1026.569262 458.333454 
L 1028.743291 516.944767 
L 1030.91732 564.027022 
L 1033.091349 575.662726 
L 1035.265377 559.235869 
L 1037.439406 520.156597 
L 1039.613435 473.343802 
L 1041.787464 492.985715 
L 1043.961493 548.876013 
L 1046.135522 579.34815 
L 1048.309551 573.032161 
L 1050.48358 548.934219 
L 1050.48358 548.934219 
" style="fill:none;stroke:#348abd;stroke-dasharray:1.5,2.475;stroke-dashoffset:0;stroke-width:1.5;"/>
   </g>
   <g id="line2d_37">
    <path clip-path="url(#p178048c257)" d="M 30.103125 509.360236 
L 1099.073125 509.360236 
" style="fill:none;stroke:#008000;stroke-linecap:square;stroke-opacity:0.5;stroke-width:1.5;"/>
   </g>
   <g id="patch_3">
    <path d="M 30.103125 616.52 
L 30.103125 7.2 
" style="fill:none;stroke:#ffffff;stroke-linecap:square;stroke-linejoin:miter;"/>
   </g>
   <g id="patch_4">
    <path d="M 1099.073125 616.52 
L 1099.073125 7.2 
" style="fill:none;stroke:#ffffff;stroke-linecap:square;stroke-linejoin:miter;"/>
   </g>
   <g id="patch_5">
    <path d="M 30.103125 616.52 
L 1099.073125 616.52 
" style="fill:none;stroke:#ffffff;stroke-linecap:square;stroke-linejoin:miter;"/>
   </g>
   <g id="patch_6">
    <path d="M 30.103125 7.2 
L 1099.073125 7.2 
" style="fill:none;stroke:#ffffff;stroke-linecap:square;stroke-linejoin:miter;"/>
   </g>
  </g>
  <g id="axes_2">
   <g id="matplotlib.axis_3">
    <g id="ytick_9">
     <g id="line2d_38">
      <path clip-path="url(#p178048c257)" d="M 30.103125 589.00409 
L 1099.073125 589.00409 
" style="fill:none;stroke:#ffffff;stroke-linecap:square;stroke-width:0.8;"/>
     </g>
     <g id="line2d_39">
      <defs>
       <path d="M 0 0 
L 3.5 0 
" id="m52d0d1dd96" style="stroke:#555555;stroke-width:0.8;"/>
      </defs>
      <g>
       <use style="fill:#555555;stroke:#555555;stroke-width:0.8;" x="1099.073125" xlink:href="#m52d0d1dd96" y="589.00409"/>
      </g>
     </g>
     <g id="text_17">
      <!-- 0 -->
      <g style="fill:#555555;" transform="translate(1106.073125 592.803309)scale(0.1 -0.1)">
       <use xlink:href="#DejaVuSans-30"/>
      </g>
     </g>
    </g>
    <g id="ytick_10">
     <g id="line2d_40">
      <path clip-path="url(#p178048c257)" d="M 30.103125 506.979676 
L 1099.073125 506.979676 
" style="fill:none;stroke:#ffffff;stroke-linecap:square;stroke-width:0.8;"/>
     </g>
     <g id="line2d_41">
      <g>
       <use style="fill:#555555;stroke:#555555;stroke-width:0.8;" x="1099.073125" xlink:href="#m52d0d1dd96" y="506.979676"/>
      </g>
     </g>
     <g id="text_18">
      <!-- 5000 -->
      <g style="fill:#555555;" transform="translate(1106.073125 510.778895)scale(0.1 -0.1)">
       <use xlink:href="#DejaVuSans-35"/>
       <use x="63.623047" xlink:href="#DejaVuSans-30"/>
       <use x="127.246094" xlink:href="#DejaVuSans-30"/>
       <use x="190.869141" xlink:href="#DejaVuSans-30"/>
      </g>
     </g>
    </g>
    <g id="ytick_11">
     <g id="line2d_42">
      <path clip-path="url(#p178048c257)" d="M 30.103125 424.955262 
L 1099.073125 424.955262 
" style="fill:none;stroke:#ffffff;stroke-linecap:square;stroke-width:0.8;"/>
     </g>
     <g id="line2d_43">
      <g>
       <use style="fill:#555555;stroke:#555555;stroke-width:0.8;" x="1099.073125" xlink:href="#m52d0d1dd96" y="424.955262"/>
      </g>
     </g>
     <g id="text_19">
      <!-- 10000 -->
      <g style="fill:#555555;" transform="translate(1106.073125 428.754481)scale(0.1 -0.1)">
       <use xlink:href="#DejaVuSans-31"/>
       <use x="63.623047" xlink:href="#DejaVuSans-30"/>
       <use x="127.246094" xlink:href="#DejaVuSans-30"/>
       <use x="190.869141" xlink:href="#DejaVuSans-30"/>
       <use x="254.492188" xlink:href="#DejaVuSans-30"/>
      </g>
     </g>
    </g>
    <g id="ytick_12">
     <g id="line2d_44">
      <path clip-path="url(#p178048c257)" d="M 30.103125 342.930848 
L 1099.073125 342.930848 
" style="fill:none;stroke:#ffffff;stroke-linecap:square;stroke-width:0.8;"/>
     </g>
     <g id="line2d_45">
      <g>
       <use style="fill:#555555;stroke:#555555;stroke-width:0.8;" x="1099.073125" xlink:href="#m52d0d1dd96" y="342.930848"/>
      </g>
     </g>
     <g id="text_20">
      <!-- 15000 -->
      <g style="fill:#555555;" transform="translate(1106.073125 346.730067)scale(0.1 -0.1)">
       <use xlink:href="#DejaVuSans-31"/>
       <use x="63.623047" xlink:href="#DejaVuSans-35"/>
       <use x="127.246094" xlink:href="#DejaVuSans-30"/>
       <use x="190.869141" xlink:href="#DejaVuSans-30"/>
       <use x="254.492188" xlink:href="#DejaVuSans-30"/>
      </g>
     </g>
    </g>
    <g id="ytick_13">
     <g id="line2d_46">
      <path clip-path="url(#p178048c257)" d="M 30.103125 260.906434 
L 1099.073125 260.906434 
" style="fill:none;stroke:#ffffff;stroke-linecap:square;stroke-width:0.8;"/>
     </g>
     <g id="line2d_47">
      <g>
       <use style="fill:#555555;stroke:#555555;stroke-width:0.8;" x="1099.073125" xlink:href="#m52d0d1dd96" y="260.906434"/>
      </g>
     </g>
     <g id="text_21">
      <!-- 20000 -->
      <g style="fill:#555555;" transform="translate(1106.073125 264.705653)scale(0.1 -0.1)">
       <use xlink:href="#DejaVuSans-32"/>
       <use x="63.623047" xlink:href="#DejaVuSans-30"/>
       <use x="127.246094" xlink:href="#DejaVuSans-30"/>
       <use x="190.869141" xlink:href="#DejaVuSans-30"/>
       <use x="254.492188" xlink:href="#DejaVuSans-30"/>
      </g>
     </g>
    </g>
    <g id="ytick_14">
     <g id="line2d_48">
      <path clip-path="url(#p178048c257)" d="M 30.103125 178.88202 
L 1099.073125 178.88202 
" style="fill:none;stroke:#ffffff;stroke-linecap:square;stroke-width:0.8;"/>
     </g>
     <g id="line2d_49">
      <g>
       <use style="fill:#555555;stroke:#555555;stroke-width:0.8;" x="1099.073125" xlink:href="#m52d0d1dd96" y="178.88202"/>
      </g>
     </g>
     <g id="text_22">
      <!-- 25000 -->
      <g style="fill:#555555;" transform="translate(1106.073125 182.681239)scale(0.1 -0.1)">
       <use xlink:href="#DejaVuSans-32"/>
       <use x="63.623047" xlink:href="#DejaVuSans-35"/>
       <use x="127.246094" xlink:href="#DejaVuSans-30"/>
       <use x="190.869141" xlink:href="#DejaVuSans-30"/>
       <use x="254.492188" xlink:href="#DejaVuSans-30"/>
      </g>
     </g>
    </g>
    <g id="ytick_15">
     <g id="line2d_50">
      <path clip-path="url(#p178048c257)" d="M 30.103125 96.857606 
L 1099.073125 96.857606 
" style="fill:none;stroke:#ffffff;stroke-linecap:square;stroke-width:0.8;"/>
     </g>
     <g id="line2d_51">
      <g>
       <use style="fill:#555555;stroke:#555555;stroke-width:0.8;" x="1099.073125" xlink:href="#m52d0d1dd96" y="96.857606"/>
      </g>
     </g>
     <g id="text_23">
      <!-- 30000 -->
      <g style="fill:#555555;" transform="translate(1106.073125 100.656825)scale(0.1 -0.1)">
       <use xlink:href="#DejaVuSans-33"/>
       <use x="63.623047" xlink:href="#DejaVuSans-30"/>
       <use x="127.246094" xlink:href="#DejaVuSans-30"/>
       <use x="190.869141" xlink:href="#DejaVuSans-30"/>
       <use x="254.492188" xlink:href="#DejaVuSans-30"/>
      </g>
     </g>
    </g>
    <g id="ytick_16">
     <g id="line2d_52">
      <path clip-path="url(#p178048c257)" d="M 30.103125 14.833192 
L 1099.073125 14.833192 
" style="fill:none;stroke:#ffffff;stroke-linecap:square;stroke-width:0.8;"/>
     </g>
     <g id="line2d_53">
      <g>
       <use style="fill:#555555;stroke:#555555;stroke-width:0.8;" x="1099.073125" xlink:href="#m52d0d1dd96" y="14.833192"/>
      </g>
     </g>
     <g id="text_24">
      <!-- 35000 -->
      <g style="fill:#555555;" transform="translate(1106.073125 18.632411)scale(0.1 -0.1)">
       <use xlink:href="#DejaVuSans-33"/>
       <use x="63.623047" xlink:href="#DejaVuSans-35"/>
       <use x="127.246094" xlink:href="#DejaVuSans-30"/>
       <use x="190.869141" xlink:href="#DejaVuSans-30"/>
       <use x="254.492188" xlink:href="#DejaVuSans-30"/>
      </g>
     </g>
    </g>
   </g>
   <g id="line2d_54">
    <path clip-path="url(#p178048c257)" d="M 78.69267 588.134631 
L 80.866699 588.479134 
L 83.040728 588.309617 
L 87.388786 588.361019 
L 89.562815 588.287744 
L 91.736844 588.066668 
L 96.084901 587.290952 
L 98.25893 587.187835 
L 100.432959 586.698032 
L 102.606988 586.42618 
L 104.781017 585.945751 
L 106.955046 584.389631 
L 109.129075 583.325657 
L 111.303104 581.973426 
L 117.82519 575.27086 
L 119.999219 573.463979 
L 122.173248 568.779213 
L 124.347277 563.471062 
L 126.521306 558.849572 
L 128.695335 556.728655 
L 130.869364 549.960469 
L 133.043392 541.476801 
L 135.217421 534.268027 
L 137.39145 529.222354 
L 139.565479 522.608842 
L 141.739508 514.197824 
L 143.913537 509.470875 
L 146.087566 507.856166 
L 148.261595 508.205355 
L 150.435623 505.07671 
L 152.609652 502.259757 
L 154.783681 501.336396 
L 156.95771 501.83323 
L 159.131739 497.214084 
L 161.305768 499.731061 
L 163.479797 501.561378 
L 165.653826 504.959532 
L 167.827855 507.729614 
L 170.001883 509.723979 
L 172.175912 514.291567 
L 174.349941 521.59174 
L 176.52397 524.263392 
L 178.697999 528.3693 
L 180.872028 531.924472 
L 183.046057 536.864685 
L 185.220086 541.418212 
L 187.394114 542.646235 
L 189.568143 543.496945 
L 191.742172 545.282734 
L 196.09023 546.562315 
L 198.264259 547.766902 
L 200.438288 550.211229 
L 202.612317 553.853113 
L 209.134403 558.819106 
L 213.482461 563.053909 
L 215.65649 564.68971 
L 217.830519 567.291056 
L 220.004548 569.503372 
L 222.178576 570.297837 
L 224.352605 571.373528 
L 226.526634 572.210177 
L 228.700663 572.664827 
L 230.874692 573.672555 
L 233.048721 572.955428 
L 235.22275 573.250715 
L 237.396779 574.00534 
L 239.570808 573.424139 
L 241.744836 573.773328 
L 243.918865 574.595916 
L 246.092894 575.289608 
L 248.266923 576.768391 
L 250.440952 576.96525 
L 252.614981 577.000403 
L 254.78901 577.984696 
L 256.963039 577.987039 
L 259.137067 578.427628 
L 261.311096 579.489258 
L 263.485125 579.447074 
L 265.659154 579.803294 
L 270.007212 580.117331 
L 274.35527 582.05545 
L 276.529298 581.396912 
L 278.703327 581.162556 
L 280.877356 581.502372 
L 283.051385 581.399255 
L 285.225414 581.912494 
L 287.399443 581.959365 
L 289.573472 581.863279 
L 291.747501 582.411671 
L 293.92153 583.187387 
L 296.095558 583.152234 
L 298.269587 583.431117 
L 300.443616 583.11005 
L 302.617645 583.166295 
L 304.791674 582.788983 
L 306.965703 583.372528 
L 313.487789 583.688908 
L 320.009876 583.501424 
L 322.183905 582.301524 
L 324.357934 581.708604 
L 326.531963 580.67744 
L 328.705992 579.868914 
L 330.88002 579.57597 
L 333.054049 579.008829 
L 335.228078 578.891652 
L 337.402107 579.578313 
L 339.576136 579.376767 
L 341.750165 580.386839 
L 343.924194 581.031317 
L 346.098223 581.043035 
L 350.44628 581.624236 
L 352.620309 581.696887 
L 354.794338 582.317929 
L 359.142396 582.458542 
L 363.490454 582.873351 
L 370.01254 583.238946 
L 372.186569 583.217854 
L 374.360598 583.358467 
L 376.534627 583.306909 
L 378.708656 583.414712 
L 380.882685 583.199105 
L 385.230742 582.40464 
L 387.404771 582.512444 
L 396.100887 581.720322 
L 400.448945 580.586042 
L 406.971031 579.871257 
L 409.14506 579.33224 
L 411.319089 578.551836 
L 413.493118 578.422941 
L 415.667147 578.015162 
L 417.841176 578.167493 
L 420.015205 577.771432 
L 422.189233 577.194918 
L 424.363262 577.061335 
L 426.537291 576.726207 
L 428.71132 576.077042 
L 430.885349 575.685669 
L 433.059378 574.947449 
L 435.233407 575.118529 
L 437.407436 574.914639 
L 439.581464 573.778015 
L 441.755493 572.840593 
L 446.103551 571.446178 
L 448.27758 571.28213 
L 450.451609 570.989185 
L 452.625638 569.995518 
L 456.973695 568.715937 
L 459.147724 568.767495 
L 461.321753 567.316835 
L 465.669811 566.597364 
L 467.84384 566.859842 
L 470.017869 566.705167 
L 472.191898 567.173878 
L 474.365927 566.836406 
L 476.539955 568.137079 
L 478.713984 568.130048 
L 483.062042 568.507361 
L 485.236071 569.257298 
L 487.4101 569.716635 
L 491.758158 570.229873 
L 496.106215 569.276047 
L 498.280244 568.617508 
L 500.454273 568.804992 
L 502.628302 567.443387 
L 504.802331 567.370737 
L 506.97636 566.780161 
L 509.150389 566.873903 
L 511.324417 566.609081 
L 513.498446 566.824689 
L 515.672475 565.125611 
L 517.846504 564.417858 
L 520.020533 563.405442 
L 522.194562 561.842291 
L 524.368591 560.9119 
L 526.54262 560.923618 
L 528.716648 559.953386 
L 530.890677 560.262735 
L 533.064706 560.382257 
L 537.412764 559.334688 
L 539.586793 559.182357 
L 543.934851 557.921524 
L 546.10888 557.853561 
L 548.282908 557.009881 
L 550.456937 555.791233 
L 552.630966 555.659994 
L 554.804995 553.623445 
L 556.979024 553.17817 
L 559.153053 551.889215 
L 561.327082 549.475353 
L 563.501111 545.831126 
L 565.675139 541.511954 
L 567.849168 536.454563 
L 570.023197 533.632924 
L 572.197226 531.090167 
L 574.371255 527.614675 
L 576.545284 522.215125 
L 578.719313 516.168754 
L 580.893342 509.564617 
L 583.06737 502.278505 
L 585.241399 497.347666 
L 587.415428 492.993342 
L 589.589457 486.557941 
L 591.763486 480.785765 
L 593.937515 469.89058 
L 596.111544 460.731968 
L 598.285573 444.598937 
L 600.459602 431.50081 
L 604.807659 410.64083 
L 606.981688 393.371176 
L 609.155717 380.512091 
L 611.329746 363.078388 
L 613.503775 352.895643 
L 615.677804 345.862635 
L 617.851833 337.866426 
L 620.025861 328.62579 
L 622.19989 323.352792 
L 624.373919 315.81592 
L 626.547948 309.195378 
L 628.721977 299.024351 
L 630.896006 294.71221 
L 633.070035 291.74527 
L 635.244064 291.792141 
L 637.418092 288.808796 
L 639.592121 284.412288 
L 641.76615 279.64081 
L 643.940179 281.839064 
L 646.114208 279.659559 
L 648.288237 285.609844 
L 652.636295 289.919641 
L 654.810323 288.17838 
L 656.984352 287.929963 
L 659.158381 286.751155 
L 661.33241 289.577482 
L 663.506439 289.48374 
L 665.680468 291.510915 
L 667.854497 288.998624 
L 670.028526 289.797776 
L 672.202555 291.771049 
L 674.376583 294.74502 
L 676.550612 297.393237 
L 678.724641 296.678453 
L 680.89867 296.561275 
L 683.072699 299.75554 
L 685.246728 300.275809 
L 687.420757 298.768904 
L 689.594786 294.965314 
L 691.768814 287.569056 
L 693.942843 284.843502 
L 696.116872 283.788902 
L 698.290901 275.481001 
L 700.46493 271.653976 
L 702.638959 256.594293 
L 704.812988 244.595293 
L 706.987017 238.893425 
L 709.161045 229.448899 
L 711.335074 228.563036 
L 713.509103 212.362042 
L 715.683132 204.759551 
L 717.857161 195.615 
L 720.03119 188.907747 
L 722.205219 182.882468 
L 724.379248 182.223929 
L 726.553277 170.281174 
L 728.727305 177.283716 
L 730.901334 164.928495 
L 733.075363 184.24876 
L 735.249392 223.725939 
L 737.423421 244.855428 
L 739.59745 258.136352 
L 741.771479 273.688181 
L 743.945508 279.03383 
L 746.119536 278.19718 
L 748.293565 284.311515 
L 750.467594 288.447889 
L 752.641623 296.509717 
L 754.815652 299.15559 
L 756.989681 301.487427 
L 759.16371 304.351251 
L 761.337739 318.789891 
L 763.511767 297.873666 
L 765.685796 269.741635 
L 767.859825 254.154653 
L 770.033854 247.991104 
L 772.207883 245.870187 
L 774.381912 249.706586 
L 776.555941 252.582128 
L 778.72997 274.80137 
L 780.903999 288.900195 
L 783.078027 296.127717 
L 785.252056 308.632925 
L 787.426085 311.991239 
L 789.600114 320.488968 
L 791.774143 331.65835 
L 793.948172 342.218407 
L 796.122201 347.517185 
L 798.29623 351.325461 
L 800.470258 352.291005 
L 802.644287 363.908006 
L 806.992345 377.081127 
L 809.166374 386.080377 
L 811.340403 395.679577 
L 815.688461 400.802587 
L 817.862489 401.500967 
L 822.210547 417.519163 
L 824.384576 420.129883 
L 826.558605 424.432649 
L 828.732634 430.469646 
L 830.906663 432.98428 
L 833.080692 439.393902 
L 835.25472 443.220927 
L 837.428749 452.534214 
L 839.602778 459.677368 
L 841.776807 464.671483 
L 843.950836 470.535057 
L 846.124865 470.790505 
L 848.298894 469.672629 
L 850.472923 470.881903 
L 852.646952 470.95221 
L 854.82098 472.702845 
L 856.995009 470.804566 
L 859.169038 467.143934 
L 861.343067 467.277516 
L 863.517096 467.21424 
L 865.691125 466.157297 
L 867.865154 462.262309 
L 870.039183 460.190607 
L 872.213211 458.789161 
L 874.38724 458.28764 
L 876.561269 457.43693 
L 878.735298 457.296317 
L 880.909327 454.924639 
L 883.083356 454.823867 
L 885.257385 453.457574 
L 887.431414 453.938003 
L 889.605442 453.438826 
L 893.9535 452.060816 
L 896.127529 451.763184 
L 898.301558 446.035536 
L 900.475587 440.753164 
L 902.649616 433.448304 
L 904.823645 427.151173 
L 906.997674 423.41789 
L 909.171702 420.540005 
L 911.345731 410.488499 
L 913.51976 403.110989 
L 915.693789 392.218147 
L 917.867818 384.346146 
L 920.041847 377.449065 
L 922.215876 374.859437 
L 924.389905 370.16061 
L 926.563933 364.587637 
L 928.737962 352.5113 
L 930.911991 342.923817 
L 933.08602 332.520778 
L 935.260049 324.451919 
L 939.608107 314.545714 
L 941.782136 311.644393 
L 943.956164 307.793933 
L 946.130193 307.055713 
L 948.304222 312.546662 
L 950.478251 324.217564 
L 952.65228 327.439952 
L 954.826309 333.683181 
L 957.000338 350.964553 
L 959.174367 360.088012 
L 961.348395 351.70746 
L 963.522424 337.721126 
L 965.696453 324.45895 
L 967.870482 313.331752 
L 970.044511 304.1333 
L 972.21854 275.973147 
L 974.392569 254.836627 
L 976.566598 253.976543 
L 978.740627 254.663204 
L 980.914655 251.546277 
L 983.088684 255.783423 
L 985.262713 258.598033 
L 987.436742 251.11975 
L 989.610771 250.904143 
L 991.7848 246.891977 
L 996.132858 248.823066 
L 998.306886 247.721595 
L 1000.480915 244.517956 
L 1002.654944 250.735407 
L 1004.828973 261.942285 
L 1007.003002 269.47447 
L 1009.177031 279.919693 
L 1011.35106 285.738739 
L 1013.525089 292.176484 
L 1015.699117 300.242999 
L 1017.873146 310.078898 
L 1020.047175 316.601011 
L 1022.221204 330.296745 
L 1024.395233 337.913297 
L 1026.569262 346.429775 
L 1028.743291 351.674651 
L 1030.91732 354.976719 
L 1033.091349 362.300328 
L 1035.265377 372.926004 
L 1037.439406 389.680077 
L 1039.613435 407.938711 
L 1041.787464 417.678525 
L 1043.961493 421.217292 
L 1046.135522 425.707543 
L 1048.309551 434.774756 
L 1050.48358 446.7761 
L 1050.48358 446.7761 
" style="fill:none;stroke:#000000;stroke-linecap:square;stroke-width:1.5;"/>
   </g>
   <g id="line2d_55">
    <path clip-path="url(#p178048c257)" d="M 78.69267 588.134631 
L 80.866699 588.823636 
L 83.040728 587.970582 
L 85.214757 588.544753 
L 87.388786 588.33149 
L 89.562815 587.921368 
L 91.736844 586.740216 
L 93.910873 585.083323 
L 96.084901 586.444928 
L 98.25893 587.248768 
L 100.432959 585.116133 
L 102.606988 586.428523 
L 104.781017 584.558367 
L 106.955046 575.847374 
L 109.129075 577.635506 
L 111.303104 576.979311 
L 113.477133 571.893797 
L 115.651161 569.744758 
L 117.82519 570.236904 
L 119.999219 571.910202 
L 122.173248 543.054013 
L 124.347277 540.478447 
L 126.521306 544.628882 
L 128.695335 557.047378 
L 130.869364 522.367456 
L 133.043392 510.851228 
L 135.217421 521.448783 
L 139.565479 494.183867 
L 141.739508 485.751758 
L 143.913537 523.95873 
L 146.087566 511.064492 
L 148.261595 513.295556 
L 150.435623 499.548264 
L 152.609652 488.015632 
L 154.783681 487.720344 
L 156.95771 489.229593 
L 159.131739 491.624706 
L 161.305768 528.683336 
L 163.479797 526.107769 
L 165.653826 523.335344 
L 167.827855 507.406203 
L 170.001883 501.680899 
L 172.175912 521.202709 
L 174.349941 542.725916 
L 176.52397 547.384902 
L 178.697999 554.849124 
L 180.872028 548.221551 
L 183.046057 541.987696 
L 185.220086 533.555586 
L 187.394114 529.798868 
L 189.568143 548.680888 
L 191.742172 559.885423 
L 193.916201 559.721374 
L 196.09023 552.306367 
L 198.264259 550.419806 
L 200.438288 550.665879 
L 202.612317 555.292056 
L 204.786345 560.508809 
L 206.960374 572.303919 
L 209.134403 570.236904 
L 211.308432 567.612123 
L 213.482461 564.757673 
L 215.65649 562.116487 
L 217.830519 573.501476 
L 220.004548 575.995018 
L 222.178576 577.865175 
L 224.352605 577.766745 
L 226.526634 573.468666 
L 228.700663 567.940221 
L 230.874692 569.170587 
L 233.048721 568.481582 
L 235.22275 578.062033 
L 237.396779 583.147547 
L 239.570808 573.698334 
L 241.744836 575.912994 
L 243.918865 573.698334 
L 246.092894 574.026432 
L 248.266923 578.833063 
L 250.440952 579.440043 
L 252.614981 583.39362 
L 254.78901 580.588385 
L 256.963039 575.929398 
L 259.137067 576.782452 
L 261.311096 581.457844 
L 263.485125 578.537775 
L 265.659154 581.933586 
L 267.833183 584.263079 
L 270.007212 581.917181 
L 272.181241 583.065522 
L 274.35527 583.213166 
L 276.529298 576.848072 
L 278.703327 576.897287 
L 280.877356 584.312294 
L 283.051385 583.541264 
L 285.225414 585.50985 
L 287.399443 583.39362 
L 289.573472 582.540566 
L 291.747501 580.686814 
L 298.269587 585.493445 
L 300.443616 583.262381 
L 302.617645 583.787337 
L 304.791674 579.89938 
L 306.965703 584.77163 
L 309.139732 583.295191 
L 311.313761 584.952084 
L 313.487789 585.854353 
L 315.661818 582.803044 
L 317.835847 583.344406 
L 320.009876 579.489258 
L 322.183905 576.37233 
L 324.357934 579.144756 
L 326.531963 577.733936 
L 328.705992 580.194668 
L 330.88002 580.752434 
L 333.054049 579.374424 
L 335.228078 578.669014 
L 337.402107 581.178961 
L 339.576136 577.733936 
L 341.750165 584.80444 
L 343.924194 584.706011 
L 346.098223 580.834458 
L 348.272251 581.359415 
L 350.44628 580.752434 
L 352.620309 581.687512 
L 354.794338 582.08123 
L 356.968367 585.083323 
L 359.142396 585.411421 
L 361.316425 582.606186 
L 363.490454 582.491352 
L 365.664483 581.753132 
L 367.838511 582.524161 
L 370.01254 582.803044 
L 372.186569 584.935679 
L 374.360598 586.395714 
L 376.534627 582.245278 
L 378.708656 583.245976 
L 380.882685 580.243883 
L 383.056714 579.440043 
L 385.230742 580.325907 
L 387.404771 585.690304 
L 389.5788 584.919274 
L 391.752829 580.440741 
L 393.926858 581.556273 
L 396.100887 579.669712 
L 398.274916 575.634111 
L 400.448945 576.191877 
L 402.622973 584.000601 
L 404.797002 583.42643 
L 406.971031 578.619799 
L 409.14506 577.78315 
L 411.319089 574.206886 
L 413.493118 574.731842 
L 415.667147 573.337427 
L 417.841176 585.066918 
L 420.015205 580.654005 
L 422.189233 574.584198 
L 424.363262 576.848072 
L 426.537291 571.860988 
L 428.71132 570.187689 
L 430.885349 570.597812 
L 433.059378 579.89938 
L 435.233407 581.851561 
L 437.407436 573.156973 
L 439.581464 568.891704 
L 441.755493 565.299034 
L 443.929522 565.233415 
L 446.103551 565.791181 
L 448.27758 578.751038 
L 450.451609 579.800951 
L 452.625638 566.201303 
L 454.799667 564.232717 
L 456.973695 561.000955 
L 459.147724 565.594322 
L 461.321753 555.636558 
L 463.495782 576.175472 
L 465.669811 577.340218 
L 467.84384 568.03865 
L 470.017869 563.149995 
L 472.191898 564.281932 
L 474.365927 563.232019 
L 476.539955 564.741268 
L 478.713984 576.126257 
L 480.888013 578.997112 
L 483.062042 569.022943 
L 485.236071 568.399557 
L 487.4101 567.497289 
L 489.584129 565.167795 
L 491.758158 566.398162 
L 493.932186 572.796066 
L 496.106215 575.650515 
L 498.280244 564.413171 
L 500.454273 569.711948 
L 502.628302 557.966052 
L 504.802331 564.659244 
L 506.97636 562.264131 
L 509.150389 573.452261 
L 511.324417 573.796764 
L 515.672475 557.818408 
L 517.846504 553.011777 
L 520.020533 557.572335 
L 522.194562 551.322074 
L 524.368591 566.939523 
L 526.54262 573.878788 
L 528.716648 559.130798 
L 530.890677 559.983852 
L 533.064706 553.848426 
L 535.238735 553.684377 
L 537.412764 547.877049 
L 539.586793 565.873205 
L 541.760822 569.44947 
L 543.934851 554.73429 
L 546.10888 559.508111 
L 548.282908 547.942668 
L 550.456937 545.153838 
L 552.630966 546.958375 
L 554.804995 551.617362 
L 556.979024 566.332542 
L 559.153053 545.711604 
L 561.327082 542.611082 
L 563.501111 522.433076 
L 565.675139 514.919639 
L 567.849168 511.556638 
L 570.023197 531.865883 
L 572.197226 548.533244 
L 574.371255 521.383163 
L 576.545284 504.814232 
L 578.719313 480.108478 
L 580.893342 468.69068 
L 583.06737 460.553858 
L 585.241399 497.35001 
L 587.415428 518.052972 
L 589.589457 476.335355 
L 591.763486 464.409005 
L 593.937515 403.842178 
L 596.111544 404.580398 
L 598.285573 347.622645 
L 600.459602 405.66312 
L 602.63363 446.527683 
L 604.807659 401.840782 
L 606.981688 343.521424 
L 609.155717 313.828586 
L 611.329746 282.544474 
L 613.503775 276.343429 
L 615.677804 356.432067 
L 617.851833 390.554223 
L 620.025861 337.156329 
L 622.19989 306.610438 
L 624.373919 261.070483 
L 626.547948 236.200681 
L 628.721977 205.146237 
L 630.896006 326.247082 
L 633.070035 369.785641 
L 635.244064 337.484427 
L 637.418092 285.727022 
L 639.592121 230.294923 
L 641.76615 202.800339 
L 643.940179 220.534017 
L 646.114208 310.990541 
L 648.288237 411.437639 
L 650.462266 352.462085 
L 652.636295 300.917943 
L 654.810323 218.106095 
L 656.984352 201.061422 
L 659.158381 212.282361 
L 661.33241 330.77483 
L 663.506439 410.781443 
L 665.680468 366.652309 
L 667.854497 283.331909 
L 670.028526 223.70016 
L 672.202555 214.874333 
L 674.376583 233.100158 
L 676.550612 349.312347 
L 678.724641 405.777954 
L 680.89867 365.832064 
L 683.072699 305.691764 
L 685.246728 227.342044 
L 687.420757 204.325993 
L 689.594786 206.475033 
L 693.942843 386.699075 
L 696.116872 358.449867 
L 698.290901 247.536455 
L 700.46493 200.55287 
L 702.638959 98.908216 
L 704.812988 122.482033 
L 706.987017 257.625457 
L 709.161045 320.587398 
L 711.335074 352.248821 
L 713.509103 134.1295 
L 715.683132 147.33543 
L 717.857161 34.896364 
L 720.03119 75.531258 
L 722.205219 215.448504 
L 724.379248 315.977626 
L 726.553277 268.649539 
L 728.727305 183.14729 
L 730.901334 60.848888 
L 733.075363 170.138217 
L 735.249392 351.871509 
L 737.423421 363.354927 
L 739.59745 408.944096 
L 741.771479 377.512341 
L 743.945508 220.566827 
L 746.119536 54.992345 
L 748.293565 212.938557 
L 750.467594 380.826127 
L 752.641623 419.787724 
L 754.815652 427.465209 
L 756.989681 393.835199 
L 759.16371 240.613594 
L 761.337739 156.062828 
L 763.511767 66.524978 
L 765.685796 183.901914 
L 767.859825 310.678848 
L 770.033854 384.320367 
L 772.207883 378.98878 
L 774.381912 267.468387 
L 776.555941 176.191619 
L 778.72997 222.059672 
L 780.903999 282.593689 
L 783.078027 361.271507 
L 785.252056 471.856822 
L 787.426085 402.496977 
L 791.774143 254.377291 
L 793.948172 295.980073 
L 796.122201 319.685129 
L 798.29623 387.929442 
L 800.470258 478.615634 
L 802.644287 483.815982 
L 804.818316 372.426827 
L 806.992345 301.114802 
L 809.166374 358.974823 
L 811.340403 386.879529 
L 813.514432 405.400642 
L 815.688461 497.005507 
L 817.862489 488.704637 
L 820.036518 429.794702 
L 822.210547 355.874301 
L 824.384576 377.249863 
L 826.558605 416.998894 
L 828.732634 447.65962 
L 830.906663 514.607947 
L 833.080692 533.571991 
L 835.25472 456.583876 
L 837.428749 421.067305 
L 839.602778 427.251946 
L 841.776807 451.957699 
L 843.950836 488.704637 
L 846.124865 516.396079 
L 848.298894 525.746862 
L 850.472923 465.048796 
L 852.646952 421.559451 
L 854.82098 439.506393 
L 856.995009 438.669744 
L 859.169038 463.08021 
L 861.343067 517.331157 
L 863.517096 525.30393 
L 865.691125 457.650193 
L 867.865154 394.294536 
L 870.039183 425.004477 
L 872.213211 428.859624 
L 874.38724 459.569565 
L 876.561269 511.376185 
L 878.735298 524.319637 
L 880.909327 441.048452 
L 883.083356 393.589126 
L 885.257385 415.44043 
L 887.431414 432.222625 
L 889.605442 456.075325 
L 891.779471 506.799222 
L 893.9535 519.250528 
L 896.127529 438.965032 
L 898.301558 353.495593 
L 900.475587 378.463824 
L 902.649616 381.088605 
L 904.823645 411.995405 
L 906.997674 480.666244 
L 909.171702 499.105332 
L 911.345731 368.60449 
L 913.51976 301.853021 
L 915.693789 302.213929 
L 917.867818 325.984604 
L 920.041847 363.715835 
L 922.215876 462.538849 
L 924.389905 466.213542 
L 926.563933 329.593678 
L 928.737962 217.31866 
L 933.08602 253.163329 
L 935.260049 307.233823 
L 937.434078 427.055087 
L 939.608107 432.353864 
L 943.956164 190.365438 
L 946.130193 229.934015 
L 948.304222 291.59997 
L 950.478251 388.930139 
L 952.65228 449.611801 
L 954.826309 476.056472 
L 957.000338 430.254039 
L 959.174367 254.229647 
L 961.348395 171.270154 
L 963.522424 193.695629 
L 965.696453 296.094908 
L 967.870482 371.721417 
L 970.044511 411.667307 
L 972.21854 233.132967 
L 974.392569 106.274009 
L 976.566598 165.249562 
L 978.740627 198.50226 
L 980.914655 274.276413 
L 983.088684 401.381445 
L 985.262713 431.369571 
L 987.436742 180.784986 
L 989.610771 104.764759 
L 991.7848 137.164403 
L 993.958829 205.261072 
L 996.132858 281.035225 
L 998.306886 393.671151 
L 1000.480915 408.944096 
L 1002.654944 224.30714 
L 1004.828973 183.212909 
L 1007.003002 189.889696 
L 1009.177031 278.377634 
L 1011.35106 321.768549 
L 1013.525089 438.735364 
L 1015.699117 465.409703 
L 1017.873146 293.158434 
L 1020.047175 228.867698 
L 1022.221204 285.759831 
L 1024.395233 331.693503 
L 1026.569262 381.383893 
L 1028.743291 475.449491 
L 1030.91732 488.524183 
L 1033.091349 344.423692 
L 1035.265377 303.247437 
L 1037.439406 403.038339 
L 1039.613435 459.503945 
L 1041.787464 449.562586 
L 1043.961493 500.220864 
L 1046.135522 519.955938 
L 1048.309551 407.894184 
L 1050.48358 387.256841 
L 1050.48358 387.256841 
" style="fill:none;stroke:#000000;stroke-dasharray:1.5,2.475;stroke-dashoffset:0;stroke-width:1.5;"/>
   </g>
   <g id="patch_7">
    <path d="M 30.103125 616.52 
L 30.103125 7.2 
" style="fill:none;stroke:#ffffff;stroke-linecap:square;stroke-linejoin:miter;"/>
   </g>
   <g id="patch_8">
    <path d="M 1099.073125 616.52 
L 1099.073125 7.2 
" style="fill:none;stroke:#ffffff;stroke-linecap:square;stroke-linejoin:miter;"/>
   </g>
   <g id="patch_9">
    <path d="M 30.103125 616.52 
L 1099.073125 616.52 
" style="fill:none;stroke:#ffffff;stroke-linecap:square;stroke-linejoin:miter;"/>
   </g>
   <g id="patch_10">
    <path d="M 30.103125 7.2 
L 1099.073125 7.2 
" style="fill:none;stroke:#ffffff;stroke-linecap:square;stroke-linejoin:miter;"/>
   </g>
   <g id="legend_1">
    <g id="patch_11">
     <path d="M 934.877812 103.26875 
L 1092.073125 103.26875 
Q 1094.073125 103.26875 1094.073125 101.26875 
L 1094.073125 14.2 
Q 1094.073125 12.2 1092.073125 12.2 
L 934.877812 12.2 
Q 932.877812 12.2 932.877812 14.2 
L 932.877812 101.26875 
Q 932.877812 103.26875 934.877812 103.26875 
z
" style="fill:#e5e5e5;opacity:0.8;stroke:#cccccc;stroke-linejoin:miter;stroke-width:0.5;"/>
    </g>
    <g id="line2d_56">
     <path d="M 936.877812 20.298437 
L 956.877812 20.298437 
" style="fill:none;stroke:#e24a33;stroke-linecap:square;stroke-width:1.5;"/>
    </g>
    <g id="line2d_57"/>
    <g id="text_25">
     <!-- Logistic rate rolling week -->
     <g transform="translate(964.877812 23.798437)scale(0.1 -0.1)">
      <defs>
       <path d="M 628 4666 
L 1259 4666 
L 1259 531 
L 3531 531 
L 3531 0 
L 628 0 
L 628 4666 
z
" id="DejaVuSans-4c" transform="scale(0.015625)"/>
       <path d="M 1959 3097 
Q 1497 3097 1228 2736 
Q 959 2375 959 1747 
Q 959 1119 1226 758 
Q 1494 397 1959 397 
Q 2419 397 2687 759 
Q 2956 1122 2956 1747 
Q 2956 2369 2687 2733 
Q 2419 3097 1959 3097 
z
M 1959 3584 
Q 2709 3584 3137 3096 
Q 3566 2609 3566 1747 
Q 3566 888 3137 398 
Q 2709 -91 1959 -91 
Q 1206 -91 779 398 
Q 353 888 353 1747 
Q 353 2609 779 3096 
Q 1206 3584 1959 3584 
z
" id="DejaVuSans-6f" transform="scale(0.015625)"/>
       <path d="M 2906 1791 
Q 2906 2416 2648 2759 
Q 2391 3103 1925 3103 
Q 1463 3103 1205 2759 
Q 947 2416 947 1791 
Q 947 1169 1205 825 
Q 1463 481 1925 481 
Q 2391 481 2648 825 
Q 2906 1169 2906 1791 
z
M 3481 434 
Q 3481 -459 3084 -895 
Q 2688 -1331 1869 -1331 
Q 1566 -1331 1297 -1286 
Q 1028 -1241 775 -1147 
L 775 -588 
Q 1028 -725 1275 -790 
Q 1522 -856 1778 -856 
Q 2344 -856 2625 -561 
Q 2906 -266 2906 331 
L 2906 616 
Q 2728 306 2450 153 
Q 2172 0 1784 0 
Q 1141 0 747 490 
Q 353 981 353 1791 
Q 353 2603 747 3093 
Q 1141 3584 1784 3584 
Q 2172 3584 2450 3431 
Q 2728 3278 2906 2969 
L 2906 3500 
L 3481 3500 
L 3481 434 
z
" id="DejaVuSans-67" transform="scale(0.015625)"/>
       <path d="M 603 3500 
L 1178 3500 
L 1178 0 
L 603 0 
L 603 3500 
z
M 603 4863 
L 1178 4863 
L 1178 4134 
L 603 4134 
L 603 4863 
z
" id="DejaVuSans-69" transform="scale(0.015625)"/>
       <path d="M 2834 3397 
L 2834 2853 
Q 2591 2978 2328 3040 
Q 2066 3103 1784 3103 
Q 1356 3103 1142 2972 
Q 928 2841 928 2578 
Q 928 2378 1081 2264 
Q 1234 2150 1697 2047 
L 1894 2003 
Q 2506 1872 2764 1633 
Q 3022 1394 3022 966 
Q 3022 478 2636 193 
Q 2250 -91 1575 -91 
Q 1294 -91 989 -36 
Q 684 19 347 128 
L 347 722 
Q 666 556 975 473 
Q 1284 391 1588 391 
Q 1994 391 2212 530 
Q 2431 669 2431 922 
Q 2431 1156 2273 1281 
Q 2116 1406 1581 1522 
L 1381 1569 
Q 847 1681 609 1914 
Q 372 2147 372 2553 
Q 372 3047 722 3315 
Q 1072 3584 1716 3584 
Q 2034 3584 2315 3537 
Q 2597 3491 2834 3397 
z
" id="DejaVuSans-73" transform="scale(0.015625)"/>
       <path d="M 1172 4494 
L 1172 3500 
L 2356 3500 
L 2356 3053 
L 1172 3053 
L 1172 1153 
Q 1172 725 1289 603 
Q 1406 481 1766 481 
L 2356 481 
L 2356 0 
L 1766 0 
Q 1100 0 847 248 
Q 594 497 594 1153 
L 594 3053 
L 172 3053 
L 172 3500 
L 594 3500 
L 594 4494 
L 1172 4494 
z
" id="DejaVuSans-74" transform="scale(0.015625)"/>
       <path d="M 3122 3366 
L 3122 2828 
Q 2878 2963 2633 3030 
Q 2388 3097 2138 3097 
Q 1578 3097 1268 2742 
Q 959 2388 959 1747 
Q 959 1106 1268 751 
Q 1578 397 2138 397 
Q 2388 397 2633 464 
Q 2878 531 3122 666 
L 3122 134 
Q 2881 22 2623 -34 
Q 2366 -91 2075 -91 
Q 1284 -91 818 406 
Q 353 903 353 1747 
Q 353 2603 823 3093 
Q 1294 3584 2113 3584 
Q 2378 3584 2631 3529 
Q 2884 3475 3122 3366 
z
" id="DejaVuSans-63" transform="scale(0.015625)"/>
       <path id="DejaVuSans-20" transform="scale(0.015625)"/>
       <path d="M 2631 2963 
Q 2534 3019 2420 3045 
Q 2306 3072 2169 3072 
Q 1681 3072 1420 2755 
Q 1159 2438 1159 1844 
L 1159 0 
L 581 0 
L 581 3500 
L 1159 3500 
L 1159 2956 
Q 1341 3275 1631 3429 
Q 1922 3584 2338 3584 
Q 2397 3584 2469 3576 
Q 2541 3569 2628 3553 
L 2631 2963 
z
" id="DejaVuSans-72" transform="scale(0.015625)"/>
       <path d="M 2194 1759 
Q 1497 1759 1228 1600 
Q 959 1441 959 1056 
Q 959 750 1161 570 
Q 1363 391 1709 391 
Q 2188 391 2477 730 
Q 2766 1069 2766 1631 
L 2766 1759 
L 2194 1759 
z
M 3341 1997 
L 3341 0 
L 2766 0 
L 2766 531 
Q 2569 213 2275 61 
Q 1981 -91 1556 -91 
Q 1019 -91 701 211 
Q 384 513 384 1019 
Q 384 1609 779 1909 
Q 1175 2209 1959 2209 
L 2766 2209 
L 2766 2266 
Q 2766 2663 2505 2880 
Q 2244 3097 1772 3097 
Q 1472 3097 1187 3025 
Q 903 2953 641 2809 
L 641 3341 
Q 956 3463 1253 3523 
Q 1550 3584 1831 3584 
Q 2591 3584 2966 3190 
Q 3341 2797 3341 1997 
z
" id="DejaVuSans-61" transform="scale(0.015625)"/>
       <path d="M 3597 1894 
L 3597 1613 
L 953 1613 
Q 991 1019 1311 708 
Q 1631 397 2203 397 
Q 2534 397 2845 478 
Q 3156 559 3463 722 
L 3463 178 
Q 3153 47 2828 -22 
Q 2503 -91 2169 -91 
Q 1331 -91 842 396 
Q 353 884 353 1716 
Q 353 2575 817 3079 
Q 1281 3584 2069 3584 
Q 2775 3584 3186 3129 
Q 3597 2675 3597 1894 
z
M 3022 2063 
Q 3016 2534 2758 2815 
Q 2500 3097 2075 3097 
Q 1594 3097 1305 2825 
Q 1016 2553 972 2059 
L 3022 2063 
z
" id="DejaVuSans-65" transform="scale(0.015625)"/>
       <path d="M 603 4863 
L 1178 4863 
L 1178 0 
L 603 0 
L 603 4863 
z
" id="DejaVuSans-6c" transform="scale(0.015625)"/>
       <path d="M 3513 2113 
L 3513 0 
L 2938 0 
L 2938 2094 
Q 2938 2591 2744 2837 
Q 2550 3084 2163 3084 
Q 1697 3084 1428 2787 
Q 1159 2491 1159 1978 
L 1159 0 
L 581 0 
L 581 3500 
L 1159 3500 
L 1159 2956 
Q 1366 3272 1645 3428 
Q 1925 3584 2291 3584 
Q 2894 3584 3203 3211 
Q 3513 2838 3513 2113 
z
" id="DejaVuSans-6e" transform="scale(0.015625)"/>
       <path d="M 269 3500 
L 844 3500 
L 1563 769 
L 2278 3500 
L 2956 3500 
L 3675 769 
L 4391 3500 
L 4966 3500 
L 4050 0 
L 3372 0 
L 2619 2869 
L 1863 0 
L 1184 0 
L 269 3500 
z
" id="DejaVuSans-77" transform="scale(0.015625)"/>
       <path d="M 581 4863 
L 1159 4863 
L 1159 1991 
L 2875 3500 
L 3609 3500 
L 1753 1863 
L 3688 0 
L 2938 0 
L 1159 1709 
L 1159 0 
L 581 0 
L 581 4863 
z
" id="DejaVuSans-6b" transform="scale(0.015625)"/>
      </defs>
      <use xlink:href="#DejaVuSans-4c"/>
      <use x="53.962891" xlink:href="#DejaVuSans-6f"/>
      <use x="115.144531" xlink:href="#DejaVuSans-67"/>
      <use x="178.621094" xlink:href="#DejaVuSans-69"/>
      <use x="206.404297" xlink:href="#DejaVuSans-73"/>
      <use x="258.503906" xlink:href="#DejaVuSans-74"/>
      <use x="297.712891" xlink:href="#DejaVuSans-69"/>
      <use x="325.496094" xlink:href="#DejaVuSans-63"/>
      <use x="380.476562" xlink:href="#DejaVuSans-20"/>
      <use x="412.263672" xlink:href="#DejaVuSans-72"/>
      <use x="453.376953" xlink:href="#DejaVuSans-61"/>
      <use x="514.65625" xlink:href="#DejaVuSans-74"/>
      <use x="553.865234" xlink:href="#DejaVuSans-65"/>
      <use x="615.388672" xlink:href="#DejaVuSans-20"/>
      <use x="647.175781" xlink:href="#DejaVuSans-72"/>
      <use x="686.039062" xlink:href="#DejaVuSans-6f"/>
      <use x="747.220703" xlink:href="#DejaVuSans-6c"/>
      <use x="775.003906" xlink:href="#DejaVuSans-6c"/>
      <use x="802.787109" xlink:href="#DejaVuSans-69"/>
      <use x="830.570312" xlink:href="#DejaVuSans-6e"/>
      <use x="893.949219" xlink:href="#DejaVuSans-67"/>
      <use x="957.425781" xlink:href="#DejaVuSans-20"/>
      <use x="989.212891" xlink:href="#DejaVuSans-77"/>
      <use x="1071" xlink:href="#DejaVuSans-65"/>
      <use x="1132.523438" xlink:href="#DejaVuSans-65"/>
      <use x="1194.046875" xlink:href="#DejaVuSans-6b"/>
     </g>
    </g>
    <g id="line2d_58">
     <path d="M 936.877812 34.976562 
L 956.877812 34.976562 
" style="fill:none;stroke:#e24a33;stroke-dasharray:1.5,2.475;stroke-dashoffset:0;stroke-width:1.5;"/>
    </g>
    <g id="line2d_59"/>
    <g id="text_26">
     <!-- Logistic rate -->
     <g transform="translate(964.877812 38.476562)scale(0.1 -0.1)">
      <use xlink:href="#DejaVuSans-4c"/>
      <use x="53.962891" xlink:href="#DejaVuSans-6f"/>
      <use x="115.144531" xlink:href="#DejaVuSans-67"/>
      <use x="178.621094" xlink:href="#DejaVuSans-69"/>
      <use x="206.404297" xlink:href="#DejaVuSans-73"/>
      <use x="258.503906" xlink:href="#DejaVuSans-74"/>
      <use x="297.712891" xlink:href="#DejaVuSans-69"/>
      <use x="325.496094" xlink:href="#DejaVuSans-63"/>
      <use x="380.476562" xlink:href="#DejaVuSans-20"/>
      <use x="412.263672" xlink:href="#DejaVuSans-72"/>
      <use x="453.376953" xlink:href="#DejaVuSans-61"/>
      <use x="514.65625" xlink:href="#DejaVuSans-74"/>
      <use x="553.865234" xlink:href="#DejaVuSans-65"/>
     </g>
    </g>
    <g id="line2d_60">
     <path d="M 936.877812 49.654687 
L 956.877812 49.654687 
" style="fill:none;stroke:#348abd;stroke-linecap:square;stroke-width:1.5;"/>
    </g>
    <g id="line2d_61"/>
    <g id="text_27">
     <!-- RKI rate rolling week -->
     <g transform="translate(964.877812 53.154687)scale(0.1 -0.1)">
      <defs>
       <path d="M 2841 2188 
Q 3044 2119 3236 1894 
Q 3428 1669 3622 1275 
L 4263 0 
L 3584 0 
L 2988 1197 
Q 2756 1666 2539 1819 
Q 2322 1972 1947 1972 
L 1259 1972 
L 1259 0 
L 628 0 
L 628 4666 
L 2053 4666 
Q 2853 4666 3247 4331 
Q 3641 3997 3641 3322 
Q 3641 2881 3436 2590 
Q 3231 2300 2841 2188 
z
M 1259 4147 
L 1259 2491 
L 2053 2491 
Q 2509 2491 2742 2702 
Q 2975 2913 2975 3322 
Q 2975 3731 2742 3939 
Q 2509 4147 2053 4147 
L 1259 4147 
z
" id="DejaVuSans-52" transform="scale(0.015625)"/>
       <path d="M 628 4666 
L 1259 4666 
L 1259 2694 
L 3353 4666 
L 4166 4666 
L 1850 2491 
L 4331 0 
L 3500 0 
L 1259 2247 
L 1259 0 
L 628 0 
L 628 4666 
z
" id="DejaVuSans-4b" transform="scale(0.015625)"/>
       <path d="M 628 4666 
L 1259 4666 
L 1259 0 
L 628 0 
L 628 4666 
z
" id="DejaVuSans-49" transform="scale(0.015625)"/>
      </defs>
      <use xlink:href="#DejaVuSans-52"/>
      <use x="69.482422" xlink:href="#DejaVuSans-4b"/>
      <use x="135.058594" xlink:href="#DejaVuSans-49"/>
      <use x="164.550781" xlink:href="#DejaVuSans-20"/>
      <use x="196.337891" xlink:href="#DejaVuSans-72"/>
      <use x="237.451172" xlink:href="#DejaVuSans-61"/>
      <use x="298.730469" xlink:href="#DejaVuSans-74"/>
      <use x="337.939453" xlink:href="#DejaVuSans-65"/>
      <use x="399.462891" xlink:href="#DejaVuSans-20"/>
      <use x="431.25" xlink:href="#DejaVuSans-72"/>
      <use x="470.113281" xlink:href="#DejaVuSans-6f"/>
      <use x="531.294922" xlink:href="#DejaVuSans-6c"/>
      <use x="559.078125" xlink:href="#DejaVuSans-6c"/>
      <use x="586.861328" xlink:href="#DejaVuSans-69"/>
      <use x="614.644531" xlink:href="#DejaVuSans-6e"/>
      <use x="678.023438" xlink:href="#DejaVuSans-67"/>
      <use x="741.5" xlink:href="#DejaVuSans-20"/>
      <use x="773.287109" xlink:href="#DejaVuSans-77"/>
      <use x="855.074219" xlink:href="#DejaVuSans-65"/>
      <use x="916.597656" xlink:href="#DejaVuSans-65"/>
      <use x="978.121094" xlink:href="#DejaVuSans-6b"/>
     </g>
    </g>
    <g id="line2d_62">
     <path d="M 936.877812 64.332812 
L 956.877812 64.332812 
" style="fill:none;stroke:#348abd;stroke-dasharray:1.5,2.475;stroke-dashoffset:0;stroke-width:1.5;"/>
    </g>
    <g id="line2d_63"/>
    <g id="text_28">
     <!-- RKI rate -->
     <g transform="translate(964.877812 67.832812)scale(0.1 -0.1)">
      <use xlink:href="#DejaVuSans-52"/>
      <use x="69.482422" xlink:href="#DejaVuSans-4b"/>
      <use x="135.058594" xlink:href="#DejaVuSans-49"/>
      <use x="164.550781" xlink:href="#DejaVuSans-20"/>
      <use x="196.337891" xlink:href="#DejaVuSans-72"/>
      <use x="237.451172" xlink:href="#DejaVuSans-61"/>
      <use x="298.730469" xlink:href="#DejaVuSans-74"/>
      <use x="337.939453" xlink:href="#DejaVuSans-65"/>
     </g>
    </g>
    <g id="line2d_64">
     <path d="M 936.877812 79.010937 
L 956.877812 79.010937 
" style="fill:none;stroke:#000000;stroke-linecap:square;stroke-width:1.5;"/>
    </g>
    <g id="line2d_65"/>
    <g id="text_29">
     <!-- New Cases rolling week -->
     <g transform="translate(964.877812 82.510937)scale(0.1 -0.1)">
      <defs>
       <path d="M 628 4666 
L 1478 4666 
L 3547 763 
L 3547 4666 
L 4159 4666 
L 4159 0 
L 3309 0 
L 1241 3903 
L 1241 0 
L 628 0 
L 628 4666 
z
" id="DejaVuSans-4e" transform="scale(0.015625)"/>
       <path d="M 4122 4306 
L 4122 3641 
Q 3803 3938 3442 4084 
Q 3081 4231 2675 4231 
Q 1875 4231 1450 3742 
Q 1025 3253 1025 2328 
Q 1025 1406 1450 917 
Q 1875 428 2675 428 
Q 3081 428 3442 575 
Q 3803 722 4122 1019 
L 4122 359 
Q 3791 134 3420 21 
Q 3050 -91 2638 -91 
Q 1578 -91 968 557 
Q 359 1206 359 2328 
Q 359 3453 968 4101 
Q 1578 4750 2638 4750 
Q 3056 4750 3426 4639 
Q 3797 4528 4122 4306 
z
" id="DejaVuSans-43" transform="scale(0.015625)"/>
      </defs>
      <use xlink:href="#DejaVuSans-4e"/>
      <use x="74.804688" xlink:href="#DejaVuSans-65"/>
      <use x="136.328125" xlink:href="#DejaVuSans-77"/>
      <use x="218.115234" xlink:href="#DejaVuSans-20"/>
      <use x="249.902344" xlink:href="#DejaVuSans-43"/>
      <use x="319.726562" xlink:href="#DejaVuSans-61"/>
      <use x="381.005859" xlink:href="#DejaVuSans-73"/>
      <use x="433.105469" xlink:href="#DejaVuSans-65"/>
      <use x="494.628906" xlink:href="#DejaVuSans-73"/>
      <use x="546.728516" xlink:href="#DejaVuSans-20"/>
      <use x="578.515625" xlink:href="#DejaVuSans-72"/>
      <use x="617.378906" xlink:href="#DejaVuSans-6f"/>
      <use x="678.560547" xlink:href="#DejaVuSans-6c"/>
      <use x="706.34375" xlink:href="#DejaVuSans-6c"/>
      <use x="734.126953" xlink:href="#DejaVuSans-69"/>
      <use x="761.910156" xlink:href="#DejaVuSans-6e"/>
      <use x="825.289062" xlink:href="#DejaVuSans-67"/>
      <use x="888.765625" xlink:href="#DejaVuSans-20"/>
      <use x="920.552734" xlink:href="#DejaVuSans-77"/>
      <use x="1002.339844" xlink:href="#DejaVuSans-65"/>
      <use x="1063.863281" xlink:href="#DejaVuSans-65"/>
      <use x="1125.386719" xlink:href="#DejaVuSans-6b"/>
     </g>
    </g>
    <g id="line2d_66">
     <path d="M 936.877812 93.689062 
L 956.877812 93.689062 
" style="fill:none;stroke:#000000;stroke-dasharray:1.5,2.475;stroke-dashoffset:0;stroke-width:1.5;"/>
    </g>
    <g id="line2d_67"/>
    <g id="text_30">
     <!-- New Cases -->
     <g transform="translate(964.877812 97.189062)scale(0.1 -0.1)">
      <use xlink:href="#DejaVuSans-4e"/>
      <use x="74.804688" xlink:href="#DejaVuSans-65"/>
      <use x="136.328125" xlink:href="#DejaVuSans-77"/>
      <use x="218.115234" xlink:href="#DejaVuSans-20"/>
      <use x="249.902344" xlink:href="#DejaVuSans-43"/>
      <use x="319.726562" xlink:href="#DejaVuSans-61"/>
      <use x="381.005859" xlink:href="#DejaVuSans-73"/>
      <use x="433.105469" xlink:href="#DejaVuSans-65"/>
      <use x="494.628906" xlink:href="#DejaVuSans-73"/>
     </g>
    </g>
   </g>
  </g>
 </g>
 <defs>
  <clipPath id="p178048c257">
   <rect height="609.32" width="1068.97" x="30.103125" y="7.2"/>
  </clipPath>
 </defs>
</svg>
