<?xml version="1.0" encoding="utf-8" standalone="no"?>
<!DOCTYPE svg PUBLIC "-//W3C//DTD SVG 1.1//EN"
  "http://www.w3.org/Graphics/SVG/1.1/DTD/svg11.dtd">
<!-- Created with matplotlib (https://matplotlib.org/) -->
<svg height="640.398125pt" version="1.1" viewBox="0 0 1145.085625 640.398125" width="1145.085625pt" xmlns="http://www.w3.org/2000/svg" xmlns:xlink="http://www.w3.org/1999/xlink">
 <metadata>
  <rdf:RDF xmlns:cc="http://creativecommons.org/ns#" xmlns:dc="http://purl.org/dc/elements/1.1/" xmlns:rdf="http://www.w3.org/1999/02/22-rdf-syntax-ns#">
   <cc:Work>
    <dc:type rdf:resource="http://purl.org/dc/dcmitype/StillImage"/>
    <dc:date>2021-02-10T09:01:31.842486</dc:date>
    <dc:format>image/svg+xml</dc:format>
    <dc:creator>
     <cc:Agent>
      <dc:title>Matplotlib v3.3.2, https://matplotlib.org/</dc:title>
     </cc:Agent>
    </dc:creator>
   </cc:Work>
  </rdf:RDF>
 </metadata>
 <defs>
  <style type="text/css">*{stroke-linecap:butt;stroke-linejoin:round;}</style>
 </defs>
 <g id="figure_1">
  <g id="patch_1">
   <path d="M 0 640.398125 
L 1145.085625 640.398125 
L 1145.085625 0 
L 0 0 
z
" style="fill:#ffffff;"/>
  </g>
  <g id="axes_1">
   <g id="patch_2">
    <path d="M 30.103125 616.52 
L 1099.073125 616.52 
L 1099.073125 7.2 
L 30.103125 7.2 
z
" style="fill:#e5e5e5;"/>
   </g>
   <g id="matplotlib.axis_1">
    <g id="xtick_1">
     <g id="line2d_1">
      <path clip-path="url(#p10c6188e07)" d="M 84.277676 616.52 
L 84.277676 7.2 
" style="fill:none;stroke:#ffffff;stroke-linecap:square;stroke-width:0.8;"/>
     </g>
     <g id="line2d_2">
      <defs>
       <path d="M 0 0 
L 0 3.5 
" id="me714cf1b8f" style="stroke:#555555;stroke-width:0.8;"/>
      </defs>
      <g>
       <use style="fill:#555555;stroke:#555555;stroke-width:0.8;" x="84.277676" xlink:href="#me714cf1b8f" y="616.52"/>
      </g>
     </g>
     <g id="text_1">
      <!-- 2020-03 -->
      <g style="fill:#555555;" transform="translate(63.386269 631.118437)scale(0.1 -0.1)">
       <defs>
        <path d="M 19.1875 8.296875 
L 53.609375 8.296875 
L 53.609375 0 
L 7.328125 0 
L 7.328125 8.296875 
Q 12.9375 14.109375 22.625 23.890625 
Q 32.328125 33.6875 34.8125 36.53125 
Q 39.546875 41.84375 41.421875 45.53125 
Q 43.3125 49.21875 43.3125 52.78125 
Q 43.3125 58.59375 39.234375 62.25 
Q 35.15625 65.921875 28.609375 65.921875 
Q 23.96875 65.921875 18.8125 64.3125 
Q 13.671875 62.703125 7.8125 59.421875 
L 7.8125 69.390625 
Q 13.765625 71.78125 18.9375 73 
Q 24.125 74.21875 28.421875 74.21875 
Q 39.75 74.21875 46.484375 68.546875 
Q 53.21875 62.890625 53.21875 53.421875 
Q 53.21875 48.921875 51.53125 44.890625 
Q 49.859375 40.875 45.40625 35.40625 
Q 44.1875 33.984375 37.640625 27.21875 
Q 31.109375 20.453125 19.1875 8.296875 
z
" id="DejaVuSans-50"/>
        <path d="M 31.78125 66.40625 
Q 24.171875 66.40625 20.328125 58.90625 
Q 16.5 51.421875 16.5 36.375 
Q 16.5 21.390625 20.328125 13.890625 
Q 24.171875 6.390625 31.78125 6.390625 
Q 39.453125 6.390625 43.28125 13.890625 
Q 47.125 21.390625 47.125 36.375 
Q 47.125 51.421875 43.28125 58.90625 
Q 39.453125 66.40625 31.78125 66.40625 
z
M 31.78125 74.21875 
Q 44.046875 74.21875 50.515625 64.515625 
Q 56.984375 54.828125 56.984375 36.375 
Q 56.984375 17.96875 50.515625 8.265625 
Q 44.046875 -1.421875 31.78125 -1.421875 
Q 19.53125 -1.421875 13.0625 8.265625 
Q 6.59375 17.96875 6.59375 36.375 
Q 6.59375 54.828125 13.0625 64.515625 
Q 19.53125 74.21875 31.78125 74.21875 
z
" id="DejaVuSans-48"/>
        <path d="M 4.890625 31.390625 
L 31.203125 31.390625 
L 31.203125 23.390625 
L 4.890625 23.390625 
z
" id="DejaVuSans-45"/>
        <path d="M 40.578125 39.3125 
Q 47.65625 37.796875 51.625 33 
Q 55.609375 28.21875 55.609375 21.1875 
Q 55.609375 10.40625 48.1875 4.484375 
Q 40.765625 -1.421875 27.09375 -1.421875 
Q 22.515625 -1.421875 17.65625 -0.515625 
Q 12.796875 0.390625 7.625 2.203125 
L 7.625 11.71875 
Q 11.71875 9.328125 16.59375 8.109375 
Q 21.484375 6.890625 26.8125 6.890625 
Q 36.078125 6.890625 40.9375 10.546875 
Q 45.796875 14.203125 45.796875 21.1875 
Q 45.796875 27.640625 41.28125 31.265625 
Q 36.765625 34.90625 28.71875 34.90625 
L 20.21875 34.90625 
L 20.21875 43.015625 
L 29.109375 43.015625 
Q 36.375 43.015625 40.234375 45.921875 
Q 44.09375 48.828125 44.09375 54.296875 
Q 44.09375 59.90625 40.109375 62.90625 
Q 36.140625 65.921875 28.71875 65.921875 
Q 24.65625 65.921875 20.015625 65.03125 
Q 15.375 64.15625 9.8125 62.3125 
L 9.8125 71.09375 
Q 15.4375 72.65625 20.34375 73.4375 
Q 25.25 74.21875 29.59375 74.21875 
Q 40.828125 74.21875 47.359375 69.109375 
Q 53.90625 64.015625 53.90625 55.328125 
Q 53.90625 49.265625 50.4375 45.09375 
Q 46.96875 40.921875 40.578125 39.3125 
z
" id="DejaVuSans-51"/>
       </defs>
       <use xlink:href="#DejaVuSans-50"/>
       <use x="63.623047" xlink:href="#DejaVuSans-48"/>
       <use x="127.246094" xlink:href="#DejaVuSans-50"/>
       <use x="190.869141" xlink:href="#DejaVuSans-48"/>
       <use x="254.492188" xlink:href="#DejaVuSans-45"/>
       <use x="290.576172" xlink:href="#DejaVuSans-48"/>
       <use x="354.199219" xlink:href="#DejaVuSans-51"/>
      </g>
     </g>
    </g>
    <g id="xtick_2">
     <g id="line2d_3">
      <path clip-path="url(#p10c6188e07)" d="M 254.620335 616.52 
L 254.620335 7.2 
" style="fill:none;stroke:#ffffff;stroke-linecap:square;stroke-width:0.8;"/>
     </g>
     <g id="line2d_4">
      <g>
       <use style="fill:#555555;stroke:#555555;stroke-width:0.8;" x="254.620335" xlink:href="#me714cf1b8f" y="616.52"/>
      </g>
     </g>
     <g id="text_2">
      <!-- 2020-05 -->
      <g style="fill:#555555;" transform="translate(233.728929 631.118437)scale(0.1 -0.1)">
       <defs>
        <path d="M 10.796875 72.90625 
L 49.515625 72.90625 
L 49.515625 64.59375 
L 19.828125 64.59375 
L 19.828125 46.734375 
Q 21.96875 47.46875 24.109375 47.828125 
Q 26.265625 48.1875 28.421875 48.1875 
Q 40.625 48.1875 47.75 41.5 
Q 54.890625 34.8125 54.890625 23.390625 
Q 54.890625 11.625 47.5625 5.09375 
Q 40.234375 -1.421875 26.90625 -1.421875 
Q 22.3125 -1.421875 17.546875 -0.640625 
Q 12.796875 0.140625 7.71875 1.703125 
L 7.71875 11.625 
Q 12.109375 9.234375 16.796875 8.0625 
Q 21.484375 6.890625 26.703125 6.890625 
Q 35.15625 6.890625 40.078125 11.328125 
Q 45.015625 15.765625 45.015625 23.390625 
Q 45.015625 31 40.078125 35.4375 
Q 35.15625 39.890625 26.703125 39.890625 
Q 22.75 39.890625 18.8125 39.015625 
Q 14.890625 38.140625 10.796875 36.28125 
z
" id="DejaVuSans-53"/>
       </defs>
       <use xlink:href="#DejaVuSans-50"/>
       <use x="63.623047" xlink:href="#DejaVuSans-48"/>
       <use x="127.246094" xlink:href="#DejaVuSans-50"/>
       <use x="190.869141" xlink:href="#DejaVuSans-48"/>
       <use x="254.492188" xlink:href="#DejaVuSans-45"/>
       <use x="290.576172" xlink:href="#DejaVuSans-48"/>
       <use x="354.199219" xlink:href="#DejaVuSans-53"/>
      </g>
     </g>
    </g>
    <g id="xtick_3">
     <g id="line2d_5">
      <path clip-path="url(#p10c6188e07)" d="M 424.962994 616.52 
L 424.962994 7.2 
" style="fill:none;stroke:#ffffff;stroke-linecap:square;stroke-width:0.8;"/>
     </g>
     <g id="line2d_6">
      <g>
       <use style="fill:#555555;stroke:#555555;stroke-width:0.8;" x="424.962994" xlink:href="#me714cf1b8f" y="616.52"/>
      </g>
     </g>
     <g id="text_3">
      <!-- 2020-07 -->
      <g style="fill:#555555;" transform="translate(404.071588 631.118437)scale(0.1 -0.1)">
       <defs>
        <path d="M 8.203125 72.90625 
L 55.078125 72.90625 
L 55.078125 68.703125 
L 28.609375 0 
L 18.3125 0 
L 43.21875 64.59375 
L 8.203125 64.59375 
z
" id="DejaVuSans-55"/>
       </defs>
       <use xlink:href="#DejaVuSans-50"/>
       <use x="63.623047" xlink:href="#DejaVuSans-48"/>
       <use x="127.246094" xlink:href="#DejaVuSans-50"/>
       <use x="190.869141" xlink:href="#DejaVuSans-48"/>
       <use x="254.492188" xlink:href="#DejaVuSans-45"/>
       <use x="290.576172" xlink:href="#DejaVuSans-48"/>
       <use x="354.199219" xlink:href="#DejaVuSans-55"/>
      </g>
     </g>
    </g>
    <g id="xtick_4">
     <g id="line2d_7">
      <path clip-path="url(#p10c6188e07)" d="M 598.098156 616.52 
L 598.098156 7.2 
" style="fill:none;stroke:#ffffff;stroke-linecap:square;stroke-width:0.8;"/>
     </g>
     <g id="line2d_8">
      <g>
       <use style="fill:#555555;stroke:#555555;stroke-width:0.8;" x="598.098156" xlink:href="#me714cf1b8f" y="616.52"/>
      </g>
     </g>
     <g id="text_4">
      <!-- 2020-09 -->
      <g style="fill:#555555;" transform="translate(577.20675 631.118437)scale(0.1 -0.1)">
       <defs>
        <path d="M 10.984375 1.515625 
L 10.984375 10.5 
Q 14.703125 8.734375 18.5 7.8125 
Q 22.3125 6.890625 25.984375 6.890625 
Q 35.75 6.890625 40.890625 13.453125 
Q 46.046875 20.015625 46.78125 33.40625 
Q 43.953125 29.203125 39.59375 26.953125 
Q 35.25 24.703125 29.984375 24.703125 
Q 19.046875 24.703125 12.671875 31.3125 
Q 6.296875 37.9375 6.296875 49.421875 
Q 6.296875 60.640625 12.9375 67.421875 
Q 19.578125 74.21875 30.609375 74.21875 
Q 43.265625 74.21875 49.921875 64.515625 
Q 56.59375 54.828125 56.59375 36.375 
Q 56.59375 19.140625 48.40625 8.859375 
Q 40.234375 -1.421875 26.421875 -1.421875 
Q 22.703125 -1.421875 18.890625 -0.6875 
Q 15.09375 0.046875 10.984375 1.515625 
z
M 30.609375 32.421875 
Q 37.25 32.421875 41.125 36.953125 
Q 45.015625 41.5 45.015625 49.421875 
Q 45.015625 57.28125 41.125 61.84375 
Q 37.25 66.40625 30.609375 66.40625 
Q 23.96875 66.40625 20.09375 61.84375 
Q 16.21875 57.28125 16.21875 49.421875 
Q 16.21875 41.5 20.09375 36.953125 
Q 23.96875 32.421875 30.609375 32.421875 
z
" id="DejaVuSans-57"/>
       </defs>
       <use xlink:href="#DejaVuSans-50"/>
       <use x="63.623047" xlink:href="#DejaVuSans-48"/>
       <use x="127.246094" xlink:href="#DejaVuSans-50"/>
       <use x="190.869141" xlink:href="#DejaVuSans-48"/>
       <use x="254.492188" xlink:href="#DejaVuSans-45"/>
       <use x="290.576172" xlink:href="#DejaVuSans-48"/>
       <use x="354.199219" xlink:href="#DejaVuSans-57"/>
      </g>
     </g>
    </g>
    <g id="xtick_5">
     <g id="line2d_9">
      <path clip-path="url(#p10c6188e07)" d="M 768.440816 616.52 
L 768.440816 7.2 
" style="fill:none;stroke:#ffffff;stroke-linecap:square;stroke-width:0.8;"/>
     </g>
     <g id="line2d_10">
      <g>
       <use style="fill:#555555;stroke:#555555;stroke-width:0.8;" x="768.440816" xlink:href="#me714cf1b8f" y="616.52"/>
      </g>
     </g>
     <g id="text_5">
      <!-- 2020-11 -->
      <g style="fill:#555555;" transform="translate(747.549409 631.118437)scale(0.1 -0.1)">
       <defs>
        <path d="M 12.40625 8.296875 
L 28.515625 8.296875 
L 28.515625 63.921875 
L 10.984375 60.40625 
L 10.984375 69.390625 
L 28.421875 72.90625 
L 38.28125 72.90625 
L 38.28125 8.296875 
L 54.390625 8.296875 
L 54.390625 0 
L 12.40625 0 
z
" id="DejaVuSans-49"/>
       </defs>
       <use xlink:href="#DejaVuSans-50"/>
       <use x="63.623047" xlink:href="#DejaVuSans-48"/>
       <use x="127.246094" xlink:href="#DejaVuSans-50"/>
       <use x="190.869141" xlink:href="#DejaVuSans-48"/>
       <use x="254.492188" xlink:href="#DejaVuSans-45"/>
       <use x="290.576172" xlink:href="#DejaVuSans-49"/>
       <use x="354.199219" xlink:href="#DejaVuSans-49"/>
      </g>
     </g>
    </g>
    <g id="xtick_6">
     <g id="line2d_11">
      <path clip-path="url(#p10c6188e07)" d="M 938.783475 616.52 
L 938.783475 7.2 
" style="fill:none;stroke:#ffffff;stroke-linecap:square;stroke-width:0.8;"/>
     </g>
     <g id="line2d_12">
      <g>
       <use style="fill:#555555;stroke:#555555;stroke-width:0.8;" x="938.783475" xlink:href="#me714cf1b8f" y="616.52"/>
      </g>
     </g>
     <g id="text_6">
      <!-- 2021-01 -->
      <g style="fill:#555555;" transform="translate(917.892069 631.118437)scale(0.1 -0.1)">
       <use xlink:href="#DejaVuSans-50"/>
       <use x="63.623047" xlink:href="#DejaVuSans-48"/>
       <use x="127.246094" xlink:href="#DejaVuSans-50"/>
       <use x="190.869141" xlink:href="#DejaVuSans-49"/>
       <use x="254.492188" xlink:href="#DejaVuSans-45"/>
       <use x="290.576172" xlink:href="#DejaVuSans-48"/>
       <use x="354.199219" xlink:href="#DejaVuSans-49"/>
      </g>
     </g>
    </g>
   </g>
   <g id="matplotlib.axis_2">
    <g id="ytick_1">
     <g id="line2d_13">
      <path clip-path="url(#p10c6188e07)" d="M 30.103125 587.741318 
L 1099.073125 587.741318 
" style="fill:none;stroke:#ffffff;stroke-linecap:square;stroke-width:0.8;"/>
     </g>
     <g id="line2d_14">
      <defs>
       <path d="M 0 0 
L -3.5 0 
" id="m2409598518" style="stroke:#555555;stroke-width:0.8;"/>
      </defs>
      <g>
       <use style="fill:#555555;stroke:#555555;stroke-width:0.8;" x="30.103125" xlink:href="#m2409598518" y="587.741318"/>
      </g>
     </g>
     <g id="text_7">
      <!-- 0.5 -->
      <g style="fill:#555555;" transform="translate(7.2 591.540537)scale(0.1 -0.1)">
       <defs>
        <path d="M 10.6875 12.40625 
L 21 12.40625 
L 21 0 
L 10.6875 0 
z
" id="DejaVuSans-46"/>
       </defs>
       <use xlink:href="#DejaVuSans-48"/>
       <use x="63.623047" xlink:href="#DejaVuSans-46"/>
       <use x="95.410156" xlink:href="#DejaVuSans-53"/>
      </g>
     </g>
    </g>
    <g id="ytick_2">
     <g id="line2d_15">
      <path clip-path="url(#p10c6188e07)" d="M 30.103125 513.773155 
L 1099.073125 513.773155 
" style="fill:none;stroke:#ffffff;stroke-linecap:square;stroke-width:0.8;"/>
     </g>
     <g id="line2d_16">
      <g>
       <use style="fill:#555555;stroke:#555555;stroke-width:0.8;" x="30.103125" xlink:href="#m2409598518" y="513.773155"/>
      </g>
     </g>
     <g id="text_8">
      <!-- 1.0 -->
      <g style="fill:#555555;" transform="translate(7.2 517.572373)scale(0.1 -0.1)">
       <use xlink:href="#DejaVuSans-49"/>
       <use x="63.623047" xlink:href="#DejaVuSans-46"/>
       <use x="95.410156" xlink:href="#DejaVuSans-48"/>
      </g>
     </g>
    </g>
    <g id="ytick_3">
     <g id="line2d_17">
      <path clip-path="url(#p10c6188e07)" d="M 30.103125 439.804991 
L 1099.073125 439.804991 
" style="fill:none;stroke:#ffffff;stroke-linecap:square;stroke-width:0.8;"/>
     </g>
     <g id="line2d_18">
      <g>
       <use style="fill:#555555;stroke:#555555;stroke-width:0.8;" x="30.103125" xlink:href="#m2409598518" y="439.804991"/>
      </g>
     </g>
     <g id="text_9">
      <!-- 1.5 -->
      <g style="fill:#555555;" transform="translate(7.2 443.60421)scale(0.1 -0.1)">
       <use xlink:href="#DejaVuSans-49"/>
       <use x="63.623047" xlink:href="#DejaVuSans-46"/>
       <use x="95.410156" xlink:href="#DejaVuSans-53"/>
      </g>
     </g>
    </g>
    <g id="ytick_4">
     <g id="line2d_19">
      <path clip-path="url(#p10c6188e07)" d="M 30.103125 365.836827 
L 1099.073125 365.836827 
" style="fill:none;stroke:#ffffff;stroke-linecap:square;stroke-width:0.8;"/>
     </g>
     <g id="line2d_20">
      <g>
       <use style="fill:#555555;stroke:#555555;stroke-width:0.8;" x="30.103125" xlink:href="#m2409598518" y="365.836827"/>
      </g>
     </g>
     <g id="text_10">
      <!-- 2.0 -->
      <g style="fill:#555555;" transform="translate(7.2 369.636046)scale(0.1 -0.1)">
       <use xlink:href="#DejaVuSans-50"/>
       <use x="63.623047" xlink:href="#DejaVuSans-46"/>
       <use x="95.410156" xlink:href="#DejaVuSans-48"/>
      </g>
     </g>
    </g>
    <g id="ytick_5">
     <g id="line2d_21">
      <path clip-path="url(#p10c6188e07)" d="M 30.103125 291.868663 
L 1099.073125 291.868663 
" style="fill:none;stroke:#ffffff;stroke-linecap:square;stroke-width:0.8;"/>
     </g>
     <g id="line2d_22">
      <g>
       <use style="fill:#555555;stroke:#555555;stroke-width:0.8;" x="30.103125" xlink:href="#m2409598518" y="291.868663"/>
      </g>
     </g>
     <g id="text_11">
      <!-- 2.5 -->
      <g style="fill:#555555;" transform="translate(7.2 295.667882)scale(0.1 -0.1)">
       <use xlink:href="#DejaVuSans-50"/>
       <use x="63.623047" xlink:href="#DejaVuSans-46"/>
       <use x="95.410156" xlink:href="#DejaVuSans-53"/>
      </g>
     </g>
    </g>
    <g id="ytick_6">
     <g id="line2d_23">
      <path clip-path="url(#p10c6188e07)" d="M 30.103125 217.900499 
L 1099.073125 217.900499 
" style="fill:none;stroke:#ffffff;stroke-linecap:square;stroke-width:0.8;"/>
     </g>
     <g id="line2d_24">
      <g>
       <use style="fill:#555555;stroke:#555555;stroke-width:0.8;" x="30.103125" xlink:href="#m2409598518" y="217.900499"/>
      </g>
     </g>
     <g id="text_12">
      <!-- 3.0 -->
      <g style="fill:#555555;" transform="translate(7.2 221.699718)scale(0.1 -0.1)">
       <use xlink:href="#DejaVuSans-51"/>
       <use x="63.623047" xlink:href="#DejaVuSans-46"/>
       <use x="95.410156" xlink:href="#DejaVuSans-48"/>
      </g>
     </g>
    </g>
    <g id="ytick_7">
     <g id="line2d_25">
      <path clip-path="url(#p10c6188e07)" d="M 30.103125 143.932336 
L 1099.073125 143.932336 
" style="fill:none;stroke:#ffffff;stroke-linecap:square;stroke-width:0.8;"/>
     </g>
     <g id="line2d_26">
      <g>
       <use style="fill:#555555;stroke:#555555;stroke-width:0.8;" x="30.103125" xlink:href="#m2409598518" y="143.932336"/>
      </g>
     </g>
     <g id="text_13">
      <!-- 3.5 -->
      <g style="fill:#555555;" transform="translate(7.2 147.731554)scale(0.1 -0.1)">
       <use xlink:href="#DejaVuSans-51"/>
       <use x="63.623047" xlink:href="#DejaVuSans-46"/>
       <use x="95.410156" xlink:href="#DejaVuSans-53"/>
      </g>
     </g>
    </g>
    <g id="ytick_8">
     <g id="line2d_27">
      <path clip-path="url(#p10c6188e07)" d="M 30.103125 69.964172 
L 1099.073125 69.964172 
" style="fill:none;stroke:#ffffff;stroke-linecap:square;stroke-width:0.8;"/>
     </g>
     <g id="line2d_28">
      <g>
       <use style="fill:#555555;stroke:#555555;stroke-width:0.8;" x="30.103125" xlink:href="#m2409598518" y="69.964172"/>
      </g>
     </g>
     <g id="text_14">
      <!-- 4.0 -->
      <g style="fill:#555555;" transform="translate(7.2 73.763391)scale(0.1 -0.1)">
       <defs>
        <path d="M 37.796875 64.3125 
L 12.890625 25.390625 
L 37.796875 25.390625 
z
M 35.203125 72.90625 
L 47.609375 72.90625 
L 47.609375 25.390625 
L 58.015625 25.390625 
L 58.015625 17.1875 
L 47.609375 17.1875 
L 47.609375 0 
L 37.796875 0 
L 37.796875 17.1875 
L 4.890625 17.1875 
L 4.890625 26.703125 
z
" id="DejaVuSans-52"/>
       </defs>
       <use xlink:href="#DejaVuSans-52"/>
       <use x="63.623047" xlink:href="#DejaVuSans-46"/>
       <use x="95.410156" xlink:href="#DejaVuSans-48"/>
      </g>
     </g>
    </g>
   </g>
   <g id="line2d_29">
    <path clip-path="url(#p10c6188e07)" d="M 89.862681 114.622911 
L 92.655184 85.358076 
L 95.447686 122.160738 
L 98.240189 104.576897 
L 101.032691 95.992699 
L 103.825194 105.393328 
L 106.617697 124.687859 
L 109.410199 159.979578 
L 112.202702 204.839297 
L 114.995204 215.895658 
L 117.787707 246.205498 
L 120.58021 270.039884 
L 123.372712 277.546135 
L 126.165215 284.08865 
L 128.957717 277.55759 
L 131.75022 273.556615 
L 137.335225 288.756241 
L 140.127728 301.426214 
L 142.920231 318.69324 
L 145.712733 328.755536 
L 148.505236 336.592714 
L 151.297738 342.212958 
L 154.090241 348.78895 
L 156.882744 358.42084 
L 159.675246 370.194256 
L 162.467749 382.963683 
L 168.052754 403.939538 
L 170.845257 414.648465 
L 173.637759 426.529856 
L 176.430262 436.545585 
L 179.222764 444.679654 
L 182.015267 451.092206 
L 184.80777 456.83234 
L 187.600272 461.453048 
L 190.392775 465.317212 
L 193.185278 469.94746 
L 201.562785 482.502524 
L 204.355288 485.891202 
L 207.147791 488.911835 
L 209.940293 491.424622 
L 218.317801 497.46678 
L 221.110304 498.955712 
L 223.902806 500.027552 
L 226.695309 500.657683 
L 235.072817 502.236037 
L 246.242827 505.278784 
L 265.790345 508.998634 
L 271.375351 509.521775 
L 276.960356 509.86288 
L 296.507874 510.475454 
L 304.885382 510.957843 
L 316.055393 511.342215 
L 332.810408 511.855948 
L 338.395413 511.937334 
L 343.980419 511.935989 
L 374.697947 512.303353 
L 388.66046 512.385842 
L 397.037968 512.090501 
L 405.415476 511.658527 
L 411.000481 511.565561 
L 416.585487 511.631318 
L 427.755497 511.968699 
L 466.850534 512.379729 
L 489.190554 512.095128 
L 550.625612 510.617992 
L 572.965633 509.961852 
L 581.343141 509.816445 
L 592.513151 510.019379 
L 614.853172 510.474901 
L 642.778198 510.010449 
L 653.948209 509.524466 
L 659.533214 509.383293 
L 673.495727 509.327836 
L 690.250743 508.990681 
L 698.62825 508.626281 
L 704.213256 508.091964 
L 715.383266 506.463839 
L 720.968271 505.657063 
L 726.553277 504.507438 
L 732.138282 503.391389 
L 740.51579 501.854605 
L 743.308292 501.211105 
L 746.100795 500.378423 
L 754.478303 497.51293 
L 760.063308 495.767398 
L 762.85581 494.885241 
L 765.648313 494.122908 
L 771.233318 493.274921 
L 776.818324 492.993022 
L 779.610826 492.947889 
L 787.988334 493.293253 
L 793.573339 493.650185 
L 801.950847 494.592521 
L 815.91336 496.724893 
L 824.290868 497.930987 
L 829.875873 498.586128 
L 852.215894 500.671249 
L 866.178407 501.464155 
L 874.555915 501.393596 
L 880.14092 501.288925 
L 896.895936 500.443661 
L 905.273444 500.205753 
L 916.443454 500.177082 
L 919.235957 500.331046 
L 924.820962 501.391243 
L 930.405967 502.691743 
L 933.19847 503.085323 
L 938.783475 503.589568 
L 955.538491 504.42207 
L 958.330993 504.463556 
L 963.915999 504.114342 
L 969.501004 503.502597 
L 975.086009 503.429112 
L 980.671014 503.870304 
L 989.048522 504.637227 
L 1011.388543 505.793492 
L 1033.728564 506.63052 
L 1050.48358 507.095279 
L 1050.48358 507.095279 
" style="fill:none;stroke:#e24a33;stroke-linecap:square;stroke-width:1.5;"/>
   </g>
   <g id="line2d_30">
    <path clip-path="url(#p10c6188e07)" d="M 89.862681 114.622911 
L 92.655184 56.093241 
L 95.447686 195.766061 
L 98.240189 51.825374 
L 101.032691 61.65591 
L 106.617697 240.455043 
L 109.410199 361.66495 
L 112.202702 370.111274 
L 114.995204 273.160587 
L 117.787707 263.994252 
L 120.58021 228.496612 
L 123.372712 204.940226 
L 126.165215 286.252647 
L 128.957717 315.947531 
L 131.75022 342.10445 
L 134.542723 325.337835 
L 137.335225 318.214388 
L 140.127728 317.186418 
L 142.920231 325.809411 
L 145.712733 356.688721 
L 148.505236 370.807774 
L 151.297738 381.446156 
L 154.090241 371.36978 
L 159.675246 399.600331 
L 162.467749 415.195403 
L 165.260251 429.369276 
L 168.052754 444.958201 
L 170.845257 456.408643 
L 173.637759 454.539521 
L 176.430262 455.747719 
L 179.222764 456.538814 
L 182.015267 460.083272 
L 184.80777 469.550209 
L 187.600272 477.30316 
L 190.392775 483.457789 
L 193.185278 486.951257 
L 195.97778 485.410501 
L 198.770283 486.043538 
L 201.562785 488.801217 
L 204.355288 493.270953 
L 207.147791 498.447589 
L 209.940293 501.047295 
L 212.732796 501.279114 
L 215.525298 500.510114 
L 218.317801 498.911176 
L 221.110304 499.223742 
L 223.902806 500.773833 
L 226.695309 502.858509 
L 229.487812 504.613547 
L 232.280314 504.8778 
L 235.072817 504.393654 
L 237.865319 504.224224 
L 240.657822 504.872041 
L 243.450325 506.342685 
L 246.242827 507.627536 
L 249.03533 508.434435 
L 251.827832 508.737707 
L 254.620335 508.172773 
L 257.412838 508.398597 
L 260.20534 508.919699 
L 262.997843 509.705159 
L 265.790345 510.62207 
L 268.582848 510.635235 
L 276.960356 509.230228 
L 279.752859 509.505241 
L 282.545361 510.362614 
L 285.337864 510.627945 
L 288.130366 511.046009 
L 290.922869 510.820846 
L 293.715372 510.338705 
L 299.300377 510.825042 
L 302.092879 511.34739 
L 304.885382 511.700088 
L 316.055393 511.223578 
L 321.640398 511.931231 
L 324.4329 511.957837 
L 327.225403 512.192631 
L 330.017906 512.259912 
L 332.810408 511.885245 
L 335.602911 511.634257 
L 341.187916 511.719568 
L 346.772921 512.488741 
L 352.357926 512.26044 
L 355.150429 512.103085 
L 357.942932 512.138397 
L 366.32044 512.489995 
L 369.112942 512.285869 
L 374.697947 512.254578 
L 377.49045 512.313124 
L 380.282953 512.606432 
L 388.66046 512.249728 
L 391.452963 511.789955 
L 397.037968 511.346453 
L 399.830471 511.385895 
L 402.622973 511.603342 
L 413.792984 511.580209 
L 419.377989 512.130607 
L 422.170492 512.116758 
L 424.962994 512.290165 
L 430.548 511.961662 
L 433.340502 512.02267 
L 441.71801 512.460971 
L 444.510513 512.481236 
L 450.095518 512.195998 
L 455.680523 512.320742 
L 458.473026 512.535095 
L 464.058031 512.544642 
L 472.435539 511.930166 
L 483.605549 512.362096 
L 486.398052 512.092128 
L 489.190554 511.676397 
L 491.983057 511.489641 
L 503.153068 511.986009 
L 508.738073 511.174365 
L 511.530575 510.947928 
L 517.115581 511.56259 
L 519.908083 511.562267 
L 522.700586 511.72068 
L 525.493088 511.151885 
L 528.285591 510.705498 
L 531.078094 510.544057 
L 533.870596 510.683115 
L 536.663099 511.119537 
L 539.455601 511.255267 
L 542.248104 511.192524 
L 547.833109 509.892502 
L 550.625612 509.598922 
L 553.418115 510.026945 
L 556.210617 510.644057 
L 561.795622 510.649935 
L 564.588125 509.936145 
L 567.380628 509.36866 
L 570.17313 508.965734 
L 572.965633 509.469493 
L 575.758135 510.143539 
L 578.550638 510.25724 
L 581.343141 510.574304 
L 586.928146 509.579721 
L 589.720649 509.470544 
L 595.305654 510.570763 
L 600.890659 510.955987 
L 603.683162 510.638543 
L 606.475664 510.126643 
L 609.268167 510.042709 
L 612.060669 510.220181 
L 614.853172 510.534834 
L 617.645675 510.520934 
L 620.438177 510.654695 
L 623.23068 510.125196 
L 626.023182 509.736435 
L 628.815685 509.67768 
L 631.608188 509.826302 
L 634.40069 510.411221 
L 637.193193 510.469903 
L 639.985696 510.328753 
L 642.778198 509.622848 
L 648.363203 508.58257 
L 651.155706 508.927038 
L 653.948209 509.671479 
L 656.740711 509.746695 
L 659.533214 510.063748 
L 662.325716 509.639387 
L 665.118219 508.976831 
L 667.910722 508.629355 
L 670.703224 508.849649 
L 673.495727 509.389189 
L 676.288229 509.449055 
L 679.080732 509.851845 
L 681.873235 509.293124 
L 684.665737 508.534205 
L 690.250743 508.098427 
L 693.043245 508.71053 
L 695.835748 508.763939 
L 698.62825 508.66482 
L 701.420753 507.809338 
L 704.213256 506.277772 
L 707.005758 505.309762 
L 709.798261 505.058362 
L 712.590763 505.922096 
L 715.383266 506.204725 
L 718.175769 506.107208 
L 720.968271 504.719518 
L 723.760774 502.547302 
L 726.553277 500.992857 
L 729.345779 500.966319 
L 732.138282 502.201791 
L 737.723287 502.931053 
L 740.51579 500.725855 
L 743.308292 498.042799 
L 746.100795 495.164084 
L 748.893297 494.099568 
L 751.6858 495.613511 
L 757.270805 496.491892 
L 760.063308 494.946288 
L 762.85581 491.867705 
L 765.648313 489.827751 
L 768.440816 490.792938 
L 771.233318 492.98423 
L 774.025821 494.686213 
L 776.818324 495.846027 
L 779.610826 494.630361 
L 782.403329 492.415367 
L 785.195831 490.781727 
L 787.988334 491.70885 
L 790.780837 494.034154 
L 793.573339 496.13481 
L 796.365842 497.836296 
L 799.158344 496.824511 
L 801.950847 494.827301 
L 804.74335 493.625797 
L 807.535852 494.408945 
L 810.328355 497.193571 
L 813.120857 499.454299 
L 815.91336 500.739826 
L 818.705863 499.872728 
L 821.498365 497.600824 
L 824.290868 496.246714 
L 827.083371 496.87722 
L 829.875873 499.311285 
L 832.668376 501.345869 
L 835.460878 502.301126 
L 838.253381 501.361215 
L 841.045884 499.51683 
L 843.838386 498.359743 
L 846.630889 499.220621 
L 849.423391 501.17644 
L 852.215894 502.762768 
L 855.008397 503.566532 
L 857.800899 502.570953 
L 860.593402 500.875886 
L 863.385905 499.603798 
L 866.178407 499.692706 
L 871.763412 502.660537 
L 874.555915 503.127209 
L 877.348418 502.451893 
L 880.14092 500.262252 
L 882.933423 498.533361 
L 885.725925 498.789517 
L 888.518428 499.882997 
L 891.310931 501.949779 
L 894.103433 502.183344 
L 896.895936 501.504376 
L 902.480941 497.779338 
L 905.273444 498.54346 
L 908.065946 499.851822 
L 910.858449 501.567184 
L 913.650952 502.391961 
L 919.235957 500.674721 
L 922.028459 501.276493 
L 924.820962 502.467685 
L 927.613465 504.633291 
L 930.405967 505.889214 
L 933.19847 505.147024 
L 935.990972 503.401125 
L 938.783475 502.312141 
L 941.575978 502.37008 
L 944.36848 503.547307 
L 947.160983 505.656912 
L 949.953486 506.655257 
L 952.745988 505.906753 
L 955.538491 504.50604 
L 958.330993 502.602541 
L 961.123496 501.522543 
L 963.915999 501.950352 
L 966.708501 503.194328 
L 969.501004 504.835623 
L 972.293506 505.276758 
L 975.086009 504.621639 
L 977.878512 503.834255 
L 980.671014 503.379174 
L 983.463517 503.863547 
L 986.256019 505.310096 
L 989.048522 506.175123 
L 991.841025 506.383514 
L 994.633527 505.88321 
L 997.42603 505.066022 
L 1000.218533 504.68804 
L 1003.011035 504.977638 
L 1005.803538 506.006435 
L 1008.59604 506.852448 
L 1011.388543 507.080649 
L 1014.181046 506.686614 
L 1019.766051 505.721617 
L 1022.558553 505.866145 
L 1025.351056 506.719516 
L 1028.143559 507.275224 
L 1030.936061 507.450758 
L 1033.728564 507.228037 
L 1036.521066 506.710085 
L 1039.313569 506.399794 
L 1042.106072 506.471339 
L 1047.691077 507.783639 
L 1050.48358 507.938025 
L 1050.48358 507.938025 
" style="fill:none;stroke:#e24a33;stroke-dasharray:1.5,2.475;stroke-dashoffset:0;stroke-width:1.5;"/>
   </g>
   <g id="line2d_31">
    <path clip-path="url(#p10c6188e07)" d="M 89.862681 262.560523 
L 92.655184 233.295996 
L 95.447686 270.098871 
L 98.240189 252.515745 
L 101.032691 210.419024 
L 103.825194 205.937762 
L 106.617697 213.839768 
L 109.410199 242.173277 
L 112.202702 280.318349 
L 114.995204 277.305072 
L 117.787707 288.30341 
L 120.58021 296.443252 
L 123.372712 275.209667 
L 126.165215 279.936454 
L 128.957717 263.631184 
L 131.75022 253.633011 
L 137.335225 271.172678 
L 140.127728 302.486961 
L 142.920231 342.055603 
L 145.712733 354.495765 
L 148.505236 363.634562 
L 151.297738 367.762308 
L 154.090241 371.239737 
L 156.882744 381.815825 
L 159.675246 397.732163 
L 162.467749 417.916347 
L 165.260251 433.409036 
L 173.637759 477.667454 
L 176.430262 490.413528 
L 179.222764 497.868669 
L 184.80777 502.780866 
L 187.600272 505.497624 
L 190.392775 508.817824 
L 193.185278 515.622085 
L 195.97778 520.866102 
L 198.770283 526.618133 
L 201.562785 533.119165 
L 204.355288 536.165608 
L 207.147791 541.10488 
L 209.940293 545.177473 
L 215.525298 549.370634 
L 218.317801 546.782107 
L 221.110304 541.45886 
L 223.902806 536.661661 
L 226.695309 531.335077 
L 229.487812 528.578859 
L 232.280314 526.807314 
L 235.072817 525.82971 
L 237.865319 528.650313 
L 240.657822 533.153964 
L 243.450325 538.404091 
L 246.242827 542.7731 
L 249.03533 544.666144 
L 251.827832 546.332978 
L 254.620335 546.282146 
L 257.412838 546.951118 
L 260.20534 548.943225 
L 262.997843 550.14049 
L 265.790345 552.805272 
L 268.582848 552.82381 
L 271.375351 549.494744 
L 274.167853 544.457228 
L 276.960356 531.544345 
L 279.752859 521.23204 
L 282.545361 518.088701 
L 285.337864 513.43326 
L 288.130366 513.246482 
L 290.922869 514.421414 
L 293.715372 514.216805 
L 296.507874 524.673659 
L 299.300377 531.317153 
L 302.092879 534.603155 
L 304.885382 538.879667 
L 310.470387 534.679786 
L 313.26289 534.753836 
L 316.055393 529.146151 
L 318.847895 531.032665 
L 321.640398 532.199033 
L 324.4329 529.31666 
L 327.225403 531.667955 
L 330.017906 534.936778 
L 332.810408 534.61313 
L 335.602911 535.819879 
L 338.395413 527.757485 
L 341.187916 512.909862 
L 343.980419 510.37723 
L 346.772921 511.188537 
L 349.565424 511.742207 
L 352.357926 519.02299 
L 355.150429 522.715965 
L 357.942932 523.316483 
L 360.735434 530.635911 
L 363.527937 529.747055 
L 366.32044 525.903374 
L 369.112942 519.820797 
L 371.905445 512.584707 
L 374.697947 510.222366 
L 377.49045 514.033495 
L 380.282953 522.221879 
L 383.075455 524.060426 
L 385.867958 522.608614 
L 388.66046 519.043593 
L 391.452963 499.022673 
L 394.245466 481.944911 
L 397.037968 459.11983 
L 399.830471 437.804815 
L 402.622973 430.695851 
L 405.415476 426.000485 
L 408.207979 430.358634 
L 411.000481 454.389916 
L 413.792984 474.42576 
L 416.585487 503.681477 
L 419.377989 524.615501 
L 422.170492 531.967138 
L 424.962994 540.112347 
L 427.755497 540.369286 
L 430.548 534.225525 
L 433.340502 533.04376 
L 436.133005 528.80733 
L 438.925507 528.349144 
L 441.71801 530.700681 
L 447.303015 528.349082 
L 450.095518 526.502001 
L 452.888021 522.473766 
L 455.680523 520.598554 
L 458.473026 519.584137 
L 461.265528 518.037352 
L 464.058031 517.02143 
L 466.850534 514.996046 
L 469.643036 507.208587 
L 475.228041 490.229027 
L 478.020544 484.764431 
L 480.813047 483.456944 
L 483.605549 483.694373 
L 486.398052 484.2108 
L 489.190554 485.971316 
L 491.983057 484.37915 
L 494.77556 481.179143 
L 497.568062 477.466472 
L 500.360565 475.912687 
L 503.153068 475.182114 
L 505.94557 473.803069 
L 508.738073 476.582461 
L 511.530575 478.422063 
L 514.323078 483.043416 
L 517.115581 488.185307 
L 519.908083 488.951716 
L 522.700586 490.106109 
L 525.493088 489.393161 
L 528.285591 487.225661 
L 531.078094 489.059003 
L 533.870596 486.502956 
L 536.663099 486.054213 
L 539.455601 486.656112 
L 542.248104 484.744794 
L 545.040607 485.104927 
L 547.833109 483.431995 
L 550.625612 478.618113 
L 553.418115 480.373665 
L 556.210617 481.065628 
L 559.00312 481.551903 
L 561.795622 482.53981 
L 564.588125 482.651836 
L 567.380628 484.136401 
L 570.17313 486.765372 
L 572.965633 488.750214 
L 575.758135 489.505994 
L 578.550638 489.260468 
L 581.343141 491.104768 
L 584.135643 495.22562 
L 586.928146 501.406407 
L 589.720649 509.794102 
L 592.513151 514.597772 
L 595.305654 516.335204 
L 598.098156 518.586011 
L 600.890659 519.010671 
L 603.683162 519.638584 
L 606.475664 520.040412 
L 609.268167 519.136297 
L 612.060669 517.085678 
L 614.853172 513.32868 
L 620.438177 504.833041 
L 623.23068 500.052536 
L 626.023182 497.354547 
L 631.608188 497.22674 
L 634.40069 499.910756 
L 637.193193 501.633437 
L 639.985696 501.442799 
L 642.778198 500.790813 
L 645.570701 496.969704 
L 648.363203 489.147135 
L 651.155706 485.644205 
L 653.948209 483.936983 
L 656.740711 482.901905 
L 659.533214 485.721543 
L 662.325716 490.398236 
L 665.118219 496.10215 
L 667.910722 503.474589 
L 670.703224 505.448592 
L 673.495727 503.68864 
L 679.080732 501.490115 
L 681.873235 500.123132 
L 684.665737 499.467393 
L 687.45824 499.838717 
L 690.250743 496.846394 
L 693.043245 495.108618 
L 695.835748 493.731215 
L 698.62825 489.502035 
L 701.420753 486.002925 
L 704.213256 479.02521 
L 707.005758 468.581236 
L 709.798261 462.362897 
L 712.590763 457.735207 
L 715.383266 456.136962 
L 718.175769 456.435238 
L 720.968271 456.319208 
L 723.760774 457.351341 
L 726.553277 457.317732 
L 729.345779 458.092217 
L 732.138282 458.653085 
L 734.930784 458.525628 
L 737.723287 459.328937 
L 740.51579 459.247825 
L 743.308292 460.391984 
L 746.100795 460.366279 
L 748.893297 456.456815 
L 751.6858 453.127081 
L 754.478303 449.249222 
L 757.270805 446.583318 
L 760.063308 447.166181 
L 762.85581 449.82354 
L 765.648313 456.396677 
L 768.440816 466.978261 
L 771.233318 473.073158 
L 774.025821 478.601039 
L 776.818324 482.494882 
L 779.610826 485.226924 
L 782.403329 489.294957 
L 785.195831 492.63157 
L 787.988334 494.969087 
L 790.780837 496.787618 
L 793.573339 498.095054 
L 796.365842 499.726378 
L 804.74335 505.293986 
L 807.535852 505.99293 
L 810.328355 507.694934 
L 813.120857 509.884943 
L 818.705863 513.26463 
L 821.498365 513.392109 
L 827.083371 510.130511 
L 829.875873 509.055683 
L 838.253381 509.606924 
L 841.045884 509.71814 
L 843.838386 509.493468 
L 846.630889 510.290896 
L 849.423391 511.206788 
L 855.008397 511.848221 
L 857.800899 511.452488 
L 860.593402 510.789087 
L 863.385905 509.596601 
L 866.178407 506.552874 
L 868.97091 503.945015 
L 874.555915 500.050784 
L 877.348418 499.392739 
L 880.14092 498.045908 
L 882.933423 495.629266 
L 885.725925 494.683846 
L 888.518428 491.742734 
L 896.895936 490.82761 
L 899.688438 492.226436 
L 902.480941 492.573441 
L 908.065946 497.448099 
L 910.858449 497.891695 
L 913.650952 499.303257 
L 916.443454 499.829264 
L 919.235957 502.112577 
L 924.820962 520.37714 
L 927.613465 531.531384 
L 930.405967 539.281975 
L 933.19847 540.95239 
L 935.990972 538.698969 
L 938.783475 529.668869 
L 941.575978 515.590742 
L 944.36848 509.688669 
L 947.160983 509.435118 
L 949.953486 509.813513 
L 955.538491 511.202552 
L 958.330993 506.239795 
L 963.915999 481.810794 
L 966.708501 470.559537 
L 969.501004 465.489576 
L 972.293506 465.371364 
L 975.086009 469.234669 
L 977.878512 484.210371 
L 980.671014 506.315909 
L 983.463517 518.560663 
L 986.256019 526.027977 
L 989.048522 528.007798 
L 991.841025 528.642798 
L 994.633527 528.978701 
L 997.42603 526.287947 
L 1000.218533 524.142837 
L 1005.803538 520.481558 
L 1008.59604 520.513417 
L 1011.388543 520.878884 
L 1014.181046 521.502046 
L 1016.973548 523.530605 
L 1019.766051 523.91143 
L 1022.558553 522.999707 
L 1025.351056 522.737678 
L 1028.143559 521.660054 
L 1030.936061 521.132271 
L 1033.728564 521.317718 
L 1036.521066 520.592864 
L 1039.313569 521.073119 
L 1042.106072 521.28617 
L 1044.898574 520.388262 
L 1047.691077 521.639851 
L 1050.48358 522.723867 
L 1050.48358 522.723867 
" style="fill:none;stroke:#348abd;stroke-linecap:square;stroke-width:1.5;"/>
   </g>
   <g id="line2d_32">
    <path clip-path="url(#p10c6188e07)" d="M 89.862681 262.560523 
L 92.655184 204.031469 
L 95.447686 343.704621 
L 98.240189 199.766369 
L 101.032691 42.032138 
L 103.825194 183.531454 
L 106.617697 261.251804 
L 109.410199 460.895087 
L 112.202702 471.04697 
L 114.995204 322.611681 
L 117.787707 276.754735 
L 120.58021 99.011031 
L 123.372712 34.896364 
L 126.165215 294.339311 
L 131.75022 401.059762 
L 134.542723 383.068176 
L 137.335225 339.075905 
L 140.127728 318.211014 
L 142.920231 311.876858 
L 145.712733 381.420446 
L 148.505236 410.729777 
L 151.297738 429.953981 
L 154.090241 407.410175 
L 156.882744 413.108523 
L 159.675246 429.625382 
L 162.467749 453.166149 
L 165.260251 489.869263 
L 168.052754 513.70528 
L 170.845257 530.297585 
L 173.637759 513.899999 
L 176.430262 502.331038 
L 179.222764 481.81137 
L 182.015267 469.953003 
L 184.80777 507.467787 
L 187.600272 532.722584 
L 190.392775 553.538985 
L 193.185278 561.52983 
L 195.97778 539.039156 
L 198.770283 522.075588 
L 201.562785 515.460222 
L 204.355288 528.792891 
L 207.147791 567.297487 
L 209.940293 582.047138 
L 212.732796 576.202954 
L 215.525298 553.71816 
L 218.317801 503.955899 
L 221.110304 478.197493 
L 223.902806 495.212494 
L 226.695309 530.011403 
L 229.487812 562.753613 
L 232.280314 563.802138 
L 235.072817 546.87493 
L 237.865319 523.700117 
L 240.657822 509.72305 
L 243.450325 531.963387 
L 246.242827 560.594467 
L 249.03533 576.004916 
L 251.827832 575.469982 
L 254.620335 546.5191 
L 257.412838 528.382923 
L 260.20534 523.6678 
L 262.997843 540.344243 
L 265.790345 579.247939 
L 268.582848 576.134685 
L 271.375351 552.166517 
L 274.167853 511.256486 
L 276.960356 437.992747 
L 279.752859 451.481666 
L 282.545361 518.340869 
L 288.130366 574.827243 
L 290.922869 560.391041 
L 293.715372 509.824223 
L 296.507874 511.190725 
L 299.300377 497.98612 
L 302.092879 541.342884 
L 304.885382 576.595431 
L 307.677885 560.41117 
L 310.470387 545.407948 
L 313.26289 510.342573 
L 316.055393 471.936934 
L 321.640398 549.507462 
L 324.4329 556.418816 
L 327.225403 576.87024 
L 330.017906 568.289708 
L 332.810408 508.077036 
L 335.602911 480.384173 
L 338.395413 454.754963 
L 341.187916 445.574096 
L 343.980419 538.690396 
L 346.772921 582.549387 
L 349.565424 572.165397 
L 352.357926 559.042517 
L 355.150429 506.234998 
L 357.942932 458.958587 
L 360.735434 496.810097 
L 363.527937 532.468405 
L 366.32044 555.643618 
L 369.112942 529.587355 
L 371.905445 508.389887 
L 374.697947 489.698611 
L 377.49045 485.63649 
L 380.282953 554.128785 
L 383.075455 545.338232 
L 385.867958 545.480941 
L 388.66046 504.632203 
L 391.452963 368.243447 
L 394.245466 370.154282 
L 397.037968 325.860918 
L 399.830471 404.923683 
L 402.622973 495.575488 
L 405.415476 512.613375 
L 408.207979 535.139243 
L 411.000481 536.462426 
L 413.792984 510.405188 
L 419.377989 551.461851 
L 422.170492 547.036944 
L 424.962994 569.629836 
L 427.755497 536.937819 
L 430.548 493.456097 
L 433.340502 502.132833 
L 436.133005 500.995928 
L 438.925507 548.254554 
L 441.71801 563.497702 
L 444.510513 561.44779 
L 447.303015 528.658673 
L 450.095518 480.526529 
L 452.888021 473.935183 
L 455.680523 487.869444 
L 458.473026 541.153635 
L 461.265528 552.670206 
L 464.058031 554.336341 
L 466.850534 514.480984 
L 469.643036 426.014316 
L 472.435539 414.901758 
L 475.228041 428.045949 
L 478.020544 502.90146 
L 480.813047 543.517799 
L 483.605549 555.998346 
L 486.398052 518.095969 
L 489.190554 438.337932 
L 491.983057 403.756591 
L 494.77556 405.645902 
L 497.568062 476.912765 
L 500.360565 532.641305 
L 503.153068 550.88433 
L 505.94557 508.442655 
L 508.738073 457.793679 
L 511.530575 416.633808 
L 514.323078 437.995372 
L 517.115581 512.906001 
L 519.908083 538.006169 
L 522.700586 558.965079 
L 525.493088 503.452016 
L 528.285591 442.621184 
L 531.078094 429.467203 
L 533.870596 420.103044 
L 536.663099 509.764798 
L 539.455601 542.219463 
L 542.248104 545.58585 
L 545.040607 505.972945 
L 547.833109 430.910659 
L 550.625612 395.77003 
L 553.418115 432.391908 
L 556.210617 514.608543 
L 559.00312 545.623386 
L 561.795622 552.501201 
L 564.588125 506.757123 
L 567.380628 441.302618 
L 570.17313 414.172826 
L 572.965633 446.285804 
L 575.758135 519.899001 
L 578.550638 543.9047 
L 581.343141 565.411307 
L 584.135643 535.603087 
L 586.928146 484.568123 
L 589.720649 472.886694 
L 592.513151 479.911492 
L 595.305654 532.061025 
L 598.098156 559.66035 
L 600.890659 568.383924 
L 603.683162 539.998483 
L 606.475664 487.380914 
L 609.268167 466.557895 
L 612.060669 465.557153 
L 614.853172 505.762041 
L 617.645675 529.560938 
L 620.438177 539.013866 
L 623.23068 506.534944 
L 626.023182 468.494995 
L 628.815685 466.25268 
L 631.608188 464.967714 
L 634.40069 524.550155 
L 637.193193 541.619705 
L 639.985696 537.679397 
L 642.778198 501.971046 
L 645.570701 441.74723 
L 648.363203 411.4947 
L 651.155706 440.447199 
L 653.948209 512.599605 
L 656.740711 534.374156 
L 659.533214 557.416864 
L 662.325716 534.707901 
L 665.118219 481.674624 
L 667.910722 463.101777 
L 670.703224 454.265218 
L 673.495727 500.279939 
L 676.288229 526.679596 
L 679.080732 549.721751 
L 681.873235 525.139016 
L 684.665737 477.084456 
L 687.45824 465.701042 
L 690.250743 433.318955 
L 693.043245 488.115509 
L 695.835748 517.037776 
L 698.62825 520.117493 
L 701.420753 500.645245 
L 704.213256 428.24045 
L 707.005758 392.593223 
L 709.798261 389.790584 
L 712.590763 455.721676 
L 715.383266 505.850064 
L 718.175769 522.205424 
L 720.968271 499.833035 
L 723.760774 435.465382 
L 726.553277 392.357961 
L 729.345779 395.211977 
L 732.138282 459.64775 
L 734.930784 504.957867 
L 737.723287 527.828589 
L 740.51579 499.265251 
L 743.308292 443.474491 
L 746.100795 392.178029 
L 748.893297 367.845727 
L 751.6858 436.339616 
L 754.478303 477.812854 
L 757.270805 509.16726 
L 760.063308 503.345292 
L 762.85581 462.076 
L 765.648313 438.189994 
L 768.440816 441.916813 
L 774.025821 516.508019 
L 776.818324 536.424161 
L 779.610826 522.469591 
L 782.403329 490.552231 
L 785.195831 461.54628 
L 787.988334 458.279432 
L 793.573339 525.660075 
L 796.365842 547.843427 
L 799.158344 535.464827 
L 801.950847 503.931311 
L 804.74335 474.145219 
L 807.535852 463.172044 
L 810.328355 503.647632 
L 813.120857 540.990138 
L 815.91336 559.350138 
L 818.705863 547.615927 
L 824.290868 463.132347 
L 827.083371 451.353735 
L 832.668376 542.351828 
L 835.460878 561.487402 
L 838.253381 547.97566 
L 843.838386 461.559644 
L 846.630889 456.935732 
L 849.423391 502.535076 
L 852.215894 544.757813 
L 855.008397 563.571444 
L 857.800899 545.205534 
L 860.593402 500.958363 
L 863.385905 453.212243 
L 866.178407 435.629642 
L 871.763412 531.009696 
L 874.555915 550.059942 
L 877.348418 540.599215 
L 880.14092 491.530549 
L 882.933423 436.295748 
L 885.725925 429.011705 
L 888.518428 463.692283 
L 891.310931 528.81557 
L 894.103433 548.43078 
L 896.895936 538.016634 
L 899.688438 501.322334 
L 902.480941 438.724783 
L 905.273444 446.028983 
L 908.065946 480.797611 
L 910.858449 531.92074 
L 913.650952 558.311716 
L 916.443454 541.698681 
L 919.235957 517.305527 
L 922.028459 502.820798 
L 924.820962 509.784909 
L 927.613465 558.877321 
L 930.405967 586.174872 
L 933.19847 570.004619 
L 935.990972 525.924735 
L 938.783475 454.094828 
L 941.575978 404.273911 
L 944.36848 468.470394 
L 947.160983 557.102469 
L 949.953486 588.823636 
L 952.745988 574.709046 
L 955.538491 530.943578 
L 958.330993 419.355531 
L 961.123496 317.329157 
L 963.915999 384.41214 
L 966.708501 478.343671 
L 969.501004 553.333907 
L 972.293506 573.881563 
L 975.086009 557.986718 
L 977.878512 524.185439 
L 980.671014 472.067924 
L 983.463517 470.12542 
L 986.256019 530.61487 
L 989.048522 567.192653 
L 991.841025 578.326562 
L 994.633527 560.33804 
L 997.42603 505.350158 
L 1000.218533 457.052159 
L 1003.011035 456.979504 
L 1005.803538 518.131834 
L 1008.59604 567.415661 
L 1011.388543 580.884834 
L 1014.181046 564.70017 
L 1016.973548 519.550073 
L 1019.766051 459.717932 
L 1022.558553 450.597444 
L 1025.351056 516.297631 
L 1028.143559 559.872294 
L 1030.936061 577.190355 
L 1033.728564 565.998299 
L 1039.313569 463.079719 
L 1042.106072 452.088799 
L 1047.691077 568.633422 
L 1050.48358 584.778464 
L 1050.48358 584.778464 
" style="fill:none;stroke:#348abd;stroke-dasharray:1.5,2.475;stroke-dashoffset:0;stroke-width:1.5;"/>
   </g>
   <g id="line2d_33">
    <path clip-path="url(#p10c6188e07)" d="M 30.103125 513.773155 
L 1099.073125 513.773155 
" style="fill:none;stroke:#008000;stroke-linecap:square;stroke-opacity:0.5;stroke-width:1.5;"/>
   </g>
   <g id="patch_3">
    <path d="M 30.103125 616.52 
L 30.103125 7.2 
" style="fill:none;stroke:#ffffff;stroke-linecap:square;stroke-linejoin:miter;"/>
   </g>
   <g id="patch_4">
    <path d="M 1099.073125 616.52 
L 1099.073125 7.2 
" style="fill:none;stroke:#ffffff;stroke-linecap:square;stroke-linejoin:miter;"/>
   </g>
   <g id="patch_5">
    <path d="M 30.103125 616.52 
L 1099.073125 616.52 
" style="fill:none;stroke:#ffffff;stroke-linecap:square;stroke-linejoin:miter;"/>
   </g>
   <g id="patch_6">
    <path d="M 30.103125 7.2 
L 1099.073125 7.2 
" style="fill:none;stroke:#ffffff;stroke-linecap:square;stroke-linejoin:miter;"/>
   </g>
  </g>
  <g id="axes_2">
   <g id="matplotlib.axis_3">
    <g id="ytick_9">
     <g id="line2d_34">
      <path clip-path="url(#p10c6188e07)" d="M 30.103125 589.00409 
L 1099.073125 589.00409 
" style="fill:none;stroke:#ffffff;stroke-linecap:square;stroke-width:0.8;"/>
     </g>
     <g id="line2d_35">
      <defs>
       <path d="M 0 0 
L 3.5 0 
" id="m5ec404b71b" style="stroke:#555555;stroke-width:0.8;"/>
      </defs>
      <g>
       <use style="fill:#555555;stroke:#555555;stroke-width:0.8;" x="1099.073125" xlink:href="#m5ec404b71b" y="589.00409"/>
      </g>
     </g>
     <g id="text_15">
      <!-- 0 -->
      <g style="fill:#555555;" transform="translate(1106.073125 592.803309)scale(0.1 -0.1)">
       <use xlink:href="#DejaVuSans-48"/>
      </g>
     </g>
    </g>
    <g id="ytick_10">
     <g id="line2d_36">
      <path clip-path="url(#p10c6188e07)" d="M 30.103125 506.979676 
L 1099.073125 506.979676 
" style="fill:none;stroke:#ffffff;stroke-linecap:square;stroke-width:0.8;"/>
     </g>
     <g id="line2d_37">
      <g>
       <use style="fill:#555555;stroke:#555555;stroke-width:0.8;" x="1099.073125" xlink:href="#m5ec404b71b" y="506.979676"/>
      </g>
     </g>
     <g id="text_16">
      <!-- 5000 -->
      <g style="fill:#555555;" transform="translate(1106.073125 510.778895)scale(0.1 -0.1)">
       <use xlink:href="#DejaVuSans-53"/>
       <use x="63.623047" xlink:href="#DejaVuSans-48"/>
       <use x="127.246094" xlink:href="#DejaVuSans-48"/>
       <use x="190.869141" xlink:href="#DejaVuSans-48"/>
      </g>
     </g>
    </g>
    <g id="ytick_11">
     <g id="line2d_38">
      <path clip-path="url(#p10c6188e07)" d="M 30.103125 424.955262 
L 1099.073125 424.955262 
" style="fill:none;stroke:#ffffff;stroke-linecap:square;stroke-width:0.8;"/>
     </g>
     <g id="line2d_39">
      <g>
       <use style="fill:#555555;stroke:#555555;stroke-width:0.8;" x="1099.073125" xlink:href="#m5ec404b71b" y="424.955262"/>
      </g>
     </g>
     <g id="text_17">
      <!-- 10000 -->
      <g style="fill:#555555;" transform="translate(1106.073125 428.754481)scale(0.1 -0.1)">
       <use xlink:href="#DejaVuSans-49"/>
       <use x="63.623047" xlink:href="#DejaVuSans-48"/>
       <use x="127.246094" xlink:href="#DejaVuSans-48"/>
       <use x="190.869141" xlink:href="#DejaVuSans-48"/>
       <use x="254.492188" xlink:href="#DejaVuSans-48"/>
      </g>
     </g>
    </g>
    <g id="ytick_12">
     <g id="line2d_40">
      <path clip-path="url(#p10c6188e07)" d="M 30.103125 342.930848 
L 1099.073125 342.930848 
" style="fill:none;stroke:#ffffff;stroke-linecap:square;stroke-width:0.8;"/>
     </g>
     <g id="line2d_41">
      <g>
       <use style="fill:#555555;stroke:#555555;stroke-width:0.8;" x="1099.073125" xlink:href="#m5ec404b71b" y="342.930848"/>
      </g>
     </g>
     <g id="text_18">
      <!-- 15000 -->
      <g style="fill:#555555;" transform="translate(1106.073125 346.730067)scale(0.1 -0.1)">
       <use xlink:href="#DejaVuSans-49"/>
       <use x="63.623047" xlink:href="#DejaVuSans-53"/>
       <use x="127.246094" xlink:href="#DejaVuSans-48"/>
       <use x="190.869141" xlink:href="#DejaVuSans-48"/>
       <use x="254.492188" xlink:href="#DejaVuSans-48"/>
      </g>
     </g>
    </g>
    <g id="ytick_13">
     <g id="line2d_42">
      <path clip-path="url(#p10c6188e07)" d="M 30.103125 260.906434 
L 1099.073125 260.906434 
" style="fill:none;stroke:#ffffff;stroke-linecap:square;stroke-width:0.8;"/>
     </g>
     <g id="line2d_43">
      <g>
       <use style="fill:#555555;stroke:#555555;stroke-width:0.8;" x="1099.073125" xlink:href="#m5ec404b71b" y="260.906434"/>
      </g>
     </g>
     <g id="text_19">
      <!-- 20000 -->
      <g style="fill:#555555;" transform="translate(1106.073125 264.705653)scale(0.1 -0.1)">
       <use xlink:href="#DejaVuSans-50"/>
       <use x="63.623047" xlink:href="#DejaVuSans-48"/>
       <use x="127.246094" xlink:href="#DejaVuSans-48"/>
       <use x="190.869141" xlink:href="#DejaVuSans-48"/>
       <use x="254.492188" xlink:href="#DejaVuSans-48"/>
      </g>
     </g>
    </g>
    <g id="ytick_14">
     <g id="line2d_44">
      <path clip-path="url(#p10c6188e07)" d="M 30.103125 178.88202 
L 1099.073125 178.88202 
" style="fill:none;stroke:#ffffff;stroke-linecap:square;stroke-width:0.8;"/>
     </g>
     <g id="line2d_45">
      <g>
       <use style="fill:#555555;stroke:#555555;stroke-width:0.8;" x="1099.073125" xlink:href="#m5ec404b71b" y="178.88202"/>
      </g>
     </g>
     <g id="text_20">
      <!-- 25000 -->
      <g style="fill:#555555;" transform="translate(1106.073125 182.681239)scale(0.1 -0.1)">
       <use xlink:href="#DejaVuSans-50"/>
       <use x="63.623047" xlink:href="#DejaVuSans-53"/>
       <use x="127.246094" xlink:href="#DejaVuSans-48"/>
       <use x="190.869141" xlink:href="#DejaVuSans-48"/>
       <use x="254.492188" xlink:href="#DejaVuSans-48"/>
      </g>
     </g>
    </g>
    <g id="ytick_15">
     <g id="line2d_46">
      <path clip-path="url(#p10c6188e07)" d="M 30.103125 96.857606 
L 1099.073125 96.857606 
" style="fill:none;stroke:#ffffff;stroke-linecap:square;stroke-width:0.8;"/>
     </g>
     <g id="line2d_47">
      <g>
       <use style="fill:#555555;stroke:#555555;stroke-width:0.8;" x="1099.073125" xlink:href="#m5ec404b71b" y="96.857606"/>
      </g>
     </g>
     <g id="text_21">
      <!-- 30000 -->
      <g style="fill:#555555;" transform="translate(1106.073125 100.656825)scale(0.1 -0.1)">
       <use xlink:href="#DejaVuSans-51"/>
       <use x="63.623047" xlink:href="#DejaVuSans-48"/>
       <use x="127.246094" xlink:href="#DejaVuSans-48"/>
       <use x="190.869141" xlink:href="#DejaVuSans-48"/>
       <use x="254.492188" xlink:href="#DejaVuSans-48"/>
      </g>
     </g>
    </g>
    <g id="ytick_16">
     <g id="line2d_48">
      <path clip-path="url(#p10c6188e07)" d="M 30.103125 14.833192 
L 1099.073125 14.833192 
" style="fill:none;stroke:#ffffff;stroke-linecap:square;stroke-width:0.8;"/>
     </g>
     <g id="line2d_49">
      <g>
       <use style="fill:#555555;stroke:#555555;stroke-width:0.8;" x="1099.073125" xlink:href="#m5ec404b71b" y="14.833192"/>
      </g>
     </g>
     <g id="text_22">
      <!-- 35000 -->
      <g style="fill:#555555;" transform="translate(1106.073125 18.632411)scale(0.1 -0.1)">
       <use xlink:href="#DejaVuSans-51"/>
       <use x="63.623047" xlink:href="#DejaVuSans-53"/>
       <use x="127.246094" xlink:href="#DejaVuSans-48"/>
       <use x="190.869141" xlink:href="#DejaVuSans-48"/>
       <use x="254.492188" xlink:href="#DejaVuSans-48"/>
      </g>
     </g>
    </g>
   </g>
   <g id="line2d_50">
    <path clip-path="url(#p10c6188e07)" d="M 78.69267 588.134631 
L 81.485173 588.479134 
L 84.277676 588.309617 
L 89.862681 588.361019 
L 92.655184 588.287744 
L 95.447686 588.066668 
L 101.032691 587.290952 
L 103.825194 587.187835 
L 106.617697 586.698032 
L 109.410199 586.42618 
L 112.202702 585.945751 
L 114.995204 584.389631 
L 117.787707 583.325657 
L 120.58021 581.973426 
L 128.957717 575.27086 
L 131.75022 573.463979 
L 134.542723 568.779213 
L 137.335225 563.471062 
L 140.127728 558.849572 
L 142.920231 556.728655 
L 145.712733 549.960469 
L 148.505236 541.476801 
L 151.297738 534.268027 
L 154.090241 529.222354 
L 156.882744 522.608842 
L 159.675246 514.197824 
L 162.467749 509.470875 
L 165.260251 507.856166 
L 168.052754 508.205355 
L 170.845257 505.07671 
L 173.637759 502.259757 
L 176.430262 501.336396 
L 179.222764 501.83323 
L 182.015267 497.214084 
L 184.80777 499.731061 
L 187.600272 501.561378 
L 190.392775 504.959532 
L 193.185278 507.729614 
L 195.97778 509.723979 
L 198.770283 514.291567 
L 201.562785 521.59174 
L 204.355288 524.263392 
L 207.147791 528.3693 
L 209.940293 531.924472 
L 212.732796 536.864685 
L 215.525298 541.418212 
L 218.317801 542.646235 
L 221.110304 543.496945 
L 223.902806 545.282734 
L 229.487812 546.562315 
L 232.280314 547.766902 
L 235.072817 550.211229 
L 237.865319 553.853113 
L 246.242827 558.819106 
L 251.827832 563.053909 
L 254.620335 564.68971 
L 257.412838 567.291056 
L 260.20534 569.503372 
L 262.997843 570.297837 
L 265.790345 571.373528 
L 268.582848 572.210177 
L 271.375351 572.664827 
L 274.167853 573.672555 
L 276.960356 572.955428 
L 279.752859 573.250715 
L 282.545361 574.00534 
L 285.337864 573.424139 
L 288.130366 573.773328 
L 290.922869 574.595916 
L 293.715372 575.289608 
L 296.507874 576.768391 
L 299.300377 576.96525 
L 302.092879 577.000403 
L 304.885382 577.984696 
L 307.677885 577.987039 
L 310.470387 578.427628 
L 313.26289 579.489258 
L 316.055393 579.447074 
L 318.847895 579.803294 
L 324.4329 580.117331 
L 330.017906 582.05545 
L 332.810408 581.396912 
L 335.602911 581.162556 
L 338.395413 581.502372 
L 341.187916 581.399255 
L 343.980419 581.912494 
L 346.772921 581.959365 
L 349.565424 581.863279 
L 352.357926 582.411671 
L 355.150429 583.187387 
L 357.942932 583.152234 
L 360.735434 583.431117 
L 363.527937 583.11005 
L 366.32044 583.166295 
L 369.112942 582.788983 
L 371.905445 583.372528 
L 380.282953 583.688908 
L 388.66046 583.501424 
L 391.452963 582.301524 
L 394.245466 581.708604 
L 397.037968 580.67744 
L 399.830471 579.868914 
L 402.622973 579.57597 
L 405.415476 579.008829 
L 408.207979 578.891652 
L 411.000481 579.578313 
L 413.792984 579.376767 
L 416.585487 580.386839 
L 419.377989 581.031317 
L 422.170492 581.043035 
L 427.755497 581.624236 
L 430.548 581.696887 
L 433.340502 582.317929 
L 438.925507 582.458542 
L 444.510513 582.873351 
L 452.888021 583.238946 
L 455.680523 583.217854 
L 458.473026 583.358467 
L 461.265528 583.306909 
L 464.058031 583.414712 
L 466.850534 583.199105 
L 472.435539 582.40464 
L 475.228041 582.512444 
L 486.398052 581.720322 
L 491.983057 580.586042 
L 500.360565 579.871257 
L 503.153068 579.33224 
L 505.94557 578.551836 
L 508.738073 578.422941 
L 511.530575 578.015162 
L 514.323078 578.167493 
L 517.115581 577.771432 
L 519.908083 577.194918 
L 522.700586 577.061335 
L 525.493088 576.726207 
L 528.285591 576.077042 
L 531.078094 575.685669 
L 533.870596 574.947449 
L 536.663099 575.118529 
L 539.455601 574.914639 
L 542.248104 573.778015 
L 545.040607 572.840593 
L 550.625612 571.446178 
L 553.418115 571.28213 
L 556.210617 570.989185 
L 559.00312 569.995518 
L 564.588125 568.715937 
L 567.380628 568.767495 
L 570.17313 567.316835 
L 575.758135 566.597364 
L 578.550638 566.859842 
L 581.343141 566.705167 
L 584.135643 567.173878 
L 586.928146 566.836406 
L 589.720649 568.137079 
L 592.513151 568.130048 
L 598.098156 568.507361 
L 600.890659 569.257298 
L 603.683162 569.716635 
L 609.268167 570.229873 
L 614.853172 569.276047 
L 617.645675 568.617508 
L 620.438177 568.804992 
L 623.23068 567.443387 
L 626.023182 567.370737 
L 628.815685 566.780161 
L 631.608188 566.873903 
L 634.40069 566.609081 
L 637.193193 566.824689 
L 639.985696 565.125611 
L 642.778198 564.417858 
L 645.570701 563.405442 
L 648.363203 561.842291 
L 651.155706 560.9119 
L 653.948209 560.923618 
L 656.740711 559.953386 
L 659.533214 560.262735 
L 662.325716 560.382257 
L 667.910722 559.334688 
L 670.703224 559.182357 
L 676.288229 557.921524 
L 679.080732 557.853561 
L 681.873235 557.009881 
L 684.665737 555.791233 
L 687.45824 555.659994 
L 690.250743 553.623445 
L 693.043245 553.17817 
L 695.835748 551.889215 
L 698.62825 549.475353 
L 701.420753 545.831126 
L 704.213256 541.511954 
L 707.005758 536.454563 
L 709.798261 533.632924 
L 712.590763 531.090167 
L 715.383266 527.614675 
L 718.175769 522.215125 
L 720.968271 516.168754 
L 723.760774 509.564617 
L 726.553277 502.278505 
L 729.345779 497.347666 
L 732.138282 492.993342 
L 734.930784 486.557941 
L 737.723287 480.785765 
L 740.51579 469.89058 
L 743.308292 460.731968 
L 746.100795 444.598937 
L 748.893297 431.50081 
L 751.6858 421.282912 
L 754.478303 410.64083 
L 757.270805 393.371176 
L 760.063308 380.512091 
L 762.85581 363.078388 
L 765.648313 352.895643 
L 768.440816 345.862635 
L 771.233318 337.866426 
L 774.025821 328.62579 
L 776.818324 323.352792 
L 779.610826 315.81592 
L 782.403329 309.195378 
L 785.195831 299.024351 
L 787.988334 294.71221 
L 790.780837 291.74527 
L 793.573339 291.792141 
L 796.365842 288.808796 
L 799.158344 284.412288 
L 801.950847 279.64081 
L 804.74335 281.839064 
L 807.535852 279.659559 
L 810.328355 285.609844 
L 815.91336 289.919641 
L 818.705863 288.17838 
L 821.498365 287.929963 
L 824.290868 286.751155 
L 827.083371 289.577482 
L 829.875873 289.48374 
L 832.668376 291.510915 
L 835.460878 288.998624 
L 838.253381 289.797776 
L 841.045884 291.771049 
L 843.838386 294.74502 
L 846.630889 297.393237 
L 849.423391 296.678453 
L 852.215894 296.561275 
L 855.008397 299.75554 
L 857.800899 300.275809 
L 860.593402 298.768904 
L 863.385905 294.965314 
L 866.178407 287.569056 
L 868.97091 284.843502 
L 871.763412 283.788902 
L 874.555915 275.481001 
L 877.348418 271.653976 
L 880.14092 256.594293 
L 882.933423 244.595293 
L 885.725925 238.893425 
L 888.518428 229.448899 
L 891.310931 228.563036 
L 894.103433 212.362042 
L 896.895936 204.759551 
L 899.688438 195.615 
L 902.480941 188.907747 
L 905.273444 182.882468 
L 908.065946 182.223929 
L 910.858449 170.281174 
L 913.650952 177.283716 
L 916.443454 164.928495 
L 919.235957 184.24876 
L 922.028459 223.725939 
L 924.820962 244.855428 
L 927.613465 258.136352 
L 930.405967 273.688181 
L 933.19847 279.03383 
L 935.990972 278.19718 
L 938.783475 284.311515 
L 941.575978 288.447889 
L 944.36848 296.509717 
L 947.160983 299.15559 
L 949.953486 301.487427 
L 952.745988 304.351251 
L 955.538491 318.789891 
L 958.330993 297.873666 
L 961.123496 269.741635 
L 963.915999 254.154653 
L 966.708501 247.991104 
L 969.501004 245.870187 
L 972.293506 249.706586 
L 975.086009 252.582128 
L 977.878512 274.80137 
L 980.671014 288.900195 
L 983.463517 296.127717 
L 986.256019 308.632925 
L 989.048522 311.991239 
L 991.841025 320.488968 
L 994.633527 331.65835 
L 997.42603 342.218407 
L 1000.218533 347.517185 
L 1003.011035 351.325461 
L 1005.803538 352.291005 
L 1008.59604 363.908006 
L 1014.181046 377.081127 
L 1016.973548 386.080377 
L 1019.766051 395.679577 
L 1025.351056 400.802587 
L 1028.143559 401.500967 
L 1030.936061 409.696377 
L 1033.728564 417.519163 
L 1036.521066 420.129883 
L 1039.313569 424.432649 
L 1042.106072 430.469646 
L 1044.898574 432.98428 
L 1047.691077 439.393902 
L 1050.48358 443.220927 
L 1050.48358 443.220927 
" style="fill:none;stroke:#000000;stroke-linecap:square;stroke-width:1.5;"/>
   </g>
   <g id="line2d_51">
    <path clip-path="url(#p10c6188e07)" d="M 78.69267 588.134631 
L 81.485173 588.823636 
L 84.277676 587.970582 
L 87.070178 588.544753 
L 89.862681 588.33149 
L 92.655184 587.921368 
L 95.447686 586.740216 
L 98.240189 585.083323 
L 101.032691 586.444928 
L 103.825194 587.248768 
L 106.617697 585.116133 
L 109.410199 586.428523 
L 112.202702 584.558367 
L 114.995204 575.847374 
L 117.787707 577.635506 
L 120.58021 576.979311 
L 123.372712 571.893797 
L 126.165215 569.744758 
L 128.957717 570.236904 
L 131.75022 571.910202 
L 134.542723 543.054013 
L 137.335225 540.478447 
L 140.127728 544.628882 
L 142.920231 557.047378 
L 145.712733 522.367456 
L 148.505236 510.851228 
L 151.297738 521.448783 
L 156.882744 494.183867 
L 159.675246 485.751758 
L 162.467749 523.95873 
L 165.260251 511.064492 
L 168.052754 513.295556 
L 170.845257 499.548264 
L 173.637759 488.015632 
L 176.430262 487.720344 
L 179.222764 489.229593 
L 182.015267 491.624706 
L 184.80777 528.683336 
L 187.600272 526.107769 
L 190.392775 523.335344 
L 193.185278 507.406203 
L 195.97778 501.680899 
L 198.770283 521.202709 
L 201.562785 542.725916 
L 204.355288 547.384902 
L 207.147791 554.849124 
L 209.940293 548.221551 
L 212.732796 541.987696 
L 215.525298 533.555586 
L 218.317801 529.798868 
L 221.110304 548.680888 
L 223.902806 559.885423 
L 226.695309 559.721374 
L 229.487812 552.306367 
L 232.280314 550.419806 
L 235.072817 550.665879 
L 237.865319 555.292056 
L 240.657822 560.508809 
L 243.450325 572.303919 
L 246.242827 570.236904 
L 249.03533 567.612123 
L 251.827832 564.757673 
L 254.620335 562.116487 
L 257.412838 573.501476 
L 260.20534 575.995018 
L 262.997843 577.865175 
L 265.790345 577.766745 
L 268.582848 573.468666 
L 271.375351 567.940221 
L 274.167853 569.170587 
L 276.960356 568.481582 
L 279.752859 578.062033 
L 282.545361 583.147547 
L 285.337864 573.698334 
L 288.130366 575.912994 
L 290.922869 573.698334 
L 293.715372 574.026432 
L 296.507874 578.833063 
L 299.300377 579.440043 
L 302.092879 583.39362 
L 304.885382 580.588385 
L 307.677885 575.929398 
L 310.470387 576.782452 
L 313.26289 581.457844 
L 316.055393 578.537775 
L 318.847895 581.933586 
L 321.640398 584.263079 
L 324.4329 581.917181 
L 327.225403 583.065522 
L 330.017906 583.213166 
L 332.810408 576.848072 
L 335.602911 576.897287 
L 338.395413 584.312294 
L 341.187916 583.541264 
L 343.980419 585.50985 
L 346.772921 583.39362 
L 349.565424 582.540566 
L 352.357926 580.686814 
L 360.735434 585.493445 
L 363.527937 583.262381 
L 366.32044 583.787337 
L 369.112942 579.89938 
L 371.905445 584.77163 
L 374.697947 583.295191 
L 377.49045 584.952084 
L 380.282953 585.854353 
L 383.075455 582.803044 
L 385.867958 583.344406 
L 388.66046 579.489258 
L 391.452963 576.37233 
L 394.245466 579.144756 
L 397.037968 577.733936 
L 399.830471 580.194668 
L 402.622973 580.752434 
L 405.415476 579.374424 
L 408.207979 578.669014 
L 411.000481 581.178961 
L 413.792984 577.733936 
L 416.585487 584.80444 
L 419.377989 584.706011 
L 422.170492 580.834458 
L 424.962994 581.359415 
L 427.755497 580.752434 
L 430.548 581.687512 
L 433.340502 582.08123 
L 436.133005 585.083323 
L 438.925507 585.411421 
L 441.71801 582.606186 
L 444.510513 582.491352 
L 447.303015 581.753132 
L 450.095518 582.524161 
L 452.888021 582.803044 
L 455.680523 584.935679 
L 458.473026 586.395714 
L 461.265528 582.245278 
L 464.058031 583.245976 
L 466.850534 580.243883 
L 469.643036 579.440043 
L 472.435539 580.325907 
L 475.228041 585.690304 
L 478.020544 584.919274 
L 480.813047 580.440741 
L 483.605549 581.556273 
L 486.398052 579.669712 
L 489.190554 575.634111 
L 491.983057 576.191877 
L 494.77556 584.000601 
L 497.568062 583.42643 
L 500.360565 578.619799 
L 503.153068 577.78315 
L 505.94557 574.206886 
L 508.738073 574.731842 
L 511.530575 573.337427 
L 514.323078 585.066918 
L 517.115581 580.654005 
L 519.908083 574.584198 
L 522.700586 576.848072 
L 525.493088 571.860988 
L 528.285591 570.187689 
L 531.078094 570.597812 
L 533.870596 579.89938 
L 536.663099 581.851561 
L 539.455601 573.156973 
L 542.248104 568.891704 
L 545.040607 565.299034 
L 547.833109 565.233415 
L 550.625612 565.791181 
L 553.418115 578.751038 
L 556.210617 579.800951 
L 559.00312 566.201303 
L 561.795622 564.232717 
L 564.588125 561.000955 
L 567.380628 565.594322 
L 570.17313 555.636558 
L 572.965633 576.175472 
L 575.758135 577.340218 
L 578.550638 568.03865 
L 581.343141 563.149995 
L 584.135643 564.281932 
L 586.928146 563.232019 
L 589.720649 564.741268 
L 592.513151 576.126257 
L 595.305654 578.997112 
L 598.098156 569.022943 
L 600.890659 568.399557 
L 603.683162 567.497289 
L 606.475664 565.167795 
L 609.268167 566.398162 
L 612.060669 572.796066 
L 614.853172 575.650515 
L 617.645675 564.413171 
L 620.438177 569.711948 
L 623.23068 557.966052 
L 626.023182 564.659244 
L 628.815685 562.264131 
L 631.608188 573.452261 
L 634.40069 573.796764 
L 639.985696 557.818408 
L 642.778198 553.011777 
L 645.570701 557.572335 
L 648.363203 551.322074 
L 651.155706 566.939523 
L 653.948209 573.878788 
L 656.740711 559.130798 
L 659.533214 559.983852 
L 662.325716 553.848426 
L 665.118219 553.684377 
L 667.910722 547.877049 
L 670.703224 565.873205 
L 673.495727 569.44947 
L 676.288229 554.73429 
L 679.080732 559.508111 
L 681.873235 547.942668 
L 684.665737 545.153838 
L 687.45824 546.958375 
L 690.250743 551.617362 
L 693.043245 566.332542 
L 695.835748 545.711604 
L 698.62825 542.611082 
L 701.420753 522.433076 
L 704.213256 514.919639 
L 707.005758 511.556638 
L 709.798261 531.865883 
L 712.590763 548.533244 
L 715.383266 521.383163 
L 718.175769 504.814232 
L 720.968271 480.108478 
L 723.760774 468.69068 
L 726.553277 460.553858 
L 729.345779 497.35001 
L 732.138282 518.052972 
L 734.930784 476.335355 
L 737.723287 464.409005 
L 740.51579 403.842178 
L 743.308292 404.580398 
L 746.100795 347.622645 
L 748.893297 405.66312 
L 751.6858 446.527683 
L 754.478303 401.840782 
L 757.270805 343.521424 
L 760.063308 313.828586 
L 762.85581 282.544474 
L 765.648313 276.343429 
L 768.440816 356.432067 
L 771.233318 390.554223 
L 774.025821 337.156329 
L 776.818324 306.610438 
L 779.610826 261.070483 
L 782.403329 236.200681 
L 785.195831 205.146237 
L 787.988334 326.247082 
L 790.780837 369.785641 
L 793.573339 337.484427 
L 796.365842 285.727022 
L 799.158344 230.294923 
L 801.950847 202.800339 
L 804.74335 220.534017 
L 807.535852 310.990541 
L 810.328355 411.437639 
L 813.120857 352.462085 
L 815.91336 300.917943 
L 818.705863 218.106095 
L 821.498365 201.061422 
L 824.290868 212.282361 
L 827.083371 330.77483 
L 829.875873 410.781443 
L 832.668376 366.652309 
L 835.460878 283.331909 
L 838.253381 223.70016 
L 841.045884 214.874333 
L 843.838386 233.100158 
L 846.630889 349.312347 
L 849.423391 405.777954 
L 852.215894 365.832064 
L 855.008397 305.691764 
L 857.800899 227.342044 
L 860.593402 204.325993 
L 863.385905 206.475033 
L 868.97091 386.699075 
L 871.763412 358.449867 
L 874.555915 247.536455 
L 877.348418 200.55287 
L 880.14092 98.908216 
L 882.933423 122.482033 
L 885.725925 257.625457 
L 888.518428 320.587398 
L 891.310931 352.248821 
L 894.103433 134.1295 
L 896.895936 147.33543 
L 899.688438 34.896364 
L 902.480941 75.531258 
L 905.273444 215.448504 
L 908.065946 315.977626 
L 910.858449 268.649539 
L 913.650952 183.14729 
L 916.443454 60.848888 
L 919.235957 170.138217 
L 922.028459 351.871509 
L 924.820962 363.354927 
L 927.613465 408.944096 
L 930.405967 377.512341 
L 933.19847 220.566827 
L 935.990972 54.992345 
L 938.783475 212.938557 
L 941.575978 380.826127 
L 944.36848 419.787724 
L 947.160983 427.465209 
L 949.953486 393.835199 
L 952.745988 240.613594 
L 955.538491 156.062828 
L 958.330993 66.524978 
L 961.123496 183.901914 
L 963.915999 310.678848 
L 966.708501 384.320367 
L 969.501004 378.98878 
L 972.293506 267.468387 
L 975.086009 176.191619 
L 977.878512 222.059672 
L 980.671014 282.593689 
L 983.463517 361.271507 
L 986.256019 471.856822 
L 989.048522 402.496977 
L 994.633527 254.377291 
L 997.42603 295.980073 
L 1000.218533 319.685129 
L 1003.011035 387.929442 
L 1005.803538 478.615634 
L 1008.59604 483.815982 
L 1011.388543 372.426827 
L 1014.181046 301.114802 
L 1016.973548 358.974823 
L 1019.766051 386.879529 
L 1022.558553 405.400642 
L 1025.351056 497.005507 
L 1028.143559 488.704637 
L 1030.936061 429.794702 
L 1033.728564 355.874301 
L 1036.521066 377.249863 
L 1039.313569 416.998894 
L 1042.106072 447.65962 
L 1044.898574 514.607947 
L 1047.691077 533.571991 
L 1050.48358 456.583876 
L 1050.48358 456.583876 
" style="fill:none;stroke:#000000;stroke-dasharray:1.5,2.475;stroke-dashoffset:0;stroke-width:1.5;"/>
   </g>
   <g id="patch_7">
    <path d="M 30.103125 616.52 
L 30.103125 7.2 
" style="fill:none;stroke:#ffffff;stroke-linecap:square;stroke-linejoin:miter;"/>
   </g>
   <g id="patch_8">
    <path d="M 1099.073125 616.52 
L 1099.073125 7.2 
" style="fill:none;stroke:#ffffff;stroke-linecap:square;stroke-linejoin:miter;"/>
   </g>
   <g id="patch_9">
    <path d="M 30.103125 616.52 
L 1099.073125 616.52 
" style="fill:none;stroke:#ffffff;stroke-linecap:square;stroke-linejoin:miter;"/>
   </g>
   <g id="patch_10">
    <path d="M 30.103125 7.2 
L 1099.073125 7.2 
" style="fill:none;stroke:#ffffff;stroke-linecap:square;stroke-linejoin:miter;"/>
   </g>
   <g id="legend_1">
    <g id="patch_11">
     <path d="M 37.103125 103.26875 
L 194.298438 103.26875 
Q 196.298438 103.26875 196.298438 101.26875 
L 196.298438 14.2 
Q 196.298438 12.2 194.298438 12.2 
L 37.103125 12.2 
Q 35.103125 12.2 35.103125 14.2 
L 35.103125 101.26875 
Q 35.103125 103.26875 37.103125 103.26875 
z
" style="fill:#e5e5e5;opacity:0.8;stroke:#cccccc;stroke-linejoin:miter;stroke-width:0.5;"/>
    </g>
    <g id="line2d_52">
     <path d="M 39.103125 20.298437 
L 59.103125 20.298437 
" style="fill:none;stroke:#e24a33;stroke-linecap:square;stroke-width:1.5;"/>
    </g>
    <g id="line2d_53"/>
    <g id="text_23">
     <!-- Logistic rate rolling week -->
     <g transform="translate(67.103125 23.798437)scale(0.1 -0.1)">
      <defs>
       <path d="M 9.8125 72.90625 
L 19.671875 72.90625 
L 19.671875 8.296875 
L 55.171875 8.296875 
L 55.171875 0 
L 9.8125 0 
z
" id="DejaVuSans-76"/>
       <path d="M 30.609375 48.390625 
Q 23.390625 48.390625 19.1875 42.75 
Q 14.984375 37.109375 14.984375 27.296875 
Q 14.984375 17.484375 19.15625 11.84375 
Q 23.34375 6.203125 30.609375 6.203125 
Q 37.796875 6.203125 41.984375 11.859375 
Q 46.1875 17.53125 46.1875 27.296875 
Q 46.1875 37.015625 41.984375 42.703125 
Q 37.796875 48.390625 30.609375 48.390625 
z
M 30.609375 56 
Q 42.328125 56 49.015625 48.375 
Q 55.71875 40.765625 55.71875 27.296875 
Q 55.71875 13.875 49.015625 6.21875 
Q 42.328125 -1.421875 30.609375 -1.421875 
Q 18.84375 -1.421875 12.171875 6.21875 
Q 5.515625 13.875 5.515625 27.296875 
Q 5.515625 40.765625 12.171875 48.375 
Q 18.84375 56 30.609375 56 
z
" id="DejaVuSans-111"/>
       <path d="M 45.40625 27.984375 
Q 45.40625 37.75 41.375 43.109375 
Q 37.359375 48.484375 30.078125 48.484375 
Q 22.859375 48.484375 18.828125 43.109375 
Q 14.796875 37.75 14.796875 27.984375 
Q 14.796875 18.265625 18.828125 12.890625 
Q 22.859375 7.515625 30.078125 7.515625 
Q 37.359375 7.515625 41.375 12.890625 
Q 45.40625 18.265625 45.40625 27.984375 
z
M 54.390625 6.78125 
Q 54.390625 -7.171875 48.1875 -13.984375 
Q 42 -20.796875 29.203125 -20.796875 
Q 24.46875 -20.796875 20.265625 -20.09375 
Q 16.0625 -19.390625 12.109375 -17.921875 
L 12.109375 -9.1875 
Q 16.0625 -11.328125 19.921875 -12.34375 
Q 23.78125 -13.375 27.78125 -13.375 
Q 36.625 -13.375 41.015625 -8.765625 
Q 45.40625 -4.15625 45.40625 5.171875 
L 45.40625 9.625 
Q 42.625 4.78125 38.28125 2.390625 
Q 33.9375 0 27.875 0 
Q 17.828125 0 11.671875 7.65625 
Q 5.515625 15.328125 5.515625 27.984375 
Q 5.515625 40.671875 11.671875 48.328125 
Q 17.828125 56 27.875 56 
Q 33.9375 56 38.28125 53.609375 
Q 42.625 51.21875 45.40625 46.390625 
L 45.40625 54.6875 
L 54.390625 54.6875 
z
" id="DejaVuSans-103"/>
       <path d="M 9.421875 54.6875 
L 18.40625 54.6875 
L 18.40625 0 
L 9.421875 0 
z
M 9.421875 75.984375 
L 18.40625 75.984375 
L 18.40625 64.59375 
L 9.421875 64.59375 
z
" id="DejaVuSans-105"/>
       <path d="M 44.28125 53.078125 
L 44.28125 44.578125 
Q 40.484375 46.53125 36.375 47.5 
Q 32.28125 48.484375 27.875 48.484375 
Q 21.1875 48.484375 17.84375 46.4375 
Q 14.5 44.390625 14.5 40.28125 
Q 14.5 37.15625 16.890625 35.375 
Q 19.28125 33.59375 26.515625 31.984375 
L 29.59375 31.296875 
Q 39.15625 29.25 43.1875 25.515625 
Q 47.21875 21.78125 47.21875 15.09375 
Q 47.21875 7.46875 41.1875 3.015625 
Q 35.15625 -1.421875 24.609375 -1.421875 
Q 20.21875 -1.421875 15.453125 -0.5625 
Q 10.6875 0.296875 5.421875 2 
L 5.421875 11.28125 
Q 10.40625 8.6875 15.234375 7.390625 
Q 20.0625 6.109375 24.8125 6.109375 
Q 31.15625 6.109375 34.5625 8.28125 
Q 37.984375 10.453125 37.984375 14.40625 
Q 37.984375 18.0625 35.515625 20.015625 
Q 33.0625 21.96875 24.703125 23.78125 
L 21.578125 24.515625 
Q 13.234375 26.265625 9.515625 29.90625 
Q 5.8125 33.546875 5.8125 39.890625 
Q 5.8125 47.609375 11.28125 51.796875 
Q 16.75 56 26.8125 56 
Q 31.78125 56 36.171875 55.265625 
Q 40.578125 54.546875 44.28125 53.078125 
z
" id="DejaVuSans-115"/>
       <path d="M 18.3125 70.21875 
L 18.3125 54.6875 
L 36.8125 54.6875 
L 36.8125 47.703125 
L 18.3125 47.703125 
L 18.3125 18.015625 
Q 18.3125 11.328125 20.140625 9.421875 
Q 21.96875 7.515625 27.59375 7.515625 
L 36.8125 7.515625 
L 36.8125 0 
L 27.59375 0 
Q 17.1875 0 13.234375 3.875 
Q 9.28125 7.765625 9.28125 18.015625 
L 9.28125 47.703125 
L 2.6875 47.703125 
L 2.6875 54.6875 
L 9.28125 54.6875 
L 9.28125 70.21875 
z
" id="DejaVuSans-116"/>
       <path d="M 48.78125 52.59375 
L 48.78125 44.1875 
Q 44.96875 46.296875 41.140625 47.34375 
Q 37.3125 48.390625 33.40625 48.390625 
Q 24.65625 48.390625 19.8125 42.84375 
Q 14.984375 37.3125 14.984375 27.296875 
Q 14.984375 17.28125 19.8125 11.734375 
Q 24.65625 6.203125 33.40625 6.203125 
Q 37.3125 6.203125 41.140625 7.25 
Q 44.96875 8.296875 48.78125 10.40625 
L 48.78125 2.09375 
Q 45.015625 0.34375 40.984375 -0.53125 
Q 36.96875 -1.421875 32.421875 -1.421875 
Q 20.0625 -1.421875 12.78125 6.34375 
Q 5.515625 14.109375 5.515625 27.296875 
Q 5.515625 40.671875 12.859375 48.328125 
Q 20.21875 56 33.015625 56 
Q 37.15625 56 41.109375 55.140625 
Q 45.0625 54.296875 48.78125 52.59375 
z
" id="DejaVuSans-99"/>
       <path id="DejaVuSans-32"/>
       <path d="M 41.109375 46.296875 
Q 39.59375 47.171875 37.8125 47.578125 
Q 36.03125 48 33.890625 48 
Q 26.265625 48 22.1875 43.046875 
Q 18.109375 38.09375 18.109375 28.8125 
L 18.109375 0 
L 9.078125 0 
L 9.078125 54.6875 
L 18.109375 54.6875 
L 18.109375 46.1875 
Q 20.953125 51.171875 25.484375 53.578125 
Q 30.03125 56 36.53125 56 
Q 37.453125 56 38.578125 55.875 
Q 39.703125 55.765625 41.0625 55.515625 
z
" id="DejaVuSans-114"/>
       <path d="M 34.28125 27.484375 
Q 23.390625 27.484375 19.1875 25 
Q 14.984375 22.515625 14.984375 16.5 
Q 14.984375 11.71875 18.140625 8.90625 
Q 21.296875 6.109375 26.703125 6.109375 
Q 34.1875 6.109375 38.703125 11.40625 
Q 43.21875 16.703125 43.21875 25.484375 
L 43.21875 27.484375 
z
M 52.203125 31.203125 
L 52.203125 0 
L 43.21875 0 
L 43.21875 8.296875 
Q 40.140625 3.328125 35.546875 0.953125 
Q 30.953125 -1.421875 24.3125 -1.421875 
Q 15.921875 -1.421875 10.953125 3.296875 
Q 6 8.015625 6 15.921875 
Q 6 25.140625 12.171875 29.828125 
Q 18.359375 34.515625 30.609375 34.515625 
L 43.21875 34.515625 
L 43.21875 35.40625 
Q 43.21875 41.609375 39.140625 45 
Q 35.0625 48.390625 27.6875 48.390625 
Q 23 48.390625 18.546875 47.265625 
Q 14.109375 46.140625 10.015625 43.890625 
L 10.015625 52.203125 
Q 14.9375 54.109375 19.578125 55.046875 
Q 24.21875 56 28.609375 56 
Q 40.484375 56 46.34375 49.84375 
Q 52.203125 43.703125 52.203125 31.203125 
z
" id="DejaVuSans-97"/>
       <path d="M 56.203125 29.59375 
L 56.203125 25.203125 
L 14.890625 25.203125 
Q 15.484375 15.921875 20.484375 11.0625 
Q 25.484375 6.203125 34.421875 6.203125 
Q 39.59375 6.203125 44.453125 7.46875 
Q 49.3125 8.734375 54.109375 11.28125 
L 54.109375 2.78125 
Q 49.265625 0.734375 44.1875 -0.34375 
Q 39.109375 -1.421875 33.890625 -1.421875 
Q 20.796875 -1.421875 13.15625 6.1875 
Q 5.515625 13.8125 5.515625 26.8125 
Q 5.515625 40.234375 12.765625 48.109375 
Q 20.015625 56 32.328125 56 
Q 43.359375 56 49.78125 48.890625 
Q 56.203125 41.796875 56.203125 29.59375 
z
M 47.21875 32.234375 
Q 47.125 39.59375 43.09375 43.984375 
Q 39.0625 48.390625 32.421875 48.390625 
Q 24.90625 48.390625 20.390625 44.140625 
Q 15.875 39.890625 15.1875 32.171875 
z
" id="DejaVuSans-101"/>
       <path d="M 9.421875 75.984375 
L 18.40625 75.984375 
L 18.40625 0 
L 9.421875 0 
z
" id="DejaVuSans-108"/>
       <path d="M 54.890625 33.015625 
L 54.890625 0 
L 45.90625 0 
L 45.90625 32.71875 
Q 45.90625 40.484375 42.875 44.328125 
Q 39.84375 48.1875 33.796875 48.1875 
Q 26.515625 48.1875 22.3125 43.546875 
Q 18.109375 38.921875 18.109375 30.90625 
L 18.109375 0 
L 9.078125 0 
L 9.078125 54.6875 
L 18.109375 54.6875 
L 18.109375 46.1875 
Q 21.34375 51.125 25.703125 53.5625 
Q 30.078125 56 35.796875 56 
Q 45.21875 56 50.046875 50.171875 
Q 54.890625 44.34375 54.890625 33.015625 
z
" id="DejaVuSans-110"/>
       <path d="M 4.203125 54.6875 
L 13.1875 54.6875 
L 24.421875 12.015625 
L 35.59375 54.6875 
L 46.1875 54.6875 
L 57.421875 12.015625 
L 68.609375 54.6875 
L 77.59375 54.6875 
L 63.28125 0 
L 52.6875 0 
L 40.921875 44.828125 
L 29.109375 0 
L 18.5 0 
z
" id="DejaVuSans-119"/>
       <path d="M 9.078125 75.984375 
L 18.109375 75.984375 
L 18.109375 31.109375 
L 44.921875 54.6875 
L 56.390625 54.6875 
L 27.390625 29.109375 
L 57.625 0 
L 45.90625 0 
L 18.109375 26.703125 
L 18.109375 0 
L 9.078125 0 
z
" id="DejaVuSans-107"/>
      </defs>
      <use xlink:href="#DejaVuSans-76"/>
      <use x="53.962891" xlink:href="#DejaVuSans-111"/>
      <use x="115.144531" xlink:href="#DejaVuSans-103"/>
      <use x="178.621094" xlink:href="#DejaVuSans-105"/>
      <use x="206.404297" xlink:href="#DejaVuSans-115"/>
      <use x="258.503906" xlink:href="#DejaVuSans-116"/>
      <use x="297.712891" xlink:href="#DejaVuSans-105"/>
      <use x="325.496094" xlink:href="#DejaVuSans-99"/>
      <use x="380.476562" xlink:href="#DejaVuSans-32"/>
      <use x="412.263672" xlink:href="#DejaVuSans-114"/>
      <use x="453.376953" xlink:href="#DejaVuSans-97"/>
      <use x="514.65625" xlink:href="#DejaVuSans-116"/>
      <use x="553.865234" xlink:href="#DejaVuSans-101"/>
      <use x="615.388672" xlink:href="#DejaVuSans-32"/>
      <use x="647.175781" xlink:href="#DejaVuSans-114"/>
      <use x="686.039062" xlink:href="#DejaVuSans-111"/>
      <use x="747.220703" xlink:href="#DejaVuSans-108"/>
      <use x="775.003906" xlink:href="#DejaVuSans-108"/>
      <use x="802.787109" xlink:href="#DejaVuSans-105"/>
      <use x="830.570312" xlink:href="#DejaVuSans-110"/>
      <use x="893.949219" xlink:href="#DejaVuSans-103"/>
      <use x="957.425781" xlink:href="#DejaVuSans-32"/>
      <use x="989.212891" xlink:href="#DejaVuSans-119"/>
      <use x="1071" xlink:href="#DejaVuSans-101"/>
      <use x="1132.523438" xlink:href="#DejaVuSans-101"/>
      <use x="1194.046875" xlink:href="#DejaVuSans-107"/>
     </g>
    </g>
    <g id="line2d_54">
     <path d="M 39.103125 34.976562 
L 59.103125 34.976562 
" style="fill:none;stroke:#e24a33;stroke-dasharray:1.5,2.475;stroke-dashoffset:0;stroke-width:1.5;"/>
    </g>
    <g id="line2d_55"/>
    <g id="text_24">
     <!-- Logistic rate -->
     <g transform="translate(67.103125 38.476562)scale(0.1 -0.1)">
      <use xlink:href="#DejaVuSans-76"/>
      <use x="53.962891" xlink:href="#DejaVuSans-111"/>
      <use x="115.144531" xlink:href="#DejaVuSans-103"/>
      <use x="178.621094" xlink:href="#DejaVuSans-105"/>
      <use x="206.404297" xlink:href="#DejaVuSans-115"/>
      <use x="258.503906" xlink:href="#DejaVuSans-116"/>
      <use x="297.712891" xlink:href="#DejaVuSans-105"/>
      <use x="325.496094" xlink:href="#DejaVuSans-99"/>
      <use x="380.476562" xlink:href="#DejaVuSans-32"/>
      <use x="412.263672" xlink:href="#DejaVuSans-114"/>
      <use x="453.376953" xlink:href="#DejaVuSans-97"/>
      <use x="514.65625" xlink:href="#DejaVuSans-116"/>
      <use x="553.865234" xlink:href="#DejaVuSans-101"/>
     </g>
    </g>
    <g id="line2d_56">
     <path d="M 39.103125 49.654687 
L 59.103125 49.654687 
" style="fill:none;stroke:#348abd;stroke-linecap:square;stroke-width:1.5;"/>
    </g>
    <g id="line2d_57"/>
    <g id="text_25">
     <!-- RKI rate rolling week -->
     <g transform="translate(67.103125 53.154687)scale(0.1 -0.1)">
      <defs>
       <path d="M 44.390625 34.1875 
Q 47.5625 33.109375 50.5625 29.59375 
Q 53.5625 26.078125 56.59375 19.921875 
L 66.609375 0 
L 56 0 
L 46.6875 18.703125 
Q 43.0625 26.03125 39.671875 28.421875 
Q 36.28125 30.8125 30.421875 30.8125 
L 19.671875 30.8125 
L 19.671875 0 
L 9.8125 0 
L 9.8125 72.90625 
L 32.078125 72.90625 
Q 44.578125 72.90625 50.734375 67.671875 
Q 56.890625 62.453125 56.890625 51.90625 
Q 56.890625 45.015625 53.6875 40.46875 
Q 50.484375 35.9375 44.390625 34.1875 
z
M 19.671875 64.796875 
L 19.671875 38.921875 
L 32.078125 38.921875 
Q 39.203125 38.921875 42.84375 42.21875 
Q 46.484375 45.515625 46.484375 51.90625 
Q 46.484375 58.296875 42.84375 61.546875 
Q 39.203125 64.796875 32.078125 64.796875 
z
" id="DejaVuSans-82"/>
       <path d="M 9.8125 72.90625 
L 19.671875 72.90625 
L 19.671875 42.09375 
L 52.390625 72.90625 
L 65.09375 72.90625 
L 28.90625 38.921875 
L 67.671875 0 
L 54.6875 0 
L 19.671875 35.109375 
L 19.671875 0 
L 9.8125 0 
z
" id="DejaVuSans-75"/>
       <path d="M 9.8125 72.90625 
L 19.671875 72.90625 
L 19.671875 0 
L 9.8125 0 
z
" id="DejaVuSans-73"/>
      </defs>
      <use xlink:href="#DejaVuSans-82"/>
      <use x="69.482422" xlink:href="#DejaVuSans-75"/>
      <use x="135.058594" xlink:href="#DejaVuSans-73"/>
      <use x="164.550781" xlink:href="#DejaVuSans-32"/>
      <use x="196.337891" xlink:href="#DejaVuSans-114"/>
      <use x="237.451172" xlink:href="#DejaVuSans-97"/>
      <use x="298.730469" xlink:href="#DejaVuSans-116"/>
      <use x="337.939453" xlink:href="#DejaVuSans-101"/>
      <use x="399.462891" xlink:href="#DejaVuSans-32"/>
      <use x="431.25" xlink:href="#DejaVuSans-114"/>
      <use x="470.113281" xlink:href="#DejaVuSans-111"/>
      <use x="531.294922" xlink:href="#DejaVuSans-108"/>
      <use x="559.078125" xlink:href="#DejaVuSans-108"/>
      <use x="586.861328" xlink:href="#DejaVuSans-105"/>
      <use x="614.644531" xlink:href="#DejaVuSans-110"/>
      <use x="678.023438" xlink:href="#DejaVuSans-103"/>
      <use x="741.5" xlink:href="#DejaVuSans-32"/>
      <use x="773.287109" xlink:href="#DejaVuSans-119"/>
      <use x="855.074219" xlink:href="#DejaVuSans-101"/>
      <use x="916.597656" xlink:href="#DejaVuSans-101"/>
      <use x="978.121094" xlink:href="#DejaVuSans-107"/>
     </g>
    </g>
    <g id="line2d_58">
     <path d="M 39.103125 64.332812 
L 59.103125 64.332812 
" style="fill:none;stroke:#348abd;stroke-dasharray:1.5,2.475;stroke-dashoffset:0;stroke-width:1.5;"/>
    </g>
    <g id="line2d_59"/>
    <g id="text_26">
     <!-- RKI rate -->
     <g transform="translate(67.103125 67.832812)scale(0.1 -0.1)">
      <use xlink:href="#DejaVuSans-82"/>
      <use x="69.482422" xlink:href="#DejaVuSans-75"/>
      <use x="135.058594" xlink:href="#DejaVuSans-73"/>
      <use x="164.550781" xlink:href="#DejaVuSans-32"/>
      <use x="196.337891" xlink:href="#DejaVuSans-114"/>
      <use x="237.451172" xlink:href="#DejaVuSans-97"/>
      <use x="298.730469" xlink:href="#DejaVuSans-116"/>
      <use x="337.939453" xlink:href="#DejaVuSans-101"/>
     </g>
    </g>
    <g id="line2d_60">
     <path d="M 39.103125 79.010937 
L 59.103125 79.010937 
" style="fill:none;stroke:#000000;stroke-linecap:square;stroke-width:1.5;"/>
    </g>
    <g id="line2d_61"/>
    <g id="text_27">
     <!-- New Cases rolling week -->
     <g transform="translate(67.103125 82.510937)scale(0.1 -0.1)">
      <defs>
       <path d="M 9.8125 72.90625 
L 23.09375 72.90625 
L 55.421875 11.921875 
L 55.421875 72.90625 
L 64.984375 72.90625 
L 64.984375 0 
L 51.703125 0 
L 19.390625 60.984375 
L 19.390625 0 
L 9.8125 0 
z
" id="DejaVuSans-78"/>
       <path d="M 64.40625 67.28125 
L 64.40625 56.890625 
Q 59.421875 61.53125 53.78125 63.8125 
Q 48.140625 66.109375 41.796875 66.109375 
Q 29.296875 66.109375 22.65625 58.46875 
Q 16.015625 50.828125 16.015625 36.375 
Q 16.015625 21.96875 22.65625 14.328125 
Q 29.296875 6.6875 41.796875 6.6875 
Q 48.140625 6.6875 53.78125 8.984375 
Q 59.421875 11.28125 64.40625 15.921875 
L 64.40625 5.609375 
Q 59.234375 2.09375 53.4375 0.328125 
Q 47.65625 -1.421875 41.21875 -1.421875 
Q 24.65625 -1.421875 15.125 8.703125 
Q 5.609375 18.84375 5.609375 36.375 
Q 5.609375 53.953125 15.125 64.078125 
Q 24.65625 74.21875 41.21875 74.21875 
Q 47.75 74.21875 53.53125 72.484375 
Q 59.328125 70.75 64.40625 67.28125 
z
" id="DejaVuSans-67"/>
      </defs>
      <use xlink:href="#DejaVuSans-78"/>
      <use x="74.804688" xlink:href="#DejaVuSans-101"/>
      <use x="136.328125" xlink:href="#DejaVuSans-119"/>
      <use x="218.115234" xlink:href="#DejaVuSans-32"/>
      <use x="249.902344" xlink:href="#DejaVuSans-67"/>
      <use x="319.726562" xlink:href="#DejaVuSans-97"/>
      <use x="381.005859" xlink:href="#DejaVuSans-115"/>
      <use x="433.105469" xlink:href="#DejaVuSans-101"/>
      <use x="494.628906" xlink:href="#DejaVuSans-115"/>
      <use x="546.728516" xlink:href="#DejaVuSans-32"/>
      <use x="578.515625" xlink:href="#DejaVuSans-114"/>
      <use x="617.378906" xlink:href="#DejaVuSans-111"/>
      <use x="678.560547" xlink:href="#DejaVuSans-108"/>
      <use x="706.34375" xlink:href="#DejaVuSans-108"/>
      <use x="734.126953" xlink:href="#DejaVuSans-105"/>
      <use x="761.910156" xlink:href="#DejaVuSans-110"/>
      <use x="825.289062" xlink:href="#DejaVuSans-103"/>
      <use x="888.765625" xlink:href="#DejaVuSans-32"/>
      <use x="920.552734" xlink:href="#DejaVuSans-119"/>
      <use x="1002.339844" xlink:href="#DejaVuSans-101"/>
      <use x="1063.863281" xlink:href="#DejaVuSans-101"/>
      <use x="1125.386719" xlink:href="#DejaVuSans-107"/>
     </g>
    </g>
    <g id="line2d_62">
     <path d="M 39.103125 93.689062 
L 59.103125 93.689062 
" style="fill:none;stroke:#000000;stroke-dasharray:1.5,2.475;stroke-dashoffset:0;stroke-width:1.5;"/>
    </g>
    <g id="line2d_63"/>
    <g id="text_28">
     <!-- New Cases -->
     <g transform="translate(67.103125 97.189062)scale(0.1 -0.1)">
      <use xlink:href="#DejaVuSans-78"/>
      <use x="74.804688" xlink:href="#DejaVuSans-101"/>
      <use x="136.328125" xlink:href="#DejaVuSans-119"/>
      <use x="218.115234" xlink:href="#DejaVuSans-32"/>
      <use x="249.902344" xlink:href="#DejaVuSans-67"/>
      <use x="319.726562" xlink:href="#DejaVuSans-97"/>
      <use x="381.005859" xlink:href="#DejaVuSans-115"/>
      <use x="433.105469" xlink:href="#DejaVuSans-101"/>
      <use x="494.628906" xlink:href="#DejaVuSans-115"/>
     </g>
    </g>
   </g>
  </g>
 </g>
 <defs>
  <clipPath id="p10c6188e07">
   <rect height="609.32" width="1068.97" x="30.103125" y="7.2"/>
  </clipPath>
 </defs>
</svg>
