<?xml version="1.0" encoding="utf-8" standalone="no"?>
<!DOCTYPE svg PUBLIC "-//W3C//DTD SVG 1.1//EN"
  "http://www.w3.org/Graphics/SVG/1.1/DTD/svg11.dtd">
<svg height="640.398125pt" version="1.1" viewBox="0 0 1145.085625 640.398125" width="1145.085625pt" xmlns="http://www.w3.org/2000/svg" xmlns:xlink="http://www.w3.org/1999/xlink">
 <metadata>
  <rdf:RDF xmlns:cc="http://creativecommons.org/ns#" xmlns:dc="http://purl.org/dc/elements/1.1/" xmlns:rdf="http://www.w3.org/1999/02/22-rdf-syntax-ns#">
   <cc:Work>
    <dc:type rdf:resource="http://purl.org/dc/dcmitype/StillImage"/>
    <dc:date>2021-05-22T13:01:02.671899</dc:date>
    <dc:format>image/svg+xml</dc:format>
    <dc:creator>
     <cc:Agent>
      <dc:title>Matplotlib v3.4.2, https://matplotlib.org/</dc:title>
     </cc:Agent>
    </dc:creator>
   </cc:Work>
  </rdf:RDF>
 </metadata>
 <defs>
  <style type="text/css">*{stroke-linecap:butt;stroke-linejoin:round;}</style>
 </defs>
 <g id="figure_1">
  <g id="patch_1">
   <path d="M 0 640.398125 
L 1145.085625 640.398125 
L 1145.085625 0 
L 0 0 
z
" style="fill:#ffffff;"/>
  </g>
  <g id="axes_1">
   <g id="patch_2">
    <path d="M 30.103125 616.52 
L 1099.073125 616.52 
L 1099.073125 7.2 
L 30.103125 7.2 
z
" style="fill:#e5e5e5;"/>
   </g>
   <g id="matplotlib.axis_1">
    <g id="xtick_1">
     <g id="line2d_1">
      <path clip-path="url(#pfae46adc71)" d="M 83.02136 616.52 
L 83.02136 7.2 
" style="fill:none;stroke:#ffffff;stroke-linecap:square;stroke-width:0.8;"/>
     </g>
     <g id="line2d_2">
      <defs>
       <path d="M 0 0 
L 0 3.5 
" id="m2124d60e22" style="stroke:#555555;stroke-width:0.8;"/>
      </defs>
      <g>
       <use style="fill:#555555;stroke:#555555;stroke-width:0.8;" x="83.02136" xlink:href="#m2124d60e22" y="616.52"/>
      </g>
     </g>
     <g id="text_1">
      <!-- 2020-03 -->
      <g style="fill:#555555;" transform="translate(62.129954 631.118437)scale(0.1 -0.1)">
       <defs>
        <path d="M 1228 531 
L 3431 531 
L 3431 0 
L 469 0 
L 469 531 
Q 828 903 1448 1529 
Q 2069 2156 2228 2338 
Q 2531 2678 2651 2914 
Q 2772 3150 2772 3378 
Q 2772 3750 2511 3984 
Q 2250 4219 1831 4219 
Q 1534 4219 1204 4116 
Q 875 4013 500 3803 
L 500 4441 
Q 881 4594 1212 4672 
Q 1544 4750 1819 4750 
Q 2544 4750 2975 4387 
Q 3406 4025 3406 3419 
Q 3406 3131 3298 2873 
Q 3191 2616 2906 2266 
Q 2828 2175 2409 1742 
Q 1991 1309 1228 531 
z
" id="DejaVuSans-32" transform="scale(0.015625)"/>
        <path d="M 2034 4250 
Q 1547 4250 1301 3770 
Q 1056 3291 1056 2328 
Q 1056 1369 1301 889 
Q 1547 409 2034 409 
Q 2525 409 2770 889 
Q 3016 1369 3016 2328 
Q 3016 3291 2770 3770 
Q 2525 4250 2034 4250 
z
M 2034 4750 
Q 2819 4750 3233 4129 
Q 3647 3509 3647 2328 
Q 3647 1150 3233 529 
Q 2819 -91 2034 -91 
Q 1250 -91 836 529 
Q 422 1150 422 2328 
Q 422 3509 836 4129 
Q 1250 4750 2034 4750 
z
" id="DejaVuSans-30" transform="scale(0.015625)"/>
        <path d="M 313 2009 
L 1997 2009 
L 1997 1497 
L 313 1497 
L 313 2009 
z
" id="DejaVuSans-2d" transform="scale(0.015625)"/>
        <path d="M 2597 2516 
Q 3050 2419 3304 2112 
Q 3559 1806 3559 1356 
Q 3559 666 3084 287 
Q 2609 -91 1734 -91 
Q 1441 -91 1130 -33 
Q 819 25 488 141 
L 488 750 
Q 750 597 1062 519 
Q 1375 441 1716 441 
Q 2309 441 2620 675 
Q 2931 909 2931 1356 
Q 2931 1769 2642 2001 
Q 2353 2234 1838 2234 
L 1294 2234 
L 1294 2753 
L 1863 2753 
Q 2328 2753 2575 2939 
Q 2822 3125 2822 3475 
Q 2822 3834 2567 4026 
Q 2313 4219 1838 4219 
Q 1578 4219 1281 4162 
Q 984 4106 628 3988 
L 628 4550 
Q 988 4650 1302 4700 
Q 1616 4750 1894 4750 
Q 2613 4750 3031 4423 
Q 3450 4097 3450 3541 
Q 3450 3153 3228 2886 
Q 3006 2619 2597 2516 
z
" id="DejaVuSans-33" transform="scale(0.015625)"/>
       </defs>
       <use xlink:href="#DejaVuSans-32"/>
       <use x="63.623047" xlink:href="#DejaVuSans-30"/>
       <use x="127.246094" xlink:href="#DejaVuSans-32"/>
       <use x="190.869141" xlink:href="#DejaVuSans-30"/>
       <use x="254.492188" xlink:href="#DejaVuSans-2d"/>
       <use x="290.576172" xlink:href="#DejaVuSans-30"/>
       <use x="354.199219" xlink:href="#DejaVuSans-33"/>
      </g>
     </g>
    </g>
    <g id="xtick_2">
     <g id="line2d_3">
      <path clip-path="url(#pfae46adc71)" d="M 215.046406 616.52 
L 215.046406 7.2 
" style="fill:none;stroke:#ffffff;stroke-linecap:square;stroke-width:0.8;"/>
     </g>
     <g id="line2d_4">
      <g>
       <use style="fill:#555555;stroke:#555555;stroke-width:0.8;" x="215.046406" xlink:href="#m2124d60e22" y="616.52"/>
      </g>
     </g>
     <g id="text_2">
      <!-- 2020-05 -->
      <g style="fill:#555555;" transform="translate(194.155 631.118437)scale(0.1 -0.1)">
       <defs>
        <path d="M 691 4666 
L 3169 4666 
L 3169 4134 
L 1269 4134 
L 1269 2991 
Q 1406 3038 1543 3061 
Q 1681 3084 1819 3084 
Q 2600 3084 3056 2656 
Q 3513 2228 3513 1497 
Q 3513 744 3044 326 
Q 2575 -91 1722 -91 
Q 1428 -91 1123 -41 
Q 819 9 494 109 
L 494 744 
Q 775 591 1075 516 
Q 1375 441 1709 441 
Q 2250 441 2565 725 
Q 2881 1009 2881 1497 
Q 2881 1984 2565 2268 
Q 2250 2553 1709 2553 
Q 1456 2553 1204 2497 
Q 953 2441 691 2322 
L 691 4666 
z
" id="DejaVuSans-35" transform="scale(0.015625)"/>
       </defs>
       <use xlink:href="#DejaVuSans-32"/>
       <use x="63.623047" xlink:href="#DejaVuSans-30"/>
       <use x="127.246094" xlink:href="#DejaVuSans-32"/>
       <use x="190.869141" xlink:href="#DejaVuSans-30"/>
       <use x="254.492188" xlink:href="#DejaVuSans-2d"/>
       <use x="290.576172" xlink:href="#DejaVuSans-30"/>
       <use x="354.199219" xlink:href="#DejaVuSans-35"/>
      </g>
     </g>
    </g>
    <g id="xtick_3">
     <g id="line2d_5">
      <path clip-path="url(#pfae46adc71)" d="M 347.071452 616.52 
L 347.071452 7.2 
" style="fill:none;stroke:#ffffff;stroke-linecap:square;stroke-width:0.8;"/>
     </g>
     <g id="line2d_6">
      <g>
       <use style="fill:#555555;stroke:#555555;stroke-width:0.8;" x="347.071452" xlink:href="#m2124d60e22" y="616.52"/>
      </g>
     </g>
     <g id="text_3">
      <!-- 2020-07 -->
      <g style="fill:#555555;" transform="translate(326.180045 631.118437)scale(0.1 -0.1)">
       <defs>
        <path d="M 525 4666 
L 3525 4666 
L 3525 4397 
L 1831 0 
L 1172 0 
L 2766 4134 
L 525 4134 
L 525 4666 
z
" id="DejaVuSans-37" transform="scale(0.015625)"/>
       </defs>
       <use xlink:href="#DejaVuSans-32"/>
       <use x="63.623047" xlink:href="#DejaVuSans-30"/>
       <use x="127.246094" xlink:href="#DejaVuSans-32"/>
       <use x="190.869141" xlink:href="#DejaVuSans-30"/>
       <use x="254.492188" xlink:href="#DejaVuSans-2d"/>
       <use x="290.576172" xlink:href="#DejaVuSans-30"/>
       <use x="354.199219" xlink:href="#DejaVuSans-37"/>
      </g>
     </g>
    </g>
    <g id="xtick_4">
     <g id="line2d_7">
      <path clip-path="url(#pfae46adc71)" d="M 481.260842 616.52 
L 481.260842 7.2 
" style="fill:none;stroke:#ffffff;stroke-linecap:square;stroke-width:0.8;"/>
     </g>
     <g id="line2d_8">
      <g>
       <use style="fill:#555555;stroke:#555555;stroke-width:0.8;" x="481.260842" xlink:href="#m2124d60e22" y="616.52"/>
      </g>
     </g>
     <g id="text_4">
      <!-- 2020-09 -->
      <g style="fill:#555555;" transform="translate(460.369436 631.118437)scale(0.1 -0.1)">
       <defs>
        <path d="M 703 97 
L 703 672 
Q 941 559 1184 500 
Q 1428 441 1663 441 
Q 2288 441 2617 861 
Q 2947 1281 2994 2138 
Q 2813 1869 2534 1725 
Q 2256 1581 1919 1581 
Q 1219 1581 811 2004 
Q 403 2428 403 3163 
Q 403 3881 828 4315 
Q 1253 4750 1959 4750 
Q 2769 4750 3195 4129 
Q 3622 3509 3622 2328 
Q 3622 1225 3098 567 
Q 2575 -91 1691 -91 
Q 1453 -91 1209 -44 
Q 966 3 703 97 
z
M 1959 2075 
Q 2384 2075 2632 2365 
Q 2881 2656 2881 3163 
Q 2881 3666 2632 3958 
Q 2384 4250 1959 4250 
Q 1534 4250 1286 3958 
Q 1038 3666 1038 3163 
Q 1038 2656 1286 2365 
Q 1534 2075 1959 2075 
z
" id="DejaVuSans-39" transform="scale(0.015625)"/>
       </defs>
       <use xlink:href="#DejaVuSans-32"/>
       <use x="63.623047" xlink:href="#DejaVuSans-30"/>
       <use x="127.246094" xlink:href="#DejaVuSans-32"/>
       <use x="190.869141" xlink:href="#DejaVuSans-30"/>
       <use x="254.492188" xlink:href="#DejaVuSans-2d"/>
       <use x="290.576172" xlink:href="#DejaVuSans-30"/>
       <use x="354.199219" xlink:href="#DejaVuSans-39"/>
      </g>
     </g>
    </g>
    <g id="xtick_5">
     <g id="line2d_9">
      <path clip-path="url(#pfae46adc71)" d="M 613.285888 616.52 
L 613.285888 7.2 
" style="fill:none;stroke:#ffffff;stroke-linecap:square;stroke-width:0.8;"/>
     </g>
     <g id="line2d_10">
      <g>
       <use style="fill:#555555;stroke:#555555;stroke-width:0.8;" x="613.285888" xlink:href="#m2124d60e22" y="616.52"/>
      </g>
     </g>
     <g id="text_5">
      <!-- 2020-11 -->
      <g style="fill:#555555;" transform="translate(592.394481 631.118437)scale(0.1 -0.1)">
       <defs>
        <path d="M 794 531 
L 1825 531 
L 1825 4091 
L 703 3866 
L 703 4441 
L 1819 4666 
L 2450 4666 
L 2450 531 
L 3481 531 
L 3481 0 
L 794 0 
L 794 531 
z
" id="DejaVuSans-31" transform="scale(0.015625)"/>
       </defs>
       <use xlink:href="#DejaVuSans-32"/>
       <use x="63.623047" xlink:href="#DejaVuSans-30"/>
       <use x="127.246094" xlink:href="#DejaVuSans-32"/>
       <use x="190.869141" xlink:href="#DejaVuSans-30"/>
       <use x="254.492188" xlink:href="#DejaVuSans-2d"/>
       <use x="290.576172" xlink:href="#DejaVuSans-31"/>
       <use x="354.199219" xlink:href="#DejaVuSans-31"/>
      </g>
     </g>
    </g>
    <g id="xtick_6">
     <g id="line2d_11">
      <path clip-path="url(#pfae46adc71)" d="M 745.310933 616.52 
L 745.310933 7.2 
" style="fill:none;stroke:#ffffff;stroke-linecap:square;stroke-width:0.8;"/>
     </g>
     <g id="line2d_12">
      <g>
       <use style="fill:#555555;stroke:#555555;stroke-width:0.8;" x="745.310933" xlink:href="#m2124d60e22" y="616.52"/>
      </g>
     </g>
     <g id="text_6">
      <!-- 2021-01 -->
      <g style="fill:#555555;" transform="translate(724.419527 631.118437)scale(0.1 -0.1)">
       <use xlink:href="#DejaVuSans-32"/>
       <use x="63.623047" xlink:href="#DejaVuSans-30"/>
       <use x="127.246094" xlink:href="#DejaVuSans-32"/>
       <use x="190.869141" xlink:href="#DejaVuSans-31"/>
       <use x="254.492188" xlink:href="#DejaVuSans-2d"/>
       <use x="290.576172" xlink:href="#DejaVuSans-30"/>
       <use x="354.199219" xlink:href="#DejaVuSans-31"/>
      </g>
     </g>
    </g>
    <g id="xtick_7">
     <g id="line2d_13">
      <path clip-path="url(#pfae46adc71)" d="M 873.007289 616.52 
L 873.007289 7.2 
" style="fill:none;stroke:#ffffff;stroke-linecap:square;stroke-width:0.8;"/>
     </g>
     <g id="line2d_14">
      <g>
       <use style="fill:#555555;stroke:#555555;stroke-width:0.8;" x="873.007289" xlink:href="#m2124d60e22" y="616.52"/>
      </g>
     </g>
     <g id="text_7">
      <!-- 2021-03 -->
      <g style="fill:#555555;" transform="translate(852.115883 631.118437)scale(0.1 -0.1)">
       <use xlink:href="#DejaVuSans-32"/>
       <use x="63.623047" xlink:href="#DejaVuSans-30"/>
       <use x="127.246094" xlink:href="#DejaVuSans-32"/>
       <use x="190.869141" xlink:href="#DejaVuSans-31"/>
       <use x="254.492188" xlink:href="#DejaVuSans-2d"/>
       <use x="290.576172" xlink:href="#DejaVuSans-30"/>
       <use x="354.199219" xlink:href="#DejaVuSans-33"/>
      </g>
     </g>
    </g>
    <g id="xtick_8">
     <g id="line2d_15">
      <path clip-path="url(#pfae46adc71)" d="M 1005.032334 616.52 
L 1005.032334 7.2 
" style="fill:none;stroke:#ffffff;stroke-linecap:square;stroke-width:0.8;"/>
     </g>
     <g id="line2d_16">
      <g>
       <use style="fill:#555555;stroke:#555555;stroke-width:0.8;" x="1005.032334" xlink:href="#m2124d60e22" y="616.52"/>
      </g>
     </g>
     <g id="text_8">
      <!-- 2021-05 -->
      <g style="fill:#555555;" transform="translate(984.140928 631.118437)scale(0.1 -0.1)">
       <use xlink:href="#DejaVuSans-32"/>
       <use x="63.623047" xlink:href="#DejaVuSans-30"/>
       <use x="127.246094" xlink:href="#DejaVuSans-32"/>
       <use x="190.869141" xlink:href="#DejaVuSans-31"/>
       <use x="254.492188" xlink:href="#DejaVuSans-2d"/>
       <use x="290.576172" xlink:href="#DejaVuSans-30"/>
       <use x="354.199219" xlink:href="#DejaVuSans-35"/>
      </g>
     </g>
    </g>
   </g>
   <g id="matplotlib.axis_2">
    <g id="ytick_1">
     <g id="line2d_17">
      <path clip-path="url(#pfae46adc71)" d="M 30.103125 582.646772 
L 1099.073125 582.646772 
" style="fill:none;stroke:#ffffff;stroke-linecap:square;stroke-width:0.8;"/>
     </g>
     <g id="line2d_18">
      <defs>
       <path d="M 0 0 
L -3.5 0 
" id="me4b2835687" style="stroke:#555555;stroke-width:0.8;"/>
      </defs>
      <g>
       <use style="fill:#555555;stroke:#555555;stroke-width:0.8;" x="30.103125" xlink:href="#me4b2835687" y="582.646772"/>
      </g>
     </g>
     <g id="text_9">
      <!-- 0.5 -->
      <g style="fill:#555555;" transform="translate(7.2 586.445991)scale(0.1 -0.1)">
       <defs>
        <path d="M 684 794 
L 1344 794 
L 1344 0 
L 684 0 
L 684 794 
z
" id="DejaVuSans-2e" transform="scale(0.015625)"/>
       </defs>
       <use xlink:href="#DejaVuSans-30"/>
       <use x="63.623047" xlink:href="#DejaVuSans-2e"/>
       <use x="95.410156" xlink:href="#DejaVuSans-35"/>
      </g>
     </g>
    </g>
    <g id="ytick_2">
     <g id="line2d_19">
      <path clip-path="url(#pfae46adc71)" d="M 30.103125 509.360236 
L 1099.073125 509.360236 
" style="fill:none;stroke:#ffffff;stroke-linecap:square;stroke-width:0.8;"/>
     </g>
     <g id="line2d_20">
      <g>
       <use style="fill:#555555;stroke:#555555;stroke-width:0.8;" x="30.103125" xlink:href="#me4b2835687" y="509.360236"/>
      </g>
     </g>
     <g id="text_10">
      <!-- 1.0 -->
      <g style="fill:#555555;" transform="translate(7.2 513.159455)scale(0.1 -0.1)">
       <use xlink:href="#DejaVuSans-31"/>
       <use x="63.623047" xlink:href="#DejaVuSans-2e"/>
       <use x="95.410156" xlink:href="#DejaVuSans-30"/>
      </g>
     </g>
    </g>
    <g id="ytick_3">
     <g id="line2d_21">
      <path clip-path="url(#pfae46adc71)" d="M 30.103125 436.073699 
L 1099.073125 436.073699 
" style="fill:none;stroke:#ffffff;stroke-linecap:square;stroke-width:0.8;"/>
     </g>
     <g id="line2d_22">
      <g>
       <use style="fill:#555555;stroke:#555555;stroke-width:0.8;" x="30.103125" xlink:href="#me4b2835687" y="436.073699"/>
      </g>
     </g>
     <g id="text_11">
      <!-- 1.5 -->
      <g style="fill:#555555;" transform="translate(7.2 439.872918)scale(0.1 -0.1)">
       <use xlink:href="#DejaVuSans-31"/>
       <use x="63.623047" xlink:href="#DejaVuSans-2e"/>
       <use x="95.410156" xlink:href="#DejaVuSans-35"/>
      </g>
     </g>
    </g>
    <g id="ytick_4">
     <g id="line2d_23">
      <path clip-path="url(#pfae46adc71)" d="M 30.103125 362.787163 
L 1099.073125 362.787163 
" style="fill:none;stroke:#ffffff;stroke-linecap:square;stroke-width:0.8;"/>
     </g>
     <g id="line2d_24">
      <g>
       <use style="fill:#555555;stroke:#555555;stroke-width:0.8;" x="30.103125" xlink:href="#me4b2835687" y="362.787163"/>
      </g>
     </g>
     <g id="text_12">
      <!-- 2.0 -->
      <g style="fill:#555555;" transform="translate(7.2 366.586382)scale(0.1 -0.1)">
       <use xlink:href="#DejaVuSans-32"/>
       <use x="63.623047" xlink:href="#DejaVuSans-2e"/>
       <use x="95.410156" xlink:href="#DejaVuSans-30"/>
      </g>
     </g>
    </g>
    <g id="ytick_5">
     <g id="line2d_25">
      <path clip-path="url(#pfae46adc71)" d="M 30.103125 289.500626 
L 1099.073125 289.500626 
" style="fill:none;stroke:#ffffff;stroke-linecap:square;stroke-width:0.8;"/>
     </g>
     <g id="line2d_26">
      <g>
       <use style="fill:#555555;stroke:#555555;stroke-width:0.8;" x="30.103125" xlink:href="#me4b2835687" y="289.500626"/>
      </g>
     </g>
     <g id="text_13">
      <!-- 2.5 -->
      <g style="fill:#555555;" transform="translate(7.2 293.299845)scale(0.1 -0.1)">
       <use xlink:href="#DejaVuSans-32"/>
       <use x="63.623047" xlink:href="#DejaVuSans-2e"/>
       <use x="95.410156" xlink:href="#DejaVuSans-35"/>
      </g>
     </g>
    </g>
    <g id="ytick_6">
     <g id="line2d_27">
      <path clip-path="url(#pfae46adc71)" d="M 30.103125 216.21409 
L 1099.073125 216.21409 
" style="fill:none;stroke:#ffffff;stroke-linecap:square;stroke-width:0.8;"/>
     </g>
     <g id="line2d_28">
      <g>
       <use style="fill:#555555;stroke:#555555;stroke-width:0.8;" x="30.103125" xlink:href="#me4b2835687" y="216.21409"/>
      </g>
     </g>
     <g id="text_14">
      <!-- 3.0 -->
      <g style="fill:#555555;" transform="translate(7.2 220.013309)scale(0.1 -0.1)">
       <use xlink:href="#DejaVuSans-33"/>
       <use x="63.623047" xlink:href="#DejaVuSans-2e"/>
       <use x="95.410156" xlink:href="#DejaVuSans-30"/>
      </g>
     </g>
    </g>
    <g id="ytick_7">
     <g id="line2d_29">
      <path clip-path="url(#pfae46adc71)" d="M 30.103125 142.927553 
L 1099.073125 142.927553 
" style="fill:none;stroke:#ffffff;stroke-linecap:square;stroke-width:0.8;"/>
     </g>
     <g id="line2d_30">
      <g>
       <use style="fill:#555555;stroke:#555555;stroke-width:0.8;" x="30.103125" xlink:href="#me4b2835687" y="142.927553"/>
      </g>
     </g>
     <g id="text_15">
      <!-- 3.5 -->
      <g style="fill:#555555;" transform="translate(7.2 146.726772)scale(0.1 -0.1)">
       <use xlink:href="#DejaVuSans-33"/>
       <use x="63.623047" xlink:href="#DejaVuSans-2e"/>
       <use x="95.410156" xlink:href="#DejaVuSans-35"/>
      </g>
     </g>
    </g>
    <g id="ytick_8">
     <g id="line2d_31">
      <path clip-path="url(#pfae46adc71)" d="M 30.103125 69.641017 
L 1099.073125 69.641017 
" style="fill:none;stroke:#ffffff;stroke-linecap:square;stroke-width:0.8;"/>
     </g>
     <g id="line2d_32">
      <g>
       <use style="fill:#555555;stroke:#555555;stroke-width:0.8;" x="30.103125" xlink:href="#me4b2835687" y="69.641017"/>
      </g>
     </g>
     <g id="text_16">
      <!-- 4.0 -->
      <g style="fill:#555555;" transform="translate(7.2 73.440236)scale(0.1 -0.1)">
       <defs>
        <path d="M 2419 4116 
L 825 1625 
L 2419 1625 
L 2419 4116 
z
M 2253 4666 
L 3047 4666 
L 3047 1625 
L 3713 1625 
L 3713 1100 
L 3047 1100 
L 3047 0 
L 2419 0 
L 2419 1100 
L 313 1100 
L 313 1709 
L 2253 4666 
z
" id="DejaVuSans-34" transform="scale(0.015625)"/>
       </defs>
       <use xlink:href="#DejaVuSans-34"/>
       <use x="63.623047" xlink:href="#DejaVuSans-2e"/>
       <use x="95.410156" xlink:href="#DejaVuSans-30"/>
      </g>
     </g>
    </g>
   </g>
   <g id="line2d_33">
    <path clip-path="url(#pfae46adc71)" d="M 87.35005 113.888219 
L 89.514396 84.893064 
L 91.678741 121.356584 
L 93.843086 103.934781 
L 96.007431 95.429688 
L 98.171776 104.743688 
L 100.336121 123.860417 
L 102.500466 158.826919 
L 104.664811 203.273249 
L 106.829156 214.227724 
L 108.993501 244.258254 
L 111.157846 267.873003 
L 113.322191 275.310082 
L 115.486536 281.792307 
L 117.650881 275.321432 
L 119.815226 271.357327 
L 124.143916 286.416886 
L 126.308261 298.970103 
L 128.472606 316.078011 
L 130.636951 326.047582 
L 132.801296 333.812539 
L 134.965641 339.380991 
L 137.129986 345.896384 
L 139.294331 355.439515 
L 141.458676 367.104438 
L 143.623021 379.756193 
L 150.116056 411.148994 
L 152.280401 422.920897 
L 154.444746 432.844329 
L 156.609091 440.903441 
L 158.773436 447.256902 
L 160.937781 452.944139 
L 163.102126 457.522267 
L 165.266471 461.350822 
L 167.430816 465.938401 
L 173.923851 478.377769 
L 176.088196 481.73522 
L 178.252541 484.728017 
L 180.416886 487.217648 
L 186.909921 493.204127 
L 189.074266 494.679338 
L 191.238611 495.741301 
L 193.402956 496.365626 
L 199.895991 497.929435 
L 208.553371 500.944142 
L 223.703786 504.629714 
L 228.032476 505.148034 
L 232.361166 505.485995 
L 247.511581 506.092924 
L 254.004616 506.570868 
L 262.661996 506.951698 
L 275.648066 507.460696 
L 279.976756 507.541333 
L 284.305446 507.54 
L 308.113241 507.903979 
L 318.934966 507.985708 
L 325.428001 507.693088 
L 331.921037 507.265095 
L 336.249727 507.172985 
L 340.578417 507.238137 
L 349.235797 507.572409 
L 379.536627 507.97965 
L 396.851387 507.697673 
L 444.466977 506.234149 
L 461.781737 505.584055 
L 468.274772 505.439988 
L 476.932152 505.641052 
L 494.246912 506.092376 
L 515.890362 505.632204 
L 524.547742 505.1507 
L 528.876432 505.010828 
L 539.698157 504.955882 
L 552.684227 504.621833 
L 559.177262 504.260791 
L 563.505952 503.731398 
L 572.163333 502.118277 
L 576.492023 501.318936 
L 580.820713 500.179905 
L 585.149403 499.074139 
L 591.642438 497.551518 
L 593.806783 496.913947 
L 595.971128 496.088938 
L 602.464163 493.249852 
L 606.792853 491.520405 
L 611.121543 489.891069 
L 615.450233 489.050896 
L 619.778923 488.771595 
L 621.943268 488.726878 
L 628.436303 489.06906 
L 632.764993 489.422702 
L 639.258028 490.356355 
L 650.079753 492.469076 
L 656.572788 493.664056 
L 660.901478 494.31316 
L 678.216238 496.379066 
L 689.037963 497.164665 
L 695.530998 497.094756 
L 699.859688 496.99105 
L 712.845758 496.153575 
L 719.338793 495.91786 
L 727.996173 495.889453 
L 730.160518 496.041998 
L 734.489208 497.092425 
L 738.817898 498.380941 
L 740.982243 498.770894 
L 745.310933 499.270492 
L 758.297003 500.095323 
L 760.461348 500.136426 
L 764.790038 499.790431 
L 769.118728 499.184323 
L 773.447418 499.111515 
L 777.776108 499.548642 
L 784.269143 500.308498 
L 801.583903 501.454107 
L 818.898664 502.283421 
L 847.035149 503.255081 
L 864.349909 503.116524 
L 885.993359 502.849946 
L 896.815084 502.707561 
L 909.801154 502.150364 
L 937.937639 500.618176 
L 944.430674 500.48429 
L 950.923709 500.654575 
L 957.416744 500.946358 
L 961.745434 500.858312 
L 968.238469 500.304559 
L 974.731504 499.691477 
L 979.060194 499.596839 
L 987.717574 499.509745 
L 998.539299 499.391186 
L 1005.032334 499.558645 
L 1024.511439 500.280965 
L 1033.168819 500.522174 
L 1041.8262 500.987314 
L 1050.48358 501.246368 
L 1050.48358 501.246368 
" style="fill:none;stroke:#e24a33;stroke-linecap:square;stroke-width:1.5;"/>
   </g>
   <g id="line2d_34">
    <path clip-path="url(#pfae46adc71)" d="M 87.35005 113.888219 
L 89.514396 55.897909 
L 91.678741 194.283623 
L 93.843086 51.669371 
L 96.007431 61.409317 
L 100.336121 238.56079 
L 102.500466 358.65373 
L 104.664811 367.02222 
L 106.829156 270.964948 
L 108.993501 261.883082 
L 111.157846 226.712557 
L 113.322191 203.373248 
L 115.486536 283.936363 
L 117.650881 313.357604 
L 119.815226 339.273484 
L 121.979571 322.661375 
L 124.143916 315.603572 
L 126.308261 314.585074 
L 128.472606 323.128605 
L 130.636951 353.723358 
L 132.801296 367.712302 
L 134.965641 378.25265 
L 137.129986 368.269129 
L 141.458676 396.239531 
L 143.623021 411.690892 
L 145.787366 425.734151 
L 147.951711 441.179422 
L 150.116056 452.524346 
L 152.280401 450.672448 
L 154.444746 451.869513 
L 156.609091 452.653318 
L 158.773436 456.165114 
L 160.937781 465.544811 
L 163.102126 473.226318 
L 165.266471 479.32423 
L 167.430816 482.785506 
L 169.595161 481.258948 
L 171.759506 481.886152 
L 173.923851 484.618418 
L 176.088196 489.046965 
L 178.252541 494.175898 
L 180.416886 496.751647 
L 182.581231 496.981329 
L 184.745576 496.219416 
L 186.909921 494.635213 
L 189.074266 494.944898 
L 191.238611 496.480705 
L 193.402956 498.54617 
L 195.567301 500.285035 
L 197.731646 500.546854 
L 199.895991 500.067169 
L 202.060336 499.8993 
L 204.224681 500.541147 
L 206.389026 501.998239 
L 208.553371 503.27125 
L 210.717716 504.070713 
L 212.882061 504.371191 
L 215.046406 503.811462 
L 217.210751 504.035206 
L 219.375096 504.551506 
L 221.539441 505.329728 
L 223.703786 506.238188 
L 225.868131 506.251232 
L 232.361166 504.859173 
L 234.525511 505.131651 
L 236.689856 505.981124 
L 238.854201 506.24401 
L 241.018546 506.658221 
L 243.182891 506.435133 
L 245.347236 505.957435 
L 249.675926 506.43929 
L 251.840271 506.956825 
L 254.004616 507.306272 
L 262.661996 506.834154 
L 266.990686 507.535286 
L 269.155031 507.561647 
L 271.319376 507.794277 
L 273.483721 507.860938 
L 275.648066 507.489723 
L 277.812411 507.241048 
L 282.141101 507.325573 
L 286.469791 508.087658 
L 290.798481 507.861461 
L 292.962826 507.705556 
L 295.127171 507.740543 
L 301.620206 508.088901 
L 303.784551 507.886656 
L 308.113241 507.855653 
L 310.277586 507.91366 
L 312.441931 508.204265 
L 318.934966 507.850848 
L 321.099311 507.395311 
L 325.428001 506.955896 
L 327.592347 506.994975 
L 329.756692 507.210419 
L 338.414072 507.187499 
L 342.742762 507.732825 
L 344.907107 507.719104 
L 347.071452 507.890912 
L 351.400142 507.565436 
L 353.564487 507.625882 
L 360.057522 508.060145 
L 362.221867 508.080223 
L 366.550557 507.797613 
L 370.879247 507.921207 
L 373.043592 508.133585 
L 377.372282 508.143044 
L 383.865317 507.534231 
L 392.522697 507.96218 
L 394.687042 507.6947 
L 396.851387 507.2828 
L 399.015732 507.097765 
L 407.673112 507.589559 
L 412.001802 506.785395 
L 414.166147 506.561044 
L 418.494837 507.170042 
L 420.659182 507.169722 
L 422.823527 507.326676 
L 424.987872 506.763122 
L 427.152217 506.320848 
L 429.316562 506.160895 
L 431.480907 506.298671 
L 433.645252 506.731072 
L 435.809597 506.86555 
L 437.973942 506.803386 
L 442.302632 505.515344 
L 444.466977 505.224469 
L 446.631322 505.648548 
L 448.795667 506.259973 
L 453.124357 506.265797 
L 455.288702 505.558585 
L 457.453047 504.996329 
L 459.617392 504.597117 
L 461.781737 505.096234 
L 463.946082 505.764067 
L 466.110427 505.876721 
L 468.274772 506.190863 
L 472.603462 505.205445 
L 474.767807 505.097274 
L 479.096497 506.187354 
L 483.425187 506.569029 
L 485.589532 506.254511 
L 487.753877 505.747327 
L 489.918222 505.664167 
L 492.082567 505.840004 
L 494.246912 506.151757 
L 496.411257 506.137985 
L 498.575602 506.270513 
L 500.739947 505.745893 
L 502.904292 505.360715 
L 505.068637 505.302501 
L 507.232982 505.449754 
L 509.397327 506.029283 
L 511.561672 506.087424 
L 513.726017 505.947575 
L 515.890362 505.248175 
L 520.219052 504.217484 
L 522.383397 504.558777 
L 524.547742 505.296357 
L 526.712087 505.370881 
L 528.876432 505.685012 
L 531.040777 505.264562 
L 533.205122 504.608111 
L 535.369467 504.263837 
L 537.533812 504.482102 
L 539.698157 505.016669 
L 541.862502 505.075983 
L 544.026847 505.475062 
L 546.191192 504.921489 
L 548.355537 504.169564 
L 552.684227 503.737802 
L 554.848572 504.344264 
L 557.012917 504.397181 
L 559.177262 504.298975 
L 561.341607 503.451376 
L 563.505952 501.933924 
L 565.670298 500.974835 
L 567.834643 500.725752 
L 569.998988 501.581525 
L 572.163333 501.86155 
L 574.327678 501.764932 
L 576.492023 500.39003 
L 578.656368 498.237831 
L 580.820713 496.697711 
L 582.985058 496.671417 
L 585.149403 497.895504 
L 589.478093 498.618046 
L 591.642438 496.433169 
L 593.806783 493.774838 
L 595.971128 490.92265 
L 598.135473 489.867944 
L 600.299818 491.367936 
L 604.628508 492.238222 
L 606.792853 490.706861 
L 608.957198 487.656648 
L 611.121543 485.635492 
L 613.285888 486.591786 
L 615.450233 488.762884 
L 617.614578 490.449183 
L 619.778923 491.598309 
L 621.943268 490.393846 
L 624.107613 488.199263 
L 626.271958 486.580678 
L 628.436303 487.499257 
L 630.600648 489.803133 
L 632.764993 491.884431 
L 634.929338 493.570237 
L 637.093683 492.567776 
L 639.258028 490.588971 
L 641.422373 489.398539 
L 643.586718 490.174471 
L 645.751063 492.933435 
L 647.915408 495.173331 
L 650.079753 496.447012 
L 652.244098 495.587903 
L 654.408443 493.336935 
L 656.572788 491.995304 
L 658.737133 492.619999 
L 660.901478 495.031634 
L 663.065823 497.04747 
L 665.230168 497.993924 
L 667.394513 497.062674 
L 669.558858 495.235286 
L 671.723203 494.088861 
L 673.887548 494.941806 
L 676.051893 496.879601 
L 678.216238 498.451311 
L 680.380583 499.247669 
L 682.544928 498.261264 
L 684.709273 496.581817 
L 686.873618 495.321452 
L 689.037963 495.40954 
L 693.366653 498.350023 
L 695.530998 498.812394 
L 697.695343 498.143301 
L 699.859688 495.973838 
L 702.024033 494.26088 
L 704.188378 494.514675 
L 706.352723 495.598078 
L 708.517068 497.645814 
L 710.681413 497.877227 
L 712.845758 497.204516 
L 717.174448 493.513804 
L 719.338793 494.270885 
L 721.503138 495.567191 
L 723.667483 497.266745 
L 725.831828 498.083921 
L 730.160518 496.382506 
L 732.324863 496.978733 
L 734.489208 498.158948 
L 736.653553 500.304598 
L 738.817898 501.548947 
L 740.982243 500.813596 
L 743.146588 499.083786 
L 745.310933 498.004837 
L 747.475278 498.062242 
L 749.639623 499.228621 
L 751.803968 501.318785 
L 753.968313 502.307931 
L 756.132658 501.566324 
L 758.297003 500.178519 
L 760.461348 498.292561 
L 762.625693 497.222515 
L 764.790038 497.646382 
L 766.954383 498.878895 
L 769.118728 500.505065 
L 771.283073 500.942134 
L 773.447418 500.293053 
L 775.611763 499.512925 
L 777.776108 499.062037 
L 779.940453 499.541946 
L 782.104798 500.975165 
L 784.269143 501.832222 
L 786.433488 502.038692 
L 788.597833 501.542998 
L 790.762178 500.733341 
L 792.926523 500.358842 
L 795.090868 500.645771 
L 797.255213 501.665088 
L 799.419558 502.503304 
L 801.583903 502.729402 
L 803.748249 502.338999 
L 808.076939 501.382894 
L 810.241284 501.526091 
L 812.405629 502.371597 
L 814.569974 502.922185 
L 816.734319 503.096101 
L 818.898664 502.875433 
L 821.063009 502.362254 
L 823.227354 502.054821 
L 825.391699 502.125708 
L 829.720389 503.425914 
L 831.884734 503.578878 
L 834.049079 503.458831 
L 838.377769 502.752994 
L 840.542114 502.878256 
L 844.870804 503.650234 
L 847.035149 503.693049 
L 851.363839 503.096933 
L 853.528184 502.741112 
L 855.692529 502.726374 
L 860.021219 503.434511 
L 862.185564 503.499009 
L 866.514254 502.845479 
L 868.678599 502.459873 
L 870.842944 502.460614 
L 875.171634 503.288099 
L 877.335979 503.323779 
L 881.664669 502.680298 
L 883.829014 502.319688 
L 885.993359 502.369864 
L 890.322049 503.179915 
L 892.486394 503.193873 
L 896.815084 502.301539 
L 898.979429 501.774169 
L 901.143774 501.665628 
L 905.472464 502.572551 
L 907.636809 502.512552 
L 909.801154 502.092973 
L 914.129844 500.784354 
L 916.294189 500.760184 
L 920.622879 501.920928 
L 922.787224 501.919075 
L 924.951569 501.380766 
L 929.280259 499.796029 
L 931.444604 499.712828 
L 935.773294 501.125543 
L 937.937639 501.304674 
L 940.101984 500.886532 
L 942.266329 500.200828 
L 944.430674 499.712885 
L 946.595019 499.978523 
L 950.923709 501.654112 
L 953.088054 502.097669 
L 955.252399 501.634752 
L 959.581089 499.761521 
L 961.745434 499.313569 
L 963.909779 499.69132 
L 966.074124 500.460209 
L 968.238469 500.568448 
L 974.731504 498.588975 
L 976.895849 498.713079 
L 981.224539 500.441194 
L 983.388884 500.364316 
L 985.553229 499.825214 
L 987.717574 499.006097 
L 989.881919 498.309137 
L 992.046264 498.604363 
L 996.374954 500.250374 
L 998.539299 500.283327 
L 1000.703644 499.975327 
L 1002.867989 499.36454 
L 1005.032334 498.972793 
L 1007.196679 499.241103 
L 1011.525369 500.727798 
L 1013.689714 500.746414 
L 1015.854059 500.461309 
L 1020.182749 499.628492 
L 1022.347094 499.85946 
L 1024.511439 500.52747 
L 1026.675784 501.069827 
L 1028.840129 501.082927 
L 1033.168819 500.638642 
L 1035.333164 500.550376 
L 1037.497509 500.819887 
L 1039.661854 501.334696 
L 1041.8262 501.636271 
L 1050.48358 501.008235 
L 1050.48358 501.008235 
" style="fill:none;stroke:#e24a33;stroke-dasharray:1.5,2.475;stroke-dashoffset:0;stroke-width:1.5;"/>
   </g>
   <g id="line2d_35">
    <path clip-path="url(#pfae46adc71)" d="M 87.35005 260.462565 
L 89.514396 231.467715 
L 91.678741 267.931446 
L 93.843086 250.510351 
L 96.007431 208.801557 
L 98.171776 204.361591 
L 100.336121 212.190779 
L 102.500466 240.263191 
L 104.664811 278.05675 
L 106.829156 275.071241 
L 108.993501 285.968227 
L 111.157846 294.033059 
L 113.322191 272.995146 
L 115.486536 277.678374 
L 117.650881 261.523359 
L 119.815226 251.617322 
L 124.143916 268.995357 
L 126.308261 300.021075 
L 128.472606 339.225086 
L 130.636951 351.55061 
L 132.801296 360.605193 
L 134.965641 364.6949 
L 137.129986 368.140284 
L 139.294331 378.618912 
L 141.458676 394.388579 
L 143.623021 414.386763 
L 147.951711 444.311908 
L 150.116056 458.514611 
L 152.280401 473.587255 
L 154.444746 486.215872 
L 156.609091 493.602312 
L 160.937781 498.469243 
L 163.102126 501.160965 
L 165.266471 504.450569 
L 167.430816 511.192128 
L 169.595161 516.387821 
L 171.759506 522.086846 
L 173.923851 528.52797 
L 176.088196 531.54634 
L 178.252541 536.440095 
L 180.416886 540.475159 
L 184.745576 544.62968 
L 186.909921 542.065006 
L 189.074266 536.790814 
L 191.238611 532.037821 
L 193.402956 526.760323 
L 195.567301 524.029504 
L 197.731646 522.274284 
L 199.895991 521.305688 
L 202.060336 524.100299 
L 204.224681 528.562448 
L 206.389026 533.764195 
L 208.553371 538.092943 
L 210.717716 539.968541 
L 212.882061 541.620016 
L 215.046406 541.569652 
L 217.210751 542.232459 
L 219.375096 544.206209 
L 221.539441 545.392441 
L 223.703786 548.032666 
L 225.868131 548.051034 
L 228.032476 544.752645 
L 230.196821 539.761551 
L 232.361166 526.967662 
L 234.525511 516.750387 
L 236.689856 513.636014 
L 238.854201 509.023473 
L 241.018546 508.838417 
L 243.182891 510.002522 
L 245.347236 509.799798 
L 247.511581 520.160291 
L 249.675926 526.742564 
L 251.840271 529.998285 
L 254.004616 534.235388 
L 258.333306 530.074209 
L 260.497651 530.147577 
L 262.661996 524.591568 
L 264.826341 526.460697 
L 266.990686 527.616317 
L 269.155031 524.760505 
L 271.319376 527.090133 
L 273.483721 530.328834 
L 275.648066 530.008168 
L 277.812411 531.203796 
L 279.976756 523.215699 
L 282.141101 508.504898 
L 284.305446 505.995606 
L 286.469791 506.799436 
L 288.634136 507.348004 
L 290.798481 514.561693 
L 292.962826 518.220637 
L 295.127171 518.815621 
L 297.291516 526.0676 
L 299.455861 525.186935 
L 301.620206 521.378674 
L 303.784551 515.352148 
L 305.948896 508.18274 
L 308.113241 505.842168 
L 310.277586 509.618177 
L 312.441931 517.731104 
L 314.606276 519.552708 
L 316.770621 518.114276 
L 318.934966 514.582106 
L 321.099311 494.745682 
L 323.263656 477.825294 
L 325.428001 455.210549 
L 327.592347 434.091955 
L 329.756692 427.048502 
L 331.921037 422.396404 
L 334.085382 426.714392 
L 336.249727 450.524223 
L 338.414072 470.375433 
L 340.578417 499.361555 
L 342.742762 520.102669 
L 344.907107 527.386559 
L 347.071452 535.456708 
L 349.235797 535.71128 
L 351.400142 529.624134 
L 353.564487 528.45326 
L 355.728832 524.255869 
L 357.893177 523.801906 
L 360.057522 526.131773 
L 364.386212 523.801844 
L 366.550557 521.971784 
L 368.714902 517.98067 
L 370.879247 516.122738 
L 373.043592 515.117669 
L 375.207937 513.585138 
L 377.372282 512.578578 
L 379.536627 510.571858 
L 381.700972 502.856162 
L 386.029662 486.033071 
L 388.194007 480.618832 
L 390.358352 479.323394 
L 392.522697 479.558635 
L 394.687042 480.070302 
L 396.851387 481.814595 
L 399.015732 480.237101 
L 401.180077 477.066583 
L 403.344422 473.388125 
L 405.508767 471.848658 
L 407.673112 471.124817 
L 409.837457 469.75848 
L 412.001802 472.51226 
L 414.166147 474.33491 
L 416.330492 478.913677 
L 418.494837 484.008184 
L 420.659182 484.767531 
L 422.823527 485.911286 
L 424.987872 485.204907 
L 427.152217 483.057381 
L 429.316562 484.873829 
L 431.480907 482.341337 
L 433.645252 481.896728 
L 435.809597 482.493081 
L 437.973942 480.599376 
L 440.138287 480.95619 
L 442.302632 479.298674 
L 444.466977 474.529153 
L 446.631322 476.268527 
L 448.795667 476.954114 
L 450.960012 477.435908 
L 453.124357 478.414711 
L 455.288702 478.525704 
L 457.453047 479.996589 
L 459.617392 482.601334 
L 461.781737 484.567886 
L 463.946082 485.316701 
L 466.110427 485.073437 
L 468.274772 486.900742 
L 470.439117 490.98362 
L 472.603462 497.107449 
L 474.767807 505.417851 
L 476.932152 510.177254 
L 479.096497 511.898676 
L 481.260842 514.128741 
L 483.425187 514.549487 
L 485.589532 515.171615 
L 487.753877 515.569739 
L 489.918222 514.673957 
L 492.082567 512.642234 
L 494.246912 508.919857 
L 498.575602 500.502507 
L 500.739947 495.766055 
L 502.904292 493.092928 
L 507.232982 492.966299 
L 509.397327 495.625581 
L 511.561672 497.332388 
L 513.726017 497.143506 
L 515.890362 496.497529 
L 518.054707 492.711631 
L 520.219052 484.961149 
L 522.383397 481.490498 
L 524.547742 479.799009 
L 526.712087 478.773469 
L 528.876432 481.567124 
L 531.040777 486.200721 
L 533.205122 491.852072 
L 535.369467 499.156573 
L 537.533812 501.112385 
L 539.698157 499.368651 
L 544.026847 497.190386 
L 546.191192 495.836 
L 548.355537 495.186304 
L 550.519882 495.554206 
L 552.684227 492.589457 
L 554.848572 490.867696 
L 557.012917 489.502986 
L 559.177262 485.312779 
L 561.341607 481.845913 
L 563.505952 474.932499 
L 565.670298 464.584767 
L 567.834643 458.423731 
L 569.998988 453.838686 
L 572.163333 452.255169 
L 574.327678 452.550696 
L 576.492023 452.435736 
L 578.656368 453.458357 
L 580.820713 453.425058 
L 582.985058 454.192406 
L 585.149403 454.748105 
L 587.313748 454.621823 
L 589.478093 455.41773 
L 591.642438 455.337365 
L 593.806783 456.47098 
L 595.971128 456.445512 
L 598.135473 452.572074 
L 600.299818 449.273025 
L 602.464163 445.430901 
L 604.628508 442.789564 
L 606.792853 443.367055 
L 608.957198 445.999926 
L 611.121543 452.512491 
L 613.285888 462.996564 
L 615.450233 469.035295 
L 617.614578 474.512236 
L 619.778923 478.370197 
L 621.943268 481.077063 
L 624.107613 485.107609 
L 626.271958 488.413474 
L 628.436303 490.72945 
L 630.600648 492.531223 
L 632.764993 493.826611 
L 634.929338 495.442902 
L 641.422373 500.959204 
L 643.586718 501.651708 
L 645.751063 503.338027 
L 647.915408 505.507854 
L 652.244098 508.856397 
L 654.408443 508.982701 
L 658.737133 505.75116 
L 660.901478 504.686236 
L 667.394513 505.232398 
L 669.558858 505.342589 
L 671.723203 505.119987 
L 676.051893 506.817519 
L 680.380583 507.453041 
L 682.544928 507.060955 
L 684.709273 506.403666 
L 686.873618 505.222169 
L 689.037963 502.206491 
L 691.202308 499.622664 
L 695.530998 495.764319 
L 697.695343 495.112337 
L 699.859688 493.777918 
L 702.024033 491.383546 
L 704.188378 490.446838 
L 706.352723 487.532829 
L 712.845758 486.626138 
L 715.010103 488.012074 
L 717.174448 488.355881 
L 721.503138 493.185618 
L 723.667483 493.625126 
L 725.831828 495.023681 
L 727.996173 495.54484 
L 730.160518 497.807112 
L 734.489208 515.903365 
L 736.653553 526.954821 
L 738.817898 534.633989 
L 740.982243 536.28901 
L 743.146588 534.056355 
L 745.310933 525.109469 
L 747.475278 511.161074 
L 749.639623 505.313389 
L 751.803968 505.062175 
L 753.968313 505.437083 
L 758.297003 506.813321 
L 760.461348 501.896297 
L 764.790038 477.692413 
L 766.954383 466.544838 
L 769.118728 461.521597 
L 771.283073 461.404475 
L 773.447418 465.232179 
L 775.611763 480.069877 
L 777.776108 501.97171 
L 779.940453 514.103627 
L 782.104798 521.502128 
L 784.269143 523.463705 
L 786.433488 524.092853 
L 788.597833 524.425661 
L 790.762178 521.759702 
L 792.926523 519.634361 
L 797.255213 516.006821 
L 799.419558 516.038386 
L 801.583903 516.400485 
L 803.748249 517.017904 
L 805.912594 519.02777 
L 808.076939 519.405085 
L 810.241284 518.501764 
L 812.405629 518.24215 
L 814.569974 517.174456 
L 816.734319 516.651537 
L 818.898664 516.835275 
L 821.063009 516.117101 
L 823.227354 516.59293 
L 825.391699 516.804018 
L 827.556044 515.914384 
L 829.720389 517.15444 
L 831.884734 518.228466 
L 834.049079 519.895708 
L 836.213424 522.658826 
L 838.377769 522.46447 
L 840.542114 522.715707 
L 842.706459 521.227027 
L 844.870804 519.301467 
L 847.035149 517.60503 
L 849.199494 513.707106 
L 851.363839 509.40409 
L 855.692529 499.468814 
L 857.856874 498.051296 
L 860.021219 496.054665 
L 862.185564 494.73389 
L 864.349909 494.223643 
L 866.514254 493.292681 
L 868.678599 493.388764 
L 870.842944 493.30868 
L 873.007289 493.581183 
L 875.171634 494.346657 
L 877.335979 494.736816 
L 879.500324 495.337734 
L 883.829014 496.133781 
L 885.993359 497.84317 
L 888.157704 498.431236 
L 890.322049 498.861371 
L 892.486394 498.859835 
L 894.650739 497.460135 
L 896.815084 494.826977 
L 898.979429 489.373262 
L 901.143774 482.22912 
L 903.308119 478.328851 
L 905.472464 475.890566 
L 907.636809 473.895385 
L 911.965499 472.449622 
L 914.129844 472.600856 
L 916.294189 475.265282 
L 918.458534 475.935299 
L 922.787224 477.786599 
L 924.951569 478.217701 
L 929.280259 479.264076 
L 931.444604 478.285691 
L 935.773294 477.843481 
L 937.937639 478.426169 
L 940.101984 480.238143 
L 942.266329 483.907994 
L 944.430674 491.551387 
L 946.595019 500.008251 
L 948.759364 506.049812 
L 953.088054 514.961909 
L 955.252399 518.060892 
L 957.416744 518.586415 
L 959.581089 511.954418 
L 961.745434 492.457187 
L 963.909779 476.227043 
L 966.074124 467.237958 
L 968.238469 460.103554 
L 970.402814 454.622855 
L 972.567159 453.374272 
L 974.731504 457.899155 
L 976.895849 474.915712 
L 979.060194 489.708672 
L 981.224539 496.567976 
L 983.388884 499.757074 
L 985.553229 501.600164 
L 987.717574 500.495632 
L 989.881919 498.012743 
L 992.046264 498.448647 
L 994.210609 498.152947 
L 996.374954 498.554403 
L 998.539299 499.387274 
L 1000.703644 500.727397 
L 1002.867989 503.50622 
L 1005.032334 508.905263 
L 1007.196679 513.187229 
L 1009.361024 515.23929 
L 1011.525369 516.90232 
L 1013.689714 517.762612 
L 1015.854059 518.422114 
L 1018.018404 519.415873 
L 1020.182749 518.553685 
L 1022.347094 517.951243 
L 1024.511439 518.694207 
L 1026.675784 518.77862 
L 1031.004474 519.417198 
L 1033.168819 520.134334 
L 1035.333164 523.957748 
L 1037.497509 528.908071 
L 1039.661854 533.469678 
L 1041.8262 535.65841 
L 1043.990545 535.282615 
L 1046.15489 533.810951 
L 1048.319235 530.263291 
L 1050.48358 524.804977 
L 1050.48358 524.804977 
" style="fill:none;stroke:#348abd;stroke-linecap:square;stroke-width:1.5;"/>
   </g>
   <g id="line2d_36">
    <path clip-path="url(#pfae46adc71)" d="M 87.35005 260.462565 
L 89.514396 202.472864 
L 91.678741 340.858908 
L 93.843086 198.247068 
L 96.007431 41.966381 
L 98.171776 182.16176 
L 100.336121 259.165906 
L 102.500466 456.969447 
L 104.664811 467.027779 
L 106.829156 319.960343 
L 108.993501 274.525976 
L 111.157846 98.420205 
L 113.322191 34.896364 
L 115.486536 291.948507 
L 119.815226 397.685514 
L 121.979571 379.859722 
L 124.143916 336.272846 
L 126.308261 315.600228 
L 128.472606 309.324443 
L 130.636951 378.227177 
L 132.801296 407.266418 
L 134.965641 426.313468 
L 137.129986 403.977406 
L 139.294331 409.623243 
L 141.458676 425.987897 
L 143.623021 449.311732 
L 145.787366 485.676622 
L 147.951711 509.292987 
L 150.116056 525.732391 
L 152.280401 509.485912 
L 154.444746 498.02356 
L 156.609091 477.692983 
L 158.773436 465.943893 
L 160.937781 503.112974 
L 163.102126 528.135044 
L 165.266471 548.759618 
L 167.430816 556.676827 
L 169.595161 534.393407 
L 171.759506 517.586161 
L 173.923851 511.031757 
L 176.088196 524.241563 
L 178.252541 562.391334 
L 180.416886 577.005065 
L 182.581231 571.214735 
L 184.745576 548.937142 
L 186.909921 499.633448 
L 189.074266 474.112409 
L 191.238611 490.970615 
L 193.402956 525.448847 
L 195.567301 557.889332 
L 197.731646 558.928195 
L 199.895991 542.156973 
L 202.060336 519.19572 
L 204.224681 505.347454 
L 206.389026 527.382842 
L 208.553371 555.750083 
L 210.717716 571.018522 
L 212.882061 570.488518 
L 215.046406 541.804422 
L 217.210751 523.835373 
L 219.375096 519.163701 
L 221.539441 535.686467 
L 223.703786 574.231661 
L 225.868131 571.147096 
L 228.032476 547.399798 
L 230.196821 506.866759 
L 232.361166 434.278156 
L 234.525511 447.642773 
L 236.689856 513.885858 
L 241.018546 569.851702 
L 243.182891 555.548531 
L 245.347236 505.447694 
L 247.511581 506.801604 
L 249.675926 493.718681 
L 251.840271 536.675906 
L 254.004616 571.603596 
L 256.168961 555.568475 
L 258.333306 540.70351 
L 260.497651 505.961267 
L 262.661996 467.909542 
L 266.990686 544.765246 
L 269.155031 551.612911 
L 271.319376 571.875872 
L 273.483721 563.374411 
L 275.648066 503.716608 
L 277.812411 476.278939 
L 279.976756 450.885906 
L 282.141101 441.789641 
L 284.305446 534.047862 
L 286.469791 577.502686 
L 288.634136 567.214386 
L 290.798481 554.212435 
L 292.962826 501.891544 
L 295.127171 455.050792 
L 297.291516 492.553495 
L 299.455861 527.883207 
L 301.620206 550.844857 
L 303.784551 525.028706 
L 305.948896 504.026576 
L 308.113241 485.507542 
L 310.277586 481.482855 
L 312.441931 549.343983 
L 314.606276 540.634436 
L 316.770621 540.77583 
L 318.934966 500.303519 
L 321.099311 365.171605 
L 323.263656 367.064832 
L 325.428001 323.179637 
L 327.592347 401.513828 
L 329.756692 491.330263 
L 331.921037 508.211144 
L 334.085382 530.529433 
L 336.249727 531.840422 
L 338.414072 506.023306 
L 342.742762 546.701626 
L 344.907107 542.317495 
L 347.071452 564.70219 
L 349.235797 532.311434 
L 351.400142 489.230402 
L 353.564487 497.827181 
L 355.728832 496.700753 
L 357.893177 543.523884 
L 360.057522 558.626564 
L 362.221867 556.595543 
L 364.386212 524.108582 
L 366.550557 476.419983 
L 368.714902 469.889377 
L 370.879247 483.695232 
L 373.043592 536.488401 
L 375.207937 547.898846 
L 377.372282 549.549627 
L 379.536627 510.061542 
L 381.700972 422.410108 
L 383.865317 411.399953 
L 386.029662 424.423019 
L 388.194007 498.588726 
L 390.358352 538.830779 
L 392.522697 551.196316 
L 394.687042 513.643215 
L 396.851387 434.62016 
L 399.015732 400.357491 
L 401.180077 402.229391 
L 403.344422 472.83952 
L 405.508767 528.054513 
L 407.673112 546.129426 
L 409.837457 504.078858 
L 412.001802 453.896619 
L 414.166147 413.116042 
L 416.330492 434.280757 
L 418.494837 508.501074 
L 420.659182 533.36994 
L 422.823527 554.13571 
L 424.987872 499.134208 
L 427.152217 438.863941 
L 429.316562 425.831175 
L 431.480907 416.553309 
L 433.645252 505.388817 
L 435.809597 537.544408 
L 437.973942 540.879772 
L 440.138287 501.631906 
L 442.302632 427.261331 
L 444.466977 392.444527 
L 446.631322 428.728929 
L 448.795667 510.187926 
L 450.960012 540.916963 
L 453.124357 547.731398 
L 455.288702 502.408858 
L 457.453047 437.557526 
L 459.617392 410.677739 
L 461.781737 442.494791 
L 463.946082 515.429632 
L 466.110427 539.214115 
L 468.274772 560.522535 
L 470.439117 530.989002 
L 472.603462 480.424333 
L 474.767807 468.85055 
L 476.932152 475.810614 
L 479.096497 527.479581 
L 481.260842 554.824574 
L 483.425187 563.467759 
L 485.589532 535.343894 
L 487.753877 483.211204 
L 489.918222 462.580071 
L 492.082567 461.588552 
L 494.246912 501.422945 
L 496.411257 525.002532 
L 498.575602 534.36835 
L 500.739947 502.188727 
L 502.904292 464.499321 
L 505.068637 462.277669 
L 507.232982 461.004545 
L 509.397327 520.037925 
L 511.561672 536.950176 
L 513.726017 533.046179 
L 515.890362 497.666885 
L 518.054707 437.99804 
L 520.219052 408.024292 
L 522.383397 436.70999 
L 524.547742 508.1975 
L 526.712087 529.771396 
L 528.876432 552.601762 
L 531.040777 530.102065 
L 533.205122 477.557498 
L 535.369467 459.155802 
L 537.533812 450.400673 
L 539.698157 495.991362 
L 541.862502 522.147742 
L 544.026847 544.977561 
L 546.191192 520.62136 
L 548.355537 473.009629 
L 550.519882 461.731114 
L 552.684227 429.647434 
L 554.848572 483.939029 
L 557.012917 512.594774 
L 559.177262 515.646111 
L 561.341607 496.353302 
L 563.505952 424.615728 
L 565.670298 389.296994 
L 567.834643 386.520182 
L 569.998988 451.84371 
L 572.163333 501.510157 
L 574.327678 517.714801 
L 576.492023 495.548576 
L 578.656368 431.774081 
L 580.820713 389.063901 
L 582.985058 391.891616 
L 585.149403 455.733604 
L 587.313748 500.626182 
L 589.478093 523.286147 
L 591.642438 494.986025 
L 593.806783 439.709385 
L 595.971128 388.885627 
L 598.135473 364.77755 
L 600.299818 432.640259 
L 602.464163 473.731314 
L 604.628508 504.796785 
L 606.792853 499.028467 
L 608.957198 458.139478 
L 611.121543 434.473585 
L 613.285888 438.166061 
L 617.614578 512.069899 
L 619.778923 531.80251 
L 621.943268 517.976533 
L 624.107613 486.353296 
L 626.271958 457.61464 
L 628.436303 454.377896 
L 632.764993 521.137616 
L 634.929338 543.116545 
L 637.093683 530.852016 
L 639.258028 499.609087 
L 641.422373 470.097478 
L 643.586718 459.225422 
L 645.751063 499.328021 
L 647.915408 536.32641 
L 650.079753 554.517221 
L 652.244098 542.891142 
L 656.572788 459.18609 
L 658.737133 447.51602 
L 663.065823 537.675553 
L 665.230168 556.63479 
L 667.394513 543.247561 
L 671.723203 457.62788 
L 673.887548 453.046578 
L 676.051893 498.225718 
L 678.216238 540.059366 
L 680.380583 558.699627 
L 682.544928 540.502961 
L 684.709273 496.663535 
L 686.873618 449.357402 
L 689.037963 431.936827 
L 693.366653 526.43794 
L 695.530998 545.312636 
L 697.695343 535.939091 
L 699.859688 487.322599 
L 702.024033 432.596795 
L 704.188378 425.379875 
L 706.352723 459.740867 
L 708.517068 524.264034 
L 710.681413 543.698486 
L 712.845758 533.380308 
L 715.010103 497.024152 
L 717.174448 435.003446 
L 719.338793 442.240337 
L 721.503138 476.688567 
L 723.667483 527.340588 
L 725.831828 553.488368 
L 727.996173 537.028424 
L 730.160518 512.860057 
L 732.324863 498.508806 
L 734.489208 505.408743 
L 736.653553 554.048761 
L 738.817898 581.094761 
L 740.982243 565.073519 
L 743.146588 521.399838 
L 745.310933 450.231853 
L 747.475278 400.870043 
L 749.639623 464.474946 
L 751.803968 552.290264 
L 753.968313 583.719117 
L 756.132658 569.734594 
L 758.297003 526.372431 
L 760.461348 415.812684 
L 762.625693 314.726498 
L 764.790038 381.191302 
L 766.954383 474.25724 
L 769.118728 548.55643 
L 771.283073 568.914737 
L 773.447418 553.166364 
L 775.611763 519.676569 
L 777.776108 468.039325 
L 779.940453 466.114721 
L 782.104798 526.046753 
L 784.269143 562.287466 
L 786.433488 573.318774 
L 788.597833 555.496019 
L 790.762178 501.014858 
L 792.926523 453.161933 
L 795.090868 453.089946 
L 797.255213 513.678749 
L 799.419558 562.508419 
L 801.583903 575.853471 
L 803.748249 559.817952 
L 805.912594 515.083919 
L 808.076939 455.80314 
L 810.241284 446.766699 
L 812.405629 511.861449 
L 814.569974 555.034565 
L 816.734319 572.193037 
L 818.898664 561.104118 
L 823.227354 459.133947 
L 825.391699 448.244311 
L 829.720389 563.714958 
L 831.884734 579.711221 
L 834.049079 572.774813 
L 836.213424 529.398521 
L 838.377769 457.773459 
L 840.542114 450.002967 
L 842.706459 495.213249 
L 844.870804 550.236041 
L 847.035149 567.836162 
L 849.199494 545.489343 
L 851.363839 499.277411 
L 853.528184 423.73579 
L 855.692529 414.493699 
L 857.856874 485.290624 
L 860.021219 536.259628 
L 862.185564 558.590731 
L 864.349909 541.917618 
L 866.514254 492.760673 
L 868.678599 424.408371 
L 870.842944 413.933113 
L 873.007289 487.198145 
L 875.171634 541.617949 
L 877.335979 561.321842 
L 879.500324 546.124047 
L 881.664669 495.450256 
L 883.829014 427.291118 
L 885.993359 425.898833 
L 888.157704 491.314608 
L 890.322049 544.628891 
L 892.486394 561.311089 
L 894.650739 536.326148 
L 896.815084 477.018152 
L 898.979429 389.115112 
L 901.143774 375.88984 
L 903.308119 464.012724 
L 905.472464 527.560893 
L 907.636809 547.344823 
L 909.801154 531.441397 
L 911.965499 471.782565 
L 914.129844 390.173749 
L 916.294189 394.540827 
L 918.458534 468.702842 
L 920.622879 533.673511 
L 922.787224 554.191302 
L 924.951569 534.459109 
L 927.115914 475.832749 
L 929.280259 393.448189 
L 931.444604 387.692136 
L 933.608949 467.218839 
L 935.773294 532.062045 
L 937.937639 558.270113 
L 940.101984 547.142928 
L 942.266329 501.521707 
L 944.430674 446.951939 
L 946.595019 446.890185 
L 948.759364 509.509771 
L 950.923709 563.8932 
L 953.088054 588.823636 
L 955.252399 568.835805 
L 957.416744 505.200371 
L 959.581089 400.527957 
L 961.745434 310.409567 
L 963.909779 395.898764 
L 966.074124 500.969607 
L 968.238469 538.882808 
L 970.402814 530.470911 
L 972.567159 496.460294 
L 974.731504 432.202138 
L 976.895849 429.525464 
L 979.060194 499.449483 
L 981.224539 548.984736 
L 983.388884 561.206493 
L 985.553229 543.372541 
L 987.717574 488.728565 
L 989.881919 414.82192 
L 992.046264 432.57679 
L 994.210609 497.379585 
L 996.374954 551.794929 
L 998.539299 567.036588 
L 1000.703644 552.753405 
L 1002.867989 508.180324 
L 1005.032334 452.615221 
L 1007.196679 462.55055 
L 1011.525369 563.436136 
L 1013.689714 573.058631 
L 1015.854059 557.369916 
L 1018.018404 515.136641 
L 1020.182749 446.579905 
L 1022.347094 458.333454 
L 1024.511439 516.944767 
L 1026.675784 564.027022 
L 1028.840129 575.662726 
L 1031.004474 559.235869 
L 1033.168819 520.156597 
L 1035.333164 473.343802 
L 1037.497509 492.985715 
L 1039.661854 548.876013 
L 1041.8262 579.34815 
L 1043.990545 573.032161 
L 1046.15489 548.934219 
L 1048.319235 495.322974 
L 1050.48358 435.135609 
L 1050.48358 435.135609 
" style="fill:none;stroke:#348abd;stroke-dasharray:1.5,2.475;stroke-dashoffset:0;stroke-width:1.5;"/>
   </g>
   <g id="line2d_37">
    <path clip-path="url(#pfae46adc71)" d="M 30.103125 509.360236 
L 1099.073125 509.360236 
" style="fill:none;stroke:#008000;stroke-linecap:square;stroke-opacity:0.5;stroke-width:1.5;"/>
   </g>
   <g id="patch_3">
    <path d="M 30.103125 616.52 
L 30.103125 7.2 
" style="fill:none;stroke:#ffffff;stroke-linecap:square;stroke-linejoin:miter;"/>
   </g>
   <g id="patch_4">
    <path d="M 1099.073125 616.52 
L 1099.073125 7.2 
" style="fill:none;stroke:#ffffff;stroke-linecap:square;stroke-linejoin:miter;"/>
   </g>
   <g id="patch_5">
    <path d="M 30.103125 616.52 
L 1099.073125 616.52 
" style="fill:none;stroke:#ffffff;stroke-linecap:square;stroke-linejoin:miter;"/>
   </g>
   <g id="patch_6">
    <path d="M 30.103125 7.2 
L 1099.073125 7.2 
" style="fill:none;stroke:#ffffff;stroke-linecap:square;stroke-linejoin:miter;"/>
   </g>
  </g>
  <g id="axes_2">
   <g id="matplotlib.axis_3">
    <g id="ytick_9">
     <g id="line2d_38">
      <path clip-path="url(#pfae46adc71)" d="M 30.103125 589.00409 
L 1099.073125 589.00409 
" style="fill:none;stroke:#ffffff;stroke-linecap:square;stroke-width:0.8;"/>
     </g>
     <g id="line2d_39">
      <defs>
       <path d="M 0 0 
L 3.5 0 
" id="m52fe7d7dd8" style="stroke:#555555;stroke-width:0.8;"/>
      </defs>
      <g>
       <use style="fill:#555555;stroke:#555555;stroke-width:0.8;" x="1099.073125" xlink:href="#m52fe7d7dd8" y="589.00409"/>
      </g>
     </g>
     <g id="text_17">
      <!-- 0 -->
      <g style="fill:#555555;" transform="translate(1106.073125 592.803309)scale(0.1 -0.1)">
       <use xlink:href="#DejaVuSans-30"/>
      </g>
     </g>
    </g>
    <g id="ytick_10">
     <g id="line2d_40">
      <path clip-path="url(#pfae46adc71)" d="M 30.103125 506.979676 
L 1099.073125 506.979676 
" style="fill:none;stroke:#ffffff;stroke-linecap:square;stroke-width:0.8;"/>
     </g>
     <g id="line2d_41">
      <g>
       <use style="fill:#555555;stroke:#555555;stroke-width:0.8;" x="1099.073125" xlink:href="#m52fe7d7dd8" y="506.979676"/>
      </g>
     </g>
     <g id="text_18">
      <!-- 5000 -->
      <g style="fill:#555555;" transform="translate(1106.073125 510.778895)scale(0.1 -0.1)">
       <use xlink:href="#DejaVuSans-35"/>
       <use x="63.623047" xlink:href="#DejaVuSans-30"/>
       <use x="127.246094" xlink:href="#DejaVuSans-30"/>
       <use x="190.869141" xlink:href="#DejaVuSans-30"/>
      </g>
     </g>
    </g>
    <g id="ytick_11">
     <g id="line2d_42">
      <path clip-path="url(#pfae46adc71)" d="M 30.103125 424.955262 
L 1099.073125 424.955262 
" style="fill:none;stroke:#ffffff;stroke-linecap:square;stroke-width:0.8;"/>
     </g>
     <g id="line2d_43">
      <g>
       <use style="fill:#555555;stroke:#555555;stroke-width:0.8;" x="1099.073125" xlink:href="#m52fe7d7dd8" y="424.955262"/>
      </g>
     </g>
     <g id="text_19">
      <!-- 10000 -->
      <g style="fill:#555555;" transform="translate(1106.073125 428.754481)scale(0.1 -0.1)">
       <use xlink:href="#DejaVuSans-31"/>
       <use x="63.623047" xlink:href="#DejaVuSans-30"/>
       <use x="127.246094" xlink:href="#DejaVuSans-30"/>
       <use x="190.869141" xlink:href="#DejaVuSans-30"/>
       <use x="254.492188" xlink:href="#DejaVuSans-30"/>
      </g>
     </g>
    </g>
    <g id="ytick_12">
     <g id="line2d_44">
      <path clip-path="url(#pfae46adc71)" d="M 30.103125 342.930848 
L 1099.073125 342.930848 
" style="fill:none;stroke:#ffffff;stroke-linecap:square;stroke-width:0.8;"/>
     </g>
     <g id="line2d_45">
      <g>
       <use style="fill:#555555;stroke:#555555;stroke-width:0.8;" x="1099.073125" xlink:href="#m52fe7d7dd8" y="342.930848"/>
      </g>
     </g>
     <g id="text_20">
      <!-- 15000 -->
      <g style="fill:#555555;" transform="translate(1106.073125 346.730067)scale(0.1 -0.1)">
       <use xlink:href="#DejaVuSans-31"/>
       <use x="63.623047" xlink:href="#DejaVuSans-35"/>
       <use x="127.246094" xlink:href="#DejaVuSans-30"/>
       <use x="190.869141" xlink:href="#DejaVuSans-30"/>
       <use x="254.492188" xlink:href="#DejaVuSans-30"/>
      </g>
     </g>
    </g>
    <g id="ytick_13">
     <g id="line2d_46">
      <path clip-path="url(#pfae46adc71)" d="M 30.103125 260.906434 
L 1099.073125 260.906434 
" style="fill:none;stroke:#ffffff;stroke-linecap:square;stroke-width:0.8;"/>
     </g>
     <g id="line2d_47">
      <g>
       <use style="fill:#555555;stroke:#555555;stroke-width:0.8;" x="1099.073125" xlink:href="#m52fe7d7dd8" y="260.906434"/>
      </g>
     </g>
     <g id="text_21">
      <!-- 20000 -->
      <g style="fill:#555555;" transform="translate(1106.073125 264.705653)scale(0.1 -0.1)">
       <use xlink:href="#DejaVuSans-32"/>
       <use x="63.623047" xlink:href="#DejaVuSans-30"/>
       <use x="127.246094" xlink:href="#DejaVuSans-30"/>
       <use x="190.869141" xlink:href="#DejaVuSans-30"/>
       <use x="254.492188" xlink:href="#DejaVuSans-30"/>
      </g>
     </g>
    </g>
    <g id="ytick_14">
     <g id="line2d_48">
      <path clip-path="url(#pfae46adc71)" d="M 30.103125 178.88202 
L 1099.073125 178.88202 
" style="fill:none;stroke:#ffffff;stroke-linecap:square;stroke-width:0.8;"/>
     </g>
     <g id="line2d_49">
      <g>
       <use style="fill:#555555;stroke:#555555;stroke-width:0.8;" x="1099.073125" xlink:href="#m52fe7d7dd8" y="178.88202"/>
      </g>
     </g>
     <g id="text_22">
      <!-- 25000 -->
      <g style="fill:#555555;" transform="translate(1106.073125 182.681239)scale(0.1 -0.1)">
       <use xlink:href="#DejaVuSans-32"/>
       <use x="63.623047" xlink:href="#DejaVuSans-35"/>
       <use x="127.246094" xlink:href="#DejaVuSans-30"/>
       <use x="190.869141" xlink:href="#DejaVuSans-30"/>
       <use x="254.492188" xlink:href="#DejaVuSans-30"/>
      </g>
     </g>
    </g>
    <g id="ytick_15">
     <g id="line2d_50">
      <path clip-path="url(#pfae46adc71)" d="M 30.103125 96.857606 
L 1099.073125 96.857606 
" style="fill:none;stroke:#ffffff;stroke-linecap:square;stroke-width:0.8;"/>
     </g>
     <g id="line2d_51">
      <g>
       <use style="fill:#555555;stroke:#555555;stroke-width:0.8;" x="1099.073125" xlink:href="#m52fe7d7dd8" y="96.857606"/>
      </g>
     </g>
     <g id="text_23">
      <!-- 30000 -->
      <g style="fill:#555555;" transform="translate(1106.073125 100.656825)scale(0.1 -0.1)">
       <use xlink:href="#DejaVuSans-33"/>
       <use x="63.623047" xlink:href="#DejaVuSans-30"/>
       <use x="127.246094" xlink:href="#DejaVuSans-30"/>
       <use x="190.869141" xlink:href="#DejaVuSans-30"/>
       <use x="254.492188" xlink:href="#DejaVuSans-30"/>
      </g>
     </g>
    </g>
    <g id="ytick_16">
     <g id="line2d_52">
      <path clip-path="url(#pfae46adc71)" d="M 30.103125 14.833192 
L 1099.073125 14.833192 
" style="fill:none;stroke:#ffffff;stroke-linecap:square;stroke-width:0.8;"/>
     </g>
     <g id="line2d_53">
      <g>
       <use style="fill:#555555;stroke:#555555;stroke-width:0.8;" x="1099.073125" xlink:href="#m52fe7d7dd8" y="14.833192"/>
      </g>
     </g>
     <g id="text_24">
      <!-- 35000 -->
      <g style="fill:#555555;" transform="translate(1106.073125 18.632411)scale(0.1 -0.1)">
       <use xlink:href="#DejaVuSans-33"/>
       <use x="63.623047" xlink:href="#DejaVuSans-35"/>
       <use x="127.246094" xlink:href="#DejaVuSans-30"/>
       <use x="190.869141" xlink:href="#DejaVuSans-30"/>
       <use x="254.492188" xlink:href="#DejaVuSans-30"/>
      </g>
     </g>
    </g>
   </g>
   <g id="line2d_54">
    <path clip-path="url(#pfae46adc71)" d="M 78.69267 588.134631 
L 80.857015 588.479134 
L 83.02136 588.309617 
L 87.35005 588.361019 
L 89.514396 588.287744 
L 91.678741 588.066668 
L 96.007431 587.290952 
L 98.171776 587.187835 
L 100.336121 586.698032 
L 102.500466 586.42618 
L 104.664811 585.945751 
L 106.829156 584.389631 
L 108.993501 583.325657 
L 111.157846 581.973426 
L 117.650881 575.27086 
L 119.815226 573.463979 
L 121.979571 568.779213 
L 124.143916 563.471062 
L 126.308261 558.849572 
L 128.472606 556.728655 
L 130.636951 549.960469 
L 132.801296 541.476801 
L 134.965641 534.268027 
L 137.129986 529.222354 
L 139.294331 522.608842 
L 141.458676 514.197824 
L 143.623021 509.470875 
L 145.787366 507.856166 
L 147.951711 508.205355 
L 150.116056 505.07671 
L 152.280401 502.259757 
L 154.444746 501.336396 
L 156.609091 501.83323 
L 158.773436 497.214084 
L 160.937781 499.731061 
L 163.102126 501.561378 
L 165.266471 504.959532 
L 167.430816 507.729614 
L 169.595161 509.723979 
L 171.759506 514.291567 
L 173.923851 521.59174 
L 176.088196 524.263392 
L 178.252541 528.3693 
L 180.416886 531.924472 
L 182.581231 536.864685 
L 184.745576 541.418212 
L 186.909921 542.646235 
L 189.074266 543.496945 
L 191.238611 545.282734 
L 195.567301 546.562315 
L 197.731646 547.766902 
L 199.895991 550.211229 
L 202.060336 553.853113 
L 208.553371 558.819106 
L 212.882061 563.053909 
L 215.046406 564.68971 
L 217.210751 567.291056 
L 219.375096 569.503372 
L 221.539441 570.297837 
L 223.703786 571.373528 
L 225.868131 572.210177 
L 228.032476 572.664827 
L 230.196821 573.672555 
L 232.361166 572.955428 
L 234.525511 573.250715 
L 236.689856 574.00534 
L 238.854201 573.424139 
L 241.018546 573.773328 
L 243.182891 574.595916 
L 245.347236 575.289608 
L 247.511581 576.768391 
L 249.675926 576.96525 
L 251.840271 577.000403 
L 254.004616 577.984696 
L 256.168961 577.987039 
L 258.333306 578.427628 
L 260.497651 579.489258 
L 262.661996 579.447074 
L 264.826341 579.803294 
L 269.155031 580.117331 
L 273.483721 582.05545 
L 275.648066 581.396912 
L 277.812411 581.162556 
L 279.976756 581.502372 
L 282.141101 581.399255 
L 284.305446 581.912494 
L 286.469791 581.959365 
L 288.634136 581.863279 
L 290.798481 582.411671 
L 292.962826 583.187387 
L 295.127171 583.152234 
L 297.291516 583.431117 
L 299.455861 583.11005 
L 301.620206 583.166295 
L 303.784551 582.788983 
L 305.948896 583.372528 
L 312.441931 583.688908 
L 318.934966 583.501424 
L 321.099311 582.301524 
L 323.263656 581.708604 
L 325.428001 580.67744 
L 327.592347 579.868914 
L 329.756692 579.57597 
L 331.921037 579.008829 
L 334.085382 578.891652 
L 336.249727 579.578313 
L 338.414072 579.376767 
L 340.578417 580.386839 
L 342.742762 581.031317 
L 344.907107 581.043035 
L 349.235797 581.624236 
L 351.400142 581.696887 
L 353.564487 582.317929 
L 357.893177 582.458542 
L 362.221867 582.873351 
L 368.714902 583.238946 
L 370.879247 583.217854 
L 373.043592 583.358467 
L 375.207937 583.306909 
L 377.372282 583.414712 
L 379.536627 583.199105 
L 383.865317 582.40464 
L 386.029662 582.512444 
L 394.687042 581.720322 
L 399.015732 580.586042 
L 405.508767 579.871257 
L 407.673112 579.33224 
L 409.837457 578.551836 
L 412.001802 578.422941 
L 414.166147 578.015162 
L 416.330492 578.167493 
L 418.494837 577.771432 
L 420.659182 577.194918 
L 422.823527 577.061335 
L 424.987872 576.726207 
L 427.152217 576.077042 
L 429.316562 575.685669 
L 431.480907 574.947449 
L 433.645252 575.118529 
L 435.809597 574.914639 
L 437.973942 573.778015 
L 440.138287 572.840593 
L 444.466977 571.446178 
L 446.631322 571.28213 
L 448.795667 570.989185 
L 450.960012 569.995518 
L 455.288702 568.715937 
L 457.453047 568.767495 
L 459.617392 567.316835 
L 463.946082 566.597364 
L 466.110427 566.859842 
L 468.274772 566.705167 
L 470.439117 567.173878 
L 472.603462 566.836406 
L 474.767807 568.137079 
L 476.932152 568.130048 
L 481.260842 568.507361 
L 483.425187 569.257298 
L 485.589532 569.716635 
L 489.918222 570.229873 
L 494.246912 569.276047 
L 496.411257 568.617508 
L 498.575602 568.804992 
L 500.739947 567.443387 
L 502.904292 567.370737 
L 505.068637 566.780161 
L 507.232982 566.873903 
L 509.397327 566.609081 
L 511.561672 566.824689 
L 513.726017 565.125611 
L 515.890362 564.417858 
L 518.054707 563.405442 
L 520.219052 561.842291 
L 522.383397 560.9119 
L 524.547742 560.923618 
L 526.712087 559.953386 
L 528.876432 560.262735 
L 531.040777 560.382257 
L 535.369467 559.334688 
L 537.533812 559.182357 
L 541.862502 557.921524 
L 544.026847 557.853561 
L 546.191192 557.009881 
L 548.355537 555.791233 
L 550.519882 555.659994 
L 552.684227 553.623445 
L 554.848572 553.17817 
L 557.012917 551.889215 
L 559.177262 549.475353 
L 561.341607 545.831126 
L 563.505952 541.511954 
L 565.670298 536.454563 
L 567.834643 533.632924 
L 569.998988 531.090167 
L 572.163333 527.614675 
L 574.327678 522.215125 
L 576.492023 516.168754 
L 578.656368 509.564617 
L 580.820713 502.278505 
L 582.985058 497.347666 
L 585.149403 492.993342 
L 587.313748 486.557941 
L 589.478093 480.785765 
L 591.642438 469.89058 
L 593.806783 460.731968 
L 595.971128 444.598937 
L 598.135473 431.50081 
L 602.464163 410.64083 
L 604.628508 393.371176 
L 606.792853 380.512091 
L 608.957198 363.078388 
L 611.121543 352.895643 
L 613.285888 345.862635 
L 615.450233 337.866426 
L 617.614578 328.62579 
L 619.778923 323.352792 
L 621.943268 315.81592 
L 624.107613 309.195378 
L 626.271958 299.024351 
L 628.436303 294.71221 
L 630.600648 291.74527 
L 632.764993 291.792141 
L 634.929338 288.808796 
L 637.093683 284.412288 
L 639.258028 279.64081 
L 641.422373 281.839064 
L 643.586718 279.659559 
L 645.751063 285.609844 
L 650.079753 289.919641 
L 652.244098 288.17838 
L 654.408443 287.929963 
L 656.572788 286.751155 
L 658.737133 289.577482 
L 660.901478 289.48374 
L 663.065823 291.510915 
L 665.230168 288.998624 
L 667.394513 289.797776 
L 669.558858 291.771049 
L 671.723203 294.74502 
L 673.887548 297.393237 
L 676.051893 296.678453 
L 678.216238 296.561275 
L 680.380583 299.75554 
L 682.544928 300.275809 
L 684.709273 298.768904 
L 686.873618 294.965314 
L 689.037963 287.569056 
L 691.202308 284.843502 
L 693.366653 283.788902 
L 695.530998 275.481001 
L 697.695343 271.653976 
L 699.859688 256.594293 
L 702.024033 244.595293 
L 704.188378 238.893425 
L 706.352723 229.448899 
L 708.517068 228.563036 
L 710.681413 212.362042 
L 712.845758 204.759551 
L 715.010103 195.615 
L 717.174448 188.907747 
L 719.338793 182.882468 
L 721.503138 182.223929 
L 723.667483 170.281174 
L 725.831828 177.283716 
L 727.996173 164.928495 
L 730.160518 184.24876 
L 732.324863 223.725939 
L 734.489208 244.855428 
L 736.653553 258.136352 
L 738.817898 273.688181 
L 740.982243 279.03383 
L 743.146588 278.19718 
L 745.310933 284.311515 
L 747.475278 288.447889 
L 749.639623 296.509717 
L 751.803968 299.15559 
L 753.968313 301.487427 
L 756.132658 304.351251 
L 758.297003 318.789891 
L 760.461348 297.873666 
L 762.625693 269.741635 
L 764.790038 254.154653 
L 766.954383 247.991104 
L 769.118728 245.870187 
L 771.283073 249.706586 
L 773.447418 252.582128 
L 775.611763 274.80137 
L 777.776108 288.900195 
L 779.940453 296.127717 
L 782.104798 308.632925 
L 784.269143 311.991239 
L 786.433488 320.488968 
L 788.597833 331.65835 
L 790.762178 342.218407 
L 792.926523 347.517185 
L 795.090868 351.325461 
L 797.255213 352.291005 
L 799.419558 363.908006 
L 803.748249 377.081127 
L 805.912594 386.080377 
L 808.076939 395.679577 
L 812.405629 400.802587 
L 814.569974 401.500967 
L 818.898664 417.519163 
L 821.063009 420.129883 
L 823.227354 424.432649 
L 825.391699 430.469646 
L 827.556044 432.98428 
L 829.720389 439.393902 
L 831.884734 443.220927 
L 834.049079 452.534214 
L 836.213424 459.677368 
L 838.377769 464.671483 
L 840.542114 470.535057 
L 842.706459 470.790505 
L 844.870804 469.672629 
L 847.035149 470.881903 
L 849.199494 470.95221 
L 851.363839 472.702845 
L 853.528184 470.804566 
L 855.692529 467.143934 
L 857.856874 467.277516 
L 860.021219 467.21424 
L 862.185564 466.157297 
L 864.349909 462.262309 
L 866.514254 460.190607 
L 868.678599 458.789161 
L 870.842944 458.28764 
L 873.007289 457.43693 
L 875.171634 457.296317 
L 877.335979 454.924639 
L 879.500324 454.823867 
L 881.664669 453.457574 
L 883.829014 453.938003 
L 885.993359 453.438826 
L 890.322049 452.060816 
L 892.486394 451.763184 
L 894.650739 446.035536 
L 896.815084 440.753164 
L 898.979429 433.448304 
L 901.143774 427.151173 
L 903.308119 423.41789 
L 905.472464 420.540005 
L 907.636809 410.488499 
L 909.801154 403.110989 
L 911.965499 392.218147 
L 914.129844 384.346146 
L 916.294189 377.449065 
L 918.458534 374.859437 
L 920.622879 370.16061 
L 922.787224 364.587637 
L 924.951569 352.5113 
L 927.115914 342.923817 
L 929.280259 332.520778 
L 931.444604 324.451919 
L 935.773294 314.545714 
L 937.937639 311.644393 
L 940.101984 307.793933 
L 942.266329 307.055713 
L 944.430674 312.546662 
L 946.595019 324.217564 
L 948.759364 327.439952 
L 950.923709 333.683181 
L 953.088054 350.964553 
L 955.252399 360.088012 
L 957.416744 351.70746 
L 961.745434 324.45895 
L 963.909779 313.331752 
L 966.074124 304.1333 
L 968.238469 275.973147 
L 970.402814 254.836627 
L 972.567159 253.976543 
L 974.731504 254.663204 
L 976.895849 251.546277 
L 979.060194 255.783423 
L 981.224539 258.598033 
L 983.388884 251.11975 
L 985.553229 250.904143 
L 987.717574 246.891977 
L 992.046264 248.823066 
L 994.210609 247.721595 
L 996.374954 244.517956 
L 998.539299 250.735407 
L 1000.703644 261.942285 
L 1002.867989 269.47447 
L 1005.032334 279.919693 
L 1007.196679 285.738739 
L 1009.361024 292.176484 
L 1011.525369 300.242999 
L 1013.689714 310.078898 
L 1015.854059 316.601011 
L 1018.018404 330.296745 
L 1020.182749 337.913297 
L 1022.347094 346.429775 
L 1024.511439 351.674651 
L 1026.675784 354.976719 
L 1028.840129 362.300328 
L 1031.004474 372.926004 
L 1033.168819 389.680077 
L 1035.333164 407.938711 
L 1037.497509 417.678525 
L 1039.661854 421.217292 
L 1041.8262 425.707543 
L 1043.990545 434.774756 
L 1046.15489 446.7761 
L 1048.319235 452.792005 
L 1050.48358 454.694971 
L 1050.48358 454.694971 
" style="fill:none;stroke:#000000;stroke-linecap:square;stroke-width:1.5;"/>
   </g>
   <g id="line2d_55">
    <path clip-path="url(#pfae46adc71)" d="M 78.69267 588.134631 
L 80.857015 588.823636 
L 83.02136 587.970582 
L 85.185705 588.544753 
L 87.35005 588.33149 
L 89.514396 587.921368 
L 91.678741 586.740216 
L 93.843086 585.083323 
L 96.007431 586.444928 
L 98.171776 587.248768 
L 100.336121 585.116133 
L 102.500466 586.428523 
L 104.664811 584.558367 
L 106.829156 575.847374 
L 108.993501 577.635506 
L 111.157846 576.979311 
L 113.322191 571.893797 
L 115.486536 569.744758 
L 117.650881 570.236904 
L 119.815226 571.910202 
L 121.979571 543.054013 
L 124.143916 540.478447 
L 126.308261 544.628882 
L 128.472606 557.047378 
L 130.636951 522.367456 
L 132.801296 510.851228 
L 134.965641 521.448783 
L 139.294331 494.183867 
L 141.458676 485.751758 
L 143.623021 523.95873 
L 145.787366 511.064492 
L 147.951711 513.295556 
L 150.116056 499.548264 
L 152.280401 488.015632 
L 154.444746 487.720344 
L 156.609091 489.229593 
L 158.773436 491.624706 
L 160.937781 528.683336 
L 163.102126 526.107769 
L 165.266471 523.335344 
L 167.430816 507.406203 
L 169.595161 501.680899 
L 171.759506 521.202709 
L 173.923851 542.725916 
L 176.088196 547.384902 
L 178.252541 554.849124 
L 180.416886 548.221551 
L 182.581231 541.987696 
L 184.745576 533.555586 
L 186.909921 529.798868 
L 189.074266 548.680888 
L 191.238611 559.885423 
L 193.402956 559.721374 
L 195.567301 552.306367 
L 197.731646 550.419806 
L 199.895991 550.665879 
L 202.060336 555.292056 
L 204.224681 560.508809 
L 206.389026 572.303919 
L 208.553371 570.236904 
L 210.717716 567.612123 
L 212.882061 564.757673 
L 215.046406 562.116487 
L 217.210751 573.501476 
L 219.375096 575.995018 
L 221.539441 577.865175 
L 223.703786 577.766745 
L 225.868131 573.468666 
L 228.032476 567.940221 
L 230.196821 569.170587 
L 232.361166 568.481582 
L 234.525511 578.062033 
L 236.689856 583.147547 
L 238.854201 573.698334 
L 241.018546 575.912994 
L 243.182891 573.698334 
L 245.347236 574.026432 
L 247.511581 578.833063 
L 249.675926 579.440043 
L 251.840271 583.39362 
L 254.004616 580.588385 
L 256.168961 575.929398 
L 258.333306 576.782452 
L 260.497651 581.457844 
L 262.661996 578.537775 
L 264.826341 581.933586 
L 266.990686 584.263079 
L 269.155031 581.917181 
L 271.319376 583.065522 
L 273.483721 583.213166 
L 275.648066 576.848072 
L 277.812411 576.897287 
L 279.976756 584.312294 
L 282.141101 583.541264 
L 284.305446 585.50985 
L 286.469791 583.39362 
L 288.634136 582.540566 
L 290.798481 580.686814 
L 297.291516 585.493445 
L 299.455861 583.262381 
L 301.620206 583.787337 
L 303.784551 579.89938 
L 305.948896 584.77163 
L 308.113241 583.295191 
L 310.277586 584.952084 
L 312.441931 585.854353 
L 314.606276 582.803044 
L 316.770621 583.344406 
L 318.934966 579.489258 
L 321.099311 576.37233 
L 323.263656 579.144756 
L 325.428001 577.733936 
L 327.592347 580.194668 
L 329.756692 580.752434 
L 331.921037 579.374424 
L 334.085382 578.669014 
L 336.249727 581.178961 
L 338.414072 577.733936 
L 340.578417 584.80444 
L 342.742762 584.706011 
L 344.907107 580.834458 
L 347.071452 581.359415 
L 349.235797 580.752434 
L 351.400142 581.687512 
L 353.564487 582.08123 
L 355.728832 585.083323 
L 357.893177 585.411421 
L 360.057522 582.606186 
L 362.221867 582.491352 
L 364.386212 581.753132 
L 366.550557 582.524161 
L 368.714902 582.803044 
L 370.879247 584.935679 
L 373.043592 586.395714 
L 375.207937 582.245278 
L 377.372282 583.245976 
L 379.536627 580.243883 
L 381.700972 579.440043 
L 383.865317 580.325907 
L 386.029662 585.690304 
L 388.194007 584.919274 
L 390.358352 580.440741 
L 392.522697 581.556273 
L 394.687042 579.669712 
L 396.851387 575.634111 
L 399.015732 576.191877 
L 401.180077 584.000601 
L 403.344422 583.42643 
L 405.508767 578.619799 
L 407.673112 577.78315 
L 409.837457 574.206886 
L 412.001802 574.731842 
L 414.166147 573.337427 
L 416.330492 585.066918 
L 418.494837 580.654005 
L 420.659182 574.584198 
L 422.823527 576.848072 
L 424.987872 571.860988 
L 427.152217 570.187689 
L 429.316562 570.597812 
L 431.480907 579.89938 
L 433.645252 581.851561 
L 435.809597 573.156973 
L 437.973942 568.891704 
L 440.138287 565.299034 
L 442.302632 565.233415 
L 444.466977 565.791181 
L 446.631322 578.751038 
L 448.795667 579.800951 
L 450.960012 566.201303 
L 453.124357 564.232717 
L 455.288702 561.000955 
L 457.453047 565.594322 
L 459.617392 555.636558 
L 461.781737 576.175472 
L 463.946082 577.340218 
L 466.110427 568.03865 
L 468.274772 563.149995 
L 470.439117 564.281932 
L 472.603462 563.232019 
L 474.767807 564.741268 
L 476.932152 576.126257 
L 479.096497 578.997112 
L 481.260842 569.022943 
L 483.425187 568.399557 
L 485.589532 567.497289 
L 487.753877 565.167795 
L 489.918222 566.398162 
L 492.082567 572.796066 
L 494.246912 575.650515 
L 496.411257 564.413171 
L 498.575602 569.711948 
L 500.739947 557.966052 
L 502.904292 564.659244 
L 505.068637 562.264131 
L 507.232982 573.452261 
L 509.397327 573.796764 
L 513.726017 557.818408 
L 515.890362 553.011777 
L 518.054707 557.572335 
L 520.219052 551.322074 
L 522.383397 566.939523 
L 524.547742 573.878788 
L 526.712087 559.130798 
L 528.876432 559.983852 
L 531.040777 553.848426 
L 533.205122 553.684377 
L 535.369467 547.877049 
L 537.533812 565.873205 
L 539.698157 569.44947 
L 541.862502 554.73429 
L 544.026847 559.508111 
L 546.191192 547.942668 
L 548.355537 545.153838 
L 550.519882 546.958375 
L 552.684227 551.617362 
L 554.848572 566.332542 
L 557.012917 545.711604 
L 559.177262 542.611082 
L 561.341607 522.433076 
L 563.505952 514.919639 
L 565.670298 511.556638 
L 567.834643 531.865883 
L 569.998988 548.533244 
L 572.163333 521.383163 
L 574.327678 504.814232 
L 576.492023 480.108478 
L 578.656368 468.69068 
L 580.820713 460.553858 
L 582.985058 497.35001 
L 585.149403 518.052972 
L 587.313748 476.335355 
L 589.478093 464.409005 
L 591.642438 403.842178 
L 593.806783 404.580398 
L 595.971128 347.622645 
L 598.135473 405.66312 
L 600.299818 446.527683 
L 602.464163 401.840782 
L 604.628508 343.521424 
L 606.792853 313.828586 
L 608.957198 282.544474 
L 611.121543 276.343429 
L 613.285888 356.432067 
L 615.450233 390.554223 
L 617.614578 337.156329 
L 619.778923 306.610438 
L 621.943268 261.070483 
L 624.107613 236.200681 
L 626.271958 205.146237 
L 628.436303 326.247082 
L 630.600648 369.785641 
L 632.764993 337.484427 
L 634.929338 285.727022 
L 637.093683 230.294923 
L 639.258028 202.800339 
L 641.422373 220.534017 
L 643.586718 310.990541 
L 645.751063 411.437639 
L 647.915408 352.462085 
L 650.079753 300.917943 
L 652.244098 218.106095 
L 654.408443 201.061422 
L 656.572788 212.282361 
L 658.737133 330.77483 
L 660.901478 410.781443 
L 663.065823 366.652309 
L 665.230168 283.331909 
L 667.394513 223.70016 
L 669.558858 214.874333 
L 671.723203 233.100158 
L 673.887548 349.312347 
L 676.051893 405.777954 
L 678.216238 365.832064 
L 680.380583 305.691764 
L 682.544928 227.342044 
L 684.709273 204.325993 
L 686.873618 206.475033 
L 691.202308 386.699075 
L 693.366653 358.449867 
L 695.530998 247.536455 
L 697.695343 200.55287 
L 699.859688 98.908216 
L 702.024033 122.482033 
L 704.188378 257.625457 
L 706.352723 320.587398 
L 708.517068 352.248821 
L 710.681413 134.1295 
L 712.845758 147.33543 
L 715.010103 34.896364 
L 717.174448 75.531258 
L 719.338793 215.448504 
L 721.503138 315.977626 
L 723.667483 268.649539 
L 725.831828 183.14729 
L 727.996173 60.848888 
L 730.160518 170.138217 
L 732.324863 351.871509 
L 734.489208 363.354927 
L 736.653553 408.944096 
L 738.817898 377.512341 
L 740.982243 220.566827 
L 743.146588 54.992345 
L 745.310933 212.938557 
L 747.475278 380.826127 
L 749.639623 419.787724 
L 751.803968 427.465209 
L 753.968313 393.835199 
L 756.132658 240.613594 
L 758.297003 156.062828 
L 760.461348 66.524978 
L 762.625693 183.901914 
L 764.790038 310.678848 
L 766.954383 384.320367 
L 769.118728 378.98878 
L 771.283073 267.468387 
L 773.447418 176.191619 
L 775.611763 222.059672 
L 777.776108 282.593689 
L 779.940453 361.271507 
L 782.104798 471.856822 
L 784.269143 402.496977 
L 788.597833 254.377291 
L 790.762178 295.980073 
L 792.926523 319.685129 
L 795.090868 387.929442 
L 797.255213 478.615634 
L 799.419558 483.815982 
L 801.583903 372.426827 
L 803.748249 301.114802 
L 805.912594 358.974823 
L 808.076939 386.879529 
L 810.241284 405.400642 
L 812.405629 497.005507 
L 814.569974 488.704637 
L 816.734319 429.794702 
L 818.898664 355.874301 
L 821.063009 377.249863 
L 823.227354 416.998894 
L 825.391699 447.65962 
L 827.556044 514.607947 
L 829.720389 533.571991 
L 831.884734 456.583876 
L 834.049079 421.067305 
L 836.213424 427.251946 
L 838.377769 451.957699 
L 840.542114 488.704637 
L 842.706459 516.396079 
L 844.870804 525.746862 
L 847.035149 465.048796 
L 849.199494 421.559451 
L 851.363839 439.506393 
L 853.528184 438.669744 
L 855.692529 463.08021 
L 857.856874 517.331157 
L 860.021219 525.30393 
L 862.185564 457.650193 
L 864.349909 394.294536 
L 866.514254 425.004477 
L 868.678599 428.859624 
L 870.842944 459.569565 
L 873.007289 511.376185 
L 875.171634 524.319637 
L 877.335979 441.048452 
L 879.500324 393.589126 
L 881.664669 415.44043 
L 883.829014 432.222625 
L 885.993359 456.075325 
L 888.157704 506.799222 
L 890.322049 519.250528 
L 892.486394 438.965032 
L 894.650739 353.495593 
L 896.815084 378.463824 
L 898.979429 381.088605 
L 901.143774 411.995405 
L 903.308119 480.666244 
L 905.472464 499.105332 
L 907.636809 368.60449 
L 909.801154 301.853021 
L 911.965499 302.213929 
L 914.129844 325.984604 
L 916.294189 363.715835 
L 918.458534 462.538849 
L 920.622879 466.213542 
L 922.787224 329.593678 
L 924.951569 217.31866 
L 929.280259 253.163329 
L 931.444604 307.233823 
L 933.608949 427.055087 
L 935.773294 432.353864 
L 940.101984 190.365438 
L 942.266329 229.934015 
L 944.430674 291.59997 
L 946.595019 388.930139 
L 948.759364 449.611801 
L 950.923709 476.056472 
L 953.088054 430.254039 
L 955.252399 254.229647 
L 957.416744 171.270154 
L 959.581089 193.695629 
L 961.745434 296.094908 
L 963.909779 371.721417 
L 966.074124 411.667307 
L 968.238469 233.132967 
L 970.402814 106.274009 
L 972.567159 165.249562 
L 974.731504 198.50226 
L 976.895849 274.276413 
L 979.060194 401.381445 
L 981.224539 431.369571 
L 983.388884 180.784986 
L 985.553229 104.764759 
L 987.717574 137.164403 
L 989.881919 205.261072 
L 992.046264 281.035225 
L 994.210609 393.671151 
L 996.374954 408.944096 
L 998.539299 224.30714 
L 1000.703644 183.212909 
L 1002.867989 189.889696 
L 1005.032334 278.377634 
L 1007.196679 321.768549 
L 1009.361024 438.735364 
L 1011.525369 465.409703 
L 1013.689714 293.158434 
L 1015.854059 228.867698 
L 1018.018404 285.759831 
L 1020.182749 331.693503 
L 1022.347094 381.383893 
L 1024.511439 475.449491 
L 1026.675784 488.524183 
L 1028.840129 344.423692 
L 1031.004474 303.247437 
L 1033.168819 403.038339 
L 1035.333164 459.503945 
L 1037.497509 449.562586 
L 1039.661854 500.220864 
L 1041.8262 519.955938 
L 1043.990545 407.894184 
L 1046.15489 387.256841 
L 1048.319235 445.149673 
L 1050.48358 472.82471 
L 1050.48358 472.82471 
" style="fill:none;stroke:#000000;stroke-dasharray:1.5,2.475;stroke-dashoffset:0;stroke-width:1.5;"/>
   </g>
   <g id="patch_7">
    <path d="M 30.103125 616.52 
L 30.103125 7.2 
" style="fill:none;stroke:#ffffff;stroke-linecap:square;stroke-linejoin:miter;"/>
   </g>
   <g id="patch_8">
    <path d="M 1099.073125 616.52 
L 1099.073125 7.2 
" style="fill:none;stroke:#ffffff;stroke-linecap:square;stroke-linejoin:miter;"/>
   </g>
   <g id="patch_9">
    <path d="M 30.103125 616.52 
L 1099.073125 616.52 
" style="fill:none;stroke:#ffffff;stroke-linecap:square;stroke-linejoin:miter;"/>
   </g>
   <g id="patch_10">
    <path d="M 30.103125 7.2 
L 1099.073125 7.2 
" style="fill:none;stroke:#ffffff;stroke-linecap:square;stroke-linejoin:miter;"/>
   </g>
   <g id="legend_1">
    <g id="patch_11">
     <path d="M 934.877812 103.26875 
L 1092.073125 103.26875 
Q 1094.073125 103.26875 1094.073125 101.26875 
L 1094.073125 14.2 
Q 1094.073125 12.2 1092.073125 12.2 
L 934.877812 12.2 
Q 932.877812 12.2 932.877812 14.2 
L 932.877812 101.26875 
Q 932.877812 103.26875 934.877812 103.26875 
z
" style="fill:#e5e5e5;opacity:0.8;stroke:#cccccc;stroke-linejoin:miter;stroke-width:0.5;"/>
    </g>
    <g id="line2d_56">
     <path d="M 936.877812 20.298437 
L 956.877812 20.298437 
" style="fill:none;stroke:#e24a33;stroke-linecap:square;stroke-width:1.5;"/>
    </g>
    <g id="line2d_57"/>
    <g id="text_25">
     <!-- Logistic rate rolling week -->
     <g transform="translate(964.877812 23.798437)scale(0.1 -0.1)">
      <defs>
       <path d="M 628 4666 
L 1259 4666 
L 1259 531 
L 3531 531 
L 3531 0 
L 628 0 
L 628 4666 
z
" id="DejaVuSans-4c" transform="scale(0.015625)"/>
       <path d="M 1959 3097 
Q 1497 3097 1228 2736 
Q 959 2375 959 1747 
Q 959 1119 1226 758 
Q 1494 397 1959 397 
Q 2419 397 2687 759 
Q 2956 1122 2956 1747 
Q 2956 2369 2687 2733 
Q 2419 3097 1959 3097 
z
M 1959 3584 
Q 2709 3584 3137 3096 
Q 3566 2609 3566 1747 
Q 3566 888 3137 398 
Q 2709 -91 1959 -91 
Q 1206 -91 779 398 
Q 353 888 353 1747 
Q 353 2609 779 3096 
Q 1206 3584 1959 3584 
z
" id="DejaVuSans-6f" transform="scale(0.015625)"/>
       <path d="M 2906 1791 
Q 2906 2416 2648 2759 
Q 2391 3103 1925 3103 
Q 1463 3103 1205 2759 
Q 947 2416 947 1791 
Q 947 1169 1205 825 
Q 1463 481 1925 481 
Q 2391 481 2648 825 
Q 2906 1169 2906 1791 
z
M 3481 434 
Q 3481 -459 3084 -895 
Q 2688 -1331 1869 -1331 
Q 1566 -1331 1297 -1286 
Q 1028 -1241 775 -1147 
L 775 -588 
Q 1028 -725 1275 -790 
Q 1522 -856 1778 -856 
Q 2344 -856 2625 -561 
Q 2906 -266 2906 331 
L 2906 616 
Q 2728 306 2450 153 
Q 2172 0 1784 0 
Q 1141 0 747 490 
Q 353 981 353 1791 
Q 353 2603 747 3093 
Q 1141 3584 1784 3584 
Q 2172 3584 2450 3431 
Q 2728 3278 2906 2969 
L 2906 3500 
L 3481 3500 
L 3481 434 
z
" id="DejaVuSans-67" transform="scale(0.015625)"/>
       <path d="M 603 3500 
L 1178 3500 
L 1178 0 
L 603 0 
L 603 3500 
z
M 603 4863 
L 1178 4863 
L 1178 4134 
L 603 4134 
L 603 4863 
z
" id="DejaVuSans-69" transform="scale(0.015625)"/>
       <path d="M 2834 3397 
L 2834 2853 
Q 2591 2978 2328 3040 
Q 2066 3103 1784 3103 
Q 1356 3103 1142 2972 
Q 928 2841 928 2578 
Q 928 2378 1081 2264 
Q 1234 2150 1697 2047 
L 1894 2003 
Q 2506 1872 2764 1633 
Q 3022 1394 3022 966 
Q 3022 478 2636 193 
Q 2250 -91 1575 -91 
Q 1294 -91 989 -36 
Q 684 19 347 128 
L 347 722 
Q 666 556 975 473 
Q 1284 391 1588 391 
Q 1994 391 2212 530 
Q 2431 669 2431 922 
Q 2431 1156 2273 1281 
Q 2116 1406 1581 1522 
L 1381 1569 
Q 847 1681 609 1914 
Q 372 2147 372 2553 
Q 372 3047 722 3315 
Q 1072 3584 1716 3584 
Q 2034 3584 2315 3537 
Q 2597 3491 2834 3397 
z
" id="DejaVuSans-73" transform="scale(0.015625)"/>
       <path d="M 1172 4494 
L 1172 3500 
L 2356 3500 
L 2356 3053 
L 1172 3053 
L 1172 1153 
Q 1172 725 1289 603 
Q 1406 481 1766 481 
L 2356 481 
L 2356 0 
L 1766 0 
Q 1100 0 847 248 
Q 594 497 594 1153 
L 594 3053 
L 172 3053 
L 172 3500 
L 594 3500 
L 594 4494 
L 1172 4494 
z
" id="DejaVuSans-74" transform="scale(0.015625)"/>
       <path d="M 3122 3366 
L 3122 2828 
Q 2878 2963 2633 3030 
Q 2388 3097 2138 3097 
Q 1578 3097 1268 2742 
Q 959 2388 959 1747 
Q 959 1106 1268 751 
Q 1578 397 2138 397 
Q 2388 397 2633 464 
Q 2878 531 3122 666 
L 3122 134 
Q 2881 22 2623 -34 
Q 2366 -91 2075 -91 
Q 1284 -91 818 406 
Q 353 903 353 1747 
Q 353 2603 823 3093 
Q 1294 3584 2113 3584 
Q 2378 3584 2631 3529 
Q 2884 3475 3122 3366 
z
" id="DejaVuSans-63" transform="scale(0.015625)"/>
       <path id="DejaVuSans-20" transform="scale(0.015625)"/>
       <path d="M 2631 2963 
Q 2534 3019 2420 3045 
Q 2306 3072 2169 3072 
Q 1681 3072 1420 2755 
Q 1159 2438 1159 1844 
L 1159 0 
L 581 0 
L 581 3500 
L 1159 3500 
L 1159 2956 
Q 1341 3275 1631 3429 
Q 1922 3584 2338 3584 
Q 2397 3584 2469 3576 
Q 2541 3569 2628 3553 
L 2631 2963 
z
" id="DejaVuSans-72" transform="scale(0.015625)"/>
       <path d="M 2194 1759 
Q 1497 1759 1228 1600 
Q 959 1441 959 1056 
Q 959 750 1161 570 
Q 1363 391 1709 391 
Q 2188 391 2477 730 
Q 2766 1069 2766 1631 
L 2766 1759 
L 2194 1759 
z
M 3341 1997 
L 3341 0 
L 2766 0 
L 2766 531 
Q 2569 213 2275 61 
Q 1981 -91 1556 -91 
Q 1019 -91 701 211 
Q 384 513 384 1019 
Q 384 1609 779 1909 
Q 1175 2209 1959 2209 
L 2766 2209 
L 2766 2266 
Q 2766 2663 2505 2880 
Q 2244 3097 1772 3097 
Q 1472 3097 1187 3025 
Q 903 2953 641 2809 
L 641 3341 
Q 956 3463 1253 3523 
Q 1550 3584 1831 3584 
Q 2591 3584 2966 3190 
Q 3341 2797 3341 1997 
z
" id="DejaVuSans-61" transform="scale(0.015625)"/>
       <path d="M 3597 1894 
L 3597 1613 
L 953 1613 
Q 991 1019 1311 708 
Q 1631 397 2203 397 
Q 2534 397 2845 478 
Q 3156 559 3463 722 
L 3463 178 
Q 3153 47 2828 -22 
Q 2503 -91 2169 -91 
Q 1331 -91 842 396 
Q 353 884 353 1716 
Q 353 2575 817 3079 
Q 1281 3584 2069 3584 
Q 2775 3584 3186 3129 
Q 3597 2675 3597 1894 
z
M 3022 2063 
Q 3016 2534 2758 2815 
Q 2500 3097 2075 3097 
Q 1594 3097 1305 2825 
Q 1016 2553 972 2059 
L 3022 2063 
z
" id="DejaVuSans-65" transform="scale(0.015625)"/>
       <path d="M 603 4863 
L 1178 4863 
L 1178 0 
L 603 0 
L 603 4863 
z
" id="DejaVuSans-6c" transform="scale(0.015625)"/>
       <path d="M 3513 2113 
L 3513 0 
L 2938 0 
L 2938 2094 
Q 2938 2591 2744 2837 
Q 2550 3084 2163 3084 
Q 1697 3084 1428 2787 
Q 1159 2491 1159 1978 
L 1159 0 
L 581 0 
L 581 3500 
L 1159 3500 
L 1159 2956 
Q 1366 3272 1645 3428 
Q 1925 3584 2291 3584 
Q 2894 3584 3203 3211 
Q 3513 2838 3513 2113 
z
" id="DejaVuSans-6e" transform="scale(0.015625)"/>
       <path d="M 269 3500 
L 844 3500 
L 1563 769 
L 2278 3500 
L 2956 3500 
L 3675 769 
L 4391 3500 
L 4966 3500 
L 4050 0 
L 3372 0 
L 2619 2869 
L 1863 0 
L 1184 0 
L 269 3500 
z
" id="DejaVuSans-77" transform="scale(0.015625)"/>
       <path d="M 581 4863 
L 1159 4863 
L 1159 1991 
L 2875 3500 
L 3609 3500 
L 1753 1863 
L 3688 0 
L 2938 0 
L 1159 1709 
L 1159 0 
L 581 0 
L 581 4863 
z
" id="DejaVuSans-6b" transform="scale(0.015625)"/>
      </defs>
      <use xlink:href="#DejaVuSans-4c"/>
      <use x="53.962891" xlink:href="#DejaVuSans-6f"/>
      <use x="115.144531" xlink:href="#DejaVuSans-67"/>
      <use x="178.621094" xlink:href="#DejaVuSans-69"/>
      <use x="206.404297" xlink:href="#DejaVuSans-73"/>
      <use x="258.503906" xlink:href="#DejaVuSans-74"/>
      <use x="297.712891" xlink:href="#DejaVuSans-69"/>
      <use x="325.496094" xlink:href="#DejaVuSans-63"/>
      <use x="380.476562" xlink:href="#DejaVuSans-20"/>
      <use x="412.263672" xlink:href="#DejaVuSans-72"/>
      <use x="453.376953" xlink:href="#DejaVuSans-61"/>
      <use x="514.65625" xlink:href="#DejaVuSans-74"/>
      <use x="553.865234" xlink:href="#DejaVuSans-65"/>
      <use x="615.388672" xlink:href="#DejaVuSans-20"/>
      <use x="647.175781" xlink:href="#DejaVuSans-72"/>
      <use x="686.039062" xlink:href="#DejaVuSans-6f"/>
      <use x="747.220703" xlink:href="#DejaVuSans-6c"/>
      <use x="775.003906" xlink:href="#DejaVuSans-6c"/>
      <use x="802.787109" xlink:href="#DejaVuSans-69"/>
      <use x="830.570312" xlink:href="#DejaVuSans-6e"/>
      <use x="893.949219" xlink:href="#DejaVuSans-67"/>
      <use x="957.425781" xlink:href="#DejaVuSans-20"/>
      <use x="989.212891" xlink:href="#DejaVuSans-77"/>
      <use x="1071" xlink:href="#DejaVuSans-65"/>
      <use x="1132.523438" xlink:href="#DejaVuSans-65"/>
      <use x="1194.046875" xlink:href="#DejaVuSans-6b"/>
     </g>
    </g>
    <g id="line2d_58">
     <path d="M 936.877812 34.976562 
L 956.877812 34.976562 
" style="fill:none;stroke:#e24a33;stroke-dasharray:1.5,2.475;stroke-dashoffset:0;stroke-width:1.5;"/>
    </g>
    <g id="line2d_59"/>
    <g id="text_26">
     <!-- Logistic rate -->
     <g transform="translate(964.877812 38.476562)scale(0.1 -0.1)">
      <use xlink:href="#DejaVuSans-4c"/>
      <use x="53.962891" xlink:href="#DejaVuSans-6f"/>
      <use x="115.144531" xlink:href="#DejaVuSans-67"/>
      <use x="178.621094" xlink:href="#DejaVuSans-69"/>
      <use x="206.404297" xlink:href="#DejaVuSans-73"/>
      <use x="258.503906" xlink:href="#DejaVuSans-74"/>
      <use x="297.712891" xlink:href="#DejaVuSans-69"/>
      <use x="325.496094" xlink:href="#DejaVuSans-63"/>
      <use x="380.476562" xlink:href="#DejaVuSans-20"/>
      <use x="412.263672" xlink:href="#DejaVuSans-72"/>
      <use x="453.376953" xlink:href="#DejaVuSans-61"/>
      <use x="514.65625" xlink:href="#DejaVuSans-74"/>
      <use x="553.865234" xlink:href="#DejaVuSans-65"/>
     </g>
    </g>
    <g id="line2d_60">
     <path d="M 936.877812 49.654687 
L 956.877812 49.654687 
" style="fill:none;stroke:#348abd;stroke-linecap:square;stroke-width:1.5;"/>
    </g>
    <g id="line2d_61"/>
    <g id="text_27">
     <!-- RKI rate rolling week -->
     <g transform="translate(964.877812 53.154687)scale(0.1 -0.1)">
      <defs>
       <path d="M 2841 2188 
Q 3044 2119 3236 1894 
Q 3428 1669 3622 1275 
L 4263 0 
L 3584 0 
L 2988 1197 
Q 2756 1666 2539 1819 
Q 2322 1972 1947 1972 
L 1259 1972 
L 1259 0 
L 628 0 
L 628 4666 
L 2053 4666 
Q 2853 4666 3247 4331 
Q 3641 3997 3641 3322 
Q 3641 2881 3436 2590 
Q 3231 2300 2841 2188 
z
M 1259 4147 
L 1259 2491 
L 2053 2491 
Q 2509 2491 2742 2702 
Q 2975 2913 2975 3322 
Q 2975 3731 2742 3939 
Q 2509 4147 2053 4147 
L 1259 4147 
z
" id="DejaVuSans-52" transform="scale(0.015625)"/>
       <path d="M 628 4666 
L 1259 4666 
L 1259 2694 
L 3353 4666 
L 4166 4666 
L 1850 2491 
L 4331 0 
L 3500 0 
L 1259 2247 
L 1259 0 
L 628 0 
L 628 4666 
z
" id="DejaVuSans-4b" transform="scale(0.015625)"/>
       <path d="M 628 4666 
L 1259 4666 
L 1259 0 
L 628 0 
L 628 4666 
z
" id="DejaVuSans-49" transform="scale(0.015625)"/>
      </defs>
      <use xlink:href="#DejaVuSans-52"/>
      <use x="69.482422" xlink:href="#DejaVuSans-4b"/>
      <use x="135.058594" xlink:href="#DejaVuSans-49"/>
      <use x="164.550781" xlink:href="#DejaVuSans-20"/>
      <use x="196.337891" xlink:href="#DejaVuSans-72"/>
      <use x="237.451172" xlink:href="#DejaVuSans-61"/>
      <use x="298.730469" xlink:href="#DejaVuSans-74"/>
      <use x="337.939453" xlink:href="#DejaVuSans-65"/>
      <use x="399.462891" xlink:href="#DejaVuSans-20"/>
      <use x="431.25" xlink:href="#DejaVuSans-72"/>
      <use x="470.113281" xlink:href="#DejaVuSans-6f"/>
      <use x="531.294922" xlink:href="#DejaVuSans-6c"/>
      <use x="559.078125" xlink:href="#DejaVuSans-6c"/>
      <use x="586.861328" xlink:href="#DejaVuSans-69"/>
      <use x="614.644531" xlink:href="#DejaVuSans-6e"/>
      <use x="678.023438" xlink:href="#DejaVuSans-67"/>
      <use x="741.5" xlink:href="#DejaVuSans-20"/>
      <use x="773.287109" xlink:href="#DejaVuSans-77"/>
      <use x="855.074219" xlink:href="#DejaVuSans-65"/>
      <use x="916.597656" xlink:href="#DejaVuSans-65"/>
      <use x="978.121094" xlink:href="#DejaVuSans-6b"/>
     </g>
    </g>
    <g id="line2d_62">
     <path d="M 936.877812 64.332812 
L 956.877812 64.332812 
" style="fill:none;stroke:#348abd;stroke-dasharray:1.5,2.475;stroke-dashoffset:0;stroke-width:1.5;"/>
    </g>
    <g id="line2d_63"/>
    <g id="text_28">
     <!-- RKI rate -->
     <g transform="translate(964.877812 67.832812)scale(0.1 -0.1)">
      <use xlink:href="#DejaVuSans-52"/>
      <use x="69.482422" xlink:href="#DejaVuSans-4b"/>
      <use x="135.058594" xlink:href="#DejaVuSans-49"/>
      <use x="164.550781" xlink:href="#DejaVuSans-20"/>
      <use x="196.337891" xlink:href="#DejaVuSans-72"/>
      <use x="237.451172" xlink:href="#DejaVuSans-61"/>
      <use x="298.730469" xlink:href="#DejaVuSans-74"/>
      <use x="337.939453" xlink:href="#DejaVuSans-65"/>
     </g>
    </g>
    <g id="line2d_64">
     <path d="M 936.877812 79.010937 
L 956.877812 79.010937 
" style="fill:none;stroke:#000000;stroke-linecap:square;stroke-width:1.5;"/>
    </g>
    <g id="line2d_65"/>
    <g id="text_29">
     <!-- New Cases rolling week -->
     <g transform="translate(964.877812 82.510937)scale(0.1 -0.1)">
      <defs>
       <path d="M 628 4666 
L 1478 4666 
L 3547 763 
L 3547 4666 
L 4159 4666 
L 4159 0 
L 3309 0 
L 1241 3903 
L 1241 0 
L 628 0 
L 628 4666 
z
" id="DejaVuSans-4e" transform="scale(0.015625)"/>
       <path d="M 4122 4306 
L 4122 3641 
Q 3803 3938 3442 4084 
Q 3081 4231 2675 4231 
Q 1875 4231 1450 3742 
Q 1025 3253 1025 2328 
Q 1025 1406 1450 917 
Q 1875 428 2675 428 
Q 3081 428 3442 575 
Q 3803 722 4122 1019 
L 4122 359 
Q 3791 134 3420 21 
Q 3050 -91 2638 -91 
Q 1578 -91 968 557 
Q 359 1206 359 2328 
Q 359 3453 968 4101 
Q 1578 4750 2638 4750 
Q 3056 4750 3426 4639 
Q 3797 4528 4122 4306 
z
" id="DejaVuSans-43" transform="scale(0.015625)"/>
      </defs>
      <use xlink:href="#DejaVuSans-4e"/>
      <use x="74.804688" xlink:href="#DejaVuSans-65"/>
      <use x="136.328125" xlink:href="#DejaVuSans-77"/>
      <use x="218.115234" xlink:href="#DejaVuSans-20"/>
      <use x="249.902344" xlink:href="#DejaVuSans-43"/>
      <use x="319.726562" xlink:href="#DejaVuSans-61"/>
      <use x="381.005859" xlink:href="#DejaVuSans-73"/>
      <use x="433.105469" xlink:href="#DejaVuSans-65"/>
      <use x="494.628906" xlink:href="#DejaVuSans-73"/>
      <use x="546.728516" xlink:href="#DejaVuSans-20"/>
      <use x="578.515625" xlink:href="#DejaVuSans-72"/>
      <use x="617.378906" xlink:href="#DejaVuSans-6f"/>
      <use x="678.560547" xlink:href="#DejaVuSans-6c"/>
      <use x="706.34375" xlink:href="#DejaVuSans-6c"/>
      <use x="734.126953" xlink:href="#DejaVuSans-69"/>
      <use x="761.910156" xlink:href="#DejaVuSans-6e"/>
      <use x="825.289062" xlink:href="#DejaVuSans-67"/>
      <use x="888.765625" xlink:href="#DejaVuSans-20"/>
      <use x="920.552734" xlink:href="#DejaVuSans-77"/>
      <use x="1002.339844" xlink:href="#DejaVuSans-65"/>
      <use x="1063.863281" xlink:href="#DejaVuSans-65"/>
      <use x="1125.386719" xlink:href="#DejaVuSans-6b"/>
     </g>
    </g>
    <g id="line2d_66">
     <path d="M 936.877812 93.689062 
L 956.877812 93.689062 
" style="fill:none;stroke:#000000;stroke-dasharray:1.5,2.475;stroke-dashoffset:0;stroke-width:1.5;"/>
    </g>
    <g id="line2d_67"/>
    <g id="text_30">
     <!-- New Cases -->
     <g transform="translate(964.877812 97.189062)scale(0.1 -0.1)">
      <use xlink:href="#DejaVuSans-4e"/>
      <use x="74.804688" xlink:href="#DejaVuSans-65"/>
      <use x="136.328125" xlink:href="#DejaVuSans-77"/>
      <use x="218.115234" xlink:href="#DejaVuSans-20"/>
      <use x="249.902344" xlink:href="#DejaVuSans-43"/>
      <use x="319.726562" xlink:href="#DejaVuSans-61"/>
      <use x="381.005859" xlink:href="#DejaVuSans-73"/>
      <use x="433.105469" xlink:href="#DejaVuSans-65"/>
      <use x="494.628906" xlink:href="#DejaVuSans-73"/>
     </g>
    </g>
   </g>
  </g>
 </g>
 <defs>
  <clipPath id="pfae46adc71">
   <rect height="609.32" width="1068.97" x="30.103125" y="7.2"/>
  </clipPath>
 </defs>
</svg>
