<?xml version="1.0" encoding="utf-8" standalone="no"?>
<!DOCTYPE svg PUBLIC "-//W3C//DTD SVG 1.1//EN"
  "http://www.w3.org/Graphics/SVG/1.1/DTD/svg11.dtd">
<!-- Created with matplotlib (https://matplotlib.org/) -->
<svg height="533.56587pt" version="1.1" viewBox="0 0 968.915625 533.56587" width="968.915625pt" xmlns="http://www.w3.org/2000/svg" xmlns:xlink="http://www.w3.org/1999/xlink">
 <metadata>
  <rdf:RDF xmlns:cc="http://creativecommons.org/ns#" xmlns:dc="http://purl.org/dc/elements/1.1/" xmlns:rdf="http://www.w3.org/1999/02/22-rdf-syntax-ns#">
   <cc:Work>
    <dc:type rdf:resource="http://purl.org/dc/dcmitype/StillImage"/>
    <dc:date>2020-11-03T09:00:16.966510</dc:date>
    <dc:format>image/svg+xml</dc:format>
    <dc:creator>
     <cc:Agent>
      <dc:title>Matplotlib v3.3.2, https://matplotlib.org/</dc:title>
     </cc:Agent>
    </dc:creator>
   </cc:Work>
  </rdf:RDF>
 </metadata>
 <defs>
  <style type="text/css">*{stroke-linecap:butt;stroke-linejoin:round;}</style>
 </defs>
 <g id="figure_1">
  <g id="patch_1">
   <path d="M 0 533.56587 
L 968.915625 533.56587 
L 968.915625 0 
L 0 0 
z
" style="fill:#ffffff;"/>
  </g>
  <g id="axes_1">
   <g id="patch_2">
    <path d="M 30.103125 509.687745 
L 922.903125 509.687745 
L 922.903125 10.727745 
L 30.103125 10.727745 
z
" style="fill:#e5e5e5;"/>
   </g>
   <g id="matplotlib.axis_1">
    <g id="xtick_1">
     <g id="line2d_1">
      <path clip-path="url(#pa378ecc971)" d="M 77.204111 509.687745 
L 77.204111 10.727745 
" style="fill:none;stroke:#ffffff;stroke-linecap:square;stroke-width:0.8;"/>
     </g>
     <g id="line2d_2">
      <defs>
       <path d="M 0 0 
L 0 3.5 
" id="mfb388c96fa" style="stroke:#555555;stroke-width:0.8;"/>
      </defs>
      <g>
       <use style="fill:#555555;stroke:#555555;stroke-width:0.8;" x="77.204111" xlink:href="#mfb388c96fa" y="509.687745"/>
      </g>
     </g>
     <g id="text_1">
      <!-- 2020-03 -->
      <g style="fill:#555555;" transform="translate(56.312705 524.286182)scale(0.1 -0.1)">
       <defs>
        <path d="M 19.1875 8.296875 
L 53.609375 8.296875 
L 53.609375 0 
L 7.328125 0 
L 7.328125 8.296875 
Q 12.9375 14.109375 22.625 23.890625 
Q 32.328125 33.6875 34.8125 36.53125 
Q 39.546875 41.84375 41.421875 45.53125 
Q 43.3125 49.21875 43.3125 52.78125 
Q 43.3125 58.59375 39.234375 62.25 
Q 35.15625 65.921875 28.609375 65.921875 
Q 23.96875 65.921875 18.8125 64.3125 
Q 13.671875 62.703125 7.8125 59.421875 
L 7.8125 69.390625 
Q 13.765625 71.78125 18.9375 73 
Q 24.125 74.21875 28.421875 74.21875 
Q 39.75 74.21875 46.484375 68.546875 
Q 53.21875 62.890625 53.21875 53.421875 
Q 53.21875 48.921875 51.53125 44.890625 
Q 49.859375 40.875 45.40625 35.40625 
Q 44.1875 33.984375 37.640625 27.21875 
Q 31.109375 20.453125 19.1875 8.296875 
z
" id="DejaVuSans-50"/>
        <path d="M 31.78125 66.40625 
Q 24.171875 66.40625 20.328125 58.90625 
Q 16.5 51.421875 16.5 36.375 
Q 16.5 21.390625 20.328125 13.890625 
Q 24.171875 6.390625 31.78125 6.390625 
Q 39.453125 6.390625 43.28125 13.890625 
Q 47.125 21.390625 47.125 36.375 
Q 47.125 51.421875 43.28125 58.90625 
Q 39.453125 66.40625 31.78125 66.40625 
z
M 31.78125 74.21875 
Q 44.046875 74.21875 50.515625 64.515625 
Q 56.984375 54.828125 56.984375 36.375 
Q 56.984375 17.96875 50.515625 8.265625 
Q 44.046875 -1.421875 31.78125 -1.421875 
Q 19.53125 -1.421875 13.0625 8.265625 
Q 6.59375 17.96875 6.59375 36.375 
Q 6.59375 54.828125 13.0625 64.515625 
Q 19.53125 74.21875 31.78125 74.21875 
z
" id="DejaVuSans-48"/>
        <path d="M 4.890625 31.390625 
L 31.203125 31.390625 
L 31.203125 23.390625 
L 4.890625 23.390625 
z
" id="DejaVuSans-45"/>
        <path d="M 40.578125 39.3125 
Q 47.65625 37.796875 51.625 33 
Q 55.609375 28.21875 55.609375 21.1875 
Q 55.609375 10.40625 48.1875 4.484375 
Q 40.765625 -1.421875 27.09375 -1.421875 
Q 22.515625 -1.421875 17.65625 -0.515625 
Q 12.796875 0.390625 7.625 2.203125 
L 7.625 11.71875 
Q 11.71875 9.328125 16.59375 8.109375 
Q 21.484375 6.890625 26.8125 6.890625 
Q 36.078125 6.890625 40.9375 10.546875 
Q 45.796875 14.203125 45.796875 21.1875 
Q 45.796875 27.640625 41.28125 31.265625 
Q 36.765625 34.90625 28.71875 34.90625 
L 20.21875 34.90625 
L 20.21875 43.015625 
L 29.109375 43.015625 
Q 36.375 43.015625 40.234375 45.921875 
Q 44.09375 48.828125 44.09375 54.296875 
Q 44.09375 59.90625 40.109375 62.90625 
Q 36.140625 65.921875 28.71875 65.921875 
Q 24.65625 65.921875 20.015625 65.03125 
Q 15.375 64.15625 9.8125 62.3125 
L 9.8125 71.09375 
Q 15.4375 72.65625 20.34375 73.4375 
Q 25.25 74.21875 29.59375 74.21875 
Q 40.828125 74.21875 47.359375 69.109375 
Q 53.90625 64.015625 53.90625 55.328125 
Q 53.90625 49.265625 50.4375 45.09375 
Q 46.96875 40.921875 40.578125 39.3125 
z
" id="DejaVuSans-51"/>
       </defs>
       <use xlink:href="#DejaVuSans-50"/>
       <use x="63.623047" xlink:href="#DejaVuSans-48"/>
       <use x="127.246094" xlink:href="#DejaVuSans-50"/>
       <use x="190.869141" xlink:href="#DejaVuSans-48"/>
       <use x="254.492188" xlink:href="#DejaVuSans-45"/>
       <use x="290.576172" xlink:href="#DejaVuSans-48"/>
       <use x="354.199219" xlink:href="#DejaVuSans-51"/>
      </g>
     </g>
    </g>
    <g id="xtick_2">
     <g id="line2d_3">
      <path clip-path="url(#pa378ecc971)" d="M 178.251208 509.687745 
L 178.251208 10.727745 
" style="fill:none;stroke:#ffffff;stroke-linecap:square;stroke-width:0.8;"/>
     </g>
     <g id="line2d_4">
      <g>
       <use style="fill:#555555;stroke:#555555;stroke-width:0.8;" x="178.251208" xlink:href="#mfb388c96fa" y="509.687745"/>
      </g>
     </g>
     <g id="text_2">
      <!-- 2020-04 -->
      <g style="fill:#555555;" transform="translate(157.359802 524.286182)scale(0.1 -0.1)">
       <defs>
        <path d="M 37.796875 64.3125 
L 12.890625 25.390625 
L 37.796875 25.390625 
z
M 35.203125 72.90625 
L 47.609375 72.90625 
L 47.609375 25.390625 
L 58.015625 25.390625 
L 58.015625 17.1875 
L 47.609375 17.1875 
L 47.609375 0 
L 37.796875 0 
L 37.796875 17.1875 
L 4.890625 17.1875 
L 4.890625 26.703125 
z
" id="DejaVuSans-52"/>
       </defs>
       <use xlink:href="#DejaVuSans-50"/>
       <use x="63.623047" xlink:href="#DejaVuSans-48"/>
       <use x="127.246094" xlink:href="#DejaVuSans-50"/>
       <use x="190.869141" xlink:href="#DejaVuSans-48"/>
       <use x="254.492188" xlink:href="#DejaVuSans-45"/>
       <use x="290.576172" xlink:href="#DejaVuSans-48"/>
       <use x="354.199219" xlink:href="#DejaVuSans-52"/>
      </g>
     </g>
    </g>
    <g id="xtick_3">
     <g id="line2d_5">
      <path clip-path="url(#pa378ecc971)" d="M 276.038722 509.687745 
L 276.038722 10.727745 
" style="fill:none;stroke:#ffffff;stroke-linecap:square;stroke-width:0.8;"/>
     </g>
     <g id="line2d_6">
      <g>
       <use style="fill:#555555;stroke:#555555;stroke-width:0.8;" x="276.038722" xlink:href="#mfb388c96fa" y="509.687745"/>
      </g>
     </g>
     <g id="text_3">
      <!-- 2020-05 -->
      <g style="fill:#555555;" transform="translate(255.147316 524.286182)scale(0.1 -0.1)">
       <defs>
        <path d="M 10.796875 72.90625 
L 49.515625 72.90625 
L 49.515625 64.59375 
L 19.828125 64.59375 
L 19.828125 46.734375 
Q 21.96875 47.46875 24.109375 47.828125 
Q 26.265625 48.1875 28.421875 48.1875 
Q 40.625 48.1875 47.75 41.5 
Q 54.890625 34.8125 54.890625 23.390625 
Q 54.890625 11.625 47.5625 5.09375 
Q 40.234375 -1.421875 26.90625 -1.421875 
Q 22.3125 -1.421875 17.546875 -0.640625 
Q 12.796875 0.140625 7.71875 1.703125 
L 7.71875 11.625 
Q 12.109375 9.234375 16.796875 8.0625 
Q 21.484375 6.890625 26.703125 6.890625 
Q 35.15625 6.890625 40.078125 11.328125 
Q 45.015625 15.765625 45.015625 23.390625 
Q 45.015625 31 40.078125 35.4375 
Q 35.15625 39.890625 26.703125 39.890625 
Q 22.75 39.890625 18.8125 39.015625 
Q 14.890625 38.140625 10.796875 36.28125 
z
" id="DejaVuSans-53"/>
       </defs>
       <use xlink:href="#DejaVuSans-50"/>
       <use x="63.623047" xlink:href="#DejaVuSans-48"/>
       <use x="127.246094" xlink:href="#DejaVuSans-50"/>
       <use x="190.869141" xlink:href="#DejaVuSans-48"/>
       <use x="254.492188" xlink:href="#DejaVuSans-45"/>
       <use x="290.576172" xlink:href="#DejaVuSans-48"/>
       <use x="354.199219" xlink:href="#DejaVuSans-53"/>
      </g>
     </g>
    </g>
    <g id="xtick_4">
     <g id="line2d_7">
      <path clip-path="url(#pa378ecc971)" d="M 377.085819 509.687745 
L 377.085819 10.727745 
" style="fill:none;stroke:#ffffff;stroke-linecap:square;stroke-width:0.8;"/>
     </g>
     <g id="line2d_8">
      <g>
       <use style="fill:#555555;stroke:#555555;stroke-width:0.8;" x="377.085819" xlink:href="#mfb388c96fa" y="509.687745"/>
      </g>
     </g>
     <g id="text_4">
      <!-- 2020-06 -->
      <g style="fill:#555555;" transform="translate(356.194413 524.286182)scale(0.1 -0.1)">
       <defs>
        <path d="M 33.015625 40.375 
Q 26.375 40.375 22.484375 35.828125 
Q 18.609375 31.296875 18.609375 23.390625 
Q 18.609375 15.53125 22.484375 10.953125 
Q 26.375 6.390625 33.015625 6.390625 
Q 39.65625 6.390625 43.53125 10.953125 
Q 47.40625 15.53125 47.40625 23.390625 
Q 47.40625 31.296875 43.53125 35.828125 
Q 39.65625 40.375 33.015625 40.375 
z
M 52.59375 71.296875 
L 52.59375 62.3125 
Q 48.875 64.0625 45.09375 64.984375 
Q 41.3125 65.921875 37.59375 65.921875 
Q 27.828125 65.921875 22.671875 59.328125 
Q 17.53125 52.734375 16.796875 39.40625 
Q 19.671875 43.65625 24.015625 45.921875 
Q 28.375 48.1875 33.59375 48.1875 
Q 44.578125 48.1875 50.953125 41.515625 
Q 57.328125 34.859375 57.328125 23.390625 
Q 57.328125 12.15625 50.6875 5.359375 
Q 44.046875 -1.421875 33.015625 -1.421875 
Q 20.359375 -1.421875 13.671875 8.265625 
Q 6.984375 17.96875 6.984375 36.375 
Q 6.984375 53.65625 15.1875 63.9375 
Q 23.390625 74.21875 37.203125 74.21875 
Q 40.921875 74.21875 44.703125 73.484375 
Q 48.484375 72.75 52.59375 71.296875 
z
" id="DejaVuSans-54"/>
       </defs>
       <use xlink:href="#DejaVuSans-50"/>
       <use x="63.623047" xlink:href="#DejaVuSans-48"/>
       <use x="127.246094" xlink:href="#DejaVuSans-50"/>
       <use x="190.869141" xlink:href="#DejaVuSans-48"/>
       <use x="254.492188" xlink:href="#DejaVuSans-45"/>
       <use x="290.576172" xlink:href="#DejaVuSans-48"/>
       <use x="354.199219" xlink:href="#DejaVuSans-54"/>
      </g>
     </g>
    </g>
    <g id="xtick_5">
     <g id="line2d_9">
      <path clip-path="url(#pa378ecc971)" d="M 474.873333 509.687745 
L 474.873333 10.727745 
" style="fill:none;stroke:#ffffff;stroke-linecap:square;stroke-width:0.8;"/>
     </g>
     <g id="line2d_10">
      <g>
       <use style="fill:#555555;stroke:#555555;stroke-width:0.8;" x="474.873333" xlink:href="#mfb388c96fa" y="509.687745"/>
      </g>
     </g>
     <g id="text_5">
      <!-- 2020-07 -->
      <g style="fill:#555555;" transform="translate(453.981927 524.286182)scale(0.1 -0.1)">
       <defs>
        <path d="M 8.203125 72.90625 
L 55.078125 72.90625 
L 55.078125 68.703125 
L 28.609375 0 
L 18.3125 0 
L 43.21875 64.59375 
L 8.203125 64.59375 
z
" id="DejaVuSans-55"/>
       </defs>
       <use xlink:href="#DejaVuSans-50"/>
       <use x="63.623047" xlink:href="#DejaVuSans-48"/>
       <use x="127.246094" xlink:href="#DejaVuSans-50"/>
       <use x="190.869141" xlink:href="#DejaVuSans-48"/>
       <use x="254.492188" xlink:href="#DejaVuSans-45"/>
       <use x="290.576172" xlink:href="#DejaVuSans-48"/>
       <use x="354.199219" xlink:href="#DejaVuSans-55"/>
      </g>
     </g>
    </g>
    <g id="xtick_6">
     <g id="line2d_11">
      <path clip-path="url(#pa378ecc971)" d="M 575.920431 509.687745 
L 575.920431 10.727745 
" style="fill:none;stroke:#ffffff;stroke-linecap:square;stroke-width:0.8;"/>
     </g>
     <g id="line2d_12">
      <g>
       <use style="fill:#555555;stroke:#555555;stroke-width:0.8;" x="575.920431" xlink:href="#mfb388c96fa" y="509.687745"/>
      </g>
     </g>
     <g id="text_6">
      <!-- 2020-08 -->
      <g style="fill:#555555;" transform="translate(555.029024 524.286182)scale(0.1 -0.1)">
       <defs>
        <path d="M 31.78125 34.625 
Q 24.75 34.625 20.71875 30.859375 
Q 16.703125 27.09375 16.703125 20.515625 
Q 16.703125 13.921875 20.71875 10.15625 
Q 24.75 6.390625 31.78125 6.390625 
Q 38.8125 6.390625 42.859375 10.171875 
Q 46.921875 13.96875 46.921875 20.515625 
Q 46.921875 27.09375 42.890625 30.859375 
Q 38.875 34.625 31.78125 34.625 
z
M 21.921875 38.8125 
Q 15.578125 40.375 12.03125 44.71875 
Q 8.5 49.078125 8.5 55.328125 
Q 8.5 64.0625 14.71875 69.140625 
Q 20.953125 74.21875 31.78125 74.21875 
Q 42.671875 74.21875 48.875 69.140625 
Q 55.078125 64.0625 55.078125 55.328125 
Q 55.078125 49.078125 51.53125 44.71875 
Q 48 40.375 41.703125 38.8125 
Q 48.828125 37.15625 52.796875 32.3125 
Q 56.78125 27.484375 56.78125 20.515625 
Q 56.78125 9.90625 50.3125 4.234375 
Q 43.84375 -1.421875 31.78125 -1.421875 
Q 19.734375 -1.421875 13.25 4.234375 
Q 6.78125 9.90625 6.78125 20.515625 
Q 6.78125 27.484375 10.78125 32.3125 
Q 14.796875 37.15625 21.921875 38.8125 
z
M 18.3125 54.390625 
Q 18.3125 48.734375 21.84375 45.5625 
Q 25.390625 42.390625 31.78125 42.390625 
Q 38.140625 42.390625 41.71875 45.5625 
Q 45.3125 48.734375 45.3125 54.390625 
Q 45.3125 60.0625 41.71875 63.234375 
Q 38.140625 66.40625 31.78125 66.40625 
Q 25.390625 66.40625 21.84375 63.234375 
Q 18.3125 60.0625 18.3125 54.390625 
z
" id="DejaVuSans-56"/>
       </defs>
       <use xlink:href="#DejaVuSans-50"/>
       <use x="63.623047" xlink:href="#DejaVuSans-48"/>
       <use x="127.246094" xlink:href="#DejaVuSans-50"/>
       <use x="190.869141" xlink:href="#DejaVuSans-48"/>
       <use x="254.492188" xlink:href="#DejaVuSans-45"/>
       <use x="290.576172" xlink:href="#DejaVuSans-48"/>
       <use x="354.199219" xlink:href="#DejaVuSans-56"/>
      </g>
     </g>
    </g>
    <g id="xtick_7">
     <g id="line2d_13">
      <path clip-path="url(#pa378ecc971)" d="M 676.967528 509.687745 
L 676.967528 10.727745 
" style="fill:none;stroke:#ffffff;stroke-linecap:square;stroke-width:0.8;"/>
     </g>
     <g id="line2d_14">
      <g>
       <use style="fill:#555555;stroke:#555555;stroke-width:0.8;" x="676.967528" xlink:href="#mfb388c96fa" y="509.687745"/>
      </g>
     </g>
     <g id="text_7">
      <!-- 2020-09 -->
      <g style="fill:#555555;" transform="translate(656.076122 524.286182)scale(0.1 -0.1)">
       <defs>
        <path d="M 10.984375 1.515625 
L 10.984375 10.5 
Q 14.703125 8.734375 18.5 7.8125 
Q 22.3125 6.890625 25.984375 6.890625 
Q 35.75 6.890625 40.890625 13.453125 
Q 46.046875 20.015625 46.78125 33.40625 
Q 43.953125 29.203125 39.59375 26.953125 
Q 35.25 24.703125 29.984375 24.703125 
Q 19.046875 24.703125 12.671875 31.3125 
Q 6.296875 37.9375 6.296875 49.421875 
Q 6.296875 60.640625 12.9375 67.421875 
Q 19.578125 74.21875 30.609375 74.21875 
Q 43.265625 74.21875 49.921875 64.515625 
Q 56.59375 54.828125 56.59375 36.375 
Q 56.59375 19.140625 48.40625 8.859375 
Q 40.234375 -1.421875 26.421875 -1.421875 
Q 22.703125 -1.421875 18.890625 -0.6875 
Q 15.09375 0.046875 10.984375 1.515625 
z
M 30.609375 32.421875 
Q 37.25 32.421875 41.125 36.953125 
Q 45.015625 41.5 45.015625 49.421875 
Q 45.015625 57.28125 41.125 61.84375 
Q 37.25 66.40625 30.609375 66.40625 
Q 23.96875 66.40625 20.09375 61.84375 
Q 16.21875 57.28125 16.21875 49.421875 
Q 16.21875 41.5 20.09375 36.953125 
Q 23.96875 32.421875 30.609375 32.421875 
z
" id="DejaVuSans-57"/>
       </defs>
       <use xlink:href="#DejaVuSans-50"/>
       <use x="63.623047" xlink:href="#DejaVuSans-48"/>
       <use x="127.246094" xlink:href="#DejaVuSans-50"/>
       <use x="190.869141" xlink:href="#DejaVuSans-48"/>
       <use x="254.492188" xlink:href="#DejaVuSans-45"/>
       <use x="290.576172" xlink:href="#DejaVuSans-48"/>
       <use x="354.199219" xlink:href="#DejaVuSans-57"/>
      </g>
     </g>
    </g>
    <g id="xtick_8">
     <g id="line2d_15">
      <path clip-path="url(#pa378ecc971)" d="M 774.755042 509.687745 
L 774.755042 10.727745 
" style="fill:none;stroke:#ffffff;stroke-linecap:square;stroke-width:0.8;"/>
     </g>
     <g id="line2d_16">
      <g>
       <use style="fill:#555555;stroke:#555555;stroke-width:0.8;" x="774.755042" xlink:href="#mfb388c96fa" y="509.687745"/>
      </g>
     </g>
     <g id="text_8">
      <!-- 2020-10 -->
      <g style="fill:#555555;" transform="translate(753.863636 524.286182)scale(0.1 -0.1)">
       <defs>
        <path d="M 12.40625 8.296875 
L 28.515625 8.296875 
L 28.515625 63.921875 
L 10.984375 60.40625 
L 10.984375 69.390625 
L 28.421875 72.90625 
L 38.28125 72.90625 
L 38.28125 8.296875 
L 54.390625 8.296875 
L 54.390625 0 
L 12.40625 0 
z
" id="DejaVuSans-49"/>
       </defs>
       <use xlink:href="#DejaVuSans-50"/>
       <use x="63.623047" xlink:href="#DejaVuSans-48"/>
       <use x="127.246094" xlink:href="#DejaVuSans-50"/>
       <use x="190.869141" xlink:href="#DejaVuSans-48"/>
       <use x="254.492188" xlink:href="#DejaVuSans-45"/>
       <use x="290.576172" xlink:href="#DejaVuSans-49"/>
       <use x="354.199219" xlink:href="#DejaVuSans-48"/>
      </g>
     </g>
    </g>
    <g id="xtick_9">
     <g id="line2d_17">
      <path clip-path="url(#pa378ecc971)" d="M 875.802139 509.687745 
L 875.802139 10.727745 
" style="fill:none;stroke:#ffffff;stroke-linecap:square;stroke-width:0.8;"/>
     </g>
     <g id="line2d_18">
      <g>
       <use style="fill:#555555;stroke:#555555;stroke-width:0.8;" x="875.802139" xlink:href="#mfb388c96fa" y="509.687745"/>
      </g>
     </g>
     <g id="text_9">
      <!-- 2020-11 -->
      <g style="fill:#555555;" transform="translate(854.910733 524.286182)scale(0.1 -0.1)">
       <use xlink:href="#DejaVuSans-50"/>
       <use x="63.623047" xlink:href="#DejaVuSans-48"/>
       <use x="127.246094" xlink:href="#DejaVuSans-50"/>
       <use x="190.869141" xlink:href="#DejaVuSans-48"/>
       <use x="254.492188" xlink:href="#DejaVuSans-45"/>
       <use x="290.576172" xlink:href="#DejaVuSans-49"/>
       <use x="354.199219" xlink:href="#DejaVuSans-49"/>
      </g>
     </g>
    </g>
   </g>
   <g id="matplotlib.axis_2">
    <g id="ytick_1">
     <g id="line2d_19">
      <path clip-path="url(#pa378ecc971)" d="M 30.103125 491.308022 
L 922.903125 491.308022 
" style="fill:none;stroke:#ffffff;stroke-linecap:square;stroke-width:0.8;"/>
     </g>
     <g id="line2d_20">
      <defs>
       <path d="M 0 0 
L -3.5 0 
" id="m118b59cf15" style="stroke:#555555;stroke-width:0.8;"/>
      </defs>
      <g>
       <use style="fill:#555555;stroke:#555555;stroke-width:0.8;" x="30.103125" xlink:href="#m118b59cf15" y="491.308022"/>
      </g>
     </g>
     <g id="text_10">
      <!-- 0.5 -->
      <g style="fill:#555555;" transform="translate(7.2 495.107241)scale(0.1 -0.1)">
       <defs>
        <path d="M 10.6875 12.40625 
L 21 12.40625 
L 21 0 
L 10.6875 0 
z
" id="DejaVuSans-46"/>
       </defs>
       <use xlink:href="#DejaVuSans-48"/>
       <use x="63.623047" xlink:href="#DejaVuSans-46"/>
       <use x="95.410156" xlink:href="#DejaVuSans-53"/>
      </g>
     </g>
    </g>
    <g id="ytick_2">
     <g id="line2d_21">
      <path clip-path="url(#pa378ecc971)" d="M 30.103125 430.043028 
L 922.903125 430.043028 
" style="fill:none;stroke:#ffffff;stroke-linecap:square;stroke-width:0.8;"/>
     </g>
     <g id="line2d_22">
      <g>
       <use style="fill:#555555;stroke:#555555;stroke-width:0.8;" x="30.103125" xlink:href="#m118b59cf15" y="430.043028"/>
      </g>
     </g>
     <g id="text_11">
      <!-- 1.0 -->
      <g style="fill:#555555;" transform="translate(7.2 433.842247)scale(0.1 -0.1)">
       <use xlink:href="#DejaVuSans-49"/>
       <use x="63.623047" xlink:href="#DejaVuSans-46"/>
       <use x="95.410156" xlink:href="#DejaVuSans-48"/>
      </g>
     </g>
    </g>
    <g id="ytick_3">
     <g id="line2d_23">
      <path clip-path="url(#pa378ecc971)" d="M 30.103125 368.778035 
L 922.903125 368.778035 
" style="fill:none;stroke:#ffffff;stroke-linecap:square;stroke-width:0.8;"/>
     </g>
     <g id="line2d_24">
      <g>
       <use style="fill:#555555;stroke:#555555;stroke-width:0.8;" x="30.103125" xlink:href="#m118b59cf15" y="368.778035"/>
      </g>
     </g>
     <g id="text_12">
      <!-- 1.5 -->
      <g style="fill:#555555;" transform="translate(7.2 372.577253)scale(0.1 -0.1)">
       <use xlink:href="#DejaVuSans-49"/>
       <use x="63.623047" xlink:href="#DejaVuSans-46"/>
       <use x="95.410156" xlink:href="#DejaVuSans-53"/>
      </g>
     </g>
    </g>
    <g id="ytick_4">
     <g id="line2d_25">
      <path clip-path="url(#pa378ecc971)" d="M 30.103125 307.513041 
L 922.903125 307.513041 
" style="fill:none;stroke:#ffffff;stroke-linecap:square;stroke-width:0.8;"/>
     </g>
     <g id="line2d_26">
      <g>
       <use style="fill:#555555;stroke:#555555;stroke-width:0.8;" x="30.103125" xlink:href="#m118b59cf15" y="307.513041"/>
      </g>
     </g>
     <g id="text_13">
      <!-- 2.0 -->
      <g style="fill:#555555;" transform="translate(7.2 311.312259)scale(0.1 -0.1)">
       <use xlink:href="#DejaVuSans-50"/>
       <use x="63.623047" xlink:href="#DejaVuSans-46"/>
       <use x="95.410156" xlink:href="#DejaVuSans-48"/>
      </g>
     </g>
    </g>
    <g id="ytick_5">
     <g id="line2d_27">
      <path clip-path="url(#pa378ecc971)" d="M 30.103125 246.248047 
L 922.903125 246.248047 
" style="fill:none;stroke:#ffffff;stroke-linecap:square;stroke-width:0.8;"/>
     </g>
     <g id="line2d_28">
      <g>
       <use style="fill:#555555;stroke:#555555;stroke-width:0.8;" x="30.103125" xlink:href="#m118b59cf15" y="246.248047"/>
      </g>
     </g>
     <g id="text_14">
      <!-- 2.5 -->
      <g style="fill:#555555;" transform="translate(7.2 250.047266)scale(0.1 -0.1)">
       <use xlink:href="#DejaVuSans-50"/>
       <use x="63.623047" xlink:href="#DejaVuSans-46"/>
       <use x="95.410156" xlink:href="#DejaVuSans-53"/>
      </g>
     </g>
    </g>
    <g id="ytick_6">
     <g id="line2d_29">
      <path clip-path="url(#pa378ecc971)" d="M 30.103125 184.983053 
L 922.903125 184.983053 
" style="fill:none;stroke:#ffffff;stroke-linecap:square;stroke-width:0.8;"/>
     </g>
     <g id="line2d_30">
      <g>
       <use style="fill:#555555;stroke:#555555;stroke-width:0.8;" x="30.103125" xlink:href="#m118b59cf15" y="184.983053"/>
      </g>
     </g>
     <g id="text_15">
      <!-- 3.0 -->
      <g style="fill:#555555;" transform="translate(7.2 188.782272)scale(0.1 -0.1)">
       <use xlink:href="#DejaVuSans-51"/>
       <use x="63.623047" xlink:href="#DejaVuSans-46"/>
       <use x="95.410156" xlink:href="#DejaVuSans-48"/>
      </g>
     </g>
    </g>
    <g id="ytick_7">
     <g id="line2d_31">
      <path clip-path="url(#pa378ecc971)" d="M 30.103125 123.718059 
L 922.903125 123.718059 
" style="fill:none;stroke:#ffffff;stroke-linecap:square;stroke-width:0.8;"/>
     </g>
     <g id="line2d_32">
      <g>
       <use style="fill:#555555;stroke:#555555;stroke-width:0.8;" x="30.103125" xlink:href="#m118b59cf15" y="123.718059"/>
      </g>
     </g>
     <g id="text_16">
      <!-- 3.5 -->
      <g style="fill:#555555;" transform="translate(7.2 127.517278)scale(0.1 -0.1)">
       <use xlink:href="#DejaVuSans-51"/>
       <use x="63.623047" xlink:href="#DejaVuSans-46"/>
       <use x="95.410156" xlink:href="#DejaVuSans-53"/>
      </g>
     </g>
    </g>
    <g id="ytick_8">
     <g id="line2d_33">
      <path clip-path="url(#pa378ecc971)" d="M 30.103125 62.453065 
L 922.903125 62.453065 
" style="fill:none;stroke:#ffffff;stroke-linecap:square;stroke-width:0.8;"/>
     </g>
     <g id="line2d_34">
      <g>
       <use style="fill:#555555;stroke:#555555;stroke-width:0.8;" x="30.103125" xlink:href="#m118b59cf15" y="62.453065"/>
      </g>
     </g>
     <g id="text_17">
      <!-- 4.0 -->
      <g style="fill:#555555;" transform="translate(7.2 66.252284)scale(0.1 -0.1)">
       <use xlink:href="#DejaVuSans-52"/>
       <use x="63.623047" xlink:href="#DejaVuSans-46"/>
       <use x="95.410156" xlink:href="#DejaVuSans-48"/>
      </g>
     </g>
    </g>
   </g>
   <g id="line2d_35">
    <path clip-path="url(#pa378ecc971)" d="M 73.944527 99.442961 
L 77.204111 75.204227 
L 80.463695 105.686553 
L 83.723278 91.122994 
L 86.982862 84.013437 
L 90.242446 91.799831 
L 93.50203 107.780883 
L 96.761613 137.011829 
L 100.021197 174.167561 
L 103.280781 183.325746 
L 106.540365 208.430886 
L 109.799949 228.173015 
L 113.059532 234.391805 
L 116.319116 239.812211 
L 119.5787 234.404503 
L 122.838284 231.092316 
L 126.097868 237.268208 
L 129.357451 243.686472 
L 132.617035 254.183615 
L 135.876619 268.488053 
L 139.136203 276.825354 
L 142.395787 283.320113 
L 145.65537 287.979037 
L 148.914954 293.430076 
L 152.174538 301.411573 
L 155.434122 311.166218 
L 158.693706 321.744981 
L 165.212873 339.120665 
L 168.472457 347.989966 
L 171.732041 357.829616 
L 174.991624 366.124078 
L 178.251208 372.860255 
L 181.510792 378.171103 
L 184.770376 382.9245 
L 188.02996 386.750685 
L 191.289543 389.950123 
L 194.549127 393.783062 
L 204.327879 404.174735 
L 207.587462 406.978992 
L 210.847046 409.478406 
L 214.10663 411.557471 
L 223.885381 416.556258 
L 227.144965 417.788066 
L 230.404549 418.674829 
L 236.923716 419.617733 
L 243.442884 420.502026 
L 256.481219 423.018495 
L 279.298306 426.094226 
L 285.817473 426.526739 
L 292.336641 426.808771 
L 318.413311 427.471101 
L 334.71123 427.961249 
L 364.047484 428.523605 
L 373.826236 428.557456 
L 386.864571 428.725535 
L 396.643322 428.822925 
L 409.681657 428.846733 
L 422.719992 428.894272 
L 432.498744 428.650207 
L 442.277495 428.293234 
L 448.796663 428.216413 
L 455.31583 428.270759 
L 468.354166 428.549558 
L 517.247922 428.867861 
L 559.622512 428.338757 
L 582.439598 428.031779 
L 611.775852 427.433817 
L 641.112106 426.832963 
L 647.631274 426.771961 
L 663.929193 426.990121 
L 683.486696 427.320274 
L 693.265447 427.246981 
L 709.563366 427.036412 
L 719.342117 426.932765 
L 745.418788 426.406407 
L 758.457123 426.33461 
L 771.495458 426.18021 
L 784.533793 425.791145 
L 791.052961 425.350415 
L 804.091296 424.007608 
L 810.610463 423.342401 
L 833.42755 420.209409 
L 836.687134 419.67971 
L 839.946718 418.994423 
L 849.725469 416.636481 
L 859.50422 414.476855 
L 862.763804 413.851698 
L 869.282972 413.158808 
L 872.542555 413.005199 
L 872.542555 413.005199 
" style="fill:none;stroke:#e24a33;stroke-linecap:square;stroke-width:1.5;"/>
   </g>
   <g id="line2d_36">
    <path clip-path="url(#pa378ecc971)" d="M 83.723278 99.442961 
L 86.982862 50.965492 
L 90.242446 166.651205 
L 93.50203 47.432317 
L 96.761613 55.575209 
L 103.280781 203.667195 
L 106.540365 304.059579 
L 109.799949 311.05562 
L 113.059532 230.758498 
L 116.319116 223.168301 
L 119.5787 193.770112 
L 122.838284 174.263334 
L 126.097868 241.610031 
L 129.357451 266.205629 
L 132.617035 287.87031 
L 135.876619 273.989739 
L 139.136203 268.09615 
L 142.395787 267.250114 
L 145.65537 274.394397 
L 148.914954 299.971137 
L 152.174538 311.668944 
L 155.434122 320.482779 
L 158.693706 312.147008 
L 165.212873 335.532623 
L 168.472457 348.445744 
L 171.732041 360.181959 
L 174.991624 373.087909 
L 178.251208 382.567881 
L 181.510792 381.02456 
L 184.770376 382.02787 
L 188.02996 382.685864 
L 191.289543 385.621681 
L 194.549127 393.455734 
L 197.808711 399.871208 
L 201.068295 404.963944 
L 204.327879 407.855134 
L 207.587462 406.582072 
L 210.847046 407.106765 
L 214.10663 409.388286 
L 217.366214 413.085534 
L 220.625798 417.367108 
L 223.885381 419.517397 
L 227.144965 419.709427 
L 230.404549 419.073891 
L 233.664133 417.752162 
L 236.923716 418.010943 
L 240.1833 419.292875 
L 243.442884 421.016767 
L 246.702468 422.468069 
L 249.962052 422.686733 
L 253.221635 422.28663 
L 256.481219 422.146717 
L 259.740803 422.682426 
L 263.000387 423.898312 
L 266.259971 424.960578 
L 269.519554 425.627698 
L 272.779138 425.878464 
L 276.038722 425.411512 
L 279.298306 425.598229 
L 282.55789 426.029028 
L 289.077057 427.436309 
L 292.336641 427.447207 
L 302.115392 426.28591 
L 305.374976 426.51325 
L 308.63456 427.221944 
L 311.894144 427.441276 
L 315.153727 427.786843 
L 318.413311 427.600746 
L 321.672895 427.20225 
L 328.192063 427.604245 
L 331.451646 428.035984 
L 334.71123 428.3275 
L 347.749565 427.933682 
L 354.268733 428.518555 
L 357.528317 428.540546 
L 360.7879 428.734599 
L 364.047484 428.790205 
L 370.566652 428.273126 
L 377.085819 428.343635 
L 383.604987 428.97932 
L 396.643322 428.68978 
L 406.422074 428.98035 
L 409.681657 428.811655 
L 419.460409 428.834178 
L 422.719992 429.07657 
L 432.498744 428.781787 
L 435.758328 428.401835 
L 445.537079 428.06794 
L 448.796663 428.247635 
L 461.834998 428.228534 
L 468.354166 428.68335 
L 471.613749 428.671906 
L 474.873333 428.815197 
L 481.392501 428.543749 
L 487.911668 428.739418 
L 491.171252 428.919948 
L 497.69042 428.973076 
L 504.209587 428.737384 
L 510.728755 428.840458 
L 513.988339 429.017574 
L 520.507506 429.025459 
L 530.286258 428.517737 
L 543.324593 428.87462 
L 546.584176 428.651561 
L 549.84376 428.308071 
L 553.103344 428.153773 
L 566.141679 428.563887 
L 572.660847 427.893321 
L 575.920431 427.706252 
L 582.439598 428.214076 
L 585.699182 428.213814 
L 588.958766 428.344692 
L 595.477933 427.506027 
L 598.737517 427.372673 
L 601.997101 427.48756 
L 605.256685 427.848099 
L 608.516268 427.960234 
L 611.775852 427.908414 
L 618.29502 426.834544 
L 621.554604 426.592064 
L 624.814187 426.945644 
L 628.073771 427.455411 
L 634.592939 427.460307 
L 637.852523 426.87075 
L 641.112106 426.402052 
L 644.37169 426.069309 
L 647.631274 426.485411 
L 650.890858 427.042149 
L 654.150442 427.136082 
L 657.410025 427.397976 
L 663.929193 426.576615 
L 667.188777 426.486486 
L 673.707944 427.395138 
L 680.227112 427.713301 
L 683.486696 427.451166 
L 686.746279 427.028459 
L 690.005863 426.959174 
L 693.265447 427.105745 
L 696.525031 427.365589 
L 699.784615 427.354133 
L 703.044198 427.464602 
L 706.303782 427.027408 
L 709.563366 426.706433 
L 712.82295 426.657956 
L 716.082534 426.780692 
L 719.342117 427.263662 
L 722.601701 427.312135 
L 725.861285 427.195624 
L 729.120869 426.612853 
L 735.640036 425.754123 
L 738.89962 426.038546 
L 742.159204 426.653148 
L 745.418788 426.715283 
L 748.678371 426.977053 
L 751.937955 426.626785 
L 755.197539 426.07991 
L 758.457123 425.79316 
L 761.716707 425.975044 
L 764.97629 426.420427 
L 768.235874 426.469892 
L 771.495458 426.802392 
L 774.755042 426.341296 
L 778.014626 425.715004 
L 784.533793 425.355523 
L 787.793377 425.860724 
L 791.052961 425.904881 
L 794.312544 425.823172 
L 797.572128 425.117376 
L 800.831712 423.853815 
L 804.091296 423.055385 
L 807.35088 422.848192 
L 810.610463 423.560956 
L 813.870047 423.794358 
L 817.129631 423.714195 
L 820.389215 422.569909 
L 823.648799 420.778792 
L 826.908382 419.497531 
L 830.167966 419.476238 
L 833.42755 420.495485 
L 839.946718 421.098091 
L 843.206301 419.281189 
L 846.465885 417.070901 
L 849.725469 414.700526 
L 852.985053 413.825191 
L 856.244637 415.074027 
L 862.763804 415.801627 
L 866.023388 414.531342 
L 869.282972 411.999832 
L 872.542555 410.32443 
L 875.802139 411.12174 
L 879.061723 412.927242 
L 882.321307 414.330178 
L 882.321307 414.330178 
" style="fill:none;stroke:#e24a33;stroke-dasharray:1.5,2.475;stroke-dashoffset:0;stroke-width:1.5;"/>
   </g>
   <g id="line2d_37">
    <path clip-path="url(#pa378ecc971)" d="M 73.944527 221.973238 
L 77.204111 197.734552 
L 80.463695 228.216963 
L 83.723278 213.653534 
L 86.982862 178.786434 
L 90.242446 175.074776 
L 93.50203 181.619705 
L 96.761613 205.087264 
L 100.021197 236.681364 
L 103.280781 234.185583 
L 106.540365 243.295084 
L 109.799949 250.037003 
L 113.059532 232.450039 
L 116.319116 236.365056 
L 119.5787 222.860025 
L 122.838284 214.578923 
L 129.357451 229.106356 
L 132.617035 255.042776 
L 135.876619 287.815965 
L 139.136203 298.119674 
L 142.395787 305.688989 
L 145.65537 309.107843 
L 148.914954 311.988063 
L 152.174538 320.747832 
L 155.434122 333.930725 
L 158.693706 350.648511 
L 161.953289 363.48051 
L 171.732041 400.138061 
L 174.991624 410.695145 
L 178.251208 416.869953 
L 184.770376 420.938537 
L 188.02996 423.188723 
L 191.289543 425.938718 
L 194.549127 431.574427 
L 197.808711 435.917845 
L 201.068295 440.682032 
L 204.327879 446.066587 
L 207.587462 448.589839 
L 210.847046 452.680848 
L 214.10663 456.054021 
L 220.625798 459.527056 
L 223.885381 457.383078 
L 227.144965 452.974037 
L 230.404549 449.0007 
L 233.664133 444.588896 
L 236.923716 442.306026 
L 240.1833 440.838723 
L 243.442884 440.029011 
L 246.702468 442.365208 
L 249.962052 446.095409 
L 253.221635 450.443889 
L 256.481219 454.062571 
L 259.740803 455.630506 
L 263.000387 457.011082 
L 266.259971 456.968979 
L 269.519554 457.523063 
L 272.779138 459.173049 
L 276.038722 460.164698 
L 279.298306 462.371834 
L 282.55789 462.387189 
L 285.817473 459.629851 
L 289.077057 455.457469 
L 292.336641 444.762224 
L 295.596225 436.220937 
L 298.855808 433.61743 
L 302.115392 429.761507 
L 305.374976 429.606806 
L 308.63456 430.579957 
L 311.894144 430.410487 
L 315.153727 439.071498 
L 318.413311 444.574049 
L 321.672895 447.295719 
L 324.932479 450.83779 
L 331.451646 447.359189 
L 334.71123 447.420522 
L 337.970814 442.775892 
L 341.230398 444.338419 
L 344.489982 445.304477 
L 347.749565 442.917117 
L 351.009149 444.864606 
L 354.268733 447.572046 
L 357.528317 447.303981 
L 360.7879 448.303484 
L 364.047484 441.625713 
L 367.307068 429.327996 
L 370.566652 427.230315 
L 373.826236 427.902289 
L 377.085819 428.360872 
L 380.345403 434.391266 
L 383.604987 437.450015 
L 386.864571 437.947401 
L 390.124155 444.009803 
L 393.383738 443.273598 
L 396.643322 440.090024 
L 399.902906 435.052058 
L 403.16249 429.058683 
L 406.422074 427.102046 
L 409.681657 430.258658 
L 412.941241 437.040783 
L 416.200825 438.56358 
L 419.460409 437.361101 
L 422.719992 434.40833 
L 425.979576 417.82577 
L 429.23916 403.680915 
L 432.498744 384.775775 
L 435.758328 367.121366 
L 439.017911 361.233284 
L 442.277495 357.344292 
L 445.537079 360.953979 
L 448.796663 380.858169 
L 452.056247 397.45309 
L 455.31583 421.684479 
L 458.575414 439.023328 
L 461.834998 445.112407 
L 465.094582 451.858771 
L 468.354166 452.071584 
L 471.613749 446.982942 
L 474.873333 446.004132 
L 478.132917 442.495259 
L 481.392501 442.115762 
L 484.652084 444.06345 
L 491.171252 442.11571 
L 494.430836 440.585844 
L 497.69042 437.249411 
L 500.950003 435.696245 
L 504.209587 434.856042 
L 507.469171 433.574899 
L 510.728755 432.733451 
L 513.988339 431.055902 
L 517.247922 424.605849 
L 523.76709 410.54233 
L 527.026674 406.016215 
L 530.286258 404.933274 
L 533.545841 405.129927 
L 536.805425 405.557663 
L 540.065009 407.015832 
L 543.324593 405.697101 
L 546.584176 403.046658 
L 549.84376 399.971595 
L 553.103344 398.684655 
L 556.362928 398.079549 
L 559.622512 396.937339 
L 562.882095 399.239403 
L 566.141679 400.763075 
L 569.401263 404.590764 
L 572.660847 408.849595 
L 575.920431 409.484383 
L 579.180014 410.440522 
L 582.439598 409.850014 
L 585.699182 408.054758 
L 588.958766 409.573244 
L 592.21835 407.456169 
L 595.477933 407.084492 
L 598.737517 407.583022 
L 601.997101 405.99995 
L 605.256685 406.298234 
L 608.516268 404.912609 
L 611.775852 400.925455 
L 615.035436 402.379512 
L 618.29502 402.952638 
L 621.554604 403.355401 
L 624.814187 404.173647 
L 628.073771 404.266433 
L 631.333355 405.496042 
L 634.592939 407.673518 
L 637.852523 409.317486 
L 641.112106 409.94347 
L 644.37169 409.74011 
L 647.631274 411.267673 
L 650.890858 414.680817 
L 654.150442 419.800125 
L 657.410025 426.747332 
L 660.669609 430.726027 
L 663.929193 432.165076 
L 667.188777 434.029333 
L 670.44836 434.381062 
L 673.707944 434.901139 
L 676.967528 435.233957 
L 680.227112 434.485114 
L 683.486696 432.786664 
L 686.746279 429.674887 
L 693.265447 422.638275 
L 696.525031 418.678766 
L 699.784615 416.444126 
L 706.303782 416.338267 
L 709.563366 418.561335 
L 712.82295 419.988166 
L 716.082534 419.830267 
L 719.342117 419.290253 
L 722.601701 416.125374 
L 725.861285 409.646241 
L 729.120869 406.744898 
L 732.380452 405.330872 
L 735.640036 404.473556 
L 738.89962 406.808954 
L 742.159204 410.68248 
L 745.418788 415.406813 
L 748.678371 421.513122 
L 751.937955 423.148112 
L 755.197539 421.690411 
L 761.716707 419.869458 
L 764.97629 418.737238 
L 768.235874 418.194115 
L 771.495458 418.501668 
L 774.755042 416.023241 
L 778.014626 414.583908 
L 781.274209 413.443058 
L 784.533793 409.940191 
L 787.793377 407.042012 
L 791.052961 401.262638 
L 794.312544 392.612295 
L 797.572128 387.461883 
L 800.831712 383.628945 
L 804.091296 382.30518 
L 807.35088 382.552231 
L 810.610463 382.456127 
L 813.870047 383.311004 
L 817.129631 383.283167 
L 820.389215 383.924643 
L 823.648799 384.389188 
L 826.908382 384.28362 
L 830.167966 384.948971 
L 833.42755 384.881789 
L 836.687134 385.829451 
L 839.946718 385.808161 
L 843.206301 382.570102 
L 846.465885 379.812211 
L 849.725469 376.600329 
L 852.985053 374.392263 
L 856.244637 374.875026 
L 859.50422 377.076014 
L 862.763804 382.520292 
L 866.023388 391.284612 
L 869.282972 396.332782 
L 872.542555 400.911313 
L 872.542555 400.911313 
" style="fill:none;stroke:#348abd;stroke-linecap:square;stroke-width:1.5;"/>
   </g>
   <g id="line2d_38">
    <path clip-path="url(#pa378ecc971)" d="M 83.723278 221.973238 
L 86.982862 173.495867 
L 90.242446 289.181783 
L 93.50203 169.963248 
L 96.761613 39.318033 
L 100.021197 156.51649 
L 103.280781 220.889277 
L 106.540365 386.246153 
L 109.799949 394.654568 
L 113.059532 271.71131 
L 116.319116 233.72976 
L 119.5787 86.511465 
L 122.838284 33.407745 
L 126.097868 248.29439 
L 129.357451 291.710941 
L 132.617035 336.686847 
L 135.876619 321.785106 
L 139.136203 285.347995 
L 142.395787 268.066406 
L 145.65537 262.820068 
L 148.914954 320.420355 
L 152.174538 344.69615 
L 155.434122 360.618821 
L 158.693706 341.94665 
L 161.953289 346.666374 
L 165.212873 360.346655 
L 168.472457 379.844569 
L 171.732041 410.244351 
L 174.991624 429.98681 
L 178.251208 443.72958 
L 181.510792 430.148089 
L 184.770376 420.565961 
L 188.02996 403.570307 
L 191.289543 393.748477 
L 194.549127 424.820534 
L 197.808711 445.738114 
L 201.068295 462.979541 
L 204.327879 469.598051 
L 207.587462 450.969888 
L 210.847046 436.919615 
L 214.10663 431.440362 
L 217.366214 442.4833 
L 220.625798 474.375181 
L 223.885381 486.591751 
L 227.144965 481.751237 
L 230.404549 463.127945 
L 233.664133 421.911772 
L 236.923716 400.577072 
L 240.1833 414.669945 
L 243.442884 443.492547 
L 246.702468 470.611664 
L 249.962052 471.480117 
L 253.221635 457.459959 
L 256.481219 438.265151 
L 259.740803 426.688482 
L 263.000387 445.1093 
L 266.259971 468.823326 
L 269.519554 481.58721 
L 272.779138 481.144145 
L 276.038722 457.165239 
L 279.298306 442.143739 
L 282.55789 438.238384 
L 285.817473 452.050842 
L 289.077057 484.273282 
L 292.336641 481.694693 
L 295.596225 461.842778 
L 298.855808 427.958569 
L 302.115392 367.277022 
L 305.374976 378.449377 
L 308.63456 433.826291 
L 315.153727 480.611789 
L 318.413311 468.654836 
L 321.672895 426.77228 
L 324.932479 427.904101 
L 328.192063 416.967233 
L 331.451646 452.877978 
L 334.71123 482.076311 
L 337.970814 468.671508 
L 341.230398 456.244915 
L 344.489982 427.201609 
L 347.749565 395.391691 
L 354.268733 459.640385 
L 357.528317 465.364794 
L 360.7879 482.303925 
L 364.047484 475.196999 
L 367.307068 425.325152 
L 370.566652 402.388216 
L 373.826236 381.160523 
L 377.085819 373.556363 
L 380.345403 450.681024 
L 383.604987 487.007745 
L 386.864571 478.407084 
L 390.124155 467.537905 
L 393.383738 423.799462 
L 396.643322 384.642224 
L 399.902906 415.993178 
L 403.16249 445.527587 
L 406.422074 464.722728 
L 409.681657 443.141324 
L 412.941241 425.584274 
L 416.200825 410.103007 
L 419.460409 406.738508 
L 422.719992 463.468049 
L 425.979576 456.187172 
L 429.23916 456.305372 
L 432.498744 422.471928 
L 435.758328 309.506352 
L 439.017911 311.089023 
L 442.277495 274.402528 
L 445.537079 339.887185 
L 448.796663 414.970599 
L 452.056247 429.082427 
L 455.31583 447.73974 
L 458.575414 448.835682 
L 461.834998 427.253471 
L 468.354166 461.259131 
L 471.613749 457.59415 
L 474.873333 476.306976 
L 478.132917 449.229431 
L 481.392501 413.215188 
L 484.652084 420.401796 
L 487.911668 419.460141 
L 491.171252 458.60265 
L 494.430836 471.227964 
L 497.69042 469.530101 
L 500.950003 442.372133 
L 504.209587 402.506123 
L 507.469171 397.046764 
L 510.728755 408.587978 
L 513.988339 452.72123 
L 517.247922 462.259965 
L 520.507506 463.63996 
L 523.76709 430.629296 
L 527.026674 357.355748 
L 530.286258 348.151641 
L 533.545841 359.038471 
L 536.805425 421.038421 
L 540.065009 454.679377 
L 543.324593 465.016535 
L 546.584176 433.62345 
L 549.84376 367.562926 
L 553.103344 338.920528 
L 556.362928 340.485371 
L 559.622512 399.512981 
L 562.882095 445.670794 
L 566.141679 460.780792 
L 569.401263 425.62798 
L 572.660847 383.677375 
L 575.920431 349.586232 
L 579.180014 367.279197 
L 582.439598 429.324799 
L 585.699182 450.114305 
L 588.958766 467.473766 
L 592.21835 421.494425 
L 595.477933 371.110579 
L 598.737517 360.215641 
L 601.997101 352.459668 
L 605.256685 426.72306 
L 608.516268 453.604015 
L 611.775852 456.392264 
L 615.035436 423.582414 
L 618.29502 361.411201 
L 621.554604 332.305565 
L 624.814187 362.638062 
L 628.073771 430.734948 
L 631.333355 456.423354 
L 634.592939 462.119984 
L 637.852523 424.231918 
L 641.112106 370.018462 
L 644.37169 347.547895 
L 647.631274 374.145844 
L 650.890858 435.116832 
L 654.150442 454.999832 
L 657.410025 472.81293 
L 660.669609 448.123924 
L 663.929193 405.85362 
L 667.188777 396.178341 
L 670.44836 401.996712 
L 673.707944 445.19017 
L 676.967528 468.049633 
L 680.227112 475.275034 
L 683.486696 451.764462 
L 686.746279 408.183348 
L 690.005863 390.936439 
L 693.265447 390.107563 
L 696.525031 423.40773 
L 699.784615 443.119444 
L 703.044198 450.948941 
L 706.303782 424.047896 
L 709.563366 392.540865 
L 712.82295 390.683641 
L 716.082534 389.619354 
L 719.342117 438.969205 
L 722.601701 453.107258 
L 725.861285 449.843652 
L 729.120869 420.267794 
L 732.380452 370.386716 
L 735.640036 345.329706 
L 738.89962 369.309951 
L 742.159204 429.071022 
L 745.418788 447.106048 
L 748.678371 466.191439 
L 751.937955 447.382476 
L 755.197539 403.457046 
L 758.457123 388.073869 
L 761.716707 380.754886 
L 764.97629 418.867115 
L 768.235874 440.732939 
L 771.495458 459.817873 
L 774.755042 439.456936 
L 778.014626 399.655186 
L 781.274209 390.22674 
L 784.533793 363.4059 
L 787.793377 408.791784 
L 791.052961 432.746989 
L 794.312544 435.297801 
L 797.572128 419.169684 
L 800.831712 359.199569 
L 804.091296 329.674337 
L 807.35088 327.353019 
L 810.610463 381.961214 
L 813.870047 423.480636 
L 817.129631 437.027154 
L 820.389215 418.496961 
L 823.648799 365.183703 
L 826.908382 329.479479 
L 830.167966 331.843351 
L 833.42755 385.213031 
L 836.687134 422.741663 
L 839.946718 441.684605 
L 843.206301 418.026688 
L 846.465885 371.817341 
L 849.725469 329.330449 
L 852.985053 309.176935 
L 856.244637 365.907798 
L 859.50422 400.25849 
L 862.763804 426.228142 
L 866.023388 421.40603 
L 869.282972 387.224257 
L 872.542555 367.440394 
L 875.802139 370.527176 
L 882.321307 432.308212 
L 882.321307 432.308212 
" style="fill:none;stroke:#348abd;stroke-dasharray:1.5,2.475;stroke-dashoffset:0;stroke-width:1.5;"/>
   </g>
   <g id="line2d_39">
    <path clip-path="url(#pa378ecc971)" d="M 30.103125 430.043028 
L 922.903125 430.043028 
" style="fill:none;stroke:#008000;stroke-linecap:square;stroke-opacity:0.5;stroke-width:1.5;"/>
   </g>
   <g id="patch_3">
    <path d="M 30.103125 509.687745 
L 30.103125 10.727745 
" style="fill:none;stroke:#ffffff;stroke-linecap:square;stroke-linejoin:miter;"/>
   </g>
   <g id="patch_4">
    <path d="M 922.903125 509.687745 
L 922.903125 10.727745 
" style="fill:none;stroke:#ffffff;stroke-linecap:square;stroke-linejoin:miter;"/>
   </g>
   <g id="patch_5">
    <path d="M 30.103125 509.687745 
L 922.903125 509.687745 
" style="fill:none;stroke:#ffffff;stroke-linecap:square;stroke-linejoin:miter;"/>
   </g>
   <g id="patch_6">
    <path d="M 30.103125 10.727745 
L 922.903125 10.727745 
" style="fill:none;stroke:#ffffff;stroke-linecap:square;stroke-linejoin:miter;"/>
   </g>
  </g>
  <g id="axes_2">
   <g id="matplotlib.axis_3">
    <g id="ytick_9">
     <g id="line2d_40">
      <path clip-path="url(#pa378ecc971)" d="M 30.103125 487.269693 
L 922.903125 487.269693 
" style="fill:none;stroke:#ffffff;stroke-linecap:square;stroke-width:0.8;"/>
     </g>
     <g id="line2d_41">
      <defs>
       <path d="M 0 0 
L 3.5 0 
" id="mcb500d409e" style="stroke:#555555;stroke-width:0.8;"/>
      </defs>
      <g>
       <use style="fill:#555555;stroke:#555555;stroke-width:0.8;" x="922.903125" xlink:href="#mcb500d409e" y="487.269693"/>
      </g>
     </g>
     <g id="text_18">
      <!-- 0 -->
      <g style="fill:#555555;" transform="translate(929.903125 491.068912)scale(0.1 -0.1)">
       <use xlink:href="#DejaVuSans-48"/>
      </g>
     </g>
    </g>
    <g id="ytick_10">
     <g id="line2d_42">
      <path clip-path="url(#pa378ecc971)" d="M 30.103125 427.735884 
L 922.903125 427.735884 
" style="fill:none;stroke:#ffffff;stroke-linecap:square;stroke-width:0.8;"/>
     </g>
     <g id="line2d_43">
      <g>
       <use style="fill:#555555;stroke:#555555;stroke-width:0.8;" x="922.903125" xlink:href="#mcb500d409e" y="427.735884"/>
      </g>
     </g>
     <g id="text_19">
      <!-- 2500 -->
      <g style="fill:#555555;" transform="translate(929.903125 431.535103)scale(0.1 -0.1)">
       <use xlink:href="#DejaVuSans-50"/>
       <use x="63.623047" xlink:href="#DejaVuSans-53"/>
       <use x="127.246094" xlink:href="#DejaVuSans-48"/>
       <use x="190.869141" xlink:href="#DejaVuSans-48"/>
      </g>
     </g>
    </g>
    <g id="ytick_11">
     <g id="line2d_44">
      <path clip-path="url(#pa378ecc971)" d="M 30.103125 368.202075 
L 922.903125 368.202075 
" style="fill:none;stroke:#ffffff;stroke-linecap:square;stroke-width:0.8;"/>
     </g>
     <g id="line2d_45">
      <g>
       <use style="fill:#555555;stroke:#555555;stroke-width:0.8;" x="922.903125" xlink:href="#mcb500d409e" y="368.202075"/>
      </g>
     </g>
     <g id="text_20">
      <!-- 5000 -->
      <g style="fill:#555555;" transform="translate(929.903125 372.001293)scale(0.1 -0.1)">
       <use xlink:href="#DejaVuSans-53"/>
       <use x="63.623047" xlink:href="#DejaVuSans-48"/>
       <use x="127.246094" xlink:href="#DejaVuSans-48"/>
       <use x="190.869141" xlink:href="#DejaVuSans-48"/>
      </g>
     </g>
    </g>
    <g id="ytick_12">
     <g id="line2d_46">
      <path clip-path="url(#pa378ecc971)" d="M 30.103125 308.668265 
L 922.903125 308.668265 
" style="fill:none;stroke:#ffffff;stroke-linecap:square;stroke-width:0.8;"/>
     </g>
     <g id="line2d_47">
      <g>
       <use style="fill:#555555;stroke:#555555;stroke-width:0.8;" x="922.903125" xlink:href="#mcb500d409e" y="308.668265"/>
      </g>
     </g>
     <g id="text_21">
      <!-- 7500 -->
      <g style="fill:#555555;" transform="translate(929.903125 312.467484)scale(0.1 -0.1)">
       <use xlink:href="#DejaVuSans-55"/>
       <use x="63.623047" xlink:href="#DejaVuSans-53"/>
       <use x="127.246094" xlink:href="#DejaVuSans-48"/>
       <use x="190.869141" xlink:href="#DejaVuSans-48"/>
      </g>
     </g>
    </g>
    <g id="ytick_13">
     <g id="line2d_48">
      <path clip-path="url(#pa378ecc971)" d="M 30.103125 249.134456 
L 922.903125 249.134456 
" style="fill:none;stroke:#ffffff;stroke-linecap:square;stroke-width:0.8;"/>
     </g>
     <g id="line2d_49">
      <g>
       <use style="fill:#555555;stroke:#555555;stroke-width:0.8;" x="922.903125" xlink:href="#mcb500d409e" y="249.134456"/>
      </g>
     </g>
     <g id="text_22">
      <!-- 10000 -->
      <g style="fill:#555555;" transform="translate(929.903125 252.933675)scale(0.1 -0.1)">
       <use xlink:href="#DejaVuSans-49"/>
       <use x="63.623047" xlink:href="#DejaVuSans-48"/>
       <use x="127.246094" xlink:href="#DejaVuSans-48"/>
       <use x="190.869141" xlink:href="#DejaVuSans-48"/>
       <use x="254.492188" xlink:href="#DejaVuSans-48"/>
      </g>
     </g>
    </g>
    <g id="ytick_14">
     <g id="line2d_50">
      <path clip-path="url(#pa378ecc971)" d="M 30.103125 189.600647 
L 922.903125 189.600647 
" style="fill:none;stroke:#ffffff;stroke-linecap:square;stroke-width:0.8;"/>
     </g>
     <g id="line2d_51">
      <g>
       <use style="fill:#555555;stroke:#555555;stroke-width:0.8;" x="922.903125" xlink:href="#mcb500d409e" y="189.600647"/>
      </g>
     </g>
     <g id="text_23">
      <!-- 12500 -->
      <g style="fill:#555555;" transform="translate(929.903125 193.399865)scale(0.1 -0.1)">
       <use xlink:href="#DejaVuSans-49"/>
       <use x="63.623047" xlink:href="#DejaVuSans-50"/>
       <use x="127.246094" xlink:href="#DejaVuSans-53"/>
       <use x="190.869141" xlink:href="#DejaVuSans-48"/>
       <use x="254.492188" xlink:href="#DejaVuSans-48"/>
      </g>
     </g>
    </g>
    <g id="ytick_15">
     <g id="line2d_52">
      <path clip-path="url(#pa378ecc971)" d="M 30.103125 130.066837 
L 922.903125 130.066837 
" style="fill:none;stroke:#ffffff;stroke-linecap:square;stroke-width:0.8;"/>
     </g>
     <g id="line2d_53">
      <g>
       <use style="fill:#555555;stroke:#555555;stroke-width:0.8;" x="922.903125" xlink:href="#mcb500d409e" y="130.066837"/>
      </g>
     </g>
     <g id="text_24">
      <!-- 15000 -->
      <g style="fill:#555555;" transform="translate(929.903125 133.866056)scale(0.1 -0.1)">
       <use xlink:href="#DejaVuSans-49"/>
       <use x="63.623047" xlink:href="#DejaVuSans-53"/>
       <use x="127.246094" xlink:href="#DejaVuSans-48"/>
       <use x="190.869141" xlink:href="#DejaVuSans-48"/>
       <use x="254.492188" xlink:href="#DejaVuSans-48"/>
      </g>
     </g>
    </g>
    <g id="ytick_16">
     <g id="line2d_54">
      <path clip-path="url(#pa378ecc971)" d="M 30.103125 70.533028 
L 922.903125 70.533028 
" style="fill:none;stroke:#ffffff;stroke-linecap:square;stroke-width:0.8;"/>
     </g>
     <g id="line2d_55">
      <g>
       <use style="fill:#555555;stroke:#555555;stroke-width:0.8;" x="922.903125" xlink:href="#mcb500d409e" y="70.533028"/>
      </g>
     </g>
     <g id="text_25">
      <!-- 17500 -->
      <g style="fill:#555555;" transform="translate(929.903125 74.332247)scale(0.1 -0.1)">
       <use xlink:href="#DejaVuSans-49"/>
       <use x="63.623047" xlink:href="#DejaVuSans-55"/>
       <use x="127.246094" xlink:href="#DejaVuSans-53"/>
       <use x="190.869141" xlink:href="#DejaVuSans-48"/>
       <use x="254.492188" xlink:href="#DejaVuSans-48"/>
      </g>
     </g>
    </g>
    <g id="ytick_17">
     <g id="line2d_56">
      <path clip-path="url(#pa378ecc971)" d="M 30.103125 10.999219 
L 922.903125 10.999219 
" style="fill:none;stroke:#ffffff;stroke-linecap:square;stroke-width:0.8;"/>
     </g>
     <g id="line2d_57">
      <g>
       <use style="fill:#555555;stroke:#555555;stroke-width:0.8;" x="922.903125" xlink:href="#mcb500d409e" y="10.999219"/>
      </g>
     </g>
     <g id="text_26">
      <!-- 20000 -->
      <g style="fill:#555555;" transform="translate(929.903125 14.798437)scale(0.1 -0.1)">
       <use xlink:href="#DejaVuSans-50"/>
       <use x="63.623047" xlink:href="#DejaVuSans-48"/>
       <use x="127.246094" xlink:href="#DejaVuSans-48"/>
       <use x="190.869141" xlink:href="#DejaVuSans-48"/>
       <use x="254.492188" xlink:href="#DejaVuSans-48"/>
      </g>
     </g>
    </g>
   </g>
   <g id="line2d_58">
    <path clip-path="url(#pa378ecc971)" d="M 70.684943 486.346919 
L 77.204111 486.229836 
L 80.463695 485.908921 
L 83.723278 485.276161 
L 86.982862 484.782881 
L 90.242446 484.633196 
L 93.50203 483.922192 
L 96.761613 483.527568 
L 100.021197 482.830172 
L 103.280781 480.571289 
L 106.540365 479.026812 
L 109.799949 477.063897 
L 116.319116 470.692079 
L 119.5787 467.334372 
L 122.838284 464.711483 
L 126.097868 457.911021 
L 129.357451 450.205645 
L 132.617035 443.497035 
L 135.876619 440.418286 
L 139.136203 430.593507 
L 142.395787 418.278513 
L 145.65537 407.81417 
L 148.914954 400.489811 
L 152.174538 390.889559 
L 155.434122 378.680025 
L 158.693706 371.818328 
L 161.953289 369.474397 
L 165.212873 369.981285 
L 168.472457 365.439706 
L 171.732041 361.350584 
L 174.991624 360.010223 
L 178.251208 360.731432 
L 181.510792 354.026224 
L 184.770376 357.679899 
L 188.02996 360.336808 
L 191.289543 365.269609 
L 194.549127 369.290693 
L 197.808711 372.185737 
L 201.068295 378.816102 
L 204.327879 389.41312 
L 207.587462 393.291323 
L 210.847046 399.251508 
L 214.10663 404.412238 
L 217.366214 411.583511 
L 220.625798 418.193465 
L 223.885381 419.976077 
L 227.144965 421.210979 
L 230.404549 423.803251 
L 233.664133 424.813624 
L 236.923716 425.660706 
L 240.1833 427.409299 
L 243.442884 430.957514 
L 246.702468 436.244116 
L 253.221635 441.272171 
L 256.481219 443.45281 
L 259.740803 446.626812 
L 263.000387 449.600101 
L 266.259971 451.974649 
L 269.519554 455.750794 
L 272.779138 458.962217 
L 276.038722 460.115472 
L 279.298306 461.676959 
L 282.55789 462.891449 
L 285.817473 463.551424 
L 289.077057 465.014254 
L 292.336641 463.973263 
L 295.596225 464.401907 
L 298.855808 465.497329 
L 302.115392 464.65365 
L 305.374976 465.160538 
L 308.63456 466.354616 
L 311.894144 467.361588 
L 315.153727 469.508207 
L 318.413311 469.793969 
L 321.672895 469.844998 
L 324.932479 471.273809 
L 328.192063 471.277211 
L 331.451646 471.916774 
L 334.71123 473.45785 
L 337.970814 473.396615 
L 341.230398 473.913708 
L 347.749565 474.369567 
L 351.009149 475.849408 
L 354.268733 477.182965 
L 357.528317 476.227022 
L 360.7879 475.886829 
L 364.047484 476.380109 
L 367.307068 476.230424 
L 370.566652 476.975447 
L 373.826236 477.043486 
L 377.085819 476.904007 
L 380.345403 477.700059 
L 383.604987 478.826098 
L 386.864571 478.775069 
L 390.124155 479.179899 
L 393.383738 478.713834 
L 396.643322 478.795481 
L 399.902906 478.24777 
L 403.16249 479.094851 
L 409.681657 479.479269 
L 412.941241 479.554112 
L 422.719992 479.281957 
L 425.979576 477.540168 
L 429.23916 476.679479 
L 432.498744 475.182629 
L 435.758328 474.008963 
L 439.017911 473.583721 
L 442.277495 472.760454 
L 445.537079 472.590357 
L 448.796663 473.587123 
L 452.056247 473.294557 
L 455.31583 474.76079 
L 458.575414 475.696321 
L 461.834998 475.71333 
L 468.354166 476.55701 
L 471.613749 476.662469 
L 474.873333 477.563981 
L 481.392501 477.768097 
L 484.652084 478.135506 
L 494.430836 478.751256 
L 497.69042 478.900941 
L 500.950003 478.870323 
L 504.209587 479.074439 
L 507.469171 478.999597 
L 510.728755 479.156086 
L 513.988339 478.843108 
L 517.247922 478.203545 
L 520.507506 477.689853 
L 523.76709 477.846342 
L 530.286258 477.165955 
L 533.545841 476.815556 
L 536.805425 476.696489 
L 543.324593 475.049954 
L 553.103344 474.012364 
L 556.362928 473.22992 
L 559.622512 472.097077 
L 562.882095 471.909971 
L 566.141679 471.318034 
L 569.401263 471.53916 
L 572.660847 470.964233 
L 575.920431 470.127358 
L 579.180014 469.933448 
L 582.439598 469.446972 
L 585.699182 468.504637 
L 588.958766 467.936514 
L 592.21835 466.864905 
L 595.477933 467.113246 
L 598.737517 466.817278 
L 601.997101 465.167341 
L 605.256685 463.806569 
L 611.775852 461.782419 
L 615.035436 461.544284 
L 618.29502 461.119042 
L 621.554604 459.676623 
L 628.073771 457.819168 
L 631.333355 457.894011 
L 634.592939 455.788215 
L 641.112106 454.743822 
L 644.37169 455.124838 
L 647.631274 454.900311 
L 650.890858 455.580697 
L 654.150442 455.090819 
L 657.410025 456.978891 
L 660.669609 456.968685 
L 663.929193 457.31228 
L 667.188777 457.516396 
L 670.44836 458.605015 
L 673.707944 459.271793 
L 680.227112 460.016816 
L 686.746279 458.63223 
L 690.005863 457.676287 
L 693.265447 457.948442 
L 696.525031 455.971919 
L 699.784615 455.866459 
L 703.044198 455.009173 
L 706.303782 455.14525 
L 709.563366 454.760832 
L 712.82295 455.073809 
L 716.082534 452.607409 
L 719.342117 451.580025 
L 722.601701 450.110391 
L 725.861285 447.841302 
L 729.120869 446.490735 
L 732.380452 446.507745 
L 735.640036 445.099345 
L 738.89962 445.5484 
L 742.159204 445.721898 
L 748.678371 444.201235 
L 751.937955 443.980109 
L 758.457123 442.14987 
L 761.716707 442.051214 
L 764.97629 440.826518 
L 768.235874 439.057514 
L 771.495458 438.867005 
L 774.755042 435.910727 
L 778.014626 435.264359 
L 781.274209 433.393297 
L 784.533793 429.889307 
L 787.793377 424.599303 
L 791.052961 418.329542 
L 794.312544 410.988173 
L 797.572128 406.892247 
L 800.831712 403.201151 
L 804.091296 398.156086 
L 807.35088 390.318034 
L 810.610463 381.54105 
L 813.870047 371.954406 
L 817.129631 361.377799 
L 820.389215 354.220134 
L 823.648799 347.899345 
L 826.908382 338.55764 
L 830.167966 330.178681 
L 833.42755 314.363099 
L 836.687134 301.068349 
L 839.946718 277.64945 
L 843.206301 258.636052 
L 846.465885 243.803629 
L 849.725469 228.355456 
L 852.985053 203.286619 
L 856.244637 184.620218 
L 859.50422 159.313246 
L 862.763804 144.531852 
L 866.023388 134.322654 
L 869.282972 122.715262 
L 872.542555 109.301445 
L 872.542555 109.301445 
" style="fill:none;stroke:#000000;stroke-linecap:square;stroke-width:1.5;"/>
   </g>
   <g id="line2d_59">
    <path clip-path="url(#pa378ecc971)" d="M 70.684943 486.007577 
L 73.944527 487.007745 
L 77.204111 485.769441 
L 80.463695 486.602915 
L 83.723278 486.293339 
L 86.982862 485.698001 
L 90.242446 483.983427 
L 93.50203 481.578261 
L 96.761613 483.554784 
L 100.021197 484.721646 
L 103.280781 481.625888 
L 106.540365 483.53097 
L 109.799949 480.816228 
L 113.059532 468.171247 
L 116.319116 470.766921 
L 119.5787 469.81438 
L 122.838284 462.432188 
L 126.097868 459.312616 
L 129.357451 460.027022 
L 132.617035 462.456002 
L 135.876619 420.568013 
L 139.136203 416.82929 
L 142.395787 422.854112 
L 145.65537 440.880949 
L 148.914954 390.53916 
L 152.174538 373.822066 
L 155.434122 389.205603 
L 161.953289 349.627526 
L 165.212873 337.387375 
L 168.472457 392.849072 
L 171.732041 374.131642 
L 174.991624 377.370281 
L 178.251208 357.414548 
L 181.510792 340.673641 
L 184.770376 340.244998 
L 188.02996 342.435842 
L 191.289543 345.912616 
L 194.549127 399.707367 
L 197.808711 395.968643 
L 201.068295 391.944158 
L 204.327879 368.821226 
L 207.587462 360.510307 
L 210.847046 388.8484 
L 214.10663 420.091743 
L 217.366214 426.854784 
L 220.625798 437.689937 
L 223.885381 428.069273 
L 227.144965 419.020134 
L 230.404549 406.779983 
L 233.664133 401.326686 
L 236.923716 428.736052 
L 240.1833 445.000689 
L 243.442884 444.762553 
L 246.702468 433.998841 
L 249.962052 431.260286 
L 253.221635 431.617488 
L 256.481219 438.332902 
L 259.740803 445.905603 
L 263.000387 463.027526 
L 266.259971 460.027022 
L 269.519554 456.216858 
L 272.779138 452.073305 
L 276.038722 448.239328 
L 279.298306 464.765913 
L 282.55789 468.385569 
L 285.817473 471.100311 
L 289.077057 470.95743 
L 292.336641 464.718286 
L 295.596225 456.693129 
L 298.855808 458.479143 
L 302.115392 457.478975 
L 305.374976 471.386073 
L 308.63456 478.768265 
L 311.894144 465.051676 
L 315.153727 468.266501 
L 318.413311 465.051676 
L 321.672895 465.527946 
L 324.932479 472.505309 
L 328.192063 473.386409 
L 331.451646 479.125468 
L 334.71123 475.053356 
L 337.970814 468.290315 
L 341.230398 469.528618 
L 344.489982 476.315472 
L 347.749565 472.076665 
L 351.009149 477.006065 
L 354.268733 480.387585 
L 357.528317 476.982251 
L 360.7879 478.649198 
L 364.047484 478.863519 
L 367.307068 469.623872 
L 370.566652 469.695313 
L 373.826236 480.459026 
L 377.085819 479.33979 
L 380.345403 482.197413 
L 383.604987 479.125468 
L 386.864571 477.887165 
L 390.124155 475.196237 
L 393.383738 477.577589 
L 396.643322 480.101823 
L 399.902906 482.173599 
L 403.16249 478.93496 
L 406.422074 479.696993 
L 409.681657 474.053188 
L 412.941241 481.125804 
L 416.200825 478.982587 
L 419.460409 481.387753 
L 422.719992 482.697497 
L 425.979576 478.268181 
L 429.23916 479.054028 
L 432.498744 473.45785 
L 435.758328 468.93328 
L 439.017911 472.957766 
L 442.277495 470.909803 
L 445.537079 474.481831 
L 448.796663 475.291491 
L 452.056247 473.291155 
L 455.31583 472.267173 
L 458.575414 475.910643 
L 461.834998 470.909803 
L 465.094582 481.173431 
L 468.354166 481.03055 
L 471.613749 475.410559 
L 474.873333 476.172591 
L 478.132917 475.291491 
L 481.392501 476.648862 
L 484.652084 477.220386 
L 487.911668 481.578261 
L 491.171252 482.054532 
L 494.430836 477.982419 
L 497.69042 477.815724 
L 500.950003 476.744116 
L 504.209587 477.863351 
L 507.469171 478.268181 
L 510.728755 481.363939 
L 513.988339 483.483343 
L 517.247922 477.458522 
L 520.507506 478.911147 
L 523.76709 474.553272 
L 527.026674 473.386409 
L 530.286258 474.672339 
L 533.545841 482.459362 
L 536.805425 481.340126 
L 540.065009 474.839034 
L 543.324593 476.458354 
L 546.584176 473.719798 
L 549.84376 467.861672 
L 553.103344 468.671331 
L 556.362928 480.006569 
L 559.622512 479.173095 
L 562.882095 472.195733 
L 566.141679 470.981243 
L 569.401263 465.789895 
L 572.660847 466.551928 
L 575.920431 464.527778 
L 579.180014 481.554448 
L 582.439598 475.14861 
L 585.699182 466.337606 
L 588.958766 469.623872 
L 592.21835 462.384561 
L 595.477933 459.955582 
L 598.737517 460.55092 
L 601.997101 474.053188 
L 605.256685 476.886997 
L 608.516268 464.265829 
L 611.775852 458.074313 
L 615.035436 452.859152 
L 618.29502 452.763897 
L 621.554604 453.573557 
L 624.814187 472.386241 
L 628.073771 473.910307 
L 631.333355 454.168895 
L 634.592939 451.311273 
L 637.852523 446.620008 
L 641.112106 453.287795 
L 644.37169 438.832986 
L 647.631274 468.647518 
L 650.890858 470.338278 
L 654.150442 456.83601 
L 657.410025 449.73958 
L 660.669609 451.382713 
L 663.929193 449.858648 
L 667.188777 452.049492 
L 670.44836 468.576077 
L 673.707944 472.743444 
L 676.967528 458.264821 
L 680.227112 457.359908 
L 683.486696 456.050164 
L 686.746279 452.668643 
L 690.005863 454.454658 
L 693.265447 463.741932 
L 696.525031 467.885485 
L 699.784615 451.573221 
L 703.044198 459.264989 
L 706.303782 442.214506 
L 709.563366 451.930424 
L 712.82295 448.45365 
L 716.082534 464.694473 
L 719.342117 465.194557 
L 725.861285 442.000185 
L 729.120869 435.022822 
L 732.380452 441.642982 
L 735.640036 432.570029 
L 738.89962 455.240504 
L 742.159204 465.313624 
L 745.418788 443.905267 
L 748.678371 445.14357 
L 751.937955 436.237312 
L 755.197539 435.999177 
L 758.457123 427.569189 
L 761.716707 453.692625 
L 764.97629 458.883973 
L 768.235874 437.523242 
L 771.495458 444.452978 
L 774.755042 427.664443 
L 778.014626 423.616144 
L 781.274209 426.235632 
L 784.533793 432.998673 
L 787.793377 454.359404 
L 791.052961 424.425804 
L 794.312544 419.925048 
L 797.572128 390.634414 
L 800.831712 379.72782 
L 804.091296 374.846048 
L 807.35088 404.32719 
L 810.610463 428.52173 
L 813.870047 389.110349 
L 817.129631 365.05869 
L 820.389215 329.195523 
L 823.648799 312.62131 
L 826.908382 300.809803 
L 830.167966 354.223536 
L 833.42755 384.276203 
L 836.687134 323.718412 
L 839.946718 306.405981 
L 843.206301 218.486451 
L 846.465885 219.55806 
L 849.725469 136.877505 
L 852.985053 221.129752 
L 856.244637 280.44924 
L 859.50422 215.581201 
L 862.763804 130.924124 
L 866.023388 87.821646 
L 869.282972 42.409257 
L 872.542555 33.407745 
L 875.802139 149.665367 
L 879.061723 199.197497 
L 882.321307 121.684477 
L 882.321307 121.684477 
" style="fill:none;stroke:#000000;stroke-dasharray:1.5,2.475;stroke-dashoffset:0;stroke-width:1.5;"/>
   </g>
   <g id="patch_7">
    <path d="M 30.103125 509.687745 
L 30.103125 10.727745 
" style="fill:none;stroke:#ffffff;stroke-linecap:square;stroke-linejoin:miter;"/>
   </g>
   <g id="patch_8">
    <path d="M 922.903125 509.687745 
L 922.903125 10.727745 
" style="fill:none;stroke:#ffffff;stroke-linecap:square;stroke-linejoin:miter;"/>
   </g>
   <g id="patch_9">
    <path d="M 30.103125 509.687745 
L 922.903125 509.687745 
" style="fill:none;stroke:#ffffff;stroke-linecap:square;stroke-linejoin:miter;"/>
   </g>
   <g id="patch_10">
    <path d="M 30.103125 10.727745 
L 922.903125 10.727745 
" style="fill:none;stroke:#ffffff;stroke-linecap:square;stroke-linejoin:miter;"/>
   </g>
   <g id="legend_1">
    <g id="patch_11">
     <path d="M 37.103125 106.796495 
L 194.298438 106.796495 
Q 196.298438 106.796495 196.298438 104.796495 
L 196.298438 17.727745 
Q 196.298438 15.727745 194.298438 15.727745 
L 37.103125 15.727745 
Q 35.103125 15.727745 35.103125 17.727745 
L 35.103125 104.796495 
Q 35.103125 106.796495 37.103125 106.796495 
z
" style="fill:#e5e5e5;opacity:0.8;stroke:#cccccc;stroke-linejoin:miter;stroke-width:0.5;"/>
    </g>
    <g id="line2d_60">
     <path d="M 39.103125 23.826182 
L 59.103125 23.826182 
" style="fill:none;stroke:#e24a33;stroke-linecap:square;stroke-width:1.5;"/>
    </g>
    <g id="line2d_61"/>
    <g id="text_27">
     <!-- Logistic rate rolling week -->
     <g transform="translate(67.103125 27.326182)scale(0.1 -0.1)">
      <defs>
       <path d="M 9.8125 72.90625 
L 19.671875 72.90625 
L 19.671875 8.296875 
L 55.171875 8.296875 
L 55.171875 0 
L 9.8125 0 
z
" id="DejaVuSans-76"/>
       <path d="M 30.609375 48.390625 
Q 23.390625 48.390625 19.1875 42.75 
Q 14.984375 37.109375 14.984375 27.296875 
Q 14.984375 17.484375 19.15625 11.84375 
Q 23.34375 6.203125 30.609375 6.203125 
Q 37.796875 6.203125 41.984375 11.859375 
Q 46.1875 17.53125 46.1875 27.296875 
Q 46.1875 37.015625 41.984375 42.703125 
Q 37.796875 48.390625 30.609375 48.390625 
z
M 30.609375 56 
Q 42.328125 56 49.015625 48.375 
Q 55.71875 40.765625 55.71875 27.296875 
Q 55.71875 13.875 49.015625 6.21875 
Q 42.328125 -1.421875 30.609375 -1.421875 
Q 18.84375 -1.421875 12.171875 6.21875 
Q 5.515625 13.875 5.515625 27.296875 
Q 5.515625 40.765625 12.171875 48.375 
Q 18.84375 56 30.609375 56 
z
" id="DejaVuSans-111"/>
       <path d="M 45.40625 27.984375 
Q 45.40625 37.75 41.375 43.109375 
Q 37.359375 48.484375 30.078125 48.484375 
Q 22.859375 48.484375 18.828125 43.109375 
Q 14.796875 37.75 14.796875 27.984375 
Q 14.796875 18.265625 18.828125 12.890625 
Q 22.859375 7.515625 30.078125 7.515625 
Q 37.359375 7.515625 41.375 12.890625 
Q 45.40625 18.265625 45.40625 27.984375 
z
M 54.390625 6.78125 
Q 54.390625 -7.171875 48.1875 -13.984375 
Q 42 -20.796875 29.203125 -20.796875 
Q 24.46875 -20.796875 20.265625 -20.09375 
Q 16.0625 -19.390625 12.109375 -17.921875 
L 12.109375 -9.1875 
Q 16.0625 -11.328125 19.921875 -12.34375 
Q 23.78125 -13.375 27.78125 -13.375 
Q 36.625 -13.375 41.015625 -8.765625 
Q 45.40625 -4.15625 45.40625 5.171875 
L 45.40625 9.625 
Q 42.625 4.78125 38.28125 2.390625 
Q 33.9375 0 27.875 0 
Q 17.828125 0 11.671875 7.65625 
Q 5.515625 15.328125 5.515625 27.984375 
Q 5.515625 40.671875 11.671875 48.328125 
Q 17.828125 56 27.875 56 
Q 33.9375 56 38.28125 53.609375 
Q 42.625 51.21875 45.40625 46.390625 
L 45.40625 54.6875 
L 54.390625 54.6875 
z
" id="DejaVuSans-103"/>
       <path d="M 9.421875 54.6875 
L 18.40625 54.6875 
L 18.40625 0 
L 9.421875 0 
z
M 9.421875 75.984375 
L 18.40625 75.984375 
L 18.40625 64.59375 
L 9.421875 64.59375 
z
" id="DejaVuSans-105"/>
       <path d="M 44.28125 53.078125 
L 44.28125 44.578125 
Q 40.484375 46.53125 36.375 47.5 
Q 32.28125 48.484375 27.875 48.484375 
Q 21.1875 48.484375 17.84375 46.4375 
Q 14.5 44.390625 14.5 40.28125 
Q 14.5 37.15625 16.890625 35.375 
Q 19.28125 33.59375 26.515625 31.984375 
L 29.59375 31.296875 
Q 39.15625 29.25 43.1875 25.515625 
Q 47.21875 21.78125 47.21875 15.09375 
Q 47.21875 7.46875 41.1875 3.015625 
Q 35.15625 -1.421875 24.609375 -1.421875 
Q 20.21875 -1.421875 15.453125 -0.5625 
Q 10.6875 0.296875 5.421875 2 
L 5.421875 11.28125 
Q 10.40625 8.6875 15.234375 7.390625 
Q 20.0625 6.109375 24.8125 6.109375 
Q 31.15625 6.109375 34.5625 8.28125 
Q 37.984375 10.453125 37.984375 14.40625 
Q 37.984375 18.0625 35.515625 20.015625 
Q 33.0625 21.96875 24.703125 23.78125 
L 21.578125 24.515625 
Q 13.234375 26.265625 9.515625 29.90625 
Q 5.8125 33.546875 5.8125 39.890625 
Q 5.8125 47.609375 11.28125 51.796875 
Q 16.75 56 26.8125 56 
Q 31.78125 56 36.171875 55.265625 
Q 40.578125 54.546875 44.28125 53.078125 
z
" id="DejaVuSans-115"/>
       <path d="M 18.3125 70.21875 
L 18.3125 54.6875 
L 36.8125 54.6875 
L 36.8125 47.703125 
L 18.3125 47.703125 
L 18.3125 18.015625 
Q 18.3125 11.328125 20.140625 9.421875 
Q 21.96875 7.515625 27.59375 7.515625 
L 36.8125 7.515625 
L 36.8125 0 
L 27.59375 0 
Q 17.1875 0 13.234375 3.875 
Q 9.28125 7.765625 9.28125 18.015625 
L 9.28125 47.703125 
L 2.6875 47.703125 
L 2.6875 54.6875 
L 9.28125 54.6875 
L 9.28125 70.21875 
z
" id="DejaVuSans-116"/>
       <path d="M 48.78125 52.59375 
L 48.78125 44.1875 
Q 44.96875 46.296875 41.140625 47.34375 
Q 37.3125 48.390625 33.40625 48.390625 
Q 24.65625 48.390625 19.8125 42.84375 
Q 14.984375 37.3125 14.984375 27.296875 
Q 14.984375 17.28125 19.8125 11.734375 
Q 24.65625 6.203125 33.40625 6.203125 
Q 37.3125 6.203125 41.140625 7.25 
Q 44.96875 8.296875 48.78125 10.40625 
L 48.78125 2.09375 
Q 45.015625 0.34375 40.984375 -0.53125 
Q 36.96875 -1.421875 32.421875 -1.421875 
Q 20.0625 -1.421875 12.78125 6.34375 
Q 5.515625 14.109375 5.515625 27.296875 
Q 5.515625 40.671875 12.859375 48.328125 
Q 20.21875 56 33.015625 56 
Q 37.15625 56 41.109375 55.140625 
Q 45.0625 54.296875 48.78125 52.59375 
z
" id="DejaVuSans-99"/>
       <path id="DejaVuSans-32"/>
       <path d="M 41.109375 46.296875 
Q 39.59375 47.171875 37.8125 47.578125 
Q 36.03125 48 33.890625 48 
Q 26.265625 48 22.1875 43.046875 
Q 18.109375 38.09375 18.109375 28.8125 
L 18.109375 0 
L 9.078125 0 
L 9.078125 54.6875 
L 18.109375 54.6875 
L 18.109375 46.1875 
Q 20.953125 51.171875 25.484375 53.578125 
Q 30.03125 56 36.53125 56 
Q 37.453125 56 38.578125 55.875 
Q 39.703125 55.765625 41.0625 55.515625 
z
" id="DejaVuSans-114"/>
       <path d="M 34.28125 27.484375 
Q 23.390625 27.484375 19.1875 25 
Q 14.984375 22.515625 14.984375 16.5 
Q 14.984375 11.71875 18.140625 8.90625 
Q 21.296875 6.109375 26.703125 6.109375 
Q 34.1875 6.109375 38.703125 11.40625 
Q 43.21875 16.703125 43.21875 25.484375 
L 43.21875 27.484375 
z
M 52.203125 31.203125 
L 52.203125 0 
L 43.21875 0 
L 43.21875 8.296875 
Q 40.140625 3.328125 35.546875 0.953125 
Q 30.953125 -1.421875 24.3125 -1.421875 
Q 15.921875 -1.421875 10.953125 3.296875 
Q 6 8.015625 6 15.921875 
Q 6 25.140625 12.171875 29.828125 
Q 18.359375 34.515625 30.609375 34.515625 
L 43.21875 34.515625 
L 43.21875 35.40625 
Q 43.21875 41.609375 39.140625 45 
Q 35.0625 48.390625 27.6875 48.390625 
Q 23 48.390625 18.546875 47.265625 
Q 14.109375 46.140625 10.015625 43.890625 
L 10.015625 52.203125 
Q 14.9375 54.109375 19.578125 55.046875 
Q 24.21875 56 28.609375 56 
Q 40.484375 56 46.34375 49.84375 
Q 52.203125 43.703125 52.203125 31.203125 
z
" id="DejaVuSans-97"/>
       <path d="M 56.203125 29.59375 
L 56.203125 25.203125 
L 14.890625 25.203125 
Q 15.484375 15.921875 20.484375 11.0625 
Q 25.484375 6.203125 34.421875 6.203125 
Q 39.59375 6.203125 44.453125 7.46875 
Q 49.3125 8.734375 54.109375 11.28125 
L 54.109375 2.78125 
Q 49.265625 0.734375 44.1875 -0.34375 
Q 39.109375 -1.421875 33.890625 -1.421875 
Q 20.796875 -1.421875 13.15625 6.1875 
Q 5.515625 13.8125 5.515625 26.8125 
Q 5.515625 40.234375 12.765625 48.109375 
Q 20.015625 56 32.328125 56 
Q 43.359375 56 49.78125 48.890625 
Q 56.203125 41.796875 56.203125 29.59375 
z
M 47.21875 32.234375 
Q 47.125 39.59375 43.09375 43.984375 
Q 39.0625 48.390625 32.421875 48.390625 
Q 24.90625 48.390625 20.390625 44.140625 
Q 15.875 39.890625 15.1875 32.171875 
z
" id="DejaVuSans-101"/>
       <path d="M 9.421875 75.984375 
L 18.40625 75.984375 
L 18.40625 0 
L 9.421875 0 
z
" id="DejaVuSans-108"/>
       <path d="M 54.890625 33.015625 
L 54.890625 0 
L 45.90625 0 
L 45.90625 32.71875 
Q 45.90625 40.484375 42.875 44.328125 
Q 39.84375 48.1875 33.796875 48.1875 
Q 26.515625 48.1875 22.3125 43.546875 
Q 18.109375 38.921875 18.109375 30.90625 
L 18.109375 0 
L 9.078125 0 
L 9.078125 54.6875 
L 18.109375 54.6875 
L 18.109375 46.1875 
Q 21.34375 51.125 25.703125 53.5625 
Q 30.078125 56 35.796875 56 
Q 45.21875 56 50.046875 50.171875 
Q 54.890625 44.34375 54.890625 33.015625 
z
" id="DejaVuSans-110"/>
       <path d="M 4.203125 54.6875 
L 13.1875 54.6875 
L 24.421875 12.015625 
L 35.59375 54.6875 
L 46.1875 54.6875 
L 57.421875 12.015625 
L 68.609375 54.6875 
L 77.59375 54.6875 
L 63.28125 0 
L 52.6875 0 
L 40.921875 44.828125 
L 29.109375 0 
L 18.5 0 
z
" id="DejaVuSans-119"/>
       <path d="M 9.078125 75.984375 
L 18.109375 75.984375 
L 18.109375 31.109375 
L 44.921875 54.6875 
L 56.390625 54.6875 
L 27.390625 29.109375 
L 57.625 0 
L 45.90625 0 
L 18.109375 26.703125 
L 18.109375 0 
L 9.078125 0 
z
" id="DejaVuSans-107"/>
      </defs>
      <use xlink:href="#DejaVuSans-76"/>
      <use x="53.962891" xlink:href="#DejaVuSans-111"/>
      <use x="115.144531" xlink:href="#DejaVuSans-103"/>
      <use x="178.621094" xlink:href="#DejaVuSans-105"/>
      <use x="206.404297" xlink:href="#DejaVuSans-115"/>
      <use x="258.503906" xlink:href="#DejaVuSans-116"/>
      <use x="297.712891" xlink:href="#DejaVuSans-105"/>
      <use x="325.496094" xlink:href="#DejaVuSans-99"/>
      <use x="380.476562" xlink:href="#DejaVuSans-32"/>
      <use x="412.263672" xlink:href="#DejaVuSans-114"/>
      <use x="453.376953" xlink:href="#DejaVuSans-97"/>
      <use x="514.65625" xlink:href="#DejaVuSans-116"/>
      <use x="553.865234" xlink:href="#DejaVuSans-101"/>
      <use x="615.388672" xlink:href="#DejaVuSans-32"/>
      <use x="647.175781" xlink:href="#DejaVuSans-114"/>
      <use x="686.039062" xlink:href="#DejaVuSans-111"/>
      <use x="747.220703" xlink:href="#DejaVuSans-108"/>
      <use x="775.003906" xlink:href="#DejaVuSans-108"/>
      <use x="802.787109" xlink:href="#DejaVuSans-105"/>
      <use x="830.570312" xlink:href="#DejaVuSans-110"/>
      <use x="893.949219" xlink:href="#DejaVuSans-103"/>
      <use x="957.425781" xlink:href="#DejaVuSans-32"/>
      <use x="989.212891" xlink:href="#DejaVuSans-119"/>
      <use x="1071" xlink:href="#DejaVuSans-101"/>
      <use x="1132.523438" xlink:href="#DejaVuSans-101"/>
      <use x="1194.046875" xlink:href="#DejaVuSans-107"/>
     </g>
    </g>
    <g id="line2d_62">
     <path d="M 39.103125 38.504307 
L 59.103125 38.504307 
" style="fill:none;stroke:#e24a33;stroke-dasharray:1.5,2.475;stroke-dashoffset:0;stroke-width:1.5;"/>
    </g>
    <g id="line2d_63"/>
    <g id="text_28">
     <!-- Logistic rate -->
     <g transform="translate(67.103125 42.004307)scale(0.1 -0.1)">
      <use xlink:href="#DejaVuSans-76"/>
      <use x="53.962891" xlink:href="#DejaVuSans-111"/>
      <use x="115.144531" xlink:href="#DejaVuSans-103"/>
      <use x="178.621094" xlink:href="#DejaVuSans-105"/>
      <use x="206.404297" xlink:href="#DejaVuSans-115"/>
      <use x="258.503906" xlink:href="#DejaVuSans-116"/>
      <use x="297.712891" xlink:href="#DejaVuSans-105"/>
      <use x="325.496094" xlink:href="#DejaVuSans-99"/>
      <use x="380.476562" xlink:href="#DejaVuSans-32"/>
      <use x="412.263672" xlink:href="#DejaVuSans-114"/>
      <use x="453.376953" xlink:href="#DejaVuSans-97"/>
      <use x="514.65625" xlink:href="#DejaVuSans-116"/>
      <use x="553.865234" xlink:href="#DejaVuSans-101"/>
     </g>
    </g>
    <g id="line2d_64">
     <path d="M 39.103125 53.182432 
L 59.103125 53.182432 
" style="fill:none;stroke:#348abd;stroke-linecap:square;stroke-width:1.5;"/>
    </g>
    <g id="line2d_65"/>
    <g id="text_29">
     <!-- RKI rate rolling week -->
     <g transform="translate(67.103125 56.682432)scale(0.1 -0.1)">
      <defs>
       <path d="M 44.390625 34.1875 
Q 47.5625 33.109375 50.5625 29.59375 
Q 53.5625 26.078125 56.59375 19.921875 
L 66.609375 0 
L 56 0 
L 46.6875 18.703125 
Q 43.0625 26.03125 39.671875 28.421875 
Q 36.28125 30.8125 30.421875 30.8125 
L 19.671875 30.8125 
L 19.671875 0 
L 9.8125 0 
L 9.8125 72.90625 
L 32.078125 72.90625 
Q 44.578125 72.90625 50.734375 67.671875 
Q 56.890625 62.453125 56.890625 51.90625 
Q 56.890625 45.015625 53.6875 40.46875 
Q 50.484375 35.9375 44.390625 34.1875 
z
M 19.671875 64.796875 
L 19.671875 38.921875 
L 32.078125 38.921875 
Q 39.203125 38.921875 42.84375 42.21875 
Q 46.484375 45.515625 46.484375 51.90625 
Q 46.484375 58.296875 42.84375 61.546875 
Q 39.203125 64.796875 32.078125 64.796875 
z
" id="DejaVuSans-82"/>
       <path d="M 9.8125 72.90625 
L 19.671875 72.90625 
L 19.671875 42.09375 
L 52.390625 72.90625 
L 65.09375 72.90625 
L 28.90625 38.921875 
L 67.671875 0 
L 54.6875 0 
L 19.671875 35.109375 
L 19.671875 0 
L 9.8125 0 
z
" id="DejaVuSans-75"/>
       <path d="M 9.8125 72.90625 
L 19.671875 72.90625 
L 19.671875 0 
L 9.8125 0 
z
" id="DejaVuSans-73"/>
      </defs>
      <use xlink:href="#DejaVuSans-82"/>
      <use x="69.482422" xlink:href="#DejaVuSans-75"/>
      <use x="135.058594" xlink:href="#DejaVuSans-73"/>
      <use x="164.550781" xlink:href="#DejaVuSans-32"/>
      <use x="196.337891" xlink:href="#DejaVuSans-114"/>
      <use x="237.451172" xlink:href="#DejaVuSans-97"/>
      <use x="298.730469" xlink:href="#DejaVuSans-116"/>
      <use x="337.939453" xlink:href="#DejaVuSans-101"/>
      <use x="399.462891" xlink:href="#DejaVuSans-32"/>
      <use x="431.25" xlink:href="#DejaVuSans-114"/>
      <use x="470.113281" xlink:href="#DejaVuSans-111"/>
      <use x="531.294922" xlink:href="#DejaVuSans-108"/>
      <use x="559.078125" xlink:href="#DejaVuSans-108"/>
      <use x="586.861328" xlink:href="#DejaVuSans-105"/>
      <use x="614.644531" xlink:href="#DejaVuSans-110"/>
      <use x="678.023438" xlink:href="#DejaVuSans-103"/>
      <use x="741.5" xlink:href="#DejaVuSans-32"/>
      <use x="773.287109" xlink:href="#DejaVuSans-119"/>
      <use x="855.074219" xlink:href="#DejaVuSans-101"/>
      <use x="916.597656" xlink:href="#DejaVuSans-101"/>
      <use x="978.121094" xlink:href="#DejaVuSans-107"/>
     </g>
    </g>
    <g id="line2d_66">
     <path d="M 39.103125 67.860557 
L 59.103125 67.860557 
" style="fill:none;stroke:#348abd;stroke-dasharray:1.5,2.475;stroke-dashoffset:0;stroke-width:1.5;"/>
    </g>
    <g id="line2d_67"/>
    <g id="text_30">
     <!-- RKI rate -->
     <g transform="translate(67.103125 71.360557)scale(0.1 -0.1)">
      <use xlink:href="#DejaVuSans-82"/>
      <use x="69.482422" xlink:href="#DejaVuSans-75"/>
      <use x="135.058594" xlink:href="#DejaVuSans-73"/>
      <use x="164.550781" xlink:href="#DejaVuSans-32"/>
      <use x="196.337891" xlink:href="#DejaVuSans-114"/>
      <use x="237.451172" xlink:href="#DejaVuSans-97"/>
      <use x="298.730469" xlink:href="#DejaVuSans-116"/>
      <use x="337.939453" xlink:href="#DejaVuSans-101"/>
     </g>
    </g>
    <g id="line2d_68">
     <path d="M 39.103125 82.538682 
L 59.103125 82.538682 
" style="fill:none;stroke:#000000;stroke-linecap:square;stroke-width:1.5;"/>
    </g>
    <g id="line2d_69"/>
    <g id="text_31">
     <!-- New Cases rolling week -->
     <g transform="translate(67.103125 86.038682)scale(0.1 -0.1)">
      <defs>
       <path d="M 9.8125 72.90625 
L 23.09375 72.90625 
L 55.421875 11.921875 
L 55.421875 72.90625 
L 64.984375 72.90625 
L 64.984375 0 
L 51.703125 0 
L 19.390625 60.984375 
L 19.390625 0 
L 9.8125 0 
z
" id="DejaVuSans-78"/>
       <path d="M 64.40625 67.28125 
L 64.40625 56.890625 
Q 59.421875 61.53125 53.78125 63.8125 
Q 48.140625 66.109375 41.796875 66.109375 
Q 29.296875 66.109375 22.65625 58.46875 
Q 16.015625 50.828125 16.015625 36.375 
Q 16.015625 21.96875 22.65625 14.328125 
Q 29.296875 6.6875 41.796875 6.6875 
Q 48.140625 6.6875 53.78125 8.984375 
Q 59.421875 11.28125 64.40625 15.921875 
L 64.40625 5.609375 
Q 59.234375 2.09375 53.4375 0.328125 
Q 47.65625 -1.421875 41.21875 -1.421875 
Q 24.65625 -1.421875 15.125 8.703125 
Q 5.609375 18.84375 5.609375 36.375 
Q 5.609375 53.953125 15.125 64.078125 
Q 24.65625 74.21875 41.21875 74.21875 
Q 47.75 74.21875 53.53125 72.484375 
Q 59.328125 70.75 64.40625 67.28125 
z
" id="DejaVuSans-67"/>
      </defs>
      <use xlink:href="#DejaVuSans-78"/>
      <use x="74.804688" xlink:href="#DejaVuSans-101"/>
      <use x="136.328125" xlink:href="#DejaVuSans-119"/>
      <use x="218.115234" xlink:href="#DejaVuSans-32"/>
      <use x="249.902344" xlink:href="#DejaVuSans-67"/>
      <use x="319.726562" xlink:href="#DejaVuSans-97"/>
      <use x="381.005859" xlink:href="#DejaVuSans-115"/>
      <use x="433.105469" xlink:href="#DejaVuSans-101"/>
      <use x="494.628906" xlink:href="#DejaVuSans-115"/>
      <use x="546.728516" xlink:href="#DejaVuSans-32"/>
      <use x="578.515625" xlink:href="#DejaVuSans-114"/>
      <use x="617.378906" xlink:href="#DejaVuSans-111"/>
      <use x="678.560547" xlink:href="#DejaVuSans-108"/>
      <use x="706.34375" xlink:href="#DejaVuSans-108"/>
      <use x="734.126953" xlink:href="#DejaVuSans-105"/>
      <use x="761.910156" xlink:href="#DejaVuSans-110"/>
      <use x="825.289062" xlink:href="#DejaVuSans-103"/>
      <use x="888.765625" xlink:href="#DejaVuSans-32"/>
      <use x="920.552734" xlink:href="#DejaVuSans-119"/>
      <use x="1002.339844" xlink:href="#DejaVuSans-101"/>
      <use x="1063.863281" xlink:href="#DejaVuSans-101"/>
      <use x="1125.386719" xlink:href="#DejaVuSans-107"/>
     </g>
    </g>
    <g id="line2d_70">
     <path d="M 39.103125 97.216807 
L 59.103125 97.216807 
" style="fill:none;stroke:#000000;stroke-dasharray:1.5,2.475;stroke-dashoffset:0;stroke-width:1.5;"/>
    </g>
    <g id="line2d_71"/>
    <g id="text_32">
     <!-- New Cases -->
     <g transform="translate(67.103125 100.716807)scale(0.1 -0.1)">
      <use xlink:href="#DejaVuSans-78"/>
      <use x="74.804688" xlink:href="#DejaVuSans-101"/>
      <use x="136.328125" xlink:href="#DejaVuSans-119"/>
      <use x="218.115234" xlink:href="#DejaVuSans-32"/>
      <use x="249.902344" xlink:href="#DejaVuSans-67"/>
      <use x="319.726562" xlink:href="#DejaVuSans-97"/>
      <use x="381.005859" xlink:href="#DejaVuSans-115"/>
      <use x="433.105469" xlink:href="#DejaVuSans-101"/>
      <use x="494.628906" xlink:href="#DejaVuSans-115"/>
     </g>
    </g>
   </g>
  </g>
 </g>
 <defs>
  <clipPath id="pa378ecc971">
   <rect height="498.96" width="892.8" x="30.103125" y="10.727745"/>
  </clipPath>
 </defs>
</svg>
