<?xml version="1.0" encoding="utf-8" standalone="no"?>
<!DOCTYPE svg PUBLIC "-//W3C//DTD SVG 1.1//EN"
  "http://www.w3.org/Graphics/SVG/1.1/DTD/svg11.dtd">
<!-- Created with matplotlib (https://matplotlib.org/) -->
<svg height="640.398125pt" version="1.1" viewBox="0 0 1145.085625 640.398125" width="1145.085625pt" xmlns="http://www.w3.org/2000/svg" xmlns:xlink="http://www.w3.org/1999/xlink">
 <metadata>
  <rdf:RDF xmlns:cc="http://creativecommons.org/ns#" xmlns:dc="http://purl.org/dc/elements/1.1/" xmlns:rdf="http://www.w3.org/1999/02/22-rdf-syntax-ns#">
   <cc:Work>
    <dc:type rdf:resource="http://purl.org/dc/dcmitype/StillImage"/>
    <dc:date>2021-03-15T09:01:45.856255</dc:date>
    <dc:format>image/svg+xml</dc:format>
    <dc:creator>
     <cc:Agent>
      <dc:title>Matplotlib v3.3.2, https://matplotlib.org/</dc:title>
     </cc:Agent>
    </dc:creator>
   </cc:Work>
  </rdf:RDF>
 </metadata>
 <defs>
  <style type="text/css">*{stroke-linecap:butt;stroke-linejoin:round;}</style>
 </defs>
 <g id="figure_1">
  <g id="patch_1">
   <path d="M 0 640.398125 
L 1145.085625 640.398125 
L 1145.085625 0 
L 0 0 
z
" style="fill:#ffffff;"/>
  </g>
  <g id="axes_1">
   <g id="patch_2">
    <path d="M 30.103125 616.52 
L 1099.073125 616.52 
L 1099.073125 7.2 
L 30.103125 7.2 
z
" style="fill:#e5e5e5;"/>
   </g>
   <g id="matplotlib.axis_1">
    <g id="xtick_1">
     <g id="line2d_1">
      <path clip-path="url(#p562a0713e1)" d="M 83.793935 616.52 
L 83.793935 7.2 
" style="fill:none;stroke:#ffffff;stroke-linecap:square;stroke-width:0.8;"/>
     </g>
     <g id="line2d_2">
      <defs>
       <path d="M 0 0 
L 0 3.5 
" id="m15d79811b8" style="stroke:#555555;stroke-width:0.8;"/>
      </defs>
      <g>
       <use style="fill:#555555;stroke:#555555;stroke-width:0.8;" x="83.793935" xlink:href="#m15d79811b8" y="616.52"/>
      </g>
     </g>
     <g id="text_1">
      <!-- 2020-03 -->
      <g style="fill:#555555;" transform="translate(62.902529 631.118437)scale(0.1 -0.1)">
       <defs>
        <path d="M 19.1875 8.296875 
L 53.609375 8.296875 
L 53.609375 0 
L 7.328125 0 
L 7.328125 8.296875 
Q 12.9375 14.109375 22.625 23.890625 
Q 32.328125 33.6875 34.8125 36.53125 
Q 39.546875 41.84375 41.421875 45.53125 
Q 43.3125 49.21875 43.3125 52.78125 
Q 43.3125 58.59375 39.234375 62.25 
Q 35.15625 65.921875 28.609375 65.921875 
Q 23.96875 65.921875 18.8125 64.3125 
Q 13.671875 62.703125 7.8125 59.421875 
L 7.8125 69.390625 
Q 13.765625 71.78125 18.9375 73 
Q 24.125 74.21875 28.421875 74.21875 
Q 39.75 74.21875 46.484375 68.546875 
Q 53.21875 62.890625 53.21875 53.421875 
Q 53.21875 48.921875 51.53125 44.890625 
Q 49.859375 40.875 45.40625 35.40625 
Q 44.1875 33.984375 37.640625 27.21875 
Q 31.109375 20.453125 19.1875 8.296875 
z
" id="DejaVuSans-50"/>
        <path d="M 31.78125 66.40625 
Q 24.171875 66.40625 20.328125 58.90625 
Q 16.5 51.421875 16.5 36.375 
Q 16.5 21.390625 20.328125 13.890625 
Q 24.171875 6.390625 31.78125 6.390625 
Q 39.453125 6.390625 43.28125 13.890625 
Q 47.125 21.390625 47.125 36.375 
Q 47.125 51.421875 43.28125 58.90625 
Q 39.453125 66.40625 31.78125 66.40625 
z
M 31.78125 74.21875 
Q 44.046875 74.21875 50.515625 64.515625 
Q 56.984375 54.828125 56.984375 36.375 
Q 56.984375 17.96875 50.515625 8.265625 
Q 44.046875 -1.421875 31.78125 -1.421875 
Q 19.53125 -1.421875 13.0625 8.265625 
Q 6.59375 17.96875 6.59375 36.375 
Q 6.59375 54.828125 13.0625 64.515625 
Q 19.53125 74.21875 31.78125 74.21875 
z
" id="DejaVuSans-48"/>
        <path d="M 4.890625 31.390625 
L 31.203125 31.390625 
L 31.203125 23.390625 
L 4.890625 23.390625 
z
" id="DejaVuSans-45"/>
        <path d="M 40.578125 39.3125 
Q 47.65625 37.796875 51.625 33 
Q 55.609375 28.21875 55.609375 21.1875 
Q 55.609375 10.40625 48.1875 4.484375 
Q 40.765625 -1.421875 27.09375 -1.421875 
Q 22.515625 -1.421875 17.65625 -0.515625 
Q 12.796875 0.390625 7.625 2.203125 
L 7.625 11.71875 
Q 11.71875 9.328125 16.59375 8.109375 
Q 21.484375 6.890625 26.8125 6.890625 
Q 36.078125 6.890625 40.9375 10.546875 
Q 45.796875 14.203125 45.796875 21.1875 
Q 45.796875 27.640625 41.28125 31.265625 
Q 36.765625 34.90625 28.71875 34.90625 
L 20.21875 34.90625 
L 20.21875 43.015625 
L 29.109375 43.015625 
Q 36.375 43.015625 40.234375 45.921875 
Q 44.09375 48.828125 44.09375 54.296875 
Q 44.09375 59.90625 40.109375 62.90625 
Q 36.140625 65.921875 28.71875 65.921875 
Q 24.65625 65.921875 20.015625 65.03125 
Q 15.375 64.15625 9.8125 62.3125 
L 9.8125 71.09375 
Q 15.4375 72.65625 20.34375 73.4375 
Q 25.25 74.21875 29.59375 74.21875 
Q 40.828125 74.21875 47.359375 69.109375 
Q 53.90625 64.015625 53.90625 55.328125 
Q 53.90625 49.265625 50.4375 45.09375 
Q 46.96875 40.921875 40.578125 39.3125 
z
" id="DejaVuSans-51"/>
       </defs>
       <use xlink:href="#DejaVuSans-50"/>
       <use x="63.623047" xlink:href="#DejaVuSans-48"/>
       <use x="127.246094" xlink:href="#DejaVuSans-50"/>
       <use x="190.869141" xlink:href="#DejaVuSans-48"/>
       <use x="254.492188" xlink:href="#DejaVuSans-45"/>
       <use x="290.576172" xlink:href="#DejaVuSans-48"/>
       <use x="354.199219" xlink:href="#DejaVuSans-51"/>
      </g>
     </g>
    </g>
    <g id="xtick_2">
     <g id="line2d_3">
      <path clip-path="url(#p562a0713e1)" d="M 239.382506 616.52 
L 239.382506 7.2 
" style="fill:none;stroke:#ffffff;stroke-linecap:square;stroke-width:0.8;"/>
     </g>
     <g id="line2d_4">
      <g>
       <use style="fill:#555555;stroke:#555555;stroke-width:0.8;" x="239.382506" xlink:href="#m15d79811b8" y="616.52"/>
      </g>
     </g>
     <g id="text_2">
      <!-- 2020-05 -->
      <g style="fill:#555555;" transform="translate(218.4911 631.118437)scale(0.1 -0.1)">
       <defs>
        <path d="M 10.796875 72.90625 
L 49.515625 72.90625 
L 49.515625 64.59375 
L 19.828125 64.59375 
L 19.828125 46.734375 
Q 21.96875 47.46875 24.109375 47.828125 
Q 26.265625 48.1875 28.421875 48.1875 
Q 40.625 48.1875 47.75 41.5 
Q 54.890625 34.8125 54.890625 23.390625 
Q 54.890625 11.625 47.5625 5.09375 
Q 40.234375 -1.421875 26.90625 -1.421875 
Q 22.3125 -1.421875 17.546875 -0.640625 
Q 12.796875 0.140625 7.71875 1.703125 
L 7.71875 11.625 
Q 12.109375 9.234375 16.796875 8.0625 
Q 21.484375 6.890625 26.703125 6.890625 
Q 35.15625 6.890625 40.078125 11.328125 
Q 45.015625 15.765625 45.015625 23.390625 
Q 45.015625 31 40.078125 35.4375 
Q 35.15625 39.890625 26.703125 39.890625 
Q 22.75 39.890625 18.8125 39.015625 
Q 14.890625 38.140625 10.796875 36.28125 
z
" id="DejaVuSans-53"/>
       </defs>
       <use xlink:href="#DejaVuSans-50"/>
       <use x="63.623047" xlink:href="#DejaVuSans-48"/>
       <use x="127.246094" xlink:href="#DejaVuSans-50"/>
       <use x="190.869141" xlink:href="#DejaVuSans-48"/>
       <use x="254.492188" xlink:href="#DejaVuSans-45"/>
       <use x="290.576172" xlink:href="#DejaVuSans-48"/>
       <use x="354.199219" xlink:href="#DejaVuSans-53"/>
      </g>
     </g>
    </g>
    <g id="xtick_3">
     <g id="line2d_5">
      <path clip-path="url(#p562a0713e1)" d="M 394.971077 616.52 
L 394.971077 7.2 
" style="fill:none;stroke:#ffffff;stroke-linecap:square;stroke-width:0.8;"/>
     </g>
     <g id="line2d_6">
      <g>
       <use style="fill:#555555;stroke:#555555;stroke-width:0.8;" x="394.971077" xlink:href="#m15d79811b8" y="616.52"/>
      </g>
     </g>
     <g id="text_3">
      <!-- 2020-07 -->
      <g style="fill:#555555;" transform="translate(374.07967 631.118437)scale(0.1 -0.1)">
       <defs>
        <path d="M 8.203125 72.90625 
L 55.078125 72.90625 
L 55.078125 68.703125 
L 28.609375 0 
L 18.3125 0 
L 43.21875 64.59375 
L 8.203125 64.59375 
z
" id="DejaVuSans-55"/>
       </defs>
       <use xlink:href="#DejaVuSans-50"/>
       <use x="63.623047" xlink:href="#DejaVuSans-48"/>
       <use x="127.246094" xlink:href="#DejaVuSans-50"/>
       <use x="190.869141" xlink:href="#DejaVuSans-48"/>
       <use x="254.492188" xlink:href="#DejaVuSans-45"/>
       <use x="290.576172" xlink:href="#DejaVuSans-48"/>
       <use x="354.199219" xlink:href="#DejaVuSans-55"/>
      </g>
     </g>
    </g>
    <g id="xtick_4">
     <g id="line2d_7">
      <path clip-path="url(#p562a0713e1)" d="M 553.11028 616.52 
L 553.11028 7.2 
" style="fill:none;stroke:#ffffff;stroke-linecap:square;stroke-width:0.8;"/>
     </g>
     <g id="line2d_8">
      <g>
       <use style="fill:#555555;stroke:#555555;stroke-width:0.8;" x="553.11028" xlink:href="#m15d79811b8" y="616.52"/>
      </g>
     </g>
     <g id="text_4">
      <!-- 2020-09 -->
      <g style="fill:#555555;" transform="translate(532.218873 631.118437)scale(0.1 -0.1)">
       <defs>
        <path d="M 10.984375 1.515625 
L 10.984375 10.5 
Q 14.703125 8.734375 18.5 7.8125 
Q 22.3125 6.890625 25.984375 6.890625 
Q 35.75 6.890625 40.890625 13.453125 
Q 46.046875 20.015625 46.78125 33.40625 
Q 43.953125 29.203125 39.59375 26.953125 
Q 35.25 24.703125 29.984375 24.703125 
Q 19.046875 24.703125 12.671875 31.3125 
Q 6.296875 37.9375 6.296875 49.421875 
Q 6.296875 60.640625 12.9375 67.421875 
Q 19.578125 74.21875 30.609375 74.21875 
Q 43.265625 74.21875 49.921875 64.515625 
Q 56.59375 54.828125 56.59375 36.375 
Q 56.59375 19.140625 48.40625 8.859375 
Q 40.234375 -1.421875 26.421875 -1.421875 
Q 22.703125 -1.421875 18.890625 -0.6875 
Q 15.09375 0.046875 10.984375 1.515625 
z
M 30.609375 32.421875 
Q 37.25 32.421875 41.125 36.953125 
Q 45.015625 41.5 45.015625 49.421875 
Q 45.015625 57.28125 41.125 61.84375 
Q 37.25 66.40625 30.609375 66.40625 
Q 23.96875 66.40625 20.09375 61.84375 
Q 16.21875 57.28125 16.21875 49.421875 
Q 16.21875 41.5 20.09375 36.953125 
Q 23.96875 32.421875 30.609375 32.421875 
z
" id="DejaVuSans-57"/>
       </defs>
       <use xlink:href="#DejaVuSans-50"/>
       <use x="63.623047" xlink:href="#DejaVuSans-48"/>
       <use x="127.246094" xlink:href="#DejaVuSans-50"/>
       <use x="190.869141" xlink:href="#DejaVuSans-48"/>
       <use x="254.492188" xlink:href="#DejaVuSans-45"/>
       <use x="290.576172" xlink:href="#DejaVuSans-48"/>
       <use x="354.199219" xlink:href="#DejaVuSans-57"/>
      </g>
     </g>
    </g>
    <g id="xtick_5">
     <g id="line2d_9">
      <path clip-path="url(#p562a0713e1)" d="M 708.69885 616.52 
L 708.69885 7.2 
" style="fill:none;stroke:#ffffff;stroke-linecap:square;stroke-width:0.8;"/>
     </g>
     <g id="line2d_10">
      <g>
       <use style="fill:#555555;stroke:#555555;stroke-width:0.8;" x="708.69885" xlink:href="#m15d79811b8" y="616.52"/>
      </g>
     </g>
     <g id="text_5">
      <!-- 2020-11 -->
      <g style="fill:#555555;" transform="translate(687.807444 631.118437)scale(0.1 -0.1)">
       <defs>
        <path d="M 12.40625 8.296875 
L 28.515625 8.296875 
L 28.515625 63.921875 
L 10.984375 60.40625 
L 10.984375 69.390625 
L 28.421875 72.90625 
L 38.28125 72.90625 
L 38.28125 8.296875 
L 54.390625 8.296875 
L 54.390625 0 
L 12.40625 0 
z
" id="DejaVuSans-49"/>
       </defs>
       <use xlink:href="#DejaVuSans-50"/>
       <use x="63.623047" xlink:href="#DejaVuSans-48"/>
       <use x="127.246094" xlink:href="#DejaVuSans-50"/>
       <use x="190.869141" xlink:href="#DejaVuSans-48"/>
       <use x="254.492188" xlink:href="#DejaVuSans-45"/>
       <use x="290.576172" xlink:href="#DejaVuSans-49"/>
       <use x="354.199219" xlink:href="#DejaVuSans-49"/>
      </g>
     </g>
    </g>
    <g id="xtick_6">
     <g id="line2d_11">
      <path clip-path="url(#p562a0713e1)" d="M 864.287421 616.52 
L 864.287421 7.2 
" style="fill:none;stroke:#ffffff;stroke-linecap:square;stroke-width:0.8;"/>
     </g>
     <g id="line2d_12">
      <g>
       <use style="fill:#555555;stroke:#555555;stroke-width:0.8;" x="864.287421" xlink:href="#m15d79811b8" y="616.52"/>
      </g>
     </g>
     <g id="text_6">
      <!-- 2021-01 -->
      <g style="fill:#555555;" transform="translate(843.396015 631.118437)scale(0.1 -0.1)">
       <use xlink:href="#DejaVuSans-50"/>
       <use x="63.623047" xlink:href="#DejaVuSans-48"/>
       <use x="127.246094" xlink:href="#DejaVuSans-50"/>
       <use x="190.869141" xlink:href="#DejaVuSans-49"/>
       <use x="254.492188" xlink:href="#DejaVuSans-45"/>
       <use x="290.576172" xlink:href="#DejaVuSans-48"/>
       <use x="354.199219" xlink:href="#DejaVuSans-49"/>
      </g>
     </g>
    </g>
    <g id="xtick_7">
     <g id="line2d_13">
      <path clip-path="url(#p562a0713e1)" d="M 1014.774727 616.52 
L 1014.774727 7.2 
" style="fill:none;stroke:#ffffff;stroke-linecap:square;stroke-width:0.8;"/>
     </g>
     <g id="line2d_14">
      <g>
       <use style="fill:#555555;stroke:#555555;stroke-width:0.8;" x="1014.774727" xlink:href="#m15d79811b8" y="616.52"/>
      </g>
     </g>
     <g id="text_7">
      <!-- 2021-03 -->
      <g style="fill:#555555;" transform="translate(993.883321 631.118437)scale(0.1 -0.1)">
       <use xlink:href="#DejaVuSans-50"/>
       <use x="63.623047" xlink:href="#DejaVuSans-48"/>
       <use x="127.246094" xlink:href="#DejaVuSans-50"/>
       <use x="190.869141" xlink:href="#DejaVuSans-49"/>
       <use x="254.492188" xlink:href="#DejaVuSans-45"/>
       <use x="290.576172" xlink:href="#DejaVuSans-48"/>
       <use x="354.199219" xlink:href="#DejaVuSans-51"/>
      </g>
     </g>
    </g>
   </g>
   <g id="matplotlib.axis_2">
    <g id="ytick_1">
     <g id="line2d_15">
      <path clip-path="url(#p562a0713e1)" d="M 30.103125 587.741318 
L 1099.073125 587.741318 
" style="fill:none;stroke:#ffffff;stroke-linecap:square;stroke-width:0.8;"/>
     </g>
     <g id="line2d_16">
      <defs>
       <path d="M 0 0 
L -3.5 0 
" id="mbfb1ac0e96" style="stroke:#555555;stroke-width:0.8;"/>
      </defs>
      <g>
       <use style="fill:#555555;stroke:#555555;stroke-width:0.8;" x="30.103125" xlink:href="#mbfb1ac0e96" y="587.741318"/>
      </g>
     </g>
     <g id="text_8">
      <!-- 0.5 -->
      <g style="fill:#555555;" transform="translate(7.2 591.540537)scale(0.1 -0.1)">
       <defs>
        <path d="M 10.6875 12.40625 
L 21 12.40625 
L 21 0 
L 10.6875 0 
z
" id="DejaVuSans-46"/>
       </defs>
       <use xlink:href="#DejaVuSans-48"/>
       <use x="63.623047" xlink:href="#DejaVuSans-46"/>
       <use x="95.410156" xlink:href="#DejaVuSans-53"/>
      </g>
     </g>
    </g>
    <g id="ytick_2">
     <g id="line2d_17">
      <path clip-path="url(#p562a0713e1)" d="M 30.103125 513.773155 
L 1099.073125 513.773155 
" style="fill:none;stroke:#ffffff;stroke-linecap:square;stroke-width:0.8;"/>
     </g>
     <g id="line2d_18">
      <g>
       <use style="fill:#555555;stroke:#555555;stroke-width:0.8;" x="30.103125" xlink:href="#mbfb1ac0e96" y="513.773155"/>
      </g>
     </g>
     <g id="text_9">
      <!-- 1.0 -->
      <g style="fill:#555555;" transform="translate(7.2 517.572373)scale(0.1 -0.1)">
       <use xlink:href="#DejaVuSans-49"/>
       <use x="63.623047" xlink:href="#DejaVuSans-46"/>
       <use x="95.410156" xlink:href="#DejaVuSans-48"/>
      </g>
     </g>
    </g>
    <g id="ytick_3">
     <g id="line2d_19">
      <path clip-path="url(#p562a0713e1)" d="M 30.103125 439.804991 
L 1099.073125 439.804991 
" style="fill:none;stroke:#ffffff;stroke-linecap:square;stroke-width:0.8;"/>
     </g>
     <g id="line2d_20">
      <g>
       <use style="fill:#555555;stroke:#555555;stroke-width:0.8;" x="30.103125" xlink:href="#mbfb1ac0e96" y="439.804991"/>
      </g>
     </g>
     <g id="text_10">
      <!-- 1.5 -->
      <g style="fill:#555555;" transform="translate(7.2 443.60421)scale(0.1 -0.1)">
       <use xlink:href="#DejaVuSans-49"/>
       <use x="63.623047" xlink:href="#DejaVuSans-46"/>
       <use x="95.410156" xlink:href="#DejaVuSans-53"/>
      </g>
     </g>
    </g>
    <g id="ytick_4">
     <g id="line2d_21">
      <path clip-path="url(#p562a0713e1)" d="M 30.103125 365.836827 
L 1099.073125 365.836827 
" style="fill:none;stroke:#ffffff;stroke-linecap:square;stroke-width:0.8;"/>
     </g>
     <g id="line2d_22">
      <g>
       <use style="fill:#555555;stroke:#555555;stroke-width:0.8;" x="30.103125" xlink:href="#mbfb1ac0e96" y="365.836827"/>
      </g>
     </g>
     <g id="text_11">
      <!-- 2.0 -->
      <g style="fill:#555555;" transform="translate(7.2 369.636046)scale(0.1 -0.1)">
       <use xlink:href="#DejaVuSans-50"/>
       <use x="63.623047" xlink:href="#DejaVuSans-46"/>
       <use x="95.410156" xlink:href="#DejaVuSans-48"/>
      </g>
     </g>
    </g>
    <g id="ytick_5">
     <g id="line2d_23">
      <path clip-path="url(#p562a0713e1)" d="M 30.103125 291.868663 
L 1099.073125 291.868663 
" style="fill:none;stroke:#ffffff;stroke-linecap:square;stroke-width:0.8;"/>
     </g>
     <g id="line2d_24">
      <g>
       <use style="fill:#555555;stroke:#555555;stroke-width:0.8;" x="30.103125" xlink:href="#mbfb1ac0e96" y="291.868663"/>
      </g>
     </g>
     <g id="text_12">
      <!-- 2.5 -->
      <g style="fill:#555555;" transform="translate(7.2 295.667882)scale(0.1 -0.1)">
       <use xlink:href="#DejaVuSans-50"/>
       <use x="63.623047" xlink:href="#DejaVuSans-46"/>
       <use x="95.410156" xlink:href="#DejaVuSans-53"/>
      </g>
     </g>
    </g>
    <g id="ytick_6">
     <g id="line2d_25">
      <path clip-path="url(#p562a0713e1)" d="M 30.103125 217.900499 
L 1099.073125 217.900499 
" style="fill:none;stroke:#ffffff;stroke-linecap:square;stroke-width:0.8;"/>
     </g>
     <g id="line2d_26">
      <g>
       <use style="fill:#555555;stroke:#555555;stroke-width:0.8;" x="30.103125" xlink:href="#mbfb1ac0e96" y="217.900499"/>
      </g>
     </g>
     <g id="text_13">
      <!-- 3.0 -->
      <g style="fill:#555555;" transform="translate(7.2 221.699718)scale(0.1 -0.1)">
       <use xlink:href="#DejaVuSans-51"/>
       <use x="63.623047" xlink:href="#DejaVuSans-46"/>
       <use x="95.410156" xlink:href="#DejaVuSans-48"/>
      </g>
     </g>
    </g>
    <g id="ytick_7">
     <g id="line2d_27">
      <path clip-path="url(#p562a0713e1)" d="M 30.103125 143.932336 
L 1099.073125 143.932336 
" style="fill:none;stroke:#ffffff;stroke-linecap:square;stroke-width:0.8;"/>
     </g>
     <g id="line2d_28">
      <g>
       <use style="fill:#555555;stroke:#555555;stroke-width:0.8;" x="30.103125" xlink:href="#mbfb1ac0e96" y="143.932336"/>
      </g>
     </g>
     <g id="text_14">
      <!-- 3.5 -->
      <g style="fill:#555555;" transform="translate(7.2 147.731554)scale(0.1 -0.1)">
       <use xlink:href="#DejaVuSans-51"/>
       <use x="63.623047" xlink:href="#DejaVuSans-46"/>
       <use x="95.410156" xlink:href="#DejaVuSans-53"/>
      </g>
     </g>
    </g>
    <g id="ytick_8">
     <g id="line2d_29">
      <path clip-path="url(#p562a0713e1)" d="M 30.103125 69.964172 
L 1099.073125 69.964172 
" style="fill:none;stroke:#ffffff;stroke-linecap:square;stroke-width:0.8;"/>
     </g>
     <g id="line2d_30">
      <g>
       <use style="fill:#555555;stroke:#555555;stroke-width:0.8;" x="30.103125" xlink:href="#mbfb1ac0e96" y="69.964172"/>
      </g>
     </g>
     <g id="text_15">
      <!-- 4.0 -->
      <g style="fill:#555555;" transform="translate(7.2 73.763391)scale(0.1 -0.1)">
       <defs>
        <path d="M 37.796875 64.3125 
L 12.890625 25.390625 
L 37.796875 25.390625 
z
M 35.203125 72.90625 
L 47.609375 72.90625 
L 47.609375 25.390625 
L 58.015625 25.390625 
L 58.015625 17.1875 
L 47.609375 17.1875 
L 47.609375 0 
L 37.796875 0 
L 37.796875 17.1875 
L 4.890625 17.1875 
L 4.890625 26.703125 
z
" id="DejaVuSans-52"/>
       </defs>
       <use xlink:href="#DejaVuSans-52"/>
       <use x="63.623047" xlink:href="#DejaVuSans-46"/>
       <use x="95.410156" xlink:href="#DejaVuSans-48"/>
      </g>
     </g>
    </g>
   </g>
   <g id="line2d_31">
    <path clip-path="url(#p562a0713e1)" d="M 88.8952 114.622911 
L 91.445832 85.358076 
L 93.996464 122.160738 
L 96.547097 104.576897 
L 99.097729 95.992699 
L 101.648361 105.393328 
L 104.198994 124.687859 
L 106.749626 159.979578 
L 109.300258 204.839297 
L 111.85089 215.895658 
L 114.401523 246.205498 
L 116.952155 270.039884 
L 119.502787 277.546135 
L 122.05342 284.08865 
L 124.604052 277.55759 
L 127.154684 273.556615 
L 132.255949 288.756241 
L 134.806581 301.426214 
L 137.357214 318.69324 
L 139.907846 328.755536 
L 142.458478 336.592714 
L 145.00911 342.212958 
L 147.559743 348.78895 
L 150.110375 358.42084 
L 152.661007 370.194256 
L 155.21164 382.963683 
L 160.312904 403.939538 
L 162.863537 414.648465 
L 165.414169 426.529856 
L 167.964801 436.545585 
L 170.515434 444.679654 
L 173.066066 451.092206 
L 175.616698 456.83234 
L 178.16733 461.453048 
L 180.717963 465.317212 
L 183.268595 469.94746 
L 190.920492 482.502524 
L 193.471124 485.891202 
L 196.021757 488.911835 
L 198.572389 491.424622 
L 206.224286 497.46678 
L 208.774918 498.955712 
L 211.32555 500.027552 
L 213.876183 500.657683 
L 221.52808 502.236037 
L 231.730609 505.278784 
L 249.585035 508.998634 
L 254.6863 509.521775 
L 259.787564 509.86288 
L 277.64199 510.475454 
L 285.293887 510.957843 
L 295.496417 511.342215 
L 310.80021 511.855948 
L 315.901475 511.937334 
L 321.00274 511.935989 
L 349.059695 512.303353 
L 361.812857 512.385842 
L 369.464753 512.090501 
L 377.11665 511.658527 
L 382.217915 511.565561 
L 387.31918 511.631318 
L 397.521709 511.968699 
L 433.230561 512.379729 
L 453.63562 512.095128 
L 509.74953 510.617992 
L 530.154589 509.961852 
L 537.806486 509.816445 
L 548.009015 510.019379 
L 568.414073 510.474901 
L 593.920397 510.010449 
L 604.122926 509.524466 
L 609.22419 509.383293 
L 621.977352 509.327836 
L 637.281146 508.990681 
L 644.933043 508.626281 
L 650.034307 508.091964 
L 660.236837 506.463839 
L 665.338101 505.657063 
L 670.439366 504.507438 
L 675.54063 503.391389 
L 683.192527 501.854605 
L 685.74316 501.211105 
L 688.293792 500.378423 
L 695.945689 497.51293 
L 701.046953 495.767398 
L 703.597586 494.885241 
L 706.148218 494.122908 
L 711.249483 493.274921 
L 716.350747 492.993022 
L 718.90138 492.947889 
L 726.553277 493.293253 
L 731.654541 493.650185 
L 739.306438 494.592521 
L 752.0596 496.724893 
L 759.711497 497.930987 
L 764.812761 498.586128 
L 785.21782 500.671249 
L 797.970981 501.464155 
L 805.622878 501.393596 
L 810.724143 501.288925 
L 826.027937 500.443661 
L 833.679833 500.205753 
L 843.882363 500.177082 
L 846.432995 500.331046 
L 851.53426 501.391243 
L 856.635524 502.691743 
L 859.186156 503.085323 
L 864.287421 503.589568 
L 879.591215 504.42207 
L 882.141847 504.463556 
L 887.243112 504.114342 
L 892.344376 503.502597 
L 897.445641 503.429112 
L 902.546906 503.870304 
L 910.198803 504.637227 
L 930.603861 505.793492 
L 951.00892 506.63052 
L 984.16714 507.611217 
L 1004.572198 507.471371 
L 1030.078521 507.202313 
L 1042.831683 507.058605 
L 1050.48358 506.783107 
L 1050.48358 506.783107 
" style="fill:none;stroke:#e24a33;stroke-linecap:square;stroke-width:1.5;"/>
   </g>
   <g id="line2d_32">
    <path clip-path="url(#p562a0713e1)" d="M 88.8952 114.622911 
L 91.445832 56.093241 
L 93.996464 195.766061 
L 96.547097 51.825374 
L 99.097729 61.65591 
L 104.198994 240.455043 
L 106.749626 361.66495 
L 109.300258 370.111274 
L 111.85089 273.160587 
L 114.401523 263.994252 
L 116.952155 228.496612 
L 119.502787 204.940226 
L 122.05342 286.252647 
L 124.604052 315.947531 
L 127.154684 342.10445 
L 129.705317 325.337835 
L 132.255949 318.214388 
L 134.806581 317.186418 
L 137.357214 325.809411 
L 139.907846 356.688721 
L 142.458478 370.807774 
L 145.00911 381.446156 
L 147.559743 371.36978 
L 152.661007 399.600331 
L 155.21164 415.195403 
L 157.762272 429.369276 
L 160.312904 444.958201 
L 162.863537 456.408643 
L 165.414169 454.539521 
L 167.964801 455.747719 
L 170.515434 456.538814 
L 173.066066 460.083272 
L 175.616698 469.550209 
L 178.16733 477.30316 
L 180.717963 483.457789 
L 183.268595 486.951257 
L 185.819227 485.410501 
L 188.36986 486.043538 
L 190.920492 488.801217 
L 193.471124 493.270953 
L 196.021757 498.447589 
L 198.572389 501.047295 
L 201.123021 501.279114 
L 203.673654 500.510114 
L 206.224286 498.911176 
L 208.774918 499.223742 
L 211.32555 500.773833 
L 213.876183 502.858509 
L 216.426815 504.613547 
L 218.977447 504.8778 
L 221.52808 504.393654 
L 224.078712 504.224224 
L 226.629344 504.872041 
L 229.179977 506.342685 
L 231.730609 507.627536 
L 234.281241 508.434435 
L 236.831874 508.737707 
L 239.382506 508.172773 
L 241.933138 508.398597 
L 244.48377 508.919699 
L 247.034403 509.705159 
L 249.585035 510.62207 
L 252.135667 510.635235 
L 259.787564 509.230228 
L 262.338197 509.505241 
L 264.888829 510.362614 
L 267.439461 510.627945 
L 269.990094 511.046009 
L 272.540726 510.820846 
L 275.091358 510.338705 
L 280.192623 510.825042 
L 282.743255 511.34739 
L 285.293887 511.700088 
L 295.496417 511.223578 
L 300.597681 511.931231 
L 303.148313 511.957837 
L 305.698946 512.192631 
L 308.249578 512.259912 
L 310.80021 511.885245 
L 313.350843 511.634257 
L 318.452107 511.719568 
L 323.553372 512.488741 
L 328.654637 512.26044 
L 331.205269 512.103085 
L 333.755901 512.138397 
L 341.407798 512.489995 
L 343.95843 512.285869 
L 349.059695 512.254578 
L 351.610327 512.313124 
L 354.16096 512.606432 
L 361.812857 512.249728 
L 364.363489 511.789955 
L 369.464753 511.346453 
L 372.015386 511.385895 
L 374.566018 511.603342 
L 384.768547 511.580209 
L 389.869812 512.130607 
L 392.420444 512.116758 
L 394.971077 512.290165 
L 400.072341 511.961662 
L 402.622973 512.02267 
L 410.27487 512.460971 
L 412.825503 512.481236 
L 417.926767 512.195998 
L 423.028032 512.320742 
L 425.578664 512.535095 
L 430.679929 512.544642 
L 438.331826 511.930166 
L 448.534355 512.362096 
L 451.084987 512.092128 
L 453.63562 511.676397 
L 456.186252 511.489641 
L 466.388781 511.986009 
L 471.490046 511.174365 
L 474.040678 510.947928 
L 479.141943 511.56259 
L 481.692575 511.562267 
L 484.243207 511.72068 
L 486.79384 511.151885 
L 489.344472 510.705498 
L 491.895104 510.544057 
L 494.445737 510.683115 
L 496.996369 511.119537 
L 499.547001 511.255267 
L 502.097633 511.192524 
L 507.198898 509.892502 
L 509.74953 509.598922 
L 512.300163 510.026945 
L 514.850795 510.644057 
L 519.95206 510.649935 
L 522.502692 509.936145 
L 525.053324 509.36866 
L 527.603957 508.965734 
L 530.154589 509.469493 
L 532.705221 510.143539 
L 535.255853 510.25724 
L 537.806486 510.574304 
L 542.90775 509.579721 
L 545.458383 509.470544 
L 550.559647 510.570763 
L 555.660912 510.955987 
L 558.211544 510.638543 
L 560.762177 510.126643 
L 563.312809 510.042709 
L 565.863441 510.220181 
L 568.414073 510.534834 
L 570.964706 510.520934 
L 573.515338 510.654695 
L 576.06597 510.125196 
L 578.616603 509.736435 
L 581.167235 509.67768 
L 583.717867 509.826302 
L 586.2685 510.411221 
L 588.819132 510.469903 
L 591.369764 510.328753 
L 593.920397 509.622848 
L 599.021661 508.58257 
L 601.572293 508.927038 
L 604.122926 509.671479 
L 606.673558 509.746695 
L 609.22419 510.063748 
L 611.774823 509.639387 
L 614.325455 508.976831 
L 616.876087 508.629355 
L 619.42672 508.849649 
L 621.977352 509.389189 
L 624.527984 509.449055 
L 627.078617 509.851845 
L 629.629249 509.293124 
L 632.179881 508.534205 
L 637.281146 508.098427 
L 639.831778 508.71053 
L 642.38241 508.763939 
L 644.933043 508.66482 
L 647.483675 507.809338 
L 650.034307 506.277772 
L 652.58494 505.309762 
L 655.135572 505.058362 
L 657.686204 505.922096 
L 660.236837 506.204725 
L 662.787469 506.107208 
L 665.338101 504.719518 
L 667.888733 502.547302 
L 670.439366 500.992857 
L 672.989998 500.966319 
L 675.54063 502.201791 
L 680.641895 502.931053 
L 683.192527 500.725855 
L 685.74316 498.042799 
L 688.293792 495.164084 
L 690.844424 494.099568 
L 693.395057 495.613511 
L 698.496321 496.491892 
L 701.046953 494.946288 
L 703.597586 491.867705 
L 706.148218 489.827751 
L 708.69885 490.792938 
L 711.249483 492.98423 
L 713.800115 494.686213 
L 716.350747 495.846027 
L 718.90138 494.630361 
L 721.452012 492.415367 
L 724.002644 490.781727 
L 726.553277 491.70885 
L 729.103909 494.034154 
L 731.654541 496.13481 
L 734.205173 497.836296 
L 736.755806 496.824511 
L 739.306438 494.827301 
L 741.85707 493.625797 
L 744.407703 494.408945 
L 746.958335 497.193571 
L 749.508967 499.454299 
L 752.0596 500.739826 
L 754.610232 499.872728 
L 757.160864 497.600824 
L 759.711497 496.246714 
L 762.262129 496.87722 
L 764.812761 499.311285 
L 767.363393 501.345869 
L 769.914026 502.301126 
L 772.464658 501.361215 
L 775.01529 499.51683 
L 777.565923 498.359743 
L 780.116555 499.220621 
L 782.667187 501.17644 
L 785.21782 502.762768 
L 787.768452 503.566532 
L 790.319084 502.570953 
L 792.869717 500.875886 
L 795.420349 499.603798 
L 797.970981 499.692706 
L 803.072246 502.660537 
L 805.622878 503.127209 
L 808.17351 502.451893 
L 810.724143 500.262252 
L 813.274775 498.533361 
L 815.825407 498.789517 
L 818.37604 499.882997 
L 820.926672 501.949779 
L 823.477304 502.183344 
L 826.027937 501.504376 
L 831.129201 497.779338 
L 833.679833 498.54346 
L 836.230466 499.851822 
L 838.781098 501.567184 
L 841.33173 502.391961 
L 846.432995 500.674721 
L 848.983627 501.276493 
L 851.53426 502.467685 
L 854.084892 504.633291 
L 856.635524 505.889214 
L 859.186156 505.147024 
L 861.736789 503.401125 
L 864.287421 502.312141 
L 866.838053 502.37008 
L 869.388686 503.547307 
L 871.939318 505.656912 
L 874.48995 506.655257 
L 877.040583 505.906753 
L 879.591215 504.50604 
L 882.141847 502.602541 
L 884.69248 501.522543 
L 887.243112 501.950352 
L 889.793744 503.194328 
L 892.344376 504.835623 
L 894.895009 505.276758 
L 897.445641 504.621639 
L 899.996273 503.834255 
L 902.546906 503.379174 
L 905.097538 503.863547 
L 907.64817 505.310096 
L 910.198803 506.175123 
L 912.749435 506.383514 
L 915.300067 505.88321 
L 917.8507 505.066022 
L 920.401332 504.68804 
L 922.951964 504.977638 
L 925.502596 506.006435 
L 928.053229 506.852448 
L 930.603861 507.080649 
L 933.154493 506.686614 
L 938.255758 505.721617 
L 940.80639 505.866145 
L 943.357023 506.719516 
L 945.907655 507.275224 
L 948.458287 507.450758 
L 951.00892 507.228037 
L 953.559552 506.710085 
L 956.110184 506.399794 
L 958.660816 506.471339 
L 963.762081 507.783639 
L 966.312713 507.938025 
L 968.863346 507.816861 
L 973.96461 507.10446 
L 976.515243 507.230887 
L 981.616507 508.010045 
L 984.16714 508.053258 
L 989.268404 507.451598 
L 991.819036 507.092468 
L 994.369669 507.077592 
L 999.470933 507.792315 
L 1002.021566 507.857414 
L 1007.12283 507.197805 
L 1009.673463 506.808613 
L 1012.224095 506.80936 
L 1017.32536 507.644542 
L 1019.875992 507.680553 
L 1022.426624 507.412034 
L 1027.527889 506.667123 
L 1030.078521 506.717766 
L 1035.179786 507.535351 
L 1037.730418 507.54944 
L 1042.831683 506.648806 
L 1045.382315 506.11653 
L 1047.932947 506.006981 
L 1050.48358 506.47884 
L 1050.48358 506.47884 
" style="fill:none;stroke:#e24a33;stroke-dasharray:1.5,2.475;stroke-dashoffset:0;stroke-width:1.5;"/>
   </g>
   <g id="line2d_33">
    <path clip-path="url(#p562a0713e1)" d="M 88.8952 262.560523 
L 91.445832 233.295996 
L 93.996464 270.098871 
L 96.547097 252.515745 
L 99.097729 210.419024 
L 101.648361 205.937762 
L 104.198994 213.839768 
L 106.749626 242.173277 
L 109.300258 280.318349 
L 111.85089 277.305072 
L 114.401523 288.30341 
L 116.952155 296.443252 
L 119.502787 275.209667 
L 122.05342 279.936454 
L 124.604052 263.631184 
L 127.154684 253.633011 
L 132.255949 271.172678 
L 134.806581 302.486961 
L 137.357214 342.055603 
L 139.907846 354.495765 
L 142.458478 363.634562 
L 145.00911 367.762308 
L 147.559743 371.239737 
L 150.110375 381.815825 
L 152.661007 397.732163 
L 155.21164 417.916347 
L 157.762272 433.409036 
L 165.414169 477.667454 
L 167.964801 490.413528 
L 170.515434 497.868669 
L 175.616698 502.780866 
L 178.16733 505.497624 
L 180.717963 508.817824 
L 183.268595 515.622085 
L 185.819227 520.866102 
L 188.36986 526.618133 
L 190.920492 533.119165 
L 193.471124 536.165608 
L 196.021757 541.10488 
L 198.572389 545.177473 
L 203.673654 549.370634 
L 206.224286 546.782107 
L 208.774918 541.45886 
L 211.32555 536.661661 
L 213.876183 531.335077 
L 216.426815 528.578859 
L 218.977447 526.807314 
L 221.52808 525.82971 
L 224.078712 528.650313 
L 226.629344 533.153964 
L 229.179977 538.404091 
L 231.730609 542.7731 
L 234.281241 544.666144 
L 236.831874 546.332978 
L 239.382506 546.282146 
L 241.933138 546.951118 
L 244.48377 548.943225 
L 247.034403 550.14049 
L 249.585035 552.805272 
L 252.135667 552.82381 
L 254.6863 549.494744 
L 257.236932 544.457228 
L 259.787564 531.544345 
L 262.338197 521.23204 
L 264.888829 518.088701 
L 267.439461 513.43326 
L 269.990094 513.246482 
L 272.540726 514.421414 
L 275.091358 514.216805 
L 277.64199 524.673659 
L 280.192623 531.317153 
L 282.743255 534.603155 
L 285.293887 538.879667 
L 290.395152 534.679786 
L 292.945784 534.753836 
L 295.496417 529.146151 
L 298.047049 531.032665 
L 300.597681 532.199033 
L 303.148313 529.31666 
L 305.698946 531.667955 
L 308.249578 534.936778 
L 310.80021 534.61313 
L 313.350843 535.819879 
L 315.901475 527.757485 
L 318.452107 512.909862 
L 321.00274 510.37723 
L 323.553372 511.188537 
L 326.104004 511.742207 
L 328.654637 519.02299 
L 331.205269 522.715965 
L 333.755901 523.316483 
L 336.306533 530.635911 
L 338.857166 529.747055 
L 341.407798 525.903374 
L 343.95843 519.820797 
L 346.509063 512.584707 
L 349.059695 510.222366 
L 351.610327 514.033495 
L 354.16096 522.221879 
L 356.711592 524.060426 
L 359.262224 522.608614 
L 361.812857 519.043593 
L 364.363489 499.022673 
L 366.914121 481.944911 
L 369.464753 459.11983 
L 372.015386 437.804815 
L 374.566018 430.695851 
L 377.11665 426.000485 
L 379.667283 430.358634 
L 382.217915 454.389916 
L 384.768547 474.42576 
L 387.31918 503.681477 
L 389.869812 524.615501 
L 392.420444 531.967138 
L 394.971077 540.112347 
L 397.521709 540.369286 
L 400.072341 534.225525 
L 402.622973 533.04376 
L 405.173606 528.80733 
L 407.724238 528.349144 
L 410.27487 530.700681 
L 415.376135 528.349082 
L 417.926767 526.502001 
L 420.4774 522.473766 
L 423.028032 520.598554 
L 425.578664 519.584137 
L 428.129297 518.037352 
L 430.679929 517.02143 
L 433.230561 514.996046 
L 435.781193 507.208587 
L 440.882458 490.229027 
L 443.43309 484.764431 
L 445.983723 483.456944 
L 448.534355 483.694373 
L 451.084987 484.2108 
L 453.63562 485.971316 
L 456.186252 484.37915 
L 458.736884 481.179143 
L 461.287517 477.466472 
L 463.838149 475.912687 
L 466.388781 475.182114 
L 468.939413 473.803069 
L 471.490046 476.582461 
L 474.040678 478.422063 
L 476.59131 483.043416 
L 479.141943 488.185307 
L 481.692575 488.951716 
L 484.243207 490.106109 
L 486.79384 489.393161 
L 489.344472 487.225661 
L 491.895104 489.059003 
L 494.445737 486.502956 
L 496.996369 486.054213 
L 499.547001 486.656112 
L 502.097633 484.744794 
L 504.648266 485.104927 
L 507.198898 483.431995 
L 509.74953 478.618113 
L 512.300163 480.373665 
L 514.850795 481.065628 
L 517.401427 481.551903 
L 519.95206 482.53981 
L 522.502692 482.651836 
L 525.053324 484.136401 
L 527.603957 486.765372 
L 530.154589 488.750214 
L 532.705221 489.505994 
L 535.255853 489.260468 
L 537.806486 491.104768 
L 540.357118 495.22562 
L 542.90775 501.406407 
L 545.458383 509.794102 
L 548.009015 514.597772 
L 550.559647 516.335204 
L 553.11028 518.586011 
L 555.660912 519.010671 
L 558.211544 519.638584 
L 560.762177 520.040412 
L 563.312809 519.136297 
L 565.863441 517.085678 
L 568.414073 513.32868 
L 573.515338 504.833041 
L 576.06597 500.052536 
L 578.616603 497.354547 
L 583.717867 497.22674 
L 586.2685 499.910756 
L 588.819132 501.633437 
L 591.369764 501.442799 
L 593.920397 500.790813 
L 596.471029 496.969704 
L 599.021661 489.147135 
L 601.572293 485.644205 
L 604.122926 483.936983 
L 606.673558 482.901905 
L 609.22419 485.721543 
L 611.774823 490.398236 
L 614.325455 496.10215 
L 616.876087 503.474589 
L 619.42672 505.448592 
L 621.977352 503.68864 
L 627.078617 501.490115 
L 629.629249 500.123132 
L 632.179881 499.467393 
L 634.730513 499.838717 
L 637.281146 496.846394 
L 639.831778 495.108618 
L 642.38241 493.731215 
L 644.933043 489.502035 
L 647.483675 486.002925 
L 650.034307 479.02521 
L 652.58494 468.581236 
L 655.135572 462.362897 
L 657.686204 457.735207 
L 660.236837 456.136962 
L 662.787469 456.435238 
L 665.338101 456.319208 
L 667.888733 457.351341 
L 670.439366 457.317732 
L 672.989998 458.092217 
L 675.54063 458.653085 
L 678.091263 458.525628 
L 680.641895 459.328937 
L 683.192527 459.247825 
L 685.74316 460.391984 
L 688.293792 460.366279 
L 690.844424 456.456815 
L 693.395057 453.127081 
L 695.945689 449.249222 
L 698.496321 446.583318 
L 701.046953 447.166181 
L 703.597586 449.82354 
L 706.148218 456.396677 
L 708.69885 466.978261 
L 711.249483 473.073158 
L 713.800115 478.601039 
L 716.350747 482.494882 
L 718.90138 485.226924 
L 721.452012 489.294957 
L 724.002644 492.63157 
L 726.553277 494.969087 
L 729.103909 496.787618 
L 731.654541 498.095054 
L 734.205173 499.726378 
L 741.85707 505.293986 
L 744.407703 505.99293 
L 746.958335 507.694934 
L 749.508967 509.884943 
L 754.610232 513.26463 
L 757.160864 513.392109 
L 762.262129 510.130511 
L 764.812761 509.055683 
L 772.464658 509.606924 
L 775.01529 509.71814 
L 777.565923 509.493468 
L 780.116555 510.290896 
L 782.667187 511.206788 
L 787.768452 511.848221 
L 790.319084 511.452488 
L 792.869717 510.789087 
L 795.420349 509.596601 
L 797.970981 506.552874 
L 800.521613 503.945015 
L 805.622878 500.050784 
L 808.17351 499.392739 
L 810.724143 498.045908 
L 813.274775 495.629266 
L 815.825407 494.683846 
L 818.37604 491.742734 
L 826.027937 490.82761 
L 828.578569 492.226436 
L 831.129201 492.573441 
L 836.230466 497.448099 
L 838.781098 497.891695 
L 841.33173 499.303257 
L 843.882363 499.829264 
L 846.432995 502.112577 
L 851.53426 520.37714 
L 854.084892 531.531384 
L 856.635524 539.281975 
L 859.186156 540.95239 
L 861.736789 538.698969 
L 864.287421 529.668869 
L 866.838053 515.590742 
L 869.388686 509.688669 
L 871.939318 509.435118 
L 874.48995 509.813513 
L 879.591215 511.202552 
L 882.141847 506.239795 
L 887.243112 481.810794 
L 889.793744 470.559537 
L 892.344376 465.489576 
L 894.895009 465.371364 
L 897.445641 469.234669 
L 899.996273 484.210371 
L 902.546906 506.315909 
L 905.097538 518.560663 
L 907.64817 526.027977 
L 910.198803 528.007798 
L 912.749435 528.642798 
L 915.300067 528.978701 
L 917.8507 526.287947 
L 920.401332 524.142837 
L 925.502596 520.481558 
L 928.053229 520.513417 
L 930.603861 520.878884 
L 933.154493 521.502046 
L 935.705126 523.530605 
L 938.255758 523.91143 
L 940.80639 522.999707 
L 943.357023 522.737678 
L 945.907655 521.660054 
L 948.458287 521.132271 
L 951.00892 521.317718 
L 953.559552 520.592864 
L 956.110184 521.073119 
L 958.660816 521.28617 
L 961.211449 520.388262 
L 963.762081 521.639851 
L 966.312713 522.723867 
L 968.863346 524.406616 
L 971.413978 527.195433 
L 973.96461 526.99927 
L 976.515243 527.252843 
L 979.065875 525.750317 
L 981.616507 523.806848 
L 984.16714 522.094632 
L 986.717772 518.160454 
L 989.268404 513.817417 
L 994.369669 503.789734 
L 996.920301 502.359032 
L 999.470933 500.343831 
L 1002.021566 499.010771 
L 1004.572198 498.495779 
L 1007.12283 497.556157 
L 1009.673463 497.653134 
L 1012.224095 497.572305 
L 1014.774727 497.847343 
L 1017.32536 498.619937 
L 1019.875992 499.013724 
L 1022.426624 499.620232 
L 1027.527889 500.423683 
L 1030.078521 502.14897 
L 1032.629153 502.742506 
L 1035.179786 503.176641 
L 1037.730418 503.175091 
L 1040.28105 501.762372 
L 1042.831683 499.104724 
L 1045.382315 493.600285 
L 1047.932947 486.389696 
L 1050.48358 482.453151 
L 1050.48358 482.453151 
" style="fill:none;stroke:#348abd;stroke-linecap:square;stroke-width:1.5;"/>
   </g>
   <g id="line2d_34">
    <path clip-path="url(#p562a0713e1)" d="M 88.8952 262.560523 
L 91.445832 204.031469 
L 93.996464 343.704621 
L 96.547097 199.766369 
L 99.097729 42.032138 
L 101.648361 183.531454 
L 104.198994 261.251804 
L 106.749626 460.895087 
L 109.300258 471.04697 
L 111.85089 322.611681 
L 114.401523 276.754735 
L 116.952155 99.011031 
L 119.502787 34.896364 
L 122.05342 294.339311 
L 127.154684 401.059762 
L 129.705317 383.068176 
L 132.255949 339.075905 
L 134.806581 318.211014 
L 137.357214 311.876858 
L 139.907846 381.420446 
L 142.458478 410.729777 
L 145.00911 429.953981 
L 147.559743 407.410175 
L 150.110375 413.108523 
L 152.661007 429.625382 
L 155.21164 453.166149 
L 157.762272 489.869263 
L 160.312904 513.70528 
L 162.863537 530.297585 
L 165.414169 513.899999 
L 167.964801 502.331038 
L 170.515434 481.81137 
L 173.066066 469.953003 
L 175.616698 507.467787 
L 178.16733 532.722584 
L 180.717963 553.538985 
L 183.268595 561.52983 
L 185.819227 539.039156 
L 188.36986 522.075588 
L 190.920492 515.460222 
L 193.471124 528.792891 
L 196.021757 567.297487 
L 198.572389 582.047138 
L 201.123021 576.202954 
L 203.673654 553.71816 
L 206.224286 503.955899 
L 208.774918 478.197493 
L 211.32555 495.212494 
L 213.876183 530.011403 
L 216.426815 562.753613 
L 218.977447 563.802138 
L 221.52808 546.87493 
L 224.078712 523.700117 
L 226.629344 509.72305 
L 229.179977 531.963387 
L 231.730609 560.594467 
L 234.281241 576.004916 
L 236.831874 575.469982 
L 239.382506 546.5191 
L 241.933138 528.382923 
L 244.48377 523.6678 
L 247.034403 540.344243 
L 249.585035 579.247939 
L 252.135667 576.134685 
L 254.6863 552.166517 
L 257.236932 511.256486 
L 259.787564 437.992747 
L 262.338197 451.481666 
L 264.888829 518.340869 
L 269.990094 574.827243 
L 272.540726 560.391041 
L 275.091358 509.824223 
L 277.64199 511.190725 
L 280.192623 497.98612 
L 282.743255 541.342884 
L 285.293887 576.595431 
L 287.84452 560.41117 
L 290.395152 545.407948 
L 292.945784 510.342573 
L 295.496417 471.936934 
L 300.597681 549.507462 
L 303.148313 556.418816 
L 305.698946 576.87024 
L 308.249578 568.289708 
L 310.80021 508.077036 
L 313.350843 480.384173 
L 315.901475 454.754963 
L 318.452107 445.574096 
L 321.00274 538.690396 
L 323.553372 582.549387 
L 326.104004 572.165397 
L 328.654637 559.042517 
L 331.205269 506.234998 
L 333.755901 458.958587 
L 336.306533 496.810097 
L 338.857166 532.468405 
L 341.407798 555.643618 
L 343.95843 529.587355 
L 346.509063 508.389887 
L 349.059695 489.698611 
L 351.610327 485.63649 
L 354.16096 554.128785 
L 356.711592 545.338232 
L 359.262224 545.480941 
L 361.812857 504.632203 
L 364.363489 368.243447 
L 366.914121 370.154282 
L 369.464753 325.860918 
L 372.015386 404.923683 
L 374.566018 495.575488 
L 377.11665 512.613375 
L 379.667283 535.139243 
L 382.217915 536.462426 
L 384.768547 510.405188 
L 389.869812 551.461851 
L 392.420444 547.036944 
L 394.971077 569.629836 
L 397.521709 536.937819 
L 400.072341 493.456097 
L 402.622973 502.132833 
L 405.173606 500.995928 
L 407.724238 548.254554 
L 410.27487 563.497702 
L 412.825503 561.44779 
L 415.376135 528.658673 
L 417.926767 480.526529 
L 420.4774 473.935183 
L 423.028032 487.869444 
L 425.578664 541.153635 
L 428.129297 552.670206 
L 430.679929 554.336341 
L 433.230561 514.480984 
L 435.781193 426.014316 
L 438.331826 414.901758 
L 440.882458 428.045949 
L 443.43309 502.90146 
L 445.983723 543.517799 
L 448.534355 555.998346 
L 451.084987 518.095969 
L 453.63562 438.337932 
L 456.186252 403.756591 
L 458.736884 405.645902 
L 461.287517 476.912765 
L 463.838149 532.641305 
L 466.388781 550.88433 
L 468.939413 508.442655 
L 471.490046 457.793679 
L 474.040678 416.633808 
L 476.59131 437.995372 
L 479.141943 512.906001 
L 481.692575 538.006169 
L 484.243207 558.965079 
L 486.79384 503.452016 
L 489.344472 442.621184 
L 491.895104 429.467203 
L 494.445737 420.103044 
L 496.996369 509.764798 
L 499.547001 542.219463 
L 502.097633 545.58585 
L 504.648266 505.972945 
L 507.198898 430.910659 
L 509.74953 395.77003 
L 512.300163 432.391908 
L 514.850795 514.608543 
L 517.401427 545.623386 
L 519.95206 552.501201 
L 522.502692 506.757123 
L 525.053324 441.302618 
L 527.603957 414.172826 
L 530.154589 446.285804 
L 532.705221 519.899001 
L 535.255853 543.9047 
L 537.806486 565.411307 
L 540.357118 535.603087 
L 542.90775 484.568123 
L 545.458383 472.886694 
L 548.009015 479.911492 
L 550.559647 532.061025 
L 553.11028 559.66035 
L 555.660912 568.383924 
L 558.211544 539.998483 
L 560.762177 487.380914 
L 563.312809 466.557895 
L 565.863441 465.557153 
L 568.414073 505.762041 
L 570.964706 529.560938 
L 573.515338 539.013866 
L 576.06597 506.534944 
L 578.616603 468.494995 
L 581.167235 466.25268 
L 583.717867 464.967714 
L 586.2685 524.550155 
L 588.819132 541.619705 
L 591.369764 537.679397 
L 593.920397 501.971046 
L 596.471029 441.74723 
L 599.021661 411.4947 
L 601.572293 440.447199 
L 604.122926 512.599605 
L 606.673558 534.374156 
L 609.22419 557.416864 
L 611.774823 534.707901 
L 614.325455 481.674624 
L 616.876087 463.101777 
L 619.42672 454.265218 
L 621.977352 500.279939 
L 624.527984 526.679596 
L 627.078617 549.721751 
L 629.629249 525.139016 
L 632.179881 477.084456 
L 634.730513 465.701042 
L 637.281146 433.318955 
L 639.831778 488.115509 
L 642.38241 517.037776 
L 644.933043 520.117493 
L 647.483675 500.645245 
L 650.034307 428.24045 
L 652.58494 392.593223 
L 655.135572 389.790584 
L 657.686204 455.721676 
L 660.236837 505.850064 
L 662.787469 522.205424 
L 665.338101 499.833035 
L 667.888733 435.465382 
L 670.439366 392.357961 
L 672.989998 395.211977 
L 675.54063 459.64775 
L 678.091263 504.957867 
L 680.641895 527.828589 
L 683.192527 499.265251 
L 685.74316 443.474491 
L 688.293792 392.178029 
L 690.844424 367.845727 
L 693.395057 436.339616 
L 695.945689 477.812854 
L 698.496321 509.16726 
L 701.046953 503.345292 
L 703.597586 462.076 
L 706.148218 438.189994 
L 708.69885 441.916813 
L 713.800115 516.508019 
L 716.350747 536.424161 
L 718.90138 522.469591 
L 721.452012 490.552231 
L 724.002644 461.54628 
L 726.553277 458.279432 
L 731.654541 525.660075 
L 734.205173 547.843427 
L 736.755806 535.464827 
L 739.306438 503.931311 
L 741.85707 474.145219 
L 744.407703 463.172044 
L 746.958335 503.647632 
L 749.508967 540.990138 
L 752.0596 559.350138 
L 754.610232 547.615927 
L 759.711497 463.132347 
L 762.262129 451.353735 
L 767.363393 542.351828 
L 769.914026 561.487402 
L 772.464658 547.97566 
L 777.565923 461.559644 
L 780.116555 456.935732 
L 782.667187 502.535076 
L 785.21782 544.757813 
L 787.768452 563.571444 
L 790.319084 545.205534 
L 792.869717 500.958363 
L 795.420349 453.212243 
L 797.970981 435.629642 
L 803.072246 531.009696 
L 805.622878 550.059942 
L 808.17351 540.599215 
L 810.724143 491.530549 
L 813.274775 436.295748 
L 815.825407 429.011705 
L 818.37604 463.692283 
L 820.926672 528.81557 
L 823.477304 548.43078 
L 826.027937 538.016634 
L 828.578569 501.322334 
L 831.129201 438.724783 
L 833.679833 446.028983 
L 836.230466 480.797611 
L 838.781098 531.92074 
L 841.33173 558.311716 
L 843.882363 541.698681 
L 846.432995 517.305527 
L 848.983627 502.820798 
L 851.53426 509.784909 
L 854.084892 558.877321 
L 856.635524 586.174872 
L 859.186156 570.004619 
L 861.736789 525.924735 
L 864.287421 454.094828 
L 866.838053 404.273911 
L 869.388686 468.470394 
L 871.939318 557.102469 
L 874.48995 588.823636 
L 877.040583 574.709046 
L 879.591215 530.943578 
L 882.141847 419.355531 
L 884.69248 317.329157 
L 887.243112 384.41214 
L 889.793744 478.343671 
L 892.344376 553.333907 
L 894.895009 573.881563 
L 897.445641 557.986718 
L 899.996273 524.185439 
L 902.546906 472.067924 
L 905.097538 470.12542 
L 907.64817 530.61487 
L 910.198803 567.192653 
L 912.749435 578.326562 
L 915.300067 560.33804 
L 917.8507 505.350158 
L 920.401332 457.052159 
L 922.951964 456.979504 
L 925.502596 518.131834 
L 928.053229 567.415661 
L 930.603861 580.884834 
L 933.154493 564.70017 
L 935.705126 519.550073 
L 938.255758 459.717932 
L 940.80639 450.597444 
L 943.357023 516.297631 
L 945.907655 559.872294 
L 948.458287 577.190355 
L 951.00892 565.998299 
L 956.110184 463.079719 
L 958.660816 452.088799 
L 963.762081 568.633422 
L 966.312713 584.778464 
L 968.863346 577.777541 
L 971.413978 533.997812 
L 973.96461 461.706577 
L 976.515243 453.863813 
L 979.065875 499.494588 
L 981.616507 555.02914 
L 984.16714 572.792957 
L 986.717772 550.238293 
L 989.268404 503.596551 
L 991.819036 427.352329 
L 994.369669 418.024278 
L 996.920301 489.479675 
L 999.470933 540.922734 
L 1002.021566 563.461535 
L 1004.572198 546.633348 
L 1007.12283 497.019202 
L 1009.673463 428.031165 
L 1012.224095 417.458478 
L 1014.774727 491.404938 
L 1017.32536 546.330892 
L 1019.875992 566.218048 
L 1022.426624 550.878901 
L 1024.977256 499.7338 
L 1027.527889 430.940724 
L 1030.078521 429.53549 
L 1032.629153 495.559687 
L 1035.179786 549.369838 
L 1037.730418 566.207195 
L 1040.28105 540.989872 
L 1042.831683 481.130262 
L 1045.382315 392.409649 
L 1047.932947 379.061371 
L 1050.48358 468.003872 
L 1050.48358 468.003872 
" style="fill:none;stroke:#348abd;stroke-dasharray:1.5,2.475;stroke-dashoffset:0;stroke-width:1.5;"/>
   </g>
   <g id="line2d_35">
    <path clip-path="url(#p562a0713e1)" d="M 30.103125 513.773155 
L 1099.073125 513.773155 
" style="fill:none;stroke:#008000;stroke-linecap:square;stroke-opacity:0.5;stroke-width:1.5;"/>
   </g>
   <g id="patch_3">
    <path d="M 30.103125 616.52 
L 30.103125 7.2 
" style="fill:none;stroke:#ffffff;stroke-linecap:square;stroke-linejoin:miter;"/>
   </g>
   <g id="patch_4">
    <path d="M 1099.073125 616.52 
L 1099.073125 7.2 
" style="fill:none;stroke:#ffffff;stroke-linecap:square;stroke-linejoin:miter;"/>
   </g>
   <g id="patch_5">
    <path d="M 30.103125 616.52 
L 1099.073125 616.52 
" style="fill:none;stroke:#ffffff;stroke-linecap:square;stroke-linejoin:miter;"/>
   </g>
   <g id="patch_6">
    <path d="M 30.103125 7.2 
L 1099.073125 7.2 
" style="fill:none;stroke:#ffffff;stroke-linecap:square;stroke-linejoin:miter;"/>
   </g>
  </g>
  <g id="axes_2">
   <g id="matplotlib.axis_3">
    <g id="ytick_9">
     <g id="line2d_36">
      <path clip-path="url(#p562a0713e1)" d="M 30.103125 589.00409 
L 1099.073125 589.00409 
" style="fill:none;stroke:#ffffff;stroke-linecap:square;stroke-width:0.8;"/>
     </g>
     <g id="line2d_37">
      <defs>
       <path d="M 0 0 
L 3.5 0 
" id="md1647be150" style="stroke:#555555;stroke-width:0.8;"/>
      </defs>
      <g>
       <use style="fill:#555555;stroke:#555555;stroke-width:0.8;" x="1099.073125" xlink:href="#md1647be150" y="589.00409"/>
      </g>
     </g>
     <g id="text_16">
      <!-- 0 -->
      <g style="fill:#555555;" transform="translate(1106.073125 592.803309)scale(0.1 -0.1)">
       <use xlink:href="#DejaVuSans-48"/>
      </g>
     </g>
    </g>
    <g id="ytick_10">
     <g id="line2d_38">
      <path clip-path="url(#p562a0713e1)" d="M 30.103125 506.979676 
L 1099.073125 506.979676 
" style="fill:none;stroke:#ffffff;stroke-linecap:square;stroke-width:0.8;"/>
     </g>
     <g id="line2d_39">
      <g>
       <use style="fill:#555555;stroke:#555555;stroke-width:0.8;" x="1099.073125" xlink:href="#md1647be150" y="506.979676"/>
      </g>
     </g>
     <g id="text_17">
      <!-- 5000 -->
      <g style="fill:#555555;" transform="translate(1106.073125 510.778895)scale(0.1 -0.1)">
       <use xlink:href="#DejaVuSans-53"/>
       <use x="63.623047" xlink:href="#DejaVuSans-48"/>
       <use x="127.246094" xlink:href="#DejaVuSans-48"/>
       <use x="190.869141" xlink:href="#DejaVuSans-48"/>
      </g>
     </g>
    </g>
    <g id="ytick_11">
     <g id="line2d_40">
      <path clip-path="url(#p562a0713e1)" d="M 30.103125 424.955262 
L 1099.073125 424.955262 
" style="fill:none;stroke:#ffffff;stroke-linecap:square;stroke-width:0.8;"/>
     </g>
     <g id="line2d_41">
      <g>
       <use style="fill:#555555;stroke:#555555;stroke-width:0.8;" x="1099.073125" xlink:href="#md1647be150" y="424.955262"/>
      </g>
     </g>
     <g id="text_18">
      <!-- 10000 -->
      <g style="fill:#555555;" transform="translate(1106.073125 428.754481)scale(0.1 -0.1)">
       <use xlink:href="#DejaVuSans-49"/>
       <use x="63.623047" xlink:href="#DejaVuSans-48"/>
       <use x="127.246094" xlink:href="#DejaVuSans-48"/>
       <use x="190.869141" xlink:href="#DejaVuSans-48"/>
       <use x="254.492188" xlink:href="#DejaVuSans-48"/>
      </g>
     </g>
    </g>
    <g id="ytick_12">
     <g id="line2d_42">
      <path clip-path="url(#p562a0713e1)" d="M 30.103125 342.930848 
L 1099.073125 342.930848 
" style="fill:none;stroke:#ffffff;stroke-linecap:square;stroke-width:0.8;"/>
     </g>
     <g id="line2d_43">
      <g>
       <use style="fill:#555555;stroke:#555555;stroke-width:0.8;" x="1099.073125" xlink:href="#md1647be150" y="342.930848"/>
      </g>
     </g>
     <g id="text_19">
      <!-- 15000 -->
      <g style="fill:#555555;" transform="translate(1106.073125 346.730067)scale(0.1 -0.1)">
       <use xlink:href="#DejaVuSans-49"/>
       <use x="63.623047" xlink:href="#DejaVuSans-53"/>
       <use x="127.246094" xlink:href="#DejaVuSans-48"/>
       <use x="190.869141" xlink:href="#DejaVuSans-48"/>
       <use x="254.492188" xlink:href="#DejaVuSans-48"/>
      </g>
     </g>
    </g>
    <g id="ytick_13">
     <g id="line2d_44">
      <path clip-path="url(#p562a0713e1)" d="M 30.103125 260.906434 
L 1099.073125 260.906434 
" style="fill:none;stroke:#ffffff;stroke-linecap:square;stroke-width:0.8;"/>
     </g>
     <g id="line2d_45">
      <g>
       <use style="fill:#555555;stroke:#555555;stroke-width:0.8;" x="1099.073125" xlink:href="#md1647be150" y="260.906434"/>
      </g>
     </g>
     <g id="text_20">
      <!-- 20000 -->
      <g style="fill:#555555;" transform="translate(1106.073125 264.705653)scale(0.1 -0.1)">
       <use xlink:href="#DejaVuSans-50"/>
       <use x="63.623047" xlink:href="#DejaVuSans-48"/>
       <use x="127.246094" xlink:href="#DejaVuSans-48"/>
       <use x="190.869141" xlink:href="#DejaVuSans-48"/>
       <use x="254.492188" xlink:href="#DejaVuSans-48"/>
      </g>
     </g>
    </g>
    <g id="ytick_14">
     <g id="line2d_46">
      <path clip-path="url(#p562a0713e1)" d="M 30.103125 178.88202 
L 1099.073125 178.88202 
" style="fill:none;stroke:#ffffff;stroke-linecap:square;stroke-width:0.8;"/>
     </g>
     <g id="line2d_47">
      <g>
       <use style="fill:#555555;stroke:#555555;stroke-width:0.8;" x="1099.073125" xlink:href="#md1647be150" y="178.88202"/>
      </g>
     </g>
     <g id="text_21">
      <!-- 25000 -->
      <g style="fill:#555555;" transform="translate(1106.073125 182.681239)scale(0.1 -0.1)">
       <use xlink:href="#DejaVuSans-50"/>
       <use x="63.623047" xlink:href="#DejaVuSans-53"/>
       <use x="127.246094" xlink:href="#DejaVuSans-48"/>
       <use x="190.869141" xlink:href="#DejaVuSans-48"/>
       <use x="254.492188" xlink:href="#DejaVuSans-48"/>
      </g>
     </g>
    </g>
    <g id="ytick_15">
     <g id="line2d_48">
      <path clip-path="url(#p562a0713e1)" d="M 30.103125 96.857606 
L 1099.073125 96.857606 
" style="fill:none;stroke:#ffffff;stroke-linecap:square;stroke-width:0.8;"/>
     </g>
     <g id="line2d_49">
      <g>
       <use style="fill:#555555;stroke:#555555;stroke-width:0.8;" x="1099.073125" xlink:href="#md1647be150" y="96.857606"/>
      </g>
     </g>
     <g id="text_22">
      <!-- 30000 -->
      <g style="fill:#555555;" transform="translate(1106.073125 100.656825)scale(0.1 -0.1)">
       <use xlink:href="#DejaVuSans-51"/>
       <use x="63.623047" xlink:href="#DejaVuSans-48"/>
       <use x="127.246094" xlink:href="#DejaVuSans-48"/>
       <use x="190.869141" xlink:href="#DejaVuSans-48"/>
       <use x="254.492188" xlink:href="#DejaVuSans-48"/>
      </g>
     </g>
    </g>
    <g id="ytick_16">
     <g id="line2d_50">
      <path clip-path="url(#p562a0713e1)" d="M 30.103125 14.833192 
L 1099.073125 14.833192 
" style="fill:none;stroke:#ffffff;stroke-linecap:square;stroke-width:0.8;"/>
     </g>
     <g id="line2d_51">
      <g>
       <use style="fill:#555555;stroke:#555555;stroke-width:0.8;" x="1099.073125" xlink:href="#md1647be150" y="14.833192"/>
      </g>
     </g>
     <g id="text_23">
      <!-- 35000 -->
      <g style="fill:#555555;" transform="translate(1106.073125 18.632411)scale(0.1 -0.1)">
       <use xlink:href="#DejaVuSans-51"/>
       <use x="63.623047" xlink:href="#DejaVuSans-53"/>
       <use x="127.246094" xlink:href="#DejaVuSans-48"/>
       <use x="190.869141" xlink:href="#DejaVuSans-48"/>
       <use x="254.492188" xlink:href="#DejaVuSans-48"/>
      </g>
     </g>
    </g>
   </g>
   <g id="line2d_52">
    <path clip-path="url(#p562a0713e1)" d="M 78.69267 588.134631 
L 81.243303 588.479134 
L 83.793935 588.309617 
L 88.8952 588.361019 
L 91.445832 588.287744 
L 93.996464 588.066668 
L 99.097729 587.290952 
L 101.648361 587.187835 
L 104.198994 586.698032 
L 106.749626 586.42618 
L 109.300258 585.945751 
L 111.85089 584.389631 
L 114.401523 583.325657 
L 116.952155 581.973426 
L 124.604052 575.27086 
L 127.154684 573.463979 
L 129.705317 568.779213 
L 132.255949 563.471062 
L 134.806581 558.849572 
L 137.357214 556.728655 
L 139.907846 549.960469 
L 142.458478 541.476801 
L 145.00911 534.268027 
L 147.559743 529.222354 
L 150.110375 522.608842 
L 152.661007 514.197824 
L 155.21164 509.470875 
L 157.762272 507.856166 
L 160.312904 508.205355 
L 162.863537 505.07671 
L 165.414169 502.259757 
L 167.964801 501.336396 
L 170.515434 501.83323 
L 173.066066 497.214084 
L 175.616698 499.731061 
L 178.16733 501.561378 
L 180.717963 504.959532 
L 183.268595 507.729614 
L 185.819227 509.723979 
L 188.36986 514.291567 
L 190.920492 521.59174 
L 193.471124 524.263392 
L 196.021757 528.3693 
L 198.572389 531.924472 
L 201.123021 536.864685 
L 203.673654 541.418212 
L 206.224286 542.646235 
L 208.774918 543.496945 
L 211.32555 545.282734 
L 216.426815 546.562315 
L 218.977447 547.766902 
L 221.52808 550.211229 
L 224.078712 553.853113 
L 231.730609 558.819106 
L 236.831874 563.053909 
L 239.382506 564.68971 
L 241.933138 567.291056 
L 244.48377 569.503372 
L 247.034403 570.297837 
L 249.585035 571.373528 
L 252.135667 572.210177 
L 254.6863 572.664827 
L 257.236932 573.672555 
L 259.787564 572.955428 
L 262.338197 573.250715 
L 264.888829 574.00534 
L 267.439461 573.424139 
L 269.990094 573.773328 
L 272.540726 574.595916 
L 275.091358 575.289608 
L 277.64199 576.768391 
L 280.192623 576.96525 
L 282.743255 577.000403 
L 285.293887 577.984696 
L 287.84452 577.987039 
L 290.395152 578.427628 
L 292.945784 579.489258 
L 295.496417 579.447074 
L 298.047049 579.803294 
L 303.148313 580.117331 
L 308.249578 582.05545 
L 310.80021 581.396912 
L 313.350843 581.162556 
L 315.901475 581.502372 
L 318.452107 581.399255 
L 321.00274 581.912494 
L 323.553372 581.959365 
L 326.104004 581.863279 
L 328.654637 582.411671 
L 331.205269 583.187387 
L 333.755901 583.152234 
L 336.306533 583.431117 
L 338.857166 583.11005 
L 341.407798 583.166295 
L 343.95843 582.788983 
L 346.509063 583.372528 
L 354.16096 583.688908 
L 361.812857 583.501424 
L 364.363489 582.301524 
L 366.914121 581.708604 
L 369.464753 580.67744 
L 372.015386 579.868914 
L 374.566018 579.57597 
L 377.11665 579.008829 
L 379.667283 578.891652 
L 382.217915 579.578313 
L 384.768547 579.376767 
L 387.31918 580.386839 
L 389.869812 581.031317 
L 392.420444 581.043035 
L 397.521709 581.624236 
L 400.072341 581.696887 
L 402.622973 582.317929 
L 407.724238 582.458542 
L 412.825503 582.873351 
L 420.4774 583.238946 
L 423.028032 583.217854 
L 425.578664 583.358467 
L 428.129297 583.306909 
L 430.679929 583.414712 
L 433.230561 583.199105 
L 438.331826 582.40464 
L 440.882458 582.512444 
L 451.084987 581.720322 
L 456.186252 580.586042 
L 463.838149 579.871257 
L 466.388781 579.33224 
L 468.939413 578.551836 
L 471.490046 578.422941 
L 474.040678 578.015162 
L 476.59131 578.167493 
L 479.141943 577.771432 
L 481.692575 577.194918 
L 484.243207 577.061335 
L 486.79384 576.726207 
L 489.344472 576.077042 
L 491.895104 575.685669 
L 494.445737 574.947449 
L 496.996369 575.118529 
L 499.547001 574.914639 
L 502.097633 573.778015 
L 504.648266 572.840593 
L 509.74953 571.446178 
L 512.300163 571.28213 
L 514.850795 570.989185 
L 517.401427 569.995518 
L 522.502692 568.715937 
L 525.053324 568.767495 
L 527.603957 567.316835 
L 532.705221 566.597364 
L 535.255853 566.859842 
L 537.806486 566.705167 
L 540.357118 567.173878 
L 542.90775 566.836406 
L 545.458383 568.137079 
L 548.009015 568.130048 
L 553.11028 568.507361 
L 555.660912 569.257298 
L 558.211544 569.716635 
L 563.312809 570.229873 
L 568.414073 569.276047 
L 570.964706 568.617508 
L 573.515338 568.804992 
L 576.06597 567.443387 
L 578.616603 567.370737 
L 581.167235 566.780161 
L 583.717867 566.873903 
L 586.2685 566.609081 
L 588.819132 566.824689 
L 591.369764 565.125611 
L 593.920397 564.417858 
L 596.471029 563.405442 
L 599.021661 561.842291 
L 601.572293 560.9119 
L 604.122926 560.923618 
L 606.673558 559.953386 
L 609.22419 560.262735 
L 611.774823 560.382257 
L 616.876087 559.334688 
L 619.42672 559.182357 
L 624.527984 557.921524 
L 627.078617 557.853561 
L 629.629249 557.009881 
L 632.179881 555.791233 
L 634.730513 555.659994 
L 637.281146 553.623445 
L 639.831778 553.17817 
L 642.38241 551.889215 
L 644.933043 549.475353 
L 647.483675 545.831126 
L 650.034307 541.511954 
L 652.58494 536.454563 
L 655.135572 533.632924 
L 657.686204 531.090167 
L 660.236837 527.614675 
L 662.787469 522.215125 
L 665.338101 516.168754 
L 667.888733 509.564617 
L 670.439366 502.278505 
L 672.989998 497.347666 
L 675.54063 492.993342 
L 678.091263 486.557941 
L 680.641895 480.785765 
L 683.192527 469.89058 
L 685.74316 460.731968 
L 688.293792 444.598937 
L 690.844424 431.50081 
L 695.945689 410.64083 
L 698.496321 393.371176 
L 701.046953 380.512091 
L 703.597586 363.078388 
L 706.148218 352.895643 
L 708.69885 345.862635 
L 711.249483 337.866426 
L 713.800115 328.62579 
L 716.350747 323.352792 
L 718.90138 315.81592 
L 721.452012 309.195378 
L 724.002644 299.024351 
L 726.553277 294.71221 
L 729.103909 291.74527 
L 731.654541 291.792141 
L 734.205173 288.808796 
L 736.755806 284.412288 
L 739.306438 279.64081 
L 741.85707 281.839064 
L 744.407703 279.659559 
L 746.958335 285.609844 
L 752.0596 289.919641 
L 754.610232 288.17838 
L 757.160864 287.929963 
L 759.711497 286.751155 
L 762.262129 289.577482 
L 764.812761 289.48374 
L 767.363393 291.510915 
L 769.914026 288.998624 
L 772.464658 289.797776 
L 775.01529 291.771049 
L 777.565923 294.74502 
L 780.116555 297.393237 
L 782.667187 296.678453 
L 785.21782 296.561275 
L 787.768452 299.75554 
L 790.319084 300.275809 
L 792.869717 298.768904 
L 795.420349 294.965314 
L 797.970981 287.569056 
L 800.521613 284.843502 
L 803.072246 283.788902 
L 805.622878 275.481001 
L 808.17351 271.653976 
L 810.724143 256.594293 
L 813.274775 244.595293 
L 815.825407 238.893425 
L 818.37604 229.448899 
L 820.926672 228.563036 
L 823.477304 212.362042 
L 826.027937 204.759551 
L 828.578569 195.615 
L 831.129201 188.907747 
L 833.679833 182.882468 
L 836.230466 182.223929 
L 838.781098 170.281174 
L 841.33173 177.283716 
L 843.882363 164.928495 
L 846.432995 184.24876 
L 848.983627 223.725939 
L 851.53426 244.855428 
L 854.084892 258.136352 
L 856.635524 273.688181 
L 859.186156 279.03383 
L 861.736789 278.19718 
L 864.287421 284.311515 
L 866.838053 288.447889 
L 869.388686 296.509717 
L 871.939318 299.15559 
L 874.48995 301.487427 
L 877.040583 304.351251 
L 879.591215 318.789891 
L 882.141847 297.873666 
L 884.69248 269.741635 
L 887.243112 254.154653 
L 889.793744 247.991104 
L 892.344376 245.870187 
L 894.895009 249.706586 
L 897.445641 252.582128 
L 899.996273 274.80137 
L 902.546906 288.900195 
L 905.097538 296.127717 
L 907.64817 308.632925 
L 910.198803 311.991239 
L 912.749435 320.488968 
L 915.300067 331.65835 
L 917.8507 342.218407 
L 920.401332 347.517185 
L 922.951964 351.325461 
L 925.502596 352.291005 
L 928.053229 363.908006 
L 933.154493 377.081127 
L 935.705126 386.080377 
L 938.255758 395.679577 
L 943.357023 400.802587 
L 945.907655 401.500967 
L 951.00892 417.519163 
L 953.559552 420.129883 
L 956.110184 424.432649 
L 958.660816 430.469646 
L 961.211449 432.98428 
L 963.762081 439.393902 
L 966.312713 443.220927 
L 968.863346 452.534214 
L 971.413978 459.677368 
L 973.96461 464.671483 
L 976.515243 470.535057 
L 979.065875 470.790505 
L 981.616507 469.672629 
L 984.16714 470.881903 
L 986.717772 470.95221 
L 989.268404 472.702845 
L 991.819036 470.804566 
L 994.369669 467.143934 
L 996.920301 467.277516 
L 999.470933 467.21424 
L 1002.021566 466.157297 
L 1004.572198 462.262309 
L 1007.12283 460.190607 
L 1009.673463 458.789161 
L 1012.224095 458.28764 
L 1014.774727 457.43693 
L 1017.32536 457.296317 
L 1019.875992 454.924639 
L 1022.426624 454.823867 
L 1024.977256 453.457574 
L 1027.527889 453.938003 
L 1030.078521 453.438826 
L 1035.179786 452.060816 
L 1037.730418 451.763184 
L 1040.28105 446.035536 
L 1042.831683 440.753164 
L 1045.382315 433.448304 
L 1047.932947 427.151173 
L 1050.48358 423.41789 
L 1050.48358 423.41789 
" style="fill:none;stroke:#000000;stroke-linecap:square;stroke-width:1.5;"/>
   </g>
   <g id="line2d_53">
    <path clip-path="url(#p562a0713e1)" d="M 78.69267 588.134631 
L 81.243303 588.823636 
L 83.793935 587.970582 
L 86.344567 588.544753 
L 88.8952 588.33149 
L 91.445832 587.921368 
L 93.996464 586.740216 
L 96.547097 585.083323 
L 99.097729 586.444928 
L 101.648361 587.248768 
L 104.198994 585.116133 
L 106.749626 586.428523 
L 109.300258 584.558367 
L 111.85089 575.847374 
L 114.401523 577.635506 
L 116.952155 576.979311 
L 119.502787 571.893797 
L 122.05342 569.744758 
L 124.604052 570.236904 
L 127.154684 571.910202 
L 129.705317 543.054013 
L 132.255949 540.478447 
L 134.806581 544.628882 
L 137.357214 557.047378 
L 139.907846 522.367456 
L 142.458478 510.851228 
L 145.00911 521.448783 
L 150.110375 494.183867 
L 152.661007 485.751758 
L 155.21164 523.95873 
L 157.762272 511.064492 
L 160.312904 513.295556 
L 162.863537 499.548264 
L 165.414169 488.015632 
L 167.964801 487.720344 
L 170.515434 489.229593 
L 173.066066 491.624706 
L 175.616698 528.683336 
L 178.16733 526.107769 
L 180.717963 523.335344 
L 183.268595 507.406203 
L 185.819227 501.680899 
L 188.36986 521.202709 
L 190.920492 542.725916 
L 193.471124 547.384902 
L 196.021757 554.849124 
L 198.572389 548.221551 
L 201.123021 541.987696 
L 203.673654 533.555586 
L 206.224286 529.798868 
L 208.774918 548.680888 
L 211.32555 559.885423 
L 213.876183 559.721374 
L 216.426815 552.306367 
L 218.977447 550.419806 
L 221.52808 550.665879 
L 224.078712 555.292056 
L 226.629344 560.508809 
L 229.179977 572.303919 
L 231.730609 570.236904 
L 234.281241 567.612123 
L 236.831874 564.757673 
L 239.382506 562.116487 
L 241.933138 573.501476 
L 244.48377 575.995018 
L 247.034403 577.865175 
L 249.585035 577.766745 
L 252.135667 573.468666 
L 254.6863 567.940221 
L 257.236932 569.170587 
L 259.787564 568.481582 
L 262.338197 578.062033 
L 264.888829 583.147547 
L 267.439461 573.698334 
L 269.990094 575.912994 
L 272.540726 573.698334 
L 275.091358 574.026432 
L 277.64199 578.833063 
L 280.192623 579.440043 
L 282.743255 583.39362 
L 285.293887 580.588385 
L 287.84452 575.929398 
L 290.395152 576.782452 
L 292.945784 581.457844 
L 295.496417 578.537775 
L 298.047049 581.933586 
L 300.597681 584.263079 
L 303.148313 581.917181 
L 305.698946 583.065522 
L 308.249578 583.213166 
L 310.80021 576.848072 
L 313.350843 576.897287 
L 315.901475 584.312294 
L 318.452107 583.541264 
L 321.00274 585.50985 
L 323.553372 583.39362 
L 326.104004 582.540566 
L 328.654637 580.686814 
L 336.306533 585.493445 
L 338.857166 583.262381 
L 341.407798 583.787337 
L 343.95843 579.89938 
L 346.509063 584.77163 
L 349.059695 583.295191 
L 351.610327 584.952084 
L 354.16096 585.854353 
L 356.711592 582.803044 
L 359.262224 583.344406 
L 361.812857 579.489258 
L 364.363489 576.37233 
L 366.914121 579.144756 
L 369.464753 577.733936 
L 372.015386 580.194668 
L 374.566018 580.752434 
L 377.11665 579.374424 
L 379.667283 578.669014 
L 382.217915 581.178961 
L 384.768547 577.733936 
L 387.31918 584.80444 
L 389.869812 584.706011 
L 392.420444 580.834458 
L 394.971077 581.359415 
L 397.521709 580.752434 
L 400.072341 581.687512 
L 402.622973 582.08123 
L 405.173606 585.083323 
L 407.724238 585.411421 
L 410.27487 582.606186 
L 412.825503 582.491352 
L 415.376135 581.753132 
L 417.926767 582.524161 
L 420.4774 582.803044 
L 423.028032 584.935679 
L 425.578664 586.395714 
L 428.129297 582.245278 
L 430.679929 583.245976 
L 433.230561 580.243883 
L 435.781193 579.440043 
L 438.331826 580.325907 
L 440.882458 585.690304 
L 443.43309 584.919274 
L 445.983723 580.440741 
L 448.534355 581.556273 
L 451.084987 579.669712 
L 453.63562 575.634111 
L 456.186252 576.191877 
L 458.736884 584.000601 
L 461.287517 583.42643 
L 463.838149 578.619799 
L 466.388781 577.78315 
L 468.939413 574.206886 
L 471.490046 574.731842 
L 474.040678 573.337427 
L 476.59131 585.066918 
L 479.141943 580.654005 
L 481.692575 574.584198 
L 484.243207 576.848072 
L 486.79384 571.860988 
L 489.344472 570.187689 
L 491.895104 570.597812 
L 494.445737 579.89938 
L 496.996369 581.851561 
L 499.547001 573.156973 
L 502.097633 568.891704 
L 504.648266 565.299034 
L 507.198898 565.233415 
L 509.74953 565.791181 
L 512.300163 578.751038 
L 514.850795 579.800951 
L 517.401427 566.201303 
L 519.95206 564.232717 
L 522.502692 561.000955 
L 525.053324 565.594322 
L 527.603957 555.636558 
L 530.154589 576.175472 
L 532.705221 577.340218 
L 535.255853 568.03865 
L 537.806486 563.149995 
L 540.357118 564.281932 
L 542.90775 563.232019 
L 545.458383 564.741268 
L 548.009015 576.126257 
L 550.559647 578.997112 
L 553.11028 569.022943 
L 555.660912 568.399557 
L 558.211544 567.497289 
L 560.762177 565.167795 
L 563.312809 566.398162 
L 565.863441 572.796066 
L 568.414073 575.650515 
L 570.964706 564.413171 
L 573.515338 569.711948 
L 576.06597 557.966052 
L 578.616603 564.659244 
L 581.167235 562.264131 
L 583.717867 573.452261 
L 586.2685 573.796764 
L 591.369764 557.818408 
L 593.920397 553.011777 
L 596.471029 557.572335 
L 599.021661 551.322074 
L 601.572293 566.939523 
L 604.122926 573.878788 
L 606.673558 559.130798 
L 609.22419 559.983852 
L 611.774823 553.848426 
L 614.325455 553.684377 
L 616.876087 547.877049 
L 619.42672 565.873205 
L 621.977352 569.44947 
L 624.527984 554.73429 
L 627.078617 559.508111 
L 629.629249 547.942668 
L 632.179881 545.153838 
L 634.730513 546.958375 
L 637.281146 551.617362 
L 639.831778 566.332542 
L 642.38241 545.711604 
L 644.933043 542.611082 
L 647.483675 522.433076 
L 650.034307 514.919639 
L 652.58494 511.556638 
L 655.135572 531.865883 
L 657.686204 548.533244 
L 660.236837 521.383163 
L 662.787469 504.814232 
L 665.338101 480.108478 
L 667.888733 468.69068 
L 670.439366 460.553858 
L 672.989998 497.35001 
L 675.54063 518.052972 
L 678.091263 476.335355 
L 680.641895 464.409005 
L 683.192527 403.842178 
L 685.74316 404.580398 
L 688.293792 347.622645 
L 690.844424 405.66312 
L 693.395057 446.527683 
L 695.945689 401.840782 
L 698.496321 343.521424 
L 701.046953 313.828586 
L 703.597586 282.544474 
L 706.148218 276.343429 
L 708.69885 356.432067 
L 711.249483 390.554223 
L 713.800115 337.156329 
L 716.350747 306.610438 
L 718.90138 261.070483 
L 721.452012 236.200681 
L 724.002644 205.146237 
L 726.553277 326.247082 
L 729.103909 369.785641 
L 731.654541 337.484427 
L 734.205173 285.727022 
L 736.755806 230.294923 
L 739.306438 202.800339 
L 741.85707 220.534017 
L 744.407703 310.990541 
L 746.958335 411.437639 
L 749.508967 352.462085 
L 752.0596 300.917943 
L 754.610232 218.106095 
L 757.160864 201.061422 
L 759.711497 212.282361 
L 762.262129 330.77483 
L 764.812761 410.781443 
L 767.363393 366.652309 
L 769.914026 283.331909 
L 772.464658 223.70016 
L 775.01529 214.874333 
L 777.565923 233.100158 
L 780.116555 349.312347 
L 782.667187 405.777954 
L 785.21782 365.832064 
L 787.768452 305.691764 
L 790.319084 227.342044 
L 792.869717 204.325993 
L 795.420349 206.475033 
L 800.521613 386.699075 
L 803.072246 358.449867 
L 805.622878 247.536455 
L 808.17351 200.55287 
L 810.724143 98.908216 
L 813.274775 122.482033 
L 815.825407 257.625457 
L 818.37604 320.587398 
L 820.926672 352.248821 
L 823.477304 134.1295 
L 826.027937 147.33543 
L 828.578569 34.896364 
L 831.129201 75.531258 
L 833.679833 215.448504 
L 836.230466 315.977626 
L 838.781098 268.649539 
L 841.33173 183.14729 
L 843.882363 60.848888 
L 846.432995 170.138217 
L 848.983627 351.871509 
L 851.53426 363.354927 
L 854.084892 408.944096 
L 856.635524 377.512341 
L 859.186156 220.566827 
L 861.736789 54.992345 
L 864.287421 212.938557 
L 866.838053 380.826127 
L 869.388686 419.787724 
L 871.939318 427.465209 
L 874.48995 393.835199 
L 877.040583 240.613594 
L 879.591215 156.062828 
L 882.141847 66.524978 
L 884.69248 183.901914 
L 887.243112 310.678848 
L 889.793744 384.320367 
L 892.344376 378.98878 
L 894.895009 267.468387 
L 897.445641 176.191619 
L 899.996273 222.059672 
L 902.546906 282.593689 
L 905.097538 361.271507 
L 907.64817 471.856822 
L 910.198803 402.496977 
L 915.300067 254.377291 
L 917.8507 295.980073 
L 920.401332 319.685129 
L 922.951964 387.929442 
L 925.502596 478.615634 
L 928.053229 483.815982 
L 930.603861 372.426827 
L 933.154493 301.114802 
L 935.705126 358.974823 
L 938.255758 386.879529 
L 940.80639 405.400642 
L 943.357023 497.005507 
L 945.907655 488.704637 
L 948.458287 429.794702 
L 951.00892 355.874301 
L 953.559552 377.249863 
L 956.110184 416.998894 
L 958.660816 447.65962 
L 961.211449 514.607947 
L 963.762081 533.571991 
L 966.312713 456.583876 
L 968.863346 421.067305 
L 971.413978 427.251946 
L 973.96461 451.957699 
L 976.515243 488.704637 
L 979.065875 516.396079 
L 981.616507 525.746862 
L 984.16714 465.048796 
L 986.717772 421.559451 
L 989.268404 439.506393 
L 991.819036 438.669744 
L 994.369669 463.08021 
L 996.920301 517.331157 
L 999.470933 525.30393 
L 1002.021566 457.650193 
L 1004.572198 394.294536 
L 1007.12283 425.004477 
L 1009.673463 428.859624 
L 1012.224095 459.569565 
L 1014.774727 511.376185 
L 1017.32536 524.319637 
L 1019.875992 441.048452 
L 1022.426624 393.589126 
L 1024.977256 415.44043 
L 1027.527889 432.222625 
L 1030.078521 456.075325 
L 1032.629153 506.799222 
L 1035.179786 519.250528 
L 1037.730418 438.965032 
L 1040.28105 353.495593 
L 1042.831683 378.463824 
L 1045.382315 381.088605 
L 1047.932947 411.995405 
L 1050.48358 480.666244 
L 1050.48358 480.666244 
" style="fill:none;stroke:#000000;stroke-dasharray:1.5,2.475;stroke-dashoffset:0;stroke-width:1.5;"/>
   </g>
   <g id="patch_7">
    <path d="M 30.103125 616.52 
L 30.103125 7.2 
" style="fill:none;stroke:#ffffff;stroke-linecap:square;stroke-linejoin:miter;"/>
   </g>
   <g id="patch_8">
    <path d="M 1099.073125 616.52 
L 1099.073125 7.2 
" style="fill:none;stroke:#ffffff;stroke-linecap:square;stroke-linejoin:miter;"/>
   </g>
   <g id="patch_9">
    <path d="M 30.103125 616.52 
L 1099.073125 616.52 
" style="fill:none;stroke:#ffffff;stroke-linecap:square;stroke-linejoin:miter;"/>
   </g>
   <g id="patch_10">
    <path d="M 30.103125 7.2 
L 1099.073125 7.2 
" style="fill:none;stroke:#ffffff;stroke-linecap:square;stroke-linejoin:miter;"/>
   </g>
   <g id="legend_1">
    <g id="patch_11">
     <path d="M 934.877812 103.26875 
L 1092.073125 103.26875 
Q 1094.073125 103.26875 1094.073125 101.26875 
L 1094.073125 14.2 
Q 1094.073125 12.2 1092.073125 12.2 
L 934.877812 12.2 
Q 932.877812 12.2 932.877812 14.2 
L 932.877812 101.26875 
Q 932.877812 103.26875 934.877812 103.26875 
z
" style="fill:#e5e5e5;opacity:0.8;stroke:#cccccc;stroke-linejoin:miter;stroke-width:0.5;"/>
    </g>
    <g id="line2d_54">
     <path d="M 936.877812 20.298437 
L 956.877812 20.298437 
" style="fill:none;stroke:#e24a33;stroke-linecap:square;stroke-width:1.5;"/>
    </g>
    <g id="line2d_55"/>
    <g id="text_24">
     <!-- Logistic rate rolling week -->
     <g transform="translate(964.877812 23.798437)scale(0.1 -0.1)">
      <defs>
       <path d="M 9.8125 72.90625 
L 19.671875 72.90625 
L 19.671875 8.296875 
L 55.171875 8.296875 
L 55.171875 0 
L 9.8125 0 
z
" id="DejaVuSans-76"/>
       <path d="M 30.609375 48.390625 
Q 23.390625 48.390625 19.1875 42.75 
Q 14.984375 37.109375 14.984375 27.296875 
Q 14.984375 17.484375 19.15625 11.84375 
Q 23.34375 6.203125 30.609375 6.203125 
Q 37.796875 6.203125 41.984375 11.859375 
Q 46.1875 17.53125 46.1875 27.296875 
Q 46.1875 37.015625 41.984375 42.703125 
Q 37.796875 48.390625 30.609375 48.390625 
z
M 30.609375 56 
Q 42.328125 56 49.015625 48.375 
Q 55.71875 40.765625 55.71875 27.296875 
Q 55.71875 13.875 49.015625 6.21875 
Q 42.328125 -1.421875 30.609375 -1.421875 
Q 18.84375 -1.421875 12.171875 6.21875 
Q 5.515625 13.875 5.515625 27.296875 
Q 5.515625 40.765625 12.171875 48.375 
Q 18.84375 56 30.609375 56 
z
" id="DejaVuSans-111"/>
       <path d="M 45.40625 27.984375 
Q 45.40625 37.75 41.375 43.109375 
Q 37.359375 48.484375 30.078125 48.484375 
Q 22.859375 48.484375 18.828125 43.109375 
Q 14.796875 37.75 14.796875 27.984375 
Q 14.796875 18.265625 18.828125 12.890625 
Q 22.859375 7.515625 30.078125 7.515625 
Q 37.359375 7.515625 41.375 12.890625 
Q 45.40625 18.265625 45.40625 27.984375 
z
M 54.390625 6.78125 
Q 54.390625 -7.171875 48.1875 -13.984375 
Q 42 -20.796875 29.203125 -20.796875 
Q 24.46875 -20.796875 20.265625 -20.09375 
Q 16.0625 -19.390625 12.109375 -17.921875 
L 12.109375 -9.1875 
Q 16.0625 -11.328125 19.921875 -12.34375 
Q 23.78125 -13.375 27.78125 -13.375 
Q 36.625 -13.375 41.015625 -8.765625 
Q 45.40625 -4.15625 45.40625 5.171875 
L 45.40625 9.625 
Q 42.625 4.78125 38.28125 2.390625 
Q 33.9375 0 27.875 0 
Q 17.828125 0 11.671875 7.65625 
Q 5.515625 15.328125 5.515625 27.984375 
Q 5.515625 40.671875 11.671875 48.328125 
Q 17.828125 56 27.875 56 
Q 33.9375 56 38.28125 53.609375 
Q 42.625 51.21875 45.40625 46.390625 
L 45.40625 54.6875 
L 54.390625 54.6875 
z
" id="DejaVuSans-103"/>
       <path d="M 9.421875 54.6875 
L 18.40625 54.6875 
L 18.40625 0 
L 9.421875 0 
z
M 9.421875 75.984375 
L 18.40625 75.984375 
L 18.40625 64.59375 
L 9.421875 64.59375 
z
" id="DejaVuSans-105"/>
       <path d="M 44.28125 53.078125 
L 44.28125 44.578125 
Q 40.484375 46.53125 36.375 47.5 
Q 32.28125 48.484375 27.875 48.484375 
Q 21.1875 48.484375 17.84375 46.4375 
Q 14.5 44.390625 14.5 40.28125 
Q 14.5 37.15625 16.890625 35.375 
Q 19.28125 33.59375 26.515625 31.984375 
L 29.59375 31.296875 
Q 39.15625 29.25 43.1875 25.515625 
Q 47.21875 21.78125 47.21875 15.09375 
Q 47.21875 7.46875 41.1875 3.015625 
Q 35.15625 -1.421875 24.609375 -1.421875 
Q 20.21875 -1.421875 15.453125 -0.5625 
Q 10.6875 0.296875 5.421875 2 
L 5.421875 11.28125 
Q 10.40625 8.6875 15.234375 7.390625 
Q 20.0625 6.109375 24.8125 6.109375 
Q 31.15625 6.109375 34.5625 8.28125 
Q 37.984375 10.453125 37.984375 14.40625 
Q 37.984375 18.0625 35.515625 20.015625 
Q 33.0625 21.96875 24.703125 23.78125 
L 21.578125 24.515625 
Q 13.234375 26.265625 9.515625 29.90625 
Q 5.8125 33.546875 5.8125 39.890625 
Q 5.8125 47.609375 11.28125 51.796875 
Q 16.75 56 26.8125 56 
Q 31.78125 56 36.171875 55.265625 
Q 40.578125 54.546875 44.28125 53.078125 
z
" id="DejaVuSans-115"/>
       <path d="M 18.3125 70.21875 
L 18.3125 54.6875 
L 36.8125 54.6875 
L 36.8125 47.703125 
L 18.3125 47.703125 
L 18.3125 18.015625 
Q 18.3125 11.328125 20.140625 9.421875 
Q 21.96875 7.515625 27.59375 7.515625 
L 36.8125 7.515625 
L 36.8125 0 
L 27.59375 0 
Q 17.1875 0 13.234375 3.875 
Q 9.28125 7.765625 9.28125 18.015625 
L 9.28125 47.703125 
L 2.6875 47.703125 
L 2.6875 54.6875 
L 9.28125 54.6875 
L 9.28125 70.21875 
z
" id="DejaVuSans-116"/>
       <path d="M 48.78125 52.59375 
L 48.78125 44.1875 
Q 44.96875 46.296875 41.140625 47.34375 
Q 37.3125 48.390625 33.40625 48.390625 
Q 24.65625 48.390625 19.8125 42.84375 
Q 14.984375 37.3125 14.984375 27.296875 
Q 14.984375 17.28125 19.8125 11.734375 
Q 24.65625 6.203125 33.40625 6.203125 
Q 37.3125 6.203125 41.140625 7.25 
Q 44.96875 8.296875 48.78125 10.40625 
L 48.78125 2.09375 
Q 45.015625 0.34375 40.984375 -0.53125 
Q 36.96875 -1.421875 32.421875 -1.421875 
Q 20.0625 -1.421875 12.78125 6.34375 
Q 5.515625 14.109375 5.515625 27.296875 
Q 5.515625 40.671875 12.859375 48.328125 
Q 20.21875 56 33.015625 56 
Q 37.15625 56 41.109375 55.140625 
Q 45.0625 54.296875 48.78125 52.59375 
z
" id="DejaVuSans-99"/>
       <path id="DejaVuSans-32"/>
       <path d="M 41.109375 46.296875 
Q 39.59375 47.171875 37.8125 47.578125 
Q 36.03125 48 33.890625 48 
Q 26.265625 48 22.1875 43.046875 
Q 18.109375 38.09375 18.109375 28.8125 
L 18.109375 0 
L 9.078125 0 
L 9.078125 54.6875 
L 18.109375 54.6875 
L 18.109375 46.1875 
Q 20.953125 51.171875 25.484375 53.578125 
Q 30.03125 56 36.53125 56 
Q 37.453125 56 38.578125 55.875 
Q 39.703125 55.765625 41.0625 55.515625 
z
" id="DejaVuSans-114"/>
       <path d="M 34.28125 27.484375 
Q 23.390625 27.484375 19.1875 25 
Q 14.984375 22.515625 14.984375 16.5 
Q 14.984375 11.71875 18.140625 8.90625 
Q 21.296875 6.109375 26.703125 6.109375 
Q 34.1875 6.109375 38.703125 11.40625 
Q 43.21875 16.703125 43.21875 25.484375 
L 43.21875 27.484375 
z
M 52.203125 31.203125 
L 52.203125 0 
L 43.21875 0 
L 43.21875 8.296875 
Q 40.140625 3.328125 35.546875 0.953125 
Q 30.953125 -1.421875 24.3125 -1.421875 
Q 15.921875 -1.421875 10.953125 3.296875 
Q 6 8.015625 6 15.921875 
Q 6 25.140625 12.171875 29.828125 
Q 18.359375 34.515625 30.609375 34.515625 
L 43.21875 34.515625 
L 43.21875 35.40625 
Q 43.21875 41.609375 39.140625 45 
Q 35.0625 48.390625 27.6875 48.390625 
Q 23 48.390625 18.546875 47.265625 
Q 14.109375 46.140625 10.015625 43.890625 
L 10.015625 52.203125 
Q 14.9375 54.109375 19.578125 55.046875 
Q 24.21875 56 28.609375 56 
Q 40.484375 56 46.34375 49.84375 
Q 52.203125 43.703125 52.203125 31.203125 
z
" id="DejaVuSans-97"/>
       <path d="M 56.203125 29.59375 
L 56.203125 25.203125 
L 14.890625 25.203125 
Q 15.484375 15.921875 20.484375 11.0625 
Q 25.484375 6.203125 34.421875 6.203125 
Q 39.59375 6.203125 44.453125 7.46875 
Q 49.3125 8.734375 54.109375 11.28125 
L 54.109375 2.78125 
Q 49.265625 0.734375 44.1875 -0.34375 
Q 39.109375 -1.421875 33.890625 -1.421875 
Q 20.796875 -1.421875 13.15625 6.1875 
Q 5.515625 13.8125 5.515625 26.8125 
Q 5.515625 40.234375 12.765625 48.109375 
Q 20.015625 56 32.328125 56 
Q 43.359375 56 49.78125 48.890625 
Q 56.203125 41.796875 56.203125 29.59375 
z
M 47.21875 32.234375 
Q 47.125 39.59375 43.09375 43.984375 
Q 39.0625 48.390625 32.421875 48.390625 
Q 24.90625 48.390625 20.390625 44.140625 
Q 15.875 39.890625 15.1875 32.171875 
z
" id="DejaVuSans-101"/>
       <path d="M 9.421875 75.984375 
L 18.40625 75.984375 
L 18.40625 0 
L 9.421875 0 
z
" id="DejaVuSans-108"/>
       <path d="M 54.890625 33.015625 
L 54.890625 0 
L 45.90625 0 
L 45.90625 32.71875 
Q 45.90625 40.484375 42.875 44.328125 
Q 39.84375 48.1875 33.796875 48.1875 
Q 26.515625 48.1875 22.3125 43.546875 
Q 18.109375 38.921875 18.109375 30.90625 
L 18.109375 0 
L 9.078125 0 
L 9.078125 54.6875 
L 18.109375 54.6875 
L 18.109375 46.1875 
Q 21.34375 51.125 25.703125 53.5625 
Q 30.078125 56 35.796875 56 
Q 45.21875 56 50.046875 50.171875 
Q 54.890625 44.34375 54.890625 33.015625 
z
" id="DejaVuSans-110"/>
       <path d="M 4.203125 54.6875 
L 13.1875 54.6875 
L 24.421875 12.015625 
L 35.59375 54.6875 
L 46.1875 54.6875 
L 57.421875 12.015625 
L 68.609375 54.6875 
L 77.59375 54.6875 
L 63.28125 0 
L 52.6875 0 
L 40.921875 44.828125 
L 29.109375 0 
L 18.5 0 
z
" id="DejaVuSans-119"/>
       <path d="M 9.078125 75.984375 
L 18.109375 75.984375 
L 18.109375 31.109375 
L 44.921875 54.6875 
L 56.390625 54.6875 
L 27.390625 29.109375 
L 57.625 0 
L 45.90625 0 
L 18.109375 26.703125 
L 18.109375 0 
L 9.078125 0 
z
" id="DejaVuSans-107"/>
      </defs>
      <use xlink:href="#DejaVuSans-76"/>
      <use x="53.962891" xlink:href="#DejaVuSans-111"/>
      <use x="115.144531" xlink:href="#DejaVuSans-103"/>
      <use x="178.621094" xlink:href="#DejaVuSans-105"/>
      <use x="206.404297" xlink:href="#DejaVuSans-115"/>
      <use x="258.503906" xlink:href="#DejaVuSans-116"/>
      <use x="297.712891" xlink:href="#DejaVuSans-105"/>
      <use x="325.496094" xlink:href="#DejaVuSans-99"/>
      <use x="380.476562" xlink:href="#DejaVuSans-32"/>
      <use x="412.263672" xlink:href="#DejaVuSans-114"/>
      <use x="453.376953" xlink:href="#DejaVuSans-97"/>
      <use x="514.65625" xlink:href="#DejaVuSans-116"/>
      <use x="553.865234" xlink:href="#DejaVuSans-101"/>
      <use x="615.388672" xlink:href="#DejaVuSans-32"/>
      <use x="647.175781" xlink:href="#DejaVuSans-114"/>
      <use x="686.039062" xlink:href="#DejaVuSans-111"/>
      <use x="747.220703" xlink:href="#DejaVuSans-108"/>
      <use x="775.003906" xlink:href="#DejaVuSans-108"/>
      <use x="802.787109" xlink:href="#DejaVuSans-105"/>
      <use x="830.570312" xlink:href="#DejaVuSans-110"/>
      <use x="893.949219" xlink:href="#DejaVuSans-103"/>
      <use x="957.425781" xlink:href="#DejaVuSans-32"/>
      <use x="989.212891" xlink:href="#DejaVuSans-119"/>
      <use x="1071" xlink:href="#DejaVuSans-101"/>
      <use x="1132.523438" xlink:href="#DejaVuSans-101"/>
      <use x="1194.046875" xlink:href="#DejaVuSans-107"/>
     </g>
    </g>
    <g id="line2d_56">
     <path d="M 936.877812 34.976562 
L 956.877812 34.976562 
" style="fill:none;stroke:#e24a33;stroke-dasharray:1.5,2.475;stroke-dashoffset:0;stroke-width:1.5;"/>
    </g>
    <g id="line2d_57"/>
    <g id="text_25">
     <!-- Logistic rate -->
     <g transform="translate(964.877812 38.476562)scale(0.1 -0.1)">
      <use xlink:href="#DejaVuSans-76"/>
      <use x="53.962891" xlink:href="#DejaVuSans-111"/>
      <use x="115.144531" xlink:href="#DejaVuSans-103"/>
      <use x="178.621094" xlink:href="#DejaVuSans-105"/>
      <use x="206.404297" xlink:href="#DejaVuSans-115"/>
      <use x="258.503906" xlink:href="#DejaVuSans-116"/>
      <use x="297.712891" xlink:href="#DejaVuSans-105"/>
      <use x="325.496094" xlink:href="#DejaVuSans-99"/>
      <use x="380.476562" xlink:href="#DejaVuSans-32"/>
      <use x="412.263672" xlink:href="#DejaVuSans-114"/>
      <use x="453.376953" xlink:href="#DejaVuSans-97"/>
      <use x="514.65625" xlink:href="#DejaVuSans-116"/>
      <use x="553.865234" xlink:href="#DejaVuSans-101"/>
     </g>
    </g>
    <g id="line2d_58">
     <path d="M 936.877812 49.654687 
L 956.877812 49.654687 
" style="fill:none;stroke:#348abd;stroke-linecap:square;stroke-width:1.5;"/>
    </g>
    <g id="line2d_59"/>
    <g id="text_26">
     <!-- RKI rate rolling week -->
     <g transform="translate(964.877812 53.154687)scale(0.1 -0.1)">
      <defs>
       <path d="M 44.390625 34.1875 
Q 47.5625 33.109375 50.5625 29.59375 
Q 53.5625 26.078125 56.59375 19.921875 
L 66.609375 0 
L 56 0 
L 46.6875 18.703125 
Q 43.0625 26.03125 39.671875 28.421875 
Q 36.28125 30.8125 30.421875 30.8125 
L 19.671875 30.8125 
L 19.671875 0 
L 9.8125 0 
L 9.8125 72.90625 
L 32.078125 72.90625 
Q 44.578125 72.90625 50.734375 67.671875 
Q 56.890625 62.453125 56.890625 51.90625 
Q 56.890625 45.015625 53.6875 40.46875 
Q 50.484375 35.9375 44.390625 34.1875 
z
M 19.671875 64.796875 
L 19.671875 38.921875 
L 32.078125 38.921875 
Q 39.203125 38.921875 42.84375 42.21875 
Q 46.484375 45.515625 46.484375 51.90625 
Q 46.484375 58.296875 42.84375 61.546875 
Q 39.203125 64.796875 32.078125 64.796875 
z
" id="DejaVuSans-82"/>
       <path d="M 9.8125 72.90625 
L 19.671875 72.90625 
L 19.671875 42.09375 
L 52.390625 72.90625 
L 65.09375 72.90625 
L 28.90625 38.921875 
L 67.671875 0 
L 54.6875 0 
L 19.671875 35.109375 
L 19.671875 0 
L 9.8125 0 
z
" id="DejaVuSans-75"/>
       <path d="M 9.8125 72.90625 
L 19.671875 72.90625 
L 19.671875 0 
L 9.8125 0 
z
" id="DejaVuSans-73"/>
      </defs>
      <use xlink:href="#DejaVuSans-82"/>
      <use x="69.482422" xlink:href="#DejaVuSans-75"/>
      <use x="135.058594" xlink:href="#DejaVuSans-73"/>
      <use x="164.550781" xlink:href="#DejaVuSans-32"/>
      <use x="196.337891" xlink:href="#DejaVuSans-114"/>
      <use x="237.451172" xlink:href="#DejaVuSans-97"/>
      <use x="298.730469" xlink:href="#DejaVuSans-116"/>
      <use x="337.939453" xlink:href="#DejaVuSans-101"/>
      <use x="399.462891" xlink:href="#DejaVuSans-32"/>
      <use x="431.25" xlink:href="#DejaVuSans-114"/>
      <use x="470.113281" xlink:href="#DejaVuSans-111"/>
      <use x="531.294922" xlink:href="#DejaVuSans-108"/>
      <use x="559.078125" xlink:href="#DejaVuSans-108"/>
      <use x="586.861328" xlink:href="#DejaVuSans-105"/>
      <use x="614.644531" xlink:href="#DejaVuSans-110"/>
      <use x="678.023438" xlink:href="#DejaVuSans-103"/>
      <use x="741.5" xlink:href="#DejaVuSans-32"/>
      <use x="773.287109" xlink:href="#DejaVuSans-119"/>
      <use x="855.074219" xlink:href="#DejaVuSans-101"/>
      <use x="916.597656" xlink:href="#DejaVuSans-101"/>
      <use x="978.121094" xlink:href="#DejaVuSans-107"/>
     </g>
    </g>
    <g id="line2d_60">
     <path d="M 936.877812 64.332812 
L 956.877812 64.332812 
" style="fill:none;stroke:#348abd;stroke-dasharray:1.5,2.475;stroke-dashoffset:0;stroke-width:1.5;"/>
    </g>
    <g id="line2d_61"/>
    <g id="text_27">
     <!-- RKI rate -->
     <g transform="translate(964.877812 67.832812)scale(0.1 -0.1)">
      <use xlink:href="#DejaVuSans-82"/>
      <use x="69.482422" xlink:href="#DejaVuSans-75"/>
      <use x="135.058594" xlink:href="#DejaVuSans-73"/>
      <use x="164.550781" xlink:href="#DejaVuSans-32"/>
      <use x="196.337891" xlink:href="#DejaVuSans-114"/>
      <use x="237.451172" xlink:href="#DejaVuSans-97"/>
      <use x="298.730469" xlink:href="#DejaVuSans-116"/>
      <use x="337.939453" xlink:href="#DejaVuSans-101"/>
     </g>
    </g>
    <g id="line2d_62">
     <path d="M 936.877812 79.010937 
L 956.877812 79.010937 
" style="fill:none;stroke:#000000;stroke-linecap:square;stroke-width:1.5;"/>
    </g>
    <g id="line2d_63"/>
    <g id="text_28">
     <!-- New Cases rolling week -->
     <g transform="translate(964.877812 82.510937)scale(0.1 -0.1)">
      <defs>
       <path d="M 9.8125 72.90625 
L 23.09375 72.90625 
L 55.421875 11.921875 
L 55.421875 72.90625 
L 64.984375 72.90625 
L 64.984375 0 
L 51.703125 0 
L 19.390625 60.984375 
L 19.390625 0 
L 9.8125 0 
z
" id="DejaVuSans-78"/>
       <path d="M 64.40625 67.28125 
L 64.40625 56.890625 
Q 59.421875 61.53125 53.78125 63.8125 
Q 48.140625 66.109375 41.796875 66.109375 
Q 29.296875 66.109375 22.65625 58.46875 
Q 16.015625 50.828125 16.015625 36.375 
Q 16.015625 21.96875 22.65625 14.328125 
Q 29.296875 6.6875 41.796875 6.6875 
Q 48.140625 6.6875 53.78125 8.984375 
Q 59.421875 11.28125 64.40625 15.921875 
L 64.40625 5.609375 
Q 59.234375 2.09375 53.4375 0.328125 
Q 47.65625 -1.421875 41.21875 -1.421875 
Q 24.65625 -1.421875 15.125 8.703125 
Q 5.609375 18.84375 5.609375 36.375 
Q 5.609375 53.953125 15.125 64.078125 
Q 24.65625 74.21875 41.21875 74.21875 
Q 47.75 74.21875 53.53125 72.484375 
Q 59.328125 70.75 64.40625 67.28125 
z
" id="DejaVuSans-67"/>
      </defs>
      <use xlink:href="#DejaVuSans-78"/>
      <use x="74.804688" xlink:href="#DejaVuSans-101"/>
      <use x="136.328125" xlink:href="#DejaVuSans-119"/>
      <use x="218.115234" xlink:href="#DejaVuSans-32"/>
      <use x="249.902344" xlink:href="#DejaVuSans-67"/>
      <use x="319.726562" xlink:href="#DejaVuSans-97"/>
      <use x="381.005859" xlink:href="#DejaVuSans-115"/>
      <use x="433.105469" xlink:href="#DejaVuSans-101"/>
      <use x="494.628906" xlink:href="#DejaVuSans-115"/>
      <use x="546.728516" xlink:href="#DejaVuSans-32"/>
      <use x="578.515625" xlink:href="#DejaVuSans-114"/>
      <use x="617.378906" xlink:href="#DejaVuSans-111"/>
      <use x="678.560547" xlink:href="#DejaVuSans-108"/>
      <use x="706.34375" xlink:href="#DejaVuSans-108"/>
      <use x="734.126953" xlink:href="#DejaVuSans-105"/>
      <use x="761.910156" xlink:href="#DejaVuSans-110"/>
      <use x="825.289062" xlink:href="#DejaVuSans-103"/>
      <use x="888.765625" xlink:href="#DejaVuSans-32"/>
      <use x="920.552734" xlink:href="#DejaVuSans-119"/>
      <use x="1002.339844" xlink:href="#DejaVuSans-101"/>
      <use x="1063.863281" xlink:href="#DejaVuSans-101"/>
      <use x="1125.386719" xlink:href="#DejaVuSans-107"/>
     </g>
    </g>
    <g id="line2d_64">
     <path d="M 936.877812 93.689062 
L 956.877812 93.689062 
" style="fill:none;stroke:#000000;stroke-dasharray:1.5,2.475;stroke-dashoffset:0;stroke-width:1.5;"/>
    </g>
    <g id="line2d_65"/>
    <g id="text_29">
     <!-- New Cases -->
     <g transform="translate(964.877812 97.189062)scale(0.1 -0.1)">
      <use xlink:href="#DejaVuSans-78"/>
      <use x="74.804688" xlink:href="#DejaVuSans-101"/>
      <use x="136.328125" xlink:href="#DejaVuSans-119"/>
      <use x="218.115234" xlink:href="#DejaVuSans-32"/>
      <use x="249.902344" xlink:href="#DejaVuSans-67"/>
      <use x="319.726562" xlink:href="#DejaVuSans-97"/>
      <use x="381.005859" xlink:href="#DejaVuSans-115"/>
      <use x="433.105469" xlink:href="#DejaVuSans-101"/>
      <use x="494.628906" xlink:href="#DejaVuSans-115"/>
     </g>
    </g>
   </g>
  </g>
 </g>
 <defs>
  <clipPath id="p562a0713e1">
   <rect height="609.32" width="1068.97" x="30.103125" y="7.2"/>
  </clipPath>
 </defs>
</svg>
