<?xml version="1.0" encoding="utf-8" standalone="no"?>
<!DOCTYPE svg PUBLIC "-//W3C//DTD SVG 1.1//EN"
  "http://www.w3.org/Graphics/SVG/1.1/DTD/svg11.dtd">
<!-- Created with matplotlib (https://matplotlib.org/) -->
<svg height="640.398125pt" version="1.1" viewBox="0 0 1145.085625 640.398125" width="1145.085625pt" xmlns="http://www.w3.org/2000/svg" xmlns:xlink="http://www.w3.org/1999/xlink">
 <metadata>
  <rdf:RDF xmlns:cc="http://creativecommons.org/ns#" xmlns:dc="http://purl.org/dc/elements/1.1/" xmlns:rdf="http://www.w3.org/1999/02/22-rdf-syntax-ns#">
   <cc:Work>
    <dc:type rdf:resource="http://purl.org/dc/dcmitype/StillImage"/>
    <dc:date>2020-12-09T09:00:27.797511</dc:date>
    <dc:format>image/svg+xml</dc:format>
    <dc:creator>
     <cc:Agent>
      <dc:title>Matplotlib v3.3.2, https://matplotlib.org/</dc:title>
     </cc:Agent>
    </dc:creator>
   </cc:Work>
  </rdf:RDF>
 </metadata>
 <defs>
  <style type="text/css">*{stroke-linecap:butt;stroke-linejoin:round;}</style>
 </defs>
 <g id="figure_1">
  <g id="patch_1">
   <path d="M 0 640.398125 
L 1145.085625 640.398125 
L 1145.085625 0 
L 0 0 
z
" style="fill:#ffffff;"/>
  </g>
  <g id="axes_1">
   <g id="patch_2">
    <path d="M 30.103125 616.52 
L 1099.073125 616.52 
L 1099.073125 7.2 
L 30.103125 7.2 
z
" style="fill:#e5e5e5;"/>
   </g>
   <g id="matplotlib.axis_1">
    <g id="xtick_1">
     <g id="line2d_1">
      <path clip-path="url(#pc4d2055f0b)" d="M 85.512256 616.52 
L 85.512256 7.2 
" style="fill:none;stroke:#ffffff;stroke-linecap:square;stroke-width:0.8;"/>
     </g>
     <g id="line2d_2">
      <defs>
       <path d="M 0 0 
L 0 3.5 
" id="m376837793a" style="stroke:#555555;stroke-width:0.8;"/>
      </defs>
      <g>
       <use style="fill:#555555;stroke:#555555;stroke-width:0.8;" x="85.512256" xlink:href="#m376837793a" y="616.52"/>
      </g>
     </g>
     <g id="text_1">
      <!-- 2020-03 -->
      <g style="fill:#555555;" transform="translate(64.62085 631.118437)scale(0.1 -0.1)">
       <defs>
        <path d="M 19.1875 8.296875 
L 53.609375 8.296875 
L 53.609375 0 
L 7.328125 0 
L 7.328125 8.296875 
Q 12.9375 14.109375 22.625 23.890625 
Q 32.328125 33.6875 34.8125 36.53125 
Q 39.546875 41.84375 41.421875 45.53125 
Q 43.3125 49.21875 43.3125 52.78125 
Q 43.3125 58.59375 39.234375 62.25 
Q 35.15625 65.921875 28.609375 65.921875 
Q 23.96875 65.921875 18.8125 64.3125 
Q 13.671875 62.703125 7.8125 59.421875 
L 7.8125 69.390625 
Q 13.765625 71.78125 18.9375 73 
Q 24.125 74.21875 28.421875 74.21875 
Q 39.75 74.21875 46.484375 68.546875 
Q 53.21875 62.890625 53.21875 53.421875 
Q 53.21875 48.921875 51.53125 44.890625 
Q 49.859375 40.875 45.40625 35.40625 
Q 44.1875 33.984375 37.640625 27.21875 
Q 31.109375 20.453125 19.1875 8.296875 
z
" id="DejaVuSans-50"/>
        <path d="M 31.78125 66.40625 
Q 24.171875 66.40625 20.328125 58.90625 
Q 16.5 51.421875 16.5 36.375 
Q 16.5 21.390625 20.328125 13.890625 
Q 24.171875 6.390625 31.78125 6.390625 
Q 39.453125 6.390625 43.28125 13.890625 
Q 47.125 21.390625 47.125 36.375 
Q 47.125 51.421875 43.28125 58.90625 
Q 39.453125 66.40625 31.78125 66.40625 
z
M 31.78125 74.21875 
Q 44.046875 74.21875 50.515625 64.515625 
Q 56.984375 54.828125 56.984375 36.375 
Q 56.984375 17.96875 50.515625 8.265625 
Q 44.046875 -1.421875 31.78125 -1.421875 
Q 19.53125 -1.421875 13.0625 8.265625 
Q 6.59375 17.96875 6.59375 36.375 
Q 6.59375 54.828125 13.0625 64.515625 
Q 19.53125 74.21875 31.78125 74.21875 
z
" id="DejaVuSans-48"/>
        <path d="M 4.890625 31.390625 
L 31.203125 31.390625 
L 31.203125 23.390625 
L 4.890625 23.390625 
z
" id="DejaVuSans-45"/>
        <path d="M 40.578125 39.3125 
Q 47.65625 37.796875 51.625 33 
Q 55.609375 28.21875 55.609375 21.1875 
Q 55.609375 10.40625 48.1875 4.484375 
Q 40.765625 -1.421875 27.09375 -1.421875 
Q 22.515625 -1.421875 17.65625 -0.515625 
Q 12.796875 0.390625 7.625 2.203125 
L 7.625 11.71875 
Q 11.71875 9.328125 16.59375 8.109375 
Q 21.484375 6.890625 26.8125 6.890625 
Q 36.078125 6.890625 40.9375 10.546875 
Q 45.796875 14.203125 45.796875 21.1875 
Q 45.796875 27.640625 41.28125 31.265625 
Q 36.765625 34.90625 28.71875 34.90625 
L 20.21875 34.90625 
L 20.21875 43.015625 
L 29.109375 43.015625 
Q 36.375 43.015625 40.234375 45.921875 
Q 44.09375 48.828125 44.09375 54.296875 
Q 44.09375 59.90625 40.109375 62.90625 
Q 36.140625 65.921875 28.71875 65.921875 
Q 24.65625 65.921875 20.015625 65.03125 
Q 15.375 64.15625 9.8125 62.3125 
L 9.8125 71.09375 
Q 15.4375 72.65625 20.34375 73.4375 
Q 25.25 74.21875 29.59375 74.21875 
Q 40.828125 74.21875 47.359375 69.109375 
Q 53.90625 64.015625 53.90625 55.328125 
Q 53.90625 49.265625 50.4375 45.09375 
Q 46.96875 40.921875 40.578125 39.3125 
z
" id="DejaVuSans-51"/>
       </defs>
       <use xlink:href="#DejaVuSans-50"/>
       <use x="63.623047" xlink:href="#DejaVuSans-48"/>
       <use x="127.246094" xlink:href="#DejaVuSans-50"/>
       <use x="190.869141" xlink:href="#DejaVuSans-48"/>
       <use x="254.492188" xlink:href="#DejaVuSans-45"/>
       <use x="290.576172" xlink:href="#DejaVuSans-48"/>
       <use x="354.199219" xlink:href="#DejaVuSans-51"/>
      </g>
     </g>
    </g>
    <g id="xtick_2">
     <g id="line2d_3">
      <path clip-path="url(#pc4d2055f0b)" d="M 191.215828 616.52 
L 191.215828 7.2 
" style="fill:none;stroke:#ffffff;stroke-linecap:square;stroke-width:0.8;"/>
     </g>
     <g id="line2d_4">
      <g>
       <use style="fill:#555555;stroke:#555555;stroke-width:0.8;" x="191.215828" xlink:href="#m376837793a" y="616.52"/>
      </g>
     </g>
     <g id="text_2">
      <!-- 2020-04 -->
      <g style="fill:#555555;" transform="translate(170.324422 631.118437)scale(0.1 -0.1)">
       <defs>
        <path d="M 37.796875 64.3125 
L 12.890625 25.390625 
L 37.796875 25.390625 
z
M 35.203125 72.90625 
L 47.609375 72.90625 
L 47.609375 25.390625 
L 58.015625 25.390625 
L 58.015625 17.1875 
L 47.609375 17.1875 
L 47.609375 0 
L 37.796875 0 
L 37.796875 17.1875 
L 4.890625 17.1875 
L 4.890625 26.703125 
z
" id="DejaVuSans-52"/>
       </defs>
       <use xlink:href="#DejaVuSans-50"/>
       <use x="63.623047" xlink:href="#DejaVuSans-48"/>
       <use x="127.246094" xlink:href="#DejaVuSans-50"/>
       <use x="190.869141" xlink:href="#DejaVuSans-48"/>
       <use x="254.492188" xlink:href="#DejaVuSans-45"/>
       <use x="290.576172" xlink:href="#DejaVuSans-48"/>
       <use x="354.199219" xlink:href="#DejaVuSans-52"/>
      </g>
     </g>
    </g>
    <g id="xtick_3">
     <g id="line2d_5">
      <path clip-path="url(#pc4d2055f0b)" d="M 293.509608 616.52 
L 293.509608 7.2 
" style="fill:none;stroke:#ffffff;stroke-linecap:square;stroke-width:0.8;"/>
     </g>
     <g id="line2d_6">
      <g>
       <use style="fill:#555555;stroke:#555555;stroke-width:0.8;" x="293.509608" xlink:href="#m376837793a" y="616.52"/>
      </g>
     </g>
     <g id="text_3">
      <!-- 2020-05 -->
      <g style="fill:#555555;" transform="translate(272.618202 631.118437)scale(0.1 -0.1)">
       <defs>
        <path d="M 10.796875 72.90625 
L 49.515625 72.90625 
L 49.515625 64.59375 
L 19.828125 64.59375 
L 19.828125 46.734375 
Q 21.96875 47.46875 24.109375 47.828125 
Q 26.265625 48.1875 28.421875 48.1875 
Q 40.625 48.1875 47.75 41.5 
Q 54.890625 34.8125 54.890625 23.390625 
Q 54.890625 11.625 47.5625 5.09375 
Q 40.234375 -1.421875 26.90625 -1.421875 
Q 22.3125 -1.421875 17.546875 -0.640625 
Q 12.796875 0.140625 7.71875 1.703125 
L 7.71875 11.625 
Q 12.109375 9.234375 16.796875 8.0625 
Q 21.484375 6.890625 26.703125 6.890625 
Q 35.15625 6.890625 40.078125 11.328125 
Q 45.015625 15.765625 45.015625 23.390625 
Q 45.015625 31 40.078125 35.4375 
Q 35.15625 39.890625 26.703125 39.890625 
Q 22.75 39.890625 18.8125 39.015625 
Q 14.890625 38.140625 10.796875 36.28125 
z
" id="DejaVuSans-53"/>
       </defs>
       <use xlink:href="#DejaVuSans-50"/>
       <use x="63.623047" xlink:href="#DejaVuSans-48"/>
       <use x="127.246094" xlink:href="#DejaVuSans-50"/>
       <use x="190.869141" xlink:href="#DejaVuSans-48"/>
       <use x="254.492188" xlink:href="#DejaVuSans-45"/>
       <use x="290.576172" xlink:href="#DejaVuSans-48"/>
       <use x="354.199219" xlink:href="#DejaVuSans-53"/>
      </g>
     </g>
    </g>
    <g id="xtick_4">
     <g id="line2d_7">
      <path clip-path="url(#pc4d2055f0b)" d="M 399.213181 616.52 
L 399.213181 7.2 
" style="fill:none;stroke:#ffffff;stroke-linecap:square;stroke-width:0.8;"/>
     </g>
     <g id="line2d_8">
      <g>
       <use style="fill:#555555;stroke:#555555;stroke-width:0.8;" x="399.213181" xlink:href="#m376837793a" y="616.52"/>
      </g>
     </g>
     <g id="text_4">
      <!-- 2020-06 -->
      <g style="fill:#555555;" transform="translate(378.321775 631.118437)scale(0.1 -0.1)">
       <defs>
        <path d="M 33.015625 40.375 
Q 26.375 40.375 22.484375 35.828125 
Q 18.609375 31.296875 18.609375 23.390625 
Q 18.609375 15.53125 22.484375 10.953125 
Q 26.375 6.390625 33.015625 6.390625 
Q 39.65625 6.390625 43.53125 10.953125 
Q 47.40625 15.53125 47.40625 23.390625 
Q 47.40625 31.296875 43.53125 35.828125 
Q 39.65625 40.375 33.015625 40.375 
z
M 52.59375 71.296875 
L 52.59375 62.3125 
Q 48.875 64.0625 45.09375 64.984375 
Q 41.3125 65.921875 37.59375 65.921875 
Q 27.828125 65.921875 22.671875 59.328125 
Q 17.53125 52.734375 16.796875 39.40625 
Q 19.671875 43.65625 24.015625 45.921875 
Q 28.375 48.1875 33.59375 48.1875 
Q 44.578125 48.1875 50.953125 41.515625 
Q 57.328125 34.859375 57.328125 23.390625 
Q 57.328125 12.15625 50.6875 5.359375 
Q 44.046875 -1.421875 33.015625 -1.421875 
Q 20.359375 -1.421875 13.671875 8.265625 
Q 6.984375 17.96875 6.984375 36.375 
Q 6.984375 53.65625 15.1875 63.9375 
Q 23.390625 74.21875 37.203125 74.21875 
Q 40.921875 74.21875 44.703125 73.484375 
Q 48.484375 72.75 52.59375 71.296875 
z
" id="DejaVuSans-54"/>
       </defs>
       <use xlink:href="#DejaVuSans-50"/>
       <use x="63.623047" xlink:href="#DejaVuSans-48"/>
       <use x="127.246094" xlink:href="#DejaVuSans-50"/>
       <use x="190.869141" xlink:href="#DejaVuSans-48"/>
       <use x="254.492188" xlink:href="#DejaVuSans-45"/>
       <use x="290.576172" xlink:href="#DejaVuSans-48"/>
       <use x="354.199219" xlink:href="#DejaVuSans-54"/>
      </g>
     </g>
    </g>
    <g id="xtick_5">
     <g id="line2d_9">
      <path clip-path="url(#pc4d2055f0b)" d="M 501.506961 616.52 
L 501.506961 7.2 
" style="fill:none;stroke:#ffffff;stroke-linecap:square;stroke-width:0.8;"/>
     </g>
     <g id="line2d_10">
      <g>
       <use style="fill:#555555;stroke:#555555;stroke-width:0.8;" x="501.506961" xlink:href="#m376837793a" y="616.52"/>
      </g>
     </g>
     <g id="text_5">
      <!-- 2020-07 -->
      <g style="fill:#555555;" transform="translate(480.615554 631.118437)scale(0.1 -0.1)">
       <defs>
        <path d="M 8.203125 72.90625 
L 55.078125 72.90625 
L 55.078125 68.703125 
L 28.609375 0 
L 18.3125 0 
L 43.21875 64.59375 
L 8.203125 64.59375 
z
" id="DejaVuSans-55"/>
       </defs>
       <use xlink:href="#DejaVuSans-50"/>
       <use x="63.623047" xlink:href="#DejaVuSans-48"/>
       <use x="127.246094" xlink:href="#DejaVuSans-50"/>
       <use x="190.869141" xlink:href="#DejaVuSans-48"/>
       <use x="254.492188" xlink:href="#DejaVuSans-45"/>
       <use x="290.576172" xlink:href="#DejaVuSans-48"/>
       <use x="354.199219" xlink:href="#DejaVuSans-55"/>
      </g>
     </g>
    </g>
    <g id="xtick_6">
     <g id="line2d_11">
      <path clip-path="url(#pc4d2055f0b)" d="M 607.210533 616.52 
L 607.210533 7.2 
" style="fill:none;stroke:#ffffff;stroke-linecap:square;stroke-width:0.8;"/>
     </g>
     <g id="line2d_12">
      <g>
       <use style="fill:#555555;stroke:#555555;stroke-width:0.8;" x="607.210533" xlink:href="#m376837793a" y="616.52"/>
      </g>
     </g>
     <g id="text_6">
      <!-- 2020-08 -->
      <g style="fill:#555555;" transform="translate(586.319127 631.118437)scale(0.1 -0.1)">
       <defs>
        <path d="M 31.78125 34.625 
Q 24.75 34.625 20.71875 30.859375 
Q 16.703125 27.09375 16.703125 20.515625 
Q 16.703125 13.921875 20.71875 10.15625 
Q 24.75 6.390625 31.78125 6.390625 
Q 38.8125 6.390625 42.859375 10.171875 
Q 46.921875 13.96875 46.921875 20.515625 
Q 46.921875 27.09375 42.890625 30.859375 
Q 38.875 34.625 31.78125 34.625 
z
M 21.921875 38.8125 
Q 15.578125 40.375 12.03125 44.71875 
Q 8.5 49.078125 8.5 55.328125 
Q 8.5 64.0625 14.71875 69.140625 
Q 20.953125 74.21875 31.78125 74.21875 
Q 42.671875 74.21875 48.875 69.140625 
Q 55.078125 64.0625 55.078125 55.328125 
Q 55.078125 49.078125 51.53125 44.71875 
Q 48 40.375 41.703125 38.8125 
Q 48.828125 37.15625 52.796875 32.3125 
Q 56.78125 27.484375 56.78125 20.515625 
Q 56.78125 9.90625 50.3125 4.234375 
Q 43.84375 -1.421875 31.78125 -1.421875 
Q 19.734375 -1.421875 13.25 4.234375 
Q 6.78125 9.90625 6.78125 20.515625 
Q 6.78125 27.484375 10.78125 32.3125 
Q 14.796875 37.15625 21.921875 38.8125 
z
M 18.3125 54.390625 
Q 18.3125 48.734375 21.84375 45.5625 
Q 25.390625 42.390625 31.78125 42.390625 
Q 38.140625 42.390625 41.71875 45.5625 
Q 45.3125 48.734375 45.3125 54.390625 
Q 45.3125 60.0625 41.71875 63.234375 
Q 38.140625 66.40625 31.78125 66.40625 
Q 25.390625 66.40625 21.84375 63.234375 
Q 18.3125 60.0625 18.3125 54.390625 
z
" id="DejaVuSans-56"/>
       </defs>
       <use xlink:href="#DejaVuSans-50"/>
       <use x="63.623047" xlink:href="#DejaVuSans-48"/>
       <use x="127.246094" xlink:href="#DejaVuSans-50"/>
       <use x="190.869141" xlink:href="#DejaVuSans-48"/>
       <use x="254.492188" xlink:href="#DejaVuSans-45"/>
       <use x="290.576172" xlink:href="#DejaVuSans-48"/>
       <use x="354.199219" xlink:href="#DejaVuSans-56"/>
      </g>
     </g>
    </g>
    <g id="xtick_7">
     <g id="line2d_13">
      <path clip-path="url(#pc4d2055f0b)" d="M 712.914106 616.52 
L 712.914106 7.2 
" style="fill:none;stroke:#ffffff;stroke-linecap:square;stroke-width:0.8;"/>
     </g>
     <g id="line2d_14">
      <g>
       <use style="fill:#555555;stroke:#555555;stroke-width:0.8;" x="712.914106" xlink:href="#m376837793a" y="616.52"/>
      </g>
     </g>
     <g id="text_7">
      <!-- 2020-09 -->
      <g style="fill:#555555;" transform="translate(692.0227 631.118437)scale(0.1 -0.1)">
       <defs>
        <path d="M 10.984375 1.515625 
L 10.984375 10.5 
Q 14.703125 8.734375 18.5 7.8125 
Q 22.3125 6.890625 25.984375 6.890625 
Q 35.75 6.890625 40.890625 13.453125 
Q 46.046875 20.015625 46.78125 33.40625 
Q 43.953125 29.203125 39.59375 26.953125 
Q 35.25 24.703125 29.984375 24.703125 
Q 19.046875 24.703125 12.671875 31.3125 
Q 6.296875 37.9375 6.296875 49.421875 
Q 6.296875 60.640625 12.9375 67.421875 
Q 19.578125 74.21875 30.609375 74.21875 
Q 43.265625 74.21875 49.921875 64.515625 
Q 56.59375 54.828125 56.59375 36.375 
Q 56.59375 19.140625 48.40625 8.859375 
Q 40.234375 -1.421875 26.421875 -1.421875 
Q 22.703125 -1.421875 18.890625 -0.6875 
Q 15.09375 0.046875 10.984375 1.515625 
z
M 30.609375 32.421875 
Q 37.25 32.421875 41.125 36.953125 
Q 45.015625 41.5 45.015625 49.421875 
Q 45.015625 57.28125 41.125 61.84375 
Q 37.25 66.40625 30.609375 66.40625 
Q 23.96875 66.40625 20.09375 61.84375 
Q 16.21875 57.28125 16.21875 49.421875 
Q 16.21875 41.5 20.09375 36.953125 
Q 23.96875 32.421875 30.609375 32.421875 
z
" id="DejaVuSans-57"/>
       </defs>
       <use xlink:href="#DejaVuSans-50"/>
       <use x="63.623047" xlink:href="#DejaVuSans-48"/>
       <use x="127.246094" xlink:href="#DejaVuSans-50"/>
       <use x="190.869141" xlink:href="#DejaVuSans-48"/>
       <use x="254.492188" xlink:href="#DejaVuSans-45"/>
       <use x="290.576172" xlink:href="#DejaVuSans-48"/>
       <use x="354.199219" xlink:href="#DejaVuSans-57"/>
      </g>
     </g>
    </g>
    <g id="xtick_8">
     <g id="line2d_15">
      <path clip-path="url(#pc4d2055f0b)" d="M 815.207886 616.52 
L 815.207886 7.2 
" style="fill:none;stroke:#ffffff;stroke-linecap:square;stroke-width:0.8;"/>
     </g>
     <g id="line2d_16">
      <g>
       <use style="fill:#555555;stroke:#555555;stroke-width:0.8;" x="815.207886" xlink:href="#m376837793a" y="616.52"/>
      </g>
     </g>
     <g id="text_8">
      <!-- 2020-10 -->
      <g style="fill:#555555;" transform="translate(794.31648 631.118437)scale(0.1 -0.1)">
       <defs>
        <path d="M 12.40625 8.296875 
L 28.515625 8.296875 
L 28.515625 63.921875 
L 10.984375 60.40625 
L 10.984375 69.390625 
L 28.421875 72.90625 
L 38.28125 72.90625 
L 38.28125 8.296875 
L 54.390625 8.296875 
L 54.390625 0 
L 12.40625 0 
z
" id="DejaVuSans-49"/>
       </defs>
       <use xlink:href="#DejaVuSans-50"/>
       <use x="63.623047" xlink:href="#DejaVuSans-48"/>
       <use x="127.246094" xlink:href="#DejaVuSans-50"/>
       <use x="190.869141" xlink:href="#DejaVuSans-48"/>
       <use x="254.492188" xlink:href="#DejaVuSans-45"/>
       <use x="290.576172" xlink:href="#DejaVuSans-49"/>
       <use x="354.199219" xlink:href="#DejaVuSans-48"/>
      </g>
     </g>
    </g>
    <g id="xtick_9">
     <g id="line2d_17">
      <path clip-path="url(#pc4d2055f0b)" d="M 920.911458 616.52 
L 920.911458 7.2 
" style="fill:none;stroke:#ffffff;stroke-linecap:square;stroke-width:0.8;"/>
     </g>
     <g id="line2d_18">
      <g>
       <use style="fill:#555555;stroke:#555555;stroke-width:0.8;" x="920.911458" xlink:href="#m376837793a" y="616.52"/>
      </g>
     </g>
     <g id="text_9">
      <!-- 2020-11 -->
      <g style="fill:#555555;" transform="translate(900.020052 631.118437)scale(0.1 -0.1)">
       <use xlink:href="#DejaVuSans-50"/>
       <use x="63.623047" xlink:href="#DejaVuSans-48"/>
       <use x="127.246094" xlink:href="#DejaVuSans-50"/>
       <use x="190.869141" xlink:href="#DejaVuSans-48"/>
       <use x="254.492188" xlink:href="#DejaVuSans-45"/>
       <use x="290.576172" xlink:href="#DejaVuSans-49"/>
       <use x="354.199219" xlink:href="#DejaVuSans-49"/>
      </g>
     </g>
    </g>
    <g id="xtick_10">
     <g id="line2d_19">
      <path clip-path="url(#pc4d2055f0b)" d="M 1023.205238 616.52 
L 1023.205238 7.2 
" style="fill:none;stroke:#ffffff;stroke-linecap:square;stroke-width:0.8;"/>
     </g>
     <g id="line2d_20">
      <g>
       <use style="fill:#555555;stroke:#555555;stroke-width:0.8;" x="1023.205238" xlink:href="#m376837793a" y="616.52"/>
      </g>
     </g>
     <g id="text_10">
      <!-- 2020-12 -->
      <g style="fill:#555555;" transform="translate(1002.313832 631.118437)scale(0.1 -0.1)">
       <use xlink:href="#DejaVuSans-50"/>
       <use x="63.623047" xlink:href="#DejaVuSans-48"/>
       <use x="127.246094" xlink:href="#DejaVuSans-50"/>
       <use x="190.869141" xlink:href="#DejaVuSans-48"/>
       <use x="254.492188" xlink:href="#DejaVuSans-45"/>
       <use x="290.576172" xlink:href="#DejaVuSans-49"/>
       <use x="354.199219" xlink:href="#DejaVuSans-50"/>
      </g>
     </g>
    </g>
   </g>
   <g id="matplotlib.axis_2">
    <g id="ytick_1">
     <g id="line2d_21">
      <path clip-path="url(#pc4d2055f0b)" d="M 30.103125 594.07505 
L 1099.073125 594.07505 
" style="fill:none;stroke:#ffffff;stroke-linecap:square;stroke-width:0.8;"/>
     </g>
     <g id="line2d_22">
      <defs>
       <path d="M 0 0 
L -3.5 0 
" id="m529283f30b" style="stroke:#555555;stroke-width:0.8;"/>
      </defs>
      <g>
       <use style="fill:#555555;stroke:#555555;stroke-width:0.8;" x="30.103125" xlink:href="#m529283f30b" y="594.07505"/>
      </g>
     </g>
     <g id="text_11">
      <!-- 0.5 -->
      <g style="fill:#555555;" transform="translate(7.2 597.874268)scale(0.1 -0.1)">
       <defs>
        <path d="M 10.6875 12.40625 
L 21 12.40625 
L 21 0 
L 10.6875 0 
z
" id="DejaVuSans-46"/>
       </defs>
       <use xlink:href="#DejaVuSans-48"/>
       <use x="63.623047" xlink:href="#DejaVuSans-46"/>
       <use x="95.410156" xlink:href="#DejaVuSans-53"/>
      </g>
     </g>
    </g>
    <g id="ytick_2">
     <g id="line2d_23">
      <path clip-path="url(#pc4d2055f0b)" d="M 30.103125 519.259461 
L 1099.073125 519.259461 
" style="fill:none;stroke:#ffffff;stroke-linecap:square;stroke-width:0.8;"/>
     </g>
     <g id="line2d_24">
      <g>
       <use style="fill:#555555;stroke:#555555;stroke-width:0.8;" x="30.103125" xlink:href="#m529283f30b" y="519.259461"/>
      </g>
     </g>
     <g id="text_12">
      <!-- 1.0 -->
      <g style="fill:#555555;" transform="translate(7.2 523.05868)scale(0.1 -0.1)">
       <use xlink:href="#DejaVuSans-49"/>
       <use x="63.623047" xlink:href="#DejaVuSans-46"/>
       <use x="95.410156" xlink:href="#DejaVuSans-48"/>
      </g>
     </g>
    </g>
    <g id="ytick_3">
     <g id="line2d_25">
      <path clip-path="url(#pc4d2055f0b)" d="M 30.103125 444.443873 
L 1099.073125 444.443873 
" style="fill:none;stroke:#ffffff;stroke-linecap:square;stroke-width:0.8;"/>
     </g>
     <g id="line2d_26">
      <g>
       <use style="fill:#555555;stroke:#555555;stroke-width:0.8;" x="30.103125" xlink:href="#m529283f30b" y="444.443873"/>
      </g>
     </g>
     <g id="text_13">
      <!-- 1.5 -->
      <g style="fill:#555555;" transform="translate(7.2 448.243091)scale(0.1 -0.1)">
       <use xlink:href="#DejaVuSans-49"/>
       <use x="63.623047" xlink:href="#DejaVuSans-46"/>
       <use x="95.410156" xlink:href="#DejaVuSans-53"/>
      </g>
     </g>
    </g>
    <g id="ytick_4">
     <g id="line2d_27">
      <path clip-path="url(#pc4d2055f0b)" d="M 30.103125 369.628284 
L 1099.073125 369.628284 
" style="fill:none;stroke:#ffffff;stroke-linecap:square;stroke-width:0.8;"/>
     </g>
     <g id="line2d_28">
      <g>
       <use style="fill:#555555;stroke:#555555;stroke-width:0.8;" x="30.103125" xlink:href="#m529283f30b" y="369.628284"/>
      </g>
     </g>
     <g id="text_14">
      <!-- 2.0 -->
      <g style="fill:#555555;" transform="translate(7.2 373.427503)scale(0.1 -0.1)">
       <use xlink:href="#DejaVuSans-50"/>
       <use x="63.623047" xlink:href="#DejaVuSans-46"/>
       <use x="95.410156" xlink:href="#DejaVuSans-48"/>
      </g>
     </g>
    </g>
    <g id="ytick_5">
     <g id="line2d_29">
      <path clip-path="url(#pc4d2055f0b)" d="M 30.103125 294.812696 
L 1099.073125 294.812696 
" style="fill:none;stroke:#ffffff;stroke-linecap:square;stroke-width:0.8;"/>
     </g>
     <g id="line2d_30">
      <g>
       <use style="fill:#555555;stroke:#555555;stroke-width:0.8;" x="30.103125" xlink:href="#m529283f30b" y="294.812696"/>
      </g>
     </g>
     <g id="text_15">
      <!-- 2.5 -->
      <g style="fill:#555555;" transform="translate(7.2 298.611914)scale(0.1 -0.1)">
       <use xlink:href="#DejaVuSans-50"/>
       <use x="63.623047" xlink:href="#DejaVuSans-46"/>
       <use x="95.410156" xlink:href="#DejaVuSans-53"/>
      </g>
     </g>
    </g>
    <g id="ytick_6">
     <g id="line2d_31">
      <path clip-path="url(#pc4d2055f0b)" d="M 30.103125 219.997107 
L 1099.073125 219.997107 
" style="fill:none;stroke:#ffffff;stroke-linecap:square;stroke-width:0.8;"/>
     </g>
     <g id="line2d_32">
      <g>
       <use style="fill:#555555;stroke:#555555;stroke-width:0.8;" x="30.103125" xlink:href="#m529283f30b" y="219.997107"/>
      </g>
     </g>
     <g id="text_16">
      <!-- 3.0 -->
      <g style="fill:#555555;" transform="translate(7.2 223.796326)scale(0.1 -0.1)">
       <use xlink:href="#DejaVuSans-51"/>
       <use x="63.623047" xlink:href="#DejaVuSans-46"/>
       <use x="95.410156" xlink:href="#DejaVuSans-48"/>
      </g>
     </g>
    </g>
    <g id="ytick_7">
     <g id="line2d_33">
      <path clip-path="url(#pc4d2055f0b)" d="M 30.103125 145.181519 
L 1099.073125 145.181519 
" style="fill:none;stroke:#ffffff;stroke-linecap:square;stroke-width:0.8;"/>
     </g>
     <g id="line2d_34">
      <g>
       <use style="fill:#555555;stroke:#555555;stroke-width:0.8;" x="30.103125" xlink:href="#m529283f30b" y="145.181519"/>
      </g>
     </g>
     <g id="text_17">
      <!-- 3.5 -->
      <g style="fill:#555555;" transform="translate(7.2 148.980737)scale(0.1 -0.1)">
       <use xlink:href="#DejaVuSans-51"/>
       <use x="63.623047" xlink:href="#DejaVuSans-46"/>
       <use x="95.410156" xlink:href="#DejaVuSans-53"/>
      </g>
     </g>
    </g>
    <g id="ytick_8">
     <g id="line2d_35">
      <path clip-path="url(#pc4d2055f0b)" d="M 30.103125 70.36593 
L 1099.073125 70.36593 
" style="fill:none;stroke:#ffffff;stroke-linecap:square;stroke-width:0.8;"/>
     </g>
     <g id="line2d_36">
      <g>
       <use style="fill:#555555;stroke:#555555;stroke-width:0.8;" x="30.103125" xlink:href="#m529283f30b" y="70.36593"/>
      </g>
     </g>
     <g id="text_18">
      <!-- 4.0 -->
      <g style="fill:#555555;" transform="translate(7.2 74.165149)scale(0.1 -0.1)">
       <use xlink:href="#DejaVuSans-52"/>
       <use x="63.623047" xlink:href="#DejaVuSans-46"/>
       <use x="95.410156" xlink:href="#DejaVuSans-48"/>
      </g>
     </g>
    </g>
   </g>
   <g id="line2d_37">
    <path clip-path="url(#pc4d2055f0b)" d="M 92.331841 115.536307 
L 95.741634 85.936196 
L 99.151426 123.160492 
L 102.561219 105.3752 
L 105.971012 96.692656 
L 109.380804 106.200984 
L 112.790597 125.716565 
L 116.20039 161.412609 
L 119.610182 206.786268 
L 123.019975 217.969297 
L 126.429768 248.626385 
L 129.83956 272.733833 
L 133.249353 280.32608 
L 136.659146 286.943549 
L 140.068938 280.337666 
L 143.478731 276.290854 
L 146.888524 283.830142 
L 150.298316 291.664616 
L 153.708109 304.479743 
L 157.117902 321.944591 
L 160.527694 332.122167 
L 163.937487 340.049132 
L 167.34728 345.733765 
L 170.757072 352.385096 
L 174.166865 362.127335 
L 177.576658 374.035634 
L 180.98645 386.951356 
L 187.806036 408.167523 
L 191.215828 418.999138 
L 194.625621 431.01665 
L 198.035414 441.147125 
L 201.445206 449.374382 
L 204.854999 455.860401 
L 208.264792 461.666297 
L 211.674584 466.339943 
L 215.084377 470.248377 
L 218.49417 474.931672 
L 228.723548 487.630575 
L 232.13334 491.058076 
L 235.543133 494.113315 
L 238.952926 496.654889 
L 249.182304 502.76627 
L 252.592096 504.272261 
L 256.001889 505.35638 
L 259.411682 505.993731 
L 269.64106 507.590168 
L 283.28023 510.667774 
L 307.148779 514.430241 
L 313.968364 514.959376 
L 320.78795 515.304388 
L 344.656498 515.92398 
L 354.885876 516.411895 
L 368.525047 516.800672 
L 388.983803 517.32029 
L 395.803388 517.402609 
L 402.622973 517.401248 
L 440.130693 517.772821 
L 457.179656 517.856255 
L 467.409034 517.55753 
L 477.638412 517.120607 
L 484.457997 517.026576 
L 491.277583 517.093086 
L 504.916753 517.434333 
L 552.653851 517.850071 
L 579.932192 517.56221 
L 654.947631 516.068151 
L 682.225972 515.404493 
L 692.45535 515.257421 
L 706.094521 515.46268 
L 733.372862 515.92342 
L 767.470788 515.453647 
L 781.109959 514.962097 
L 787.929544 514.819307 
L 804.978508 514.763215 
L 825.437264 514.422196 
L 835.666642 514.053621 
L 839.076434 513.839224 
L 845.89602 513.078378 
L 856.125398 511.866406 
L 862.944983 511.050387 
L 869.764568 509.887591 
L 876.584154 508.758755 
L 886.813532 507.204365 
L 890.223324 506.553493 
L 893.633117 505.711271 
L 903.862495 502.81295 
L 910.68208 501.047419 
L 914.091873 500.155156 
L 917.501666 499.384089 
L 924.321251 498.526387 
L 931.140836 498.241258 
L 934.550629 498.195609 
L 941.370214 498.412586 
L 951.599592 498.90595 
L 961.82897 499.859083 
L 978.877934 502.015884 
L 989.107312 503.235796 
L 995.926897 503.898442 
L 1023.205238 506.007452 
L 1036.844409 506.741228 
L 1043.663994 506.816325 
L 1050.48358 506.738074 
L 1050.48358 506.738074 
" style="fill:none;stroke:#e24a33;stroke-linecap:square;stroke-width:1.5;"/>
   </g>
   <g id="line2d_38">
    <path clip-path="url(#pc4d2055f0b)" d="M 92.331841 115.536307 
L 95.741634 56.336085 
L 99.151426 197.609083 
L 102.561219 52.019323 
L 105.971012 61.962484 
L 112.790597 242.81005 
L 116.20039 365.408611 
L 119.610182 373.951701 
L 123.019975 275.890288 
L 126.429768 266.618938 
L 129.83956 230.714615 
L 133.249353 206.888353 
L 136.659146 289.132339 
L 140.068938 319.167426 
L 143.478731 345.624015 
L 146.888524 328.66531 
L 150.298316 321.460254 
L 153.708109 320.420506 
L 157.117902 329.142289 
L 160.527694 360.375372 
L 163.937487 374.656182 
L 167.34728 385.416443 
L 170.757072 375.224626 
L 177.576658 403.778604 
L 180.98645 419.552342 
L 184.396243 433.888599 
L 187.806036 449.656121 
L 191.215828 461.237746 
L 194.625621 459.34721 
L 198.035414 460.56925 
L 201.445206 461.369409 
L 204.854999 464.954475 
L 208.264792 474.52987 
L 211.674584 482.371644 
L 215.084377 488.596784 
L 218.49417 492.130276 
L 221.903962 490.571868 
L 225.313755 491.212157 
L 228.723548 494.001429 
L 232.13334 498.522374 
L 235.543133 503.758316 
L 238.952926 506.387807 
L 242.362718 506.622281 
L 245.772511 505.844471 
L 249.182304 504.227215 
L 252.592096 504.543361 
L 256.001889 506.111212 
L 259.411682 508.21977 
L 262.821474 509.994915 
L 266.231267 510.262196 
L 269.64106 509.772504 
L 273.050852 509.601132 
L 276.460645 510.25637 
L 279.870438 511.743863 
L 283.28023 513.043435 
L 286.690023 513.859578 
L 290.099816 514.166325 
L 293.509608 513.594918 
L 296.919401 513.823329 
L 300.329194 514.350402 
L 303.738986 515.14486 
L 307.148779 516.072275 
L 310.558572 516.085591 
L 320.78795 514.664488 
L 324.197742 514.942651 
L 327.607535 515.809847 
L 331.017328 516.078218 
L 334.42712 516.501072 
L 337.836913 516.273329 
L 341.246706 515.785664 
L 348.066291 516.277573 
L 351.476084 516.805906 
L 354.885876 517.162644 
L 368.525047 516.680675 
L 375.344632 517.396435 
L 378.754425 517.423346 
L 382.164218 517.66083 
L 385.57401 517.728881 
L 388.983803 517.349922 
L 392.393595 517.096059 
L 399.213181 517.182347 
L 402.622973 517.627908 
L 406.032766 517.960332 
L 412.852351 517.729416 
L 416.262144 517.570258 
L 419.671937 517.605975 
L 429.901315 517.961601 
L 433.311107 517.755137 
L 440.130693 517.723487 
L 443.540485 517.782704 
L 446.950278 518.079372 
L 457.179656 517.718581 
L 460.589449 517.25354 
L 467.409034 516.804957 
L 470.818827 516.844851 
L 474.228619 517.06479 
L 487.86779 517.041392 
L 494.687375 517.598096 
L 498.097168 517.584088 
L 501.506961 517.759481 
L 508.326546 517.427215 
L 511.736339 517.488922 
L 521.965717 517.932245 
L 525.375509 517.952742 
L 532.195095 517.664235 
L 539.01468 517.790408 
L 542.424473 518.007218 
L 549.244058 518.016874 
L 559.473436 517.395358 
L 573.112607 517.832236 
L 576.522399 517.559175 
L 579.932192 517.138682 
L 583.341985 516.949786 
L 596.981155 517.451841 
L 603.800741 516.630898 
L 607.210533 516.401867 
L 614.030119 517.023571 
L 617.439911 517.023244 
L 620.849704 517.183472 
L 624.259497 516.608161 
L 627.669289 516.156659 
L 631.079082 515.993369 
L 634.488875 516.13402 
L 637.898667 516.575442 
L 641.30846 516.712727 
L 644.718253 516.649266 
L 651.537838 515.334349 
L 654.947631 515.037406 
L 658.357423 515.470332 
L 661.767216 516.094515 
L 668.586801 516.10046 
L 671.996594 515.378493 
L 675.406387 514.804506 
L 678.816179 514.396964 
L 682.225972 514.906494 
L 685.635765 515.588262 
L 689.045557 515.703266 
L 692.45535 516.023962 
L 699.274935 515.017985 
L 702.684728 514.907557 
L 709.504313 516.02038 
L 716.323899 516.410018 
L 719.733691 516.088938 
L 723.143484 515.571172 
L 726.553277 515.486277 
L 729.963069 515.665783 
L 733.372862 515.98404 
L 736.782655 515.969981 
L 740.192447 516.105274 
L 743.60224 515.569709 
L 747.012032 515.176494 
L 750.421825 515.117066 
L 753.831618 515.267391 
L 757.24141 515.859011 
L 760.651203 515.918365 
L 764.060996 515.775598 
L 767.470788 515.061606 
L 774.290374 514.00941 
L 777.700166 514.357824 
L 781.109959 515.110794 
L 784.519752 515.186872 
L 787.929544 515.507558 
L 791.339337 515.078335 
L 794.74913 514.408188 
L 798.158922 514.056731 
L 801.568715 514.279549 
L 804.978508 514.82527 
L 808.3883 514.885822 
L 811.798093 515.293227 
L 815.207886 514.728104 
L 818.617678 513.960491 
L 825.437264 513.519721 
L 828.847056 514.138836 
L 832.256849 514.192857 
L 835.666642 514.092602 
L 839.076434 513.227319 
L 842.486227 511.678207 
L 845.89602 510.699107 
L 849.305812 510.444827 
L 852.715605 511.318455 
L 856.125398 511.604323 
L 859.53519 511.505689 
L 862.944983 510.102101 
L 866.354776 507.904998 
L 869.764568 506.332745 
L 873.174361 506.305903 
L 876.584154 507.555528 
L 883.403739 508.293146 
L 886.813532 506.062684 
L 890.223324 503.348889 
L 893.633117 500.437193 
L 897.04291 499.360481 
L 900.452702 500.89177 
L 907.272288 501.780213 
L 910.68208 500.216902 
L 914.091873 497.103049 
L 917.501666 495.039724 
L 920.911458 496.015969 
L 924.321251 498.232366 
L 927.731044 499.953848 
L 931.140836 501.126949 
L 934.550629 499.897356 
L 937.960422 497.656985 
L 941.370214 496.00463 
L 944.780007 496.942374 
L 948.1898 499.294319 
L 951.599592 501.419041 
L 955.009385 503.14002 
L 958.419178 502.116643 
L 961.82897 500.096552 
L 965.238763 498.881283 
L 968.648556 499.673404 
L 972.058348 502.489931 
L 975.468141 504.77656 
L 978.877934 506.076815 
L 982.287726 505.199782 
L 985.697519 502.90185 
L 989.107312 501.532227 
L 992.517104 502.169956 
L 995.926897 504.631907 
L 999.33669 506.689801 
L 1002.746482 507.656002 
L 1006.156275 506.705322 
L 1009.566068 504.839808 
L 1012.97586 503.669464 
L 1016.385653 504.540205 
L 1019.795446 506.51843 
L 1023.205238 508.122932 
L 1026.615031 508.935906 
L 1030.024824 507.92892 
L 1033.434616 506.214433 
L 1036.844409 504.927772 
L 1040.254202 505.017698 
L 1047.073787 508.019531 
L 1050.48358 508.491549 
L 1050.48358 508.491549 
" style="fill:none;stroke:#e24a33;stroke-dasharray:1.5,2.475;stroke-dashoffset:0;stroke-width:1.5;"/>
   </g>
   <g id="line2d_39">
    <path clip-path="url(#pc4d2055f0b)" d="M 92.331841 265.168783 
L 95.741634 235.568984 
L 99.151426 272.793495 
L 102.561219 255.008927 
L 105.971012 212.429919 
L 109.380804 207.897317 
L 112.790597 215.889854 
L 116.20039 244.547969 
L 119.610182 283.130054 
L 123.019975 280.082255 
L 126.429768 291.206597 
L 129.83956 299.439693 
L 133.249353 277.962844 
L 136.659146 282.743784 
L 140.068938 266.25171 
L 143.478731 256.138993 
L 150.298316 273.879604 
L 153.708109 305.552643 
L 157.117902 345.574608 
L 160.527694 358.157292 
L 163.937487 367.400789 
L 167.34728 371.575825 
L 170.757072 375.093093 
L 174.166865 385.790347 
L 177.576658 401.889033 
L 180.98645 422.30446 
L 184.396243 437.974641 
L 194.625621 482.740112 
L 198.035414 495.632212 
L 201.445206 503.172764 
L 208.264792 508.141238 
L 211.674584 510.889121 
L 215.084377 514.247359 
L 218.49417 521.129574 
L 221.903962 526.43367 
L 225.313755 532.2516 
L 228.723548 538.827111 
L 232.13334 541.908456 
L 235.543133 546.904315 
L 238.952926 551.023567 
L 245.772511 555.264767 
L 249.182304 552.646585 
L 252.592096 547.262351 
L 256.001889 542.410192 
L 259.411682 537.022584 
L 262.821474 534.234789 
L 266.231267 532.442948 
L 269.64106 531.454144 
L 273.050852 534.307061 
L 276.460645 538.862308 
L 279.870438 544.172585 
L 283.28023 548.591648 
L 286.690023 550.506379 
L 290.099816 552.19231 
L 293.509608 552.140895 
L 296.919401 552.817531 
L 300.329194 554.832461 
L 303.738986 556.043443 
L 307.148779 558.738754 
L 310.558572 558.757505 
L 313.968364 555.390299 
L 317.378157 550.29507 
L 320.78795 537.234249 
L 324.197742 526.8038 
L 327.607535 523.624449 
L 331.017328 518.915672 
L 334.42712 518.726755 
L 337.836913 519.915148 
L 341.246706 519.708195 
L 344.656498 530.284849 
L 348.066291 537.004454 
L 351.476084 540.328103 
L 354.885876 544.653609 
L 361.705462 540.405611 
L 365.115254 540.48051 
L 368.525047 534.80858 
L 371.93484 536.716707 
L 375.344632 537.896438 
L 378.754425 534.981042 
L 382.164218 537.359276 
L 385.57401 540.665548 
L 388.983803 540.338192 
L 392.393595 541.558766 
L 395.803388 533.404005 
L 399.213181 518.386278 
L 402.622973 515.824631 
L 406.032766 516.645233 
L 409.442559 517.205246 
L 412.852351 524.569442 
L 416.262144 528.304726 
L 419.671937 528.912123 
L 423.081729 536.315408 
L 426.491522 535.416369 
L 429.901315 531.528652 
L 433.311107 525.376389 
L 436.7209 518.057398 
L 440.130693 515.667992 
L 443.540485 519.522784 
L 446.950278 527.804979 
L 450.360071 529.664589 
L 453.769863 528.196145 
L 457.179656 524.590281 
L 460.589449 504.339988 
L 463.999241 487.066574 
L 467.409034 463.979994 
L 470.818827 442.420781 
L 474.228619 435.230373 
L 477.638412 430.481214 
L 481.048205 434.889292 
L 484.457997 459.195892 
L 487.86779 479.461279 
L 491.277583 509.052167 
L 494.687375 530.226024 
L 498.097168 537.661886 
L 501.506961 545.900411 
L 504.916753 546.160294 
L 508.326546 539.946146 
L 511.736339 538.750842 
L 515.146131 534.465877 
L 518.555924 534.002442 
L 521.965717 536.38092 
L 528.785302 534.00238 
L 532.195095 532.134137 
L 535.604887 528.059752 
L 539.01468 526.163056 
L 542.424473 525.137017 
L 545.834265 523.572511 
L 549.244058 522.544951 
L 552.653851 520.496363 
L 556.063643 512.619686 
L 562.883229 495.445598 
L 566.293021 489.918395 
L 569.702814 488.595929 
L 573.112607 488.836079 
L 576.522399 489.358422 
L 579.932192 491.139108 
L 583.341985 489.5287 
L 586.751777 486.292032 
L 590.16157 482.536827 
L 593.571363 480.965241 
L 596.981155 480.226297 
L 600.390948 478.831453 
L 603.800741 481.642688 
L 607.210533 483.503366 
L 610.620326 488.177664 
L 614.030119 493.378464 
L 617.439911 494.153653 
L 620.849704 495.321271 
L 624.259497 494.600155 
L 627.669289 492.407823 
L 631.079082 494.262169 
L 634.488875 491.676839 
L 637.898667 491.222954 
L 641.30846 491.831749 
L 644.718253 489.898534 
L 648.128045 490.262792 
L 651.537838 488.570694 
L 654.947631 483.701662 
L 658.357423 485.477326 
L 661.767216 486.177217 
L 665.177009 486.669063 
L 668.586801 487.668288 
L 671.996594 487.781597 
L 675.406387 489.283171 
L 678.816179 491.942261 
L 682.225972 493.949843 
L 685.635765 494.714281 
L 689.045557 494.465942 
L 692.45535 496.331372 
L 695.865143 500.499435 
L 699.274935 506.751032 
L 702.684728 515.234822 
L 706.094521 520.093526 
L 709.504313 521.850863 
L 712.914106 524.127457 
L 716.323899 524.556981 
L 719.733691 525.192089 
L 723.143484 525.59852 
L 726.553277 524.684047 
L 729.963069 522.609934 
L 733.372862 518.809894 
L 740.192447 510.216924 
L 743.60224 505.38165 
L 747.012032 502.652752 
L 753.831618 502.52348 
L 757.24141 505.238246 
L 760.651203 506.980664 
L 764.060996 506.787841 
L 767.470788 506.128386 
L 770.880581 502.2635 
L 774.290374 494.351311 
L 777.700166 490.808249 
L 781.109959 489.081468 
L 784.519752 488.034531 
L 787.929544 490.886473 
L 791.339337 495.616745 
L 794.74913 501.386006 
L 798.158922 508.842909 
L 801.568715 510.839527 
L 804.978508 509.059412 
L 811.798093 506.835699 
L 815.207886 505.453055 
L 818.617678 504.789804 
L 822.027471 505.165382 
L 825.437264 502.138777 
L 828.847056 500.381092 
L 832.256849 498.987909 
L 835.666642 494.710277 
L 839.076434 491.171079 
L 842.486227 484.113423 
L 845.89602 473.549796 
L 849.305812 467.260216 
L 852.715605 462.579508 
L 856.125398 460.962953 
L 859.53519 461.264646 
L 862.944983 461.147287 
L 866.354776 462.191245 
L 869.764568 462.157251 
L 873.174361 462.940608 
L 876.584154 463.507902 
L 879.993946 463.378985 
L 883.403739 464.191497 
L 886.813532 464.109456 
L 890.223324 465.266723 
L 893.633117 465.240724 
L 897.04291 461.28647 
L 900.452702 457.918589 
L 903.862495 453.996303 
L 907.272288 451.299857 
L 910.68208 451.889397 
L 914.091873 454.5772 
L 917.501666 461.225644 
L 920.911458 471.928457 
L 924.321251 478.09318 
L 927.731044 483.684392 
L 931.140836 487.622845 
L 934.550629 490.386188 
L 937.960422 494.500827 
L 941.370214 497.875665 
L 944.780007 500.239962 
L 948.1898 502.079328 
L 951.599592 503.401743 
L 955.009385 505.051756 
L 965.238763 510.68315 
L 968.648556 511.390102 
L 972.058348 513.111604 
L 975.468141 515.326703 
L 982.287726 518.74511 
L 985.697519 518.87405 
L 992.517104 515.575085 
L 995.926897 514.487943 
L 999.33669 514.684699 
L 1002.746482 514.99352 
L 1009.566068 515.15799 
L 1012.97586 514.930744 
L 1016.385653 515.737308 
L 1019.795446 516.663693 
L 1026.615031 517.312474 
L 1030.024824 516.912208 
L 1033.434616 516.241206 
L 1036.844409 515.035058 
L 1040.254202 511.95646 
L 1043.663994 509.318725 
L 1050.48358 505.379879 
L 1050.48358 505.379879 
" style="fill:none;stroke:#348abd;stroke-linecap:square;stroke-width:1.5;"/>
   </g>
   <g id="line2d_40">
    <path clip-path="url(#pc4d2055f0b)" d="M 92.331841 265.168783 
L 95.741634 205.969184 
L 99.151426 347.242518 
L 102.561219 201.655221 
L 105.971012 42.11389 
L 109.380804 185.234308 
L 112.790597 263.845071 
L 116.20039 465.77559 
L 119.610182 476.043779 
L 123.019975 325.907925 
L 126.429768 279.525613 
L 129.83956 99.745568 
L 133.249353 34.896364 
L 136.659146 297.311649 
L 140.068938 350.331076 
L 143.478731 405.254755 
L 146.888524 387.057046 
L 150.298316 342.560772 
L 153.708109 321.45684 
L 157.117902 315.050117 
L 160.527694 385.390439 
L 163.937487 415.035555 
L 167.34728 434.480004 
L 170.757072 411.677921 
L 174.166865 417.441553 
L 177.576658 434.14764 
L 180.98645 457.958104 
L 184.396243 495.081711 
L 187.806036 519.190809 
L 191.215828 535.973206 
L 194.625621 519.387759 
L 198.035414 507.686256 
L 201.445206 486.931502 
L 204.854999 474.937279 
L 208.264792 512.881856 
L 211.674584 538.425987 
L 215.084377 559.480873 
L 218.49417 567.563266 
L 221.903962 544.814925 
L 225.313755 527.657012 
L 228.723548 520.965857 
L 232.13334 534.451273 
L 235.543133 573.397001 
L 238.952926 588.315633 
L 242.362718 582.404494 
L 245.772511 559.662101 
L 249.182304 509.329733 
L 252.592096 483.276223 
L 256.001889 500.486158 
L 259.411682 535.683745 
L 262.821474 568.801069 
L 266.231267 569.861607 
L 269.64106 552.74047 
L 273.050852 529.300153 
L 276.460645 515.162956 
L 279.870438 537.658092 
L 283.28023 566.617188 
L 286.690023 582.204187 
L 290.099816 581.663125 
L 293.509608 552.380564 
L 296.919401 534.036608 
L 300.329194 529.267466 
L 303.738986 546.134964 
L 307.148779 585.484365 
L 310.558572 582.335444 
L 313.968364 558.092681 
L 317.378157 516.71396 
L 320.78795 442.610867 
L 324.197742 456.254323 
L 327.607535 523.879506 
L 334.42712 581.013023 
L 337.836913 566.41143 
L 341.246706 515.265288 
L 344.656498 516.647446 
L 348.066291 503.291561 
L 351.476084 547.145046 
L 354.885876 582.801468 
L 358.295669 566.43179 
L 361.705462 551.256682 
L 365.115254 515.789576 
L 368.525047 476.943939 
L 375.344632 555.403162 
L 378.754425 562.393697 
L 382.164218 583.079425 
L 385.57401 574.40059 
L 388.983803 513.498085 
L 392.393595 485.487955 
L 395.803388 459.565121 
L 399.213181 450.279072 
L 402.622973 544.46217 
L 406.032766 588.823636 
L 409.442559 578.320681 
L 412.852351 565.047457 
L 416.262144 511.634943 
L 419.671937 463.816904 
L 423.081729 502.102064 
L 426.491522 538.168896 
L 429.901315 561.609618 
L 433.311107 535.254839 
L 436.7209 513.81452 
L 440.130693 494.909104 
L 443.540485 490.800446 
L 446.950278 560.07743 
L 450.360071 551.186167 
L 453.769863 551.330511 
L 457.179656 510.013785 
L 460.589449 372.062476 
L 463.999241 373.995203 
L 467.409034 329.194386 
L 470.818827 409.162943 
L 474.228619 500.853311 
L 477.638412 518.086394 
L 481.048205 540.870332 
L 484.457997 542.208674 
L 487.86779 515.852909 
L 494.687375 557.379943 
L 498.097168 552.904341 
L 501.506961 575.756071 
L 504.916753 542.689514 
L 508.326546 498.709638 
L 511.736339 507.485781 
L 515.146131 506.335851 
L 518.555924 554.135901 
L 521.965717 569.553683 
L 525.375509 567.480287 
L 528.785302 534.315517 
L 532.195095 485.631942 
L 535.604887 478.965081 
L 539.01468 493.058982 
L 542.424473 546.953629 
L 545.834265 558.602141 
L 549.244058 560.287364 
L 552.653851 519.9754 
L 556.063643 430.495204 
L 559.473436 419.255333 
L 562.883229 432.550112 
L 566.293021 508.263214 
L 569.702814 549.344879 
L 573.112607 561.96841 
L 576.522399 523.631801 
L 579.932192 442.960006 
L 583.341985 407.982481 
L 586.751777 409.893436 
L 590.16157 481.976777 
L 593.571363 538.343776 
L 596.981155 556.795804 
L 600.390948 513.867892 
L 603.800741 462.63865 
L 607.210533 421.007226 
L 610.620326 442.613522 
L 614.030119 518.382373 
L 617.439911 543.770104 
L 620.849704 564.969132 
L 624.259497 508.820077 
L 627.669289 447.292329 
L 631.079082 433.987648 
L 634.488875 424.516208 
L 637.898667 515.205182 
L 641.30846 548.031668 
L 644.718253 551.436622 
L 648.128045 511.369888 
L 651.537838 435.447642 
L 654.947631 399.90442 
L 658.357423 436.94586 
L 661.767216 520.10442 
L 665.177009 551.474589 
L 668.586801 558.4312 
L 671.996594 512.163049 
L 675.406387 445.958657 
L 678.816179 418.51805 
L 682.225972 450.998934 
L 685.635765 525.455489 
L 689.045557 549.736212 
L 692.45535 571.489212 
L 695.865143 541.33949 
L 699.274935 489.719838 
L 702.684728 477.90458 
L 706.094521 485.009859 
L 709.504313 537.756848 
L 712.914106 565.672368 
L 716.323899 574.495885 
L 719.733691 545.785243 
L 723.143484 492.564855 
L 726.553277 471.503274 
L 729.963069 470.491068 
L 733.372862 511.156567 
L 736.782655 535.228119 
L 740.192447 544.789345 
L 743.60224 511.938326 
L 747.012032 473.462567 
L 750.421825 471.194563 
L 753.831618 469.894876 
L 757.24141 530.15993 
L 760.651203 547.425039 
L 764.060996 543.439588 
L 767.470788 507.32214 
L 770.880581 446.408363 
L 774.290374 415.809242 
L 777.700166 445.093439 
L 781.109959 518.072466 
L 784.519752 540.09648 
L 787.929544 563.40318 
L 791.339337 540.434048 
L 794.74913 486.79319 
L 798.158922 468.007561 
L 801.568715 459.069765 
L 804.978508 505.611659 
L 808.3883 532.313766 
L 811.798093 555.619907 
L 815.207886 530.755537 
L 818.617678 482.150435 
L 822.027471 470.636604 
L 825.437264 437.883529 
L 828.847056 493.307866 
L 832.256849 522.561484 
L 835.666642 525.676484 
L 839.076434 505.98115 
L 842.486227 432.746842 
L 845.89602 396.691217 
L 849.305812 393.85647 
L 852.715605 460.542909 
L 856.125398 511.245598 
L 859.53519 527.788336 
L 862.944983 505.159635 
L 866.354776 440.054547 
L 869.764568 396.453261 
L 873.174361 399.339973 
L 876.584154 464.513962 
L 879.993946 510.34318 
L 883.403739 533.475923 
L 886.813532 504.585346 
L 890.223324 448.155413 
L 893.633117 396.271267 
L 897.04291 371.660199 
L 900.452702 440.938797 
L 903.862495 482.887177 
L 907.272288 514.600798 
L 910.68208 508.71213 
L 914.091873 466.970032 
L 917.501666 442.810373 
L 920.911458 446.579889 
L 927.731044 522.025658 
L 931.140836 542.169972 
L 934.550629 528.055529 
L 937.960422 495.772504 
L 941.370214 466.434243 
L 944.780007 463.129969 
L 951.599592 531.282565 
L 955.009385 553.720063 
L 958.419178 541.199647 
L 961.82897 509.304864 
L 965.238763 479.177524 
L 968.648556 468.078633 
L 972.058348 509.017934 
L 975.468141 546.788259 
L 978.877934 565.358603 
L 982.287726 553.489957 
L 989.107312 468.038481 
L 992.517104 456.124926 
L 999.33669 548.165549 
L 1002.746482 567.520352 
L 1006.156275 553.853812 
L 1009.566068 510.994871 
L 1012.97586 466.44776 
L 1016.385653 461.770874 
L 1019.795446 507.892632 
L 1023.205238 550.599098 
L 1026.615031 569.628271 
L 1030.024824 551.051949 
L 1033.434616 506.297855 
L 1036.844409 458.004726 
L 1040.254202 440.220689 
L 1043.663994 489.428483 
L 1047.073787 536.693475 
L 1050.48358 555.961973 
L 1050.48358 555.961973 
" style="fill:none;stroke:#348abd;stroke-dasharray:1.5,2.475;stroke-dashoffset:0;stroke-width:1.5;"/>
   </g>
   <g id="line2d_41">
    <path clip-path="url(#pc4d2055f0b)" d="M 30.103125 519.259461 
L 1099.073125 519.259461 
" style="fill:none;stroke:#008000;stroke-linecap:square;stroke-opacity:0.5;stroke-width:1.5;"/>
   </g>
   <g id="patch_3">
    <path d="M 30.103125 616.52 
L 30.103125 7.2 
" style="fill:none;stroke:#ffffff;stroke-linecap:square;stroke-linejoin:miter;"/>
   </g>
   <g id="patch_4">
    <path d="M 1099.073125 616.52 
L 1099.073125 7.2 
" style="fill:none;stroke:#ffffff;stroke-linecap:square;stroke-linejoin:miter;"/>
   </g>
   <g id="patch_5">
    <path d="M 30.103125 616.52 
L 1099.073125 616.52 
" style="fill:none;stroke:#ffffff;stroke-linecap:square;stroke-linejoin:miter;"/>
   </g>
   <g id="patch_6">
    <path d="M 30.103125 7.2 
L 1099.073125 7.2 
" style="fill:none;stroke:#ffffff;stroke-linecap:square;stroke-linejoin:miter;"/>
   </g>
  </g>
  <g id="axes_2">
   <g id="matplotlib.axis_3">
    <g id="ytick_9">
     <g id="line2d_42">
      <path clip-path="url(#pc4d2055f0b)" d="M 30.103125 589.081419 
L 1099.073125 589.081419 
" style="fill:none;stroke:#ffffff;stroke-linecap:square;stroke-width:0.8;"/>
     </g>
     <g id="line2d_43">
      <defs>
       <path d="M 0 0 
L 3.5 0 
" id="m0a79ec51c3" style="stroke:#555555;stroke-width:0.8;"/>
      </defs>
      <g>
       <use style="fill:#555555;stroke:#555555;stroke-width:0.8;" x="1099.073125" xlink:href="#m0a79ec51c3" y="589.081419"/>
      </g>
     </g>
     <g id="text_19">
      <!-- 0 -->
      <g style="fill:#555555;" transform="translate(1106.073125 592.880637)scale(0.1 -0.1)">
       <use xlink:href="#DejaVuSans-48"/>
      </g>
     </g>
    </g>
    <g id="ytick_10">
     <g id="line2d_44">
      <path clip-path="url(#pc4d2055f0b)" d="M 30.103125 471.90765 
L 1099.073125 471.90765 
" style="fill:none;stroke:#ffffff;stroke-linecap:square;stroke-width:0.8;"/>
     </g>
     <g id="line2d_45">
      <g>
       <use style="fill:#555555;stroke:#555555;stroke-width:0.8;" x="1099.073125" xlink:href="#m0a79ec51c3" y="471.90765"/>
      </g>
     </g>
     <g id="text_20">
      <!-- 5000 -->
      <g style="fill:#555555;" transform="translate(1106.073125 475.706869)scale(0.1 -0.1)">
       <use xlink:href="#DejaVuSans-53"/>
       <use x="63.623047" xlink:href="#DejaVuSans-48"/>
       <use x="127.246094" xlink:href="#DejaVuSans-48"/>
       <use x="190.869141" xlink:href="#DejaVuSans-48"/>
      </g>
     </g>
    </g>
    <g id="ytick_11">
     <g id="line2d_46">
      <path clip-path="url(#pc4d2055f0b)" d="M 30.103125 354.733882 
L 1099.073125 354.733882 
" style="fill:none;stroke:#ffffff;stroke-linecap:square;stroke-width:0.8;"/>
     </g>
     <g id="line2d_47">
      <g>
       <use style="fill:#555555;stroke:#555555;stroke-width:0.8;" x="1099.073125" xlink:href="#m0a79ec51c3" y="354.733882"/>
      </g>
     </g>
     <g id="text_21">
      <!-- 10000 -->
      <g style="fill:#555555;" transform="translate(1106.073125 358.533101)scale(0.1 -0.1)">
       <use xlink:href="#DejaVuSans-49"/>
       <use x="63.623047" xlink:href="#DejaVuSans-48"/>
       <use x="127.246094" xlink:href="#DejaVuSans-48"/>
       <use x="190.869141" xlink:href="#DejaVuSans-48"/>
       <use x="254.492188" xlink:href="#DejaVuSans-48"/>
      </g>
     </g>
    </g>
    <g id="ytick_12">
     <g id="line2d_48">
      <path clip-path="url(#pc4d2055f0b)" d="M 30.103125 237.560113 
L 1099.073125 237.560113 
" style="fill:none;stroke:#ffffff;stroke-linecap:square;stroke-width:0.8;"/>
     </g>
     <g id="line2d_49">
      <g>
       <use style="fill:#555555;stroke:#555555;stroke-width:0.8;" x="1099.073125" xlink:href="#m0a79ec51c3" y="237.560113"/>
      </g>
     </g>
     <g id="text_22">
      <!-- 15000 -->
      <g style="fill:#555555;" transform="translate(1106.073125 241.359332)scale(0.1 -0.1)">
       <use xlink:href="#DejaVuSans-49"/>
       <use x="63.623047" xlink:href="#DejaVuSans-53"/>
       <use x="127.246094" xlink:href="#DejaVuSans-48"/>
       <use x="190.869141" xlink:href="#DejaVuSans-48"/>
       <use x="254.492188" xlink:href="#DejaVuSans-48"/>
      </g>
     </g>
    </g>
    <g id="ytick_13">
     <g id="line2d_50">
      <path clip-path="url(#pc4d2055f0b)" d="M 30.103125 120.386345 
L 1099.073125 120.386345 
" style="fill:none;stroke:#ffffff;stroke-linecap:square;stroke-width:0.8;"/>
     </g>
     <g id="line2d_51">
      <g>
       <use style="fill:#555555;stroke:#555555;stroke-width:0.8;" x="1099.073125" xlink:href="#m0a79ec51c3" y="120.386345"/>
      </g>
     </g>
     <g id="text_23">
      <!-- 20000 -->
      <g style="fill:#555555;" transform="translate(1106.073125 124.185564)scale(0.1 -0.1)">
       <use xlink:href="#DejaVuSans-50"/>
       <use x="63.623047" xlink:href="#DejaVuSans-48"/>
       <use x="127.246094" xlink:href="#DejaVuSans-48"/>
       <use x="190.869141" xlink:href="#DejaVuSans-48"/>
       <use x="254.492188" xlink:href="#DejaVuSans-48"/>
      </g>
     </g>
    </g>
   </g>
   <g id="line2d_52">
    <path clip-path="url(#pc4d2055f0b)" d="M 78.69267 587.839377 
L 82.102463 588.331507 
L 85.512256 588.089347 
L 92.331841 588.162776 
L 95.741634 588.058101 
L 99.151426 587.74229 
L 102.561219 587.119595 
L 105.971012 586.634161 
L 109.380804 586.486857 
L 112.790597 585.787162 
L 116.20039 585.398815 
L 119.610182 584.712511 
L 123.019975 582.489557 
L 126.429768 580.969646 
L 129.83956 579.037953 
L 136.659146 572.767482 
L 140.068938 569.463182 
L 143.478731 566.882011 
L 146.888524 560.189715 
L 150.298316 552.606898 
L 153.708109 546.004994 
L 157.117902 542.975215 
L 160.527694 533.306705 
L 163.937487 521.187589 
L 167.34728 510.889689 
L 170.757072 503.681828 
L 174.166865 494.234275 
L 177.576658 482.218942 
L 180.98645 475.466385 
L 184.396243 473.159736 
L 187.806036 473.658561 
L 191.215828 469.189219 
L 194.625621 465.165137 
L 198.035414 463.846095 
L 201.445206 464.555833 
L 204.854999 457.957276 
L 208.264792 461.552837 
L 211.674584 464.167486 
L 215.084377 469.021828 
L 218.49417 472.978953 
L 221.903962 475.82795 
L 225.313755 482.352855 
L 228.723548 492.78132 
L 232.13334 496.597837 
L 235.543133 502.463221 
L 238.952926 507.541867 
L 242.362718 514.599076 
L 245.772511 521.103894 
L 249.182304 522.858153 
L 252.592096 524.073412 
L 256.001889 526.624452 
L 259.411682 527.618755 
L 262.821474 528.452363 
L 266.231267 530.173144 
L 269.64106 533.664922 
L 273.050852 538.867437 
L 279.870438 543.815518 
L 283.28023 545.961472 
L 286.690023 549.08499 
L 290.099816 552.010986 
L 293.509608 554.347766 
L 296.919401 558.063848 
L 300.329194 561.224192 
L 303.738986 562.359104 
L 307.148779 563.895754 
L 310.558572 565.090927 
L 313.968364 565.740404 
L 317.378157 567.179967 
L 320.78795 566.155534 
L 324.197742 566.577359 
L 327.607535 567.655358 
L 331.017328 566.825098 
L 334.42712 567.323924 
L 337.836913 568.499009 
L 341.246706 569.489965 
L 344.656498 571.60244 
L 348.066291 571.883657 
L 351.476084 571.933875 
L 354.885876 573.33996 
L 358.295669 573.343308 
L 361.705462 573.972698 
L 365.115254 575.489262 
L 368.525047 575.429001 
L 371.93484 575.93787 
L 378.754425 576.386478 
L 382.164218 577.84278 
L 385.57401 579.155127 
L 388.983803 578.214389 
L 392.393595 577.879606 
L 395.803388 578.365041 
L 399.213181 578.217736 
L 402.622973 578.950909 
L 406.032766 579.017866 
L 409.442559 578.880605 
L 412.852351 579.663995 
L 416.262144 580.772125 
L 419.671937 580.721907 
L 423.081729 581.120298 
L 426.491522 580.661646 
L 429.901315 580.741994 
L 433.311107 580.202995 
L 436.7209 581.036602 
L 443.540485 581.414906 
L 446.950278 581.488558 
L 457.179656 581.220733 
L 460.589449 579.506648 
L 463.999241 578.659649 
L 467.409034 577.186607 
L 470.818827 576.031609 
L 474.228619 575.613131 
L 477.638412 574.802958 
L 481.048205 574.635567 
L 484.457997 575.616479 
L 487.86779 575.328566 
L 491.277583 576.771477 
L 494.687375 577.692128 
L 498.097168 577.708867 
L 504.916753 578.539127 
L 508.326546 578.64291 
L 511.736339 579.530083 
L 518.555924 579.730952 
L 521.965717 580.092517 
L 532.195095 580.698472 
L 535.604887 580.845777 
L 539.01468 580.815646 
L 542.424473 581.016516 
L 545.834265 580.942863 
L 549.244058 581.096863 
L 552.653851 580.788864 
L 556.063643 580.159473 
L 559.473436 579.653952 
L 562.883229 579.807952 
L 576.522399 578.676388 
L 583.341985 577.056042 
L 593.571363 576.034956 
L 596.981155 575.264957 
L 600.390948 574.150133 
L 603.800741 573.966003 
L 607.210533 573.383482 
L 610.620326 573.60109 
L 614.030119 573.035308 
L 617.439911 572.211744 
L 620.849704 572.020918 
L 624.259497 571.542179 
L 627.669289 570.614833 
L 631.079082 570.055746 
L 634.488875 569.001183 
L 637.898667 569.245574 
L 641.30846 568.954313 
L 644.718253 567.330619 
L 648.128045 565.991491 
L 654.947631 563.999537 
L 658.357423 563.765189 
L 661.767216 563.346711 
L 665.177009 561.927235 
L 671.996594 560.099324 
L 675.406387 560.172976 
L 678.816179 558.100674 
L 685.635765 557.072893 
L 689.045557 557.447849 
L 692.45535 557.226893 
L 695.865143 557.896457 
L 699.274935 557.414371 
L 702.684728 559.272412 
L 706.094521 559.262369 
L 709.504313 559.600499 
L 712.914106 559.801368 
L 716.323899 560.872671 
L 719.733691 561.528844 
L 726.553277 562.262017 
L 733.372862 560.899453 
L 736.782655 559.958715 
L 740.192447 560.226541 
L 743.60224 558.281457 
L 747.012032 558.177674 
L 750.421825 557.334023 
L 753.831618 557.467936 
L 757.24141 557.089632 
L 760.651203 557.397632 
L 764.060996 554.970461 
L 767.470788 553.959419 
L 770.880581 552.513159 
L 774.290374 550.280162 
L 777.700166 548.951077 
L 781.109959 548.967816 
L 784.519752 547.581818 
L 787.929544 548.02373 
L 791.339337 548.194469 
L 798.158922 546.697993 
L 801.568715 546.480384 
L 808.3883 544.679256 
L 811.798093 544.582169 
L 815.207886 543.376953 
L 818.617678 541.636086 
L 822.027471 541.448608 
L 825.437264 538.539351 
L 828.847056 537.903264 
L 832.256849 536.061962 
L 835.666642 532.613706 
L 839.076434 527.407843 
L 842.486227 521.237807 
L 845.89602 514.013207 
L 849.305812 509.982429 
L 852.715605 506.350043 
L 856.125398 501.385223 
L 859.53519 493.671841 
L 862.944983 485.03446 
L 866.354776 475.600298 
L 869.764568 465.191919 
L 873.174361 458.148102 
L 876.584154 451.927849 
L 879.993946 442.73473 
L 883.403739 434.489044 
L 886.813532 418.92502 
L 890.223324 405.841732 
L 893.633117 382.795325 
L 897.04291 364.084349 
L 900.452702 349.487845 
L 903.862495 334.285385 
L 907.272288 309.615285 
L 910.68208 291.245786 
L 914.091873 266.341339 
L 917.501666 251.795052 
L 920.911458 241.748239 
L 924.321251 230.32547 
L 927.731044 217.125008 
L 931.140836 209.592409 
L 934.550629 198.825813 
L 937.960422 189.368216 
L 941.370214 174.838669 
L 944.780007 168.678677 
L 948.1898 164.440334 
L 951.599592 164.507291 
L 955.009385 160.245513 
L 958.419178 153.964999 
L 961.82897 147.148834 
L 965.238763 150.289091 
L 968.648556 147.175616 
L 972.058348 155.675736 
L 978.877934 161.832381 
L 982.287726 159.344949 
L 985.697519 158.99008 
L 989.107312 157.306126 
L 992.517104 161.343599 
L 995.926897 161.209686 
L 999.33669 164.105552 
L 1002.746482 160.516687 
L 1006.156275 161.658294 
L 1009.566068 164.47716 
L 1012.97586 168.725546 
L 1016.385653 172.508585 
L 1019.795446 171.487499 
L 1023.205238 171.320108 
L 1026.615031 175.88319 
L 1030.024824 176.626406 
L 1033.434616 174.473757 
L 1036.844409 169.040242 
L 1040.254202 158.474515 
L 1043.663994 154.580999 
L 1047.073787 153.074479 
L 1050.48358 141.20645 
L 1050.48358 141.20645 
" style="fill:none;stroke:#000000;stroke-linecap:square;stroke-width:1.5;"/>
   </g>
   <g id="line2d_53">
    <path clip-path="url(#pc4d2055f0b)" d="M 78.69267 587.839377 
L 82.102463 588.823636 
L 85.512256 587.605029 
L 88.922048 588.425246 
L 92.331841 588.120594 
L 95.741634 587.534725 
L 99.151426 585.847423 
L 102.561219 583.480513 
L 105.971012 585.425597 
L 109.380804 586.5739 
L 112.790597 583.527382 
L 116.20039 585.402162 
L 119.610182 582.7306 
L 123.019975 570.286746 
L 126.429768 572.841134 
L 129.83956 571.903744 
L 133.249353 564.638971 
L 136.659146 561.569018 
L 140.068938 562.27206 
L 143.478731 564.662405 
L 146.888524 523.440674 
L 150.298316 519.761417 
L 153.708109 525.69041 
L 157.117902 543.430518 
L 160.527694 493.889449 
L 163.937487 477.438252 
L 167.34728 492.577103 
L 174.166865 453.628542 
L 177.576658 441.583079 
L 180.98645 496.16262 
L 184.396243 477.742904 
L 187.806036 480.93003 
L 191.215828 461.291707 
L 194.625621 444.817075 
L 198.035414 444.395249 
L 201.445206 446.551247 
L 204.854999 449.972721 
L 208.264792 502.911829 
L 211.674584 499.232573 
L 215.084377 495.2721 
L 218.49417 472.516954 
L 221.903962 464.338225 
L 225.313755 492.225582 
L 228.723548 522.971979 
L 232.13334 529.627449 
L 235.543133 540.290261 
L 238.952926 530.822621 
L 242.362718 521.917415 
L 245.772511 509.871951 
L 249.182304 504.505393 
L 252.592096 531.478794 
L 256.001889 547.484731 
L 259.411682 547.250383 
L 262.821474 536.657875 
L 266.231267 533.962878 
L 269.64106 534.314399 
L 273.050852 540.923 
L 276.460645 548.375252 
L 279.870438 565.224839 
L 283.28023 562.27206 
L 286.690023 558.5225 
L 290.099816 554.444853 
L 293.509608 550.671857 
L 296.919401 566.935576 
L 300.329194 570.497659 
L 303.738986 573.169221 
L 307.148779 573.028612 
L 310.558572 566.888707 
L 313.968364 558.991195 
L 317.378157 560.748801 
L 320.78795 559.764542 
L 324.197742 573.450438 
L 327.607535 580.715212 
L 331.017328 567.216793 
L 334.42712 570.380485 
L 337.836913 567.216793 
L 341.246706 567.685489 
L 344.656498 574.551871 
L 348.066291 575.418957 
L 351.476084 581.066733 
L 354.885876 577.05939 
L 358.295669 570.40392 
L 361.705462 571.622527 
L 365.115254 578.301432 
L 368.525047 574.130046 
L 371.93484 578.98104 
L 375.344632 582.308775 
L 378.754425 578.957605 
L 382.164218 580.598038 
L 385.57401 580.808951 
L 388.983803 571.716266 
L 392.393595 571.78657 
L 395.803388 582.379079 
L 399.213181 581.277646 
L 402.622973 584.089816 
L 406.032766 581.066733 
L 409.442559 579.848126 
L 412.852351 577.199999 
L 416.262144 579.543474 
L 419.671937 582.027558 
L 423.081729 584.066381 
L 426.491522 580.879255 
L 429.901315 581.629167 
L 433.311107 576.07513 
L 436.7209 583.035252 
L 440.130693 580.926124 
L 443.540485 583.293034 
L 446.950278 584.581946 
L 450.360071 580.223082 
L 453.769863 580.996429 
L 457.179656 575.489262 
L 460.589449 571.036658 
L 463.999241 574.997132 
L 467.409034 572.981743 
L 470.818827 576.496956 
L 474.228619 577.293738 
L 477.638412 575.325218 
L 481.048205 574.317524 
L 484.457997 577.903041 
L 487.86779 572.981743 
L 491.277583 583.082122 
L 494.687375 582.941513 
L 498.097168 577.410911 
L 501.506961 578.160823 
L 504.916753 577.293738 
L 508.326546 578.629519 
L 511.736339 579.191953 
L 515.146131 583.480513 
L 518.555924 583.949208 
L 521.965717 579.941865 
L 525.375509 579.777821 
L 528.785302 578.723258 
L 532.195095 579.824691 
L 535.604887 580.223082 
L 539.01468 583.2696 
L 542.424473 585.355293 
L 545.834265 579.4263 
L 549.244058 580.85582 
L 552.653851 576.56726 
L 556.063643 575.418957 
L 559.473436 576.684434 
L 562.883229 584.347598 
L 566.293021 583.246165 
L 569.702814 576.848477 
L 573.112607 578.44204 
L 576.522399 575.747044 
L 579.932192 569.982094 
L 583.341985 570.778876 
L 586.751777 581.933819 
L 590.16157 581.113602 
L 593.571363 574.24722 
L 596.981155 573.052047 
L 600.390948 567.943271 
L 603.800741 568.693183 
L 607.210533 566.701229 
L 610.620326 583.457078 
L 614.030119 577.153129 
L 617.439911 568.48227 
L 620.849704 571.716266 
L 624.259497 564.592101 
L 627.669289 562.201756 
L 631.079082 562.787625 
L 634.488875 576.07513 
L 637.898667 578.863866 
L 641.30846 566.443447 
L 644.718253 560.350411 
L 648.128045 555.2182 
L 651.537838 555.124461 
L 654.947631 555.921242 
L 658.357423 574.434698 
L 661.767216 575.934522 
L 665.177009 556.507111 
L 668.586801 553.694941 
L 671.996594 549.078294 
L 675.406387 555.640025 
L 678.816179 541.41513 
L 682.225972 570.755441 
L 685.635765 572.419309 
L 689.045557 559.131803 
L 692.45535 552.148247 
L 695.865143 553.765245 
L 699.274935 552.265421 
L 702.684728 554.421418 
L 706.094521 570.685137 
L 709.504313 574.786219 
L 712.914106 560.537889 
L 716.323899 559.647368 
L 719.733691 558.358457 
L 723.143484 555.030722 
L 726.553277 556.788328 
L 729.963069 565.927882 
L 733.372862 570.005529 
L 736.782655 553.952723 
L 740.192447 561.522148 
L 743.60224 544.742865 
L 747.012032 554.304244 
L 750.421825 550.88277 
L 753.831618 566.865272 
L 757.24141 567.357402 
L 764.060996 544.531952 
L 767.470788 537.665569 
L 770.880581 544.180431 
L 774.290374 535.251789 
L 777.700166 557.561675 
L 781.109959 567.474576 
L 784.519752 546.406732 
L 787.929544 547.625339 
L 791.339337 538.860742 
L 794.74913 538.626394 
L 798.158922 530.330491 
L 801.568715 556.038416 
L 804.978508 561.147192 
L 808.3883 540.126218 
L 811.798093 546.945732 
L 815.207886 530.42423 
L 818.617678 526.440322 
L 822.027471 529.018145 
L 825.437264 535.673615 
L 828.847056 556.694589 
L 832.256849 527.237104 
L 835.666642 522.807935 
L 839.076434 493.983188 
L 842.486227 483.250071 
L 845.89602 478.445947 
L 849.305812 507.458172 
L 852.715605 531.267881 
L 856.125398 492.483364 
L 859.53519 468.814263 
L 862.944983 433.521524 
L 866.354776 417.210935 
L 869.764568 405.587297 
L 873.174361 458.15145 
L 876.584154 487.726109 
L 879.993946 428.13153 
L 883.403739 411.094464 
L 886.813532 324.573354 
L 890.223324 325.627918 
L 893.633117 244.262453 
L 897.04291 327.174612 
L 900.452702 385.550583 
L 903.862495 321.714314 
L 907.272288 238.403765 
L 910.68208 195.98686 
L 914.091873 151.296785 
L 917.501666 142.438448 
L 920.911458 256.846916 
L 924.321251 305.591203 
L 927.731044 229.31108 
L 931.140836 185.675569 
L 934.550629 120.620693 
L 937.960422 85.093606 
L 941.370214 40.731617 
L 944.780007 213.726969 
L 948.1898 275.922805 
L 951.599592 229.779775 
L 955.009385 155.843127 
L 958.419178 76.657095 
L 961.82897 37.380448 
L 965.238763 62.713416 
L 968.648556 191.932648 
L 972.058348 335.423645 
L 975.468141 251.175705 
L 978.877934 177.543709 
L 982.287726 59.245073 
L 985.697519 34.896364 
L 989.107312 50.925735 
L 992.517104 220.194961 
L 995.926897 334.486255 
L 999.33669 271.446767 
L 1002.746482 152.421653 
L 1006.156275 67.236324 
L 1009.566068 54.628426 
L 1012.97586 80.664438 
L 1016.385653 246.676233 
L 1019.795446 327.338655 
L 1023.205238 270.27503 
L 1026.615031 184.363223 
L 1030.024824 72.438839 
L 1033.434616 39.55988 
L 1036.844409 42.629832 
L 1043.663994 300.084036 
L 1047.073787 259.72939 
L 1050.48358 101.287021 
L 1050.48358 101.287021 
" style="fill:none;stroke:#000000;stroke-dasharray:1.5,2.475;stroke-dashoffset:0;stroke-width:1.5;"/>
   </g>
   <g id="patch_7">
    <path d="M 30.103125 616.52 
L 30.103125 7.2 
" style="fill:none;stroke:#ffffff;stroke-linecap:square;stroke-linejoin:miter;"/>
   </g>
   <g id="patch_8">
    <path d="M 1099.073125 616.52 
L 1099.073125 7.2 
" style="fill:none;stroke:#ffffff;stroke-linecap:square;stroke-linejoin:miter;"/>
   </g>
   <g id="patch_9">
    <path d="M 30.103125 616.52 
L 1099.073125 616.52 
" style="fill:none;stroke:#ffffff;stroke-linecap:square;stroke-linejoin:miter;"/>
   </g>
   <g id="patch_10">
    <path d="M 30.103125 7.2 
L 1099.073125 7.2 
" style="fill:none;stroke:#ffffff;stroke-linecap:square;stroke-linejoin:miter;"/>
   </g>
   <g id="legend_1">
    <g id="patch_11">
     <path d="M 37.103125 103.26875 
L 194.298438 103.26875 
Q 196.298438 103.26875 196.298438 101.26875 
L 196.298438 14.2 
Q 196.298438 12.2 194.298438 12.2 
L 37.103125 12.2 
Q 35.103125 12.2 35.103125 14.2 
L 35.103125 101.26875 
Q 35.103125 103.26875 37.103125 103.26875 
z
" style="fill:#e5e5e5;opacity:0.8;stroke:#cccccc;stroke-linejoin:miter;stroke-width:0.5;"/>
    </g>
    <g id="line2d_54">
     <path d="M 39.103125 20.298437 
L 59.103125 20.298437 
" style="fill:none;stroke:#e24a33;stroke-linecap:square;stroke-width:1.5;"/>
    </g>
    <g id="line2d_55"/>
    <g id="text_24">
     <!-- Logistic rate rolling week -->
     <g transform="translate(67.103125 23.798437)scale(0.1 -0.1)">
      <defs>
       <path d="M 9.8125 72.90625 
L 19.671875 72.90625 
L 19.671875 8.296875 
L 55.171875 8.296875 
L 55.171875 0 
L 9.8125 0 
z
" id="DejaVuSans-76"/>
       <path d="M 30.609375 48.390625 
Q 23.390625 48.390625 19.1875 42.75 
Q 14.984375 37.109375 14.984375 27.296875 
Q 14.984375 17.484375 19.15625 11.84375 
Q 23.34375 6.203125 30.609375 6.203125 
Q 37.796875 6.203125 41.984375 11.859375 
Q 46.1875 17.53125 46.1875 27.296875 
Q 46.1875 37.015625 41.984375 42.703125 
Q 37.796875 48.390625 30.609375 48.390625 
z
M 30.609375 56 
Q 42.328125 56 49.015625 48.375 
Q 55.71875 40.765625 55.71875 27.296875 
Q 55.71875 13.875 49.015625 6.21875 
Q 42.328125 -1.421875 30.609375 -1.421875 
Q 18.84375 -1.421875 12.171875 6.21875 
Q 5.515625 13.875 5.515625 27.296875 
Q 5.515625 40.765625 12.171875 48.375 
Q 18.84375 56 30.609375 56 
z
" id="DejaVuSans-111"/>
       <path d="M 45.40625 27.984375 
Q 45.40625 37.75 41.375 43.109375 
Q 37.359375 48.484375 30.078125 48.484375 
Q 22.859375 48.484375 18.828125 43.109375 
Q 14.796875 37.75 14.796875 27.984375 
Q 14.796875 18.265625 18.828125 12.890625 
Q 22.859375 7.515625 30.078125 7.515625 
Q 37.359375 7.515625 41.375 12.890625 
Q 45.40625 18.265625 45.40625 27.984375 
z
M 54.390625 6.78125 
Q 54.390625 -7.171875 48.1875 -13.984375 
Q 42 -20.796875 29.203125 -20.796875 
Q 24.46875 -20.796875 20.265625 -20.09375 
Q 16.0625 -19.390625 12.109375 -17.921875 
L 12.109375 -9.1875 
Q 16.0625 -11.328125 19.921875 -12.34375 
Q 23.78125 -13.375 27.78125 -13.375 
Q 36.625 -13.375 41.015625 -8.765625 
Q 45.40625 -4.15625 45.40625 5.171875 
L 45.40625 9.625 
Q 42.625 4.78125 38.28125 2.390625 
Q 33.9375 0 27.875 0 
Q 17.828125 0 11.671875 7.65625 
Q 5.515625 15.328125 5.515625 27.984375 
Q 5.515625 40.671875 11.671875 48.328125 
Q 17.828125 56 27.875 56 
Q 33.9375 56 38.28125 53.609375 
Q 42.625 51.21875 45.40625 46.390625 
L 45.40625 54.6875 
L 54.390625 54.6875 
z
" id="DejaVuSans-103"/>
       <path d="M 9.421875 54.6875 
L 18.40625 54.6875 
L 18.40625 0 
L 9.421875 0 
z
M 9.421875 75.984375 
L 18.40625 75.984375 
L 18.40625 64.59375 
L 9.421875 64.59375 
z
" id="DejaVuSans-105"/>
       <path d="M 44.28125 53.078125 
L 44.28125 44.578125 
Q 40.484375 46.53125 36.375 47.5 
Q 32.28125 48.484375 27.875 48.484375 
Q 21.1875 48.484375 17.84375 46.4375 
Q 14.5 44.390625 14.5 40.28125 
Q 14.5 37.15625 16.890625 35.375 
Q 19.28125 33.59375 26.515625 31.984375 
L 29.59375 31.296875 
Q 39.15625 29.25 43.1875 25.515625 
Q 47.21875 21.78125 47.21875 15.09375 
Q 47.21875 7.46875 41.1875 3.015625 
Q 35.15625 -1.421875 24.609375 -1.421875 
Q 20.21875 -1.421875 15.453125 -0.5625 
Q 10.6875 0.296875 5.421875 2 
L 5.421875 11.28125 
Q 10.40625 8.6875 15.234375 7.390625 
Q 20.0625 6.109375 24.8125 6.109375 
Q 31.15625 6.109375 34.5625 8.28125 
Q 37.984375 10.453125 37.984375 14.40625 
Q 37.984375 18.0625 35.515625 20.015625 
Q 33.0625 21.96875 24.703125 23.78125 
L 21.578125 24.515625 
Q 13.234375 26.265625 9.515625 29.90625 
Q 5.8125 33.546875 5.8125 39.890625 
Q 5.8125 47.609375 11.28125 51.796875 
Q 16.75 56 26.8125 56 
Q 31.78125 56 36.171875 55.265625 
Q 40.578125 54.546875 44.28125 53.078125 
z
" id="DejaVuSans-115"/>
       <path d="M 18.3125 70.21875 
L 18.3125 54.6875 
L 36.8125 54.6875 
L 36.8125 47.703125 
L 18.3125 47.703125 
L 18.3125 18.015625 
Q 18.3125 11.328125 20.140625 9.421875 
Q 21.96875 7.515625 27.59375 7.515625 
L 36.8125 7.515625 
L 36.8125 0 
L 27.59375 0 
Q 17.1875 0 13.234375 3.875 
Q 9.28125 7.765625 9.28125 18.015625 
L 9.28125 47.703125 
L 2.6875 47.703125 
L 2.6875 54.6875 
L 9.28125 54.6875 
L 9.28125 70.21875 
z
" id="DejaVuSans-116"/>
       <path d="M 48.78125 52.59375 
L 48.78125 44.1875 
Q 44.96875 46.296875 41.140625 47.34375 
Q 37.3125 48.390625 33.40625 48.390625 
Q 24.65625 48.390625 19.8125 42.84375 
Q 14.984375 37.3125 14.984375 27.296875 
Q 14.984375 17.28125 19.8125 11.734375 
Q 24.65625 6.203125 33.40625 6.203125 
Q 37.3125 6.203125 41.140625 7.25 
Q 44.96875 8.296875 48.78125 10.40625 
L 48.78125 2.09375 
Q 45.015625 0.34375 40.984375 -0.53125 
Q 36.96875 -1.421875 32.421875 -1.421875 
Q 20.0625 -1.421875 12.78125 6.34375 
Q 5.515625 14.109375 5.515625 27.296875 
Q 5.515625 40.671875 12.859375 48.328125 
Q 20.21875 56 33.015625 56 
Q 37.15625 56 41.109375 55.140625 
Q 45.0625 54.296875 48.78125 52.59375 
z
" id="DejaVuSans-99"/>
       <path id="DejaVuSans-32"/>
       <path d="M 41.109375 46.296875 
Q 39.59375 47.171875 37.8125 47.578125 
Q 36.03125 48 33.890625 48 
Q 26.265625 48 22.1875 43.046875 
Q 18.109375 38.09375 18.109375 28.8125 
L 18.109375 0 
L 9.078125 0 
L 9.078125 54.6875 
L 18.109375 54.6875 
L 18.109375 46.1875 
Q 20.953125 51.171875 25.484375 53.578125 
Q 30.03125 56 36.53125 56 
Q 37.453125 56 38.578125 55.875 
Q 39.703125 55.765625 41.0625 55.515625 
z
" id="DejaVuSans-114"/>
       <path d="M 34.28125 27.484375 
Q 23.390625 27.484375 19.1875 25 
Q 14.984375 22.515625 14.984375 16.5 
Q 14.984375 11.71875 18.140625 8.90625 
Q 21.296875 6.109375 26.703125 6.109375 
Q 34.1875 6.109375 38.703125 11.40625 
Q 43.21875 16.703125 43.21875 25.484375 
L 43.21875 27.484375 
z
M 52.203125 31.203125 
L 52.203125 0 
L 43.21875 0 
L 43.21875 8.296875 
Q 40.140625 3.328125 35.546875 0.953125 
Q 30.953125 -1.421875 24.3125 -1.421875 
Q 15.921875 -1.421875 10.953125 3.296875 
Q 6 8.015625 6 15.921875 
Q 6 25.140625 12.171875 29.828125 
Q 18.359375 34.515625 30.609375 34.515625 
L 43.21875 34.515625 
L 43.21875 35.40625 
Q 43.21875 41.609375 39.140625 45 
Q 35.0625 48.390625 27.6875 48.390625 
Q 23 48.390625 18.546875 47.265625 
Q 14.109375 46.140625 10.015625 43.890625 
L 10.015625 52.203125 
Q 14.9375 54.109375 19.578125 55.046875 
Q 24.21875 56 28.609375 56 
Q 40.484375 56 46.34375 49.84375 
Q 52.203125 43.703125 52.203125 31.203125 
z
" id="DejaVuSans-97"/>
       <path d="M 56.203125 29.59375 
L 56.203125 25.203125 
L 14.890625 25.203125 
Q 15.484375 15.921875 20.484375 11.0625 
Q 25.484375 6.203125 34.421875 6.203125 
Q 39.59375 6.203125 44.453125 7.46875 
Q 49.3125 8.734375 54.109375 11.28125 
L 54.109375 2.78125 
Q 49.265625 0.734375 44.1875 -0.34375 
Q 39.109375 -1.421875 33.890625 -1.421875 
Q 20.796875 -1.421875 13.15625 6.1875 
Q 5.515625 13.8125 5.515625 26.8125 
Q 5.515625 40.234375 12.765625 48.109375 
Q 20.015625 56 32.328125 56 
Q 43.359375 56 49.78125 48.890625 
Q 56.203125 41.796875 56.203125 29.59375 
z
M 47.21875 32.234375 
Q 47.125 39.59375 43.09375 43.984375 
Q 39.0625 48.390625 32.421875 48.390625 
Q 24.90625 48.390625 20.390625 44.140625 
Q 15.875 39.890625 15.1875 32.171875 
z
" id="DejaVuSans-101"/>
       <path d="M 9.421875 75.984375 
L 18.40625 75.984375 
L 18.40625 0 
L 9.421875 0 
z
" id="DejaVuSans-108"/>
       <path d="M 54.890625 33.015625 
L 54.890625 0 
L 45.90625 0 
L 45.90625 32.71875 
Q 45.90625 40.484375 42.875 44.328125 
Q 39.84375 48.1875 33.796875 48.1875 
Q 26.515625 48.1875 22.3125 43.546875 
Q 18.109375 38.921875 18.109375 30.90625 
L 18.109375 0 
L 9.078125 0 
L 9.078125 54.6875 
L 18.109375 54.6875 
L 18.109375 46.1875 
Q 21.34375 51.125 25.703125 53.5625 
Q 30.078125 56 35.796875 56 
Q 45.21875 56 50.046875 50.171875 
Q 54.890625 44.34375 54.890625 33.015625 
z
" id="DejaVuSans-110"/>
       <path d="M 4.203125 54.6875 
L 13.1875 54.6875 
L 24.421875 12.015625 
L 35.59375 54.6875 
L 46.1875 54.6875 
L 57.421875 12.015625 
L 68.609375 54.6875 
L 77.59375 54.6875 
L 63.28125 0 
L 52.6875 0 
L 40.921875 44.828125 
L 29.109375 0 
L 18.5 0 
z
" id="DejaVuSans-119"/>
       <path d="M 9.078125 75.984375 
L 18.109375 75.984375 
L 18.109375 31.109375 
L 44.921875 54.6875 
L 56.390625 54.6875 
L 27.390625 29.109375 
L 57.625 0 
L 45.90625 0 
L 18.109375 26.703125 
L 18.109375 0 
L 9.078125 0 
z
" id="DejaVuSans-107"/>
      </defs>
      <use xlink:href="#DejaVuSans-76"/>
      <use x="53.962891" xlink:href="#DejaVuSans-111"/>
      <use x="115.144531" xlink:href="#DejaVuSans-103"/>
      <use x="178.621094" xlink:href="#DejaVuSans-105"/>
      <use x="206.404297" xlink:href="#DejaVuSans-115"/>
      <use x="258.503906" xlink:href="#DejaVuSans-116"/>
      <use x="297.712891" xlink:href="#DejaVuSans-105"/>
      <use x="325.496094" xlink:href="#DejaVuSans-99"/>
      <use x="380.476562" xlink:href="#DejaVuSans-32"/>
      <use x="412.263672" xlink:href="#DejaVuSans-114"/>
      <use x="453.376953" xlink:href="#DejaVuSans-97"/>
      <use x="514.65625" xlink:href="#DejaVuSans-116"/>
      <use x="553.865234" xlink:href="#DejaVuSans-101"/>
      <use x="615.388672" xlink:href="#DejaVuSans-32"/>
      <use x="647.175781" xlink:href="#DejaVuSans-114"/>
      <use x="686.039062" xlink:href="#DejaVuSans-111"/>
      <use x="747.220703" xlink:href="#DejaVuSans-108"/>
      <use x="775.003906" xlink:href="#DejaVuSans-108"/>
      <use x="802.787109" xlink:href="#DejaVuSans-105"/>
      <use x="830.570312" xlink:href="#DejaVuSans-110"/>
      <use x="893.949219" xlink:href="#DejaVuSans-103"/>
      <use x="957.425781" xlink:href="#DejaVuSans-32"/>
      <use x="989.212891" xlink:href="#DejaVuSans-119"/>
      <use x="1071" xlink:href="#DejaVuSans-101"/>
      <use x="1132.523438" xlink:href="#DejaVuSans-101"/>
      <use x="1194.046875" xlink:href="#DejaVuSans-107"/>
     </g>
    </g>
    <g id="line2d_56">
     <path d="M 39.103125 34.976562 
L 59.103125 34.976562 
" style="fill:none;stroke:#e24a33;stroke-dasharray:1.5,2.475;stroke-dashoffset:0;stroke-width:1.5;"/>
    </g>
    <g id="line2d_57"/>
    <g id="text_25">
     <!-- Logistic rate -->
     <g transform="translate(67.103125 38.476562)scale(0.1 -0.1)">
      <use xlink:href="#DejaVuSans-76"/>
      <use x="53.962891" xlink:href="#DejaVuSans-111"/>
      <use x="115.144531" xlink:href="#DejaVuSans-103"/>
      <use x="178.621094" xlink:href="#DejaVuSans-105"/>
      <use x="206.404297" xlink:href="#DejaVuSans-115"/>
      <use x="258.503906" xlink:href="#DejaVuSans-116"/>
      <use x="297.712891" xlink:href="#DejaVuSans-105"/>
      <use x="325.496094" xlink:href="#DejaVuSans-99"/>
      <use x="380.476562" xlink:href="#DejaVuSans-32"/>
      <use x="412.263672" xlink:href="#DejaVuSans-114"/>
      <use x="453.376953" xlink:href="#DejaVuSans-97"/>
      <use x="514.65625" xlink:href="#DejaVuSans-116"/>
      <use x="553.865234" xlink:href="#DejaVuSans-101"/>
     </g>
    </g>
    <g id="line2d_58">
     <path d="M 39.103125 49.654687 
L 59.103125 49.654687 
" style="fill:none;stroke:#348abd;stroke-linecap:square;stroke-width:1.5;"/>
    </g>
    <g id="line2d_59"/>
    <g id="text_26">
     <!-- RKI rate rolling week -->
     <g transform="translate(67.103125 53.154687)scale(0.1 -0.1)">
      <defs>
       <path d="M 44.390625 34.1875 
Q 47.5625 33.109375 50.5625 29.59375 
Q 53.5625 26.078125 56.59375 19.921875 
L 66.609375 0 
L 56 0 
L 46.6875 18.703125 
Q 43.0625 26.03125 39.671875 28.421875 
Q 36.28125 30.8125 30.421875 30.8125 
L 19.671875 30.8125 
L 19.671875 0 
L 9.8125 0 
L 9.8125 72.90625 
L 32.078125 72.90625 
Q 44.578125 72.90625 50.734375 67.671875 
Q 56.890625 62.453125 56.890625 51.90625 
Q 56.890625 45.015625 53.6875 40.46875 
Q 50.484375 35.9375 44.390625 34.1875 
z
M 19.671875 64.796875 
L 19.671875 38.921875 
L 32.078125 38.921875 
Q 39.203125 38.921875 42.84375 42.21875 
Q 46.484375 45.515625 46.484375 51.90625 
Q 46.484375 58.296875 42.84375 61.546875 
Q 39.203125 64.796875 32.078125 64.796875 
z
" id="DejaVuSans-82"/>
       <path d="M 9.8125 72.90625 
L 19.671875 72.90625 
L 19.671875 42.09375 
L 52.390625 72.90625 
L 65.09375 72.90625 
L 28.90625 38.921875 
L 67.671875 0 
L 54.6875 0 
L 19.671875 35.109375 
L 19.671875 0 
L 9.8125 0 
z
" id="DejaVuSans-75"/>
       <path d="M 9.8125 72.90625 
L 19.671875 72.90625 
L 19.671875 0 
L 9.8125 0 
z
" id="DejaVuSans-73"/>
      </defs>
      <use xlink:href="#DejaVuSans-82"/>
      <use x="69.482422" xlink:href="#DejaVuSans-75"/>
      <use x="135.058594" xlink:href="#DejaVuSans-73"/>
      <use x="164.550781" xlink:href="#DejaVuSans-32"/>
      <use x="196.337891" xlink:href="#DejaVuSans-114"/>
      <use x="237.451172" xlink:href="#DejaVuSans-97"/>
      <use x="298.730469" xlink:href="#DejaVuSans-116"/>
      <use x="337.939453" xlink:href="#DejaVuSans-101"/>
      <use x="399.462891" xlink:href="#DejaVuSans-32"/>
      <use x="431.25" xlink:href="#DejaVuSans-114"/>
      <use x="470.113281" xlink:href="#DejaVuSans-111"/>
      <use x="531.294922" xlink:href="#DejaVuSans-108"/>
      <use x="559.078125" xlink:href="#DejaVuSans-108"/>
      <use x="586.861328" xlink:href="#DejaVuSans-105"/>
      <use x="614.644531" xlink:href="#DejaVuSans-110"/>
      <use x="678.023438" xlink:href="#DejaVuSans-103"/>
      <use x="741.5" xlink:href="#DejaVuSans-32"/>
      <use x="773.287109" xlink:href="#DejaVuSans-119"/>
      <use x="855.074219" xlink:href="#DejaVuSans-101"/>
      <use x="916.597656" xlink:href="#DejaVuSans-101"/>
      <use x="978.121094" xlink:href="#DejaVuSans-107"/>
     </g>
    </g>
    <g id="line2d_60">
     <path d="M 39.103125 64.332812 
L 59.103125 64.332812 
" style="fill:none;stroke:#348abd;stroke-dasharray:1.5,2.475;stroke-dashoffset:0;stroke-width:1.5;"/>
    </g>
    <g id="line2d_61"/>
    <g id="text_27">
     <!-- RKI rate -->
     <g transform="translate(67.103125 67.832812)scale(0.1 -0.1)">
      <use xlink:href="#DejaVuSans-82"/>
      <use x="69.482422" xlink:href="#DejaVuSans-75"/>
      <use x="135.058594" xlink:href="#DejaVuSans-73"/>
      <use x="164.550781" xlink:href="#DejaVuSans-32"/>
      <use x="196.337891" xlink:href="#DejaVuSans-114"/>
      <use x="237.451172" xlink:href="#DejaVuSans-97"/>
      <use x="298.730469" xlink:href="#DejaVuSans-116"/>
      <use x="337.939453" xlink:href="#DejaVuSans-101"/>
     </g>
    </g>
    <g id="line2d_62">
     <path d="M 39.103125 79.010937 
L 59.103125 79.010937 
" style="fill:none;stroke:#000000;stroke-linecap:square;stroke-width:1.5;"/>
    </g>
    <g id="line2d_63"/>
    <g id="text_28">
     <!-- New Cases rolling week -->
     <g transform="translate(67.103125 82.510937)scale(0.1 -0.1)">
      <defs>
       <path d="M 9.8125 72.90625 
L 23.09375 72.90625 
L 55.421875 11.921875 
L 55.421875 72.90625 
L 64.984375 72.90625 
L 64.984375 0 
L 51.703125 0 
L 19.390625 60.984375 
L 19.390625 0 
L 9.8125 0 
z
" id="DejaVuSans-78"/>
       <path d="M 64.40625 67.28125 
L 64.40625 56.890625 
Q 59.421875 61.53125 53.78125 63.8125 
Q 48.140625 66.109375 41.796875 66.109375 
Q 29.296875 66.109375 22.65625 58.46875 
Q 16.015625 50.828125 16.015625 36.375 
Q 16.015625 21.96875 22.65625 14.328125 
Q 29.296875 6.6875 41.796875 6.6875 
Q 48.140625 6.6875 53.78125 8.984375 
Q 59.421875 11.28125 64.40625 15.921875 
L 64.40625 5.609375 
Q 59.234375 2.09375 53.4375 0.328125 
Q 47.65625 -1.421875 41.21875 -1.421875 
Q 24.65625 -1.421875 15.125 8.703125 
Q 5.609375 18.84375 5.609375 36.375 
Q 5.609375 53.953125 15.125 64.078125 
Q 24.65625 74.21875 41.21875 74.21875 
Q 47.75 74.21875 53.53125 72.484375 
Q 59.328125 70.75 64.40625 67.28125 
z
" id="DejaVuSans-67"/>
      </defs>
      <use xlink:href="#DejaVuSans-78"/>
      <use x="74.804688" xlink:href="#DejaVuSans-101"/>
      <use x="136.328125" xlink:href="#DejaVuSans-119"/>
      <use x="218.115234" xlink:href="#DejaVuSans-32"/>
      <use x="249.902344" xlink:href="#DejaVuSans-67"/>
      <use x="319.726562" xlink:href="#DejaVuSans-97"/>
      <use x="381.005859" xlink:href="#DejaVuSans-115"/>
      <use x="433.105469" xlink:href="#DejaVuSans-101"/>
      <use x="494.628906" xlink:href="#DejaVuSans-115"/>
      <use x="546.728516" xlink:href="#DejaVuSans-32"/>
      <use x="578.515625" xlink:href="#DejaVuSans-114"/>
      <use x="617.378906" xlink:href="#DejaVuSans-111"/>
      <use x="678.560547" xlink:href="#DejaVuSans-108"/>
      <use x="706.34375" xlink:href="#DejaVuSans-108"/>
      <use x="734.126953" xlink:href="#DejaVuSans-105"/>
      <use x="761.910156" xlink:href="#DejaVuSans-110"/>
      <use x="825.289062" xlink:href="#DejaVuSans-103"/>
      <use x="888.765625" xlink:href="#DejaVuSans-32"/>
      <use x="920.552734" xlink:href="#DejaVuSans-119"/>
      <use x="1002.339844" xlink:href="#DejaVuSans-101"/>
      <use x="1063.863281" xlink:href="#DejaVuSans-101"/>
      <use x="1125.386719" xlink:href="#DejaVuSans-107"/>
     </g>
    </g>
    <g id="line2d_64">
     <path d="M 39.103125 93.689062 
L 59.103125 93.689062 
" style="fill:none;stroke:#000000;stroke-dasharray:1.5,2.475;stroke-dashoffset:0;stroke-width:1.5;"/>
    </g>
    <g id="line2d_65"/>
    <g id="text_29">
     <!-- New Cases -->
     <g transform="translate(67.103125 97.189062)scale(0.1 -0.1)">
      <use xlink:href="#DejaVuSans-78"/>
      <use x="74.804688" xlink:href="#DejaVuSans-101"/>
      <use x="136.328125" xlink:href="#DejaVuSans-119"/>
      <use x="218.115234" xlink:href="#DejaVuSans-32"/>
      <use x="249.902344" xlink:href="#DejaVuSans-67"/>
      <use x="319.726562" xlink:href="#DejaVuSans-97"/>
      <use x="381.005859" xlink:href="#DejaVuSans-115"/>
      <use x="433.105469" xlink:href="#DejaVuSans-101"/>
      <use x="494.628906" xlink:href="#DejaVuSans-115"/>
     </g>
    </g>
   </g>
  </g>
 </g>
 <defs>
  <clipPath id="pc4d2055f0b">
   <rect height="609.32" width="1068.97" x="30.103125" y="7.2"/>
  </clipPath>
 </defs>
</svg>
