<?xml version="1.0" encoding="utf-8" standalone="no"?>
<!DOCTYPE svg PUBLIC "-//W3C//DTD SVG 1.1//EN"
  "http://www.w3.org/Graphics/SVG/1.1/DTD/svg11.dtd">
<!-- Created with matplotlib (https://matplotlib.org/) -->
<svg height="640.398125pt" version="1.1" viewBox="0 0 1145.085625 640.398125" width="1145.085625pt" xmlns="http://www.w3.org/2000/svg" xmlns:xlink="http://www.w3.org/1999/xlink">
 <metadata>
  <rdf:RDF xmlns:cc="http://creativecommons.org/ns#" xmlns:dc="http://purl.org/dc/elements/1.1/" xmlns:rdf="http://www.w3.org/1999/02/22-rdf-syntax-ns#">
   <cc:Work>
    <dc:type rdf:resource="http://purl.org/dc/dcmitype/StillImage"/>
    <dc:date>2021-03-07T09:01:42.043274</dc:date>
    <dc:format>image/svg+xml</dc:format>
    <dc:creator>
     <cc:Agent>
      <dc:title>Matplotlib v3.3.2, https://matplotlib.org/</dc:title>
     </cc:Agent>
    </dc:creator>
   </cc:Work>
  </rdf:RDF>
 </metadata>
 <defs>
  <style type="text/css">*{stroke-linecap:butt;stroke-linejoin:round;}</style>
 </defs>
 <g id="figure_1">
  <g id="patch_1">
   <path d="M 0 640.398125 
L 1145.085625 640.398125 
L 1145.085625 0 
L 0 0 
z
" style="fill:#ffffff;"/>
  </g>
  <g id="axes_1">
   <g id="patch_2">
    <path d="M 30.103125 616.52 
L 1099.073125 616.52 
L 1099.073125 7.2 
L 30.103125 7.2 
z
" style="fill:#e5e5e5;"/>
   </g>
   <g id="matplotlib.axis_1">
    <g id="xtick_1">
     <g id="line2d_1">
      <path clip-path="url(#pc21fccab7e)" d="M 83.903346 616.52 
L 83.903346 7.2 
" style="fill:none;stroke:#ffffff;stroke-linecap:square;stroke-width:0.8;"/>
     </g>
     <g id="line2d_2">
      <defs>
       <path d="M 0 0 
L 0 3.5 
" id="m439c4cd302" style="stroke:#555555;stroke-width:0.8;"/>
      </defs>
      <g>
       <use style="fill:#555555;stroke:#555555;stroke-width:0.8;" x="83.903346" xlink:href="#m439c4cd302" y="616.52"/>
      </g>
     </g>
     <g id="text_1">
      <!-- 2020-03 -->
      <g style="fill:#555555;" transform="translate(63.011939 631.118437)scale(0.1 -0.1)">
       <defs>
        <path d="M 19.1875 8.296875 
L 53.609375 8.296875 
L 53.609375 0 
L 7.328125 0 
L 7.328125 8.296875 
Q 12.9375 14.109375 22.625 23.890625 
Q 32.328125 33.6875 34.8125 36.53125 
Q 39.546875 41.84375 41.421875 45.53125 
Q 43.3125 49.21875 43.3125 52.78125 
Q 43.3125 58.59375 39.234375 62.25 
Q 35.15625 65.921875 28.609375 65.921875 
Q 23.96875 65.921875 18.8125 64.3125 
Q 13.671875 62.703125 7.8125 59.421875 
L 7.8125 69.390625 
Q 13.765625 71.78125 18.9375 73 
Q 24.125 74.21875 28.421875 74.21875 
Q 39.75 74.21875 46.484375 68.546875 
Q 53.21875 62.890625 53.21875 53.421875 
Q 53.21875 48.921875 51.53125 44.890625 
Q 49.859375 40.875 45.40625 35.40625 
Q 44.1875 33.984375 37.640625 27.21875 
Q 31.109375 20.453125 19.1875 8.296875 
z
" id="DejaVuSans-50"/>
        <path d="M 31.78125 66.40625 
Q 24.171875 66.40625 20.328125 58.90625 
Q 16.5 51.421875 16.5 36.375 
Q 16.5 21.390625 20.328125 13.890625 
Q 24.171875 6.390625 31.78125 6.390625 
Q 39.453125 6.390625 43.28125 13.890625 
Q 47.125 21.390625 47.125 36.375 
Q 47.125 51.421875 43.28125 58.90625 
Q 39.453125 66.40625 31.78125 66.40625 
z
M 31.78125 74.21875 
Q 44.046875 74.21875 50.515625 64.515625 
Q 56.984375 54.828125 56.984375 36.375 
Q 56.984375 17.96875 50.515625 8.265625 
Q 44.046875 -1.421875 31.78125 -1.421875 
Q 19.53125 -1.421875 13.0625 8.265625 
Q 6.59375 17.96875 6.59375 36.375 
Q 6.59375 54.828125 13.0625 64.515625 
Q 19.53125 74.21875 31.78125 74.21875 
z
" id="DejaVuSans-48"/>
        <path d="M 4.890625 31.390625 
L 31.203125 31.390625 
L 31.203125 23.390625 
L 4.890625 23.390625 
z
" id="DejaVuSans-45"/>
        <path d="M 40.578125 39.3125 
Q 47.65625 37.796875 51.625 33 
Q 55.609375 28.21875 55.609375 21.1875 
Q 55.609375 10.40625 48.1875 4.484375 
Q 40.765625 -1.421875 27.09375 -1.421875 
Q 22.515625 -1.421875 17.65625 -0.515625 
Q 12.796875 0.390625 7.625 2.203125 
L 7.625 11.71875 
Q 11.71875 9.328125 16.59375 8.109375 
Q 21.484375 6.890625 26.8125 6.890625 
Q 36.078125 6.890625 40.9375 10.546875 
Q 45.796875 14.203125 45.796875 21.1875 
Q 45.796875 27.640625 41.28125 31.265625 
Q 36.765625 34.90625 28.71875 34.90625 
L 20.21875 34.90625 
L 20.21875 43.015625 
L 29.109375 43.015625 
Q 36.375 43.015625 40.234375 45.921875 
Q 44.09375 48.828125 44.09375 54.296875 
Q 44.09375 59.90625 40.109375 62.90625 
Q 36.140625 65.921875 28.71875 65.921875 
Q 24.65625 65.921875 20.015625 65.03125 
Q 15.375 64.15625 9.8125 62.3125 
L 9.8125 71.09375 
Q 15.4375 72.65625 20.34375 73.4375 
Q 25.25 74.21875 29.59375 74.21875 
Q 40.828125 74.21875 47.359375 69.109375 
Q 53.90625 64.015625 53.90625 55.328125 
Q 53.90625 49.265625 50.4375 45.09375 
Q 46.96875 40.921875 40.578125 39.3125 
z
" id="DejaVuSans-51"/>
       </defs>
       <use xlink:href="#DejaVuSans-50"/>
       <use x="63.623047" xlink:href="#DejaVuSans-48"/>
       <use x="127.246094" xlink:href="#DejaVuSans-50"/>
       <use x="190.869141" xlink:href="#DejaVuSans-48"/>
       <use x="254.492188" xlink:href="#DejaVuSans-45"/>
       <use x="290.576172" xlink:href="#DejaVuSans-48"/>
       <use x="354.199219" xlink:href="#DejaVuSans-51"/>
      </g>
     </g>
    </g>
    <g id="xtick_2">
     <g id="line2d_3">
      <path clip-path="url(#pc21fccab7e)" d="M 242.828937 616.52 
L 242.828937 7.2 
" style="fill:none;stroke:#ffffff;stroke-linecap:square;stroke-width:0.8;"/>
     </g>
     <g id="line2d_4">
      <g>
       <use style="fill:#555555;stroke:#555555;stroke-width:0.8;" x="242.828937" xlink:href="#m439c4cd302" y="616.52"/>
      </g>
     </g>
     <g id="text_2">
      <!-- 2020-05 -->
      <g style="fill:#555555;" transform="translate(221.93753 631.118437)scale(0.1 -0.1)">
       <defs>
        <path d="M 10.796875 72.90625 
L 49.515625 72.90625 
L 49.515625 64.59375 
L 19.828125 64.59375 
L 19.828125 46.734375 
Q 21.96875 47.46875 24.109375 47.828125 
Q 26.265625 48.1875 28.421875 48.1875 
Q 40.625 48.1875 47.75 41.5 
Q 54.890625 34.8125 54.890625 23.390625 
Q 54.890625 11.625 47.5625 5.09375 
Q 40.234375 -1.421875 26.90625 -1.421875 
Q 22.3125 -1.421875 17.546875 -0.640625 
Q 12.796875 0.140625 7.71875 1.703125 
L 7.71875 11.625 
Q 12.109375 9.234375 16.796875 8.0625 
Q 21.484375 6.890625 26.703125 6.890625 
Q 35.15625 6.890625 40.078125 11.328125 
Q 45.015625 15.765625 45.015625 23.390625 
Q 45.015625 31 40.078125 35.4375 
Q 35.15625 39.890625 26.703125 39.890625 
Q 22.75 39.890625 18.8125 39.015625 
Q 14.890625 38.140625 10.796875 36.28125 
z
" id="DejaVuSans-53"/>
       </defs>
       <use xlink:href="#DejaVuSans-50"/>
       <use x="63.623047" xlink:href="#DejaVuSans-48"/>
       <use x="127.246094" xlink:href="#DejaVuSans-50"/>
       <use x="190.869141" xlink:href="#DejaVuSans-48"/>
       <use x="254.492188" xlink:href="#DejaVuSans-45"/>
       <use x="290.576172" xlink:href="#DejaVuSans-48"/>
       <use x="354.199219" xlink:href="#DejaVuSans-53"/>
      </g>
     </g>
    </g>
    <g id="xtick_3">
     <g id="line2d_5">
      <path clip-path="url(#pc21fccab7e)" d="M 401.754528 616.52 
L 401.754528 7.2 
" style="fill:none;stroke:#ffffff;stroke-linecap:square;stroke-width:0.8;"/>
     </g>
     <g id="line2d_6">
      <g>
       <use style="fill:#555555;stroke:#555555;stroke-width:0.8;" x="401.754528" xlink:href="#m439c4cd302" y="616.52"/>
      </g>
     </g>
     <g id="text_3">
      <!-- 2020-07 -->
      <g style="fill:#555555;" transform="translate(380.863121 631.118437)scale(0.1 -0.1)">
       <defs>
        <path d="M 8.203125 72.90625 
L 55.078125 72.90625 
L 55.078125 68.703125 
L 28.609375 0 
L 18.3125 0 
L 43.21875 64.59375 
L 8.203125 64.59375 
z
" id="DejaVuSans-55"/>
       </defs>
       <use xlink:href="#DejaVuSans-50"/>
       <use x="63.623047" xlink:href="#DejaVuSans-48"/>
       <use x="127.246094" xlink:href="#DejaVuSans-50"/>
       <use x="190.869141" xlink:href="#DejaVuSans-48"/>
       <use x="254.492188" xlink:href="#DejaVuSans-45"/>
       <use x="290.576172" xlink:href="#DejaVuSans-48"/>
       <use x="354.199219" xlink:href="#DejaVuSans-55"/>
      </g>
     </g>
    </g>
    <g id="xtick_4">
     <g id="line2d_7">
      <path clip-path="url(#pc21fccab7e)" d="M 563.285456 616.52 
L 563.285456 7.2 
" style="fill:none;stroke:#ffffff;stroke-linecap:square;stroke-width:0.8;"/>
     </g>
     <g id="line2d_8">
      <g>
       <use style="fill:#555555;stroke:#555555;stroke-width:0.8;" x="563.285456" xlink:href="#m439c4cd302" y="616.52"/>
      </g>
     </g>
     <g id="text_4">
      <!-- 2020-09 -->
      <g style="fill:#555555;" transform="translate(542.39405 631.118437)scale(0.1 -0.1)">
       <defs>
        <path d="M 10.984375 1.515625 
L 10.984375 10.5 
Q 14.703125 8.734375 18.5 7.8125 
Q 22.3125 6.890625 25.984375 6.890625 
Q 35.75 6.890625 40.890625 13.453125 
Q 46.046875 20.015625 46.78125 33.40625 
Q 43.953125 29.203125 39.59375 26.953125 
Q 35.25 24.703125 29.984375 24.703125 
Q 19.046875 24.703125 12.671875 31.3125 
Q 6.296875 37.9375 6.296875 49.421875 
Q 6.296875 60.640625 12.9375 67.421875 
Q 19.578125 74.21875 30.609375 74.21875 
Q 43.265625 74.21875 49.921875 64.515625 
Q 56.59375 54.828125 56.59375 36.375 
Q 56.59375 19.140625 48.40625 8.859375 
Q 40.234375 -1.421875 26.421875 -1.421875 
Q 22.703125 -1.421875 18.890625 -0.6875 
Q 15.09375 0.046875 10.984375 1.515625 
z
M 30.609375 32.421875 
Q 37.25 32.421875 41.125 36.953125 
Q 45.015625 41.5 45.015625 49.421875 
Q 45.015625 57.28125 41.125 61.84375 
Q 37.25 66.40625 30.609375 66.40625 
Q 23.96875 66.40625 20.09375 61.84375 
Q 16.21875 57.28125 16.21875 49.421875 
Q 16.21875 41.5 20.09375 36.953125 
Q 23.96875 32.421875 30.609375 32.421875 
z
" id="DejaVuSans-57"/>
       </defs>
       <use xlink:href="#DejaVuSans-50"/>
       <use x="63.623047" xlink:href="#DejaVuSans-48"/>
       <use x="127.246094" xlink:href="#DejaVuSans-50"/>
       <use x="190.869141" xlink:href="#DejaVuSans-48"/>
       <use x="254.492188" xlink:href="#DejaVuSans-45"/>
       <use x="290.576172" xlink:href="#DejaVuSans-48"/>
       <use x="354.199219" xlink:href="#DejaVuSans-57"/>
      </g>
     </g>
    </g>
    <g id="xtick_5">
     <g id="line2d_9">
      <path clip-path="url(#pc21fccab7e)" d="M 722.211047 616.52 
L 722.211047 7.2 
" style="fill:none;stroke:#ffffff;stroke-linecap:square;stroke-width:0.8;"/>
     </g>
     <g id="line2d_10">
      <g>
       <use style="fill:#555555;stroke:#555555;stroke-width:0.8;" x="722.211047" xlink:href="#m439c4cd302" y="616.52"/>
      </g>
     </g>
     <g id="text_5">
      <!-- 2020-11 -->
      <g style="fill:#555555;" transform="translate(701.319641 631.118437)scale(0.1 -0.1)">
       <defs>
        <path d="M 12.40625 8.296875 
L 28.515625 8.296875 
L 28.515625 63.921875 
L 10.984375 60.40625 
L 10.984375 69.390625 
L 28.421875 72.90625 
L 38.28125 72.90625 
L 38.28125 8.296875 
L 54.390625 8.296875 
L 54.390625 0 
L 12.40625 0 
z
" id="DejaVuSans-49"/>
       </defs>
       <use xlink:href="#DejaVuSans-50"/>
       <use x="63.623047" xlink:href="#DejaVuSans-48"/>
       <use x="127.246094" xlink:href="#DejaVuSans-50"/>
       <use x="190.869141" xlink:href="#DejaVuSans-48"/>
       <use x="254.492188" xlink:href="#DejaVuSans-45"/>
       <use x="290.576172" xlink:href="#DejaVuSans-49"/>
       <use x="354.199219" xlink:href="#DejaVuSans-49"/>
      </g>
     </g>
    </g>
    <g id="xtick_6">
     <g id="line2d_11">
      <path clip-path="url(#pc21fccab7e)" d="M 881.136638 616.52 
L 881.136638 7.2 
" style="fill:none;stroke:#ffffff;stroke-linecap:square;stroke-width:0.8;"/>
     </g>
     <g id="line2d_12">
      <g>
       <use style="fill:#555555;stroke:#555555;stroke-width:0.8;" x="881.136638" xlink:href="#m439c4cd302" y="616.52"/>
      </g>
     </g>
     <g id="text_6">
      <!-- 2021-01 -->
      <g style="fill:#555555;" transform="translate(860.245232 631.118437)scale(0.1 -0.1)">
       <use xlink:href="#DejaVuSans-50"/>
       <use x="63.623047" xlink:href="#DejaVuSans-48"/>
       <use x="127.246094" xlink:href="#DejaVuSans-50"/>
       <use x="190.869141" xlink:href="#DejaVuSans-49"/>
       <use x="254.492188" xlink:href="#DejaVuSans-45"/>
       <use x="290.576172" xlink:href="#DejaVuSans-48"/>
       <use x="354.199219" xlink:href="#DejaVuSans-49"/>
      </g>
     </g>
    </g>
    <g id="xtick_7">
     <g id="line2d_13">
      <path clip-path="url(#pc21fccab7e)" d="M 1034.851554 616.52 
L 1034.851554 7.2 
" style="fill:none;stroke:#ffffff;stroke-linecap:square;stroke-width:0.8;"/>
     </g>
     <g id="line2d_14">
      <g>
       <use style="fill:#555555;stroke:#555555;stroke-width:0.8;" x="1034.851554" xlink:href="#m439c4cd302" y="616.52"/>
      </g>
     </g>
     <g id="text_7">
      <!-- 2021-03 -->
      <g style="fill:#555555;" transform="translate(1013.960148 631.118437)scale(0.1 -0.1)">
       <use xlink:href="#DejaVuSans-50"/>
       <use x="63.623047" xlink:href="#DejaVuSans-48"/>
       <use x="127.246094" xlink:href="#DejaVuSans-50"/>
       <use x="190.869141" xlink:href="#DejaVuSans-49"/>
       <use x="254.492188" xlink:href="#DejaVuSans-45"/>
       <use x="290.576172" xlink:href="#DejaVuSans-48"/>
       <use x="354.199219" xlink:href="#DejaVuSans-51"/>
      </g>
     </g>
    </g>
   </g>
   <g id="matplotlib.axis_2">
    <g id="ytick_1">
     <g id="line2d_15">
      <path clip-path="url(#pc21fccab7e)" d="M 30.103125 587.741318 
L 1099.073125 587.741318 
" style="fill:none;stroke:#ffffff;stroke-linecap:square;stroke-width:0.8;"/>
     </g>
     <g id="line2d_16">
      <defs>
       <path d="M 0 0 
L -3.5 0 
" id="me9b7908bb8" style="stroke:#555555;stroke-width:0.8;"/>
      </defs>
      <g>
       <use style="fill:#555555;stroke:#555555;stroke-width:0.8;" x="30.103125" xlink:href="#me9b7908bb8" y="587.741318"/>
      </g>
     </g>
     <g id="text_8">
      <!-- 0.5 -->
      <g style="fill:#555555;" transform="translate(7.2 591.540537)scale(0.1 -0.1)">
       <defs>
        <path d="M 10.6875 12.40625 
L 21 12.40625 
L 21 0 
L 10.6875 0 
z
" id="DejaVuSans-46"/>
       </defs>
       <use xlink:href="#DejaVuSans-48"/>
       <use x="63.623047" xlink:href="#DejaVuSans-46"/>
       <use x="95.410156" xlink:href="#DejaVuSans-53"/>
      </g>
     </g>
    </g>
    <g id="ytick_2">
     <g id="line2d_17">
      <path clip-path="url(#pc21fccab7e)" d="M 30.103125 513.773155 
L 1099.073125 513.773155 
" style="fill:none;stroke:#ffffff;stroke-linecap:square;stroke-width:0.8;"/>
     </g>
     <g id="line2d_18">
      <g>
       <use style="fill:#555555;stroke:#555555;stroke-width:0.8;" x="30.103125" xlink:href="#me9b7908bb8" y="513.773155"/>
      </g>
     </g>
     <g id="text_9">
      <!-- 1.0 -->
      <g style="fill:#555555;" transform="translate(7.2 517.572373)scale(0.1 -0.1)">
       <use xlink:href="#DejaVuSans-49"/>
       <use x="63.623047" xlink:href="#DejaVuSans-46"/>
       <use x="95.410156" xlink:href="#DejaVuSans-48"/>
      </g>
     </g>
    </g>
    <g id="ytick_3">
     <g id="line2d_19">
      <path clip-path="url(#pc21fccab7e)" d="M 30.103125 439.804991 
L 1099.073125 439.804991 
" style="fill:none;stroke:#ffffff;stroke-linecap:square;stroke-width:0.8;"/>
     </g>
     <g id="line2d_20">
      <g>
       <use style="fill:#555555;stroke:#555555;stroke-width:0.8;" x="30.103125" xlink:href="#me9b7908bb8" y="439.804991"/>
      </g>
     </g>
     <g id="text_10">
      <!-- 1.5 -->
      <g style="fill:#555555;" transform="translate(7.2 443.60421)scale(0.1 -0.1)">
       <use xlink:href="#DejaVuSans-49"/>
       <use x="63.623047" xlink:href="#DejaVuSans-46"/>
       <use x="95.410156" xlink:href="#DejaVuSans-53"/>
      </g>
     </g>
    </g>
    <g id="ytick_4">
     <g id="line2d_21">
      <path clip-path="url(#pc21fccab7e)" d="M 30.103125 365.836827 
L 1099.073125 365.836827 
" style="fill:none;stroke:#ffffff;stroke-linecap:square;stroke-width:0.8;"/>
     </g>
     <g id="line2d_22">
      <g>
       <use style="fill:#555555;stroke:#555555;stroke-width:0.8;" x="30.103125" xlink:href="#me9b7908bb8" y="365.836827"/>
      </g>
     </g>
     <g id="text_11">
      <!-- 2.0 -->
      <g style="fill:#555555;" transform="translate(7.2 369.636046)scale(0.1 -0.1)">
       <use xlink:href="#DejaVuSans-50"/>
       <use x="63.623047" xlink:href="#DejaVuSans-46"/>
       <use x="95.410156" xlink:href="#DejaVuSans-48"/>
      </g>
     </g>
    </g>
    <g id="ytick_5">
     <g id="line2d_23">
      <path clip-path="url(#pc21fccab7e)" d="M 30.103125 291.868663 
L 1099.073125 291.868663 
" style="fill:none;stroke:#ffffff;stroke-linecap:square;stroke-width:0.8;"/>
     </g>
     <g id="line2d_24">
      <g>
       <use style="fill:#555555;stroke:#555555;stroke-width:0.8;" x="30.103125" xlink:href="#me9b7908bb8" y="291.868663"/>
      </g>
     </g>
     <g id="text_12">
      <!-- 2.5 -->
      <g style="fill:#555555;" transform="translate(7.2 295.667882)scale(0.1 -0.1)">
       <use xlink:href="#DejaVuSans-50"/>
       <use x="63.623047" xlink:href="#DejaVuSans-46"/>
       <use x="95.410156" xlink:href="#DejaVuSans-53"/>
      </g>
     </g>
    </g>
    <g id="ytick_6">
     <g id="line2d_25">
      <path clip-path="url(#pc21fccab7e)" d="M 30.103125 217.900499 
L 1099.073125 217.900499 
" style="fill:none;stroke:#ffffff;stroke-linecap:square;stroke-width:0.8;"/>
     </g>
     <g id="line2d_26">
      <g>
       <use style="fill:#555555;stroke:#555555;stroke-width:0.8;" x="30.103125" xlink:href="#me9b7908bb8" y="217.900499"/>
      </g>
     </g>
     <g id="text_13">
      <!-- 3.0 -->
      <g style="fill:#555555;" transform="translate(7.2 221.699718)scale(0.1 -0.1)">
       <use xlink:href="#DejaVuSans-51"/>
       <use x="63.623047" xlink:href="#DejaVuSans-46"/>
       <use x="95.410156" xlink:href="#DejaVuSans-48"/>
      </g>
     </g>
    </g>
    <g id="ytick_7">
     <g id="line2d_27">
      <path clip-path="url(#pc21fccab7e)" d="M 30.103125 143.932336 
L 1099.073125 143.932336 
" style="fill:none;stroke:#ffffff;stroke-linecap:square;stroke-width:0.8;"/>
     </g>
     <g id="line2d_28">
      <g>
       <use style="fill:#555555;stroke:#555555;stroke-width:0.8;" x="30.103125" xlink:href="#me9b7908bb8" y="143.932336"/>
      </g>
     </g>
     <g id="text_14">
      <!-- 3.5 -->
      <g style="fill:#555555;" transform="translate(7.2 147.731554)scale(0.1 -0.1)">
       <use xlink:href="#DejaVuSans-51"/>
       <use x="63.623047" xlink:href="#DejaVuSans-46"/>
       <use x="95.410156" xlink:href="#DejaVuSans-53"/>
      </g>
     </g>
    </g>
    <g id="ytick_8">
     <g id="line2d_29">
      <path clip-path="url(#pc21fccab7e)" d="M 30.103125 69.964172 
L 1099.073125 69.964172 
" style="fill:none;stroke:#ffffff;stroke-linecap:square;stroke-width:0.8;"/>
     </g>
     <g id="line2d_30">
      <g>
       <use style="fill:#555555;stroke:#555555;stroke-width:0.8;" x="30.103125" xlink:href="#me9b7908bb8" y="69.964172"/>
      </g>
     </g>
     <g id="text_15">
      <!-- 4.0 -->
      <g style="fill:#555555;" transform="translate(7.2 73.763391)scale(0.1 -0.1)">
       <defs>
        <path d="M 37.796875 64.3125 
L 12.890625 25.390625 
L 37.796875 25.390625 
z
M 35.203125 72.90625 
L 47.609375 72.90625 
L 47.609375 25.390625 
L 58.015625 25.390625 
L 58.015625 17.1875 
L 47.609375 17.1875 
L 47.609375 0 
L 37.796875 0 
L 37.796875 17.1875 
L 4.890625 17.1875 
L 4.890625 26.703125 
z
" id="DejaVuSans-52"/>
       </defs>
       <use xlink:href="#DejaVuSans-52"/>
       <use x="63.623047" xlink:href="#DejaVuSans-46"/>
       <use x="95.410156" xlink:href="#DejaVuSans-48"/>
      </g>
     </g>
    </g>
   </g>
   <g id="line2d_31">
    <path clip-path="url(#pc21fccab7e)" d="M 89.114021 114.622911 
L 91.719358 85.358076 
L 94.324696 122.160738 
L 96.930033 104.576897 
L 99.535371 95.992699 
L 102.140708 105.393328 
L 104.746046 124.687859 
L 107.351384 159.979578 
L 109.956721 204.839297 
L 112.562059 215.895658 
L 115.167396 246.205498 
L 117.772734 270.039884 
L 120.378071 277.546135 
L 122.983409 284.08865 
L 125.588746 277.55759 
L 128.194084 273.556615 
L 133.404759 288.756241 
L 136.010097 301.426214 
L 138.615434 318.69324 
L 141.220772 328.755536 
L 143.826109 336.592714 
L 146.431447 342.212958 
L 149.036785 348.78895 
L 151.642122 358.42084 
L 154.24746 370.194256 
L 156.852797 382.963683 
L 162.063472 403.939538 
L 164.66881 414.648465 
L 167.274147 426.529856 
L 169.879485 436.545585 
L 172.484823 444.679654 
L 175.09016 451.092206 
L 177.695498 456.83234 
L 180.300835 461.453048 
L 182.906173 465.317212 
L 185.51151 469.94746 
L 193.327523 482.502524 
L 195.932861 485.891202 
L 198.538198 488.911835 
L 201.143536 491.424622 
L 208.959548 497.46678 
L 211.564886 498.955712 
L 214.170223 500.027552 
L 216.775561 500.657683 
L 224.591574 502.236037 
L 235.012924 505.278784 
L 253.250287 508.998634 
L 258.460962 509.521775 
L 263.671637 509.86288 
L 281.909 510.475454 
L 289.725013 510.957843 
L 300.146363 511.342215 
L 315.778388 511.855948 
L 320.989063 511.937334 
L 326.199738 511.935989 
L 354.858452 512.303353 
L 367.885139 512.385842 
L 375.701152 512.090501 
L 383.517165 511.658527 
L 388.72784 511.565561 
L 393.938515 511.631318 
L 404.359865 511.968699 
L 440.834591 512.379729 
L 461.677291 512.095128 
L 518.994718 510.617992 
L 539.837418 509.961852 
L 547.653431 509.816445 
L 558.074781 510.019379 
L 578.917482 510.474901 
L 604.970857 510.010449 
L 615.392207 509.524466 
L 620.602882 509.383293 
L 633.62957 509.327836 
L 649.261596 508.990681 
L 657.077608 508.626281 
L 662.288283 508.091964 
L 672.709634 506.463839 
L 677.920309 505.657063 
L 683.130984 504.507438 
L 688.341659 503.391389 
L 696.157672 501.854605 
L 698.763009 501.211105 
L 701.368347 500.378423 
L 709.184359 497.51293 
L 714.395035 495.767398 
L 717.000372 494.885241 
L 719.60571 494.122908 
L 724.816385 493.274921 
L 730.02706 492.993022 
L 732.632397 492.947889 
L 740.44841 493.293253 
L 745.659085 493.650185 
L 753.475098 494.592521 
L 766.501786 496.724893 
L 774.317798 497.930987 
L 779.528474 498.586128 
L 800.371174 500.671249 
L 813.397862 501.464155 
L 821.213874 501.393596 
L 826.42455 501.288925 
L 842.056575 500.443661 
L 849.872588 500.205753 
L 860.293938 500.177082 
L 862.899275 500.331046 
L 868.10995 501.391243 
L 873.320626 502.691743 
L 875.925963 503.085323 
L 881.136638 503.589568 
L 896.768664 504.42207 
L 899.374001 504.463556 
L 904.584676 504.114342 
L 909.795351 503.502597 
L 915.006027 503.429112 
L 920.216702 503.870304 
L 928.032714 504.637227 
L 948.875415 505.793492 
L 969.718115 506.63052 
L 1003.587504 507.611217 
L 1024.430204 507.471371 
L 1050.48358 507.202313 
L 1050.48358 507.202313 
" style="fill:none;stroke:#e24a33;stroke-linecap:square;stroke-width:1.5;"/>
   </g>
   <g id="line2d_32">
    <path clip-path="url(#pc21fccab7e)" d="M 89.114021 114.622911 
L 91.719358 56.093241 
L 94.324696 195.766061 
L 96.930033 51.825374 
L 99.535371 61.65591 
L 104.746046 240.455043 
L 107.351384 361.66495 
L 109.956721 370.111274 
L 112.562059 273.160587 
L 115.167396 263.994252 
L 117.772734 228.496612 
L 120.378071 204.940226 
L 122.983409 286.252647 
L 125.588746 315.947531 
L 128.194084 342.10445 
L 130.799422 325.337835 
L 133.404759 318.214388 
L 136.010097 317.186418 
L 138.615434 325.809411 
L 141.220772 356.688721 
L 143.826109 370.807774 
L 146.431447 381.446156 
L 149.036785 371.36978 
L 154.24746 399.600331 
L 156.852797 415.195403 
L 159.458135 429.369276 
L 162.063472 444.958201 
L 164.66881 456.408643 
L 167.274147 454.539521 
L 169.879485 455.747719 
L 172.484823 456.538814 
L 175.09016 460.083272 
L 177.695498 469.550209 
L 180.300835 477.30316 
L 182.906173 483.457789 
L 185.51151 486.951257 
L 188.116848 485.410501 
L 190.722185 486.043538 
L 193.327523 488.801217 
L 195.932861 493.270953 
L 198.538198 498.447589 
L 201.143536 501.047295 
L 203.748873 501.279114 
L 206.354211 500.510114 
L 208.959548 498.911176 
L 211.564886 499.223742 
L 214.170223 500.773833 
L 216.775561 502.858509 
L 219.380899 504.613547 
L 221.986236 504.8778 
L 224.591574 504.393654 
L 227.196911 504.224224 
L 229.802249 504.872041 
L 232.407586 506.342685 
L 235.012924 507.627536 
L 237.618261 508.434435 
L 240.223599 508.737707 
L 242.828937 508.172773 
L 245.434274 508.398597 
L 248.039612 508.919699 
L 250.644949 509.705159 
L 253.250287 510.62207 
L 255.855624 510.635235 
L 263.671637 509.230228 
L 266.276975 509.505241 
L 268.882312 510.362614 
L 271.48765 510.627945 
L 274.092987 511.046009 
L 276.698325 510.820846 
L 279.303662 510.338705 
L 284.514338 510.825042 
L 287.119675 511.34739 
L 289.725013 511.700088 
L 300.146363 511.223578 
L 305.357038 511.931231 
L 307.962376 511.957837 
L 310.567713 512.192631 
L 313.173051 512.259912 
L 315.778388 511.885245 
L 318.383726 511.634257 
L 323.594401 511.719568 
L 328.805076 512.488741 
L 334.015751 512.26044 
L 336.621089 512.103085 
L 339.226426 512.138397 
L 347.042439 512.489995 
L 349.647776 512.285869 
L 354.858452 512.254578 
L 357.463789 512.313124 
L 360.069127 512.606432 
L 367.885139 512.249728 
L 370.490477 511.789955 
L 375.701152 511.346453 
L 378.30649 511.385895 
L 380.911827 511.603342 
L 391.333177 511.580209 
L 396.543853 512.130607 
L 399.14919 512.116758 
L 401.754528 512.290165 
L 406.965203 511.961662 
L 409.57054 512.02267 
L 417.386553 512.460971 
L 419.991891 512.481236 
L 425.202566 512.195998 
L 430.413241 512.320742 
L 433.018578 512.535095 
L 438.229253 512.544642 
L 446.045266 511.930166 
L 456.466616 512.362096 
L 459.071954 512.092128 
L 461.677291 511.676397 
L 464.282629 511.489641 
L 474.703979 511.986009 
L 479.914654 511.174365 
L 482.519992 510.947928 
L 487.730667 511.56259 
L 490.336005 511.562267 
L 492.941342 511.72068 
L 495.54668 511.151885 
L 498.152017 510.705498 
L 500.757355 510.544057 
L 503.362692 510.683115 
L 505.96803 511.119537 
L 508.573368 511.255267 
L 511.178705 511.192524 
L 516.38938 509.892502 
L 518.994718 509.598922 
L 521.600055 510.026945 
L 524.205393 510.644057 
L 529.416068 510.649935 
L 532.021406 509.936145 
L 534.626743 509.36866 
L 537.232081 508.965734 
L 539.837418 509.469493 
L 542.442756 510.143539 
L 545.048093 510.25724 
L 547.653431 510.574304 
L 552.864106 509.579721 
L 555.469444 509.470544 
L 560.680119 510.570763 
L 565.890794 510.955987 
L 568.496131 510.638543 
L 571.101469 510.126643 
L 573.706806 510.042709 
L 576.312144 510.220181 
L 578.917482 510.534834 
L 581.522819 510.520934 
L 584.128157 510.654695 
L 586.733494 510.125196 
L 589.338832 509.736435 
L 591.944169 509.67768 
L 594.549507 509.826302 
L 597.154844 510.411221 
L 599.760182 510.469903 
L 602.36552 510.328753 
L 604.970857 509.622848 
L 610.181532 508.58257 
L 612.78687 508.927038 
L 615.392207 509.671479 
L 617.997545 509.746695 
L 620.602882 510.063748 
L 623.20822 509.639387 
L 625.813558 508.976831 
L 628.418895 508.629355 
L 631.024233 508.849649 
L 633.62957 509.389189 
L 636.234908 509.449055 
L 638.840245 509.851845 
L 641.445583 509.293124 
L 644.050921 508.534205 
L 649.261596 508.098427 
L 651.866933 508.71053 
L 654.472271 508.763939 
L 657.077608 508.66482 
L 659.682946 507.809338 
L 662.288283 506.277772 
L 664.893621 505.309762 
L 667.498959 505.058362 
L 670.104296 505.922096 
L 672.709634 506.204725 
L 675.314971 506.107208 
L 677.920309 504.719518 
L 680.525646 502.547302 
L 683.130984 500.992857 
L 685.736321 500.966319 
L 688.341659 502.201791 
L 693.552334 502.931053 
L 696.157672 500.725855 
L 698.763009 498.042799 
L 701.368347 495.164084 
L 703.973684 494.099568 
L 706.579022 495.613511 
L 711.789697 496.491892 
L 714.395035 494.946288 
L 717.000372 491.867705 
L 719.60571 489.827751 
L 722.211047 490.792938 
L 724.816385 492.98423 
L 727.421722 494.686213 
L 730.02706 495.846027 
L 732.632397 494.630361 
L 735.237735 492.415367 
L 737.843073 490.781727 
L 740.44841 491.70885 
L 743.053748 494.034154 
L 745.659085 496.13481 
L 748.264423 497.836296 
L 750.86976 496.824511 
L 753.475098 494.827301 
L 756.080436 493.625797 
L 758.685773 494.408945 
L 761.291111 497.193571 
L 763.896448 499.454299 
L 766.501786 500.739826 
L 769.107123 499.872728 
L 771.712461 497.600824 
L 774.317798 496.246714 
L 776.923136 496.87722 
L 779.528474 499.311285 
L 782.133811 501.345869 
L 784.739149 502.301126 
L 787.344486 501.361215 
L 789.949824 499.51683 
L 792.555161 498.359743 
L 795.160499 499.220621 
L 797.765836 501.17644 
L 800.371174 502.762768 
L 802.976512 503.566532 
L 805.581849 502.570953 
L 808.187187 500.875886 
L 810.792524 499.603798 
L 813.397862 499.692706 
L 818.608537 502.660537 
L 821.213874 503.127209 
L 823.819212 502.451893 
L 826.42455 500.262252 
L 829.029887 498.533361 
L 831.635225 498.789517 
L 834.240562 499.882997 
L 836.8459 501.949779 
L 839.451237 502.183344 
L 842.056575 501.504376 
L 847.26725 497.779338 
L 849.872588 498.54346 
L 852.477925 499.851822 
L 855.083263 501.567184 
L 857.6886 502.391961 
L 862.899275 500.674721 
L 865.504613 501.276493 
L 868.10995 502.467685 
L 870.715288 504.633291 
L 873.320626 505.889214 
L 875.925963 505.147024 
L 878.531301 503.401125 
L 881.136638 502.312141 
L 883.741976 502.37008 
L 886.347313 503.547307 
L 888.952651 505.656912 
L 891.557989 506.655257 
L 894.163326 505.906753 
L 896.768664 504.50604 
L 899.374001 502.602541 
L 901.979339 501.522543 
L 904.584676 501.950352 
L 907.190014 503.194328 
L 909.795351 504.835623 
L 912.400689 505.276758 
L 915.006027 504.621639 
L 917.611364 503.834255 
L 920.216702 503.379174 
L 922.822039 503.863547 
L 925.427377 505.310096 
L 928.032714 506.175123 
L 930.638052 506.383514 
L 933.243389 505.88321 
L 935.848727 505.066022 
L 938.454065 504.68804 
L 941.059402 504.977638 
L 943.66474 506.006435 
L 946.270077 506.852448 
L 948.875415 507.080649 
L 951.480752 506.686614 
L 956.691427 505.721617 
L 959.296765 505.866145 
L 961.902103 506.719516 
L 964.50744 507.275224 
L 967.112778 507.450758 
L 969.718115 507.228037 
L 972.323453 506.710085 
L 974.92879 506.399794 
L 977.534128 506.471339 
L 982.744803 507.783639 
L 985.350141 507.938025 
L 987.955478 507.816861 
L 993.166153 507.10446 
L 995.771491 507.230887 
L 1000.982166 508.010045 
L 1003.587504 508.053258 
L 1008.798179 507.451598 
L 1011.403516 507.092468 
L 1014.008854 507.077592 
L 1019.219529 507.792315 
L 1021.824866 507.857414 
L 1027.035542 507.197805 
L 1029.640879 506.808613 
L 1032.246217 506.80936 
L 1037.456892 507.644542 
L 1040.062229 507.680553 
L 1042.667567 507.412034 
L 1047.878242 506.667123 
L 1050.48358 506.717766 
L 1050.48358 506.717766 
" style="fill:none;stroke:#e24a33;stroke-dasharray:1.5,2.475;stroke-dashoffset:0;stroke-width:1.5;"/>
   </g>
   <g id="line2d_33">
    <path clip-path="url(#pc21fccab7e)" d="M 89.114021 262.560523 
L 91.719358 233.295996 
L 94.324696 270.098871 
L 96.930033 252.515745 
L 99.535371 210.419024 
L 102.140708 205.937762 
L 104.746046 213.839768 
L 107.351384 242.173277 
L 109.956721 280.318349 
L 112.562059 277.305072 
L 115.167396 288.30341 
L 117.772734 296.443252 
L 120.378071 275.209667 
L 122.983409 279.936454 
L 125.588746 263.631184 
L 128.194084 253.633011 
L 133.404759 271.172678 
L 136.010097 302.486961 
L 138.615434 342.055603 
L 141.220772 354.495765 
L 143.826109 363.634562 
L 146.431447 367.762308 
L 149.036785 371.239737 
L 151.642122 381.815825 
L 154.24746 397.732163 
L 156.852797 417.916347 
L 159.458135 433.409036 
L 167.274147 477.667454 
L 169.879485 490.413528 
L 172.484823 497.868669 
L 177.695498 502.780866 
L 180.300835 505.497624 
L 182.906173 508.817824 
L 185.51151 515.622085 
L 188.116848 520.866102 
L 190.722185 526.618133 
L 193.327523 533.119165 
L 195.932861 536.165608 
L 198.538198 541.10488 
L 201.143536 545.177473 
L 206.354211 549.370634 
L 208.959548 546.782107 
L 211.564886 541.45886 
L 214.170223 536.661661 
L 216.775561 531.335077 
L 219.380899 528.578859 
L 221.986236 526.807314 
L 224.591574 525.82971 
L 227.196911 528.650313 
L 229.802249 533.153964 
L 232.407586 538.404091 
L 235.012924 542.7731 
L 237.618261 544.666144 
L 240.223599 546.332978 
L 242.828937 546.282146 
L 245.434274 546.951118 
L 248.039612 548.943225 
L 250.644949 550.14049 
L 253.250287 552.805272 
L 255.855624 552.82381 
L 258.460962 549.494744 
L 261.0663 544.457228 
L 263.671637 531.544345 
L 266.276975 521.23204 
L 268.882312 518.088701 
L 271.48765 513.43326 
L 274.092987 513.246482 
L 276.698325 514.421414 
L 279.303662 514.216805 
L 281.909 524.673659 
L 284.514338 531.317153 
L 287.119675 534.603155 
L 289.725013 538.879667 
L 294.935688 534.679786 
L 297.541025 534.753836 
L 300.146363 529.146151 
L 302.7517 531.032665 
L 305.357038 532.199033 
L 307.962376 529.31666 
L 310.567713 531.667955 
L 313.173051 534.936778 
L 315.778388 534.61313 
L 318.383726 535.819879 
L 320.989063 527.757485 
L 323.594401 512.909862 
L 326.199738 510.37723 
L 328.805076 511.188537 
L 331.410414 511.742207 
L 334.015751 519.02299 
L 336.621089 522.715965 
L 339.226426 523.316483 
L 341.831764 530.635911 
L 344.437101 529.747055 
L 347.042439 525.903374 
L 349.647776 519.820797 
L 352.253114 512.584707 
L 354.858452 510.222366 
L 357.463789 514.033495 
L 360.069127 522.221879 
L 362.674464 524.060426 
L 365.279802 522.608614 
L 367.885139 519.043593 
L 370.490477 499.022673 
L 373.095814 481.944911 
L 375.701152 459.11983 
L 378.30649 437.804815 
L 380.911827 430.695851 
L 383.517165 426.000485 
L 386.122502 430.358634 
L 388.72784 454.389916 
L 391.333177 474.42576 
L 393.938515 503.681477 
L 396.543853 524.615501 
L 399.14919 531.967138 
L 401.754528 540.112347 
L 404.359865 540.369286 
L 406.965203 534.225525 
L 409.57054 533.04376 
L 412.175878 528.80733 
L 414.781215 528.349144 
L 417.386553 530.700681 
L 422.597228 528.349082 
L 425.202566 526.502001 
L 427.807903 522.473766 
L 430.413241 520.598554 
L 433.018578 519.584137 
L 435.623916 518.037352 
L 438.229253 517.02143 
L 440.834591 514.996046 
L 443.439929 507.208587 
L 448.650604 490.229027 
L 451.255941 484.764431 
L 453.861279 483.456944 
L 456.466616 483.694373 
L 459.071954 484.2108 
L 461.677291 485.971316 
L 464.282629 484.37915 
L 466.887967 481.179143 
L 469.493304 477.466472 
L 472.098642 475.912687 
L 474.703979 475.182114 
L 477.309317 473.803069 
L 479.914654 476.582461 
L 482.519992 478.422063 
L 485.125329 483.043416 
L 487.730667 488.185307 
L 490.336005 488.951716 
L 492.941342 490.106109 
L 495.54668 489.393161 
L 498.152017 487.225661 
L 500.757355 489.059003 
L 503.362692 486.502956 
L 505.96803 486.054213 
L 508.573368 486.656112 
L 511.178705 484.744794 
L 513.784043 485.104927 
L 516.38938 483.431995 
L 518.994718 478.618113 
L 521.600055 480.373665 
L 524.205393 481.065628 
L 526.81073 481.551903 
L 529.416068 482.53981 
L 532.021406 482.651836 
L 534.626743 484.136401 
L 537.232081 486.765372 
L 539.837418 488.750214 
L 542.442756 489.505994 
L 545.048093 489.260468 
L 547.653431 491.104768 
L 550.258768 495.22562 
L 552.864106 501.406407 
L 555.469444 509.794102 
L 558.074781 514.597772 
L 560.680119 516.335204 
L 563.285456 518.586011 
L 565.890794 519.010671 
L 568.496131 519.638584 
L 571.101469 520.040412 
L 573.706806 519.136297 
L 576.312144 517.085678 
L 578.917482 513.32868 
L 584.128157 504.833041 
L 586.733494 500.052536 
L 589.338832 497.354547 
L 594.549507 497.22674 
L 597.154844 499.910756 
L 599.760182 501.633437 
L 602.36552 501.442799 
L 604.970857 500.790813 
L 607.576195 496.969704 
L 610.181532 489.147135 
L 612.78687 485.644205 
L 615.392207 483.936983 
L 617.997545 482.901905 
L 620.602882 485.721543 
L 623.20822 490.398236 
L 625.813558 496.10215 
L 628.418895 503.474589 
L 631.024233 505.448592 
L 633.62957 503.68864 
L 638.840245 501.490115 
L 641.445583 500.123132 
L 644.050921 499.467393 
L 646.656258 499.838717 
L 649.261596 496.846394 
L 651.866933 495.108618 
L 654.472271 493.731215 
L 657.077608 489.502035 
L 659.682946 486.002925 
L 662.288283 479.02521 
L 664.893621 468.581236 
L 667.498959 462.362897 
L 670.104296 457.735207 
L 672.709634 456.136962 
L 675.314971 456.435238 
L 677.920309 456.319208 
L 680.525646 457.351341 
L 683.130984 457.317732 
L 685.736321 458.092217 
L 688.341659 458.653085 
L 690.946997 458.525628 
L 693.552334 459.328937 
L 696.157672 459.247825 
L 698.763009 460.391984 
L 701.368347 460.366279 
L 703.973684 456.456815 
L 706.579022 453.127081 
L 709.184359 449.249222 
L 711.789697 446.583318 
L 714.395035 447.166181 
L 717.000372 449.82354 
L 719.60571 456.396677 
L 722.211047 466.978261 
L 724.816385 473.073158 
L 727.421722 478.601039 
L 730.02706 482.494882 
L 732.632397 485.226924 
L 735.237735 489.294957 
L 737.843073 492.63157 
L 740.44841 494.969087 
L 743.053748 496.787618 
L 745.659085 498.095054 
L 748.264423 499.726378 
L 756.080436 505.293986 
L 758.685773 505.99293 
L 761.291111 507.694934 
L 763.896448 509.884943 
L 769.107123 513.26463 
L 771.712461 513.392109 
L 776.923136 510.130511 
L 779.528474 509.055683 
L 787.344486 509.606924 
L 789.949824 509.71814 
L 792.555161 509.493468 
L 795.160499 510.290896 
L 797.765836 511.206788 
L 802.976512 511.848221 
L 805.581849 511.452488 
L 808.187187 510.789087 
L 810.792524 509.596601 
L 813.397862 506.552874 
L 816.003199 503.945015 
L 821.213874 500.050784 
L 823.819212 499.392739 
L 826.42455 498.045908 
L 829.029887 495.629266 
L 831.635225 494.683846 
L 834.240562 491.742734 
L 842.056575 490.82761 
L 844.661912 492.226436 
L 847.26725 492.573441 
L 852.477925 497.448099 
L 855.083263 497.891695 
L 857.6886 499.303257 
L 860.293938 499.829264 
L 862.899275 502.112577 
L 868.10995 520.37714 
L 870.715288 531.531384 
L 873.320626 539.281975 
L 875.925963 540.95239 
L 878.531301 538.698969 
L 881.136638 529.668869 
L 883.741976 515.590742 
L 886.347313 509.688669 
L 888.952651 509.435118 
L 891.557989 509.813513 
L 896.768664 511.202552 
L 899.374001 506.239795 
L 904.584676 481.810794 
L 907.190014 470.559537 
L 909.795351 465.489576 
L 912.400689 465.371364 
L 915.006027 469.234669 
L 917.611364 484.210371 
L 920.216702 506.315909 
L 922.822039 518.560663 
L 925.427377 526.027977 
L 928.032714 528.007798 
L 930.638052 528.642798 
L 933.243389 528.978701 
L 935.848727 526.287947 
L 938.454065 524.142837 
L 943.66474 520.481558 
L 946.270077 520.513417 
L 948.875415 520.878884 
L 951.480752 521.502046 
L 954.08609 523.530605 
L 956.691427 523.91143 
L 959.296765 522.999707 
L 961.902103 522.737678 
L 964.50744 521.660054 
L 967.112778 521.132271 
L 969.718115 521.317718 
L 972.323453 520.592864 
L 974.92879 521.073119 
L 977.534128 521.28617 
L 980.139465 520.388262 
L 982.744803 521.639851 
L 985.350141 522.723867 
L 987.955478 524.406616 
L 990.560816 527.195433 
L 993.166153 526.99927 
L 995.771491 527.252843 
L 998.376828 525.750317 
L 1000.982166 523.806848 
L 1003.587504 522.094632 
L 1006.192841 518.160454 
L 1008.798179 513.817417 
L 1014.008854 503.789734 
L 1016.614191 502.359032 
L 1019.219529 500.343831 
L 1021.824866 499.010771 
L 1024.430204 498.495779 
L 1027.035542 497.556157 
L 1029.640879 497.653134 
L 1032.246217 497.572305 
L 1034.851554 497.847343 
L 1037.456892 498.619937 
L 1040.062229 499.013724 
L 1042.667567 499.620232 
L 1047.878242 500.423683 
L 1050.48358 502.14897 
L 1050.48358 502.14897 
" style="fill:none;stroke:#348abd;stroke-linecap:square;stroke-width:1.5;"/>
   </g>
   <g id="line2d_34">
    <path clip-path="url(#pc21fccab7e)" d="M 89.114021 262.560523 
L 91.719358 204.031469 
L 94.324696 343.704621 
L 96.930033 199.766369 
L 99.535371 42.032138 
L 102.140708 183.531454 
L 104.746046 261.251804 
L 107.351384 460.895087 
L 109.956721 471.04697 
L 112.562059 322.611681 
L 115.167396 276.754735 
L 117.772734 99.011031 
L 120.378071 34.896364 
L 122.983409 294.339311 
L 128.194084 401.059762 
L 130.799422 383.068176 
L 133.404759 339.075905 
L 136.010097 318.211014 
L 138.615434 311.876858 
L 141.220772 381.420446 
L 143.826109 410.729777 
L 146.431447 429.953981 
L 149.036785 407.410175 
L 151.642122 413.108523 
L 154.24746 429.625382 
L 156.852797 453.166149 
L 159.458135 489.869263 
L 162.063472 513.70528 
L 164.66881 530.297585 
L 167.274147 513.899999 
L 169.879485 502.331038 
L 172.484823 481.81137 
L 175.09016 469.953003 
L 177.695498 507.467787 
L 180.300835 532.722584 
L 182.906173 553.538985 
L 185.51151 561.52983 
L 188.116848 539.039156 
L 190.722185 522.075588 
L 193.327523 515.460222 
L 195.932861 528.792891 
L 198.538198 567.297487 
L 201.143536 582.047138 
L 203.748873 576.202954 
L 206.354211 553.71816 
L 208.959548 503.955899 
L 211.564886 478.197493 
L 214.170223 495.212494 
L 216.775561 530.011403 
L 219.380899 562.753613 
L 221.986236 563.802138 
L 224.591574 546.87493 
L 227.196911 523.700117 
L 229.802249 509.72305 
L 232.407586 531.963387 
L 235.012924 560.594467 
L 237.618261 576.004916 
L 240.223599 575.469982 
L 242.828937 546.5191 
L 245.434274 528.382923 
L 248.039612 523.6678 
L 250.644949 540.344243 
L 253.250287 579.247939 
L 255.855624 576.134685 
L 258.460962 552.166517 
L 261.0663 511.256486 
L 263.671637 437.992747 
L 266.276975 451.481666 
L 268.882312 518.340869 
L 274.092987 574.827243 
L 276.698325 560.391041 
L 279.303662 509.824223 
L 281.909 511.190725 
L 284.514338 497.98612 
L 287.119675 541.342884 
L 289.725013 576.595431 
L 292.33035 560.41117 
L 294.935688 545.407948 
L 297.541025 510.342573 
L 300.146363 471.936934 
L 305.357038 549.507462 
L 307.962376 556.418816 
L 310.567713 576.87024 
L 313.173051 568.289708 
L 315.778388 508.077036 
L 318.383726 480.384173 
L 320.989063 454.754963 
L 323.594401 445.574096 
L 326.199738 538.690396 
L 328.805076 582.549387 
L 331.410414 572.165397 
L 334.015751 559.042517 
L 336.621089 506.234998 
L 339.226426 458.958587 
L 341.831764 496.810097 
L 344.437101 532.468405 
L 347.042439 555.643618 
L 349.647776 529.587355 
L 352.253114 508.389887 
L 354.858452 489.698611 
L 357.463789 485.63649 
L 360.069127 554.128785 
L 362.674464 545.338232 
L 365.279802 545.480941 
L 367.885139 504.632203 
L 370.490477 368.243447 
L 373.095814 370.154282 
L 375.701152 325.860918 
L 378.30649 404.923683 
L 380.911827 495.575488 
L 383.517165 512.613375 
L 386.122502 535.139243 
L 388.72784 536.462426 
L 391.333177 510.405188 
L 396.543853 551.461851 
L 399.14919 547.036944 
L 401.754528 569.629836 
L 404.359865 536.937819 
L 406.965203 493.456097 
L 409.57054 502.132833 
L 412.175878 500.995928 
L 414.781215 548.254554 
L 417.386553 563.497702 
L 419.991891 561.44779 
L 422.597228 528.658673 
L 425.202566 480.526529 
L 427.807903 473.935183 
L 430.413241 487.869444 
L 433.018578 541.153635 
L 435.623916 552.670206 
L 438.229253 554.336341 
L 440.834591 514.480984 
L 443.439929 426.014316 
L 446.045266 414.901758 
L 448.650604 428.045949 
L 451.255941 502.90146 
L 453.861279 543.517799 
L 456.466616 555.998346 
L 459.071954 518.095969 
L 461.677291 438.337932 
L 464.282629 403.756591 
L 466.887967 405.645902 
L 469.493304 476.912765 
L 472.098642 532.641305 
L 474.703979 550.88433 
L 477.309317 508.442655 
L 479.914654 457.793679 
L 482.519992 416.633808 
L 485.125329 437.995372 
L 487.730667 512.906001 
L 490.336005 538.006169 
L 492.941342 558.965079 
L 495.54668 503.452016 
L 498.152017 442.621184 
L 500.757355 429.467203 
L 503.362692 420.103044 
L 505.96803 509.764798 
L 508.573368 542.219463 
L 511.178705 545.58585 
L 513.784043 505.972945 
L 516.38938 430.910659 
L 518.994718 395.77003 
L 521.600055 432.391908 
L 524.205393 514.608543 
L 526.81073 545.623386 
L 529.416068 552.501201 
L 532.021406 506.757123 
L 534.626743 441.302618 
L 537.232081 414.172826 
L 539.837418 446.285804 
L 542.442756 519.899001 
L 545.048093 543.9047 
L 547.653431 565.411307 
L 550.258768 535.603087 
L 552.864106 484.568123 
L 555.469444 472.886694 
L 558.074781 479.911492 
L 560.680119 532.061025 
L 563.285456 559.66035 
L 565.890794 568.383924 
L 568.496131 539.998483 
L 571.101469 487.380914 
L 573.706806 466.557895 
L 576.312144 465.557153 
L 578.917482 505.762041 
L 581.522819 529.560938 
L 584.128157 539.013866 
L 586.733494 506.534944 
L 589.338832 468.494995 
L 591.944169 466.25268 
L 594.549507 464.967714 
L 597.154844 524.550155 
L 599.760182 541.619705 
L 602.36552 537.679397 
L 604.970857 501.971046 
L 607.576195 441.74723 
L 610.181532 411.4947 
L 612.78687 440.447199 
L 615.392207 512.599605 
L 617.997545 534.374156 
L 620.602882 557.416864 
L 623.20822 534.707901 
L 625.813558 481.674624 
L 628.418895 463.101777 
L 631.024233 454.265218 
L 633.62957 500.279939 
L 636.234908 526.679596 
L 638.840245 549.721751 
L 641.445583 525.139016 
L 644.050921 477.084456 
L 646.656258 465.701042 
L 649.261596 433.318955 
L 651.866933 488.115509 
L 654.472271 517.037776 
L 657.077608 520.117493 
L 659.682946 500.645245 
L 662.288283 428.24045 
L 664.893621 392.593223 
L 667.498959 389.790584 
L 670.104296 455.721676 
L 672.709634 505.850064 
L 675.314971 522.205424 
L 677.920309 499.833035 
L 680.525646 435.465382 
L 683.130984 392.357961 
L 685.736321 395.211977 
L 688.341659 459.64775 
L 690.946997 504.957867 
L 693.552334 527.828589 
L 696.157672 499.265251 
L 698.763009 443.474491 
L 701.368347 392.178029 
L 703.973684 367.845727 
L 706.579022 436.339616 
L 709.184359 477.812854 
L 711.789697 509.16726 
L 714.395035 503.345292 
L 717.000372 462.076 
L 719.60571 438.189994 
L 722.211047 441.916813 
L 727.421722 516.508019 
L 730.02706 536.424161 
L 732.632397 522.469591 
L 735.237735 490.552231 
L 737.843073 461.54628 
L 740.44841 458.279432 
L 745.659085 525.660075 
L 748.264423 547.843427 
L 750.86976 535.464827 
L 753.475098 503.931311 
L 756.080436 474.145219 
L 758.685773 463.172044 
L 761.291111 503.647632 
L 763.896448 540.990138 
L 766.501786 559.350138 
L 769.107123 547.615927 
L 774.317798 463.132347 
L 776.923136 451.353735 
L 782.133811 542.351828 
L 784.739149 561.487402 
L 787.344486 547.97566 
L 792.555161 461.559644 
L 795.160499 456.935732 
L 797.765836 502.535076 
L 800.371174 544.757813 
L 802.976512 563.571444 
L 805.581849 545.205534 
L 808.187187 500.958363 
L 810.792524 453.212243 
L 813.397862 435.629642 
L 818.608537 531.009696 
L 821.213874 550.059942 
L 823.819212 540.599215 
L 826.42455 491.530549 
L 829.029887 436.295748 
L 831.635225 429.011705 
L 834.240562 463.692283 
L 836.8459 528.81557 
L 839.451237 548.43078 
L 842.056575 538.016634 
L 844.661912 501.322334 
L 847.26725 438.724783 
L 849.872588 446.028983 
L 852.477925 480.797611 
L 855.083263 531.92074 
L 857.6886 558.311716 
L 860.293938 541.698681 
L 862.899275 517.305527 
L 865.504613 502.820798 
L 868.10995 509.784909 
L 870.715288 558.877321 
L 873.320626 586.174872 
L 875.925963 570.004619 
L 878.531301 525.924735 
L 881.136638 454.094828 
L 883.741976 404.273911 
L 886.347313 468.470394 
L 888.952651 557.102469 
L 891.557989 588.823636 
L 894.163326 574.709046 
L 896.768664 530.943578 
L 899.374001 419.355531 
L 901.979339 317.329157 
L 904.584676 384.41214 
L 907.190014 478.343671 
L 909.795351 553.333907 
L 912.400689 573.881563 
L 915.006027 557.986718 
L 917.611364 524.185439 
L 920.216702 472.067924 
L 922.822039 470.12542 
L 925.427377 530.61487 
L 928.032714 567.192653 
L 930.638052 578.326562 
L 933.243389 560.33804 
L 935.848727 505.350158 
L 938.454065 457.052159 
L 941.059402 456.979504 
L 943.66474 518.131834 
L 946.270077 567.415661 
L 948.875415 580.884834 
L 951.480752 564.70017 
L 954.08609 519.550073 
L 956.691427 459.717932 
L 959.296765 450.597444 
L 961.902103 516.297631 
L 964.50744 559.872294 
L 967.112778 577.190355 
L 969.718115 565.998299 
L 974.92879 463.079719 
L 977.534128 452.088799 
L 982.744803 568.633422 
L 985.350141 584.778464 
L 987.955478 577.777541 
L 990.560816 533.997812 
L 993.166153 461.706577 
L 995.771491 453.863813 
L 998.376828 499.494588 
L 1000.982166 555.02914 
L 1003.587504 572.792957 
L 1006.192841 550.238293 
L 1008.798179 503.596551 
L 1011.403516 427.352329 
L 1014.008854 418.024278 
L 1016.614191 489.479675 
L 1019.219529 540.922734 
L 1021.824866 563.461535 
L 1024.430204 546.633348 
L 1027.035542 497.019202 
L 1029.640879 428.031165 
L 1032.246217 417.458478 
L 1034.851554 491.404938 
L 1037.456892 546.330892 
L 1040.062229 566.218048 
L 1042.667567 550.878901 
L 1045.272904 499.7338 
L 1047.878242 430.940724 
L 1050.48358 429.53549 
L 1050.48358 429.53549 
" style="fill:none;stroke:#348abd;stroke-dasharray:1.5,2.475;stroke-dashoffset:0;stroke-width:1.5;"/>
   </g>
   <g id="line2d_35">
    <path clip-path="url(#pc21fccab7e)" d="M 30.103125 513.773155 
L 1099.073125 513.773155 
" style="fill:none;stroke:#008000;stroke-linecap:square;stroke-opacity:0.5;stroke-width:1.5;"/>
   </g>
   <g id="patch_3">
    <path d="M 30.103125 616.52 
L 30.103125 7.2 
" style="fill:none;stroke:#ffffff;stroke-linecap:square;stroke-linejoin:miter;"/>
   </g>
   <g id="patch_4">
    <path d="M 1099.073125 616.52 
L 1099.073125 7.2 
" style="fill:none;stroke:#ffffff;stroke-linecap:square;stroke-linejoin:miter;"/>
   </g>
   <g id="patch_5">
    <path d="M 30.103125 616.52 
L 1099.073125 616.52 
" style="fill:none;stroke:#ffffff;stroke-linecap:square;stroke-linejoin:miter;"/>
   </g>
   <g id="patch_6">
    <path d="M 30.103125 7.2 
L 1099.073125 7.2 
" style="fill:none;stroke:#ffffff;stroke-linecap:square;stroke-linejoin:miter;"/>
   </g>
  </g>
  <g id="axes_2">
   <g id="matplotlib.axis_3">
    <g id="ytick_9">
     <g id="line2d_36">
      <path clip-path="url(#pc21fccab7e)" d="M 30.103125 589.00409 
L 1099.073125 589.00409 
" style="fill:none;stroke:#ffffff;stroke-linecap:square;stroke-width:0.8;"/>
     </g>
     <g id="line2d_37">
      <defs>
       <path d="M 0 0 
L 3.5 0 
" id="m174873cf95" style="stroke:#555555;stroke-width:0.8;"/>
      </defs>
      <g>
       <use style="fill:#555555;stroke:#555555;stroke-width:0.8;" x="1099.073125" xlink:href="#m174873cf95" y="589.00409"/>
      </g>
     </g>
     <g id="text_16">
      <!-- 0 -->
      <g style="fill:#555555;" transform="translate(1106.073125 592.803309)scale(0.1 -0.1)">
       <use xlink:href="#DejaVuSans-48"/>
      </g>
     </g>
    </g>
    <g id="ytick_10">
     <g id="line2d_38">
      <path clip-path="url(#pc21fccab7e)" d="M 30.103125 506.979676 
L 1099.073125 506.979676 
" style="fill:none;stroke:#ffffff;stroke-linecap:square;stroke-width:0.8;"/>
     </g>
     <g id="line2d_39">
      <g>
       <use style="fill:#555555;stroke:#555555;stroke-width:0.8;" x="1099.073125" xlink:href="#m174873cf95" y="506.979676"/>
      </g>
     </g>
     <g id="text_17">
      <!-- 5000 -->
      <g style="fill:#555555;" transform="translate(1106.073125 510.778895)scale(0.1 -0.1)">
       <use xlink:href="#DejaVuSans-53"/>
       <use x="63.623047" xlink:href="#DejaVuSans-48"/>
       <use x="127.246094" xlink:href="#DejaVuSans-48"/>
       <use x="190.869141" xlink:href="#DejaVuSans-48"/>
      </g>
     </g>
    </g>
    <g id="ytick_11">
     <g id="line2d_40">
      <path clip-path="url(#pc21fccab7e)" d="M 30.103125 424.955262 
L 1099.073125 424.955262 
" style="fill:none;stroke:#ffffff;stroke-linecap:square;stroke-width:0.8;"/>
     </g>
     <g id="line2d_41">
      <g>
       <use style="fill:#555555;stroke:#555555;stroke-width:0.8;" x="1099.073125" xlink:href="#m174873cf95" y="424.955262"/>
      </g>
     </g>
     <g id="text_18">
      <!-- 10000 -->
      <g style="fill:#555555;" transform="translate(1106.073125 428.754481)scale(0.1 -0.1)">
       <use xlink:href="#DejaVuSans-49"/>
       <use x="63.623047" xlink:href="#DejaVuSans-48"/>
       <use x="127.246094" xlink:href="#DejaVuSans-48"/>
       <use x="190.869141" xlink:href="#DejaVuSans-48"/>
       <use x="254.492188" xlink:href="#DejaVuSans-48"/>
      </g>
     </g>
    </g>
    <g id="ytick_12">
     <g id="line2d_42">
      <path clip-path="url(#pc21fccab7e)" d="M 30.103125 342.930848 
L 1099.073125 342.930848 
" style="fill:none;stroke:#ffffff;stroke-linecap:square;stroke-width:0.8;"/>
     </g>
     <g id="line2d_43">
      <g>
       <use style="fill:#555555;stroke:#555555;stroke-width:0.8;" x="1099.073125" xlink:href="#m174873cf95" y="342.930848"/>
      </g>
     </g>
     <g id="text_19">
      <!-- 15000 -->
      <g style="fill:#555555;" transform="translate(1106.073125 346.730067)scale(0.1 -0.1)">
       <use xlink:href="#DejaVuSans-49"/>
       <use x="63.623047" xlink:href="#DejaVuSans-53"/>
       <use x="127.246094" xlink:href="#DejaVuSans-48"/>
       <use x="190.869141" xlink:href="#DejaVuSans-48"/>
       <use x="254.492188" xlink:href="#DejaVuSans-48"/>
      </g>
     </g>
    </g>
    <g id="ytick_13">
     <g id="line2d_44">
      <path clip-path="url(#pc21fccab7e)" d="M 30.103125 260.906434 
L 1099.073125 260.906434 
" style="fill:none;stroke:#ffffff;stroke-linecap:square;stroke-width:0.8;"/>
     </g>
     <g id="line2d_45">
      <g>
       <use style="fill:#555555;stroke:#555555;stroke-width:0.8;" x="1099.073125" xlink:href="#m174873cf95" y="260.906434"/>
      </g>
     </g>
     <g id="text_20">
      <!-- 20000 -->
      <g style="fill:#555555;" transform="translate(1106.073125 264.705653)scale(0.1 -0.1)">
       <use xlink:href="#DejaVuSans-50"/>
       <use x="63.623047" xlink:href="#DejaVuSans-48"/>
       <use x="127.246094" xlink:href="#DejaVuSans-48"/>
       <use x="190.869141" xlink:href="#DejaVuSans-48"/>
       <use x="254.492188" xlink:href="#DejaVuSans-48"/>
      </g>
     </g>
    </g>
    <g id="ytick_14">
     <g id="line2d_46">
      <path clip-path="url(#pc21fccab7e)" d="M 30.103125 178.88202 
L 1099.073125 178.88202 
" style="fill:none;stroke:#ffffff;stroke-linecap:square;stroke-width:0.8;"/>
     </g>
     <g id="line2d_47">
      <g>
       <use style="fill:#555555;stroke:#555555;stroke-width:0.8;" x="1099.073125" xlink:href="#m174873cf95" y="178.88202"/>
      </g>
     </g>
     <g id="text_21">
      <!-- 25000 -->
      <g style="fill:#555555;" transform="translate(1106.073125 182.681239)scale(0.1 -0.1)">
       <use xlink:href="#DejaVuSans-50"/>
       <use x="63.623047" xlink:href="#DejaVuSans-53"/>
       <use x="127.246094" xlink:href="#DejaVuSans-48"/>
       <use x="190.869141" xlink:href="#DejaVuSans-48"/>
       <use x="254.492188" xlink:href="#DejaVuSans-48"/>
      </g>
     </g>
    </g>
    <g id="ytick_15">
     <g id="line2d_48">
      <path clip-path="url(#pc21fccab7e)" d="M 30.103125 96.857606 
L 1099.073125 96.857606 
" style="fill:none;stroke:#ffffff;stroke-linecap:square;stroke-width:0.8;"/>
     </g>
     <g id="line2d_49">
      <g>
       <use style="fill:#555555;stroke:#555555;stroke-width:0.8;" x="1099.073125" xlink:href="#m174873cf95" y="96.857606"/>
      </g>
     </g>
     <g id="text_22">
      <!-- 30000 -->
      <g style="fill:#555555;" transform="translate(1106.073125 100.656825)scale(0.1 -0.1)">
       <use xlink:href="#DejaVuSans-51"/>
       <use x="63.623047" xlink:href="#DejaVuSans-48"/>
       <use x="127.246094" xlink:href="#DejaVuSans-48"/>
       <use x="190.869141" xlink:href="#DejaVuSans-48"/>
       <use x="254.492188" xlink:href="#DejaVuSans-48"/>
      </g>
     </g>
    </g>
    <g id="ytick_16">
     <g id="line2d_50">
      <path clip-path="url(#pc21fccab7e)" d="M 30.103125 14.833192 
L 1099.073125 14.833192 
" style="fill:none;stroke:#ffffff;stroke-linecap:square;stroke-width:0.8;"/>
     </g>
     <g id="line2d_51">
      <g>
       <use style="fill:#555555;stroke:#555555;stroke-width:0.8;" x="1099.073125" xlink:href="#m174873cf95" y="14.833192"/>
      </g>
     </g>
     <g id="text_23">
      <!-- 35000 -->
      <g style="fill:#555555;" transform="translate(1106.073125 18.632411)scale(0.1 -0.1)">
       <use xlink:href="#DejaVuSans-51"/>
       <use x="63.623047" xlink:href="#DejaVuSans-53"/>
       <use x="127.246094" xlink:href="#DejaVuSans-48"/>
       <use x="190.869141" xlink:href="#DejaVuSans-48"/>
       <use x="254.492188" xlink:href="#DejaVuSans-48"/>
      </g>
     </g>
    </g>
   </g>
   <g id="line2d_52">
    <path clip-path="url(#pc21fccab7e)" d="M 78.69267 588.134631 
L 81.298008 588.479134 
L 83.903346 588.309617 
L 89.114021 588.361019 
L 91.719358 588.287744 
L 94.324696 588.066668 
L 99.535371 587.290952 
L 102.140708 587.187835 
L 104.746046 586.698032 
L 107.351384 586.42618 
L 109.956721 585.945751 
L 112.562059 584.389631 
L 115.167396 583.325657 
L 117.772734 581.973426 
L 125.588746 575.27086 
L 128.194084 573.463979 
L 130.799422 568.779213 
L 133.404759 563.471062 
L 136.010097 558.849572 
L 138.615434 556.728655 
L 141.220772 549.960469 
L 143.826109 541.476801 
L 146.431447 534.268027 
L 149.036785 529.222354 
L 151.642122 522.608842 
L 154.24746 514.197824 
L 156.852797 509.470875 
L 159.458135 507.856166 
L 162.063472 508.205355 
L 164.66881 505.07671 
L 167.274147 502.259757 
L 169.879485 501.336396 
L 172.484823 501.83323 
L 175.09016 497.214084 
L 177.695498 499.731061 
L 180.300835 501.561378 
L 182.906173 504.959532 
L 185.51151 507.729614 
L 188.116848 509.723979 
L 190.722185 514.291567 
L 193.327523 521.59174 
L 195.932861 524.263392 
L 198.538198 528.3693 
L 201.143536 531.924472 
L 203.748873 536.864685 
L 206.354211 541.418212 
L 208.959548 542.646235 
L 211.564886 543.496945 
L 214.170223 545.282734 
L 219.380899 546.562315 
L 221.986236 547.766902 
L 224.591574 550.211229 
L 227.196911 553.853113 
L 235.012924 558.819106 
L 240.223599 563.053909 
L 242.828937 564.68971 
L 245.434274 567.291056 
L 248.039612 569.503372 
L 250.644949 570.297837 
L 253.250287 571.373528 
L 255.855624 572.210177 
L 258.460962 572.664827 
L 261.0663 573.672555 
L 263.671637 572.955428 
L 266.276975 573.250715 
L 268.882312 574.00534 
L 271.48765 573.424139 
L 274.092987 573.773328 
L 276.698325 574.595916 
L 279.303662 575.289608 
L 281.909 576.768391 
L 284.514338 576.96525 
L 287.119675 577.000403 
L 289.725013 577.984696 
L 292.33035 577.987039 
L 294.935688 578.427628 
L 297.541025 579.489258 
L 300.146363 579.447074 
L 302.7517 579.803294 
L 307.962376 580.117331 
L 313.173051 582.05545 
L 315.778388 581.396912 
L 318.383726 581.162556 
L 320.989063 581.502372 
L 323.594401 581.399255 
L 326.199738 581.912494 
L 328.805076 581.959365 
L 331.410414 581.863279 
L 334.015751 582.411671 
L 336.621089 583.187387 
L 339.226426 583.152234 
L 341.831764 583.431117 
L 344.437101 583.11005 
L 347.042439 583.166295 
L 349.647776 582.788983 
L 352.253114 583.372528 
L 360.069127 583.688908 
L 367.885139 583.501424 
L 370.490477 582.301524 
L 373.095814 581.708604 
L 375.701152 580.67744 
L 378.30649 579.868914 
L 380.911827 579.57597 
L 383.517165 579.008829 
L 386.122502 578.891652 
L 388.72784 579.578313 
L 391.333177 579.376767 
L 393.938515 580.386839 
L 396.543853 581.031317 
L 399.14919 581.043035 
L 404.359865 581.624236 
L 406.965203 581.696887 
L 409.57054 582.317929 
L 414.781215 582.458542 
L 419.991891 582.873351 
L 427.807903 583.238946 
L 430.413241 583.217854 
L 433.018578 583.358467 
L 435.623916 583.306909 
L 438.229253 583.414712 
L 440.834591 583.199105 
L 446.045266 582.40464 
L 448.650604 582.512444 
L 459.071954 581.720322 
L 464.282629 580.586042 
L 472.098642 579.871257 
L 474.703979 579.33224 
L 477.309317 578.551836 
L 479.914654 578.422941 
L 482.519992 578.015162 
L 485.125329 578.167493 
L 487.730667 577.771432 
L 490.336005 577.194918 
L 492.941342 577.061335 
L 495.54668 576.726207 
L 498.152017 576.077042 
L 500.757355 575.685669 
L 503.362692 574.947449 
L 505.96803 575.118529 
L 508.573368 574.914639 
L 511.178705 573.778015 
L 513.784043 572.840593 
L 518.994718 571.446178 
L 521.600055 571.28213 
L 524.205393 570.989185 
L 526.81073 569.995518 
L 532.021406 568.715937 
L 534.626743 568.767495 
L 537.232081 567.316835 
L 542.442756 566.597364 
L 545.048093 566.859842 
L 547.653431 566.705167 
L 550.258768 567.173878 
L 552.864106 566.836406 
L 555.469444 568.137079 
L 558.074781 568.130048 
L 563.285456 568.507361 
L 565.890794 569.257298 
L 568.496131 569.716635 
L 573.706806 570.229873 
L 578.917482 569.276047 
L 581.522819 568.617508 
L 584.128157 568.804992 
L 586.733494 567.443387 
L 589.338832 567.370737 
L 591.944169 566.780161 
L 594.549507 566.873903 
L 597.154844 566.609081 
L 599.760182 566.824689 
L 602.36552 565.125611 
L 604.970857 564.417858 
L 607.576195 563.405442 
L 610.181532 561.842291 
L 612.78687 560.9119 
L 615.392207 560.923618 
L 617.997545 559.953386 
L 620.602882 560.262735 
L 623.20822 560.382257 
L 628.418895 559.334688 
L 631.024233 559.182357 
L 636.234908 557.921524 
L 638.840245 557.853561 
L 641.445583 557.009881 
L 644.050921 555.791233 
L 646.656258 555.659994 
L 649.261596 553.623445 
L 651.866933 553.17817 
L 654.472271 551.889215 
L 657.077608 549.475353 
L 659.682946 545.831126 
L 662.288283 541.511954 
L 664.893621 536.454563 
L 667.498959 533.632924 
L 670.104296 531.090167 
L 672.709634 527.614675 
L 675.314971 522.215125 
L 677.920309 516.168754 
L 680.525646 509.564617 
L 683.130984 502.278505 
L 685.736321 497.347666 
L 688.341659 492.993342 
L 690.946997 486.557941 
L 693.552334 480.785765 
L 696.157672 469.89058 
L 698.763009 460.731968 
L 701.368347 444.598937 
L 703.973684 431.50081 
L 709.184359 410.64083 
L 711.789697 393.371176 
L 714.395035 380.512091 
L 717.000372 363.078388 
L 719.60571 352.895643 
L 722.211047 345.862635 
L 724.816385 337.866426 
L 727.421722 328.62579 
L 730.02706 323.352792 
L 732.632397 315.81592 
L 735.237735 309.195378 
L 737.843073 299.024351 
L 740.44841 294.71221 
L 743.053748 291.74527 
L 745.659085 291.792141 
L 748.264423 288.808796 
L 750.86976 284.412288 
L 753.475098 279.64081 
L 756.080436 281.839064 
L 758.685773 279.659559 
L 761.291111 285.609844 
L 766.501786 289.919641 
L 769.107123 288.17838 
L 771.712461 287.929963 
L 774.317798 286.751155 
L 776.923136 289.577482 
L 779.528474 289.48374 
L 782.133811 291.510915 
L 784.739149 288.998624 
L 787.344486 289.797776 
L 789.949824 291.771049 
L 792.555161 294.74502 
L 795.160499 297.393237 
L 797.765836 296.678453 
L 800.371174 296.561275 
L 802.976512 299.75554 
L 805.581849 300.275809 
L 808.187187 298.768904 
L 810.792524 294.965314 
L 813.397862 287.569056 
L 816.003199 284.843502 
L 818.608537 283.788902 
L 821.213874 275.481001 
L 823.819212 271.653976 
L 826.42455 256.594293 
L 829.029887 244.595293 
L 831.635225 238.893425 
L 834.240562 229.448899 
L 836.8459 228.563036 
L 839.451237 212.362042 
L 842.056575 204.759551 
L 844.661912 195.615 
L 847.26725 188.907747 
L 849.872588 182.882468 
L 852.477925 182.223929 
L 855.083263 170.281174 
L 857.6886 177.283716 
L 860.293938 164.928495 
L 862.899275 184.24876 
L 865.504613 223.725939 
L 868.10995 244.855428 
L 870.715288 258.136352 
L 873.320626 273.688181 
L 875.925963 279.03383 
L 878.531301 278.19718 
L 881.136638 284.311515 
L 883.741976 288.447889 
L 886.347313 296.509717 
L 888.952651 299.15559 
L 891.557989 301.487427 
L 894.163326 304.351251 
L 896.768664 318.789891 
L 899.374001 297.873666 
L 901.979339 269.741635 
L 904.584676 254.154653 
L 907.190014 247.991104 
L 909.795351 245.870187 
L 912.400689 249.706586 
L 915.006027 252.582128 
L 917.611364 274.80137 
L 920.216702 288.900195 
L 922.822039 296.127717 
L 925.427377 308.632925 
L 928.032714 311.991239 
L 930.638052 320.488968 
L 933.243389 331.65835 
L 935.848727 342.218407 
L 938.454065 347.517185 
L 941.059402 351.325461 
L 943.66474 352.291005 
L 946.270077 363.908006 
L 951.480752 377.081127 
L 954.08609 386.080377 
L 956.691427 395.679577 
L 961.902103 400.802587 
L 964.50744 401.500967 
L 967.112778 409.696377 
L 969.718115 417.519163 
L 972.323453 420.129883 
L 974.92879 424.432649 
L 977.534128 430.469646 
L 980.139465 432.98428 
L 982.744803 439.393902 
L 985.350141 443.220927 
L 987.955478 452.534214 
L 990.560816 459.677368 
L 993.166153 464.671483 
L 995.771491 470.535057 
L 998.376828 470.790505 
L 1000.982166 469.672629 
L 1003.587504 470.881903 
L 1006.192841 470.95221 
L 1008.798179 472.702845 
L 1011.403516 470.804566 
L 1014.008854 467.143934 
L 1016.614191 467.277516 
L 1019.219529 467.21424 
L 1021.824866 466.157297 
L 1024.430204 462.262309 
L 1027.035542 460.190607 
L 1029.640879 458.789161 
L 1032.246217 458.28764 
L 1034.851554 457.43693 
L 1037.456892 457.296317 
L 1040.062229 454.924639 
L 1042.667567 454.823867 
L 1045.272904 453.457574 
L 1047.878242 453.938003 
L 1050.48358 453.438826 
L 1050.48358 453.438826 
" style="fill:none;stroke:#000000;stroke-linecap:square;stroke-width:1.5;"/>
   </g>
   <g id="line2d_53">
    <path clip-path="url(#pc21fccab7e)" d="M 78.69267 588.134631 
L 81.298008 588.823636 
L 83.903346 587.970582 
L 86.508683 588.544753 
L 89.114021 588.33149 
L 91.719358 587.921368 
L 94.324696 586.740216 
L 96.930033 585.083323 
L 99.535371 586.444928 
L 102.140708 587.248768 
L 104.746046 585.116133 
L 107.351384 586.428523 
L 109.956721 584.558367 
L 112.562059 575.847374 
L 115.167396 577.635506 
L 117.772734 576.979311 
L 120.378071 571.893797 
L 122.983409 569.744758 
L 125.588746 570.236904 
L 128.194084 571.910202 
L 130.799422 543.054013 
L 133.404759 540.478447 
L 136.010097 544.628882 
L 138.615434 557.047378 
L 141.220772 522.367456 
L 143.826109 510.851228 
L 146.431447 521.448783 
L 151.642122 494.183867 
L 154.24746 485.751758 
L 156.852797 523.95873 
L 159.458135 511.064492 
L 162.063472 513.295556 
L 164.66881 499.548264 
L 167.274147 488.015632 
L 169.879485 487.720344 
L 172.484823 489.229593 
L 175.09016 491.624706 
L 177.695498 528.683336 
L 180.300835 526.107769 
L 182.906173 523.335344 
L 185.51151 507.406203 
L 188.116848 501.680899 
L 190.722185 521.202709 
L 193.327523 542.725916 
L 195.932861 547.384902 
L 198.538198 554.849124 
L 201.143536 548.221551 
L 203.748873 541.987696 
L 206.354211 533.555586 
L 208.959548 529.798868 
L 211.564886 548.680888 
L 214.170223 559.885423 
L 216.775561 559.721374 
L 219.380899 552.306367 
L 221.986236 550.419806 
L 224.591574 550.665879 
L 227.196911 555.292056 
L 229.802249 560.508809 
L 232.407586 572.303919 
L 235.012924 570.236904 
L 237.618261 567.612123 
L 240.223599 564.757673 
L 242.828937 562.116487 
L 245.434274 573.501476 
L 248.039612 575.995018 
L 250.644949 577.865175 
L 253.250287 577.766745 
L 255.855624 573.468666 
L 258.460962 567.940221 
L 261.0663 569.170587 
L 263.671637 568.481582 
L 266.276975 578.062033 
L 268.882312 583.147547 
L 271.48765 573.698334 
L 274.092987 575.912994 
L 276.698325 573.698334 
L 279.303662 574.026432 
L 281.909 578.833063 
L 284.514338 579.440043 
L 287.119675 583.39362 
L 289.725013 580.588385 
L 292.33035 575.929398 
L 294.935688 576.782452 
L 297.541025 581.457844 
L 300.146363 578.537775 
L 302.7517 581.933586 
L 305.357038 584.263079 
L 307.962376 581.917181 
L 310.567713 583.065522 
L 313.173051 583.213166 
L 315.778388 576.848072 
L 318.383726 576.897287 
L 320.989063 584.312294 
L 323.594401 583.541264 
L 326.199738 585.50985 
L 328.805076 583.39362 
L 331.410414 582.540566 
L 334.015751 580.686814 
L 341.831764 585.493445 
L 344.437101 583.262381 
L 347.042439 583.787337 
L 349.647776 579.89938 
L 352.253114 584.77163 
L 354.858452 583.295191 
L 357.463789 584.952084 
L 360.069127 585.854353 
L 362.674464 582.803044 
L 365.279802 583.344406 
L 367.885139 579.489258 
L 370.490477 576.37233 
L 373.095814 579.144756 
L 375.701152 577.733936 
L 378.30649 580.194668 
L 380.911827 580.752434 
L 383.517165 579.374424 
L 386.122502 578.669014 
L 388.72784 581.178961 
L 391.333177 577.733936 
L 393.938515 584.80444 
L 396.543853 584.706011 
L 399.14919 580.834458 
L 401.754528 581.359415 
L 404.359865 580.752434 
L 406.965203 581.687512 
L 409.57054 582.08123 
L 412.175878 585.083323 
L 414.781215 585.411421 
L 417.386553 582.606186 
L 419.991891 582.491352 
L 422.597228 581.753132 
L 425.202566 582.524161 
L 427.807903 582.803044 
L 430.413241 584.935679 
L 433.018578 586.395714 
L 435.623916 582.245278 
L 438.229253 583.245976 
L 440.834591 580.243883 
L 443.439929 579.440043 
L 446.045266 580.325907 
L 448.650604 585.690304 
L 451.255941 584.919274 
L 453.861279 580.440741 
L 456.466616 581.556273 
L 459.071954 579.669712 
L 461.677291 575.634111 
L 464.282629 576.191877 
L 466.887967 584.000601 
L 469.493304 583.42643 
L 472.098642 578.619799 
L 474.703979 577.78315 
L 477.309317 574.206886 
L 479.914654 574.731842 
L 482.519992 573.337427 
L 485.125329 585.066918 
L 487.730667 580.654005 
L 490.336005 574.584198 
L 492.941342 576.848072 
L 495.54668 571.860988 
L 498.152017 570.187689 
L 500.757355 570.597812 
L 503.362692 579.89938 
L 505.96803 581.851561 
L 508.573368 573.156973 
L 511.178705 568.891704 
L 513.784043 565.299034 
L 516.38938 565.233415 
L 518.994718 565.791181 
L 521.600055 578.751038 
L 524.205393 579.800951 
L 526.81073 566.201303 
L 529.416068 564.232717 
L 532.021406 561.000955 
L 534.626743 565.594322 
L 537.232081 555.636558 
L 539.837418 576.175472 
L 542.442756 577.340218 
L 545.048093 568.03865 
L 547.653431 563.149995 
L 550.258768 564.281932 
L 552.864106 563.232019 
L 555.469444 564.741268 
L 558.074781 576.126257 
L 560.680119 578.997112 
L 563.285456 569.022943 
L 565.890794 568.399557 
L 568.496131 567.497289 
L 571.101469 565.167795 
L 573.706806 566.398162 
L 576.312144 572.796066 
L 578.917482 575.650515 
L 581.522819 564.413171 
L 584.128157 569.711948 
L 586.733494 557.966052 
L 589.338832 564.659244 
L 591.944169 562.264131 
L 594.549507 573.452261 
L 597.154844 573.796764 
L 602.36552 557.818408 
L 604.970857 553.011777 
L 607.576195 557.572335 
L 610.181532 551.322074 
L 612.78687 566.939523 
L 615.392207 573.878788 
L 617.997545 559.130798 
L 620.602882 559.983852 
L 623.20822 553.848426 
L 625.813558 553.684377 
L 628.418895 547.877049 
L 631.024233 565.873205 
L 633.62957 569.44947 
L 636.234908 554.73429 
L 638.840245 559.508111 
L 641.445583 547.942668 
L 644.050921 545.153838 
L 646.656258 546.958375 
L 649.261596 551.617362 
L 651.866933 566.332542 
L 654.472271 545.711604 
L 657.077608 542.611082 
L 659.682946 522.433076 
L 662.288283 514.919639 
L 664.893621 511.556638 
L 667.498959 531.865883 
L 670.104296 548.533244 
L 672.709634 521.383163 
L 675.314971 504.814232 
L 677.920309 480.108478 
L 680.525646 468.69068 
L 683.130984 460.553858 
L 685.736321 497.35001 
L 688.341659 518.052972 
L 690.946997 476.335355 
L 693.552334 464.409005 
L 696.157672 403.842178 
L 698.763009 404.580398 
L 701.368347 347.622645 
L 703.973684 405.66312 
L 706.579022 446.527683 
L 709.184359 401.840782 
L 711.789697 343.521424 
L 714.395035 313.828586 
L 717.000372 282.544474 
L 719.60571 276.343429 
L 722.211047 356.432067 
L 724.816385 390.554223 
L 727.421722 337.156329 
L 730.02706 306.610438 
L 732.632397 261.070483 
L 735.237735 236.200681 
L 737.843073 205.146237 
L 740.44841 326.247082 
L 743.053748 369.785641 
L 745.659085 337.484427 
L 748.264423 285.727022 
L 750.86976 230.294923 
L 753.475098 202.800339 
L 756.080436 220.534017 
L 758.685773 310.990541 
L 761.291111 411.437639 
L 763.896448 352.462085 
L 766.501786 300.917943 
L 769.107123 218.106095 
L 771.712461 201.061422 
L 774.317798 212.282361 
L 776.923136 330.77483 
L 779.528474 410.781443 
L 782.133811 366.652309 
L 784.739149 283.331909 
L 787.344486 223.70016 
L 789.949824 214.874333 
L 792.555161 233.100158 
L 795.160499 349.312347 
L 797.765836 405.777954 
L 800.371174 365.832064 
L 802.976512 305.691764 
L 805.581849 227.342044 
L 808.187187 204.325993 
L 810.792524 206.475033 
L 816.003199 386.699075 
L 818.608537 358.449867 
L 821.213874 247.536455 
L 823.819212 200.55287 
L 826.42455 98.908216 
L 829.029887 122.482033 
L 831.635225 257.625457 
L 834.240562 320.587398 
L 836.8459 352.248821 
L 839.451237 134.1295 
L 842.056575 147.33543 
L 844.661912 34.896364 
L 847.26725 75.531258 
L 849.872588 215.448504 
L 852.477925 315.977626 
L 855.083263 268.649539 
L 857.6886 183.14729 
L 860.293938 60.848888 
L 862.899275 170.138217 
L 865.504613 351.871509 
L 868.10995 363.354927 
L 870.715288 408.944096 
L 873.320626 377.512341 
L 875.925963 220.566827 
L 878.531301 54.992345 
L 881.136638 212.938557 
L 883.741976 380.826127 
L 886.347313 419.787724 
L 888.952651 427.465209 
L 891.557989 393.835199 
L 894.163326 240.613594 
L 896.768664 156.062828 
L 899.374001 66.524978 
L 901.979339 183.901914 
L 904.584676 310.678848 
L 907.190014 384.320367 
L 909.795351 378.98878 
L 912.400689 267.468387 
L 915.006027 176.191619 
L 917.611364 222.059672 
L 920.216702 282.593689 
L 922.822039 361.271507 
L 925.427377 471.856822 
L 928.032714 402.496977 
L 933.243389 254.377291 
L 935.848727 295.980073 
L 938.454065 319.685129 
L 941.059402 387.929442 
L 943.66474 478.615634 
L 946.270077 483.815982 
L 948.875415 372.426827 
L 951.480752 301.114802 
L 954.08609 358.974823 
L 956.691427 386.879529 
L 959.296765 405.400642 
L 961.902103 497.005507 
L 964.50744 488.704637 
L 967.112778 429.794702 
L 969.718115 355.874301 
L 972.323453 377.249863 
L 974.92879 416.998894 
L 977.534128 447.65962 
L 980.139465 514.607947 
L 982.744803 533.571991 
L 985.350141 456.583876 
L 987.955478 421.067305 
L 990.560816 427.251946 
L 993.166153 451.957699 
L 995.771491 488.704637 
L 998.376828 516.396079 
L 1000.982166 525.746862 
L 1003.587504 465.048796 
L 1006.192841 421.559451 
L 1008.798179 439.506393 
L 1011.403516 438.669744 
L 1014.008854 463.08021 
L 1016.614191 517.331157 
L 1019.219529 525.30393 
L 1021.824866 457.650193 
L 1024.430204 394.294536 
L 1027.035542 425.004477 
L 1029.640879 428.859624 
L 1032.246217 459.569565 
L 1034.851554 511.376185 
L 1037.456892 524.319637 
L 1040.062229 441.048452 
L 1042.667567 393.589126 
L 1045.272904 415.44043 
L 1047.878242 432.222625 
L 1050.48358 456.075325 
L 1050.48358 456.075325 
" style="fill:none;stroke:#000000;stroke-dasharray:1.5,2.475;stroke-dashoffset:0;stroke-width:1.5;"/>
   </g>
   <g id="patch_7">
    <path d="M 30.103125 616.52 
L 30.103125 7.2 
" style="fill:none;stroke:#ffffff;stroke-linecap:square;stroke-linejoin:miter;"/>
   </g>
   <g id="patch_8">
    <path d="M 1099.073125 616.52 
L 1099.073125 7.2 
" style="fill:none;stroke:#ffffff;stroke-linecap:square;stroke-linejoin:miter;"/>
   </g>
   <g id="patch_9">
    <path d="M 30.103125 616.52 
L 1099.073125 616.52 
" style="fill:none;stroke:#ffffff;stroke-linecap:square;stroke-linejoin:miter;"/>
   </g>
   <g id="patch_10">
    <path d="M 30.103125 7.2 
L 1099.073125 7.2 
" style="fill:none;stroke:#ffffff;stroke-linecap:square;stroke-linejoin:miter;"/>
   </g>
   <g id="legend_1">
    <g id="patch_11">
     <path d="M 934.877812 103.26875 
L 1092.073125 103.26875 
Q 1094.073125 103.26875 1094.073125 101.26875 
L 1094.073125 14.2 
Q 1094.073125 12.2 1092.073125 12.2 
L 934.877812 12.2 
Q 932.877812 12.2 932.877812 14.2 
L 932.877812 101.26875 
Q 932.877812 103.26875 934.877812 103.26875 
z
" style="fill:#e5e5e5;opacity:0.8;stroke:#cccccc;stroke-linejoin:miter;stroke-width:0.5;"/>
    </g>
    <g id="line2d_54">
     <path d="M 936.877812 20.298437 
L 956.877812 20.298437 
" style="fill:none;stroke:#e24a33;stroke-linecap:square;stroke-width:1.5;"/>
    </g>
    <g id="line2d_55"/>
    <g id="text_24">
     <!-- Logistic rate rolling week -->
     <g transform="translate(964.877812 23.798437)scale(0.1 -0.1)">
      <defs>
       <path d="M 9.8125 72.90625 
L 19.671875 72.90625 
L 19.671875 8.296875 
L 55.171875 8.296875 
L 55.171875 0 
L 9.8125 0 
z
" id="DejaVuSans-76"/>
       <path d="M 30.609375 48.390625 
Q 23.390625 48.390625 19.1875 42.75 
Q 14.984375 37.109375 14.984375 27.296875 
Q 14.984375 17.484375 19.15625 11.84375 
Q 23.34375 6.203125 30.609375 6.203125 
Q 37.796875 6.203125 41.984375 11.859375 
Q 46.1875 17.53125 46.1875 27.296875 
Q 46.1875 37.015625 41.984375 42.703125 
Q 37.796875 48.390625 30.609375 48.390625 
z
M 30.609375 56 
Q 42.328125 56 49.015625 48.375 
Q 55.71875 40.765625 55.71875 27.296875 
Q 55.71875 13.875 49.015625 6.21875 
Q 42.328125 -1.421875 30.609375 -1.421875 
Q 18.84375 -1.421875 12.171875 6.21875 
Q 5.515625 13.875 5.515625 27.296875 
Q 5.515625 40.765625 12.171875 48.375 
Q 18.84375 56 30.609375 56 
z
" id="DejaVuSans-111"/>
       <path d="M 45.40625 27.984375 
Q 45.40625 37.75 41.375 43.109375 
Q 37.359375 48.484375 30.078125 48.484375 
Q 22.859375 48.484375 18.828125 43.109375 
Q 14.796875 37.75 14.796875 27.984375 
Q 14.796875 18.265625 18.828125 12.890625 
Q 22.859375 7.515625 30.078125 7.515625 
Q 37.359375 7.515625 41.375 12.890625 
Q 45.40625 18.265625 45.40625 27.984375 
z
M 54.390625 6.78125 
Q 54.390625 -7.171875 48.1875 -13.984375 
Q 42 -20.796875 29.203125 -20.796875 
Q 24.46875 -20.796875 20.265625 -20.09375 
Q 16.0625 -19.390625 12.109375 -17.921875 
L 12.109375 -9.1875 
Q 16.0625 -11.328125 19.921875 -12.34375 
Q 23.78125 -13.375 27.78125 -13.375 
Q 36.625 -13.375 41.015625 -8.765625 
Q 45.40625 -4.15625 45.40625 5.171875 
L 45.40625 9.625 
Q 42.625 4.78125 38.28125 2.390625 
Q 33.9375 0 27.875 0 
Q 17.828125 0 11.671875 7.65625 
Q 5.515625 15.328125 5.515625 27.984375 
Q 5.515625 40.671875 11.671875 48.328125 
Q 17.828125 56 27.875 56 
Q 33.9375 56 38.28125 53.609375 
Q 42.625 51.21875 45.40625 46.390625 
L 45.40625 54.6875 
L 54.390625 54.6875 
z
" id="DejaVuSans-103"/>
       <path d="M 9.421875 54.6875 
L 18.40625 54.6875 
L 18.40625 0 
L 9.421875 0 
z
M 9.421875 75.984375 
L 18.40625 75.984375 
L 18.40625 64.59375 
L 9.421875 64.59375 
z
" id="DejaVuSans-105"/>
       <path d="M 44.28125 53.078125 
L 44.28125 44.578125 
Q 40.484375 46.53125 36.375 47.5 
Q 32.28125 48.484375 27.875 48.484375 
Q 21.1875 48.484375 17.84375 46.4375 
Q 14.5 44.390625 14.5 40.28125 
Q 14.5 37.15625 16.890625 35.375 
Q 19.28125 33.59375 26.515625 31.984375 
L 29.59375 31.296875 
Q 39.15625 29.25 43.1875 25.515625 
Q 47.21875 21.78125 47.21875 15.09375 
Q 47.21875 7.46875 41.1875 3.015625 
Q 35.15625 -1.421875 24.609375 -1.421875 
Q 20.21875 -1.421875 15.453125 -0.5625 
Q 10.6875 0.296875 5.421875 2 
L 5.421875 11.28125 
Q 10.40625 8.6875 15.234375 7.390625 
Q 20.0625 6.109375 24.8125 6.109375 
Q 31.15625 6.109375 34.5625 8.28125 
Q 37.984375 10.453125 37.984375 14.40625 
Q 37.984375 18.0625 35.515625 20.015625 
Q 33.0625 21.96875 24.703125 23.78125 
L 21.578125 24.515625 
Q 13.234375 26.265625 9.515625 29.90625 
Q 5.8125 33.546875 5.8125 39.890625 
Q 5.8125 47.609375 11.28125 51.796875 
Q 16.75 56 26.8125 56 
Q 31.78125 56 36.171875 55.265625 
Q 40.578125 54.546875 44.28125 53.078125 
z
" id="DejaVuSans-115"/>
       <path d="M 18.3125 70.21875 
L 18.3125 54.6875 
L 36.8125 54.6875 
L 36.8125 47.703125 
L 18.3125 47.703125 
L 18.3125 18.015625 
Q 18.3125 11.328125 20.140625 9.421875 
Q 21.96875 7.515625 27.59375 7.515625 
L 36.8125 7.515625 
L 36.8125 0 
L 27.59375 0 
Q 17.1875 0 13.234375 3.875 
Q 9.28125 7.765625 9.28125 18.015625 
L 9.28125 47.703125 
L 2.6875 47.703125 
L 2.6875 54.6875 
L 9.28125 54.6875 
L 9.28125 70.21875 
z
" id="DejaVuSans-116"/>
       <path d="M 48.78125 52.59375 
L 48.78125 44.1875 
Q 44.96875 46.296875 41.140625 47.34375 
Q 37.3125 48.390625 33.40625 48.390625 
Q 24.65625 48.390625 19.8125 42.84375 
Q 14.984375 37.3125 14.984375 27.296875 
Q 14.984375 17.28125 19.8125 11.734375 
Q 24.65625 6.203125 33.40625 6.203125 
Q 37.3125 6.203125 41.140625 7.25 
Q 44.96875 8.296875 48.78125 10.40625 
L 48.78125 2.09375 
Q 45.015625 0.34375 40.984375 -0.53125 
Q 36.96875 -1.421875 32.421875 -1.421875 
Q 20.0625 -1.421875 12.78125 6.34375 
Q 5.515625 14.109375 5.515625 27.296875 
Q 5.515625 40.671875 12.859375 48.328125 
Q 20.21875 56 33.015625 56 
Q 37.15625 56 41.109375 55.140625 
Q 45.0625 54.296875 48.78125 52.59375 
z
" id="DejaVuSans-99"/>
       <path id="DejaVuSans-32"/>
       <path d="M 41.109375 46.296875 
Q 39.59375 47.171875 37.8125 47.578125 
Q 36.03125 48 33.890625 48 
Q 26.265625 48 22.1875 43.046875 
Q 18.109375 38.09375 18.109375 28.8125 
L 18.109375 0 
L 9.078125 0 
L 9.078125 54.6875 
L 18.109375 54.6875 
L 18.109375 46.1875 
Q 20.953125 51.171875 25.484375 53.578125 
Q 30.03125 56 36.53125 56 
Q 37.453125 56 38.578125 55.875 
Q 39.703125 55.765625 41.0625 55.515625 
z
" id="DejaVuSans-114"/>
       <path d="M 34.28125 27.484375 
Q 23.390625 27.484375 19.1875 25 
Q 14.984375 22.515625 14.984375 16.5 
Q 14.984375 11.71875 18.140625 8.90625 
Q 21.296875 6.109375 26.703125 6.109375 
Q 34.1875 6.109375 38.703125 11.40625 
Q 43.21875 16.703125 43.21875 25.484375 
L 43.21875 27.484375 
z
M 52.203125 31.203125 
L 52.203125 0 
L 43.21875 0 
L 43.21875 8.296875 
Q 40.140625 3.328125 35.546875 0.953125 
Q 30.953125 -1.421875 24.3125 -1.421875 
Q 15.921875 -1.421875 10.953125 3.296875 
Q 6 8.015625 6 15.921875 
Q 6 25.140625 12.171875 29.828125 
Q 18.359375 34.515625 30.609375 34.515625 
L 43.21875 34.515625 
L 43.21875 35.40625 
Q 43.21875 41.609375 39.140625 45 
Q 35.0625 48.390625 27.6875 48.390625 
Q 23 48.390625 18.546875 47.265625 
Q 14.109375 46.140625 10.015625 43.890625 
L 10.015625 52.203125 
Q 14.9375 54.109375 19.578125 55.046875 
Q 24.21875 56 28.609375 56 
Q 40.484375 56 46.34375 49.84375 
Q 52.203125 43.703125 52.203125 31.203125 
z
" id="DejaVuSans-97"/>
       <path d="M 56.203125 29.59375 
L 56.203125 25.203125 
L 14.890625 25.203125 
Q 15.484375 15.921875 20.484375 11.0625 
Q 25.484375 6.203125 34.421875 6.203125 
Q 39.59375 6.203125 44.453125 7.46875 
Q 49.3125 8.734375 54.109375 11.28125 
L 54.109375 2.78125 
Q 49.265625 0.734375 44.1875 -0.34375 
Q 39.109375 -1.421875 33.890625 -1.421875 
Q 20.796875 -1.421875 13.15625 6.1875 
Q 5.515625 13.8125 5.515625 26.8125 
Q 5.515625 40.234375 12.765625 48.109375 
Q 20.015625 56 32.328125 56 
Q 43.359375 56 49.78125 48.890625 
Q 56.203125 41.796875 56.203125 29.59375 
z
M 47.21875 32.234375 
Q 47.125 39.59375 43.09375 43.984375 
Q 39.0625 48.390625 32.421875 48.390625 
Q 24.90625 48.390625 20.390625 44.140625 
Q 15.875 39.890625 15.1875 32.171875 
z
" id="DejaVuSans-101"/>
       <path d="M 9.421875 75.984375 
L 18.40625 75.984375 
L 18.40625 0 
L 9.421875 0 
z
" id="DejaVuSans-108"/>
       <path d="M 54.890625 33.015625 
L 54.890625 0 
L 45.90625 0 
L 45.90625 32.71875 
Q 45.90625 40.484375 42.875 44.328125 
Q 39.84375 48.1875 33.796875 48.1875 
Q 26.515625 48.1875 22.3125 43.546875 
Q 18.109375 38.921875 18.109375 30.90625 
L 18.109375 0 
L 9.078125 0 
L 9.078125 54.6875 
L 18.109375 54.6875 
L 18.109375 46.1875 
Q 21.34375 51.125 25.703125 53.5625 
Q 30.078125 56 35.796875 56 
Q 45.21875 56 50.046875 50.171875 
Q 54.890625 44.34375 54.890625 33.015625 
z
" id="DejaVuSans-110"/>
       <path d="M 4.203125 54.6875 
L 13.1875 54.6875 
L 24.421875 12.015625 
L 35.59375 54.6875 
L 46.1875 54.6875 
L 57.421875 12.015625 
L 68.609375 54.6875 
L 77.59375 54.6875 
L 63.28125 0 
L 52.6875 0 
L 40.921875 44.828125 
L 29.109375 0 
L 18.5 0 
z
" id="DejaVuSans-119"/>
       <path d="M 9.078125 75.984375 
L 18.109375 75.984375 
L 18.109375 31.109375 
L 44.921875 54.6875 
L 56.390625 54.6875 
L 27.390625 29.109375 
L 57.625 0 
L 45.90625 0 
L 18.109375 26.703125 
L 18.109375 0 
L 9.078125 0 
z
" id="DejaVuSans-107"/>
      </defs>
      <use xlink:href="#DejaVuSans-76"/>
      <use x="53.962891" xlink:href="#DejaVuSans-111"/>
      <use x="115.144531" xlink:href="#DejaVuSans-103"/>
      <use x="178.621094" xlink:href="#DejaVuSans-105"/>
      <use x="206.404297" xlink:href="#DejaVuSans-115"/>
      <use x="258.503906" xlink:href="#DejaVuSans-116"/>
      <use x="297.712891" xlink:href="#DejaVuSans-105"/>
      <use x="325.496094" xlink:href="#DejaVuSans-99"/>
      <use x="380.476562" xlink:href="#DejaVuSans-32"/>
      <use x="412.263672" xlink:href="#DejaVuSans-114"/>
      <use x="453.376953" xlink:href="#DejaVuSans-97"/>
      <use x="514.65625" xlink:href="#DejaVuSans-116"/>
      <use x="553.865234" xlink:href="#DejaVuSans-101"/>
      <use x="615.388672" xlink:href="#DejaVuSans-32"/>
      <use x="647.175781" xlink:href="#DejaVuSans-114"/>
      <use x="686.039062" xlink:href="#DejaVuSans-111"/>
      <use x="747.220703" xlink:href="#DejaVuSans-108"/>
      <use x="775.003906" xlink:href="#DejaVuSans-108"/>
      <use x="802.787109" xlink:href="#DejaVuSans-105"/>
      <use x="830.570312" xlink:href="#DejaVuSans-110"/>
      <use x="893.949219" xlink:href="#DejaVuSans-103"/>
      <use x="957.425781" xlink:href="#DejaVuSans-32"/>
      <use x="989.212891" xlink:href="#DejaVuSans-119"/>
      <use x="1071" xlink:href="#DejaVuSans-101"/>
      <use x="1132.523438" xlink:href="#DejaVuSans-101"/>
      <use x="1194.046875" xlink:href="#DejaVuSans-107"/>
     </g>
    </g>
    <g id="line2d_56">
     <path d="M 936.877812 34.976562 
L 956.877812 34.976562 
" style="fill:none;stroke:#e24a33;stroke-dasharray:1.5,2.475;stroke-dashoffset:0;stroke-width:1.5;"/>
    </g>
    <g id="line2d_57"/>
    <g id="text_25">
     <!-- Logistic rate -->
     <g transform="translate(964.877812 38.476562)scale(0.1 -0.1)">
      <use xlink:href="#DejaVuSans-76"/>
      <use x="53.962891" xlink:href="#DejaVuSans-111"/>
      <use x="115.144531" xlink:href="#DejaVuSans-103"/>
      <use x="178.621094" xlink:href="#DejaVuSans-105"/>
      <use x="206.404297" xlink:href="#DejaVuSans-115"/>
      <use x="258.503906" xlink:href="#DejaVuSans-116"/>
      <use x="297.712891" xlink:href="#DejaVuSans-105"/>
      <use x="325.496094" xlink:href="#DejaVuSans-99"/>
      <use x="380.476562" xlink:href="#DejaVuSans-32"/>
      <use x="412.263672" xlink:href="#DejaVuSans-114"/>
      <use x="453.376953" xlink:href="#DejaVuSans-97"/>
      <use x="514.65625" xlink:href="#DejaVuSans-116"/>
      <use x="553.865234" xlink:href="#DejaVuSans-101"/>
     </g>
    </g>
    <g id="line2d_58">
     <path d="M 936.877812 49.654687 
L 956.877812 49.654687 
" style="fill:none;stroke:#348abd;stroke-linecap:square;stroke-width:1.5;"/>
    </g>
    <g id="line2d_59"/>
    <g id="text_26">
     <!-- RKI rate rolling week -->
     <g transform="translate(964.877812 53.154687)scale(0.1 -0.1)">
      <defs>
       <path d="M 44.390625 34.1875 
Q 47.5625 33.109375 50.5625 29.59375 
Q 53.5625 26.078125 56.59375 19.921875 
L 66.609375 0 
L 56 0 
L 46.6875 18.703125 
Q 43.0625 26.03125 39.671875 28.421875 
Q 36.28125 30.8125 30.421875 30.8125 
L 19.671875 30.8125 
L 19.671875 0 
L 9.8125 0 
L 9.8125 72.90625 
L 32.078125 72.90625 
Q 44.578125 72.90625 50.734375 67.671875 
Q 56.890625 62.453125 56.890625 51.90625 
Q 56.890625 45.015625 53.6875 40.46875 
Q 50.484375 35.9375 44.390625 34.1875 
z
M 19.671875 64.796875 
L 19.671875 38.921875 
L 32.078125 38.921875 
Q 39.203125 38.921875 42.84375 42.21875 
Q 46.484375 45.515625 46.484375 51.90625 
Q 46.484375 58.296875 42.84375 61.546875 
Q 39.203125 64.796875 32.078125 64.796875 
z
" id="DejaVuSans-82"/>
       <path d="M 9.8125 72.90625 
L 19.671875 72.90625 
L 19.671875 42.09375 
L 52.390625 72.90625 
L 65.09375 72.90625 
L 28.90625 38.921875 
L 67.671875 0 
L 54.6875 0 
L 19.671875 35.109375 
L 19.671875 0 
L 9.8125 0 
z
" id="DejaVuSans-75"/>
       <path d="M 9.8125 72.90625 
L 19.671875 72.90625 
L 19.671875 0 
L 9.8125 0 
z
" id="DejaVuSans-73"/>
      </defs>
      <use xlink:href="#DejaVuSans-82"/>
      <use x="69.482422" xlink:href="#DejaVuSans-75"/>
      <use x="135.058594" xlink:href="#DejaVuSans-73"/>
      <use x="164.550781" xlink:href="#DejaVuSans-32"/>
      <use x="196.337891" xlink:href="#DejaVuSans-114"/>
      <use x="237.451172" xlink:href="#DejaVuSans-97"/>
      <use x="298.730469" xlink:href="#DejaVuSans-116"/>
      <use x="337.939453" xlink:href="#DejaVuSans-101"/>
      <use x="399.462891" xlink:href="#DejaVuSans-32"/>
      <use x="431.25" xlink:href="#DejaVuSans-114"/>
      <use x="470.113281" xlink:href="#DejaVuSans-111"/>
      <use x="531.294922" xlink:href="#DejaVuSans-108"/>
      <use x="559.078125" xlink:href="#DejaVuSans-108"/>
      <use x="586.861328" xlink:href="#DejaVuSans-105"/>
      <use x="614.644531" xlink:href="#DejaVuSans-110"/>
      <use x="678.023438" xlink:href="#DejaVuSans-103"/>
      <use x="741.5" xlink:href="#DejaVuSans-32"/>
      <use x="773.287109" xlink:href="#DejaVuSans-119"/>
      <use x="855.074219" xlink:href="#DejaVuSans-101"/>
      <use x="916.597656" xlink:href="#DejaVuSans-101"/>
      <use x="978.121094" xlink:href="#DejaVuSans-107"/>
     </g>
    </g>
    <g id="line2d_60">
     <path d="M 936.877812 64.332812 
L 956.877812 64.332812 
" style="fill:none;stroke:#348abd;stroke-dasharray:1.5,2.475;stroke-dashoffset:0;stroke-width:1.5;"/>
    </g>
    <g id="line2d_61"/>
    <g id="text_27">
     <!-- RKI rate -->
     <g transform="translate(964.877812 67.832812)scale(0.1 -0.1)">
      <use xlink:href="#DejaVuSans-82"/>
      <use x="69.482422" xlink:href="#DejaVuSans-75"/>
      <use x="135.058594" xlink:href="#DejaVuSans-73"/>
      <use x="164.550781" xlink:href="#DejaVuSans-32"/>
      <use x="196.337891" xlink:href="#DejaVuSans-114"/>
      <use x="237.451172" xlink:href="#DejaVuSans-97"/>
      <use x="298.730469" xlink:href="#DejaVuSans-116"/>
      <use x="337.939453" xlink:href="#DejaVuSans-101"/>
     </g>
    </g>
    <g id="line2d_62">
     <path d="M 936.877812 79.010937 
L 956.877812 79.010937 
" style="fill:none;stroke:#000000;stroke-linecap:square;stroke-width:1.5;"/>
    </g>
    <g id="line2d_63"/>
    <g id="text_28">
     <!-- New Cases rolling week -->
     <g transform="translate(964.877812 82.510937)scale(0.1 -0.1)">
      <defs>
       <path d="M 9.8125 72.90625 
L 23.09375 72.90625 
L 55.421875 11.921875 
L 55.421875 72.90625 
L 64.984375 72.90625 
L 64.984375 0 
L 51.703125 0 
L 19.390625 60.984375 
L 19.390625 0 
L 9.8125 0 
z
" id="DejaVuSans-78"/>
       <path d="M 64.40625 67.28125 
L 64.40625 56.890625 
Q 59.421875 61.53125 53.78125 63.8125 
Q 48.140625 66.109375 41.796875 66.109375 
Q 29.296875 66.109375 22.65625 58.46875 
Q 16.015625 50.828125 16.015625 36.375 
Q 16.015625 21.96875 22.65625 14.328125 
Q 29.296875 6.6875 41.796875 6.6875 
Q 48.140625 6.6875 53.78125 8.984375 
Q 59.421875 11.28125 64.40625 15.921875 
L 64.40625 5.609375 
Q 59.234375 2.09375 53.4375 0.328125 
Q 47.65625 -1.421875 41.21875 -1.421875 
Q 24.65625 -1.421875 15.125 8.703125 
Q 5.609375 18.84375 5.609375 36.375 
Q 5.609375 53.953125 15.125 64.078125 
Q 24.65625 74.21875 41.21875 74.21875 
Q 47.75 74.21875 53.53125 72.484375 
Q 59.328125 70.75 64.40625 67.28125 
z
" id="DejaVuSans-67"/>
      </defs>
      <use xlink:href="#DejaVuSans-78"/>
      <use x="74.804688" xlink:href="#DejaVuSans-101"/>
      <use x="136.328125" xlink:href="#DejaVuSans-119"/>
      <use x="218.115234" xlink:href="#DejaVuSans-32"/>
      <use x="249.902344" xlink:href="#DejaVuSans-67"/>
      <use x="319.726562" xlink:href="#DejaVuSans-97"/>
      <use x="381.005859" xlink:href="#DejaVuSans-115"/>
      <use x="433.105469" xlink:href="#DejaVuSans-101"/>
      <use x="494.628906" xlink:href="#DejaVuSans-115"/>
      <use x="546.728516" xlink:href="#DejaVuSans-32"/>
      <use x="578.515625" xlink:href="#DejaVuSans-114"/>
      <use x="617.378906" xlink:href="#DejaVuSans-111"/>
      <use x="678.560547" xlink:href="#DejaVuSans-108"/>
      <use x="706.34375" xlink:href="#DejaVuSans-108"/>
      <use x="734.126953" xlink:href="#DejaVuSans-105"/>
      <use x="761.910156" xlink:href="#DejaVuSans-110"/>
      <use x="825.289062" xlink:href="#DejaVuSans-103"/>
      <use x="888.765625" xlink:href="#DejaVuSans-32"/>
      <use x="920.552734" xlink:href="#DejaVuSans-119"/>
      <use x="1002.339844" xlink:href="#DejaVuSans-101"/>
      <use x="1063.863281" xlink:href="#DejaVuSans-101"/>
      <use x="1125.386719" xlink:href="#DejaVuSans-107"/>
     </g>
    </g>
    <g id="line2d_64">
     <path d="M 936.877812 93.689062 
L 956.877812 93.689062 
" style="fill:none;stroke:#000000;stroke-dasharray:1.5,2.475;stroke-dashoffset:0;stroke-width:1.5;"/>
    </g>
    <g id="line2d_65"/>
    <g id="text_29">
     <!-- New Cases -->
     <g transform="translate(964.877812 97.189062)scale(0.1 -0.1)">
      <use xlink:href="#DejaVuSans-78"/>
      <use x="74.804688" xlink:href="#DejaVuSans-101"/>
      <use x="136.328125" xlink:href="#DejaVuSans-119"/>
      <use x="218.115234" xlink:href="#DejaVuSans-32"/>
      <use x="249.902344" xlink:href="#DejaVuSans-67"/>
      <use x="319.726562" xlink:href="#DejaVuSans-97"/>
      <use x="381.005859" xlink:href="#DejaVuSans-115"/>
      <use x="433.105469" xlink:href="#DejaVuSans-101"/>
      <use x="494.628906" xlink:href="#DejaVuSans-115"/>
     </g>
    </g>
   </g>
  </g>
 </g>
 <defs>
  <clipPath id="pc21fccab7e">
   <rect height="609.32" width="1068.97" x="30.103125" y="7.2"/>
  </clipPath>
 </defs>
</svg>
