<?xml version="1.0" encoding="utf-8" standalone="no"?>
<!DOCTYPE svg PUBLIC "-//W3C//DTD SVG 1.1//EN"
  "http://www.w3.org/Graphics/SVG/1.1/DTD/svg11.dtd">
<!-- Created with matplotlib (https://matplotlib.org/) -->
<svg height="640.398125pt" version="1.1" viewBox="0 0 1145.085625 640.398125" width="1145.085625pt" xmlns="http://www.w3.org/2000/svg" xmlns:xlink="http://www.w3.org/1999/xlink">
 <metadata>
  <rdf:RDF xmlns:cc="http://creativecommons.org/ns#" xmlns:dc="http://purl.org/dc/elements/1.1/" xmlns:rdf="http://www.w3.org/1999/02/22-rdf-syntax-ns#">
   <cc:Work>
    <dc:type rdf:resource="http://purl.org/dc/dcmitype/StillImage"/>
    <dc:date>2021-01-04T09:01:13.537166</dc:date>
    <dc:format>image/svg+xml</dc:format>
    <dc:creator>
     <cc:Agent>
      <dc:title>Matplotlib v3.3.2, https://matplotlib.org/</dc:title>
     </cc:Agent>
    </dc:creator>
   </cc:Work>
  </rdf:RDF>
 </metadata>
 <defs>
  <style type="text/css">*{stroke-linecap:butt;stroke-linejoin:round;}</style>
 </defs>
 <g id="figure_1">
  <g id="patch_1">
   <path d="M 0 640.398125 
L 1145.085625 640.398125 
L 1145.085625 0 
L 0 0 
z
" style="fill:#ffffff;"/>
  </g>
  <g id="axes_1">
   <g id="patch_2">
    <path d="M 30.103125 616.52 
L 1099.073125 616.52 
L 1099.073125 7.2 
L 30.103125 7.2 
z
" style="fill:#e5e5e5;"/>
   </g>
   <g id="matplotlib.axis_1">
    <g id="xtick_1">
     <g id="line2d_1">
      <path clip-path="url(#p7cf1342f94)" d="M 84.982579 616.52 
L 84.982579 7.2 
" style="fill:none;stroke:#ffffff;stroke-linecap:square;stroke-width:0.8;"/>
     </g>
     <g id="line2d_2">
      <defs>
       <path d="M 0 0 
L 0 3.5 
" id="m41ca794756" style="stroke:#555555;stroke-width:0.8;"/>
      </defs>
      <g>
       <use style="fill:#555555;stroke:#555555;stroke-width:0.8;" x="84.982579" xlink:href="#m41ca794756" y="616.52"/>
      </g>
     </g>
     <g id="text_1">
      <!-- 2020-03 -->
      <g style="fill:#555555;" transform="translate(64.091173 631.118437)scale(0.1 -0.1)">
       <defs>
        <path d="M 19.1875 8.296875 
L 53.609375 8.296875 
L 53.609375 0 
L 7.328125 0 
L 7.328125 8.296875 
Q 12.9375 14.109375 22.625 23.890625 
Q 32.328125 33.6875 34.8125 36.53125 
Q 39.546875 41.84375 41.421875 45.53125 
Q 43.3125 49.21875 43.3125 52.78125 
Q 43.3125 58.59375 39.234375 62.25 
Q 35.15625 65.921875 28.609375 65.921875 
Q 23.96875 65.921875 18.8125 64.3125 
Q 13.671875 62.703125 7.8125 59.421875 
L 7.8125 69.390625 
Q 13.765625 71.78125 18.9375 73 
Q 24.125 74.21875 28.421875 74.21875 
Q 39.75 74.21875 46.484375 68.546875 
Q 53.21875 62.890625 53.21875 53.421875 
Q 53.21875 48.921875 51.53125 44.890625 
Q 49.859375 40.875 45.40625 35.40625 
Q 44.1875 33.984375 37.640625 27.21875 
Q 31.109375 20.453125 19.1875 8.296875 
z
" id="DejaVuSans-50"/>
        <path d="M 31.78125 66.40625 
Q 24.171875 66.40625 20.328125 58.90625 
Q 16.5 51.421875 16.5 36.375 
Q 16.5 21.390625 20.328125 13.890625 
Q 24.171875 6.390625 31.78125 6.390625 
Q 39.453125 6.390625 43.28125 13.890625 
Q 47.125 21.390625 47.125 36.375 
Q 47.125 51.421875 43.28125 58.90625 
Q 39.453125 66.40625 31.78125 66.40625 
z
M 31.78125 74.21875 
Q 44.046875 74.21875 50.515625 64.515625 
Q 56.984375 54.828125 56.984375 36.375 
Q 56.984375 17.96875 50.515625 8.265625 
Q 44.046875 -1.421875 31.78125 -1.421875 
Q 19.53125 -1.421875 13.0625 8.265625 
Q 6.59375 17.96875 6.59375 36.375 
Q 6.59375 54.828125 13.0625 64.515625 
Q 19.53125 74.21875 31.78125 74.21875 
z
" id="DejaVuSans-48"/>
        <path d="M 4.890625 31.390625 
L 31.203125 31.390625 
L 31.203125 23.390625 
L 4.890625 23.390625 
z
" id="DejaVuSans-45"/>
        <path d="M 40.578125 39.3125 
Q 47.65625 37.796875 51.625 33 
Q 55.609375 28.21875 55.609375 21.1875 
Q 55.609375 10.40625 48.1875 4.484375 
Q 40.765625 -1.421875 27.09375 -1.421875 
Q 22.515625 -1.421875 17.65625 -0.515625 
Q 12.796875 0.390625 7.625 2.203125 
L 7.625 11.71875 
Q 11.71875 9.328125 16.59375 8.109375 
Q 21.484375 6.890625 26.8125 6.890625 
Q 36.078125 6.890625 40.9375 10.546875 
Q 45.796875 14.203125 45.796875 21.1875 
Q 45.796875 27.640625 41.28125 31.265625 
Q 36.765625 34.90625 28.71875 34.90625 
L 20.21875 34.90625 
L 20.21875 43.015625 
L 29.109375 43.015625 
Q 36.375 43.015625 40.234375 45.921875 
Q 44.09375 48.828125 44.09375 54.296875 
Q 44.09375 59.90625 40.109375 62.90625 
Q 36.140625 65.921875 28.71875 65.921875 
Q 24.65625 65.921875 20.015625 65.03125 
Q 15.375 64.15625 9.8125 62.3125 
L 9.8125 71.09375 
Q 15.4375 72.65625 20.34375 73.4375 
Q 25.25 74.21875 29.59375 74.21875 
Q 40.828125 74.21875 47.359375 69.109375 
Q 53.90625 64.015625 53.90625 55.328125 
Q 53.90625 49.265625 50.4375 45.09375 
Q 46.96875 40.921875 40.578125 39.3125 
z
" id="DejaVuSans-51"/>
       </defs>
       <use xlink:href="#DejaVuSans-50"/>
       <use x="63.623047" xlink:href="#DejaVuSans-48"/>
       <use x="127.246094" xlink:href="#DejaVuSans-50"/>
       <use x="190.869141" xlink:href="#DejaVuSans-48"/>
       <use x="254.492188" xlink:href="#DejaVuSans-45"/>
       <use x="290.576172" xlink:href="#DejaVuSans-48"/>
       <use x="354.199219" xlink:href="#DejaVuSans-51"/>
      </g>
     </g>
    </g>
    <g id="xtick_2">
     <g id="line2d_3">
      <path clip-path="url(#p7cf1342f94)" d="M 182.476166 616.52 
L 182.476166 7.2 
" style="fill:none;stroke:#ffffff;stroke-linecap:square;stroke-width:0.8;"/>
     </g>
     <g id="line2d_4">
      <g>
       <use style="fill:#555555;stroke:#555555;stroke-width:0.8;" x="182.476166" xlink:href="#m41ca794756" y="616.52"/>
      </g>
     </g>
     <g id="text_2">
      <!-- 2020-04 -->
      <g style="fill:#555555;" transform="translate(161.584759 631.118437)scale(0.1 -0.1)">
       <defs>
        <path d="M 37.796875 64.3125 
L 12.890625 25.390625 
L 37.796875 25.390625 
z
M 35.203125 72.90625 
L 47.609375 72.90625 
L 47.609375 25.390625 
L 58.015625 25.390625 
L 58.015625 17.1875 
L 47.609375 17.1875 
L 47.609375 0 
L 37.796875 0 
L 37.796875 17.1875 
L 4.890625 17.1875 
L 4.890625 26.703125 
z
" id="DejaVuSans-52"/>
       </defs>
       <use xlink:href="#DejaVuSans-50"/>
       <use x="63.623047" xlink:href="#DejaVuSans-48"/>
       <use x="127.246094" xlink:href="#DejaVuSans-50"/>
       <use x="190.869141" xlink:href="#DejaVuSans-48"/>
       <use x="254.492188" xlink:href="#DejaVuSans-45"/>
       <use x="290.576172" xlink:href="#DejaVuSans-48"/>
       <use x="354.199219" xlink:href="#DejaVuSans-52"/>
      </g>
     </g>
    </g>
    <g id="xtick_3">
     <g id="line2d_5">
      <path clip-path="url(#p7cf1342f94)" d="M 276.824798 616.52 
L 276.824798 7.2 
" style="fill:none;stroke:#ffffff;stroke-linecap:square;stroke-width:0.8;"/>
     </g>
     <g id="line2d_6">
      <g>
       <use style="fill:#555555;stroke:#555555;stroke-width:0.8;" x="276.824798" xlink:href="#m41ca794756" y="616.52"/>
      </g>
     </g>
     <g id="text_3">
      <!-- 2020-05 -->
      <g style="fill:#555555;" transform="translate(255.933391 631.118437)scale(0.1 -0.1)">
       <defs>
        <path d="M 10.796875 72.90625 
L 49.515625 72.90625 
L 49.515625 64.59375 
L 19.828125 64.59375 
L 19.828125 46.734375 
Q 21.96875 47.46875 24.109375 47.828125 
Q 26.265625 48.1875 28.421875 48.1875 
Q 40.625 48.1875 47.75 41.5 
Q 54.890625 34.8125 54.890625 23.390625 
Q 54.890625 11.625 47.5625 5.09375 
Q 40.234375 -1.421875 26.90625 -1.421875 
Q 22.3125 -1.421875 17.546875 -0.640625 
Q 12.796875 0.140625 7.71875 1.703125 
L 7.71875 11.625 
Q 12.109375 9.234375 16.796875 8.0625 
Q 21.484375 6.890625 26.703125 6.890625 
Q 35.15625 6.890625 40.078125 11.328125 
Q 45.015625 15.765625 45.015625 23.390625 
Q 45.015625 31 40.078125 35.4375 
Q 35.15625 39.890625 26.703125 39.890625 
Q 22.75 39.890625 18.8125 39.015625 
Q 14.890625 38.140625 10.796875 36.28125 
z
" id="DejaVuSans-53"/>
       </defs>
       <use xlink:href="#DejaVuSans-50"/>
       <use x="63.623047" xlink:href="#DejaVuSans-48"/>
       <use x="127.246094" xlink:href="#DejaVuSans-50"/>
       <use x="190.869141" xlink:href="#DejaVuSans-48"/>
       <use x="254.492188" xlink:href="#DejaVuSans-45"/>
       <use x="290.576172" xlink:href="#DejaVuSans-48"/>
       <use x="354.199219" xlink:href="#DejaVuSans-53"/>
      </g>
     </g>
    </g>
    <g id="xtick_4">
     <g id="line2d_7">
      <path clip-path="url(#p7cf1342f94)" d="M 374.318384 616.52 
L 374.318384 7.2 
" style="fill:none;stroke:#ffffff;stroke-linecap:square;stroke-width:0.8;"/>
     </g>
     <g id="line2d_8">
      <g>
       <use style="fill:#555555;stroke:#555555;stroke-width:0.8;" x="374.318384" xlink:href="#m41ca794756" y="616.52"/>
      </g>
     </g>
     <g id="text_4">
      <!-- 2020-06 -->
      <g style="fill:#555555;" transform="translate(353.426978 631.118437)scale(0.1 -0.1)">
       <defs>
        <path d="M 33.015625 40.375 
Q 26.375 40.375 22.484375 35.828125 
Q 18.609375 31.296875 18.609375 23.390625 
Q 18.609375 15.53125 22.484375 10.953125 
Q 26.375 6.390625 33.015625 6.390625 
Q 39.65625 6.390625 43.53125 10.953125 
Q 47.40625 15.53125 47.40625 23.390625 
Q 47.40625 31.296875 43.53125 35.828125 
Q 39.65625 40.375 33.015625 40.375 
z
M 52.59375 71.296875 
L 52.59375 62.3125 
Q 48.875 64.0625 45.09375 64.984375 
Q 41.3125 65.921875 37.59375 65.921875 
Q 27.828125 65.921875 22.671875 59.328125 
Q 17.53125 52.734375 16.796875 39.40625 
Q 19.671875 43.65625 24.015625 45.921875 
Q 28.375 48.1875 33.59375 48.1875 
Q 44.578125 48.1875 50.953125 41.515625 
Q 57.328125 34.859375 57.328125 23.390625 
Q 57.328125 12.15625 50.6875 5.359375 
Q 44.046875 -1.421875 33.015625 -1.421875 
Q 20.359375 -1.421875 13.671875 8.265625 
Q 6.984375 17.96875 6.984375 36.375 
Q 6.984375 53.65625 15.1875 63.9375 
Q 23.390625 74.21875 37.203125 74.21875 
Q 40.921875 74.21875 44.703125 73.484375 
Q 48.484375 72.75 52.59375 71.296875 
z
" id="DejaVuSans-54"/>
       </defs>
       <use xlink:href="#DejaVuSans-50"/>
       <use x="63.623047" xlink:href="#DejaVuSans-48"/>
       <use x="127.246094" xlink:href="#DejaVuSans-50"/>
       <use x="190.869141" xlink:href="#DejaVuSans-48"/>
       <use x="254.492188" xlink:href="#DejaVuSans-45"/>
       <use x="290.576172" xlink:href="#DejaVuSans-48"/>
       <use x="354.199219" xlink:href="#DejaVuSans-54"/>
      </g>
     </g>
    </g>
    <g id="xtick_5">
     <g id="line2d_9">
      <path clip-path="url(#p7cf1342f94)" d="M 468.667016 616.52 
L 468.667016 7.2 
" style="fill:none;stroke:#ffffff;stroke-linecap:square;stroke-width:0.8;"/>
     </g>
     <g id="line2d_10">
      <g>
       <use style="fill:#555555;stroke:#555555;stroke-width:0.8;" x="468.667016" xlink:href="#m41ca794756" y="616.52"/>
      </g>
     </g>
     <g id="text_5">
      <!-- 2020-07 -->
      <g style="fill:#555555;" transform="translate(447.77561 631.118437)scale(0.1 -0.1)">
       <defs>
        <path d="M 8.203125 72.90625 
L 55.078125 72.90625 
L 55.078125 68.703125 
L 28.609375 0 
L 18.3125 0 
L 43.21875 64.59375 
L 8.203125 64.59375 
z
" id="DejaVuSans-55"/>
       </defs>
       <use xlink:href="#DejaVuSans-50"/>
       <use x="63.623047" xlink:href="#DejaVuSans-48"/>
       <use x="127.246094" xlink:href="#DejaVuSans-50"/>
       <use x="190.869141" xlink:href="#DejaVuSans-48"/>
       <use x="254.492188" xlink:href="#DejaVuSans-45"/>
       <use x="290.576172" xlink:href="#DejaVuSans-48"/>
       <use x="354.199219" xlink:href="#DejaVuSans-55"/>
      </g>
     </g>
    </g>
    <g id="xtick_6">
     <g id="line2d_11">
      <path clip-path="url(#p7cf1342f94)" d="M 566.160602 616.52 
L 566.160602 7.2 
" style="fill:none;stroke:#ffffff;stroke-linecap:square;stroke-width:0.8;"/>
     </g>
     <g id="line2d_12">
      <g>
       <use style="fill:#555555;stroke:#555555;stroke-width:0.8;" x="566.160602" xlink:href="#m41ca794756" y="616.52"/>
      </g>
     </g>
     <g id="text_6">
      <!-- 2020-08 -->
      <g style="fill:#555555;" transform="translate(545.269196 631.118437)scale(0.1 -0.1)">
       <defs>
        <path d="M 31.78125 34.625 
Q 24.75 34.625 20.71875 30.859375 
Q 16.703125 27.09375 16.703125 20.515625 
Q 16.703125 13.921875 20.71875 10.15625 
Q 24.75 6.390625 31.78125 6.390625 
Q 38.8125 6.390625 42.859375 10.171875 
Q 46.921875 13.96875 46.921875 20.515625 
Q 46.921875 27.09375 42.890625 30.859375 
Q 38.875 34.625 31.78125 34.625 
z
M 21.921875 38.8125 
Q 15.578125 40.375 12.03125 44.71875 
Q 8.5 49.078125 8.5 55.328125 
Q 8.5 64.0625 14.71875 69.140625 
Q 20.953125 74.21875 31.78125 74.21875 
Q 42.671875 74.21875 48.875 69.140625 
Q 55.078125 64.0625 55.078125 55.328125 
Q 55.078125 49.078125 51.53125 44.71875 
Q 48 40.375 41.703125 38.8125 
Q 48.828125 37.15625 52.796875 32.3125 
Q 56.78125 27.484375 56.78125 20.515625 
Q 56.78125 9.90625 50.3125 4.234375 
Q 43.84375 -1.421875 31.78125 -1.421875 
Q 19.734375 -1.421875 13.25 4.234375 
Q 6.78125 9.90625 6.78125 20.515625 
Q 6.78125 27.484375 10.78125 32.3125 
Q 14.796875 37.15625 21.921875 38.8125 
z
M 18.3125 54.390625 
Q 18.3125 48.734375 21.84375 45.5625 
Q 25.390625 42.390625 31.78125 42.390625 
Q 38.140625 42.390625 41.71875 45.5625 
Q 45.3125 48.734375 45.3125 54.390625 
Q 45.3125 60.0625 41.71875 63.234375 
Q 38.140625 66.40625 31.78125 66.40625 
Q 25.390625 66.40625 21.84375 63.234375 
Q 18.3125 60.0625 18.3125 54.390625 
z
" id="DejaVuSans-56"/>
       </defs>
       <use xlink:href="#DejaVuSans-50"/>
       <use x="63.623047" xlink:href="#DejaVuSans-48"/>
       <use x="127.246094" xlink:href="#DejaVuSans-50"/>
       <use x="190.869141" xlink:href="#DejaVuSans-48"/>
       <use x="254.492188" xlink:href="#DejaVuSans-45"/>
       <use x="290.576172" xlink:href="#DejaVuSans-48"/>
       <use x="354.199219" xlink:href="#DejaVuSans-56"/>
      </g>
     </g>
    </g>
    <g id="xtick_7">
     <g id="line2d_13">
      <path clip-path="url(#p7cf1342f94)" d="M 663.654189 616.52 
L 663.654189 7.2 
" style="fill:none;stroke:#ffffff;stroke-linecap:square;stroke-width:0.8;"/>
     </g>
     <g id="line2d_14">
      <g>
       <use style="fill:#555555;stroke:#555555;stroke-width:0.8;" x="663.654189" xlink:href="#m41ca794756" y="616.52"/>
      </g>
     </g>
     <g id="text_7">
      <!-- 2020-09 -->
      <g style="fill:#555555;" transform="translate(642.762782 631.118437)scale(0.1 -0.1)">
       <defs>
        <path d="M 10.984375 1.515625 
L 10.984375 10.5 
Q 14.703125 8.734375 18.5 7.8125 
Q 22.3125 6.890625 25.984375 6.890625 
Q 35.75 6.890625 40.890625 13.453125 
Q 46.046875 20.015625 46.78125 33.40625 
Q 43.953125 29.203125 39.59375 26.953125 
Q 35.25 24.703125 29.984375 24.703125 
Q 19.046875 24.703125 12.671875 31.3125 
Q 6.296875 37.9375 6.296875 49.421875 
Q 6.296875 60.640625 12.9375 67.421875 
Q 19.578125 74.21875 30.609375 74.21875 
Q 43.265625 74.21875 49.921875 64.515625 
Q 56.59375 54.828125 56.59375 36.375 
Q 56.59375 19.140625 48.40625 8.859375 
Q 40.234375 -1.421875 26.421875 -1.421875 
Q 22.703125 -1.421875 18.890625 -0.6875 
Q 15.09375 0.046875 10.984375 1.515625 
z
M 30.609375 32.421875 
Q 37.25 32.421875 41.125 36.953125 
Q 45.015625 41.5 45.015625 49.421875 
Q 45.015625 57.28125 41.125 61.84375 
Q 37.25 66.40625 30.609375 66.40625 
Q 23.96875 66.40625 20.09375 61.84375 
Q 16.21875 57.28125 16.21875 49.421875 
Q 16.21875 41.5 20.09375 36.953125 
Q 23.96875 32.421875 30.609375 32.421875 
z
" id="DejaVuSans-57"/>
       </defs>
       <use xlink:href="#DejaVuSans-50"/>
       <use x="63.623047" xlink:href="#DejaVuSans-48"/>
       <use x="127.246094" xlink:href="#DejaVuSans-50"/>
       <use x="190.869141" xlink:href="#DejaVuSans-48"/>
       <use x="254.492188" xlink:href="#DejaVuSans-45"/>
       <use x="290.576172" xlink:href="#DejaVuSans-48"/>
       <use x="354.199219" xlink:href="#DejaVuSans-57"/>
      </g>
     </g>
    </g>
    <g id="xtick_8">
     <g id="line2d_15">
      <path clip-path="url(#p7cf1342f94)" d="M 758.00282 616.52 
L 758.00282 7.2 
" style="fill:none;stroke:#ffffff;stroke-linecap:square;stroke-width:0.8;"/>
     </g>
     <g id="line2d_16">
      <g>
       <use style="fill:#555555;stroke:#555555;stroke-width:0.8;" x="758.00282" xlink:href="#m41ca794756" y="616.52"/>
      </g>
     </g>
     <g id="text_8">
      <!-- 2020-10 -->
      <g style="fill:#555555;" transform="translate(737.111414 631.118437)scale(0.1 -0.1)">
       <defs>
        <path d="M 12.40625 8.296875 
L 28.515625 8.296875 
L 28.515625 63.921875 
L 10.984375 60.40625 
L 10.984375 69.390625 
L 28.421875 72.90625 
L 38.28125 72.90625 
L 38.28125 8.296875 
L 54.390625 8.296875 
L 54.390625 0 
L 12.40625 0 
z
" id="DejaVuSans-49"/>
       </defs>
       <use xlink:href="#DejaVuSans-50"/>
       <use x="63.623047" xlink:href="#DejaVuSans-48"/>
       <use x="127.246094" xlink:href="#DejaVuSans-50"/>
       <use x="190.869141" xlink:href="#DejaVuSans-48"/>
       <use x="254.492188" xlink:href="#DejaVuSans-45"/>
       <use x="290.576172" xlink:href="#DejaVuSans-49"/>
       <use x="354.199219" xlink:href="#DejaVuSans-48"/>
      </g>
     </g>
    </g>
    <g id="xtick_9">
     <g id="line2d_17">
      <path clip-path="url(#p7cf1342f94)" d="M 855.496407 616.52 
L 855.496407 7.2 
" style="fill:none;stroke:#ffffff;stroke-linecap:square;stroke-width:0.8;"/>
     </g>
     <g id="line2d_18">
      <g>
       <use style="fill:#555555;stroke:#555555;stroke-width:0.8;" x="855.496407" xlink:href="#m41ca794756" y="616.52"/>
      </g>
     </g>
     <g id="text_9">
      <!-- 2020-11 -->
      <g style="fill:#555555;" transform="translate(834.605001 631.118437)scale(0.1 -0.1)">
       <use xlink:href="#DejaVuSans-50"/>
       <use x="63.623047" xlink:href="#DejaVuSans-48"/>
       <use x="127.246094" xlink:href="#DejaVuSans-50"/>
       <use x="190.869141" xlink:href="#DejaVuSans-48"/>
       <use x="254.492188" xlink:href="#DejaVuSans-45"/>
       <use x="290.576172" xlink:href="#DejaVuSans-49"/>
       <use x="354.199219" xlink:href="#DejaVuSans-49"/>
      </g>
     </g>
    </g>
    <g id="xtick_10">
     <g id="line2d_19">
      <path clip-path="url(#p7cf1342f94)" d="M 949.845039 616.52 
L 949.845039 7.2 
" style="fill:none;stroke:#ffffff;stroke-linecap:square;stroke-width:0.8;"/>
     </g>
     <g id="line2d_20">
      <g>
       <use style="fill:#555555;stroke:#555555;stroke-width:0.8;" x="949.845039" xlink:href="#m41ca794756" y="616.52"/>
      </g>
     </g>
     <g id="text_10">
      <!-- 2020-12 -->
      <g style="fill:#555555;" transform="translate(928.953633 631.118437)scale(0.1 -0.1)">
       <use xlink:href="#DejaVuSans-50"/>
       <use x="63.623047" xlink:href="#DejaVuSans-48"/>
       <use x="127.246094" xlink:href="#DejaVuSans-50"/>
       <use x="190.869141" xlink:href="#DejaVuSans-48"/>
       <use x="254.492188" xlink:href="#DejaVuSans-45"/>
       <use x="290.576172" xlink:href="#DejaVuSans-49"/>
       <use x="354.199219" xlink:href="#DejaVuSans-50"/>
      </g>
     </g>
    </g>
    <g id="xtick_11">
     <g id="line2d_21">
      <path clip-path="url(#p7cf1342f94)" d="M 1047.338625 616.52 
L 1047.338625 7.2 
" style="fill:none;stroke:#ffffff;stroke-linecap:square;stroke-width:0.8;"/>
     </g>
     <g id="line2d_22">
      <g>
       <use style="fill:#555555;stroke:#555555;stroke-width:0.8;" x="1047.338625" xlink:href="#m41ca794756" y="616.52"/>
      </g>
     </g>
     <g id="text_11">
      <!-- 2021-01 -->
      <g style="fill:#555555;" transform="translate(1026.447219 631.118437)scale(0.1 -0.1)">
       <use xlink:href="#DejaVuSans-50"/>
       <use x="63.623047" xlink:href="#DejaVuSans-48"/>
       <use x="127.246094" xlink:href="#DejaVuSans-50"/>
       <use x="190.869141" xlink:href="#DejaVuSans-49"/>
       <use x="254.492188" xlink:href="#DejaVuSans-45"/>
       <use x="290.576172" xlink:href="#DejaVuSans-48"/>
       <use x="354.199219" xlink:href="#DejaVuSans-49"/>
      </g>
     </g>
    </g>
   </g>
   <g id="matplotlib.axis_2">
    <g id="ytick_1">
     <g id="line2d_23">
      <path clip-path="url(#p7cf1342f94)" d="M 30.103125 594.07505 
L 1099.073125 594.07505 
" style="fill:none;stroke:#ffffff;stroke-linecap:square;stroke-width:0.8;"/>
     </g>
     <g id="line2d_24">
      <defs>
       <path d="M 0 0 
L -3.5 0 
" id="m0471cb75f5" style="stroke:#555555;stroke-width:0.8;"/>
      </defs>
      <g>
       <use style="fill:#555555;stroke:#555555;stroke-width:0.8;" x="30.103125" xlink:href="#m0471cb75f5" y="594.07505"/>
      </g>
     </g>
     <g id="text_12">
      <!-- 0.5 -->
      <g style="fill:#555555;" transform="translate(7.2 597.874268)scale(0.1 -0.1)">
       <defs>
        <path d="M 10.6875 12.40625 
L 21 12.40625 
L 21 0 
L 10.6875 0 
z
" id="DejaVuSans-46"/>
       </defs>
       <use xlink:href="#DejaVuSans-48"/>
       <use x="63.623047" xlink:href="#DejaVuSans-46"/>
       <use x="95.410156" xlink:href="#DejaVuSans-53"/>
      </g>
     </g>
    </g>
    <g id="ytick_2">
     <g id="line2d_25">
      <path clip-path="url(#p7cf1342f94)" d="M 30.103125 519.259461 
L 1099.073125 519.259461 
" style="fill:none;stroke:#ffffff;stroke-linecap:square;stroke-width:0.8;"/>
     </g>
     <g id="line2d_26">
      <g>
       <use style="fill:#555555;stroke:#555555;stroke-width:0.8;" x="30.103125" xlink:href="#m0471cb75f5" y="519.259461"/>
      </g>
     </g>
     <g id="text_13">
      <!-- 1.0 -->
      <g style="fill:#555555;" transform="translate(7.2 523.05868)scale(0.1 -0.1)">
       <use xlink:href="#DejaVuSans-49"/>
       <use x="63.623047" xlink:href="#DejaVuSans-46"/>
       <use x="95.410156" xlink:href="#DejaVuSans-48"/>
      </g>
     </g>
    </g>
    <g id="ytick_3">
     <g id="line2d_27">
      <path clip-path="url(#p7cf1342f94)" d="M 30.103125 444.443873 
L 1099.073125 444.443873 
" style="fill:none;stroke:#ffffff;stroke-linecap:square;stroke-width:0.8;"/>
     </g>
     <g id="line2d_28">
      <g>
       <use style="fill:#555555;stroke:#555555;stroke-width:0.8;" x="30.103125" xlink:href="#m0471cb75f5" y="444.443873"/>
      </g>
     </g>
     <g id="text_14">
      <!-- 1.5 -->
      <g style="fill:#555555;" transform="translate(7.2 448.243091)scale(0.1 -0.1)">
       <use xlink:href="#DejaVuSans-49"/>
       <use x="63.623047" xlink:href="#DejaVuSans-46"/>
       <use x="95.410156" xlink:href="#DejaVuSans-53"/>
      </g>
     </g>
    </g>
    <g id="ytick_4">
     <g id="line2d_29">
      <path clip-path="url(#p7cf1342f94)" d="M 30.103125 369.628284 
L 1099.073125 369.628284 
" style="fill:none;stroke:#ffffff;stroke-linecap:square;stroke-width:0.8;"/>
     </g>
     <g id="line2d_30">
      <g>
       <use style="fill:#555555;stroke:#555555;stroke-width:0.8;" x="30.103125" xlink:href="#m0471cb75f5" y="369.628284"/>
      </g>
     </g>
     <g id="text_15">
      <!-- 2.0 -->
      <g style="fill:#555555;" transform="translate(7.2 373.427503)scale(0.1 -0.1)">
       <use xlink:href="#DejaVuSans-50"/>
       <use x="63.623047" xlink:href="#DejaVuSans-46"/>
       <use x="95.410156" xlink:href="#DejaVuSans-48"/>
      </g>
     </g>
    </g>
    <g id="ytick_5">
     <g id="line2d_31">
      <path clip-path="url(#p7cf1342f94)" d="M 30.103125 294.812696 
L 1099.073125 294.812696 
" style="fill:none;stroke:#ffffff;stroke-linecap:square;stroke-width:0.8;"/>
     </g>
     <g id="line2d_32">
      <g>
       <use style="fill:#555555;stroke:#555555;stroke-width:0.8;" x="30.103125" xlink:href="#m0471cb75f5" y="294.812696"/>
      </g>
     </g>
     <g id="text_16">
      <!-- 2.5 -->
      <g style="fill:#555555;" transform="translate(7.2 298.611914)scale(0.1 -0.1)">
       <use xlink:href="#DejaVuSans-50"/>
       <use x="63.623047" xlink:href="#DejaVuSans-46"/>
       <use x="95.410156" xlink:href="#DejaVuSans-53"/>
      </g>
     </g>
    </g>
    <g id="ytick_6">
     <g id="line2d_33">
      <path clip-path="url(#p7cf1342f94)" d="M 30.103125 219.997107 
L 1099.073125 219.997107 
" style="fill:none;stroke:#ffffff;stroke-linecap:square;stroke-width:0.8;"/>
     </g>
     <g id="line2d_34">
      <g>
       <use style="fill:#555555;stroke:#555555;stroke-width:0.8;" x="30.103125" xlink:href="#m0471cb75f5" y="219.997107"/>
      </g>
     </g>
     <g id="text_17">
      <!-- 3.0 -->
      <g style="fill:#555555;" transform="translate(7.2 223.796326)scale(0.1 -0.1)">
       <use xlink:href="#DejaVuSans-51"/>
       <use x="63.623047" xlink:href="#DejaVuSans-46"/>
       <use x="95.410156" xlink:href="#DejaVuSans-48"/>
      </g>
     </g>
    </g>
    <g id="ytick_7">
     <g id="line2d_35">
      <path clip-path="url(#p7cf1342f94)" d="M 30.103125 145.181519 
L 1099.073125 145.181519 
" style="fill:none;stroke:#ffffff;stroke-linecap:square;stroke-width:0.8;"/>
     </g>
     <g id="line2d_36">
      <g>
       <use style="fill:#555555;stroke:#555555;stroke-width:0.8;" x="30.103125" xlink:href="#m0471cb75f5" y="145.181519"/>
      </g>
     </g>
     <g id="text_18">
      <!-- 3.5 -->
      <g style="fill:#555555;" transform="translate(7.2 148.980737)scale(0.1 -0.1)">
       <use xlink:href="#DejaVuSans-51"/>
       <use x="63.623047" xlink:href="#DejaVuSans-46"/>
       <use x="95.410156" xlink:href="#DejaVuSans-53"/>
      </g>
     </g>
    </g>
    <g id="ytick_8">
     <g id="line2d_37">
      <path clip-path="url(#p7cf1342f94)" d="M 30.103125 70.36593 
L 1099.073125 70.36593 
" style="fill:none;stroke:#ffffff;stroke-linecap:square;stroke-width:0.8;"/>
     </g>
     <g id="line2d_38">
      <g>
       <use style="fill:#555555;stroke:#555555;stroke-width:0.8;" x="30.103125" xlink:href="#m0471cb75f5" y="70.36593"/>
      </g>
     </g>
     <g id="text_19">
      <!-- 4.0 -->
      <g style="fill:#555555;" transform="translate(7.2 74.165149)scale(0.1 -0.1)">
       <use xlink:href="#DejaVuSans-52"/>
       <use x="63.623047" xlink:href="#DejaVuSans-46"/>
       <use x="95.410156" xlink:href="#DejaVuSans-48"/>
      </g>
     </g>
    </g>
   </g>
   <g id="line2d_39">
    <path clip-path="url(#p7cf1342f94)" d="M 91.272488 115.536307 
L 94.417442 85.936196 
L 97.562397 123.160492 
L 100.707351 105.3752 
L 103.852306 96.692656 
L 106.99726 106.200984 
L 110.142214 125.716565 
L 113.287169 161.412609 
L 116.432123 206.786268 
L 119.577078 217.969297 
L 122.722032 248.626385 
L 125.866986 272.733833 
L 129.011941 280.32608 
L 132.156895 286.943549 
L 135.30185 280.337666 
L 138.446804 276.290854 
L 141.591758 283.830142 
L 144.736713 291.664616 
L 147.881667 304.479743 
L 151.026622 321.944591 
L 154.171576 332.122167 
L 157.31653 340.049132 
L 160.461485 345.733765 
L 163.606439 352.385096 
L 166.751394 362.127335 
L 169.896348 374.035634 
L 173.041302 386.951356 
L 179.331211 408.167523 
L 182.476166 418.999138 
L 185.62112 431.01665 
L 188.766074 441.147125 
L 191.911029 449.374382 
L 195.055983 455.860401 
L 198.200938 461.666297 
L 201.345892 466.339943 
L 204.490846 470.248377 
L 207.635801 474.931672 
L 217.070664 487.630575 
L 220.215618 491.058076 
L 223.360573 494.113315 
L 226.505527 496.654889 
L 235.94039 502.76627 
L 239.085345 504.272261 
L 242.230299 505.35638 
L 245.375254 505.993731 
L 254.810117 507.590168 
L 267.389934 510.667774 
L 289.404615 514.430241 
L 295.694524 514.959376 
L 301.984433 515.304388 
L 323.999114 515.92398 
L 333.433977 516.411895 
L 346.013794 516.800672 
L 364.883521 517.32029 
L 371.17343 517.402609 
L 377.463338 517.401248 
L 412.057837 517.772821 
L 427.782609 517.856255 
L 437.217472 517.55753 
L 446.652335 517.120607 
L 452.942244 517.026576 
L 459.232153 517.093086 
L 471.81197 517.434333 
L 515.841332 517.850071 
L 541.000967 517.56221 
L 610.189964 516.068151 
L 635.349599 515.404493 
L 644.784462 515.257421 
L 657.36428 515.46268 
L 682.523915 515.92342 
L 713.973459 515.453647 
L 726.553277 514.962097 
L 732.843185 514.819307 
L 748.567957 514.763215 
L 767.437684 514.422196 
L 776.872547 514.053621 
L 780.017501 513.839224 
L 786.30741 513.078378 
L 795.742273 511.866406 
L 802.032182 511.050387 
L 808.322091 509.887591 
L 814.612 508.758755 
L 824.046863 507.204365 
L 827.191817 506.553493 
L 830.336772 505.711271 
L 839.771635 502.81295 
L 846.061544 501.047419 
L 849.206498 500.155156 
L 852.351452 499.384089 
L 858.641361 498.526387 
L 864.93127 498.241258 
L 868.076224 498.195609 
L 874.366133 498.412586 
L 883.800996 498.90595 
L 893.23586 499.859083 
L 908.960632 502.015884 
L 918.395495 503.235796 
L 924.685404 503.898442 
L 949.845039 506.007452 
L 962.424856 506.741228 
L 968.714765 506.816325 
L 978.149628 506.720871 
L 987.584492 506.347028 
L 993.8744 506.050549 
L 1006.454218 505.572177 
L 1019.034036 505.50698 
L 1022.17899 505.507624 
L 1025.323944 505.663351 
L 1028.468899 506.168668 
L 1037.903762 506.533407 
L 1044.193671 506.115356 
L 1047.338625 505.956491 
L 1050.48358 506.177714 
L 1050.48358 506.177714 
" style="fill:none;stroke:#e24a33;stroke-linecap:square;stroke-width:1.5;"/>
   </g>
   <g id="line2d_40">
    <path clip-path="url(#p7cf1342f94)" d="M 91.272488 115.536307 
L 94.417442 56.336085 
L 97.562397 197.609083 
L 100.707351 52.019323 
L 103.852306 61.962484 
L 110.142214 242.81005 
L 113.287169 365.408611 
L 116.432123 373.951701 
L 119.577078 275.890288 
L 122.722032 266.618938 
L 125.866986 230.714615 
L 129.011941 206.888353 
L 132.156895 289.132339 
L 135.30185 319.167426 
L 138.446804 345.624015 
L 141.591758 328.66531 
L 144.736713 321.460254 
L 147.881667 320.420506 
L 151.026622 329.142289 
L 154.171576 360.375372 
L 157.31653 374.656182 
L 160.461485 385.416443 
L 163.606439 375.224626 
L 169.896348 403.778604 
L 173.041302 419.552342 
L 176.186257 433.888599 
L 179.331211 449.656121 
L 182.476166 461.237746 
L 185.62112 459.34721 
L 188.766074 460.56925 
L 191.911029 461.369409 
L 195.055983 464.954475 
L 198.200938 474.52987 
L 201.345892 482.371644 
L 204.490846 488.596784 
L 207.635801 492.130276 
L 210.780755 490.571868 
L 213.92571 491.212157 
L 217.070664 494.001429 
L 220.215618 498.522374 
L 223.360573 503.758316 
L 226.505527 506.387807 
L 229.650482 506.622281 
L 232.795436 505.844471 
L 235.94039 504.227215 
L 239.085345 504.543361 
L 242.230299 506.111212 
L 245.375254 508.21977 
L 248.520208 509.994915 
L 251.665162 510.262196 
L 254.810117 509.772504 
L 257.955071 509.601132 
L 261.100026 510.25637 
L 264.24498 511.743863 
L 267.389934 513.043435 
L 270.534889 513.859578 
L 273.679843 514.166325 
L 276.824798 513.594918 
L 279.969752 513.823329 
L 283.114706 514.350402 
L 286.259661 515.14486 
L 289.404615 516.072275 
L 292.54957 516.085591 
L 301.984433 514.664488 
L 305.129387 514.942651 
L 308.274342 515.809847 
L 311.419296 516.078218 
L 314.56425 516.501072 
L 317.709205 516.273329 
L 320.854159 515.785664 
L 327.144068 516.277573 
L 330.289022 516.805906 
L 333.433977 517.162644 
L 346.013794 516.680675 
L 352.303703 517.396435 
L 355.448658 517.423346 
L 358.593612 517.66083 
L 361.738566 517.728881 
L 364.883521 517.349922 
L 368.028475 517.096059 
L 374.318384 517.182347 
L 377.463338 517.627908 
L 380.608293 517.960332 
L 386.898201 517.729416 
L 390.043156 517.570258 
L 393.18811 517.605975 
L 402.622973 517.961601 
L 405.767928 517.755137 
L 412.057837 517.723487 
L 415.202791 517.782704 
L 418.347745 518.079372 
L 427.782609 517.718581 
L 430.927563 517.25354 
L 437.217472 516.804957 
L 440.362426 516.844851 
L 443.507381 517.06479 
L 456.087198 517.041392 
L 462.377107 517.598096 
L 465.522061 517.584088 
L 468.667016 517.759481 
L 474.956925 517.427215 
L 478.101879 517.488922 
L 487.536742 517.932245 
L 490.681697 517.952742 
L 496.971605 517.664235 
L 503.261514 517.790408 
L 506.406469 518.007218 
L 512.696377 518.016874 
L 522.131241 517.395358 
L 534.711058 517.832236 
L 537.856013 517.559175 
L 541.000967 517.138682 
L 544.145921 516.949786 
L 556.725739 517.451841 
L 563.015648 516.630898 
L 566.160602 516.401867 
L 572.450511 517.023571 
L 575.595465 517.023244 
L 578.74042 517.183472 
L 581.885374 516.608161 
L 585.030329 516.156659 
L 588.175283 515.993369 
L 591.320237 516.13402 
L 594.465192 516.575442 
L 597.610146 516.712727 
L 600.755101 516.649266 
L 607.045009 515.334349 
L 610.189964 515.037406 
L 613.334918 515.470332 
L 616.479873 516.094515 
L 622.769781 516.10046 
L 625.914736 515.378493 
L 629.05969 514.804506 
L 632.204645 514.396964 
L 635.349599 514.906494 
L 638.494553 515.588262 
L 641.639508 515.703266 
L 644.784462 516.023962 
L 651.074371 515.017985 
L 654.219325 514.907557 
L 660.509234 516.02038 
L 666.799143 516.410018 
L 669.944097 516.088938 
L 673.089052 515.571172 
L 676.234006 515.486277 
L 679.378961 515.665783 
L 682.523915 515.98404 
L 685.668869 515.969981 
L 688.813824 516.105274 
L 691.958778 515.569709 
L 695.103733 515.176494 
L 698.248687 515.117066 
L 701.393641 515.267391 
L 704.538596 515.859011 
L 707.68355 515.918365 
L 710.828505 515.775598 
L 713.973459 515.061606 
L 720.263368 514.00941 
L 723.408322 514.357824 
L 726.553277 515.110794 
L 729.698231 515.186872 
L 732.843185 515.507558 
L 735.98814 515.078335 
L 739.133094 514.408188 
L 742.278049 514.056731 
L 745.423003 514.279549 
L 748.567957 514.82527 
L 751.712912 514.885822 
L 754.857866 515.293227 
L 758.00282 514.728104 
L 761.147775 513.960491 
L 767.437684 513.519721 
L 770.582638 514.138836 
L 773.727592 514.192857 
L 776.872547 514.092602 
L 780.017501 513.227319 
L 783.162456 511.678207 
L 786.30741 510.699107 
L 789.452364 510.444827 
L 792.597319 511.318455 
L 795.742273 511.604323 
L 798.887228 511.505689 
L 802.032182 510.102101 
L 805.177136 507.904998 
L 808.322091 506.332745 
L 811.467045 506.305903 
L 814.612 507.555528 
L 820.901908 508.293146 
L 824.046863 506.062684 
L 827.191817 503.348889 
L 830.336772 500.437193 
L 833.481726 499.360481 
L 836.62668 500.89177 
L 842.916589 501.780213 
L 846.061544 500.216902 
L 849.206498 497.103049 
L 852.351452 495.039724 
L 855.496407 496.015969 
L 858.641361 498.232366 
L 861.786316 499.953848 
L 864.93127 501.126949 
L 868.076224 499.897356 
L 871.221179 497.656985 
L 874.366133 496.00463 
L 877.511088 496.942374 
L 880.656042 499.294319 
L 883.800996 501.419041 
L 886.945951 503.14002 
L 890.090905 502.116643 
L 893.23586 500.096552 
L 896.380814 498.881283 
L 899.525768 499.673404 
L 902.670723 502.489931 
L 905.815677 504.77656 
L 908.960632 506.076815 
L 912.105586 505.199782 
L 915.25054 502.90185 
L 918.395495 501.532227 
L 921.540449 502.169956 
L 924.685404 504.631907 
L 927.830358 506.689801 
L 930.975312 507.656002 
L 934.120267 506.705322 
L 937.265221 504.839808 
L 940.410176 503.669464 
L 943.55513 504.540205 
L 946.700084 506.51843 
L 949.845039 508.122932 
L 952.989993 508.935906 
L 956.134948 507.92892 
L 959.279902 506.214433 
L 962.424856 504.927772 
L 965.569811 505.017698 
L 971.85972 508.019531 
L 975.004674 508.491549 
L 978.149628 507.808496 
L 981.294583 505.593769 
L 984.439537 503.845072 
L 987.584492 504.104162 
L 990.729446 505.210169 
L 993.8744 507.300629 
L 997.019355 507.53687 
L 1000.164309 506.850124 
L 1006.454218 503.082409 
L 1009.599172 503.855285 
L 1012.744127 505.178637 
L 1015.889081 506.913652 
L 1019.034036 507.747877 
L 1025.323944 506.010964 
L 1028.468899 506.61963 
L 1037.903762 505.433933 
L 1041.048716 506.544657 
L 1044.193671 505.967593 
L 1047.338625 505.216642 
L 1050.48358 507.725746 
L 1050.48358 507.725746 
" style="fill:none;stroke:#e24a33;stroke-dasharray:1.5,2.475;stroke-dashoffset:0;stroke-width:1.5;"/>
   </g>
   <g id="line2d_41">
    <path clip-path="url(#p7cf1342f94)" d="M 91.272488 265.168783 
L 94.417442 235.568984 
L 97.562397 272.793495 
L 100.707351 255.008927 
L 103.852306 212.429919 
L 106.99726 207.897317 
L 110.142214 215.889854 
L 113.287169 244.547969 
L 116.432123 283.130054 
L 119.577078 280.082255 
L 122.722032 291.206597 
L 125.866986 299.439693 
L 129.011941 277.962844 
L 132.156895 282.743784 
L 135.30185 266.25171 
L 138.446804 256.138993 
L 144.736713 273.879604 
L 147.881667 305.552643 
L 151.026622 345.574608 
L 154.171576 358.157292 
L 157.31653 367.400789 
L 160.461485 371.575825 
L 163.606439 375.093093 
L 166.751394 385.790347 
L 169.896348 401.889033 
L 173.041302 422.30446 
L 176.186257 437.974641 
L 185.62112 482.740112 
L 188.766074 495.632212 
L 191.911029 503.172764 
L 198.200938 508.141238 
L 201.345892 510.889121 
L 204.490846 514.247359 
L 207.635801 521.129574 
L 210.780755 526.43367 
L 213.92571 532.2516 
L 217.070664 538.827111 
L 220.215618 541.908456 
L 223.360573 546.904315 
L 226.505527 551.023567 
L 232.795436 555.264767 
L 235.94039 552.646585 
L 239.085345 547.262351 
L 242.230299 542.410192 
L 245.375254 537.022584 
L 248.520208 534.234789 
L 251.665162 532.442948 
L 254.810117 531.454144 
L 257.955071 534.307061 
L 261.100026 538.862308 
L 264.24498 544.172585 
L 267.389934 548.591648 
L 270.534889 550.506379 
L 273.679843 552.19231 
L 276.824798 552.140895 
L 279.969752 552.817531 
L 283.114706 554.832461 
L 286.259661 556.043443 
L 289.404615 558.738754 
L 292.54957 558.757505 
L 295.694524 555.390299 
L 298.839478 550.29507 
L 301.984433 537.234249 
L 305.129387 526.8038 
L 308.274342 523.624449 
L 311.419296 518.915672 
L 314.56425 518.726755 
L 317.709205 519.915148 
L 320.854159 519.708195 
L 323.999114 530.284849 
L 327.144068 537.004454 
L 330.289022 540.328103 
L 333.433977 544.653609 
L 339.723886 540.405611 
L 342.86884 540.48051 
L 346.013794 534.80858 
L 349.158749 536.716707 
L 352.303703 537.896438 
L 355.448658 534.981042 
L 358.593612 537.359276 
L 361.738566 540.665548 
L 364.883521 540.338192 
L 368.028475 541.558766 
L 371.17343 533.404005 
L 374.318384 518.386278 
L 377.463338 515.824631 
L 380.608293 516.645233 
L 383.753247 517.205246 
L 386.898201 524.569442 
L 390.043156 528.304726 
L 393.18811 528.912123 
L 396.333065 536.315408 
L 399.478019 535.416369 
L 402.622973 531.528652 
L 405.767928 525.376389 
L 408.912882 518.057398 
L 412.057837 515.667992 
L 415.202791 519.522784 
L 418.347745 527.804979 
L 421.4927 529.664589 
L 424.637654 528.196145 
L 427.782609 524.590281 
L 430.927563 504.339988 
L 434.072517 487.066574 
L 437.217472 463.979994 
L 440.362426 442.420781 
L 443.507381 435.230373 
L 446.652335 430.481214 
L 449.797289 434.889292 
L 452.942244 459.195892 
L 456.087198 479.461279 
L 459.232153 509.052167 
L 462.377107 530.226024 
L 465.522061 537.661886 
L 468.667016 545.900411 
L 471.81197 546.160294 
L 474.956925 539.946146 
L 478.101879 538.750842 
L 481.246833 534.465877 
L 484.391788 534.002442 
L 487.536742 536.38092 
L 493.826651 534.00238 
L 496.971605 532.134137 
L 500.11656 528.059752 
L 503.261514 526.163056 
L 506.406469 525.137017 
L 509.551423 523.572511 
L 512.696377 522.544951 
L 515.841332 520.496363 
L 518.986286 512.619686 
L 525.276195 495.445598 
L 528.421149 489.918395 
L 531.566104 488.595929 
L 534.711058 488.836079 
L 537.856013 489.358422 
L 541.000967 491.139108 
L 544.145921 489.5287 
L 547.290876 486.292032 
L 550.43583 482.536827 
L 553.580785 480.965241 
L 556.725739 480.226297 
L 559.870693 478.831453 
L 563.015648 481.642688 
L 566.160602 483.503366 
L 569.305557 488.177664 
L 572.450511 493.378464 
L 575.595465 494.153653 
L 578.74042 495.321271 
L 581.885374 494.600155 
L 585.030329 492.407823 
L 588.175283 494.262169 
L 591.320237 491.676839 
L 594.465192 491.222954 
L 597.610146 491.831749 
L 600.755101 489.898534 
L 603.900055 490.262792 
L 607.045009 488.570694 
L 610.189964 483.701662 
L 613.334918 485.477326 
L 616.479873 486.177217 
L 619.624827 486.669063 
L 622.769781 487.668288 
L 625.914736 487.781597 
L 629.05969 489.283171 
L 632.204645 491.942261 
L 635.349599 493.949843 
L 638.494553 494.714281 
L 641.639508 494.465942 
L 644.784462 496.331372 
L 647.929417 500.499435 
L 651.074371 506.751032 
L 654.219325 515.234822 
L 657.36428 520.093526 
L 660.509234 521.850863 
L 663.654189 524.127457 
L 666.799143 524.556981 
L 669.944097 525.192089 
L 673.089052 525.59852 
L 676.234006 524.684047 
L 679.378961 522.609934 
L 682.523915 518.809894 
L 688.813824 510.216924 
L 691.958778 505.38165 
L 695.103733 502.652752 
L 701.393641 502.52348 
L 704.538596 505.238246 
L 707.68355 506.980664 
L 710.828505 506.787841 
L 713.973459 506.128386 
L 717.118413 502.2635 
L 720.263368 494.351311 
L 723.408322 490.808249 
L 726.553277 489.081468 
L 729.698231 488.034531 
L 732.843185 490.886473 
L 735.98814 495.616745 
L 739.133094 501.386006 
L 742.278049 508.842909 
L 745.423003 510.839527 
L 748.567957 509.059412 
L 754.857866 506.835699 
L 758.00282 505.453055 
L 761.147775 504.789804 
L 764.292729 505.165382 
L 767.437684 502.138777 
L 770.582638 500.381092 
L 773.727592 498.987909 
L 776.872547 494.710277 
L 780.017501 491.171079 
L 783.162456 484.113423 
L 786.30741 473.549796 
L 789.452364 467.260216 
L 792.597319 462.579508 
L 795.742273 460.962953 
L 798.887228 461.264646 
L 802.032182 461.147287 
L 805.177136 462.191245 
L 808.322091 462.157251 
L 811.467045 462.940608 
L 814.612 463.507902 
L 817.756954 463.378985 
L 820.901908 464.191497 
L 824.046863 464.109456 
L 827.191817 465.266723 
L 830.336772 465.240724 
L 833.481726 461.28647 
L 836.62668 457.918589 
L 839.771635 453.996303 
L 842.916589 451.299857 
L 846.061544 451.889397 
L 849.206498 454.5772 
L 852.351452 461.225644 
L 855.496407 471.928457 
L 858.641361 478.09318 
L 861.786316 483.684392 
L 864.93127 487.622845 
L 868.076224 490.386188 
L 871.221179 494.500827 
L 874.366133 497.875665 
L 877.511088 500.239962 
L 880.656042 502.079328 
L 883.800996 503.401743 
L 886.945951 505.051756 
L 896.380814 510.68315 
L 899.525768 511.390102 
L 902.670723 513.111604 
L 905.815677 515.326703 
L 912.105586 518.74511 
L 915.25054 518.87405 
L 921.540449 515.575085 
L 924.685404 514.487943 
L 927.830358 514.684699 
L 930.975312 514.99352 
L 937.265221 515.15799 
L 940.410176 514.930744 
L 943.55513 515.737308 
L 946.700084 516.663693 
L 952.989993 517.312474 
L 956.134948 516.912208 
L 959.279902 516.241206 
L 962.424856 515.035058 
L 965.569811 511.95646 
L 968.714765 509.318725 
L 975.004674 505.379879 
L 978.149628 504.714294 
L 981.294583 503.352033 
L 984.439537 500.907705 
L 987.584492 499.951454 
L 990.729446 496.976647 
L 1000.164309 496.051038 
L 1003.309264 497.46589 
L 1006.454218 497.816871 
L 1012.744127 502.747376 
L 1015.889081 503.196054 
L 1019.034036 504.623788 
L 1022.17899 505.155821 
L 1025.323944 507.465293 
L 1028.468899 516.72677 
L 1037.903762 543.719495 
L 1041.048716 545.324342 
L 1044.193671 542.422117 
L 1047.338625 535.953751 
L 1050.48358 516.01857 
L 1050.48358 516.01857 
" style="fill:none;stroke:#348abd;stroke-linecap:square;stroke-width:1.5;"/>
   </g>
   <g id="line2d_42">
    <path clip-path="url(#p7cf1342f94)" d="M 91.272488 265.168783 
L 94.417442 205.969184 
L 97.562397 347.242518 
L 100.707351 201.655221 
L 103.852306 42.11389 
L 106.99726 185.234308 
L 110.142214 263.845071 
L 113.287169 465.77559 
L 116.432123 476.043779 
L 119.577078 325.907925 
L 122.722032 279.525613 
L 125.866986 99.745568 
L 129.011941 34.896364 
L 132.156895 297.311649 
L 135.30185 350.331076 
L 138.446804 405.254755 
L 141.591758 387.057046 
L 144.736713 342.560772 
L 147.881667 321.45684 
L 151.026622 315.050117 
L 154.171576 385.390439 
L 157.31653 415.035555 
L 160.461485 434.480004 
L 163.606439 411.677921 
L 166.751394 417.441553 
L 169.896348 434.14764 
L 173.041302 457.958104 
L 176.186257 495.081711 
L 179.331211 519.190809 
L 182.476166 535.973206 
L 185.62112 519.387759 
L 188.766074 507.686256 
L 191.911029 486.931502 
L 195.055983 474.937279 
L 198.200938 512.881856 
L 201.345892 538.425987 
L 204.490846 559.480873 
L 207.635801 567.563266 
L 210.780755 544.814925 
L 213.92571 527.657012 
L 217.070664 520.965857 
L 220.215618 534.451273 
L 223.360573 573.397001 
L 226.505527 588.315633 
L 229.650482 582.404494 
L 232.795436 559.662101 
L 235.94039 509.329733 
L 239.085345 483.276223 
L 242.230299 500.486158 
L 245.375254 535.683745 
L 248.520208 568.801069 
L 251.665162 569.861607 
L 254.810117 552.74047 
L 257.955071 529.300153 
L 261.100026 515.162956 
L 264.24498 537.658092 
L 267.389934 566.617188 
L 270.534889 582.204187 
L 273.679843 581.663125 
L 276.824798 552.380564 
L 279.969752 534.036608 
L 283.114706 529.267466 
L 286.259661 546.134964 
L 289.404615 585.484365 
L 292.54957 582.335444 
L 295.694524 558.092681 
L 298.839478 516.71396 
L 301.984433 442.610867 
L 305.129387 456.254323 
L 308.274342 523.879506 
L 314.56425 581.013023 
L 317.709205 566.41143 
L 320.854159 515.265288 
L 323.999114 516.647446 
L 327.144068 503.291561 
L 330.289022 547.145046 
L 333.433977 582.801468 
L 336.578931 566.43179 
L 339.723886 551.256682 
L 342.86884 515.789576 
L 346.013794 476.943939 
L 352.303703 555.403162 
L 355.448658 562.393697 
L 358.593612 583.079425 
L 361.738566 574.40059 
L 364.883521 513.498085 
L 368.028475 485.487955 
L 371.17343 459.565121 
L 374.318384 450.279072 
L 377.463338 544.46217 
L 380.608293 588.823636 
L 383.753247 578.320681 
L 386.898201 565.047457 
L 390.043156 511.634943 
L 393.18811 463.816904 
L 396.333065 502.102064 
L 399.478019 538.168896 
L 402.622973 561.609618 
L 405.767928 535.254839 
L 408.912882 513.81452 
L 412.057837 494.909104 
L 415.202791 490.800446 
L 418.347745 560.07743 
L 421.4927 551.186167 
L 424.637654 551.330511 
L 427.782609 510.013785 
L 430.927563 372.062476 
L 434.072517 373.995203 
L 437.217472 329.194386 
L 440.362426 409.162943 
L 443.507381 500.853311 
L 446.652335 518.086394 
L 449.797289 540.870332 
L 452.942244 542.208674 
L 456.087198 515.852909 
L 462.377107 557.379943 
L 465.522061 552.904341 
L 468.667016 575.756071 
L 471.81197 542.689514 
L 474.956925 498.709638 
L 478.101879 507.485781 
L 481.246833 506.335851 
L 484.391788 554.135901 
L 487.536742 569.553683 
L 490.681697 567.480287 
L 493.826651 534.315517 
L 496.971605 485.631942 
L 500.11656 478.965081 
L 503.261514 493.058982 
L 506.406469 546.953629 
L 509.551423 558.602141 
L 512.696377 560.287364 
L 515.841332 519.9754 
L 518.986286 430.495204 
L 522.131241 419.255333 
L 525.276195 432.550112 
L 528.421149 508.263214 
L 531.566104 549.344879 
L 534.711058 561.96841 
L 537.856013 523.631801 
L 541.000967 442.960006 
L 544.145921 407.982481 
L 547.290876 409.893436 
L 550.43583 481.976777 
L 553.580785 538.343776 
L 556.725739 556.795804 
L 559.870693 513.867892 
L 563.015648 462.63865 
L 566.160602 421.007226 
L 569.305557 442.613522 
L 572.450511 518.382373 
L 575.595465 543.770104 
L 578.74042 564.969132 
L 581.885374 508.820077 
L 585.030329 447.292329 
L 588.175283 433.987648 
L 591.320237 424.516208 
L 594.465192 515.205182 
L 597.610146 548.031668 
L 600.755101 551.436622 
L 603.900055 511.369888 
L 607.045009 435.447642 
L 610.189964 399.90442 
L 613.334918 436.94586 
L 616.479873 520.10442 
L 619.624827 551.474589 
L 622.769781 558.4312 
L 625.914736 512.163049 
L 629.05969 445.958657 
L 632.204645 418.51805 
L 635.349599 450.998934 
L 638.494553 525.455489 
L 641.639508 549.736212 
L 644.784462 571.489212 
L 647.929417 541.33949 
L 651.074371 489.719838 
L 654.219325 477.90458 
L 657.36428 485.009859 
L 660.509234 537.756848 
L 663.654189 565.672368 
L 666.799143 574.495885 
L 669.944097 545.785243 
L 673.089052 492.564855 
L 676.234006 471.503274 
L 679.378961 470.491068 
L 682.523915 511.156567 
L 685.668869 535.228119 
L 688.813824 544.789345 
L 691.958778 511.938326 
L 695.103733 473.462567 
L 698.248687 471.194563 
L 701.393641 469.894876 
L 704.538596 530.15993 
L 707.68355 547.425039 
L 710.828505 543.439588 
L 713.973459 507.32214 
L 717.118413 446.408363 
L 720.263368 415.809242 
L 723.408322 445.093439 
L 726.553277 518.072466 
L 729.698231 540.09648 
L 732.843185 563.40318 
L 735.98814 540.434048 
L 739.133094 486.79319 
L 742.278049 468.007561 
L 745.423003 459.069765 
L 748.567957 505.611659 
L 751.712912 532.313766 
L 754.857866 555.619907 
L 758.00282 530.755537 
L 761.147775 482.150435 
L 764.292729 470.636604 
L 767.437684 437.883529 
L 770.582638 493.307866 
L 773.727592 522.561484 
L 776.872547 525.676484 
L 780.017501 505.98115 
L 783.162456 432.746842 
L 786.30741 396.691217 
L 789.452364 393.85647 
L 792.597319 460.542909 
L 795.742273 511.245598 
L 798.887228 527.788336 
L 802.032182 505.159635 
L 805.177136 440.054547 
L 808.322091 396.453261 
L 811.467045 399.339973 
L 814.612 464.513962 
L 817.756954 510.34318 
L 820.901908 533.475923 
L 824.046863 504.585346 
L 827.191817 448.155413 
L 830.336772 396.271267 
L 833.481726 371.660199 
L 836.62668 440.938797 
L 839.771635 482.887177 
L 842.916589 514.600798 
L 846.061544 508.71213 
L 849.206498 466.970032 
L 852.351452 442.810373 
L 855.496407 446.579889 
L 861.786316 522.025658 
L 864.93127 542.169972 
L 868.076224 528.055529 
L 871.221179 495.772504 
L 874.366133 466.434243 
L 877.511088 463.129969 
L 883.800996 531.282565 
L 886.945951 553.720063 
L 890.090905 541.199647 
L 893.23586 509.304864 
L 896.380814 479.177524 
L 899.525768 468.078633 
L 902.670723 509.017934 
L 905.815677 546.788259 
L 908.960632 565.358603 
L 912.105586 553.489957 
L 918.395495 468.038481 
L 921.540449 456.124926 
L 927.830358 548.165549 
L 930.975312 567.520352 
L 934.120267 553.853812 
L 937.265221 510.994871 
L 940.410176 466.44776 
L 943.55513 461.770874 
L 946.700084 507.892632 
L 949.845039 550.599098 
L 952.989993 569.628271 
L 956.134948 551.051949 
L 959.279902 506.297855 
L 962.424856 458.004726 
L 965.569811 440.220689 
L 968.714765 489.428483 
L 971.85972 536.693475 
L 975.004674 555.961973 
L 978.149628 546.392858 
L 981.294583 496.76203 
L 984.439537 440.894426 
L 987.584492 433.526932 
L 990.729446 468.604832 
L 993.8744 534.474212 
L 997.019355 554.314145 
L 1000.164309 543.780689 
L 1003.309264 506.665997 
L 1006.454218 443.351289 
L 1009.599172 450.739171 
L 1012.744127 485.90613 
L 1015.889081 537.614956 
L 1019.034036 564.308283 
L 1022.17899 547.504919 
L 1025.323944 522.832303 
L 1028.468899 508.181627 
L 1037.903762 575.770344 
L 1041.048716 572.332517 
L 1044.193671 532.993795 
L 1047.338625 490.490469 
L 1050.48358 408.505727 
L 1050.48358 408.505727 
" style="fill:none;stroke:#348abd;stroke-dasharray:1.5,2.475;stroke-dashoffset:0;stroke-width:1.5;"/>
   </g>
   <g id="line2d_43">
    <path clip-path="url(#p7cf1342f94)" d="M 30.103125 519.259461 
L 1099.073125 519.259461 
" style="fill:none;stroke:#008000;stroke-linecap:square;stroke-opacity:0.5;stroke-width:1.5;"/>
   </g>
   <g id="patch_3">
    <path d="M 30.103125 616.52 
L 30.103125 7.2 
" style="fill:none;stroke:#ffffff;stroke-linecap:square;stroke-linejoin:miter;"/>
   </g>
   <g id="patch_4">
    <path d="M 1099.073125 616.52 
L 1099.073125 7.2 
" style="fill:none;stroke:#ffffff;stroke-linecap:square;stroke-linejoin:miter;"/>
   </g>
   <g id="patch_5">
    <path d="M 30.103125 616.52 
L 1099.073125 616.52 
" style="fill:none;stroke:#ffffff;stroke-linecap:square;stroke-linejoin:miter;"/>
   </g>
   <g id="patch_6">
    <path d="M 30.103125 7.2 
L 1099.073125 7.2 
" style="fill:none;stroke:#ffffff;stroke-linecap:square;stroke-linejoin:miter;"/>
   </g>
  </g>
  <g id="axes_2">
   <g id="matplotlib.axis_3">
    <g id="ytick_9">
     <g id="line2d_44">
      <path clip-path="url(#p7cf1342f94)" d="M 30.103125 588.985638 
L 1099.073125 588.985638 
" style="fill:none;stroke:#ffffff;stroke-linecap:square;stroke-width:0.8;"/>
     </g>
     <g id="line2d_45">
      <defs>
       <path d="M 0 0 
L 3.5 0 
" id="mb194c7e37c" style="stroke:#555555;stroke-width:0.8;"/>
      </defs>
      <g>
       <use style="fill:#555555;stroke:#555555;stroke-width:0.8;" x="1099.073125" xlink:href="#mb194c7e37c" y="588.985638"/>
      </g>
     </g>
     <g id="text_20">
      <!-- 0 -->
      <g style="fill:#555555;" transform="translate(1106.073125 592.784857)scale(0.1 -0.1)">
       <use xlink:href="#DejaVuSans-48"/>
      </g>
     </g>
    </g>
    <g id="ytick_10">
     <g id="line2d_46">
      <path clip-path="url(#p7cf1342f94)" d="M 30.103125 515.348597 
L 1099.073125 515.348597 
" style="fill:none;stroke:#ffffff;stroke-linecap:square;stroke-width:0.8;"/>
     </g>
     <g id="line2d_47">
      <g>
       <use style="fill:#555555;stroke:#555555;stroke-width:0.8;" x="1099.073125" xlink:href="#mb194c7e37c" y="515.348597"/>
      </g>
     </g>
     <g id="text_21">
      <!-- 5000 -->
      <g style="fill:#555555;" transform="translate(1106.073125 519.147816)scale(0.1 -0.1)">
       <use xlink:href="#DejaVuSans-53"/>
       <use x="63.623047" xlink:href="#DejaVuSans-48"/>
       <use x="127.246094" xlink:href="#DejaVuSans-48"/>
       <use x="190.869141" xlink:href="#DejaVuSans-48"/>
      </g>
     </g>
    </g>
    <g id="ytick_11">
     <g id="line2d_48">
      <path clip-path="url(#p7cf1342f94)" d="M 30.103125 441.711557 
L 1099.073125 441.711557 
" style="fill:none;stroke:#ffffff;stroke-linecap:square;stroke-width:0.8;"/>
     </g>
     <g id="line2d_49">
      <g>
       <use style="fill:#555555;stroke:#555555;stroke-width:0.8;" x="1099.073125" xlink:href="#mb194c7e37c" y="441.711557"/>
      </g>
     </g>
     <g id="text_22">
      <!-- 10000 -->
      <g style="fill:#555555;" transform="translate(1106.073125 445.510776)scale(0.1 -0.1)">
       <use xlink:href="#DejaVuSans-49"/>
       <use x="63.623047" xlink:href="#DejaVuSans-48"/>
       <use x="127.246094" xlink:href="#DejaVuSans-48"/>
       <use x="190.869141" xlink:href="#DejaVuSans-48"/>
       <use x="254.492188" xlink:href="#DejaVuSans-48"/>
      </g>
     </g>
    </g>
    <g id="ytick_12">
     <g id="line2d_50">
      <path clip-path="url(#p7cf1342f94)" d="M 30.103125 368.074517 
L 1099.073125 368.074517 
" style="fill:none;stroke:#ffffff;stroke-linecap:square;stroke-width:0.8;"/>
     </g>
     <g id="line2d_51">
      <g>
       <use style="fill:#555555;stroke:#555555;stroke-width:0.8;" x="1099.073125" xlink:href="#mb194c7e37c" y="368.074517"/>
      </g>
     </g>
     <g id="text_23">
      <!-- 15000 -->
      <g style="fill:#555555;" transform="translate(1106.073125 371.873735)scale(0.1 -0.1)">
       <use xlink:href="#DejaVuSans-49"/>
       <use x="63.623047" xlink:href="#DejaVuSans-53"/>
       <use x="127.246094" xlink:href="#DejaVuSans-48"/>
       <use x="190.869141" xlink:href="#DejaVuSans-48"/>
       <use x="254.492188" xlink:href="#DejaVuSans-48"/>
      </g>
     </g>
    </g>
    <g id="ytick_13">
     <g id="line2d_52">
      <path clip-path="url(#p7cf1342f94)" d="M 30.103125 294.437476 
L 1099.073125 294.437476 
" style="fill:none;stroke:#ffffff;stroke-linecap:square;stroke-width:0.8;"/>
     </g>
     <g id="line2d_53">
      <g>
       <use style="fill:#555555;stroke:#555555;stroke-width:0.8;" x="1099.073125" xlink:href="#mb194c7e37c" y="294.437476"/>
      </g>
     </g>
     <g id="text_24">
      <!-- 20000 -->
      <g style="fill:#555555;" transform="translate(1106.073125 298.236695)scale(0.1 -0.1)">
       <use xlink:href="#DejaVuSans-50"/>
       <use x="63.623047" xlink:href="#DejaVuSans-48"/>
       <use x="127.246094" xlink:href="#DejaVuSans-48"/>
       <use x="190.869141" xlink:href="#DejaVuSans-48"/>
       <use x="254.492188" xlink:href="#DejaVuSans-48"/>
      </g>
     </g>
    </g>
    <g id="ytick_14">
     <g id="line2d_54">
      <path clip-path="url(#p7cf1342f94)" d="M 30.103125 220.800436 
L 1099.073125 220.800436 
" style="fill:none;stroke:#ffffff;stroke-linecap:square;stroke-width:0.8;"/>
     </g>
     <g id="line2d_55">
      <g>
       <use style="fill:#555555;stroke:#555555;stroke-width:0.8;" x="1099.073125" xlink:href="#mb194c7e37c" y="220.800436"/>
      </g>
     </g>
     <g id="text_25">
      <!-- 25000 -->
      <g style="fill:#555555;" transform="translate(1106.073125 224.599655)scale(0.1 -0.1)">
       <use xlink:href="#DejaVuSans-50"/>
       <use x="63.623047" xlink:href="#DejaVuSans-53"/>
       <use x="127.246094" xlink:href="#DejaVuSans-48"/>
       <use x="190.869141" xlink:href="#DejaVuSans-48"/>
       <use x="254.492188" xlink:href="#DejaVuSans-48"/>
      </g>
     </g>
    </g>
    <g id="ytick_15">
     <g id="line2d_56">
      <path clip-path="url(#p7cf1342f94)" d="M 30.103125 147.163395 
L 1099.073125 147.163395 
" style="fill:none;stroke:#ffffff;stroke-linecap:square;stroke-width:0.8;"/>
     </g>
     <g id="line2d_57">
      <g>
       <use style="fill:#555555;stroke:#555555;stroke-width:0.8;" x="1099.073125" xlink:href="#mb194c7e37c" y="147.163395"/>
      </g>
     </g>
     <g id="text_26">
      <!-- 30000 -->
      <g style="fill:#555555;" transform="translate(1106.073125 150.962614)scale(0.1 -0.1)">
       <use xlink:href="#DejaVuSans-51"/>
       <use x="63.623047" xlink:href="#DejaVuSans-48"/>
       <use x="127.246094" xlink:href="#DejaVuSans-48"/>
       <use x="190.869141" xlink:href="#DejaVuSans-48"/>
       <use x="254.492188" xlink:href="#DejaVuSans-48"/>
      </g>
     </g>
    </g>
    <g id="ytick_16">
     <g id="line2d_58">
      <path clip-path="url(#p7cf1342f94)" d="M 30.103125 73.526355 
L 1099.073125 73.526355 
" style="fill:none;stroke:#ffffff;stroke-linecap:square;stroke-width:0.8;"/>
     </g>
     <g id="line2d_59">
      <g>
       <use style="fill:#555555;stroke:#555555;stroke-width:0.8;" x="1099.073125" xlink:href="#mb194c7e37c" y="73.526355"/>
      </g>
     </g>
     <g id="text_27">
      <!-- 35000 -->
      <g style="fill:#555555;" transform="translate(1106.073125 77.325574)scale(0.1 -0.1)">
       <use xlink:href="#DejaVuSans-51"/>
       <use x="63.623047" xlink:href="#DejaVuSans-53"/>
       <use x="127.246094" xlink:href="#DejaVuSans-48"/>
       <use x="190.869141" xlink:href="#DejaVuSans-48"/>
       <use x="254.492188" xlink:href="#DejaVuSans-48"/>
      </g>
     </g>
    </g>
   </g>
   <g id="line2d_60">
    <path clip-path="url(#p7cf1342f94)" d="M 78.69267 588.205085 
L 81.837625 588.514361 
L 84.982579 588.362178 
L 91.272488 588.408323 
L 94.417442 588.342541 
L 97.562397 588.144072 
L 103.852306 587.447676 
L 106.99726 587.355103 
L 110.142214 586.915385 
L 113.287169 586.671331 
L 116.432123 586.240028 
L 119.577078 584.843028 
L 122.722032 583.887851 
L 125.866986 582.673892 
L 135.30185 576.656693 
L 138.446804 575.034575 
L 141.591758 570.828848 
L 144.736713 566.063479 
L 147.881667 561.914558 
L 151.026622 560.010514 
L 154.171576 553.934407 
L 157.31653 546.318233 
L 160.461485 539.846589 
L 163.606439 535.316859 
L 166.751394 529.37961 
L 169.896348 521.828657 
L 173.041302 517.58506 
L 176.186257 516.135462 
L 179.331211 516.448945 
L 182.476166 513.640218 
L 185.62112 511.111312 
L 188.766074 510.282369 
L 191.911029 510.728399 
L 195.055983 506.581582 
L 198.200938 508.841187 
L 201.345892 510.484345 
L 204.490846 513.535022 
L 207.635801 516.02185 
L 210.780755 517.812282 
L 213.92571 521.912814 
L 217.070664 528.46651 
L 220.215618 530.864974 
L 223.360573 534.551034 
L 226.505527 537.742673 
L 229.650482 542.177727 
L 232.795436 546.265635 
L 235.94039 547.368087 
L 239.085345 548.131808 
L 242.230299 549.734991 
L 248.520208 550.883729 
L 251.665162 551.965142 
L 254.810117 554.159526 
L 257.955071 557.42901 
L 267.389934 561.887207 
L 273.679843 565.688982 
L 276.824798 567.157515 
L 279.969752 569.492861 
L 283.114706 571.478957 
L 286.259661 572.192185 
L 289.404615 573.157882 
L 292.54957 573.90898 
L 295.694524 574.317139 
L 298.839478 575.221823 
L 301.984433 574.578025 
L 305.129387 574.843118 
L 308.274342 575.520579 
L 311.419296 574.998808 
L 314.56425 575.312291 
L 317.709205 576.050766 
L 320.854159 576.673525 
L 323.999114 578.001095 
L 327.144068 578.177824 
L 330.289022 578.209383 
L 333.433977 579.093027 
L 336.578931 579.095131 
L 339.723886 579.490667 
L 342.86884 580.443741 
L 346.013794 580.405871 
L 349.158749 580.725666 
L 355.448658 581.007591 
L 361.738566 582.747529 
L 364.883521 582.156328 
L 368.028475 581.945937 
L 371.17343 582.251005 
L 374.318384 582.158432 
L 377.463338 582.61919 
L 380.608293 582.661268 
L 383.753247 582.575008 
L 386.898201 583.067324 
L 390.043156 583.76372 
L 393.18811 583.732161 
L 396.333065 583.982527 
L 399.478019 583.694291 
L 402.622973 583.744784 
L 405.767928 583.406054 
L 408.912882 583.929929 
L 418.347745 584.213958 
L 427.782609 584.045644 
L 430.927563 582.96844 
L 434.072517 582.436149 
L 437.217472 581.510426 
L 440.362426 580.784575 
L 443.507381 580.521586 
L 446.652335 580.012439 
L 449.797289 579.907243 
L 452.942244 580.52369 
L 456.087198 580.342753 
L 459.232153 581.249541 
L 462.377107 581.828118 
L 465.522061 581.838637 
L 471.81197 582.360408 
L 474.956925 582.42563 
L 478.101879 582.983167 
L 484.391788 583.109402 
L 490.681697 583.481795 
L 500.11656 583.810006 
L 503.261514 583.791071 
L 506.406469 583.917306 
L 509.551423 583.871019 
L 512.696377 583.9678 
L 515.841332 583.774239 
L 522.131241 583.061012 
L 525.276195 583.157792 
L 537.856013 582.446669 
L 544.145921 581.428374 
L 553.580785 580.786679 
L 556.725739 580.302779 
L 559.870693 579.602175 
L 563.015648 579.48646 
L 566.160602 579.120378 
L 569.305557 579.257133 
L 572.450511 578.901571 
L 575.595465 578.384008 
L 578.74042 578.264085 
L 581.885374 577.963225 
L 585.030329 577.38044 
L 588.175283 577.029086 
L 591.320237 576.366353 
L 594.465192 576.519939 
L 597.610146 576.336898 
L 600.755101 575.316499 
L 603.900055 574.474933 
L 610.189964 573.223103 
L 613.334918 573.075829 
L 616.479873 572.81284 
L 619.624827 571.92078 
L 625.914736 570.772042 
L 629.05969 570.818328 
L 632.204645 569.516004 
L 638.494553 568.870102 
L 641.639508 569.105741 
L 644.784462 568.966882 
L 647.929417 569.387666 
L 651.074371 569.084702 
L 654.219325 570.252375 
L 657.36428 570.246063 
L 663.654189 570.584793 
L 666.799143 571.258046 
L 669.944097 571.670414 
L 676.234006 572.131171 
L 682.523915 571.274878 
L 685.668869 570.683677 
L 688.813824 570.851991 
L 691.958778 569.629616 
L 695.103733 569.564394 
L 698.248687 569.034208 
L 701.393641 569.118364 
L 704.538596 568.880622 
L 707.68355 569.074182 
L 710.828505 567.548843 
L 713.973459 566.913461 
L 717.118413 566.00457 
L 720.263368 564.601258 
L 723.408322 563.766003 
L 726.553277 563.776523 
L 729.698231 562.905502 
L 732.843185 563.183219 
L 735.98814 563.290519 
L 742.278049 562.350068 
L 745.423003 562.213314 
L 751.712912 561.081407 
L 754.857866 561.020394 
L 758.00282 560.262984 
L 761.147775 559.168948 
L 764.292729 559.051129 
L 767.437684 557.222826 
L 770.582638 556.823083 
L 773.727592 555.665929 
L 776.872547 553.498896 
L 780.017501 550.227308 
L 783.162456 546.349791 
L 786.30741 541.809542 
L 789.452364 539.276428 
L 792.597319 536.993679 
L 795.742273 533.873573 
L 798.887228 529.026152 
L 802.032182 523.59805 
L 805.177136 517.669216 
L 808.322091 511.128143 
L 811.467045 506.701505 
L 814.612 502.79243 
L 817.756954 497.015078 
L 820.901908 491.833135 
L 824.046863 482.052032 
L 827.191817 473.82993 
L 830.336772 459.346576 
L 833.481726 447.587793 
L 836.62668 438.414722 
L 839.771635 428.860842 
L 842.916589 413.357089 
L 846.061544 401.812905 
L 849.206498 386.161878 
L 852.351452 377.020365 
L 855.496407 370.706515 
L 858.641361 363.527955 
L 861.786316 355.232217 
L 864.93127 350.498407 
L 868.076224 343.732215 
L 871.221179 337.788654 
L 874.366133 328.657661 
L 877.511088 324.786456 
L 880.656042 322.1229 
L 883.800996 322.164978 
L 886.945951 319.486693 
L 890.090905 315.539748 
L 893.23586 311.256176 
L 896.380814 313.229649 
L 899.525768 311.273008 
L 902.670723 316.614849 
L 908.960632 320.483949 
L 912.105586 318.92074 
L 915.25054 318.697725 
L 918.395495 317.639456 
L 921.540449 320.176778 
L 924.685404 320.092621 
L 927.830358 321.912508 
L 930.975312 319.657111 
L 934.120267 320.374546 
L 937.265221 322.146043 
L 940.410176 324.815911 
L 943.55513 327.193336 
L 946.700084 326.551642 
L 949.845039 326.446446 
L 952.989993 329.314082 
L 956.134948 329.781152 
L 959.279902 328.428334 
L 962.424856 325.013679 
L 965.569811 318.373722 
L 968.714765 315.926869 
L 971.85972 314.980107 
L 975.004674 307.521726 
L 978.149628 304.086032 
L 981.294583 290.566272 
L 984.439537 279.794225 
L 987.584492 274.675399 
L 990.729446 266.196619 
L 993.8744 265.401339 
L 997.019355 250.856972 
L 1000.164309 244.03187 
L 1003.309264 235.822392 
L 1006.454218 229.800986 
L 1009.599172 224.391819 
L 1012.744127 223.800619 
L 1015.889081 213.079066 
L 1019.034036 219.365566 
L 1022.17899 208.273723 
L 1025.323944 225.618402 
L 1028.468899 261.058858 
L 1037.903762 192.682868 
L 1041.048716 199.401512 
L 1044.193671 198.349975 
L 1047.338625 206.034736 
L 1050.48358 211.233512 
L 1050.48358 211.233512 
" style="fill:none;stroke:#000000;stroke-linecap:square;stroke-width:1.5;"/>
   </g>
   <g id="line2d_61">
    <path clip-path="url(#p7cf1342f94)" d="M 78.69267 588.205085 
L 81.837625 588.823636 
L 84.982579 588.057811 
L 88.127534 588.57327 
L 91.272488 588.381814 
L 94.417442 588.013629 
L 97.562397 586.953256 
L 100.707351 585.465787 
L 103.852306 586.688162 
L 106.99726 587.409805 
L 110.142214 585.495242 
L 113.287169 586.673435 
L 116.432123 584.99451 
L 119.577078 577.174257 
L 122.722032 578.779544 
L 125.866986 578.190448 
L 129.011941 573.624951 
L 132.156895 571.695661 
L 135.30185 572.137483 
L 138.446804 573.639679 
L 141.591758 547.734168 
L 144.736713 545.421965 
L 147.881667 549.147999 
L 151.026622 560.296647 
L 154.171576 529.162906 
L 157.31653 518.824266 
L 160.461485 528.338171 
L 166.751394 503.861219 
L 169.896348 496.291331 
L 173.041302 530.591465 
L 176.186257 519.015722 
L 179.331211 521.01865 
L 182.476166 508.677082 
L 185.62112 498.323714 
L 188.766074 498.05862 
L 191.911029 499.413542 
L 195.055983 501.563743 
L 198.200938 534.832958 
L 201.345892 532.520755 
L 204.490846 530.031823 
L 207.635801 515.73151 
L 210.780755 510.591645 
L 213.92571 528.11726 
L 217.070664 547.43962 
L 220.215618 551.622204 
L 223.360573 558.323174 
L 226.505527 552.373301 
L 229.650482 546.776886 
L 232.795436 539.206999 
L 235.94039 535.834422 
L 239.085345 552.785669 
L 242.230299 562.844489 
L 245.375254 562.697214 
L 248.520208 556.040426 
L 251.665162 554.346774 
L 254.810117 554.567685 
L 257.955071 558.720814 
L 261.100026 563.40413 
L 264.24498 573.993136 
L 267.389934 572.137483 
L 270.534889 569.781098 
L 273.679843 567.218529 
L 276.824798 564.847416 
L 279.969752 575.068237 
L 283.114706 577.306803 
L 286.259661 578.985728 
L 289.404615 578.897363 
L 292.54957 575.038782 
L 295.694524 570.075646 
L 298.839478 571.180201 
L 301.984433 570.56165 
L 305.129387 579.162457 
L 308.274342 583.727953 
L 311.419296 575.244966 
L 314.56425 577.233166 
L 317.709205 575.244966 
L 320.854159 575.539514 
L 323.999114 579.854645 
L 327.144068 580.399559 
L 330.289022 583.948864 
L 333.433977 581.430478 
L 336.578931 577.247894 
L 339.723886 578.013719 
L 342.86884 582.21103 
L 346.013794 579.589551 
L 349.158749 582.638125 
L 352.303703 584.729417 
L 355.448658 582.623398 
L 358.593612 583.654316 
L 361.738566 583.786863 
L 364.883521 578.072628 
L 368.028475 578.116811 
L 371.17343 584.773599 
L 374.318384 584.081411 
L 377.463338 585.8487 
L 380.608293 583.948864 
L 383.753247 583.183039 
L 386.898201 581.518842 
L 396.333065 585.833973 
L 399.478019 583.831045 
L 402.622973 584.302322 
L 405.767928 580.811926 
L 408.912882 585.185967 
L 412.057837 583.8605 
L 415.202791 585.347968 
L 418.347745 586.157976 
L 421.4927 583.418678 
L 424.637654 583.904682 
L 427.782609 580.443741 
L 430.927563 577.645534 
L 434.072517 580.134466 
L 437.217472 578.867909 
L 440.362426 581.07702 
L 443.507381 581.577752 
L 446.652335 580.340649 
L 449.797289 579.707371 
L 452.942244 581.960664 
L 456.087198 578.867909 
L 459.232153 585.215421 
L 462.377107 585.127057 
L 465.522061 581.651389 
L 468.667016 582.122666 
L 471.81197 581.577752 
L 474.956925 582.417214 
L 478.101879 582.770672 
L 481.246833 585.465787 
L 484.391788 585.760335 
L 487.536742 583.241949 
L 490.681697 583.138857 
L 493.826651 582.476123 
L 496.971605 583.168312 
L 500.11656 583.418678 
L 503.261514 585.333241 
L 506.406469 586.64398 
L 509.551423 582.917946 
L 512.696377 583.816318 
L 515.841332 581.121202 
L 518.986286 580.399559 
L 522.131241 581.194839 
L 525.276195 586.010701 
L 528.421149 585.318513 
L 531.566104 581.297931 
L 534.711058 582.299395 
L 537.856013 580.605743 
L 541.000967 576.9828 
L 544.145921 577.483532 
L 547.290876 584.493778 
L 550.43583 583.978319 
L 553.580785 579.663189 
L 556.725739 578.912091 
L 559.870693 575.701516 
L 563.015648 576.172793 
L 566.160602 574.920963 
L 569.305557 585.45106 
L 572.450511 581.489387 
L 575.595465 576.040246 
L 578.74042 578.072628 
L 581.885374 573.595496 
L 585.030329 572.093301 
L 588.175283 572.461486 
L 591.320237 580.811926 
L 594.465192 582.564488 
L 597.610146 574.758962 
L 600.755101 570.929836 
L 603.900055 567.704533 
L 607.045009 567.645624 
L 610.189964 568.146355 
L 613.334918 579.781008 
L 616.479873 580.723562 
L 619.624827 568.514541 
L 622.769781 566.747252 
L 625.914736 563.845952 
L 629.05969 567.969627 
L 632.204645 559.03009 
L 635.349599 577.468805 
L 638.494553 578.514451 
L 641.639508 570.16401 
L 644.784462 565.775243 
L 647.929417 566.791434 
L 651.074371 565.84888 
L 654.219325 567.203801 
L 657.36428 577.424623 
L 660.509234 580.001919 
L 663.654189 571.047655 
L 666.799143 570.488013 
L 669.944097 569.678006 
L 673.089052 567.586714 
L 676.234006 568.69127 
L 679.378961 574.434959 
L 682.523915 576.997528 
L 685.668869 566.909253 
L 688.813824 571.666206 
L 691.958778 561.121382 
L 695.103733 567.130164 
L 698.248687 564.979963 
L 701.393641 575.024055 
L 704.538596 575.333331 
L 710.828505 560.988835 
L 713.973459 556.673705 
L 717.118413 560.767924 
L 720.263368 555.156781 
L 723.408322 569.177274 
L 726.553277 575.406968 
L 729.698231 562.167028 
L 732.843185 562.932853 
L 735.98814 557.424802 
L 739.133094 557.277528 
L 742.278049 552.064026 
L 745.423003 568.219992 
L 748.567957 571.430567 
L 751.712912 558.220082 
L 754.857866 562.505758 
L 758.00282 552.122935 
L 761.147775 549.619276 
L 764.292729 551.239291 
L 767.437684 555.421875 
L 770.582638 568.63236 
L 773.727592 550.120008 
L 776.872547 547.336528 
L 780.017501 529.221816 
L 783.162456 522.476663 
L 786.30741 519.457544 
L 789.452364 537.690076 
L 792.597319 552.653122 
L 795.742273 528.279262 
L 798.887228 513.40458 
L 802.032182 491.225103 
L 805.177136 480.974827 
L 808.322091 473.670033 
L 811.467045 506.703609 
L 814.612 525.289598 
L 817.756954 487.837799 
L 820.901908 477.130973 
L 824.046863 422.757383 
L 827.191817 423.420116 
L 830.336772 372.286555 
L 833.481726 424.392125 
L 836.62668 461.078099 
L 839.771635 420.960639 
L 842.916589 368.604703 
L 846.061544 341.948095 
L 849.206498 313.862927 
L 852.351452 308.295967 
L 855.496407 380.195173 
L 858.641361 410.828182 
L 861.786316 362.890469 
L 864.93127 335.468035 
L 868.076224 294.58475 
L 871.221179 272.258 
L 874.366133 244.379016 
L 877.511088 353.096743 
L 880.656042 392.183284 
L 883.800996 363.185017 
L 886.945951 316.720045 
L 890.090905 266.956133 
L 893.23586 242.272997 
L 896.380814 258.193325 
L 899.525768 339.400253 
L 902.670723 429.576173 
L 905.815677 376.631141 
L 908.960632 330.357625 
L 912.105586 256.013669 
L 915.25054 240.711892 
L 918.395495 250.785439 
L 921.540449 357.161507 
L 924.685404 428.987076 
L 927.830358 389.370349 
L 930.975312 314.569843 
L 934.120267 261.035715 
L 937.265221 253.112369 
L 940.410176 269.47452 
L 943.55513 373.803478 
L 946.700084 424.495217 
L 949.845039 388.633978 
L 952.989993 334.6433 
L 956.134948 264.305199 
L 959.279902 243.642646 
L 962.424856 245.571936 
L 968.714765 407.367241 
L 971.85972 382.006645 
L 975.004674 282.434639 
L 978.149628 240.255342 
L 981.294583 149.004321 
L 984.439537 170.167607 
L 987.584492 291.491995 
L 990.729446 348.015787 
L 993.8744 376.439684 
L 997.019355 180.624067 
L 1000.164309 192.47963 
L 1003.309264 91.537975 
L 1006.454218 128.017765 
L 1009.599172 253.627828 
L 1012.744127 343.877385 
L 1015.889081 301.388813 
L 1019.034036 224.629562 
L 1022.17899 114.836735 
L 1025.323944 212.950727 
L 1028.468899 376.100954 
L 1037.903762 34.896364 
L 1041.048716 258.22278 
L 1044.193671 109.57905 
L 1047.338625 251.374535 
L 1050.48358 402.094829 
L 1050.48358 402.094829 
" style="fill:none;stroke:#000000;stroke-dasharray:1.5,2.475;stroke-dashoffset:0;stroke-width:1.5;"/>
   </g>
   <g id="patch_7">
    <path d="M 30.103125 616.52 
L 30.103125 7.2 
" style="fill:none;stroke:#ffffff;stroke-linecap:square;stroke-linejoin:miter;"/>
   </g>
   <g id="patch_8">
    <path d="M 1099.073125 616.52 
L 1099.073125 7.2 
" style="fill:none;stroke:#ffffff;stroke-linecap:square;stroke-linejoin:miter;"/>
   </g>
   <g id="patch_9">
    <path d="M 30.103125 616.52 
L 1099.073125 616.52 
" style="fill:none;stroke:#ffffff;stroke-linecap:square;stroke-linejoin:miter;"/>
   </g>
   <g id="patch_10">
    <path d="M 30.103125 7.2 
L 1099.073125 7.2 
" style="fill:none;stroke:#ffffff;stroke-linecap:square;stroke-linejoin:miter;"/>
   </g>
   <g id="legend_1">
    <g id="patch_11">
     <path d="M 37.103125 103.26875 
L 194.298438 103.26875 
Q 196.298438 103.26875 196.298438 101.26875 
L 196.298438 14.2 
Q 196.298438 12.2 194.298438 12.2 
L 37.103125 12.2 
Q 35.103125 12.2 35.103125 14.2 
L 35.103125 101.26875 
Q 35.103125 103.26875 37.103125 103.26875 
z
" style="fill:#e5e5e5;opacity:0.8;stroke:#cccccc;stroke-linejoin:miter;stroke-width:0.5;"/>
    </g>
    <g id="line2d_62">
     <path d="M 39.103125 20.298437 
L 59.103125 20.298437 
" style="fill:none;stroke:#e24a33;stroke-linecap:square;stroke-width:1.5;"/>
    </g>
    <g id="line2d_63"/>
    <g id="text_28">
     <!-- Logistic rate rolling week -->
     <g transform="translate(67.103125 23.798437)scale(0.1 -0.1)">
      <defs>
       <path d="M 9.8125 72.90625 
L 19.671875 72.90625 
L 19.671875 8.296875 
L 55.171875 8.296875 
L 55.171875 0 
L 9.8125 0 
z
" id="DejaVuSans-76"/>
       <path d="M 30.609375 48.390625 
Q 23.390625 48.390625 19.1875 42.75 
Q 14.984375 37.109375 14.984375 27.296875 
Q 14.984375 17.484375 19.15625 11.84375 
Q 23.34375 6.203125 30.609375 6.203125 
Q 37.796875 6.203125 41.984375 11.859375 
Q 46.1875 17.53125 46.1875 27.296875 
Q 46.1875 37.015625 41.984375 42.703125 
Q 37.796875 48.390625 30.609375 48.390625 
z
M 30.609375 56 
Q 42.328125 56 49.015625 48.375 
Q 55.71875 40.765625 55.71875 27.296875 
Q 55.71875 13.875 49.015625 6.21875 
Q 42.328125 -1.421875 30.609375 -1.421875 
Q 18.84375 -1.421875 12.171875 6.21875 
Q 5.515625 13.875 5.515625 27.296875 
Q 5.515625 40.765625 12.171875 48.375 
Q 18.84375 56 30.609375 56 
z
" id="DejaVuSans-111"/>
       <path d="M 45.40625 27.984375 
Q 45.40625 37.75 41.375 43.109375 
Q 37.359375 48.484375 30.078125 48.484375 
Q 22.859375 48.484375 18.828125 43.109375 
Q 14.796875 37.75 14.796875 27.984375 
Q 14.796875 18.265625 18.828125 12.890625 
Q 22.859375 7.515625 30.078125 7.515625 
Q 37.359375 7.515625 41.375 12.890625 
Q 45.40625 18.265625 45.40625 27.984375 
z
M 54.390625 6.78125 
Q 54.390625 -7.171875 48.1875 -13.984375 
Q 42 -20.796875 29.203125 -20.796875 
Q 24.46875 -20.796875 20.265625 -20.09375 
Q 16.0625 -19.390625 12.109375 -17.921875 
L 12.109375 -9.1875 
Q 16.0625 -11.328125 19.921875 -12.34375 
Q 23.78125 -13.375 27.78125 -13.375 
Q 36.625 -13.375 41.015625 -8.765625 
Q 45.40625 -4.15625 45.40625 5.171875 
L 45.40625 9.625 
Q 42.625 4.78125 38.28125 2.390625 
Q 33.9375 0 27.875 0 
Q 17.828125 0 11.671875 7.65625 
Q 5.515625 15.328125 5.515625 27.984375 
Q 5.515625 40.671875 11.671875 48.328125 
Q 17.828125 56 27.875 56 
Q 33.9375 56 38.28125 53.609375 
Q 42.625 51.21875 45.40625 46.390625 
L 45.40625 54.6875 
L 54.390625 54.6875 
z
" id="DejaVuSans-103"/>
       <path d="M 9.421875 54.6875 
L 18.40625 54.6875 
L 18.40625 0 
L 9.421875 0 
z
M 9.421875 75.984375 
L 18.40625 75.984375 
L 18.40625 64.59375 
L 9.421875 64.59375 
z
" id="DejaVuSans-105"/>
       <path d="M 44.28125 53.078125 
L 44.28125 44.578125 
Q 40.484375 46.53125 36.375 47.5 
Q 32.28125 48.484375 27.875 48.484375 
Q 21.1875 48.484375 17.84375 46.4375 
Q 14.5 44.390625 14.5 40.28125 
Q 14.5 37.15625 16.890625 35.375 
Q 19.28125 33.59375 26.515625 31.984375 
L 29.59375 31.296875 
Q 39.15625 29.25 43.1875 25.515625 
Q 47.21875 21.78125 47.21875 15.09375 
Q 47.21875 7.46875 41.1875 3.015625 
Q 35.15625 -1.421875 24.609375 -1.421875 
Q 20.21875 -1.421875 15.453125 -0.5625 
Q 10.6875 0.296875 5.421875 2 
L 5.421875 11.28125 
Q 10.40625 8.6875 15.234375 7.390625 
Q 20.0625 6.109375 24.8125 6.109375 
Q 31.15625 6.109375 34.5625 8.28125 
Q 37.984375 10.453125 37.984375 14.40625 
Q 37.984375 18.0625 35.515625 20.015625 
Q 33.0625 21.96875 24.703125 23.78125 
L 21.578125 24.515625 
Q 13.234375 26.265625 9.515625 29.90625 
Q 5.8125 33.546875 5.8125 39.890625 
Q 5.8125 47.609375 11.28125 51.796875 
Q 16.75 56 26.8125 56 
Q 31.78125 56 36.171875 55.265625 
Q 40.578125 54.546875 44.28125 53.078125 
z
" id="DejaVuSans-115"/>
       <path d="M 18.3125 70.21875 
L 18.3125 54.6875 
L 36.8125 54.6875 
L 36.8125 47.703125 
L 18.3125 47.703125 
L 18.3125 18.015625 
Q 18.3125 11.328125 20.140625 9.421875 
Q 21.96875 7.515625 27.59375 7.515625 
L 36.8125 7.515625 
L 36.8125 0 
L 27.59375 0 
Q 17.1875 0 13.234375 3.875 
Q 9.28125 7.765625 9.28125 18.015625 
L 9.28125 47.703125 
L 2.6875 47.703125 
L 2.6875 54.6875 
L 9.28125 54.6875 
L 9.28125 70.21875 
z
" id="DejaVuSans-116"/>
       <path d="M 48.78125 52.59375 
L 48.78125 44.1875 
Q 44.96875 46.296875 41.140625 47.34375 
Q 37.3125 48.390625 33.40625 48.390625 
Q 24.65625 48.390625 19.8125 42.84375 
Q 14.984375 37.3125 14.984375 27.296875 
Q 14.984375 17.28125 19.8125 11.734375 
Q 24.65625 6.203125 33.40625 6.203125 
Q 37.3125 6.203125 41.140625 7.25 
Q 44.96875 8.296875 48.78125 10.40625 
L 48.78125 2.09375 
Q 45.015625 0.34375 40.984375 -0.53125 
Q 36.96875 -1.421875 32.421875 -1.421875 
Q 20.0625 -1.421875 12.78125 6.34375 
Q 5.515625 14.109375 5.515625 27.296875 
Q 5.515625 40.671875 12.859375 48.328125 
Q 20.21875 56 33.015625 56 
Q 37.15625 56 41.109375 55.140625 
Q 45.0625 54.296875 48.78125 52.59375 
z
" id="DejaVuSans-99"/>
       <path id="DejaVuSans-32"/>
       <path d="M 41.109375 46.296875 
Q 39.59375 47.171875 37.8125 47.578125 
Q 36.03125 48 33.890625 48 
Q 26.265625 48 22.1875 43.046875 
Q 18.109375 38.09375 18.109375 28.8125 
L 18.109375 0 
L 9.078125 0 
L 9.078125 54.6875 
L 18.109375 54.6875 
L 18.109375 46.1875 
Q 20.953125 51.171875 25.484375 53.578125 
Q 30.03125 56 36.53125 56 
Q 37.453125 56 38.578125 55.875 
Q 39.703125 55.765625 41.0625 55.515625 
z
" id="DejaVuSans-114"/>
       <path d="M 34.28125 27.484375 
Q 23.390625 27.484375 19.1875 25 
Q 14.984375 22.515625 14.984375 16.5 
Q 14.984375 11.71875 18.140625 8.90625 
Q 21.296875 6.109375 26.703125 6.109375 
Q 34.1875 6.109375 38.703125 11.40625 
Q 43.21875 16.703125 43.21875 25.484375 
L 43.21875 27.484375 
z
M 52.203125 31.203125 
L 52.203125 0 
L 43.21875 0 
L 43.21875 8.296875 
Q 40.140625 3.328125 35.546875 0.953125 
Q 30.953125 -1.421875 24.3125 -1.421875 
Q 15.921875 -1.421875 10.953125 3.296875 
Q 6 8.015625 6 15.921875 
Q 6 25.140625 12.171875 29.828125 
Q 18.359375 34.515625 30.609375 34.515625 
L 43.21875 34.515625 
L 43.21875 35.40625 
Q 43.21875 41.609375 39.140625 45 
Q 35.0625 48.390625 27.6875 48.390625 
Q 23 48.390625 18.546875 47.265625 
Q 14.109375 46.140625 10.015625 43.890625 
L 10.015625 52.203125 
Q 14.9375 54.109375 19.578125 55.046875 
Q 24.21875 56 28.609375 56 
Q 40.484375 56 46.34375 49.84375 
Q 52.203125 43.703125 52.203125 31.203125 
z
" id="DejaVuSans-97"/>
       <path d="M 56.203125 29.59375 
L 56.203125 25.203125 
L 14.890625 25.203125 
Q 15.484375 15.921875 20.484375 11.0625 
Q 25.484375 6.203125 34.421875 6.203125 
Q 39.59375 6.203125 44.453125 7.46875 
Q 49.3125 8.734375 54.109375 11.28125 
L 54.109375 2.78125 
Q 49.265625 0.734375 44.1875 -0.34375 
Q 39.109375 -1.421875 33.890625 -1.421875 
Q 20.796875 -1.421875 13.15625 6.1875 
Q 5.515625 13.8125 5.515625 26.8125 
Q 5.515625 40.234375 12.765625 48.109375 
Q 20.015625 56 32.328125 56 
Q 43.359375 56 49.78125 48.890625 
Q 56.203125 41.796875 56.203125 29.59375 
z
M 47.21875 32.234375 
Q 47.125 39.59375 43.09375 43.984375 
Q 39.0625 48.390625 32.421875 48.390625 
Q 24.90625 48.390625 20.390625 44.140625 
Q 15.875 39.890625 15.1875 32.171875 
z
" id="DejaVuSans-101"/>
       <path d="M 9.421875 75.984375 
L 18.40625 75.984375 
L 18.40625 0 
L 9.421875 0 
z
" id="DejaVuSans-108"/>
       <path d="M 54.890625 33.015625 
L 54.890625 0 
L 45.90625 0 
L 45.90625 32.71875 
Q 45.90625 40.484375 42.875 44.328125 
Q 39.84375 48.1875 33.796875 48.1875 
Q 26.515625 48.1875 22.3125 43.546875 
Q 18.109375 38.921875 18.109375 30.90625 
L 18.109375 0 
L 9.078125 0 
L 9.078125 54.6875 
L 18.109375 54.6875 
L 18.109375 46.1875 
Q 21.34375 51.125 25.703125 53.5625 
Q 30.078125 56 35.796875 56 
Q 45.21875 56 50.046875 50.171875 
Q 54.890625 44.34375 54.890625 33.015625 
z
" id="DejaVuSans-110"/>
       <path d="M 4.203125 54.6875 
L 13.1875 54.6875 
L 24.421875 12.015625 
L 35.59375 54.6875 
L 46.1875 54.6875 
L 57.421875 12.015625 
L 68.609375 54.6875 
L 77.59375 54.6875 
L 63.28125 0 
L 52.6875 0 
L 40.921875 44.828125 
L 29.109375 0 
L 18.5 0 
z
" id="DejaVuSans-119"/>
       <path d="M 9.078125 75.984375 
L 18.109375 75.984375 
L 18.109375 31.109375 
L 44.921875 54.6875 
L 56.390625 54.6875 
L 27.390625 29.109375 
L 57.625 0 
L 45.90625 0 
L 18.109375 26.703125 
L 18.109375 0 
L 9.078125 0 
z
" id="DejaVuSans-107"/>
      </defs>
      <use xlink:href="#DejaVuSans-76"/>
      <use x="53.962891" xlink:href="#DejaVuSans-111"/>
      <use x="115.144531" xlink:href="#DejaVuSans-103"/>
      <use x="178.621094" xlink:href="#DejaVuSans-105"/>
      <use x="206.404297" xlink:href="#DejaVuSans-115"/>
      <use x="258.503906" xlink:href="#DejaVuSans-116"/>
      <use x="297.712891" xlink:href="#DejaVuSans-105"/>
      <use x="325.496094" xlink:href="#DejaVuSans-99"/>
      <use x="380.476562" xlink:href="#DejaVuSans-32"/>
      <use x="412.263672" xlink:href="#DejaVuSans-114"/>
      <use x="453.376953" xlink:href="#DejaVuSans-97"/>
      <use x="514.65625" xlink:href="#DejaVuSans-116"/>
      <use x="553.865234" xlink:href="#DejaVuSans-101"/>
      <use x="615.388672" xlink:href="#DejaVuSans-32"/>
      <use x="647.175781" xlink:href="#DejaVuSans-114"/>
      <use x="686.039062" xlink:href="#DejaVuSans-111"/>
      <use x="747.220703" xlink:href="#DejaVuSans-108"/>
      <use x="775.003906" xlink:href="#DejaVuSans-108"/>
      <use x="802.787109" xlink:href="#DejaVuSans-105"/>
      <use x="830.570312" xlink:href="#DejaVuSans-110"/>
      <use x="893.949219" xlink:href="#DejaVuSans-103"/>
      <use x="957.425781" xlink:href="#DejaVuSans-32"/>
      <use x="989.212891" xlink:href="#DejaVuSans-119"/>
      <use x="1071" xlink:href="#DejaVuSans-101"/>
      <use x="1132.523438" xlink:href="#DejaVuSans-101"/>
      <use x="1194.046875" xlink:href="#DejaVuSans-107"/>
     </g>
    </g>
    <g id="line2d_64">
     <path d="M 39.103125 34.976562 
L 59.103125 34.976562 
" style="fill:none;stroke:#e24a33;stroke-dasharray:1.5,2.475;stroke-dashoffset:0;stroke-width:1.5;"/>
    </g>
    <g id="line2d_65"/>
    <g id="text_29">
     <!-- Logistic rate -->
     <g transform="translate(67.103125 38.476562)scale(0.1 -0.1)">
      <use xlink:href="#DejaVuSans-76"/>
      <use x="53.962891" xlink:href="#DejaVuSans-111"/>
      <use x="115.144531" xlink:href="#DejaVuSans-103"/>
      <use x="178.621094" xlink:href="#DejaVuSans-105"/>
      <use x="206.404297" xlink:href="#DejaVuSans-115"/>
      <use x="258.503906" xlink:href="#DejaVuSans-116"/>
      <use x="297.712891" xlink:href="#DejaVuSans-105"/>
      <use x="325.496094" xlink:href="#DejaVuSans-99"/>
      <use x="380.476562" xlink:href="#DejaVuSans-32"/>
      <use x="412.263672" xlink:href="#DejaVuSans-114"/>
      <use x="453.376953" xlink:href="#DejaVuSans-97"/>
      <use x="514.65625" xlink:href="#DejaVuSans-116"/>
      <use x="553.865234" xlink:href="#DejaVuSans-101"/>
     </g>
    </g>
    <g id="line2d_66">
     <path d="M 39.103125 49.654687 
L 59.103125 49.654687 
" style="fill:none;stroke:#348abd;stroke-linecap:square;stroke-width:1.5;"/>
    </g>
    <g id="line2d_67"/>
    <g id="text_30">
     <!-- RKI rate rolling week -->
     <g transform="translate(67.103125 53.154687)scale(0.1 -0.1)">
      <defs>
       <path d="M 44.390625 34.1875 
Q 47.5625 33.109375 50.5625 29.59375 
Q 53.5625 26.078125 56.59375 19.921875 
L 66.609375 0 
L 56 0 
L 46.6875 18.703125 
Q 43.0625 26.03125 39.671875 28.421875 
Q 36.28125 30.8125 30.421875 30.8125 
L 19.671875 30.8125 
L 19.671875 0 
L 9.8125 0 
L 9.8125 72.90625 
L 32.078125 72.90625 
Q 44.578125 72.90625 50.734375 67.671875 
Q 56.890625 62.453125 56.890625 51.90625 
Q 56.890625 45.015625 53.6875 40.46875 
Q 50.484375 35.9375 44.390625 34.1875 
z
M 19.671875 64.796875 
L 19.671875 38.921875 
L 32.078125 38.921875 
Q 39.203125 38.921875 42.84375 42.21875 
Q 46.484375 45.515625 46.484375 51.90625 
Q 46.484375 58.296875 42.84375 61.546875 
Q 39.203125 64.796875 32.078125 64.796875 
z
" id="DejaVuSans-82"/>
       <path d="M 9.8125 72.90625 
L 19.671875 72.90625 
L 19.671875 42.09375 
L 52.390625 72.90625 
L 65.09375 72.90625 
L 28.90625 38.921875 
L 67.671875 0 
L 54.6875 0 
L 19.671875 35.109375 
L 19.671875 0 
L 9.8125 0 
z
" id="DejaVuSans-75"/>
       <path d="M 9.8125 72.90625 
L 19.671875 72.90625 
L 19.671875 0 
L 9.8125 0 
z
" id="DejaVuSans-73"/>
      </defs>
      <use xlink:href="#DejaVuSans-82"/>
      <use x="69.482422" xlink:href="#DejaVuSans-75"/>
      <use x="135.058594" xlink:href="#DejaVuSans-73"/>
      <use x="164.550781" xlink:href="#DejaVuSans-32"/>
      <use x="196.337891" xlink:href="#DejaVuSans-114"/>
      <use x="237.451172" xlink:href="#DejaVuSans-97"/>
      <use x="298.730469" xlink:href="#DejaVuSans-116"/>
      <use x="337.939453" xlink:href="#DejaVuSans-101"/>
      <use x="399.462891" xlink:href="#DejaVuSans-32"/>
      <use x="431.25" xlink:href="#DejaVuSans-114"/>
      <use x="470.113281" xlink:href="#DejaVuSans-111"/>
      <use x="531.294922" xlink:href="#DejaVuSans-108"/>
      <use x="559.078125" xlink:href="#DejaVuSans-108"/>
      <use x="586.861328" xlink:href="#DejaVuSans-105"/>
      <use x="614.644531" xlink:href="#DejaVuSans-110"/>
      <use x="678.023438" xlink:href="#DejaVuSans-103"/>
      <use x="741.5" xlink:href="#DejaVuSans-32"/>
      <use x="773.287109" xlink:href="#DejaVuSans-119"/>
      <use x="855.074219" xlink:href="#DejaVuSans-101"/>
      <use x="916.597656" xlink:href="#DejaVuSans-101"/>
      <use x="978.121094" xlink:href="#DejaVuSans-107"/>
     </g>
    </g>
    <g id="line2d_68">
     <path d="M 39.103125 64.332812 
L 59.103125 64.332812 
" style="fill:none;stroke:#348abd;stroke-dasharray:1.5,2.475;stroke-dashoffset:0;stroke-width:1.5;"/>
    </g>
    <g id="line2d_69"/>
    <g id="text_31">
     <!-- RKI rate -->
     <g transform="translate(67.103125 67.832812)scale(0.1 -0.1)">
      <use xlink:href="#DejaVuSans-82"/>
      <use x="69.482422" xlink:href="#DejaVuSans-75"/>
      <use x="135.058594" xlink:href="#DejaVuSans-73"/>
      <use x="164.550781" xlink:href="#DejaVuSans-32"/>
      <use x="196.337891" xlink:href="#DejaVuSans-114"/>
      <use x="237.451172" xlink:href="#DejaVuSans-97"/>
      <use x="298.730469" xlink:href="#DejaVuSans-116"/>
      <use x="337.939453" xlink:href="#DejaVuSans-101"/>
     </g>
    </g>
    <g id="line2d_70">
     <path d="M 39.103125 79.010937 
L 59.103125 79.010937 
" style="fill:none;stroke:#000000;stroke-linecap:square;stroke-width:1.5;"/>
    </g>
    <g id="line2d_71"/>
    <g id="text_32">
     <!-- New Cases rolling week -->
     <g transform="translate(67.103125 82.510937)scale(0.1 -0.1)">
      <defs>
       <path d="M 9.8125 72.90625 
L 23.09375 72.90625 
L 55.421875 11.921875 
L 55.421875 72.90625 
L 64.984375 72.90625 
L 64.984375 0 
L 51.703125 0 
L 19.390625 60.984375 
L 19.390625 0 
L 9.8125 0 
z
" id="DejaVuSans-78"/>
       <path d="M 64.40625 67.28125 
L 64.40625 56.890625 
Q 59.421875 61.53125 53.78125 63.8125 
Q 48.140625 66.109375 41.796875 66.109375 
Q 29.296875 66.109375 22.65625 58.46875 
Q 16.015625 50.828125 16.015625 36.375 
Q 16.015625 21.96875 22.65625 14.328125 
Q 29.296875 6.6875 41.796875 6.6875 
Q 48.140625 6.6875 53.78125 8.984375 
Q 59.421875 11.28125 64.40625 15.921875 
L 64.40625 5.609375 
Q 59.234375 2.09375 53.4375 0.328125 
Q 47.65625 -1.421875 41.21875 -1.421875 
Q 24.65625 -1.421875 15.125 8.703125 
Q 5.609375 18.84375 5.609375 36.375 
Q 5.609375 53.953125 15.125 64.078125 
Q 24.65625 74.21875 41.21875 74.21875 
Q 47.75 74.21875 53.53125 72.484375 
Q 59.328125 70.75 64.40625 67.28125 
z
" id="DejaVuSans-67"/>
      </defs>
      <use xlink:href="#DejaVuSans-78"/>
      <use x="74.804688" xlink:href="#DejaVuSans-101"/>
      <use x="136.328125" xlink:href="#DejaVuSans-119"/>
      <use x="218.115234" xlink:href="#DejaVuSans-32"/>
      <use x="249.902344" xlink:href="#DejaVuSans-67"/>
      <use x="319.726562" xlink:href="#DejaVuSans-97"/>
      <use x="381.005859" xlink:href="#DejaVuSans-115"/>
      <use x="433.105469" xlink:href="#DejaVuSans-101"/>
      <use x="494.628906" xlink:href="#DejaVuSans-115"/>
      <use x="546.728516" xlink:href="#DejaVuSans-32"/>
      <use x="578.515625" xlink:href="#DejaVuSans-114"/>
      <use x="617.378906" xlink:href="#DejaVuSans-111"/>
      <use x="678.560547" xlink:href="#DejaVuSans-108"/>
      <use x="706.34375" xlink:href="#DejaVuSans-108"/>
      <use x="734.126953" xlink:href="#DejaVuSans-105"/>
      <use x="761.910156" xlink:href="#DejaVuSans-110"/>
      <use x="825.289062" xlink:href="#DejaVuSans-103"/>
      <use x="888.765625" xlink:href="#DejaVuSans-32"/>
      <use x="920.552734" xlink:href="#DejaVuSans-119"/>
      <use x="1002.339844" xlink:href="#DejaVuSans-101"/>
      <use x="1063.863281" xlink:href="#DejaVuSans-101"/>
      <use x="1125.386719" xlink:href="#DejaVuSans-107"/>
     </g>
    </g>
    <g id="line2d_72">
     <path d="M 39.103125 93.689062 
L 59.103125 93.689062 
" style="fill:none;stroke:#000000;stroke-dasharray:1.5,2.475;stroke-dashoffset:0;stroke-width:1.5;"/>
    </g>
    <g id="line2d_73"/>
    <g id="text_33">
     <!-- New Cases -->
     <g transform="translate(67.103125 97.189062)scale(0.1 -0.1)">
      <use xlink:href="#DejaVuSans-78"/>
      <use x="74.804688" xlink:href="#DejaVuSans-101"/>
      <use x="136.328125" xlink:href="#DejaVuSans-119"/>
      <use x="218.115234" xlink:href="#DejaVuSans-32"/>
      <use x="249.902344" xlink:href="#DejaVuSans-67"/>
      <use x="319.726562" xlink:href="#DejaVuSans-97"/>
      <use x="381.005859" xlink:href="#DejaVuSans-115"/>
      <use x="433.105469" xlink:href="#DejaVuSans-101"/>
      <use x="494.628906" xlink:href="#DejaVuSans-115"/>
     </g>
    </g>
   </g>
  </g>
 </g>
 <defs>
  <clipPath id="p7cf1342f94">
   <rect height="609.32" width="1068.97" x="30.103125" y="7.2"/>
  </clipPath>
 </defs>
</svg>
