<?xml version="1.0" encoding="utf-8" standalone="no"?>
<!DOCTYPE svg PUBLIC "-//W3C//DTD SVG 1.1//EN"
  "http://www.w3.org/Graphics/SVG/1.1/DTD/svg11.dtd">
<!-- Created with matplotlib (https://matplotlib.org/) -->
<svg height="640.398125pt" version="1.1" viewBox="0 0 1145.085625 640.398125" width="1145.085625pt" xmlns="http://www.w3.org/2000/svg" xmlns:xlink="http://www.w3.org/1999/xlink">
 <metadata>
  <rdf:RDF xmlns:cc="http://creativecommons.org/ns#" xmlns:dc="http://purl.org/dc/elements/1.1/" xmlns:rdf="http://www.w3.org/1999/02/22-rdf-syntax-ns#">
   <cc:Work>
    <dc:type rdf:resource="http://purl.org/dc/dcmitype/StillImage"/>
    <dc:date>2020-11-11T15:51:55.546379</dc:date>
    <dc:format>image/svg+xml</dc:format>
    <dc:creator>
     <cc:Agent>
      <dc:title>Matplotlib v3.3.2, https://matplotlib.org/</dc:title>
     </cc:Agent>
    </dc:creator>
   </cc:Work>
  </rdf:RDF>
 </metadata>
 <defs>
  <style type="text/css">*{stroke-linecap:butt;stroke-linejoin:round;}</style>
 </defs>
 <g id="figure_1">
  <g id="patch_1">
   <path d="M 0 640.398125 
L 1145.085625 640.398125 
L 1145.085625 0 
L 0 0 
z
" style="fill:#ffffff;"/>
  </g>
  <g id="axes_1">
   <g id="patch_2">
    <path d="M 30.103125 616.52 
L 1099.073125 616.52 
L 1099.073125 7.2 
L 30.103125 7.2 
z
" style="fill:#e5e5e5;"/>
   </g>
   <g id="matplotlib.axis_1">
    <g id="xtick_1">
     <g id="line2d_1">
      <path clip-path="url(#p7c99f0909c)" d="M 86.255246 616.52 
L 86.255246 7.2 
" style="fill:none;stroke:#ffffff;stroke-linecap:square;stroke-width:0.8;"/>
     </g>
     <g id="line2d_2">
      <defs>
       <path d="M 0 0 
L 0 3.5 
" id="m639868a7f6" style="stroke:#555555;stroke-width:0.8;"/>
      </defs>
      <g>
       <use style="fill:#555555;stroke:#555555;stroke-width:0.8;" x="86.255246" xlink:href="#m639868a7f6" y="616.52"/>
      </g>
     </g>
     <g id="text_1">
      <!-- 2020-03 -->
      <g style="fill:#555555;" transform="translate(65.363839 631.118437)scale(0.1 -0.1)">
       <defs>
        <path d="M 19.1875 8.296875 
L 53.609375 8.296875 
L 53.609375 0 
L 7.328125 0 
L 7.328125 8.296875 
Q 12.9375 14.109375 22.625 23.890625 
Q 32.328125 33.6875 34.8125 36.53125 
Q 39.546875 41.84375 41.421875 45.53125 
Q 43.3125 49.21875 43.3125 52.78125 
Q 43.3125 58.59375 39.234375 62.25 
Q 35.15625 65.921875 28.609375 65.921875 
Q 23.96875 65.921875 18.8125 64.3125 
Q 13.671875 62.703125 7.8125 59.421875 
L 7.8125 69.390625 
Q 13.765625 71.78125 18.9375 73 
Q 24.125 74.21875 28.421875 74.21875 
Q 39.75 74.21875 46.484375 68.546875 
Q 53.21875 62.890625 53.21875 53.421875 
Q 53.21875 48.921875 51.53125 44.890625 
Q 49.859375 40.875 45.40625 35.40625 
Q 44.1875 33.984375 37.640625 27.21875 
Q 31.109375 20.453125 19.1875 8.296875 
z
" id="DejaVuSans-50"/>
        <path d="M 31.78125 66.40625 
Q 24.171875 66.40625 20.328125 58.90625 
Q 16.5 51.421875 16.5 36.375 
Q 16.5 21.390625 20.328125 13.890625 
Q 24.171875 6.390625 31.78125 6.390625 
Q 39.453125 6.390625 43.28125 13.890625 
Q 47.125 21.390625 47.125 36.375 
Q 47.125 51.421875 43.28125 58.90625 
Q 39.453125 66.40625 31.78125 66.40625 
z
M 31.78125 74.21875 
Q 44.046875 74.21875 50.515625 64.515625 
Q 56.984375 54.828125 56.984375 36.375 
Q 56.984375 17.96875 50.515625 8.265625 
Q 44.046875 -1.421875 31.78125 -1.421875 
Q 19.53125 -1.421875 13.0625 8.265625 
Q 6.59375 17.96875 6.59375 36.375 
Q 6.59375 54.828125 13.0625 64.515625 
Q 19.53125 74.21875 31.78125 74.21875 
z
" id="DejaVuSans-48"/>
        <path d="M 4.890625 31.390625 
L 31.203125 31.390625 
L 31.203125 23.390625 
L 4.890625 23.390625 
z
" id="DejaVuSans-45"/>
        <path d="M 40.578125 39.3125 
Q 47.65625 37.796875 51.625 33 
Q 55.609375 28.21875 55.609375 21.1875 
Q 55.609375 10.40625 48.1875 4.484375 
Q 40.765625 -1.421875 27.09375 -1.421875 
Q 22.515625 -1.421875 17.65625 -0.515625 
Q 12.796875 0.390625 7.625 2.203125 
L 7.625 11.71875 
Q 11.71875 9.328125 16.59375 8.109375 
Q 21.484375 6.890625 26.8125 6.890625 
Q 36.078125 6.890625 40.9375 10.546875 
Q 45.796875 14.203125 45.796875 21.1875 
Q 45.796875 27.640625 41.28125 31.265625 
Q 36.765625 34.90625 28.71875 34.90625 
L 20.21875 34.90625 
L 20.21875 43.015625 
L 29.109375 43.015625 
Q 36.375 43.015625 40.234375 45.921875 
Q 44.09375 48.828125 44.09375 54.296875 
Q 44.09375 59.90625 40.109375 62.90625 
Q 36.140625 65.921875 28.71875 65.921875 
Q 24.65625 65.921875 20.015625 65.03125 
Q 15.375 64.15625 9.8125 62.3125 
L 9.8125 71.09375 
Q 15.4375 72.65625 20.34375 73.4375 
Q 25.25 74.21875 29.59375 74.21875 
Q 40.828125 74.21875 47.359375 69.109375 
Q 53.90625 64.015625 53.90625 55.328125 
Q 53.90625 49.265625 50.4375 45.09375 
Q 46.96875 40.921875 40.578125 39.3125 
z
" id="DejaVuSans-51"/>
       </defs>
       <use xlink:href="#DejaVuSans-50"/>
       <use x="63.623047" xlink:href="#DejaVuSans-48"/>
       <use x="127.246094" xlink:href="#DejaVuSans-50"/>
       <use x="190.869141" xlink:href="#DejaVuSans-48"/>
       <use x="254.492188" xlink:href="#DejaVuSans-45"/>
       <use x="290.576172" xlink:href="#DejaVuSans-48"/>
       <use x="354.199219" xlink:href="#DejaVuSans-51"/>
      </g>
     </g>
    </g>
    <g id="xtick_2">
     <g id="line2d_3">
      <path clip-path="url(#p7c99f0909c)" d="M 203.475161 616.52 
L 203.475161 7.2 
" style="fill:none;stroke:#ffffff;stroke-linecap:square;stroke-width:0.8;"/>
     </g>
     <g id="line2d_4">
      <g>
       <use style="fill:#555555;stroke:#555555;stroke-width:0.8;" x="203.475161" xlink:href="#m639868a7f6" y="616.52"/>
      </g>
     </g>
     <g id="text_2">
      <!-- 2020-04 -->
      <g style="fill:#555555;" transform="translate(182.583754 631.118437)scale(0.1 -0.1)">
       <defs>
        <path d="M 37.796875 64.3125 
L 12.890625 25.390625 
L 37.796875 25.390625 
z
M 35.203125 72.90625 
L 47.609375 72.90625 
L 47.609375 25.390625 
L 58.015625 25.390625 
L 58.015625 17.1875 
L 47.609375 17.1875 
L 47.609375 0 
L 37.796875 0 
L 37.796875 17.1875 
L 4.890625 17.1875 
L 4.890625 26.703125 
z
" id="DejaVuSans-52"/>
       </defs>
       <use xlink:href="#DejaVuSans-50"/>
       <use x="63.623047" xlink:href="#DejaVuSans-48"/>
       <use x="127.246094" xlink:href="#DejaVuSans-50"/>
       <use x="190.869141" xlink:href="#DejaVuSans-48"/>
       <use x="254.492188" xlink:href="#DejaVuSans-45"/>
       <use x="290.576172" xlink:href="#DejaVuSans-48"/>
       <use x="354.199219" xlink:href="#DejaVuSans-52"/>
      </g>
     </g>
    </g>
    <g id="xtick_3">
     <g id="line2d_5">
      <path clip-path="url(#p7c99f0909c)" d="M 316.913788 616.52 
L 316.913788 7.2 
" style="fill:none;stroke:#ffffff;stroke-linecap:square;stroke-width:0.8;"/>
     </g>
     <g id="line2d_6">
      <g>
       <use style="fill:#555555;stroke:#555555;stroke-width:0.8;" x="316.913788" xlink:href="#m639868a7f6" y="616.52"/>
      </g>
     </g>
     <g id="text_3">
      <!-- 2020-05 -->
      <g style="fill:#555555;" transform="translate(296.022382 631.118437)scale(0.1 -0.1)">
       <defs>
        <path d="M 10.796875 72.90625 
L 49.515625 72.90625 
L 49.515625 64.59375 
L 19.828125 64.59375 
L 19.828125 46.734375 
Q 21.96875 47.46875 24.109375 47.828125 
Q 26.265625 48.1875 28.421875 48.1875 
Q 40.625 48.1875 47.75 41.5 
Q 54.890625 34.8125 54.890625 23.390625 
Q 54.890625 11.625 47.5625 5.09375 
Q 40.234375 -1.421875 26.90625 -1.421875 
Q 22.3125 -1.421875 17.546875 -0.640625 
Q 12.796875 0.140625 7.71875 1.703125 
L 7.71875 11.625 
Q 12.109375 9.234375 16.796875 8.0625 
Q 21.484375 6.890625 26.703125 6.890625 
Q 35.15625 6.890625 40.078125 11.328125 
Q 45.015625 15.765625 45.015625 23.390625 
Q 45.015625 31 40.078125 35.4375 
Q 35.15625 39.890625 26.703125 39.890625 
Q 22.75 39.890625 18.8125 39.015625 
Q 14.890625 38.140625 10.796875 36.28125 
z
" id="DejaVuSans-53"/>
       </defs>
       <use xlink:href="#DejaVuSans-50"/>
       <use x="63.623047" xlink:href="#DejaVuSans-48"/>
       <use x="127.246094" xlink:href="#DejaVuSans-50"/>
       <use x="190.869141" xlink:href="#DejaVuSans-48"/>
       <use x="254.492188" xlink:href="#DejaVuSans-45"/>
       <use x="290.576172" xlink:href="#DejaVuSans-48"/>
       <use x="354.199219" xlink:href="#DejaVuSans-53"/>
      </g>
     </g>
    </g>
    <g id="xtick_4">
     <g id="line2d_7">
      <path clip-path="url(#p7c99f0909c)" d="M 434.133703 616.52 
L 434.133703 7.2 
" style="fill:none;stroke:#ffffff;stroke-linecap:square;stroke-width:0.8;"/>
     </g>
     <g id="line2d_8">
      <g>
       <use style="fill:#555555;stroke:#555555;stroke-width:0.8;" x="434.133703" xlink:href="#m639868a7f6" y="616.52"/>
      </g>
     </g>
     <g id="text_4">
      <!-- 2020-06 -->
      <g style="fill:#555555;" transform="translate(413.242297 631.118437)scale(0.1 -0.1)">
       <defs>
        <path d="M 33.015625 40.375 
Q 26.375 40.375 22.484375 35.828125 
Q 18.609375 31.296875 18.609375 23.390625 
Q 18.609375 15.53125 22.484375 10.953125 
Q 26.375 6.390625 33.015625 6.390625 
Q 39.65625 6.390625 43.53125 10.953125 
Q 47.40625 15.53125 47.40625 23.390625 
Q 47.40625 31.296875 43.53125 35.828125 
Q 39.65625 40.375 33.015625 40.375 
z
M 52.59375 71.296875 
L 52.59375 62.3125 
Q 48.875 64.0625 45.09375 64.984375 
Q 41.3125 65.921875 37.59375 65.921875 
Q 27.828125 65.921875 22.671875 59.328125 
Q 17.53125 52.734375 16.796875 39.40625 
Q 19.671875 43.65625 24.015625 45.921875 
Q 28.375 48.1875 33.59375 48.1875 
Q 44.578125 48.1875 50.953125 41.515625 
Q 57.328125 34.859375 57.328125 23.390625 
Q 57.328125 12.15625 50.6875 5.359375 
Q 44.046875 -1.421875 33.015625 -1.421875 
Q 20.359375 -1.421875 13.671875 8.265625 
Q 6.984375 17.96875 6.984375 36.375 
Q 6.984375 53.65625 15.1875 63.9375 
Q 23.390625 74.21875 37.203125 74.21875 
Q 40.921875 74.21875 44.703125 73.484375 
Q 48.484375 72.75 52.59375 71.296875 
z
" id="DejaVuSans-54"/>
       </defs>
       <use xlink:href="#DejaVuSans-50"/>
       <use x="63.623047" xlink:href="#DejaVuSans-48"/>
       <use x="127.246094" xlink:href="#DejaVuSans-50"/>
       <use x="190.869141" xlink:href="#DejaVuSans-48"/>
       <use x="254.492188" xlink:href="#DejaVuSans-45"/>
       <use x="290.576172" xlink:href="#DejaVuSans-48"/>
       <use x="354.199219" xlink:href="#DejaVuSans-54"/>
      </g>
     </g>
    </g>
    <g id="xtick_5">
     <g id="line2d_9">
      <path clip-path="url(#p7c99f0909c)" d="M 547.572331 616.52 
L 547.572331 7.2 
" style="fill:none;stroke:#ffffff;stroke-linecap:square;stroke-width:0.8;"/>
     </g>
     <g id="line2d_10">
      <g>
       <use style="fill:#555555;stroke:#555555;stroke-width:0.8;" x="547.572331" xlink:href="#m639868a7f6" y="616.52"/>
      </g>
     </g>
     <g id="text_5">
      <!-- 2020-07 -->
      <g style="fill:#555555;" transform="translate(526.680925 631.118437)scale(0.1 -0.1)">
       <defs>
        <path d="M 8.203125 72.90625 
L 55.078125 72.90625 
L 55.078125 68.703125 
L 28.609375 0 
L 18.3125 0 
L 43.21875 64.59375 
L 8.203125 64.59375 
z
" id="DejaVuSans-55"/>
       </defs>
       <use xlink:href="#DejaVuSans-50"/>
       <use x="63.623047" xlink:href="#DejaVuSans-48"/>
       <use x="127.246094" xlink:href="#DejaVuSans-50"/>
       <use x="190.869141" xlink:href="#DejaVuSans-48"/>
       <use x="254.492188" xlink:href="#DejaVuSans-45"/>
       <use x="290.576172" xlink:href="#DejaVuSans-48"/>
       <use x="354.199219" xlink:href="#DejaVuSans-55"/>
      </g>
     </g>
    </g>
    <g id="xtick_6">
     <g id="line2d_11">
      <path clip-path="url(#p7c99f0909c)" d="M 664.792246 616.52 
L 664.792246 7.2 
" style="fill:none;stroke:#ffffff;stroke-linecap:square;stroke-width:0.8;"/>
     </g>
     <g id="line2d_12">
      <g>
       <use style="fill:#555555;stroke:#555555;stroke-width:0.8;" x="664.792246" xlink:href="#m639868a7f6" y="616.52"/>
      </g>
     </g>
     <g id="text_6">
      <!-- 2020-08 -->
      <g style="fill:#555555;" transform="translate(643.90084 631.118437)scale(0.1 -0.1)">
       <defs>
        <path d="M 31.78125 34.625 
Q 24.75 34.625 20.71875 30.859375 
Q 16.703125 27.09375 16.703125 20.515625 
Q 16.703125 13.921875 20.71875 10.15625 
Q 24.75 6.390625 31.78125 6.390625 
Q 38.8125 6.390625 42.859375 10.171875 
Q 46.921875 13.96875 46.921875 20.515625 
Q 46.921875 27.09375 42.890625 30.859375 
Q 38.875 34.625 31.78125 34.625 
z
M 21.921875 38.8125 
Q 15.578125 40.375 12.03125 44.71875 
Q 8.5 49.078125 8.5 55.328125 
Q 8.5 64.0625 14.71875 69.140625 
Q 20.953125 74.21875 31.78125 74.21875 
Q 42.671875 74.21875 48.875 69.140625 
Q 55.078125 64.0625 55.078125 55.328125 
Q 55.078125 49.078125 51.53125 44.71875 
Q 48 40.375 41.703125 38.8125 
Q 48.828125 37.15625 52.796875 32.3125 
Q 56.78125 27.484375 56.78125 20.515625 
Q 56.78125 9.90625 50.3125 4.234375 
Q 43.84375 -1.421875 31.78125 -1.421875 
Q 19.734375 -1.421875 13.25 4.234375 
Q 6.78125 9.90625 6.78125 20.515625 
Q 6.78125 27.484375 10.78125 32.3125 
Q 14.796875 37.15625 21.921875 38.8125 
z
M 18.3125 54.390625 
Q 18.3125 48.734375 21.84375 45.5625 
Q 25.390625 42.390625 31.78125 42.390625 
Q 38.140625 42.390625 41.71875 45.5625 
Q 45.3125 48.734375 45.3125 54.390625 
Q 45.3125 60.0625 41.71875 63.234375 
Q 38.140625 66.40625 31.78125 66.40625 
Q 25.390625 66.40625 21.84375 63.234375 
Q 18.3125 60.0625 18.3125 54.390625 
z
" id="DejaVuSans-56"/>
       </defs>
       <use xlink:href="#DejaVuSans-50"/>
       <use x="63.623047" xlink:href="#DejaVuSans-48"/>
       <use x="127.246094" xlink:href="#DejaVuSans-50"/>
       <use x="190.869141" xlink:href="#DejaVuSans-48"/>
       <use x="254.492188" xlink:href="#DejaVuSans-45"/>
       <use x="290.576172" xlink:href="#DejaVuSans-48"/>
       <use x="354.199219" xlink:href="#DejaVuSans-56"/>
      </g>
     </g>
    </g>
    <g id="xtick_7">
     <g id="line2d_13">
      <path clip-path="url(#p7c99f0909c)" d="M 782.012161 616.52 
L 782.012161 7.2 
" style="fill:none;stroke:#ffffff;stroke-linecap:square;stroke-width:0.8;"/>
     </g>
     <g id="line2d_14">
      <g>
       <use style="fill:#555555;stroke:#555555;stroke-width:0.8;" x="782.012161" xlink:href="#m639868a7f6" y="616.52"/>
      </g>
     </g>
     <g id="text_7">
      <!-- 2020-09 -->
      <g style="fill:#555555;" transform="translate(761.120755 631.118437)scale(0.1 -0.1)">
       <defs>
        <path d="M 10.984375 1.515625 
L 10.984375 10.5 
Q 14.703125 8.734375 18.5 7.8125 
Q 22.3125 6.890625 25.984375 6.890625 
Q 35.75 6.890625 40.890625 13.453125 
Q 46.046875 20.015625 46.78125 33.40625 
Q 43.953125 29.203125 39.59375 26.953125 
Q 35.25 24.703125 29.984375 24.703125 
Q 19.046875 24.703125 12.671875 31.3125 
Q 6.296875 37.9375 6.296875 49.421875 
Q 6.296875 60.640625 12.9375 67.421875 
Q 19.578125 74.21875 30.609375 74.21875 
Q 43.265625 74.21875 49.921875 64.515625 
Q 56.59375 54.828125 56.59375 36.375 
Q 56.59375 19.140625 48.40625 8.859375 
Q 40.234375 -1.421875 26.421875 -1.421875 
Q 22.703125 -1.421875 18.890625 -0.6875 
Q 15.09375 0.046875 10.984375 1.515625 
z
M 30.609375 32.421875 
Q 37.25 32.421875 41.125 36.953125 
Q 45.015625 41.5 45.015625 49.421875 
Q 45.015625 57.28125 41.125 61.84375 
Q 37.25 66.40625 30.609375 66.40625 
Q 23.96875 66.40625 20.09375 61.84375 
Q 16.21875 57.28125 16.21875 49.421875 
Q 16.21875 41.5 20.09375 36.953125 
Q 23.96875 32.421875 30.609375 32.421875 
z
" id="DejaVuSans-57"/>
       </defs>
       <use xlink:href="#DejaVuSans-50"/>
       <use x="63.623047" xlink:href="#DejaVuSans-48"/>
       <use x="127.246094" xlink:href="#DejaVuSans-50"/>
       <use x="190.869141" xlink:href="#DejaVuSans-48"/>
       <use x="254.492188" xlink:href="#DejaVuSans-45"/>
       <use x="290.576172" xlink:href="#DejaVuSans-48"/>
       <use x="354.199219" xlink:href="#DejaVuSans-57"/>
      </g>
     </g>
    </g>
    <g id="xtick_8">
     <g id="line2d_15">
      <path clip-path="url(#p7c99f0909c)" d="M 895.450789 616.52 
L 895.450789 7.2 
" style="fill:none;stroke:#ffffff;stroke-linecap:square;stroke-width:0.8;"/>
     </g>
     <g id="line2d_16">
      <g>
       <use style="fill:#555555;stroke:#555555;stroke-width:0.8;" x="895.450789" xlink:href="#m639868a7f6" y="616.52"/>
      </g>
     </g>
     <g id="text_8">
      <!-- 2020-10 -->
      <g style="fill:#555555;" transform="translate(874.559382 631.118437)scale(0.1 -0.1)">
       <defs>
        <path d="M 12.40625 8.296875 
L 28.515625 8.296875 
L 28.515625 63.921875 
L 10.984375 60.40625 
L 10.984375 69.390625 
L 28.421875 72.90625 
L 38.28125 72.90625 
L 38.28125 8.296875 
L 54.390625 8.296875 
L 54.390625 0 
L 12.40625 0 
z
" id="DejaVuSans-49"/>
       </defs>
       <use xlink:href="#DejaVuSans-50"/>
       <use x="63.623047" xlink:href="#DejaVuSans-48"/>
       <use x="127.246094" xlink:href="#DejaVuSans-50"/>
       <use x="190.869141" xlink:href="#DejaVuSans-48"/>
       <use x="254.492188" xlink:href="#DejaVuSans-45"/>
       <use x="290.576172" xlink:href="#DejaVuSans-49"/>
       <use x="354.199219" xlink:href="#DejaVuSans-48"/>
      </g>
     </g>
    </g>
    <g id="xtick_9">
     <g id="line2d_17">
      <path clip-path="url(#p7c99f0909c)" d="M 1012.670704 616.52 
L 1012.670704 7.2 
" style="fill:none;stroke:#ffffff;stroke-linecap:square;stroke-width:0.8;"/>
     </g>
     <g id="line2d_18">
      <g>
       <use style="fill:#555555;stroke:#555555;stroke-width:0.8;" x="1012.670704" xlink:href="#m639868a7f6" y="616.52"/>
      </g>
     </g>
     <g id="text_9">
      <!-- 2020-11 -->
      <g style="fill:#555555;" transform="translate(991.779297 631.118437)scale(0.1 -0.1)">
       <use xlink:href="#DejaVuSans-50"/>
       <use x="63.623047" xlink:href="#DejaVuSans-48"/>
       <use x="127.246094" xlink:href="#DejaVuSans-50"/>
       <use x="190.869141" xlink:href="#DejaVuSans-48"/>
       <use x="254.492188" xlink:href="#DejaVuSans-45"/>
       <use x="290.576172" xlink:href="#DejaVuSans-49"/>
       <use x="354.199219" xlink:href="#DejaVuSans-49"/>
      </g>
     </g>
    </g>
   </g>
   <g id="matplotlib.axis_2">
    <g id="ytick_1">
     <g id="line2d_19">
      <path clip-path="url(#p7c99f0909c)" d="M 30.103125 594.07505 
L 1099.073125 594.07505 
" style="fill:none;stroke:#ffffff;stroke-linecap:square;stroke-width:0.8;"/>
     </g>
     <g id="line2d_20">
      <defs>
       <path d="M 0 0 
L -3.5 0 
" id="m11920b5a65" style="stroke:#555555;stroke-width:0.8;"/>
      </defs>
      <g>
       <use style="fill:#555555;stroke:#555555;stroke-width:0.8;" x="30.103125" xlink:href="#m11920b5a65" y="594.07505"/>
      </g>
     </g>
     <g id="text_10">
      <!-- 0.5 -->
      <g style="fill:#555555;" transform="translate(7.2 597.874268)scale(0.1 -0.1)">
       <defs>
        <path d="M 10.6875 12.40625 
L 21 12.40625 
L 21 0 
L 10.6875 0 
z
" id="DejaVuSans-46"/>
       </defs>
       <use xlink:href="#DejaVuSans-48"/>
       <use x="63.623047" xlink:href="#DejaVuSans-46"/>
       <use x="95.410156" xlink:href="#DejaVuSans-53"/>
      </g>
     </g>
    </g>
    <g id="ytick_2">
     <g id="line2d_21">
      <path clip-path="url(#p7c99f0909c)" d="M 30.103125 519.259461 
L 1099.073125 519.259461 
" style="fill:none;stroke:#ffffff;stroke-linecap:square;stroke-width:0.8;"/>
     </g>
     <g id="line2d_22">
      <g>
       <use style="fill:#555555;stroke:#555555;stroke-width:0.8;" x="30.103125" xlink:href="#m11920b5a65" y="519.259461"/>
      </g>
     </g>
     <g id="text_11">
      <!-- 1.0 -->
      <g style="fill:#555555;" transform="translate(7.2 523.05868)scale(0.1 -0.1)">
       <use xlink:href="#DejaVuSans-49"/>
       <use x="63.623047" xlink:href="#DejaVuSans-46"/>
       <use x="95.410156" xlink:href="#DejaVuSans-48"/>
      </g>
     </g>
    </g>
    <g id="ytick_3">
     <g id="line2d_23">
      <path clip-path="url(#p7c99f0909c)" d="M 30.103125 444.443873 
L 1099.073125 444.443873 
" style="fill:none;stroke:#ffffff;stroke-linecap:square;stroke-width:0.8;"/>
     </g>
     <g id="line2d_24">
      <g>
       <use style="fill:#555555;stroke:#555555;stroke-width:0.8;" x="30.103125" xlink:href="#m11920b5a65" y="444.443873"/>
      </g>
     </g>
     <g id="text_12">
      <!-- 1.5 -->
      <g style="fill:#555555;" transform="translate(7.2 448.243091)scale(0.1 -0.1)">
       <use xlink:href="#DejaVuSans-49"/>
       <use x="63.623047" xlink:href="#DejaVuSans-46"/>
       <use x="95.410156" xlink:href="#DejaVuSans-53"/>
      </g>
     </g>
    </g>
    <g id="ytick_4">
     <g id="line2d_25">
      <path clip-path="url(#p7c99f0909c)" d="M 30.103125 369.628284 
L 1099.073125 369.628284 
" style="fill:none;stroke:#ffffff;stroke-linecap:square;stroke-width:0.8;"/>
     </g>
     <g id="line2d_26">
      <g>
       <use style="fill:#555555;stroke:#555555;stroke-width:0.8;" x="30.103125" xlink:href="#m11920b5a65" y="369.628284"/>
      </g>
     </g>
     <g id="text_13">
      <!-- 2.0 -->
      <g style="fill:#555555;" transform="translate(7.2 373.427503)scale(0.1 -0.1)">
       <use xlink:href="#DejaVuSans-50"/>
       <use x="63.623047" xlink:href="#DejaVuSans-46"/>
       <use x="95.410156" xlink:href="#DejaVuSans-48"/>
      </g>
     </g>
    </g>
    <g id="ytick_5">
     <g id="line2d_27">
      <path clip-path="url(#p7c99f0909c)" d="M 30.103125 294.812696 
L 1099.073125 294.812696 
" style="fill:none;stroke:#ffffff;stroke-linecap:square;stroke-width:0.8;"/>
     </g>
     <g id="line2d_28">
      <g>
       <use style="fill:#555555;stroke:#555555;stroke-width:0.8;" x="30.103125" xlink:href="#m11920b5a65" y="294.812696"/>
      </g>
     </g>
     <g id="text_14">
      <!-- 2.5 -->
      <g style="fill:#555555;" transform="translate(7.2 298.611914)scale(0.1 -0.1)">
       <use xlink:href="#DejaVuSans-50"/>
       <use x="63.623047" xlink:href="#DejaVuSans-46"/>
       <use x="95.410156" xlink:href="#DejaVuSans-53"/>
      </g>
     </g>
    </g>
    <g id="ytick_6">
     <g id="line2d_29">
      <path clip-path="url(#p7c99f0909c)" d="M 30.103125 219.997107 
L 1099.073125 219.997107 
" style="fill:none;stroke:#ffffff;stroke-linecap:square;stroke-width:0.8;"/>
     </g>
     <g id="line2d_30">
      <g>
       <use style="fill:#555555;stroke:#555555;stroke-width:0.8;" x="30.103125" xlink:href="#m11920b5a65" y="219.997107"/>
      </g>
     </g>
     <g id="text_15">
      <!-- 3.0 -->
      <g style="fill:#555555;" transform="translate(7.2 223.796326)scale(0.1 -0.1)">
       <use xlink:href="#DejaVuSans-51"/>
       <use x="63.623047" xlink:href="#DejaVuSans-46"/>
       <use x="95.410156" xlink:href="#DejaVuSans-48"/>
      </g>
     </g>
    </g>
    <g id="ytick_7">
     <g id="line2d_31">
      <path clip-path="url(#p7c99f0909c)" d="M 30.103125 145.181519 
L 1099.073125 145.181519 
" style="fill:none;stroke:#ffffff;stroke-linecap:square;stroke-width:0.8;"/>
     </g>
     <g id="line2d_32">
      <g>
       <use style="fill:#555555;stroke:#555555;stroke-width:0.8;" x="30.103125" xlink:href="#m11920b5a65" y="145.181519"/>
      </g>
     </g>
     <g id="text_16">
      <!-- 3.5 -->
      <g style="fill:#555555;" transform="translate(7.2 148.980737)scale(0.1 -0.1)">
       <use xlink:href="#DejaVuSans-51"/>
       <use x="63.623047" xlink:href="#DejaVuSans-46"/>
       <use x="95.410156" xlink:href="#DejaVuSans-53"/>
      </g>
     </g>
    </g>
    <g id="ytick_8">
     <g id="line2d_33">
      <path clip-path="url(#p7c99f0909c)" d="M 30.103125 70.36593 
L 1099.073125 70.36593 
" style="fill:none;stroke:#ffffff;stroke-linecap:square;stroke-width:0.8;"/>
     </g>
     <g id="line2d_34">
      <g>
       <use style="fill:#555555;stroke:#555555;stroke-width:0.8;" x="30.103125" xlink:href="#m11920b5a65" y="70.36593"/>
      </g>
     </g>
     <g id="text_17">
      <!-- 4.0 -->
      <g style="fill:#555555;" transform="translate(7.2 74.165149)scale(0.1 -0.1)">
       <use xlink:href="#DejaVuSans-52"/>
       <use x="63.623047" xlink:href="#DejaVuSans-46"/>
       <use x="95.410156" xlink:href="#DejaVuSans-48"/>
      </g>
     </g>
    </g>
   </g>
   <g id="line2d_35">
    <path clip-path="url(#p7c99f0909c)" d="M 93.817821 115.537253 
L 97.599108 85.937394 
L 101.380396 123.161802 
L 105.161684 105.377075 
L 108.942971 96.695026 
L 112.724259 106.203615 
L 116.505546 125.719357 
L 120.286834 161.415605 
L 124.068121 206.789444 
L 127.849409 217.973237 
L 131.630697 248.631133 
L 135.411984 272.739828 
L 139.193272 280.33409 
L 142.974559 286.953381 
L 146.755847 280.349596 
L 150.537135 276.30482 
L 154.318422 283.846695 
L 158.09971 291.684551 
L 161.880997 304.503453 
L 165.662285 321.971747 
L 169.443572 332.153093 
L 173.22486 340.084363 
L 177.006148 345.773748 
L 180.787435 352.430448 
L 184.568723 362.177294 
L 188.35001 374.089471 
L 192.131298 387.008046 
L 199.693873 408.226885 
L 203.475161 419.057897 
L 207.256448 431.073882 
L 211.037736 441.202914 
L 214.819023 449.428999 
L 218.600311 455.914501 
L 222.381599 461.719254 
L 226.162886 466.391715 
L 229.944174 470.298805 
L 233.725461 474.979514 
L 245.069324 487.669617 
L 248.850612 491.09412 
L 252.631899 494.146355 
L 256.413187 496.685267 
L 267.75705 502.789686 
L 271.538337 504.293945 
L 275.319625 505.376843 
L 279.100912 506.013541 
L 290.444775 507.608179 
L 305.569925 510.681241 
L 332.038939 514.437263 
L 339.601514 514.965439 
L 347.164089 515.30985 
L 373.633102 515.928346 
L 384.976965 516.415293 
L 400.102115 516.803289 
L 422.789841 517.321822 
L 430.352416 517.403972 
L 437.914991 517.402617 
L 479.509154 517.773378 
L 498.415592 517.856623 
L 509.759455 517.558576 
L 521.103318 517.122647 
L 528.665893 517.028835 
L 536.228468 517.095201 
L 551.353618 517.435665 
L 604.291645 517.850425 
L 634.541945 517.563256 
L 717.730272 516.073144 
L 747.980573 515.411489 
L 759.324436 515.264899 
L 774.449586 515.469731 
L 804.699887 515.929333 
L 842.512762 515.461269 
L 857.637913 514.97148 
L 865.200488 514.829226 
L 884.106926 514.773624 
L 906.794651 514.434186 
L 918.138514 514.067146 
L 925.701089 513.528935 
L 940.82624 511.889126 
L 948.388815 511.076789 
L 955.95139 509.919655 
L 963.513965 508.796619 
L 974.857828 507.250841 
L 978.639115 506.603983 
L 982.420403 505.767125 
L 993.764266 502.887652 
L 1001.326841 501.13503 
L 1005.108129 500.250361 
L 1008.889416 499.486932 
L 1016.451991 498.640788 
L 1024.014566 498.36341 
L 1027.795854 498.321355 
L 1035.358429 498.545194 
L 1046.702292 499.046423 
L 1050.48358 499.334868 
L 1050.48358 499.334868 
" style="fill:none;stroke:#e24a33;stroke-linecap:square;stroke-width:1.5;"/>
   </g>
   <g id="line2d_36">
    <path clip-path="url(#p7c99f0909c)" d="M 93.817821 115.537253 
L 97.599108 56.337535 
L 101.380396 197.610619 
L 105.161684 52.022892 
L 108.942971 61.966829 
L 112.724259 153.746563 
L 116.505546 242.813808 
L 120.286834 365.410985 
L 124.068121 373.954411 
L 127.849409 275.897167 
L 131.630697 266.62817 
L 135.411984 230.727688 
L 139.193272 206.9064 
L 142.974559 289.148843 
L 146.755847 319.184496 
L 150.537135 345.640973 
L 154.318422 328.690296 
L 158.09971 321.493163 
L 161.880997 320.460001 
L 165.662285 329.184457 
L 169.443572 360.418262 
L 173.22486 374.70339 
L 177.006148 385.466669 
L 180.787435 375.287193 
L 188.35001 403.845239 
L 192.131298 419.614485 
L 195.912586 433.946517 
L 199.693873 449.707005 
L 203.475161 461.283758 
L 207.256448 459.399085 
L 211.037736 460.624307 
L 214.819023 461.427837 
L 218.600311 465.012997 
L 222.381599 474.579788 
L 226.162886 482.414236 
L 229.944174 488.633384 
L 233.725461 492.164047 
L 237.506749 490.60941 
L 241.288037 491.250154 
L 245.069324 494.036302 
L 248.850612 498.551307 
L 252.631899 503.779881 
L 256.413187 506.40577 
L 260.194474 506.640274 
L 263.975762 505.864169 
L 267.75705 504.2501 
L 271.538337 504.566118 
L 275.319625 506.131588 
L 279.100912 508.236771 
L 282.8822 510.009072 
L 286.663488 510.2761 
L 290.444775 509.787503 
L 294.226063 509.616643 
L 298.00735 510.270841 
L 301.788638 511.755656 
L 305.569925 513.052874 
L 309.351213 513.867548 
L 313.132501 514.173779 
L 316.913788 513.603545 
L 320.695076 513.831561 
L 324.476363 514.357643 
L 328.257651 515.150575 
L 332.038939 516.076188 
L 335.820226 516.089496 
L 347.164089 514.671343 
L 350.945377 514.948966 
L 354.726664 515.81441 
L 358.507952 516.082253 
L 362.289239 516.504253 
L 366.070527 516.276995 
L 369.851814 515.790359 
L 377.41439 516.281267 
L 381.195677 516.808498 
L 384.976965 517.164492 
L 400.102115 516.68357 
L 407.66469 517.397805 
L 411.445978 517.424659 
L 415.227265 517.661633 
L 419.008553 517.729538 
L 422.789841 517.351399 
L 426.571128 517.098091 
L 434.133703 517.184196 
L 437.914991 517.628785 
L 441.696279 517.960482 
L 449.258854 517.73007 
L 453.040141 517.571264 
L 456.821429 517.606902 
L 468.165292 517.96174 
L 471.946579 517.755733 
L 479.509154 517.724153 
L 483.290442 517.783238 
L 487.07173 518.079242 
L 498.415592 517.719258 
L 502.19688 517.255269 
L 509.759455 516.807714 
L 513.540743 516.847523 
L 517.32203 517.066963 
L 532.447181 517.043636 
L 540.009756 517.599049 
L 543.791043 517.585074 
L 547.572331 517.760058 
L 555.134906 517.428571 
L 558.916194 517.490133 
L 570.260056 517.93241 
L 574.041344 517.952857 
L 581.603919 517.665034 
L 589.166494 517.790906 
L 592.947782 518.007197 
L 600.510357 518.016826 
L 611.85422 517.396806 
L 626.97937 517.832624 
L 630.760658 517.560229 
L 634.541945 517.140766 
L 638.323233 516.95234 
L 653.448383 517.453163 
L 661.010958 516.634281 
L 664.792246 516.405837 
L 672.354821 517.025981 
L 676.136109 517.025661 
L 679.917396 517.185487 
L 683.698684 516.611652 
L 687.479971 516.161325 
L 691.261259 515.998477 
L 695.042547 516.138774 
L 698.823834 516.579057 
L 702.605122 516.715995 
L 706.386409 516.652713 
L 713.948985 515.341324 
L 717.730272 515.045213 
L 721.51156 515.476997 
L 725.292847 516.099514 
L 732.855422 516.105494 
L 736.63671 515.385538 
L 740.417998 514.813174 
L 744.199285 514.406834 
L 747.980573 514.914969 
L 751.76186 515.594847 
L 755.543148 515.709557 
L 759.324436 516.029376 
L 766.887011 515.026347 
L 770.668298 514.916283 
L 778.230873 516.02591 
L 785.793449 516.414445 
L 789.574736 516.094331 
L 793.356024 515.57813 
L 797.137311 515.493519 
L 800.918599 515.672509 
L 804.699887 515.989826 
L 808.481174 515.975835 
L 812.262462 516.110738 
L 816.043749 515.576846 
L 819.825037 515.184877 
L 823.606325 515.125678 
L 827.387612 515.275561 
L 831.1689 515.865354 
L 834.950187 515.924549 
L 838.731475 515.782268 
L 842.512762 515.070599 
L 850.075338 514.021935 
L 853.856625 514.369268 
L 857.637913 515.119807 
L 861.4192 515.195684 
L 865.200488 515.515353 
L 868.981776 515.087612 
L 872.763063 514.419781 
L 876.544351 514.069606 
L 880.325638 514.291719 
L 884.106926 514.835613 
L 887.888213 514.896018 
L 891.669501 515.30206 
L 895.450789 514.73898 
L 899.232076 513.974164 
L 906.794651 513.535173 
L 910.575939 514.152114 
L 914.357227 514.206038 
L 918.138514 514.106256 
L 921.919802 513.244353 
L 925.701089 511.701317 
L 929.482377 510.72629 
L 933.263664 510.47327 
L 937.044952 511.343683 
L 940.82624 511.62871 
L 944.607527 511.530816 
L 948.388815 510.133437 
L 952.170102 507.94616 
L 955.95139 506.38151 
L 959.732678 506.355508 
L 963.513965 507.600191 
L 971.07654 508.336082 
L 974.857828 506.117317 
L 978.639115 503.418158 
L 982.420403 500.523503 
L 986.201691 499.454561 
L 989.982978 500.979615 
L 997.545553 501.868146 
L 1001.326841 500.316899 
L 1005.108129 497.225469 
L 1008.889416 495.179502 
L 1012.670704 496.153162 
L 1016.451991 498.358004 
L 1020.233279 500.071242 
L 1024.014566 501.239593 
L 1027.795854 500.022511 
L 1031.577142 497.803091 
L 1035.358429 496.168754 
L 1039.139717 497.102945 
L 1042.921004 499.438928 
L 1046.702292 501.549138 
L 1050.48358 503.258708 
L 1050.48358 503.258708 
" style="fill:none;stroke:#e24a33;stroke-dasharray:1.5,2.475;stroke-dashoffset:0;stroke-width:1.5;"/>
   </g>
   <g id="line2d_37">
    <path clip-path="url(#p7c99f0909c)" d="M 93.817821 265.168783 
L 97.599108 235.568984 
L 101.380396 272.793495 
L 105.161684 255.008927 
L 108.942971 212.429919 
L 112.724259 207.897317 
L 116.505546 215.889854 
L 120.286834 244.547969 
L 124.068121 283.130054 
L 127.849409 280.082255 
L 131.630697 291.206597 
L 135.411984 299.439693 
L 139.193272 277.962844 
L 142.974559 282.743784 
L 146.755847 266.25171 
L 150.537135 256.138993 
L 158.09971 273.879604 
L 161.880997 305.552643 
L 165.662285 345.574608 
L 169.443572 358.157292 
L 173.22486 367.400789 
L 177.006148 371.575825 
L 180.787435 375.093093 
L 184.568723 385.790347 
L 188.35001 401.889033 
L 192.131298 422.30446 
L 195.912586 437.974641 
L 207.256448 482.740112 
L 211.037736 495.632212 
L 214.819023 503.172764 
L 222.381599 508.141238 
L 226.162886 510.889121 
L 229.944174 514.247359 
L 233.725461 521.129574 
L 237.506749 526.43367 
L 241.288037 532.2516 
L 245.069324 538.827111 
L 248.850612 541.908456 
L 252.631899 546.904315 
L 256.413187 551.023567 
L 263.975762 555.264767 
L 267.75705 552.646585 
L 271.538337 547.262351 
L 275.319625 542.410192 
L 279.100912 537.022584 
L 282.8822 534.234789 
L 286.663488 532.442948 
L 290.444775 531.454144 
L 294.226063 534.307061 
L 298.00735 538.862308 
L 301.788638 544.172585 
L 305.569925 548.591648 
L 309.351213 550.506379 
L 313.132501 552.19231 
L 316.913788 552.140895 
L 320.695076 552.817531 
L 324.476363 554.832461 
L 328.257651 556.043443 
L 332.038939 558.738754 
L 335.820226 558.757505 
L 339.601514 555.390299 
L 343.382801 550.29507 
L 347.164089 537.234249 
L 350.945377 526.8038 
L 354.726664 523.624449 
L 358.507952 518.915672 
L 362.289239 518.726755 
L 366.070527 519.915148 
L 369.851814 519.708195 
L 373.633102 530.284849 
L 377.41439 537.004454 
L 381.195677 540.328103 
L 384.976965 544.653609 
L 392.53954 540.405611 
L 396.320828 540.48051 
L 400.102115 534.80858 
L 403.883403 536.716707 
L 407.66469 537.896438 
L 411.445978 534.981042 
L 415.227265 537.359276 
L 419.008553 540.665548 
L 422.789841 540.338192 
L 426.571128 541.558766 
L 430.352416 533.404005 
L 434.133703 518.386278 
L 437.914991 515.824631 
L 441.696279 516.645233 
L 445.477566 517.205246 
L 449.258854 524.569442 
L 453.040141 528.304726 
L 456.821429 528.912123 
L 460.602716 536.315408 
L 464.384004 535.416369 
L 468.165292 531.528652 
L 471.946579 525.376389 
L 475.727867 518.057398 
L 479.509154 515.667992 
L 483.290442 519.522784 
L 487.07173 527.804979 
L 490.853017 529.664589 
L 494.634305 528.196145 
L 498.415592 524.590281 
L 502.19688 504.339988 
L 505.978167 487.066574 
L 509.759455 463.979994 
L 513.540743 442.420781 
L 517.32203 435.230373 
L 521.103318 430.481214 
L 524.884605 434.889292 
L 528.665893 459.195892 
L 532.447181 479.461279 
L 536.228468 509.052167 
L 540.009756 530.226024 
L 543.791043 537.661886 
L 547.572331 545.900411 
L 551.353618 546.160294 
L 555.134906 539.946146 
L 558.916194 538.750842 
L 562.697481 534.465877 
L 566.478769 534.002442 
L 570.260056 536.38092 
L 577.822632 534.00238 
L 581.603919 532.134137 
L 585.385207 528.059752 
L 589.166494 526.163056 
L 592.947782 525.137017 
L 596.729069 523.572511 
L 600.510357 522.544951 
L 604.291645 520.496363 
L 608.072932 512.619686 
L 615.635507 495.445598 
L 619.416795 489.918395 
L 623.198083 488.595929 
L 626.97937 488.836079 
L 630.760658 489.358422 
L 634.541945 491.139108 
L 638.323233 489.5287 
L 642.10452 486.292032 
L 645.885808 482.536827 
L 649.667096 480.965241 
L 653.448383 480.226297 
L 657.229671 478.831453 
L 661.010958 481.642688 
L 664.792246 483.503366 
L 668.573534 488.177664 
L 672.354821 493.378464 
L 676.136109 494.153653 
L 679.917396 495.321271 
L 683.698684 494.600155 
L 687.479971 492.407823 
L 691.261259 494.262169 
L 695.042547 491.676839 
L 698.823834 491.222954 
L 702.605122 491.831749 
L 706.386409 489.898534 
L 710.167697 490.262792 
L 713.948985 488.570694 
L 717.730272 483.701662 
L 721.51156 485.477326 
L 725.292847 486.177217 
L 729.074135 486.669063 
L 732.855422 487.668288 
L 736.63671 487.781597 
L 740.417998 489.283171 
L 744.199285 491.942261 
L 747.980573 493.949843 
L 751.76186 494.714281 
L 755.543148 494.465942 
L 759.324436 496.331372 
L 763.105723 500.499435 
L 766.887011 506.751032 
L 770.668298 515.234822 
L 774.449586 520.093526 
L 778.230873 521.850863 
L 782.012161 524.127457 
L 785.793449 524.556981 
L 789.574736 525.192089 
L 793.356024 525.59852 
L 797.137311 524.684047 
L 800.918599 522.609934 
L 804.699887 518.809894 
L 812.262462 510.216924 
L 816.043749 505.38165 
L 819.825037 502.652752 
L 827.387612 502.52348 
L 831.1689 505.238246 
L 834.950187 506.980664 
L 838.731475 506.787841 
L 842.512762 506.128386 
L 846.29405 502.2635 
L 850.075338 494.351311 
L 853.856625 490.808249 
L 857.637913 489.081468 
L 861.4192 488.034531 
L 865.200488 490.886473 
L 868.981776 495.616745 
L 872.763063 501.386006 
L 876.544351 508.842909 
L 880.325638 510.839527 
L 884.106926 509.059412 
L 891.669501 506.835699 
L 895.450789 505.453055 
L 899.232076 504.789804 
L 903.013364 505.165382 
L 906.794651 502.138777 
L 910.575939 500.381092 
L 914.357227 498.987909 
L 918.138514 494.710277 
L 921.919802 491.171079 
L 925.701089 484.113423 
L 929.482377 473.549796 
L 933.263664 467.260216 
L 937.044952 462.579508 
L 940.82624 460.962953 
L 944.607527 461.264646 
L 948.388815 461.147287 
L 952.170102 462.191245 
L 955.95139 462.157251 
L 959.732678 462.940608 
L 963.513965 463.507902 
L 967.295253 463.378985 
L 971.07654 464.191497 
L 974.857828 464.109456 
L 978.639115 465.266723 
L 982.420403 465.240724 
L 986.201691 461.28647 
L 989.982978 457.918589 
L 993.764266 453.996303 
L 997.545553 451.299857 
L 1001.326841 451.889397 
L 1005.108129 454.5772 
L 1008.889416 461.225644 
L 1012.670704 471.928457 
L 1016.451991 478.09318 
L 1020.233279 483.684392 
L 1024.014566 487.622845 
L 1027.795854 490.386188 
L 1031.577142 494.500827 
L 1035.358429 497.875665 
L 1039.139717 500.239962 
L 1042.921004 502.079328 
L 1046.702292 503.401743 
L 1050.48358 505.051756 
L 1050.48358 505.051756 
" style="fill:none;stroke:#348abd;stroke-linecap:square;stroke-width:1.5;"/>
   </g>
   <g id="line2d_38">
    <path clip-path="url(#p7c99f0909c)" d="M 93.817821 265.168783 
L 97.599108 205.969184 
L 101.380396 347.242518 
L 105.161684 201.655221 
L 108.942971 42.11389 
L 112.724259 185.234308 
L 116.505546 263.845071 
L 120.286834 465.77559 
L 124.068121 476.043779 
L 127.849409 325.907925 
L 131.630697 279.525613 
L 135.411984 99.745568 
L 139.193272 34.896364 
L 142.974559 297.311649 
L 146.755847 350.331076 
L 150.537135 405.254755 
L 154.318422 387.057046 
L 158.09971 342.560772 
L 161.880997 321.45684 
L 165.662285 315.050117 
L 169.443572 385.390439 
L 173.22486 415.035555 
L 177.006148 434.480004 
L 180.787435 411.677921 
L 184.568723 417.441553 
L 188.35001 434.14764 
L 192.131298 457.958104 
L 195.912586 495.081711 
L 199.693873 519.190809 
L 203.475161 535.973206 
L 207.256448 519.387759 
L 211.037736 507.686256 
L 214.819023 486.931502 
L 218.600311 474.937279 
L 222.381599 512.881856 
L 226.162886 538.425987 
L 229.944174 559.480873 
L 233.725461 567.563266 
L 237.506749 544.814925 
L 241.288037 527.657012 
L 245.069324 520.965857 
L 248.850612 534.451273 
L 252.631899 573.397001 
L 256.413187 588.315633 
L 260.194474 582.404494 
L 263.975762 559.662101 
L 267.75705 509.329733 
L 271.538337 483.276223 
L 275.319625 500.486158 
L 279.100912 535.683745 
L 282.8822 568.801069 
L 286.663488 569.861607 
L 290.444775 552.74047 
L 294.226063 529.300153 
L 298.00735 515.162956 
L 301.788638 537.658092 
L 305.569925 566.617188 
L 309.351213 582.204187 
L 313.132501 581.663125 
L 316.913788 552.380564 
L 320.695076 534.036608 
L 324.476363 529.267466 
L 328.257651 546.134964 
L 332.038939 585.484365 
L 335.820226 582.335444 
L 339.601514 558.092681 
L 343.382801 516.71396 
L 347.164089 442.610867 
L 350.945377 456.254323 
L 354.726664 523.879506 
L 362.289239 581.013023 
L 366.070527 566.41143 
L 369.851814 515.265288 
L 373.633102 516.647446 
L 377.41439 503.291561 
L 381.195677 547.145046 
L 384.976965 582.801468 
L 388.758252 566.43179 
L 392.53954 551.256682 
L 396.320828 515.789576 
L 400.102115 476.943939 
L 407.66469 555.403162 
L 411.445978 562.393697 
L 415.227265 583.079425 
L 419.008553 574.40059 
L 422.789841 513.498085 
L 426.571128 485.487955 
L 430.352416 459.565121 
L 434.133703 450.279072 
L 437.914991 544.46217 
L 441.696279 588.823636 
L 445.477566 578.320681 
L 449.258854 565.047457 
L 453.040141 511.634943 
L 456.821429 463.816904 
L 460.602716 502.102064 
L 464.384004 538.168896 
L 468.165292 561.609618 
L 471.946579 535.254839 
L 475.727867 513.81452 
L 479.509154 494.909104 
L 483.290442 490.800446 
L 487.07173 560.07743 
L 490.853017 551.186167 
L 494.634305 551.330511 
L 498.415592 510.013785 
L 502.19688 372.062476 
L 505.978167 373.995203 
L 509.759455 329.194386 
L 513.540743 409.162943 
L 517.32203 500.853311 
L 521.103318 518.086394 
L 524.884605 540.870332 
L 528.665893 542.208674 
L 532.447181 515.852909 
L 540.009756 557.379943 
L 543.791043 552.904341 
L 547.572331 575.756071 
L 551.353618 542.689514 
L 555.134906 498.709638 
L 558.916194 507.485781 
L 562.697481 506.335851 
L 566.478769 554.135901 
L 570.260056 569.553683 
L 574.041344 567.480287 
L 577.822632 534.315517 
L 581.603919 485.631942 
L 585.385207 478.965081 
L 589.166494 493.058982 
L 592.947782 546.953629 
L 596.729069 558.602141 
L 600.510357 560.287364 
L 604.291645 519.9754 
L 608.072932 430.495204 
L 611.85422 419.255333 
L 615.635507 432.550112 
L 619.416795 508.263214 
L 623.198083 549.344879 
L 626.97937 561.96841 
L 630.760658 523.631801 
L 634.541945 442.960006 
L 638.323233 407.982481 
L 642.10452 409.893436 
L 645.885808 481.976777 
L 649.667096 538.343776 
L 653.448383 556.795804 
L 657.229671 513.867892 
L 661.010958 462.63865 
L 664.792246 421.007226 
L 668.573534 442.613522 
L 672.354821 518.382373 
L 676.136109 543.770104 
L 679.917396 564.969132 
L 683.698684 508.820077 
L 687.479971 447.292329 
L 691.261259 433.987648 
L 695.042547 424.516208 
L 698.823834 515.205182 
L 702.605122 548.031668 
L 706.386409 551.436622 
L 710.167697 511.369888 
L 713.948985 435.447642 
L 717.730272 399.90442 
L 721.51156 436.94586 
L 725.292847 520.10442 
L 729.074135 551.474589 
L 732.855422 558.4312 
L 736.63671 512.163049 
L 740.417998 445.958657 
L 744.199285 418.51805 
L 747.980573 450.998934 
L 751.76186 525.455489 
L 755.543148 549.736212 
L 759.324436 571.489212 
L 763.105723 541.33949 
L 766.887011 489.719838 
L 770.668298 477.90458 
L 774.449586 485.009859 
L 778.230873 537.756848 
L 782.012161 565.672368 
L 785.793449 574.495885 
L 789.574736 545.785243 
L 793.356024 492.564855 
L 797.137311 471.503274 
L 800.918599 470.491068 
L 804.699887 511.156567 
L 808.481174 535.228119 
L 812.262462 544.789345 
L 816.043749 511.938326 
L 819.825037 473.462567 
L 823.606325 471.194563 
L 827.387612 469.894876 
L 831.1689 530.15993 
L 834.950187 547.425039 
L 838.731475 543.439588 
L 842.512762 507.32214 
L 846.29405 446.408363 
L 850.075338 415.809242 
L 853.856625 445.093439 
L 857.637913 518.072466 
L 861.4192 540.09648 
L 865.200488 563.40318 
L 868.981776 540.434048 
L 872.763063 486.79319 
L 876.544351 468.007561 
L 880.325638 459.069765 
L 884.106926 505.611659 
L 887.888213 532.313766 
L 891.669501 555.619907 
L 895.450789 530.755537 
L 899.232076 482.150435 
L 903.013364 470.636604 
L 906.794651 437.883529 
L 910.575939 493.307866 
L 914.357227 522.561484 
L 918.138514 525.676484 
L 921.919802 505.98115 
L 925.701089 432.746842 
L 929.482377 396.691217 
L 933.263664 393.85647 
L 937.044952 460.542909 
L 940.82624 511.245598 
L 944.607527 527.788336 
L 948.388815 505.159635 
L 952.170102 440.054547 
L 955.95139 396.453261 
L 959.732678 399.339973 
L 963.513965 464.513962 
L 967.295253 510.34318 
L 971.07654 533.475923 
L 974.857828 504.585346 
L 978.639115 448.155413 
L 982.420403 396.271267 
L 986.201691 371.660199 
L 989.982978 440.938797 
L 993.764266 482.887177 
L 997.545553 514.600798 
L 1001.326841 508.71213 
L 1005.108129 466.970032 
L 1008.889416 442.810373 
L 1012.670704 446.579889 
L 1020.233279 522.025658 
L 1024.014566 542.169972 
L 1027.795854 528.055529 
L 1031.577142 495.772504 
L 1035.358429 466.434243 
L 1039.139717 463.129969 
L 1046.702292 531.282565 
L 1050.48358 553.720063 
L 1050.48358 553.720063 
" style="fill:none;stroke:#348abd;stroke-dasharray:1.5,2.475;stroke-dashoffset:0;stroke-width:1.5;"/>
   </g>
   <g id="line2d_39">
    <path clip-path="url(#p7c99f0909c)" d="M 30.103125 519.259461 
L 1099.073125 519.259461 
" style="fill:none;stroke:#008000;stroke-linecap:square;stroke-opacity:0.5;stroke-width:1.5;"/>
   </g>
   <g id="patch_3">
    <path d="M 30.103125 616.52 
L 30.103125 7.2 
" style="fill:none;stroke:#ffffff;stroke-linecap:square;stroke-linejoin:miter;"/>
   </g>
   <g id="patch_4">
    <path d="M 1099.073125 616.52 
L 1099.073125 7.2 
" style="fill:none;stroke:#ffffff;stroke-linecap:square;stroke-linejoin:miter;"/>
   </g>
   <g id="patch_5">
    <path d="M 30.103125 616.52 
L 1099.073125 616.52 
" style="fill:none;stroke:#ffffff;stroke-linecap:square;stroke-linejoin:miter;"/>
   </g>
   <g id="patch_6">
    <path d="M 30.103125 7.2 
L 1099.073125 7.2 
" style="fill:none;stroke:#ffffff;stroke-linecap:square;stroke-linejoin:miter;"/>
   </g>
  </g>
  <g id="axes_2">
   <g id="matplotlib.axis_3">
    <g id="ytick_9">
     <g id="line2d_40">
      <path clip-path="url(#p7c99f0909c)" d="M 30.103125 589.084163 
L 1099.073125 589.084163 
" style="fill:none;stroke:#ffffff;stroke-linecap:square;stroke-width:0.8;"/>
     </g>
     <g id="line2d_41">
      <defs>
       <path d="M 0 0 
L 3.5 0 
" id="maece3263bc" style="stroke:#555555;stroke-width:0.8;"/>
      </defs>
      <g>
       <use style="fill:#555555;stroke:#555555;stroke-width:0.8;" x="1099.073125" xlink:href="#maece3263bc" y="589.084163"/>
      </g>
     </g>
     <g id="text_18">
      <!-- 0 -->
      <g style="fill:#555555;" transform="translate(1106.073125 592.883382)scale(0.1 -0.1)">
       <use xlink:href="#DejaVuSans-48"/>
      </g>
     </g>
    </g>
    <g id="ytick_10">
     <g id="line2d_42">
      <path clip-path="url(#p7c99f0909c)" d="M 30.103125 470.662906 
L 1099.073125 470.662906 
" style="fill:none;stroke:#ffffff;stroke-linecap:square;stroke-width:0.8;"/>
     </g>
     <g id="line2d_43">
      <g>
       <use style="fill:#555555;stroke:#555555;stroke-width:0.8;" x="1099.073125" xlink:href="#maece3263bc" y="470.662906"/>
      </g>
     </g>
     <g id="text_19">
      <!-- 5000 -->
      <g style="fill:#555555;" transform="translate(1106.073125 474.462125)scale(0.1 -0.1)">
       <use xlink:href="#DejaVuSans-53"/>
       <use x="63.623047" xlink:href="#DejaVuSans-48"/>
       <use x="127.246094" xlink:href="#DejaVuSans-48"/>
       <use x="190.869141" xlink:href="#DejaVuSans-48"/>
      </g>
     </g>
    </g>
    <g id="ytick_11">
     <g id="line2d_44">
      <path clip-path="url(#p7c99f0909c)" d="M 30.103125 352.241649 
L 1099.073125 352.241649 
" style="fill:none;stroke:#ffffff;stroke-linecap:square;stroke-width:0.8;"/>
     </g>
     <g id="line2d_45">
      <g>
       <use style="fill:#555555;stroke:#555555;stroke-width:0.8;" x="1099.073125" xlink:href="#maece3263bc" y="352.241649"/>
      </g>
     </g>
     <g id="text_20">
      <!-- 10000 -->
      <g style="fill:#555555;" transform="translate(1106.073125 356.040867)scale(0.1 -0.1)">
       <use xlink:href="#DejaVuSans-49"/>
       <use x="63.623047" xlink:href="#DejaVuSans-48"/>
       <use x="127.246094" xlink:href="#DejaVuSans-48"/>
       <use x="190.869141" xlink:href="#DejaVuSans-48"/>
       <use x="254.492188" xlink:href="#DejaVuSans-48"/>
      </g>
     </g>
    </g>
    <g id="ytick_12">
     <g id="line2d_46">
      <path clip-path="url(#p7c99f0909c)" d="M 30.103125 233.820391 
L 1099.073125 233.820391 
" style="fill:none;stroke:#ffffff;stroke-linecap:square;stroke-width:0.8;"/>
     </g>
     <g id="line2d_47">
      <g>
       <use style="fill:#555555;stroke:#555555;stroke-width:0.8;" x="1099.073125" xlink:href="#maece3263bc" y="233.820391"/>
      </g>
     </g>
     <g id="text_21">
      <!-- 15000 -->
      <g style="fill:#555555;" transform="translate(1106.073125 237.61961)scale(0.1 -0.1)">
       <use xlink:href="#DejaVuSans-49"/>
       <use x="63.623047" xlink:href="#DejaVuSans-53"/>
       <use x="127.246094" xlink:href="#DejaVuSans-48"/>
       <use x="190.869141" xlink:href="#DejaVuSans-48"/>
       <use x="254.492188" xlink:href="#DejaVuSans-48"/>
      </g>
     </g>
    </g>
    <g id="ytick_13">
     <g id="line2d_48">
      <path clip-path="url(#p7c99f0909c)" d="M 30.103125 115.399134 
L 1099.073125 115.399134 
" style="fill:none;stroke:#ffffff;stroke-linecap:square;stroke-width:0.8;"/>
     </g>
     <g id="line2d_49">
      <g>
       <use style="fill:#555555;stroke:#555555;stroke-width:0.8;" x="1099.073125" xlink:href="#maece3263bc" y="115.399134"/>
      </g>
     </g>
     <g id="text_22">
      <!-- 20000 -->
      <g style="fill:#555555;" transform="translate(1106.073125 119.198353)scale(0.1 -0.1)">
       <use xlink:href="#DejaVuSans-50"/>
       <use x="63.623047" xlink:href="#DejaVuSans-48"/>
       <use x="127.246094" xlink:href="#DejaVuSans-48"/>
       <use x="190.869141" xlink:href="#DejaVuSans-48"/>
       <use x="254.492188" xlink:href="#DejaVuSans-48"/>
      </g>
     </g>
    </g>
   </g>
   <g id="line2d_50">
    <path clip-path="url(#p7c99f0909c)" d="M 78.69267 587.828898 
L 82.473958 588.326267 
L 86.255246 588.08153 
L 93.817821 588.15574 
L 97.599108 588.049951 
L 101.380396 587.730777 
L 105.161684 587.101453 
L 108.942971 586.610851 
L 112.724259 586.461978 
L 116.505546 585.754834 
L 120.286834 585.362352 
L 124.068121 584.668742 
L 127.849409 582.422122 
L 131.630697 580.886029 
L 135.411984 578.93377 
L 142.974559 572.596541 
L 146.755847 569.257061 
L 150.537135 566.64841 
L 154.318422 559.884865 
L 158.09971 552.221317 
L 161.880997 545.549126 
L 165.662285 542.48709 
L 169.443572 532.715645 
L 173.22486 520.467503 
L 177.006148 510.059966 
L 180.787435 502.775367 
L 184.568723 493.227231 
L 188.35001 481.083977 
L 192.131298 474.259529 
L 195.912586 471.928322 
L 199.693873 472.432458 
L 203.475161 467.915533 
L 207.256448 463.848608 
L 211.037736 462.515523 
L 214.819023 463.232818 
L 218.600311 456.564009 
L 222.381599 460.19785 
L 226.162886 462.840336 
L 229.944174 467.74636 
L 233.725461 471.745615 
L 237.506749 474.624943 
L 241.288037 481.219315 
L 245.069324 491.758807 
L 248.850612 495.615957 
L 252.631899 501.543786 
L 256.413187 506.676502 
L 260.194474 513.808845 
L 263.975762 520.382917 
L 267.75705 522.155852 
L 271.538337 523.38405 
L 275.319625 525.96225 
L 279.100912 526.967139 
L 282.8822 527.809621 
L 286.663488 529.548722 
L 290.444775 533.077675 
L 294.226063 538.335579 
L 301.788638 543.33634 
L 305.569925 545.50514 
L 309.351213 548.661913 
L 313.132501 551.619061 
L 316.913788 553.980719 
L 320.695076 557.736365 
L 324.476363 560.930355 
L 328.257651 562.07735 
L 332.038939 563.63036 
L 335.820226 564.838257 
L 339.601514 565.494649 
L 343.382801 566.949538 
L 347.164089 565.914198 
L 350.945377 566.340515 
L 354.726664 567.42999 
L 358.507952 566.590891 
L 362.289239 567.095027 
L 366.070527 568.282623 
L 369.851814 569.284129 
L 373.633102 571.419095 
L 377.41439 571.703306 
L 381.195677 571.754058 
L 384.976965 573.175113 
L 388.758252 573.178497 
L 392.53954 573.814588 
L 396.320828 575.347297 
L 400.102115 575.286395 
L 403.883403 575.800682 
L 411.445978 576.254066 
L 415.227265 577.725873 
L 419.008553 579.052191 
L 422.789841 578.101437 
L 426.571128 577.763091 
L 430.352416 578.253693 
L 434.133703 578.104821 
L 437.914991 578.8458 
L 441.696279 578.913469 
L 445.477566 578.774747 
L 449.258854 579.566478 
L 453.040141 580.686404 
L 456.821429 580.635652 
L 460.602716 581.038285 
L 464.384004 580.57475 
L 468.165292 580.655953 
L 471.946579 580.111215 
L 475.727867 580.953698 
L 483.290442 581.336029 
L 487.07173 581.410466 
L 498.415592 581.139789 
L 502.19688 579.407455 
L 505.978167 578.551438 
L 509.759455 577.062714 
L 513.540743 575.895419 
L 517.32203 575.472485 
L 521.103318 574.653687 
L 524.884605 574.484514 
L 528.665893 575.475869 
L 532.447181 575.184891 
L 536.228468 576.643164 
L 540.009756 577.573617 
L 543.791043 577.590534 
L 551.353618 578.429633 
L 555.134906 578.534521 
L 558.916194 579.431139 
L 566.478769 579.634147 
L 570.260056 579.999561 
L 581.603919 580.611968 
L 585.385207 580.76084 
L 589.166494 580.730389 
L 592.947782 580.933397 
L 596.729069 580.858961 
L 600.510357 581.0146 
L 604.291645 580.703322 
L 608.072932 580.06723 
L 611.85422 579.556327 
L 615.635507 579.711966 
L 623.198083 579.035274 
L 626.97937 578.686777 
L 630.760658 578.568355 
L 638.323233 576.930759 
L 649.667096 575.898802 
L 653.448383 575.120605 
L 657.229671 573.993911 
L 661.010958 573.807821 
L 664.792246 573.219098 
L 668.573534 573.439023 
L 672.354821 572.867218 
L 676.136109 572.034886 
L 679.917396 571.842028 
L 683.698684 571.358193 
L 687.479971 570.420973 
L 691.261259 569.855934 
L 695.042547 568.790143 
L 698.823834 569.037136 
L 702.605122 568.742775 
L 706.386409 567.101794 
L 710.167697 565.748409 
L 717.730272 563.735247 
L 721.51156 563.498405 
L 725.292847 563.075472 
L 729.074135 561.640883 
L 736.63671 559.793511 
L 740.417998 559.867947 
L 744.199285 557.773583 
L 751.76186 556.734859 
L 755.543148 557.113807 
L 759.324436 556.890498 
L 763.105723 557.567191 
L 766.887011 557.079973 
L 770.668298 558.957795 
L 774.449586 558.947645 
L 778.230873 559.289375 
L 782.012161 559.492383 
L 785.793449 560.575091 
L 789.574736 561.23825 
L 797.137311 561.979229 
L 804.699887 560.602159 
L 808.481174 559.651406 
L 812.262462 559.922083 
L 816.043749 557.95629 
L 819.825037 557.851402 
L 823.606325 556.998769 
L 827.387612 557.134108 
L 831.1689 556.751776 
L 834.950187 557.063055 
L 838.731475 554.610043 
L 842.512762 553.588237 
L 846.29405 552.12658 
L 850.075338 549.86981 
L 853.856625 548.526574 
L 857.637913 548.543492 
L 861.4192 547.142737 
L 865.200488 547.589355 
L 868.981776 547.761911 
L 876.544351 546.249503 
L 880.325638 546.029577 
L 887.888213 544.209274 
L 891.669501 544.111153 
L 895.450789 542.893106 
L 899.232076 541.133704 
L 903.013364 540.94423 
L 906.794651 538.004 
L 910.575939 537.361141 
L 914.357227 535.500236 
L 918.138514 532.015268 
L 921.919802 526.75398 
L 925.701089 520.518255 
L 929.482377 513.216739 
L 933.263664 509.143048 
L 937.044952 505.471989 
L 940.82624 500.454311 
L 944.607527 492.658809 
L 948.388815 483.92947 
L 952.170102 474.394867 
L 955.95139 463.875676 
L 959.732678 456.756867 
L 963.513965 450.47039 
L 967.295253 441.179396 
L 971.07654 432.845923 
L 974.857828 417.116197 
L 978.639115 403.893618 
L 982.420403 380.601848 
L 986.201691 361.691665 
L 989.982978 346.93976 
L 993.764266 331.575448 
L 997.545553 306.642698 
L 1001.326841 288.077628 
L 1005.108129 262.908036 
L 1008.889416 248.206883 
L 1012.670704 238.053106 
L 1016.451991 226.508725 
L 1020.233279 213.167724 
L 1024.014566 205.554929 
L 1027.795854 194.673707 
L 1031.577142 185.11542 
L 1035.358429 170.431184 
L 1039.139717 164.20561 
L 1042.921004 159.922144 
L 1046.702292 159.989813 
L 1050.48358 155.682663 
L 1050.48358 155.682663 
" style="fill:none;stroke:#000000;stroke-linecap:square;stroke-width:1.5;"/>
   </g>
   <g id="line2d_51">
    <path clip-path="url(#p7c99f0909c)" d="M 78.69267 587.828898 
L 82.473958 588.823636 
L 86.255246 587.592055 
L 90.036533 588.421004 
L 93.817821 588.113109 
L 97.599108 587.521003 
L 101.380396 585.815736 
L 105.161684 583.423627 
L 108.942971 585.38942 
L 112.724259 586.549948 
L 116.505546 583.470996 
L 120.286834 585.365736 
L 124.068121 582.665731 
L 127.849409 570.089393 
L 131.630697 572.670977 
L 135.411984 571.723607 
L 139.193272 564.381489 
L 142.974559 561.278852 
L 146.755847 561.989379 
L 150.537135 564.405173 
L 154.318422 522.744575 
L 158.09971 519.026147 
L 161.880997 525.018263 
L 165.662285 542.947241 
L 169.443572 492.878734 
L 173.22486 476.252389 
L 177.006148 491.552416 
L 184.568723 452.18919 
L 188.35001 440.015485 
L 192.131298 495.176106 
L 195.912586 476.560285 
L 199.693873 479.781343 
L 203.475161 459.93394 
L 207.256448 443.283911 
L 211.037736 442.857595 
L 214.819023 445.036546 
L 218.600311 448.494447 
L 222.381599 501.997171 
L 226.162886 498.278743 
L 229.944174 494.276105 
L 233.725461 471.278696 
L 237.506749 463.012893 
L 241.288037 491.197152 
L 245.069324 522.27089 
L 248.850612 528.997217 
L 252.631899 539.773552 
L 256.413187 530.205114 
L 260.194474 521.205098 
L 263.975762 509.031393 
L 267.75705 503.6077 
L 271.538337 530.868273 
L 275.319625 547.044617 
L 279.100912 546.807774 
L 282.8822 536.102493 
L 286.663488 533.378804 
L 290.444775 533.734068 
L 294.226063 540.413026 
L 298.00735 547.944618 
L 301.788638 564.973595 
L 305.569925 561.989379 
L 309.351213 558.199899 
L 313.132501 554.078839 
L 316.913788 550.265675 
L 320.695076 566.702546 
L 324.476363 570.302552 
L 328.257651 573.002556 
L 332.038939 572.860451 
L 335.820226 566.655177 
L 339.601514 558.673584 
L 343.382801 560.449903 
L 347.164089 559.455165 
L 350.945377 573.286767 
L 354.726664 580.628885 
L 358.507952 566.986757 
L 362.289239 570.18413 
L 366.070527 566.986757 
L 369.851814 567.460442 
L 373.633102 574.399927 
L 377.41439 575.276245 
L 381.195677 580.984149 
L 384.976965 576.934142 
L 388.758252 570.207815 
L 392.53954 571.439396 
L 396.320828 578.189407 
L 400.102115 573.973611 
L 403.883403 578.876251 
L 407.66469 582.239414 
L 411.445978 578.852567 
L 415.227265 580.510464 
L 419.008553 580.723622 
L 422.789841 571.534133 
L 426.571128 571.605186 
L 430.352416 582.310467 
L 434.133703 581.197307 
L 437.914991 584.039418 
L 441.696279 580.984149 
L 445.477566 579.752568 
L 449.258854 577.076248 
L 453.040141 579.444673 
L 456.821429 581.955203 
L 460.602716 584.015733 
L 464.384004 580.794675 
L 468.165292 581.552571 
L 471.946579 575.939404 
L 475.727867 582.973626 
L 479.509154 580.842044 
L 483.290442 583.234153 
L 487.07173 584.536787 
L 490.853017 580.131516 
L 494.634305 580.913096 
L 498.415592 575.347297 
L 502.19688 570.84729 
L 505.978167 574.849928 
L 509.759455 572.813082 
L 513.540743 576.36572 
L 517.32203 577.170985 
L 521.103318 575.181508 
L 524.884605 574.163085 
L 528.665893 577.786775 
L 532.447181 572.813082 
L 536.228468 583.020995 
L 540.009756 582.878889 
L 543.791043 577.289406 
L 547.572331 578.047302 
L 551.353618 577.170985 
L 555.134906 578.520987 
L 558.916194 579.089409 
L 562.697481 583.423627 
L 566.478769 583.897312 
L 570.260056 579.847305 
L 574.041344 579.681515 
L 577.822632 578.615724 
L 581.603919 579.728884 
L 585.385207 580.131516 
L 589.166494 583.210469 
L 592.947782 585.318367 
L 596.729069 579.326252 
L 600.510357 580.770991 
L 604.291645 576.436773 
L 608.072932 575.276245 
L 611.85422 576.555194 
L 615.635507 584.299944 
L 619.416795 583.186785 
L 623.198083 576.720984 
L 626.97937 578.331513 
L 630.760658 575.607824 
L 634.541945 569.781498 
L 638.323233 570.586763 
L 642.10452 581.860466 
L 645.885808 581.031518 
L 649.667096 574.092032 
L 653.448383 572.884135 
L 657.229671 567.720968 
L 661.010958 568.478864 
L 664.792246 566.465703 
L 668.573534 583.399943 
L 672.354821 577.028879 
L 676.136109 568.265706 
L 679.917396 571.534133 
L 683.698684 564.33412 
L 687.479971 561.918327 
L 691.261259 562.510433 
L 695.042547 575.939404 
L 698.823834 578.75783 
L 702.605122 566.205176 
L 706.386409 560.047271 
L 710.167697 554.86042 
L 713.948985 554.765683 
L 717.730272 555.570947 
L 721.51156 574.281506 
L 725.292847 575.797298 
L 729.074135 556.163054 
L 732.855422 553.320943 
L 736.63671 548.655146 
L 740.417998 555.286736 
L 744.199285 540.910396 
L 747.980573 570.563079 
L 751.76186 572.24466 
L 755.543148 558.81569 
L 759.324436 551.757783 
L 763.105723 553.391996 
L 766.887011 551.876204 
L 770.668298 554.055155 
L 774.449586 570.492026 
L 778.230873 574.63677 
L 782.012161 560.236745 
L 785.793449 559.336743 
L 789.574736 558.034109 
L 793.356024 554.670946 
L 797.137311 556.447265 
L 800.918599 565.684123 
L 804.699887 569.805182 
L 808.481174 553.58147 
L 812.262462 561.231483 
L 816.043749 544.273559 
L 819.825037 553.936734 
L 823.606325 550.478833 
L 827.387612 566.631493 
L 831.1689 567.128862 
L 838.731475 544.060401 
L 842.512762 537.120915 
L 846.29405 543.705137 
L 850.075338 534.681438 
L 853.856625 557.228845 
L 857.637913 567.247283 
L 861.4192 545.955141 
L 865.200488 547.186722 
L 868.981776 538.328812 
L 872.763063 538.09197 
L 876.544351 529.707745 
L 880.325638 555.689369 
L 884.106926 560.852535 
L 887.888213 539.607762 
L 891.669501 546.499879 
L 895.450789 529.802482 
L 899.232076 525.776159 
L 903.013364 528.381427 
L 906.794651 535.107754 
L 910.575939 556.352528 
L 914.357227 526.581424 
L 918.138514 522.1051 
L 921.919802 492.973471 
L 925.701089 482.126084 
L 929.482377 477.270812 
L 933.263664 506.591915 
L 937.044952 530.655115 
L 940.82624 491.457679 
L 944.607527 467.536585 
L 948.388815 431.868102 
L 952.170102 415.383863 
L 955.95139 403.636474 
L 959.732678 456.76025 
L 963.513965 486.649776 
L 967.295253 426.420724 
L 971.07654 409.202273 
L 974.857828 321.760017 
L 978.639115 322.825808 
L 982.420403 240.594087 
L 986.201691 324.388969 
L 989.982978 383.386439 
L 993.764266 318.870538 
L 997.545553 234.673025 
L 1001.326841 191.804529 
L 1005.108129 146.638662 
L 1008.889416 137.686015 
L 1012.670704 253.31253 
L 1016.451991 302.575773 
L 1020.233279 225.483535 
L 1024.014566 181.383459 
L 1027.795854 115.635977 
L 1031.577142 79.730652 
L 1035.358429 34.896364 
L 1039.139717 209.733508 
L 1042.921004 272.591511 
L 1046.702292 225.95722 
L 1050.48358 151.233407 
L 1050.48358 151.233407 
" style="fill:none;stroke:#000000;stroke-dasharray:1.5,2.475;stroke-dashoffset:0;stroke-width:1.5;"/>
   </g>
   <g id="patch_7">
    <path d="M 30.103125 616.52 
L 30.103125 7.2 
" style="fill:none;stroke:#ffffff;stroke-linecap:square;stroke-linejoin:miter;"/>
   </g>
   <g id="patch_8">
    <path d="M 1099.073125 616.52 
L 1099.073125 7.2 
" style="fill:none;stroke:#ffffff;stroke-linecap:square;stroke-linejoin:miter;"/>
   </g>
   <g id="patch_9">
    <path d="M 30.103125 616.52 
L 1099.073125 616.52 
" style="fill:none;stroke:#ffffff;stroke-linecap:square;stroke-linejoin:miter;"/>
   </g>
   <g id="patch_10">
    <path d="M 30.103125 7.2 
L 1099.073125 7.2 
" style="fill:none;stroke:#ffffff;stroke-linecap:square;stroke-linejoin:miter;"/>
   </g>
   <g id="legend_1">
    <g id="patch_11">
     <path d="M 37.103125 103.26875 
L 194.298438 103.26875 
Q 196.298438 103.26875 196.298438 101.26875 
L 196.298438 14.2 
Q 196.298438 12.2 194.298438 12.2 
L 37.103125 12.2 
Q 35.103125 12.2 35.103125 14.2 
L 35.103125 101.26875 
Q 35.103125 103.26875 37.103125 103.26875 
z
" style="fill:#e5e5e5;opacity:0.8;stroke:#cccccc;stroke-linejoin:miter;stroke-width:0.5;"/>
    </g>
    <g id="line2d_52">
     <path d="M 39.103125 20.298437 
L 59.103125 20.298437 
" style="fill:none;stroke:#e24a33;stroke-linecap:square;stroke-width:1.5;"/>
    </g>
    <g id="line2d_53"/>
    <g id="text_23">
     <!-- Logistic rate rolling week -->
     <g transform="translate(67.103125 23.798437)scale(0.1 -0.1)">
      <defs>
       <path d="M 9.8125 72.90625 
L 19.671875 72.90625 
L 19.671875 8.296875 
L 55.171875 8.296875 
L 55.171875 0 
L 9.8125 0 
z
" id="DejaVuSans-76"/>
       <path d="M 30.609375 48.390625 
Q 23.390625 48.390625 19.1875 42.75 
Q 14.984375 37.109375 14.984375 27.296875 
Q 14.984375 17.484375 19.15625 11.84375 
Q 23.34375 6.203125 30.609375 6.203125 
Q 37.796875 6.203125 41.984375 11.859375 
Q 46.1875 17.53125 46.1875 27.296875 
Q 46.1875 37.015625 41.984375 42.703125 
Q 37.796875 48.390625 30.609375 48.390625 
z
M 30.609375 56 
Q 42.328125 56 49.015625 48.375 
Q 55.71875 40.765625 55.71875 27.296875 
Q 55.71875 13.875 49.015625 6.21875 
Q 42.328125 -1.421875 30.609375 -1.421875 
Q 18.84375 -1.421875 12.171875 6.21875 
Q 5.515625 13.875 5.515625 27.296875 
Q 5.515625 40.765625 12.171875 48.375 
Q 18.84375 56 30.609375 56 
z
" id="DejaVuSans-111"/>
       <path d="M 45.40625 27.984375 
Q 45.40625 37.75 41.375 43.109375 
Q 37.359375 48.484375 30.078125 48.484375 
Q 22.859375 48.484375 18.828125 43.109375 
Q 14.796875 37.75 14.796875 27.984375 
Q 14.796875 18.265625 18.828125 12.890625 
Q 22.859375 7.515625 30.078125 7.515625 
Q 37.359375 7.515625 41.375 12.890625 
Q 45.40625 18.265625 45.40625 27.984375 
z
M 54.390625 6.78125 
Q 54.390625 -7.171875 48.1875 -13.984375 
Q 42 -20.796875 29.203125 -20.796875 
Q 24.46875 -20.796875 20.265625 -20.09375 
Q 16.0625 -19.390625 12.109375 -17.921875 
L 12.109375 -9.1875 
Q 16.0625 -11.328125 19.921875 -12.34375 
Q 23.78125 -13.375 27.78125 -13.375 
Q 36.625 -13.375 41.015625 -8.765625 
Q 45.40625 -4.15625 45.40625 5.171875 
L 45.40625 9.625 
Q 42.625 4.78125 38.28125 2.390625 
Q 33.9375 0 27.875 0 
Q 17.828125 0 11.671875 7.65625 
Q 5.515625 15.328125 5.515625 27.984375 
Q 5.515625 40.671875 11.671875 48.328125 
Q 17.828125 56 27.875 56 
Q 33.9375 56 38.28125 53.609375 
Q 42.625 51.21875 45.40625 46.390625 
L 45.40625 54.6875 
L 54.390625 54.6875 
z
" id="DejaVuSans-103"/>
       <path d="M 9.421875 54.6875 
L 18.40625 54.6875 
L 18.40625 0 
L 9.421875 0 
z
M 9.421875 75.984375 
L 18.40625 75.984375 
L 18.40625 64.59375 
L 9.421875 64.59375 
z
" id="DejaVuSans-105"/>
       <path d="M 44.28125 53.078125 
L 44.28125 44.578125 
Q 40.484375 46.53125 36.375 47.5 
Q 32.28125 48.484375 27.875 48.484375 
Q 21.1875 48.484375 17.84375 46.4375 
Q 14.5 44.390625 14.5 40.28125 
Q 14.5 37.15625 16.890625 35.375 
Q 19.28125 33.59375 26.515625 31.984375 
L 29.59375 31.296875 
Q 39.15625 29.25 43.1875 25.515625 
Q 47.21875 21.78125 47.21875 15.09375 
Q 47.21875 7.46875 41.1875 3.015625 
Q 35.15625 -1.421875 24.609375 -1.421875 
Q 20.21875 -1.421875 15.453125 -0.5625 
Q 10.6875 0.296875 5.421875 2 
L 5.421875 11.28125 
Q 10.40625 8.6875 15.234375 7.390625 
Q 20.0625 6.109375 24.8125 6.109375 
Q 31.15625 6.109375 34.5625 8.28125 
Q 37.984375 10.453125 37.984375 14.40625 
Q 37.984375 18.0625 35.515625 20.015625 
Q 33.0625 21.96875 24.703125 23.78125 
L 21.578125 24.515625 
Q 13.234375 26.265625 9.515625 29.90625 
Q 5.8125 33.546875 5.8125 39.890625 
Q 5.8125 47.609375 11.28125 51.796875 
Q 16.75 56 26.8125 56 
Q 31.78125 56 36.171875 55.265625 
Q 40.578125 54.546875 44.28125 53.078125 
z
" id="DejaVuSans-115"/>
       <path d="M 18.3125 70.21875 
L 18.3125 54.6875 
L 36.8125 54.6875 
L 36.8125 47.703125 
L 18.3125 47.703125 
L 18.3125 18.015625 
Q 18.3125 11.328125 20.140625 9.421875 
Q 21.96875 7.515625 27.59375 7.515625 
L 36.8125 7.515625 
L 36.8125 0 
L 27.59375 0 
Q 17.1875 0 13.234375 3.875 
Q 9.28125 7.765625 9.28125 18.015625 
L 9.28125 47.703125 
L 2.6875 47.703125 
L 2.6875 54.6875 
L 9.28125 54.6875 
L 9.28125 70.21875 
z
" id="DejaVuSans-116"/>
       <path d="M 48.78125 52.59375 
L 48.78125 44.1875 
Q 44.96875 46.296875 41.140625 47.34375 
Q 37.3125 48.390625 33.40625 48.390625 
Q 24.65625 48.390625 19.8125 42.84375 
Q 14.984375 37.3125 14.984375 27.296875 
Q 14.984375 17.28125 19.8125 11.734375 
Q 24.65625 6.203125 33.40625 6.203125 
Q 37.3125 6.203125 41.140625 7.25 
Q 44.96875 8.296875 48.78125 10.40625 
L 48.78125 2.09375 
Q 45.015625 0.34375 40.984375 -0.53125 
Q 36.96875 -1.421875 32.421875 -1.421875 
Q 20.0625 -1.421875 12.78125 6.34375 
Q 5.515625 14.109375 5.515625 27.296875 
Q 5.515625 40.671875 12.859375 48.328125 
Q 20.21875 56 33.015625 56 
Q 37.15625 56 41.109375 55.140625 
Q 45.0625 54.296875 48.78125 52.59375 
z
" id="DejaVuSans-99"/>
       <path id="DejaVuSans-32"/>
       <path d="M 41.109375 46.296875 
Q 39.59375 47.171875 37.8125 47.578125 
Q 36.03125 48 33.890625 48 
Q 26.265625 48 22.1875 43.046875 
Q 18.109375 38.09375 18.109375 28.8125 
L 18.109375 0 
L 9.078125 0 
L 9.078125 54.6875 
L 18.109375 54.6875 
L 18.109375 46.1875 
Q 20.953125 51.171875 25.484375 53.578125 
Q 30.03125 56 36.53125 56 
Q 37.453125 56 38.578125 55.875 
Q 39.703125 55.765625 41.0625 55.515625 
z
" id="DejaVuSans-114"/>
       <path d="M 34.28125 27.484375 
Q 23.390625 27.484375 19.1875 25 
Q 14.984375 22.515625 14.984375 16.5 
Q 14.984375 11.71875 18.140625 8.90625 
Q 21.296875 6.109375 26.703125 6.109375 
Q 34.1875 6.109375 38.703125 11.40625 
Q 43.21875 16.703125 43.21875 25.484375 
L 43.21875 27.484375 
z
M 52.203125 31.203125 
L 52.203125 0 
L 43.21875 0 
L 43.21875 8.296875 
Q 40.140625 3.328125 35.546875 0.953125 
Q 30.953125 -1.421875 24.3125 -1.421875 
Q 15.921875 -1.421875 10.953125 3.296875 
Q 6 8.015625 6 15.921875 
Q 6 25.140625 12.171875 29.828125 
Q 18.359375 34.515625 30.609375 34.515625 
L 43.21875 34.515625 
L 43.21875 35.40625 
Q 43.21875 41.609375 39.140625 45 
Q 35.0625 48.390625 27.6875 48.390625 
Q 23 48.390625 18.546875 47.265625 
Q 14.109375 46.140625 10.015625 43.890625 
L 10.015625 52.203125 
Q 14.9375 54.109375 19.578125 55.046875 
Q 24.21875 56 28.609375 56 
Q 40.484375 56 46.34375 49.84375 
Q 52.203125 43.703125 52.203125 31.203125 
z
" id="DejaVuSans-97"/>
       <path d="M 56.203125 29.59375 
L 56.203125 25.203125 
L 14.890625 25.203125 
Q 15.484375 15.921875 20.484375 11.0625 
Q 25.484375 6.203125 34.421875 6.203125 
Q 39.59375 6.203125 44.453125 7.46875 
Q 49.3125 8.734375 54.109375 11.28125 
L 54.109375 2.78125 
Q 49.265625 0.734375 44.1875 -0.34375 
Q 39.109375 -1.421875 33.890625 -1.421875 
Q 20.796875 -1.421875 13.15625 6.1875 
Q 5.515625 13.8125 5.515625 26.8125 
Q 5.515625 40.234375 12.765625 48.109375 
Q 20.015625 56 32.328125 56 
Q 43.359375 56 49.78125 48.890625 
Q 56.203125 41.796875 56.203125 29.59375 
z
M 47.21875 32.234375 
Q 47.125 39.59375 43.09375 43.984375 
Q 39.0625 48.390625 32.421875 48.390625 
Q 24.90625 48.390625 20.390625 44.140625 
Q 15.875 39.890625 15.1875 32.171875 
z
" id="DejaVuSans-101"/>
       <path d="M 9.421875 75.984375 
L 18.40625 75.984375 
L 18.40625 0 
L 9.421875 0 
z
" id="DejaVuSans-108"/>
       <path d="M 54.890625 33.015625 
L 54.890625 0 
L 45.90625 0 
L 45.90625 32.71875 
Q 45.90625 40.484375 42.875 44.328125 
Q 39.84375 48.1875 33.796875 48.1875 
Q 26.515625 48.1875 22.3125 43.546875 
Q 18.109375 38.921875 18.109375 30.90625 
L 18.109375 0 
L 9.078125 0 
L 9.078125 54.6875 
L 18.109375 54.6875 
L 18.109375 46.1875 
Q 21.34375 51.125 25.703125 53.5625 
Q 30.078125 56 35.796875 56 
Q 45.21875 56 50.046875 50.171875 
Q 54.890625 44.34375 54.890625 33.015625 
z
" id="DejaVuSans-110"/>
       <path d="M 4.203125 54.6875 
L 13.1875 54.6875 
L 24.421875 12.015625 
L 35.59375 54.6875 
L 46.1875 54.6875 
L 57.421875 12.015625 
L 68.609375 54.6875 
L 77.59375 54.6875 
L 63.28125 0 
L 52.6875 0 
L 40.921875 44.828125 
L 29.109375 0 
L 18.5 0 
z
" id="DejaVuSans-119"/>
       <path d="M 9.078125 75.984375 
L 18.109375 75.984375 
L 18.109375 31.109375 
L 44.921875 54.6875 
L 56.390625 54.6875 
L 27.390625 29.109375 
L 57.625 0 
L 45.90625 0 
L 18.109375 26.703125 
L 18.109375 0 
L 9.078125 0 
z
" id="DejaVuSans-107"/>
      </defs>
      <use xlink:href="#DejaVuSans-76"/>
      <use x="53.962891" xlink:href="#DejaVuSans-111"/>
      <use x="115.144531" xlink:href="#DejaVuSans-103"/>
      <use x="178.621094" xlink:href="#DejaVuSans-105"/>
      <use x="206.404297" xlink:href="#DejaVuSans-115"/>
      <use x="258.503906" xlink:href="#DejaVuSans-116"/>
      <use x="297.712891" xlink:href="#DejaVuSans-105"/>
      <use x="325.496094" xlink:href="#DejaVuSans-99"/>
      <use x="380.476562" xlink:href="#DejaVuSans-32"/>
      <use x="412.263672" xlink:href="#DejaVuSans-114"/>
      <use x="453.376953" xlink:href="#DejaVuSans-97"/>
      <use x="514.65625" xlink:href="#DejaVuSans-116"/>
      <use x="553.865234" xlink:href="#DejaVuSans-101"/>
      <use x="615.388672" xlink:href="#DejaVuSans-32"/>
      <use x="647.175781" xlink:href="#DejaVuSans-114"/>
      <use x="686.039062" xlink:href="#DejaVuSans-111"/>
      <use x="747.220703" xlink:href="#DejaVuSans-108"/>
      <use x="775.003906" xlink:href="#DejaVuSans-108"/>
      <use x="802.787109" xlink:href="#DejaVuSans-105"/>
      <use x="830.570312" xlink:href="#DejaVuSans-110"/>
      <use x="893.949219" xlink:href="#DejaVuSans-103"/>
      <use x="957.425781" xlink:href="#DejaVuSans-32"/>
      <use x="989.212891" xlink:href="#DejaVuSans-119"/>
      <use x="1071" xlink:href="#DejaVuSans-101"/>
      <use x="1132.523438" xlink:href="#DejaVuSans-101"/>
      <use x="1194.046875" xlink:href="#DejaVuSans-107"/>
     </g>
    </g>
    <g id="line2d_54">
     <path d="M 39.103125 34.976562 
L 59.103125 34.976562 
" style="fill:none;stroke:#e24a33;stroke-dasharray:1.5,2.475;stroke-dashoffset:0;stroke-width:1.5;"/>
    </g>
    <g id="line2d_55"/>
    <g id="text_24">
     <!-- Logistic rate -->
     <g transform="translate(67.103125 38.476562)scale(0.1 -0.1)">
      <use xlink:href="#DejaVuSans-76"/>
      <use x="53.962891" xlink:href="#DejaVuSans-111"/>
      <use x="115.144531" xlink:href="#DejaVuSans-103"/>
      <use x="178.621094" xlink:href="#DejaVuSans-105"/>
      <use x="206.404297" xlink:href="#DejaVuSans-115"/>
      <use x="258.503906" xlink:href="#DejaVuSans-116"/>
      <use x="297.712891" xlink:href="#DejaVuSans-105"/>
      <use x="325.496094" xlink:href="#DejaVuSans-99"/>
      <use x="380.476562" xlink:href="#DejaVuSans-32"/>
      <use x="412.263672" xlink:href="#DejaVuSans-114"/>
      <use x="453.376953" xlink:href="#DejaVuSans-97"/>
      <use x="514.65625" xlink:href="#DejaVuSans-116"/>
      <use x="553.865234" xlink:href="#DejaVuSans-101"/>
     </g>
    </g>
    <g id="line2d_56">
     <path d="M 39.103125 49.654687 
L 59.103125 49.654687 
" style="fill:none;stroke:#348abd;stroke-linecap:square;stroke-width:1.5;"/>
    </g>
    <g id="line2d_57"/>
    <g id="text_25">
     <!-- RKI rate rolling week -->
     <g transform="translate(67.103125 53.154687)scale(0.1 -0.1)">
      <defs>
       <path d="M 44.390625 34.1875 
Q 47.5625 33.109375 50.5625 29.59375 
Q 53.5625 26.078125 56.59375 19.921875 
L 66.609375 0 
L 56 0 
L 46.6875 18.703125 
Q 43.0625 26.03125 39.671875 28.421875 
Q 36.28125 30.8125 30.421875 30.8125 
L 19.671875 30.8125 
L 19.671875 0 
L 9.8125 0 
L 9.8125 72.90625 
L 32.078125 72.90625 
Q 44.578125 72.90625 50.734375 67.671875 
Q 56.890625 62.453125 56.890625 51.90625 
Q 56.890625 45.015625 53.6875 40.46875 
Q 50.484375 35.9375 44.390625 34.1875 
z
M 19.671875 64.796875 
L 19.671875 38.921875 
L 32.078125 38.921875 
Q 39.203125 38.921875 42.84375 42.21875 
Q 46.484375 45.515625 46.484375 51.90625 
Q 46.484375 58.296875 42.84375 61.546875 
Q 39.203125 64.796875 32.078125 64.796875 
z
" id="DejaVuSans-82"/>
       <path d="M 9.8125 72.90625 
L 19.671875 72.90625 
L 19.671875 42.09375 
L 52.390625 72.90625 
L 65.09375 72.90625 
L 28.90625 38.921875 
L 67.671875 0 
L 54.6875 0 
L 19.671875 35.109375 
L 19.671875 0 
L 9.8125 0 
z
" id="DejaVuSans-75"/>
       <path d="M 9.8125 72.90625 
L 19.671875 72.90625 
L 19.671875 0 
L 9.8125 0 
z
" id="DejaVuSans-73"/>
      </defs>
      <use xlink:href="#DejaVuSans-82"/>
      <use x="69.482422" xlink:href="#DejaVuSans-75"/>
      <use x="135.058594" xlink:href="#DejaVuSans-73"/>
      <use x="164.550781" xlink:href="#DejaVuSans-32"/>
      <use x="196.337891" xlink:href="#DejaVuSans-114"/>
      <use x="237.451172" xlink:href="#DejaVuSans-97"/>
      <use x="298.730469" xlink:href="#DejaVuSans-116"/>
      <use x="337.939453" xlink:href="#DejaVuSans-101"/>
      <use x="399.462891" xlink:href="#DejaVuSans-32"/>
      <use x="431.25" xlink:href="#DejaVuSans-114"/>
      <use x="470.113281" xlink:href="#DejaVuSans-111"/>
      <use x="531.294922" xlink:href="#DejaVuSans-108"/>
      <use x="559.078125" xlink:href="#DejaVuSans-108"/>
      <use x="586.861328" xlink:href="#DejaVuSans-105"/>
      <use x="614.644531" xlink:href="#DejaVuSans-110"/>
      <use x="678.023438" xlink:href="#DejaVuSans-103"/>
      <use x="741.5" xlink:href="#DejaVuSans-32"/>
      <use x="773.287109" xlink:href="#DejaVuSans-119"/>
      <use x="855.074219" xlink:href="#DejaVuSans-101"/>
      <use x="916.597656" xlink:href="#DejaVuSans-101"/>
      <use x="978.121094" xlink:href="#DejaVuSans-107"/>
     </g>
    </g>
    <g id="line2d_58">
     <path d="M 39.103125 64.332812 
L 59.103125 64.332812 
" style="fill:none;stroke:#348abd;stroke-dasharray:1.5,2.475;stroke-dashoffset:0;stroke-width:1.5;"/>
    </g>
    <g id="line2d_59"/>
    <g id="text_26">
     <!-- RKI rate -->
     <g transform="translate(67.103125 67.832812)scale(0.1 -0.1)">
      <use xlink:href="#DejaVuSans-82"/>
      <use x="69.482422" xlink:href="#DejaVuSans-75"/>
      <use x="135.058594" xlink:href="#DejaVuSans-73"/>
      <use x="164.550781" xlink:href="#DejaVuSans-32"/>
      <use x="196.337891" xlink:href="#DejaVuSans-114"/>
      <use x="237.451172" xlink:href="#DejaVuSans-97"/>
      <use x="298.730469" xlink:href="#DejaVuSans-116"/>
      <use x="337.939453" xlink:href="#DejaVuSans-101"/>
     </g>
    </g>
    <g id="line2d_60">
     <path d="M 39.103125 79.010937 
L 59.103125 79.010937 
" style="fill:none;stroke:#000000;stroke-linecap:square;stroke-width:1.5;"/>
    </g>
    <g id="line2d_61"/>
    <g id="text_27">
     <!-- New Cases rolling week -->
     <g transform="translate(67.103125 82.510937)scale(0.1 -0.1)">
      <defs>
       <path d="M 9.8125 72.90625 
L 23.09375 72.90625 
L 55.421875 11.921875 
L 55.421875 72.90625 
L 64.984375 72.90625 
L 64.984375 0 
L 51.703125 0 
L 19.390625 60.984375 
L 19.390625 0 
L 9.8125 0 
z
" id="DejaVuSans-78"/>
       <path d="M 64.40625 67.28125 
L 64.40625 56.890625 
Q 59.421875 61.53125 53.78125 63.8125 
Q 48.140625 66.109375 41.796875 66.109375 
Q 29.296875 66.109375 22.65625 58.46875 
Q 16.015625 50.828125 16.015625 36.375 
Q 16.015625 21.96875 22.65625 14.328125 
Q 29.296875 6.6875 41.796875 6.6875 
Q 48.140625 6.6875 53.78125 8.984375 
Q 59.421875 11.28125 64.40625 15.921875 
L 64.40625 5.609375 
Q 59.234375 2.09375 53.4375 0.328125 
Q 47.65625 -1.421875 41.21875 -1.421875 
Q 24.65625 -1.421875 15.125 8.703125 
Q 5.609375 18.84375 5.609375 36.375 
Q 5.609375 53.953125 15.125 64.078125 
Q 24.65625 74.21875 41.21875 74.21875 
Q 47.75 74.21875 53.53125 72.484375 
Q 59.328125 70.75 64.40625 67.28125 
z
" id="DejaVuSans-67"/>
      </defs>
      <use xlink:href="#DejaVuSans-78"/>
      <use x="74.804688" xlink:href="#DejaVuSans-101"/>
      <use x="136.328125" xlink:href="#DejaVuSans-119"/>
      <use x="218.115234" xlink:href="#DejaVuSans-32"/>
      <use x="249.902344" xlink:href="#DejaVuSans-67"/>
      <use x="319.726562" xlink:href="#DejaVuSans-97"/>
      <use x="381.005859" xlink:href="#DejaVuSans-115"/>
      <use x="433.105469" xlink:href="#DejaVuSans-101"/>
      <use x="494.628906" xlink:href="#DejaVuSans-115"/>
      <use x="546.728516" xlink:href="#DejaVuSans-32"/>
      <use x="578.515625" xlink:href="#DejaVuSans-114"/>
      <use x="617.378906" xlink:href="#DejaVuSans-111"/>
      <use x="678.560547" xlink:href="#DejaVuSans-108"/>
      <use x="706.34375" xlink:href="#DejaVuSans-108"/>
      <use x="734.126953" xlink:href="#DejaVuSans-105"/>
      <use x="761.910156" xlink:href="#DejaVuSans-110"/>
      <use x="825.289062" xlink:href="#DejaVuSans-103"/>
      <use x="888.765625" xlink:href="#DejaVuSans-32"/>
      <use x="920.552734" xlink:href="#DejaVuSans-119"/>
      <use x="1002.339844" xlink:href="#DejaVuSans-101"/>
      <use x="1063.863281" xlink:href="#DejaVuSans-101"/>
      <use x="1125.386719" xlink:href="#DejaVuSans-107"/>
     </g>
    </g>
    <g id="line2d_62">
     <path d="M 39.103125 93.689062 
L 59.103125 93.689062 
" style="fill:none;stroke:#000000;stroke-dasharray:1.5,2.475;stroke-dashoffset:0;stroke-width:1.5;"/>
    </g>
    <g id="line2d_63"/>
    <g id="text_28">
     <!-- New Cases -->
     <g transform="translate(67.103125 97.189062)scale(0.1 -0.1)">
      <use xlink:href="#DejaVuSans-78"/>
      <use x="74.804688" xlink:href="#DejaVuSans-101"/>
      <use x="136.328125" xlink:href="#DejaVuSans-119"/>
      <use x="218.115234" xlink:href="#DejaVuSans-32"/>
      <use x="249.902344" xlink:href="#DejaVuSans-67"/>
      <use x="319.726562" xlink:href="#DejaVuSans-97"/>
      <use x="381.005859" xlink:href="#DejaVuSans-115"/>
      <use x="433.105469" xlink:href="#DejaVuSans-101"/>
      <use x="494.628906" xlink:href="#DejaVuSans-115"/>
     </g>
    </g>
   </g>
  </g>
 </g>
 <defs>
  <clipPath id="p7c99f0909c">
   <rect height="609.32" width="1068.97" x="30.103125" y="7.2"/>
  </clipPath>
 </defs>
</svg>
