<?xml version="1.0" encoding="utf-8" standalone="no"?>
<!DOCTYPE svg PUBLIC "-//W3C//DTD SVG 1.1//EN"
  "http://www.w3.org/Graphics/SVG/1.1/DTD/svg11.dtd">
<svg height="640.398125pt" version="1.1" viewBox="0 0 1145.085625 640.398125" width="1145.085625pt" xmlns="http://www.w3.org/2000/svg" xmlns:xlink="http://www.w3.org/1999/xlink">
 <metadata>
  <rdf:RDF xmlns:cc="http://creativecommons.org/ns#" xmlns:dc="http://purl.org/dc/elements/1.1/" xmlns:rdf="http://www.w3.org/1999/02/22-rdf-syntax-ns#">
   <cc:Work>
    <dc:type rdf:resource="http://purl.org/dc/dcmitype/StillImage"/>
    <dc:date>2021-05-26T09:01:10.439110</dc:date>
    <dc:format>image/svg+xml</dc:format>
    <dc:creator>
     <cc:Agent>
      <dc:title>Matplotlib v3.4.2, https://matplotlib.org/</dc:title>
     </cc:Agent>
    </dc:creator>
   </cc:Work>
  </rdf:RDF>
 </metadata>
 <defs>
  <style type="text/css">*{stroke-linecap:butt;stroke-linejoin:round;}</style>
 </defs>
 <g id="figure_1">
  <g id="patch_1">
   <path d="M 0 640.398125 
L 1145.085625 640.398125 
L 1145.085625 0 
L 0 0 
z
" style="fill:#ffffff;"/>
  </g>
  <g id="axes_1">
   <g id="patch_2">
    <path d="M 30.103125 616.52 
L 1099.073125 616.52 
L 1099.073125 7.2 
L 30.103125 7.2 
z
" style="fill:#e5e5e5;"/>
   </g>
   <g id="matplotlib.axis_1">
    <g id="xtick_1">
     <g id="line2d_1">
      <path clip-path="url(#p2af4c00bdb)" d="M 82.983138 616.52 
L 82.983138 7.2 
" style="fill:none;stroke:#ffffff;stroke-linecap:square;stroke-width:0.8;"/>
     </g>
     <g id="line2d_2">
      <defs>
       <path d="M 0 0 
L 0 3.5 
" id="m4a0a104cdd" style="stroke:#555555;stroke-width:0.8;"/>
      </defs>
      <g>
       <use style="fill:#555555;stroke:#555555;stroke-width:0.8;" x="82.983138" xlink:href="#m4a0a104cdd" y="616.52"/>
      </g>
     </g>
     <g id="text_1">
      <!-- 2020-03 -->
      <g style="fill:#555555;" transform="translate(62.091732 631.118437)scale(0.1 -0.1)">
       <defs>
        <path d="M 1228 531 
L 3431 531 
L 3431 0 
L 469 0 
L 469 531 
Q 828 903 1448 1529 
Q 2069 2156 2228 2338 
Q 2531 2678 2651 2914 
Q 2772 3150 2772 3378 
Q 2772 3750 2511 3984 
Q 2250 4219 1831 4219 
Q 1534 4219 1204 4116 
Q 875 4013 500 3803 
L 500 4441 
Q 881 4594 1212 4672 
Q 1544 4750 1819 4750 
Q 2544 4750 2975 4387 
Q 3406 4025 3406 3419 
Q 3406 3131 3298 2873 
Q 3191 2616 2906 2266 
Q 2828 2175 2409 1742 
Q 1991 1309 1228 531 
z
" id="DejaVuSans-32" transform="scale(0.015625)"/>
        <path d="M 2034 4250 
Q 1547 4250 1301 3770 
Q 1056 3291 1056 2328 
Q 1056 1369 1301 889 
Q 1547 409 2034 409 
Q 2525 409 2770 889 
Q 3016 1369 3016 2328 
Q 3016 3291 2770 3770 
Q 2525 4250 2034 4250 
z
M 2034 4750 
Q 2819 4750 3233 4129 
Q 3647 3509 3647 2328 
Q 3647 1150 3233 529 
Q 2819 -91 2034 -91 
Q 1250 -91 836 529 
Q 422 1150 422 2328 
Q 422 3509 836 4129 
Q 1250 4750 2034 4750 
z
" id="DejaVuSans-30" transform="scale(0.015625)"/>
        <path d="M 313 2009 
L 1997 2009 
L 1997 1497 
L 313 1497 
L 313 2009 
z
" id="DejaVuSans-2d" transform="scale(0.015625)"/>
        <path d="M 2597 2516 
Q 3050 2419 3304 2112 
Q 3559 1806 3559 1356 
Q 3559 666 3084 287 
Q 2609 -91 1734 -91 
Q 1441 -91 1130 -33 
Q 819 25 488 141 
L 488 750 
Q 750 597 1062 519 
Q 1375 441 1716 441 
Q 2309 441 2620 675 
Q 2931 909 2931 1356 
Q 2931 1769 2642 2001 
Q 2353 2234 1838 2234 
L 1294 2234 
L 1294 2753 
L 1863 2753 
Q 2328 2753 2575 2939 
Q 2822 3125 2822 3475 
Q 2822 3834 2567 4026 
Q 2313 4219 1838 4219 
Q 1578 4219 1281 4162 
Q 984 4106 628 3988 
L 628 4550 
Q 988 4650 1302 4700 
Q 1616 4750 1894 4750 
Q 2613 4750 3031 4423 
Q 3450 4097 3450 3541 
Q 3450 3153 3228 2886 
Q 3006 2619 2597 2516 
z
" id="DejaVuSans-33" transform="scale(0.015625)"/>
       </defs>
       <use xlink:href="#DejaVuSans-32"/>
       <use x="63.623047" xlink:href="#DejaVuSans-30"/>
       <use x="127.246094" xlink:href="#DejaVuSans-32"/>
       <use x="190.869141" xlink:href="#DejaVuSans-30"/>
       <use x="254.492188" xlink:href="#DejaVuSans-2d"/>
       <use x="290.576172" xlink:href="#DejaVuSans-30"/>
       <use x="354.199219" xlink:href="#DejaVuSans-33"/>
      </g>
     </g>
    </g>
    <g id="xtick_2">
     <g id="line2d_3">
      <path clip-path="url(#p2af4c00bdb)" d="M 213.8424 616.52 
L 213.8424 7.2 
" style="fill:none;stroke:#ffffff;stroke-linecap:square;stroke-width:0.8;"/>
     </g>
     <g id="line2d_4">
      <g>
       <use style="fill:#555555;stroke:#555555;stroke-width:0.8;" x="213.8424" xlink:href="#m4a0a104cdd" y="616.52"/>
      </g>
     </g>
     <g id="text_2">
      <!-- 2020-05 -->
      <g style="fill:#555555;" transform="translate(192.950993 631.118437)scale(0.1 -0.1)">
       <defs>
        <path d="M 691 4666 
L 3169 4666 
L 3169 4134 
L 1269 4134 
L 1269 2991 
Q 1406 3038 1543 3061 
Q 1681 3084 1819 3084 
Q 2600 3084 3056 2656 
Q 3513 2228 3513 1497 
Q 3513 744 3044 326 
Q 2575 -91 1722 -91 
Q 1428 -91 1123 -41 
Q 819 9 494 109 
L 494 744 
Q 775 591 1075 516 
Q 1375 441 1709 441 
Q 2250 441 2565 725 
Q 2881 1009 2881 1497 
Q 2881 1984 2565 2268 
Q 2250 2553 1709 2553 
Q 1456 2553 1204 2497 
Q 953 2441 691 2322 
L 691 4666 
z
" id="DejaVuSans-35" transform="scale(0.015625)"/>
       </defs>
       <use xlink:href="#DejaVuSans-32"/>
       <use x="63.623047" xlink:href="#DejaVuSans-30"/>
       <use x="127.246094" xlink:href="#DejaVuSans-32"/>
       <use x="190.869141" xlink:href="#DejaVuSans-30"/>
       <use x="254.492188" xlink:href="#DejaVuSans-2d"/>
       <use x="290.576172" xlink:href="#DejaVuSans-30"/>
       <use x="354.199219" xlink:href="#DejaVuSans-35"/>
      </g>
     </g>
    </g>
    <g id="xtick_3">
     <g id="line2d_5">
      <path clip-path="url(#p2af4c00bdb)" d="M 344.701661 616.52 
L 344.701661 7.2 
" style="fill:none;stroke:#ffffff;stroke-linecap:square;stroke-width:0.8;"/>
     </g>
     <g id="line2d_6">
      <g>
       <use style="fill:#555555;stroke:#555555;stroke-width:0.8;" x="344.701661" xlink:href="#m4a0a104cdd" y="616.52"/>
      </g>
     </g>
     <g id="text_3">
      <!-- 2020-07 -->
      <g style="fill:#555555;" transform="translate(323.810255 631.118437)scale(0.1 -0.1)">
       <defs>
        <path d="M 525 4666 
L 3525 4666 
L 3525 4397 
L 1831 0 
L 1172 0 
L 2766 4134 
L 525 4134 
L 525 4666 
z
" id="DejaVuSans-37" transform="scale(0.015625)"/>
       </defs>
       <use xlink:href="#DejaVuSans-32"/>
       <use x="63.623047" xlink:href="#DejaVuSans-30"/>
       <use x="127.246094" xlink:href="#DejaVuSans-32"/>
       <use x="190.869141" xlink:href="#DejaVuSans-30"/>
       <use x="254.492188" xlink:href="#DejaVuSans-2d"/>
       <use x="290.576172" xlink:href="#DejaVuSans-30"/>
       <use x="354.199219" xlink:href="#DejaVuSans-37"/>
      </g>
     </g>
    </g>
    <g id="xtick_4">
     <g id="line2d_7">
      <path clip-path="url(#p2af4c00bdb)" d="M 477.706156 616.52 
L 477.706156 7.2 
" style="fill:none;stroke:#ffffff;stroke-linecap:square;stroke-width:0.8;"/>
     </g>
     <g id="line2d_8">
      <g>
       <use style="fill:#555555;stroke:#555555;stroke-width:0.8;" x="477.706156" xlink:href="#m4a0a104cdd" y="616.52"/>
      </g>
     </g>
     <g id="text_4">
      <!-- 2020-09 -->
      <g style="fill:#555555;" transform="translate(456.81475 631.118437)scale(0.1 -0.1)">
       <defs>
        <path d="M 703 97 
L 703 672 
Q 941 559 1184 500 
Q 1428 441 1663 441 
Q 2288 441 2617 861 
Q 2947 1281 2994 2138 
Q 2813 1869 2534 1725 
Q 2256 1581 1919 1581 
Q 1219 1581 811 2004 
Q 403 2428 403 3163 
Q 403 3881 828 4315 
Q 1253 4750 1959 4750 
Q 2769 4750 3195 4129 
Q 3622 3509 3622 2328 
Q 3622 1225 3098 567 
Q 2575 -91 1691 -91 
Q 1453 -91 1209 -44 
Q 966 3 703 97 
z
M 1959 2075 
Q 2384 2075 2632 2365 
Q 2881 2656 2881 3163 
Q 2881 3666 2632 3958 
Q 2384 4250 1959 4250 
Q 1534 4250 1286 3958 
Q 1038 3666 1038 3163 
Q 1038 2656 1286 2365 
Q 1534 2075 1959 2075 
z
" id="DejaVuSans-39" transform="scale(0.015625)"/>
       </defs>
       <use xlink:href="#DejaVuSans-32"/>
       <use x="63.623047" xlink:href="#DejaVuSans-30"/>
       <use x="127.246094" xlink:href="#DejaVuSans-32"/>
       <use x="190.869141" xlink:href="#DejaVuSans-30"/>
       <use x="254.492188" xlink:href="#DejaVuSans-2d"/>
       <use x="290.576172" xlink:href="#DejaVuSans-30"/>
       <use x="354.199219" xlink:href="#DejaVuSans-39"/>
      </g>
     </g>
    </g>
    <g id="xtick_5">
     <g id="line2d_9">
      <path clip-path="url(#p2af4c00bdb)" d="M 608.565418 616.52 
L 608.565418 7.2 
" style="fill:none;stroke:#ffffff;stroke-linecap:square;stroke-width:0.8;"/>
     </g>
     <g id="line2d_10">
      <g>
       <use style="fill:#555555;stroke:#555555;stroke-width:0.8;" x="608.565418" xlink:href="#m4a0a104cdd" y="616.52"/>
      </g>
     </g>
     <g id="text_5">
      <!-- 2020-11 -->
      <g style="fill:#555555;" transform="translate(587.674012 631.118437)scale(0.1 -0.1)">
       <defs>
        <path d="M 794 531 
L 1825 531 
L 1825 4091 
L 703 3866 
L 703 4441 
L 1819 4666 
L 2450 4666 
L 2450 531 
L 3481 531 
L 3481 0 
L 794 0 
L 794 531 
z
" id="DejaVuSans-31" transform="scale(0.015625)"/>
       </defs>
       <use xlink:href="#DejaVuSans-32"/>
       <use x="63.623047" xlink:href="#DejaVuSans-30"/>
       <use x="127.246094" xlink:href="#DejaVuSans-32"/>
       <use x="190.869141" xlink:href="#DejaVuSans-30"/>
       <use x="254.492188" xlink:href="#DejaVuSans-2d"/>
       <use x="290.576172" xlink:href="#DejaVuSans-31"/>
       <use x="354.199219" xlink:href="#DejaVuSans-31"/>
      </g>
     </g>
    </g>
    <g id="xtick_6">
     <g id="line2d_11">
      <path clip-path="url(#p2af4c00bdb)" d="M 739.424679 616.52 
L 739.424679 7.2 
" style="fill:none;stroke:#ffffff;stroke-linecap:square;stroke-width:0.8;"/>
     </g>
     <g id="line2d_12">
      <g>
       <use style="fill:#555555;stroke:#555555;stroke-width:0.8;" x="739.424679" xlink:href="#m4a0a104cdd" y="616.52"/>
      </g>
     </g>
     <g id="text_6">
      <!-- 2021-01 -->
      <g style="fill:#555555;" transform="translate(718.533273 631.118437)scale(0.1 -0.1)">
       <use xlink:href="#DejaVuSans-32"/>
       <use x="63.623047" xlink:href="#DejaVuSans-30"/>
       <use x="127.246094" xlink:href="#DejaVuSans-32"/>
       <use x="190.869141" xlink:href="#DejaVuSans-31"/>
       <use x="254.492188" xlink:href="#DejaVuSans-2d"/>
       <use x="290.576172" xlink:href="#DejaVuSans-30"/>
       <use x="354.199219" xlink:href="#DejaVuSans-31"/>
      </g>
     </g>
    </g>
    <g id="xtick_7">
     <g id="line2d_13">
      <path clip-path="url(#p2af4c00bdb)" d="M 865.993473 616.52 
L 865.993473 7.2 
" style="fill:none;stroke:#ffffff;stroke-linecap:square;stroke-width:0.8;"/>
     </g>
     <g id="line2d_14">
      <g>
       <use style="fill:#555555;stroke:#555555;stroke-width:0.8;" x="865.993473" xlink:href="#m4a0a104cdd" y="616.52"/>
      </g>
     </g>
     <g id="text_7">
      <!-- 2021-03 -->
      <g style="fill:#555555;" transform="translate(845.102067 631.118437)scale(0.1 -0.1)">
       <use xlink:href="#DejaVuSans-32"/>
       <use x="63.623047" xlink:href="#DejaVuSans-30"/>
       <use x="127.246094" xlink:href="#DejaVuSans-32"/>
       <use x="190.869141" xlink:href="#DejaVuSans-31"/>
       <use x="254.492188" xlink:href="#DejaVuSans-2d"/>
       <use x="290.576172" xlink:href="#DejaVuSans-30"/>
       <use x="354.199219" xlink:href="#DejaVuSans-33"/>
      </g>
     </g>
    </g>
    <g id="xtick_8">
     <g id="line2d_15">
      <path clip-path="url(#p2af4c00bdb)" d="M 996.852735 616.52 
L 996.852735 7.2 
" style="fill:none;stroke:#ffffff;stroke-linecap:square;stroke-width:0.8;"/>
     </g>
     <g id="line2d_16">
      <g>
       <use style="fill:#555555;stroke:#555555;stroke-width:0.8;" x="996.852735" xlink:href="#m4a0a104cdd" y="616.52"/>
      </g>
     </g>
     <g id="text_8">
      <!-- 2021-05 -->
      <g style="fill:#555555;" transform="translate(975.961328 631.118437)scale(0.1 -0.1)">
       <use xlink:href="#DejaVuSans-32"/>
       <use x="63.623047" xlink:href="#DejaVuSans-30"/>
       <use x="127.246094" xlink:href="#DejaVuSans-32"/>
       <use x="190.869141" xlink:href="#DejaVuSans-31"/>
       <use x="254.492188" xlink:href="#DejaVuSans-2d"/>
       <use x="290.576172" xlink:href="#DejaVuSans-30"/>
       <use x="354.199219" xlink:href="#DejaVuSans-35"/>
      </g>
     </g>
    </g>
   </g>
   <g id="matplotlib.axis_2">
    <g id="ytick_1">
     <g id="line2d_17">
      <path clip-path="url(#p2af4c00bdb)" d="M 30.103125 568.206943 
L 1099.073125 568.206943 
" style="fill:none;stroke:#ffffff;stroke-linecap:square;stroke-width:0.8;"/>
     </g>
     <g id="line2d_18">
      <defs>
       <path d="M 0 0 
L -3.5 0 
" id="m4fdaafe211" style="stroke:#555555;stroke-width:0.8;"/>
      </defs>
      <g>
       <use style="fill:#555555;stroke:#555555;stroke-width:0.8;" x="30.103125" xlink:href="#m4fdaafe211" y="568.206943"/>
      </g>
     </g>
     <g id="text_9">
      <!-- 0.5 -->
      <g style="fill:#555555;" transform="translate(7.2 572.006162)scale(0.1 -0.1)">
       <defs>
        <path d="M 684 794 
L 1344 794 
L 1344 0 
L 684 0 
L 684 794 
z
" id="DejaVuSans-2e" transform="scale(0.015625)"/>
       </defs>
       <use xlink:href="#DejaVuSans-30"/>
       <use x="63.623047" xlink:href="#DejaVuSans-2e"/>
       <use x="95.410156" xlink:href="#DejaVuSans-35"/>
      </g>
     </g>
    </g>
    <g id="ytick_2">
     <g id="line2d_19">
      <path clip-path="url(#p2af4c00bdb)" d="M 30.103125 496.852391 
L 1099.073125 496.852391 
" style="fill:none;stroke:#ffffff;stroke-linecap:square;stroke-width:0.8;"/>
     </g>
     <g id="line2d_20">
      <g>
       <use style="fill:#555555;stroke:#555555;stroke-width:0.8;" x="30.103125" xlink:href="#m4fdaafe211" y="496.852391"/>
      </g>
     </g>
     <g id="text_10">
      <!-- 1.0 -->
      <g style="fill:#555555;" transform="translate(7.2 500.651609)scale(0.1 -0.1)">
       <use xlink:href="#DejaVuSans-31"/>
       <use x="63.623047" xlink:href="#DejaVuSans-2e"/>
       <use x="95.410156" xlink:href="#DejaVuSans-30"/>
      </g>
     </g>
    </g>
    <g id="ytick_3">
     <g id="line2d_21">
      <path clip-path="url(#p2af4c00bdb)" d="M 30.103125 425.497838 
L 1099.073125 425.497838 
" style="fill:none;stroke:#ffffff;stroke-linecap:square;stroke-width:0.8;"/>
     </g>
     <g id="line2d_22">
      <g>
       <use style="fill:#555555;stroke:#555555;stroke-width:0.8;" x="30.103125" xlink:href="#m4fdaafe211" y="425.497838"/>
      </g>
     </g>
     <g id="text_11">
      <!-- 1.5 -->
      <g style="fill:#555555;" transform="translate(7.2 429.297057)scale(0.1 -0.1)">
       <use xlink:href="#DejaVuSans-31"/>
       <use x="63.623047" xlink:href="#DejaVuSans-2e"/>
       <use x="95.410156" xlink:href="#DejaVuSans-35"/>
      </g>
     </g>
    </g>
    <g id="ytick_4">
     <g id="line2d_23">
      <path clip-path="url(#p2af4c00bdb)" d="M 30.103125 354.143286 
L 1099.073125 354.143286 
" style="fill:none;stroke:#ffffff;stroke-linecap:square;stroke-width:0.8;"/>
     </g>
     <g id="line2d_24">
      <g>
       <use style="fill:#555555;stroke:#555555;stroke-width:0.8;" x="30.103125" xlink:href="#m4fdaafe211" y="354.143286"/>
      </g>
     </g>
     <g id="text_12">
      <!-- 2.0 -->
      <g style="fill:#555555;" transform="translate(7.2 357.942505)scale(0.1 -0.1)">
       <use xlink:href="#DejaVuSans-32"/>
       <use x="63.623047" xlink:href="#DejaVuSans-2e"/>
       <use x="95.410156" xlink:href="#DejaVuSans-30"/>
      </g>
     </g>
    </g>
    <g id="ytick_5">
     <g id="line2d_25">
      <path clip-path="url(#p2af4c00bdb)" d="M 30.103125 282.788733 
L 1099.073125 282.788733 
" style="fill:none;stroke:#ffffff;stroke-linecap:square;stroke-width:0.8;"/>
     </g>
     <g id="line2d_26">
      <g>
       <use style="fill:#555555;stroke:#555555;stroke-width:0.8;" x="30.103125" xlink:href="#m4fdaafe211" y="282.788733"/>
      </g>
     </g>
     <g id="text_13">
      <!-- 2.5 -->
      <g style="fill:#555555;" transform="translate(7.2 286.587952)scale(0.1 -0.1)">
       <use xlink:href="#DejaVuSans-32"/>
       <use x="63.623047" xlink:href="#DejaVuSans-2e"/>
       <use x="95.410156" xlink:href="#DejaVuSans-35"/>
      </g>
     </g>
    </g>
    <g id="ytick_6">
     <g id="line2d_27">
      <path clip-path="url(#p2af4c00bdb)" d="M 30.103125 211.434181 
L 1099.073125 211.434181 
" style="fill:none;stroke:#ffffff;stroke-linecap:square;stroke-width:0.8;"/>
     </g>
     <g id="line2d_28">
      <g>
       <use style="fill:#555555;stroke:#555555;stroke-width:0.8;" x="30.103125" xlink:href="#m4fdaafe211" y="211.434181"/>
      </g>
     </g>
     <g id="text_14">
      <!-- 3.0 -->
      <g style="fill:#555555;" transform="translate(7.2 215.2334)scale(0.1 -0.1)">
       <use xlink:href="#DejaVuSans-33"/>
       <use x="63.623047" xlink:href="#DejaVuSans-2e"/>
       <use x="95.410156" xlink:href="#DejaVuSans-30"/>
      </g>
     </g>
    </g>
    <g id="ytick_7">
     <g id="line2d_29">
      <path clip-path="url(#p2af4c00bdb)" d="M 30.103125 140.079629 
L 1099.073125 140.079629 
" style="fill:none;stroke:#ffffff;stroke-linecap:square;stroke-width:0.8;"/>
     </g>
     <g id="line2d_30">
      <g>
       <use style="fill:#555555;stroke:#555555;stroke-width:0.8;" x="30.103125" xlink:href="#m4fdaafe211" y="140.079629"/>
      </g>
     </g>
     <g id="text_15">
      <!-- 3.5 -->
      <g style="fill:#555555;" transform="translate(7.2 143.878847)scale(0.1 -0.1)">
       <use xlink:href="#DejaVuSans-33"/>
       <use x="63.623047" xlink:href="#DejaVuSans-2e"/>
       <use x="95.410156" xlink:href="#DejaVuSans-35"/>
      </g>
     </g>
    </g>
    <g id="ytick_8">
     <g id="line2d_31">
      <path clip-path="url(#p2af4c00bdb)" d="M 30.103125 68.725076 
L 1099.073125 68.725076 
" style="fill:none;stroke:#ffffff;stroke-linecap:square;stroke-width:0.8;"/>
     </g>
     <g id="line2d_32">
      <g>
       <use style="fill:#555555;stroke:#555555;stroke-width:0.8;" x="30.103125" xlink:href="#m4fdaafe211" y="68.725076"/>
      </g>
     </g>
     <g id="text_16">
      <!-- 4.0 -->
      <g style="fill:#555555;" transform="translate(7.2 72.524295)scale(0.1 -0.1)">
       <defs>
        <path d="M 2419 4116 
L 825 1625 
L 2419 1625 
L 2419 4116 
z
M 2253 4666 
L 3047 4666 
L 3047 1625 
L 3713 1625 
L 3713 1100 
L 3047 1100 
L 3047 0 
L 2419 0 
L 2419 1100 
L 313 1100 
L 313 1709 
L 2253 4666 
z
" id="DejaVuSans-34" transform="scale(0.015625)"/>
       </defs>
       <use xlink:href="#DejaVuSans-34"/>
       <use x="63.623047" xlink:href="#DejaVuSans-2e"/>
       <use x="95.410156" xlink:href="#DejaVuSans-30"/>
      </g>
     </g>
    </g>
   </g>
   <g id="line2d_33">
    <path clip-path="url(#p2af4c00bdb)" d="M 87.273606 111.805831 
L 89.418839 83.575048 
L 91.564073 119.077314 
L 93.709307 102.114786 
L 95.854541 93.833905 
L 97.999775 102.902369 
L 100.145008 121.515141 
L 102.290242 155.559854 
L 104.435476 198.834487 
L 106.58071 209.50018 
L 108.725944 238.739043 
L 110.871177 261.731258 
L 113.016411 268.972281 
L 115.161645 275.283621 
L 117.306879 268.983332 
L 119.452113 265.123728 
L 123.74258 279.786287 
L 125.887814 292.008575 
L 128.033048 308.665483 
L 130.178282 318.372236 
L 132.323515 325.932492 
L 134.468749 331.354149 
L 136.613983 337.697783 
L 138.759217 346.989337 
L 140.904451 358.346748 
L 143.049684 370.664977 
L 149.485386 401.2302 
L 151.630619 412.691771 
L 153.775853 422.353601 
L 155.921087 430.200258 
L 158.066321 436.386228 
L 160.211555 441.923538 
L 162.356788 446.380977 
L 164.502022 450.108603 
L 166.647256 454.575245 
L 173.082957 466.686685 
L 175.228191 469.955627 
L 177.373425 472.869528 
L 179.518659 475.293527 
L 185.95436 481.12219 
L 188.099594 482.558511 
L 190.244828 483.592479 
L 192.390062 484.200345 
L 198.825763 485.722929 
L 207.406698 488.658162 
L 222.423335 492.246575 
L 226.713802 492.751231 
L 231.00427 493.080283 
L 246.020906 493.671212 
L 252.456608 494.136556 
L 261.037543 494.507347 
L 273.908946 495.002927 
L 278.199413 495.081438 
L 282.489881 495.08014 
L 306.087453 495.434524 
L 316.813622 495.514098 
L 323.249323 495.229192 
L 329.685024 494.812482 
L 333.975492 494.7228 
L 338.26596 494.786234 
L 346.846895 495.111694 
L 376.880168 495.5082 
L 396.187272 495.172947 
L 441.237182 493.808713 
L 458.399052 493.175757 
L 464.834754 493.035489 
L 473.415689 493.231252 
L 490.577559 493.670678 
L 514.175131 493.130614 
L 520.610832 492.753827 
L 524.9013 492.617642 
L 537.772703 492.523127 
L 546.353638 492.342427 
L 554.934573 491.887378 
L 559.225041 491.37194 
L 567.805976 489.801345 
L 572.096443 489.023076 
L 576.386911 487.914072 
L 580.677378 486.837457 
L 587.11308 485.354975 
L 589.258314 484.734212 
L 591.403547 483.930952 
L 597.839249 481.16671 
L 602.129716 479.482854 
L 606.420184 477.896471 
L 610.710652 477.078447 
L 615.001119 476.806509 
L 617.146353 476.762971 
L 623.582054 477.096132 
L 627.872522 477.440452 
L 634.308223 478.349491 
L 645.034392 480.406517 
L 651.470094 481.569994 
L 655.760561 482.201986 
L 672.922432 484.213431 
L 683.648601 484.97832 
L 692.229536 484.893847 
L 698.665237 484.537298 
L 702.955705 484.254535 
L 711.53664 483.798292 
L 722.262809 483.736725 
L 724.408043 483.885249 
L 728.69851 484.907985 
L 732.988978 486.162532 
L 735.134212 486.542206 
L 739.424679 487.028633 
L 752.296082 487.83172 
L 754.441316 487.87174 
L 758.731783 487.534866 
L 763.022251 486.944736 
L 767.312719 486.873847 
L 771.603186 487.29945 
L 778.038888 488.039275 
L 795.200758 489.154683 
L 812.362628 489.962135 
L 840.250668 490.90818 
L 857.412538 490.773276 
L 881.01011 490.497582 
L 889.591045 490.375094 
L 902.462448 489.832586 
L 930.350487 488.340789 
L 936.786188 488.210433 
L 943.22189 488.376229 
L 949.657591 488.660319 
L 953.948059 488.574595 
L 960.38376 488.03544 
L 966.819462 487.43852 
L 971.109929 487.346377 
L 981.836098 487.222656 
L 994.707501 487.216881 
L 1011.869371 487.847638 
L 1020.450306 488.106847 
L 1026.886008 488.375544 
L 1033.321709 488.700196 
L 1050.48358 489.152725 
L 1050.48358 489.152725 
" style="fill:none;stroke:#e24a33;stroke-linecap:square;stroke-width:1.5;"/>
   </g>
   <g id="line2d_34">
    <path clip-path="url(#p2af4c00bdb)" d="M 87.273606 111.805831 
L 89.418839 55.344265 
L 91.564073 190.081847 
L 93.709307 51.2272 
L 95.854541 60.710381 
L 100.145008 233.191776 
L 102.290242 350.118819 
L 104.435476 358.266698 
L 106.58071 264.741694 
L 108.725944 255.899245 
L 110.871177 221.655887 
L 113.016411 198.93185 
L 115.161645 277.371155 
L 117.306879 306.016792 
L 119.452113 331.249476 
L 121.597346 315.075296 
L 123.74258 308.203552 
L 125.887814 307.211903 
L 128.033048 315.530209 
L 130.178282 345.318422 
L 132.323515 358.938588 
L 134.468749 369.20107 
L 136.613983 359.480736 
L 140.904451 386.713781 
L 143.049684 401.757812 
L 145.194918 415.430861 
L 147.340152 430.468964 
L 149.485386 441.514812 
L 151.630619 439.711734 
L 153.775853 440.877241 
L 155.921087 441.640384 
L 158.066321 445.059601 
L 160.211555 454.192031 
L 162.356788 461.671037 
L 164.502022 467.608196 
L 166.647256 470.978226 
L 168.79249 469.491911 
L 170.937724 470.10258 
L 173.082957 472.762818 
L 175.228191 477.074619 
L 177.373425 482.068343 
L 179.518659 484.57619 
L 181.663893 484.799818 
L 183.809126 484.05799 
L 185.95436 482.51555 
L 188.099594 482.817071 
L 190.244828 484.312391 
L 192.390062 486.323406 
L 194.535295 488.016431 
L 196.680529 488.271347 
L 198.825763 487.804308 
L 200.970997 487.640865 
L 203.116231 488.265791 
L 205.261464 489.684471 
L 207.406698 490.923923 
L 209.551932 491.702311 
L 211.697166 491.994867 
L 213.8424 491.449894 
L 215.987633 491.667739 
L 218.132867 492.170429 
L 220.278101 492.928135 
L 222.423335 493.812647 
L 224.568569 493.825347 
L 231.00427 492.469985 
L 233.149504 492.73528 
L 235.294737 493.562359 
L 237.439971 493.818315 
L 239.585205 494.221607 
L 241.730439 494.004399 
L 243.875673 493.539295 
L 248.16614 494.008447 
L 250.311374 494.512339 
L 252.456608 494.852574 
L 261.037543 494.392902 
L 265.328011 495.07555 
L 267.473244 495.101216 
L 269.618478 495.327713 
L 271.763712 495.392617 
L 273.908946 495.031189 
L 276.05418 494.789069 
L 280.344647 494.871365 
L 284.635115 495.613361 
L 288.925582 495.393126 
L 291.070816 495.241332 
L 295.361284 495.418607 
L 299.651751 495.614571 
L 301.796985 495.417658 
L 306.087453 495.387472 
L 308.232687 495.443949 
L 310.37792 495.726893 
L 316.813622 495.382793 
L 318.958855 494.939266 
L 323.249323 494.511434 
L 325.394557 494.549483 
L 327.539791 494.759247 
L 336.120726 494.736931 
L 340.411193 495.267882 
L 342.556427 495.254522 
L 344.701661 495.421801 
L 348.992129 495.104906 
L 353.282596 495.333336 
L 355.42783 495.544094 
L 359.718298 495.606121 
L 364.008765 495.330961 
L 368.299233 495.451298 
L 370.444467 495.658077 
L 374.734934 495.667286 
L 381.170636 495.074523 
L 389.751571 495.491191 
L 391.896805 495.230762 
L 394.042038 494.82972 
L 396.187272 494.649563 
L 404.768207 495.128392 
L 409.058675 494.345428 
L 411.203909 494.126991 
L 415.494376 494.719934 
L 417.63961 494.719623 
L 419.784844 494.872439 
L 421.930078 494.323742 
L 424.075311 493.893127 
L 426.220545 493.737391 
L 428.365779 493.871535 
L 430.511013 494.292537 
L 432.656247 494.42347 
L 434.80148 494.362945 
L 439.091948 493.108858 
L 441.237182 492.825651 
L 443.382416 493.23855 
L 445.527649 493.833857 
L 449.818117 493.839528 
L 451.963351 493.150959 
L 454.108585 492.603525 
L 456.253818 492.214837 
L 458.399052 492.700796 
L 460.544286 493.351024 
L 462.68952 493.460709 
L 464.834754 493.766569 
L 469.125221 492.807129 
L 471.270455 492.70181 
L 475.560923 493.763153 
L 479.85139 494.134765 
L 481.996624 493.828539 
L 484.141858 493.334725 
L 486.287091 493.253757 
L 488.432325 493.424959 
L 490.577559 493.728494 
L 492.722793 493.715085 
L 494.868027 493.844119 
L 497.01326 493.33333 
L 499.158494 492.958305 
L 501.303728 492.901626 
L 503.448962 493.044997 
L 505.594196 493.609248 
L 507.739429 493.665857 
L 509.884663 493.529694 
L 512.029897 492.848732 
L 516.320365 491.845212 
L 518.465598 492.177508 
L 520.610832 492.895644 
L 522.756066 492.968203 
L 524.9013 493.274053 
L 527.046534 492.864687 
L 529.191767 492.225542 
L 531.337001 491.890343 
L 533.482235 492.102854 
L 535.627469 492.623329 
L 537.772703 492.68108 
L 539.917936 493.069638 
L 542.06317 492.530659 
L 544.208404 491.798555 
L 548.498872 491.378176 
L 550.644105 491.96865 
L 552.789339 492.020172 
L 554.934573 491.924555 
L 557.079807 491.099301 
L 559.225041 489.621852 
L 561.370274 488.688046 
L 563.515508 488.445529 
L 565.660742 489.278743 
L 567.805976 489.551386 
L 569.951209 489.457315 
L 572.096443 488.118658 
L 574.241677 486.023195 
L 576.386911 484.523676 
L 578.532145 484.498075 
L 580.677378 485.689892 
L 584.967846 486.393387 
L 587.11308 484.266108 
L 589.258314 481.677855 
L 591.403547 478.900858 
L 593.548781 477.873956 
L 595.694015 479.334405 
L 599.984483 480.181749 
L 602.129716 478.690757 
L 604.27495 475.720954 
L 606.420184 473.75308 
L 608.565418 474.684164 
L 610.710652 476.798028 
L 612.855885 478.439872 
L 615.001119 479.558705 
L 617.146353 478.385994 
L 619.291587 476.249264 
L 621.436821 474.673348 
L 623.582054 475.567712 
L 625.727288 477.810853 
L 627.872522 479.837284 
L 630.017756 481.478649 
L 632.16299 480.502615 
L 634.308223 478.575975 
L 636.453457 477.416926 
L 638.598691 478.172402 
L 640.743925 480.858634 
L 642.889159 483.039482 
L 645.034392 484.279586 
L 647.179626 483.443125 
L 649.32486 481.251497 
L 651.470094 479.945234 
L 653.615327 480.553461 
L 655.760561 482.90152 
L 657.905795 484.864214 
L 660.051029 485.785718 
L 662.196263 484.879018 
L 664.341496 483.099803 
L 666.48673 481.983601 
L 668.631964 482.81406 
L 670.777198 484.700771 
L 672.922432 486.231048 
L 675.067665 487.006412 
L 677.212899 486.04601 
L 679.358133 484.410838 
L 681.503367 483.183698 
L 683.648601 483.269464 
L 687.939068 486.132429 
L 690.084302 486.582611 
L 692.229536 485.931158 
L 694.37477 483.818886 
L 696.520003 482.151084 
L 698.665237 482.398189 
L 700.810471 483.453031 
L 702.955705 485.446785 
L 705.100939 485.672097 
L 707.246172 485.017121 
L 711.53664 481.423704 
L 713.681874 482.160826 
L 715.827108 483.422958 
L 717.972341 485.077709 
L 720.117575 485.873343 
L 724.408043 484.216781 
L 726.553277 484.797289 
L 728.69851 485.946392 
L 730.843744 488.035478 
L 732.988978 489.247023 
L 735.134212 488.531058 
L 737.279445 486.846849 
L 739.424679 485.796344 
L 741.569913 485.852235 
L 743.715147 486.987866 
L 745.860381 489.022929 
L 748.005614 489.985999 
L 750.150848 489.263942 
L 752.296082 487.912722 
L 754.441316 486.076483 
L 756.58655 485.034645 
L 758.731783 485.447338 
L 760.877017 486.647359 
L 763.022251 488.23066 
L 765.167485 488.656207 
L 767.312719 488.024237 
L 769.457952 487.264675 
L 771.603186 486.825674 
L 773.74842 487.292931 
L 775.893654 488.688368 
L 778.038888 489.52283 
L 780.184121 489.723858 
L 782.329355 489.241231 
L 784.474589 488.452918 
L 786.619823 488.088292 
L 788.765057 488.367657 
L 790.91029 489.360103 
L 793.055524 490.176222 
L 795.200758 490.396359 
L 797.345992 490.016248 
L 801.636459 489.085348 
L 803.781693 489.22477 
L 805.926927 490.047987 
L 808.072161 490.58406 
L 810.217395 490.753391 
L 812.362628 490.53854 
L 814.507862 490.03889 
L 816.653096 489.739562 
L 818.79833 489.80858 
L 823.088797 491.07451 
L 825.234031 491.223441 
L 827.379265 491.106559 
L 831.669732 490.419329 
L 833.814966 490.541289 
L 838.105434 491.292917 
L 840.250668 491.334602 
L 846.686369 490.407761 
L 848.831603 490.393411 
L 853.12207 491.08288 
L 855.267304 491.145678 
L 859.557772 490.509376 
L 861.703006 490.133936 
L 863.848239 490.134657 
L 868.138707 490.940328 
L 870.283941 490.975067 
L 874.574408 490.348549 
L 876.719642 489.997446 
L 878.864876 490.046299 
L 883.155344 490.834995 
L 885.300577 490.848586 
L 889.591045 489.979776 
L 891.736279 489.466308 
L 893.881513 489.360629 
L 898.17198 490.243643 
L 900.317214 490.185226 
L 902.462448 489.776707 
L 906.752915 488.502587 
L 908.898149 488.479053 
L 913.188617 489.609198 
L 915.33385 489.607394 
L 917.479084 489.083276 
L 921.769552 487.540316 
L 923.914786 487.459308 
L 928.205253 488.834781 
L 930.350487 489.00919 
L 932.495721 488.602071 
L 934.640955 487.934444 
L 936.786188 487.459364 
L 938.931422 487.717999 
L 943.22189 489.349416 
L 945.367124 489.78128 
L 947.512357 489.330566 
L 951.802825 487.506717 
L 953.948059 487.070575 
L 956.093293 487.438367 
L 958.238526 488.186986 
L 960.38376 488.292373 
L 966.819462 486.365082 
L 968.964695 486.485914 
L 973.255163 488.168473 
L 975.400397 488.093621 
L 977.545631 487.568732 
L 979.690864 486.771208 
L 981.836098 486.092622 
L 983.981332 486.380064 
L 988.271799 487.982683 
L 990.417033 488.014768 
L 992.562267 487.714887 
L 994.707501 487.120202 
L 996.852735 486.738782 
L 998.997968 487.000018 
L 1003.288436 488.447522 
L 1005.43367 488.465646 
L 1007.578904 488.188058 
L 1011.869371 487.377195 
L 1014.014605 487.602075 
L 1016.159839 488.252475 
L 1018.305073 488.780534 
L 1020.450306 488.793289 
L 1024.740774 488.360716 
L 1026.886008 488.274776 
L 1029.031242 488.537183 
L 1031.176475 489.038421 
L 1033.321709 489.332045 
L 1041.902644 488.720566 
L 1044.047878 488.891467 
L 1046.193112 489.287012 
L 1050.48358 489.746595 
L 1050.48358 489.746595 
" style="fill:none;stroke:#e24a33;stroke-dasharray:1.5,2.475;stroke-dashoffset:0;stroke-width:1.5;"/>
   </g>
   <g id="line2d_35">
    <path clip-path="url(#p2af4c00bdb)" d="M 87.273606 254.516175 
L 89.418839 226.285689 
L 91.564073 261.788161 
L 93.709307 244.826322 
L 95.854541 204.217058 
L 97.999775 199.894138 
L 100.145008 207.516933 
L 102.290242 234.849298 
L 104.435476 271.646541 
L 106.58071 268.739736 
L 108.725944 279.349456 
L 110.871177 287.201682 
L 113.016411 266.718371 
L 115.161645 271.27814 
L 117.306879 255.549005 
L 119.452113 245.904111 
L 123.74258 262.824025 
L 125.887814 293.031841 
L 128.033048 331.202354 
L 130.178282 343.202952 
L 132.323515 352.018837 
L 134.468749 356.000731 
L 136.613983 359.355287 
L 138.759217 369.557677 
L 140.904451 384.911623 
L 143.049684 404.382614 
L 147.340152 433.518871 
L 149.485386 447.347161 
L 151.630619 462.022459 
L 153.775853 474.318159 
L 155.921087 481.509878 
L 160.211555 486.248507 
L 162.356788 488.86927 
L 164.502022 492.072153 
L 166.647256 498.635991 
L 168.79249 503.694714 
L 170.937724 509.243501 
L 173.082957 515.514823 
L 175.228191 518.453623 
L 177.373425 523.218369 
L 179.518659 527.14706 
L 183.809126 531.192059 
L 185.95436 528.694996 
L 188.099594 523.559842 
L 190.244828 518.932148 
L 192.390062 513.793776 
L 194.535295 511.134947 
L 196.680529 509.425998 
L 198.825763 508.482936 
L 200.970997 511.203875 
L 203.116231 515.548393 
L 205.261464 520.613011 
L 207.406698 524.827644 
L 209.551932 526.653798 
L 211.697166 528.261737 
L 213.8424 528.2127 
L 215.987633 528.858035 
L 218.132867 530.779752 
L 220.278101 531.934713 
L 222.423335 534.505336 
L 224.568569 534.52322 
L 226.713802 531.311783 
L 228.859036 526.452264 
L 231.00427 513.995649 
L 233.149504 504.047722 
L 235.294737 501.015451 
L 237.439971 496.524506 
L 239.585205 496.344328 
L 241.730439 497.477745 
L 243.875673 497.280365 
L 246.020906 507.367734 
L 248.16614 513.776484 
L 250.311374 516.946378 
L 252.456608 521.071782 
L 256.747075 517.020301 
L 258.892309 517.091735 
L 261.037543 511.682194 
L 263.182777 513.502049 
L 265.328011 514.627204 
L 267.473244 511.846677 
L 269.618478 514.114891 
L 271.763712 517.268213 
L 273.908946 516.956001 
L 276.05418 518.12011 
L 278.199413 510.342595 
L 280.344647 496.019602 
L 282.489881 493.576459 
L 284.635115 494.359099 
L 286.780349 494.893205 
L 288.925582 501.916727 
L 291.070816 505.479213 
L 293.21605 506.058512 
L 295.361284 513.119314 
L 297.506518 512.261865 
L 299.651751 508.553998 
L 301.796985 502.686344 
L 303.942219 495.705936 
L 306.087453 493.427066 
L 308.232687 497.103532 
L 310.37792 505.002585 
L 312.523154 506.776168 
L 314.668388 505.375656 
L 316.813622 501.936602 
L 318.958855 482.623106 
L 321.104089 466.148775 
L 323.249323 444.130201 
L 325.394557 423.568337 
L 327.539791 416.710564 
L 329.685024 412.181105 
L 331.830258 416.385261 
L 333.975492 439.567416 
L 336.120726 458.895308 
L 338.26596 487.117295 
L 340.411193 507.311631 
L 342.556427 514.403503 
L 344.701661 522.260906 
L 346.846895 522.508767 
L 348.992129 516.582091 
L 351.137362 515.442083 
L 353.282596 511.355344 
L 355.42783 510.913348 
L 357.573064 513.181795 
L 361.863531 510.913289 
L 364.008765 509.131473 
L 366.153999 505.245572 
L 368.299233 503.436619 
L 370.444467 502.458046 
L 372.5897 500.965915 
L 374.734934 499.985891 
L 376.880168 498.032072 
L 379.025402 490.519777 
L 383.315869 474.140178 
L 385.461103 468.868669 
L 387.606337 467.607381 
L 389.751571 467.836421 
L 391.896805 468.3346 
L 394.042038 470.03291 
L 396.187272 468.497001 
L 398.332506 465.410065 
L 400.47774 461.828578 
L 402.622973 460.329695 
L 404.768207 459.624936 
L 406.913441 458.294619 
L 409.058675 460.975803 
L 411.203909 462.750405 
L 413.349142 467.208465 
L 415.494376 472.168671 
L 417.63961 472.908 
L 419.784844 474.021603 
L 421.930078 473.333846 
L 424.075311 471.242934 
L 426.220545 473.011496 
L 428.365779 470.545765 
L 430.511013 470.112878 
L 432.656247 470.693509 
L 434.80148 468.849726 
L 436.946714 469.197134 
L 439.091948 467.583313 
L 441.237182 462.939527 
L 443.382416 464.633047 
L 445.527649 465.300561 
L 447.672883 465.769653 
L 449.818117 466.722654 
L 451.963351 466.830721 
L 454.108585 468.26283 
L 456.253818 470.798908 
L 458.399052 472.713618 
L 460.544286 473.442693 
L 462.68952 473.205842 
L 464.834754 474.984975 
L 466.979987 478.96022 
L 469.125221 484.922613 
L 471.270455 493.013935 
L 473.415689 497.647871 
L 475.560923 499.323912 
L 477.706156 501.495188 
L 479.85139 501.904843 
L 481.996624 502.51057 
L 484.141858 502.898199 
L 486.287091 502.026031 
L 488.432325 500.047868 
L 490.577559 496.423621 
L 494.868027 488.22817 
L 497.01326 483.61658 
L 499.158494 481.013923 
L 503.448962 480.890631 
L 505.594196 483.47981 
L 507.739429 485.141621 
L 509.884663 484.957719 
L 512.029897 484.328771 
L 514.175131 480.642678 
L 516.320365 473.096514 
L 518.465598 469.717357 
L 520.610832 468.070459 
L 522.756066 467.071954 
L 524.9013 469.791962 
L 527.046534 474.303408 
L 529.191767 479.805778 
L 531.337001 486.917718 
L 533.482235 488.82197 
L 535.627469 487.124205 
L 539.917936 485.003363 
L 542.06317 483.684681 
L 544.208404 483.052113 
L 546.353638 483.410316 
L 548.498872 480.523724 
L 550.644105 478.847352 
L 552.789339 477.518618 
L 554.934573 473.438874 
L 557.079807 470.063402 
L 559.225041 463.33224 
L 561.370274 453.257296 
L 563.515508 447.258677 
L 565.660742 442.794503 
L 567.805976 441.252731 
L 569.951209 441.540468 
L 572.096443 441.428537 
L 574.241677 442.424201 
L 576.386911 442.39178 
L 578.532145 443.138898 
L 580.677378 443.679948 
L 582.822612 443.556995 
L 584.967846 444.33192 
L 587.11308 444.253674 
L 589.258314 445.357405 
L 591.403547 445.332608 
L 593.548781 441.561282 
L 595.694015 438.349202 
L 597.839249 434.608365 
L 599.984483 432.036658 
L 602.129716 432.598926 
L 604.27495 435.162389 
L 606.420184 441.50327 
L 608.565418 451.710961 
L 610.710652 457.590499 
L 612.855885 462.923056 
L 615.001119 466.679313 
L 617.146353 469.314821 
L 619.291587 473.239113 
L 621.436821 476.457828 
L 623.582054 478.712751 
L 625.727288 480.467025 
L 627.872522 481.728265 
L 630.017756 483.301946 
L 636.453457 488.672827 
L 638.598691 489.347075 
L 640.743925 490.988939 
L 642.889159 493.101566 
L 647.179626 496.361834 
L 649.32486 496.484809 
L 653.615327 493.338457 
L 655.760561 492.301607 
L 662.196263 492.833371 
L 664.341496 492.940657 
L 666.48673 492.723924 
L 670.777198 494.376705 
L 675.067665 494.995473 
L 677.212899 494.613723 
L 679.358133 493.973762 
L 681.503367 492.823412 
L 683.648601 489.887233 
L 685.793834 487.371521 
L 690.084302 483.61489 
L 692.229536 482.980096 
L 694.37477 481.680855 
L 696.520003 479.349603 
L 698.665237 478.437589 
L 700.810471 475.600399 
L 707.246172 474.71761 
L 709.391406 476.06701 
L 711.53664 476.401754 
L 715.827108 481.104169 
L 717.972341 481.532091 
L 720.117575 482.893777 
L 722.262809 483.401197 
L 724.408043 485.603831 
L 728.69851 503.223029 
L 730.843744 513.983146 
L 732.988978 521.459875 
L 735.134212 523.071267 
L 737.279445 520.897469 
L 739.424679 512.186441 
L 741.569913 498.605755 
L 743.715147 492.912227 
L 745.860381 492.667636 
L 748.005614 493.03266 
L 752.296082 494.372618 
L 754.441316 489.585217 
L 758.731783 466.019397 
L 760.877017 455.165695 
L 763.022251 450.274877 
L 765.167485 450.160842 
L 767.312719 453.88764 
L 769.457952 468.334186 
L 771.603186 489.658641 
L 773.74842 501.470736 
L 775.893654 508.674198 
L 778.038888 510.584063 
L 780.184121 511.196626 
L 782.329355 511.52066 
L 784.474589 508.924981 
L 786.619823 506.855668 
L 790.91029 503.323758 
L 793.055524 503.354491 
L 795.200758 503.707044 
L 797.345992 504.308187 
L 799.491226 506.265069 
L 801.636459 506.632437 
L 803.781693 505.752929 
L 805.926927 505.500159 
L 808.072161 504.460612 
L 810.217395 503.951478 
L 812.362628 504.130372 
L 814.507862 503.431131 
L 816.653096 503.894416 
L 818.79833 504.099939 
L 820.943563 503.233758 
L 823.088797 504.441123 
L 825.234031 505.486836 
L 827.379265 507.110126 
L 829.524499 509.800402 
L 831.669732 509.61117 
L 833.814966 509.855784 
L 835.9602 508.406348 
L 838.105434 506.531551 
L 840.250668 504.879835 
L 842.395901 501.084668 
L 844.541135 496.895089 
L 848.831603 487.221727 
L 850.976837 485.841577 
L 853.12207 483.897582 
L 855.267304 482.611625 
L 857.412538 482.11483 
L 859.557772 481.208409 
L 861.703006 481.301959 
L 863.848239 481.223987 
L 865.993473 481.489306 
L 868.138707 482.234601 
L 870.283941 482.614474 
L 872.429175 483.199551 
L 876.719642 483.974613 
L 878.864876 485.638938 
L 881.01011 486.211502 
L 883.155344 486.630297 
L 885.300577 486.628802 
L 887.445811 485.266001 
L 889.591045 482.702258 
L 891.736279 477.392314 
L 893.881513 470.436507 
L 896.026746 466.639057 
L 898.17198 464.26505 
L 900.317214 462.322466 
L 904.607681 460.914817 
L 906.752915 461.062064 
L 908.898149 463.65625 
L 911.043383 464.308604 
L 915.33385 466.1111 
L 917.479084 466.530837 
L 921.769552 467.549627 
L 923.914786 466.597035 
L 928.205253 466.166483 
L 930.350487 466.733809 
L 932.495721 468.498016 
L 934.640955 472.071122 
L 936.786188 479.513019 
L 938.931422 487.746943 
L 941.076656 493.629237 
L 945.367124 502.306392 
L 947.512357 505.323679 
L 949.657591 505.835349 
L 951.802825 499.378185 
L 953.948059 480.394941 
L 956.093293 464.592657 
L 958.238526 455.840543 
L 960.38376 448.894216 
L 962.528994 443.558 
L 964.674228 442.342332 
L 966.819462 446.74793 
L 968.964695 463.315895 
L 971.109929 477.718882 
L 973.255163 484.397361 
L 975.400397 487.502388 
L 977.545631 489.29689 
L 979.690864 488.221475 
L 981.836098 485.804041 
L 983.981332 486.228454 
L 986.126566 485.940549 
L 988.271799 486.331422 
L 990.417033 487.142336 
L 992.562267 488.447131 
L 994.707501 491.152699 
L 996.852735 496.409412 
L 998.997968 500.578496 
L 1001.143202 502.576461 
L 1003.288436 504.19565 
L 1005.43367 505.033263 
L 1007.578904 505.675379 
L 1009.724137 506.642941 
L 1011.869371 505.803481 
L 1014.014605 505.216921 
L 1016.159839 505.940299 
L 1018.305073 506.022486 
L 1022.59554 506.64423 
L 1024.740774 507.342462 
L 1026.886008 511.065082 
L 1029.031242 515.884905 
L 1031.176475 520.326258 
L 1033.321709 522.457291 
L 1035.466943 522.091403 
L 1037.612177 520.658534 
L 1039.757411 517.204398 
L 1041.902644 511.889977 
L 1044.047878 510.18115 
L 1046.193112 509.455166 
L 1048.338346 509.784297 
L 1050.48358 514.066846 
L 1050.48358 514.066846 
" style="fill:none;stroke:#348abd;stroke-linecap:square;stroke-width:1.5;"/>
   </g>
   <g id="line2d_36">
    <path clip-path="url(#p2af4c00bdb)" d="M 87.273606 254.516175 
L 89.418839 198.055202 
L 91.564073 332.793105 
L 93.709307 193.940807 
L 95.854541 41.780001 
L 97.999775 178.279541 
L 100.145008 253.253699 
L 102.290242 445.842731 
L 104.435476 455.635905 
L 106.58071 312.445469 
L 108.725944 268.208845 
L 110.871177 96.745585 
L 113.016411 34.896364 
L 115.161645 285.172083 
L 119.452113 388.121644 
L 121.597346 370.765777 
L 123.74258 328.327941 
L 125.887814 308.200296 
L 128.033048 302.089954 
L 130.178282 369.176269 
L 132.323515 397.449976 
L 134.468749 415.994907 
L 136.613983 394.247669 
L 138.759217 399.74467 
L 140.904451 415.677919 
L 143.049684 438.386889 
L 145.194918 473.793125 
L 147.340152 496.786914 
L 149.485386 512.792942 
L 151.630619 496.974753 
L 153.775853 485.814572 
L 155.921087 466.019952 
L 158.066321 454.580592 
L 160.211555 490.769819 
L 162.356788 515.132256 
L 164.502022 535.213124 
L 166.647256 542.921619 
L 168.79249 521.225636 
L 170.937724 504.861463 
L 173.082957 498.479847 
L 175.228191 511.341415 
L 177.373425 548.48548 
L 179.518659 562.713962 
L 181.663893 557.076278 
L 183.809126 535.385968 
L 185.95436 487.382021 
L 188.099594 462.533769 
L 190.244828 478.947558 
L 192.390062 512.516873 
L 194.535295 544.10216 
L 196.680529 545.113636 
L 198.825763 528.784538 
L 200.970997 506.428591 
L 203.116231 492.945394 
L 205.261464 514.399884 
L 207.406698 542.019306 
L 209.551932 556.885237 
L 211.697166 556.369205 
L 213.8424 528.441282 
L 215.987633 510.945933 
L 218.132867 506.397416 
L 220.278101 522.484608 
L 222.423335 560.013671 
L 224.568569 557.010422 
L 226.713802 533.889151 
L 228.859036 494.424647 
L 231.00427 423.749629 
L 233.149504 436.761927 
L 235.294737 501.258708 
L 239.585205 555.749177 
L 241.730439 541.823067 
L 243.875673 493.042991 
L 246.020906 494.361209 
L 248.16614 481.623179 
L 250.311374 523.447964 
L 252.456608 557.454887 
L 254.601842 541.842485 
L 256.747075 527.369392 
L 258.892309 493.543026 
L 261.037543 456.494422 
L 265.328011 531.324052 
L 267.473244 537.991198 
L 269.618478 557.719986 
L 271.763712 549.442641 
L 273.908946 491.357541 
L 276.05418 464.643185 
L 278.199413 439.919564 
L 280.344647 431.063096 
L 282.489881 520.8892 
L 284.635115 563.198465 
L 286.780349 553.181386 
L 288.925582 540.522193 
L 291.070816 489.580589 
L 293.21605 443.974656 
L 295.361284 480.48871 
L 297.506518 514.887058 
L 299.651751 537.243392 
L 301.796985 512.107808 
L 303.942219 491.659337 
L 306.087453 473.628503 
L 308.232687 469.709915 
L 310.37792 535.782084 
L 312.523154 527.302139 
L 314.668388 527.439805 
L 316.813622 488.034427 
L 318.958855 356.464869 
L 321.104089 358.308187 
L 323.249323 315.579896 
L 325.394557 391.849036 
L 327.539791 479.297725 
L 329.685024 495.733591 
L 331.830258 517.463524 
L 333.975492 518.739953 
L 336.120726 493.603429 
L 340.411193 533.209385 
L 342.556427 528.940828 
L 344.701661 550.735417 
L 346.846895 519.198548 
L 348.992129 477.253221 
L 351.137362 485.623371 
L 353.282596 484.526638 
L 355.42783 530.115415 
L 357.573064 544.819957 
L 359.718298 542.842478 
L 361.863531 511.21194 
L 364.008765 464.78051 
L 366.153999 458.422065 
L 368.299233 471.863969 
L 370.444467 523.265402 
L 372.5897 534.375043 
L 374.734934 535.982306 
L 376.880168 497.535209 
L 379.025402 412.194447 
L 381.170636 401.474543 
L 383.315869 414.154294 
L 385.461103 486.36484 
L 387.606337 525.54603 
L 389.751571 537.585585 
L 391.896805 501.022462 
L 394.042038 424.082617 
L 396.187272 390.723183 
L 398.332506 392.545736 
L 400.47774 461.294436 
L 402.622973 515.053848 
L 404.768207 532.652269 
L 406.913441 491.710241 
L 409.058675 442.850909 
L 411.203909 403.145392 
L 413.349142 423.752161 
L 415.494376 496.015878 
L 417.63961 520.229149 
L 419.784844 540.447491 
L 421.930078 486.895941 
L 424.075311 428.214523 
L 426.220545 415.525328 
L 428.365779 406.492046 
L 430.511013 492.985666 
L 432.656247 524.293569 
L 434.80148 527.541007 
L 436.946714 489.327796 
L 439.091948 416.917782 
L 441.237182 383.018821 
L 443.382416 418.346691 
L 445.527649 497.658261 
L 447.672883 527.577218 
L 449.818117 534.21201 
L 451.963351 490.084265 
L 454.108585 426.942548 
L 456.253818 400.771367 
L 458.399052 431.749657 
L 460.544286 502.761785 
L 462.68952 525.91926 
L 464.834754 546.665946 
L 466.979987 517.910978 
L 469.125221 468.679297 
L 471.270455 457.410623 
L 473.415689 464.187206 
L 475.560923 514.494072 
L 477.706156 541.118195 
L 479.85139 549.533528 
L 481.996624 522.151066 
L 484.141858 471.392701 
L 486.287091 451.305448 
L 488.432325 450.340067 
L 490.577559 489.124344 
L 492.722793 512.082324 
L 494.868027 521.201239 
L 497.01326 489.869937 
L 499.158494 453.174102 
L 501.303728 451.011018 
L 503.448962 449.771455 
L 505.594196 507.248594 
L 507.739429 523.715003 
L 509.884663 519.913923 
L 512.029897 485.467301 
L 514.175131 427.371449 
L 516.320365 398.187871 
L 518.465598 426.117355 
L 520.610832 495.720307 
L 522.756066 516.72547 
L 524.9013 538.953981 
L 527.046534 517.047423 
L 529.191767 465.888039 
L 531.337001 447.971449 
L 533.482235 439.447123 
L 535.627469 483.835948 
L 537.772703 509.302792 
L 539.917936 531.53077 
L 542.06317 507.816648 
L 544.208404 461.460061 
L 546.353638 450.478871 
L 548.498872 419.240982 
L 550.644105 472.101339 
L 552.789339 500.001659 
L 554.934573 502.972557 
L 557.079807 484.188346 
L 559.225041 414.341922 
L 561.370274 379.954263 
L 563.515508 377.250654 
L 565.660742 440.852118 
L 567.805976 489.209256 
L 569.951209 504.986712 
L 572.096443 483.404835 
L 574.241677 421.311567 
L 576.386911 379.727315 
L 578.532145 382.480486 
L 580.677378 444.639467 
L 582.822612 488.348584 
L 584.967846 510.411186 
L 587.11308 482.857113 
L 589.258314 429.03768 
L 591.403547 379.553741 
L 593.548781 356.081202 
L 595.694015 422.15491 
L 597.839249 462.162721 
L 599.984483 492.409242 
L 602.129716 486.792989 
L 604.27495 446.981917 
L 606.420184 423.939906 
L 608.565418 427.53504 
L 612.855885 499.490621 
L 615.001119 518.703041 
L 617.146353 505.241544 
L 619.291587 474.451961 
L 621.436821 446.470915 
L 623.582054 443.319499 
L 627.872522 508.319295 
L 630.017756 529.718814 
L 632.16299 517.777603 
L 634.308223 487.358302 
L 636.453457 458.62468 
L 638.598691 448.039233 
L 640.743925 487.084646 
L 642.889159 523.107681 
L 645.034392 540.818945 
L 647.179626 529.499353 
L 651.470094 448.000939 
L 653.615327 436.638516 
L 657.905795 524.421257 
L 660.051029 542.88069 
L 662.196263 529.846376 
L 666.48673 446.483806 
L 668.631964 442.023277 
L 670.777198 486.011401 
L 672.922432 526.742228 
L 675.067665 544.891094 
L 677.212899 527.17413 
L 679.358133 484.4904 
L 681.503367 438.431355 
L 683.648601 421.470023 
L 687.939068 513.479891 
L 690.084302 531.857011 
L 692.229536 522.730572 
L 694.37477 475.395711 
L 696.520003 422.112592 
L 698.665237 415.085925 
L 700.810471 448.54109 
L 702.955705 511.363293 
L 705.100939 530.285414 
L 707.246172 520.239245 
L 709.391406 484.841511 
L 711.53664 424.455799 
L 713.681874 431.50191 
L 715.827108 465.042014 
L 717.972341 514.358744 
L 720.117575 539.817214 
L 722.262809 523.791188 
L 724.408043 500.259949 
L 726.553277 486.287027 
L 728.69851 493.005067 
L 730.843744 540.362834 
L 732.988978 566.695846 
L 735.134212 551.096957 
L 737.279445 508.574604 
L 739.424679 439.282754 
L 741.569913 391.222223 
L 743.715147 453.15037 
L 745.860381 538.650695 
L 748.005614 569.251018 
L 750.150848 555.635157 
L 752.296082 513.41611 
L 754.441316 405.770945 
L 756.58655 307.349599 
L 758.731783 372.062254 
L 760.877017 462.674782 
L 763.022251 535.015292 
L 765.167485 554.836912 
L 767.312719 539.503699 
L 769.457952 506.896764 
L 771.603186 456.620784 
L 773.74842 454.746917 
L 775.893654 513.099016 
L 778.038888 548.384349 
L 780.184121 559.12485 
L 782.329355 541.77194 
L 784.474589 488.727014 
L 786.619823 442.135591 
L 788.765057 442.065502 
L 790.91029 501.057059 
L 793.055524 548.599478 
L 795.200758 561.592727 
L 797.345992 545.979937 
L 799.491226 502.425186 
L 801.636459 444.70717 
L 803.781693 435.908948 
L 805.926927 499.287666 
L 808.072161 541.32265 
L 810.217395 558.02879 
L 812.362628 547.232197 
L 816.653096 447.95017 
L 818.79833 437.347607 
L 823.088797 549.77421 
L 825.234031 565.348779 
L 827.379265 558.595229 
L 829.524499 516.362425 
L 831.669732 446.625547 
L 833.814966 439.059902 
L 835.9602 483.078347 
L 838.105434 536.650625 
L 840.250668 553.786771 
L 842.395901 532.02906 
L 844.541135 487.03537 
L 846.686369 413.485182 
L 848.831603 404.486731 
L 850.976837 473.417304 
L 853.12207 523.04266 
L 855.267304 544.785069 
L 857.412538 528.551493 
L 859.557772 480.690427 
L 861.703006 414.140032 
L 863.848239 403.940923 
L 865.993473 475.274539 
L 868.138707 528.259724 
L 870.283941 547.444181 
L 872.429175 532.647032 
L 874.574408 483.309107 
L 876.719642 416.946784 
L 878.864876 415.591202 
L 881.01011 479.282483 
L 883.155344 531.191291 
L 885.300577 547.433713 
L 887.445811 523.107425 
L 889.591045 465.362911 
L 891.736279 379.777176 
L 893.881513 366.90055 
L 896.026746 452.700332 
L 898.17198 514.573241 
L 900.317214 533.835625 
L 902.462448 518.351447 
L 904.607681 460.265345 
L 906.752915 380.807905 
L 908.898149 385.059858 
L 911.043383 457.266809 
L 913.188617 520.524718 
L 915.33385 540.501618 
L 917.479084 521.289606 
L 919.624318 464.208757 
L 921.769552 383.996024 
L 923.914786 378.391713 
L 926.060019 455.821927 
L 928.205253 518.955733 
L 930.350487 544.472903 
L 932.495721 533.639053 
L 934.640955 489.220501 
L 936.786188 436.089305 
L 938.931422 436.029179 
L 941.076656 496.997983 
L 943.22189 549.947753 
L 945.367124 574.220972 
L 947.512357 554.760061 
L 949.657591 492.802188 
L 951.802825 390.889155 
L 953.948059 303.146472 
L 956.093293 386.381996 
L 958.238526 488.682956 
L 960.38376 525.596687 
L 962.528994 517.406545 
L 964.674228 484.292517 
L 966.819462 421.728339 
L 968.964695 419.122228 
L 971.109929 487.202906 
L 973.255163 535.432308 
L 975.400397 547.331873 
L 977.545631 529.968061 
L 979.690864 476.764613 
L 981.836098 404.806299 
L 983.981332 422.093114 
L 986.126566 485.187574 
L 988.271799 538.168418 
L 990.417033 553.008275 
L 992.562267 539.101626 
L 994.707501 495.703584 
L 996.852735 441.603292 
L 998.997968 451.276704 
L 1003.288436 549.502739 
L 1005.43367 558.871565 
L 1007.578904 543.596437 
L 1009.724137 502.476518 
L 1011.869371 435.727079 
L 1014.014605 447.17078 
L 1016.159839 504.236978 
L 1018.305073 550.078048 
L 1020.450306 561.40701 
L 1022.59554 545.4132 
L 1024.740774 507.364137 
L 1026.886008 461.785424 
L 1029.031242 480.909536 
L 1031.176475 535.326451 
L 1033.321709 564.995279 
L 1035.466943 558.845793 
L 1037.612177 535.383122 
L 1039.757411 483.18518 
L 1041.902644 424.584478 
L 1044.047878 468.947747 
L 1046.193112 530.244563 
L 1048.338346 567.299194 
L 1050.48358 588.823636 
L 1050.48358 588.823636 
" style="fill:none;stroke:#348abd;stroke-dasharray:1.5,2.475;stroke-dashoffset:0;stroke-width:1.5;"/>
   </g>
   <g id="line2d_37">
    <path clip-path="url(#p2af4c00bdb)" d="M 30.103125 496.852391 
L 1099.073125 496.852391 
" style="fill:none;stroke:#008000;stroke-linecap:square;stroke-opacity:0.5;stroke-width:1.5;"/>
   </g>
   <g id="patch_3">
    <path d="M 30.103125 616.52 
L 30.103125 7.2 
" style="fill:none;stroke:#ffffff;stroke-linecap:square;stroke-linejoin:miter;"/>
   </g>
   <g id="patch_4">
    <path d="M 1099.073125 616.52 
L 1099.073125 7.2 
" style="fill:none;stroke:#ffffff;stroke-linecap:square;stroke-linejoin:miter;"/>
   </g>
   <g id="patch_5">
    <path d="M 30.103125 616.52 
L 1099.073125 616.52 
" style="fill:none;stroke:#ffffff;stroke-linecap:square;stroke-linejoin:miter;"/>
   </g>
   <g id="patch_6">
    <path d="M 30.103125 7.2 
L 1099.073125 7.2 
" style="fill:none;stroke:#ffffff;stroke-linecap:square;stroke-linejoin:miter;"/>
   </g>
  </g>
  <g id="axes_2">
   <g id="matplotlib.axis_3">
    <g id="ytick_9">
     <g id="line2d_38">
      <path clip-path="url(#p2af4c00bdb)" d="M 30.103125 589.00409 
L 1099.073125 589.00409 
" style="fill:none;stroke:#ffffff;stroke-linecap:square;stroke-width:0.8;"/>
     </g>
     <g id="line2d_39">
      <defs>
       <path d="M 0 0 
L 3.5 0 
" id="meb1f424183" style="stroke:#555555;stroke-width:0.8;"/>
      </defs>
      <g>
       <use style="fill:#555555;stroke:#555555;stroke-width:0.8;" x="1099.073125" xlink:href="#meb1f424183" y="589.00409"/>
      </g>
     </g>
     <g id="text_17">
      <!-- 0 -->
      <g style="fill:#555555;" transform="translate(1106.073125 592.803309)scale(0.1 -0.1)">
       <use xlink:href="#DejaVuSans-30"/>
      </g>
     </g>
    </g>
    <g id="ytick_10">
     <g id="line2d_40">
      <path clip-path="url(#p2af4c00bdb)" d="M 30.103125 506.979676 
L 1099.073125 506.979676 
" style="fill:none;stroke:#ffffff;stroke-linecap:square;stroke-width:0.8;"/>
     </g>
     <g id="line2d_41">
      <g>
       <use style="fill:#555555;stroke:#555555;stroke-width:0.8;" x="1099.073125" xlink:href="#meb1f424183" y="506.979676"/>
      </g>
     </g>
     <g id="text_18">
      <!-- 5000 -->
      <g style="fill:#555555;" transform="translate(1106.073125 510.778895)scale(0.1 -0.1)">
       <use xlink:href="#DejaVuSans-35"/>
       <use x="63.623047" xlink:href="#DejaVuSans-30"/>
       <use x="127.246094" xlink:href="#DejaVuSans-30"/>
       <use x="190.869141" xlink:href="#DejaVuSans-30"/>
      </g>
     </g>
    </g>
    <g id="ytick_11">
     <g id="line2d_42">
      <path clip-path="url(#p2af4c00bdb)" d="M 30.103125 424.955262 
L 1099.073125 424.955262 
" style="fill:none;stroke:#ffffff;stroke-linecap:square;stroke-width:0.8;"/>
     </g>
     <g id="line2d_43">
      <g>
       <use style="fill:#555555;stroke:#555555;stroke-width:0.8;" x="1099.073125" xlink:href="#meb1f424183" y="424.955262"/>
      </g>
     </g>
     <g id="text_19">
      <!-- 10000 -->
      <g style="fill:#555555;" transform="translate(1106.073125 428.754481)scale(0.1 -0.1)">
       <use xlink:href="#DejaVuSans-31"/>
       <use x="63.623047" xlink:href="#DejaVuSans-30"/>
       <use x="127.246094" xlink:href="#DejaVuSans-30"/>
       <use x="190.869141" xlink:href="#DejaVuSans-30"/>
       <use x="254.492188" xlink:href="#DejaVuSans-30"/>
      </g>
     </g>
    </g>
    <g id="ytick_12">
     <g id="line2d_44">
      <path clip-path="url(#p2af4c00bdb)" d="M 30.103125 342.930848 
L 1099.073125 342.930848 
" style="fill:none;stroke:#ffffff;stroke-linecap:square;stroke-width:0.8;"/>
     </g>
     <g id="line2d_45">
      <g>
       <use style="fill:#555555;stroke:#555555;stroke-width:0.8;" x="1099.073125" xlink:href="#meb1f424183" y="342.930848"/>
      </g>
     </g>
     <g id="text_20">
      <!-- 15000 -->
      <g style="fill:#555555;" transform="translate(1106.073125 346.730067)scale(0.1 -0.1)">
       <use xlink:href="#DejaVuSans-31"/>
       <use x="63.623047" xlink:href="#DejaVuSans-35"/>
       <use x="127.246094" xlink:href="#DejaVuSans-30"/>
       <use x="190.869141" xlink:href="#DejaVuSans-30"/>
       <use x="254.492188" xlink:href="#DejaVuSans-30"/>
      </g>
     </g>
    </g>
    <g id="ytick_13">
     <g id="line2d_46">
      <path clip-path="url(#p2af4c00bdb)" d="M 30.103125 260.906434 
L 1099.073125 260.906434 
" style="fill:none;stroke:#ffffff;stroke-linecap:square;stroke-width:0.8;"/>
     </g>
     <g id="line2d_47">
      <g>
       <use style="fill:#555555;stroke:#555555;stroke-width:0.8;" x="1099.073125" xlink:href="#meb1f424183" y="260.906434"/>
      </g>
     </g>
     <g id="text_21">
      <!-- 20000 -->
      <g style="fill:#555555;" transform="translate(1106.073125 264.705653)scale(0.1 -0.1)">
       <use xlink:href="#DejaVuSans-32"/>
       <use x="63.623047" xlink:href="#DejaVuSans-30"/>
       <use x="127.246094" xlink:href="#DejaVuSans-30"/>
       <use x="190.869141" xlink:href="#DejaVuSans-30"/>
       <use x="254.492188" xlink:href="#DejaVuSans-30"/>
      </g>
     </g>
    </g>
    <g id="ytick_14">
     <g id="line2d_48">
      <path clip-path="url(#p2af4c00bdb)" d="M 30.103125 178.88202 
L 1099.073125 178.88202 
" style="fill:none;stroke:#ffffff;stroke-linecap:square;stroke-width:0.8;"/>
     </g>
     <g id="line2d_49">
      <g>
       <use style="fill:#555555;stroke:#555555;stroke-width:0.8;" x="1099.073125" xlink:href="#meb1f424183" y="178.88202"/>
      </g>
     </g>
     <g id="text_22">
      <!-- 25000 -->
      <g style="fill:#555555;" transform="translate(1106.073125 182.681239)scale(0.1 -0.1)">
       <use xlink:href="#DejaVuSans-32"/>
       <use x="63.623047" xlink:href="#DejaVuSans-35"/>
       <use x="127.246094" xlink:href="#DejaVuSans-30"/>
       <use x="190.869141" xlink:href="#DejaVuSans-30"/>
       <use x="254.492188" xlink:href="#DejaVuSans-30"/>
      </g>
     </g>
    </g>
    <g id="ytick_15">
     <g id="line2d_50">
      <path clip-path="url(#p2af4c00bdb)" d="M 30.103125 96.857606 
L 1099.073125 96.857606 
" style="fill:none;stroke:#ffffff;stroke-linecap:square;stroke-width:0.8;"/>
     </g>
     <g id="line2d_51">
      <g>
       <use style="fill:#555555;stroke:#555555;stroke-width:0.8;" x="1099.073125" xlink:href="#meb1f424183" y="96.857606"/>
      </g>
     </g>
     <g id="text_23">
      <!-- 30000 -->
      <g style="fill:#555555;" transform="translate(1106.073125 100.656825)scale(0.1 -0.1)">
       <use xlink:href="#DejaVuSans-33"/>
       <use x="63.623047" xlink:href="#DejaVuSans-30"/>
       <use x="127.246094" xlink:href="#DejaVuSans-30"/>
       <use x="190.869141" xlink:href="#DejaVuSans-30"/>
       <use x="254.492188" xlink:href="#DejaVuSans-30"/>
      </g>
     </g>
    </g>
    <g id="ytick_16">
     <g id="line2d_52">
      <path clip-path="url(#p2af4c00bdb)" d="M 30.103125 14.833192 
L 1099.073125 14.833192 
" style="fill:none;stroke:#ffffff;stroke-linecap:square;stroke-width:0.8;"/>
     </g>
     <g id="line2d_53">
      <g>
       <use style="fill:#555555;stroke:#555555;stroke-width:0.8;" x="1099.073125" xlink:href="#meb1f424183" y="14.833192"/>
      </g>
     </g>
     <g id="text_24">
      <!-- 35000 -->
      <g style="fill:#555555;" transform="translate(1106.073125 18.632411)scale(0.1 -0.1)">
       <use xlink:href="#DejaVuSans-33"/>
       <use x="63.623047" xlink:href="#DejaVuSans-35"/>
       <use x="127.246094" xlink:href="#DejaVuSans-30"/>
       <use x="190.869141" xlink:href="#DejaVuSans-30"/>
       <use x="254.492188" xlink:href="#DejaVuSans-30"/>
      </g>
     </g>
    </g>
   </g>
   <g id="line2d_54">
    <path clip-path="url(#p2af4c00bdb)" d="M 78.69267 588.134631 
L 80.837904 588.479134 
L 82.983138 588.309617 
L 87.273606 588.361019 
L 89.418839 588.287744 
L 91.564073 588.066668 
L 95.854541 587.290952 
L 97.999775 587.187835 
L 100.145008 586.698032 
L 102.290242 586.42618 
L 104.435476 585.945751 
L 106.58071 584.389631 
L 108.725944 583.325657 
L 110.871177 581.973426 
L 117.306879 575.27086 
L 119.452113 573.463979 
L 121.597346 568.779213 
L 123.74258 563.471062 
L 125.887814 558.849572 
L 128.033048 556.728655 
L 130.178282 549.960469 
L 132.323515 541.476801 
L 134.468749 534.268027 
L 136.613983 529.222354 
L 138.759217 522.608842 
L 140.904451 514.197824 
L 143.049684 509.470875 
L 145.194918 507.856166 
L 147.340152 508.205355 
L 149.485386 505.07671 
L 151.630619 502.259757 
L 153.775853 501.336396 
L 155.921087 501.83323 
L 158.066321 497.214084 
L 160.211555 499.731061 
L 162.356788 501.561378 
L 164.502022 504.959532 
L 166.647256 507.729614 
L 168.79249 509.723979 
L 170.937724 514.291567 
L 173.082957 521.59174 
L 175.228191 524.263392 
L 177.373425 528.3693 
L 179.518659 531.924472 
L 181.663893 536.864685 
L 183.809126 541.418212 
L 185.95436 542.646235 
L 188.099594 543.496945 
L 190.244828 545.282734 
L 194.535295 546.562315 
L 196.680529 547.766902 
L 198.825763 550.211229 
L 200.970997 553.853113 
L 207.406698 558.819106 
L 211.697166 563.053909 
L 213.8424 564.68971 
L 215.987633 567.291056 
L 218.132867 569.503372 
L 220.278101 570.297837 
L 222.423335 571.373528 
L 224.568569 572.210177 
L 226.713802 572.664827 
L 228.859036 573.672555 
L 231.00427 572.955428 
L 233.149504 573.250715 
L 235.294737 574.00534 
L 237.439971 573.424139 
L 239.585205 573.773328 
L 241.730439 574.595916 
L 243.875673 575.289608 
L 246.020906 576.768391 
L 248.16614 576.96525 
L 250.311374 577.000403 
L 252.456608 577.984696 
L 254.601842 577.987039 
L 256.747075 578.427628 
L 258.892309 579.489258 
L 261.037543 579.447074 
L 263.182777 579.803294 
L 267.473244 580.117331 
L 271.763712 582.05545 
L 273.908946 581.396912 
L 276.05418 581.162556 
L 278.199413 581.502372 
L 280.344647 581.399255 
L 282.489881 581.912494 
L 284.635115 581.959365 
L 286.780349 581.863279 
L 288.925582 582.411671 
L 291.070816 583.187387 
L 293.21605 583.152234 
L 295.361284 583.431117 
L 297.506518 583.11005 
L 299.651751 583.166295 
L 301.796985 582.788983 
L 303.942219 583.372528 
L 310.37792 583.688908 
L 316.813622 583.501424 
L 318.958855 582.301524 
L 321.104089 581.708604 
L 323.249323 580.67744 
L 325.394557 579.868914 
L 327.539791 579.57597 
L 329.685024 579.008829 
L 331.830258 578.891652 
L 333.975492 579.578313 
L 336.120726 579.376767 
L 338.26596 580.386839 
L 340.411193 581.031317 
L 342.556427 581.043035 
L 346.846895 581.624236 
L 348.992129 581.696887 
L 351.137362 582.317929 
L 355.42783 582.458542 
L 359.718298 582.873351 
L 366.153999 583.238946 
L 368.299233 583.217854 
L 370.444467 583.358467 
L 372.5897 583.306909 
L 374.734934 583.414712 
L 376.880168 583.199105 
L 381.170636 582.40464 
L 383.315869 582.512444 
L 391.896805 581.720322 
L 396.187272 580.586042 
L 402.622973 579.871257 
L 404.768207 579.33224 
L 406.913441 578.551836 
L 409.058675 578.422941 
L 411.203909 578.015162 
L 413.349142 578.167493 
L 415.494376 577.771432 
L 417.63961 577.194918 
L 419.784844 577.061335 
L 421.930078 576.726207 
L 424.075311 576.077042 
L 426.220545 575.685669 
L 428.365779 574.947449 
L 430.511013 575.118529 
L 432.656247 574.914639 
L 434.80148 573.778015 
L 436.946714 572.840593 
L 441.237182 571.446178 
L 443.382416 571.28213 
L 445.527649 570.989185 
L 447.672883 569.995518 
L 451.963351 568.715937 
L 454.108585 568.767495 
L 456.253818 567.316835 
L 460.544286 566.597364 
L 462.68952 566.859842 
L 464.834754 566.705167 
L 466.979987 567.173878 
L 469.125221 566.836406 
L 471.270455 568.137079 
L 473.415689 568.130048 
L 477.706156 568.507361 
L 479.85139 569.257298 
L 481.996624 569.716635 
L 486.287091 570.229873 
L 490.577559 569.276047 
L 492.722793 568.617508 
L 494.868027 568.804992 
L 497.01326 567.443387 
L 499.158494 567.370737 
L 501.303728 566.780161 
L 503.448962 566.873903 
L 505.594196 566.609081 
L 507.739429 566.824689 
L 509.884663 565.125611 
L 512.029897 564.417858 
L 514.175131 563.405442 
L 516.320365 561.842291 
L 518.465598 560.9119 
L 520.610832 560.923618 
L 522.756066 559.953386 
L 524.9013 560.262735 
L 527.046534 560.382257 
L 531.337001 559.334688 
L 533.482235 559.182357 
L 537.772703 557.921524 
L 539.917936 557.853561 
L 542.06317 557.009881 
L 544.208404 555.791233 
L 546.353638 555.659994 
L 548.498872 553.623445 
L 550.644105 553.17817 
L 552.789339 551.889215 
L 554.934573 549.475353 
L 557.079807 545.831126 
L 559.225041 541.511954 
L 561.370274 536.454563 
L 563.515508 533.632924 
L 565.660742 531.090167 
L 567.805976 527.614675 
L 569.951209 522.215125 
L 572.096443 516.168754 
L 574.241677 509.564617 
L 576.386911 502.278505 
L 578.532145 497.347666 
L 580.677378 492.993342 
L 582.822612 486.557941 
L 584.967846 480.785765 
L 587.11308 469.89058 
L 589.258314 460.731968 
L 591.403547 444.598937 
L 593.548781 431.50081 
L 597.839249 410.64083 
L 599.984483 393.371176 
L 602.129716 380.512091 
L 604.27495 363.078388 
L 606.420184 352.895643 
L 608.565418 345.862635 
L 610.710652 337.866426 
L 612.855885 328.62579 
L 615.001119 323.352792 
L 617.146353 315.81592 
L 619.291587 309.195378 
L 621.436821 299.024351 
L 623.582054 294.71221 
L 625.727288 291.74527 
L 627.872522 291.792141 
L 630.017756 288.808796 
L 632.16299 284.412288 
L 634.308223 279.64081 
L 636.453457 281.839064 
L 638.598691 279.659559 
L 640.743925 285.609844 
L 645.034392 289.919641 
L 647.179626 288.17838 
L 649.32486 287.929963 
L 651.470094 286.751155 
L 653.615327 289.577482 
L 655.760561 289.48374 
L 657.905795 291.510915 
L 660.051029 288.998624 
L 662.196263 289.797776 
L 664.341496 291.771049 
L 666.48673 294.74502 
L 668.631964 297.393237 
L 670.777198 296.678453 
L 672.922432 296.561275 
L 675.067665 299.75554 
L 677.212899 300.275809 
L 679.358133 298.768904 
L 681.503367 294.965314 
L 683.648601 287.569056 
L 685.793834 284.843502 
L 687.939068 283.788902 
L 690.084302 275.481001 
L 692.229536 271.653976 
L 694.37477 256.594293 
L 696.520003 244.595293 
L 698.665237 238.893425 
L 700.810471 229.448899 
L 702.955705 228.563036 
L 705.100939 212.362042 
L 707.246172 204.759551 
L 709.391406 195.615 
L 711.53664 188.907747 
L 713.681874 182.882468 
L 715.827108 182.223929 
L 717.972341 170.281174 
L 720.117575 177.283716 
L 722.262809 164.928495 
L 724.408043 184.24876 
L 726.553277 223.725939 
L 728.69851 244.855428 
L 730.843744 258.136352 
L 732.988978 273.688181 
L 735.134212 279.03383 
L 737.279445 278.19718 
L 739.424679 284.311515 
L 741.569913 288.447889 
L 743.715147 296.509717 
L 745.860381 299.15559 
L 748.005614 301.487427 
L 750.150848 304.351251 
L 752.296082 318.789891 
L 754.441316 297.873666 
L 756.58655 269.741635 
L 758.731783 254.154653 
L 760.877017 247.991104 
L 763.022251 245.870187 
L 765.167485 249.706586 
L 767.312719 252.582128 
L 769.457952 274.80137 
L 771.603186 288.900195 
L 773.74842 296.127717 
L 775.893654 308.632925 
L 778.038888 311.991239 
L 780.184121 320.488968 
L 782.329355 331.65835 
L 784.474589 342.218407 
L 786.619823 347.517185 
L 788.765057 351.325461 
L 790.91029 352.291005 
L 793.055524 363.908006 
L 797.345992 377.081127 
L 799.491226 386.080377 
L 801.636459 395.679577 
L 805.926927 400.802587 
L 808.072161 401.500967 
L 812.362628 417.519163 
L 814.507862 420.129883 
L 816.653096 424.432649 
L 818.79833 430.469646 
L 820.943563 432.98428 
L 823.088797 439.393902 
L 825.234031 443.220927 
L 827.379265 452.534214 
L 829.524499 459.677368 
L 831.669732 464.671483 
L 833.814966 470.535057 
L 835.9602 470.790505 
L 838.105434 469.672629 
L 840.250668 470.881903 
L 842.395901 470.95221 
L 844.541135 472.702845 
L 846.686369 470.804566 
L 848.831603 467.143934 
L 850.976837 467.277516 
L 853.12207 467.21424 
L 855.267304 466.157297 
L 857.412538 462.262309 
L 859.557772 460.190607 
L 861.703006 458.789161 
L 863.848239 458.28764 
L 865.993473 457.43693 
L 868.138707 457.296317 
L 870.283941 454.924639 
L 872.429175 454.823867 
L 874.574408 453.457574 
L 876.719642 453.938003 
L 878.864876 453.438826 
L 883.155344 452.060816 
L 885.300577 451.763184 
L 887.445811 446.035536 
L 889.591045 440.753164 
L 891.736279 433.448304 
L 893.881513 427.151173 
L 896.026746 423.41789 
L 898.17198 420.540005 
L 900.317214 410.488499 
L 902.462448 403.110989 
L 904.607681 392.218147 
L 906.752915 384.346146 
L 908.898149 377.449065 
L 911.043383 374.859437 
L 913.188617 370.16061 
L 915.33385 364.587637 
L 917.479084 352.5113 
L 919.624318 342.923817 
L 921.769552 332.520778 
L 923.914786 324.451919 
L 928.205253 314.545714 
L 930.350487 311.644393 
L 932.495721 307.793933 
L 934.640955 307.055713 
L 936.786188 312.546662 
L 938.931422 324.217564 
L 941.076656 327.439952 
L 943.22189 333.683181 
L 945.367124 350.964553 
L 947.512357 360.088012 
L 949.657591 351.70746 
L 953.948059 324.45895 
L 956.093293 313.331752 
L 958.238526 304.1333 
L 960.38376 275.973147 
L 962.528994 254.836627 
L 964.674228 253.976543 
L 966.819462 254.663204 
L 968.964695 251.546277 
L 971.109929 255.783423 
L 973.255163 258.598033 
L 975.400397 251.11975 
L 977.545631 250.904143 
L 979.690864 246.891977 
L 983.981332 248.823066 
L 986.126566 247.721595 
L 988.271799 244.517956 
L 990.417033 250.735407 
L 992.562267 261.942285 
L 994.707501 269.47447 
L 996.852735 279.919693 
L 998.997968 285.738739 
L 1001.143202 292.176484 
L 1003.288436 300.242999 
L 1005.43367 310.078898 
L 1007.578904 316.601011 
L 1009.724137 330.296745 
L 1011.869371 337.913297 
L 1014.014605 346.429775 
L 1016.159839 351.674651 
L 1018.305073 354.976719 
L 1020.450306 362.300328 
L 1022.59554 372.926004 
L 1024.740774 389.680077 
L 1026.886008 407.938711 
L 1029.031242 417.678525 
L 1031.176475 421.217292 
L 1033.321709 425.707543 
L 1035.466943 434.774756 
L 1037.612177 446.7761 
L 1039.757411 452.792005 
L 1041.902644 454.694971 
L 1044.047878 458.88056 
L 1046.193112 465.278464 
L 1048.338346 470.663953 
L 1050.48358 490.382622 
L 1050.48358 490.382622 
" style="fill:none;stroke:#000000;stroke-linecap:square;stroke-width:1.5;"/>
   </g>
   <g id="line2d_55">
    <path clip-path="url(#p2af4c00bdb)" d="M 78.69267 588.134631 
L 80.837904 588.823636 
L 82.983138 587.970582 
L 85.128372 588.544753 
L 87.273606 588.33149 
L 89.418839 587.921368 
L 91.564073 586.740216 
L 93.709307 585.083323 
L 95.854541 586.444928 
L 97.999775 587.248768 
L 100.145008 585.116133 
L 102.290242 586.428523 
L 104.435476 584.558367 
L 106.58071 575.847374 
L 108.725944 577.635506 
L 110.871177 576.979311 
L 113.016411 571.893797 
L 115.161645 569.744758 
L 117.306879 570.236904 
L 119.452113 571.910202 
L 121.597346 543.054013 
L 123.74258 540.478447 
L 125.887814 544.628882 
L 128.033048 557.047378 
L 130.178282 522.367456 
L 132.323515 510.851228 
L 134.468749 521.448783 
L 138.759217 494.183867 
L 140.904451 485.751758 
L 143.049684 523.95873 
L 145.194918 511.064492 
L 147.340152 513.295556 
L 149.485386 499.548264 
L 151.630619 488.015632 
L 153.775853 487.720344 
L 155.921087 489.229593 
L 158.066321 491.624706 
L 160.211555 528.683336 
L 162.356788 526.107769 
L 164.502022 523.335344 
L 166.647256 507.406203 
L 168.79249 501.680899 
L 170.937724 521.202709 
L 173.082957 542.725916 
L 175.228191 547.384902 
L 177.373425 554.849124 
L 179.518659 548.221551 
L 181.663893 541.987696 
L 183.809126 533.555586 
L 185.95436 529.798868 
L 188.099594 548.680888 
L 190.244828 559.885423 
L 192.390062 559.721374 
L 194.535295 552.306367 
L 196.680529 550.419806 
L 198.825763 550.665879 
L 200.970997 555.292056 
L 203.116231 560.508809 
L 205.261464 572.303919 
L 207.406698 570.236904 
L 209.551932 567.612123 
L 211.697166 564.757673 
L 213.8424 562.116487 
L 215.987633 573.501476 
L 218.132867 575.995018 
L 220.278101 577.865175 
L 222.423335 577.766745 
L 224.568569 573.468666 
L 226.713802 567.940221 
L 228.859036 569.170587 
L 231.00427 568.481582 
L 233.149504 578.062033 
L 235.294737 583.147547 
L 237.439971 573.698334 
L 239.585205 575.912994 
L 241.730439 573.698334 
L 243.875673 574.026432 
L 246.020906 578.833063 
L 248.16614 579.440043 
L 250.311374 583.39362 
L 252.456608 580.588385 
L 254.601842 575.929398 
L 256.747075 576.782452 
L 258.892309 581.457844 
L 261.037543 578.537775 
L 263.182777 581.933586 
L 265.328011 584.263079 
L 267.473244 581.917181 
L 269.618478 583.065522 
L 271.763712 583.213166 
L 273.908946 576.848072 
L 276.05418 576.897287 
L 278.199413 584.312294 
L 280.344647 583.541264 
L 282.489881 585.50985 
L 284.635115 583.39362 
L 286.780349 582.540566 
L 288.925582 580.686814 
L 295.361284 585.493445 
L 297.506518 583.262381 
L 299.651751 583.787337 
L 301.796985 579.89938 
L 303.942219 584.77163 
L 306.087453 583.295191 
L 308.232687 584.952084 
L 310.37792 585.854353 
L 312.523154 582.803044 
L 314.668388 583.344406 
L 316.813622 579.489258 
L 318.958855 576.37233 
L 321.104089 579.144756 
L 323.249323 577.733936 
L 325.394557 580.194668 
L 327.539791 580.752434 
L 329.685024 579.374424 
L 331.830258 578.669014 
L 333.975492 581.178961 
L 336.120726 577.733936 
L 338.26596 584.80444 
L 340.411193 584.706011 
L 342.556427 580.834458 
L 344.701661 581.359415 
L 346.846895 580.752434 
L 348.992129 581.687512 
L 351.137362 582.08123 
L 353.282596 585.083323 
L 355.42783 585.411421 
L 357.573064 582.606186 
L 359.718298 582.491352 
L 361.863531 581.753132 
L 364.008765 582.524161 
L 366.153999 582.803044 
L 368.299233 584.935679 
L 370.444467 586.395714 
L 372.5897 582.245278 
L 374.734934 583.245976 
L 376.880168 580.243883 
L 379.025402 579.440043 
L 381.170636 580.325907 
L 383.315869 585.690304 
L 385.461103 584.919274 
L 387.606337 580.440741 
L 389.751571 581.556273 
L 391.896805 579.669712 
L 394.042038 575.634111 
L 396.187272 576.191877 
L 398.332506 584.000601 
L 400.47774 583.42643 
L 402.622973 578.619799 
L 404.768207 577.78315 
L 406.913441 574.206886 
L 409.058675 574.731842 
L 411.203909 573.337427 
L 413.349142 585.066918 
L 415.494376 580.654005 
L 417.63961 574.584198 
L 419.784844 576.848072 
L 421.930078 571.860988 
L 424.075311 570.187689 
L 426.220545 570.597812 
L 428.365779 579.89938 
L 430.511013 581.851561 
L 432.656247 573.156973 
L 434.80148 568.891704 
L 436.946714 565.299034 
L 439.091948 565.233415 
L 441.237182 565.791181 
L 443.382416 578.751038 
L 445.527649 579.800951 
L 447.672883 566.201303 
L 449.818117 564.232717 
L 451.963351 561.000955 
L 454.108585 565.594322 
L 456.253818 555.636558 
L 458.399052 576.175472 
L 460.544286 577.340218 
L 462.68952 568.03865 
L 464.834754 563.149995 
L 466.979987 564.281932 
L 469.125221 563.232019 
L 471.270455 564.741268 
L 473.415689 576.126257 
L 475.560923 578.997112 
L 477.706156 569.022943 
L 479.85139 568.399557 
L 481.996624 567.497289 
L 484.141858 565.167795 
L 486.287091 566.398162 
L 488.432325 572.796066 
L 490.577559 575.650515 
L 492.722793 564.413171 
L 494.868027 569.711948 
L 497.01326 557.966052 
L 499.158494 564.659244 
L 501.303728 562.264131 
L 503.448962 573.452261 
L 505.594196 573.796764 
L 509.884663 557.818408 
L 512.029897 553.011777 
L 514.175131 557.572335 
L 516.320365 551.322074 
L 518.465598 566.939523 
L 520.610832 573.878788 
L 522.756066 559.130798 
L 524.9013 559.983852 
L 527.046534 553.848426 
L 529.191767 553.684377 
L 531.337001 547.877049 
L 533.482235 565.873205 
L 535.627469 569.44947 
L 537.772703 554.73429 
L 539.917936 559.508111 
L 542.06317 547.942668 
L 544.208404 545.153838 
L 546.353638 546.958375 
L 548.498872 551.617362 
L 550.644105 566.332542 
L 552.789339 545.711604 
L 554.934573 542.611082 
L 557.079807 522.433076 
L 559.225041 514.919639 
L 561.370274 511.556638 
L 563.515508 531.865883 
L 565.660742 548.533244 
L 567.805976 521.383163 
L 569.951209 504.814232 
L 572.096443 480.108478 
L 574.241677 468.69068 
L 576.386911 460.553858 
L 578.532145 497.35001 
L 580.677378 518.052972 
L 582.822612 476.335355 
L 584.967846 464.409005 
L 587.11308 403.842178 
L 589.258314 404.580398 
L 591.403547 347.622645 
L 593.548781 405.66312 
L 595.694015 446.527683 
L 597.839249 401.840782 
L 599.984483 343.521424 
L 602.129716 313.828586 
L 604.27495 282.544474 
L 606.420184 276.343429 
L 608.565418 356.432067 
L 610.710652 390.554223 
L 612.855885 337.156329 
L 615.001119 306.610438 
L 617.146353 261.070483 
L 619.291587 236.200681 
L 621.436821 205.146237 
L 623.582054 326.247082 
L 625.727288 369.785641 
L 627.872522 337.484427 
L 630.017756 285.727022 
L 632.16299 230.294923 
L 634.308223 202.800339 
L 636.453457 220.534017 
L 638.598691 310.990541 
L 640.743925 411.437639 
L 642.889159 352.462085 
L 645.034392 300.917943 
L 647.179626 218.106095 
L 649.32486 201.061422 
L 651.470094 212.282361 
L 653.615327 330.77483 
L 655.760561 410.781443 
L 657.905795 366.652309 
L 660.051029 283.331909 
L 662.196263 223.70016 
L 664.341496 214.874333 
L 666.48673 233.100158 
L 668.631964 349.312347 
L 670.777198 405.777954 
L 672.922432 365.832064 
L 675.067665 305.691764 
L 677.212899 227.342044 
L 679.358133 204.325993 
L 681.503367 206.475033 
L 685.793834 386.699075 
L 687.939068 358.449867 
L 690.084302 247.536455 
L 692.229536 200.55287 
L 694.37477 98.908216 
L 696.520003 122.482033 
L 698.665237 257.625457 
L 700.810471 320.587398 
L 702.955705 352.248821 
L 705.100939 134.1295 
L 707.246172 147.33543 
L 709.391406 34.896364 
L 711.53664 75.531258 
L 713.681874 215.448504 
L 715.827108 315.977626 
L 717.972341 268.649539 
L 720.117575 183.14729 
L 722.262809 60.848888 
L 724.408043 170.138217 
L 726.553277 351.871509 
L 728.69851 363.354927 
L 730.843744 408.944096 
L 732.988978 377.512341 
L 735.134212 220.566827 
L 737.279445 54.992345 
L 739.424679 212.938557 
L 741.569913 380.826127 
L 743.715147 419.787724 
L 745.860381 427.465209 
L 748.005614 393.835199 
L 750.150848 240.613594 
L 752.296082 156.062828 
L 754.441316 66.524978 
L 756.58655 183.901914 
L 758.731783 310.678848 
L 760.877017 384.320367 
L 763.022251 378.98878 
L 765.167485 267.468387 
L 767.312719 176.191619 
L 769.457952 222.059672 
L 771.603186 282.593689 
L 773.74842 361.271507 
L 775.893654 471.856822 
L 778.038888 402.496977 
L 782.329355 254.377291 
L 784.474589 295.980073 
L 786.619823 319.685129 
L 788.765057 387.929442 
L 790.91029 478.615634 
L 793.055524 483.815982 
L 795.200758 372.426827 
L 797.345992 301.114802 
L 799.491226 358.974823 
L 801.636459 386.879529 
L 803.781693 405.400642 
L 805.926927 497.005507 
L 808.072161 488.704637 
L 810.217395 429.794702 
L 812.362628 355.874301 
L 814.507862 377.249863 
L 816.653096 416.998894 
L 818.79833 447.65962 
L 820.943563 514.607947 
L 823.088797 533.571991 
L 825.234031 456.583876 
L 827.379265 421.067305 
L 829.524499 427.251946 
L 831.669732 451.957699 
L 833.814966 488.704637 
L 835.9602 516.396079 
L 838.105434 525.746862 
L 840.250668 465.048796 
L 842.395901 421.559451 
L 844.541135 439.506393 
L 846.686369 438.669744 
L 848.831603 463.08021 
L 850.976837 517.331157 
L 853.12207 525.30393 
L 855.267304 457.650193 
L 857.412538 394.294536 
L 859.557772 425.004477 
L 861.703006 428.859624 
L 863.848239 459.569565 
L 865.993473 511.376185 
L 868.138707 524.319637 
L 870.283941 441.048452 
L 872.429175 393.589126 
L 874.574408 415.44043 
L 876.719642 432.222625 
L 878.864876 456.075325 
L 881.01011 506.799222 
L 883.155344 519.250528 
L 885.300577 438.965032 
L 887.445811 353.495593 
L 889.591045 378.463824 
L 891.736279 381.088605 
L 893.881513 411.995405 
L 896.026746 480.666244 
L 898.17198 499.105332 
L 900.317214 368.60449 
L 902.462448 301.853021 
L 904.607681 302.213929 
L 906.752915 325.984604 
L 908.898149 363.715835 
L 911.043383 462.538849 
L 913.188617 466.213542 
L 915.33385 329.593678 
L 917.479084 217.31866 
L 921.769552 253.163329 
L 923.914786 307.233823 
L 926.060019 427.055087 
L 928.205253 432.353864 
L 932.495721 190.365438 
L 934.640955 229.934015 
L 936.786188 291.59997 
L 938.931422 388.930139 
L 941.076656 449.611801 
L 943.22189 476.056472 
L 945.367124 430.254039 
L 947.512357 254.229647 
L 949.657591 171.270154 
L 951.802825 193.695629 
L 953.948059 296.094908 
L 956.093293 371.721417 
L 958.238526 411.667307 
L 960.38376 233.132967 
L 962.528994 106.274009 
L 964.674228 165.249562 
L 966.819462 198.50226 
L 968.964695 274.276413 
L 971.109929 401.381445 
L 973.255163 431.369571 
L 975.400397 180.784986 
L 977.545631 104.764759 
L 979.690864 137.164403 
L 981.836098 205.261072 
L 983.981332 281.035225 
L 986.126566 393.671151 
L 988.271799 408.944096 
L 990.417033 224.30714 
L 992.562267 183.212909 
L 994.707501 189.889696 
L 996.852735 278.377634 
L 998.997968 321.768549 
L 1001.143202 438.735364 
L 1003.288436 465.409703 
L 1005.43367 293.158434 
L 1007.578904 228.867698 
L 1009.724137 285.759831 
L 1011.869371 331.693503 
L 1014.014605 381.383893 
L 1016.159839 475.449491 
L 1018.305073 488.524183 
L 1020.450306 344.423692 
L 1022.59554 303.247437 
L 1024.740774 403.038339 
L 1026.886008 459.503945 
L 1029.031242 449.562586 
L 1031.176475 500.220864 
L 1033.321709 519.955938 
L 1035.466943 407.894184 
L 1037.612177 387.256841 
L 1039.757411 445.149673 
L 1041.902644 472.82471 
L 1044.047878 478.861707 
L 1046.193112 545.006194 
L 1048.338346 557.654359 
L 1050.48358 545.924868 
L 1050.48358 545.924868 
" style="fill:none;stroke:#000000;stroke-dasharray:1.5,2.475;stroke-dashoffset:0;stroke-width:1.5;"/>
   </g>
   <g id="patch_7">
    <path d="M 30.103125 616.52 
L 30.103125 7.2 
" style="fill:none;stroke:#ffffff;stroke-linecap:square;stroke-linejoin:miter;"/>
   </g>
   <g id="patch_8">
    <path d="M 1099.073125 616.52 
L 1099.073125 7.2 
" style="fill:none;stroke:#ffffff;stroke-linecap:square;stroke-linejoin:miter;"/>
   </g>
   <g id="patch_9">
    <path d="M 30.103125 616.52 
L 1099.073125 616.52 
" style="fill:none;stroke:#ffffff;stroke-linecap:square;stroke-linejoin:miter;"/>
   </g>
   <g id="patch_10">
    <path d="M 30.103125 7.2 
L 1099.073125 7.2 
" style="fill:none;stroke:#ffffff;stroke-linecap:square;stroke-linejoin:miter;"/>
   </g>
   <g id="legend_1">
    <g id="patch_11">
     <path d="M 934.877812 103.26875 
L 1092.073125 103.26875 
Q 1094.073125 103.26875 1094.073125 101.26875 
L 1094.073125 14.2 
Q 1094.073125 12.2 1092.073125 12.2 
L 934.877812 12.2 
Q 932.877812 12.2 932.877812 14.2 
L 932.877812 101.26875 
Q 932.877812 103.26875 934.877812 103.26875 
z
" style="fill:#e5e5e5;opacity:0.8;stroke:#cccccc;stroke-linejoin:miter;stroke-width:0.5;"/>
    </g>
    <g id="line2d_56">
     <path d="M 936.877812 20.298437 
L 956.877812 20.298437 
" style="fill:none;stroke:#e24a33;stroke-linecap:square;stroke-width:1.5;"/>
    </g>
    <g id="line2d_57"/>
    <g id="text_25">
     <!-- Logistic rate rolling week -->
     <g transform="translate(964.877812 23.798437)scale(0.1 -0.1)">
      <defs>
       <path d="M 628 4666 
L 1259 4666 
L 1259 531 
L 3531 531 
L 3531 0 
L 628 0 
L 628 4666 
z
" id="DejaVuSans-4c" transform="scale(0.015625)"/>
       <path d="M 1959 3097 
Q 1497 3097 1228 2736 
Q 959 2375 959 1747 
Q 959 1119 1226 758 
Q 1494 397 1959 397 
Q 2419 397 2687 759 
Q 2956 1122 2956 1747 
Q 2956 2369 2687 2733 
Q 2419 3097 1959 3097 
z
M 1959 3584 
Q 2709 3584 3137 3096 
Q 3566 2609 3566 1747 
Q 3566 888 3137 398 
Q 2709 -91 1959 -91 
Q 1206 -91 779 398 
Q 353 888 353 1747 
Q 353 2609 779 3096 
Q 1206 3584 1959 3584 
z
" id="DejaVuSans-6f" transform="scale(0.015625)"/>
       <path d="M 2906 1791 
Q 2906 2416 2648 2759 
Q 2391 3103 1925 3103 
Q 1463 3103 1205 2759 
Q 947 2416 947 1791 
Q 947 1169 1205 825 
Q 1463 481 1925 481 
Q 2391 481 2648 825 
Q 2906 1169 2906 1791 
z
M 3481 434 
Q 3481 -459 3084 -895 
Q 2688 -1331 1869 -1331 
Q 1566 -1331 1297 -1286 
Q 1028 -1241 775 -1147 
L 775 -588 
Q 1028 -725 1275 -790 
Q 1522 -856 1778 -856 
Q 2344 -856 2625 -561 
Q 2906 -266 2906 331 
L 2906 616 
Q 2728 306 2450 153 
Q 2172 0 1784 0 
Q 1141 0 747 490 
Q 353 981 353 1791 
Q 353 2603 747 3093 
Q 1141 3584 1784 3584 
Q 2172 3584 2450 3431 
Q 2728 3278 2906 2969 
L 2906 3500 
L 3481 3500 
L 3481 434 
z
" id="DejaVuSans-67" transform="scale(0.015625)"/>
       <path d="M 603 3500 
L 1178 3500 
L 1178 0 
L 603 0 
L 603 3500 
z
M 603 4863 
L 1178 4863 
L 1178 4134 
L 603 4134 
L 603 4863 
z
" id="DejaVuSans-69" transform="scale(0.015625)"/>
       <path d="M 2834 3397 
L 2834 2853 
Q 2591 2978 2328 3040 
Q 2066 3103 1784 3103 
Q 1356 3103 1142 2972 
Q 928 2841 928 2578 
Q 928 2378 1081 2264 
Q 1234 2150 1697 2047 
L 1894 2003 
Q 2506 1872 2764 1633 
Q 3022 1394 3022 966 
Q 3022 478 2636 193 
Q 2250 -91 1575 -91 
Q 1294 -91 989 -36 
Q 684 19 347 128 
L 347 722 
Q 666 556 975 473 
Q 1284 391 1588 391 
Q 1994 391 2212 530 
Q 2431 669 2431 922 
Q 2431 1156 2273 1281 
Q 2116 1406 1581 1522 
L 1381 1569 
Q 847 1681 609 1914 
Q 372 2147 372 2553 
Q 372 3047 722 3315 
Q 1072 3584 1716 3584 
Q 2034 3584 2315 3537 
Q 2597 3491 2834 3397 
z
" id="DejaVuSans-73" transform="scale(0.015625)"/>
       <path d="M 1172 4494 
L 1172 3500 
L 2356 3500 
L 2356 3053 
L 1172 3053 
L 1172 1153 
Q 1172 725 1289 603 
Q 1406 481 1766 481 
L 2356 481 
L 2356 0 
L 1766 0 
Q 1100 0 847 248 
Q 594 497 594 1153 
L 594 3053 
L 172 3053 
L 172 3500 
L 594 3500 
L 594 4494 
L 1172 4494 
z
" id="DejaVuSans-74" transform="scale(0.015625)"/>
       <path d="M 3122 3366 
L 3122 2828 
Q 2878 2963 2633 3030 
Q 2388 3097 2138 3097 
Q 1578 3097 1268 2742 
Q 959 2388 959 1747 
Q 959 1106 1268 751 
Q 1578 397 2138 397 
Q 2388 397 2633 464 
Q 2878 531 3122 666 
L 3122 134 
Q 2881 22 2623 -34 
Q 2366 -91 2075 -91 
Q 1284 -91 818 406 
Q 353 903 353 1747 
Q 353 2603 823 3093 
Q 1294 3584 2113 3584 
Q 2378 3584 2631 3529 
Q 2884 3475 3122 3366 
z
" id="DejaVuSans-63" transform="scale(0.015625)"/>
       <path id="DejaVuSans-20" transform="scale(0.015625)"/>
       <path d="M 2631 2963 
Q 2534 3019 2420 3045 
Q 2306 3072 2169 3072 
Q 1681 3072 1420 2755 
Q 1159 2438 1159 1844 
L 1159 0 
L 581 0 
L 581 3500 
L 1159 3500 
L 1159 2956 
Q 1341 3275 1631 3429 
Q 1922 3584 2338 3584 
Q 2397 3584 2469 3576 
Q 2541 3569 2628 3553 
L 2631 2963 
z
" id="DejaVuSans-72" transform="scale(0.015625)"/>
       <path d="M 2194 1759 
Q 1497 1759 1228 1600 
Q 959 1441 959 1056 
Q 959 750 1161 570 
Q 1363 391 1709 391 
Q 2188 391 2477 730 
Q 2766 1069 2766 1631 
L 2766 1759 
L 2194 1759 
z
M 3341 1997 
L 3341 0 
L 2766 0 
L 2766 531 
Q 2569 213 2275 61 
Q 1981 -91 1556 -91 
Q 1019 -91 701 211 
Q 384 513 384 1019 
Q 384 1609 779 1909 
Q 1175 2209 1959 2209 
L 2766 2209 
L 2766 2266 
Q 2766 2663 2505 2880 
Q 2244 3097 1772 3097 
Q 1472 3097 1187 3025 
Q 903 2953 641 2809 
L 641 3341 
Q 956 3463 1253 3523 
Q 1550 3584 1831 3584 
Q 2591 3584 2966 3190 
Q 3341 2797 3341 1997 
z
" id="DejaVuSans-61" transform="scale(0.015625)"/>
       <path d="M 3597 1894 
L 3597 1613 
L 953 1613 
Q 991 1019 1311 708 
Q 1631 397 2203 397 
Q 2534 397 2845 478 
Q 3156 559 3463 722 
L 3463 178 
Q 3153 47 2828 -22 
Q 2503 -91 2169 -91 
Q 1331 -91 842 396 
Q 353 884 353 1716 
Q 353 2575 817 3079 
Q 1281 3584 2069 3584 
Q 2775 3584 3186 3129 
Q 3597 2675 3597 1894 
z
M 3022 2063 
Q 3016 2534 2758 2815 
Q 2500 3097 2075 3097 
Q 1594 3097 1305 2825 
Q 1016 2553 972 2059 
L 3022 2063 
z
" id="DejaVuSans-65" transform="scale(0.015625)"/>
       <path d="M 603 4863 
L 1178 4863 
L 1178 0 
L 603 0 
L 603 4863 
z
" id="DejaVuSans-6c" transform="scale(0.015625)"/>
       <path d="M 3513 2113 
L 3513 0 
L 2938 0 
L 2938 2094 
Q 2938 2591 2744 2837 
Q 2550 3084 2163 3084 
Q 1697 3084 1428 2787 
Q 1159 2491 1159 1978 
L 1159 0 
L 581 0 
L 581 3500 
L 1159 3500 
L 1159 2956 
Q 1366 3272 1645 3428 
Q 1925 3584 2291 3584 
Q 2894 3584 3203 3211 
Q 3513 2838 3513 2113 
z
" id="DejaVuSans-6e" transform="scale(0.015625)"/>
       <path d="M 269 3500 
L 844 3500 
L 1563 769 
L 2278 3500 
L 2956 3500 
L 3675 769 
L 4391 3500 
L 4966 3500 
L 4050 0 
L 3372 0 
L 2619 2869 
L 1863 0 
L 1184 0 
L 269 3500 
z
" id="DejaVuSans-77" transform="scale(0.015625)"/>
       <path d="M 581 4863 
L 1159 4863 
L 1159 1991 
L 2875 3500 
L 3609 3500 
L 1753 1863 
L 3688 0 
L 2938 0 
L 1159 1709 
L 1159 0 
L 581 0 
L 581 4863 
z
" id="DejaVuSans-6b" transform="scale(0.015625)"/>
      </defs>
      <use xlink:href="#DejaVuSans-4c"/>
      <use x="53.962891" xlink:href="#DejaVuSans-6f"/>
      <use x="115.144531" xlink:href="#DejaVuSans-67"/>
      <use x="178.621094" xlink:href="#DejaVuSans-69"/>
      <use x="206.404297" xlink:href="#DejaVuSans-73"/>
      <use x="258.503906" xlink:href="#DejaVuSans-74"/>
      <use x="297.712891" xlink:href="#DejaVuSans-69"/>
      <use x="325.496094" xlink:href="#DejaVuSans-63"/>
      <use x="380.476562" xlink:href="#DejaVuSans-20"/>
      <use x="412.263672" xlink:href="#DejaVuSans-72"/>
      <use x="453.376953" xlink:href="#DejaVuSans-61"/>
      <use x="514.65625" xlink:href="#DejaVuSans-74"/>
      <use x="553.865234" xlink:href="#DejaVuSans-65"/>
      <use x="615.388672" xlink:href="#DejaVuSans-20"/>
      <use x="647.175781" xlink:href="#DejaVuSans-72"/>
      <use x="686.039062" xlink:href="#DejaVuSans-6f"/>
      <use x="747.220703" xlink:href="#DejaVuSans-6c"/>
      <use x="775.003906" xlink:href="#DejaVuSans-6c"/>
      <use x="802.787109" xlink:href="#DejaVuSans-69"/>
      <use x="830.570312" xlink:href="#DejaVuSans-6e"/>
      <use x="893.949219" xlink:href="#DejaVuSans-67"/>
      <use x="957.425781" xlink:href="#DejaVuSans-20"/>
      <use x="989.212891" xlink:href="#DejaVuSans-77"/>
      <use x="1071" xlink:href="#DejaVuSans-65"/>
      <use x="1132.523438" xlink:href="#DejaVuSans-65"/>
      <use x="1194.046875" xlink:href="#DejaVuSans-6b"/>
     </g>
    </g>
    <g id="line2d_58">
     <path d="M 936.877812 34.976562 
L 956.877812 34.976562 
" style="fill:none;stroke:#e24a33;stroke-dasharray:1.5,2.475;stroke-dashoffset:0;stroke-width:1.5;"/>
    </g>
    <g id="line2d_59"/>
    <g id="text_26">
     <!-- Logistic rate -->
     <g transform="translate(964.877812 38.476562)scale(0.1 -0.1)">
      <use xlink:href="#DejaVuSans-4c"/>
      <use x="53.962891" xlink:href="#DejaVuSans-6f"/>
      <use x="115.144531" xlink:href="#DejaVuSans-67"/>
      <use x="178.621094" xlink:href="#DejaVuSans-69"/>
      <use x="206.404297" xlink:href="#DejaVuSans-73"/>
      <use x="258.503906" xlink:href="#DejaVuSans-74"/>
      <use x="297.712891" xlink:href="#DejaVuSans-69"/>
      <use x="325.496094" xlink:href="#DejaVuSans-63"/>
      <use x="380.476562" xlink:href="#DejaVuSans-20"/>
      <use x="412.263672" xlink:href="#DejaVuSans-72"/>
      <use x="453.376953" xlink:href="#DejaVuSans-61"/>
      <use x="514.65625" xlink:href="#DejaVuSans-74"/>
      <use x="553.865234" xlink:href="#DejaVuSans-65"/>
     </g>
    </g>
    <g id="line2d_60">
     <path d="M 936.877812 49.654687 
L 956.877812 49.654687 
" style="fill:none;stroke:#348abd;stroke-linecap:square;stroke-width:1.5;"/>
    </g>
    <g id="line2d_61"/>
    <g id="text_27">
     <!-- RKI rate rolling week -->
     <g transform="translate(964.877812 53.154687)scale(0.1 -0.1)">
      <defs>
       <path d="M 2841 2188 
Q 3044 2119 3236 1894 
Q 3428 1669 3622 1275 
L 4263 0 
L 3584 0 
L 2988 1197 
Q 2756 1666 2539 1819 
Q 2322 1972 1947 1972 
L 1259 1972 
L 1259 0 
L 628 0 
L 628 4666 
L 2053 4666 
Q 2853 4666 3247 4331 
Q 3641 3997 3641 3322 
Q 3641 2881 3436 2590 
Q 3231 2300 2841 2188 
z
M 1259 4147 
L 1259 2491 
L 2053 2491 
Q 2509 2491 2742 2702 
Q 2975 2913 2975 3322 
Q 2975 3731 2742 3939 
Q 2509 4147 2053 4147 
L 1259 4147 
z
" id="DejaVuSans-52" transform="scale(0.015625)"/>
       <path d="M 628 4666 
L 1259 4666 
L 1259 2694 
L 3353 4666 
L 4166 4666 
L 1850 2491 
L 4331 0 
L 3500 0 
L 1259 2247 
L 1259 0 
L 628 0 
L 628 4666 
z
" id="DejaVuSans-4b" transform="scale(0.015625)"/>
       <path d="M 628 4666 
L 1259 4666 
L 1259 0 
L 628 0 
L 628 4666 
z
" id="DejaVuSans-49" transform="scale(0.015625)"/>
      </defs>
      <use xlink:href="#DejaVuSans-52"/>
      <use x="69.482422" xlink:href="#DejaVuSans-4b"/>
      <use x="135.058594" xlink:href="#DejaVuSans-49"/>
      <use x="164.550781" xlink:href="#DejaVuSans-20"/>
      <use x="196.337891" xlink:href="#DejaVuSans-72"/>
      <use x="237.451172" xlink:href="#DejaVuSans-61"/>
      <use x="298.730469" xlink:href="#DejaVuSans-74"/>
      <use x="337.939453" xlink:href="#DejaVuSans-65"/>
      <use x="399.462891" xlink:href="#DejaVuSans-20"/>
      <use x="431.25" xlink:href="#DejaVuSans-72"/>
      <use x="470.113281" xlink:href="#DejaVuSans-6f"/>
      <use x="531.294922" xlink:href="#DejaVuSans-6c"/>
      <use x="559.078125" xlink:href="#DejaVuSans-6c"/>
      <use x="586.861328" xlink:href="#DejaVuSans-69"/>
      <use x="614.644531" xlink:href="#DejaVuSans-6e"/>
      <use x="678.023438" xlink:href="#DejaVuSans-67"/>
      <use x="741.5" xlink:href="#DejaVuSans-20"/>
      <use x="773.287109" xlink:href="#DejaVuSans-77"/>
      <use x="855.074219" xlink:href="#DejaVuSans-65"/>
      <use x="916.597656" xlink:href="#DejaVuSans-65"/>
      <use x="978.121094" xlink:href="#DejaVuSans-6b"/>
     </g>
    </g>
    <g id="line2d_62">
     <path d="M 936.877812 64.332812 
L 956.877812 64.332812 
" style="fill:none;stroke:#348abd;stroke-dasharray:1.5,2.475;stroke-dashoffset:0;stroke-width:1.5;"/>
    </g>
    <g id="line2d_63"/>
    <g id="text_28">
     <!-- RKI rate -->
     <g transform="translate(964.877812 67.832812)scale(0.1 -0.1)">
      <use xlink:href="#DejaVuSans-52"/>
      <use x="69.482422" xlink:href="#DejaVuSans-4b"/>
      <use x="135.058594" xlink:href="#DejaVuSans-49"/>
      <use x="164.550781" xlink:href="#DejaVuSans-20"/>
      <use x="196.337891" xlink:href="#DejaVuSans-72"/>
      <use x="237.451172" xlink:href="#DejaVuSans-61"/>
      <use x="298.730469" xlink:href="#DejaVuSans-74"/>
      <use x="337.939453" xlink:href="#DejaVuSans-65"/>
     </g>
    </g>
    <g id="line2d_64">
     <path d="M 936.877812 79.010937 
L 956.877812 79.010937 
" style="fill:none;stroke:#000000;stroke-linecap:square;stroke-width:1.5;"/>
    </g>
    <g id="line2d_65"/>
    <g id="text_29">
     <!-- New Cases rolling week -->
     <g transform="translate(964.877812 82.510937)scale(0.1 -0.1)">
      <defs>
       <path d="M 628 4666 
L 1478 4666 
L 3547 763 
L 3547 4666 
L 4159 4666 
L 4159 0 
L 3309 0 
L 1241 3903 
L 1241 0 
L 628 0 
L 628 4666 
z
" id="DejaVuSans-4e" transform="scale(0.015625)"/>
       <path d="M 4122 4306 
L 4122 3641 
Q 3803 3938 3442 4084 
Q 3081 4231 2675 4231 
Q 1875 4231 1450 3742 
Q 1025 3253 1025 2328 
Q 1025 1406 1450 917 
Q 1875 428 2675 428 
Q 3081 428 3442 575 
Q 3803 722 4122 1019 
L 4122 359 
Q 3791 134 3420 21 
Q 3050 -91 2638 -91 
Q 1578 -91 968 557 
Q 359 1206 359 2328 
Q 359 3453 968 4101 
Q 1578 4750 2638 4750 
Q 3056 4750 3426 4639 
Q 3797 4528 4122 4306 
z
" id="DejaVuSans-43" transform="scale(0.015625)"/>
      </defs>
      <use xlink:href="#DejaVuSans-4e"/>
      <use x="74.804688" xlink:href="#DejaVuSans-65"/>
      <use x="136.328125" xlink:href="#DejaVuSans-77"/>
      <use x="218.115234" xlink:href="#DejaVuSans-20"/>
      <use x="249.902344" xlink:href="#DejaVuSans-43"/>
      <use x="319.726562" xlink:href="#DejaVuSans-61"/>
      <use x="381.005859" xlink:href="#DejaVuSans-73"/>
      <use x="433.105469" xlink:href="#DejaVuSans-65"/>
      <use x="494.628906" xlink:href="#DejaVuSans-73"/>
      <use x="546.728516" xlink:href="#DejaVuSans-20"/>
      <use x="578.515625" xlink:href="#DejaVuSans-72"/>
      <use x="617.378906" xlink:href="#DejaVuSans-6f"/>
      <use x="678.560547" xlink:href="#DejaVuSans-6c"/>
      <use x="706.34375" xlink:href="#DejaVuSans-6c"/>
      <use x="734.126953" xlink:href="#DejaVuSans-69"/>
      <use x="761.910156" xlink:href="#DejaVuSans-6e"/>
      <use x="825.289062" xlink:href="#DejaVuSans-67"/>
      <use x="888.765625" xlink:href="#DejaVuSans-20"/>
      <use x="920.552734" xlink:href="#DejaVuSans-77"/>
      <use x="1002.339844" xlink:href="#DejaVuSans-65"/>
      <use x="1063.863281" xlink:href="#DejaVuSans-65"/>
      <use x="1125.386719" xlink:href="#DejaVuSans-6b"/>
     </g>
    </g>
    <g id="line2d_66">
     <path d="M 936.877812 93.689062 
L 956.877812 93.689062 
" style="fill:none;stroke:#000000;stroke-dasharray:1.5,2.475;stroke-dashoffset:0;stroke-width:1.5;"/>
    </g>
    <g id="line2d_67"/>
    <g id="text_30">
     <!-- New Cases -->
     <g transform="translate(964.877812 97.189062)scale(0.1 -0.1)">
      <use xlink:href="#DejaVuSans-4e"/>
      <use x="74.804688" xlink:href="#DejaVuSans-65"/>
      <use x="136.328125" xlink:href="#DejaVuSans-77"/>
      <use x="218.115234" xlink:href="#DejaVuSans-20"/>
      <use x="249.902344" xlink:href="#DejaVuSans-43"/>
      <use x="319.726562" xlink:href="#DejaVuSans-61"/>
      <use x="381.005859" xlink:href="#DejaVuSans-73"/>
      <use x="433.105469" xlink:href="#DejaVuSans-65"/>
      <use x="494.628906" xlink:href="#DejaVuSans-73"/>
     </g>
    </g>
   </g>
  </g>
 </g>
 <defs>
  <clipPath id="p2af4c00bdb">
   <rect height="609.32" width="1068.97" x="30.103125" y="7.2"/>
  </clipPath>
 </defs>
</svg>
