<?xml version="1.0" encoding="utf-8" standalone="no"?>
<!DOCTYPE svg PUBLIC "-//W3C//DTD SVG 1.1//EN"
  "http://www.w3.org/Graphics/SVG/1.1/DTD/svg11.dtd">
<!-- Created with matplotlib (https://matplotlib.org/) -->
<svg height="530.038125pt" version="1.1" viewBox="0 0 968.915625 530.038125" width="968.915625pt" xmlns="http://www.w3.org/2000/svg" xmlns:xlink="http://www.w3.org/1999/xlink">
 <metadata>
  <rdf:RDF xmlns:cc="http://creativecommons.org/ns#" xmlns:dc="http://purl.org/dc/elements/1.1/" xmlns:rdf="http://www.w3.org/1999/02/22-rdf-syntax-ns#">
   <cc:Work>
    <dc:type rdf:resource="http://purl.org/dc/dcmitype/StillImage"/>
    <dc:date>2020-11-06T09:00:15.803280</dc:date>
    <dc:format>image/svg+xml</dc:format>
    <dc:creator>
     <cc:Agent>
      <dc:title>Matplotlib v3.3.2, https://matplotlib.org/</dc:title>
     </cc:Agent>
    </dc:creator>
   </cc:Work>
  </rdf:RDF>
 </metadata>
 <defs>
  <style type="text/css">*{stroke-linecap:butt;stroke-linejoin:round;}</style>
 </defs>
 <g id="figure_1">
  <g id="patch_1">
   <path d="M 0 530.038125 
L 968.915625 530.038125 
L 968.915625 0 
L 0 0 
z
" style="fill:#ffffff;"/>
  </g>
  <g id="axes_1">
   <g id="patch_2">
    <path d="M 30.103125 506.16 
L 922.903125 506.16 
L 922.903125 7.2 
L 30.103125 7.2 
z
" style="fill:#e5e5e5;"/>
   </g>
   <g id="matplotlib.axis_1">
    <g id="xtick_1">
     <g id="line2d_1">
      <path clip-path="url(#p19ee33ebf6)" d="M 77.126502 506.16 
L 77.126502 7.2 
" style="fill:none;stroke:#ffffff;stroke-linecap:square;stroke-width:0.8;"/>
     </g>
     <g id="line2d_2">
      <defs>
       <path d="M 0 0 
L 0 3.5 
" id="me3542fa614" style="stroke:#555555;stroke-width:0.8;"/>
      </defs>
      <g>
       <use style="fill:#555555;stroke:#555555;stroke-width:0.8;" x="77.126502" xlink:href="#me3542fa614" y="506.16"/>
      </g>
     </g>
     <g id="text_1">
      <!-- 2020-03 -->
      <g style="fill:#555555;" transform="translate(56.235095 520.758438)scale(0.1 -0.1)">
       <defs>
        <path d="M 19.1875 8.296875 
L 53.609375 8.296875 
L 53.609375 0 
L 7.328125 0 
L 7.328125 8.296875 
Q 12.9375 14.109375 22.625 23.890625 
Q 32.328125 33.6875 34.8125 36.53125 
Q 39.546875 41.84375 41.421875 45.53125 
Q 43.3125 49.21875 43.3125 52.78125 
Q 43.3125 58.59375 39.234375 62.25 
Q 35.15625 65.921875 28.609375 65.921875 
Q 23.96875 65.921875 18.8125 64.3125 
Q 13.671875 62.703125 7.8125 59.421875 
L 7.8125 69.390625 
Q 13.765625 71.78125 18.9375 73 
Q 24.125 74.21875 28.421875 74.21875 
Q 39.75 74.21875 46.484375 68.546875 
Q 53.21875 62.890625 53.21875 53.421875 
Q 53.21875 48.921875 51.53125 44.890625 
Q 49.859375 40.875 45.40625 35.40625 
Q 44.1875 33.984375 37.640625 27.21875 
Q 31.109375 20.453125 19.1875 8.296875 
z
" id="DejaVuSans-50"/>
        <path d="M 31.78125 66.40625 
Q 24.171875 66.40625 20.328125 58.90625 
Q 16.5 51.421875 16.5 36.375 
Q 16.5 21.390625 20.328125 13.890625 
Q 24.171875 6.390625 31.78125 6.390625 
Q 39.453125 6.390625 43.28125 13.890625 
Q 47.125 21.390625 47.125 36.375 
Q 47.125 51.421875 43.28125 58.90625 
Q 39.453125 66.40625 31.78125 66.40625 
z
M 31.78125 74.21875 
Q 44.046875 74.21875 50.515625 64.515625 
Q 56.984375 54.828125 56.984375 36.375 
Q 56.984375 17.96875 50.515625 8.265625 
Q 44.046875 -1.421875 31.78125 -1.421875 
Q 19.53125 -1.421875 13.0625 8.265625 
Q 6.59375 17.96875 6.59375 36.375 
Q 6.59375 54.828125 13.0625 64.515625 
Q 19.53125 74.21875 31.78125 74.21875 
z
" id="DejaVuSans-48"/>
        <path d="M 4.890625 31.390625 
L 31.203125 31.390625 
L 31.203125 23.390625 
L 4.890625 23.390625 
z
" id="DejaVuSans-45"/>
        <path d="M 40.578125 39.3125 
Q 47.65625 37.796875 51.625 33 
Q 55.609375 28.21875 55.609375 21.1875 
Q 55.609375 10.40625 48.1875 4.484375 
Q 40.765625 -1.421875 27.09375 -1.421875 
Q 22.515625 -1.421875 17.65625 -0.515625 
Q 12.796875 0.390625 7.625 2.203125 
L 7.625 11.71875 
Q 11.71875 9.328125 16.59375 8.109375 
Q 21.484375 6.890625 26.8125 6.890625 
Q 36.078125 6.890625 40.9375 10.546875 
Q 45.796875 14.203125 45.796875 21.1875 
Q 45.796875 27.640625 41.28125 31.265625 
Q 36.765625 34.90625 28.71875 34.90625 
L 20.21875 34.90625 
L 20.21875 43.015625 
L 29.109375 43.015625 
Q 36.375 43.015625 40.234375 45.921875 
Q 44.09375 48.828125 44.09375 54.296875 
Q 44.09375 59.90625 40.109375 62.90625 
Q 36.140625 65.921875 28.71875 65.921875 
Q 24.65625 65.921875 20.015625 65.03125 
Q 15.375 64.15625 9.8125 62.3125 
L 9.8125 71.09375 
Q 15.4375 72.65625 20.34375 73.4375 
Q 25.25 74.21875 29.59375 74.21875 
Q 40.828125 74.21875 47.359375 69.109375 
Q 53.90625 64.015625 53.90625 55.328125 
Q 53.90625 49.265625 50.4375 45.09375 
Q 46.96875 40.921875 40.578125 39.3125 
z
" id="DejaVuSans-51"/>
       </defs>
       <use xlink:href="#DejaVuSans-50"/>
       <use x="63.623047" xlink:href="#DejaVuSans-48"/>
       <use x="127.246094" xlink:href="#DejaVuSans-50"/>
       <use x="190.869141" xlink:href="#DejaVuSans-48"/>
       <use x="254.492188" xlink:href="#DejaVuSans-45"/>
       <use x="290.576172" xlink:href="#DejaVuSans-48"/>
       <use x="354.199219" xlink:href="#DejaVuSans-51"/>
      </g>
     </g>
    </g>
    <g id="xtick_2">
     <g id="line2d_3">
      <path clip-path="url(#p19ee33ebf6)" d="M 176.970657 506.16 
L 176.970657 7.2 
" style="fill:none;stroke:#ffffff;stroke-linecap:square;stroke-width:0.8;"/>
     </g>
     <g id="line2d_4">
      <g>
       <use style="fill:#555555;stroke:#555555;stroke-width:0.8;" x="176.970657" xlink:href="#me3542fa614" y="506.16"/>
      </g>
     </g>
     <g id="text_2">
      <!-- 2020-04 -->
      <g style="fill:#555555;" transform="translate(156.079251 520.758438)scale(0.1 -0.1)">
       <defs>
        <path d="M 37.796875 64.3125 
L 12.890625 25.390625 
L 37.796875 25.390625 
z
M 35.203125 72.90625 
L 47.609375 72.90625 
L 47.609375 25.390625 
L 58.015625 25.390625 
L 58.015625 17.1875 
L 47.609375 17.1875 
L 47.609375 0 
L 37.796875 0 
L 37.796875 17.1875 
L 4.890625 17.1875 
L 4.890625 26.703125 
z
" id="DejaVuSans-52"/>
       </defs>
       <use xlink:href="#DejaVuSans-50"/>
       <use x="63.623047" xlink:href="#DejaVuSans-48"/>
       <use x="127.246094" xlink:href="#DejaVuSans-50"/>
       <use x="190.869141" xlink:href="#DejaVuSans-48"/>
       <use x="254.492188" xlink:href="#DejaVuSans-45"/>
       <use x="290.576172" xlink:href="#DejaVuSans-48"/>
       <use x="354.199219" xlink:href="#DejaVuSans-52"/>
      </g>
     </g>
    </g>
    <g id="xtick_3">
     <g id="line2d_5">
      <path clip-path="url(#p19ee33ebf6)" d="M 273.594034 506.16 
L 273.594034 7.2 
" style="fill:none;stroke:#ffffff;stroke-linecap:square;stroke-width:0.8;"/>
     </g>
     <g id="line2d_6">
      <g>
       <use style="fill:#555555;stroke:#555555;stroke-width:0.8;" x="273.594034" xlink:href="#me3542fa614" y="506.16"/>
      </g>
     </g>
     <g id="text_3">
      <!-- 2020-05 -->
      <g style="fill:#555555;" transform="translate(252.702628 520.758438)scale(0.1 -0.1)">
       <defs>
        <path d="M 10.796875 72.90625 
L 49.515625 72.90625 
L 49.515625 64.59375 
L 19.828125 64.59375 
L 19.828125 46.734375 
Q 21.96875 47.46875 24.109375 47.828125 
Q 26.265625 48.1875 28.421875 48.1875 
Q 40.625 48.1875 47.75 41.5 
Q 54.890625 34.8125 54.890625 23.390625 
Q 54.890625 11.625 47.5625 5.09375 
Q 40.234375 -1.421875 26.90625 -1.421875 
Q 22.3125 -1.421875 17.546875 -0.640625 
Q 12.796875 0.140625 7.71875 1.703125 
L 7.71875 11.625 
Q 12.109375 9.234375 16.796875 8.0625 
Q 21.484375 6.890625 26.703125 6.890625 
Q 35.15625 6.890625 40.078125 11.328125 
Q 45.015625 15.765625 45.015625 23.390625 
Q 45.015625 31 40.078125 35.4375 
Q 35.15625 39.890625 26.703125 39.890625 
Q 22.75 39.890625 18.8125 39.015625 
Q 14.890625 38.140625 10.796875 36.28125 
z
" id="DejaVuSans-53"/>
       </defs>
       <use xlink:href="#DejaVuSans-50"/>
       <use x="63.623047" xlink:href="#DejaVuSans-48"/>
       <use x="127.246094" xlink:href="#DejaVuSans-50"/>
       <use x="190.869141" xlink:href="#DejaVuSans-48"/>
       <use x="254.492188" xlink:href="#DejaVuSans-45"/>
       <use x="290.576172" xlink:href="#DejaVuSans-48"/>
       <use x="354.199219" xlink:href="#DejaVuSans-53"/>
      </g>
     </g>
    </g>
    <g id="xtick_4">
     <g id="line2d_7">
      <path clip-path="url(#p19ee33ebf6)" d="M 373.43819 506.16 
L 373.43819 7.2 
" style="fill:none;stroke:#ffffff;stroke-linecap:square;stroke-width:0.8;"/>
     </g>
     <g id="line2d_8">
      <g>
       <use style="fill:#555555;stroke:#555555;stroke-width:0.8;" x="373.43819" xlink:href="#me3542fa614" y="506.16"/>
      </g>
     </g>
     <g id="text_4">
      <!-- 2020-06 -->
      <g style="fill:#555555;" transform="translate(352.546784 520.758438)scale(0.1 -0.1)">
       <defs>
        <path d="M 33.015625 40.375 
Q 26.375 40.375 22.484375 35.828125 
Q 18.609375 31.296875 18.609375 23.390625 
Q 18.609375 15.53125 22.484375 10.953125 
Q 26.375 6.390625 33.015625 6.390625 
Q 39.65625 6.390625 43.53125 10.953125 
Q 47.40625 15.53125 47.40625 23.390625 
Q 47.40625 31.296875 43.53125 35.828125 
Q 39.65625 40.375 33.015625 40.375 
z
M 52.59375 71.296875 
L 52.59375 62.3125 
Q 48.875 64.0625 45.09375 64.984375 
Q 41.3125 65.921875 37.59375 65.921875 
Q 27.828125 65.921875 22.671875 59.328125 
Q 17.53125 52.734375 16.796875 39.40625 
Q 19.671875 43.65625 24.015625 45.921875 
Q 28.375 48.1875 33.59375 48.1875 
Q 44.578125 48.1875 50.953125 41.515625 
Q 57.328125 34.859375 57.328125 23.390625 
Q 57.328125 12.15625 50.6875 5.359375 
Q 44.046875 -1.421875 33.015625 -1.421875 
Q 20.359375 -1.421875 13.671875 8.265625 
Q 6.984375 17.96875 6.984375 36.375 
Q 6.984375 53.65625 15.1875 63.9375 
Q 23.390625 74.21875 37.203125 74.21875 
Q 40.921875 74.21875 44.703125 73.484375 
Q 48.484375 72.75 52.59375 71.296875 
z
" id="DejaVuSans-54"/>
       </defs>
       <use xlink:href="#DejaVuSans-50"/>
       <use x="63.623047" xlink:href="#DejaVuSans-48"/>
       <use x="127.246094" xlink:href="#DejaVuSans-50"/>
       <use x="190.869141" xlink:href="#DejaVuSans-48"/>
       <use x="254.492188" xlink:href="#DejaVuSans-45"/>
       <use x="290.576172" xlink:href="#DejaVuSans-48"/>
       <use x="354.199219" xlink:href="#DejaVuSans-54"/>
      </g>
     </g>
    </g>
    <g id="xtick_5">
     <g id="line2d_9">
      <path clip-path="url(#p19ee33ebf6)" d="M 470.061567 506.16 
L 470.061567 7.2 
" style="fill:none;stroke:#ffffff;stroke-linecap:square;stroke-width:0.8;"/>
     </g>
     <g id="line2d_10">
      <g>
       <use style="fill:#555555;stroke:#555555;stroke-width:0.8;" x="470.061567" xlink:href="#me3542fa614" y="506.16"/>
      </g>
     </g>
     <g id="text_5">
      <!-- 2020-07 -->
      <g style="fill:#555555;" transform="translate(449.17016 520.758438)scale(0.1 -0.1)">
       <defs>
        <path d="M 8.203125 72.90625 
L 55.078125 72.90625 
L 55.078125 68.703125 
L 28.609375 0 
L 18.3125 0 
L 43.21875 64.59375 
L 8.203125 64.59375 
z
" id="DejaVuSans-55"/>
       </defs>
       <use xlink:href="#DejaVuSans-50"/>
       <use x="63.623047" xlink:href="#DejaVuSans-48"/>
       <use x="127.246094" xlink:href="#DejaVuSans-50"/>
       <use x="190.869141" xlink:href="#DejaVuSans-48"/>
       <use x="254.492188" xlink:href="#DejaVuSans-45"/>
       <use x="290.576172" xlink:href="#DejaVuSans-48"/>
       <use x="354.199219" xlink:href="#DejaVuSans-55"/>
      </g>
     </g>
    </g>
    <g id="xtick_6">
     <g id="line2d_11">
      <path clip-path="url(#p19ee33ebf6)" d="M 569.905722 506.16 
L 569.905722 7.2 
" style="fill:none;stroke:#ffffff;stroke-linecap:square;stroke-width:0.8;"/>
     </g>
     <g id="line2d_12">
      <g>
       <use style="fill:#555555;stroke:#555555;stroke-width:0.8;" x="569.905722" xlink:href="#me3542fa614" y="506.16"/>
      </g>
     </g>
     <g id="text_6">
      <!-- 2020-08 -->
      <g style="fill:#555555;" transform="translate(549.014316 520.758438)scale(0.1 -0.1)">
       <defs>
        <path d="M 31.78125 34.625 
Q 24.75 34.625 20.71875 30.859375 
Q 16.703125 27.09375 16.703125 20.515625 
Q 16.703125 13.921875 20.71875 10.15625 
Q 24.75 6.390625 31.78125 6.390625 
Q 38.8125 6.390625 42.859375 10.171875 
Q 46.921875 13.96875 46.921875 20.515625 
Q 46.921875 27.09375 42.890625 30.859375 
Q 38.875 34.625 31.78125 34.625 
z
M 21.921875 38.8125 
Q 15.578125 40.375 12.03125 44.71875 
Q 8.5 49.078125 8.5 55.328125 
Q 8.5 64.0625 14.71875 69.140625 
Q 20.953125 74.21875 31.78125 74.21875 
Q 42.671875 74.21875 48.875 69.140625 
Q 55.078125 64.0625 55.078125 55.328125 
Q 55.078125 49.078125 51.53125 44.71875 
Q 48 40.375 41.703125 38.8125 
Q 48.828125 37.15625 52.796875 32.3125 
Q 56.78125 27.484375 56.78125 20.515625 
Q 56.78125 9.90625 50.3125 4.234375 
Q 43.84375 -1.421875 31.78125 -1.421875 
Q 19.734375 -1.421875 13.25 4.234375 
Q 6.78125 9.90625 6.78125 20.515625 
Q 6.78125 27.484375 10.78125 32.3125 
Q 14.796875 37.15625 21.921875 38.8125 
z
M 18.3125 54.390625 
Q 18.3125 48.734375 21.84375 45.5625 
Q 25.390625 42.390625 31.78125 42.390625 
Q 38.140625 42.390625 41.71875 45.5625 
Q 45.3125 48.734375 45.3125 54.390625 
Q 45.3125 60.0625 41.71875 63.234375 
Q 38.140625 66.40625 31.78125 66.40625 
Q 25.390625 66.40625 21.84375 63.234375 
Q 18.3125 60.0625 18.3125 54.390625 
z
" id="DejaVuSans-56"/>
       </defs>
       <use xlink:href="#DejaVuSans-50"/>
       <use x="63.623047" xlink:href="#DejaVuSans-48"/>
       <use x="127.246094" xlink:href="#DejaVuSans-50"/>
       <use x="190.869141" xlink:href="#DejaVuSans-48"/>
       <use x="254.492188" xlink:href="#DejaVuSans-45"/>
       <use x="290.576172" xlink:href="#DejaVuSans-48"/>
       <use x="354.199219" xlink:href="#DejaVuSans-56"/>
      </g>
     </g>
    </g>
    <g id="xtick_7">
     <g id="line2d_13">
      <path clip-path="url(#p19ee33ebf6)" d="M 669.749878 506.16 
L 669.749878 7.2 
" style="fill:none;stroke:#ffffff;stroke-linecap:square;stroke-width:0.8;"/>
     </g>
     <g id="line2d_14">
      <g>
       <use style="fill:#555555;stroke:#555555;stroke-width:0.8;" x="669.749878" xlink:href="#me3542fa614" y="506.16"/>
      </g>
     </g>
     <g id="text_7">
      <!-- 2020-09 -->
      <g style="fill:#555555;" transform="translate(648.858472 520.758438)scale(0.1 -0.1)">
       <defs>
        <path d="M 10.984375 1.515625 
L 10.984375 10.5 
Q 14.703125 8.734375 18.5 7.8125 
Q 22.3125 6.890625 25.984375 6.890625 
Q 35.75 6.890625 40.890625 13.453125 
Q 46.046875 20.015625 46.78125 33.40625 
Q 43.953125 29.203125 39.59375 26.953125 
Q 35.25 24.703125 29.984375 24.703125 
Q 19.046875 24.703125 12.671875 31.3125 
Q 6.296875 37.9375 6.296875 49.421875 
Q 6.296875 60.640625 12.9375 67.421875 
Q 19.578125 74.21875 30.609375 74.21875 
Q 43.265625 74.21875 49.921875 64.515625 
Q 56.59375 54.828125 56.59375 36.375 
Q 56.59375 19.140625 48.40625 8.859375 
Q 40.234375 -1.421875 26.421875 -1.421875 
Q 22.703125 -1.421875 18.890625 -0.6875 
Q 15.09375 0.046875 10.984375 1.515625 
z
M 30.609375 32.421875 
Q 37.25 32.421875 41.125 36.953125 
Q 45.015625 41.5 45.015625 49.421875 
Q 45.015625 57.28125 41.125 61.84375 
Q 37.25 66.40625 30.609375 66.40625 
Q 23.96875 66.40625 20.09375 61.84375 
Q 16.21875 57.28125 16.21875 49.421875 
Q 16.21875 41.5 20.09375 36.953125 
Q 23.96875 32.421875 30.609375 32.421875 
z
" id="DejaVuSans-57"/>
       </defs>
       <use xlink:href="#DejaVuSans-50"/>
       <use x="63.623047" xlink:href="#DejaVuSans-48"/>
       <use x="127.246094" xlink:href="#DejaVuSans-50"/>
       <use x="190.869141" xlink:href="#DejaVuSans-48"/>
       <use x="254.492188" xlink:href="#DejaVuSans-45"/>
       <use x="290.576172" xlink:href="#DejaVuSans-48"/>
       <use x="354.199219" xlink:href="#DejaVuSans-57"/>
      </g>
     </g>
    </g>
    <g id="xtick_8">
     <g id="line2d_15">
      <path clip-path="url(#p19ee33ebf6)" d="M 766.373255 506.16 
L 766.373255 7.2 
" style="fill:none;stroke:#ffffff;stroke-linecap:square;stroke-width:0.8;"/>
     </g>
     <g id="line2d_16">
      <g>
       <use style="fill:#555555;stroke:#555555;stroke-width:0.8;" x="766.373255" xlink:href="#me3542fa614" y="506.16"/>
      </g>
     </g>
     <g id="text_8">
      <!-- 2020-10 -->
      <g style="fill:#555555;" transform="translate(745.481849 520.758438)scale(0.1 -0.1)">
       <defs>
        <path d="M 12.40625 8.296875 
L 28.515625 8.296875 
L 28.515625 63.921875 
L 10.984375 60.40625 
L 10.984375 69.390625 
L 28.421875 72.90625 
L 38.28125 72.90625 
L 38.28125 8.296875 
L 54.390625 8.296875 
L 54.390625 0 
L 12.40625 0 
z
" id="DejaVuSans-49"/>
       </defs>
       <use xlink:href="#DejaVuSans-50"/>
       <use x="63.623047" xlink:href="#DejaVuSans-48"/>
       <use x="127.246094" xlink:href="#DejaVuSans-50"/>
       <use x="190.869141" xlink:href="#DejaVuSans-48"/>
       <use x="254.492188" xlink:href="#DejaVuSans-45"/>
       <use x="290.576172" xlink:href="#DejaVuSans-49"/>
       <use x="354.199219" xlink:href="#DejaVuSans-48"/>
      </g>
     </g>
    </g>
    <g id="xtick_9">
     <g id="line2d_17">
      <path clip-path="url(#p19ee33ebf6)" d="M 866.217411 506.16 
L 866.217411 7.2 
" style="fill:none;stroke:#ffffff;stroke-linecap:square;stroke-width:0.8;"/>
     </g>
     <g id="line2d_18">
      <g>
       <use style="fill:#555555;stroke:#555555;stroke-width:0.8;" x="866.217411" xlink:href="#me3542fa614" y="506.16"/>
      </g>
     </g>
     <g id="text_9">
      <!-- 2020-11 -->
      <g style="fill:#555555;" transform="translate(845.326004 520.758438)scale(0.1 -0.1)">
       <use xlink:href="#DejaVuSans-50"/>
       <use x="63.623047" xlink:href="#DejaVuSans-48"/>
       <use x="127.246094" xlink:href="#DejaVuSans-50"/>
       <use x="190.869141" xlink:href="#DejaVuSans-48"/>
       <use x="254.492188" xlink:href="#DejaVuSans-45"/>
       <use x="290.576172" xlink:href="#DejaVuSans-49"/>
       <use x="354.199219" xlink:href="#DejaVuSans-49"/>
      </g>
     </g>
    </g>
   </g>
   <g id="matplotlib.axis_2">
    <g id="ytick_1">
     <g id="line2d_19">
      <path clip-path="url(#p19ee33ebf6)" d="M 30.103125 487.780278 
L 922.903125 487.780278 
" style="fill:none;stroke:#ffffff;stroke-linecap:square;stroke-width:0.8;"/>
     </g>
     <g id="line2d_20">
      <defs>
       <path d="M 0 0 
L -3.5 0 
" id="me64bdb5fb8" style="stroke:#555555;stroke-width:0.8;"/>
      </defs>
      <g>
       <use style="fill:#555555;stroke:#555555;stroke-width:0.8;" x="30.103125" xlink:href="#me64bdb5fb8" y="487.780278"/>
      </g>
     </g>
     <g id="text_10">
      <!-- 0.5 -->
      <g style="fill:#555555;" transform="translate(7.2 491.579496)scale(0.1 -0.1)">
       <defs>
        <path d="M 10.6875 12.40625 
L 21 12.40625 
L 21 0 
L 10.6875 0 
z
" id="DejaVuSans-46"/>
       </defs>
       <use xlink:href="#DejaVuSans-48"/>
       <use x="63.623047" xlink:href="#DejaVuSans-46"/>
       <use x="95.410156" xlink:href="#DejaVuSans-53"/>
      </g>
     </g>
    </g>
    <g id="ytick_2">
     <g id="line2d_21">
      <path clip-path="url(#p19ee33ebf6)" d="M 30.103125 426.515284 
L 922.903125 426.515284 
" style="fill:none;stroke:#ffffff;stroke-linecap:square;stroke-width:0.8;"/>
     </g>
     <g id="line2d_22">
      <g>
       <use style="fill:#555555;stroke:#555555;stroke-width:0.8;" x="30.103125" xlink:href="#me64bdb5fb8" y="426.515284"/>
      </g>
     </g>
     <g id="text_11">
      <!-- 1.0 -->
      <g style="fill:#555555;" transform="translate(7.2 430.314503)scale(0.1 -0.1)">
       <use xlink:href="#DejaVuSans-49"/>
       <use x="63.623047" xlink:href="#DejaVuSans-46"/>
       <use x="95.410156" xlink:href="#DejaVuSans-48"/>
      </g>
     </g>
    </g>
    <g id="ytick_3">
     <g id="line2d_23">
      <path clip-path="url(#p19ee33ebf6)" d="M 30.103125 365.25029 
L 922.903125 365.25029 
" style="fill:none;stroke:#ffffff;stroke-linecap:square;stroke-width:0.8;"/>
     </g>
     <g id="line2d_24">
      <g>
       <use style="fill:#555555;stroke:#555555;stroke-width:0.8;" x="30.103125" xlink:href="#me64bdb5fb8" y="365.25029"/>
      </g>
     </g>
     <g id="text_12">
      <!-- 1.5 -->
      <g style="fill:#555555;" transform="translate(7.2 369.049509)scale(0.1 -0.1)">
       <use xlink:href="#DejaVuSans-49"/>
       <use x="63.623047" xlink:href="#DejaVuSans-46"/>
       <use x="95.410156" xlink:href="#DejaVuSans-53"/>
      </g>
     </g>
    </g>
    <g id="ytick_4">
     <g id="line2d_25">
      <path clip-path="url(#p19ee33ebf6)" d="M 30.103125 303.985296 
L 922.903125 303.985296 
" style="fill:none;stroke:#ffffff;stroke-linecap:square;stroke-width:0.8;"/>
     </g>
     <g id="line2d_26">
      <g>
       <use style="fill:#555555;stroke:#555555;stroke-width:0.8;" x="30.103125" xlink:href="#me64bdb5fb8" y="303.985296"/>
      </g>
     </g>
     <g id="text_13">
      <!-- 2.0 -->
      <g style="fill:#555555;" transform="translate(7.2 307.784515)scale(0.1 -0.1)">
       <use xlink:href="#DejaVuSans-50"/>
       <use x="63.623047" xlink:href="#DejaVuSans-46"/>
       <use x="95.410156" xlink:href="#DejaVuSans-48"/>
      </g>
     </g>
    </g>
    <g id="ytick_5">
     <g id="line2d_27">
      <path clip-path="url(#p19ee33ebf6)" d="M 30.103125 242.720302 
L 922.903125 242.720302 
" style="fill:none;stroke:#ffffff;stroke-linecap:square;stroke-width:0.8;"/>
     </g>
     <g id="line2d_28">
      <g>
       <use style="fill:#555555;stroke:#555555;stroke-width:0.8;" x="30.103125" xlink:href="#me64bdb5fb8" y="242.720302"/>
      </g>
     </g>
     <g id="text_14">
      <!-- 2.5 -->
      <g style="fill:#555555;" transform="translate(7.2 246.519521)scale(0.1 -0.1)">
       <use xlink:href="#DejaVuSans-50"/>
       <use x="63.623047" xlink:href="#DejaVuSans-46"/>
       <use x="95.410156" xlink:href="#DejaVuSans-53"/>
      </g>
     </g>
    </g>
    <g id="ytick_6">
     <g id="line2d_29">
      <path clip-path="url(#p19ee33ebf6)" d="M 30.103125 181.455309 
L 922.903125 181.455309 
" style="fill:none;stroke:#ffffff;stroke-linecap:square;stroke-width:0.8;"/>
     </g>
     <g id="line2d_30">
      <g>
       <use style="fill:#555555;stroke:#555555;stroke-width:0.8;" x="30.103125" xlink:href="#me64bdb5fb8" y="181.455309"/>
      </g>
     </g>
     <g id="text_15">
      <!-- 3.0 -->
      <g style="fill:#555555;" transform="translate(7.2 185.254527)scale(0.1 -0.1)">
       <use xlink:href="#DejaVuSans-51"/>
       <use x="63.623047" xlink:href="#DejaVuSans-46"/>
       <use x="95.410156" xlink:href="#DejaVuSans-48"/>
      </g>
     </g>
    </g>
    <g id="ytick_7">
     <g id="line2d_31">
      <path clip-path="url(#p19ee33ebf6)" d="M 30.103125 120.190315 
L 922.903125 120.190315 
" style="fill:none;stroke:#ffffff;stroke-linecap:square;stroke-width:0.8;"/>
     </g>
     <g id="line2d_32">
      <g>
       <use style="fill:#555555;stroke:#555555;stroke-width:0.8;" x="30.103125" xlink:href="#me64bdb5fb8" y="120.190315"/>
      </g>
     </g>
     <g id="text_16">
      <!-- 3.5 -->
      <g style="fill:#555555;" transform="translate(7.2 123.989533)scale(0.1 -0.1)">
       <use xlink:href="#DejaVuSans-51"/>
       <use x="63.623047" xlink:href="#DejaVuSans-46"/>
       <use x="95.410156" xlink:href="#DejaVuSans-53"/>
      </g>
     </g>
    </g>
    <g id="ytick_8">
     <g id="line2d_33">
      <path clip-path="url(#p19ee33ebf6)" d="M 30.103125 58.925321 
L 922.903125 58.925321 
" style="fill:none;stroke:#ffffff;stroke-linecap:square;stroke-width:0.8;"/>
     </g>
     <g id="line2d_34">
      <g>
       <use style="fill:#555555;stroke:#555555;stroke-width:0.8;" x="30.103125" xlink:href="#me64bdb5fb8" y="58.925321"/>
      </g>
     </g>
     <g id="text_17">
      <!-- 4.0 -->
      <g style="fill:#555555;" transform="translate(7.2 62.72454)scale(0.1 -0.1)">
       <use xlink:href="#DejaVuSans-52"/>
       <use x="63.623047" xlink:href="#DejaVuSans-46"/>
       <use x="95.410156" xlink:href="#DejaVuSans-48"/>
      </g>
     </g>
    </g>
   </g>
   <g id="line2d_35">
    <path clip-path="url(#p19ee33ebf6)" d="M 73.905722 95.915216 
L 77.126502 71.676482 
L 80.347281 102.158808 
L 83.56806 87.595249 
L 86.788839 80.485692 
L 90.009619 88.272087 
L 93.230398 104.253139 
L 96.451177 133.484084 
L 99.671956 170.639816 
L 102.892735 179.798001 
L 106.113515 204.903142 
L 109.334294 224.645271 
L 112.555073 230.864061 
L 115.775852 236.284466 
L 118.996631 230.876759 
L 122.217411 227.564572 
L 125.43819 233.740463 
L 128.658969 240.158727 
L 131.879748 250.65587 
L 135.100528 264.960308 
L 138.321307 273.297609 
L 141.542086 279.792368 
L 144.762865 284.451292 
L 147.983644 289.902331 
L 151.204424 297.883829 
L 154.425203 307.638473 
L 157.645982 318.217237 
L 164.087541 335.592921 
L 167.30832 344.462221 
L 170.529099 354.301871 
L 173.749878 362.596333 
L 176.970657 369.332511 
L 180.191437 374.643359 
L 183.412216 379.396755 
L 186.632995 383.222941 
L 189.853774 386.422378 
L 193.074554 390.255318 
L 202.736891 400.64699 
L 205.95767 403.451247 
L 209.17845 405.950662 
L 212.399229 408.029726 
L 222.061567 413.028513 
L 225.282346 414.260321 
L 228.503125 415.147084 
L 234.944683 416.089989 
L 241.386242 416.974281 
L 254.269359 419.49075 
L 276.814813 422.566482 
L 283.256372 422.998995 
L 289.69793 423.281026 
L 315.464164 423.943356 
L 331.56806 424.433504 
L 360.555073 424.995861 
L 370.217411 425.029711 
L 383.100528 425.19779 
L 392.762865 425.29518 
L 405.645982 425.318988 
L 418.529099 425.366528 
L 428.191437 425.122463 
L 437.853774 424.765489 
L 444.295333 424.688669 
L 450.736891 424.743014 
L 463.620008 425.021814 
L 511.931696 425.340116 
L 553.801826 424.811013 
L 576.347281 424.504034 
L 605.334294 423.906073 
L 634.321307 423.305218 
L 640.762865 423.244217 
L 656.866761 423.462376 
L 676.191437 423.792529 
L 685.853774 423.719237 
L 701.95767 423.508668 
L 711.620008 423.40502 
L 737.386242 422.878662 
L 750.269359 422.806866 
L 763.152476 422.652465 
L 776.035593 422.2634 
L 782.477151 421.82267 
L 795.360268 420.479863 
L 801.801826 419.814657 
L 824.347281 416.681664 
L 827.56806 416.151965 
L 830.788839 415.466679 
L 840.451177 413.108736 
L 850.113515 410.94911 
L 853.334294 410.323954 
L 859.775852 409.631063 
L 866.217411 409.403924 
L 872.658969 409.437058 
L 872.658969 409.437058 
" style="fill:none;stroke:#e24a33;stroke-linecap:square;stroke-width:1.5;"/>
   </g>
   <g id="line2d_36">
    <path clip-path="url(#p19ee33ebf6)" d="M 83.56806 95.915216 
L 86.788839 47.437748 
L 90.009619 163.12346 
L 93.230398 43.904573 
L 96.451177 52.047464 
L 102.892735 200.13945 
L 106.113515 300.531834 
L 109.334294 307.527876 
L 112.555073 227.230753 
L 115.775852 219.640556 
L 118.996631 190.242367 
L 122.217411 170.735589 
L 125.43819 238.082286 
L 128.658969 262.677884 
L 131.879748 284.342565 
L 135.100528 270.461994 
L 138.321307 264.568405 
L 141.542086 263.722369 
L 144.762865 270.866652 
L 147.983644 296.443393 
L 151.204424 308.141199 
L 154.425203 316.955034 
L 157.645982 308.619263 
L 164.087541 332.004879 
L 167.30832 344.917999 
L 170.529099 356.654215 
L 173.749878 369.560164 
L 176.970657 379.040137 
L 180.191437 377.496816 
L 183.412216 378.500125 
L 186.632995 379.158119 
L 189.853774 382.093936 
L 193.074554 389.92799 
L 196.295333 396.343463 
L 199.516112 401.4362 
L 202.736891 404.327389 
L 205.95767 403.054328 
L 209.17845 403.579021 
L 212.399229 405.860542 
L 215.620008 409.557789 
L 218.840787 413.839364 
L 222.061567 415.989652 
L 225.282346 416.181683 
L 228.503125 415.546146 
L 231.723904 414.224417 
L 234.944683 414.483198 
L 238.165463 415.765131 
L 241.386242 417.489022 
L 244.607021 418.940324 
L 247.8278 419.158988 
L 251.04858 418.758886 
L 254.269359 418.618973 
L 257.490138 419.154682 
L 260.710917 420.370568 
L 263.931696 421.432833 
L 267.152476 422.099953 
L 270.373255 422.35072 
L 273.594034 421.883767 
L 276.814813 422.070485 
L 280.035593 422.501283 
L 286.477151 423.908565 
L 289.69793 423.919463 
L 299.360268 422.758165 
L 302.581047 422.985505 
L 305.801826 423.6942 
L 309.022606 423.913531 
L 312.243385 424.259099 
L 315.464164 424.073002 
L 318.684943 423.674506 
L 325.126502 424.0765 
L 328.347281 424.508239 
L 331.56806 424.799755 
L 344.451177 424.405938 
L 350.892735 424.99081 
L 354.113515 425.012801 
L 357.334294 425.206854 
L 360.555073 425.26246 
L 366.996631 424.745381 
L 373.43819 424.81589 
L 379.879748 425.451575 
L 392.762865 425.162036 
L 402.425203 425.452606 
L 405.645982 425.283911 
L 415.30832 425.306434 
L 418.529099 425.548826 
L 428.191437 425.254042 
L 431.412216 424.874091 
L 441.074554 424.540196 
L 444.295333 424.719891 
L 457.17845 424.700789 
L 463.620008 425.155605 
L 466.840787 425.144162 
L 470.061567 425.287452 
L 476.503125 425.016004 
L 482.944683 425.211673 
L 486.165463 425.392203 
L 492.607021 425.445332 
L 499.04858 425.209639 
L 505.490138 425.312713 
L 508.710917 425.48983 
L 515.152476 425.497715 
L 524.814813 424.989992 
L 537.69793 425.346876 
L 540.918709 425.123816 
L 544.139489 424.780327 
L 547.360268 424.626028 
L 560.243385 425.036142 
L 566.684943 424.365576 
L 569.905722 424.178508 
L 576.347281 424.686331 
L 579.56806 424.68607 
L 582.788839 424.816948 
L 589.230398 423.978282 
L 592.451177 423.844929 
L 595.671956 423.959815 
L 598.892735 424.320354 
L 602.113515 424.43249 
L 605.334294 424.38067 
L 611.775852 423.306799 
L 614.996631 423.06432 
L 618.217411 423.417899 
L 621.43819 423.927666 
L 627.879748 423.932563 
L 631.100528 423.343005 
L 634.321307 422.874308 
L 637.542086 422.541564 
L 640.762865 422.957666 
L 643.983644 423.514404 
L 647.204424 423.608338 
L 650.425203 423.870232 
L 656.866761 423.048871 
L 660.087541 422.958742 
L 666.529099 423.867393 
L 672.970657 424.185557 
L 676.191437 423.923422 
L 679.412216 423.500715 
L 682.632995 423.431429 
L 685.853774 423.578001 
L 689.074554 423.837845 
L 692.295333 423.826388 
L 695.516112 423.936857 
L 698.736891 423.499663 
L 701.95767 423.178688 
L 705.17845 423.130211 
L 708.399229 423.252947 
L 711.620008 423.735917 
L 714.840787 423.78439 
L 718.061567 423.667879 
L 721.282346 423.085108 
L 727.723904 422.226378 
L 730.944683 422.510802 
L 734.165463 423.125404 
L 737.386242 423.187538 
L 740.607021 423.449309 
L 743.8278 423.09904 
L 747.04858 422.552166 
L 750.269359 422.265415 
L 753.490138 422.447299 
L 756.710917 422.892683 
L 759.931696 422.942148 
L 763.152476 423.274647 
L 766.373255 422.813552 
L 769.594034 422.18726 
L 776.035593 421.827779 
L 779.256372 422.332979 
L 782.477151 422.377137 
L 785.69793 422.295427 
L 788.918709 421.589632 
L 792.139489 420.32607 
L 795.360268 419.52764 
L 798.581047 419.320447 
L 801.801826 420.033211 
L 805.022606 420.266614 
L 808.243385 420.18645 
L 811.464164 419.042164 
L 814.684943 417.251047 
L 817.905722 415.969786 
L 821.126502 415.948494 
L 824.347281 416.96774 
L 830.788839 417.570346 
L 834.009619 415.753444 
L 837.230398 413.543156 
L 840.451177 411.172781 
L 843.671956 410.297446 
L 846.892735 411.546282 
L 853.334294 412.273883 
L 856.555073 411.003598 
L 859.775852 408.472087 
L 862.996631 406.796685 
L 866.217411 407.593996 
L 869.43819 409.399497 
L 872.658969 410.802434 
L 875.879748 411.759173 
L 879.100528 410.762529 
L 882.321307 408.94509 
L 882.321307 408.94509 
" style="fill:none;stroke:#e24a33;stroke-dasharray:1.5,2.475;stroke-dashoffset:0;stroke-width:1.5;"/>
   </g>
   <g id="line2d_37">
    <path clip-path="url(#p19ee33ebf6)" d="M 73.905722 218.445493 
L 77.126502 194.206808 
L 80.347281 224.689218 
L 83.56806 210.125789 
L 86.788839 175.258689 
L 90.009619 171.547032 
L 93.230398 178.09196 
L 96.451177 201.55952 
L 99.671956 233.15362 
L 102.892735 230.657838 
L 106.113515 239.76734 
L 109.334294 246.509259 
L 112.555073 228.922295 
L 115.775852 232.837311 
L 118.996631 219.332281 
L 122.217411 211.051178 
L 128.658969 225.578611 
L 131.879748 251.515031 
L 135.100528 284.28822 
L 138.321307 294.591929 
L 141.542086 302.161245 
L 144.762865 305.580098 
L 147.983644 308.460319 
L 151.204424 317.220087 
L 154.425203 330.40298 
L 157.645982 347.120766 
L 160.866761 359.952765 
L 170.529099 396.610317 
L 173.749878 407.167401 
L 176.970657 413.342208 
L 183.412216 417.410793 
L 186.632995 419.660979 
L 189.853774 422.410973 
L 193.074554 428.046682 
L 196.295333 432.3901 
L 199.516112 437.154287 
L 202.736891 442.538842 
L 205.95767 445.062094 
L 209.17845 449.153104 
L 212.399229 452.526277 
L 218.840787 455.999311 
L 222.061567 453.855334 
L 225.282346 449.446292 
L 228.503125 445.472956 
L 231.723904 441.061151 
L 234.944683 438.778281 
L 238.165463 437.310978 
L 241.386242 436.501266 
L 244.607021 438.837463 
L 247.8278 442.567665 
L 251.04858 446.916144 
L 254.269359 450.534827 
L 257.490138 452.102762 
L 260.710917 453.483337 
L 263.931696 453.441234 
L 267.152476 453.995318 
L 270.373255 455.645304 
L 273.594034 456.636953 
L 276.814813 458.84409 
L 280.035593 458.859444 
L 283.256372 456.102106 
L 286.477151 451.929725 
L 289.69793 441.23448 
L 292.918709 432.693193 
L 296.139489 430.089686 
L 299.360268 426.233762 
L 302.581047 426.079061 
L 305.801826 427.052212 
L 309.022606 426.882743 
L 312.243385 435.543754 
L 315.464164 441.046305 
L 318.684943 443.767974 
L 321.905722 447.310045 
L 328.347281 443.831445 
L 331.56806 443.892777 
L 334.788839 439.248147 
L 338.009619 440.810674 
L 341.230398 441.776732 
L 344.451177 439.389373 
L 347.671956 441.336861 
L 350.892735 444.044302 
L 354.113515 443.776236 
L 357.334294 444.77574 
L 360.555073 438.097969 
L 363.775852 425.800251 
L 366.996631 423.70257 
L 370.217411 424.374544 
L 373.43819 424.833128 
L 376.658969 430.863521 
L 379.879748 433.922271 
L 383.100528 434.419656 
L 386.321307 440.482059 
L 389.542086 439.745853 
L 392.762865 436.562279 
L 395.983644 431.524314 
L 399.204424 425.530938 
L 402.425203 423.574301 
L 405.645982 426.730914 
L 408.866761 433.513038 
L 412.087541 435.035836 
L 415.30832 433.833356 
L 418.529099 430.880586 
L 421.749878 414.298025 
L 424.970657 400.15317 
L 428.191437 381.24803 
L 431.412216 363.593621 
L 434.632995 357.705539 
L 437.853774 353.816547 
L 441.074554 357.426234 
L 444.295333 377.330424 
L 447.516112 393.925346 
L 450.736891 418.156734 
L 453.95767 435.495584 
L 457.17845 441.584663 
L 460.399229 448.331027 
L 463.620008 448.54384 
L 466.840787 443.455198 
L 470.061567 442.476387 
L 473.282346 438.967514 
L 476.503125 438.588017 
L 479.723904 440.535705 
L 486.165463 438.587966 
L 489.386242 437.058099 
L 492.607021 433.721666 
L 495.8278 432.1685 
L 499.04858 431.328297 
L 502.269359 430.047155 
L 505.490138 429.205706 
L 508.710917 427.528158 
L 511.931696 421.078104 
L 518.373255 407.014586 
L 521.594034 402.48847 
L 524.814813 401.405529 
L 528.035593 401.602182 
L 531.256372 402.029919 
L 534.477151 403.488087 
L 537.69793 402.169357 
L 540.918709 399.518914 
L 544.139489 396.443851 
L 547.360268 395.15691 
L 550.581047 394.551804 
L 553.801826 393.409594 
L 557.022606 395.711658 
L 560.243385 397.23533 
L 563.464164 401.06302 
L 566.684943 405.321851 
L 569.905722 405.956638 
L 573.126502 406.912777 
L 576.347281 406.322269 
L 579.56806 404.527013 
L 582.788839 406.0455 
L 586.009619 403.928424 
L 589.230398 403.556747 
L 592.451177 404.055277 
L 595.671956 402.472206 
L 598.892735 402.77049 
L 602.113515 401.384864 
L 605.334294 397.397711 
L 608.555073 398.851767 
L 611.775852 399.424894 
L 614.996631 399.827657 
L 618.217411 400.645902 
L 621.43819 400.738689 
L 624.658969 401.968297 
L 627.879748 404.145773 
L 631.100528 405.789742 
L 634.321307 406.415725 
L 637.542086 406.212365 
L 640.762865 407.739929 
L 643.983644 411.153072 
L 647.204424 416.272381 
L 650.425203 423.219587 
L 653.645982 427.198283 
L 656.866761 428.637331 
L 660.087541 430.501588 
L 663.30832 430.853317 
L 666.529099 431.373394 
L 669.749878 431.706212 
L 672.970657 430.957369 
L 676.191437 429.25892 
L 679.412216 426.147142 
L 685.853774 419.110531 
L 689.074554 415.151021 
L 692.295333 412.916381 
L 698.736891 412.810523 
L 701.95767 415.033591 
L 705.17845 416.460421 
L 708.399229 416.302523 
L 711.620008 415.762508 
L 714.840787 412.59763 
L 718.061567 406.118496 
L 721.282346 403.217153 
L 724.503125 401.803127 
L 727.723904 400.945811 
L 730.944683 403.281209 
L 734.165463 407.154735 
L 737.386242 411.879068 
L 740.607021 417.985377 
L 743.8278 419.620368 
L 747.04858 418.162667 
L 753.490138 416.341713 
L 756.710917 415.209493 
L 759.931696 414.66637 
L 763.152476 414.973923 
L 766.373255 412.495497 
L 769.594034 411.056164 
L 772.814813 409.915314 
L 776.035593 406.412446 
L 779.256372 403.514268 
L 782.477151 397.734894 
L 785.69793 389.08455 
L 788.918709 383.934139 
L 792.139489 380.1012 
L 795.360268 378.777436 
L 798.581047 379.024486 
L 801.801826 378.928383 
L 805.022606 379.783259 
L 808.243385 379.755422 
L 811.464164 380.396898 
L 814.684943 380.861443 
L 817.905722 380.755876 
L 821.126502 381.421226 
L 824.347281 381.354044 
L 827.56806 382.301707 
L 830.788839 382.280417 
L 834.009619 379.042357 
L 837.230398 376.284467 
L 840.451177 373.072585 
L 843.671956 370.864519 
L 846.892735 371.347282 
L 850.113515 373.54827 
L 853.334294 378.992548 
L 856.555073 387.756868 
L 859.775852 392.805037 
L 862.996631 397.383569 
L 866.217411 400.60869 
L 869.43819 402.871536 
L 872.658969 406.240932 
L 872.658969 406.240932 
" style="fill:none;stroke:#348abd;stroke-linecap:square;stroke-width:1.5;"/>
   </g>
   <g id="line2d_38">
    <path clip-path="url(#p19ee33ebf6)" d="M 83.56806 218.445493 
L 86.788839 169.968122 
L 90.009619 285.654038 
L 93.230398 166.435504 
L 96.451177 35.790288 
L 99.671956 152.988746 
L 102.892735 217.361532 
L 106.113515 382.718408 
L 109.334294 391.126823 
L 112.555073 268.183565 
L 115.775852 230.202015 
L 118.996631 82.98372 
L 122.217411 29.88 
L 125.43819 244.766645 
L 128.658969 288.183197 
L 131.879748 333.159103 
L 135.100528 318.257361 
L 138.321307 281.82025 
L 141.542086 264.538661 
L 144.762865 259.292323 
L 147.983644 316.89261 
L 151.204424 341.168405 
L 154.425203 357.091077 
L 157.645982 338.418906 
L 160.866761 343.138629 
L 164.087541 356.818911 
L 167.30832 376.316825 
L 170.529099 406.716607 
L 173.749878 426.459066 
L 176.970657 440.201836 
L 180.191437 426.620345 
L 183.412216 417.038217 
L 186.632995 400.042563 
L 189.853774 390.220733 
L 193.074554 421.29279 
L 196.295333 442.21037 
L 199.516112 459.451796 
L 202.736891 466.070307 
L 205.95767 447.442144 
L 209.17845 433.391871 
L 212.399229 427.912617 
L 215.620008 438.955555 
L 218.840787 470.847436 
L 222.061567 483.064006 
L 225.282346 478.223493 
L 228.503125 459.6002 
L 231.723904 418.384027 
L 234.944683 397.049328 
L 238.165463 411.1422 
L 241.386242 439.964802 
L 244.607021 467.083919 
L 247.8278 467.952372 
L 251.04858 453.932215 
L 254.269359 434.737406 
L 257.490138 423.160738 
L 260.710917 441.581555 
L 263.931696 465.295582 
L 267.152476 478.059465 
L 270.373255 477.6164 
L 273.594034 453.637495 
L 276.814813 438.615995 
L 280.035593 434.710639 
L 283.256372 448.523097 
L 286.477151 480.745537 
L 289.69793 478.166948 
L 292.918709 458.315033 
L 296.139489 424.430824 
L 299.360268 363.749278 
L 302.581047 374.921632 
L 305.801826 430.298546 
L 312.243385 477.084044 
L 315.464164 465.127091 
L 318.684943 423.244535 
L 321.905722 424.376356 
L 325.126502 413.439488 
L 328.347281 449.350233 
L 331.56806 478.548566 
L 334.788839 465.143763 
L 338.009619 452.71717 
L 341.230398 423.673864 
L 344.451177 391.863946 
L 350.892735 456.11264 
L 354.113515 461.83705 
L 357.334294 478.77618 
L 360.555073 471.669255 
L 363.775852 421.797407 
L 366.996631 398.860471 
L 370.217411 377.632779 
L 373.43819 370.028618 
L 376.658969 447.15328 
L 379.879748 483.48 
L 383.100528 474.879339 
L 386.321307 464.010161 
L 389.542086 420.271718 
L 392.762865 381.114479 
L 395.983644 412.465433 
L 399.204424 441.999843 
L 402.425203 461.194983 
L 405.645982 439.61358 
L 408.866761 422.05653 
L 412.087541 406.575262 
L 415.30832 403.210764 
L 418.529099 459.940305 
L 421.749878 452.659427 
L 424.970657 452.777627 
L 428.191437 418.944184 
L 431.412216 305.978607 
L 434.632995 307.561279 
L 437.853774 270.874783 
L 441.074554 336.35944 
L 444.295333 411.442854 
L 447.516112 425.554683 
L 450.736891 444.211995 
L 453.95767 445.307937 
L 457.17845 423.725727 
L 463.620008 457.731386 
L 466.840787 454.066405 
L 470.061567 472.779231 
L 473.282346 445.701687 
L 476.503125 409.687444 
L 479.723904 416.874052 
L 482.944683 415.932397 
L 486.165463 455.074905 
L 489.386242 467.70022 
L 492.607021 466.002357 
L 495.8278 438.844388 
L 499.04858 398.978379 
L 502.269359 393.519019 
L 505.490138 405.060234 
L 508.710917 449.193486 
L 511.931696 458.73222 
L 515.152476 460.112216 
L 518.373255 427.101552 
L 521.594034 353.828003 
L 524.814813 344.623897 
L 528.035593 355.510727 
L 531.256372 417.510676 
L 534.477151 451.151632 
L 537.69793 461.488791 
L 540.918709 430.095705 
L 544.139489 364.035181 
L 547.360268 335.392783 
L 550.581047 336.957626 
L 553.801826 395.985237 
L 557.022606 442.143049 
L 560.243385 457.253047 
L 563.464164 422.100236 
L 566.684943 380.14963 
L 569.905722 346.058488 
L 573.126502 363.751452 
L 576.347281 425.797054 
L 579.56806 446.58656 
L 582.788839 463.946022 
L 586.009619 417.96668 
L 589.230398 367.582834 
L 592.451177 356.687896 
L 595.671956 348.931923 
L 598.892735 423.195316 
L 602.113515 450.07627 
L 605.334294 452.864519 
L 608.555073 420.054669 
L 611.775852 357.883456 
L 614.996631 328.77782 
L 618.217411 359.110317 
L 621.43819 427.207204 
L 624.658969 452.895609 
L 627.879748 458.59224 
L 631.100528 420.704174 
L 634.321307 366.490717 
L 637.542086 344.020151 
L 640.762865 370.618099 
L 643.983644 431.589087 
L 647.204424 451.472088 
L 650.425203 469.285185 
L 653.645982 444.596179 
L 656.866761 402.325876 
L 660.087541 392.650596 
L 663.30832 398.468967 
L 666.529099 441.662425 
L 669.749878 464.521888 
L 672.970657 471.74729 
L 676.191437 448.236717 
L 679.412216 404.655603 
L 682.632995 387.408694 
L 685.853774 386.579819 
L 689.074554 419.879985 
L 692.295333 439.591699 
L 695.516112 447.421197 
L 698.736891 420.520152 
L 701.95767 389.013121 
L 705.17845 387.155897 
L 708.399229 386.091609 
L 711.620008 435.44146 
L 714.840787 449.579514 
L 718.061567 446.315908 
L 721.282346 416.74005 
L 724.503125 366.858972 
L 727.723904 341.801962 
L 730.944683 365.782207 
L 734.165463 425.543277 
L 737.386242 443.578303 
L 740.607021 462.663695 
L 743.8278 443.854731 
L 747.04858 399.929302 
L 750.269359 384.546124 
L 753.490138 377.227141 
L 756.710917 415.339371 
L 759.931696 437.205194 
L 763.152476 456.290128 
L 766.373255 435.929191 
L 769.594034 396.127442 
L 772.814813 386.698996 
L 776.035593 359.878155 
L 779.256372 405.26404 
L 782.477151 429.219245 
L 785.69793 431.770056 
L 788.918709 415.64194 
L 792.139489 355.671825 
L 795.360268 326.146593 
L 798.581047 323.825274 
L 801.801826 378.43347 
L 805.022606 419.952891 
L 808.243385 433.499409 
L 811.464164 414.969217 
L 814.684943 361.655959 
L 817.905722 325.951735 
L 821.126502 328.315606 
L 824.347281 381.685286 
L 827.56806 419.213919 
L 830.788839 438.156861 
L 834.009619 414.498943 
L 837.230398 368.289597 
L 840.451177 325.802704 
L 843.671956 305.649191 
L 846.892735 362.380053 
L 850.113515 396.730745 
L 853.334294 422.700398 
L 856.555073 417.878285 
L 859.775852 383.696513 
L 862.996631 363.91265 
L 866.217411 366.999431 
L 872.658969 428.780467 
L 875.879748 445.276244 
L 879.100528 433.718208 
L 882.321307 407.282283 
L 882.321307 407.282283 
" style="fill:none;stroke:#348abd;stroke-dasharray:1.5,2.475;stroke-dashoffset:0;stroke-width:1.5;"/>
   </g>
   <g id="line2d_39">
    <path clip-path="url(#p19ee33ebf6)" d="M 30.103125 426.515284 
L 922.903125 426.515284 
" style="fill:none;stroke:#008000;stroke-linecap:square;stroke-opacity:0.5;stroke-width:1.5;"/>
   </g>
   <g id="patch_3">
    <path d="M 30.103125 506.16 
L 30.103125 7.2 
" style="fill:none;stroke:#ffffff;stroke-linecap:square;stroke-linejoin:miter;"/>
   </g>
   <g id="patch_4">
    <path d="M 922.903125 506.16 
L 922.903125 7.2 
" style="fill:none;stroke:#ffffff;stroke-linecap:square;stroke-linejoin:miter;"/>
   </g>
   <g id="patch_5">
    <path d="M 30.103125 506.16 
L 922.903125 506.16 
" style="fill:none;stroke:#ffffff;stroke-linecap:square;stroke-linejoin:miter;"/>
   </g>
   <g id="patch_6">
    <path d="M 30.103125 7.2 
L 922.903125 7.2 
" style="fill:none;stroke:#ffffff;stroke-linecap:square;stroke-linejoin:miter;"/>
   </g>
  </g>
  <g id="axes_2">
   <g id="matplotlib.axis_3">
    <g id="ytick_9">
     <g id="line2d_40">
      <path clip-path="url(#p19ee33ebf6)" d="M 30.103125 483.712128 
L 922.903125 483.712128 
" style="fill:none;stroke:#ffffff;stroke-linecap:square;stroke-width:0.8;"/>
     </g>
     <g id="line2d_41">
      <defs>
       <path d="M 0 0 
L 3.5 0 
" id="mf63873b893" style="stroke:#555555;stroke-width:0.8;"/>
      </defs>
      <g>
       <use style="fill:#555555;stroke:#555555;stroke-width:0.8;" x="922.903125" xlink:href="#mf63873b893" y="483.712128"/>
      </g>
     </g>
     <g id="text_18">
      <!-- 0 -->
      <g style="fill:#555555;" transform="translate(929.903125 487.511347)scale(0.1 -0.1)">
       <use xlink:href="#DejaVuSans-48"/>
      </g>
     </g>
    </g>
    <g id="ytick_10">
     <g id="line2d_42">
      <path clip-path="url(#p19ee33ebf6)" d="M 30.103125 378.199218 
L 922.903125 378.199218 
" style="fill:none;stroke:#ffffff;stroke-linecap:square;stroke-width:0.8;"/>
     </g>
     <g id="line2d_43">
      <g>
       <use style="fill:#555555;stroke:#555555;stroke-width:0.8;" x="922.903125" xlink:href="#mf63873b893" y="378.199218"/>
      </g>
     </g>
     <g id="text_19">
      <!-- 5000 -->
      <g style="fill:#555555;" transform="translate(929.903125 381.998437)scale(0.1 -0.1)">
       <use xlink:href="#DejaVuSans-53"/>
       <use x="63.623047" xlink:href="#DejaVuSans-48"/>
       <use x="127.246094" xlink:href="#DejaVuSans-48"/>
       <use x="190.869141" xlink:href="#DejaVuSans-48"/>
      </g>
     </g>
    </g>
    <g id="ytick_11">
     <g id="line2d_44">
      <path clip-path="url(#p19ee33ebf6)" d="M 30.103125 272.686308 
L 922.903125 272.686308 
" style="fill:none;stroke:#ffffff;stroke-linecap:square;stroke-width:0.8;"/>
     </g>
     <g id="line2d_45">
      <g>
       <use style="fill:#555555;stroke:#555555;stroke-width:0.8;" x="922.903125" xlink:href="#mf63873b893" y="272.686308"/>
      </g>
     </g>
     <g id="text_20">
      <!-- 10000 -->
      <g style="fill:#555555;" transform="translate(929.903125 276.485527)scale(0.1 -0.1)">
       <use xlink:href="#DejaVuSans-49"/>
       <use x="63.623047" xlink:href="#DejaVuSans-48"/>
       <use x="127.246094" xlink:href="#DejaVuSans-48"/>
       <use x="190.869141" xlink:href="#DejaVuSans-48"/>
       <use x="254.492188" xlink:href="#DejaVuSans-48"/>
      </g>
     </g>
    </g>
    <g id="ytick_12">
     <g id="line2d_46">
      <path clip-path="url(#p19ee33ebf6)" d="M 30.103125 167.173398 
L 922.903125 167.173398 
" style="fill:none;stroke:#ffffff;stroke-linecap:square;stroke-width:0.8;"/>
     </g>
     <g id="line2d_47">
      <g>
       <use style="fill:#555555;stroke:#555555;stroke-width:0.8;" x="922.903125" xlink:href="#mf63873b893" y="167.173398"/>
      </g>
     </g>
     <g id="text_21">
      <!-- 15000 -->
      <g style="fill:#555555;" transform="translate(929.903125 170.972617)scale(0.1 -0.1)">
       <use xlink:href="#DejaVuSans-49"/>
       <use x="63.623047" xlink:href="#DejaVuSans-53"/>
       <use x="127.246094" xlink:href="#DejaVuSans-48"/>
       <use x="190.869141" xlink:href="#DejaVuSans-48"/>
       <use x="254.492188" xlink:href="#DejaVuSans-48"/>
      </g>
     </g>
    </g>
    <g id="ytick_13">
     <g id="line2d_48">
      <path clip-path="url(#p19ee33ebf6)" d="M 30.103125 61.660488 
L 922.903125 61.660488 
" style="fill:none;stroke:#ffffff;stroke-linecap:square;stroke-width:0.8;"/>
     </g>
     <g id="line2d_49">
      <g>
       <use style="fill:#555555;stroke:#555555;stroke-width:0.8;" x="922.903125" xlink:href="#mf63873b893" y="61.660488"/>
      </g>
     </g>
     <g id="text_22">
      <!-- 20000 -->
      <g style="fill:#555555;" transform="translate(929.903125 65.459707)scale(0.1 -0.1)">
       <use xlink:href="#DejaVuSans-50"/>
       <use x="63.623047" xlink:href="#DejaVuSans-48"/>
       <use x="127.246094" xlink:href="#DejaVuSans-48"/>
       <use x="190.869141" xlink:href="#DejaVuSans-48"/>
       <use x="254.492188" xlink:href="#DejaVuSans-48"/>
      </g>
     </g>
    </g>
   </g>
   <g id="line2d_50">
    <path clip-path="url(#p19ee33ebf6)" d="M 70.684943 482.894403 
L 77.126502 482.790649 
L 80.347281 482.506267 
L 83.56806 481.945541 
L 86.788839 481.508416 
L 90.009619 481.375771 
L 93.230398 480.745708 
L 96.451177 480.396008 
L 99.671956 479.778004 
L 102.892735 477.776274 
L 106.113515 476.40762 
L 109.334294 474.668165 
L 115.775852 469.021717 
L 118.996631 466.046253 
L 122.217411 463.721954 
L 125.43819 457.695659 
L 128.658969 450.867467 
L 131.879748 444.922568 
L 135.100528 442.194306 
L 138.321307 433.487983 
L 141.542086 422.574934 
L 144.762865 413.301856 
L 147.983644 406.811305 
L 151.204424 398.30395 
L 154.425203 387.484355 
L 157.645982 381.403796 
L 160.866761 379.326699 
L 164.087541 379.775883 
L 167.30832 375.751319 
L 170.529099 372.127704 
L 173.749878 370.93993 
L 176.970657 371.579037 
L 180.191437 365.637153 
L 183.412216 368.874892 
L 186.632995 371.229337 
L 189.853774 375.600586 
L 193.074554 379.163908 
L 196.295333 381.729379 
L 199.516112 387.604941 
L 202.736891 396.99559 
L 205.95767 400.432296 
L 209.17845 405.713971 
L 212.399229 410.287202 
L 215.620008 416.642094 
L 218.840787 422.499567 
L 222.061567 424.079246 
L 225.282346 425.173566 
L 228.503125 427.470733 
L 231.723904 428.366085 
L 234.944683 429.116734 
L 238.165463 430.666267 
L 241.386242 433.810551 
L 244.607021 438.495324 
L 254.269359 444.883378 
L 257.490138 447.69605 
L 260.710917 450.330858 
L 263.931696 452.435087 
L 267.152476 455.781354 
L 270.373255 458.627188 
L 273.594034 459.649156 
L 276.814813 461.032882 
L 280.035593 462.109114 
L 283.256372 462.693957 
L 286.477151 463.990258 
L 289.69793 463.067774 
L 292.918709 463.44762 
L 296.139489 464.418339 
L 299.360268 463.670705 
L 302.581047 464.119888 
L 305.801826 465.178032 
L 309.022606 466.07037 
L 312.243385 467.972617 
L 315.464164 468.225848 
L 318.684943 468.271068 
L 321.905722 469.537223 
L 325.126502 469.540237 
L 328.347281 470.106992 
L 331.56806 471.472631 
L 334.788839 471.418367 
L 338.009619 471.876595 
L 344.451177 472.280558 
L 347.671956 473.591933 
L 350.892735 474.773678 
L 354.113515 473.92656 
L 357.334294 473.625094 
L 360.555073 474.062219 
L 363.775852 473.929574 
L 366.996631 474.589784 
L 370.217411 474.650077 
L 373.43819 474.526476 
L 376.658969 475.231905 
L 379.879748 476.229756 
L 383.100528 476.184536 
L 386.321307 476.54328 
L 389.542086 476.130272 
L 392.762865 476.202624 
L 395.983644 475.717264 
L 399.204424 476.467913 
L 405.645982 476.808569 
L 408.866761 476.874892 
L 418.529099 476.633719 
L 421.749878 475.090216 
L 424.970657 474.327509 
L 428.191437 473.001061 
L 431.412216 471.961005 
L 434.632995 471.584173 
L 437.853774 470.854627 
L 441.074554 470.703894 
L 444.295333 471.587188 
L 447.516112 471.327927 
L 450.736891 472.627244 
L 453.95767 473.456274 
L 457.17845 473.471347 
L 463.620008 474.218981 
L 466.840787 474.312435 
L 470.061567 475.111319 
L 476.503125 475.292198 
L 479.723904 475.617781 
L 489.386242 476.163433 
L 492.607021 476.296078 
L 495.8278 476.268946 
L 499.04858 476.449826 
L 502.269359 476.383503 
L 505.490138 476.522177 
L 508.710917 476.244829 
L 515.152476 475.222861 
L 518.373255 475.361535 
L 531.256372 474.342582 
L 537.69793 472.883489 
L 547.360268 471.96402 
L 550.581047 471.270649 
L 553.801826 470.266769 
L 557.022606 470.100963 
L 560.243385 469.576413 
L 563.464164 469.772366 
L 566.684943 469.262889 
L 569.905722 468.521284 
L 573.126502 468.349449 
L 576.347281 467.918353 
L 579.56806 467.083294 
L 582.788839 466.579846 
L 586.009619 465.63023 
L 589.230398 465.8503 
L 592.451177 465.588025 
L 595.671956 464.125918 
L 598.892735 462.920056 
L 605.334294 461.126336 
L 608.555073 460.915311 
L 611.775852 460.538479 
L 614.996631 459.260265 
L 621.43819 457.614264 
L 624.658969 457.680586 
L 627.879748 455.814515 
L 634.321307 454.889016 
L 637.542086 455.226657 
L 640.762865 455.02769 
L 643.983644 455.630621 
L 647.204424 455.196511 
L 650.425203 456.869644 
L 653.645982 456.8606 
L 656.866761 457.16508 
L 660.087541 457.34596 
L 663.30832 458.310649 
L 666.529099 458.901521 
L 672.970657 459.561731 
L 679.412216 458.334766 
L 682.632995 457.487648 
L 685.853774 457.728821 
L 689.074554 455.977306 
L 692.295333 455.883852 
L 695.516112 455.124159 
L 698.736891 455.244745 
L 701.95767 454.904089 
L 705.17845 455.181438 
L 708.399229 452.995813 
L 711.620008 452.085387 
L 714.840787 450.783057 
L 718.061567 448.772282 
L 721.282346 447.575464 
L 724.503125 447.590537 
L 727.723904 446.34247 
L 730.944683 446.740405 
L 734.165463 446.894152 
L 740.607021 445.546602 
L 743.8278 445.350649 
L 750.269359 443.728765 
L 753.490138 443.64134 
L 756.710917 442.556064 
L 759.931696 440.988444 
L 763.152476 440.819623 
L 766.373255 438.199888 
L 769.594034 437.627104 
L 772.814813 435.969044 
L 776.035593 432.86395 
L 779.256372 428.176162 
L 782.477151 422.620154 
L 785.69793 416.114529 
L 788.918709 412.484885 
L 792.139489 409.213985 
L 795.360268 404.743252 
L 798.581047 397.797488 
L 801.801826 390.019679 
L 805.022606 381.524382 
L 808.243385 372.151821 
L 811.464164 365.808988 
L 814.684943 360.20776 
L 817.905722 351.929518 
L 821.126502 344.504424 
L 824.347281 330.489295 
L 827.56806 318.708025 
L 830.788839 297.955143 
L 834.009619 281.106239 
L 837.230398 267.962345 
L 840.451177 254.272798 
L 843.671956 232.057809 
L 846.892735 215.516399 
L 850.113515 193.090384 
L 853.334294 179.99171 
L 856.555073 170.944731 
L 859.775852 160.65873 
L 862.996631 148.771947 
L 866.217411 141.988974 
L 869.43819 132.293845 
L 872.658969 123.777446 
L 872.658969 123.777446 
" style="fill:none;stroke:#000000;stroke-linecap:square;stroke-width:1.5;"/>
   </g>
   <g id="line2d_51">
    <path clip-path="url(#p19ee33ebf6)" d="M 70.684943 482.593692 
L 73.905722 483.48 
L 77.126502 482.382666 
L 80.347281 483.121256 
L 83.56806 482.846923 
L 86.788839 482.319358 
L 90.009619 480.799972 
L 93.230398 478.668611 
L 96.451177 480.420126 
L 99.671956 481.454152 
L 102.892735 478.710816 
L 106.113515 480.399023 
L 109.334294 477.993329 
L 112.555073 466.787858 
L 115.775852 469.088039 
L 118.996631 468.243936 
L 122.217411 461.702135 
L 125.43819 458.937697 
L 128.658969 459.570775 
L 131.879748 461.723238 
L 135.100528 424.603796 
L 138.321307 421.290691 
L 141.542086 426.629644 
L 144.762865 442.604299 
L 147.983644 397.99344 
L 151.204424 383.179428 
L 154.425203 396.811696 
L 160.866761 361.739204 
L 164.087541 350.892477 
L 167.30832 400.040391 
L 170.529099 383.453761 
L 173.749878 386.323712 
L 176.970657 368.639749 
L 180.191437 353.804634 
L 183.412216 353.424787 
L 186.632995 355.366225 
L 189.853774 358.447202 
L 193.074554 406.117934 
L 196.295333 402.804829 
L 199.516112 399.238493 
L 202.736891 378.747886 
L 205.95767 371.383084 
L 209.17845 396.495157 
L 212.399229 424.181745 
L 215.620008 430.174878 
L 218.840787 439.776553 
L 222.061567 431.25111 
L 225.282346 423.232128 
L 228.503125 412.385401 
L 231.723904 407.55291 
L 234.944683 431.841982 
L 238.165463 446.255045 
L 241.386242 446.04402 
L 244.607021 436.505652 
L 247.8278 434.078856 
L 251.04858 434.395394 
L 254.269359 440.346322 
L 257.490138 447.056943 
L 260.710917 462.2297 
L 263.931696 459.570775 
L 267.152476 456.194361 
L 270.373255 452.522512 
L 273.594034 449.124997 
L 276.814813 463.770188 
L 280.035593 466.977781 
L 283.256372 469.383475 
L 286.477151 469.25686 
L 289.69793 463.727983 
L 292.918709 456.616413 
L 296.139489 458.199107 
L 299.360268 457.312798 
L 302.581047 469.636706 
L 305.801826 476.178507 
L 309.022606 464.023419 
L 312.243385 466.872268 
L 315.464164 464.023419 
L 318.684943 464.445471 
L 321.905722 470.628528 
L 325.126502 471.409323 
L 328.347281 476.495045 
L 331.56806 472.886504 
L 334.788839 466.893371 
L 338.009619 467.990705 
L 341.230398 474.004941 
L 344.451177 470.248681 
L 347.671956 474.616916 
L 350.892735 477.613482 
L 354.113515 474.595813 
L 357.334294 476.072994 
L 360.555073 476.262917 
L 363.775852 468.075115 
L 366.996631 468.138423 
L 370.217411 477.67679 
L 373.43819 476.684969 
L 376.658969 479.217278 
L 379.879748 476.495045 
L 383.100528 475.397711 
L 386.321307 473.013119 
L 392.762865 477.360251 
L 395.983644 479.196176 
L 399.204424 476.326225 
L 402.425203 477.001507 
L 405.645982 472.000195 
L 408.866761 478.267662 
L 412.087541 476.36843 
L 415.30832 478.499791 
L 418.529099 479.660433 
L 421.749878 475.735352 
L 424.970657 476.431738 
L 428.191437 471.472631 
L 431.412216 467.46314 
L 434.632995 471.029477 
L 437.853774 469.214655 
L 441.074554 472.380042 
L 444.295333 473.09753 
L 447.516112 471.324913 
L 450.736891 470.417502 
L 453.95767 473.646197 
L 457.17845 469.214655 
L 460.399229 478.309867 
L 463.620008 478.183252 
L 466.840787 473.203043 
L 470.061567 473.878325 
L 473.282346 473.09753 
L 476.503125 474.300377 
L 479.723904 474.806839 
L 482.944683 478.668611 
L 486.165463 479.090663 
L 489.386242 475.482121 
L 492.607021 475.334403 
L 495.8278 474.384787 
L 499.04858 475.376609 
L 502.269359 475.735352 
L 505.490138 478.478688 
L 508.710917 480.356818 
L 511.931696 475.017865 
L 515.152476 476.305122 
L 518.373255 472.44335 
L 521.594034 471.409323 
L 524.814813 472.548863 
L 528.035593 479.449407 
L 531.256372 478.457585 
L 534.477151 472.696581 
L 537.69793 474.131556 
L 540.918709 471.704759 
L 544.139489 466.513524 
L 547.360268 467.231012 
L 550.581047 477.275841 
L 553.801826 476.537251 
L 557.022606 470.354194 
L 560.243385 469.277962 
L 563.464164 464.677599 
L 566.684943 465.352882 
L 569.905722 463.559163 
L 573.126502 478.647509 
L 576.347281 472.970914 
L 579.56806 465.162959 
L 582.788839 468.075115 
L 586.009619 461.65993 
L 589.230398 459.507467 
L 592.451177 460.035031 
L 595.671956 472.000195 
L 598.892735 474.511403 
L 602.113515 463.327034 
L 605.334294 457.840363 
L 608.555073 453.218897 
L 611.775852 453.134487 
L 614.996631 453.851975 
L 618.217411 470.523015 
L 621.43819 471.87358 
L 624.658969 454.379539 
L 627.879748 451.84723 
L 631.100528 447.690021 
L 634.321307 453.598744 
L 637.542086 440.789477 
L 640.762865 467.209909 
L 643.983644 468.708193 
L 647.204424 456.743029 
L 650.425203 450.454459 
L 653.645982 451.910537 
L 656.866761 450.559972 
L 660.087541 452.50141 
L 663.30832 467.146602 
L 666.529099 470.839553 
L 669.749878 458.009184 
L 672.970657 457.207285 
L 676.191437 456.046643 
L 679.412216 453.050077 
L 682.632995 454.63277 
L 685.853774 462.862777 
L 689.074554 466.534627 
L 692.295333 452.079358 
L 695.516112 458.895492 
L 698.736891 443.786043 
L 701.95767 452.395897 
L 705.17845 449.31492 
L 708.399229 463.706881 
L 711.620008 464.150035 
L 718.061567 443.59612 
L 721.282346 437.413064 
L 724.503125 443.279581 
L 727.723904 435.239498 
L 730.944683 455.329156 
L 734.165463 464.255548 
L 737.386242 445.284327 
L 740.607021 446.381661 
L 743.8278 438.489295 
L 747.04858 438.278269 
L 750.269359 430.807955 
L 753.490138 453.957488 
L 756.710917 458.557851 
L 759.931696 439.628835 
L 763.152476 445.769686 
L 766.373255 430.892366 
L 769.594034 427.304927 
L 772.814813 429.626211 
L 776.035593 435.619344 
L 779.256372 454.54836 
L 782.477151 428.022415 
L 785.69793 424.034027 
L 788.918709 398.077851 
L 792.139489 388.412868 
L 795.360268 384.086839 
L 798.581047 410.211835 
L 801.801826 431.652059 
L 805.022606 396.727285 
L 808.243385 375.413678 
L 811.464164 343.633189 
L 814.684943 328.945792 
L 817.905722 318.478911 
L 821.126502 365.812003 
L 824.347281 392.443461 
L 827.56806 338.779595 
L 830.788839 323.438018 
L 834.009619 245.527285 
L 837.230398 246.476902 
L 840.451177 173.208737 
L 843.671956 247.869672 
L 846.892735 300.436204 
L 850.113515 242.95277 
L 853.334294 167.933091 
L 856.555073 129.737418 
L 859.775852 89.494794 
L 862.996631 81.518018 
L 866.217411 184.540823 
L 869.43819 228.434194 
L 872.658969 159.74529 
L 875.879748 120.452282 
L 879.100528 61.871514 
L 882.321307 29.88 
L 882.321307 29.88 
" style="fill:none;stroke:#000000;stroke-dasharray:1.5,2.475;stroke-dashoffset:0;stroke-width:1.5;"/>
   </g>
   <g id="patch_7">
    <path d="M 30.103125 506.16 
L 30.103125 7.2 
" style="fill:none;stroke:#ffffff;stroke-linecap:square;stroke-linejoin:miter;"/>
   </g>
   <g id="patch_8">
    <path d="M 922.903125 506.16 
L 922.903125 7.2 
" style="fill:none;stroke:#ffffff;stroke-linecap:square;stroke-linejoin:miter;"/>
   </g>
   <g id="patch_9">
    <path d="M 30.103125 506.16 
L 922.903125 506.16 
" style="fill:none;stroke:#ffffff;stroke-linecap:square;stroke-linejoin:miter;"/>
   </g>
   <g id="patch_10">
    <path d="M 30.103125 7.2 
L 922.903125 7.2 
" style="fill:none;stroke:#ffffff;stroke-linecap:square;stroke-linejoin:miter;"/>
   </g>
   <g id="legend_1">
    <g id="patch_11">
     <path d="M 37.103125 103.26875 
L 194.298438 103.26875 
Q 196.298438 103.26875 196.298438 101.26875 
L 196.298438 14.2 
Q 196.298438 12.2 194.298438 12.2 
L 37.103125 12.2 
Q 35.103125 12.2 35.103125 14.2 
L 35.103125 101.26875 
Q 35.103125 103.26875 37.103125 103.26875 
z
" style="fill:#e5e5e5;opacity:0.8;stroke:#cccccc;stroke-linejoin:miter;stroke-width:0.5;"/>
    </g>
    <g id="line2d_52">
     <path d="M 39.103125 20.298438 
L 59.103125 20.298438 
" style="fill:none;stroke:#e24a33;stroke-linecap:square;stroke-width:1.5;"/>
    </g>
    <g id="line2d_53"/>
    <g id="text_23">
     <!-- Logistic rate rolling week -->
     <g transform="translate(67.103125 23.798438)scale(0.1 -0.1)">
      <defs>
       <path d="M 9.8125 72.90625 
L 19.671875 72.90625 
L 19.671875 8.296875 
L 55.171875 8.296875 
L 55.171875 0 
L 9.8125 0 
z
" id="DejaVuSans-76"/>
       <path d="M 30.609375 48.390625 
Q 23.390625 48.390625 19.1875 42.75 
Q 14.984375 37.109375 14.984375 27.296875 
Q 14.984375 17.484375 19.15625 11.84375 
Q 23.34375 6.203125 30.609375 6.203125 
Q 37.796875 6.203125 41.984375 11.859375 
Q 46.1875 17.53125 46.1875 27.296875 
Q 46.1875 37.015625 41.984375 42.703125 
Q 37.796875 48.390625 30.609375 48.390625 
z
M 30.609375 56 
Q 42.328125 56 49.015625 48.375 
Q 55.71875 40.765625 55.71875 27.296875 
Q 55.71875 13.875 49.015625 6.21875 
Q 42.328125 -1.421875 30.609375 -1.421875 
Q 18.84375 -1.421875 12.171875 6.21875 
Q 5.515625 13.875 5.515625 27.296875 
Q 5.515625 40.765625 12.171875 48.375 
Q 18.84375 56 30.609375 56 
z
" id="DejaVuSans-111"/>
       <path d="M 45.40625 27.984375 
Q 45.40625 37.75 41.375 43.109375 
Q 37.359375 48.484375 30.078125 48.484375 
Q 22.859375 48.484375 18.828125 43.109375 
Q 14.796875 37.75 14.796875 27.984375 
Q 14.796875 18.265625 18.828125 12.890625 
Q 22.859375 7.515625 30.078125 7.515625 
Q 37.359375 7.515625 41.375 12.890625 
Q 45.40625 18.265625 45.40625 27.984375 
z
M 54.390625 6.78125 
Q 54.390625 -7.171875 48.1875 -13.984375 
Q 42 -20.796875 29.203125 -20.796875 
Q 24.46875 -20.796875 20.265625 -20.09375 
Q 16.0625 -19.390625 12.109375 -17.921875 
L 12.109375 -9.1875 
Q 16.0625 -11.328125 19.921875 -12.34375 
Q 23.78125 -13.375 27.78125 -13.375 
Q 36.625 -13.375 41.015625 -8.765625 
Q 45.40625 -4.15625 45.40625 5.171875 
L 45.40625 9.625 
Q 42.625 4.78125 38.28125 2.390625 
Q 33.9375 0 27.875 0 
Q 17.828125 0 11.671875 7.65625 
Q 5.515625 15.328125 5.515625 27.984375 
Q 5.515625 40.671875 11.671875 48.328125 
Q 17.828125 56 27.875 56 
Q 33.9375 56 38.28125 53.609375 
Q 42.625 51.21875 45.40625 46.390625 
L 45.40625 54.6875 
L 54.390625 54.6875 
z
" id="DejaVuSans-103"/>
       <path d="M 9.421875 54.6875 
L 18.40625 54.6875 
L 18.40625 0 
L 9.421875 0 
z
M 9.421875 75.984375 
L 18.40625 75.984375 
L 18.40625 64.59375 
L 9.421875 64.59375 
z
" id="DejaVuSans-105"/>
       <path d="M 44.28125 53.078125 
L 44.28125 44.578125 
Q 40.484375 46.53125 36.375 47.5 
Q 32.28125 48.484375 27.875 48.484375 
Q 21.1875 48.484375 17.84375 46.4375 
Q 14.5 44.390625 14.5 40.28125 
Q 14.5 37.15625 16.890625 35.375 
Q 19.28125 33.59375 26.515625 31.984375 
L 29.59375 31.296875 
Q 39.15625 29.25 43.1875 25.515625 
Q 47.21875 21.78125 47.21875 15.09375 
Q 47.21875 7.46875 41.1875 3.015625 
Q 35.15625 -1.421875 24.609375 -1.421875 
Q 20.21875 -1.421875 15.453125 -0.5625 
Q 10.6875 0.296875 5.421875 2 
L 5.421875 11.28125 
Q 10.40625 8.6875 15.234375 7.390625 
Q 20.0625 6.109375 24.8125 6.109375 
Q 31.15625 6.109375 34.5625 8.28125 
Q 37.984375 10.453125 37.984375 14.40625 
Q 37.984375 18.0625 35.515625 20.015625 
Q 33.0625 21.96875 24.703125 23.78125 
L 21.578125 24.515625 
Q 13.234375 26.265625 9.515625 29.90625 
Q 5.8125 33.546875 5.8125 39.890625 
Q 5.8125 47.609375 11.28125 51.796875 
Q 16.75 56 26.8125 56 
Q 31.78125 56 36.171875 55.265625 
Q 40.578125 54.546875 44.28125 53.078125 
z
" id="DejaVuSans-115"/>
       <path d="M 18.3125 70.21875 
L 18.3125 54.6875 
L 36.8125 54.6875 
L 36.8125 47.703125 
L 18.3125 47.703125 
L 18.3125 18.015625 
Q 18.3125 11.328125 20.140625 9.421875 
Q 21.96875 7.515625 27.59375 7.515625 
L 36.8125 7.515625 
L 36.8125 0 
L 27.59375 0 
Q 17.1875 0 13.234375 3.875 
Q 9.28125 7.765625 9.28125 18.015625 
L 9.28125 47.703125 
L 2.6875 47.703125 
L 2.6875 54.6875 
L 9.28125 54.6875 
L 9.28125 70.21875 
z
" id="DejaVuSans-116"/>
       <path d="M 48.78125 52.59375 
L 48.78125 44.1875 
Q 44.96875 46.296875 41.140625 47.34375 
Q 37.3125 48.390625 33.40625 48.390625 
Q 24.65625 48.390625 19.8125 42.84375 
Q 14.984375 37.3125 14.984375 27.296875 
Q 14.984375 17.28125 19.8125 11.734375 
Q 24.65625 6.203125 33.40625 6.203125 
Q 37.3125 6.203125 41.140625 7.25 
Q 44.96875 8.296875 48.78125 10.40625 
L 48.78125 2.09375 
Q 45.015625 0.34375 40.984375 -0.53125 
Q 36.96875 -1.421875 32.421875 -1.421875 
Q 20.0625 -1.421875 12.78125 6.34375 
Q 5.515625 14.109375 5.515625 27.296875 
Q 5.515625 40.671875 12.859375 48.328125 
Q 20.21875 56 33.015625 56 
Q 37.15625 56 41.109375 55.140625 
Q 45.0625 54.296875 48.78125 52.59375 
z
" id="DejaVuSans-99"/>
       <path id="DejaVuSans-32"/>
       <path d="M 41.109375 46.296875 
Q 39.59375 47.171875 37.8125 47.578125 
Q 36.03125 48 33.890625 48 
Q 26.265625 48 22.1875 43.046875 
Q 18.109375 38.09375 18.109375 28.8125 
L 18.109375 0 
L 9.078125 0 
L 9.078125 54.6875 
L 18.109375 54.6875 
L 18.109375 46.1875 
Q 20.953125 51.171875 25.484375 53.578125 
Q 30.03125 56 36.53125 56 
Q 37.453125 56 38.578125 55.875 
Q 39.703125 55.765625 41.0625 55.515625 
z
" id="DejaVuSans-114"/>
       <path d="M 34.28125 27.484375 
Q 23.390625 27.484375 19.1875 25 
Q 14.984375 22.515625 14.984375 16.5 
Q 14.984375 11.71875 18.140625 8.90625 
Q 21.296875 6.109375 26.703125 6.109375 
Q 34.1875 6.109375 38.703125 11.40625 
Q 43.21875 16.703125 43.21875 25.484375 
L 43.21875 27.484375 
z
M 52.203125 31.203125 
L 52.203125 0 
L 43.21875 0 
L 43.21875 8.296875 
Q 40.140625 3.328125 35.546875 0.953125 
Q 30.953125 -1.421875 24.3125 -1.421875 
Q 15.921875 -1.421875 10.953125 3.296875 
Q 6 8.015625 6 15.921875 
Q 6 25.140625 12.171875 29.828125 
Q 18.359375 34.515625 30.609375 34.515625 
L 43.21875 34.515625 
L 43.21875 35.40625 
Q 43.21875 41.609375 39.140625 45 
Q 35.0625 48.390625 27.6875 48.390625 
Q 23 48.390625 18.546875 47.265625 
Q 14.109375 46.140625 10.015625 43.890625 
L 10.015625 52.203125 
Q 14.9375 54.109375 19.578125 55.046875 
Q 24.21875 56 28.609375 56 
Q 40.484375 56 46.34375 49.84375 
Q 52.203125 43.703125 52.203125 31.203125 
z
" id="DejaVuSans-97"/>
       <path d="M 56.203125 29.59375 
L 56.203125 25.203125 
L 14.890625 25.203125 
Q 15.484375 15.921875 20.484375 11.0625 
Q 25.484375 6.203125 34.421875 6.203125 
Q 39.59375 6.203125 44.453125 7.46875 
Q 49.3125 8.734375 54.109375 11.28125 
L 54.109375 2.78125 
Q 49.265625 0.734375 44.1875 -0.34375 
Q 39.109375 -1.421875 33.890625 -1.421875 
Q 20.796875 -1.421875 13.15625 6.1875 
Q 5.515625 13.8125 5.515625 26.8125 
Q 5.515625 40.234375 12.765625 48.109375 
Q 20.015625 56 32.328125 56 
Q 43.359375 56 49.78125 48.890625 
Q 56.203125 41.796875 56.203125 29.59375 
z
M 47.21875 32.234375 
Q 47.125 39.59375 43.09375 43.984375 
Q 39.0625 48.390625 32.421875 48.390625 
Q 24.90625 48.390625 20.390625 44.140625 
Q 15.875 39.890625 15.1875 32.171875 
z
" id="DejaVuSans-101"/>
       <path d="M 9.421875 75.984375 
L 18.40625 75.984375 
L 18.40625 0 
L 9.421875 0 
z
" id="DejaVuSans-108"/>
       <path d="M 54.890625 33.015625 
L 54.890625 0 
L 45.90625 0 
L 45.90625 32.71875 
Q 45.90625 40.484375 42.875 44.328125 
Q 39.84375 48.1875 33.796875 48.1875 
Q 26.515625 48.1875 22.3125 43.546875 
Q 18.109375 38.921875 18.109375 30.90625 
L 18.109375 0 
L 9.078125 0 
L 9.078125 54.6875 
L 18.109375 54.6875 
L 18.109375 46.1875 
Q 21.34375 51.125 25.703125 53.5625 
Q 30.078125 56 35.796875 56 
Q 45.21875 56 50.046875 50.171875 
Q 54.890625 44.34375 54.890625 33.015625 
z
" id="DejaVuSans-110"/>
       <path d="M 4.203125 54.6875 
L 13.1875 54.6875 
L 24.421875 12.015625 
L 35.59375 54.6875 
L 46.1875 54.6875 
L 57.421875 12.015625 
L 68.609375 54.6875 
L 77.59375 54.6875 
L 63.28125 0 
L 52.6875 0 
L 40.921875 44.828125 
L 29.109375 0 
L 18.5 0 
z
" id="DejaVuSans-119"/>
       <path d="M 9.078125 75.984375 
L 18.109375 75.984375 
L 18.109375 31.109375 
L 44.921875 54.6875 
L 56.390625 54.6875 
L 27.390625 29.109375 
L 57.625 0 
L 45.90625 0 
L 18.109375 26.703125 
L 18.109375 0 
L 9.078125 0 
z
" id="DejaVuSans-107"/>
      </defs>
      <use xlink:href="#DejaVuSans-76"/>
      <use x="53.962891" xlink:href="#DejaVuSans-111"/>
      <use x="115.144531" xlink:href="#DejaVuSans-103"/>
      <use x="178.621094" xlink:href="#DejaVuSans-105"/>
      <use x="206.404297" xlink:href="#DejaVuSans-115"/>
      <use x="258.503906" xlink:href="#DejaVuSans-116"/>
      <use x="297.712891" xlink:href="#DejaVuSans-105"/>
      <use x="325.496094" xlink:href="#DejaVuSans-99"/>
      <use x="380.476562" xlink:href="#DejaVuSans-32"/>
      <use x="412.263672" xlink:href="#DejaVuSans-114"/>
      <use x="453.376953" xlink:href="#DejaVuSans-97"/>
      <use x="514.65625" xlink:href="#DejaVuSans-116"/>
      <use x="553.865234" xlink:href="#DejaVuSans-101"/>
      <use x="615.388672" xlink:href="#DejaVuSans-32"/>
      <use x="647.175781" xlink:href="#DejaVuSans-114"/>
      <use x="686.039062" xlink:href="#DejaVuSans-111"/>
      <use x="747.220703" xlink:href="#DejaVuSans-108"/>
      <use x="775.003906" xlink:href="#DejaVuSans-108"/>
      <use x="802.787109" xlink:href="#DejaVuSans-105"/>
      <use x="830.570312" xlink:href="#DejaVuSans-110"/>
      <use x="893.949219" xlink:href="#DejaVuSans-103"/>
      <use x="957.425781" xlink:href="#DejaVuSans-32"/>
      <use x="989.212891" xlink:href="#DejaVuSans-119"/>
      <use x="1071" xlink:href="#DejaVuSans-101"/>
      <use x="1132.523438" xlink:href="#DejaVuSans-101"/>
      <use x="1194.046875" xlink:href="#DejaVuSans-107"/>
     </g>
    </g>
    <g id="line2d_54">
     <path d="M 39.103125 34.976563 
L 59.103125 34.976563 
" style="fill:none;stroke:#e24a33;stroke-dasharray:1.5,2.475;stroke-dashoffset:0;stroke-width:1.5;"/>
    </g>
    <g id="line2d_55"/>
    <g id="text_24">
     <!-- Logistic rate -->
     <g transform="translate(67.103125 38.476563)scale(0.1 -0.1)">
      <use xlink:href="#DejaVuSans-76"/>
      <use x="53.962891" xlink:href="#DejaVuSans-111"/>
      <use x="115.144531" xlink:href="#DejaVuSans-103"/>
      <use x="178.621094" xlink:href="#DejaVuSans-105"/>
      <use x="206.404297" xlink:href="#DejaVuSans-115"/>
      <use x="258.503906" xlink:href="#DejaVuSans-116"/>
      <use x="297.712891" xlink:href="#DejaVuSans-105"/>
      <use x="325.496094" xlink:href="#DejaVuSans-99"/>
      <use x="380.476562" xlink:href="#DejaVuSans-32"/>
      <use x="412.263672" xlink:href="#DejaVuSans-114"/>
      <use x="453.376953" xlink:href="#DejaVuSans-97"/>
      <use x="514.65625" xlink:href="#DejaVuSans-116"/>
      <use x="553.865234" xlink:href="#DejaVuSans-101"/>
     </g>
    </g>
    <g id="line2d_56">
     <path d="M 39.103125 49.654688 
L 59.103125 49.654688 
" style="fill:none;stroke:#348abd;stroke-linecap:square;stroke-width:1.5;"/>
    </g>
    <g id="line2d_57"/>
    <g id="text_25">
     <!-- RKI rate rolling week -->
     <g transform="translate(67.103125 53.154688)scale(0.1 -0.1)">
      <defs>
       <path d="M 44.390625 34.1875 
Q 47.5625 33.109375 50.5625 29.59375 
Q 53.5625 26.078125 56.59375 19.921875 
L 66.609375 0 
L 56 0 
L 46.6875 18.703125 
Q 43.0625 26.03125 39.671875 28.421875 
Q 36.28125 30.8125 30.421875 30.8125 
L 19.671875 30.8125 
L 19.671875 0 
L 9.8125 0 
L 9.8125 72.90625 
L 32.078125 72.90625 
Q 44.578125 72.90625 50.734375 67.671875 
Q 56.890625 62.453125 56.890625 51.90625 
Q 56.890625 45.015625 53.6875 40.46875 
Q 50.484375 35.9375 44.390625 34.1875 
z
M 19.671875 64.796875 
L 19.671875 38.921875 
L 32.078125 38.921875 
Q 39.203125 38.921875 42.84375 42.21875 
Q 46.484375 45.515625 46.484375 51.90625 
Q 46.484375 58.296875 42.84375 61.546875 
Q 39.203125 64.796875 32.078125 64.796875 
z
" id="DejaVuSans-82"/>
       <path d="M 9.8125 72.90625 
L 19.671875 72.90625 
L 19.671875 42.09375 
L 52.390625 72.90625 
L 65.09375 72.90625 
L 28.90625 38.921875 
L 67.671875 0 
L 54.6875 0 
L 19.671875 35.109375 
L 19.671875 0 
L 9.8125 0 
z
" id="DejaVuSans-75"/>
       <path d="M 9.8125 72.90625 
L 19.671875 72.90625 
L 19.671875 0 
L 9.8125 0 
z
" id="DejaVuSans-73"/>
      </defs>
      <use xlink:href="#DejaVuSans-82"/>
      <use x="69.482422" xlink:href="#DejaVuSans-75"/>
      <use x="135.058594" xlink:href="#DejaVuSans-73"/>
      <use x="164.550781" xlink:href="#DejaVuSans-32"/>
      <use x="196.337891" xlink:href="#DejaVuSans-114"/>
      <use x="237.451172" xlink:href="#DejaVuSans-97"/>
      <use x="298.730469" xlink:href="#DejaVuSans-116"/>
      <use x="337.939453" xlink:href="#DejaVuSans-101"/>
      <use x="399.462891" xlink:href="#DejaVuSans-32"/>
      <use x="431.25" xlink:href="#DejaVuSans-114"/>
      <use x="470.113281" xlink:href="#DejaVuSans-111"/>
      <use x="531.294922" xlink:href="#DejaVuSans-108"/>
      <use x="559.078125" xlink:href="#DejaVuSans-108"/>
      <use x="586.861328" xlink:href="#DejaVuSans-105"/>
      <use x="614.644531" xlink:href="#DejaVuSans-110"/>
      <use x="678.023438" xlink:href="#DejaVuSans-103"/>
      <use x="741.5" xlink:href="#DejaVuSans-32"/>
      <use x="773.287109" xlink:href="#DejaVuSans-119"/>
      <use x="855.074219" xlink:href="#DejaVuSans-101"/>
      <use x="916.597656" xlink:href="#DejaVuSans-101"/>
      <use x="978.121094" xlink:href="#DejaVuSans-107"/>
     </g>
    </g>
    <g id="line2d_58">
     <path d="M 39.103125 64.332813 
L 59.103125 64.332813 
" style="fill:none;stroke:#348abd;stroke-dasharray:1.5,2.475;stroke-dashoffset:0;stroke-width:1.5;"/>
    </g>
    <g id="line2d_59"/>
    <g id="text_26">
     <!-- RKI rate -->
     <g transform="translate(67.103125 67.832813)scale(0.1 -0.1)">
      <use xlink:href="#DejaVuSans-82"/>
      <use x="69.482422" xlink:href="#DejaVuSans-75"/>
      <use x="135.058594" xlink:href="#DejaVuSans-73"/>
      <use x="164.550781" xlink:href="#DejaVuSans-32"/>
      <use x="196.337891" xlink:href="#DejaVuSans-114"/>
      <use x="237.451172" xlink:href="#DejaVuSans-97"/>
      <use x="298.730469" xlink:href="#DejaVuSans-116"/>
      <use x="337.939453" xlink:href="#DejaVuSans-101"/>
     </g>
    </g>
    <g id="line2d_60">
     <path d="M 39.103125 79.010938 
L 59.103125 79.010938 
" style="fill:none;stroke:#000000;stroke-linecap:square;stroke-width:1.5;"/>
    </g>
    <g id="line2d_61"/>
    <g id="text_27">
     <!-- New Cases rolling week -->
     <g transform="translate(67.103125 82.510938)scale(0.1 -0.1)">
      <defs>
       <path d="M 9.8125 72.90625 
L 23.09375 72.90625 
L 55.421875 11.921875 
L 55.421875 72.90625 
L 64.984375 72.90625 
L 64.984375 0 
L 51.703125 0 
L 19.390625 60.984375 
L 19.390625 0 
L 9.8125 0 
z
" id="DejaVuSans-78"/>
       <path d="M 64.40625 67.28125 
L 64.40625 56.890625 
Q 59.421875 61.53125 53.78125 63.8125 
Q 48.140625 66.109375 41.796875 66.109375 
Q 29.296875 66.109375 22.65625 58.46875 
Q 16.015625 50.828125 16.015625 36.375 
Q 16.015625 21.96875 22.65625 14.328125 
Q 29.296875 6.6875 41.796875 6.6875 
Q 48.140625 6.6875 53.78125 8.984375 
Q 59.421875 11.28125 64.40625 15.921875 
L 64.40625 5.609375 
Q 59.234375 2.09375 53.4375 0.328125 
Q 47.65625 -1.421875 41.21875 -1.421875 
Q 24.65625 -1.421875 15.125 8.703125 
Q 5.609375 18.84375 5.609375 36.375 
Q 5.609375 53.953125 15.125 64.078125 
Q 24.65625 74.21875 41.21875 74.21875 
Q 47.75 74.21875 53.53125 72.484375 
Q 59.328125 70.75 64.40625 67.28125 
z
" id="DejaVuSans-67"/>
      </defs>
      <use xlink:href="#DejaVuSans-78"/>
      <use x="74.804688" xlink:href="#DejaVuSans-101"/>
      <use x="136.328125" xlink:href="#DejaVuSans-119"/>
      <use x="218.115234" xlink:href="#DejaVuSans-32"/>
      <use x="249.902344" xlink:href="#DejaVuSans-67"/>
      <use x="319.726562" xlink:href="#DejaVuSans-97"/>
      <use x="381.005859" xlink:href="#DejaVuSans-115"/>
      <use x="433.105469" xlink:href="#DejaVuSans-101"/>
      <use x="494.628906" xlink:href="#DejaVuSans-115"/>
      <use x="546.728516" xlink:href="#DejaVuSans-32"/>
      <use x="578.515625" xlink:href="#DejaVuSans-114"/>
      <use x="617.378906" xlink:href="#DejaVuSans-111"/>
      <use x="678.560547" xlink:href="#DejaVuSans-108"/>
      <use x="706.34375" xlink:href="#DejaVuSans-108"/>
      <use x="734.126953" xlink:href="#DejaVuSans-105"/>
      <use x="761.910156" xlink:href="#DejaVuSans-110"/>
      <use x="825.289062" xlink:href="#DejaVuSans-103"/>
      <use x="888.765625" xlink:href="#DejaVuSans-32"/>
      <use x="920.552734" xlink:href="#DejaVuSans-119"/>
      <use x="1002.339844" xlink:href="#DejaVuSans-101"/>
      <use x="1063.863281" xlink:href="#DejaVuSans-101"/>
      <use x="1125.386719" xlink:href="#DejaVuSans-107"/>
     </g>
    </g>
    <g id="line2d_62">
     <path d="M 39.103125 93.689063 
L 59.103125 93.689063 
" style="fill:none;stroke:#000000;stroke-dasharray:1.5,2.475;stroke-dashoffset:0;stroke-width:1.5;"/>
    </g>
    <g id="line2d_63"/>
    <g id="text_28">
     <!-- New Cases -->
     <g transform="translate(67.103125 97.189063)scale(0.1 -0.1)">
      <use xlink:href="#DejaVuSans-78"/>
      <use x="74.804688" xlink:href="#DejaVuSans-101"/>
      <use x="136.328125" xlink:href="#DejaVuSans-119"/>
      <use x="218.115234" xlink:href="#DejaVuSans-32"/>
      <use x="249.902344" xlink:href="#DejaVuSans-67"/>
      <use x="319.726562" xlink:href="#DejaVuSans-97"/>
      <use x="381.005859" xlink:href="#DejaVuSans-115"/>
      <use x="433.105469" xlink:href="#DejaVuSans-101"/>
      <use x="494.628906" xlink:href="#DejaVuSans-115"/>
     </g>
    </g>
   </g>
  </g>
 </g>
 <defs>
  <clipPath id="p19ee33ebf6">
   <rect height="498.96" width="892.8" x="30.103125" y="7.2"/>
  </clipPath>
 </defs>
</svg>
