<?xml version="1.0" encoding="utf-8" standalone="no"?>
<!DOCTYPE svg PUBLIC "-//W3C//DTD SVG 1.1//EN"
  "http://www.w3.org/Graphics/SVG/1.1/DTD/svg11.dtd">
<!-- Created with matplotlib (https://matplotlib.org/) -->
<svg height="640.398125pt" version="1.1" viewBox="0 0 1145.085625 640.398125" width="1145.085625pt" xmlns="http://www.w3.org/2000/svg" xmlns:xlink="http://www.w3.org/1999/xlink">
 <metadata>
  <rdf:RDF xmlns:cc="http://creativecommons.org/ns#" xmlns:dc="http://purl.org/dc/elements/1.1/" xmlns:rdf="http://www.w3.org/1999/02/22-rdf-syntax-ns#">
   <cc:Work>
    <dc:type rdf:resource="http://purl.org/dc/dcmitype/StillImage"/>
    <dc:date>2021-02-07T09:01:40.686408</dc:date>
    <dc:format>image/svg+xml</dc:format>
    <dc:creator>
     <cc:Agent>
      <dc:title>Matplotlib v3.3.2, https://matplotlib.org/</dc:title>
     </cc:Agent>
    </dc:creator>
   </cc:Work>
  </rdf:RDF>
 </metadata>
 <defs>
  <style type="text/css">*{stroke-linecap:butt;stroke-linejoin:round;}</style>
 </defs>
 <g id="figure_1">
  <g id="patch_1">
   <path d="M 0 640.398125 
L 1145.085625 640.398125 
L 1145.085625 0 
L 0 0 
z
" style="fill:#ffffff;"/>
  </g>
  <g id="axes_1">
   <g id="patch_2">
    <path d="M 30.103125 616.52 
L 1099.073125 616.52 
L 1099.073125 7.2 
L 30.103125 7.2 
z
" style="fill:#e5e5e5;"/>
   </g>
   <g id="matplotlib.axis_1">
    <g id="xtick_1">
     <g id="line2d_1">
      <path clip-path="url(#p76676ce7ef)" d="M 84.326241 616.52 
L 84.326241 7.2 
" style="fill:none;stroke:#ffffff;stroke-linecap:square;stroke-width:0.8;"/>
     </g>
     <g id="line2d_2">
      <defs>
       <path d="M 0 0 
L 0 3.5 
" id="m821e2c7283" style="stroke:#555555;stroke-width:0.8;"/>
      </defs>
      <g>
       <use style="fill:#555555;stroke:#555555;stroke-width:0.8;" x="84.326241" xlink:href="#m821e2c7283" y="616.52"/>
      </g>
     </g>
     <g id="text_1">
      <!-- 2020-03 -->
      <g style="fill:#555555;" transform="translate(63.434835 631.118437)scale(0.1 -0.1)">
       <defs>
        <path d="M 19.1875 8.296875 
L 53.609375 8.296875 
L 53.609375 0 
L 7.328125 0 
L 7.328125 8.296875 
Q 12.9375 14.109375 22.625 23.890625 
Q 32.328125 33.6875 34.8125 36.53125 
Q 39.546875 41.84375 41.421875 45.53125 
Q 43.3125 49.21875 43.3125 52.78125 
Q 43.3125 58.59375 39.234375 62.25 
Q 35.15625 65.921875 28.609375 65.921875 
Q 23.96875 65.921875 18.8125 64.3125 
Q 13.671875 62.703125 7.8125 59.421875 
L 7.8125 69.390625 
Q 13.765625 71.78125 18.9375 73 
Q 24.125 74.21875 28.421875 74.21875 
Q 39.75 74.21875 46.484375 68.546875 
Q 53.21875 62.890625 53.21875 53.421875 
Q 53.21875 48.921875 51.53125 44.890625 
Q 49.859375 40.875 45.40625 35.40625 
Q 44.1875 33.984375 37.640625 27.21875 
Q 31.109375 20.453125 19.1875 8.296875 
z
" id="DejaVuSans-50"/>
        <path d="M 31.78125 66.40625 
Q 24.171875 66.40625 20.328125 58.90625 
Q 16.5 51.421875 16.5 36.375 
Q 16.5 21.390625 20.328125 13.890625 
Q 24.171875 6.390625 31.78125 6.390625 
Q 39.453125 6.390625 43.28125 13.890625 
Q 47.125 21.390625 47.125 36.375 
Q 47.125 51.421875 43.28125 58.90625 
Q 39.453125 66.40625 31.78125 66.40625 
z
M 31.78125 74.21875 
Q 44.046875 74.21875 50.515625 64.515625 
Q 56.984375 54.828125 56.984375 36.375 
Q 56.984375 17.96875 50.515625 8.265625 
Q 44.046875 -1.421875 31.78125 -1.421875 
Q 19.53125 -1.421875 13.0625 8.265625 
Q 6.59375 17.96875 6.59375 36.375 
Q 6.59375 54.828125 13.0625 64.515625 
Q 19.53125 74.21875 31.78125 74.21875 
z
" id="DejaVuSans-48"/>
        <path d="M 4.890625 31.390625 
L 31.203125 31.390625 
L 31.203125 23.390625 
L 4.890625 23.390625 
z
" id="DejaVuSans-45"/>
        <path d="M 40.578125 39.3125 
Q 47.65625 37.796875 51.625 33 
Q 55.609375 28.21875 55.609375 21.1875 
Q 55.609375 10.40625 48.1875 4.484375 
Q 40.765625 -1.421875 27.09375 -1.421875 
Q 22.515625 -1.421875 17.65625 -0.515625 
Q 12.796875 0.390625 7.625 2.203125 
L 7.625 11.71875 
Q 11.71875 9.328125 16.59375 8.109375 
Q 21.484375 6.890625 26.8125 6.890625 
Q 36.078125 6.890625 40.9375 10.546875 
Q 45.796875 14.203125 45.796875 21.1875 
Q 45.796875 27.640625 41.28125 31.265625 
Q 36.765625 34.90625 28.71875 34.90625 
L 20.21875 34.90625 
L 20.21875 43.015625 
L 29.109375 43.015625 
Q 36.375 43.015625 40.234375 45.921875 
Q 44.09375 48.828125 44.09375 54.296875 
Q 44.09375 59.90625 40.109375 62.90625 
Q 36.140625 65.921875 28.71875 65.921875 
Q 24.65625 65.921875 20.015625 65.03125 
Q 15.375 64.15625 9.8125 62.3125 
L 9.8125 71.09375 
Q 15.4375 72.65625 20.34375 73.4375 
Q 25.25 74.21875 29.59375 74.21875 
Q 40.828125 74.21875 47.359375 69.109375 
Q 53.90625 64.015625 53.90625 55.328125 
Q 53.90625 49.265625 50.4375 45.09375 
Q 46.96875 40.921875 40.578125 39.3125 
z
" id="DejaVuSans-51"/>
       </defs>
       <use xlink:href="#DejaVuSans-50"/>
       <use x="63.623047" xlink:href="#DejaVuSans-48"/>
       <use x="127.246094" xlink:href="#DejaVuSans-50"/>
       <use x="190.869141" xlink:href="#DejaVuSans-48"/>
       <use x="254.492188" xlink:href="#DejaVuSans-45"/>
       <use x="290.576172" xlink:href="#DejaVuSans-48"/>
       <use x="354.199219" xlink:href="#DejaVuSans-51"/>
      </g>
     </g>
    </g>
    <g id="xtick_2">
     <g id="line2d_3">
      <path clip-path="url(#p76676ce7ef)" d="M 256.150141 616.52 
L 256.150141 7.2 
" style="fill:none;stroke:#ffffff;stroke-linecap:square;stroke-width:0.8;"/>
     </g>
     <g id="line2d_4">
      <g>
       <use style="fill:#555555;stroke:#555555;stroke-width:0.8;" x="256.150141" xlink:href="#m821e2c7283" y="616.52"/>
      </g>
     </g>
     <g id="text_2">
      <!-- 2020-05 -->
      <g style="fill:#555555;" transform="translate(235.258735 631.118437)scale(0.1 -0.1)">
       <defs>
        <path d="M 10.796875 72.90625 
L 49.515625 72.90625 
L 49.515625 64.59375 
L 19.828125 64.59375 
L 19.828125 46.734375 
Q 21.96875 47.46875 24.109375 47.828125 
Q 26.265625 48.1875 28.421875 48.1875 
Q 40.625 48.1875 47.75 41.5 
Q 54.890625 34.8125 54.890625 23.390625 
Q 54.890625 11.625 47.5625 5.09375 
Q 40.234375 -1.421875 26.90625 -1.421875 
Q 22.3125 -1.421875 17.546875 -0.640625 
Q 12.796875 0.140625 7.71875 1.703125 
L 7.71875 11.625 
Q 12.109375 9.234375 16.796875 8.0625 
Q 21.484375 6.890625 26.703125 6.890625 
Q 35.15625 6.890625 40.078125 11.328125 
Q 45.015625 15.765625 45.015625 23.390625 
Q 45.015625 31 40.078125 35.4375 
Q 35.15625 39.890625 26.703125 39.890625 
Q 22.75 39.890625 18.8125 39.015625 
Q 14.890625 38.140625 10.796875 36.28125 
z
" id="DejaVuSans-53"/>
       </defs>
       <use xlink:href="#DejaVuSans-50"/>
       <use x="63.623047" xlink:href="#DejaVuSans-48"/>
       <use x="127.246094" xlink:href="#DejaVuSans-50"/>
       <use x="190.869141" xlink:href="#DejaVuSans-48"/>
       <use x="254.492188" xlink:href="#DejaVuSans-45"/>
       <use x="290.576172" xlink:href="#DejaVuSans-48"/>
       <use x="354.199219" xlink:href="#DejaVuSans-53"/>
      </g>
     </g>
    </g>
    <g id="xtick_3">
     <g id="line2d_5">
      <path clip-path="url(#p76676ce7ef)" d="M 427.974041 616.52 
L 427.974041 7.2 
" style="fill:none;stroke:#ffffff;stroke-linecap:square;stroke-width:0.8;"/>
     </g>
     <g id="line2d_6">
      <g>
       <use style="fill:#555555;stroke:#555555;stroke-width:0.8;" x="427.974041" xlink:href="#m821e2c7283" y="616.52"/>
      </g>
     </g>
     <g id="text_3">
      <!-- 2020-07 -->
      <g style="fill:#555555;" transform="translate(407.082634 631.118437)scale(0.1 -0.1)">
       <defs>
        <path d="M 8.203125 72.90625 
L 55.078125 72.90625 
L 55.078125 68.703125 
L 28.609375 0 
L 18.3125 0 
L 43.21875 64.59375 
L 8.203125 64.59375 
z
" id="DejaVuSans-55"/>
       </defs>
       <use xlink:href="#DejaVuSans-50"/>
       <use x="63.623047" xlink:href="#DejaVuSans-48"/>
       <use x="127.246094" xlink:href="#DejaVuSans-50"/>
       <use x="190.869141" xlink:href="#DejaVuSans-48"/>
       <use x="254.492188" xlink:href="#DejaVuSans-45"/>
       <use x="290.576172" xlink:href="#DejaVuSans-48"/>
       <use x="354.199219" xlink:href="#DejaVuSans-55"/>
      </g>
     </g>
    </g>
    <g id="xtick_4">
     <g id="line2d_7">
      <path clip-path="url(#p76676ce7ef)" d="M 602.614726 616.52 
L 602.614726 7.2 
" style="fill:none;stroke:#ffffff;stroke-linecap:square;stroke-width:0.8;"/>
     </g>
     <g id="line2d_8">
      <g>
       <use style="fill:#555555;stroke:#555555;stroke-width:0.8;" x="602.614726" xlink:href="#m821e2c7283" y="616.52"/>
      </g>
     </g>
     <g id="text_4">
      <!-- 2020-09 -->
      <g style="fill:#555555;" transform="translate(581.72332 631.118437)scale(0.1 -0.1)">
       <defs>
        <path d="M 10.984375 1.515625 
L 10.984375 10.5 
Q 14.703125 8.734375 18.5 7.8125 
Q 22.3125 6.890625 25.984375 6.890625 
Q 35.75 6.890625 40.890625 13.453125 
Q 46.046875 20.015625 46.78125 33.40625 
Q 43.953125 29.203125 39.59375 26.953125 
Q 35.25 24.703125 29.984375 24.703125 
Q 19.046875 24.703125 12.671875 31.3125 
Q 6.296875 37.9375 6.296875 49.421875 
Q 6.296875 60.640625 12.9375 67.421875 
Q 19.578125 74.21875 30.609375 74.21875 
Q 43.265625 74.21875 49.921875 64.515625 
Q 56.59375 54.828125 56.59375 36.375 
Q 56.59375 19.140625 48.40625 8.859375 
Q 40.234375 -1.421875 26.421875 -1.421875 
Q 22.703125 -1.421875 18.890625 -0.6875 
Q 15.09375 0.046875 10.984375 1.515625 
z
M 30.609375 32.421875 
Q 37.25 32.421875 41.125 36.953125 
Q 45.015625 41.5 45.015625 49.421875 
Q 45.015625 57.28125 41.125 61.84375 
Q 37.25 66.40625 30.609375 66.40625 
Q 23.96875 66.40625 20.09375 61.84375 
Q 16.21875 57.28125 16.21875 49.421875 
Q 16.21875 41.5 20.09375 36.953125 
Q 23.96875 32.421875 30.609375 32.421875 
z
" id="DejaVuSans-57"/>
       </defs>
       <use xlink:href="#DejaVuSans-50"/>
       <use x="63.623047" xlink:href="#DejaVuSans-48"/>
       <use x="127.246094" xlink:href="#DejaVuSans-50"/>
       <use x="190.869141" xlink:href="#DejaVuSans-48"/>
       <use x="254.492188" xlink:href="#DejaVuSans-45"/>
       <use x="290.576172" xlink:href="#DejaVuSans-48"/>
       <use x="354.199219" xlink:href="#DejaVuSans-57"/>
      </g>
     </g>
    </g>
    <g id="xtick_5">
     <g id="line2d_9">
      <path clip-path="url(#p76676ce7ef)" d="M 774.438626 616.52 
L 774.438626 7.2 
" style="fill:none;stroke:#ffffff;stroke-linecap:square;stroke-width:0.8;"/>
     </g>
     <g id="line2d_10">
      <g>
       <use style="fill:#555555;stroke:#555555;stroke-width:0.8;" x="774.438626" xlink:href="#m821e2c7283" y="616.52"/>
      </g>
     </g>
     <g id="text_5">
      <!-- 2020-11 -->
      <g style="fill:#555555;" transform="translate(753.547219 631.118437)scale(0.1 -0.1)">
       <defs>
        <path d="M 12.40625 8.296875 
L 28.515625 8.296875 
L 28.515625 63.921875 
L 10.984375 60.40625 
L 10.984375 69.390625 
L 28.421875 72.90625 
L 38.28125 72.90625 
L 38.28125 8.296875 
L 54.390625 8.296875 
L 54.390625 0 
L 12.40625 0 
z
" id="DejaVuSans-49"/>
       </defs>
       <use xlink:href="#DejaVuSans-50"/>
       <use x="63.623047" xlink:href="#DejaVuSans-48"/>
       <use x="127.246094" xlink:href="#DejaVuSans-50"/>
       <use x="190.869141" xlink:href="#DejaVuSans-48"/>
       <use x="254.492188" xlink:href="#DejaVuSans-45"/>
       <use x="290.576172" xlink:href="#DejaVuSans-49"/>
       <use x="354.199219" xlink:href="#DejaVuSans-49"/>
      </g>
     </g>
    </g>
    <g id="xtick_6">
     <g id="line2d_11">
      <path clip-path="url(#p76676ce7ef)" d="M 946.262526 616.52 
L 946.262526 7.2 
" style="fill:none;stroke:#ffffff;stroke-linecap:square;stroke-width:0.8;"/>
     </g>
     <g id="line2d_12">
      <g>
       <use style="fill:#555555;stroke:#555555;stroke-width:0.8;" x="946.262526" xlink:href="#m821e2c7283" y="616.52"/>
      </g>
     </g>
     <g id="text_6">
      <!-- 2021-01 -->
      <g style="fill:#555555;" transform="translate(925.371119 631.118437)scale(0.1 -0.1)">
       <use xlink:href="#DejaVuSans-50"/>
       <use x="63.623047" xlink:href="#DejaVuSans-48"/>
       <use x="127.246094" xlink:href="#DejaVuSans-50"/>
       <use x="190.869141" xlink:href="#DejaVuSans-49"/>
       <use x="254.492188" xlink:href="#DejaVuSans-45"/>
       <use x="290.576172" xlink:href="#DejaVuSans-48"/>
       <use x="354.199219" xlink:href="#DejaVuSans-49"/>
      </g>
     </g>
    </g>
   </g>
   <g id="matplotlib.axis_2">
    <g id="ytick_1">
     <g id="line2d_13">
      <path clip-path="url(#p76676ce7ef)" d="M 30.103125 587.741318 
L 1099.073125 587.741318 
" style="fill:none;stroke:#ffffff;stroke-linecap:square;stroke-width:0.8;"/>
     </g>
     <g id="line2d_14">
      <defs>
       <path d="M 0 0 
L -3.5 0 
" id="m47143e216d" style="stroke:#555555;stroke-width:0.8;"/>
      </defs>
      <g>
       <use style="fill:#555555;stroke:#555555;stroke-width:0.8;" x="30.103125" xlink:href="#m47143e216d" y="587.741318"/>
      </g>
     </g>
     <g id="text_7">
      <!-- 0.5 -->
      <g style="fill:#555555;" transform="translate(7.2 591.540537)scale(0.1 -0.1)">
       <defs>
        <path d="M 10.6875 12.40625 
L 21 12.40625 
L 21 0 
L 10.6875 0 
z
" id="DejaVuSans-46"/>
       </defs>
       <use xlink:href="#DejaVuSans-48"/>
       <use x="63.623047" xlink:href="#DejaVuSans-46"/>
       <use x="95.410156" xlink:href="#DejaVuSans-53"/>
      </g>
     </g>
    </g>
    <g id="ytick_2">
     <g id="line2d_15">
      <path clip-path="url(#p76676ce7ef)" d="M 30.103125 513.773155 
L 1099.073125 513.773155 
" style="fill:none;stroke:#ffffff;stroke-linecap:square;stroke-width:0.8;"/>
     </g>
     <g id="line2d_16">
      <g>
       <use style="fill:#555555;stroke:#555555;stroke-width:0.8;" x="30.103125" xlink:href="#m47143e216d" y="513.773155"/>
      </g>
     </g>
     <g id="text_8">
      <!-- 1.0 -->
      <g style="fill:#555555;" transform="translate(7.2 517.572373)scale(0.1 -0.1)">
       <use xlink:href="#DejaVuSans-49"/>
       <use x="63.623047" xlink:href="#DejaVuSans-46"/>
       <use x="95.410156" xlink:href="#DejaVuSans-48"/>
      </g>
     </g>
    </g>
    <g id="ytick_3">
     <g id="line2d_17">
      <path clip-path="url(#p76676ce7ef)" d="M 30.103125 439.804991 
L 1099.073125 439.804991 
" style="fill:none;stroke:#ffffff;stroke-linecap:square;stroke-width:0.8;"/>
     </g>
     <g id="line2d_18">
      <g>
       <use style="fill:#555555;stroke:#555555;stroke-width:0.8;" x="30.103125" xlink:href="#m47143e216d" y="439.804991"/>
      </g>
     </g>
     <g id="text_9">
      <!-- 1.5 -->
      <g style="fill:#555555;" transform="translate(7.2 443.60421)scale(0.1 -0.1)">
       <use xlink:href="#DejaVuSans-49"/>
       <use x="63.623047" xlink:href="#DejaVuSans-46"/>
       <use x="95.410156" xlink:href="#DejaVuSans-53"/>
      </g>
     </g>
    </g>
    <g id="ytick_4">
     <g id="line2d_19">
      <path clip-path="url(#p76676ce7ef)" d="M 30.103125 365.836827 
L 1099.073125 365.836827 
" style="fill:none;stroke:#ffffff;stroke-linecap:square;stroke-width:0.8;"/>
     </g>
     <g id="line2d_20">
      <g>
       <use style="fill:#555555;stroke:#555555;stroke-width:0.8;" x="30.103125" xlink:href="#m47143e216d" y="365.836827"/>
      </g>
     </g>
     <g id="text_10">
      <!-- 2.0 -->
      <g style="fill:#555555;" transform="translate(7.2 369.636046)scale(0.1 -0.1)">
       <use xlink:href="#DejaVuSans-50"/>
       <use x="63.623047" xlink:href="#DejaVuSans-46"/>
       <use x="95.410156" xlink:href="#DejaVuSans-48"/>
      </g>
     </g>
    </g>
    <g id="ytick_5">
     <g id="line2d_21">
      <path clip-path="url(#p76676ce7ef)" d="M 30.103125 291.868663 
L 1099.073125 291.868663 
" style="fill:none;stroke:#ffffff;stroke-linecap:square;stroke-width:0.8;"/>
     </g>
     <g id="line2d_22">
      <g>
       <use style="fill:#555555;stroke:#555555;stroke-width:0.8;" x="30.103125" xlink:href="#m47143e216d" y="291.868663"/>
      </g>
     </g>
     <g id="text_11">
      <!-- 2.5 -->
      <g style="fill:#555555;" transform="translate(7.2 295.667882)scale(0.1 -0.1)">
       <use xlink:href="#DejaVuSans-50"/>
       <use x="63.623047" xlink:href="#DejaVuSans-46"/>
       <use x="95.410156" xlink:href="#DejaVuSans-53"/>
      </g>
     </g>
    </g>
    <g id="ytick_6">
     <g id="line2d_23">
      <path clip-path="url(#p76676ce7ef)" d="M 30.103125 217.900499 
L 1099.073125 217.900499 
" style="fill:none;stroke:#ffffff;stroke-linecap:square;stroke-width:0.8;"/>
     </g>
     <g id="line2d_24">
      <g>
       <use style="fill:#555555;stroke:#555555;stroke-width:0.8;" x="30.103125" xlink:href="#m47143e216d" y="217.900499"/>
      </g>
     </g>
     <g id="text_12">
      <!-- 3.0 -->
      <g style="fill:#555555;" transform="translate(7.2 221.699718)scale(0.1 -0.1)">
       <use xlink:href="#DejaVuSans-51"/>
       <use x="63.623047" xlink:href="#DejaVuSans-46"/>
       <use x="95.410156" xlink:href="#DejaVuSans-48"/>
      </g>
     </g>
    </g>
    <g id="ytick_7">
     <g id="line2d_25">
      <path clip-path="url(#p76676ce7ef)" d="M 30.103125 143.932336 
L 1099.073125 143.932336 
" style="fill:none;stroke:#ffffff;stroke-linecap:square;stroke-width:0.8;"/>
     </g>
     <g id="line2d_26">
      <g>
       <use style="fill:#555555;stroke:#555555;stroke-width:0.8;" x="30.103125" xlink:href="#m47143e216d" y="143.932336"/>
      </g>
     </g>
     <g id="text_13">
      <!-- 3.5 -->
      <g style="fill:#555555;" transform="translate(7.2 147.731554)scale(0.1 -0.1)">
       <use xlink:href="#DejaVuSans-51"/>
       <use x="63.623047" xlink:href="#DejaVuSans-46"/>
       <use x="95.410156" xlink:href="#DejaVuSans-53"/>
      </g>
     </g>
    </g>
    <g id="ytick_8">
     <g id="line2d_27">
      <path clip-path="url(#p76676ce7ef)" d="M 30.103125 69.964172 
L 1099.073125 69.964172 
" style="fill:none;stroke:#ffffff;stroke-linecap:square;stroke-width:0.8;"/>
     </g>
     <g id="line2d_28">
      <g>
       <use style="fill:#555555;stroke:#555555;stroke-width:0.8;" x="30.103125" xlink:href="#m47143e216d" y="69.964172"/>
      </g>
     </g>
     <g id="text_14">
      <!-- 4.0 -->
      <g style="fill:#555555;" transform="translate(7.2 73.763391)scale(0.1 -0.1)">
       <defs>
        <path d="M 37.796875 64.3125 
L 12.890625 25.390625 
L 37.796875 25.390625 
z
M 35.203125 72.90625 
L 47.609375 72.90625 
L 47.609375 25.390625 
L 58.015625 25.390625 
L 58.015625 17.1875 
L 47.609375 17.1875 
L 47.609375 0 
L 37.796875 0 
L 37.796875 17.1875 
L 4.890625 17.1875 
L 4.890625 26.703125 
z
" id="DejaVuSans-52"/>
       </defs>
       <use xlink:href="#DejaVuSans-52"/>
       <use x="63.623047" xlink:href="#DejaVuSans-46"/>
       <use x="95.410156" xlink:href="#DejaVuSans-48"/>
      </g>
     </g>
    </g>
   </g>
   <g id="line2d_29">
    <path clip-path="url(#p76676ce7ef)" d="M 89.959811 114.622911 
L 92.776597 85.358076 
L 95.593382 122.160738 
L 98.410167 104.576897 
L 101.226952 95.992699 
L 104.043738 105.393328 
L 106.860523 124.687859 
L 109.677308 159.979578 
L 112.494093 204.839297 
L 115.310879 215.895658 
L 118.127664 246.205498 
L 120.944449 270.039884 
L 123.761234 277.546135 
L 126.57802 284.08865 
L 129.394805 277.55759 
L 132.21159 273.556615 
L 137.845161 288.756241 
L 140.661946 301.426214 
L 143.478731 318.69324 
L 146.295516 328.755536 
L 149.112302 336.592714 
L 151.929087 342.212958 
L 154.745872 348.78895 
L 157.562657 358.42084 
L 160.379443 370.194256 
L 163.196228 382.963683 
L 168.829798 403.939538 
L 171.646583 414.648465 
L 174.463369 426.529856 
L 177.280154 436.545585 
L 180.096939 444.679654 
L 182.913724 451.092206 
L 185.73051 456.83234 
L 188.547295 461.453048 
L 191.36408 465.317212 
L 194.180865 469.94746 
L 202.631221 482.502524 
L 205.448006 485.891202 
L 208.264792 488.911835 
L 211.081577 491.424622 
L 219.531933 497.46678 
L 222.348718 498.955712 
L 225.165503 500.027552 
L 227.982288 500.657683 
L 236.432644 502.236037 
L 247.699785 505.278784 
L 267.417282 508.998634 
L 273.050852 509.521775 
L 278.684423 509.86288 
L 298.401919 510.475454 
L 306.852275 510.957843 
L 318.119416 511.342215 
L 335.020128 511.855948 
L 340.653698 511.937334 
L 346.287269 511.935989 
L 377.271906 512.303353 
L 391.355833 512.385842 
L 399.806188 512.090501 
L 408.256544 511.658527 
L 413.890114 511.565561 
L 419.523685 511.631318 
L 430.790826 511.968699 
L 470.225819 512.379729 
L 492.760101 512.095128 
L 554.729377 510.617992 
L 577.263659 509.961852 
L 585.714014 509.816445 
L 596.981155 510.019379 
L 619.515437 510.474901 
L 647.68329 510.010449 
L 658.950431 509.524466 
L 664.584001 509.383293 
L 678.667927 509.327836 
L 695.568639 508.990681 
L 704.018995 508.626281 
L 709.652565 508.091964 
L 720.919706 506.463839 
L 726.553277 505.657063 
L 732.186847 504.507438 
L 737.820417 503.391389 
L 746.270773 501.854605 
L 749.087558 501.211105 
L 751.904344 500.378423 
L 760.354699 497.51293 
L 765.98827 495.767398 
L 768.805055 494.885241 
L 771.62184 494.122908 
L 777.255411 493.274921 
L 782.888981 492.993022 
L 785.705767 492.947889 
L 794.156122 493.293253 
L 799.789693 493.650185 
L 808.240049 494.592521 
L 822.323975 496.724893 
L 830.774331 497.930987 
L 836.407901 498.586128 
L 858.942183 500.671249 
L 873.026109 501.464155 
L 881.476465 501.393596 
L 887.110035 501.288925 
L 904.010747 500.443661 
L 912.461103 500.205753 
L 923.728244 500.177082 
L 926.545029 500.331046 
L 932.178599 501.391243 
L 937.81217 502.691743 
L 940.628955 503.085323 
L 946.262526 503.589568 
L 963.163237 504.42207 
L 965.980022 504.463556 
L 971.613593 504.114342 
L 977.247163 503.502597 
L 982.880734 503.429112 
L 988.514304 503.870304 
L 996.96466 504.637227 
L 1019.498942 505.793492 
L 1042.033224 506.63052 
L 1050.48358 506.893536 
L 1050.48358 506.893536 
" style="fill:none;stroke:#e24a33;stroke-linecap:square;stroke-width:1.5;"/>
   </g>
   <g id="line2d_30">
    <path clip-path="url(#p76676ce7ef)" d="M 89.959811 114.622911 
L 92.776597 56.093241 
L 95.593382 195.766061 
L 98.410167 51.825374 
L 101.226952 61.65591 
L 106.860523 240.455043 
L 109.677308 361.66495 
L 112.494093 370.111274 
L 115.310879 273.160587 
L 118.127664 263.994252 
L 120.944449 228.496612 
L 123.761234 204.940226 
L 126.57802 286.252647 
L 129.394805 315.947531 
L 132.21159 342.10445 
L 135.028375 325.337835 
L 137.845161 318.214388 
L 140.661946 317.186418 
L 143.478731 325.809411 
L 146.295516 356.688721 
L 149.112302 370.807774 
L 151.929087 381.446156 
L 154.745872 371.36978 
L 160.379443 399.600331 
L 163.196228 415.195403 
L 166.013013 429.369276 
L 168.829798 444.958201 
L 171.646583 456.408643 
L 174.463369 454.539521 
L 177.280154 455.747719 
L 180.096939 456.538814 
L 182.913724 460.083272 
L 185.73051 469.550209 
L 188.547295 477.30316 
L 191.36408 483.457789 
L 194.180865 486.951257 
L 196.997651 485.410501 
L 199.814436 486.043538 
L 202.631221 488.801217 
L 205.448006 493.270953 
L 208.264792 498.447589 
L 211.081577 501.047295 
L 213.898362 501.279114 
L 216.715147 500.510114 
L 219.531933 498.911176 
L 222.348718 499.223742 
L 225.165503 500.773833 
L 227.982288 502.858509 
L 230.799074 504.613547 
L 233.615859 504.8778 
L 236.432644 504.393654 
L 239.249429 504.224224 
L 242.066215 504.872041 
L 244.883 506.342685 
L 247.699785 507.627536 
L 250.51657 508.434435 
L 253.333356 508.737707 
L 256.150141 508.172773 
L 258.966926 508.398597 
L 261.783711 508.919699 
L 264.600497 509.705159 
L 267.417282 510.62207 
L 270.234067 510.635235 
L 278.684423 509.230228 
L 281.501208 509.505241 
L 284.317993 510.362614 
L 287.134778 510.627945 
L 289.951564 511.046009 
L 292.768349 510.820846 
L 295.585134 510.338705 
L 301.218705 510.825042 
L 304.03549 511.34739 
L 306.852275 511.700088 
L 318.119416 511.223578 
L 323.752987 511.931231 
L 326.569772 511.957837 
L 329.386557 512.192631 
L 332.203342 512.259912 
L 335.020128 511.885245 
L 337.836913 511.634257 
L 343.470483 511.719568 
L 349.104054 512.488741 
L 354.737624 512.26044 
L 357.55441 512.103085 
L 360.371195 512.138397 
L 368.821551 512.489995 
L 371.638336 512.285869 
L 377.271906 512.254578 
L 380.088692 512.313124 
L 382.905477 512.606432 
L 391.355833 512.249728 
L 394.172618 511.789955 
L 399.806188 511.346453 
L 402.622973 511.385895 
L 405.439759 511.603342 
L 416.7069 511.580209 
L 422.34047 512.130607 
L 425.157255 512.116758 
L 427.974041 512.290165 
L 433.607611 511.961662 
L 436.424396 512.02267 
L 444.874752 512.460971 
L 447.691537 512.481236 
L 453.325108 512.195998 
L 458.958678 512.320742 
L 461.775464 512.535095 
L 467.409034 512.544642 
L 475.85939 511.930166 
L 487.126531 512.362096 
L 489.943316 512.092128 
L 492.760101 511.676397 
L 495.576887 511.489641 
L 506.844028 511.986009 
L 512.477598 511.174365 
L 515.294383 510.947928 
L 520.927954 511.56259 
L 523.744739 511.562267 
L 526.561524 511.72068 
L 529.378309 511.151885 
L 532.195095 510.705498 
L 535.01188 510.544057 
L 537.828665 510.683115 
L 540.64545 511.119537 
L 543.462236 511.255267 
L 546.279021 511.192524 
L 551.912591 509.892502 
L 554.729377 509.598922 
L 557.546162 510.026945 
L 560.362947 510.644057 
L 565.996518 510.649935 
L 568.813303 509.936145 
L 571.630088 509.36866 
L 574.446873 508.965734 
L 577.263659 509.469493 
L 580.080444 510.143539 
L 582.897229 510.25724 
L 585.714014 510.574304 
L 591.347585 509.579721 
L 594.16437 509.470544 
L 599.797941 510.570763 
L 605.431511 510.955987 
L 608.248296 510.638543 
L 611.065082 510.126643 
L 613.881867 510.042709 
L 616.698652 510.220181 
L 619.515437 510.534834 
L 622.332222 510.520934 
L 625.149008 510.654695 
L 627.965793 510.125196 
L 630.782578 509.736435 
L 633.599363 509.67768 
L 636.416149 509.826302 
L 639.232934 510.411221 
L 642.049719 510.469903 
L 644.866504 510.328753 
L 647.68329 509.622848 
L 653.31686 508.58257 
L 656.133645 508.927038 
L 658.950431 509.671479 
L 661.767216 509.746695 
L 664.584001 510.063748 
L 667.400786 509.639387 
L 670.217572 508.976831 
L 673.034357 508.629355 
L 675.851142 508.849649 
L 678.667927 509.389189 
L 681.484713 509.449055 
L 684.301498 509.851845 
L 687.118283 509.293124 
L 689.935068 508.534205 
L 695.568639 508.098427 
L 698.385424 508.71053 
L 701.202209 508.763939 
L 704.018995 508.66482 
L 706.83578 507.809338 
L 709.652565 506.277772 
L 712.46935 505.309762 
L 715.286136 505.058362 
L 718.102921 505.922096 
L 720.919706 506.204725 
L 723.736491 506.107208 
L 726.553277 504.719518 
L 729.370062 502.547302 
L 732.186847 500.992857 
L 735.003632 500.966319 
L 737.820417 502.201791 
L 743.453988 502.931053 
L 746.270773 500.725855 
L 749.087558 498.042799 
L 751.904344 495.164084 
L 754.721129 494.099568 
L 757.537914 495.613511 
L 763.171485 496.491892 
L 765.98827 494.946288 
L 768.805055 491.867705 
L 771.62184 489.827751 
L 774.438626 490.792938 
L 777.255411 492.98423 
L 780.072196 494.686213 
L 782.888981 495.846027 
L 785.705767 494.630361 
L 788.522552 492.415367 
L 791.339337 490.781727 
L 794.156122 491.70885 
L 796.972908 494.034154 
L 799.789693 496.13481 
L 802.606478 497.836296 
L 805.423263 496.824511 
L 808.240049 494.827301 
L 811.056834 493.625797 
L 813.873619 494.408945 
L 816.690404 497.193571 
L 819.50719 499.454299 
L 822.323975 500.739826 
L 825.14076 499.872728 
L 827.957545 497.600824 
L 830.774331 496.246714 
L 833.591116 496.87722 
L 836.407901 499.311285 
L 839.224686 501.345869 
L 842.041472 502.301126 
L 844.858257 501.361215 
L 847.675042 499.51683 
L 850.491827 498.359743 
L 853.308612 499.220621 
L 856.125398 501.17644 
L 858.942183 502.762768 
L 861.758968 503.566532 
L 864.575753 502.570953 
L 867.392539 500.875886 
L 870.209324 499.603798 
L 873.026109 499.692706 
L 878.65968 502.660537 
L 881.476465 503.127209 
L 884.29325 502.451893 
L 887.110035 500.262252 
L 889.926821 498.533361 
L 892.743606 498.789517 
L 895.560391 499.882997 
L 898.377176 501.949779 
L 901.193962 502.183344 
L 904.010747 501.504376 
L 909.644317 497.779338 
L 912.461103 498.54346 
L 915.277888 499.851822 
L 918.094673 501.567184 
L 920.911458 502.391961 
L 926.545029 500.674721 
L 929.361814 501.276493 
L 932.178599 502.467685 
L 934.995385 504.633291 
L 937.81217 505.889214 
L 940.628955 505.147024 
L 943.44574 503.401125 
L 946.262526 502.312141 
L 949.079311 502.37008 
L 951.896096 503.547307 
L 954.712881 505.656912 
L 957.529667 506.655257 
L 960.346452 505.906753 
L 963.163237 504.50604 
L 965.980022 502.602541 
L 968.796807 501.522543 
L 971.613593 501.950352 
L 974.430378 503.194328 
L 977.247163 504.835623 
L 980.063948 505.276758 
L 982.880734 504.621639 
L 985.697519 503.834255 
L 988.514304 503.379174 
L 991.331089 503.863547 
L 994.147875 505.310096 
L 996.96466 506.175123 
L 999.781445 506.383514 
L 1002.59823 505.88321 
L 1005.415016 505.066022 
L 1008.231801 504.68804 
L 1011.048586 504.977638 
L 1013.865371 506.006435 
L 1016.682157 506.852448 
L 1019.498942 507.080649 
L 1022.315727 506.686614 
L 1027.949298 505.721617 
L 1030.766083 505.866145 
L 1033.582868 506.719516 
L 1036.399653 507.275224 
L 1039.216439 507.450758 
L 1042.033224 507.228037 
L 1044.850009 506.710085 
L 1047.666794 506.399794 
L 1050.48358 506.471339 
L 1050.48358 506.471339 
" style="fill:none;stroke:#e24a33;stroke-dasharray:1.5,2.475;stroke-dashoffset:0;stroke-width:1.5;"/>
   </g>
   <g id="line2d_31">
    <path clip-path="url(#p76676ce7ef)" d="M 89.959811 262.560523 
L 92.776597 233.295996 
L 95.593382 270.098871 
L 98.410167 252.515745 
L 101.226952 210.419024 
L 104.043738 205.937762 
L 106.860523 213.839768 
L 109.677308 242.173277 
L 112.494093 280.318349 
L 115.310879 277.305072 
L 118.127664 288.30341 
L 120.944449 296.443252 
L 123.761234 275.209667 
L 126.57802 279.936454 
L 129.394805 263.631184 
L 132.21159 253.633011 
L 137.845161 271.172678 
L 140.661946 302.486961 
L 143.478731 342.055603 
L 146.295516 354.495765 
L 149.112302 363.634562 
L 151.929087 367.762308 
L 154.745872 371.239737 
L 157.562657 381.815825 
L 160.379443 397.732163 
L 163.196228 417.916347 
L 166.013013 433.409036 
L 174.463369 477.667454 
L 177.280154 490.413528 
L 180.096939 497.868669 
L 185.73051 502.780866 
L 188.547295 505.497624 
L 191.36408 508.817824 
L 194.180865 515.622085 
L 196.997651 520.866102 
L 199.814436 526.618133 
L 202.631221 533.119165 
L 205.448006 536.165608 
L 208.264792 541.10488 
L 211.081577 545.177473 
L 216.715147 549.370634 
L 219.531933 546.782107 
L 222.348718 541.45886 
L 225.165503 536.661661 
L 227.982288 531.335077 
L 230.799074 528.578859 
L 233.615859 526.807314 
L 236.432644 525.82971 
L 239.249429 528.650313 
L 242.066215 533.153964 
L 244.883 538.404091 
L 247.699785 542.7731 
L 250.51657 544.666144 
L 253.333356 546.332978 
L 256.150141 546.282146 
L 258.966926 546.951118 
L 261.783711 548.943225 
L 264.600497 550.14049 
L 267.417282 552.805272 
L 270.234067 552.82381 
L 273.050852 549.494744 
L 275.867638 544.457228 
L 278.684423 531.544345 
L 281.501208 521.23204 
L 284.317993 518.088701 
L 287.134778 513.43326 
L 289.951564 513.246482 
L 292.768349 514.421414 
L 295.585134 514.216805 
L 298.401919 524.673659 
L 301.218705 531.317153 
L 304.03549 534.603155 
L 306.852275 538.879667 
L 312.485846 534.679786 
L 315.302631 534.753836 
L 318.119416 529.146151 
L 320.936201 531.032665 
L 323.752987 532.199033 
L 326.569772 529.31666 
L 329.386557 531.667955 
L 332.203342 534.936778 
L 335.020128 534.61313 
L 337.836913 535.819879 
L 340.653698 527.757485 
L 343.470483 512.909862 
L 346.287269 510.37723 
L 349.104054 511.188537 
L 351.920839 511.742207 
L 354.737624 519.02299 
L 357.55441 522.715965 
L 360.371195 523.316483 
L 363.18798 530.635911 
L 366.004765 529.747055 
L 368.821551 525.903374 
L 371.638336 519.820797 
L 374.455121 512.584707 
L 377.271906 510.222366 
L 380.088692 514.033495 
L 382.905477 522.221879 
L 385.722262 524.060426 
L 388.539047 522.608614 
L 391.355833 519.043593 
L 394.172618 499.022673 
L 396.989403 481.944911 
L 399.806188 459.11983 
L 402.622973 437.804815 
L 405.439759 430.695851 
L 408.256544 426.000485 
L 411.073329 430.358634 
L 413.890114 454.389916 
L 416.7069 474.42576 
L 419.523685 503.681477 
L 422.34047 524.615501 
L 425.157255 531.967138 
L 427.974041 540.112347 
L 430.790826 540.369286 
L 433.607611 534.225525 
L 436.424396 533.04376 
L 439.241182 528.80733 
L 442.057967 528.349144 
L 444.874752 530.700681 
L 450.508323 528.349082 
L 453.325108 526.502001 
L 456.141893 522.473766 
L 458.958678 520.598554 
L 461.775464 519.584137 
L 464.592249 518.037352 
L 467.409034 517.02143 
L 470.225819 514.996046 
L 473.042605 507.208587 
L 478.676175 490.229027 
L 481.49296 484.764431 
L 484.309746 483.456944 
L 487.126531 483.694373 
L 489.943316 484.2108 
L 492.760101 485.971316 
L 495.576887 484.37915 
L 498.393672 481.179143 
L 501.210457 477.466472 
L 504.027242 475.912687 
L 506.844028 475.182114 
L 509.660813 473.803069 
L 512.477598 476.582461 
L 515.294383 478.422063 
L 518.111168 483.043416 
L 520.927954 488.185307 
L 523.744739 488.951716 
L 526.561524 490.106109 
L 529.378309 489.393161 
L 532.195095 487.225661 
L 535.01188 489.059003 
L 537.828665 486.502956 
L 540.64545 486.054213 
L 543.462236 486.656112 
L 546.279021 484.744794 
L 549.095806 485.104927 
L 551.912591 483.431995 
L 554.729377 478.618113 
L 557.546162 480.373665 
L 560.362947 481.065628 
L 563.179732 481.551903 
L 565.996518 482.53981 
L 568.813303 482.651836 
L 571.630088 484.136401 
L 574.446873 486.765372 
L 577.263659 488.750214 
L 580.080444 489.505994 
L 582.897229 489.260468 
L 585.714014 491.104768 
L 588.5308 495.22562 
L 591.347585 501.406407 
L 594.16437 509.794102 
L 596.981155 514.597772 
L 599.797941 516.335204 
L 602.614726 518.586011 
L 605.431511 519.010671 
L 608.248296 519.638584 
L 611.065082 520.040412 
L 613.881867 519.136297 
L 616.698652 517.085678 
L 619.515437 513.32868 
L 625.149008 504.833041 
L 627.965793 500.052536 
L 630.782578 497.354547 
L 636.416149 497.22674 
L 639.232934 499.910756 
L 642.049719 501.633437 
L 644.866504 501.442799 
L 647.68329 500.790813 
L 650.500075 496.969704 
L 653.31686 489.147135 
L 656.133645 485.644205 
L 658.950431 483.936983 
L 661.767216 482.901905 
L 664.584001 485.721543 
L 667.400786 490.398236 
L 670.217572 496.10215 
L 673.034357 503.474589 
L 675.851142 505.448592 
L 678.667927 503.68864 
L 684.301498 501.490115 
L 687.118283 500.123132 
L 689.935068 499.467393 
L 692.751854 499.838717 
L 695.568639 496.846394 
L 698.385424 495.108618 
L 701.202209 493.731215 
L 704.018995 489.502035 
L 706.83578 486.002925 
L 709.652565 479.02521 
L 712.46935 468.581236 
L 715.286136 462.362897 
L 718.102921 457.735207 
L 720.919706 456.136962 
L 723.736491 456.435238 
L 726.553277 456.319208 
L 729.370062 457.351341 
L 732.186847 457.317732 
L 735.003632 458.092217 
L 737.820417 458.653085 
L 740.637203 458.525628 
L 743.453988 459.328937 
L 746.270773 459.247825 
L 749.087558 460.391984 
L 751.904344 460.366279 
L 754.721129 456.456815 
L 757.537914 453.127081 
L 760.354699 449.249222 
L 763.171485 446.583318 
L 765.98827 447.166181 
L 768.805055 449.82354 
L 771.62184 456.396677 
L 774.438626 466.978261 
L 777.255411 473.073158 
L 780.072196 478.601039 
L 782.888981 482.494882 
L 785.705767 485.226924 
L 788.522552 489.294957 
L 791.339337 492.63157 
L 794.156122 494.969087 
L 796.972908 496.787618 
L 799.789693 498.095054 
L 802.606478 499.726378 
L 811.056834 505.293986 
L 813.873619 505.99293 
L 816.690404 507.694934 
L 819.50719 509.884943 
L 825.14076 513.26463 
L 827.957545 513.392109 
L 833.591116 510.130511 
L 836.407901 509.055683 
L 844.858257 509.606924 
L 847.675042 509.71814 
L 850.491827 509.493468 
L 853.308612 510.290896 
L 856.125398 511.206788 
L 861.758968 511.848221 
L 864.575753 511.452488 
L 867.392539 510.789087 
L 870.209324 509.596601 
L 873.026109 506.552874 
L 875.842894 503.945015 
L 881.476465 500.050784 
L 884.29325 499.392739 
L 887.110035 498.045908 
L 889.926821 495.629266 
L 892.743606 494.683846 
L 895.560391 491.742734 
L 904.010747 490.82761 
L 906.827532 492.226436 
L 909.644317 492.573441 
L 915.277888 497.448099 
L 918.094673 497.891695 
L 920.911458 499.303257 
L 923.728244 499.829264 
L 926.545029 502.112577 
L 932.178599 520.37714 
L 934.995385 531.531384 
L 937.81217 539.281975 
L 940.628955 540.95239 
L 943.44574 538.698969 
L 946.262526 529.668869 
L 949.079311 515.590742 
L 951.896096 509.688669 
L 954.712881 509.435118 
L 957.529667 509.813513 
L 963.163237 511.202552 
L 965.980022 506.239795 
L 971.613593 481.810794 
L 974.430378 470.559537 
L 977.247163 465.489576 
L 980.063948 465.371364 
L 982.880734 469.234669 
L 985.697519 484.210371 
L 988.514304 506.315909 
L 991.331089 518.560663 
L 994.147875 526.027977 
L 996.96466 528.007798 
L 999.781445 528.642798 
L 1002.59823 528.978701 
L 1005.415016 526.287947 
L 1008.231801 524.142837 
L 1013.865371 520.481558 
L 1016.682157 520.513417 
L 1019.498942 520.878884 
L 1022.315727 521.502046 
L 1025.132512 523.530605 
L 1027.949298 523.91143 
L 1030.766083 522.999707 
L 1033.582868 522.737678 
L 1036.399653 521.660054 
L 1039.216439 521.132271 
L 1042.033224 521.317718 
L 1044.850009 520.592864 
L 1047.666794 521.073119 
L 1050.48358 521.28617 
L 1050.48358 521.28617 
" style="fill:none;stroke:#348abd;stroke-linecap:square;stroke-width:1.5;"/>
   </g>
   <g id="line2d_32">
    <path clip-path="url(#p76676ce7ef)" d="M 89.959811 262.560523 
L 92.776597 204.031469 
L 95.593382 343.704621 
L 98.410167 199.766369 
L 101.226952 42.032138 
L 104.043738 183.531454 
L 106.860523 261.251804 
L 109.677308 460.895087 
L 112.494093 471.04697 
L 115.310879 322.611681 
L 118.127664 276.754735 
L 120.944449 99.011031 
L 123.761234 34.896364 
L 126.57802 294.339311 
L 132.21159 401.059762 
L 135.028375 383.068176 
L 137.845161 339.075905 
L 140.661946 318.211014 
L 143.478731 311.876858 
L 146.295516 381.420446 
L 149.112302 410.729777 
L 151.929087 429.953981 
L 154.745872 407.410175 
L 157.562657 413.108523 
L 160.379443 429.625382 
L 163.196228 453.166149 
L 166.013013 489.869263 
L 168.829798 513.70528 
L 171.646583 530.297585 
L 174.463369 513.899999 
L 177.280154 502.331038 
L 180.096939 481.81137 
L 182.913724 469.953003 
L 185.73051 507.467787 
L 188.547295 532.722584 
L 191.36408 553.538985 
L 194.180865 561.52983 
L 196.997651 539.039156 
L 199.814436 522.075588 
L 202.631221 515.460222 
L 205.448006 528.792891 
L 208.264792 567.297487 
L 211.081577 582.047138 
L 213.898362 576.202954 
L 216.715147 553.71816 
L 219.531933 503.955899 
L 222.348718 478.197493 
L 225.165503 495.212494 
L 227.982288 530.011403 
L 230.799074 562.753613 
L 233.615859 563.802138 
L 236.432644 546.87493 
L 239.249429 523.700117 
L 242.066215 509.72305 
L 244.883 531.963387 
L 247.699785 560.594467 
L 250.51657 576.004916 
L 253.333356 575.469982 
L 256.150141 546.5191 
L 258.966926 528.382923 
L 261.783711 523.6678 
L 264.600497 540.344243 
L 267.417282 579.247939 
L 270.234067 576.134685 
L 273.050852 552.166517 
L 275.867638 511.256486 
L 278.684423 437.992747 
L 281.501208 451.481666 
L 284.317993 518.340869 
L 289.951564 574.827243 
L 292.768349 560.391041 
L 295.585134 509.824223 
L 298.401919 511.190725 
L 301.218705 497.98612 
L 304.03549 541.342884 
L 306.852275 576.595431 
L 309.66906 560.41117 
L 312.485846 545.407948 
L 315.302631 510.342573 
L 318.119416 471.936934 
L 323.752987 549.507462 
L 326.569772 556.418816 
L 329.386557 576.87024 
L 332.203342 568.289708 
L 335.020128 508.077036 
L 337.836913 480.384173 
L 340.653698 454.754963 
L 343.470483 445.574096 
L 346.287269 538.690396 
L 349.104054 582.549387 
L 351.920839 572.165397 
L 354.737624 559.042517 
L 357.55441 506.234998 
L 360.371195 458.958587 
L 363.18798 496.810097 
L 366.004765 532.468405 
L 368.821551 555.643618 
L 371.638336 529.587355 
L 374.455121 508.389887 
L 377.271906 489.698611 
L 380.088692 485.63649 
L 382.905477 554.128785 
L 385.722262 545.338232 
L 388.539047 545.480941 
L 391.355833 504.632203 
L 394.172618 368.243447 
L 396.989403 370.154282 
L 399.806188 325.860918 
L 402.622973 404.923683 
L 405.439759 495.575488 
L 408.256544 512.613375 
L 411.073329 535.139243 
L 413.890114 536.462426 
L 416.7069 510.405188 
L 422.34047 551.461851 
L 425.157255 547.036944 
L 427.974041 569.629836 
L 430.790826 536.937819 
L 433.607611 493.456097 
L 436.424396 502.132833 
L 439.241182 500.995928 
L 442.057967 548.254554 
L 444.874752 563.497702 
L 447.691537 561.44779 
L 450.508323 528.658673 
L 453.325108 480.526529 
L 456.141893 473.935183 
L 458.958678 487.869444 
L 461.775464 541.153635 
L 464.592249 552.670206 
L 467.409034 554.336341 
L 470.225819 514.480984 
L 473.042605 426.014316 
L 475.85939 414.901758 
L 478.676175 428.045949 
L 481.49296 502.90146 
L 484.309746 543.517799 
L 487.126531 555.998346 
L 489.943316 518.095969 
L 492.760101 438.337932 
L 495.576887 403.756591 
L 498.393672 405.645902 
L 501.210457 476.912765 
L 504.027242 532.641305 
L 506.844028 550.88433 
L 509.660813 508.442655 
L 512.477598 457.793679 
L 515.294383 416.633808 
L 518.111168 437.995372 
L 520.927954 512.906001 
L 523.744739 538.006169 
L 526.561524 558.965079 
L 529.378309 503.452016 
L 532.195095 442.621184 
L 535.01188 429.467203 
L 537.828665 420.103044 
L 540.64545 509.764798 
L 543.462236 542.219463 
L 546.279021 545.58585 
L 549.095806 505.972945 
L 551.912591 430.910659 
L 554.729377 395.77003 
L 557.546162 432.391908 
L 560.362947 514.608543 
L 563.179732 545.623386 
L 565.996518 552.501201 
L 568.813303 506.757123 
L 571.630088 441.302618 
L 574.446873 414.172826 
L 577.263659 446.285804 
L 580.080444 519.899001 
L 582.897229 543.9047 
L 585.714014 565.411307 
L 588.5308 535.603087 
L 591.347585 484.568123 
L 594.16437 472.886694 
L 596.981155 479.911492 
L 599.797941 532.061025 
L 602.614726 559.66035 
L 605.431511 568.383924 
L 608.248296 539.998483 
L 611.065082 487.380914 
L 613.881867 466.557895 
L 616.698652 465.557153 
L 619.515437 505.762041 
L 622.332222 529.560938 
L 625.149008 539.013866 
L 627.965793 506.534944 
L 630.782578 468.494995 
L 633.599363 466.25268 
L 636.416149 464.967714 
L 639.232934 524.550155 
L 642.049719 541.619705 
L 644.866504 537.679397 
L 647.68329 501.971046 
L 650.500075 441.74723 
L 653.31686 411.4947 
L 656.133645 440.447199 
L 658.950431 512.599605 
L 661.767216 534.374156 
L 664.584001 557.416864 
L 667.400786 534.707901 
L 670.217572 481.674624 
L 673.034357 463.101777 
L 675.851142 454.265218 
L 678.667927 500.279939 
L 681.484713 526.679596 
L 684.301498 549.721751 
L 687.118283 525.139016 
L 689.935068 477.084456 
L 692.751854 465.701042 
L 695.568639 433.318955 
L 698.385424 488.115509 
L 701.202209 517.037776 
L 704.018995 520.117493 
L 706.83578 500.645245 
L 709.652565 428.24045 
L 712.46935 392.593223 
L 715.286136 389.790584 
L 718.102921 455.721676 
L 720.919706 505.850064 
L 723.736491 522.205424 
L 726.553277 499.833035 
L 729.370062 435.465382 
L 732.186847 392.357961 
L 735.003632 395.211977 
L 737.820417 459.64775 
L 740.637203 504.957867 
L 743.453988 527.828589 
L 746.270773 499.265251 
L 749.087558 443.474491 
L 751.904344 392.178029 
L 754.721129 367.845727 
L 757.537914 436.339616 
L 760.354699 477.812854 
L 763.171485 509.16726 
L 765.98827 503.345292 
L 768.805055 462.076 
L 771.62184 438.189994 
L 774.438626 441.916813 
L 780.072196 516.508019 
L 782.888981 536.424161 
L 785.705767 522.469591 
L 788.522552 490.552231 
L 791.339337 461.54628 
L 794.156122 458.279432 
L 799.789693 525.660075 
L 802.606478 547.843427 
L 805.423263 535.464827 
L 808.240049 503.931311 
L 811.056834 474.145219 
L 813.873619 463.172044 
L 816.690404 503.647632 
L 819.50719 540.990138 
L 822.323975 559.350138 
L 825.14076 547.615927 
L 830.774331 463.132347 
L 833.591116 451.353735 
L 839.224686 542.351828 
L 842.041472 561.487402 
L 844.858257 547.97566 
L 850.491827 461.559644 
L 853.308612 456.935732 
L 856.125398 502.535076 
L 858.942183 544.757813 
L 861.758968 563.571444 
L 864.575753 545.205534 
L 867.392539 500.958363 
L 870.209324 453.212243 
L 873.026109 435.629642 
L 878.65968 531.009696 
L 881.476465 550.059942 
L 884.29325 540.599215 
L 887.110035 491.530549 
L 889.926821 436.295748 
L 892.743606 429.011705 
L 895.560391 463.692283 
L 898.377176 528.81557 
L 901.193962 548.43078 
L 904.010747 538.016634 
L 906.827532 501.322334 
L 909.644317 438.724783 
L 912.461103 446.028983 
L 915.277888 480.797611 
L 918.094673 531.92074 
L 920.911458 558.311716 
L 923.728244 541.698681 
L 926.545029 517.305527 
L 929.361814 502.820798 
L 932.178599 509.784909 
L 934.995385 558.877321 
L 937.81217 586.174872 
L 940.628955 570.004619 
L 943.44574 525.924735 
L 946.262526 454.094828 
L 949.079311 404.273911 
L 951.896096 468.470394 
L 954.712881 557.102469 
L 957.529667 588.823636 
L 960.346452 574.709046 
L 963.163237 530.943578 
L 965.980022 419.355531 
L 968.796807 317.329157 
L 971.613593 384.41214 
L 974.430378 478.343671 
L 977.247163 553.333907 
L 980.063948 573.881563 
L 982.880734 557.986718 
L 985.697519 524.185439 
L 988.514304 472.067924 
L 991.331089 470.12542 
L 994.147875 530.61487 
L 996.96466 567.192653 
L 999.781445 578.326562 
L 1002.59823 560.33804 
L 1005.415016 505.350158 
L 1008.231801 457.052159 
L 1011.048586 456.979504 
L 1013.865371 518.131834 
L 1016.682157 567.415661 
L 1019.498942 580.884834 
L 1022.315727 564.70017 
L 1025.132512 519.550073 
L 1027.949298 459.717932 
L 1030.766083 450.597444 
L 1033.582868 516.297631 
L 1036.399653 559.872294 
L 1039.216439 577.190355 
L 1042.033224 565.998299 
L 1047.666794 463.079719 
L 1050.48358 452.088799 
L 1050.48358 452.088799 
" style="fill:none;stroke:#348abd;stroke-dasharray:1.5,2.475;stroke-dashoffset:0;stroke-width:1.5;"/>
   </g>
   <g id="line2d_33">
    <path clip-path="url(#p76676ce7ef)" d="M 30.103125 513.773155 
L 1099.073125 513.773155 
" style="fill:none;stroke:#008000;stroke-linecap:square;stroke-opacity:0.5;stroke-width:1.5;"/>
   </g>
   <g id="patch_3">
    <path d="M 30.103125 616.52 
L 30.103125 7.2 
" style="fill:none;stroke:#ffffff;stroke-linecap:square;stroke-linejoin:miter;"/>
   </g>
   <g id="patch_4">
    <path d="M 1099.073125 616.52 
L 1099.073125 7.2 
" style="fill:none;stroke:#ffffff;stroke-linecap:square;stroke-linejoin:miter;"/>
   </g>
   <g id="patch_5">
    <path d="M 30.103125 616.52 
L 1099.073125 616.52 
" style="fill:none;stroke:#ffffff;stroke-linecap:square;stroke-linejoin:miter;"/>
   </g>
   <g id="patch_6">
    <path d="M 30.103125 7.2 
L 1099.073125 7.2 
" style="fill:none;stroke:#ffffff;stroke-linecap:square;stroke-linejoin:miter;"/>
   </g>
  </g>
  <g id="axes_2">
   <g id="matplotlib.axis_3">
    <g id="ytick_9">
     <g id="line2d_34">
      <path clip-path="url(#p76676ce7ef)" d="M 30.103125 589.00409 
L 1099.073125 589.00409 
" style="fill:none;stroke:#ffffff;stroke-linecap:square;stroke-width:0.8;"/>
     </g>
     <g id="line2d_35">
      <defs>
       <path d="M 0 0 
L 3.5 0 
" id="mafd17d0aa0" style="stroke:#555555;stroke-width:0.8;"/>
      </defs>
      <g>
       <use style="fill:#555555;stroke:#555555;stroke-width:0.8;" x="1099.073125" xlink:href="#mafd17d0aa0" y="589.00409"/>
      </g>
     </g>
     <g id="text_15">
      <!-- 0 -->
      <g style="fill:#555555;" transform="translate(1106.073125 592.803309)scale(0.1 -0.1)">
       <use xlink:href="#DejaVuSans-48"/>
      </g>
     </g>
    </g>
    <g id="ytick_10">
     <g id="line2d_36">
      <path clip-path="url(#p76676ce7ef)" d="M 30.103125 506.979676 
L 1099.073125 506.979676 
" style="fill:none;stroke:#ffffff;stroke-linecap:square;stroke-width:0.8;"/>
     </g>
     <g id="line2d_37">
      <g>
       <use style="fill:#555555;stroke:#555555;stroke-width:0.8;" x="1099.073125" xlink:href="#mafd17d0aa0" y="506.979676"/>
      </g>
     </g>
     <g id="text_16">
      <!-- 5000 -->
      <g style="fill:#555555;" transform="translate(1106.073125 510.778895)scale(0.1 -0.1)">
       <use xlink:href="#DejaVuSans-53"/>
       <use x="63.623047" xlink:href="#DejaVuSans-48"/>
       <use x="127.246094" xlink:href="#DejaVuSans-48"/>
       <use x="190.869141" xlink:href="#DejaVuSans-48"/>
      </g>
     </g>
    </g>
    <g id="ytick_11">
     <g id="line2d_38">
      <path clip-path="url(#p76676ce7ef)" d="M 30.103125 424.955262 
L 1099.073125 424.955262 
" style="fill:none;stroke:#ffffff;stroke-linecap:square;stroke-width:0.8;"/>
     </g>
     <g id="line2d_39">
      <g>
       <use style="fill:#555555;stroke:#555555;stroke-width:0.8;" x="1099.073125" xlink:href="#mafd17d0aa0" y="424.955262"/>
      </g>
     </g>
     <g id="text_17">
      <!-- 10000 -->
      <g style="fill:#555555;" transform="translate(1106.073125 428.754481)scale(0.1 -0.1)">
       <use xlink:href="#DejaVuSans-49"/>
       <use x="63.623047" xlink:href="#DejaVuSans-48"/>
       <use x="127.246094" xlink:href="#DejaVuSans-48"/>
       <use x="190.869141" xlink:href="#DejaVuSans-48"/>
       <use x="254.492188" xlink:href="#DejaVuSans-48"/>
      </g>
     </g>
    </g>
    <g id="ytick_12">
     <g id="line2d_40">
      <path clip-path="url(#p76676ce7ef)" d="M 30.103125 342.930848 
L 1099.073125 342.930848 
" style="fill:none;stroke:#ffffff;stroke-linecap:square;stroke-width:0.8;"/>
     </g>
     <g id="line2d_41">
      <g>
       <use style="fill:#555555;stroke:#555555;stroke-width:0.8;" x="1099.073125" xlink:href="#mafd17d0aa0" y="342.930848"/>
      </g>
     </g>
     <g id="text_18">
      <!-- 15000 -->
      <g style="fill:#555555;" transform="translate(1106.073125 346.730067)scale(0.1 -0.1)">
       <use xlink:href="#DejaVuSans-49"/>
       <use x="63.623047" xlink:href="#DejaVuSans-53"/>
       <use x="127.246094" xlink:href="#DejaVuSans-48"/>
       <use x="190.869141" xlink:href="#DejaVuSans-48"/>
       <use x="254.492188" xlink:href="#DejaVuSans-48"/>
      </g>
     </g>
    </g>
    <g id="ytick_13">
     <g id="line2d_42">
      <path clip-path="url(#p76676ce7ef)" d="M 30.103125 260.906434 
L 1099.073125 260.906434 
" style="fill:none;stroke:#ffffff;stroke-linecap:square;stroke-width:0.8;"/>
     </g>
     <g id="line2d_43">
      <g>
       <use style="fill:#555555;stroke:#555555;stroke-width:0.8;" x="1099.073125" xlink:href="#mafd17d0aa0" y="260.906434"/>
      </g>
     </g>
     <g id="text_19">
      <!-- 20000 -->
      <g style="fill:#555555;" transform="translate(1106.073125 264.705653)scale(0.1 -0.1)">
       <use xlink:href="#DejaVuSans-50"/>
       <use x="63.623047" xlink:href="#DejaVuSans-48"/>
       <use x="127.246094" xlink:href="#DejaVuSans-48"/>
       <use x="190.869141" xlink:href="#DejaVuSans-48"/>
       <use x="254.492188" xlink:href="#DejaVuSans-48"/>
      </g>
     </g>
    </g>
    <g id="ytick_14">
     <g id="line2d_44">
      <path clip-path="url(#p76676ce7ef)" d="M 30.103125 178.88202 
L 1099.073125 178.88202 
" style="fill:none;stroke:#ffffff;stroke-linecap:square;stroke-width:0.8;"/>
     </g>
     <g id="line2d_45">
      <g>
       <use style="fill:#555555;stroke:#555555;stroke-width:0.8;" x="1099.073125" xlink:href="#mafd17d0aa0" y="178.88202"/>
      </g>
     </g>
     <g id="text_20">
      <!-- 25000 -->
      <g style="fill:#555555;" transform="translate(1106.073125 182.681239)scale(0.1 -0.1)">
       <use xlink:href="#DejaVuSans-50"/>
       <use x="63.623047" xlink:href="#DejaVuSans-53"/>
       <use x="127.246094" xlink:href="#DejaVuSans-48"/>
       <use x="190.869141" xlink:href="#DejaVuSans-48"/>
       <use x="254.492188" xlink:href="#DejaVuSans-48"/>
      </g>
     </g>
    </g>
    <g id="ytick_15">
     <g id="line2d_46">
      <path clip-path="url(#p76676ce7ef)" d="M 30.103125 96.857606 
L 1099.073125 96.857606 
" style="fill:none;stroke:#ffffff;stroke-linecap:square;stroke-width:0.8;"/>
     </g>
     <g id="line2d_47">
      <g>
       <use style="fill:#555555;stroke:#555555;stroke-width:0.8;" x="1099.073125" xlink:href="#mafd17d0aa0" y="96.857606"/>
      </g>
     </g>
     <g id="text_21">
      <!-- 30000 -->
      <g style="fill:#555555;" transform="translate(1106.073125 100.656825)scale(0.1 -0.1)">
       <use xlink:href="#DejaVuSans-51"/>
       <use x="63.623047" xlink:href="#DejaVuSans-48"/>
       <use x="127.246094" xlink:href="#DejaVuSans-48"/>
       <use x="190.869141" xlink:href="#DejaVuSans-48"/>
       <use x="254.492188" xlink:href="#DejaVuSans-48"/>
      </g>
     </g>
    </g>
    <g id="ytick_16">
     <g id="line2d_48">
      <path clip-path="url(#p76676ce7ef)" d="M 30.103125 14.833192 
L 1099.073125 14.833192 
" style="fill:none;stroke:#ffffff;stroke-linecap:square;stroke-width:0.8;"/>
     </g>
     <g id="line2d_49">
      <g>
       <use style="fill:#555555;stroke:#555555;stroke-width:0.8;" x="1099.073125" xlink:href="#mafd17d0aa0" y="14.833192"/>
      </g>
     </g>
     <g id="text_22">
      <!-- 35000 -->
      <g style="fill:#555555;" transform="translate(1106.073125 18.632411)scale(0.1 -0.1)">
       <use xlink:href="#DejaVuSans-51"/>
       <use x="63.623047" xlink:href="#DejaVuSans-53"/>
       <use x="127.246094" xlink:href="#DejaVuSans-48"/>
       <use x="190.869141" xlink:href="#DejaVuSans-48"/>
       <use x="254.492188" xlink:href="#DejaVuSans-48"/>
      </g>
     </g>
    </g>
   </g>
   <g id="line2d_50">
    <path clip-path="url(#p76676ce7ef)" d="M 78.69267 588.134631 
L 81.509456 588.479134 
L 84.326241 588.309617 
L 89.959811 588.361019 
L 92.776597 588.287744 
L 95.593382 588.066668 
L 101.226952 587.290952 
L 104.043738 587.187835 
L 106.860523 586.698032 
L 109.677308 586.42618 
L 112.494093 585.945751 
L 115.310879 584.389631 
L 118.127664 583.325657 
L 120.944449 581.973426 
L 129.394805 575.27086 
L 132.21159 573.463979 
L 135.028375 568.779213 
L 137.845161 563.471062 
L 140.661946 558.849572 
L 143.478731 556.728655 
L 146.295516 549.960469 
L 149.112302 541.476801 
L 151.929087 534.268027 
L 154.745872 529.222354 
L 157.562657 522.608842 
L 160.379443 514.197824 
L 163.196228 509.470875 
L 166.013013 507.856166 
L 168.829798 508.205355 
L 171.646583 505.07671 
L 174.463369 502.259757 
L 177.280154 501.336396 
L 180.096939 501.83323 
L 182.913724 497.214084 
L 185.73051 499.731061 
L 188.547295 501.561378 
L 191.36408 504.959532 
L 194.180865 507.729614 
L 196.997651 509.723979 
L 199.814436 514.291567 
L 202.631221 521.59174 
L 205.448006 524.263392 
L 208.264792 528.3693 
L 211.081577 531.924472 
L 213.898362 536.864685 
L 216.715147 541.418212 
L 219.531933 542.646235 
L 222.348718 543.496945 
L 225.165503 545.282734 
L 230.799074 546.562315 
L 233.615859 547.766902 
L 236.432644 550.211229 
L 239.249429 553.853113 
L 247.699785 558.819106 
L 253.333356 563.053909 
L 256.150141 564.68971 
L 258.966926 567.291056 
L 261.783711 569.503372 
L 264.600497 570.297837 
L 267.417282 571.373528 
L 270.234067 572.210177 
L 273.050852 572.664827 
L 275.867638 573.672555 
L 278.684423 572.955428 
L 281.501208 573.250715 
L 284.317993 574.00534 
L 287.134778 573.424139 
L 289.951564 573.773328 
L 292.768349 574.595916 
L 295.585134 575.289608 
L 298.401919 576.768391 
L 301.218705 576.96525 
L 304.03549 577.000403 
L 306.852275 577.984696 
L 309.66906 577.987039 
L 312.485846 578.427628 
L 315.302631 579.489258 
L 318.119416 579.447074 
L 320.936201 579.803294 
L 326.569772 580.117331 
L 332.203342 582.05545 
L 335.020128 581.396912 
L 337.836913 581.162556 
L 340.653698 581.502372 
L 343.470483 581.399255 
L 346.287269 581.912494 
L 349.104054 581.959365 
L 351.920839 581.863279 
L 354.737624 582.411671 
L 357.55441 583.187387 
L 360.371195 583.152234 
L 363.18798 583.431117 
L 366.004765 583.11005 
L 368.821551 583.166295 
L 371.638336 582.788983 
L 374.455121 583.372528 
L 382.905477 583.688908 
L 391.355833 583.501424 
L 394.172618 582.301524 
L 396.989403 581.708604 
L 399.806188 580.67744 
L 402.622973 579.868914 
L 405.439759 579.57597 
L 408.256544 579.008829 
L 411.073329 578.891652 
L 413.890114 579.578313 
L 416.7069 579.376767 
L 419.523685 580.386839 
L 422.34047 581.031317 
L 425.157255 581.043035 
L 430.790826 581.624236 
L 433.607611 581.696887 
L 436.424396 582.317929 
L 442.057967 582.458542 
L 447.691537 582.873351 
L 456.141893 583.238946 
L 458.958678 583.217854 
L 461.775464 583.358467 
L 464.592249 583.306909 
L 467.409034 583.414712 
L 470.225819 583.199105 
L 475.85939 582.40464 
L 478.676175 582.512444 
L 489.943316 581.720322 
L 495.576887 580.586042 
L 504.027242 579.871257 
L 506.844028 579.33224 
L 509.660813 578.551836 
L 512.477598 578.422941 
L 515.294383 578.015162 
L 518.111168 578.167493 
L 520.927954 577.771432 
L 523.744739 577.194918 
L 526.561524 577.061335 
L 529.378309 576.726207 
L 532.195095 576.077042 
L 535.01188 575.685669 
L 537.828665 574.947449 
L 540.64545 575.118529 
L 543.462236 574.914639 
L 546.279021 573.778015 
L 549.095806 572.840593 
L 554.729377 571.446178 
L 557.546162 571.28213 
L 560.362947 570.989185 
L 563.179732 569.995518 
L 568.813303 568.715937 
L 571.630088 568.767495 
L 574.446873 567.316835 
L 580.080444 566.597364 
L 582.897229 566.859842 
L 585.714014 566.705167 
L 588.5308 567.173878 
L 591.347585 566.836406 
L 594.16437 568.137079 
L 596.981155 568.130048 
L 602.614726 568.507361 
L 605.431511 569.257298 
L 608.248296 569.716635 
L 613.881867 570.229873 
L 619.515437 569.276047 
L 622.332222 568.617508 
L 625.149008 568.804992 
L 627.965793 567.443387 
L 630.782578 567.370737 
L 633.599363 566.780161 
L 636.416149 566.873903 
L 639.232934 566.609081 
L 642.049719 566.824689 
L 644.866504 565.125611 
L 647.68329 564.417858 
L 650.500075 563.405442 
L 653.31686 561.842291 
L 656.133645 560.9119 
L 658.950431 560.923618 
L 661.767216 559.953386 
L 664.584001 560.262735 
L 667.400786 560.382257 
L 673.034357 559.334688 
L 675.851142 559.182357 
L 681.484713 557.921524 
L 684.301498 557.853561 
L 687.118283 557.009881 
L 689.935068 555.791233 
L 692.751854 555.659994 
L 695.568639 553.623445 
L 698.385424 553.17817 
L 701.202209 551.889215 
L 704.018995 549.475353 
L 706.83578 545.831126 
L 709.652565 541.511954 
L 712.46935 536.454563 
L 715.286136 533.632924 
L 718.102921 531.090167 
L 720.919706 527.614675 
L 723.736491 522.215125 
L 726.553277 516.168754 
L 729.370062 509.564617 
L 732.186847 502.278505 
L 735.003632 497.347666 
L 737.820417 492.993342 
L 740.637203 486.557941 
L 743.453988 480.785765 
L 746.270773 469.89058 
L 749.087558 460.731968 
L 751.904344 444.598937 
L 754.721129 431.50081 
L 757.537914 421.282912 
L 760.354699 410.64083 
L 763.171485 393.371176 
L 765.98827 380.512091 
L 768.805055 363.078388 
L 771.62184 352.895643 
L 774.438626 345.862635 
L 777.255411 337.866426 
L 780.072196 328.62579 
L 782.888981 323.352792 
L 785.705767 315.81592 
L 788.522552 309.195378 
L 791.339337 299.024351 
L 794.156122 294.71221 
L 796.972908 291.74527 
L 799.789693 291.792141 
L 802.606478 288.808796 
L 805.423263 284.412288 
L 808.240049 279.64081 
L 811.056834 281.839064 
L 813.873619 279.659559 
L 816.690404 285.609844 
L 822.323975 289.919641 
L 825.14076 288.17838 
L 827.957545 287.929963 
L 830.774331 286.751155 
L 833.591116 289.577482 
L 836.407901 289.48374 
L 839.224686 291.510915 
L 842.041472 288.998624 
L 844.858257 289.797776 
L 847.675042 291.771049 
L 850.491827 294.74502 
L 853.308612 297.393237 
L 856.125398 296.678453 
L 858.942183 296.561275 
L 861.758968 299.75554 
L 864.575753 300.275809 
L 867.392539 298.768904 
L 870.209324 294.965314 
L 873.026109 287.569056 
L 875.842894 284.843502 
L 878.65968 283.788902 
L 881.476465 275.481001 
L 884.29325 271.653976 
L 887.110035 256.594293 
L 889.926821 244.595293 
L 892.743606 238.893425 
L 895.560391 229.448899 
L 898.377176 228.563036 
L 901.193962 212.362042 
L 904.010747 204.759551 
L 906.827532 195.615 
L 909.644317 188.907747 
L 912.461103 182.882468 
L 915.277888 182.223929 
L 918.094673 170.281174 
L 920.911458 177.283716 
L 923.728244 164.928495 
L 926.545029 184.24876 
L 929.361814 223.725939 
L 932.178599 244.855428 
L 934.995385 258.136352 
L 937.81217 273.688181 
L 940.628955 279.03383 
L 943.44574 278.19718 
L 946.262526 284.311515 
L 949.079311 288.447889 
L 951.896096 296.509717 
L 954.712881 299.15559 
L 957.529667 301.487427 
L 960.346452 304.351251 
L 963.163237 318.789891 
L 965.980022 297.873666 
L 968.796807 269.741635 
L 971.613593 254.154653 
L 974.430378 247.991104 
L 977.247163 245.870187 
L 980.063948 249.706586 
L 982.880734 252.582128 
L 985.697519 274.80137 
L 988.514304 288.900195 
L 991.331089 296.127717 
L 994.147875 308.632925 
L 996.96466 311.991239 
L 999.781445 320.488968 
L 1002.59823 331.65835 
L 1005.415016 342.218407 
L 1008.231801 347.517185 
L 1011.048586 351.325461 
L 1013.865371 352.291005 
L 1016.682157 363.908006 
L 1022.315727 377.081127 
L 1025.132512 386.080377 
L 1027.949298 395.679577 
L 1033.582868 400.802587 
L 1036.399653 401.500967 
L 1039.216439 409.696377 
L 1042.033224 417.519163 
L 1044.850009 420.129883 
L 1047.666794 424.432649 
L 1050.48358 430.469646 
L 1050.48358 430.469646 
" style="fill:none;stroke:#000000;stroke-linecap:square;stroke-width:1.5;"/>
   </g>
   <g id="line2d_51">
    <path clip-path="url(#p76676ce7ef)" d="M 78.69267 588.134631 
L 81.509456 588.823636 
L 84.326241 587.970582 
L 87.143026 588.544753 
L 89.959811 588.33149 
L 92.776597 587.921368 
L 95.593382 586.740216 
L 98.410167 585.083323 
L 101.226952 586.444928 
L 104.043738 587.248768 
L 106.860523 585.116133 
L 109.677308 586.428523 
L 112.494093 584.558367 
L 115.310879 575.847374 
L 118.127664 577.635506 
L 120.944449 576.979311 
L 123.761234 571.893797 
L 126.57802 569.744758 
L 129.394805 570.236904 
L 132.21159 571.910202 
L 135.028375 543.054013 
L 137.845161 540.478447 
L 140.661946 544.628882 
L 143.478731 557.047378 
L 146.295516 522.367456 
L 149.112302 510.851228 
L 151.929087 521.448783 
L 157.562657 494.183867 
L 160.379443 485.751758 
L 163.196228 523.95873 
L 166.013013 511.064492 
L 168.829798 513.295556 
L 171.646583 499.548264 
L 174.463369 488.015632 
L 177.280154 487.720344 
L 180.096939 489.229593 
L 182.913724 491.624706 
L 185.73051 528.683336 
L 188.547295 526.107769 
L 191.36408 523.335344 
L 194.180865 507.406203 
L 196.997651 501.680899 
L 199.814436 521.202709 
L 202.631221 542.725916 
L 205.448006 547.384902 
L 208.264792 554.849124 
L 211.081577 548.221551 
L 213.898362 541.987696 
L 216.715147 533.555586 
L 219.531933 529.798868 
L 222.348718 548.680888 
L 225.165503 559.885423 
L 227.982288 559.721374 
L 230.799074 552.306367 
L 233.615859 550.419806 
L 236.432644 550.665879 
L 239.249429 555.292056 
L 242.066215 560.508809 
L 244.883 572.303919 
L 247.699785 570.236904 
L 250.51657 567.612123 
L 253.333356 564.757673 
L 256.150141 562.116487 
L 258.966926 573.501476 
L 261.783711 575.995018 
L 264.600497 577.865175 
L 267.417282 577.766745 
L 270.234067 573.468666 
L 273.050852 567.940221 
L 275.867638 569.170587 
L 278.684423 568.481582 
L 281.501208 578.062033 
L 284.317993 583.147547 
L 287.134778 573.698334 
L 289.951564 575.912994 
L 292.768349 573.698334 
L 295.585134 574.026432 
L 298.401919 578.833063 
L 301.218705 579.440043 
L 304.03549 583.39362 
L 306.852275 580.588385 
L 309.66906 575.929398 
L 312.485846 576.782452 
L 315.302631 581.457844 
L 318.119416 578.537775 
L 320.936201 581.933586 
L 323.752987 584.263079 
L 326.569772 581.917181 
L 329.386557 583.065522 
L 332.203342 583.213166 
L 335.020128 576.848072 
L 337.836913 576.897287 
L 340.653698 584.312294 
L 343.470483 583.541264 
L 346.287269 585.50985 
L 349.104054 583.39362 
L 351.920839 582.540566 
L 354.737624 580.686814 
L 363.18798 585.493445 
L 366.004765 583.262381 
L 368.821551 583.787337 
L 371.638336 579.89938 
L 374.455121 584.77163 
L 377.271906 583.295191 
L 380.088692 584.952084 
L 382.905477 585.854353 
L 385.722262 582.803044 
L 388.539047 583.344406 
L 391.355833 579.489258 
L 394.172618 576.37233 
L 396.989403 579.144756 
L 399.806188 577.733936 
L 402.622973 580.194668 
L 405.439759 580.752434 
L 408.256544 579.374424 
L 411.073329 578.669014 
L 413.890114 581.178961 
L 416.7069 577.733936 
L 419.523685 584.80444 
L 422.34047 584.706011 
L 425.157255 580.834458 
L 427.974041 581.359415 
L 430.790826 580.752434 
L 433.607611 581.687512 
L 436.424396 582.08123 
L 439.241182 585.083323 
L 442.057967 585.411421 
L 444.874752 582.606186 
L 447.691537 582.491352 
L 450.508323 581.753132 
L 453.325108 582.524161 
L 456.141893 582.803044 
L 458.958678 584.935679 
L 461.775464 586.395714 
L 464.592249 582.245278 
L 467.409034 583.245976 
L 470.225819 580.243883 
L 473.042605 579.440043 
L 475.85939 580.325907 
L 478.676175 585.690304 
L 481.49296 584.919274 
L 484.309746 580.440741 
L 487.126531 581.556273 
L 489.943316 579.669712 
L 492.760101 575.634111 
L 495.576887 576.191877 
L 498.393672 584.000601 
L 501.210457 583.42643 
L 504.027242 578.619799 
L 506.844028 577.78315 
L 509.660813 574.206886 
L 512.477598 574.731842 
L 515.294383 573.337427 
L 518.111168 585.066918 
L 520.927954 580.654005 
L 523.744739 574.584198 
L 526.561524 576.848072 
L 529.378309 571.860988 
L 532.195095 570.187689 
L 535.01188 570.597812 
L 537.828665 579.89938 
L 540.64545 581.851561 
L 543.462236 573.156973 
L 546.279021 568.891704 
L 549.095806 565.299034 
L 551.912591 565.233415 
L 554.729377 565.791181 
L 557.546162 578.751038 
L 560.362947 579.800951 
L 563.179732 566.201303 
L 565.996518 564.232717 
L 568.813303 561.000955 
L 571.630088 565.594322 
L 574.446873 555.636558 
L 577.263659 576.175472 
L 580.080444 577.340218 
L 582.897229 568.03865 
L 585.714014 563.149995 
L 588.5308 564.281932 
L 591.347585 563.232019 
L 594.16437 564.741268 
L 596.981155 576.126257 
L 599.797941 578.997112 
L 602.614726 569.022943 
L 605.431511 568.399557 
L 608.248296 567.497289 
L 611.065082 565.167795 
L 613.881867 566.398162 
L 616.698652 572.796066 
L 619.515437 575.650515 
L 622.332222 564.413171 
L 625.149008 569.711948 
L 627.965793 557.966052 
L 630.782578 564.659244 
L 633.599363 562.264131 
L 636.416149 573.452261 
L 639.232934 573.796764 
L 644.866504 557.818408 
L 647.68329 553.011777 
L 650.500075 557.572335 
L 653.31686 551.322074 
L 656.133645 566.939523 
L 658.950431 573.878788 
L 661.767216 559.130798 
L 664.584001 559.983852 
L 667.400786 553.848426 
L 670.217572 553.684377 
L 673.034357 547.877049 
L 675.851142 565.873205 
L 678.667927 569.44947 
L 681.484713 554.73429 
L 684.301498 559.508111 
L 687.118283 547.942668 
L 689.935068 545.153838 
L 692.751854 546.958375 
L 695.568639 551.617362 
L 698.385424 566.332542 
L 701.202209 545.711604 
L 704.018995 542.611082 
L 706.83578 522.433076 
L 709.652565 514.919639 
L 712.46935 511.556638 
L 715.286136 531.865883 
L 718.102921 548.533244 
L 720.919706 521.383163 
L 723.736491 504.814232 
L 726.553277 480.108478 
L 729.370062 468.69068 
L 732.186847 460.553858 
L 735.003632 497.35001 
L 737.820417 518.052972 
L 740.637203 476.335355 
L 743.453988 464.409005 
L 746.270773 403.842178 
L 749.087558 404.580398 
L 751.904344 347.622645 
L 754.721129 405.66312 
L 757.537914 446.527683 
L 760.354699 401.840782 
L 763.171485 343.521424 
L 765.98827 313.828586 
L 768.805055 282.544474 
L 771.62184 276.343429 
L 774.438626 356.432067 
L 777.255411 390.554223 
L 780.072196 337.156329 
L 782.888981 306.610438 
L 785.705767 261.070483 
L 788.522552 236.200681 
L 791.339337 205.146237 
L 794.156122 326.247082 
L 796.972908 369.785641 
L 799.789693 337.484427 
L 802.606478 285.727022 
L 805.423263 230.294923 
L 808.240049 202.800339 
L 811.056834 220.534017 
L 813.873619 310.990541 
L 816.690404 411.437639 
L 819.50719 352.462085 
L 822.323975 300.917943 
L 825.14076 218.106095 
L 827.957545 201.061422 
L 830.774331 212.282361 
L 833.591116 330.77483 
L 836.407901 410.781443 
L 839.224686 366.652309 
L 842.041472 283.331909 
L 844.858257 223.70016 
L 847.675042 214.874333 
L 850.491827 233.100158 
L 853.308612 349.312347 
L 856.125398 405.777954 
L 858.942183 365.832064 
L 861.758968 305.691764 
L 864.575753 227.342044 
L 867.392539 204.325993 
L 870.209324 206.475033 
L 875.842894 386.699075 
L 878.65968 358.449867 
L 881.476465 247.536455 
L 884.29325 200.55287 
L 887.110035 98.908216 
L 889.926821 122.482033 
L 892.743606 257.625457 
L 895.560391 320.587398 
L 898.377176 352.248821 
L 901.193962 134.1295 
L 904.010747 147.33543 
L 906.827532 34.896364 
L 909.644317 75.531258 
L 912.461103 215.448504 
L 915.277888 315.977626 
L 918.094673 268.649539 
L 920.911458 183.14729 
L 923.728244 60.848888 
L 926.545029 170.138217 
L 929.361814 351.871509 
L 932.178599 363.354927 
L 934.995385 408.944096 
L 937.81217 377.512341 
L 940.628955 220.566827 
L 943.44574 54.992345 
L 946.262526 212.938557 
L 949.079311 380.826127 
L 951.896096 419.787724 
L 954.712881 427.465209 
L 957.529667 393.835199 
L 960.346452 240.613594 
L 963.163237 156.062828 
L 965.980022 66.524978 
L 968.796807 183.901914 
L 971.613593 310.678848 
L 974.430378 384.320367 
L 977.247163 378.98878 
L 980.063948 267.468387 
L 982.880734 176.191619 
L 985.697519 222.059672 
L 988.514304 282.593689 
L 991.331089 361.271507 
L 994.147875 471.856822 
L 996.96466 402.496977 
L 1002.59823 254.377291 
L 1005.415016 295.980073 
L 1008.231801 319.685129 
L 1011.048586 387.929442 
L 1013.865371 478.615634 
L 1016.682157 483.815982 
L 1019.498942 372.426827 
L 1022.315727 301.114802 
L 1025.132512 358.974823 
L 1027.949298 386.879529 
L 1030.766083 405.400642 
L 1033.582868 497.005507 
L 1036.399653 488.704637 
L 1039.216439 429.794702 
L 1042.033224 355.874301 
L 1044.850009 377.249863 
L 1047.666794 416.998894 
L 1050.48358 447.65962 
L 1050.48358 447.65962 
" style="fill:none;stroke:#000000;stroke-dasharray:1.5,2.475;stroke-dashoffset:0;stroke-width:1.5;"/>
   </g>
   <g id="patch_7">
    <path d="M 30.103125 616.52 
L 30.103125 7.2 
" style="fill:none;stroke:#ffffff;stroke-linecap:square;stroke-linejoin:miter;"/>
   </g>
   <g id="patch_8">
    <path d="M 1099.073125 616.52 
L 1099.073125 7.2 
" style="fill:none;stroke:#ffffff;stroke-linecap:square;stroke-linejoin:miter;"/>
   </g>
   <g id="patch_9">
    <path d="M 30.103125 616.52 
L 1099.073125 616.52 
" style="fill:none;stroke:#ffffff;stroke-linecap:square;stroke-linejoin:miter;"/>
   </g>
   <g id="patch_10">
    <path d="M 30.103125 7.2 
L 1099.073125 7.2 
" style="fill:none;stroke:#ffffff;stroke-linecap:square;stroke-linejoin:miter;"/>
   </g>
   <g id="legend_1">
    <g id="patch_11">
     <path d="M 37.103125 103.26875 
L 194.298438 103.26875 
Q 196.298438 103.26875 196.298438 101.26875 
L 196.298438 14.2 
Q 196.298438 12.2 194.298438 12.2 
L 37.103125 12.2 
Q 35.103125 12.2 35.103125 14.2 
L 35.103125 101.26875 
Q 35.103125 103.26875 37.103125 103.26875 
z
" style="fill:#e5e5e5;opacity:0.8;stroke:#cccccc;stroke-linejoin:miter;stroke-width:0.5;"/>
    </g>
    <g id="line2d_52">
     <path d="M 39.103125 20.298437 
L 59.103125 20.298437 
" style="fill:none;stroke:#e24a33;stroke-linecap:square;stroke-width:1.5;"/>
    </g>
    <g id="line2d_53"/>
    <g id="text_23">
     <!-- Logistic rate rolling week -->
     <g transform="translate(67.103125 23.798437)scale(0.1 -0.1)">
      <defs>
       <path d="M 9.8125 72.90625 
L 19.671875 72.90625 
L 19.671875 8.296875 
L 55.171875 8.296875 
L 55.171875 0 
L 9.8125 0 
z
" id="DejaVuSans-76"/>
       <path d="M 30.609375 48.390625 
Q 23.390625 48.390625 19.1875 42.75 
Q 14.984375 37.109375 14.984375 27.296875 
Q 14.984375 17.484375 19.15625 11.84375 
Q 23.34375 6.203125 30.609375 6.203125 
Q 37.796875 6.203125 41.984375 11.859375 
Q 46.1875 17.53125 46.1875 27.296875 
Q 46.1875 37.015625 41.984375 42.703125 
Q 37.796875 48.390625 30.609375 48.390625 
z
M 30.609375 56 
Q 42.328125 56 49.015625 48.375 
Q 55.71875 40.765625 55.71875 27.296875 
Q 55.71875 13.875 49.015625 6.21875 
Q 42.328125 -1.421875 30.609375 -1.421875 
Q 18.84375 -1.421875 12.171875 6.21875 
Q 5.515625 13.875 5.515625 27.296875 
Q 5.515625 40.765625 12.171875 48.375 
Q 18.84375 56 30.609375 56 
z
" id="DejaVuSans-111"/>
       <path d="M 45.40625 27.984375 
Q 45.40625 37.75 41.375 43.109375 
Q 37.359375 48.484375 30.078125 48.484375 
Q 22.859375 48.484375 18.828125 43.109375 
Q 14.796875 37.75 14.796875 27.984375 
Q 14.796875 18.265625 18.828125 12.890625 
Q 22.859375 7.515625 30.078125 7.515625 
Q 37.359375 7.515625 41.375 12.890625 
Q 45.40625 18.265625 45.40625 27.984375 
z
M 54.390625 6.78125 
Q 54.390625 -7.171875 48.1875 -13.984375 
Q 42 -20.796875 29.203125 -20.796875 
Q 24.46875 -20.796875 20.265625 -20.09375 
Q 16.0625 -19.390625 12.109375 -17.921875 
L 12.109375 -9.1875 
Q 16.0625 -11.328125 19.921875 -12.34375 
Q 23.78125 -13.375 27.78125 -13.375 
Q 36.625 -13.375 41.015625 -8.765625 
Q 45.40625 -4.15625 45.40625 5.171875 
L 45.40625 9.625 
Q 42.625 4.78125 38.28125 2.390625 
Q 33.9375 0 27.875 0 
Q 17.828125 0 11.671875 7.65625 
Q 5.515625 15.328125 5.515625 27.984375 
Q 5.515625 40.671875 11.671875 48.328125 
Q 17.828125 56 27.875 56 
Q 33.9375 56 38.28125 53.609375 
Q 42.625 51.21875 45.40625 46.390625 
L 45.40625 54.6875 
L 54.390625 54.6875 
z
" id="DejaVuSans-103"/>
       <path d="M 9.421875 54.6875 
L 18.40625 54.6875 
L 18.40625 0 
L 9.421875 0 
z
M 9.421875 75.984375 
L 18.40625 75.984375 
L 18.40625 64.59375 
L 9.421875 64.59375 
z
" id="DejaVuSans-105"/>
       <path d="M 44.28125 53.078125 
L 44.28125 44.578125 
Q 40.484375 46.53125 36.375 47.5 
Q 32.28125 48.484375 27.875 48.484375 
Q 21.1875 48.484375 17.84375 46.4375 
Q 14.5 44.390625 14.5 40.28125 
Q 14.5 37.15625 16.890625 35.375 
Q 19.28125 33.59375 26.515625 31.984375 
L 29.59375 31.296875 
Q 39.15625 29.25 43.1875 25.515625 
Q 47.21875 21.78125 47.21875 15.09375 
Q 47.21875 7.46875 41.1875 3.015625 
Q 35.15625 -1.421875 24.609375 -1.421875 
Q 20.21875 -1.421875 15.453125 -0.5625 
Q 10.6875 0.296875 5.421875 2 
L 5.421875 11.28125 
Q 10.40625 8.6875 15.234375 7.390625 
Q 20.0625 6.109375 24.8125 6.109375 
Q 31.15625 6.109375 34.5625 8.28125 
Q 37.984375 10.453125 37.984375 14.40625 
Q 37.984375 18.0625 35.515625 20.015625 
Q 33.0625 21.96875 24.703125 23.78125 
L 21.578125 24.515625 
Q 13.234375 26.265625 9.515625 29.90625 
Q 5.8125 33.546875 5.8125 39.890625 
Q 5.8125 47.609375 11.28125 51.796875 
Q 16.75 56 26.8125 56 
Q 31.78125 56 36.171875 55.265625 
Q 40.578125 54.546875 44.28125 53.078125 
z
" id="DejaVuSans-115"/>
       <path d="M 18.3125 70.21875 
L 18.3125 54.6875 
L 36.8125 54.6875 
L 36.8125 47.703125 
L 18.3125 47.703125 
L 18.3125 18.015625 
Q 18.3125 11.328125 20.140625 9.421875 
Q 21.96875 7.515625 27.59375 7.515625 
L 36.8125 7.515625 
L 36.8125 0 
L 27.59375 0 
Q 17.1875 0 13.234375 3.875 
Q 9.28125 7.765625 9.28125 18.015625 
L 9.28125 47.703125 
L 2.6875 47.703125 
L 2.6875 54.6875 
L 9.28125 54.6875 
L 9.28125 70.21875 
z
" id="DejaVuSans-116"/>
       <path d="M 48.78125 52.59375 
L 48.78125 44.1875 
Q 44.96875 46.296875 41.140625 47.34375 
Q 37.3125 48.390625 33.40625 48.390625 
Q 24.65625 48.390625 19.8125 42.84375 
Q 14.984375 37.3125 14.984375 27.296875 
Q 14.984375 17.28125 19.8125 11.734375 
Q 24.65625 6.203125 33.40625 6.203125 
Q 37.3125 6.203125 41.140625 7.25 
Q 44.96875 8.296875 48.78125 10.40625 
L 48.78125 2.09375 
Q 45.015625 0.34375 40.984375 -0.53125 
Q 36.96875 -1.421875 32.421875 -1.421875 
Q 20.0625 -1.421875 12.78125 6.34375 
Q 5.515625 14.109375 5.515625 27.296875 
Q 5.515625 40.671875 12.859375 48.328125 
Q 20.21875 56 33.015625 56 
Q 37.15625 56 41.109375 55.140625 
Q 45.0625 54.296875 48.78125 52.59375 
z
" id="DejaVuSans-99"/>
       <path id="DejaVuSans-32"/>
       <path d="M 41.109375 46.296875 
Q 39.59375 47.171875 37.8125 47.578125 
Q 36.03125 48 33.890625 48 
Q 26.265625 48 22.1875 43.046875 
Q 18.109375 38.09375 18.109375 28.8125 
L 18.109375 0 
L 9.078125 0 
L 9.078125 54.6875 
L 18.109375 54.6875 
L 18.109375 46.1875 
Q 20.953125 51.171875 25.484375 53.578125 
Q 30.03125 56 36.53125 56 
Q 37.453125 56 38.578125 55.875 
Q 39.703125 55.765625 41.0625 55.515625 
z
" id="DejaVuSans-114"/>
       <path d="M 34.28125 27.484375 
Q 23.390625 27.484375 19.1875 25 
Q 14.984375 22.515625 14.984375 16.5 
Q 14.984375 11.71875 18.140625 8.90625 
Q 21.296875 6.109375 26.703125 6.109375 
Q 34.1875 6.109375 38.703125 11.40625 
Q 43.21875 16.703125 43.21875 25.484375 
L 43.21875 27.484375 
z
M 52.203125 31.203125 
L 52.203125 0 
L 43.21875 0 
L 43.21875 8.296875 
Q 40.140625 3.328125 35.546875 0.953125 
Q 30.953125 -1.421875 24.3125 -1.421875 
Q 15.921875 -1.421875 10.953125 3.296875 
Q 6 8.015625 6 15.921875 
Q 6 25.140625 12.171875 29.828125 
Q 18.359375 34.515625 30.609375 34.515625 
L 43.21875 34.515625 
L 43.21875 35.40625 
Q 43.21875 41.609375 39.140625 45 
Q 35.0625 48.390625 27.6875 48.390625 
Q 23 48.390625 18.546875 47.265625 
Q 14.109375 46.140625 10.015625 43.890625 
L 10.015625 52.203125 
Q 14.9375 54.109375 19.578125 55.046875 
Q 24.21875 56 28.609375 56 
Q 40.484375 56 46.34375 49.84375 
Q 52.203125 43.703125 52.203125 31.203125 
z
" id="DejaVuSans-97"/>
       <path d="M 56.203125 29.59375 
L 56.203125 25.203125 
L 14.890625 25.203125 
Q 15.484375 15.921875 20.484375 11.0625 
Q 25.484375 6.203125 34.421875 6.203125 
Q 39.59375 6.203125 44.453125 7.46875 
Q 49.3125 8.734375 54.109375 11.28125 
L 54.109375 2.78125 
Q 49.265625 0.734375 44.1875 -0.34375 
Q 39.109375 -1.421875 33.890625 -1.421875 
Q 20.796875 -1.421875 13.15625 6.1875 
Q 5.515625 13.8125 5.515625 26.8125 
Q 5.515625 40.234375 12.765625 48.109375 
Q 20.015625 56 32.328125 56 
Q 43.359375 56 49.78125 48.890625 
Q 56.203125 41.796875 56.203125 29.59375 
z
M 47.21875 32.234375 
Q 47.125 39.59375 43.09375 43.984375 
Q 39.0625 48.390625 32.421875 48.390625 
Q 24.90625 48.390625 20.390625 44.140625 
Q 15.875 39.890625 15.1875 32.171875 
z
" id="DejaVuSans-101"/>
       <path d="M 9.421875 75.984375 
L 18.40625 75.984375 
L 18.40625 0 
L 9.421875 0 
z
" id="DejaVuSans-108"/>
       <path d="M 54.890625 33.015625 
L 54.890625 0 
L 45.90625 0 
L 45.90625 32.71875 
Q 45.90625 40.484375 42.875 44.328125 
Q 39.84375 48.1875 33.796875 48.1875 
Q 26.515625 48.1875 22.3125 43.546875 
Q 18.109375 38.921875 18.109375 30.90625 
L 18.109375 0 
L 9.078125 0 
L 9.078125 54.6875 
L 18.109375 54.6875 
L 18.109375 46.1875 
Q 21.34375 51.125 25.703125 53.5625 
Q 30.078125 56 35.796875 56 
Q 45.21875 56 50.046875 50.171875 
Q 54.890625 44.34375 54.890625 33.015625 
z
" id="DejaVuSans-110"/>
       <path d="M 4.203125 54.6875 
L 13.1875 54.6875 
L 24.421875 12.015625 
L 35.59375 54.6875 
L 46.1875 54.6875 
L 57.421875 12.015625 
L 68.609375 54.6875 
L 77.59375 54.6875 
L 63.28125 0 
L 52.6875 0 
L 40.921875 44.828125 
L 29.109375 0 
L 18.5 0 
z
" id="DejaVuSans-119"/>
       <path d="M 9.078125 75.984375 
L 18.109375 75.984375 
L 18.109375 31.109375 
L 44.921875 54.6875 
L 56.390625 54.6875 
L 27.390625 29.109375 
L 57.625 0 
L 45.90625 0 
L 18.109375 26.703125 
L 18.109375 0 
L 9.078125 0 
z
" id="DejaVuSans-107"/>
      </defs>
      <use xlink:href="#DejaVuSans-76"/>
      <use x="53.962891" xlink:href="#DejaVuSans-111"/>
      <use x="115.144531" xlink:href="#DejaVuSans-103"/>
      <use x="178.621094" xlink:href="#DejaVuSans-105"/>
      <use x="206.404297" xlink:href="#DejaVuSans-115"/>
      <use x="258.503906" xlink:href="#DejaVuSans-116"/>
      <use x="297.712891" xlink:href="#DejaVuSans-105"/>
      <use x="325.496094" xlink:href="#DejaVuSans-99"/>
      <use x="380.476562" xlink:href="#DejaVuSans-32"/>
      <use x="412.263672" xlink:href="#DejaVuSans-114"/>
      <use x="453.376953" xlink:href="#DejaVuSans-97"/>
      <use x="514.65625" xlink:href="#DejaVuSans-116"/>
      <use x="553.865234" xlink:href="#DejaVuSans-101"/>
      <use x="615.388672" xlink:href="#DejaVuSans-32"/>
      <use x="647.175781" xlink:href="#DejaVuSans-114"/>
      <use x="686.039062" xlink:href="#DejaVuSans-111"/>
      <use x="747.220703" xlink:href="#DejaVuSans-108"/>
      <use x="775.003906" xlink:href="#DejaVuSans-108"/>
      <use x="802.787109" xlink:href="#DejaVuSans-105"/>
      <use x="830.570312" xlink:href="#DejaVuSans-110"/>
      <use x="893.949219" xlink:href="#DejaVuSans-103"/>
      <use x="957.425781" xlink:href="#DejaVuSans-32"/>
      <use x="989.212891" xlink:href="#DejaVuSans-119"/>
      <use x="1071" xlink:href="#DejaVuSans-101"/>
      <use x="1132.523438" xlink:href="#DejaVuSans-101"/>
      <use x="1194.046875" xlink:href="#DejaVuSans-107"/>
     </g>
    </g>
    <g id="line2d_54">
     <path d="M 39.103125 34.976562 
L 59.103125 34.976562 
" style="fill:none;stroke:#e24a33;stroke-dasharray:1.5,2.475;stroke-dashoffset:0;stroke-width:1.5;"/>
    </g>
    <g id="line2d_55"/>
    <g id="text_24">
     <!-- Logistic rate -->
     <g transform="translate(67.103125 38.476562)scale(0.1 -0.1)">
      <use xlink:href="#DejaVuSans-76"/>
      <use x="53.962891" xlink:href="#DejaVuSans-111"/>
      <use x="115.144531" xlink:href="#DejaVuSans-103"/>
      <use x="178.621094" xlink:href="#DejaVuSans-105"/>
      <use x="206.404297" xlink:href="#DejaVuSans-115"/>
      <use x="258.503906" xlink:href="#DejaVuSans-116"/>
      <use x="297.712891" xlink:href="#DejaVuSans-105"/>
      <use x="325.496094" xlink:href="#DejaVuSans-99"/>
      <use x="380.476562" xlink:href="#DejaVuSans-32"/>
      <use x="412.263672" xlink:href="#DejaVuSans-114"/>
      <use x="453.376953" xlink:href="#DejaVuSans-97"/>
      <use x="514.65625" xlink:href="#DejaVuSans-116"/>
      <use x="553.865234" xlink:href="#DejaVuSans-101"/>
     </g>
    </g>
    <g id="line2d_56">
     <path d="M 39.103125 49.654687 
L 59.103125 49.654687 
" style="fill:none;stroke:#348abd;stroke-linecap:square;stroke-width:1.5;"/>
    </g>
    <g id="line2d_57"/>
    <g id="text_25">
     <!-- RKI rate rolling week -->
     <g transform="translate(67.103125 53.154687)scale(0.1 -0.1)">
      <defs>
       <path d="M 44.390625 34.1875 
Q 47.5625 33.109375 50.5625 29.59375 
Q 53.5625 26.078125 56.59375 19.921875 
L 66.609375 0 
L 56 0 
L 46.6875 18.703125 
Q 43.0625 26.03125 39.671875 28.421875 
Q 36.28125 30.8125 30.421875 30.8125 
L 19.671875 30.8125 
L 19.671875 0 
L 9.8125 0 
L 9.8125 72.90625 
L 32.078125 72.90625 
Q 44.578125 72.90625 50.734375 67.671875 
Q 56.890625 62.453125 56.890625 51.90625 
Q 56.890625 45.015625 53.6875 40.46875 
Q 50.484375 35.9375 44.390625 34.1875 
z
M 19.671875 64.796875 
L 19.671875 38.921875 
L 32.078125 38.921875 
Q 39.203125 38.921875 42.84375 42.21875 
Q 46.484375 45.515625 46.484375 51.90625 
Q 46.484375 58.296875 42.84375 61.546875 
Q 39.203125 64.796875 32.078125 64.796875 
z
" id="DejaVuSans-82"/>
       <path d="M 9.8125 72.90625 
L 19.671875 72.90625 
L 19.671875 42.09375 
L 52.390625 72.90625 
L 65.09375 72.90625 
L 28.90625 38.921875 
L 67.671875 0 
L 54.6875 0 
L 19.671875 35.109375 
L 19.671875 0 
L 9.8125 0 
z
" id="DejaVuSans-75"/>
       <path d="M 9.8125 72.90625 
L 19.671875 72.90625 
L 19.671875 0 
L 9.8125 0 
z
" id="DejaVuSans-73"/>
      </defs>
      <use xlink:href="#DejaVuSans-82"/>
      <use x="69.482422" xlink:href="#DejaVuSans-75"/>
      <use x="135.058594" xlink:href="#DejaVuSans-73"/>
      <use x="164.550781" xlink:href="#DejaVuSans-32"/>
      <use x="196.337891" xlink:href="#DejaVuSans-114"/>
      <use x="237.451172" xlink:href="#DejaVuSans-97"/>
      <use x="298.730469" xlink:href="#DejaVuSans-116"/>
      <use x="337.939453" xlink:href="#DejaVuSans-101"/>
      <use x="399.462891" xlink:href="#DejaVuSans-32"/>
      <use x="431.25" xlink:href="#DejaVuSans-114"/>
      <use x="470.113281" xlink:href="#DejaVuSans-111"/>
      <use x="531.294922" xlink:href="#DejaVuSans-108"/>
      <use x="559.078125" xlink:href="#DejaVuSans-108"/>
      <use x="586.861328" xlink:href="#DejaVuSans-105"/>
      <use x="614.644531" xlink:href="#DejaVuSans-110"/>
      <use x="678.023438" xlink:href="#DejaVuSans-103"/>
      <use x="741.5" xlink:href="#DejaVuSans-32"/>
      <use x="773.287109" xlink:href="#DejaVuSans-119"/>
      <use x="855.074219" xlink:href="#DejaVuSans-101"/>
      <use x="916.597656" xlink:href="#DejaVuSans-101"/>
      <use x="978.121094" xlink:href="#DejaVuSans-107"/>
     </g>
    </g>
    <g id="line2d_58">
     <path d="M 39.103125 64.332812 
L 59.103125 64.332812 
" style="fill:none;stroke:#348abd;stroke-dasharray:1.5,2.475;stroke-dashoffset:0;stroke-width:1.5;"/>
    </g>
    <g id="line2d_59"/>
    <g id="text_26">
     <!-- RKI rate -->
     <g transform="translate(67.103125 67.832812)scale(0.1 -0.1)">
      <use xlink:href="#DejaVuSans-82"/>
      <use x="69.482422" xlink:href="#DejaVuSans-75"/>
      <use x="135.058594" xlink:href="#DejaVuSans-73"/>
      <use x="164.550781" xlink:href="#DejaVuSans-32"/>
      <use x="196.337891" xlink:href="#DejaVuSans-114"/>
      <use x="237.451172" xlink:href="#DejaVuSans-97"/>
      <use x="298.730469" xlink:href="#DejaVuSans-116"/>
      <use x="337.939453" xlink:href="#DejaVuSans-101"/>
     </g>
    </g>
    <g id="line2d_60">
     <path d="M 39.103125 79.010937 
L 59.103125 79.010937 
" style="fill:none;stroke:#000000;stroke-linecap:square;stroke-width:1.5;"/>
    </g>
    <g id="line2d_61"/>
    <g id="text_27">
     <!-- New Cases rolling week -->
     <g transform="translate(67.103125 82.510937)scale(0.1 -0.1)">
      <defs>
       <path d="M 9.8125 72.90625 
L 23.09375 72.90625 
L 55.421875 11.921875 
L 55.421875 72.90625 
L 64.984375 72.90625 
L 64.984375 0 
L 51.703125 0 
L 19.390625 60.984375 
L 19.390625 0 
L 9.8125 0 
z
" id="DejaVuSans-78"/>
       <path d="M 64.40625 67.28125 
L 64.40625 56.890625 
Q 59.421875 61.53125 53.78125 63.8125 
Q 48.140625 66.109375 41.796875 66.109375 
Q 29.296875 66.109375 22.65625 58.46875 
Q 16.015625 50.828125 16.015625 36.375 
Q 16.015625 21.96875 22.65625 14.328125 
Q 29.296875 6.6875 41.796875 6.6875 
Q 48.140625 6.6875 53.78125 8.984375 
Q 59.421875 11.28125 64.40625 15.921875 
L 64.40625 5.609375 
Q 59.234375 2.09375 53.4375 0.328125 
Q 47.65625 -1.421875 41.21875 -1.421875 
Q 24.65625 -1.421875 15.125 8.703125 
Q 5.609375 18.84375 5.609375 36.375 
Q 5.609375 53.953125 15.125 64.078125 
Q 24.65625 74.21875 41.21875 74.21875 
Q 47.75 74.21875 53.53125 72.484375 
Q 59.328125 70.75 64.40625 67.28125 
z
" id="DejaVuSans-67"/>
      </defs>
      <use xlink:href="#DejaVuSans-78"/>
      <use x="74.804688" xlink:href="#DejaVuSans-101"/>
      <use x="136.328125" xlink:href="#DejaVuSans-119"/>
      <use x="218.115234" xlink:href="#DejaVuSans-32"/>
      <use x="249.902344" xlink:href="#DejaVuSans-67"/>
      <use x="319.726562" xlink:href="#DejaVuSans-97"/>
      <use x="381.005859" xlink:href="#DejaVuSans-115"/>
      <use x="433.105469" xlink:href="#DejaVuSans-101"/>
      <use x="494.628906" xlink:href="#DejaVuSans-115"/>
      <use x="546.728516" xlink:href="#DejaVuSans-32"/>
      <use x="578.515625" xlink:href="#DejaVuSans-114"/>
      <use x="617.378906" xlink:href="#DejaVuSans-111"/>
      <use x="678.560547" xlink:href="#DejaVuSans-108"/>
      <use x="706.34375" xlink:href="#DejaVuSans-108"/>
      <use x="734.126953" xlink:href="#DejaVuSans-105"/>
      <use x="761.910156" xlink:href="#DejaVuSans-110"/>
      <use x="825.289062" xlink:href="#DejaVuSans-103"/>
      <use x="888.765625" xlink:href="#DejaVuSans-32"/>
      <use x="920.552734" xlink:href="#DejaVuSans-119"/>
      <use x="1002.339844" xlink:href="#DejaVuSans-101"/>
      <use x="1063.863281" xlink:href="#DejaVuSans-101"/>
      <use x="1125.386719" xlink:href="#DejaVuSans-107"/>
     </g>
    </g>
    <g id="line2d_62">
     <path d="M 39.103125 93.689062 
L 59.103125 93.689062 
" style="fill:none;stroke:#000000;stroke-dasharray:1.5,2.475;stroke-dashoffset:0;stroke-width:1.5;"/>
    </g>
    <g id="line2d_63"/>
    <g id="text_28">
     <!-- New Cases -->
     <g transform="translate(67.103125 97.189062)scale(0.1 -0.1)">
      <use xlink:href="#DejaVuSans-78"/>
      <use x="74.804688" xlink:href="#DejaVuSans-101"/>
      <use x="136.328125" xlink:href="#DejaVuSans-119"/>
      <use x="218.115234" xlink:href="#DejaVuSans-32"/>
      <use x="249.902344" xlink:href="#DejaVuSans-67"/>
      <use x="319.726562" xlink:href="#DejaVuSans-97"/>
      <use x="381.005859" xlink:href="#DejaVuSans-115"/>
      <use x="433.105469" xlink:href="#DejaVuSans-101"/>
      <use x="494.628906" xlink:href="#DejaVuSans-115"/>
     </g>
    </g>
   </g>
  </g>
 </g>
 <defs>
  <clipPath id="p76676ce7ef">
   <rect height="609.32" width="1068.97" x="30.103125" y="7.2"/>
  </clipPath>
 </defs>
</svg>
