<?xml version="1.0" encoding="utf-8" standalone="no"?>
<!DOCTYPE svg PUBLIC "-//W3C//DTD SVG 1.1//EN"
  "http://www.w3.org/Graphics/SVG/1.1/DTD/svg11.dtd">
<!-- Created with matplotlib (https://matplotlib.org/) -->
<svg height="640.398125pt" version="1.1" viewBox="0 0 1145.085625 640.398125" width="1145.085625pt" xmlns="http://www.w3.org/2000/svg" xmlns:xlink="http://www.w3.org/1999/xlink">
 <metadata>
  <rdf:RDF xmlns:cc="http://creativecommons.org/ns#" xmlns:dc="http://purl.org/dc/elements/1.1/" xmlns:rdf="http://www.w3.org/1999/02/22-rdf-syntax-ns#">
   <cc:Work>
    <dc:type rdf:resource="http://purl.org/dc/dcmitype/StillImage"/>
    <dc:date>2021-03-04T09:01:49.219444</dc:date>
    <dc:format>image/svg+xml</dc:format>
    <dc:creator>
     <cc:Agent>
      <dc:title>Matplotlib v3.3.2, https://matplotlib.org/</dc:title>
     </cc:Agent>
    </dc:creator>
   </cc:Work>
  </rdf:RDF>
 </metadata>
 <defs>
  <style type="text/css">*{stroke-linecap:butt;stroke-linejoin:round;}</style>
 </defs>
 <g id="figure_1">
  <g id="patch_1">
   <path d="M 0 640.398125 
L 1145.085625 640.398125 
L 1145.085625 0 
L 0 0 
z
" style="fill:#ffffff;"/>
  </g>
  <g id="axes_1">
   <g id="patch_2">
    <path d="M 30.103125 616.52 
L 1099.073125 616.52 
L 1099.073125 7.2 
L 30.103125 7.2 
z
" style="fill:#e5e5e5;"/>
   </g>
   <g id="matplotlib.axis_1">
    <g id="xtick_1">
     <g id="line2d_1">
      <path clip-path="url(#pc602dd4efb)" d="M 83.945594 616.52 
L 83.945594 7.2 
" style="fill:none;stroke:#ffffff;stroke-linecap:square;stroke-width:0.8;"/>
     </g>
     <g id="line2d_2">
      <defs>
       <path d="M 0 0 
L 0 3.5 
" id="ma5faf4537e" style="stroke:#555555;stroke-width:0.8;"/>
      </defs>
      <g>
       <use style="fill:#555555;stroke:#555555;stroke-width:0.8;" x="83.945594" xlink:href="#ma5faf4537e" y="616.52"/>
      </g>
     </g>
     <g id="text_1">
      <!-- 2020-03 -->
      <g style="fill:#555555;" transform="translate(63.054188 631.118437)scale(0.1 -0.1)">
       <defs>
        <path d="M 19.1875 8.296875 
L 53.609375 8.296875 
L 53.609375 0 
L 7.328125 0 
L 7.328125 8.296875 
Q 12.9375 14.109375 22.625 23.890625 
Q 32.328125 33.6875 34.8125 36.53125 
Q 39.546875 41.84375 41.421875 45.53125 
Q 43.3125 49.21875 43.3125 52.78125 
Q 43.3125 58.59375 39.234375 62.25 
Q 35.15625 65.921875 28.609375 65.921875 
Q 23.96875 65.921875 18.8125 64.3125 
Q 13.671875 62.703125 7.8125 59.421875 
L 7.8125 69.390625 
Q 13.765625 71.78125 18.9375 73 
Q 24.125 74.21875 28.421875 74.21875 
Q 39.75 74.21875 46.484375 68.546875 
Q 53.21875 62.890625 53.21875 53.421875 
Q 53.21875 48.921875 51.53125 44.890625 
Q 49.859375 40.875 45.40625 35.40625 
Q 44.1875 33.984375 37.640625 27.21875 
Q 31.109375 20.453125 19.1875 8.296875 
z
" id="DejaVuSans-50"/>
        <path d="M 31.78125 66.40625 
Q 24.171875 66.40625 20.328125 58.90625 
Q 16.5 51.421875 16.5 36.375 
Q 16.5 21.390625 20.328125 13.890625 
Q 24.171875 6.390625 31.78125 6.390625 
Q 39.453125 6.390625 43.28125 13.890625 
Q 47.125 21.390625 47.125 36.375 
Q 47.125 51.421875 43.28125 58.90625 
Q 39.453125 66.40625 31.78125 66.40625 
z
M 31.78125 74.21875 
Q 44.046875 74.21875 50.515625 64.515625 
Q 56.984375 54.828125 56.984375 36.375 
Q 56.984375 17.96875 50.515625 8.265625 
Q 44.046875 -1.421875 31.78125 -1.421875 
Q 19.53125 -1.421875 13.0625 8.265625 
Q 6.59375 17.96875 6.59375 36.375 
Q 6.59375 54.828125 13.0625 64.515625 
Q 19.53125 74.21875 31.78125 74.21875 
z
" id="DejaVuSans-48"/>
        <path d="M 4.890625 31.390625 
L 31.203125 31.390625 
L 31.203125 23.390625 
L 4.890625 23.390625 
z
" id="DejaVuSans-45"/>
        <path d="M 40.578125 39.3125 
Q 47.65625 37.796875 51.625 33 
Q 55.609375 28.21875 55.609375 21.1875 
Q 55.609375 10.40625 48.1875 4.484375 
Q 40.765625 -1.421875 27.09375 -1.421875 
Q 22.515625 -1.421875 17.65625 -0.515625 
Q 12.796875 0.390625 7.625 2.203125 
L 7.625 11.71875 
Q 11.71875 9.328125 16.59375 8.109375 
Q 21.484375 6.890625 26.8125 6.890625 
Q 36.078125 6.890625 40.9375 10.546875 
Q 45.796875 14.203125 45.796875 21.1875 
Q 45.796875 27.640625 41.28125 31.265625 
Q 36.765625 34.90625 28.71875 34.90625 
L 20.21875 34.90625 
L 20.21875 43.015625 
L 29.109375 43.015625 
Q 36.375 43.015625 40.234375 45.921875 
Q 44.09375 48.828125 44.09375 54.296875 
Q 44.09375 59.90625 40.109375 62.90625 
Q 36.140625 65.921875 28.71875 65.921875 
Q 24.65625 65.921875 20.015625 65.03125 
Q 15.375 64.15625 9.8125 62.3125 
L 9.8125 71.09375 
Q 15.4375 72.65625 20.34375 73.4375 
Q 25.25 74.21875 29.59375 74.21875 
Q 40.828125 74.21875 47.359375 69.109375 
Q 53.90625 64.015625 53.90625 55.328125 
Q 53.90625 49.265625 50.4375 45.09375 
Q 46.96875 40.921875 40.578125 39.3125 
z
" id="DejaVuSans-51"/>
       </defs>
       <use xlink:href="#DejaVuSans-50"/>
       <use x="63.623047" xlink:href="#DejaVuSans-48"/>
       <use x="127.246094" xlink:href="#DejaVuSans-50"/>
       <use x="190.869141" xlink:href="#DejaVuSans-48"/>
       <use x="254.492188" xlink:href="#DejaVuSans-45"/>
       <use x="290.576172" xlink:href="#DejaVuSans-48"/>
       <use x="354.199219" xlink:href="#DejaVuSans-51"/>
      </g>
     </g>
    </g>
    <g id="xtick_2">
     <g id="line2d_3">
      <path clip-path="url(#pc602dd4efb)" d="M 244.159771 616.52 
L 244.159771 7.2 
" style="fill:none;stroke:#ffffff;stroke-linecap:square;stroke-width:0.8;"/>
     </g>
     <g id="line2d_4">
      <g>
       <use style="fill:#555555;stroke:#555555;stroke-width:0.8;" x="244.159771" xlink:href="#ma5faf4537e" y="616.52"/>
      </g>
     </g>
     <g id="text_2">
      <!-- 2020-05 -->
      <g style="fill:#555555;" transform="translate(223.268365 631.118437)scale(0.1 -0.1)">
       <defs>
        <path d="M 10.796875 72.90625 
L 49.515625 72.90625 
L 49.515625 64.59375 
L 19.828125 64.59375 
L 19.828125 46.734375 
Q 21.96875 47.46875 24.109375 47.828125 
Q 26.265625 48.1875 28.421875 48.1875 
Q 40.625 48.1875 47.75 41.5 
Q 54.890625 34.8125 54.890625 23.390625 
Q 54.890625 11.625 47.5625 5.09375 
Q 40.234375 -1.421875 26.90625 -1.421875 
Q 22.3125 -1.421875 17.546875 -0.640625 
Q 12.796875 0.140625 7.71875 1.703125 
L 7.71875 11.625 
Q 12.109375 9.234375 16.796875 8.0625 
Q 21.484375 6.890625 26.703125 6.890625 
Q 35.15625 6.890625 40.078125 11.328125 
Q 45.015625 15.765625 45.015625 23.390625 
Q 45.015625 31 40.078125 35.4375 
Q 35.15625 39.890625 26.703125 39.890625 
Q 22.75 39.890625 18.8125 39.015625 
Q 14.890625 38.140625 10.796875 36.28125 
z
" id="DejaVuSans-53"/>
       </defs>
       <use xlink:href="#DejaVuSans-50"/>
       <use x="63.623047" xlink:href="#DejaVuSans-48"/>
       <use x="127.246094" xlink:href="#DejaVuSans-50"/>
       <use x="190.869141" xlink:href="#DejaVuSans-48"/>
       <use x="254.492188" xlink:href="#DejaVuSans-45"/>
       <use x="290.576172" xlink:href="#DejaVuSans-48"/>
       <use x="354.199219" xlink:href="#DejaVuSans-53"/>
      </g>
     </g>
    </g>
    <g id="xtick_3">
     <g id="line2d_5">
      <path clip-path="url(#pc602dd4efb)" d="M 404.373948 616.52 
L 404.373948 7.2 
" style="fill:none;stroke:#ffffff;stroke-linecap:square;stroke-width:0.8;"/>
     </g>
     <g id="line2d_6">
      <g>
       <use style="fill:#555555;stroke:#555555;stroke-width:0.8;" x="404.373948" xlink:href="#ma5faf4537e" y="616.52"/>
      </g>
     </g>
     <g id="text_3">
      <!-- 2020-07 -->
      <g style="fill:#555555;" transform="translate(383.482542 631.118437)scale(0.1 -0.1)">
       <defs>
        <path d="M 8.203125 72.90625 
L 55.078125 72.90625 
L 55.078125 68.703125 
L 28.609375 0 
L 18.3125 0 
L 43.21875 64.59375 
L 8.203125 64.59375 
z
" id="DejaVuSans-55"/>
       </defs>
       <use xlink:href="#DejaVuSans-50"/>
       <use x="63.623047" xlink:href="#DejaVuSans-48"/>
       <use x="127.246094" xlink:href="#DejaVuSans-50"/>
       <use x="190.869141" xlink:href="#DejaVuSans-48"/>
       <use x="254.492188" xlink:href="#DejaVuSans-45"/>
       <use x="290.576172" xlink:href="#DejaVuSans-48"/>
       <use x="354.199219" xlink:href="#DejaVuSans-55"/>
      </g>
     </g>
    </g>
    <g id="xtick_4">
     <g id="line2d_7">
      <path clip-path="url(#pc602dd4efb)" d="M 567.214587 616.52 
L 567.214587 7.2 
" style="fill:none;stroke:#ffffff;stroke-linecap:square;stroke-width:0.8;"/>
     </g>
     <g id="line2d_8">
      <g>
       <use style="fill:#555555;stroke:#555555;stroke-width:0.8;" x="567.214587" xlink:href="#ma5faf4537e" y="616.52"/>
      </g>
     </g>
     <g id="text_4">
      <!-- 2020-09 -->
      <g style="fill:#555555;" transform="translate(546.323181 631.118437)scale(0.1 -0.1)">
       <defs>
        <path d="M 10.984375 1.515625 
L 10.984375 10.5 
Q 14.703125 8.734375 18.5 7.8125 
Q 22.3125 6.890625 25.984375 6.890625 
Q 35.75 6.890625 40.890625 13.453125 
Q 46.046875 20.015625 46.78125 33.40625 
Q 43.953125 29.203125 39.59375 26.953125 
Q 35.25 24.703125 29.984375 24.703125 
Q 19.046875 24.703125 12.671875 31.3125 
Q 6.296875 37.9375 6.296875 49.421875 
Q 6.296875 60.640625 12.9375 67.421875 
Q 19.578125 74.21875 30.609375 74.21875 
Q 43.265625 74.21875 49.921875 64.515625 
Q 56.59375 54.828125 56.59375 36.375 
Q 56.59375 19.140625 48.40625 8.859375 
Q 40.234375 -1.421875 26.421875 -1.421875 
Q 22.703125 -1.421875 18.890625 -0.6875 
Q 15.09375 0.046875 10.984375 1.515625 
z
M 30.609375 32.421875 
Q 37.25 32.421875 41.125 36.953125 
Q 45.015625 41.5 45.015625 49.421875 
Q 45.015625 57.28125 41.125 61.84375 
Q 37.25 66.40625 30.609375 66.40625 
Q 23.96875 66.40625 20.09375 61.84375 
Q 16.21875 57.28125 16.21875 49.421875 
Q 16.21875 41.5 20.09375 36.953125 
Q 23.96875 32.421875 30.609375 32.421875 
z
" id="DejaVuSans-57"/>
       </defs>
       <use xlink:href="#DejaVuSans-50"/>
       <use x="63.623047" xlink:href="#DejaVuSans-48"/>
       <use x="127.246094" xlink:href="#DejaVuSans-50"/>
       <use x="190.869141" xlink:href="#DejaVuSans-48"/>
       <use x="254.492188" xlink:href="#DejaVuSans-45"/>
       <use x="290.576172" xlink:href="#DejaVuSans-48"/>
       <use x="354.199219" xlink:href="#DejaVuSans-57"/>
      </g>
     </g>
    </g>
    <g id="xtick_5">
     <g id="line2d_9">
      <path clip-path="url(#pc602dd4efb)" d="M 727.428764 616.52 
L 727.428764 7.2 
" style="fill:none;stroke:#ffffff;stroke-linecap:square;stroke-width:0.8;"/>
     </g>
     <g id="line2d_10">
      <g>
       <use style="fill:#555555;stroke:#555555;stroke-width:0.8;" x="727.428764" xlink:href="#ma5faf4537e" y="616.52"/>
      </g>
     </g>
     <g id="text_5">
      <!-- 2020-11 -->
      <g style="fill:#555555;" transform="translate(706.537358 631.118437)scale(0.1 -0.1)">
       <defs>
        <path d="M 12.40625 8.296875 
L 28.515625 8.296875 
L 28.515625 63.921875 
L 10.984375 60.40625 
L 10.984375 69.390625 
L 28.421875 72.90625 
L 38.28125 72.90625 
L 38.28125 8.296875 
L 54.390625 8.296875 
L 54.390625 0 
L 12.40625 0 
z
" id="DejaVuSans-49"/>
       </defs>
       <use xlink:href="#DejaVuSans-50"/>
       <use x="63.623047" xlink:href="#DejaVuSans-48"/>
       <use x="127.246094" xlink:href="#DejaVuSans-50"/>
       <use x="190.869141" xlink:href="#DejaVuSans-48"/>
       <use x="254.492188" xlink:href="#DejaVuSans-45"/>
       <use x="290.576172" xlink:href="#DejaVuSans-49"/>
       <use x="354.199219" xlink:href="#DejaVuSans-49"/>
      </g>
     </g>
    </g>
    <g id="xtick_6">
     <g id="line2d_11">
      <path clip-path="url(#pc602dd4efb)" d="M 887.642941 616.52 
L 887.642941 7.2 
" style="fill:none;stroke:#ffffff;stroke-linecap:square;stroke-width:0.8;"/>
     </g>
     <g id="line2d_12">
      <g>
       <use style="fill:#555555;stroke:#555555;stroke-width:0.8;" x="887.642941" xlink:href="#ma5faf4537e" y="616.52"/>
      </g>
     </g>
     <g id="text_6">
      <!-- 2021-01 -->
      <g style="fill:#555555;" transform="translate(866.751534 631.118437)scale(0.1 -0.1)">
       <use xlink:href="#DejaVuSans-50"/>
       <use x="63.623047" xlink:href="#DejaVuSans-48"/>
       <use x="127.246094" xlink:href="#DejaVuSans-50"/>
       <use x="190.869141" xlink:href="#DejaVuSans-49"/>
       <use x="254.492188" xlink:href="#DejaVuSans-45"/>
       <use x="290.576172" xlink:href="#DejaVuSans-48"/>
       <use x="354.199219" xlink:href="#DejaVuSans-49"/>
      </g>
     </g>
    </g>
    <g id="xtick_7">
     <g id="line2d_13">
      <path clip-path="url(#pc602dd4efb)" d="M 1042.604194 616.52 
L 1042.604194 7.2 
" style="fill:none;stroke:#ffffff;stroke-linecap:square;stroke-width:0.8;"/>
     </g>
     <g id="line2d_14">
      <g>
       <use style="fill:#555555;stroke:#555555;stroke-width:0.8;" x="1042.604194" xlink:href="#ma5faf4537e" y="616.52"/>
      </g>
     </g>
     <g id="text_7">
      <!-- 2021-03 -->
      <g style="fill:#555555;" transform="translate(1021.712788 631.118437)scale(0.1 -0.1)">
       <use xlink:href="#DejaVuSans-50"/>
       <use x="63.623047" xlink:href="#DejaVuSans-48"/>
       <use x="127.246094" xlink:href="#DejaVuSans-50"/>
       <use x="190.869141" xlink:href="#DejaVuSans-49"/>
       <use x="254.492188" xlink:href="#DejaVuSans-45"/>
       <use x="290.576172" xlink:href="#DejaVuSans-48"/>
       <use x="354.199219" xlink:href="#DejaVuSans-51"/>
      </g>
     </g>
    </g>
   </g>
   <g id="matplotlib.axis_2">
    <g id="ytick_1">
     <g id="line2d_15">
      <path clip-path="url(#pc602dd4efb)" d="M 30.103125 587.741318 
L 1099.073125 587.741318 
" style="fill:none;stroke:#ffffff;stroke-linecap:square;stroke-width:0.8;"/>
     </g>
     <g id="line2d_16">
      <defs>
       <path d="M 0 0 
L -3.5 0 
" id="m4e6e7da9c2" style="stroke:#555555;stroke-width:0.8;"/>
      </defs>
      <g>
       <use style="fill:#555555;stroke:#555555;stroke-width:0.8;" x="30.103125" xlink:href="#m4e6e7da9c2" y="587.741318"/>
      </g>
     </g>
     <g id="text_8">
      <!-- 0.5 -->
      <g style="fill:#555555;" transform="translate(7.2 591.540537)scale(0.1 -0.1)">
       <defs>
        <path d="M 10.6875 12.40625 
L 21 12.40625 
L 21 0 
L 10.6875 0 
z
" id="DejaVuSans-46"/>
       </defs>
       <use xlink:href="#DejaVuSans-48"/>
       <use x="63.623047" xlink:href="#DejaVuSans-46"/>
       <use x="95.410156" xlink:href="#DejaVuSans-53"/>
      </g>
     </g>
    </g>
    <g id="ytick_2">
     <g id="line2d_17">
      <path clip-path="url(#pc602dd4efb)" d="M 30.103125 513.773155 
L 1099.073125 513.773155 
" style="fill:none;stroke:#ffffff;stroke-linecap:square;stroke-width:0.8;"/>
     </g>
     <g id="line2d_18">
      <g>
       <use style="fill:#555555;stroke:#555555;stroke-width:0.8;" x="30.103125" xlink:href="#m4e6e7da9c2" y="513.773155"/>
      </g>
     </g>
     <g id="text_9">
      <!-- 1.0 -->
      <g style="fill:#555555;" transform="translate(7.2 517.572373)scale(0.1 -0.1)">
       <use xlink:href="#DejaVuSans-49"/>
       <use x="63.623047" xlink:href="#DejaVuSans-46"/>
       <use x="95.410156" xlink:href="#DejaVuSans-48"/>
      </g>
     </g>
    </g>
    <g id="ytick_3">
     <g id="line2d_19">
      <path clip-path="url(#pc602dd4efb)" d="M 30.103125 439.804991 
L 1099.073125 439.804991 
" style="fill:none;stroke:#ffffff;stroke-linecap:square;stroke-width:0.8;"/>
     </g>
     <g id="line2d_20">
      <g>
       <use style="fill:#555555;stroke:#555555;stroke-width:0.8;" x="30.103125" xlink:href="#m4e6e7da9c2" y="439.804991"/>
      </g>
     </g>
     <g id="text_10">
      <!-- 1.5 -->
      <g style="fill:#555555;" transform="translate(7.2 443.60421)scale(0.1 -0.1)">
       <use xlink:href="#DejaVuSans-49"/>
       <use x="63.623047" xlink:href="#DejaVuSans-46"/>
       <use x="95.410156" xlink:href="#DejaVuSans-53"/>
      </g>
     </g>
    </g>
    <g id="ytick_4">
     <g id="line2d_21">
      <path clip-path="url(#pc602dd4efb)" d="M 30.103125 365.836827 
L 1099.073125 365.836827 
" style="fill:none;stroke:#ffffff;stroke-linecap:square;stroke-width:0.8;"/>
     </g>
     <g id="line2d_22">
      <g>
       <use style="fill:#555555;stroke:#555555;stroke-width:0.8;" x="30.103125" xlink:href="#m4e6e7da9c2" y="365.836827"/>
      </g>
     </g>
     <g id="text_11">
      <!-- 2.0 -->
      <g style="fill:#555555;" transform="translate(7.2 369.636046)scale(0.1 -0.1)">
       <use xlink:href="#DejaVuSans-50"/>
       <use x="63.623047" xlink:href="#DejaVuSans-46"/>
       <use x="95.410156" xlink:href="#DejaVuSans-48"/>
      </g>
     </g>
    </g>
    <g id="ytick_5">
     <g id="line2d_23">
      <path clip-path="url(#pc602dd4efb)" d="M 30.103125 291.868663 
L 1099.073125 291.868663 
" style="fill:none;stroke:#ffffff;stroke-linecap:square;stroke-width:0.8;"/>
     </g>
     <g id="line2d_24">
      <g>
       <use style="fill:#555555;stroke:#555555;stroke-width:0.8;" x="30.103125" xlink:href="#m4e6e7da9c2" y="291.868663"/>
      </g>
     </g>
     <g id="text_12">
      <!-- 2.5 -->
      <g style="fill:#555555;" transform="translate(7.2 295.667882)scale(0.1 -0.1)">
       <use xlink:href="#DejaVuSans-50"/>
       <use x="63.623047" xlink:href="#DejaVuSans-46"/>
       <use x="95.410156" xlink:href="#DejaVuSans-53"/>
      </g>
     </g>
    </g>
    <g id="ytick_6">
     <g id="line2d_25">
      <path clip-path="url(#pc602dd4efb)" d="M 30.103125 217.900499 
L 1099.073125 217.900499 
" style="fill:none;stroke:#ffffff;stroke-linecap:square;stroke-width:0.8;"/>
     </g>
     <g id="line2d_26">
      <g>
       <use style="fill:#555555;stroke:#555555;stroke-width:0.8;" x="30.103125" xlink:href="#m4e6e7da9c2" y="217.900499"/>
      </g>
     </g>
     <g id="text_13">
      <!-- 3.0 -->
      <g style="fill:#555555;" transform="translate(7.2 221.699718)scale(0.1 -0.1)">
       <use xlink:href="#DejaVuSans-51"/>
       <use x="63.623047" xlink:href="#DejaVuSans-46"/>
       <use x="95.410156" xlink:href="#DejaVuSans-48"/>
      </g>
     </g>
    </g>
    <g id="ytick_7">
     <g id="line2d_27">
      <path clip-path="url(#pc602dd4efb)" d="M 30.103125 143.932336 
L 1099.073125 143.932336 
" style="fill:none;stroke:#ffffff;stroke-linecap:square;stroke-width:0.8;"/>
     </g>
     <g id="line2d_28">
      <g>
       <use style="fill:#555555;stroke:#555555;stroke-width:0.8;" x="30.103125" xlink:href="#m4e6e7da9c2" y="143.932336"/>
      </g>
     </g>
     <g id="text_14">
      <!-- 3.5 -->
      <g style="fill:#555555;" transform="translate(7.2 147.731554)scale(0.1 -0.1)">
       <use xlink:href="#DejaVuSans-51"/>
       <use x="63.623047" xlink:href="#DejaVuSans-46"/>
       <use x="95.410156" xlink:href="#DejaVuSans-53"/>
      </g>
     </g>
    </g>
    <g id="ytick_8">
     <g id="line2d_29">
      <path clip-path="url(#pc602dd4efb)" d="M 30.103125 69.964172 
L 1099.073125 69.964172 
" style="fill:none;stroke:#ffffff;stroke-linecap:square;stroke-width:0.8;"/>
     </g>
     <g id="line2d_30">
      <g>
       <use style="fill:#555555;stroke:#555555;stroke-width:0.8;" x="30.103125" xlink:href="#m4e6e7da9c2" y="69.964172"/>
      </g>
     </g>
     <g id="text_15">
      <!-- 4.0 -->
      <g style="fill:#555555;" transform="translate(7.2 73.763391)scale(0.1 -0.1)">
       <defs>
        <path d="M 37.796875 64.3125 
L 12.890625 25.390625 
L 37.796875 25.390625 
z
M 35.203125 72.90625 
L 47.609375 72.90625 
L 47.609375 25.390625 
L 58.015625 25.390625 
L 58.015625 17.1875 
L 47.609375 17.1875 
L 47.609375 0 
L 37.796875 0 
L 37.796875 17.1875 
L 4.890625 17.1875 
L 4.890625 26.703125 
z
" id="DejaVuSans-52"/>
       </defs>
       <use xlink:href="#DejaVuSans-52"/>
       <use x="63.623047" xlink:href="#DejaVuSans-46"/>
       <use x="95.410156" xlink:href="#DejaVuSans-48"/>
      </g>
     </g>
    </g>
   </g>
   <g id="line2d_31">
    <path clip-path="url(#pc602dd4efb)" d="M 89.198518 114.622911 
L 91.82498 85.358076 
L 94.451442 122.160738 
L 97.077904 104.576897 
L 99.704366 95.992699 
L 102.330828 105.393328 
L 104.95729 124.687859 
L 107.583752 159.979578 
L 110.210213 204.839297 
L 112.836675 215.895658 
L 115.463137 246.205498 
L 118.089599 270.039884 
L 120.716061 277.546135 
L 123.342523 284.08865 
L 125.968985 277.55759 
L 128.595447 273.556615 
L 133.848371 288.756241 
L 136.474833 301.426214 
L 139.101295 318.69324 
L 141.727756 328.755536 
L 144.354218 336.592714 
L 146.98068 342.212958 
L 149.607142 348.78895 
L 152.233604 358.42084 
L 154.860066 370.194256 
L 157.486528 382.963683 
L 162.739452 403.939538 
L 165.365914 414.648465 
L 167.992376 426.529856 
L 170.618838 436.545585 
L 173.245299 444.679654 
L 175.871761 451.092206 
L 178.498223 456.83234 
L 181.124685 461.453048 
L 183.751147 465.317212 
L 186.377609 469.94746 
L 194.256995 482.502524 
L 196.883457 485.891202 
L 199.509919 488.911835 
L 202.136381 491.424622 
L 210.015766 497.46678 
L 212.642228 498.955712 
L 215.26869 500.027552 
L 217.895152 500.657683 
L 225.774538 502.236037 
L 236.280385 505.278784 
L 254.665619 508.998634 
L 259.918543 509.521775 
L 265.171467 509.86288 
L 283.5567 510.475454 
L 291.436086 510.957843 
L 301.941933 511.342215 
L 317.700705 511.855948 
L 322.953629 511.937334 
L 328.206553 511.935989 
L 357.097634 512.303353 
L 370.229943 512.385842 
L 378.109329 512.090501 
L 385.988715 511.658527 
L 391.241639 511.565561 
L 396.494562 511.631318 
L 407.00041 511.968699 
L 443.770877 512.379729 
L 464.782572 512.095128 
L 522.564734 510.617992 
L 543.57643 509.961852 
L 551.455815 509.816445 
L 561.961663 510.019379 
L 582.973358 510.474901 
L 609.237978 510.010449 
L 619.743825 509.524466 
L 624.996749 509.383293 
L 638.129059 509.327836 
L 653.88783 508.990681 
L 661.767216 508.626281 
L 667.02014 508.091964 
L 677.525987 506.463839 
L 682.778911 505.657063 
L 688.031835 504.507438 
L 693.284759 503.391389 
L 701.164145 501.854605 
L 703.790607 501.211105 
L 706.417068 500.378423 
L 714.296454 497.51293 
L 719.549378 495.767398 
L 722.17584 494.885241 
L 724.802302 494.122908 
L 730.055226 493.274921 
L 735.30815 492.993022 
L 737.934611 492.947889 
L 745.813997 493.293253 
L 751.066921 493.650185 
L 758.946307 494.592521 
L 772.078616 496.724893 
L 779.958002 497.930987 
L 785.210926 498.586128 
L 806.222621 500.671249 
L 819.354931 501.464155 
L 827.234317 501.393596 
L 832.48724 501.288925 
L 848.246012 500.443661 
L 856.125398 500.205753 
L 866.631245 500.177082 
L 869.257707 500.331046 
L 874.510631 501.391243 
L 879.763555 502.691743 
L 882.390017 503.085323 
L 887.642941 503.589568 
L 903.401712 504.42207 
L 906.028174 504.463556 
L 911.281098 504.114342 
L 916.534022 503.502597 
L 921.786946 503.429112 
L 927.039869 503.870304 
L 934.919255 504.637227 
L 955.930951 505.793492 
L 976.942646 506.63052 
L 1011.086651 507.611217 
L 1032.098346 507.471371 
L 1050.48358 507.259428 
L 1050.48358 507.259428 
" style="fill:none;stroke:#e24a33;stroke-linecap:square;stroke-width:1.5;"/>
   </g>
   <g id="line2d_32">
    <path clip-path="url(#pc602dd4efb)" d="M 89.198518 114.622911 
L 91.82498 56.093241 
L 94.451442 195.766061 
L 97.077904 51.825374 
L 99.704366 61.65591 
L 104.95729 240.455043 
L 107.583752 361.66495 
L 110.210213 370.111274 
L 112.836675 273.160587 
L 115.463137 263.994252 
L 118.089599 228.496612 
L 120.716061 204.940226 
L 123.342523 286.252647 
L 125.968985 315.947531 
L 128.595447 342.10445 
L 131.221909 325.337835 
L 133.848371 318.214388 
L 136.474833 317.186418 
L 139.101295 325.809411 
L 141.727756 356.688721 
L 144.354218 370.807774 
L 146.98068 381.446156 
L 149.607142 371.36978 
L 154.860066 399.600331 
L 157.486528 415.195403 
L 160.11299 429.369276 
L 162.739452 444.958201 
L 165.365914 456.408643 
L 167.992376 454.539521 
L 170.618838 455.747719 
L 173.245299 456.538814 
L 175.871761 460.083272 
L 178.498223 469.550209 
L 181.124685 477.30316 
L 183.751147 483.457789 
L 186.377609 486.951257 
L 189.004071 485.410501 
L 191.630533 486.043538 
L 194.256995 488.801217 
L 196.883457 493.270953 
L 199.509919 498.447589 
L 202.136381 501.047295 
L 204.762842 501.279114 
L 207.389304 500.510114 
L 210.015766 498.911176 
L 212.642228 499.223742 
L 215.26869 500.773833 
L 217.895152 502.858509 
L 220.521614 504.613547 
L 223.148076 504.8778 
L 225.774538 504.393654 
L 228.401 504.224224 
L 231.027462 504.872041 
L 233.653924 506.342685 
L 236.280385 507.627536 
L 238.906847 508.434435 
L 241.533309 508.737707 
L 244.159771 508.172773 
L 246.786233 508.398597 
L 249.412695 508.919699 
L 252.039157 509.705159 
L 254.665619 510.62207 
L 257.292081 510.635235 
L 265.171467 509.230228 
L 267.797928 509.505241 
L 270.42439 510.362614 
L 273.050852 510.627945 
L 275.677314 511.046009 
L 278.303776 510.820846 
L 280.930238 510.338705 
L 286.183162 510.825042 
L 288.809624 511.34739 
L 291.436086 511.700088 
L 301.941933 511.223578 
L 307.194857 511.931231 
L 309.821319 511.957837 
L 312.447781 512.192631 
L 315.074243 512.259912 
L 317.700705 511.885245 
L 320.327167 511.634257 
L 325.580091 511.719568 
L 330.833014 512.488741 
L 336.085938 512.26044 
L 338.7124 512.103085 
L 341.338862 512.138397 
L 349.218248 512.489995 
L 351.84471 512.285869 
L 357.097634 512.254578 
L 359.724096 512.313124 
L 362.350557 512.606432 
L 370.229943 512.249728 
L 372.856405 511.789955 
L 378.109329 511.346453 
L 380.735791 511.385895 
L 383.362253 511.603342 
L 393.8681 511.580209 
L 399.121024 512.130607 
L 401.747486 512.116758 
L 404.373948 512.290165 
L 409.626872 511.961662 
L 412.253334 512.02267 
L 420.13272 512.460971 
L 422.759182 512.481236 
L 428.012105 512.195998 
L 433.265029 512.320742 
L 435.891491 512.535095 
L 441.144415 512.544642 
L 449.023801 511.930166 
L 459.529648 512.362096 
L 462.15611 512.092128 
L 464.782572 511.676397 
L 467.409034 511.489641 
L 477.914882 511.986009 
L 483.167806 511.174365 
L 485.794268 510.947928 
L 491.047191 511.56259 
L 493.673653 511.562267 
L 496.300115 511.72068 
L 498.926577 511.151885 
L 501.553039 510.705498 
L 504.179501 510.544057 
L 506.805963 510.683115 
L 509.432425 511.119537 
L 512.058887 511.255267 
L 514.685349 511.192524 
L 519.938272 509.892502 
L 522.564734 509.598922 
L 525.191196 510.026945 
L 527.817658 510.644057 
L 533.070582 510.649935 
L 535.697044 509.936145 
L 538.323506 509.36866 
L 540.949968 508.965734 
L 543.57643 509.469493 
L 546.202892 510.143539 
L 548.829354 510.25724 
L 551.455815 510.574304 
L 556.708739 509.579721 
L 559.335201 509.470544 
L 564.588125 510.570763 
L 569.841049 510.955987 
L 572.467511 510.638543 
L 575.093973 510.126643 
L 577.720435 510.042709 
L 580.346896 510.220181 
L 582.973358 510.534834 
L 585.59982 510.520934 
L 588.226282 510.654695 
L 590.852744 510.125196 
L 593.479206 509.736435 
L 596.105668 509.67768 
L 598.73213 509.826302 
L 601.358592 510.411221 
L 603.985054 510.469903 
L 606.611516 510.328753 
L 609.237978 509.622848 
L 614.490901 508.58257 
L 617.117363 508.927038 
L 619.743825 509.671479 
L 622.370287 509.746695 
L 624.996749 510.063748 
L 627.623211 509.639387 
L 630.249673 508.976831 
L 632.876135 508.629355 
L 635.502597 508.849649 
L 638.129059 509.389189 
L 640.755521 509.449055 
L 643.381982 509.851845 
L 646.008444 509.293124 
L 648.634906 508.534205 
L 653.88783 508.098427 
L 656.514292 508.71053 
L 659.140754 508.763939 
L 661.767216 508.66482 
L 664.393678 507.809338 
L 667.02014 506.277772 
L 669.646602 505.309762 
L 672.273064 505.058362 
L 674.899525 505.922096 
L 677.525987 506.204725 
L 680.152449 506.107208 
L 682.778911 504.719518 
L 685.405373 502.547302 
L 688.031835 500.992857 
L 690.658297 500.966319 
L 693.284759 502.201791 
L 698.537683 502.931053 
L 701.164145 500.725855 
L 703.790607 498.042799 
L 706.417068 495.164084 
L 709.04353 494.099568 
L 711.669992 495.613511 
L 716.922916 496.491892 
L 719.549378 494.946288 
L 722.17584 491.867705 
L 724.802302 489.827751 
L 727.428764 490.792938 
L 730.055226 492.98423 
L 732.681688 494.686213 
L 735.30815 495.846027 
L 737.934611 494.630361 
L 740.561073 492.415367 
L 743.187535 490.781727 
L 745.813997 491.70885 
L 748.440459 494.034154 
L 751.066921 496.13481 
L 753.693383 497.836296 
L 756.319845 496.824511 
L 758.946307 494.827301 
L 761.572769 493.625797 
L 764.199231 494.408945 
L 766.825693 497.193571 
L 769.452154 499.454299 
L 772.078616 500.739826 
L 774.705078 499.872728 
L 777.33154 497.600824 
L 779.958002 496.246714 
L 782.584464 496.87722 
L 785.210926 499.311285 
L 787.837388 501.345869 
L 790.46385 502.301126 
L 793.090312 501.361215 
L 795.716774 499.51683 
L 798.343236 498.359743 
L 800.969697 499.220621 
L 803.596159 501.17644 
L 806.222621 502.762768 
L 808.849083 503.566532 
L 811.475545 502.570953 
L 814.102007 500.875886 
L 816.728469 499.603798 
L 819.354931 499.692706 
L 824.607855 502.660537 
L 827.234317 503.127209 
L 829.860779 502.451893 
L 832.48724 500.262252 
L 835.113702 498.533361 
L 837.740164 498.789517 
L 840.366626 499.882997 
L 842.993088 501.949779 
L 845.61955 502.183344 
L 848.246012 501.504376 
L 853.498936 497.779338 
L 856.125398 498.54346 
L 858.75186 499.851822 
L 861.378322 501.567184 
L 864.004783 502.391961 
L 869.257707 500.674721 
L 871.884169 501.276493 
L 874.510631 502.467685 
L 877.137093 504.633291 
L 879.763555 505.889214 
L 882.390017 505.147024 
L 885.016479 503.401125 
L 887.642941 502.312141 
L 890.269403 502.37008 
L 892.895865 503.547307 
L 895.522326 505.656912 
L 898.148788 506.655257 
L 900.77525 505.906753 
L 903.401712 504.50604 
L 906.028174 502.602541 
L 908.654636 501.522543 
L 911.281098 501.950352 
L 913.90756 503.194328 
L 916.534022 504.835623 
L 919.160484 505.276758 
L 921.786946 504.621639 
L 924.413408 503.834255 
L 927.039869 503.379174 
L 929.666331 503.863547 
L 932.292793 505.310096 
L 934.919255 506.175123 
L 937.545717 506.383514 
L 940.172179 505.88321 
L 942.798641 505.066022 
L 945.425103 504.68804 
L 948.051565 504.977638 
L 950.678027 506.006435 
L 953.304489 506.852448 
L 955.930951 507.080649 
L 958.557412 506.686614 
L 963.810336 505.721617 
L 966.436798 505.866145 
L 969.06326 506.719516 
L 971.689722 507.275224 
L 974.316184 507.450758 
L 976.942646 507.228037 
L 979.569108 506.710085 
L 982.19557 506.399794 
L 984.822032 506.471339 
L 990.074955 507.783639 
L 992.701417 507.938025 
L 995.327879 507.816861 
L 1000.580803 507.10446 
L 1003.207265 507.230887 
L 1008.460189 508.010045 
L 1011.086651 508.053258 
L 1016.339575 507.451598 
L 1018.966037 507.092468 
L 1021.592498 507.077592 
L 1026.845422 507.792315 
L 1029.471884 507.857414 
L 1034.724808 507.197805 
L 1037.35127 506.808613 
L 1039.977732 506.80936 
L 1045.230656 507.644542 
L 1047.857118 507.680553 
L 1050.48358 507.412034 
L 1050.48358 507.412034 
" style="fill:none;stroke:#e24a33;stroke-dasharray:1.5,2.475;stroke-dashoffset:0;stroke-width:1.5;"/>
   </g>
   <g id="line2d_33">
    <path clip-path="url(#pc602dd4efb)" d="M 89.198518 262.560523 
L 91.82498 233.295996 
L 94.451442 270.098871 
L 97.077904 252.515745 
L 99.704366 210.419024 
L 102.330828 205.937762 
L 104.95729 213.839768 
L 107.583752 242.173277 
L 110.210213 280.318349 
L 112.836675 277.305072 
L 115.463137 288.30341 
L 118.089599 296.443252 
L 120.716061 275.209667 
L 123.342523 279.936454 
L 125.968985 263.631184 
L 128.595447 253.633011 
L 133.848371 271.172678 
L 136.474833 302.486961 
L 139.101295 342.055603 
L 141.727756 354.495765 
L 144.354218 363.634562 
L 146.98068 367.762308 
L 149.607142 371.239737 
L 152.233604 381.815825 
L 154.860066 397.732163 
L 157.486528 417.916347 
L 160.11299 433.409036 
L 167.992376 477.667454 
L 170.618838 490.413528 
L 173.245299 497.868669 
L 178.498223 502.780866 
L 181.124685 505.497624 
L 183.751147 508.817824 
L 186.377609 515.622085 
L 189.004071 520.866102 
L 191.630533 526.618133 
L 194.256995 533.119165 
L 196.883457 536.165608 
L 199.509919 541.10488 
L 202.136381 545.177473 
L 207.389304 549.370634 
L 210.015766 546.782107 
L 212.642228 541.45886 
L 215.26869 536.661661 
L 217.895152 531.335077 
L 220.521614 528.578859 
L 223.148076 526.807314 
L 225.774538 525.82971 
L 228.401 528.650313 
L 231.027462 533.153964 
L 233.653924 538.404091 
L 236.280385 542.7731 
L 238.906847 544.666144 
L 241.533309 546.332978 
L 244.159771 546.282146 
L 246.786233 546.951118 
L 249.412695 548.943225 
L 252.039157 550.14049 
L 254.665619 552.805272 
L 257.292081 552.82381 
L 259.918543 549.494744 
L 262.545005 544.457228 
L 265.171467 531.544345 
L 267.797928 521.23204 
L 270.42439 518.088701 
L 273.050852 513.43326 
L 275.677314 513.246482 
L 278.303776 514.421414 
L 280.930238 514.216805 
L 283.5567 524.673659 
L 286.183162 531.317153 
L 288.809624 534.603155 
L 291.436086 538.879667 
L 296.68901 534.679786 
L 299.315471 534.753836 
L 301.941933 529.146151 
L 304.568395 531.032665 
L 307.194857 532.199033 
L 309.821319 529.31666 
L 312.447781 531.667955 
L 315.074243 534.936778 
L 317.700705 534.61313 
L 320.327167 535.819879 
L 322.953629 527.757485 
L 325.580091 512.909862 
L 328.206553 510.37723 
L 330.833014 511.188537 
L 333.459476 511.742207 
L 336.085938 519.02299 
L 338.7124 522.715965 
L 341.338862 523.316483 
L 343.965324 530.635911 
L 346.591786 529.747055 
L 349.218248 525.903374 
L 351.84471 519.820797 
L 354.471172 512.584707 
L 357.097634 510.222366 
L 359.724096 514.033495 
L 362.350557 522.221879 
L 364.977019 524.060426 
L 367.603481 522.608614 
L 370.229943 519.043593 
L 372.856405 499.022673 
L 375.482867 481.944911 
L 378.109329 459.11983 
L 380.735791 437.804815 
L 383.362253 430.695851 
L 385.988715 426.000485 
L 388.615177 430.358634 
L 391.241639 454.389916 
L 393.8681 474.42576 
L 396.494562 503.681477 
L 399.121024 524.615501 
L 401.747486 531.967138 
L 404.373948 540.112347 
L 407.00041 540.369286 
L 409.626872 534.225525 
L 412.253334 533.04376 
L 414.879796 528.80733 
L 417.506258 528.349144 
L 420.13272 530.700681 
L 425.385643 528.349082 
L 428.012105 526.502001 
L 430.638567 522.473766 
L 433.265029 520.598554 
L 435.891491 519.584137 
L 438.517953 518.037352 
L 441.144415 517.02143 
L 443.770877 514.996046 
L 446.397339 507.208587 
L 451.650263 490.229027 
L 454.276725 484.764431 
L 456.903186 483.456944 
L 459.529648 483.694373 
L 462.15611 484.2108 
L 464.782572 485.971316 
L 467.409034 484.37915 
L 470.035496 481.179143 
L 472.661958 477.466472 
L 475.28842 475.912687 
L 477.914882 475.182114 
L 480.541344 473.803069 
L 483.167806 476.582461 
L 485.794268 478.422063 
L 488.420729 483.043416 
L 491.047191 488.185307 
L 493.673653 488.951716 
L 496.300115 490.106109 
L 498.926577 489.393161 
L 501.553039 487.225661 
L 504.179501 489.059003 
L 506.805963 486.502956 
L 509.432425 486.054213 
L 512.058887 486.656112 
L 514.685349 484.744794 
L 517.311811 485.104927 
L 519.938272 483.431995 
L 522.564734 478.618113 
L 525.191196 480.373665 
L 527.817658 481.065628 
L 530.44412 481.551903 
L 533.070582 482.53981 
L 535.697044 482.651836 
L 538.323506 484.136401 
L 540.949968 486.765372 
L 543.57643 488.750214 
L 546.202892 489.505994 
L 548.829354 489.260468 
L 551.455815 491.104768 
L 554.082277 495.22562 
L 556.708739 501.406407 
L 559.335201 509.794102 
L 561.961663 514.597772 
L 564.588125 516.335204 
L 567.214587 518.586011 
L 569.841049 519.010671 
L 572.467511 519.638584 
L 575.093973 520.040412 
L 577.720435 519.136297 
L 580.346896 517.085678 
L 582.973358 513.32868 
L 588.226282 504.833041 
L 590.852744 500.052536 
L 593.479206 497.354547 
L 598.73213 497.22674 
L 601.358592 499.910756 
L 603.985054 501.633437 
L 606.611516 501.442799 
L 609.237978 500.790813 
L 611.864439 496.969704 
L 614.490901 489.147135 
L 617.117363 485.644205 
L 619.743825 483.936983 
L 622.370287 482.901905 
L 624.996749 485.721543 
L 627.623211 490.398236 
L 630.249673 496.10215 
L 632.876135 503.474589 
L 635.502597 505.448592 
L 638.129059 503.68864 
L 643.381982 501.490115 
L 646.008444 500.123132 
L 648.634906 499.467393 
L 651.261368 499.838717 
L 653.88783 496.846394 
L 656.514292 495.108618 
L 659.140754 493.731215 
L 661.767216 489.502035 
L 664.393678 486.002925 
L 667.02014 479.02521 
L 669.646602 468.581236 
L 672.273064 462.362897 
L 674.899525 457.735207 
L 677.525987 456.136962 
L 680.152449 456.435238 
L 682.778911 456.319208 
L 685.405373 457.351341 
L 688.031835 457.317732 
L 690.658297 458.092217 
L 693.284759 458.653085 
L 695.911221 458.525628 
L 698.537683 459.328937 
L 701.164145 459.247825 
L 703.790607 460.391984 
L 706.417068 460.366279 
L 709.04353 456.456815 
L 711.669992 453.127081 
L 714.296454 449.249222 
L 716.922916 446.583318 
L 719.549378 447.166181 
L 722.17584 449.82354 
L 724.802302 456.396677 
L 727.428764 466.978261 
L 730.055226 473.073158 
L 732.681688 478.601039 
L 735.30815 482.494882 
L 737.934611 485.226924 
L 740.561073 489.294957 
L 743.187535 492.63157 
L 745.813997 494.969087 
L 748.440459 496.787618 
L 751.066921 498.095054 
L 753.693383 499.726378 
L 761.572769 505.293986 
L 764.199231 505.99293 
L 766.825693 507.694934 
L 769.452154 509.884943 
L 774.705078 513.26463 
L 777.33154 513.392109 
L 782.584464 510.130511 
L 785.210926 509.055683 
L 793.090312 509.606924 
L 795.716774 509.71814 
L 798.343236 509.493468 
L 800.969697 510.290896 
L 803.596159 511.206788 
L 808.849083 511.848221 
L 811.475545 511.452488 
L 814.102007 510.789087 
L 816.728469 509.596601 
L 819.354931 506.552874 
L 821.981393 503.945015 
L 827.234317 500.050784 
L 829.860779 499.392739 
L 832.48724 498.045908 
L 835.113702 495.629266 
L 837.740164 494.683846 
L 840.366626 491.742734 
L 848.246012 490.82761 
L 850.872474 492.226436 
L 853.498936 492.573441 
L 858.75186 497.448099 
L 861.378322 497.891695 
L 864.004783 499.303257 
L 866.631245 499.829264 
L 869.257707 502.112577 
L 874.510631 520.37714 
L 877.137093 531.531384 
L 879.763555 539.281975 
L 882.390017 540.95239 
L 885.016479 538.698969 
L 887.642941 529.668869 
L 890.269403 515.590742 
L 892.895865 509.688669 
L 895.522326 509.435118 
L 898.148788 509.813513 
L 903.401712 511.202552 
L 906.028174 506.239795 
L 911.281098 481.810794 
L 913.90756 470.559537 
L 916.534022 465.489576 
L 919.160484 465.371364 
L 921.786946 469.234669 
L 924.413408 484.210371 
L 927.039869 506.315909 
L 929.666331 518.560663 
L 932.292793 526.027977 
L 934.919255 528.007798 
L 937.545717 528.642798 
L 940.172179 528.978701 
L 942.798641 526.287947 
L 945.425103 524.142837 
L 950.678027 520.481558 
L 953.304489 520.513417 
L 955.930951 520.878884 
L 958.557412 521.502046 
L 961.183874 523.530605 
L 963.810336 523.91143 
L 966.436798 522.999707 
L 969.06326 522.737678 
L 971.689722 521.660054 
L 974.316184 521.132271 
L 976.942646 521.317718 
L 979.569108 520.592864 
L 982.19557 521.073119 
L 984.822032 521.28617 
L 987.448494 520.388262 
L 990.074955 521.639851 
L 992.701417 522.723867 
L 995.327879 524.406616 
L 997.954341 527.195433 
L 1000.580803 526.99927 
L 1003.207265 527.252843 
L 1005.833727 525.750317 
L 1008.460189 523.806848 
L 1011.086651 522.094632 
L 1013.713113 518.160454 
L 1016.339575 513.817417 
L 1021.592498 503.789734 
L 1024.21896 502.359032 
L 1026.845422 500.343831 
L 1029.471884 499.010771 
L 1032.098346 498.495779 
L 1034.724808 497.556157 
L 1037.35127 497.653134 
L 1039.977732 497.572305 
L 1042.604194 497.847343 
L 1045.230656 498.619937 
L 1047.857118 499.013724 
L 1050.48358 499.620232 
L 1050.48358 499.620232 
" style="fill:none;stroke:#348abd;stroke-linecap:square;stroke-width:1.5;"/>
   </g>
   <g id="line2d_34">
    <path clip-path="url(#pc602dd4efb)" d="M 89.198518 262.560523 
L 91.82498 204.031469 
L 94.451442 343.704621 
L 97.077904 199.766369 
L 99.704366 42.032138 
L 102.330828 183.531454 
L 104.95729 261.251804 
L 107.583752 460.895087 
L 110.210213 471.04697 
L 112.836675 322.611681 
L 115.463137 276.754735 
L 118.089599 99.011031 
L 120.716061 34.896364 
L 123.342523 294.339311 
L 128.595447 401.059762 
L 131.221909 383.068176 
L 133.848371 339.075905 
L 136.474833 318.211014 
L 139.101295 311.876858 
L 141.727756 381.420446 
L 144.354218 410.729777 
L 146.98068 429.953981 
L 149.607142 407.410175 
L 152.233604 413.108523 
L 154.860066 429.625382 
L 157.486528 453.166149 
L 160.11299 489.869263 
L 162.739452 513.70528 
L 165.365914 530.297585 
L 167.992376 513.899999 
L 170.618838 502.331038 
L 173.245299 481.81137 
L 175.871761 469.953003 
L 178.498223 507.467787 
L 181.124685 532.722584 
L 183.751147 553.538985 
L 186.377609 561.52983 
L 189.004071 539.039156 
L 191.630533 522.075588 
L 194.256995 515.460222 
L 196.883457 528.792891 
L 199.509919 567.297487 
L 202.136381 582.047138 
L 204.762842 576.202954 
L 207.389304 553.71816 
L 210.015766 503.955899 
L 212.642228 478.197493 
L 215.26869 495.212494 
L 217.895152 530.011403 
L 220.521614 562.753613 
L 223.148076 563.802138 
L 225.774538 546.87493 
L 228.401 523.700117 
L 231.027462 509.72305 
L 233.653924 531.963387 
L 236.280385 560.594467 
L 238.906847 576.004916 
L 241.533309 575.469982 
L 244.159771 546.5191 
L 246.786233 528.382923 
L 249.412695 523.6678 
L 252.039157 540.344243 
L 254.665619 579.247939 
L 257.292081 576.134685 
L 259.918543 552.166517 
L 262.545005 511.256486 
L 265.171467 437.992747 
L 267.797928 451.481666 
L 270.42439 518.340869 
L 275.677314 574.827243 
L 278.303776 560.391041 
L 280.930238 509.824223 
L 283.5567 511.190725 
L 286.183162 497.98612 
L 288.809624 541.342884 
L 291.436086 576.595431 
L 294.062548 560.41117 
L 296.68901 545.407948 
L 299.315471 510.342573 
L 301.941933 471.936934 
L 307.194857 549.507462 
L 309.821319 556.418816 
L 312.447781 576.87024 
L 315.074243 568.289708 
L 317.700705 508.077036 
L 320.327167 480.384173 
L 322.953629 454.754963 
L 325.580091 445.574096 
L 328.206553 538.690396 
L 330.833014 582.549387 
L 333.459476 572.165397 
L 336.085938 559.042517 
L 338.7124 506.234998 
L 341.338862 458.958587 
L 343.965324 496.810097 
L 346.591786 532.468405 
L 349.218248 555.643618 
L 351.84471 529.587355 
L 354.471172 508.389887 
L 357.097634 489.698611 
L 359.724096 485.63649 
L 362.350557 554.128785 
L 364.977019 545.338232 
L 367.603481 545.480941 
L 370.229943 504.632203 
L 372.856405 368.243447 
L 375.482867 370.154282 
L 378.109329 325.860918 
L 380.735791 404.923683 
L 383.362253 495.575488 
L 385.988715 512.613375 
L 388.615177 535.139243 
L 391.241639 536.462426 
L 393.8681 510.405188 
L 399.121024 551.461851 
L 401.747486 547.036944 
L 404.373948 569.629836 
L 407.00041 536.937819 
L 409.626872 493.456097 
L 412.253334 502.132833 
L 414.879796 500.995928 
L 417.506258 548.254554 
L 420.13272 563.497702 
L 422.759182 561.44779 
L 425.385643 528.658673 
L 428.012105 480.526529 
L 430.638567 473.935183 
L 433.265029 487.869444 
L 435.891491 541.153635 
L 438.517953 552.670206 
L 441.144415 554.336341 
L 443.770877 514.480984 
L 446.397339 426.014316 
L 449.023801 414.901758 
L 451.650263 428.045949 
L 454.276725 502.90146 
L 456.903186 543.517799 
L 459.529648 555.998346 
L 462.15611 518.095969 
L 464.782572 438.337932 
L 467.409034 403.756591 
L 470.035496 405.645902 
L 472.661958 476.912765 
L 475.28842 532.641305 
L 477.914882 550.88433 
L 480.541344 508.442655 
L 483.167806 457.793679 
L 485.794268 416.633808 
L 488.420729 437.995372 
L 491.047191 512.906001 
L 493.673653 538.006169 
L 496.300115 558.965079 
L 498.926577 503.452016 
L 501.553039 442.621184 
L 504.179501 429.467203 
L 506.805963 420.103044 
L 509.432425 509.764798 
L 512.058887 542.219463 
L 514.685349 545.58585 
L 517.311811 505.972945 
L 519.938272 430.910659 
L 522.564734 395.77003 
L 525.191196 432.391908 
L 527.817658 514.608543 
L 530.44412 545.623386 
L 533.070582 552.501201 
L 535.697044 506.757123 
L 538.323506 441.302618 
L 540.949968 414.172826 
L 543.57643 446.285804 
L 546.202892 519.899001 
L 548.829354 543.9047 
L 551.455815 565.411307 
L 554.082277 535.603087 
L 556.708739 484.568123 
L 559.335201 472.886694 
L 561.961663 479.911492 
L 564.588125 532.061025 
L 567.214587 559.66035 
L 569.841049 568.383924 
L 572.467511 539.998483 
L 575.093973 487.380914 
L 577.720435 466.557895 
L 580.346896 465.557153 
L 582.973358 505.762041 
L 585.59982 529.560938 
L 588.226282 539.013866 
L 590.852744 506.534944 
L 593.479206 468.494995 
L 596.105668 466.25268 
L 598.73213 464.967714 
L 601.358592 524.550155 
L 603.985054 541.619705 
L 606.611516 537.679397 
L 609.237978 501.971046 
L 611.864439 441.74723 
L 614.490901 411.4947 
L 617.117363 440.447199 
L 619.743825 512.599605 
L 622.370287 534.374156 
L 624.996749 557.416864 
L 627.623211 534.707901 
L 630.249673 481.674624 
L 632.876135 463.101777 
L 635.502597 454.265218 
L 638.129059 500.279939 
L 640.755521 526.679596 
L 643.381982 549.721751 
L 646.008444 525.139016 
L 648.634906 477.084456 
L 651.261368 465.701042 
L 653.88783 433.318955 
L 656.514292 488.115509 
L 659.140754 517.037776 
L 661.767216 520.117493 
L 664.393678 500.645245 
L 667.02014 428.24045 
L 669.646602 392.593223 
L 672.273064 389.790584 
L 674.899525 455.721676 
L 677.525987 505.850064 
L 680.152449 522.205424 
L 682.778911 499.833035 
L 685.405373 435.465382 
L 688.031835 392.357961 
L 690.658297 395.211977 
L 693.284759 459.64775 
L 695.911221 504.957867 
L 698.537683 527.828589 
L 701.164145 499.265251 
L 703.790607 443.474491 
L 706.417068 392.178029 
L 709.04353 367.845727 
L 711.669992 436.339616 
L 714.296454 477.812854 
L 716.922916 509.16726 
L 719.549378 503.345292 
L 722.17584 462.076 
L 724.802302 438.189994 
L 727.428764 441.916813 
L 732.681688 516.508019 
L 735.30815 536.424161 
L 737.934611 522.469591 
L 740.561073 490.552231 
L 743.187535 461.54628 
L 745.813997 458.279432 
L 751.066921 525.660075 
L 753.693383 547.843427 
L 756.319845 535.464827 
L 758.946307 503.931311 
L 761.572769 474.145219 
L 764.199231 463.172044 
L 766.825693 503.647632 
L 769.452154 540.990138 
L 772.078616 559.350138 
L 774.705078 547.615927 
L 779.958002 463.132347 
L 782.584464 451.353735 
L 787.837388 542.351828 
L 790.46385 561.487402 
L 793.090312 547.97566 
L 798.343236 461.559644 
L 800.969697 456.935732 
L 803.596159 502.535076 
L 806.222621 544.757813 
L 808.849083 563.571444 
L 811.475545 545.205534 
L 814.102007 500.958363 
L 816.728469 453.212243 
L 819.354931 435.629642 
L 824.607855 531.009696 
L 827.234317 550.059942 
L 829.860779 540.599215 
L 832.48724 491.530549 
L 835.113702 436.295748 
L 837.740164 429.011705 
L 840.366626 463.692283 
L 842.993088 528.81557 
L 845.61955 548.43078 
L 848.246012 538.016634 
L 850.872474 501.322334 
L 853.498936 438.724783 
L 856.125398 446.028983 
L 858.75186 480.797611 
L 861.378322 531.92074 
L 864.004783 558.311716 
L 866.631245 541.698681 
L 869.257707 517.305527 
L 871.884169 502.820798 
L 874.510631 509.784909 
L 877.137093 558.877321 
L 879.763555 586.174872 
L 882.390017 570.004619 
L 885.016479 525.924735 
L 887.642941 454.094828 
L 890.269403 404.273911 
L 892.895865 468.470394 
L 895.522326 557.102469 
L 898.148788 588.823636 
L 900.77525 574.709046 
L 903.401712 530.943578 
L 906.028174 419.355531 
L 908.654636 317.329157 
L 911.281098 384.41214 
L 913.90756 478.343671 
L 916.534022 553.333907 
L 919.160484 573.881563 
L 921.786946 557.986718 
L 924.413408 524.185439 
L 927.039869 472.067924 
L 929.666331 470.12542 
L 932.292793 530.61487 
L 934.919255 567.192653 
L 937.545717 578.326562 
L 940.172179 560.33804 
L 942.798641 505.350158 
L 945.425103 457.052159 
L 948.051565 456.979504 
L 950.678027 518.131834 
L 953.304489 567.415661 
L 955.930951 580.884834 
L 958.557412 564.70017 
L 961.183874 519.550073 
L 963.810336 459.717932 
L 966.436798 450.597444 
L 969.06326 516.297631 
L 971.689722 559.872294 
L 974.316184 577.190355 
L 976.942646 565.998299 
L 982.19557 463.079719 
L 984.822032 452.088799 
L 990.074955 568.633422 
L 992.701417 584.778464 
L 995.327879 577.777541 
L 997.954341 533.997812 
L 1000.580803 461.706577 
L 1003.207265 453.863813 
L 1005.833727 499.494588 
L 1008.460189 555.02914 
L 1011.086651 572.792957 
L 1013.713113 550.238293 
L 1016.339575 503.596551 
L 1018.966037 427.352329 
L 1021.592498 418.024278 
L 1024.21896 489.479675 
L 1026.845422 540.922734 
L 1029.471884 563.461535 
L 1032.098346 546.633348 
L 1034.724808 497.019202 
L 1037.35127 428.031165 
L 1039.977732 417.458478 
L 1042.604194 491.404938 
L 1045.230656 546.330892 
L 1047.857118 566.218048 
L 1050.48358 550.878901 
L 1050.48358 550.878901 
" style="fill:none;stroke:#348abd;stroke-dasharray:1.5,2.475;stroke-dashoffset:0;stroke-width:1.5;"/>
   </g>
   <g id="line2d_35">
    <path clip-path="url(#pc602dd4efb)" d="M 30.103125 513.773155 
L 1099.073125 513.773155 
" style="fill:none;stroke:#008000;stroke-linecap:square;stroke-opacity:0.5;stroke-width:1.5;"/>
   </g>
   <g id="patch_3">
    <path d="M 30.103125 616.52 
L 30.103125 7.2 
" style="fill:none;stroke:#ffffff;stroke-linecap:square;stroke-linejoin:miter;"/>
   </g>
   <g id="patch_4">
    <path d="M 1099.073125 616.52 
L 1099.073125 7.2 
" style="fill:none;stroke:#ffffff;stroke-linecap:square;stroke-linejoin:miter;"/>
   </g>
   <g id="patch_5">
    <path d="M 30.103125 616.52 
L 1099.073125 616.52 
" style="fill:none;stroke:#ffffff;stroke-linecap:square;stroke-linejoin:miter;"/>
   </g>
   <g id="patch_6">
    <path d="M 30.103125 7.2 
L 1099.073125 7.2 
" style="fill:none;stroke:#ffffff;stroke-linecap:square;stroke-linejoin:miter;"/>
   </g>
  </g>
  <g id="axes_2">
   <g id="matplotlib.axis_3">
    <g id="ytick_9">
     <g id="line2d_36">
      <path clip-path="url(#pc602dd4efb)" d="M 30.103125 589.00409 
L 1099.073125 589.00409 
" style="fill:none;stroke:#ffffff;stroke-linecap:square;stroke-width:0.8;"/>
     </g>
     <g id="line2d_37">
      <defs>
       <path d="M 0 0 
L 3.5 0 
" id="mdc64ffb118" style="stroke:#555555;stroke-width:0.8;"/>
      </defs>
      <g>
       <use style="fill:#555555;stroke:#555555;stroke-width:0.8;" x="1099.073125" xlink:href="#mdc64ffb118" y="589.00409"/>
      </g>
     </g>
     <g id="text_16">
      <!-- 0 -->
      <g style="fill:#555555;" transform="translate(1106.073125 592.803309)scale(0.1 -0.1)">
       <use xlink:href="#DejaVuSans-48"/>
      </g>
     </g>
    </g>
    <g id="ytick_10">
     <g id="line2d_38">
      <path clip-path="url(#pc602dd4efb)" d="M 30.103125 506.979676 
L 1099.073125 506.979676 
" style="fill:none;stroke:#ffffff;stroke-linecap:square;stroke-width:0.8;"/>
     </g>
     <g id="line2d_39">
      <g>
       <use style="fill:#555555;stroke:#555555;stroke-width:0.8;" x="1099.073125" xlink:href="#mdc64ffb118" y="506.979676"/>
      </g>
     </g>
     <g id="text_17">
      <!-- 5000 -->
      <g style="fill:#555555;" transform="translate(1106.073125 510.778895)scale(0.1 -0.1)">
       <use xlink:href="#DejaVuSans-53"/>
       <use x="63.623047" xlink:href="#DejaVuSans-48"/>
       <use x="127.246094" xlink:href="#DejaVuSans-48"/>
       <use x="190.869141" xlink:href="#DejaVuSans-48"/>
      </g>
     </g>
    </g>
    <g id="ytick_11">
     <g id="line2d_40">
      <path clip-path="url(#pc602dd4efb)" d="M 30.103125 424.955262 
L 1099.073125 424.955262 
" style="fill:none;stroke:#ffffff;stroke-linecap:square;stroke-width:0.8;"/>
     </g>
     <g id="line2d_41">
      <g>
       <use style="fill:#555555;stroke:#555555;stroke-width:0.8;" x="1099.073125" xlink:href="#mdc64ffb118" y="424.955262"/>
      </g>
     </g>
     <g id="text_18">
      <!-- 10000 -->
      <g style="fill:#555555;" transform="translate(1106.073125 428.754481)scale(0.1 -0.1)">
       <use xlink:href="#DejaVuSans-49"/>
       <use x="63.623047" xlink:href="#DejaVuSans-48"/>
       <use x="127.246094" xlink:href="#DejaVuSans-48"/>
       <use x="190.869141" xlink:href="#DejaVuSans-48"/>
       <use x="254.492188" xlink:href="#DejaVuSans-48"/>
      </g>
     </g>
    </g>
    <g id="ytick_12">
     <g id="line2d_42">
      <path clip-path="url(#pc602dd4efb)" d="M 30.103125 342.930848 
L 1099.073125 342.930848 
" style="fill:none;stroke:#ffffff;stroke-linecap:square;stroke-width:0.8;"/>
     </g>
     <g id="line2d_43">
      <g>
       <use style="fill:#555555;stroke:#555555;stroke-width:0.8;" x="1099.073125" xlink:href="#mdc64ffb118" y="342.930848"/>
      </g>
     </g>
     <g id="text_19">
      <!-- 15000 -->
      <g style="fill:#555555;" transform="translate(1106.073125 346.730067)scale(0.1 -0.1)">
       <use xlink:href="#DejaVuSans-49"/>
       <use x="63.623047" xlink:href="#DejaVuSans-53"/>
       <use x="127.246094" xlink:href="#DejaVuSans-48"/>
       <use x="190.869141" xlink:href="#DejaVuSans-48"/>
       <use x="254.492188" xlink:href="#DejaVuSans-48"/>
      </g>
     </g>
    </g>
    <g id="ytick_13">
     <g id="line2d_44">
      <path clip-path="url(#pc602dd4efb)" d="M 30.103125 260.906434 
L 1099.073125 260.906434 
" style="fill:none;stroke:#ffffff;stroke-linecap:square;stroke-width:0.8;"/>
     </g>
     <g id="line2d_45">
      <g>
       <use style="fill:#555555;stroke:#555555;stroke-width:0.8;" x="1099.073125" xlink:href="#mdc64ffb118" y="260.906434"/>
      </g>
     </g>
     <g id="text_20">
      <!-- 20000 -->
      <g style="fill:#555555;" transform="translate(1106.073125 264.705653)scale(0.1 -0.1)">
       <use xlink:href="#DejaVuSans-50"/>
       <use x="63.623047" xlink:href="#DejaVuSans-48"/>
       <use x="127.246094" xlink:href="#DejaVuSans-48"/>
       <use x="190.869141" xlink:href="#DejaVuSans-48"/>
       <use x="254.492188" xlink:href="#DejaVuSans-48"/>
      </g>
     </g>
    </g>
    <g id="ytick_14">
     <g id="line2d_46">
      <path clip-path="url(#pc602dd4efb)" d="M 30.103125 178.88202 
L 1099.073125 178.88202 
" style="fill:none;stroke:#ffffff;stroke-linecap:square;stroke-width:0.8;"/>
     </g>
     <g id="line2d_47">
      <g>
       <use style="fill:#555555;stroke:#555555;stroke-width:0.8;" x="1099.073125" xlink:href="#mdc64ffb118" y="178.88202"/>
      </g>
     </g>
     <g id="text_21">
      <!-- 25000 -->
      <g style="fill:#555555;" transform="translate(1106.073125 182.681239)scale(0.1 -0.1)">
       <use xlink:href="#DejaVuSans-50"/>
       <use x="63.623047" xlink:href="#DejaVuSans-53"/>
       <use x="127.246094" xlink:href="#DejaVuSans-48"/>
       <use x="190.869141" xlink:href="#DejaVuSans-48"/>
       <use x="254.492188" xlink:href="#DejaVuSans-48"/>
      </g>
     </g>
    </g>
    <g id="ytick_15">
     <g id="line2d_48">
      <path clip-path="url(#pc602dd4efb)" d="M 30.103125 96.857606 
L 1099.073125 96.857606 
" style="fill:none;stroke:#ffffff;stroke-linecap:square;stroke-width:0.8;"/>
     </g>
     <g id="line2d_49">
      <g>
       <use style="fill:#555555;stroke:#555555;stroke-width:0.8;" x="1099.073125" xlink:href="#mdc64ffb118" y="96.857606"/>
      </g>
     </g>
     <g id="text_22">
      <!-- 30000 -->
      <g style="fill:#555555;" transform="translate(1106.073125 100.656825)scale(0.1 -0.1)">
       <use xlink:href="#DejaVuSans-51"/>
       <use x="63.623047" xlink:href="#DejaVuSans-48"/>
       <use x="127.246094" xlink:href="#DejaVuSans-48"/>
       <use x="190.869141" xlink:href="#DejaVuSans-48"/>
       <use x="254.492188" xlink:href="#DejaVuSans-48"/>
      </g>
     </g>
    </g>
    <g id="ytick_16">
     <g id="line2d_50">
      <path clip-path="url(#pc602dd4efb)" d="M 30.103125 14.833192 
L 1099.073125 14.833192 
" style="fill:none;stroke:#ffffff;stroke-linecap:square;stroke-width:0.8;"/>
     </g>
     <g id="line2d_51">
      <g>
       <use style="fill:#555555;stroke:#555555;stroke-width:0.8;" x="1099.073125" xlink:href="#mdc64ffb118" y="14.833192"/>
      </g>
     </g>
     <g id="text_23">
      <!-- 35000 -->
      <g style="fill:#555555;" transform="translate(1106.073125 18.632411)scale(0.1 -0.1)">
       <use xlink:href="#DejaVuSans-51"/>
       <use x="63.623047" xlink:href="#DejaVuSans-53"/>
       <use x="127.246094" xlink:href="#DejaVuSans-48"/>
       <use x="190.869141" xlink:href="#DejaVuSans-48"/>
       <use x="254.492188" xlink:href="#DejaVuSans-48"/>
      </g>
     </g>
    </g>
   </g>
   <g id="line2d_52">
    <path clip-path="url(#pc602dd4efb)" d="M 78.69267 588.134631 
L 81.319132 588.479134 
L 83.945594 588.309617 
L 89.198518 588.361019 
L 91.82498 588.287744 
L 94.451442 588.066668 
L 99.704366 587.290952 
L 102.330828 587.187835 
L 104.95729 586.698032 
L 107.583752 586.42618 
L 110.210213 585.945751 
L 112.836675 584.389631 
L 115.463137 583.325657 
L 118.089599 581.973426 
L 125.968985 575.27086 
L 128.595447 573.463979 
L 131.221909 568.779213 
L 133.848371 563.471062 
L 136.474833 558.849572 
L 139.101295 556.728655 
L 141.727756 549.960469 
L 144.354218 541.476801 
L 146.98068 534.268027 
L 149.607142 529.222354 
L 152.233604 522.608842 
L 154.860066 514.197824 
L 157.486528 509.470875 
L 160.11299 507.856166 
L 162.739452 508.205355 
L 165.365914 505.07671 
L 167.992376 502.259757 
L 170.618838 501.336396 
L 173.245299 501.83323 
L 175.871761 497.214084 
L 178.498223 499.731061 
L 181.124685 501.561378 
L 183.751147 504.959532 
L 186.377609 507.729614 
L 189.004071 509.723979 
L 191.630533 514.291567 
L 194.256995 521.59174 
L 196.883457 524.263392 
L 199.509919 528.3693 
L 202.136381 531.924472 
L 204.762842 536.864685 
L 207.389304 541.418212 
L 210.015766 542.646235 
L 212.642228 543.496945 
L 215.26869 545.282734 
L 220.521614 546.562315 
L 223.148076 547.766902 
L 225.774538 550.211229 
L 228.401 553.853113 
L 236.280385 558.819106 
L 241.533309 563.053909 
L 244.159771 564.68971 
L 246.786233 567.291056 
L 249.412695 569.503372 
L 252.039157 570.297837 
L 254.665619 571.373528 
L 257.292081 572.210177 
L 259.918543 572.664827 
L 262.545005 573.672555 
L 265.171467 572.955428 
L 267.797928 573.250715 
L 270.42439 574.00534 
L 273.050852 573.424139 
L 275.677314 573.773328 
L 278.303776 574.595916 
L 280.930238 575.289608 
L 283.5567 576.768391 
L 286.183162 576.96525 
L 288.809624 577.000403 
L 291.436086 577.984696 
L 294.062548 577.987039 
L 296.68901 578.427628 
L 299.315471 579.489258 
L 301.941933 579.447074 
L 304.568395 579.803294 
L 309.821319 580.117331 
L 315.074243 582.05545 
L 317.700705 581.396912 
L 320.327167 581.162556 
L 322.953629 581.502372 
L 325.580091 581.399255 
L 328.206553 581.912494 
L 330.833014 581.959365 
L 333.459476 581.863279 
L 336.085938 582.411671 
L 338.7124 583.187387 
L 341.338862 583.152234 
L 343.965324 583.431117 
L 346.591786 583.11005 
L 349.218248 583.166295 
L 351.84471 582.788983 
L 354.471172 583.372528 
L 362.350557 583.688908 
L 370.229943 583.501424 
L 372.856405 582.301524 
L 375.482867 581.708604 
L 378.109329 580.67744 
L 380.735791 579.868914 
L 383.362253 579.57597 
L 385.988715 579.008829 
L 388.615177 578.891652 
L 391.241639 579.578313 
L 393.8681 579.376767 
L 396.494562 580.386839 
L 399.121024 581.031317 
L 401.747486 581.043035 
L 407.00041 581.624236 
L 409.626872 581.696887 
L 412.253334 582.317929 
L 417.506258 582.458542 
L 422.759182 582.873351 
L 430.638567 583.238946 
L 433.265029 583.217854 
L 435.891491 583.358467 
L 438.517953 583.306909 
L 441.144415 583.414712 
L 443.770877 583.199105 
L 449.023801 582.40464 
L 451.650263 582.512444 
L 462.15611 581.720322 
L 467.409034 580.586042 
L 475.28842 579.871257 
L 477.914882 579.33224 
L 480.541344 578.551836 
L 483.167806 578.422941 
L 485.794268 578.015162 
L 488.420729 578.167493 
L 491.047191 577.771432 
L 493.673653 577.194918 
L 496.300115 577.061335 
L 498.926577 576.726207 
L 501.553039 576.077042 
L 504.179501 575.685669 
L 506.805963 574.947449 
L 509.432425 575.118529 
L 512.058887 574.914639 
L 514.685349 573.778015 
L 517.311811 572.840593 
L 522.564734 571.446178 
L 525.191196 571.28213 
L 527.817658 570.989185 
L 530.44412 569.995518 
L 535.697044 568.715937 
L 538.323506 568.767495 
L 540.949968 567.316835 
L 546.202892 566.597364 
L 548.829354 566.859842 
L 551.455815 566.705167 
L 554.082277 567.173878 
L 556.708739 566.836406 
L 559.335201 568.137079 
L 561.961663 568.130048 
L 567.214587 568.507361 
L 569.841049 569.257298 
L 572.467511 569.716635 
L 577.720435 570.229873 
L 582.973358 569.276047 
L 585.59982 568.617508 
L 588.226282 568.804992 
L 590.852744 567.443387 
L 593.479206 567.370737 
L 596.105668 566.780161 
L 598.73213 566.873903 
L 601.358592 566.609081 
L 603.985054 566.824689 
L 606.611516 565.125611 
L 609.237978 564.417858 
L 611.864439 563.405442 
L 614.490901 561.842291 
L 617.117363 560.9119 
L 619.743825 560.923618 
L 622.370287 559.953386 
L 624.996749 560.262735 
L 627.623211 560.382257 
L 632.876135 559.334688 
L 635.502597 559.182357 
L 640.755521 557.921524 
L 643.381982 557.853561 
L 646.008444 557.009881 
L 648.634906 555.791233 
L 651.261368 555.659994 
L 653.88783 553.623445 
L 656.514292 553.17817 
L 659.140754 551.889215 
L 661.767216 549.475353 
L 664.393678 545.831126 
L 667.02014 541.511954 
L 669.646602 536.454563 
L 672.273064 533.632924 
L 674.899525 531.090167 
L 677.525987 527.614675 
L 680.152449 522.215125 
L 682.778911 516.168754 
L 685.405373 509.564617 
L 688.031835 502.278505 
L 690.658297 497.347666 
L 693.284759 492.993342 
L 695.911221 486.557941 
L 698.537683 480.785765 
L 701.164145 469.89058 
L 703.790607 460.731968 
L 706.417068 444.598937 
L 709.04353 431.50081 
L 714.296454 410.64083 
L 716.922916 393.371176 
L 719.549378 380.512091 
L 722.17584 363.078388 
L 724.802302 352.895643 
L 727.428764 345.862635 
L 730.055226 337.866426 
L 732.681688 328.62579 
L 735.30815 323.352792 
L 737.934611 315.81592 
L 740.561073 309.195378 
L 743.187535 299.024351 
L 745.813997 294.71221 
L 748.440459 291.74527 
L 751.066921 291.792141 
L 753.693383 288.808796 
L 756.319845 284.412288 
L 758.946307 279.64081 
L 761.572769 281.839064 
L 764.199231 279.659559 
L 766.825693 285.609844 
L 772.078616 289.919641 
L 774.705078 288.17838 
L 777.33154 287.929963 
L 779.958002 286.751155 
L 782.584464 289.577482 
L 785.210926 289.48374 
L 787.837388 291.510915 
L 790.46385 288.998624 
L 793.090312 289.797776 
L 795.716774 291.771049 
L 798.343236 294.74502 
L 800.969697 297.393237 
L 803.596159 296.678453 
L 806.222621 296.561275 
L 808.849083 299.75554 
L 811.475545 300.275809 
L 814.102007 298.768904 
L 816.728469 294.965314 
L 819.354931 287.569056 
L 821.981393 284.843502 
L 824.607855 283.788902 
L 827.234317 275.481001 
L 829.860779 271.653976 
L 832.48724 256.594293 
L 835.113702 244.595293 
L 837.740164 238.893425 
L 840.366626 229.448899 
L 842.993088 228.563036 
L 845.61955 212.362042 
L 848.246012 204.759551 
L 850.872474 195.615 
L 853.498936 188.907747 
L 856.125398 182.882468 
L 858.75186 182.223929 
L 861.378322 170.281174 
L 864.004783 177.283716 
L 866.631245 164.928495 
L 869.257707 184.24876 
L 871.884169 223.725939 
L 874.510631 244.855428 
L 877.137093 258.136352 
L 879.763555 273.688181 
L 882.390017 279.03383 
L 885.016479 278.19718 
L 887.642941 284.311515 
L 890.269403 288.447889 
L 892.895865 296.509717 
L 895.522326 299.15559 
L 898.148788 301.487427 
L 900.77525 304.351251 
L 903.401712 318.789891 
L 906.028174 297.873666 
L 908.654636 269.741635 
L 911.281098 254.154653 
L 913.90756 247.991104 
L 916.534022 245.870187 
L 919.160484 249.706586 
L 921.786946 252.582128 
L 924.413408 274.80137 
L 927.039869 288.900195 
L 929.666331 296.127717 
L 932.292793 308.632925 
L 934.919255 311.991239 
L 937.545717 320.488968 
L 940.172179 331.65835 
L 942.798641 342.218407 
L 945.425103 347.517185 
L 948.051565 351.325461 
L 950.678027 352.291005 
L 953.304489 363.908006 
L 958.557412 377.081127 
L 961.183874 386.080377 
L 963.810336 395.679577 
L 969.06326 400.802587 
L 971.689722 401.500967 
L 974.316184 409.696377 
L 976.942646 417.519163 
L 979.569108 420.129883 
L 982.19557 424.432649 
L 984.822032 430.469646 
L 987.448494 432.98428 
L 990.074955 439.393902 
L 992.701417 443.220927 
L 995.327879 452.534214 
L 997.954341 459.677368 
L 1000.580803 464.671483 
L 1003.207265 470.535057 
L 1005.833727 470.790505 
L 1008.460189 469.672629 
L 1011.086651 470.881903 
L 1013.713113 470.95221 
L 1016.339575 472.702845 
L 1018.966037 470.804566 
L 1021.592498 467.143934 
L 1024.21896 467.277516 
L 1026.845422 467.21424 
L 1029.471884 466.157297 
L 1032.098346 462.262309 
L 1034.724808 460.190607 
L 1037.35127 458.789161 
L 1039.977732 458.28764 
L 1042.604194 457.43693 
L 1045.230656 457.296317 
L 1047.857118 454.924639 
L 1050.48358 454.823867 
L 1050.48358 454.823867 
" style="fill:none;stroke:#000000;stroke-linecap:square;stroke-width:1.5;"/>
   </g>
   <g id="line2d_53">
    <path clip-path="url(#pc602dd4efb)" d="M 78.69267 588.134631 
L 81.319132 588.823636 
L 83.945594 587.970582 
L 86.572056 588.544753 
L 89.198518 588.33149 
L 91.82498 587.921368 
L 94.451442 586.740216 
L 97.077904 585.083323 
L 99.704366 586.444928 
L 102.330828 587.248768 
L 104.95729 585.116133 
L 107.583752 586.428523 
L 110.210213 584.558367 
L 112.836675 575.847374 
L 115.463137 577.635506 
L 118.089599 576.979311 
L 120.716061 571.893797 
L 123.342523 569.744758 
L 125.968985 570.236904 
L 128.595447 571.910202 
L 131.221909 543.054013 
L 133.848371 540.478447 
L 136.474833 544.628882 
L 139.101295 557.047378 
L 141.727756 522.367456 
L 144.354218 510.851228 
L 146.98068 521.448783 
L 152.233604 494.183867 
L 154.860066 485.751758 
L 157.486528 523.95873 
L 160.11299 511.064492 
L 162.739452 513.295556 
L 165.365914 499.548264 
L 167.992376 488.015632 
L 170.618838 487.720344 
L 173.245299 489.229593 
L 175.871761 491.624706 
L 178.498223 528.683336 
L 181.124685 526.107769 
L 183.751147 523.335344 
L 186.377609 507.406203 
L 189.004071 501.680899 
L 191.630533 521.202709 
L 194.256995 542.725916 
L 196.883457 547.384902 
L 199.509919 554.849124 
L 202.136381 548.221551 
L 204.762842 541.987696 
L 207.389304 533.555586 
L 210.015766 529.798868 
L 212.642228 548.680888 
L 215.26869 559.885423 
L 217.895152 559.721374 
L 220.521614 552.306367 
L 223.148076 550.419806 
L 225.774538 550.665879 
L 228.401 555.292056 
L 231.027462 560.508809 
L 233.653924 572.303919 
L 236.280385 570.236904 
L 238.906847 567.612123 
L 241.533309 564.757673 
L 244.159771 562.116487 
L 246.786233 573.501476 
L 249.412695 575.995018 
L 252.039157 577.865175 
L 254.665619 577.766745 
L 257.292081 573.468666 
L 259.918543 567.940221 
L 262.545005 569.170587 
L 265.171467 568.481582 
L 267.797928 578.062033 
L 270.42439 583.147547 
L 273.050852 573.698334 
L 275.677314 575.912994 
L 278.303776 573.698334 
L 280.930238 574.026432 
L 283.5567 578.833063 
L 286.183162 579.440043 
L 288.809624 583.39362 
L 291.436086 580.588385 
L 294.062548 575.929398 
L 296.68901 576.782452 
L 299.315471 581.457844 
L 301.941933 578.537775 
L 304.568395 581.933586 
L 307.194857 584.263079 
L 309.821319 581.917181 
L 312.447781 583.065522 
L 315.074243 583.213166 
L 317.700705 576.848072 
L 320.327167 576.897287 
L 322.953629 584.312294 
L 325.580091 583.541264 
L 328.206553 585.50985 
L 330.833014 583.39362 
L 333.459476 582.540566 
L 336.085938 580.686814 
L 343.965324 585.493445 
L 346.591786 583.262381 
L 349.218248 583.787337 
L 351.84471 579.89938 
L 354.471172 584.77163 
L 357.097634 583.295191 
L 359.724096 584.952084 
L 362.350557 585.854353 
L 364.977019 582.803044 
L 367.603481 583.344406 
L 370.229943 579.489258 
L 372.856405 576.37233 
L 375.482867 579.144756 
L 378.109329 577.733936 
L 380.735791 580.194668 
L 383.362253 580.752434 
L 385.988715 579.374424 
L 388.615177 578.669014 
L 391.241639 581.178961 
L 393.8681 577.733936 
L 396.494562 584.80444 
L 399.121024 584.706011 
L 401.747486 580.834458 
L 404.373948 581.359415 
L 407.00041 580.752434 
L 409.626872 581.687512 
L 412.253334 582.08123 
L 414.879796 585.083323 
L 417.506258 585.411421 
L 420.13272 582.606186 
L 422.759182 582.491352 
L 425.385643 581.753132 
L 428.012105 582.524161 
L 430.638567 582.803044 
L 433.265029 584.935679 
L 435.891491 586.395714 
L 438.517953 582.245278 
L 441.144415 583.245976 
L 443.770877 580.243883 
L 446.397339 579.440043 
L 449.023801 580.325907 
L 451.650263 585.690304 
L 454.276725 584.919274 
L 456.903186 580.440741 
L 459.529648 581.556273 
L 462.15611 579.669712 
L 464.782572 575.634111 
L 467.409034 576.191877 
L 470.035496 584.000601 
L 472.661958 583.42643 
L 475.28842 578.619799 
L 477.914882 577.78315 
L 480.541344 574.206886 
L 483.167806 574.731842 
L 485.794268 573.337427 
L 488.420729 585.066918 
L 491.047191 580.654005 
L 493.673653 574.584198 
L 496.300115 576.848072 
L 498.926577 571.860988 
L 501.553039 570.187689 
L 504.179501 570.597812 
L 506.805963 579.89938 
L 509.432425 581.851561 
L 512.058887 573.156973 
L 514.685349 568.891704 
L 517.311811 565.299034 
L 519.938272 565.233415 
L 522.564734 565.791181 
L 525.191196 578.751038 
L 527.817658 579.800951 
L 530.44412 566.201303 
L 533.070582 564.232717 
L 535.697044 561.000955 
L 538.323506 565.594322 
L 540.949968 555.636558 
L 543.57643 576.175472 
L 546.202892 577.340218 
L 548.829354 568.03865 
L 551.455815 563.149995 
L 554.082277 564.281932 
L 556.708739 563.232019 
L 559.335201 564.741268 
L 561.961663 576.126257 
L 564.588125 578.997112 
L 567.214587 569.022943 
L 569.841049 568.399557 
L 572.467511 567.497289 
L 575.093973 565.167795 
L 577.720435 566.398162 
L 580.346896 572.796066 
L 582.973358 575.650515 
L 585.59982 564.413171 
L 588.226282 569.711948 
L 590.852744 557.966052 
L 593.479206 564.659244 
L 596.105668 562.264131 
L 598.73213 573.452261 
L 601.358592 573.796764 
L 606.611516 557.818408 
L 609.237978 553.011777 
L 611.864439 557.572335 
L 614.490901 551.322074 
L 617.117363 566.939523 
L 619.743825 573.878788 
L 622.370287 559.130798 
L 624.996749 559.983852 
L 627.623211 553.848426 
L 630.249673 553.684377 
L 632.876135 547.877049 
L 635.502597 565.873205 
L 638.129059 569.44947 
L 640.755521 554.73429 
L 643.381982 559.508111 
L 646.008444 547.942668 
L 648.634906 545.153838 
L 651.261368 546.958375 
L 653.88783 551.617362 
L 656.514292 566.332542 
L 659.140754 545.711604 
L 661.767216 542.611082 
L 664.393678 522.433076 
L 667.02014 514.919639 
L 669.646602 511.556638 
L 672.273064 531.865883 
L 674.899525 548.533244 
L 677.525987 521.383163 
L 680.152449 504.814232 
L 682.778911 480.108478 
L 685.405373 468.69068 
L 688.031835 460.553858 
L 690.658297 497.35001 
L 693.284759 518.052972 
L 695.911221 476.335355 
L 698.537683 464.409005 
L 701.164145 403.842178 
L 703.790607 404.580398 
L 706.417068 347.622645 
L 709.04353 405.66312 
L 711.669992 446.527683 
L 714.296454 401.840782 
L 716.922916 343.521424 
L 719.549378 313.828586 
L 722.17584 282.544474 
L 724.802302 276.343429 
L 727.428764 356.432067 
L 730.055226 390.554223 
L 732.681688 337.156329 
L 735.30815 306.610438 
L 737.934611 261.070483 
L 740.561073 236.200681 
L 743.187535 205.146237 
L 745.813997 326.247082 
L 748.440459 369.785641 
L 751.066921 337.484427 
L 753.693383 285.727022 
L 756.319845 230.294923 
L 758.946307 202.800339 
L 761.572769 220.534017 
L 764.199231 310.990541 
L 766.825693 411.437639 
L 769.452154 352.462085 
L 772.078616 300.917943 
L 774.705078 218.106095 
L 777.33154 201.061422 
L 779.958002 212.282361 
L 782.584464 330.77483 
L 785.210926 410.781443 
L 787.837388 366.652309 
L 790.46385 283.331909 
L 793.090312 223.70016 
L 795.716774 214.874333 
L 798.343236 233.100158 
L 800.969697 349.312347 
L 803.596159 405.777954 
L 806.222621 365.832064 
L 808.849083 305.691764 
L 811.475545 227.342044 
L 814.102007 204.325993 
L 816.728469 206.475033 
L 821.981393 386.699075 
L 824.607855 358.449867 
L 827.234317 247.536455 
L 829.860779 200.55287 
L 832.48724 98.908216 
L 835.113702 122.482033 
L 837.740164 257.625457 
L 840.366626 320.587398 
L 842.993088 352.248821 
L 845.61955 134.1295 
L 848.246012 147.33543 
L 850.872474 34.896364 
L 853.498936 75.531258 
L 856.125398 215.448504 
L 858.75186 315.977626 
L 861.378322 268.649539 
L 864.004783 183.14729 
L 866.631245 60.848888 
L 869.257707 170.138217 
L 871.884169 351.871509 
L 874.510631 363.354927 
L 877.137093 408.944096 
L 879.763555 377.512341 
L 882.390017 220.566827 
L 885.016479 54.992345 
L 887.642941 212.938557 
L 890.269403 380.826127 
L 892.895865 419.787724 
L 895.522326 427.465209 
L 898.148788 393.835199 
L 900.77525 240.613594 
L 903.401712 156.062828 
L 906.028174 66.524978 
L 908.654636 183.901914 
L 911.281098 310.678848 
L 913.90756 384.320367 
L 916.534022 378.98878 
L 919.160484 267.468387 
L 921.786946 176.191619 
L 924.413408 222.059672 
L 927.039869 282.593689 
L 929.666331 361.271507 
L 932.292793 471.856822 
L 934.919255 402.496977 
L 940.172179 254.377291 
L 942.798641 295.980073 
L 945.425103 319.685129 
L 948.051565 387.929442 
L 950.678027 478.615634 
L 953.304489 483.815982 
L 955.930951 372.426827 
L 958.557412 301.114802 
L 961.183874 358.974823 
L 963.810336 386.879529 
L 966.436798 405.400642 
L 969.06326 497.005507 
L 971.689722 488.704637 
L 974.316184 429.794702 
L 976.942646 355.874301 
L 979.569108 377.249863 
L 982.19557 416.998894 
L 984.822032 447.65962 
L 987.448494 514.607947 
L 990.074955 533.571991 
L 992.701417 456.583876 
L 995.327879 421.067305 
L 997.954341 427.251946 
L 1000.580803 451.957699 
L 1003.207265 488.704637 
L 1005.833727 516.396079 
L 1008.460189 525.746862 
L 1011.086651 465.048796 
L 1013.713113 421.559451 
L 1016.339575 439.506393 
L 1018.966037 438.669744 
L 1021.592498 463.08021 
L 1024.21896 517.331157 
L 1026.845422 525.30393 
L 1029.471884 457.650193 
L 1032.098346 394.294536 
L 1034.724808 425.004477 
L 1037.35127 428.859624 
L 1039.977732 459.569565 
L 1042.604194 511.376185 
L 1045.230656 524.319637 
L 1047.857118 441.048452 
L 1050.48358 393.589126 
L 1050.48358 393.589126 
" style="fill:none;stroke:#000000;stroke-dasharray:1.5,2.475;stroke-dashoffset:0;stroke-width:1.5;"/>
   </g>
   <g id="patch_7">
    <path d="M 30.103125 616.52 
L 30.103125 7.2 
" style="fill:none;stroke:#ffffff;stroke-linecap:square;stroke-linejoin:miter;"/>
   </g>
   <g id="patch_8">
    <path d="M 1099.073125 616.52 
L 1099.073125 7.2 
" style="fill:none;stroke:#ffffff;stroke-linecap:square;stroke-linejoin:miter;"/>
   </g>
   <g id="patch_9">
    <path d="M 30.103125 616.52 
L 1099.073125 616.52 
" style="fill:none;stroke:#ffffff;stroke-linecap:square;stroke-linejoin:miter;"/>
   </g>
   <g id="patch_10">
    <path d="M 30.103125 7.2 
L 1099.073125 7.2 
" style="fill:none;stroke:#ffffff;stroke-linecap:square;stroke-linejoin:miter;"/>
   </g>
   <g id="legend_1">
    <g id="patch_11">
     <path d="M 934.877812 103.26875 
L 1092.073125 103.26875 
Q 1094.073125 103.26875 1094.073125 101.26875 
L 1094.073125 14.2 
Q 1094.073125 12.2 1092.073125 12.2 
L 934.877812 12.2 
Q 932.877812 12.2 932.877812 14.2 
L 932.877812 101.26875 
Q 932.877812 103.26875 934.877812 103.26875 
z
" style="fill:#e5e5e5;opacity:0.8;stroke:#cccccc;stroke-linejoin:miter;stroke-width:0.5;"/>
    </g>
    <g id="line2d_54">
     <path d="M 936.877812 20.298437 
L 956.877812 20.298437 
" style="fill:none;stroke:#e24a33;stroke-linecap:square;stroke-width:1.5;"/>
    </g>
    <g id="line2d_55"/>
    <g id="text_24">
     <!-- Logistic rate rolling week -->
     <g transform="translate(964.877812 23.798437)scale(0.1 -0.1)">
      <defs>
       <path d="M 9.8125 72.90625 
L 19.671875 72.90625 
L 19.671875 8.296875 
L 55.171875 8.296875 
L 55.171875 0 
L 9.8125 0 
z
" id="DejaVuSans-76"/>
       <path d="M 30.609375 48.390625 
Q 23.390625 48.390625 19.1875 42.75 
Q 14.984375 37.109375 14.984375 27.296875 
Q 14.984375 17.484375 19.15625 11.84375 
Q 23.34375 6.203125 30.609375 6.203125 
Q 37.796875 6.203125 41.984375 11.859375 
Q 46.1875 17.53125 46.1875 27.296875 
Q 46.1875 37.015625 41.984375 42.703125 
Q 37.796875 48.390625 30.609375 48.390625 
z
M 30.609375 56 
Q 42.328125 56 49.015625 48.375 
Q 55.71875 40.765625 55.71875 27.296875 
Q 55.71875 13.875 49.015625 6.21875 
Q 42.328125 -1.421875 30.609375 -1.421875 
Q 18.84375 -1.421875 12.171875 6.21875 
Q 5.515625 13.875 5.515625 27.296875 
Q 5.515625 40.765625 12.171875 48.375 
Q 18.84375 56 30.609375 56 
z
" id="DejaVuSans-111"/>
       <path d="M 45.40625 27.984375 
Q 45.40625 37.75 41.375 43.109375 
Q 37.359375 48.484375 30.078125 48.484375 
Q 22.859375 48.484375 18.828125 43.109375 
Q 14.796875 37.75 14.796875 27.984375 
Q 14.796875 18.265625 18.828125 12.890625 
Q 22.859375 7.515625 30.078125 7.515625 
Q 37.359375 7.515625 41.375 12.890625 
Q 45.40625 18.265625 45.40625 27.984375 
z
M 54.390625 6.78125 
Q 54.390625 -7.171875 48.1875 -13.984375 
Q 42 -20.796875 29.203125 -20.796875 
Q 24.46875 -20.796875 20.265625 -20.09375 
Q 16.0625 -19.390625 12.109375 -17.921875 
L 12.109375 -9.1875 
Q 16.0625 -11.328125 19.921875 -12.34375 
Q 23.78125 -13.375 27.78125 -13.375 
Q 36.625 -13.375 41.015625 -8.765625 
Q 45.40625 -4.15625 45.40625 5.171875 
L 45.40625 9.625 
Q 42.625 4.78125 38.28125 2.390625 
Q 33.9375 0 27.875 0 
Q 17.828125 0 11.671875 7.65625 
Q 5.515625 15.328125 5.515625 27.984375 
Q 5.515625 40.671875 11.671875 48.328125 
Q 17.828125 56 27.875 56 
Q 33.9375 56 38.28125 53.609375 
Q 42.625 51.21875 45.40625 46.390625 
L 45.40625 54.6875 
L 54.390625 54.6875 
z
" id="DejaVuSans-103"/>
       <path d="M 9.421875 54.6875 
L 18.40625 54.6875 
L 18.40625 0 
L 9.421875 0 
z
M 9.421875 75.984375 
L 18.40625 75.984375 
L 18.40625 64.59375 
L 9.421875 64.59375 
z
" id="DejaVuSans-105"/>
       <path d="M 44.28125 53.078125 
L 44.28125 44.578125 
Q 40.484375 46.53125 36.375 47.5 
Q 32.28125 48.484375 27.875 48.484375 
Q 21.1875 48.484375 17.84375 46.4375 
Q 14.5 44.390625 14.5 40.28125 
Q 14.5 37.15625 16.890625 35.375 
Q 19.28125 33.59375 26.515625 31.984375 
L 29.59375 31.296875 
Q 39.15625 29.25 43.1875 25.515625 
Q 47.21875 21.78125 47.21875 15.09375 
Q 47.21875 7.46875 41.1875 3.015625 
Q 35.15625 -1.421875 24.609375 -1.421875 
Q 20.21875 -1.421875 15.453125 -0.5625 
Q 10.6875 0.296875 5.421875 2 
L 5.421875 11.28125 
Q 10.40625 8.6875 15.234375 7.390625 
Q 20.0625 6.109375 24.8125 6.109375 
Q 31.15625 6.109375 34.5625 8.28125 
Q 37.984375 10.453125 37.984375 14.40625 
Q 37.984375 18.0625 35.515625 20.015625 
Q 33.0625 21.96875 24.703125 23.78125 
L 21.578125 24.515625 
Q 13.234375 26.265625 9.515625 29.90625 
Q 5.8125 33.546875 5.8125 39.890625 
Q 5.8125 47.609375 11.28125 51.796875 
Q 16.75 56 26.8125 56 
Q 31.78125 56 36.171875 55.265625 
Q 40.578125 54.546875 44.28125 53.078125 
z
" id="DejaVuSans-115"/>
       <path d="M 18.3125 70.21875 
L 18.3125 54.6875 
L 36.8125 54.6875 
L 36.8125 47.703125 
L 18.3125 47.703125 
L 18.3125 18.015625 
Q 18.3125 11.328125 20.140625 9.421875 
Q 21.96875 7.515625 27.59375 7.515625 
L 36.8125 7.515625 
L 36.8125 0 
L 27.59375 0 
Q 17.1875 0 13.234375 3.875 
Q 9.28125 7.765625 9.28125 18.015625 
L 9.28125 47.703125 
L 2.6875 47.703125 
L 2.6875 54.6875 
L 9.28125 54.6875 
L 9.28125 70.21875 
z
" id="DejaVuSans-116"/>
       <path d="M 48.78125 52.59375 
L 48.78125 44.1875 
Q 44.96875 46.296875 41.140625 47.34375 
Q 37.3125 48.390625 33.40625 48.390625 
Q 24.65625 48.390625 19.8125 42.84375 
Q 14.984375 37.3125 14.984375 27.296875 
Q 14.984375 17.28125 19.8125 11.734375 
Q 24.65625 6.203125 33.40625 6.203125 
Q 37.3125 6.203125 41.140625 7.25 
Q 44.96875 8.296875 48.78125 10.40625 
L 48.78125 2.09375 
Q 45.015625 0.34375 40.984375 -0.53125 
Q 36.96875 -1.421875 32.421875 -1.421875 
Q 20.0625 -1.421875 12.78125 6.34375 
Q 5.515625 14.109375 5.515625 27.296875 
Q 5.515625 40.671875 12.859375 48.328125 
Q 20.21875 56 33.015625 56 
Q 37.15625 56 41.109375 55.140625 
Q 45.0625 54.296875 48.78125 52.59375 
z
" id="DejaVuSans-99"/>
       <path id="DejaVuSans-32"/>
       <path d="M 41.109375 46.296875 
Q 39.59375 47.171875 37.8125 47.578125 
Q 36.03125 48 33.890625 48 
Q 26.265625 48 22.1875 43.046875 
Q 18.109375 38.09375 18.109375 28.8125 
L 18.109375 0 
L 9.078125 0 
L 9.078125 54.6875 
L 18.109375 54.6875 
L 18.109375 46.1875 
Q 20.953125 51.171875 25.484375 53.578125 
Q 30.03125 56 36.53125 56 
Q 37.453125 56 38.578125 55.875 
Q 39.703125 55.765625 41.0625 55.515625 
z
" id="DejaVuSans-114"/>
       <path d="M 34.28125 27.484375 
Q 23.390625 27.484375 19.1875 25 
Q 14.984375 22.515625 14.984375 16.5 
Q 14.984375 11.71875 18.140625 8.90625 
Q 21.296875 6.109375 26.703125 6.109375 
Q 34.1875 6.109375 38.703125 11.40625 
Q 43.21875 16.703125 43.21875 25.484375 
L 43.21875 27.484375 
z
M 52.203125 31.203125 
L 52.203125 0 
L 43.21875 0 
L 43.21875 8.296875 
Q 40.140625 3.328125 35.546875 0.953125 
Q 30.953125 -1.421875 24.3125 -1.421875 
Q 15.921875 -1.421875 10.953125 3.296875 
Q 6 8.015625 6 15.921875 
Q 6 25.140625 12.171875 29.828125 
Q 18.359375 34.515625 30.609375 34.515625 
L 43.21875 34.515625 
L 43.21875 35.40625 
Q 43.21875 41.609375 39.140625 45 
Q 35.0625 48.390625 27.6875 48.390625 
Q 23 48.390625 18.546875 47.265625 
Q 14.109375 46.140625 10.015625 43.890625 
L 10.015625 52.203125 
Q 14.9375 54.109375 19.578125 55.046875 
Q 24.21875 56 28.609375 56 
Q 40.484375 56 46.34375 49.84375 
Q 52.203125 43.703125 52.203125 31.203125 
z
" id="DejaVuSans-97"/>
       <path d="M 56.203125 29.59375 
L 56.203125 25.203125 
L 14.890625 25.203125 
Q 15.484375 15.921875 20.484375 11.0625 
Q 25.484375 6.203125 34.421875 6.203125 
Q 39.59375 6.203125 44.453125 7.46875 
Q 49.3125 8.734375 54.109375 11.28125 
L 54.109375 2.78125 
Q 49.265625 0.734375 44.1875 -0.34375 
Q 39.109375 -1.421875 33.890625 -1.421875 
Q 20.796875 -1.421875 13.15625 6.1875 
Q 5.515625 13.8125 5.515625 26.8125 
Q 5.515625 40.234375 12.765625 48.109375 
Q 20.015625 56 32.328125 56 
Q 43.359375 56 49.78125 48.890625 
Q 56.203125 41.796875 56.203125 29.59375 
z
M 47.21875 32.234375 
Q 47.125 39.59375 43.09375 43.984375 
Q 39.0625 48.390625 32.421875 48.390625 
Q 24.90625 48.390625 20.390625 44.140625 
Q 15.875 39.890625 15.1875 32.171875 
z
" id="DejaVuSans-101"/>
       <path d="M 9.421875 75.984375 
L 18.40625 75.984375 
L 18.40625 0 
L 9.421875 0 
z
" id="DejaVuSans-108"/>
       <path d="M 54.890625 33.015625 
L 54.890625 0 
L 45.90625 0 
L 45.90625 32.71875 
Q 45.90625 40.484375 42.875 44.328125 
Q 39.84375 48.1875 33.796875 48.1875 
Q 26.515625 48.1875 22.3125 43.546875 
Q 18.109375 38.921875 18.109375 30.90625 
L 18.109375 0 
L 9.078125 0 
L 9.078125 54.6875 
L 18.109375 54.6875 
L 18.109375 46.1875 
Q 21.34375 51.125 25.703125 53.5625 
Q 30.078125 56 35.796875 56 
Q 45.21875 56 50.046875 50.171875 
Q 54.890625 44.34375 54.890625 33.015625 
z
" id="DejaVuSans-110"/>
       <path d="M 4.203125 54.6875 
L 13.1875 54.6875 
L 24.421875 12.015625 
L 35.59375 54.6875 
L 46.1875 54.6875 
L 57.421875 12.015625 
L 68.609375 54.6875 
L 77.59375 54.6875 
L 63.28125 0 
L 52.6875 0 
L 40.921875 44.828125 
L 29.109375 0 
L 18.5 0 
z
" id="DejaVuSans-119"/>
       <path d="M 9.078125 75.984375 
L 18.109375 75.984375 
L 18.109375 31.109375 
L 44.921875 54.6875 
L 56.390625 54.6875 
L 27.390625 29.109375 
L 57.625 0 
L 45.90625 0 
L 18.109375 26.703125 
L 18.109375 0 
L 9.078125 0 
z
" id="DejaVuSans-107"/>
      </defs>
      <use xlink:href="#DejaVuSans-76"/>
      <use x="53.962891" xlink:href="#DejaVuSans-111"/>
      <use x="115.144531" xlink:href="#DejaVuSans-103"/>
      <use x="178.621094" xlink:href="#DejaVuSans-105"/>
      <use x="206.404297" xlink:href="#DejaVuSans-115"/>
      <use x="258.503906" xlink:href="#DejaVuSans-116"/>
      <use x="297.712891" xlink:href="#DejaVuSans-105"/>
      <use x="325.496094" xlink:href="#DejaVuSans-99"/>
      <use x="380.476562" xlink:href="#DejaVuSans-32"/>
      <use x="412.263672" xlink:href="#DejaVuSans-114"/>
      <use x="453.376953" xlink:href="#DejaVuSans-97"/>
      <use x="514.65625" xlink:href="#DejaVuSans-116"/>
      <use x="553.865234" xlink:href="#DejaVuSans-101"/>
      <use x="615.388672" xlink:href="#DejaVuSans-32"/>
      <use x="647.175781" xlink:href="#DejaVuSans-114"/>
      <use x="686.039062" xlink:href="#DejaVuSans-111"/>
      <use x="747.220703" xlink:href="#DejaVuSans-108"/>
      <use x="775.003906" xlink:href="#DejaVuSans-108"/>
      <use x="802.787109" xlink:href="#DejaVuSans-105"/>
      <use x="830.570312" xlink:href="#DejaVuSans-110"/>
      <use x="893.949219" xlink:href="#DejaVuSans-103"/>
      <use x="957.425781" xlink:href="#DejaVuSans-32"/>
      <use x="989.212891" xlink:href="#DejaVuSans-119"/>
      <use x="1071" xlink:href="#DejaVuSans-101"/>
      <use x="1132.523438" xlink:href="#DejaVuSans-101"/>
      <use x="1194.046875" xlink:href="#DejaVuSans-107"/>
     </g>
    </g>
    <g id="line2d_56">
     <path d="M 936.877812 34.976562 
L 956.877812 34.976562 
" style="fill:none;stroke:#e24a33;stroke-dasharray:1.5,2.475;stroke-dashoffset:0;stroke-width:1.5;"/>
    </g>
    <g id="line2d_57"/>
    <g id="text_25">
     <!-- Logistic rate -->
     <g transform="translate(964.877812 38.476562)scale(0.1 -0.1)">
      <use xlink:href="#DejaVuSans-76"/>
      <use x="53.962891" xlink:href="#DejaVuSans-111"/>
      <use x="115.144531" xlink:href="#DejaVuSans-103"/>
      <use x="178.621094" xlink:href="#DejaVuSans-105"/>
      <use x="206.404297" xlink:href="#DejaVuSans-115"/>
      <use x="258.503906" xlink:href="#DejaVuSans-116"/>
      <use x="297.712891" xlink:href="#DejaVuSans-105"/>
      <use x="325.496094" xlink:href="#DejaVuSans-99"/>
      <use x="380.476562" xlink:href="#DejaVuSans-32"/>
      <use x="412.263672" xlink:href="#DejaVuSans-114"/>
      <use x="453.376953" xlink:href="#DejaVuSans-97"/>
      <use x="514.65625" xlink:href="#DejaVuSans-116"/>
      <use x="553.865234" xlink:href="#DejaVuSans-101"/>
     </g>
    </g>
    <g id="line2d_58">
     <path d="M 936.877812 49.654687 
L 956.877812 49.654687 
" style="fill:none;stroke:#348abd;stroke-linecap:square;stroke-width:1.5;"/>
    </g>
    <g id="line2d_59"/>
    <g id="text_26">
     <!-- RKI rate rolling week -->
     <g transform="translate(964.877812 53.154687)scale(0.1 -0.1)">
      <defs>
       <path d="M 44.390625 34.1875 
Q 47.5625 33.109375 50.5625 29.59375 
Q 53.5625 26.078125 56.59375 19.921875 
L 66.609375 0 
L 56 0 
L 46.6875 18.703125 
Q 43.0625 26.03125 39.671875 28.421875 
Q 36.28125 30.8125 30.421875 30.8125 
L 19.671875 30.8125 
L 19.671875 0 
L 9.8125 0 
L 9.8125 72.90625 
L 32.078125 72.90625 
Q 44.578125 72.90625 50.734375 67.671875 
Q 56.890625 62.453125 56.890625 51.90625 
Q 56.890625 45.015625 53.6875 40.46875 
Q 50.484375 35.9375 44.390625 34.1875 
z
M 19.671875 64.796875 
L 19.671875 38.921875 
L 32.078125 38.921875 
Q 39.203125 38.921875 42.84375 42.21875 
Q 46.484375 45.515625 46.484375 51.90625 
Q 46.484375 58.296875 42.84375 61.546875 
Q 39.203125 64.796875 32.078125 64.796875 
z
" id="DejaVuSans-82"/>
       <path d="M 9.8125 72.90625 
L 19.671875 72.90625 
L 19.671875 42.09375 
L 52.390625 72.90625 
L 65.09375 72.90625 
L 28.90625 38.921875 
L 67.671875 0 
L 54.6875 0 
L 19.671875 35.109375 
L 19.671875 0 
L 9.8125 0 
z
" id="DejaVuSans-75"/>
       <path d="M 9.8125 72.90625 
L 19.671875 72.90625 
L 19.671875 0 
L 9.8125 0 
z
" id="DejaVuSans-73"/>
      </defs>
      <use xlink:href="#DejaVuSans-82"/>
      <use x="69.482422" xlink:href="#DejaVuSans-75"/>
      <use x="135.058594" xlink:href="#DejaVuSans-73"/>
      <use x="164.550781" xlink:href="#DejaVuSans-32"/>
      <use x="196.337891" xlink:href="#DejaVuSans-114"/>
      <use x="237.451172" xlink:href="#DejaVuSans-97"/>
      <use x="298.730469" xlink:href="#DejaVuSans-116"/>
      <use x="337.939453" xlink:href="#DejaVuSans-101"/>
      <use x="399.462891" xlink:href="#DejaVuSans-32"/>
      <use x="431.25" xlink:href="#DejaVuSans-114"/>
      <use x="470.113281" xlink:href="#DejaVuSans-111"/>
      <use x="531.294922" xlink:href="#DejaVuSans-108"/>
      <use x="559.078125" xlink:href="#DejaVuSans-108"/>
      <use x="586.861328" xlink:href="#DejaVuSans-105"/>
      <use x="614.644531" xlink:href="#DejaVuSans-110"/>
      <use x="678.023438" xlink:href="#DejaVuSans-103"/>
      <use x="741.5" xlink:href="#DejaVuSans-32"/>
      <use x="773.287109" xlink:href="#DejaVuSans-119"/>
      <use x="855.074219" xlink:href="#DejaVuSans-101"/>
      <use x="916.597656" xlink:href="#DejaVuSans-101"/>
      <use x="978.121094" xlink:href="#DejaVuSans-107"/>
     </g>
    </g>
    <g id="line2d_60">
     <path d="M 936.877812 64.332812 
L 956.877812 64.332812 
" style="fill:none;stroke:#348abd;stroke-dasharray:1.5,2.475;stroke-dashoffset:0;stroke-width:1.5;"/>
    </g>
    <g id="line2d_61"/>
    <g id="text_27">
     <!-- RKI rate -->
     <g transform="translate(964.877812 67.832812)scale(0.1 -0.1)">
      <use xlink:href="#DejaVuSans-82"/>
      <use x="69.482422" xlink:href="#DejaVuSans-75"/>
      <use x="135.058594" xlink:href="#DejaVuSans-73"/>
      <use x="164.550781" xlink:href="#DejaVuSans-32"/>
      <use x="196.337891" xlink:href="#DejaVuSans-114"/>
      <use x="237.451172" xlink:href="#DejaVuSans-97"/>
      <use x="298.730469" xlink:href="#DejaVuSans-116"/>
      <use x="337.939453" xlink:href="#DejaVuSans-101"/>
     </g>
    </g>
    <g id="line2d_62">
     <path d="M 936.877812 79.010937 
L 956.877812 79.010937 
" style="fill:none;stroke:#000000;stroke-linecap:square;stroke-width:1.5;"/>
    </g>
    <g id="line2d_63"/>
    <g id="text_28">
     <!-- New Cases rolling week -->
     <g transform="translate(964.877812 82.510937)scale(0.1 -0.1)">
      <defs>
       <path d="M 9.8125 72.90625 
L 23.09375 72.90625 
L 55.421875 11.921875 
L 55.421875 72.90625 
L 64.984375 72.90625 
L 64.984375 0 
L 51.703125 0 
L 19.390625 60.984375 
L 19.390625 0 
L 9.8125 0 
z
" id="DejaVuSans-78"/>
       <path d="M 64.40625 67.28125 
L 64.40625 56.890625 
Q 59.421875 61.53125 53.78125 63.8125 
Q 48.140625 66.109375 41.796875 66.109375 
Q 29.296875 66.109375 22.65625 58.46875 
Q 16.015625 50.828125 16.015625 36.375 
Q 16.015625 21.96875 22.65625 14.328125 
Q 29.296875 6.6875 41.796875 6.6875 
Q 48.140625 6.6875 53.78125 8.984375 
Q 59.421875 11.28125 64.40625 15.921875 
L 64.40625 5.609375 
Q 59.234375 2.09375 53.4375 0.328125 
Q 47.65625 -1.421875 41.21875 -1.421875 
Q 24.65625 -1.421875 15.125 8.703125 
Q 5.609375 18.84375 5.609375 36.375 
Q 5.609375 53.953125 15.125 64.078125 
Q 24.65625 74.21875 41.21875 74.21875 
Q 47.75 74.21875 53.53125 72.484375 
Q 59.328125 70.75 64.40625 67.28125 
z
" id="DejaVuSans-67"/>
      </defs>
      <use xlink:href="#DejaVuSans-78"/>
      <use x="74.804688" xlink:href="#DejaVuSans-101"/>
      <use x="136.328125" xlink:href="#DejaVuSans-119"/>
      <use x="218.115234" xlink:href="#DejaVuSans-32"/>
      <use x="249.902344" xlink:href="#DejaVuSans-67"/>
      <use x="319.726562" xlink:href="#DejaVuSans-97"/>
      <use x="381.005859" xlink:href="#DejaVuSans-115"/>
      <use x="433.105469" xlink:href="#DejaVuSans-101"/>
      <use x="494.628906" xlink:href="#DejaVuSans-115"/>
      <use x="546.728516" xlink:href="#DejaVuSans-32"/>
      <use x="578.515625" xlink:href="#DejaVuSans-114"/>
      <use x="617.378906" xlink:href="#DejaVuSans-111"/>
      <use x="678.560547" xlink:href="#DejaVuSans-108"/>
      <use x="706.34375" xlink:href="#DejaVuSans-108"/>
      <use x="734.126953" xlink:href="#DejaVuSans-105"/>
      <use x="761.910156" xlink:href="#DejaVuSans-110"/>
      <use x="825.289062" xlink:href="#DejaVuSans-103"/>
      <use x="888.765625" xlink:href="#DejaVuSans-32"/>
      <use x="920.552734" xlink:href="#DejaVuSans-119"/>
      <use x="1002.339844" xlink:href="#DejaVuSans-101"/>
      <use x="1063.863281" xlink:href="#DejaVuSans-101"/>
      <use x="1125.386719" xlink:href="#DejaVuSans-107"/>
     </g>
    </g>
    <g id="line2d_64">
     <path d="M 936.877812 93.689062 
L 956.877812 93.689062 
" style="fill:none;stroke:#000000;stroke-dasharray:1.5,2.475;stroke-dashoffset:0;stroke-width:1.5;"/>
    </g>
    <g id="line2d_65"/>
    <g id="text_29">
     <!-- New Cases -->
     <g transform="translate(964.877812 97.189062)scale(0.1 -0.1)">
      <use xlink:href="#DejaVuSans-78"/>
      <use x="74.804688" xlink:href="#DejaVuSans-101"/>
      <use x="136.328125" xlink:href="#DejaVuSans-119"/>
      <use x="218.115234" xlink:href="#DejaVuSans-32"/>
      <use x="249.902344" xlink:href="#DejaVuSans-67"/>
      <use x="319.726562" xlink:href="#DejaVuSans-97"/>
      <use x="381.005859" xlink:href="#DejaVuSans-115"/>
      <use x="433.105469" xlink:href="#DejaVuSans-101"/>
      <use x="494.628906" xlink:href="#DejaVuSans-115"/>
     </g>
    </g>
   </g>
  </g>
 </g>
 <defs>
  <clipPath id="pc602dd4efb">
   <rect height="609.32" width="1068.97" x="30.103125" y="7.2"/>
  </clipPath>
 </defs>
</svg>
