<?xml version="1.0" encoding="utf-8" standalone="no"?>
<!DOCTYPE svg PUBLIC "-//W3C//DTD SVG 1.1//EN"
  "http://www.w3.org/Graphics/SVG/1.1/DTD/svg11.dtd">
<!-- Created with matplotlib (https://matplotlib.org/) -->
<svg height="640.398125pt" version="1.1" viewBox="0 0 1145.085625 640.398125" width="1145.085625pt" xmlns="http://www.w3.org/2000/svg" xmlns:xlink="http://www.w3.org/1999/xlink">
 <metadata>
  <rdf:RDF xmlns:cc="http://creativecommons.org/ns#" xmlns:dc="http://purl.org/dc/elements/1.1/" xmlns:rdf="http://www.w3.org/1999/02/22-rdf-syntax-ns#">
   <cc:Work>
    <dc:type rdf:resource="http://purl.org/dc/dcmitype/StillImage"/>
    <dc:date>2021-02-19T09:01:23.264664</dc:date>
    <dc:format>image/svg+xml</dc:format>
    <dc:creator>
     <cc:Agent>
      <dc:title>Matplotlib v3.3.2, https://matplotlib.org/</dc:title>
     </cc:Agent>
    </dc:creator>
   </cc:Work>
  </rdf:RDF>
 </metadata>
 <defs>
  <style type="text/css">*{stroke-linecap:butt;stroke-linejoin:round;}</style>
 </defs>
 <g id="figure_1">
  <g id="patch_1">
   <path d="M 0 640.398125 
L 1145.085625 640.398125 
L 1145.085625 0 
L 0 0 
z
" style="fill:#ffffff;"/>
  </g>
  <g id="axes_1">
   <g id="patch_2">
    <path d="M 30.103125 616.52 
L 1099.073125 616.52 
L 1099.073125 7.2 
L 30.103125 7.2 
z
" style="fill:#e5e5e5;"/>
   </g>
   <g id="matplotlib.axis_1">
    <g id="xtick_1">
     <g id="line2d_1">
      <path clip-path="url(#pc2865a0c65)" d="M 84.136877 616.52 
L 84.136877 7.2 
" style="fill:none;stroke:#ffffff;stroke-linecap:square;stroke-width:0.8;"/>
     </g>
     <g id="line2d_2">
      <defs>
       <path d="M 0 0 
L 0 3.5 
" id="m737bc5990d" style="stroke:#555555;stroke-width:0.8;"/>
      </defs>
      <g>
       <use style="fill:#555555;stroke:#555555;stroke-width:0.8;" x="84.136877" xlink:href="#m737bc5990d" y="616.52"/>
      </g>
     </g>
     <g id="text_1">
      <!-- 2020-03 -->
      <g style="fill:#555555;" transform="translate(63.245471 631.118437)scale(0.1 -0.1)">
       <defs>
        <path d="M 19.1875 8.296875 
L 53.609375 8.296875 
L 53.609375 0 
L 7.328125 0 
L 7.328125 8.296875 
Q 12.9375 14.109375 22.625 23.890625 
Q 32.328125 33.6875 34.8125 36.53125 
Q 39.546875 41.84375 41.421875 45.53125 
Q 43.3125 49.21875 43.3125 52.78125 
Q 43.3125 58.59375 39.234375 62.25 
Q 35.15625 65.921875 28.609375 65.921875 
Q 23.96875 65.921875 18.8125 64.3125 
Q 13.671875 62.703125 7.8125 59.421875 
L 7.8125 69.390625 
Q 13.765625 71.78125 18.9375 73 
Q 24.125 74.21875 28.421875 74.21875 
Q 39.75 74.21875 46.484375 68.546875 
Q 53.21875 62.890625 53.21875 53.421875 
Q 53.21875 48.921875 51.53125 44.890625 
Q 49.859375 40.875 45.40625 35.40625 
Q 44.1875 33.984375 37.640625 27.21875 
Q 31.109375 20.453125 19.1875 8.296875 
z
" id="DejaVuSans-50"/>
        <path d="M 31.78125 66.40625 
Q 24.171875 66.40625 20.328125 58.90625 
Q 16.5 51.421875 16.5 36.375 
Q 16.5 21.390625 20.328125 13.890625 
Q 24.171875 6.390625 31.78125 6.390625 
Q 39.453125 6.390625 43.28125 13.890625 
Q 47.125 21.390625 47.125 36.375 
Q 47.125 51.421875 43.28125 58.90625 
Q 39.453125 66.40625 31.78125 66.40625 
z
M 31.78125 74.21875 
Q 44.046875 74.21875 50.515625 64.515625 
Q 56.984375 54.828125 56.984375 36.375 
Q 56.984375 17.96875 50.515625 8.265625 
Q 44.046875 -1.421875 31.78125 -1.421875 
Q 19.53125 -1.421875 13.0625 8.265625 
Q 6.59375 17.96875 6.59375 36.375 
Q 6.59375 54.828125 13.0625 64.515625 
Q 19.53125 74.21875 31.78125 74.21875 
z
" id="DejaVuSans-48"/>
        <path d="M 4.890625 31.390625 
L 31.203125 31.390625 
L 31.203125 23.390625 
L 4.890625 23.390625 
z
" id="DejaVuSans-45"/>
        <path d="M 40.578125 39.3125 
Q 47.65625 37.796875 51.625 33 
Q 55.609375 28.21875 55.609375 21.1875 
Q 55.609375 10.40625 48.1875 4.484375 
Q 40.765625 -1.421875 27.09375 -1.421875 
Q 22.515625 -1.421875 17.65625 -0.515625 
Q 12.796875 0.390625 7.625 2.203125 
L 7.625 11.71875 
Q 11.71875 9.328125 16.59375 8.109375 
Q 21.484375 6.890625 26.8125 6.890625 
Q 36.078125 6.890625 40.9375 10.546875 
Q 45.796875 14.203125 45.796875 21.1875 
Q 45.796875 27.640625 41.28125 31.265625 
Q 36.765625 34.90625 28.71875 34.90625 
L 20.21875 34.90625 
L 20.21875 43.015625 
L 29.109375 43.015625 
Q 36.375 43.015625 40.234375 45.921875 
Q 44.09375 48.828125 44.09375 54.296875 
Q 44.09375 59.90625 40.109375 62.90625 
Q 36.140625 65.921875 28.71875 65.921875 
Q 24.65625 65.921875 20.015625 65.03125 
Q 15.375 64.15625 9.8125 62.3125 
L 9.8125 71.09375 
Q 15.4375 72.65625 20.34375 73.4375 
Q 25.25 74.21875 29.59375 74.21875 
Q 40.828125 74.21875 47.359375 69.109375 
Q 53.90625 64.015625 53.90625 55.328125 
Q 53.90625 49.265625 50.4375 45.09375 
Q 46.96875 40.921875 40.578125 39.3125 
z
" id="DejaVuSans-51"/>
       </defs>
       <use xlink:href="#DejaVuSans-50"/>
       <use x="63.623047" xlink:href="#DejaVuSans-48"/>
       <use x="127.246094" xlink:href="#DejaVuSans-50"/>
       <use x="190.869141" xlink:href="#DejaVuSans-48"/>
       <use x="254.492188" xlink:href="#DejaVuSans-45"/>
       <use x="290.576172" xlink:href="#DejaVuSans-48"/>
       <use x="354.199219" xlink:href="#DejaVuSans-51"/>
      </g>
     </g>
    </g>
    <g id="xtick_2">
     <g id="line2d_3">
      <path clip-path="url(#pc2865a0c65)" d="M 250.185184 616.52 
L 250.185184 7.2 
" style="fill:none;stroke:#ffffff;stroke-linecap:square;stroke-width:0.8;"/>
     </g>
     <g id="line2d_4">
      <g>
       <use style="fill:#555555;stroke:#555555;stroke-width:0.8;" x="250.185184" xlink:href="#m737bc5990d" y="616.52"/>
      </g>
     </g>
     <g id="text_2">
      <!-- 2020-05 -->
      <g style="fill:#555555;" transform="translate(229.293778 631.118437)scale(0.1 -0.1)">
       <defs>
        <path d="M 10.796875 72.90625 
L 49.515625 72.90625 
L 49.515625 64.59375 
L 19.828125 64.59375 
L 19.828125 46.734375 
Q 21.96875 47.46875 24.109375 47.828125 
Q 26.265625 48.1875 28.421875 48.1875 
Q 40.625 48.1875 47.75 41.5 
Q 54.890625 34.8125 54.890625 23.390625 
Q 54.890625 11.625 47.5625 5.09375 
Q 40.234375 -1.421875 26.90625 -1.421875 
Q 22.3125 -1.421875 17.546875 -0.640625 
Q 12.796875 0.140625 7.71875 1.703125 
L 7.71875 11.625 
Q 12.109375 9.234375 16.796875 8.0625 
Q 21.484375 6.890625 26.703125 6.890625 
Q 35.15625 6.890625 40.078125 11.328125 
Q 45.015625 15.765625 45.015625 23.390625 
Q 45.015625 31 40.078125 35.4375 
Q 35.15625 39.890625 26.703125 39.890625 
Q 22.75 39.890625 18.8125 39.015625 
Q 14.890625 38.140625 10.796875 36.28125 
z
" id="DejaVuSans-53"/>
       </defs>
       <use xlink:href="#DejaVuSans-50"/>
       <use x="63.623047" xlink:href="#DejaVuSans-48"/>
       <use x="127.246094" xlink:href="#DejaVuSans-50"/>
       <use x="190.869141" xlink:href="#DejaVuSans-48"/>
       <use x="254.492188" xlink:href="#DejaVuSans-45"/>
       <use x="290.576172" xlink:href="#DejaVuSans-48"/>
       <use x="354.199219" xlink:href="#DejaVuSans-53"/>
      </g>
     </g>
    </g>
    <g id="xtick_3">
     <g id="line2d_5">
      <path clip-path="url(#pc2865a0c65)" d="M 416.23349 616.52 
L 416.23349 7.2 
" style="fill:none;stroke:#ffffff;stroke-linecap:square;stroke-width:0.8;"/>
     </g>
     <g id="line2d_6">
      <g>
       <use style="fill:#555555;stroke:#555555;stroke-width:0.8;" x="416.23349" xlink:href="#m737bc5990d" y="616.52"/>
      </g>
     </g>
     <g id="text_3">
      <!-- 2020-07 -->
      <g style="fill:#555555;" transform="translate(395.342084 631.118437)scale(0.1 -0.1)">
       <defs>
        <path d="M 8.203125 72.90625 
L 55.078125 72.90625 
L 55.078125 68.703125 
L 28.609375 0 
L 18.3125 0 
L 43.21875 64.59375 
L 8.203125 64.59375 
z
" id="DejaVuSans-55"/>
       </defs>
       <use xlink:href="#DejaVuSans-50"/>
       <use x="63.623047" xlink:href="#DejaVuSans-48"/>
       <use x="127.246094" xlink:href="#DejaVuSans-50"/>
       <use x="190.869141" xlink:href="#DejaVuSans-48"/>
       <use x="254.492188" xlink:href="#DejaVuSans-45"/>
       <use x="290.576172" xlink:href="#DejaVuSans-48"/>
       <use x="354.199219" xlink:href="#DejaVuSans-55"/>
      </g>
     </g>
    </g>
    <g id="xtick_4">
     <g id="line2d_7">
      <path clip-path="url(#pc2865a0c65)" d="M 585.0039 616.52 
L 585.0039 7.2 
" style="fill:none;stroke:#ffffff;stroke-linecap:square;stroke-width:0.8;"/>
     </g>
     <g id="line2d_8">
      <g>
       <use style="fill:#555555;stroke:#555555;stroke-width:0.8;" x="585.0039" xlink:href="#m737bc5990d" y="616.52"/>
      </g>
     </g>
     <g id="text_4">
      <!-- 2020-09 -->
      <g style="fill:#555555;" transform="translate(564.112494 631.118437)scale(0.1 -0.1)">
       <defs>
        <path d="M 10.984375 1.515625 
L 10.984375 10.5 
Q 14.703125 8.734375 18.5 7.8125 
Q 22.3125 6.890625 25.984375 6.890625 
Q 35.75 6.890625 40.890625 13.453125 
Q 46.046875 20.015625 46.78125 33.40625 
Q 43.953125 29.203125 39.59375 26.953125 
Q 35.25 24.703125 29.984375 24.703125 
Q 19.046875 24.703125 12.671875 31.3125 
Q 6.296875 37.9375 6.296875 49.421875 
Q 6.296875 60.640625 12.9375 67.421875 
Q 19.578125 74.21875 30.609375 74.21875 
Q 43.265625 74.21875 49.921875 64.515625 
Q 56.59375 54.828125 56.59375 36.375 
Q 56.59375 19.140625 48.40625 8.859375 
Q 40.234375 -1.421875 26.421875 -1.421875 
Q 22.703125 -1.421875 18.890625 -0.6875 
Q 15.09375 0.046875 10.984375 1.515625 
z
M 30.609375 32.421875 
Q 37.25 32.421875 41.125 36.953125 
Q 45.015625 41.5 45.015625 49.421875 
Q 45.015625 57.28125 41.125 61.84375 
Q 37.25 66.40625 30.609375 66.40625 
Q 23.96875 66.40625 20.09375 61.84375 
Q 16.21875 57.28125 16.21875 49.421875 
Q 16.21875 41.5 20.09375 36.953125 
Q 23.96875 32.421875 30.609375 32.421875 
z
" id="DejaVuSans-57"/>
       </defs>
       <use xlink:href="#DejaVuSans-50"/>
       <use x="63.623047" xlink:href="#DejaVuSans-48"/>
       <use x="127.246094" xlink:href="#DejaVuSans-50"/>
       <use x="190.869141" xlink:href="#DejaVuSans-48"/>
       <use x="254.492188" xlink:href="#DejaVuSans-45"/>
       <use x="290.576172" xlink:href="#DejaVuSans-48"/>
       <use x="354.199219" xlink:href="#DejaVuSans-57"/>
      </g>
     </g>
    </g>
    <g id="xtick_5">
     <g id="line2d_9">
      <path clip-path="url(#pc2865a0c65)" d="M 751.052207 616.52 
L 751.052207 7.2 
" style="fill:none;stroke:#ffffff;stroke-linecap:square;stroke-width:0.8;"/>
     </g>
     <g id="line2d_10">
      <g>
       <use style="fill:#555555;stroke:#555555;stroke-width:0.8;" x="751.052207" xlink:href="#m737bc5990d" y="616.52"/>
      </g>
     </g>
     <g id="text_5">
      <!-- 2020-11 -->
      <g style="fill:#555555;" transform="translate(730.160801 631.118437)scale(0.1 -0.1)">
       <defs>
        <path d="M 12.40625 8.296875 
L 28.515625 8.296875 
L 28.515625 63.921875 
L 10.984375 60.40625 
L 10.984375 69.390625 
L 28.421875 72.90625 
L 38.28125 72.90625 
L 38.28125 8.296875 
L 54.390625 8.296875 
L 54.390625 0 
L 12.40625 0 
z
" id="DejaVuSans-49"/>
       </defs>
       <use xlink:href="#DejaVuSans-50"/>
       <use x="63.623047" xlink:href="#DejaVuSans-48"/>
       <use x="127.246094" xlink:href="#DejaVuSans-50"/>
       <use x="190.869141" xlink:href="#DejaVuSans-48"/>
       <use x="254.492188" xlink:href="#DejaVuSans-45"/>
       <use x="290.576172" xlink:href="#DejaVuSans-49"/>
       <use x="354.199219" xlink:href="#DejaVuSans-49"/>
      </g>
     </g>
    </g>
    <g id="xtick_6">
     <g id="line2d_11">
      <path clip-path="url(#pc2865a0c65)" d="M 917.100514 616.52 
L 917.100514 7.2 
" style="fill:none;stroke:#ffffff;stroke-linecap:square;stroke-width:0.8;"/>
     </g>
     <g id="line2d_12">
      <g>
       <use style="fill:#555555;stroke:#555555;stroke-width:0.8;" x="917.100514" xlink:href="#m737bc5990d" y="616.52"/>
      </g>
     </g>
     <g id="text_6">
      <!-- 2021-01 -->
      <g style="fill:#555555;" transform="translate(896.209107 631.118437)scale(0.1 -0.1)">
       <use xlink:href="#DejaVuSans-50"/>
       <use x="63.623047" xlink:href="#DejaVuSans-48"/>
       <use x="127.246094" xlink:href="#DejaVuSans-50"/>
       <use x="190.869141" xlink:href="#DejaVuSans-49"/>
       <use x="254.492188" xlink:href="#DejaVuSans-45"/>
       <use x="290.576172" xlink:href="#DejaVuSans-48"/>
       <use x="354.199219" xlink:href="#DejaVuSans-49"/>
      </g>
     </g>
    </g>
    <g id="xtick_7">
     <g id="line2d_13">
      <path clip-path="url(#pc2865a0c65)" d="M 1077.704613 616.52 
L 1077.704613 7.2 
" style="fill:none;stroke:#ffffff;stroke-linecap:square;stroke-width:0.8;"/>
     </g>
     <g id="line2d_14">
      <g>
       <use style="fill:#555555;stroke:#555555;stroke-width:0.8;" x="1077.704613" xlink:href="#m737bc5990d" y="616.52"/>
      </g>
     </g>
     <g id="text_7">
      <!-- 2021-03 -->
      <g style="fill:#555555;" transform="translate(1056.813207 631.118437)scale(0.1 -0.1)">
       <use xlink:href="#DejaVuSans-50"/>
       <use x="63.623047" xlink:href="#DejaVuSans-48"/>
       <use x="127.246094" xlink:href="#DejaVuSans-50"/>
       <use x="190.869141" xlink:href="#DejaVuSans-49"/>
       <use x="254.492188" xlink:href="#DejaVuSans-45"/>
       <use x="290.576172" xlink:href="#DejaVuSans-48"/>
       <use x="354.199219" xlink:href="#DejaVuSans-51"/>
      </g>
     </g>
    </g>
   </g>
   <g id="matplotlib.axis_2">
    <g id="ytick_1">
     <g id="line2d_15">
      <path clip-path="url(#pc2865a0c65)" d="M 30.103125 587.741318 
L 1099.073125 587.741318 
" style="fill:none;stroke:#ffffff;stroke-linecap:square;stroke-width:0.8;"/>
     </g>
     <g id="line2d_16">
      <defs>
       <path d="M 0 0 
L -3.5 0 
" id="m8f92a9ddcc" style="stroke:#555555;stroke-width:0.8;"/>
      </defs>
      <g>
       <use style="fill:#555555;stroke:#555555;stroke-width:0.8;" x="30.103125" xlink:href="#m8f92a9ddcc" y="587.741318"/>
      </g>
     </g>
     <g id="text_8">
      <!-- 0.5 -->
      <g style="fill:#555555;" transform="translate(7.2 591.540537)scale(0.1 -0.1)">
       <defs>
        <path d="M 10.6875 12.40625 
L 21 12.40625 
L 21 0 
L 10.6875 0 
z
" id="DejaVuSans-46"/>
       </defs>
       <use xlink:href="#DejaVuSans-48"/>
       <use x="63.623047" xlink:href="#DejaVuSans-46"/>
       <use x="95.410156" xlink:href="#DejaVuSans-53"/>
      </g>
     </g>
    </g>
    <g id="ytick_2">
     <g id="line2d_17">
      <path clip-path="url(#pc2865a0c65)" d="M 30.103125 513.773155 
L 1099.073125 513.773155 
" style="fill:none;stroke:#ffffff;stroke-linecap:square;stroke-width:0.8;"/>
     </g>
     <g id="line2d_18">
      <g>
       <use style="fill:#555555;stroke:#555555;stroke-width:0.8;" x="30.103125" xlink:href="#m8f92a9ddcc" y="513.773155"/>
      </g>
     </g>
     <g id="text_9">
      <!-- 1.0 -->
      <g style="fill:#555555;" transform="translate(7.2 517.572373)scale(0.1 -0.1)">
       <use xlink:href="#DejaVuSans-49"/>
       <use x="63.623047" xlink:href="#DejaVuSans-46"/>
       <use x="95.410156" xlink:href="#DejaVuSans-48"/>
      </g>
     </g>
    </g>
    <g id="ytick_3">
     <g id="line2d_19">
      <path clip-path="url(#pc2865a0c65)" d="M 30.103125 439.804991 
L 1099.073125 439.804991 
" style="fill:none;stroke:#ffffff;stroke-linecap:square;stroke-width:0.8;"/>
     </g>
     <g id="line2d_20">
      <g>
       <use style="fill:#555555;stroke:#555555;stroke-width:0.8;" x="30.103125" xlink:href="#m8f92a9ddcc" y="439.804991"/>
      </g>
     </g>
     <g id="text_10">
      <!-- 1.5 -->
      <g style="fill:#555555;" transform="translate(7.2 443.60421)scale(0.1 -0.1)">
       <use xlink:href="#DejaVuSans-49"/>
       <use x="63.623047" xlink:href="#DejaVuSans-46"/>
       <use x="95.410156" xlink:href="#DejaVuSans-53"/>
      </g>
     </g>
    </g>
    <g id="ytick_4">
     <g id="line2d_21">
      <path clip-path="url(#pc2865a0c65)" d="M 30.103125 365.836827 
L 1099.073125 365.836827 
" style="fill:none;stroke:#ffffff;stroke-linecap:square;stroke-width:0.8;"/>
     </g>
     <g id="line2d_22">
      <g>
       <use style="fill:#555555;stroke:#555555;stroke-width:0.8;" x="30.103125" xlink:href="#m8f92a9ddcc" y="365.836827"/>
      </g>
     </g>
     <g id="text_11">
      <!-- 2.0 -->
      <g style="fill:#555555;" transform="translate(7.2 369.636046)scale(0.1 -0.1)">
       <use xlink:href="#DejaVuSans-50"/>
       <use x="63.623047" xlink:href="#DejaVuSans-46"/>
       <use x="95.410156" xlink:href="#DejaVuSans-48"/>
      </g>
     </g>
    </g>
    <g id="ytick_5">
     <g id="line2d_23">
      <path clip-path="url(#pc2865a0c65)" d="M 30.103125 291.868663 
L 1099.073125 291.868663 
" style="fill:none;stroke:#ffffff;stroke-linecap:square;stroke-width:0.8;"/>
     </g>
     <g id="line2d_24">
      <g>
       <use style="fill:#555555;stroke:#555555;stroke-width:0.8;" x="30.103125" xlink:href="#m8f92a9ddcc" y="291.868663"/>
      </g>
     </g>
     <g id="text_12">
      <!-- 2.5 -->
      <g style="fill:#555555;" transform="translate(7.2 295.667882)scale(0.1 -0.1)">
       <use xlink:href="#DejaVuSans-50"/>
       <use x="63.623047" xlink:href="#DejaVuSans-46"/>
       <use x="95.410156" xlink:href="#DejaVuSans-53"/>
      </g>
     </g>
    </g>
    <g id="ytick_6">
     <g id="line2d_25">
      <path clip-path="url(#pc2865a0c65)" d="M 30.103125 217.900499 
L 1099.073125 217.900499 
" style="fill:none;stroke:#ffffff;stroke-linecap:square;stroke-width:0.8;"/>
     </g>
     <g id="line2d_26">
      <g>
       <use style="fill:#555555;stroke:#555555;stroke-width:0.8;" x="30.103125" xlink:href="#m8f92a9ddcc" y="217.900499"/>
      </g>
     </g>
     <g id="text_13">
      <!-- 3.0 -->
      <g style="fill:#555555;" transform="translate(7.2 221.699718)scale(0.1 -0.1)">
       <use xlink:href="#DejaVuSans-51"/>
       <use x="63.623047" xlink:href="#DejaVuSans-46"/>
       <use x="95.410156" xlink:href="#DejaVuSans-48"/>
      </g>
     </g>
    </g>
    <g id="ytick_7">
     <g id="line2d_27">
      <path clip-path="url(#pc2865a0c65)" d="M 30.103125 143.932336 
L 1099.073125 143.932336 
" style="fill:none;stroke:#ffffff;stroke-linecap:square;stroke-width:0.8;"/>
     </g>
     <g id="line2d_28">
      <g>
       <use style="fill:#555555;stroke:#555555;stroke-width:0.8;" x="30.103125" xlink:href="#m8f92a9ddcc" y="143.932336"/>
      </g>
     </g>
     <g id="text_14">
      <!-- 3.5 -->
      <g style="fill:#555555;" transform="translate(7.2 147.731554)scale(0.1 -0.1)">
       <use xlink:href="#DejaVuSans-51"/>
       <use x="63.623047" xlink:href="#DejaVuSans-46"/>
       <use x="95.410156" xlink:href="#DejaVuSans-53"/>
      </g>
     </g>
    </g>
    <g id="ytick_8">
     <g id="line2d_29">
      <path clip-path="url(#pc2865a0c65)" d="M 30.103125 69.964172 
L 1099.073125 69.964172 
" style="fill:none;stroke:#ffffff;stroke-linecap:square;stroke-width:0.8;"/>
     </g>
     <g id="line2d_30">
      <g>
       <use style="fill:#555555;stroke:#555555;stroke-width:0.8;" x="30.103125" xlink:href="#m8f92a9ddcc" y="69.964172"/>
      </g>
     </g>
     <g id="text_15">
      <!-- 4.0 -->
      <g style="fill:#555555;" transform="translate(7.2 73.763391)scale(0.1 -0.1)">
       <defs>
        <path d="M 37.796875 64.3125 
L 12.890625 25.390625 
L 37.796875 25.390625 
z
M 35.203125 72.90625 
L 47.609375 72.90625 
L 47.609375 25.390625 
L 58.015625 25.390625 
L 58.015625 17.1875 
L 47.609375 17.1875 
L 47.609375 0 
L 37.796875 0 
L 37.796875 17.1875 
L 4.890625 17.1875 
L 4.890625 26.703125 
z
" id="DejaVuSans-52"/>
       </defs>
       <use xlink:href="#DejaVuSans-52"/>
       <use x="63.623047" xlink:href="#DejaVuSans-46"/>
       <use x="95.410156" xlink:href="#DejaVuSans-48"/>
      </g>
     </g>
    </g>
   </g>
   <g id="line2d_31">
    <path clip-path="url(#pc2865a0c65)" d="M 89.581084 114.622911 
L 92.303187 85.358076 
L 95.025291 122.160738 
L 97.747394 104.576897 
L 100.469498 95.992699 
L 103.191601 105.393328 
L 105.913704 124.687859 
L 108.635808 159.979578 
L 111.357911 204.839297 
L 114.080014 215.895658 
L 116.802118 246.205498 
L 119.524221 270.039884 
L 122.246325 277.546135 
L 124.968428 284.08865 
L 127.690531 277.55759 
L 130.412635 273.556615 
L 135.856842 288.756241 
L 138.578945 301.426214 
L 141.301048 318.69324 
L 144.023152 328.755536 
L 146.745255 336.592714 
L 149.467359 342.212958 
L 152.189462 348.78895 
L 154.911565 358.42084 
L 157.633669 370.194256 
L 160.355772 382.963683 
L 165.799979 403.939538 
L 168.522082 414.648465 
L 171.244186 426.529856 
L 173.966289 436.545585 
L 176.688392 444.679654 
L 179.410496 451.092206 
L 182.132599 456.83234 
L 184.854703 461.453048 
L 187.576806 465.317212 
L 190.298909 469.94746 
L 198.465219 482.502524 
L 201.187323 485.891202 
L 203.909426 488.911835 
L 206.63153 491.424622 
L 214.79784 497.46678 
L 217.519943 498.955712 
L 220.242047 500.027552 
L 222.96415 500.657683 
L 231.13046 502.236037 
L 242.018874 505.278784 
L 261.073597 508.998634 
L 266.517804 509.521775 
L 271.962011 509.86288 
L 291.016735 510.475454 
L 299.183045 510.957843 
L 310.071458 511.342215 
L 326.404079 511.855948 
L 331.848285 511.937334 
L 337.292492 511.935989 
L 367.235629 512.303353 
L 380.846146 512.385842 
L 389.012457 512.090501 
L 397.178767 511.658527 
L 402.622973 511.565561 
L 408.06718 511.631318 
L 418.955594 511.968699 
L 457.065041 512.379729 
L 478.841868 512.095128 
L 538.728143 510.617992 
L 560.50497 509.961852 
L 568.67128 509.816445 
L 579.559694 510.019379 
L 601.336521 510.474901 
L 628.557555 510.010449 
L 639.445968 509.524466 
L 644.890175 509.383293 
L 658.500692 509.327836 
L 674.833312 508.990681 
L 682.999622 508.626281 
L 688.443829 508.091964 
L 699.332243 506.463839 
L 704.776449 505.657063 
L 710.220656 504.507438 
L 715.664863 503.391389 
L 723.831173 501.854605 
L 726.553277 501.211105 
L 729.27538 500.378423 
L 737.44169 497.51293 
L 742.885897 495.767398 
L 745.608 494.885241 
L 748.330104 494.122908 
L 753.77431 493.274921 
L 759.218517 492.993022 
L 761.940621 492.947889 
L 770.106931 493.293253 
L 775.551137 493.650185 
L 783.717448 494.592521 
L 797.327965 496.724893 
L 805.494275 497.930987 
L 810.938482 498.586128 
L 832.715309 500.671249 
L 846.325826 501.464155 
L 854.492136 501.393596 
L 859.936342 501.288925 
L 876.268963 500.443661 
L 884.435273 500.205753 
L 895.323686 500.177082 
L 898.04579 500.331046 
L 903.489997 501.391243 
L 908.934203 502.691743 
L 911.656307 503.085323 
L 917.100514 503.589568 
L 933.433134 504.42207 
L 936.155237 504.463556 
L 941.599444 504.114342 
L 947.043651 503.502597 
L 952.487858 503.429112 
L 957.932064 503.870304 
L 966.098375 504.637227 
L 987.875202 505.793492 
L 1009.652029 506.63052 
L 1045.039373 507.611217 
L 1050.48358 507.605208 
L 1050.48358 507.605208 
" style="fill:none;stroke:#e24a33;stroke-linecap:square;stroke-width:1.5;"/>
   </g>
   <g id="line2d_32">
    <path clip-path="url(#pc2865a0c65)" d="M 89.581084 114.622911 
L 92.303187 56.093241 
L 95.025291 195.766061 
L 97.747394 51.825374 
L 100.469498 61.65591 
L 105.913704 240.455043 
L 108.635808 361.66495 
L 111.357911 370.111274 
L 114.080014 273.160587 
L 116.802118 263.994252 
L 119.524221 228.496612 
L 122.246325 204.940226 
L 124.968428 286.252647 
L 127.690531 315.947531 
L 130.412635 342.10445 
L 133.134738 325.337835 
L 135.856842 318.214388 
L 138.578945 317.186418 
L 141.301048 325.809411 
L 144.023152 356.688721 
L 146.745255 370.807774 
L 149.467359 381.446156 
L 152.189462 371.36978 
L 157.633669 399.600331 
L 160.355772 415.195403 
L 163.077875 429.369276 
L 165.799979 444.958201 
L 168.522082 456.408643 
L 171.244186 454.539521 
L 173.966289 455.747719 
L 176.688392 456.538814 
L 179.410496 460.083272 
L 182.132599 469.550209 
L 184.854703 477.30316 
L 187.576806 483.457789 
L 190.298909 486.951257 
L 193.021013 485.410501 
L 195.743116 486.043538 
L 198.465219 488.801217 
L 201.187323 493.270953 
L 203.909426 498.447589 
L 206.63153 501.047295 
L 209.353633 501.279114 
L 212.075736 500.510114 
L 214.79784 498.911176 
L 217.519943 499.223742 
L 220.242047 500.773833 
L 222.96415 502.858509 
L 225.686253 504.613547 
L 228.408357 504.8778 
L 231.13046 504.393654 
L 233.852564 504.224224 
L 236.574667 504.872041 
L 239.29677 506.342685 
L 242.018874 507.627536 
L 244.740977 508.434435 
L 247.46308 508.737707 
L 250.185184 508.172773 
L 252.907287 508.398597 
L 255.629391 508.919699 
L 258.351494 509.705159 
L 261.073597 510.62207 
L 263.795701 510.635235 
L 271.962011 509.230228 
L 274.684114 509.505241 
L 277.406218 510.362614 
L 280.128321 510.627945 
L 282.850424 511.046009 
L 285.572528 510.820846 
L 288.294631 510.338705 
L 293.738838 510.825042 
L 296.460941 511.34739 
L 299.183045 511.700088 
L 310.071458 511.223578 
L 315.515665 511.931231 
L 318.237768 511.957837 
L 320.959872 512.192631 
L 323.681975 512.259912 
L 326.404079 511.885245 
L 329.126182 511.634257 
L 334.570389 511.719568 
L 340.014596 512.488741 
L 345.458802 512.26044 
L 348.180906 512.103085 
L 350.903009 512.138397 
L 359.069319 512.489995 
L 361.791423 512.285869 
L 367.235629 512.254578 
L 369.957733 512.313124 
L 372.679836 512.606432 
L 380.846146 512.249728 
L 383.56825 511.789955 
L 389.012457 511.346453 
L 391.73456 511.385895 
L 394.456663 511.603342 
L 405.345077 511.580209 
L 410.789284 512.130607 
L 413.511387 512.116758 
L 416.23349 512.290165 
L 421.677697 511.961662 
L 424.399801 512.02267 
L 432.566111 512.460971 
L 435.288214 512.481236 
L 440.732421 512.195998 
L 446.176628 512.320742 
L 448.898731 512.535095 
L 454.342938 512.544642 
L 462.509248 511.930166 
L 473.397662 512.362096 
L 476.119765 512.092128 
L 478.841868 511.676397 
L 481.563972 511.489641 
L 492.452385 511.986009 
L 497.896592 511.174365 
L 500.618695 510.947928 
L 506.062902 511.56259 
L 508.785006 511.562267 
L 511.507109 511.72068 
L 514.229212 511.151885 
L 516.951316 510.705498 
L 519.673419 510.544057 
L 522.395523 510.683115 
L 525.117626 511.119537 
L 527.839729 511.255267 
L 530.561833 511.192524 
L 536.006039 509.892502 
L 538.728143 509.598922 
L 541.450246 510.026945 
L 544.17235 510.644057 
L 549.616556 510.649935 
L 552.33866 509.936145 
L 555.060763 509.36866 
L 557.782867 508.965734 
L 560.50497 509.469493 
L 563.227073 510.143539 
L 565.949177 510.25724 
L 568.67128 510.574304 
L 574.115487 509.579721 
L 576.83759 509.470544 
L 582.281797 510.570763 
L 587.726004 510.955987 
L 590.448107 510.638543 
L 593.170211 510.126643 
L 595.892314 510.042709 
L 598.614417 510.220181 
L 601.336521 510.534834 
L 604.058624 510.520934 
L 606.780727 510.654695 
L 609.502831 510.125196 
L 612.224934 509.736435 
L 614.947038 509.67768 
L 617.669141 509.826302 
L 620.391244 510.411221 
L 623.113348 510.469903 
L 625.835451 510.328753 
L 628.557555 509.622848 
L 634.001761 508.58257 
L 636.723865 508.927038 
L 639.445968 509.671479 
L 642.168072 509.746695 
L 644.890175 510.063748 
L 647.612278 509.639387 
L 650.334382 508.976831 
L 653.056485 508.629355 
L 655.778588 508.849649 
L 658.500692 509.389189 
L 661.222795 509.449055 
L 663.944899 509.851845 
L 666.667002 509.293124 
L 669.389105 508.534205 
L 674.833312 508.098427 
L 677.555416 508.71053 
L 680.277519 508.763939 
L 682.999622 508.66482 
L 685.721726 507.809338 
L 688.443829 506.277772 
L 691.165932 505.309762 
L 693.888036 505.058362 
L 696.610139 505.922096 
L 699.332243 506.204725 
L 702.054346 506.107208 
L 704.776449 504.719518 
L 707.498553 502.547302 
L 710.220656 500.992857 
L 712.94276 500.966319 
L 715.664863 502.201791 
L 721.10907 502.931053 
L 723.831173 500.725855 
L 726.553277 498.042799 
L 729.27538 495.164084 
L 731.997483 494.099568 
L 734.719587 495.613511 
L 740.163793 496.491892 
L 742.885897 494.946288 
L 745.608 491.867705 
L 748.330104 489.827751 
L 751.052207 490.792938 
L 753.77431 492.98423 
L 756.496414 494.686213 
L 759.218517 495.846027 
L 761.940621 494.630361 
L 764.662724 492.415367 
L 767.384827 490.781727 
L 770.106931 491.70885 
L 772.829034 494.034154 
L 775.551137 496.13481 
L 778.273241 497.836296 
L 780.995344 496.824511 
L 783.717448 494.827301 
L 786.439551 493.625797 
L 789.161654 494.408945 
L 791.883758 497.193571 
L 794.605861 499.454299 
L 797.327965 500.739826 
L 800.050068 499.872728 
L 802.772171 497.600824 
L 805.494275 496.246714 
L 808.216378 496.87722 
L 810.938482 499.311285 
L 813.660585 501.345869 
L 816.382688 502.301126 
L 819.104792 501.361215 
L 821.826895 499.51683 
L 824.548998 498.359743 
L 827.271102 499.220621 
L 829.993205 501.17644 
L 832.715309 502.762768 
L 835.437412 503.566532 
L 838.159515 502.570953 
L 840.881619 500.875886 
L 843.603722 499.603798 
L 846.325826 499.692706 
L 851.770032 502.660537 
L 854.492136 503.127209 
L 857.214239 502.451893 
L 859.936342 500.262252 
L 862.658446 498.533361 
L 865.380549 498.789517 
L 868.102653 499.882997 
L 870.824756 501.949779 
L 873.546859 502.183344 
L 876.268963 501.504376 
L 881.71317 497.779338 
L 884.435273 498.54346 
L 887.157376 499.851822 
L 889.87948 501.567184 
L 892.601583 502.391961 
L 898.04579 500.674721 
L 900.767893 501.276493 
L 903.489997 502.467685 
L 906.2121 504.633291 
L 908.934203 505.889214 
L 911.656307 505.147024 
L 914.37841 503.401125 
L 917.100514 502.312141 
L 919.822617 502.37008 
L 922.54472 503.547307 
L 925.266824 505.656912 
L 927.988927 506.655257 
L 930.711031 505.906753 
L 933.433134 504.50604 
L 936.155237 502.602541 
L 938.877341 501.522543 
L 941.599444 501.950352 
L 944.321547 503.194328 
L 947.043651 504.835623 
L 949.765754 505.276758 
L 952.487858 504.621639 
L 955.209961 503.834255 
L 957.932064 503.379174 
L 960.654168 503.863547 
L 963.376271 505.310096 
L 966.098375 506.175123 
L 968.820478 506.383514 
L 971.542581 505.88321 
L 974.264685 505.066022 
L 976.986788 504.68804 
L 979.708891 504.977638 
L 982.430995 506.006435 
L 985.153098 506.852448 
L 987.875202 507.080649 
L 990.597305 506.686614 
L 996.041512 505.721617 
L 998.763615 505.866145 
L 1001.485719 506.719516 
L 1004.207822 507.275224 
L 1006.929925 507.450758 
L 1009.652029 507.228037 
L 1012.374132 506.710085 
L 1015.096236 506.399794 
L 1017.818339 506.471339 
L 1023.262546 507.783639 
L 1025.984649 507.938025 
L 1028.706752 507.816861 
L 1034.150959 507.10446 
L 1036.873063 507.230887 
L 1042.317269 508.010045 
L 1045.039373 508.053258 
L 1050.48358 507.451598 
L 1050.48358 507.451598 
" style="fill:none;stroke:#e24a33;stroke-dasharray:1.5,2.475;stroke-dashoffset:0;stroke-width:1.5;"/>
   </g>
   <g id="line2d_33">
    <path clip-path="url(#pc2865a0c65)" d="M 89.581084 262.560523 
L 92.303187 233.295996 
L 95.025291 270.098871 
L 97.747394 252.515745 
L 100.469498 210.419024 
L 103.191601 205.937762 
L 105.913704 213.839768 
L 108.635808 242.173277 
L 111.357911 280.318349 
L 114.080014 277.305072 
L 116.802118 288.30341 
L 119.524221 296.443252 
L 122.246325 275.209667 
L 124.968428 279.936454 
L 127.690531 263.631184 
L 130.412635 253.633011 
L 135.856842 271.172678 
L 138.578945 302.486961 
L 141.301048 342.055603 
L 144.023152 354.495765 
L 146.745255 363.634562 
L 149.467359 367.762308 
L 152.189462 371.239737 
L 154.911565 381.815825 
L 157.633669 397.732163 
L 160.355772 417.916347 
L 163.077875 433.409036 
L 171.244186 477.667454 
L 173.966289 490.413528 
L 176.688392 497.868669 
L 182.132599 502.780866 
L 184.854703 505.497624 
L 187.576806 508.817824 
L 190.298909 515.622085 
L 193.021013 520.866102 
L 195.743116 526.618133 
L 198.465219 533.119165 
L 201.187323 536.165608 
L 203.909426 541.10488 
L 206.63153 545.177473 
L 212.075736 549.370634 
L 214.79784 546.782107 
L 217.519943 541.45886 
L 220.242047 536.661661 
L 222.96415 531.335077 
L 225.686253 528.578859 
L 228.408357 526.807314 
L 231.13046 525.82971 
L 233.852564 528.650313 
L 236.574667 533.153964 
L 239.29677 538.404091 
L 242.018874 542.7731 
L 244.740977 544.666144 
L 247.46308 546.332978 
L 250.185184 546.282146 
L 252.907287 546.951118 
L 255.629391 548.943225 
L 258.351494 550.14049 
L 261.073597 552.805272 
L 263.795701 552.82381 
L 266.517804 549.494744 
L 269.239908 544.457228 
L 271.962011 531.544345 
L 274.684114 521.23204 
L 277.406218 518.088701 
L 280.128321 513.43326 
L 282.850424 513.246482 
L 285.572528 514.421414 
L 288.294631 514.216805 
L 291.016735 524.673659 
L 293.738838 531.317153 
L 296.460941 534.603155 
L 299.183045 538.879667 
L 304.627252 534.679786 
L 307.349355 534.753836 
L 310.071458 529.146151 
L 312.793562 531.032665 
L 315.515665 532.199033 
L 318.237768 529.31666 
L 320.959872 531.667955 
L 323.681975 534.936778 
L 326.404079 534.61313 
L 329.126182 535.819879 
L 331.848285 527.757485 
L 334.570389 512.909862 
L 337.292492 510.37723 
L 340.014596 511.188537 
L 342.736699 511.742207 
L 345.458802 519.02299 
L 348.180906 522.715965 
L 350.903009 523.316483 
L 353.625113 530.635911 
L 356.347216 529.747055 
L 359.069319 525.903374 
L 361.791423 519.820797 
L 364.513526 512.584707 
L 367.235629 510.222366 
L 369.957733 514.033495 
L 372.679836 522.221879 
L 375.40194 524.060426 
L 378.124043 522.608614 
L 380.846146 519.043593 
L 383.56825 499.022673 
L 386.290353 481.944911 
L 389.012457 459.11983 
L 391.73456 437.804815 
L 394.456663 430.695851 
L 397.178767 426.000485 
L 399.90087 430.358634 
L 402.622973 454.389916 
L 405.345077 474.42576 
L 408.06718 503.681477 
L 410.789284 524.615501 
L 413.511387 531.967138 
L 416.23349 540.112347 
L 418.955594 540.369286 
L 421.677697 534.225525 
L 424.399801 533.04376 
L 427.121904 528.80733 
L 429.844007 528.349144 
L 432.566111 530.700681 
L 438.010318 528.349082 
L 440.732421 526.502001 
L 443.454524 522.473766 
L 446.176628 520.598554 
L 448.898731 519.584137 
L 451.620834 518.037352 
L 454.342938 517.02143 
L 457.065041 514.996046 
L 459.787145 507.208587 
L 465.231351 490.229027 
L 467.953455 484.764431 
L 470.675558 483.456944 
L 473.397662 483.694373 
L 476.119765 484.2108 
L 478.841868 485.971316 
L 481.563972 484.37915 
L 484.286075 481.179143 
L 487.008178 477.466472 
L 489.730282 475.912687 
L 492.452385 475.182114 
L 495.174489 473.803069 
L 497.896592 476.582461 
L 500.618695 478.422063 
L 503.340799 483.043416 
L 506.062902 488.185307 
L 508.785006 488.951716 
L 511.507109 490.106109 
L 514.229212 489.393161 
L 516.951316 487.225661 
L 519.673419 489.059003 
L 522.395523 486.502956 
L 525.117626 486.054213 
L 527.839729 486.656112 
L 530.561833 484.744794 
L 533.283936 485.104927 
L 536.006039 483.431995 
L 538.728143 478.618113 
L 541.450246 480.373665 
L 544.17235 481.065628 
L 546.894453 481.551903 
L 549.616556 482.53981 
L 552.33866 482.651836 
L 555.060763 484.136401 
L 557.782867 486.765372 
L 560.50497 488.750214 
L 563.227073 489.505994 
L 565.949177 489.260468 
L 568.67128 491.104768 
L 571.393383 495.22562 
L 574.115487 501.406407 
L 576.83759 509.794102 
L 579.559694 514.597772 
L 582.281797 516.335204 
L 585.0039 518.586011 
L 587.726004 519.010671 
L 590.448107 519.638584 
L 593.170211 520.040412 
L 595.892314 519.136297 
L 598.614417 517.085678 
L 601.336521 513.32868 
L 606.780727 504.833041 
L 609.502831 500.052536 
L 612.224934 497.354547 
L 617.669141 497.22674 
L 620.391244 499.910756 
L 623.113348 501.633437 
L 625.835451 501.442799 
L 628.557555 500.790813 
L 631.279658 496.969704 
L 634.001761 489.147135 
L 636.723865 485.644205 
L 639.445968 483.936983 
L 642.168072 482.901905 
L 644.890175 485.721543 
L 647.612278 490.398236 
L 650.334382 496.10215 
L 653.056485 503.474589 
L 655.778588 505.448592 
L 658.500692 503.68864 
L 663.944899 501.490115 
L 666.667002 500.123132 
L 669.389105 499.467393 
L 672.111209 499.838717 
L 674.833312 496.846394 
L 677.555416 495.108618 
L 680.277519 493.731215 
L 682.999622 489.502035 
L 685.721726 486.002925 
L 688.443829 479.02521 
L 691.165932 468.581236 
L 693.888036 462.362897 
L 696.610139 457.735207 
L 699.332243 456.136962 
L 702.054346 456.435238 
L 704.776449 456.319208 
L 707.498553 457.351341 
L 710.220656 457.317732 
L 712.94276 458.092217 
L 715.664863 458.653085 
L 718.386966 458.525628 
L 721.10907 459.328937 
L 723.831173 459.247825 
L 726.553277 460.391984 
L 729.27538 460.366279 
L 731.997483 456.456815 
L 734.719587 453.127081 
L 737.44169 449.249222 
L 740.163793 446.583318 
L 742.885897 447.166181 
L 745.608 449.82354 
L 748.330104 456.396677 
L 751.052207 466.978261 
L 753.77431 473.073158 
L 756.496414 478.601039 
L 759.218517 482.494882 
L 761.940621 485.226924 
L 764.662724 489.294957 
L 767.384827 492.63157 
L 770.106931 494.969087 
L 772.829034 496.787618 
L 775.551137 498.095054 
L 778.273241 499.726378 
L 786.439551 505.293986 
L 789.161654 505.99293 
L 791.883758 507.694934 
L 794.605861 509.884943 
L 800.050068 513.26463 
L 802.772171 513.392109 
L 808.216378 510.130511 
L 810.938482 509.055683 
L 819.104792 509.606924 
L 821.826895 509.71814 
L 824.548998 509.493468 
L 827.271102 510.290896 
L 829.993205 511.206788 
L 835.437412 511.848221 
L 838.159515 511.452488 
L 840.881619 510.789087 
L 843.603722 509.596601 
L 846.325826 506.552874 
L 849.047929 503.945015 
L 854.492136 500.050784 
L 857.214239 499.392739 
L 859.936342 498.045908 
L 862.658446 495.629266 
L 865.380549 494.683846 
L 868.102653 491.742734 
L 876.268963 490.82761 
L 878.991066 492.226436 
L 881.71317 492.573441 
L 887.157376 497.448099 
L 889.87948 497.891695 
L 892.601583 499.303257 
L 895.323686 499.829264 
L 898.04579 502.112577 
L 903.489997 520.37714 
L 906.2121 531.531384 
L 908.934203 539.281975 
L 911.656307 540.95239 
L 914.37841 538.698969 
L 917.100514 529.668869 
L 919.822617 515.590742 
L 922.54472 509.688669 
L 925.266824 509.435118 
L 927.988927 509.813513 
L 933.433134 511.202552 
L 936.155237 506.239795 
L 941.599444 481.810794 
L 944.321547 470.559537 
L 947.043651 465.489576 
L 949.765754 465.371364 
L 952.487858 469.234669 
L 955.209961 484.210371 
L 957.932064 506.315909 
L 960.654168 518.560663 
L 963.376271 526.027977 
L 966.098375 528.007798 
L 968.820478 528.642798 
L 971.542581 528.978701 
L 974.264685 526.287947 
L 976.986788 524.142837 
L 982.430995 520.481558 
L 985.153098 520.513417 
L 987.875202 520.878884 
L 990.597305 521.502046 
L 993.319408 523.530605 
L 996.041512 523.91143 
L 998.763615 522.999707 
L 1001.485719 522.737678 
L 1004.207822 521.660054 
L 1006.929925 521.132271 
L 1009.652029 521.317718 
L 1012.374132 520.592864 
L 1015.096236 521.073119 
L 1017.818339 521.28617 
L 1020.540442 520.388262 
L 1023.262546 521.639851 
L 1025.984649 522.723867 
L 1028.706752 524.406616 
L 1031.428856 527.195433 
L 1034.150959 526.99927 
L 1036.873063 527.252843 
L 1039.595166 525.750317 
L 1042.317269 523.806848 
L 1045.039373 522.094632 
L 1047.761476 518.160454 
L 1050.48358 513.817417 
L 1050.48358 513.817417 
" style="fill:none;stroke:#348abd;stroke-linecap:square;stroke-width:1.5;"/>
   </g>
   <g id="line2d_34">
    <path clip-path="url(#pc2865a0c65)" d="M 89.581084 262.560523 
L 92.303187 204.031469 
L 95.025291 343.704621 
L 97.747394 199.766369 
L 100.469498 42.032138 
L 103.191601 183.531454 
L 105.913704 261.251804 
L 108.635808 460.895087 
L 111.357911 471.04697 
L 114.080014 322.611681 
L 116.802118 276.754735 
L 119.524221 99.011031 
L 122.246325 34.896364 
L 124.968428 294.339311 
L 130.412635 401.059762 
L 133.134738 383.068176 
L 135.856842 339.075905 
L 138.578945 318.211014 
L 141.301048 311.876858 
L 144.023152 381.420446 
L 146.745255 410.729777 
L 149.467359 429.953981 
L 152.189462 407.410175 
L 154.911565 413.108523 
L 157.633669 429.625382 
L 160.355772 453.166149 
L 163.077875 489.869263 
L 165.799979 513.70528 
L 168.522082 530.297585 
L 171.244186 513.899999 
L 173.966289 502.331038 
L 176.688392 481.81137 
L 179.410496 469.953003 
L 182.132599 507.467787 
L 184.854703 532.722584 
L 187.576806 553.538985 
L 190.298909 561.52983 
L 193.021013 539.039156 
L 195.743116 522.075588 
L 198.465219 515.460222 
L 201.187323 528.792891 
L 203.909426 567.297487 
L 206.63153 582.047138 
L 209.353633 576.202954 
L 212.075736 553.71816 
L 214.79784 503.955899 
L 217.519943 478.197493 
L 220.242047 495.212494 
L 222.96415 530.011403 
L 225.686253 562.753613 
L 228.408357 563.802138 
L 231.13046 546.87493 
L 233.852564 523.700117 
L 236.574667 509.72305 
L 239.29677 531.963387 
L 242.018874 560.594467 
L 244.740977 576.004916 
L 247.46308 575.469982 
L 250.185184 546.5191 
L 252.907287 528.382923 
L 255.629391 523.6678 
L 258.351494 540.344243 
L 261.073597 579.247939 
L 263.795701 576.134685 
L 266.517804 552.166517 
L 269.239908 511.256486 
L 271.962011 437.992747 
L 274.684114 451.481666 
L 277.406218 518.340869 
L 282.850424 574.827243 
L 285.572528 560.391041 
L 288.294631 509.824223 
L 291.016735 511.190725 
L 293.738838 497.98612 
L 296.460941 541.342884 
L 299.183045 576.595431 
L 301.905148 560.41117 
L 304.627252 545.407948 
L 307.349355 510.342573 
L 310.071458 471.936934 
L 315.515665 549.507462 
L 318.237768 556.418816 
L 320.959872 576.87024 
L 323.681975 568.289708 
L 326.404079 508.077036 
L 329.126182 480.384173 
L 331.848285 454.754963 
L 334.570389 445.574096 
L 337.292492 538.690396 
L 340.014596 582.549387 
L 342.736699 572.165397 
L 345.458802 559.042517 
L 348.180906 506.234998 
L 350.903009 458.958587 
L 353.625113 496.810097 
L 356.347216 532.468405 
L 359.069319 555.643618 
L 361.791423 529.587355 
L 364.513526 508.389887 
L 367.235629 489.698611 
L 369.957733 485.63649 
L 372.679836 554.128785 
L 375.40194 545.338232 
L 378.124043 545.480941 
L 380.846146 504.632203 
L 383.56825 368.243447 
L 386.290353 370.154282 
L 389.012457 325.860918 
L 391.73456 404.923683 
L 394.456663 495.575488 
L 397.178767 512.613375 
L 399.90087 535.139243 
L 402.622973 536.462426 
L 405.345077 510.405188 
L 410.789284 551.461851 
L 413.511387 547.036944 
L 416.23349 569.629836 
L 418.955594 536.937819 
L 421.677697 493.456097 
L 424.399801 502.132833 
L 427.121904 500.995928 
L 429.844007 548.254554 
L 432.566111 563.497702 
L 435.288214 561.44779 
L 438.010318 528.658673 
L 440.732421 480.526529 
L 443.454524 473.935183 
L 446.176628 487.869444 
L 448.898731 541.153635 
L 451.620834 552.670206 
L 454.342938 554.336341 
L 457.065041 514.480984 
L 459.787145 426.014316 
L 462.509248 414.901758 
L 465.231351 428.045949 
L 467.953455 502.90146 
L 470.675558 543.517799 
L 473.397662 555.998346 
L 476.119765 518.095969 
L 478.841868 438.337932 
L 481.563972 403.756591 
L 484.286075 405.645902 
L 487.008178 476.912765 
L 489.730282 532.641305 
L 492.452385 550.88433 
L 495.174489 508.442655 
L 497.896592 457.793679 
L 500.618695 416.633808 
L 503.340799 437.995372 
L 506.062902 512.906001 
L 508.785006 538.006169 
L 511.507109 558.965079 
L 514.229212 503.452016 
L 516.951316 442.621184 
L 519.673419 429.467203 
L 522.395523 420.103044 
L 525.117626 509.764798 
L 527.839729 542.219463 
L 530.561833 545.58585 
L 533.283936 505.972945 
L 536.006039 430.910659 
L 538.728143 395.77003 
L 541.450246 432.391908 
L 544.17235 514.608543 
L 546.894453 545.623386 
L 549.616556 552.501201 
L 552.33866 506.757123 
L 555.060763 441.302618 
L 557.782867 414.172826 
L 560.50497 446.285804 
L 563.227073 519.899001 
L 565.949177 543.9047 
L 568.67128 565.411307 
L 571.393383 535.603087 
L 574.115487 484.568123 
L 576.83759 472.886694 
L 579.559694 479.911492 
L 582.281797 532.061025 
L 585.0039 559.66035 
L 587.726004 568.383924 
L 590.448107 539.998483 
L 593.170211 487.380914 
L 595.892314 466.557895 
L 598.614417 465.557153 
L 601.336521 505.762041 
L 604.058624 529.560938 
L 606.780727 539.013866 
L 609.502831 506.534944 
L 612.224934 468.494995 
L 614.947038 466.25268 
L 617.669141 464.967714 
L 620.391244 524.550155 
L 623.113348 541.619705 
L 625.835451 537.679397 
L 628.557555 501.971046 
L 631.279658 441.74723 
L 634.001761 411.4947 
L 636.723865 440.447199 
L 639.445968 512.599605 
L 642.168072 534.374156 
L 644.890175 557.416864 
L 647.612278 534.707901 
L 650.334382 481.674624 
L 653.056485 463.101777 
L 655.778588 454.265218 
L 658.500692 500.279939 
L 661.222795 526.679596 
L 663.944899 549.721751 
L 666.667002 525.139016 
L 669.389105 477.084456 
L 672.111209 465.701042 
L 674.833312 433.318955 
L 677.555416 488.115509 
L 680.277519 517.037776 
L 682.999622 520.117493 
L 685.721726 500.645245 
L 688.443829 428.24045 
L 691.165932 392.593223 
L 693.888036 389.790584 
L 696.610139 455.721676 
L 699.332243 505.850064 
L 702.054346 522.205424 
L 704.776449 499.833035 
L 707.498553 435.465382 
L 710.220656 392.357961 
L 712.94276 395.211977 
L 715.664863 459.64775 
L 718.386966 504.957867 
L 721.10907 527.828589 
L 723.831173 499.265251 
L 726.553277 443.474491 
L 729.27538 392.178029 
L 731.997483 367.845727 
L 734.719587 436.339616 
L 737.44169 477.812854 
L 740.163793 509.16726 
L 742.885897 503.345292 
L 745.608 462.076 
L 748.330104 438.189994 
L 751.052207 441.916813 
L 756.496414 516.508019 
L 759.218517 536.424161 
L 761.940621 522.469591 
L 764.662724 490.552231 
L 767.384827 461.54628 
L 770.106931 458.279432 
L 775.551137 525.660075 
L 778.273241 547.843427 
L 780.995344 535.464827 
L 783.717448 503.931311 
L 786.439551 474.145219 
L 789.161654 463.172044 
L 791.883758 503.647632 
L 794.605861 540.990138 
L 797.327965 559.350138 
L 800.050068 547.615927 
L 805.494275 463.132347 
L 808.216378 451.353735 
L 813.660585 542.351828 
L 816.382688 561.487402 
L 819.104792 547.97566 
L 824.548998 461.559644 
L 827.271102 456.935732 
L 829.993205 502.535076 
L 832.715309 544.757813 
L 835.437412 563.571444 
L 838.159515 545.205534 
L 840.881619 500.958363 
L 843.603722 453.212243 
L 846.325826 435.629642 
L 851.770032 531.009696 
L 854.492136 550.059942 
L 857.214239 540.599215 
L 859.936342 491.530549 
L 862.658446 436.295748 
L 865.380549 429.011705 
L 868.102653 463.692283 
L 870.824756 528.81557 
L 873.546859 548.43078 
L 876.268963 538.016634 
L 878.991066 501.322334 
L 881.71317 438.724783 
L 884.435273 446.028983 
L 887.157376 480.797611 
L 889.87948 531.92074 
L 892.601583 558.311716 
L 895.323686 541.698681 
L 898.04579 517.305527 
L 900.767893 502.820798 
L 903.489997 509.784909 
L 906.2121 558.877321 
L 908.934203 586.174872 
L 911.656307 570.004619 
L 914.37841 525.924735 
L 917.100514 454.094828 
L 919.822617 404.273911 
L 922.54472 468.470394 
L 925.266824 557.102469 
L 927.988927 588.823636 
L 930.711031 574.709046 
L 933.433134 530.943578 
L 936.155237 419.355531 
L 938.877341 317.329157 
L 941.599444 384.41214 
L 944.321547 478.343671 
L 947.043651 553.333907 
L 949.765754 573.881563 
L 952.487858 557.986718 
L 955.209961 524.185439 
L 957.932064 472.067924 
L 960.654168 470.12542 
L 963.376271 530.61487 
L 966.098375 567.192653 
L 968.820478 578.326562 
L 971.542581 560.33804 
L 974.264685 505.350158 
L 976.986788 457.052159 
L 979.708891 456.979504 
L 982.430995 518.131834 
L 985.153098 567.415661 
L 987.875202 580.884834 
L 990.597305 564.70017 
L 993.319408 519.550073 
L 996.041512 459.717932 
L 998.763615 450.597444 
L 1001.485719 516.297631 
L 1004.207822 559.872294 
L 1006.929925 577.190355 
L 1009.652029 565.998299 
L 1015.096236 463.079719 
L 1017.818339 452.088799 
L 1023.262546 568.633422 
L 1025.984649 584.778464 
L 1028.706752 577.777541 
L 1031.428856 533.997812 
L 1034.150959 461.706577 
L 1036.873063 453.863813 
L 1039.595166 499.494588 
L 1042.317269 555.02914 
L 1045.039373 572.792957 
L 1047.761476 550.238293 
L 1050.48358 503.596551 
L 1050.48358 503.596551 
" style="fill:none;stroke:#348abd;stroke-dasharray:1.5,2.475;stroke-dashoffset:0;stroke-width:1.5;"/>
   </g>
   <g id="line2d_35">
    <path clip-path="url(#pc2865a0c65)" d="M 30.103125 513.773155 
L 1099.073125 513.773155 
" style="fill:none;stroke:#008000;stroke-linecap:square;stroke-opacity:0.5;stroke-width:1.5;"/>
   </g>
   <g id="patch_3">
    <path d="M 30.103125 616.52 
L 30.103125 7.2 
" style="fill:none;stroke:#ffffff;stroke-linecap:square;stroke-linejoin:miter;"/>
   </g>
   <g id="patch_4">
    <path d="M 1099.073125 616.52 
L 1099.073125 7.2 
" style="fill:none;stroke:#ffffff;stroke-linecap:square;stroke-linejoin:miter;"/>
   </g>
   <g id="patch_5">
    <path d="M 30.103125 616.52 
L 1099.073125 616.52 
" style="fill:none;stroke:#ffffff;stroke-linecap:square;stroke-linejoin:miter;"/>
   </g>
   <g id="patch_6">
    <path d="M 30.103125 7.2 
L 1099.073125 7.2 
" style="fill:none;stroke:#ffffff;stroke-linecap:square;stroke-linejoin:miter;"/>
   </g>
  </g>
  <g id="axes_2">
   <g id="matplotlib.axis_3">
    <g id="ytick_9">
     <g id="line2d_36">
      <path clip-path="url(#pc2865a0c65)" d="M 30.103125 589.00409 
L 1099.073125 589.00409 
" style="fill:none;stroke:#ffffff;stroke-linecap:square;stroke-width:0.8;"/>
     </g>
     <g id="line2d_37">
      <defs>
       <path d="M 0 0 
L 3.5 0 
" id="m7a2520bdaa" style="stroke:#555555;stroke-width:0.8;"/>
      </defs>
      <g>
       <use style="fill:#555555;stroke:#555555;stroke-width:0.8;" x="1099.073125" xlink:href="#m7a2520bdaa" y="589.00409"/>
      </g>
     </g>
     <g id="text_16">
      <!-- 0 -->
      <g style="fill:#555555;" transform="translate(1106.073125 592.803309)scale(0.1 -0.1)">
       <use xlink:href="#DejaVuSans-48"/>
      </g>
     </g>
    </g>
    <g id="ytick_10">
     <g id="line2d_38">
      <path clip-path="url(#pc2865a0c65)" d="M 30.103125 506.979676 
L 1099.073125 506.979676 
" style="fill:none;stroke:#ffffff;stroke-linecap:square;stroke-width:0.8;"/>
     </g>
     <g id="line2d_39">
      <g>
       <use style="fill:#555555;stroke:#555555;stroke-width:0.8;" x="1099.073125" xlink:href="#m7a2520bdaa" y="506.979676"/>
      </g>
     </g>
     <g id="text_17">
      <!-- 5000 -->
      <g style="fill:#555555;" transform="translate(1106.073125 510.778895)scale(0.1 -0.1)">
       <use xlink:href="#DejaVuSans-53"/>
       <use x="63.623047" xlink:href="#DejaVuSans-48"/>
       <use x="127.246094" xlink:href="#DejaVuSans-48"/>
       <use x="190.869141" xlink:href="#DejaVuSans-48"/>
      </g>
     </g>
    </g>
    <g id="ytick_11">
     <g id="line2d_40">
      <path clip-path="url(#pc2865a0c65)" d="M 30.103125 424.955262 
L 1099.073125 424.955262 
" style="fill:none;stroke:#ffffff;stroke-linecap:square;stroke-width:0.8;"/>
     </g>
     <g id="line2d_41">
      <g>
       <use style="fill:#555555;stroke:#555555;stroke-width:0.8;" x="1099.073125" xlink:href="#m7a2520bdaa" y="424.955262"/>
      </g>
     </g>
     <g id="text_18">
      <!-- 10000 -->
      <g style="fill:#555555;" transform="translate(1106.073125 428.754481)scale(0.1 -0.1)">
       <use xlink:href="#DejaVuSans-49"/>
       <use x="63.623047" xlink:href="#DejaVuSans-48"/>
       <use x="127.246094" xlink:href="#DejaVuSans-48"/>
       <use x="190.869141" xlink:href="#DejaVuSans-48"/>
       <use x="254.492188" xlink:href="#DejaVuSans-48"/>
      </g>
     </g>
    </g>
    <g id="ytick_12">
     <g id="line2d_42">
      <path clip-path="url(#pc2865a0c65)" d="M 30.103125 342.930848 
L 1099.073125 342.930848 
" style="fill:none;stroke:#ffffff;stroke-linecap:square;stroke-width:0.8;"/>
     </g>
     <g id="line2d_43">
      <g>
       <use style="fill:#555555;stroke:#555555;stroke-width:0.8;" x="1099.073125" xlink:href="#m7a2520bdaa" y="342.930848"/>
      </g>
     </g>
     <g id="text_19">
      <!-- 15000 -->
      <g style="fill:#555555;" transform="translate(1106.073125 346.730067)scale(0.1 -0.1)">
       <use xlink:href="#DejaVuSans-49"/>
       <use x="63.623047" xlink:href="#DejaVuSans-53"/>
       <use x="127.246094" xlink:href="#DejaVuSans-48"/>
       <use x="190.869141" xlink:href="#DejaVuSans-48"/>
       <use x="254.492188" xlink:href="#DejaVuSans-48"/>
      </g>
     </g>
    </g>
    <g id="ytick_13">
     <g id="line2d_44">
      <path clip-path="url(#pc2865a0c65)" d="M 30.103125 260.906434 
L 1099.073125 260.906434 
" style="fill:none;stroke:#ffffff;stroke-linecap:square;stroke-width:0.8;"/>
     </g>
     <g id="line2d_45">
      <g>
       <use style="fill:#555555;stroke:#555555;stroke-width:0.8;" x="1099.073125" xlink:href="#m7a2520bdaa" y="260.906434"/>
      </g>
     </g>
     <g id="text_20">
      <!-- 20000 -->
      <g style="fill:#555555;" transform="translate(1106.073125 264.705653)scale(0.1 -0.1)">
       <use xlink:href="#DejaVuSans-50"/>
       <use x="63.623047" xlink:href="#DejaVuSans-48"/>
       <use x="127.246094" xlink:href="#DejaVuSans-48"/>
       <use x="190.869141" xlink:href="#DejaVuSans-48"/>
       <use x="254.492188" xlink:href="#DejaVuSans-48"/>
      </g>
     </g>
    </g>
    <g id="ytick_14">
     <g id="line2d_46">
      <path clip-path="url(#pc2865a0c65)" d="M 30.103125 178.88202 
L 1099.073125 178.88202 
" style="fill:none;stroke:#ffffff;stroke-linecap:square;stroke-width:0.8;"/>
     </g>
     <g id="line2d_47">
      <g>
       <use style="fill:#555555;stroke:#555555;stroke-width:0.8;" x="1099.073125" xlink:href="#m7a2520bdaa" y="178.88202"/>
      </g>
     </g>
     <g id="text_21">
      <!-- 25000 -->
      <g style="fill:#555555;" transform="translate(1106.073125 182.681239)scale(0.1 -0.1)">
       <use xlink:href="#DejaVuSans-50"/>
       <use x="63.623047" xlink:href="#DejaVuSans-53"/>
       <use x="127.246094" xlink:href="#DejaVuSans-48"/>
       <use x="190.869141" xlink:href="#DejaVuSans-48"/>
       <use x="254.492188" xlink:href="#DejaVuSans-48"/>
      </g>
     </g>
    </g>
    <g id="ytick_15">
     <g id="line2d_48">
      <path clip-path="url(#pc2865a0c65)" d="M 30.103125 96.857606 
L 1099.073125 96.857606 
" style="fill:none;stroke:#ffffff;stroke-linecap:square;stroke-width:0.8;"/>
     </g>
     <g id="line2d_49">
      <g>
       <use style="fill:#555555;stroke:#555555;stroke-width:0.8;" x="1099.073125" xlink:href="#m7a2520bdaa" y="96.857606"/>
      </g>
     </g>
     <g id="text_22">
      <!-- 30000 -->
      <g style="fill:#555555;" transform="translate(1106.073125 100.656825)scale(0.1 -0.1)">
       <use xlink:href="#DejaVuSans-51"/>
       <use x="63.623047" xlink:href="#DejaVuSans-48"/>
       <use x="127.246094" xlink:href="#DejaVuSans-48"/>
       <use x="190.869141" xlink:href="#DejaVuSans-48"/>
       <use x="254.492188" xlink:href="#DejaVuSans-48"/>
      </g>
     </g>
    </g>
    <g id="ytick_16">
     <g id="line2d_50">
      <path clip-path="url(#pc2865a0c65)" d="M 30.103125 14.833192 
L 1099.073125 14.833192 
" style="fill:none;stroke:#ffffff;stroke-linecap:square;stroke-width:0.8;"/>
     </g>
     <g id="line2d_51">
      <g>
       <use style="fill:#555555;stroke:#555555;stroke-width:0.8;" x="1099.073125" xlink:href="#m7a2520bdaa" y="14.833192"/>
      </g>
     </g>
     <g id="text_23">
      <!-- 35000 -->
      <g style="fill:#555555;" transform="translate(1106.073125 18.632411)scale(0.1 -0.1)">
       <use xlink:href="#DejaVuSans-51"/>
       <use x="63.623047" xlink:href="#DejaVuSans-53"/>
       <use x="127.246094" xlink:href="#DejaVuSans-48"/>
       <use x="190.869141" xlink:href="#DejaVuSans-48"/>
       <use x="254.492188" xlink:href="#DejaVuSans-48"/>
      </g>
     </g>
    </g>
   </g>
   <g id="line2d_52">
    <path clip-path="url(#pc2865a0c65)" d="M 78.69267 588.134631 
L 81.414774 588.479134 
L 84.136877 588.309617 
L 89.581084 588.361019 
L 92.303187 588.287744 
L 95.025291 588.066668 
L 100.469498 587.290952 
L 103.191601 587.187835 
L 105.913704 586.698032 
L 108.635808 586.42618 
L 111.357911 585.945751 
L 114.080014 584.389631 
L 116.802118 583.325657 
L 119.524221 581.973426 
L 127.690531 575.27086 
L 130.412635 573.463979 
L 133.134738 568.779213 
L 135.856842 563.471062 
L 138.578945 558.849572 
L 141.301048 556.728655 
L 144.023152 549.960469 
L 146.745255 541.476801 
L 149.467359 534.268027 
L 152.189462 529.222354 
L 154.911565 522.608842 
L 157.633669 514.197824 
L 160.355772 509.470875 
L 163.077875 507.856166 
L 165.799979 508.205355 
L 168.522082 505.07671 
L 171.244186 502.259757 
L 173.966289 501.336396 
L 176.688392 501.83323 
L 179.410496 497.214084 
L 182.132599 499.731061 
L 184.854703 501.561378 
L 187.576806 504.959532 
L 190.298909 507.729614 
L 193.021013 509.723979 
L 195.743116 514.291567 
L 198.465219 521.59174 
L 201.187323 524.263392 
L 203.909426 528.3693 
L 206.63153 531.924472 
L 209.353633 536.864685 
L 212.075736 541.418212 
L 214.79784 542.646235 
L 217.519943 543.496945 
L 220.242047 545.282734 
L 225.686253 546.562315 
L 228.408357 547.766902 
L 231.13046 550.211229 
L 233.852564 553.853113 
L 242.018874 558.819106 
L 247.46308 563.053909 
L 250.185184 564.68971 
L 252.907287 567.291056 
L 255.629391 569.503372 
L 258.351494 570.297837 
L 261.073597 571.373528 
L 263.795701 572.210177 
L 266.517804 572.664827 
L 269.239908 573.672555 
L 271.962011 572.955428 
L 274.684114 573.250715 
L 277.406218 574.00534 
L 280.128321 573.424139 
L 282.850424 573.773328 
L 285.572528 574.595916 
L 288.294631 575.289608 
L 291.016735 576.768391 
L 293.738838 576.96525 
L 296.460941 577.000403 
L 299.183045 577.984696 
L 301.905148 577.987039 
L 304.627252 578.427628 
L 307.349355 579.489258 
L 310.071458 579.447074 
L 312.793562 579.803294 
L 318.237768 580.117331 
L 323.681975 582.05545 
L 326.404079 581.396912 
L 329.126182 581.162556 
L 331.848285 581.502372 
L 334.570389 581.399255 
L 337.292492 581.912494 
L 340.014596 581.959365 
L 342.736699 581.863279 
L 345.458802 582.411671 
L 348.180906 583.187387 
L 350.903009 583.152234 
L 353.625113 583.431117 
L 356.347216 583.11005 
L 359.069319 583.166295 
L 361.791423 582.788983 
L 364.513526 583.372528 
L 372.679836 583.688908 
L 380.846146 583.501424 
L 383.56825 582.301524 
L 386.290353 581.708604 
L 389.012457 580.67744 
L 391.73456 579.868914 
L 394.456663 579.57597 
L 397.178767 579.008829 
L 399.90087 578.891652 
L 402.622973 579.578313 
L 405.345077 579.376767 
L 408.06718 580.386839 
L 410.789284 581.031317 
L 413.511387 581.043035 
L 418.955594 581.624236 
L 421.677697 581.696887 
L 424.399801 582.317929 
L 429.844007 582.458542 
L 435.288214 582.873351 
L 443.454524 583.238946 
L 446.176628 583.217854 
L 448.898731 583.358467 
L 451.620834 583.306909 
L 454.342938 583.414712 
L 457.065041 583.199105 
L 462.509248 582.40464 
L 465.231351 582.512444 
L 476.119765 581.720322 
L 481.563972 580.586042 
L 489.730282 579.871257 
L 492.452385 579.33224 
L 495.174489 578.551836 
L 497.896592 578.422941 
L 500.618695 578.015162 
L 503.340799 578.167493 
L 506.062902 577.771432 
L 508.785006 577.194918 
L 511.507109 577.061335 
L 514.229212 576.726207 
L 516.951316 576.077042 
L 519.673419 575.685669 
L 522.395523 574.947449 
L 525.117626 575.118529 
L 527.839729 574.914639 
L 530.561833 573.778015 
L 533.283936 572.840593 
L 538.728143 571.446178 
L 541.450246 571.28213 
L 544.17235 570.989185 
L 546.894453 569.995518 
L 552.33866 568.715937 
L 555.060763 568.767495 
L 557.782867 567.316835 
L 563.227073 566.597364 
L 565.949177 566.859842 
L 568.67128 566.705167 
L 571.393383 567.173878 
L 574.115487 566.836406 
L 576.83759 568.137079 
L 579.559694 568.130048 
L 585.0039 568.507361 
L 587.726004 569.257298 
L 590.448107 569.716635 
L 595.892314 570.229873 
L 601.336521 569.276047 
L 604.058624 568.617508 
L 606.780727 568.804992 
L 609.502831 567.443387 
L 612.224934 567.370737 
L 614.947038 566.780161 
L 617.669141 566.873903 
L 620.391244 566.609081 
L 623.113348 566.824689 
L 625.835451 565.125611 
L 628.557555 564.417858 
L 631.279658 563.405442 
L 634.001761 561.842291 
L 636.723865 560.9119 
L 639.445968 560.923618 
L 642.168072 559.953386 
L 644.890175 560.262735 
L 647.612278 560.382257 
L 653.056485 559.334688 
L 655.778588 559.182357 
L 661.222795 557.921524 
L 663.944899 557.853561 
L 666.667002 557.009881 
L 669.389105 555.791233 
L 672.111209 555.659994 
L 674.833312 553.623445 
L 677.555416 553.17817 
L 680.277519 551.889215 
L 682.999622 549.475353 
L 685.721726 545.831126 
L 688.443829 541.511954 
L 691.165932 536.454563 
L 693.888036 533.632924 
L 696.610139 531.090167 
L 699.332243 527.614675 
L 702.054346 522.215125 
L 704.776449 516.168754 
L 707.498553 509.564617 
L 710.220656 502.278505 
L 712.94276 497.347666 
L 715.664863 492.993342 
L 718.386966 486.557941 
L 721.10907 480.785765 
L 723.831173 469.89058 
L 726.553277 460.731968 
L 729.27538 444.598937 
L 731.997483 431.50081 
L 737.44169 410.64083 
L 740.163793 393.371176 
L 742.885897 380.512091 
L 745.608 363.078388 
L 748.330104 352.895643 
L 751.052207 345.862635 
L 753.77431 337.866426 
L 756.496414 328.62579 
L 759.218517 323.352792 
L 761.940621 315.81592 
L 764.662724 309.195378 
L 767.384827 299.024351 
L 770.106931 294.71221 
L 772.829034 291.74527 
L 775.551137 291.792141 
L 778.273241 288.808796 
L 780.995344 284.412288 
L 783.717448 279.64081 
L 786.439551 281.839064 
L 789.161654 279.659559 
L 791.883758 285.609844 
L 797.327965 289.919641 
L 800.050068 288.17838 
L 802.772171 287.929963 
L 805.494275 286.751155 
L 808.216378 289.577482 
L 810.938482 289.48374 
L 813.660585 291.510915 
L 816.382688 288.998624 
L 819.104792 289.797776 
L 821.826895 291.771049 
L 824.548998 294.74502 
L 827.271102 297.393237 
L 829.993205 296.678453 
L 832.715309 296.561275 
L 835.437412 299.75554 
L 838.159515 300.275809 
L 840.881619 298.768904 
L 843.603722 294.965314 
L 846.325826 287.569056 
L 849.047929 284.843502 
L 851.770032 283.788902 
L 854.492136 275.481001 
L 857.214239 271.653976 
L 859.936342 256.594293 
L 862.658446 244.595293 
L 865.380549 238.893425 
L 868.102653 229.448899 
L 870.824756 228.563036 
L 873.546859 212.362042 
L 876.268963 204.759551 
L 878.991066 195.615 
L 881.71317 188.907747 
L 884.435273 182.882468 
L 887.157376 182.223929 
L 889.87948 170.281174 
L 892.601583 177.283716 
L 895.323686 164.928495 
L 898.04579 184.24876 
L 900.767893 223.725939 
L 903.489997 244.855428 
L 906.2121 258.136352 
L 908.934203 273.688181 
L 911.656307 279.03383 
L 914.37841 278.19718 
L 917.100514 284.311515 
L 919.822617 288.447889 
L 922.54472 296.509717 
L 925.266824 299.15559 
L 927.988927 301.487427 
L 930.711031 304.351251 
L 933.433134 318.789891 
L 936.155237 297.873666 
L 938.877341 269.741635 
L 941.599444 254.154653 
L 944.321547 247.991104 
L 947.043651 245.870187 
L 949.765754 249.706586 
L 952.487858 252.582128 
L 955.209961 274.80137 
L 957.932064 288.900195 
L 960.654168 296.127717 
L 963.376271 308.632925 
L 966.098375 311.991239 
L 968.820478 320.488968 
L 971.542581 331.65835 
L 974.264685 342.218407 
L 976.986788 347.517185 
L 979.708891 351.325461 
L 982.430995 352.291005 
L 985.153098 363.908006 
L 990.597305 377.081127 
L 993.319408 386.080377 
L 996.041512 395.679577 
L 1001.485719 400.802587 
L 1004.207822 401.500967 
L 1006.929925 409.696377 
L 1009.652029 417.519163 
L 1012.374132 420.129883 
L 1015.096236 424.432649 
L 1017.818339 430.469646 
L 1020.540442 432.98428 
L 1023.262546 439.393902 
L 1025.984649 443.220927 
L 1028.706752 452.534214 
L 1031.428856 459.677368 
L 1034.150959 464.671483 
L 1036.873063 470.535057 
L 1039.595166 470.790505 
L 1042.317269 469.672629 
L 1045.039373 470.881903 
L 1047.761476 470.95221 
L 1050.48358 472.702845 
L 1050.48358 472.702845 
" style="fill:none;stroke:#000000;stroke-linecap:square;stroke-width:1.5;"/>
   </g>
   <g id="line2d_53">
    <path clip-path="url(#pc2865a0c65)" d="M 78.69267 588.134631 
L 81.414774 588.823636 
L 84.136877 587.970582 
L 86.858981 588.544753 
L 89.581084 588.33149 
L 92.303187 587.921368 
L 95.025291 586.740216 
L 97.747394 585.083323 
L 100.469498 586.444928 
L 103.191601 587.248768 
L 105.913704 585.116133 
L 108.635808 586.428523 
L 111.357911 584.558367 
L 114.080014 575.847374 
L 116.802118 577.635506 
L 119.524221 576.979311 
L 122.246325 571.893797 
L 124.968428 569.744758 
L 127.690531 570.236904 
L 130.412635 571.910202 
L 133.134738 543.054013 
L 135.856842 540.478447 
L 138.578945 544.628882 
L 141.301048 557.047378 
L 144.023152 522.367456 
L 146.745255 510.851228 
L 149.467359 521.448783 
L 154.911565 494.183867 
L 157.633669 485.751758 
L 160.355772 523.95873 
L 163.077875 511.064492 
L 165.799979 513.295556 
L 168.522082 499.548264 
L 171.244186 488.015632 
L 173.966289 487.720344 
L 176.688392 489.229593 
L 179.410496 491.624706 
L 182.132599 528.683336 
L 184.854703 526.107769 
L 187.576806 523.335344 
L 190.298909 507.406203 
L 193.021013 501.680899 
L 195.743116 521.202709 
L 198.465219 542.725916 
L 201.187323 547.384902 
L 203.909426 554.849124 
L 206.63153 548.221551 
L 209.353633 541.987696 
L 212.075736 533.555586 
L 214.79784 529.798868 
L 217.519943 548.680888 
L 220.242047 559.885423 
L 222.96415 559.721374 
L 225.686253 552.306367 
L 228.408357 550.419806 
L 231.13046 550.665879 
L 233.852564 555.292056 
L 236.574667 560.508809 
L 239.29677 572.303919 
L 242.018874 570.236904 
L 244.740977 567.612123 
L 247.46308 564.757673 
L 250.185184 562.116487 
L 252.907287 573.501476 
L 255.629391 575.995018 
L 258.351494 577.865175 
L 261.073597 577.766745 
L 263.795701 573.468666 
L 266.517804 567.940221 
L 269.239908 569.170587 
L 271.962011 568.481582 
L 274.684114 578.062033 
L 277.406218 583.147547 
L 280.128321 573.698334 
L 282.850424 575.912994 
L 285.572528 573.698334 
L 288.294631 574.026432 
L 291.016735 578.833063 
L 293.738838 579.440043 
L 296.460941 583.39362 
L 299.183045 580.588385 
L 301.905148 575.929398 
L 304.627252 576.782452 
L 307.349355 581.457844 
L 310.071458 578.537775 
L 312.793562 581.933586 
L 315.515665 584.263079 
L 318.237768 581.917181 
L 320.959872 583.065522 
L 323.681975 583.213166 
L 326.404079 576.848072 
L 329.126182 576.897287 
L 331.848285 584.312294 
L 334.570389 583.541264 
L 337.292492 585.50985 
L 340.014596 583.39362 
L 342.736699 582.540566 
L 345.458802 580.686814 
L 353.625113 585.493445 
L 356.347216 583.262381 
L 359.069319 583.787337 
L 361.791423 579.89938 
L 364.513526 584.77163 
L 367.235629 583.295191 
L 369.957733 584.952084 
L 372.679836 585.854353 
L 375.40194 582.803044 
L 378.124043 583.344406 
L 380.846146 579.489258 
L 383.56825 576.37233 
L 386.290353 579.144756 
L 389.012457 577.733936 
L 391.73456 580.194668 
L 394.456663 580.752434 
L 397.178767 579.374424 
L 399.90087 578.669014 
L 402.622973 581.178961 
L 405.345077 577.733936 
L 408.06718 584.80444 
L 410.789284 584.706011 
L 413.511387 580.834458 
L 416.23349 581.359415 
L 418.955594 580.752434 
L 421.677697 581.687512 
L 424.399801 582.08123 
L 427.121904 585.083323 
L 429.844007 585.411421 
L 432.566111 582.606186 
L 435.288214 582.491352 
L 438.010318 581.753132 
L 440.732421 582.524161 
L 443.454524 582.803044 
L 446.176628 584.935679 
L 448.898731 586.395714 
L 451.620834 582.245278 
L 454.342938 583.245976 
L 457.065041 580.243883 
L 459.787145 579.440043 
L 462.509248 580.325907 
L 465.231351 585.690304 
L 467.953455 584.919274 
L 470.675558 580.440741 
L 473.397662 581.556273 
L 476.119765 579.669712 
L 478.841868 575.634111 
L 481.563972 576.191877 
L 484.286075 584.000601 
L 487.008178 583.42643 
L 489.730282 578.619799 
L 492.452385 577.78315 
L 495.174489 574.206886 
L 497.896592 574.731842 
L 500.618695 573.337427 
L 503.340799 585.066918 
L 506.062902 580.654005 
L 508.785006 574.584198 
L 511.507109 576.848072 
L 514.229212 571.860988 
L 516.951316 570.187689 
L 519.673419 570.597812 
L 522.395523 579.89938 
L 525.117626 581.851561 
L 527.839729 573.156973 
L 530.561833 568.891704 
L 533.283936 565.299034 
L 536.006039 565.233415 
L 538.728143 565.791181 
L 541.450246 578.751038 
L 544.17235 579.800951 
L 546.894453 566.201303 
L 549.616556 564.232717 
L 552.33866 561.000955 
L 555.060763 565.594322 
L 557.782867 555.636558 
L 560.50497 576.175472 
L 563.227073 577.340218 
L 565.949177 568.03865 
L 568.67128 563.149995 
L 571.393383 564.281932 
L 574.115487 563.232019 
L 576.83759 564.741268 
L 579.559694 576.126257 
L 582.281797 578.997112 
L 585.0039 569.022943 
L 587.726004 568.399557 
L 590.448107 567.497289 
L 593.170211 565.167795 
L 595.892314 566.398162 
L 598.614417 572.796066 
L 601.336521 575.650515 
L 604.058624 564.413171 
L 606.780727 569.711948 
L 609.502831 557.966052 
L 612.224934 564.659244 
L 614.947038 562.264131 
L 617.669141 573.452261 
L 620.391244 573.796764 
L 625.835451 557.818408 
L 628.557555 553.011777 
L 631.279658 557.572335 
L 634.001761 551.322074 
L 636.723865 566.939523 
L 639.445968 573.878788 
L 642.168072 559.130798 
L 644.890175 559.983852 
L 647.612278 553.848426 
L 650.334382 553.684377 
L 653.056485 547.877049 
L 655.778588 565.873205 
L 658.500692 569.44947 
L 661.222795 554.73429 
L 663.944899 559.508111 
L 666.667002 547.942668 
L 669.389105 545.153838 
L 672.111209 546.958375 
L 674.833312 551.617362 
L 677.555416 566.332542 
L 680.277519 545.711604 
L 682.999622 542.611082 
L 685.721726 522.433076 
L 688.443829 514.919639 
L 691.165932 511.556638 
L 693.888036 531.865883 
L 696.610139 548.533244 
L 699.332243 521.383163 
L 702.054346 504.814232 
L 704.776449 480.108478 
L 707.498553 468.69068 
L 710.220656 460.553858 
L 712.94276 497.35001 
L 715.664863 518.052972 
L 718.386966 476.335355 
L 721.10907 464.409005 
L 723.831173 403.842178 
L 726.553277 404.580398 
L 729.27538 347.622645 
L 731.997483 405.66312 
L 734.719587 446.527683 
L 737.44169 401.840782 
L 740.163793 343.521424 
L 742.885897 313.828586 
L 745.608 282.544474 
L 748.330104 276.343429 
L 751.052207 356.432067 
L 753.77431 390.554223 
L 756.496414 337.156329 
L 759.218517 306.610438 
L 761.940621 261.070483 
L 764.662724 236.200681 
L 767.384827 205.146237 
L 770.106931 326.247082 
L 772.829034 369.785641 
L 775.551137 337.484427 
L 778.273241 285.727022 
L 780.995344 230.294923 
L 783.717448 202.800339 
L 786.439551 220.534017 
L 789.161654 310.990541 
L 791.883758 411.437639 
L 794.605861 352.462085 
L 797.327965 300.917943 
L 800.050068 218.106095 
L 802.772171 201.061422 
L 805.494275 212.282361 
L 808.216378 330.77483 
L 810.938482 410.781443 
L 813.660585 366.652309 
L 816.382688 283.331909 
L 819.104792 223.70016 
L 821.826895 214.874333 
L 824.548998 233.100158 
L 827.271102 349.312347 
L 829.993205 405.777954 
L 832.715309 365.832064 
L 835.437412 305.691764 
L 838.159515 227.342044 
L 840.881619 204.325993 
L 843.603722 206.475033 
L 849.047929 386.699075 
L 851.770032 358.449867 
L 854.492136 247.536455 
L 857.214239 200.55287 
L 859.936342 98.908216 
L 862.658446 122.482033 
L 865.380549 257.625457 
L 868.102653 320.587398 
L 870.824756 352.248821 
L 873.546859 134.1295 
L 876.268963 147.33543 
L 878.991066 34.896364 
L 881.71317 75.531258 
L 884.435273 215.448504 
L 887.157376 315.977626 
L 889.87948 268.649539 
L 892.601583 183.14729 
L 895.323686 60.848888 
L 898.04579 170.138217 
L 900.767893 351.871509 
L 903.489997 363.354927 
L 906.2121 408.944096 
L 908.934203 377.512341 
L 911.656307 220.566827 
L 914.37841 54.992345 
L 917.100514 212.938557 
L 919.822617 380.826127 
L 922.54472 419.787724 
L 925.266824 427.465209 
L 927.988927 393.835199 
L 930.711031 240.613594 
L 933.433134 156.062828 
L 936.155237 66.524978 
L 938.877341 183.901914 
L 941.599444 310.678848 
L 944.321547 384.320367 
L 947.043651 378.98878 
L 949.765754 267.468387 
L 952.487858 176.191619 
L 955.209961 222.059672 
L 957.932064 282.593689 
L 960.654168 361.271507 
L 963.376271 471.856822 
L 966.098375 402.496977 
L 971.542581 254.377291 
L 974.264685 295.980073 
L 976.986788 319.685129 
L 979.708891 387.929442 
L 982.430995 478.615634 
L 985.153098 483.815982 
L 987.875202 372.426827 
L 990.597305 301.114802 
L 993.319408 358.974823 
L 996.041512 386.879529 
L 998.763615 405.400642 
L 1001.485719 497.005507 
L 1004.207822 488.704637 
L 1006.929925 429.794702 
L 1009.652029 355.874301 
L 1012.374132 377.249863 
L 1015.096236 416.998894 
L 1017.818339 447.65962 
L 1020.540442 514.607947 
L 1023.262546 533.571991 
L 1025.984649 456.583876 
L 1028.706752 421.067305 
L 1031.428856 427.251946 
L 1034.150959 451.957699 
L 1036.873063 488.704637 
L 1039.595166 516.396079 
L 1042.317269 525.746862 
L 1045.039373 465.048796 
L 1047.761476 421.559451 
L 1050.48358 439.506393 
L 1050.48358 439.506393 
" style="fill:none;stroke:#000000;stroke-dasharray:1.5,2.475;stroke-dashoffset:0;stroke-width:1.5;"/>
   </g>
   <g id="patch_7">
    <path d="M 30.103125 616.52 
L 30.103125 7.2 
" style="fill:none;stroke:#ffffff;stroke-linecap:square;stroke-linejoin:miter;"/>
   </g>
   <g id="patch_8">
    <path d="M 1099.073125 616.52 
L 1099.073125 7.2 
" style="fill:none;stroke:#ffffff;stroke-linecap:square;stroke-linejoin:miter;"/>
   </g>
   <g id="patch_9">
    <path d="M 30.103125 616.52 
L 1099.073125 616.52 
" style="fill:none;stroke:#ffffff;stroke-linecap:square;stroke-linejoin:miter;"/>
   </g>
   <g id="patch_10">
    <path d="M 30.103125 7.2 
L 1099.073125 7.2 
" style="fill:none;stroke:#ffffff;stroke-linecap:square;stroke-linejoin:miter;"/>
   </g>
   <g id="legend_1">
    <g id="patch_11">
     <path d="M 37.103125 103.26875 
L 194.298438 103.26875 
Q 196.298438 103.26875 196.298438 101.26875 
L 196.298438 14.2 
Q 196.298438 12.2 194.298438 12.2 
L 37.103125 12.2 
Q 35.103125 12.2 35.103125 14.2 
L 35.103125 101.26875 
Q 35.103125 103.26875 37.103125 103.26875 
z
" style="fill:#e5e5e5;opacity:0.8;stroke:#cccccc;stroke-linejoin:miter;stroke-width:0.5;"/>
    </g>
    <g id="line2d_54">
     <path d="M 39.103125 20.298437 
L 59.103125 20.298437 
" style="fill:none;stroke:#e24a33;stroke-linecap:square;stroke-width:1.5;"/>
    </g>
    <g id="line2d_55"/>
    <g id="text_24">
     <!-- Logistic rate rolling week -->
     <g transform="translate(67.103125 23.798437)scale(0.1 -0.1)">
      <defs>
       <path d="M 9.8125 72.90625 
L 19.671875 72.90625 
L 19.671875 8.296875 
L 55.171875 8.296875 
L 55.171875 0 
L 9.8125 0 
z
" id="DejaVuSans-76"/>
       <path d="M 30.609375 48.390625 
Q 23.390625 48.390625 19.1875 42.75 
Q 14.984375 37.109375 14.984375 27.296875 
Q 14.984375 17.484375 19.15625 11.84375 
Q 23.34375 6.203125 30.609375 6.203125 
Q 37.796875 6.203125 41.984375 11.859375 
Q 46.1875 17.53125 46.1875 27.296875 
Q 46.1875 37.015625 41.984375 42.703125 
Q 37.796875 48.390625 30.609375 48.390625 
z
M 30.609375 56 
Q 42.328125 56 49.015625 48.375 
Q 55.71875 40.765625 55.71875 27.296875 
Q 55.71875 13.875 49.015625 6.21875 
Q 42.328125 -1.421875 30.609375 -1.421875 
Q 18.84375 -1.421875 12.171875 6.21875 
Q 5.515625 13.875 5.515625 27.296875 
Q 5.515625 40.765625 12.171875 48.375 
Q 18.84375 56 30.609375 56 
z
" id="DejaVuSans-111"/>
       <path d="M 45.40625 27.984375 
Q 45.40625 37.75 41.375 43.109375 
Q 37.359375 48.484375 30.078125 48.484375 
Q 22.859375 48.484375 18.828125 43.109375 
Q 14.796875 37.75 14.796875 27.984375 
Q 14.796875 18.265625 18.828125 12.890625 
Q 22.859375 7.515625 30.078125 7.515625 
Q 37.359375 7.515625 41.375 12.890625 
Q 45.40625 18.265625 45.40625 27.984375 
z
M 54.390625 6.78125 
Q 54.390625 -7.171875 48.1875 -13.984375 
Q 42 -20.796875 29.203125 -20.796875 
Q 24.46875 -20.796875 20.265625 -20.09375 
Q 16.0625 -19.390625 12.109375 -17.921875 
L 12.109375 -9.1875 
Q 16.0625 -11.328125 19.921875 -12.34375 
Q 23.78125 -13.375 27.78125 -13.375 
Q 36.625 -13.375 41.015625 -8.765625 
Q 45.40625 -4.15625 45.40625 5.171875 
L 45.40625 9.625 
Q 42.625 4.78125 38.28125 2.390625 
Q 33.9375 0 27.875 0 
Q 17.828125 0 11.671875 7.65625 
Q 5.515625 15.328125 5.515625 27.984375 
Q 5.515625 40.671875 11.671875 48.328125 
Q 17.828125 56 27.875 56 
Q 33.9375 56 38.28125 53.609375 
Q 42.625 51.21875 45.40625 46.390625 
L 45.40625 54.6875 
L 54.390625 54.6875 
z
" id="DejaVuSans-103"/>
       <path d="M 9.421875 54.6875 
L 18.40625 54.6875 
L 18.40625 0 
L 9.421875 0 
z
M 9.421875 75.984375 
L 18.40625 75.984375 
L 18.40625 64.59375 
L 9.421875 64.59375 
z
" id="DejaVuSans-105"/>
       <path d="M 44.28125 53.078125 
L 44.28125 44.578125 
Q 40.484375 46.53125 36.375 47.5 
Q 32.28125 48.484375 27.875 48.484375 
Q 21.1875 48.484375 17.84375 46.4375 
Q 14.5 44.390625 14.5 40.28125 
Q 14.5 37.15625 16.890625 35.375 
Q 19.28125 33.59375 26.515625 31.984375 
L 29.59375 31.296875 
Q 39.15625 29.25 43.1875 25.515625 
Q 47.21875 21.78125 47.21875 15.09375 
Q 47.21875 7.46875 41.1875 3.015625 
Q 35.15625 -1.421875 24.609375 -1.421875 
Q 20.21875 -1.421875 15.453125 -0.5625 
Q 10.6875 0.296875 5.421875 2 
L 5.421875 11.28125 
Q 10.40625 8.6875 15.234375 7.390625 
Q 20.0625 6.109375 24.8125 6.109375 
Q 31.15625 6.109375 34.5625 8.28125 
Q 37.984375 10.453125 37.984375 14.40625 
Q 37.984375 18.0625 35.515625 20.015625 
Q 33.0625 21.96875 24.703125 23.78125 
L 21.578125 24.515625 
Q 13.234375 26.265625 9.515625 29.90625 
Q 5.8125 33.546875 5.8125 39.890625 
Q 5.8125 47.609375 11.28125 51.796875 
Q 16.75 56 26.8125 56 
Q 31.78125 56 36.171875 55.265625 
Q 40.578125 54.546875 44.28125 53.078125 
z
" id="DejaVuSans-115"/>
       <path d="M 18.3125 70.21875 
L 18.3125 54.6875 
L 36.8125 54.6875 
L 36.8125 47.703125 
L 18.3125 47.703125 
L 18.3125 18.015625 
Q 18.3125 11.328125 20.140625 9.421875 
Q 21.96875 7.515625 27.59375 7.515625 
L 36.8125 7.515625 
L 36.8125 0 
L 27.59375 0 
Q 17.1875 0 13.234375 3.875 
Q 9.28125 7.765625 9.28125 18.015625 
L 9.28125 47.703125 
L 2.6875 47.703125 
L 2.6875 54.6875 
L 9.28125 54.6875 
L 9.28125 70.21875 
z
" id="DejaVuSans-116"/>
       <path d="M 48.78125 52.59375 
L 48.78125 44.1875 
Q 44.96875 46.296875 41.140625 47.34375 
Q 37.3125 48.390625 33.40625 48.390625 
Q 24.65625 48.390625 19.8125 42.84375 
Q 14.984375 37.3125 14.984375 27.296875 
Q 14.984375 17.28125 19.8125 11.734375 
Q 24.65625 6.203125 33.40625 6.203125 
Q 37.3125 6.203125 41.140625 7.25 
Q 44.96875 8.296875 48.78125 10.40625 
L 48.78125 2.09375 
Q 45.015625 0.34375 40.984375 -0.53125 
Q 36.96875 -1.421875 32.421875 -1.421875 
Q 20.0625 -1.421875 12.78125 6.34375 
Q 5.515625 14.109375 5.515625 27.296875 
Q 5.515625 40.671875 12.859375 48.328125 
Q 20.21875 56 33.015625 56 
Q 37.15625 56 41.109375 55.140625 
Q 45.0625 54.296875 48.78125 52.59375 
z
" id="DejaVuSans-99"/>
       <path id="DejaVuSans-32"/>
       <path d="M 41.109375 46.296875 
Q 39.59375 47.171875 37.8125 47.578125 
Q 36.03125 48 33.890625 48 
Q 26.265625 48 22.1875 43.046875 
Q 18.109375 38.09375 18.109375 28.8125 
L 18.109375 0 
L 9.078125 0 
L 9.078125 54.6875 
L 18.109375 54.6875 
L 18.109375 46.1875 
Q 20.953125 51.171875 25.484375 53.578125 
Q 30.03125 56 36.53125 56 
Q 37.453125 56 38.578125 55.875 
Q 39.703125 55.765625 41.0625 55.515625 
z
" id="DejaVuSans-114"/>
       <path d="M 34.28125 27.484375 
Q 23.390625 27.484375 19.1875 25 
Q 14.984375 22.515625 14.984375 16.5 
Q 14.984375 11.71875 18.140625 8.90625 
Q 21.296875 6.109375 26.703125 6.109375 
Q 34.1875 6.109375 38.703125 11.40625 
Q 43.21875 16.703125 43.21875 25.484375 
L 43.21875 27.484375 
z
M 52.203125 31.203125 
L 52.203125 0 
L 43.21875 0 
L 43.21875 8.296875 
Q 40.140625 3.328125 35.546875 0.953125 
Q 30.953125 -1.421875 24.3125 -1.421875 
Q 15.921875 -1.421875 10.953125 3.296875 
Q 6 8.015625 6 15.921875 
Q 6 25.140625 12.171875 29.828125 
Q 18.359375 34.515625 30.609375 34.515625 
L 43.21875 34.515625 
L 43.21875 35.40625 
Q 43.21875 41.609375 39.140625 45 
Q 35.0625 48.390625 27.6875 48.390625 
Q 23 48.390625 18.546875 47.265625 
Q 14.109375 46.140625 10.015625 43.890625 
L 10.015625 52.203125 
Q 14.9375 54.109375 19.578125 55.046875 
Q 24.21875 56 28.609375 56 
Q 40.484375 56 46.34375 49.84375 
Q 52.203125 43.703125 52.203125 31.203125 
z
" id="DejaVuSans-97"/>
       <path d="M 56.203125 29.59375 
L 56.203125 25.203125 
L 14.890625 25.203125 
Q 15.484375 15.921875 20.484375 11.0625 
Q 25.484375 6.203125 34.421875 6.203125 
Q 39.59375 6.203125 44.453125 7.46875 
Q 49.3125 8.734375 54.109375 11.28125 
L 54.109375 2.78125 
Q 49.265625 0.734375 44.1875 -0.34375 
Q 39.109375 -1.421875 33.890625 -1.421875 
Q 20.796875 -1.421875 13.15625 6.1875 
Q 5.515625 13.8125 5.515625 26.8125 
Q 5.515625 40.234375 12.765625 48.109375 
Q 20.015625 56 32.328125 56 
Q 43.359375 56 49.78125 48.890625 
Q 56.203125 41.796875 56.203125 29.59375 
z
M 47.21875 32.234375 
Q 47.125 39.59375 43.09375 43.984375 
Q 39.0625 48.390625 32.421875 48.390625 
Q 24.90625 48.390625 20.390625 44.140625 
Q 15.875 39.890625 15.1875 32.171875 
z
" id="DejaVuSans-101"/>
       <path d="M 9.421875 75.984375 
L 18.40625 75.984375 
L 18.40625 0 
L 9.421875 0 
z
" id="DejaVuSans-108"/>
       <path d="M 54.890625 33.015625 
L 54.890625 0 
L 45.90625 0 
L 45.90625 32.71875 
Q 45.90625 40.484375 42.875 44.328125 
Q 39.84375 48.1875 33.796875 48.1875 
Q 26.515625 48.1875 22.3125 43.546875 
Q 18.109375 38.921875 18.109375 30.90625 
L 18.109375 0 
L 9.078125 0 
L 9.078125 54.6875 
L 18.109375 54.6875 
L 18.109375 46.1875 
Q 21.34375 51.125 25.703125 53.5625 
Q 30.078125 56 35.796875 56 
Q 45.21875 56 50.046875 50.171875 
Q 54.890625 44.34375 54.890625 33.015625 
z
" id="DejaVuSans-110"/>
       <path d="M 4.203125 54.6875 
L 13.1875 54.6875 
L 24.421875 12.015625 
L 35.59375 54.6875 
L 46.1875 54.6875 
L 57.421875 12.015625 
L 68.609375 54.6875 
L 77.59375 54.6875 
L 63.28125 0 
L 52.6875 0 
L 40.921875 44.828125 
L 29.109375 0 
L 18.5 0 
z
" id="DejaVuSans-119"/>
       <path d="M 9.078125 75.984375 
L 18.109375 75.984375 
L 18.109375 31.109375 
L 44.921875 54.6875 
L 56.390625 54.6875 
L 27.390625 29.109375 
L 57.625 0 
L 45.90625 0 
L 18.109375 26.703125 
L 18.109375 0 
L 9.078125 0 
z
" id="DejaVuSans-107"/>
      </defs>
      <use xlink:href="#DejaVuSans-76"/>
      <use x="53.962891" xlink:href="#DejaVuSans-111"/>
      <use x="115.144531" xlink:href="#DejaVuSans-103"/>
      <use x="178.621094" xlink:href="#DejaVuSans-105"/>
      <use x="206.404297" xlink:href="#DejaVuSans-115"/>
      <use x="258.503906" xlink:href="#DejaVuSans-116"/>
      <use x="297.712891" xlink:href="#DejaVuSans-105"/>
      <use x="325.496094" xlink:href="#DejaVuSans-99"/>
      <use x="380.476562" xlink:href="#DejaVuSans-32"/>
      <use x="412.263672" xlink:href="#DejaVuSans-114"/>
      <use x="453.376953" xlink:href="#DejaVuSans-97"/>
      <use x="514.65625" xlink:href="#DejaVuSans-116"/>
      <use x="553.865234" xlink:href="#DejaVuSans-101"/>
      <use x="615.388672" xlink:href="#DejaVuSans-32"/>
      <use x="647.175781" xlink:href="#DejaVuSans-114"/>
      <use x="686.039062" xlink:href="#DejaVuSans-111"/>
      <use x="747.220703" xlink:href="#DejaVuSans-108"/>
      <use x="775.003906" xlink:href="#DejaVuSans-108"/>
      <use x="802.787109" xlink:href="#DejaVuSans-105"/>
      <use x="830.570312" xlink:href="#DejaVuSans-110"/>
      <use x="893.949219" xlink:href="#DejaVuSans-103"/>
      <use x="957.425781" xlink:href="#DejaVuSans-32"/>
      <use x="989.212891" xlink:href="#DejaVuSans-119"/>
      <use x="1071" xlink:href="#DejaVuSans-101"/>
      <use x="1132.523438" xlink:href="#DejaVuSans-101"/>
      <use x="1194.046875" xlink:href="#DejaVuSans-107"/>
     </g>
    </g>
    <g id="line2d_56">
     <path d="M 39.103125 34.976562 
L 59.103125 34.976562 
" style="fill:none;stroke:#e24a33;stroke-dasharray:1.5,2.475;stroke-dashoffset:0;stroke-width:1.5;"/>
    </g>
    <g id="line2d_57"/>
    <g id="text_25">
     <!-- Logistic rate -->
     <g transform="translate(67.103125 38.476562)scale(0.1 -0.1)">
      <use xlink:href="#DejaVuSans-76"/>
      <use x="53.962891" xlink:href="#DejaVuSans-111"/>
      <use x="115.144531" xlink:href="#DejaVuSans-103"/>
      <use x="178.621094" xlink:href="#DejaVuSans-105"/>
      <use x="206.404297" xlink:href="#DejaVuSans-115"/>
      <use x="258.503906" xlink:href="#DejaVuSans-116"/>
      <use x="297.712891" xlink:href="#DejaVuSans-105"/>
      <use x="325.496094" xlink:href="#DejaVuSans-99"/>
      <use x="380.476562" xlink:href="#DejaVuSans-32"/>
      <use x="412.263672" xlink:href="#DejaVuSans-114"/>
      <use x="453.376953" xlink:href="#DejaVuSans-97"/>
      <use x="514.65625" xlink:href="#DejaVuSans-116"/>
      <use x="553.865234" xlink:href="#DejaVuSans-101"/>
     </g>
    </g>
    <g id="line2d_58">
     <path d="M 39.103125 49.654687 
L 59.103125 49.654687 
" style="fill:none;stroke:#348abd;stroke-linecap:square;stroke-width:1.5;"/>
    </g>
    <g id="line2d_59"/>
    <g id="text_26">
     <!-- RKI rate rolling week -->
     <g transform="translate(67.103125 53.154687)scale(0.1 -0.1)">
      <defs>
       <path d="M 44.390625 34.1875 
Q 47.5625 33.109375 50.5625 29.59375 
Q 53.5625 26.078125 56.59375 19.921875 
L 66.609375 0 
L 56 0 
L 46.6875 18.703125 
Q 43.0625 26.03125 39.671875 28.421875 
Q 36.28125 30.8125 30.421875 30.8125 
L 19.671875 30.8125 
L 19.671875 0 
L 9.8125 0 
L 9.8125 72.90625 
L 32.078125 72.90625 
Q 44.578125 72.90625 50.734375 67.671875 
Q 56.890625 62.453125 56.890625 51.90625 
Q 56.890625 45.015625 53.6875 40.46875 
Q 50.484375 35.9375 44.390625 34.1875 
z
M 19.671875 64.796875 
L 19.671875 38.921875 
L 32.078125 38.921875 
Q 39.203125 38.921875 42.84375 42.21875 
Q 46.484375 45.515625 46.484375 51.90625 
Q 46.484375 58.296875 42.84375 61.546875 
Q 39.203125 64.796875 32.078125 64.796875 
z
" id="DejaVuSans-82"/>
       <path d="M 9.8125 72.90625 
L 19.671875 72.90625 
L 19.671875 42.09375 
L 52.390625 72.90625 
L 65.09375 72.90625 
L 28.90625 38.921875 
L 67.671875 0 
L 54.6875 0 
L 19.671875 35.109375 
L 19.671875 0 
L 9.8125 0 
z
" id="DejaVuSans-75"/>
       <path d="M 9.8125 72.90625 
L 19.671875 72.90625 
L 19.671875 0 
L 9.8125 0 
z
" id="DejaVuSans-73"/>
      </defs>
      <use xlink:href="#DejaVuSans-82"/>
      <use x="69.482422" xlink:href="#DejaVuSans-75"/>
      <use x="135.058594" xlink:href="#DejaVuSans-73"/>
      <use x="164.550781" xlink:href="#DejaVuSans-32"/>
      <use x="196.337891" xlink:href="#DejaVuSans-114"/>
      <use x="237.451172" xlink:href="#DejaVuSans-97"/>
      <use x="298.730469" xlink:href="#DejaVuSans-116"/>
      <use x="337.939453" xlink:href="#DejaVuSans-101"/>
      <use x="399.462891" xlink:href="#DejaVuSans-32"/>
      <use x="431.25" xlink:href="#DejaVuSans-114"/>
      <use x="470.113281" xlink:href="#DejaVuSans-111"/>
      <use x="531.294922" xlink:href="#DejaVuSans-108"/>
      <use x="559.078125" xlink:href="#DejaVuSans-108"/>
      <use x="586.861328" xlink:href="#DejaVuSans-105"/>
      <use x="614.644531" xlink:href="#DejaVuSans-110"/>
      <use x="678.023438" xlink:href="#DejaVuSans-103"/>
      <use x="741.5" xlink:href="#DejaVuSans-32"/>
      <use x="773.287109" xlink:href="#DejaVuSans-119"/>
      <use x="855.074219" xlink:href="#DejaVuSans-101"/>
      <use x="916.597656" xlink:href="#DejaVuSans-101"/>
      <use x="978.121094" xlink:href="#DejaVuSans-107"/>
     </g>
    </g>
    <g id="line2d_60">
     <path d="M 39.103125 64.332812 
L 59.103125 64.332812 
" style="fill:none;stroke:#348abd;stroke-dasharray:1.5,2.475;stroke-dashoffset:0;stroke-width:1.5;"/>
    </g>
    <g id="line2d_61"/>
    <g id="text_27">
     <!-- RKI rate -->
     <g transform="translate(67.103125 67.832812)scale(0.1 -0.1)">
      <use xlink:href="#DejaVuSans-82"/>
      <use x="69.482422" xlink:href="#DejaVuSans-75"/>
      <use x="135.058594" xlink:href="#DejaVuSans-73"/>
      <use x="164.550781" xlink:href="#DejaVuSans-32"/>
      <use x="196.337891" xlink:href="#DejaVuSans-114"/>
      <use x="237.451172" xlink:href="#DejaVuSans-97"/>
      <use x="298.730469" xlink:href="#DejaVuSans-116"/>
      <use x="337.939453" xlink:href="#DejaVuSans-101"/>
     </g>
    </g>
    <g id="line2d_62">
     <path d="M 39.103125 79.010937 
L 59.103125 79.010937 
" style="fill:none;stroke:#000000;stroke-linecap:square;stroke-width:1.5;"/>
    </g>
    <g id="line2d_63"/>
    <g id="text_28">
     <!-- New Cases rolling week -->
     <g transform="translate(67.103125 82.510937)scale(0.1 -0.1)">
      <defs>
       <path d="M 9.8125 72.90625 
L 23.09375 72.90625 
L 55.421875 11.921875 
L 55.421875 72.90625 
L 64.984375 72.90625 
L 64.984375 0 
L 51.703125 0 
L 19.390625 60.984375 
L 19.390625 0 
L 9.8125 0 
z
" id="DejaVuSans-78"/>
       <path d="M 64.40625 67.28125 
L 64.40625 56.890625 
Q 59.421875 61.53125 53.78125 63.8125 
Q 48.140625 66.109375 41.796875 66.109375 
Q 29.296875 66.109375 22.65625 58.46875 
Q 16.015625 50.828125 16.015625 36.375 
Q 16.015625 21.96875 22.65625 14.328125 
Q 29.296875 6.6875 41.796875 6.6875 
Q 48.140625 6.6875 53.78125 8.984375 
Q 59.421875 11.28125 64.40625 15.921875 
L 64.40625 5.609375 
Q 59.234375 2.09375 53.4375 0.328125 
Q 47.65625 -1.421875 41.21875 -1.421875 
Q 24.65625 -1.421875 15.125 8.703125 
Q 5.609375 18.84375 5.609375 36.375 
Q 5.609375 53.953125 15.125 64.078125 
Q 24.65625 74.21875 41.21875 74.21875 
Q 47.75 74.21875 53.53125 72.484375 
Q 59.328125 70.75 64.40625 67.28125 
z
" id="DejaVuSans-67"/>
      </defs>
      <use xlink:href="#DejaVuSans-78"/>
      <use x="74.804688" xlink:href="#DejaVuSans-101"/>
      <use x="136.328125" xlink:href="#DejaVuSans-119"/>
      <use x="218.115234" xlink:href="#DejaVuSans-32"/>
      <use x="249.902344" xlink:href="#DejaVuSans-67"/>
      <use x="319.726562" xlink:href="#DejaVuSans-97"/>
      <use x="381.005859" xlink:href="#DejaVuSans-115"/>
      <use x="433.105469" xlink:href="#DejaVuSans-101"/>
      <use x="494.628906" xlink:href="#DejaVuSans-115"/>
      <use x="546.728516" xlink:href="#DejaVuSans-32"/>
      <use x="578.515625" xlink:href="#DejaVuSans-114"/>
      <use x="617.378906" xlink:href="#DejaVuSans-111"/>
      <use x="678.560547" xlink:href="#DejaVuSans-108"/>
      <use x="706.34375" xlink:href="#DejaVuSans-108"/>
      <use x="734.126953" xlink:href="#DejaVuSans-105"/>
      <use x="761.910156" xlink:href="#DejaVuSans-110"/>
      <use x="825.289062" xlink:href="#DejaVuSans-103"/>
      <use x="888.765625" xlink:href="#DejaVuSans-32"/>
      <use x="920.552734" xlink:href="#DejaVuSans-119"/>
      <use x="1002.339844" xlink:href="#DejaVuSans-101"/>
      <use x="1063.863281" xlink:href="#DejaVuSans-101"/>
      <use x="1125.386719" xlink:href="#DejaVuSans-107"/>
     </g>
    </g>
    <g id="line2d_64">
     <path d="M 39.103125 93.689062 
L 59.103125 93.689062 
" style="fill:none;stroke:#000000;stroke-dasharray:1.5,2.475;stroke-dashoffset:0;stroke-width:1.5;"/>
    </g>
    <g id="line2d_65"/>
    <g id="text_29">
     <!-- New Cases -->
     <g transform="translate(67.103125 97.189062)scale(0.1 -0.1)">
      <use xlink:href="#DejaVuSans-78"/>
      <use x="74.804688" xlink:href="#DejaVuSans-101"/>
      <use x="136.328125" xlink:href="#DejaVuSans-119"/>
      <use x="218.115234" xlink:href="#DejaVuSans-32"/>
      <use x="249.902344" xlink:href="#DejaVuSans-67"/>
      <use x="319.726562" xlink:href="#DejaVuSans-97"/>
      <use x="381.005859" xlink:href="#DejaVuSans-115"/>
      <use x="433.105469" xlink:href="#DejaVuSans-101"/>
      <use x="494.628906" xlink:href="#DejaVuSans-115"/>
     </g>
    </g>
   </g>
  </g>
 </g>
 <defs>
  <clipPath id="pc2865a0c65">
   <rect height="609.32" width="1068.97" x="30.103125" y="7.2"/>
  </clipPath>
 </defs>
</svg>
