<?xml version="1.0" encoding="utf-8" standalone="no"?>
<!DOCTYPE svg PUBLIC "-//W3C//DTD SVG 1.1//EN"
  "http://www.w3.org/Graphics/SVG/1.1/DTD/svg11.dtd">
<!-- Created with matplotlib (https://matplotlib.org/) -->
<svg height="640.398125pt" version="1.1" viewBox="0 0 1145.085625 640.398125" width="1145.085625pt" xmlns="http://www.w3.org/2000/svg" xmlns:xlink="http://www.w3.org/1999/xlink">
 <metadata>
  <rdf:RDF xmlns:cc="http://creativecommons.org/ns#" xmlns:dc="http://purl.org/dc/elements/1.1/" xmlns:rdf="http://www.w3.org/1999/02/22-rdf-syntax-ns#">
   <cc:Work>
    <dc:type rdf:resource="http://purl.org/dc/dcmitype/StillImage"/>
    <dc:date>2020-12-25T09:01:14.190892</dc:date>
    <dc:format>image/svg+xml</dc:format>
    <dc:creator>
     <cc:Agent>
      <dc:title>Matplotlib v3.3.2, https://matplotlib.org/</dc:title>
     </cc:Agent>
    </dc:creator>
   </cc:Work>
  </rdf:RDF>
 </metadata>
 <defs>
  <style type="text/css">*{stroke-linecap:butt;stroke-linejoin:round;}</style>
 </defs>
 <g id="figure_1">
  <g id="patch_1">
   <path d="M 0 640.398125 
L 1145.085625 640.398125 
L 1145.085625 0 
L 0 0 
z
" style="fill:#ffffff;"/>
  </g>
  <g id="axes_1">
   <g id="patch_2">
    <path d="M 30.103125 616.52 
L 1099.073125 616.52 
L 1099.073125 7.2 
L 30.103125 7.2 
z
" style="fill:#e5e5e5;"/>
   </g>
   <g id="matplotlib.axis_1">
    <g id="xtick_1">
     <g id="line2d_1">
      <path clip-path="url(#p306392d5b6)" d="M 85.149753 616.52 
L 85.149753 7.2 
" style="fill:none;stroke:#ffffff;stroke-linecap:square;stroke-width:0.8;"/>
     </g>
     <g id="line2d_2">
      <defs>
       <path d="M 0 0 
L 0 3.5 
" id="m4f389612a3" style="stroke:#555555;stroke-width:0.8;"/>
      </defs>
      <g>
       <use style="fill:#555555;stroke:#555555;stroke-width:0.8;" x="85.149753" xlink:href="#m4f389612a3" y="616.52"/>
      </g>
     </g>
     <g id="text_1">
      <!-- 2020-03 -->
      <g style="fill:#555555;" transform="translate(64.258347 631.118437)scale(0.1 -0.1)">
       <defs>
        <path d="M 19.1875 8.296875 
L 53.609375 8.296875 
L 53.609375 0 
L 7.328125 0 
L 7.328125 8.296875 
Q 12.9375 14.109375 22.625 23.890625 
Q 32.328125 33.6875 34.8125 36.53125 
Q 39.546875 41.84375 41.421875 45.53125 
Q 43.3125 49.21875 43.3125 52.78125 
Q 43.3125 58.59375 39.234375 62.25 
Q 35.15625 65.921875 28.609375 65.921875 
Q 23.96875 65.921875 18.8125 64.3125 
Q 13.671875 62.703125 7.8125 59.421875 
L 7.8125 69.390625 
Q 13.765625 71.78125 18.9375 73 
Q 24.125 74.21875 28.421875 74.21875 
Q 39.75 74.21875 46.484375 68.546875 
Q 53.21875 62.890625 53.21875 53.421875 
Q 53.21875 48.921875 51.53125 44.890625 
Q 49.859375 40.875 45.40625 35.40625 
Q 44.1875 33.984375 37.640625 27.21875 
Q 31.109375 20.453125 19.1875 8.296875 
z
" id="DejaVuSans-50"/>
        <path d="M 31.78125 66.40625 
Q 24.171875 66.40625 20.328125 58.90625 
Q 16.5 51.421875 16.5 36.375 
Q 16.5 21.390625 20.328125 13.890625 
Q 24.171875 6.390625 31.78125 6.390625 
Q 39.453125 6.390625 43.28125 13.890625 
Q 47.125 21.390625 47.125 36.375 
Q 47.125 51.421875 43.28125 58.90625 
Q 39.453125 66.40625 31.78125 66.40625 
z
M 31.78125 74.21875 
Q 44.046875 74.21875 50.515625 64.515625 
Q 56.984375 54.828125 56.984375 36.375 
Q 56.984375 17.96875 50.515625 8.265625 
Q 44.046875 -1.421875 31.78125 -1.421875 
Q 19.53125 -1.421875 13.0625 8.265625 
Q 6.59375 17.96875 6.59375 36.375 
Q 6.59375 54.828125 13.0625 64.515625 
Q 19.53125 74.21875 31.78125 74.21875 
z
" id="DejaVuSans-48"/>
        <path d="M 4.890625 31.390625 
L 31.203125 31.390625 
L 31.203125 23.390625 
L 4.890625 23.390625 
z
" id="DejaVuSans-45"/>
        <path d="M 40.578125 39.3125 
Q 47.65625 37.796875 51.625 33 
Q 55.609375 28.21875 55.609375 21.1875 
Q 55.609375 10.40625 48.1875 4.484375 
Q 40.765625 -1.421875 27.09375 -1.421875 
Q 22.515625 -1.421875 17.65625 -0.515625 
Q 12.796875 0.390625 7.625 2.203125 
L 7.625 11.71875 
Q 11.71875 9.328125 16.59375 8.109375 
Q 21.484375 6.890625 26.8125 6.890625 
Q 36.078125 6.890625 40.9375 10.546875 
Q 45.796875 14.203125 45.796875 21.1875 
Q 45.796875 27.640625 41.28125 31.265625 
Q 36.765625 34.90625 28.71875 34.90625 
L 20.21875 34.90625 
L 20.21875 43.015625 
L 29.109375 43.015625 
Q 36.375 43.015625 40.234375 45.921875 
Q 44.09375 48.828125 44.09375 54.296875 
Q 44.09375 59.90625 40.109375 62.90625 
Q 36.140625 65.921875 28.71875 65.921875 
Q 24.65625 65.921875 20.015625 65.03125 
Q 15.375 64.15625 9.8125 62.3125 
L 9.8125 71.09375 
Q 15.4375 72.65625 20.34375 73.4375 
Q 25.25 74.21875 29.59375 74.21875 
Q 40.828125 74.21875 47.359375 69.109375 
Q 53.90625 64.015625 53.90625 55.328125 
Q 53.90625 49.265625 50.4375 45.09375 
Q 46.96875 40.921875 40.578125 39.3125 
z
" id="DejaVuSans-51"/>
       </defs>
       <use xlink:href="#DejaVuSans-50"/>
       <use x="63.623047" xlink:href="#DejaVuSans-48"/>
       <use x="127.246094" xlink:href="#DejaVuSans-50"/>
       <use x="190.869141" xlink:href="#DejaVuSans-48"/>
       <use x="254.492188" xlink:href="#DejaVuSans-45"/>
       <use x="290.576172" xlink:href="#DejaVuSans-48"/>
       <use x="354.199219" xlink:href="#DejaVuSans-51"/>
      </g>
     </g>
    </g>
    <g id="xtick_2">
     <g id="line2d_3">
      <path clip-path="url(#p306392d5b6)" d="M 185.234531 616.52 
L 185.234531 7.2 
" style="fill:none;stroke:#ffffff;stroke-linecap:square;stroke-width:0.8;"/>
     </g>
     <g id="line2d_4">
      <g>
       <use style="fill:#555555;stroke:#555555;stroke-width:0.8;" x="185.234531" xlink:href="#m4f389612a3" y="616.52"/>
      </g>
     </g>
     <g id="text_2">
      <!-- 2020-04 -->
      <g style="fill:#555555;" transform="translate(164.343125 631.118437)scale(0.1 -0.1)">
       <defs>
        <path d="M 37.796875 64.3125 
L 12.890625 25.390625 
L 37.796875 25.390625 
z
M 35.203125 72.90625 
L 47.609375 72.90625 
L 47.609375 25.390625 
L 58.015625 25.390625 
L 58.015625 17.1875 
L 47.609375 17.1875 
L 47.609375 0 
L 37.796875 0 
L 37.796875 17.1875 
L 4.890625 17.1875 
L 4.890625 26.703125 
z
" id="DejaVuSans-52"/>
       </defs>
       <use xlink:href="#DejaVuSans-50"/>
       <use x="63.623047" xlink:href="#DejaVuSans-48"/>
       <use x="127.246094" xlink:href="#DejaVuSans-50"/>
       <use x="190.869141" xlink:href="#DejaVuSans-48"/>
       <use x="254.492188" xlink:href="#DejaVuSans-45"/>
       <use x="290.576172" xlink:href="#DejaVuSans-48"/>
       <use x="354.199219" xlink:href="#DejaVuSans-52"/>
      </g>
     </g>
    </g>
    <g id="xtick_3">
     <g id="line2d_5">
      <path clip-path="url(#p306392d5b6)" d="M 282.090768 616.52 
L 282.090768 7.2 
" style="fill:none;stroke:#ffffff;stroke-linecap:square;stroke-width:0.8;"/>
     </g>
     <g id="line2d_6">
      <g>
       <use style="fill:#555555;stroke:#555555;stroke-width:0.8;" x="282.090768" xlink:href="#m4f389612a3" y="616.52"/>
      </g>
     </g>
     <g id="text_3">
      <!-- 2020-05 -->
      <g style="fill:#555555;" transform="translate(261.199361 631.118437)scale(0.1 -0.1)">
       <defs>
        <path d="M 10.796875 72.90625 
L 49.515625 72.90625 
L 49.515625 64.59375 
L 19.828125 64.59375 
L 19.828125 46.734375 
Q 21.96875 47.46875 24.109375 47.828125 
Q 26.265625 48.1875 28.421875 48.1875 
Q 40.625 48.1875 47.75 41.5 
Q 54.890625 34.8125 54.890625 23.390625 
Q 54.890625 11.625 47.5625 5.09375 
Q 40.234375 -1.421875 26.90625 -1.421875 
Q 22.3125 -1.421875 17.546875 -0.640625 
Q 12.796875 0.140625 7.71875 1.703125 
L 7.71875 11.625 
Q 12.109375 9.234375 16.796875 8.0625 
Q 21.484375 6.890625 26.703125 6.890625 
Q 35.15625 6.890625 40.078125 11.328125 
Q 45.015625 15.765625 45.015625 23.390625 
Q 45.015625 31 40.078125 35.4375 
Q 35.15625 39.890625 26.703125 39.890625 
Q 22.75 39.890625 18.8125 39.015625 
Q 14.890625 38.140625 10.796875 36.28125 
z
" id="DejaVuSans-53"/>
       </defs>
       <use xlink:href="#DejaVuSans-50"/>
       <use x="63.623047" xlink:href="#DejaVuSans-48"/>
       <use x="127.246094" xlink:href="#DejaVuSans-50"/>
       <use x="190.869141" xlink:href="#DejaVuSans-48"/>
       <use x="254.492188" xlink:href="#DejaVuSans-45"/>
       <use x="290.576172" xlink:href="#DejaVuSans-48"/>
       <use x="354.199219" xlink:href="#DejaVuSans-53"/>
      </g>
     </g>
    </g>
    <g id="xtick_4">
     <g id="line2d_7">
      <path clip-path="url(#p306392d5b6)" d="M 382.175546 616.52 
L 382.175546 7.2 
" style="fill:none;stroke:#ffffff;stroke-linecap:square;stroke-width:0.8;"/>
     </g>
     <g id="line2d_8">
      <g>
       <use style="fill:#555555;stroke:#555555;stroke-width:0.8;" x="382.175546" xlink:href="#m4f389612a3" y="616.52"/>
      </g>
     </g>
     <g id="text_4">
      <!-- 2020-06 -->
      <g style="fill:#555555;" transform="translate(361.284139 631.118437)scale(0.1 -0.1)">
       <defs>
        <path d="M 33.015625 40.375 
Q 26.375 40.375 22.484375 35.828125 
Q 18.609375 31.296875 18.609375 23.390625 
Q 18.609375 15.53125 22.484375 10.953125 
Q 26.375 6.390625 33.015625 6.390625 
Q 39.65625 6.390625 43.53125 10.953125 
Q 47.40625 15.53125 47.40625 23.390625 
Q 47.40625 31.296875 43.53125 35.828125 
Q 39.65625 40.375 33.015625 40.375 
z
M 52.59375 71.296875 
L 52.59375 62.3125 
Q 48.875 64.0625 45.09375 64.984375 
Q 41.3125 65.921875 37.59375 65.921875 
Q 27.828125 65.921875 22.671875 59.328125 
Q 17.53125 52.734375 16.796875 39.40625 
Q 19.671875 43.65625 24.015625 45.921875 
Q 28.375 48.1875 33.59375 48.1875 
Q 44.578125 48.1875 50.953125 41.515625 
Q 57.328125 34.859375 57.328125 23.390625 
Q 57.328125 12.15625 50.6875 5.359375 
Q 44.046875 -1.421875 33.015625 -1.421875 
Q 20.359375 -1.421875 13.671875 8.265625 
Q 6.984375 17.96875 6.984375 36.375 
Q 6.984375 53.65625 15.1875 63.9375 
Q 23.390625 74.21875 37.203125 74.21875 
Q 40.921875 74.21875 44.703125 73.484375 
Q 48.484375 72.75 52.59375 71.296875 
z
" id="DejaVuSans-54"/>
       </defs>
       <use xlink:href="#DejaVuSans-50"/>
       <use x="63.623047" xlink:href="#DejaVuSans-48"/>
       <use x="127.246094" xlink:href="#DejaVuSans-50"/>
       <use x="190.869141" xlink:href="#DejaVuSans-48"/>
       <use x="254.492188" xlink:href="#DejaVuSans-45"/>
       <use x="290.576172" xlink:href="#DejaVuSans-48"/>
       <use x="354.199219" xlink:href="#DejaVuSans-54"/>
      </g>
     </g>
    </g>
    <g id="xtick_5">
     <g id="line2d_9">
      <path clip-path="url(#p306392d5b6)" d="M 479.031783 616.52 
L 479.031783 7.2 
" style="fill:none;stroke:#ffffff;stroke-linecap:square;stroke-width:0.8;"/>
     </g>
     <g id="line2d_10">
      <g>
       <use style="fill:#555555;stroke:#555555;stroke-width:0.8;" x="479.031783" xlink:href="#m4f389612a3" y="616.52"/>
      </g>
     </g>
     <g id="text_5">
      <!-- 2020-07 -->
      <g style="fill:#555555;" transform="translate(458.140376 631.118437)scale(0.1 -0.1)">
       <defs>
        <path d="M 8.203125 72.90625 
L 55.078125 72.90625 
L 55.078125 68.703125 
L 28.609375 0 
L 18.3125 0 
L 43.21875 64.59375 
L 8.203125 64.59375 
z
" id="DejaVuSans-55"/>
       </defs>
       <use xlink:href="#DejaVuSans-50"/>
       <use x="63.623047" xlink:href="#DejaVuSans-48"/>
       <use x="127.246094" xlink:href="#DejaVuSans-50"/>
       <use x="190.869141" xlink:href="#DejaVuSans-48"/>
       <use x="254.492188" xlink:href="#DejaVuSans-45"/>
       <use x="290.576172" xlink:href="#DejaVuSans-48"/>
       <use x="354.199219" xlink:href="#DejaVuSans-55"/>
      </g>
     </g>
    </g>
    <g id="xtick_6">
     <g id="line2d_11">
      <path clip-path="url(#p306392d5b6)" d="M 579.116561 616.52 
L 579.116561 7.2 
" style="fill:none;stroke:#ffffff;stroke-linecap:square;stroke-width:0.8;"/>
     </g>
     <g id="line2d_12">
      <g>
       <use style="fill:#555555;stroke:#555555;stroke-width:0.8;" x="579.116561" xlink:href="#m4f389612a3" y="616.52"/>
      </g>
     </g>
     <g id="text_6">
      <!-- 2020-08 -->
      <g style="fill:#555555;" transform="translate(558.225154 631.118437)scale(0.1 -0.1)">
       <defs>
        <path d="M 31.78125 34.625 
Q 24.75 34.625 20.71875 30.859375 
Q 16.703125 27.09375 16.703125 20.515625 
Q 16.703125 13.921875 20.71875 10.15625 
Q 24.75 6.390625 31.78125 6.390625 
Q 38.8125 6.390625 42.859375 10.171875 
Q 46.921875 13.96875 46.921875 20.515625 
Q 46.921875 27.09375 42.890625 30.859375 
Q 38.875 34.625 31.78125 34.625 
z
M 21.921875 38.8125 
Q 15.578125 40.375 12.03125 44.71875 
Q 8.5 49.078125 8.5 55.328125 
Q 8.5 64.0625 14.71875 69.140625 
Q 20.953125 74.21875 31.78125 74.21875 
Q 42.671875 74.21875 48.875 69.140625 
Q 55.078125 64.0625 55.078125 55.328125 
Q 55.078125 49.078125 51.53125 44.71875 
Q 48 40.375 41.703125 38.8125 
Q 48.828125 37.15625 52.796875 32.3125 
Q 56.78125 27.484375 56.78125 20.515625 
Q 56.78125 9.90625 50.3125 4.234375 
Q 43.84375 -1.421875 31.78125 -1.421875 
Q 19.734375 -1.421875 13.25 4.234375 
Q 6.78125 9.90625 6.78125 20.515625 
Q 6.78125 27.484375 10.78125 32.3125 
Q 14.796875 37.15625 21.921875 38.8125 
z
M 18.3125 54.390625 
Q 18.3125 48.734375 21.84375 45.5625 
Q 25.390625 42.390625 31.78125 42.390625 
Q 38.140625 42.390625 41.71875 45.5625 
Q 45.3125 48.734375 45.3125 54.390625 
Q 45.3125 60.0625 41.71875 63.234375 
Q 38.140625 66.40625 31.78125 66.40625 
Q 25.390625 66.40625 21.84375 63.234375 
Q 18.3125 60.0625 18.3125 54.390625 
z
" id="DejaVuSans-56"/>
       </defs>
       <use xlink:href="#DejaVuSans-50"/>
       <use x="63.623047" xlink:href="#DejaVuSans-48"/>
       <use x="127.246094" xlink:href="#DejaVuSans-50"/>
       <use x="190.869141" xlink:href="#DejaVuSans-48"/>
       <use x="254.492188" xlink:href="#DejaVuSans-45"/>
       <use x="290.576172" xlink:href="#DejaVuSans-48"/>
       <use x="354.199219" xlink:href="#DejaVuSans-56"/>
      </g>
     </g>
    </g>
    <g id="xtick_7">
     <g id="line2d_13">
      <path clip-path="url(#p306392d5b6)" d="M 679.201339 616.52 
L 679.201339 7.2 
" style="fill:none;stroke:#ffffff;stroke-linecap:square;stroke-width:0.8;"/>
     </g>
     <g id="line2d_14">
      <g>
       <use style="fill:#555555;stroke:#555555;stroke-width:0.8;" x="679.201339" xlink:href="#m4f389612a3" y="616.52"/>
      </g>
     </g>
     <g id="text_7">
      <!-- 2020-09 -->
      <g style="fill:#555555;" transform="translate(658.309932 631.118437)scale(0.1 -0.1)">
       <defs>
        <path d="M 10.984375 1.515625 
L 10.984375 10.5 
Q 14.703125 8.734375 18.5 7.8125 
Q 22.3125 6.890625 25.984375 6.890625 
Q 35.75 6.890625 40.890625 13.453125 
Q 46.046875 20.015625 46.78125 33.40625 
Q 43.953125 29.203125 39.59375 26.953125 
Q 35.25 24.703125 29.984375 24.703125 
Q 19.046875 24.703125 12.671875 31.3125 
Q 6.296875 37.9375 6.296875 49.421875 
Q 6.296875 60.640625 12.9375 67.421875 
Q 19.578125 74.21875 30.609375 74.21875 
Q 43.265625 74.21875 49.921875 64.515625 
Q 56.59375 54.828125 56.59375 36.375 
Q 56.59375 19.140625 48.40625 8.859375 
Q 40.234375 -1.421875 26.421875 -1.421875 
Q 22.703125 -1.421875 18.890625 -0.6875 
Q 15.09375 0.046875 10.984375 1.515625 
z
M 30.609375 32.421875 
Q 37.25 32.421875 41.125 36.953125 
Q 45.015625 41.5 45.015625 49.421875 
Q 45.015625 57.28125 41.125 61.84375 
Q 37.25 66.40625 30.609375 66.40625 
Q 23.96875 66.40625 20.09375 61.84375 
Q 16.21875 57.28125 16.21875 49.421875 
Q 16.21875 41.5 20.09375 36.953125 
Q 23.96875 32.421875 30.609375 32.421875 
z
" id="DejaVuSans-57"/>
       </defs>
       <use xlink:href="#DejaVuSans-50"/>
       <use x="63.623047" xlink:href="#DejaVuSans-48"/>
       <use x="127.246094" xlink:href="#DejaVuSans-50"/>
       <use x="190.869141" xlink:href="#DejaVuSans-48"/>
       <use x="254.492188" xlink:href="#DejaVuSans-45"/>
       <use x="290.576172" xlink:href="#DejaVuSans-48"/>
       <use x="354.199219" xlink:href="#DejaVuSans-57"/>
      </g>
     </g>
    </g>
    <g id="xtick_8">
     <g id="line2d_15">
      <path clip-path="url(#p306392d5b6)" d="M 776.057575 616.52 
L 776.057575 7.2 
" style="fill:none;stroke:#ffffff;stroke-linecap:square;stroke-width:0.8;"/>
     </g>
     <g id="line2d_16">
      <g>
       <use style="fill:#555555;stroke:#555555;stroke-width:0.8;" x="776.057575" xlink:href="#m4f389612a3" y="616.52"/>
      </g>
     </g>
     <g id="text_8">
      <!-- 2020-10 -->
      <g style="fill:#555555;" transform="translate(755.166169 631.118437)scale(0.1 -0.1)">
       <defs>
        <path d="M 12.40625 8.296875 
L 28.515625 8.296875 
L 28.515625 63.921875 
L 10.984375 60.40625 
L 10.984375 69.390625 
L 28.421875 72.90625 
L 38.28125 72.90625 
L 38.28125 8.296875 
L 54.390625 8.296875 
L 54.390625 0 
L 12.40625 0 
z
" id="DejaVuSans-49"/>
       </defs>
       <use xlink:href="#DejaVuSans-50"/>
       <use x="63.623047" xlink:href="#DejaVuSans-48"/>
       <use x="127.246094" xlink:href="#DejaVuSans-50"/>
       <use x="190.869141" xlink:href="#DejaVuSans-48"/>
       <use x="254.492188" xlink:href="#DejaVuSans-45"/>
       <use x="290.576172" xlink:href="#DejaVuSans-49"/>
       <use x="354.199219" xlink:href="#DejaVuSans-48"/>
      </g>
     </g>
    </g>
    <g id="xtick_9">
     <g id="line2d_17">
      <path clip-path="url(#p306392d5b6)" d="M 876.142353 616.52 
L 876.142353 7.2 
" style="fill:none;stroke:#ffffff;stroke-linecap:square;stroke-width:0.8;"/>
     </g>
     <g id="line2d_18">
      <g>
       <use style="fill:#555555;stroke:#555555;stroke-width:0.8;" x="876.142353" xlink:href="#m4f389612a3" y="616.52"/>
      </g>
     </g>
     <g id="text_9">
      <!-- 2020-11 -->
      <g style="fill:#555555;" transform="translate(855.250947 631.118437)scale(0.1 -0.1)">
       <use xlink:href="#DejaVuSans-50"/>
       <use x="63.623047" xlink:href="#DejaVuSans-48"/>
       <use x="127.246094" xlink:href="#DejaVuSans-50"/>
       <use x="190.869141" xlink:href="#DejaVuSans-48"/>
       <use x="254.492188" xlink:href="#DejaVuSans-45"/>
       <use x="290.576172" xlink:href="#DejaVuSans-49"/>
       <use x="354.199219" xlink:href="#DejaVuSans-49"/>
      </g>
     </g>
    </g>
    <g id="xtick_10">
     <g id="line2d_19">
      <path clip-path="url(#p306392d5b6)" d="M 972.99859 616.52 
L 972.99859 7.2 
" style="fill:none;stroke:#ffffff;stroke-linecap:square;stroke-width:0.8;"/>
     </g>
     <g id="line2d_20">
      <g>
       <use style="fill:#555555;stroke:#555555;stroke-width:0.8;" x="972.99859" xlink:href="#m4f389612a3" y="616.52"/>
      </g>
     </g>
     <g id="text_10">
      <!-- 2020-12 -->
      <g style="fill:#555555;" transform="translate(952.107184 631.118437)scale(0.1 -0.1)">
       <use xlink:href="#DejaVuSans-50"/>
       <use x="63.623047" xlink:href="#DejaVuSans-48"/>
       <use x="127.246094" xlink:href="#DejaVuSans-50"/>
       <use x="190.869141" xlink:href="#DejaVuSans-48"/>
       <use x="254.492188" xlink:href="#DejaVuSans-45"/>
       <use x="290.576172" xlink:href="#DejaVuSans-49"/>
       <use x="354.199219" xlink:href="#DejaVuSans-50"/>
      </g>
     </g>
    </g>
    <g id="xtick_11">
     <g id="line2d_21">
      <path clip-path="url(#p306392d5b6)" d="M 1073.083368 616.52 
L 1073.083368 7.2 
" style="fill:none;stroke:#ffffff;stroke-linecap:square;stroke-width:0.8;"/>
     </g>
     <g id="line2d_22">
      <g>
       <use style="fill:#555555;stroke:#555555;stroke-width:0.8;" x="1073.083368" xlink:href="#m4f389612a3" y="616.52"/>
      </g>
     </g>
     <g id="text_11">
      <!-- 2021-01 -->
      <g style="fill:#555555;" transform="translate(1052.191962 631.118437)scale(0.1 -0.1)">
       <use xlink:href="#DejaVuSans-50"/>
       <use x="63.623047" xlink:href="#DejaVuSans-48"/>
       <use x="127.246094" xlink:href="#DejaVuSans-50"/>
       <use x="190.869141" xlink:href="#DejaVuSans-49"/>
       <use x="254.492188" xlink:href="#DejaVuSans-45"/>
       <use x="290.576172" xlink:href="#DejaVuSans-48"/>
       <use x="354.199219" xlink:href="#DejaVuSans-49"/>
      </g>
     </g>
    </g>
   </g>
   <g id="matplotlib.axis_2">
    <g id="ytick_1">
     <g id="line2d_23">
      <path clip-path="url(#p306392d5b6)" d="M 30.103125 594.07505 
L 1099.073125 594.07505 
" style="fill:none;stroke:#ffffff;stroke-linecap:square;stroke-width:0.8;"/>
     </g>
     <g id="line2d_24">
      <defs>
       <path d="M 0 0 
L -3.5 0 
" id="m824bd63ebd" style="stroke:#555555;stroke-width:0.8;"/>
      </defs>
      <g>
       <use style="fill:#555555;stroke:#555555;stroke-width:0.8;" x="30.103125" xlink:href="#m824bd63ebd" y="594.07505"/>
      </g>
     </g>
     <g id="text_12">
      <!-- 0.5 -->
      <g style="fill:#555555;" transform="translate(7.2 597.874268)scale(0.1 -0.1)">
       <defs>
        <path d="M 10.6875 12.40625 
L 21 12.40625 
L 21 0 
L 10.6875 0 
z
" id="DejaVuSans-46"/>
       </defs>
       <use xlink:href="#DejaVuSans-48"/>
       <use x="63.623047" xlink:href="#DejaVuSans-46"/>
       <use x="95.410156" xlink:href="#DejaVuSans-53"/>
      </g>
     </g>
    </g>
    <g id="ytick_2">
     <g id="line2d_25">
      <path clip-path="url(#p306392d5b6)" d="M 30.103125 519.259461 
L 1099.073125 519.259461 
" style="fill:none;stroke:#ffffff;stroke-linecap:square;stroke-width:0.8;"/>
     </g>
     <g id="line2d_26">
      <g>
       <use style="fill:#555555;stroke:#555555;stroke-width:0.8;" x="30.103125" xlink:href="#m824bd63ebd" y="519.259461"/>
      </g>
     </g>
     <g id="text_13">
      <!-- 1.0 -->
      <g style="fill:#555555;" transform="translate(7.2 523.05868)scale(0.1 -0.1)">
       <use xlink:href="#DejaVuSans-49"/>
       <use x="63.623047" xlink:href="#DejaVuSans-46"/>
       <use x="95.410156" xlink:href="#DejaVuSans-48"/>
      </g>
     </g>
    </g>
    <g id="ytick_3">
     <g id="line2d_27">
      <path clip-path="url(#p306392d5b6)" d="M 30.103125 444.443873 
L 1099.073125 444.443873 
" style="fill:none;stroke:#ffffff;stroke-linecap:square;stroke-width:0.8;"/>
     </g>
     <g id="line2d_28">
      <g>
       <use style="fill:#555555;stroke:#555555;stroke-width:0.8;" x="30.103125" xlink:href="#m824bd63ebd" y="444.443873"/>
      </g>
     </g>
     <g id="text_14">
      <!-- 1.5 -->
      <g style="fill:#555555;" transform="translate(7.2 448.243091)scale(0.1 -0.1)">
       <use xlink:href="#DejaVuSans-49"/>
       <use x="63.623047" xlink:href="#DejaVuSans-46"/>
       <use x="95.410156" xlink:href="#DejaVuSans-53"/>
      </g>
     </g>
    </g>
    <g id="ytick_4">
     <g id="line2d_29">
      <path clip-path="url(#p306392d5b6)" d="M 30.103125 369.628284 
L 1099.073125 369.628284 
" style="fill:none;stroke:#ffffff;stroke-linecap:square;stroke-width:0.8;"/>
     </g>
     <g id="line2d_30">
      <g>
       <use style="fill:#555555;stroke:#555555;stroke-width:0.8;" x="30.103125" xlink:href="#m824bd63ebd" y="369.628284"/>
      </g>
     </g>
     <g id="text_15">
      <!-- 2.0 -->
      <g style="fill:#555555;" transform="translate(7.2 373.427503)scale(0.1 -0.1)">
       <use xlink:href="#DejaVuSans-50"/>
       <use x="63.623047" xlink:href="#DejaVuSans-46"/>
       <use x="95.410156" xlink:href="#DejaVuSans-48"/>
      </g>
     </g>
    </g>
    <g id="ytick_5">
     <g id="line2d_31">
      <path clip-path="url(#p306392d5b6)" d="M 30.103125 294.812696 
L 1099.073125 294.812696 
" style="fill:none;stroke:#ffffff;stroke-linecap:square;stroke-width:0.8;"/>
     </g>
     <g id="line2d_32">
      <g>
       <use style="fill:#555555;stroke:#555555;stroke-width:0.8;" x="30.103125" xlink:href="#m824bd63ebd" y="294.812696"/>
      </g>
     </g>
     <g id="text_16">
      <!-- 2.5 -->
      <g style="fill:#555555;" transform="translate(7.2 298.611914)scale(0.1 -0.1)">
       <use xlink:href="#DejaVuSans-50"/>
       <use x="63.623047" xlink:href="#DejaVuSans-46"/>
       <use x="95.410156" xlink:href="#DejaVuSans-53"/>
      </g>
     </g>
    </g>
    <g id="ytick_6">
     <g id="line2d_33">
      <path clip-path="url(#p306392d5b6)" d="M 30.103125 219.997107 
L 1099.073125 219.997107 
" style="fill:none;stroke:#ffffff;stroke-linecap:square;stroke-width:0.8;"/>
     </g>
     <g id="line2d_34">
      <g>
       <use style="fill:#555555;stroke:#555555;stroke-width:0.8;" x="30.103125" xlink:href="#m824bd63ebd" y="219.997107"/>
      </g>
     </g>
     <g id="text_17">
      <!-- 3.0 -->
      <g style="fill:#555555;" transform="translate(7.2 223.796326)scale(0.1 -0.1)">
       <use xlink:href="#DejaVuSans-51"/>
       <use x="63.623047" xlink:href="#DejaVuSans-46"/>
       <use x="95.410156" xlink:href="#DejaVuSans-48"/>
      </g>
     </g>
    </g>
    <g id="ytick_7">
     <g id="line2d_35">
      <path clip-path="url(#p306392d5b6)" d="M 30.103125 145.181519 
L 1099.073125 145.181519 
" style="fill:none;stroke:#ffffff;stroke-linecap:square;stroke-width:0.8;"/>
     </g>
     <g id="line2d_36">
      <g>
       <use style="fill:#555555;stroke:#555555;stroke-width:0.8;" x="30.103125" xlink:href="#m824bd63ebd" y="145.181519"/>
      </g>
     </g>
     <g id="text_18">
      <!-- 3.5 -->
      <g style="fill:#555555;" transform="translate(7.2 148.980737)scale(0.1 -0.1)">
       <use xlink:href="#DejaVuSans-51"/>
       <use x="63.623047" xlink:href="#DejaVuSans-46"/>
       <use x="95.410156" xlink:href="#DejaVuSans-53"/>
      </g>
     </g>
    </g>
    <g id="ytick_8">
     <g id="line2d_37">
      <path clip-path="url(#p306392d5b6)" d="M 30.103125 70.36593 
L 1099.073125 70.36593 
" style="fill:none;stroke:#ffffff;stroke-linecap:square;stroke-width:0.8;"/>
     </g>
     <g id="line2d_38">
      <g>
       <use style="fill:#555555;stroke:#555555;stroke-width:0.8;" x="30.103125" xlink:href="#m824bd63ebd" y="70.36593"/>
      </g>
     </g>
     <g id="text_19">
      <!-- 4.0 -->
      <g style="fill:#555555;" transform="translate(7.2 74.165149)scale(0.1 -0.1)">
       <use xlink:href="#DejaVuSans-52"/>
       <use x="63.623047" xlink:href="#DejaVuSans-46"/>
       <use x="95.410156" xlink:href="#DejaVuSans-48"/>
      </g>
     </g>
    </g>
   </g>
   <g id="line2d_39">
    <path clip-path="url(#p306392d5b6)" d="M 91.606835 115.536307 
L 94.835377 85.936196 
L 98.063918 123.160492 
L 101.292459 105.3752 
L 104.521 96.692656 
L 107.749541 106.200984 
L 110.978083 125.716565 
L 114.206624 161.412609 
L 117.435165 206.786268 
L 120.663706 217.969297 
L 123.892248 248.626385 
L 127.120789 272.733833 
L 130.34933 280.32608 
L 133.577871 286.943549 
L 136.806413 280.337666 
L 140.034954 276.290854 
L 143.263495 283.830142 
L 146.492036 291.664616 
L 149.720577 304.479743 
L 152.949119 321.944591 
L 156.17766 332.122167 
L 159.406201 340.049132 
L 162.634742 345.733765 
L 165.863284 352.385096 
L 169.091825 362.127335 
L 172.320366 374.035634 
L 175.548907 386.951356 
L 182.00599 408.167523 
L 185.234531 418.999138 
L 188.463072 431.01665 
L 191.691613 441.147125 
L 194.920155 449.374382 
L 198.148696 455.860401 
L 201.377237 461.666297 
L 204.605778 466.339943 
L 207.83432 470.248377 
L 211.062861 474.931672 
L 220.748484 487.630575 
L 223.977026 491.058076 
L 227.205567 494.113315 
L 230.434108 496.654889 
L 240.119732 502.76627 
L 243.348273 504.272261 
L 246.576814 505.35638 
L 249.805355 505.993731 
L 259.490979 507.590168 
L 272.405144 510.667774 
L 295.004933 514.430241 
L 301.462015 514.959376 
L 307.919098 515.304388 
L 330.518886 515.92398 
L 340.20451 516.411895 
L 353.118675 516.800672 
L 372.489922 517.32029 
L 378.947004 517.402609 
L 385.404087 517.401248 
L 420.91804 517.772821 
L 437.060747 517.856255 
L 446.74637 517.55753 
L 456.431994 517.120607 
L 462.889076 517.026576 
L 469.346159 517.093086 
L 482.260324 517.434333 
L 527.459901 517.850071 
L 553.288231 517.56221 
L 624.316138 516.068151 
L 650.144467 515.404493 
L 659.830091 515.257421 
L 672.744256 515.46268 
L 698.572586 515.92342 
L 730.857998 515.453647 
L 743.772163 514.962097 
L 750.229246 514.819307 
L 766.371952 514.763215 
L 785.743199 514.422196 
L 795.428823 514.053621 
L 798.657364 513.839224 
L 805.114446 513.078378 
L 814.80007 511.866406 
L 821.257152 511.050387 
L 827.714235 509.887591 
L 834.171317 508.758755 
L 843.856941 507.204365 
L 847.085482 506.553493 
L 850.314024 505.711271 
L 859.999647 502.81295 
L 866.45673 501.047419 
L 869.685271 500.155156 
L 872.913812 499.384089 
L 879.370895 498.526387 
L 885.827977 498.241258 
L 889.056518 498.195609 
L 895.513601 498.412586 
L 905.199224 498.90595 
L 914.884848 499.859083 
L 931.027554 502.015884 
L 940.713178 503.235796 
L 947.17026 503.898442 
L 972.99859 506.007452 
L 985.912755 506.741228 
L 992.369837 506.816325 
L 1002.055461 506.720871 
L 1011.741085 506.347028 
L 1018.198167 506.050549 
L 1031.112332 505.572177 
L 1044.026497 505.50698 
L 1047.255038 505.507624 
L 1050.48358 505.663351 
L 1050.48358 505.663351 
" style="fill:none;stroke:#e24a33;stroke-linecap:square;stroke-width:1.5;"/>
   </g>
   <g id="line2d_40">
    <path clip-path="url(#p306392d5b6)" d="M 91.606835 115.536307 
L 94.835377 56.336085 
L 98.063918 197.609083 
L 101.292459 52.019323 
L 104.521 61.962484 
L 110.978083 242.81005 
L 114.206624 365.408611 
L 117.435165 373.951701 
L 120.663706 275.890288 
L 123.892248 266.618938 
L 127.120789 230.714615 
L 130.34933 206.888353 
L 133.577871 289.132339 
L 136.806413 319.167426 
L 140.034954 345.624015 
L 143.263495 328.66531 
L 146.492036 321.460254 
L 149.720577 320.420506 
L 152.949119 329.142289 
L 156.17766 360.375372 
L 159.406201 374.656182 
L 162.634742 385.416443 
L 165.863284 375.224626 
L 172.320366 403.778604 
L 175.548907 419.552342 
L 178.777448 433.888599 
L 182.00599 449.656121 
L 185.234531 461.237746 
L 188.463072 459.34721 
L 191.691613 460.56925 
L 194.920155 461.369409 
L 198.148696 464.954475 
L 201.377237 474.52987 
L 204.605778 482.371644 
L 207.83432 488.596784 
L 211.062861 492.130276 
L 214.291402 490.571868 
L 217.519943 491.212157 
L 220.748484 494.001429 
L 223.977026 498.522374 
L 227.205567 503.758316 
L 230.434108 506.387807 
L 233.662649 506.622281 
L 236.891191 505.844471 
L 240.119732 504.227215 
L 243.348273 504.543361 
L 246.576814 506.111212 
L 249.805355 508.21977 
L 253.033897 509.994915 
L 256.262438 510.262196 
L 259.490979 509.772504 
L 262.71952 509.601132 
L 265.948062 510.25637 
L 269.176603 511.743863 
L 272.405144 513.043435 
L 275.633685 513.859578 
L 278.862226 514.166325 
L 282.090768 513.594918 
L 285.319309 513.823329 
L 288.54785 514.350402 
L 291.776391 515.14486 
L 295.004933 516.072275 
L 298.233474 516.085591 
L 307.919098 514.664488 
L 311.147639 514.942651 
L 314.37618 515.809847 
L 317.604721 516.078218 
L 320.833262 516.501072 
L 324.061804 516.273329 
L 327.290345 515.785664 
L 333.747427 516.277573 
L 336.975969 516.805906 
L 340.20451 517.162644 
L 353.118675 516.680675 
L 359.575757 517.396435 
L 362.804298 517.423346 
L 366.03284 517.66083 
L 369.261381 517.728881 
L 372.489922 517.349922 
L 375.718463 517.096059 
L 382.175546 517.182347 
L 385.404087 517.627908 
L 388.632628 517.960332 
L 395.089711 517.729416 
L 398.318252 517.570258 
L 401.546793 517.605975 
L 411.232417 517.961601 
L 414.460958 517.755137 
L 420.91804 517.723487 
L 424.146582 517.782704 
L 427.375123 518.079372 
L 437.060747 517.718581 
L 440.289288 517.25354 
L 446.74637 516.804957 
L 449.974911 516.844851 
L 453.203453 517.06479 
L 466.117618 517.041392 
L 472.5747 517.598096 
L 475.803241 517.584088 
L 479.031783 517.759481 
L 485.488865 517.427215 
L 488.717406 517.488922 
L 498.40303 517.932245 
L 501.631571 517.952742 
L 508.088654 517.664235 
L 514.545736 517.790408 
L 517.774277 518.007218 
L 524.23136 518.016874 
L 533.916983 517.395358 
L 546.831148 517.832236 
L 550.059689 517.559175 
L 553.288231 517.138682 
L 556.516772 516.949786 
L 569.430937 517.451841 
L 575.888019 516.630898 
L 579.116561 516.401867 
L 585.573643 517.023571 
L 588.802184 517.023244 
L 592.030725 517.183472 
L 595.259267 516.608161 
L 598.487808 516.156659 
L 601.716349 515.993369 
L 604.94489 516.13402 
L 608.173432 516.575442 
L 611.401973 516.712727 
L 614.630514 516.649266 
L 621.087596 515.334349 
L 624.316138 515.037406 
L 627.544679 515.470332 
L 630.77322 516.094515 
L 637.230303 516.10046 
L 640.458844 515.378493 
L 643.687385 514.804506 
L 646.915926 514.396964 
L 650.144467 514.906494 
L 653.373009 515.588262 
L 656.60155 515.703266 
L 659.830091 516.023962 
L 666.287174 515.017985 
L 669.515715 514.907557 
L 675.972797 516.02038 
L 682.42988 516.410018 
L 685.658421 516.088938 
L 688.886962 515.571172 
L 692.115503 515.486277 
L 695.344045 515.665783 
L 698.572586 515.98404 
L 701.801127 515.969981 
L 705.029668 516.105274 
L 708.25821 515.569709 
L 711.486751 515.176494 
L 714.715292 515.117066 
L 717.943833 515.267391 
L 721.172374 515.859011 
L 724.400916 515.918365 
L 727.629457 515.775598 
L 730.857998 515.061606 
L 737.315081 514.00941 
L 740.543622 514.357824 
L 743.772163 515.110794 
L 747.000704 515.186872 
L 750.229246 515.507558 
L 753.457787 515.078335 
L 756.686328 514.408188 
L 759.914869 514.056731 
L 763.14341 514.279549 
L 766.371952 514.82527 
L 769.600493 514.885822 
L 772.829034 515.293227 
L 776.057575 514.728104 
L 779.286117 513.960491 
L 785.743199 513.519721 
L 788.97174 514.138836 
L 792.200281 514.192857 
L 795.428823 514.092602 
L 798.657364 513.227319 
L 801.885905 511.678207 
L 805.114446 510.699107 
L 808.342988 510.444827 
L 811.571529 511.318455 
L 814.80007 511.604323 
L 818.028611 511.505689 
L 821.257152 510.102101 
L 824.485694 507.904998 
L 827.714235 506.332745 
L 830.942776 506.305903 
L 834.171317 507.555528 
L 840.6284 508.293146 
L 843.856941 506.062684 
L 847.085482 503.348889 
L 850.314024 500.437193 
L 853.542565 499.360481 
L 856.771106 500.89177 
L 863.228188 501.780213 
L 866.45673 500.216902 
L 869.685271 497.103049 
L 872.913812 495.039724 
L 876.142353 496.015969 
L 879.370895 498.232366 
L 882.599436 499.953848 
L 885.827977 501.126949 
L 889.056518 499.897356 
L 892.285059 497.656985 
L 895.513601 496.00463 
L 898.742142 496.942374 
L 901.970683 499.294319 
L 905.199224 501.419041 
L 908.427766 503.14002 
L 911.656307 502.116643 
L 914.884848 500.096552 
L 918.113389 498.881283 
L 921.34193 499.673404 
L 924.570472 502.489931 
L 927.799013 504.77656 
L 931.027554 506.076815 
L 934.256095 505.199782 
L 937.484637 502.90185 
L 940.713178 501.532227 
L 943.941719 502.169956 
L 947.17026 504.631907 
L 950.398802 506.689801 
L 953.627343 507.656002 
L 956.855884 506.705322 
L 960.084425 504.839808 
L 963.312966 503.669464 
L 966.541508 504.540205 
L 969.770049 506.51843 
L 972.99859 508.122932 
L 976.227131 508.935906 
L 979.455673 507.92892 
L 982.684214 506.214433 
L 985.912755 504.927772 
L 989.141296 505.017698 
L 995.598379 508.019531 
L 998.82692 508.491549 
L 1002.055461 507.808496 
L 1005.284002 505.593769 
L 1008.512544 503.845072 
L 1011.741085 504.104162 
L 1014.969626 505.210169 
L 1018.198167 507.300629 
L 1021.426709 507.53687 
L 1024.65525 506.850124 
L 1031.112332 503.082409 
L 1034.340873 503.855285 
L 1037.569415 505.178637 
L 1040.797956 506.913652 
L 1044.026497 507.747877 
L 1050.48358 506.010964 
L 1050.48358 506.010964 
" style="fill:none;stroke:#e24a33;stroke-dasharray:1.5,2.475;stroke-dashoffset:0;stroke-width:1.5;"/>
   </g>
   <g id="line2d_41">
    <path clip-path="url(#p306392d5b6)" d="M 91.606835 265.168783 
L 94.835377 235.568984 
L 98.063918 272.793495 
L 101.292459 255.008927 
L 104.521 212.429919 
L 107.749541 207.897317 
L 110.978083 215.889854 
L 114.206624 244.547969 
L 117.435165 283.130054 
L 120.663706 280.082255 
L 123.892248 291.206597 
L 127.120789 299.439693 
L 130.34933 277.962844 
L 133.577871 282.743784 
L 136.806413 266.25171 
L 140.034954 256.138993 
L 146.492036 273.879604 
L 149.720577 305.552643 
L 152.949119 345.574608 
L 156.17766 358.157292 
L 159.406201 367.400789 
L 162.634742 371.575825 
L 165.863284 375.093093 
L 169.091825 385.790347 
L 172.320366 401.889033 
L 175.548907 422.30446 
L 178.777448 437.974641 
L 188.463072 482.740112 
L 191.691613 495.632212 
L 194.920155 503.172764 
L 201.377237 508.141238 
L 204.605778 510.889121 
L 207.83432 514.247359 
L 211.062861 521.129574 
L 214.291402 526.43367 
L 217.519943 532.2516 
L 220.748484 538.827111 
L 223.977026 541.908456 
L 227.205567 546.904315 
L 230.434108 551.023567 
L 236.891191 555.264767 
L 240.119732 552.646585 
L 243.348273 547.262351 
L 246.576814 542.410192 
L 249.805355 537.022584 
L 253.033897 534.234789 
L 256.262438 532.442948 
L 259.490979 531.454144 
L 262.71952 534.307061 
L 265.948062 538.862308 
L 269.176603 544.172585 
L 272.405144 548.591648 
L 275.633685 550.506379 
L 278.862226 552.19231 
L 282.090768 552.140895 
L 285.319309 552.817531 
L 288.54785 554.832461 
L 291.776391 556.043443 
L 295.004933 558.738754 
L 298.233474 558.757505 
L 301.462015 555.390299 
L 304.690556 550.29507 
L 307.919098 537.234249 
L 311.147639 526.8038 
L 314.37618 523.624449 
L 317.604721 518.915672 
L 320.833262 518.726755 
L 324.061804 519.915148 
L 327.290345 519.708195 
L 330.518886 530.284849 
L 333.747427 537.004454 
L 336.975969 540.328103 
L 340.20451 544.653609 
L 346.661592 540.405611 
L 349.890133 540.48051 
L 353.118675 534.80858 
L 356.347216 536.716707 
L 359.575757 537.896438 
L 362.804298 534.981042 
L 366.03284 537.359276 
L 369.261381 540.665548 
L 372.489922 540.338192 
L 375.718463 541.558766 
L 378.947004 533.404005 
L 382.175546 518.386278 
L 385.404087 515.824631 
L 388.632628 516.645233 
L 391.861169 517.205246 
L 395.089711 524.569442 
L 398.318252 528.304726 
L 401.546793 528.912123 
L 404.775334 536.315408 
L 408.003876 535.416369 
L 411.232417 531.528652 
L 414.460958 525.376389 
L 417.689499 518.057398 
L 420.91804 515.667992 
L 424.146582 519.522784 
L 427.375123 527.804979 
L 430.603664 529.664589 
L 433.832205 528.196145 
L 437.060747 524.590281 
L 440.289288 504.339988 
L 443.517829 487.066574 
L 446.74637 463.979994 
L 449.974911 442.420781 
L 453.203453 435.230373 
L 456.431994 430.481214 
L 459.660535 434.889292 
L 462.889076 459.195892 
L 466.117618 479.461279 
L 469.346159 509.052167 
L 472.5747 530.226024 
L 475.803241 537.661886 
L 479.031783 545.900411 
L 482.260324 546.160294 
L 485.488865 539.946146 
L 488.717406 538.750842 
L 491.945947 534.465877 
L 495.174489 534.002442 
L 498.40303 536.38092 
L 504.860112 534.00238 
L 508.088654 532.134137 
L 511.317195 528.059752 
L 514.545736 526.163056 
L 517.774277 525.137017 
L 521.002818 523.572511 
L 524.23136 522.544951 
L 527.459901 520.496363 
L 530.688442 512.619686 
L 537.145525 495.445598 
L 540.374066 489.918395 
L 543.602607 488.595929 
L 546.831148 488.836079 
L 550.059689 489.358422 
L 553.288231 491.139108 
L 556.516772 489.5287 
L 559.745313 486.292032 
L 562.973854 482.536827 
L 566.202396 480.965241 
L 569.430937 480.226297 
L 572.659478 478.831453 
L 575.888019 481.642688 
L 579.116561 483.503366 
L 582.345102 488.177664 
L 585.573643 493.378464 
L 588.802184 494.153653 
L 592.030725 495.321271 
L 595.259267 494.600155 
L 598.487808 492.407823 
L 601.716349 494.262169 
L 604.94489 491.676839 
L 608.173432 491.222954 
L 611.401973 491.831749 
L 614.630514 489.898534 
L 617.859055 490.262792 
L 621.087596 488.570694 
L 624.316138 483.701662 
L 627.544679 485.477326 
L 630.77322 486.177217 
L 634.001761 486.669063 
L 637.230303 487.668288 
L 640.458844 487.781597 
L 643.687385 489.283171 
L 646.915926 491.942261 
L 650.144467 493.949843 
L 653.373009 494.714281 
L 656.60155 494.465942 
L 659.830091 496.331372 
L 663.058632 500.499435 
L 666.287174 506.751032 
L 669.515715 515.234822 
L 672.744256 520.093526 
L 675.972797 521.850863 
L 679.201339 524.127457 
L 682.42988 524.556981 
L 685.658421 525.192089 
L 688.886962 525.59852 
L 692.115503 524.684047 
L 695.344045 522.609934 
L 698.572586 518.809894 
L 705.029668 510.216924 
L 708.25821 505.38165 
L 711.486751 502.652752 
L 717.943833 502.52348 
L 721.172374 505.238246 
L 724.400916 506.980664 
L 727.629457 506.787841 
L 730.857998 506.128386 
L 734.086539 502.2635 
L 737.315081 494.351311 
L 740.543622 490.808249 
L 743.772163 489.081468 
L 747.000704 488.034531 
L 750.229246 490.886473 
L 753.457787 495.616745 
L 756.686328 501.386006 
L 759.914869 508.842909 
L 763.14341 510.839527 
L 766.371952 509.059412 
L 772.829034 506.835699 
L 776.057575 505.453055 
L 779.286117 504.789804 
L 782.514658 505.165382 
L 785.743199 502.138777 
L 788.97174 500.381092 
L 792.200281 498.987909 
L 795.428823 494.710277 
L 798.657364 491.171079 
L 801.885905 484.113423 
L 805.114446 473.549796 
L 808.342988 467.260216 
L 811.571529 462.579508 
L 814.80007 460.962953 
L 818.028611 461.264646 
L 821.257152 461.147287 
L 824.485694 462.191245 
L 827.714235 462.157251 
L 830.942776 462.940608 
L 834.171317 463.507902 
L 837.399859 463.378985 
L 840.6284 464.191497 
L 843.856941 464.109456 
L 847.085482 465.266723 
L 850.314024 465.240724 
L 853.542565 461.28647 
L 856.771106 457.918589 
L 859.999647 453.996303 
L 863.228188 451.299857 
L 866.45673 451.889397 
L 869.685271 454.5772 
L 872.913812 461.225644 
L 876.142353 471.928457 
L 879.370895 478.09318 
L 882.599436 483.684392 
L 885.827977 487.622845 
L 889.056518 490.386188 
L 892.285059 494.500827 
L 895.513601 497.875665 
L 898.742142 500.239962 
L 901.970683 502.079328 
L 905.199224 503.401743 
L 908.427766 505.051756 
L 918.113389 510.68315 
L 921.34193 511.390102 
L 924.570472 513.111604 
L 927.799013 515.326703 
L 934.256095 518.74511 
L 937.484637 518.87405 
L 943.941719 515.575085 
L 947.17026 514.487943 
L 950.398802 514.684699 
L 953.627343 514.99352 
L 960.084425 515.15799 
L 963.312966 514.930744 
L 966.541508 515.737308 
L 969.770049 516.663693 
L 976.227131 517.312474 
L 979.455673 516.912208 
L 982.684214 516.241206 
L 985.912755 515.035058 
L 989.141296 511.95646 
L 992.369837 509.318725 
L 998.82692 505.379879 
L 1002.055461 504.714294 
L 1005.284002 503.352033 
L 1008.512544 500.907705 
L 1011.741085 499.951454 
L 1014.969626 496.976647 
L 1024.65525 496.051038 
L 1027.883791 497.46589 
L 1031.112332 497.816871 
L 1037.569415 502.747376 
L 1040.797956 503.196054 
L 1044.026497 504.623788 
L 1047.255038 505.155821 
L 1050.48358 507.465293 
L 1050.48358 507.465293 
" style="fill:none;stroke:#348abd;stroke-linecap:square;stroke-width:1.5;"/>
   </g>
   <g id="line2d_42">
    <path clip-path="url(#p306392d5b6)" d="M 91.606835 265.168783 
L 94.835377 205.969184 
L 98.063918 347.242518 
L 101.292459 201.655221 
L 104.521 42.11389 
L 107.749541 185.234308 
L 110.978083 263.845071 
L 114.206624 465.77559 
L 117.435165 476.043779 
L 120.663706 325.907925 
L 123.892248 279.525613 
L 127.120789 99.745568 
L 130.34933 34.896364 
L 133.577871 297.311649 
L 136.806413 350.331076 
L 140.034954 405.254755 
L 143.263495 387.057046 
L 146.492036 342.560772 
L 149.720577 321.45684 
L 152.949119 315.050117 
L 156.17766 385.390439 
L 159.406201 415.035555 
L 162.634742 434.480004 
L 165.863284 411.677921 
L 169.091825 417.441553 
L 172.320366 434.14764 
L 175.548907 457.958104 
L 178.777448 495.081711 
L 182.00599 519.190809 
L 185.234531 535.973206 
L 188.463072 519.387759 
L 191.691613 507.686256 
L 194.920155 486.931502 
L 198.148696 474.937279 
L 201.377237 512.881856 
L 204.605778 538.425987 
L 207.83432 559.480873 
L 211.062861 567.563266 
L 214.291402 544.814925 
L 217.519943 527.657012 
L 220.748484 520.965857 
L 223.977026 534.451273 
L 227.205567 573.397001 
L 230.434108 588.315633 
L 233.662649 582.404494 
L 236.891191 559.662101 
L 240.119732 509.329733 
L 243.348273 483.276223 
L 246.576814 500.486158 
L 249.805355 535.683745 
L 253.033897 568.801069 
L 256.262438 569.861607 
L 259.490979 552.74047 
L 262.71952 529.300153 
L 265.948062 515.162956 
L 269.176603 537.658092 
L 272.405144 566.617188 
L 275.633685 582.204187 
L 278.862226 581.663125 
L 282.090768 552.380564 
L 285.319309 534.036608 
L 288.54785 529.267466 
L 291.776391 546.134964 
L 295.004933 585.484365 
L 298.233474 582.335444 
L 301.462015 558.092681 
L 304.690556 516.71396 
L 307.919098 442.610867 
L 311.147639 456.254323 
L 314.37618 523.879506 
L 320.833262 581.013023 
L 324.061804 566.41143 
L 327.290345 515.265288 
L 330.518886 516.647446 
L 333.747427 503.291561 
L 336.975969 547.145046 
L 340.20451 582.801468 
L 343.433051 566.43179 
L 346.661592 551.256682 
L 349.890133 515.789576 
L 353.118675 476.943939 
L 359.575757 555.403162 
L 362.804298 562.393697 
L 366.03284 583.079425 
L 369.261381 574.40059 
L 372.489922 513.498085 
L 375.718463 485.487955 
L 378.947004 459.565121 
L 382.175546 450.279072 
L 385.404087 544.46217 
L 388.632628 588.823636 
L 391.861169 578.320681 
L 395.089711 565.047457 
L 398.318252 511.634943 
L 401.546793 463.816904 
L 404.775334 502.102064 
L 408.003876 538.168896 
L 411.232417 561.609618 
L 414.460958 535.254839 
L 417.689499 513.81452 
L 420.91804 494.909104 
L 424.146582 490.800446 
L 427.375123 560.07743 
L 430.603664 551.186167 
L 433.832205 551.330511 
L 437.060747 510.013785 
L 440.289288 372.062476 
L 443.517829 373.995203 
L 446.74637 329.194386 
L 449.974911 409.162943 
L 453.203453 500.853311 
L 456.431994 518.086394 
L 459.660535 540.870332 
L 462.889076 542.208674 
L 466.117618 515.852909 
L 472.5747 557.379943 
L 475.803241 552.904341 
L 479.031783 575.756071 
L 482.260324 542.689514 
L 485.488865 498.709638 
L 488.717406 507.485781 
L 491.945947 506.335851 
L 495.174489 554.135901 
L 498.40303 569.553683 
L 501.631571 567.480287 
L 504.860112 534.315517 
L 508.088654 485.631942 
L 511.317195 478.965081 
L 514.545736 493.058982 
L 517.774277 546.953629 
L 521.002818 558.602141 
L 524.23136 560.287364 
L 527.459901 519.9754 
L 530.688442 430.495204 
L 533.916983 419.255333 
L 537.145525 432.550112 
L 540.374066 508.263214 
L 543.602607 549.344879 
L 546.831148 561.96841 
L 550.059689 523.631801 
L 553.288231 442.960006 
L 556.516772 407.982481 
L 559.745313 409.893436 
L 562.973854 481.976777 
L 566.202396 538.343776 
L 569.430937 556.795804 
L 572.659478 513.867892 
L 575.888019 462.63865 
L 579.116561 421.007226 
L 582.345102 442.613522 
L 585.573643 518.382373 
L 588.802184 543.770104 
L 592.030725 564.969132 
L 595.259267 508.820077 
L 598.487808 447.292329 
L 601.716349 433.987648 
L 604.94489 424.516208 
L 608.173432 515.205182 
L 611.401973 548.031668 
L 614.630514 551.436622 
L 617.859055 511.369888 
L 621.087596 435.447642 
L 624.316138 399.90442 
L 627.544679 436.94586 
L 630.77322 520.10442 
L 634.001761 551.474589 
L 637.230303 558.4312 
L 640.458844 512.163049 
L 643.687385 445.958657 
L 646.915926 418.51805 
L 650.144467 450.998934 
L 653.373009 525.455489 
L 656.60155 549.736212 
L 659.830091 571.489212 
L 663.058632 541.33949 
L 666.287174 489.719838 
L 669.515715 477.90458 
L 672.744256 485.009859 
L 675.972797 537.756848 
L 679.201339 565.672368 
L 682.42988 574.495885 
L 685.658421 545.785243 
L 688.886962 492.564855 
L 692.115503 471.503274 
L 695.344045 470.491068 
L 698.572586 511.156567 
L 701.801127 535.228119 
L 705.029668 544.789345 
L 708.25821 511.938326 
L 711.486751 473.462567 
L 714.715292 471.194563 
L 717.943833 469.894876 
L 721.172374 530.15993 
L 724.400916 547.425039 
L 727.629457 543.439588 
L 730.857998 507.32214 
L 734.086539 446.408363 
L 737.315081 415.809242 
L 740.543622 445.093439 
L 743.772163 518.072466 
L 747.000704 540.09648 
L 750.229246 563.40318 
L 753.457787 540.434048 
L 756.686328 486.79319 
L 759.914869 468.007561 
L 763.14341 459.069765 
L 766.371952 505.611659 
L 769.600493 532.313766 
L 772.829034 555.619907 
L 776.057575 530.755537 
L 779.286117 482.150435 
L 782.514658 470.636604 
L 785.743199 437.883529 
L 788.97174 493.307866 
L 792.200281 522.561484 
L 795.428823 525.676484 
L 798.657364 505.98115 
L 801.885905 432.746842 
L 805.114446 396.691217 
L 808.342988 393.85647 
L 811.571529 460.542909 
L 814.80007 511.245598 
L 818.028611 527.788336 
L 821.257152 505.159635 
L 824.485694 440.054547 
L 827.714235 396.453261 
L 830.942776 399.339973 
L 834.171317 464.513962 
L 837.399859 510.34318 
L 840.6284 533.475923 
L 843.856941 504.585346 
L 847.085482 448.155413 
L 850.314024 396.271267 
L 853.542565 371.660199 
L 856.771106 440.938797 
L 859.999647 482.887177 
L 863.228188 514.600798 
L 866.45673 508.71213 
L 869.685271 466.970032 
L 872.913812 442.810373 
L 876.142353 446.579889 
L 882.599436 522.025658 
L 885.827977 542.169972 
L 889.056518 528.055529 
L 892.285059 495.772504 
L 895.513601 466.434243 
L 898.742142 463.129969 
L 905.199224 531.282565 
L 908.427766 553.720063 
L 911.656307 541.199647 
L 914.884848 509.304864 
L 918.113389 479.177524 
L 921.34193 468.078633 
L 924.570472 509.017934 
L 927.799013 546.788259 
L 931.027554 565.358603 
L 934.256095 553.489957 
L 940.713178 468.038481 
L 943.941719 456.124926 
L 950.398802 548.165549 
L 953.627343 567.520352 
L 956.855884 553.853812 
L 960.084425 510.994871 
L 963.312966 466.44776 
L 966.541508 461.770874 
L 969.770049 507.892632 
L 972.99859 550.599098 
L 976.227131 569.628271 
L 979.455673 551.051949 
L 982.684214 506.297855 
L 985.912755 458.004726 
L 989.141296 440.220689 
L 992.369837 489.428483 
L 995.598379 536.693475 
L 998.82692 555.961973 
L 1002.055461 546.392858 
L 1005.284002 496.76203 
L 1008.512544 440.894426 
L 1011.741085 433.526932 
L 1014.969626 468.604832 
L 1018.198167 534.474212 
L 1021.426709 554.314145 
L 1024.65525 543.780689 
L 1027.883791 506.665997 
L 1031.112332 443.351289 
L 1034.340873 450.739171 
L 1037.569415 485.90613 
L 1040.797956 537.614956 
L 1044.026497 564.308283 
L 1047.255038 547.504919 
L 1050.48358 522.832303 
L 1050.48358 522.832303 
" style="fill:none;stroke:#348abd;stroke-dasharray:1.5,2.475;stroke-dashoffset:0;stroke-width:1.5;"/>
   </g>
   <g id="line2d_43">
    <path clip-path="url(#p306392d5b6)" d="M 30.103125 519.259461 
L 1099.073125 519.259461 
" style="fill:none;stroke:#008000;stroke-linecap:square;stroke-opacity:0.5;stroke-width:1.5;"/>
   </g>
   <g id="patch_3">
    <path d="M 30.103125 616.52 
L 30.103125 7.2 
" style="fill:none;stroke:#ffffff;stroke-linecap:square;stroke-linejoin:miter;"/>
   </g>
   <g id="patch_4">
    <path d="M 1099.073125 616.52 
L 1099.073125 7.2 
" style="fill:none;stroke:#ffffff;stroke-linecap:square;stroke-linejoin:miter;"/>
   </g>
   <g id="patch_5">
    <path d="M 30.103125 616.52 
L 1099.073125 616.52 
" style="fill:none;stroke:#ffffff;stroke-linecap:square;stroke-linejoin:miter;"/>
   </g>
   <g id="patch_6">
    <path d="M 30.103125 7.2 
L 1099.073125 7.2 
" style="fill:none;stroke:#ffffff;stroke-linecap:square;stroke-linejoin:miter;"/>
   </g>
  </g>
  <g id="axes_2">
   <g id="matplotlib.axis_3">
    <g id="ytick_9">
     <g id="line2d_44">
      <path clip-path="url(#p306392d5b6)" d="M 30.103125 589.00409 
L 1099.073125 589.00409 
" style="fill:none;stroke:#ffffff;stroke-linecap:square;stroke-width:0.8;"/>
     </g>
     <g id="line2d_45">
      <defs>
       <path d="M 0 0 
L 3.5 0 
" id="m59692e5126" style="stroke:#555555;stroke-width:0.8;"/>
      </defs>
      <g>
       <use style="fill:#555555;stroke:#555555;stroke-width:0.8;" x="1099.073125" xlink:href="#m59692e5126" y="589.00409"/>
      </g>
     </g>
     <g id="text_20">
      <!-- 0 -->
      <g style="fill:#555555;" transform="translate(1106.073125 592.803309)scale(0.1 -0.1)">
       <use xlink:href="#DejaVuSans-48"/>
      </g>
     </g>
    </g>
    <g id="ytick_10">
     <g id="line2d_46">
      <path clip-path="url(#p306392d5b6)" d="M 30.103125 506.979676 
L 1099.073125 506.979676 
" style="fill:none;stroke:#ffffff;stroke-linecap:square;stroke-width:0.8;"/>
     </g>
     <g id="line2d_47">
      <g>
       <use style="fill:#555555;stroke:#555555;stroke-width:0.8;" x="1099.073125" xlink:href="#m59692e5126" y="506.979676"/>
      </g>
     </g>
     <g id="text_21">
      <!-- 5000 -->
      <g style="fill:#555555;" transform="translate(1106.073125 510.778895)scale(0.1 -0.1)">
       <use xlink:href="#DejaVuSans-53"/>
       <use x="63.623047" xlink:href="#DejaVuSans-48"/>
       <use x="127.246094" xlink:href="#DejaVuSans-48"/>
       <use x="190.869141" xlink:href="#DejaVuSans-48"/>
      </g>
     </g>
    </g>
    <g id="ytick_11">
     <g id="line2d_48">
      <path clip-path="url(#p306392d5b6)" d="M 30.103125 424.955262 
L 1099.073125 424.955262 
" style="fill:none;stroke:#ffffff;stroke-linecap:square;stroke-width:0.8;"/>
     </g>
     <g id="line2d_49">
      <g>
       <use style="fill:#555555;stroke:#555555;stroke-width:0.8;" x="1099.073125" xlink:href="#m59692e5126" y="424.955262"/>
      </g>
     </g>
     <g id="text_22">
      <!-- 10000 -->
      <g style="fill:#555555;" transform="translate(1106.073125 428.754481)scale(0.1 -0.1)">
       <use xlink:href="#DejaVuSans-49"/>
       <use x="63.623047" xlink:href="#DejaVuSans-48"/>
       <use x="127.246094" xlink:href="#DejaVuSans-48"/>
       <use x="190.869141" xlink:href="#DejaVuSans-48"/>
       <use x="254.492188" xlink:href="#DejaVuSans-48"/>
      </g>
     </g>
    </g>
    <g id="ytick_12">
     <g id="line2d_50">
      <path clip-path="url(#p306392d5b6)" d="M 30.103125 342.930848 
L 1099.073125 342.930848 
" style="fill:none;stroke:#ffffff;stroke-linecap:square;stroke-width:0.8;"/>
     </g>
     <g id="line2d_51">
      <g>
       <use style="fill:#555555;stroke:#555555;stroke-width:0.8;" x="1099.073125" xlink:href="#m59692e5126" y="342.930848"/>
      </g>
     </g>
     <g id="text_23">
      <!-- 15000 -->
      <g style="fill:#555555;" transform="translate(1106.073125 346.730067)scale(0.1 -0.1)">
       <use xlink:href="#DejaVuSans-49"/>
       <use x="63.623047" xlink:href="#DejaVuSans-53"/>
       <use x="127.246094" xlink:href="#DejaVuSans-48"/>
       <use x="190.869141" xlink:href="#DejaVuSans-48"/>
       <use x="254.492188" xlink:href="#DejaVuSans-48"/>
      </g>
     </g>
    </g>
    <g id="ytick_13">
     <g id="line2d_52">
      <path clip-path="url(#p306392d5b6)" d="M 30.103125 260.906434 
L 1099.073125 260.906434 
" style="fill:none;stroke:#ffffff;stroke-linecap:square;stroke-width:0.8;"/>
     </g>
     <g id="line2d_53">
      <g>
       <use style="fill:#555555;stroke:#555555;stroke-width:0.8;" x="1099.073125" xlink:href="#m59692e5126" y="260.906434"/>
      </g>
     </g>
     <g id="text_24">
      <!-- 20000 -->
      <g style="fill:#555555;" transform="translate(1106.073125 264.705653)scale(0.1 -0.1)">
       <use xlink:href="#DejaVuSans-50"/>
       <use x="63.623047" xlink:href="#DejaVuSans-48"/>
       <use x="127.246094" xlink:href="#DejaVuSans-48"/>
       <use x="190.869141" xlink:href="#DejaVuSans-48"/>
       <use x="254.492188" xlink:href="#DejaVuSans-48"/>
      </g>
     </g>
    </g>
    <g id="ytick_14">
     <g id="line2d_54">
      <path clip-path="url(#p306392d5b6)" d="M 30.103125 178.88202 
L 1099.073125 178.88202 
" style="fill:none;stroke:#ffffff;stroke-linecap:square;stroke-width:0.8;"/>
     </g>
     <g id="line2d_55">
      <g>
       <use style="fill:#555555;stroke:#555555;stroke-width:0.8;" x="1099.073125" xlink:href="#m59692e5126" y="178.88202"/>
      </g>
     </g>
     <g id="text_25">
      <!-- 25000 -->
      <g style="fill:#555555;" transform="translate(1106.073125 182.681239)scale(0.1 -0.1)">
       <use xlink:href="#DejaVuSans-50"/>
       <use x="63.623047" xlink:href="#DejaVuSans-53"/>
       <use x="127.246094" xlink:href="#DejaVuSans-48"/>
       <use x="190.869141" xlink:href="#DejaVuSans-48"/>
       <use x="254.492188" xlink:href="#DejaVuSans-48"/>
      </g>
     </g>
    </g>
    <g id="ytick_15">
     <g id="line2d_56">
      <path clip-path="url(#p306392d5b6)" d="M 30.103125 96.857606 
L 1099.073125 96.857606 
" style="fill:none;stroke:#ffffff;stroke-linecap:square;stroke-width:0.8;"/>
     </g>
     <g id="line2d_57">
      <g>
       <use style="fill:#555555;stroke:#555555;stroke-width:0.8;" x="1099.073125" xlink:href="#m59692e5126" y="96.857606"/>
      </g>
     </g>
     <g id="text_26">
      <!-- 30000 -->
      <g style="fill:#555555;" transform="translate(1106.073125 100.656825)scale(0.1 -0.1)">
       <use xlink:href="#DejaVuSans-51"/>
       <use x="63.623047" xlink:href="#DejaVuSans-48"/>
       <use x="127.246094" xlink:href="#DejaVuSans-48"/>
       <use x="190.869141" xlink:href="#DejaVuSans-48"/>
       <use x="254.492188" xlink:href="#DejaVuSans-48"/>
      </g>
     </g>
    </g>
    <g id="ytick_16">
     <g id="line2d_58">
      <path clip-path="url(#p306392d5b6)" d="M 30.103125 14.833192 
L 1099.073125 14.833192 
" style="fill:none;stroke:#ffffff;stroke-linecap:square;stroke-width:0.8;"/>
     </g>
     <g id="line2d_59">
      <g>
       <use style="fill:#555555;stroke:#555555;stroke-width:0.8;" x="1099.073125" xlink:href="#m59692e5126" y="14.833192"/>
      </g>
     </g>
     <g id="text_27">
      <!-- 35000 -->
      <g style="fill:#555555;" transform="translate(1106.073125 18.632411)scale(0.1 -0.1)">
       <use xlink:href="#DejaVuSans-51"/>
       <use x="63.623047" xlink:href="#DejaVuSans-53"/>
       <use x="127.246094" xlink:href="#DejaVuSans-48"/>
       <use x="190.869141" xlink:href="#DejaVuSans-48"/>
       <use x="254.492188" xlink:href="#DejaVuSans-48"/>
      </g>
     </g>
    </g>
   </g>
   <g id="line2d_60">
    <path clip-path="url(#p306392d5b6)" d="M 78.69267 588.134631 
L 81.921212 588.479134 
L 85.149753 588.309617 
L 91.606835 588.361019 
L 94.835377 588.287744 
L 98.063918 588.066668 
L 104.521 587.290952 
L 107.749541 587.187835 
L 110.978083 586.698032 
L 114.206624 586.42618 
L 117.435165 585.945751 
L 120.663706 584.389631 
L 123.892248 583.325657 
L 127.120789 581.973426 
L 136.806413 575.27086 
L 140.034954 573.463979 
L 143.263495 568.779213 
L 146.492036 563.471062 
L 149.720577 558.849572 
L 152.949119 556.728655 
L 156.17766 549.960469 
L 159.406201 541.476801 
L 162.634742 534.268027 
L 165.863284 529.222354 
L 169.091825 522.608842 
L 172.320366 514.197824 
L 175.548907 509.470875 
L 178.777448 507.856166 
L 182.00599 508.205355 
L 185.234531 505.07671 
L 188.463072 502.259757 
L 191.691613 501.336396 
L 194.920155 501.83323 
L 198.148696 497.214084 
L 201.377237 499.731061 
L 204.605778 501.561378 
L 207.83432 504.959532 
L 211.062861 507.729614 
L 214.291402 509.723979 
L 217.519943 514.291567 
L 220.748484 521.59174 
L 223.977026 524.263392 
L 227.205567 528.3693 
L 230.434108 531.924472 
L 233.662649 536.864685 
L 236.891191 541.418212 
L 240.119732 542.646235 
L 243.348273 543.496945 
L 246.576814 545.282734 
L 253.033897 546.562315 
L 256.262438 547.766902 
L 259.490979 550.211229 
L 262.71952 553.853113 
L 272.405144 558.819106 
L 275.633685 561.005642 
L 278.862226 563.053909 
L 282.090768 564.68971 
L 285.319309 567.291056 
L 288.54785 569.503372 
L 291.776391 570.297837 
L 295.004933 571.373528 
L 298.233474 572.210177 
L 301.462015 572.664827 
L 304.690556 573.672555 
L 307.919098 572.955428 
L 311.147639 573.250715 
L 314.37618 574.00534 
L 317.604721 573.424139 
L 320.833262 573.773328 
L 324.061804 574.595916 
L 327.290345 575.289608 
L 330.518886 576.768391 
L 333.747427 576.96525 
L 336.975969 577.000403 
L 340.20451 577.984696 
L 343.433051 577.987039 
L 346.661592 578.427628 
L 349.890133 579.489258 
L 353.118675 579.447074 
L 356.347216 579.803294 
L 362.804298 580.117331 
L 369.261381 582.05545 
L 372.489922 581.396912 
L 375.718463 581.162556 
L 378.947004 581.502372 
L 382.175546 581.399255 
L 385.404087 581.912494 
L 388.632628 581.959365 
L 391.861169 581.863279 
L 395.089711 582.411671 
L 398.318252 583.187387 
L 401.546793 583.152234 
L 404.775334 583.431117 
L 408.003876 583.11005 
L 411.232417 583.166295 
L 414.460958 582.788983 
L 417.689499 583.372528 
L 427.375123 583.688908 
L 437.060747 583.501424 
L 440.289288 582.301524 
L 443.517829 581.708604 
L 446.74637 580.67744 
L 449.974911 579.868914 
L 453.203453 579.57597 
L 456.431994 579.008829 
L 459.660535 578.891652 
L 462.889076 579.578313 
L 466.117618 579.376767 
L 469.346159 580.386839 
L 472.5747 581.031317 
L 475.803241 581.043035 
L 482.260324 581.624236 
L 485.488865 581.696887 
L 488.717406 582.317929 
L 495.174489 582.458542 
L 501.631571 582.873351 
L 511.317195 583.238946 
L 514.545736 583.217854 
L 517.774277 583.358467 
L 521.002818 583.306909 
L 524.23136 583.414712 
L 527.459901 583.199105 
L 533.916983 582.40464 
L 537.145525 582.512444 
L 550.059689 581.720322 
L 556.516772 580.586042 
L 566.202396 579.871257 
L 569.430937 579.33224 
L 572.659478 578.551836 
L 575.888019 578.422941 
L 579.116561 578.015162 
L 582.345102 578.167493 
L 585.573643 577.771432 
L 588.802184 577.194918 
L 592.030725 577.061335 
L 595.259267 576.726207 
L 598.487808 576.077042 
L 601.716349 575.685669 
L 604.94489 574.947449 
L 608.173432 575.118529 
L 611.401973 574.914639 
L 614.630514 573.778015 
L 617.859055 572.840593 
L 624.316138 571.446178 
L 627.544679 571.28213 
L 630.77322 570.989185 
L 634.001761 569.995518 
L 640.458844 568.715937 
L 643.687385 568.767495 
L 646.915926 567.316835 
L 653.373009 566.597364 
L 656.60155 566.859842 
L 659.830091 566.705167 
L 663.058632 567.173878 
L 666.287174 566.836406 
L 669.515715 568.137079 
L 672.744256 568.130048 
L 679.201339 568.507361 
L 682.42988 569.257298 
L 685.658421 569.716635 
L 692.115503 570.229873 
L 698.572586 569.276047 
L 701.801127 568.617508 
L 705.029668 568.804992 
L 708.25821 567.443387 
L 711.486751 567.370737 
L 714.715292 566.780161 
L 717.943833 566.873903 
L 721.172374 566.609081 
L 724.400916 566.824689 
L 727.629457 565.125611 
L 730.857998 564.417858 
L 734.086539 563.405442 
L 737.315081 561.842291 
L 740.543622 560.9119 
L 743.772163 560.923618 
L 747.000704 559.953386 
L 750.229246 560.262735 
L 753.457787 560.382257 
L 759.914869 559.334688 
L 763.14341 559.182357 
L 769.600493 557.921524 
L 772.829034 557.853561 
L 776.057575 557.009881 
L 779.286117 555.791233 
L 782.514658 555.659994 
L 785.743199 553.623445 
L 788.97174 553.17817 
L 792.200281 551.889215 
L 795.428823 549.475353 
L 798.657364 545.831126 
L 801.885905 541.511954 
L 805.114446 536.454563 
L 808.342988 533.632924 
L 811.571529 531.090167 
L 814.80007 527.614675 
L 818.028611 522.215125 
L 821.257152 516.168754 
L 824.485694 509.564617 
L 827.714235 502.278505 
L 830.942776 497.347666 
L 834.171317 492.993342 
L 837.399859 486.557941 
L 840.6284 480.785765 
L 843.856941 469.89058 
L 847.085482 460.731968 
L 850.314024 444.598937 
L 853.542565 431.50081 
L 856.771106 421.282912 
L 859.999647 410.64083 
L 863.228188 393.371176 
L 866.45673 380.512091 
L 869.685271 363.078388 
L 872.913812 352.895643 
L 876.142353 345.862635 
L 879.370895 337.866426 
L 882.599436 328.62579 
L 885.827977 323.352792 
L 889.056518 315.81592 
L 892.285059 309.195378 
L 895.513601 299.024351 
L 898.742142 294.71221 
L 901.970683 291.74527 
L 905.199224 291.792141 
L 908.427766 288.808796 
L 911.656307 284.412288 
L 914.884848 279.64081 
L 918.113389 281.839064 
L 921.34193 279.659559 
L 924.570472 285.609844 
L 931.027554 289.919641 
L 934.256095 288.17838 
L 937.484637 287.929963 
L 940.713178 286.751155 
L 943.941719 289.577482 
L 947.17026 289.48374 
L 950.398802 291.510915 
L 953.627343 288.998624 
L 956.855884 289.797776 
L 960.084425 291.771049 
L 963.312966 294.74502 
L 966.541508 297.393237 
L 969.770049 296.678453 
L 972.99859 296.561275 
L 976.227131 299.75554 
L 979.455673 300.275809 
L 982.684214 298.768904 
L 985.912755 294.965314 
L 989.141296 287.569056 
L 992.369837 284.843502 
L 995.598379 283.788902 
L 998.82692 275.481001 
L 1002.055461 271.653976 
L 1005.284002 256.594293 
L 1008.512544 244.595293 
L 1011.741085 238.893425 
L 1014.969626 229.448899 
L 1018.198167 228.563036 
L 1021.426709 212.362042 
L 1024.65525 204.759551 
L 1027.883791 195.615 
L 1031.112332 188.907747 
L 1034.340873 182.882468 
L 1037.569415 182.223929 
L 1040.797956 170.281174 
L 1044.026497 177.283716 
L 1047.255038 164.928495 
L 1050.48358 184.24876 
L 1050.48358 184.24876 
" style="fill:none;stroke:#000000;stroke-linecap:square;stroke-width:1.5;"/>
   </g>
   <g id="line2d_61">
    <path clip-path="url(#p306392d5b6)" d="M 78.69267 588.134631 
L 81.921212 588.823636 
L 85.149753 587.970582 
L 88.378294 588.544753 
L 91.606835 588.33149 
L 94.835377 587.921368 
L 98.063918 586.740216 
L 101.292459 585.083323 
L 104.521 586.444928 
L 107.749541 587.248768 
L 110.978083 585.116133 
L 114.206624 586.428523 
L 117.435165 584.558367 
L 120.663706 575.847374 
L 123.892248 577.635506 
L 127.120789 576.979311 
L 130.34933 571.893797 
L 133.577871 569.744758 
L 136.806413 570.236904 
L 140.034954 571.910202 
L 143.263495 543.054013 
L 146.492036 540.478447 
L 149.720577 544.628882 
L 152.949119 557.047378 
L 156.17766 522.367456 
L 159.406201 510.851228 
L 162.634742 521.448783 
L 169.091825 494.183867 
L 172.320366 485.751758 
L 175.548907 523.95873 
L 178.777448 511.064492 
L 182.00599 513.295556 
L 185.234531 499.548264 
L 188.463072 488.015632 
L 191.691613 487.720344 
L 194.920155 489.229593 
L 198.148696 491.624706 
L 201.377237 528.683336 
L 204.605778 526.107769 
L 207.83432 523.335344 
L 211.062861 507.406203 
L 214.291402 501.680899 
L 217.519943 521.202709 
L 220.748484 542.725916 
L 223.977026 547.384902 
L 227.205567 554.849124 
L 230.434108 548.221551 
L 233.662649 541.987696 
L 236.891191 533.555586 
L 240.119732 529.798868 
L 243.348273 548.680888 
L 246.576814 559.885423 
L 249.805355 559.721374 
L 253.033897 552.306367 
L 256.262438 550.419806 
L 259.490979 550.665879 
L 262.71952 555.292056 
L 265.948062 560.508809 
L 269.176603 572.303919 
L 272.405144 570.236904 
L 275.633685 567.612123 
L 278.862226 564.757673 
L 282.090768 562.116487 
L 285.319309 573.501476 
L 288.54785 575.995018 
L 291.776391 577.865175 
L 295.004933 577.766745 
L 298.233474 573.468666 
L 301.462015 567.940221 
L 304.690556 569.170587 
L 307.919098 568.481582 
L 311.147639 578.062033 
L 314.37618 583.147547 
L 317.604721 573.698334 
L 320.833262 575.912994 
L 324.061804 573.698334 
L 327.290345 574.026432 
L 330.518886 578.833063 
L 333.747427 579.440043 
L 336.975969 583.39362 
L 340.20451 580.588385 
L 343.433051 575.929398 
L 346.661592 576.782452 
L 349.890133 581.457844 
L 353.118675 578.537775 
L 356.347216 581.933586 
L 359.575757 584.263079 
L 362.804298 581.917181 
L 366.03284 583.065522 
L 369.261381 583.213166 
L 372.489922 576.848072 
L 375.718463 576.897287 
L 378.947004 584.312294 
L 382.175546 583.541264 
L 385.404087 585.50985 
L 388.632628 583.39362 
L 391.861169 582.540566 
L 395.089711 580.686814 
L 404.775334 585.493445 
L 408.003876 583.262381 
L 411.232417 583.787337 
L 414.460958 579.89938 
L 417.689499 584.77163 
L 420.91804 583.295191 
L 424.146582 584.952084 
L 427.375123 585.854353 
L 430.603664 582.803044 
L 433.832205 583.344406 
L 437.060747 579.489258 
L 440.289288 576.37233 
L 443.517829 579.144756 
L 446.74637 577.733936 
L 449.974911 580.194668 
L 453.203453 580.752434 
L 456.431994 579.374424 
L 459.660535 578.669014 
L 462.889076 581.178961 
L 466.117618 577.733936 
L 469.346159 584.80444 
L 472.5747 584.706011 
L 475.803241 580.834458 
L 479.031783 581.359415 
L 482.260324 580.752434 
L 485.488865 581.687512 
L 488.717406 582.08123 
L 491.945947 585.083323 
L 495.174489 585.411421 
L 498.40303 582.606186 
L 501.631571 582.491352 
L 504.860112 581.753132 
L 508.088654 582.524161 
L 511.317195 582.803044 
L 514.545736 584.935679 
L 517.774277 586.395714 
L 521.002818 582.245278 
L 524.23136 583.245976 
L 527.459901 580.243883 
L 530.688442 579.440043 
L 533.916983 580.325907 
L 537.145525 585.690304 
L 540.374066 584.919274 
L 543.602607 580.440741 
L 546.831148 581.556273 
L 550.059689 579.669712 
L 553.288231 575.634111 
L 556.516772 576.191877 
L 559.745313 584.000601 
L 562.973854 583.42643 
L 566.202396 578.619799 
L 569.430937 577.78315 
L 572.659478 574.206886 
L 575.888019 574.731842 
L 579.116561 573.337427 
L 582.345102 585.066918 
L 585.573643 580.654005 
L 588.802184 574.584198 
L 592.030725 576.848072 
L 595.259267 571.860988 
L 598.487808 570.187689 
L 601.716349 570.597812 
L 604.94489 579.89938 
L 608.173432 581.851561 
L 611.401973 573.156973 
L 614.630514 568.891704 
L 617.859055 565.299034 
L 621.087596 565.233415 
L 624.316138 565.791181 
L 627.544679 578.751038 
L 630.77322 579.800951 
L 634.001761 566.201303 
L 637.230303 564.232717 
L 640.458844 561.000955 
L 643.687385 565.594322 
L 646.915926 555.636558 
L 650.144467 576.175472 
L 653.373009 577.340218 
L 656.60155 568.03865 
L 659.830091 563.149995 
L 663.058632 564.281932 
L 666.287174 563.232019 
L 669.515715 564.741268 
L 672.744256 576.126257 
L 675.972797 578.997112 
L 679.201339 569.022943 
L 682.42988 568.399557 
L 685.658421 567.497289 
L 688.886962 565.167795 
L 692.115503 566.398162 
L 695.344045 572.796066 
L 698.572586 575.650515 
L 701.801127 564.413171 
L 705.029668 569.711948 
L 708.25821 557.966052 
L 711.486751 564.659244 
L 714.715292 562.264131 
L 717.943833 573.452261 
L 721.172374 573.796764 
L 727.629457 557.818408 
L 730.857998 553.011777 
L 734.086539 557.572335 
L 737.315081 551.322074 
L 740.543622 566.939523 
L 743.772163 573.878788 
L 747.000704 559.130798 
L 750.229246 559.983852 
L 753.457787 553.848426 
L 756.686328 553.684377 
L 759.914869 547.877049 
L 763.14341 565.873205 
L 766.371952 569.44947 
L 769.600493 554.73429 
L 772.829034 559.508111 
L 776.057575 547.942668 
L 779.286117 545.153838 
L 782.514658 546.958375 
L 785.743199 551.617362 
L 788.97174 566.332542 
L 792.200281 545.711604 
L 795.428823 542.611082 
L 798.657364 522.433076 
L 801.885905 514.919639 
L 805.114446 511.556638 
L 808.342988 531.865883 
L 811.571529 548.533244 
L 814.80007 521.383163 
L 818.028611 504.814232 
L 821.257152 480.108478 
L 824.485694 468.69068 
L 827.714235 460.553858 
L 830.942776 497.35001 
L 834.171317 518.052972 
L 837.399859 476.335355 
L 840.6284 464.409005 
L 843.856941 403.842178 
L 847.085482 404.580398 
L 850.314024 347.622645 
L 853.542565 405.66312 
L 856.771106 446.527683 
L 859.999647 401.840782 
L 863.228188 343.521424 
L 866.45673 313.828586 
L 869.685271 282.544474 
L 872.913812 276.343429 
L 876.142353 356.432067 
L 879.370895 390.554223 
L 882.599436 337.156329 
L 885.827977 306.610438 
L 889.056518 261.070483 
L 892.285059 236.200681 
L 895.513601 205.146237 
L 898.742142 326.247082 
L 901.970683 369.785641 
L 905.199224 337.484427 
L 908.427766 285.727022 
L 911.656307 230.294923 
L 914.884848 202.800339 
L 918.113389 220.534017 
L 921.34193 310.990541 
L 924.570472 411.437639 
L 927.799013 352.462085 
L 931.027554 300.917943 
L 934.256095 218.106095 
L 937.484637 201.061422 
L 940.713178 212.282361 
L 943.941719 330.77483 
L 947.17026 410.781443 
L 950.398802 366.652309 
L 953.627343 283.331909 
L 956.855884 223.70016 
L 960.084425 214.874333 
L 963.312966 233.100158 
L 966.541508 349.312347 
L 969.770049 405.777954 
L 972.99859 365.832064 
L 976.227131 305.691764 
L 979.455673 227.342044 
L 982.684214 204.325993 
L 985.912755 206.475033 
L 992.369837 386.699075 
L 995.598379 358.449867 
L 998.82692 247.536455 
L 1002.055461 200.55287 
L 1005.284002 98.908216 
L 1008.512544 122.482033 
L 1011.741085 257.625457 
L 1014.969626 320.587398 
L 1018.198167 352.248821 
L 1021.426709 134.1295 
L 1024.65525 147.33543 
L 1027.883791 34.896364 
L 1031.112332 75.531258 
L 1034.340873 215.448504 
L 1037.569415 315.977626 
L 1040.797956 268.649539 
L 1044.026497 183.14729 
L 1047.255038 60.848888 
L 1050.48358 170.138217 
L 1050.48358 170.138217 
" style="fill:none;stroke:#000000;stroke-dasharray:1.5,2.475;stroke-dashoffset:0;stroke-width:1.5;"/>
   </g>
   <g id="patch_7">
    <path d="M 30.103125 616.52 
L 30.103125 7.2 
" style="fill:none;stroke:#ffffff;stroke-linecap:square;stroke-linejoin:miter;"/>
   </g>
   <g id="patch_8">
    <path d="M 1099.073125 616.52 
L 1099.073125 7.2 
" style="fill:none;stroke:#ffffff;stroke-linecap:square;stroke-linejoin:miter;"/>
   </g>
   <g id="patch_9">
    <path d="M 30.103125 616.52 
L 1099.073125 616.52 
" style="fill:none;stroke:#ffffff;stroke-linecap:square;stroke-linejoin:miter;"/>
   </g>
   <g id="patch_10">
    <path d="M 30.103125 7.2 
L 1099.073125 7.2 
" style="fill:none;stroke:#ffffff;stroke-linecap:square;stroke-linejoin:miter;"/>
   </g>
   <g id="legend_1">
    <g id="patch_11">
     <path d="M 37.103125 103.26875 
L 194.298438 103.26875 
Q 196.298438 103.26875 196.298438 101.26875 
L 196.298438 14.2 
Q 196.298438 12.2 194.298438 12.2 
L 37.103125 12.2 
Q 35.103125 12.2 35.103125 14.2 
L 35.103125 101.26875 
Q 35.103125 103.26875 37.103125 103.26875 
z
" style="fill:#e5e5e5;opacity:0.8;stroke:#cccccc;stroke-linejoin:miter;stroke-width:0.5;"/>
    </g>
    <g id="line2d_62">
     <path d="M 39.103125 20.298437 
L 59.103125 20.298437 
" style="fill:none;stroke:#e24a33;stroke-linecap:square;stroke-width:1.5;"/>
    </g>
    <g id="line2d_63"/>
    <g id="text_28">
     <!-- Logistic rate rolling week -->
     <g transform="translate(67.103125 23.798437)scale(0.1 -0.1)">
      <defs>
       <path d="M 9.8125 72.90625 
L 19.671875 72.90625 
L 19.671875 8.296875 
L 55.171875 8.296875 
L 55.171875 0 
L 9.8125 0 
z
" id="DejaVuSans-76"/>
       <path d="M 30.609375 48.390625 
Q 23.390625 48.390625 19.1875 42.75 
Q 14.984375 37.109375 14.984375 27.296875 
Q 14.984375 17.484375 19.15625 11.84375 
Q 23.34375 6.203125 30.609375 6.203125 
Q 37.796875 6.203125 41.984375 11.859375 
Q 46.1875 17.53125 46.1875 27.296875 
Q 46.1875 37.015625 41.984375 42.703125 
Q 37.796875 48.390625 30.609375 48.390625 
z
M 30.609375 56 
Q 42.328125 56 49.015625 48.375 
Q 55.71875 40.765625 55.71875 27.296875 
Q 55.71875 13.875 49.015625 6.21875 
Q 42.328125 -1.421875 30.609375 -1.421875 
Q 18.84375 -1.421875 12.171875 6.21875 
Q 5.515625 13.875 5.515625 27.296875 
Q 5.515625 40.765625 12.171875 48.375 
Q 18.84375 56 30.609375 56 
z
" id="DejaVuSans-111"/>
       <path d="M 45.40625 27.984375 
Q 45.40625 37.75 41.375 43.109375 
Q 37.359375 48.484375 30.078125 48.484375 
Q 22.859375 48.484375 18.828125 43.109375 
Q 14.796875 37.75 14.796875 27.984375 
Q 14.796875 18.265625 18.828125 12.890625 
Q 22.859375 7.515625 30.078125 7.515625 
Q 37.359375 7.515625 41.375 12.890625 
Q 45.40625 18.265625 45.40625 27.984375 
z
M 54.390625 6.78125 
Q 54.390625 -7.171875 48.1875 -13.984375 
Q 42 -20.796875 29.203125 -20.796875 
Q 24.46875 -20.796875 20.265625 -20.09375 
Q 16.0625 -19.390625 12.109375 -17.921875 
L 12.109375 -9.1875 
Q 16.0625 -11.328125 19.921875 -12.34375 
Q 23.78125 -13.375 27.78125 -13.375 
Q 36.625 -13.375 41.015625 -8.765625 
Q 45.40625 -4.15625 45.40625 5.171875 
L 45.40625 9.625 
Q 42.625 4.78125 38.28125 2.390625 
Q 33.9375 0 27.875 0 
Q 17.828125 0 11.671875 7.65625 
Q 5.515625 15.328125 5.515625 27.984375 
Q 5.515625 40.671875 11.671875 48.328125 
Q 17.828125 56 27.875 56 
Q 33.9375 56 38.28125 53.609375 
Q 42.625 51.21875 45.40625 46.390625 
L 45.40625 54.6875 
L 54.390625 54.6875 
z
" id="DejaVuSans-103"/>
       <path d="M 9.421875 54.6875 
L 18.40625 54.6875 
L 18.40625 0 
L 9.421875 0 
z
M 9.421875 75.984375 
L 18.40625 75.984375 
L 18.40625 64.59375 
L 9.421875 64.59375 
z
" id="DejaVuSans-105"/>
       <path d="M 44.28125 53.078125 
L 44.28125 44.578125 
Q 40.484375 46.53125 36.375 47.5 
Q 32.28125 48.484375 27.875 48.484375 
Q 21.1875 48.484375 17.84375 46.4375 
Q 14.5 44.390625 14.5 40.28125 
Q 14.5 37.15625 16.890625 35.375 
Q 19.28125 33.59375 26.515625 31.984375 
L 29.59375 31.296875 
Q 39.15625 29.25 43.1875 25.515625 
Q 47.21875 21.78125 47.21875 15.09375 
Q 47.21875 7.46875 41.1875 3.015625 
Q 35.15625 -1.421875 24.609375 -1.421875 
Q 20.21875 -1.421875 15.453125 -0.5625 
Q 10.6875 0.296875 5.421875 2 
L 5.421875 11.28125 
Q 10.40625 8.6875 15.234375 7.390625 
Q 20.0625 6.109375 24.8125 6.109375 
Q 31.15625 6.109375 34.5625 8.28125 
Q 37.984375 10.453125 37.984375 14.40625 
Q 37.984375 18.0625 35.515625 20.015625 
Q 33.0625 21.96875 24.703125 23.78125 
L 21.578125 24.515625 
Q 13.234375 26.265625 9.515625 29.90625 
Q 5.8125 33.546875 5.8125 39.890625 
Q 5.8125 47.609375 11.28125 51.796875 
Q 16.75 56 26.8125 56 
Q 31.78125 56 36.171875 55.265625 
Q 40.578125 54.546875 44.28125 53.078125 
z
" id="DejaVuSans-115"/>
       <path d="M 18.3125 70.21875 
L 18.3125 54.6875 
L 36.8125 54.6875 
L 36.8125 47.703125 
L 18.3125 47.703125 
L 18.3125 18.015625 
Q 18.3125 11.328125 20.140625 9.421875 
Q 21.96875 7.515625 27.59375 7.515625 
L 36.8125 7.515625 
L 36.8125 0 
L 27.59375 0 
Q 17.1875 0 13.234375 3.875 
Q 9.28125 7.765625 9.28125 18.015625 
L 9.28125 47.703125 
L 2.6875 47.703125 
L 2.6875 54.6875 
L 9.28125 54.6875 
L 9.28125 70.21875 
z
" id="DejaVuSans-116"/>
       <path d="M 48.78125 52.59375 
L 48.78125 44.1875 
Q 44.96875 46.296875 41.140625 47.34375 
Q 37.3125 48.390625 33.40625 48.390625 
Q 24.65625 48.390625 19.8125 42.84375 
Q 14.984375 37.3125 14.984375 27.296875 
Q 14.984375 17.28125 19.8125 11.734375 
Q 24.65625 6.203125 33.40625 6.203125 
Q 37.3125 6.203125 41.140625 7.25 
Q 44.96875 8.296875 48.78125 10.40625 
L 48.78125 2.09375 
Q 45.015625 0.34375 40.984375 -0.53125 
Q 36.96875 -1.421875 32.421875 -1.421875 
Q 20.0625 -1.421875 12.78125 6.34375 
Q 5.515625 14.109375 5.515625 27.296875 
Q 5.515625 40.671875 12.859375 48.328125 
Q 20.21875 56 33.015625 56 
Q 37.15625 56 41.109375 55.140625 
Q 45.0625 54.296875 48.78125 52.59375 
z
" id="DejaVuSans-99"/>
       <path id="DejaVuSans-32"/>
       <path d="M 41.109375 46.296875 
Q 39.59375 47.171875 37.8125 47.578125 
Q 36.03125 48 33.890625 48 
Q 26.265625 48 22.1875 43.046875 
Q 18.109375 38.09375 18.109375 28.8125 
L 18.109375 0 
L 9.078125 0 
L 9.078125 54.6875 
L 18.109375 54.6875 
L 18.109375 46.1875 
Q 20.953125 51.171875 25.484375 53.578125 
Q 30.03125 56 36.53125 56 
Q 37.453125 56 38.578125 55.875 
Q 39.703125 55.765625 41.0625 55.515625 
z
" id="DejaVuSans-114"/>
       <path d="M 34.28125 27.484375 
Q 23.390625 27.484375 19.1875 25 
Q 14.984375 22.515625 14.984375 16.5 
Q 14.984375 11.71875 18.140625 8.90625 
Q 21.296875 6.109375 26.703125 6.109375 
Q 34.1875 6.109375 38.703125 11.40625 
Q 43.21875 16.703125 43.21875 25.484375 
L 43.21875 27.484375 
z
M 52.203125 31.203125 
L 52.203125 0 
L 43.21875 0 
L 43.21875 8.296875 
Q 40.140625 3.328125 35.546875 0.953125 
Q 30.953125 -1.421875 24.3125 -1.421875 
Q 15.921875 -1.421875 10.953125 3.296875 
Q 6 8.015625 6 15.921875 
Q 6 25.140625 12.171875 29.828125 
Q 18.359375 34.515625 30.609375 34.515625 
L 43.21875 34.515625 
L 43.21875 35.40625 
Q 43.21875 41.609375 39.140625 45 
Q 35.0625 48.390625 27.6875 48.390625 
Q 23 48.390625 18.546875 47.265625 
Q 14.109375 46.140625 10.015625 43.890625 
L 10.015625 52.203125 
Q 14.9375 54.109375 19.578125 55.046875 
Q 24.21875 56 28.609375 56 
Q 40.484375 56 46.34375 49.84375 
Q 52.203125 43.703125 52.203125 31.203125 
z
" id="DejaVuSans-97"/>
       <path d="M 56.203125 29.59375 
L 56.203125 25.203125 
L 14.890625 25.203125 
Q 15.484375 15.921875 20.484375 11.0625 
Q 25.484375 6.203125 34.421875 6.203125 
Q 39.59375 6.203125 44.453125 7.46875 
Q 49.3125 8.734375 54.109375 11.28125 
L 54.109375 2.78125 
Q 49.265625 0.734375 44.1875 -0.34375 
Q 39.109375 -1.421875 33.890625 -1.421875 
Q 20.796875 -1.421875 13.15625 6.1875 
Q 5.515625 13.8125 5.515625 26.8125 
Q 5.515625 40.234375 12.765625 48.109375 
Q 20.015625 56 32.328125 56 
Q 43.359375 56 49.78125 48.890625 
Q 56.203125 41.796875 56.203125 29.59375 
z
M 47.21875 32.234375 
Q 47.125 39.59375 43.09375 43.984375 
Q 39.0625 48.390625 32.421875 48.390625 
Q 24.90625 48.390625 20.390625 44.140625 
Q 15.875 39.890625 15.1875 32.171875 
z
" id="DejaVuSans-101"/>
       <path d="M 9.421875 75.984375 
L 18.40625 75.984375 
L 18.40625 0 
L 9.421875 0 
z
" id="DejaVuSans-108"/>
       <path d="M 54.890625 33.015625 
L 54.890625 0 
L 45.90625 0 
L 45.90625 32.71875 
Q 45.90625 40.484375 42.875 44.328125 
Q 39.84375 48.1875 33.796875 48.1875 
Q 26.515625 48.1875 22.3125 43.546875 
Q 18.109375 38.921875 18.109375 30.90625 
L 18.109375 0 
L 9.078125 0 
L 9.078125 54.6875 
L 18.109375 54.6875 
L 18.109375 46.1875 
Q 21.34375 51.125 25.703125 53.5625 
Q 30.078125 56 35.796875 56 
Q 45.21875 56 50.046875 50.171875 
Q 54.890625 44.34375 54.890625 33.015625 
z
" id="DejaVuSans-110"/>
       <path d="M 4.203125 54.6875 
L 13.1875 54.6875 
L 24.421875 12.015625 
L 35.59375 54.6875 
L 46.1875 54.6875 
L 57.421875 12.015625 
L 68.609375 54.6875 
L 77.59375 54.6875 
L 63.28125 0 
L 52.6875 0 
L 40.921875 44.828125 
L 29.109375 0 
L 18.5 0 
z
" id="DejaVuSans-119"/>
       <path d="M 9.078125 75.984375 
L 18.109375 75.984375 
L 18.109375 31.109375 
L 44.921875 54.6875 
L 56.390625 54.6875 
L 27.390625 29.109375 
L 57.625 0 
L 45.90625 0 
L 18.109375 26.703125 
L 18.109375 0 
L 9.078125 0 
z
" id="DejaVuSans-107"/>
      </defs>
      <use xlink:href="#DejaVuSans-76"/>
      <use x="53.962891" xlink:href="#DejaVuSans-111"/>
      <use x="115.144531" xlink:href="#DejaVuSans-103"/>
      <use x="178.621094" xlink:href="#DejaVuSans-105"/>
      <use x="206.404297" xlink:href="#DejaVuSans-115"/>
      <use x="258.503906" xlink:href="#DejaVuSans-116"/>
      <use x="297.712891" xlink:href="#DejaVuSans-105"/>
      <use x="325.496094" xlink:href="#DejaVuSans-99"/>
      <use x="380.476562" xlink:href="#DejaVuSans-32"/>
      <use x="412.263672" xlink:href="#DejaVuSans-114"/>
      <use x="453.376953" xlink:href="#DejaVuSans-97"/>
      <use x="514.65625" xlink:href="#DejaVuSans-116"/>
      <use x="553.865234" xlink:href="#DejaVuSans-101"/>
      <use x="615.388672" xlink:href="#DejaVuSans-32"/>
      <use x="647.175781" xlink:href="#DejaVuSans-114"/>
      <use x="686.039062" xlink:href="#DejaVuSans-111"/>
      <use x="747.220703" xlink:href="#DejaVuSans-108"/>
      <use x="775.003906" xlink:href="#DejaVuSans-108"/>
      <use x="802.787109" xlink:href="#DejaVuSans-105"/>
      <use x="830.570312" xlink:href="#DejaVuSans-110"/>
      <use x="893.949219" xlink:href="#DejaVuSans-103"/>
      <use x="957.425781" xlink:href="#DejaVuSans-32"/>
      <use x="989.212891" xlink:href="#DejaVuSans-119"/>
      <use x="1071" xlink:href="#DejaVuSans-101"/>
      <use x="1132.523438" xlink:href="#DejaVuSans-101"/>
      <use x="1194.046875" xlink:href="#DejaVuSans-107"/>
     </g>
    </g>
    <g id="line2d_64">
     <path d="M 39.103125 34.976562 
L 59.103125 34.976562 
" style="fill:none;stroke:#e24a33;stroke-dasharray:1.5,2.475;stroke-dashoffset:0;stroke-width:1.5;"/>
    </g>
    <g id="line2d_65"/>
    <g id="text_29">
     <!-- Logistic rate -->
     <g transform="translate(67.103125 38.476562)scale(0.1 -0.1)">
      <use xlink:href="#DejaVuSans-76"/>
      <use x="53.962891" xlink:href="#DejaVuSans-111"/>
      <use x="115.144531" xlink:href="#DejaVuSans-103"/>
      <use x="178.621094" xlink:href="#DejaVuSans-105"/>
      <use x="206.404297" xlink:href="#DejaVuSans-115"/>
      <use x="258.503906" xlink:href="#DejaVuSans-116"/>
      <use x="297.712891" xlink:href="#DejaVuSans-105"/>
      <use x="325.496094" xlink:href="#DejaVuSans-99"/>
      <use x="380.476562" xlink:href="#DejaVuSans-32"/>
      <use x="412.263672" xlink:href="#DejaVuSans-114"/>
      <use x="453.376953" xlink:href="#DejaVuSans-97"/>
      <use x="514.65625" xlink:href="#DejaVuSans-116"/>
      <use x="553.865234" xlink:href="#DejaVuSans-101"/>
     </g>
    </g>
    <g id="line2d_66">
     <path d="M 39.103125 49.654687 
L 59.103125 49.654687 
" style="fill:none;stroke:#348abd;stroke-linecap:square;stroke-width:1.5;"/>
    </g>
    <g id="line2d_67"/>
    <g id="text_30">
     <!-- RKI rate rolling week -->
     <g transform="translate(67.103125 53.154687)scale(0.1 -0.1)">
      <defs>
       <path d="M 44.390625 34.1875 
Q 47.5625 33.109375 50.5625 29.59375 
Q 53.5625 26.078125 56.59375 19.921875 
L 66.609375 0 
L 56 0 
L 46.6875 18.703125 
Q 43.0625 26.03125 39.671875 28.421875 
Q 36.28125 30.8125 30.421875 30.8125 
L 19.671875 30.8125 
L 19.671875 0 
L 9.8125 0 
L 9.8125 72.90625 
L 32.078125 72.90625 
Q 44.578125 72.90625 50.734375 67.671875 
Q 56.890625 62.453125 56.890625 51.90625 
Q 56.890625 45.015625 53.6875 40.46875 
Q 50.484375 35.9375 44.390625 34.1875 
z
M 19.671875 64.796875 
L 19.671875 38.921875 
L 32.078125 38.921875 
Q 39.203125 38.921875 42.84375 42.21875 
Q 46.484375 45.515625 46.484375 51.90625 
Q 46.484375 58.296875 42.84375 61.546875 
Q 39.203125 64.796875 32.078125 64.796875 
z
" id="DejaVuSans-82"/>
       <path d="M 9.8125 72.90625 
L 19.671875 72.90625 
L 19.671875 42.09375 
L 52.390625 72.90625 
L 65.09375 72.90625 
L 28.90625 38.921875 
L 67.671875 0 
L 54.6875 0 
L 19.671875 35.109375 
L 19.671875 0 
L 9.8125 0 
z
" id="DejaVuSans-75"/>
       <path d="M 9.8125 72.90625 
L 19.671875 72.90625 
L 19.671875 0 
L 9.8125 0 
z
" id="DejaVuSans-73"/>
      </defs>
      <use xlink:href="#DejaVuSans-82"/>
      <use x="69.482422" xlink:href="#DejaVuSans-75"/>
      <use x="135.058594" xlink:href="#DejaVuSans-73"/>
      <use x="164.550781" xlink:href="#DejaVuSans-32"/>
      <use x="196.337891" xlink:href="#DejaVuSans-114"/>
      <use x="237.451172" xlink:href="#DejaVuSans-97"/>
      <use x="298.730469" xlink:href="#DejaVuSans-116"/>
      <use x="337.939453" xlink:href="#DejaVuSans-101"/>
      <use x="399.462891" xlink:href="#DejaVuSans-32"/>
      <use x="431.25" xlink:href="#DejaVuSans-114"/>
      <use x="470.113281" xlink:href="#DejaVuSans-111"/>
      <use x="531.294922" xlink:href="#DejaVuSans-108"/>
      <use x="559.078125" xlink:href="#DejaVuSans-108"/>
      <use x="586.861328" xlink:href="#DejaVuSans-105"/>
      <use x="614.644531" xlink:href="#DejaVuSans-110"/>
      <use x="678.023438" xlink:href="#DejaVuSans-103"/>
      <use x="741.5" xlink:href="#DejaVuSans-32"/>
      <use x="773.287109" xlink:href="#DejaVuSans-119"/>
      <use x="855.074219" xlink:href="#DejaVuSans-101"/>
      <use x="916.597656" xlink:href="#DejaVuSans-101"/>
      <use x="978.121094" xlink:href="#DejaVuSans-107"/>
     </g>
    </g>
    <g id="line2d_68">
     <path d="M 39.103125 64.332812 
L 59.103125 64.332812 
" style="fill:none;stroke:#348abd;stroke-dasharray:1.5,2.475;stroke-dashoffset:0;stroke-width:1.5;"/>
    </g>
    <g id="line2d_69"/>
    <g id="text_31">
     <!-- RKI rate -->
     <g transform="translate(67.103125 67.832812)scale(0.1 -0.1)">
      <use xlink:href="#DejaVuSans-82"/>
      <use x="69.482422" xlink:href="#DejaVuSans-75"/>
      <use x="135.058594" xlink:href="#DejaVuSans-73"/>
      <use x="164.550781" xlink:href="#DejaVuSans-32"/>
      <use x="196.337891" xlink:href="#DejaVuSans-114"/>
      <use x="237.451172" xlink:href="#DejaVuSans-97"/>
      <use x="298.730469" xlink:href="#DejaVuSans-116"/>
      <use x="337.939453" xlink:href="#DejaVuSans-101"/>
     </g>
    </g>
    <g id="line2d_70">
     <path d="M 39.103125 79.010937 
L 59.103125 79.010937 
" style="fill:none;stroke:#000000;stroke-linecap:square;stroke-width:1.5;"/>
    </g>
    <g id="line2d_71"/>
    <g id="text_32">
     <!-- New Cases rolling week -->
     <g transform="translate(67.103125 82.510937)scale(0.1 -0.1)">
      <defs>
       <path d="M 9.8125 72.90625 
L 23.09375 72.90625 
L 55.421875 11.921875 
L 55.421875 72.90625 
L 64.984375 72.90625 
L 64.984375 0 
L 51.703125 0 
L 19.390625 60.984375 
L 19.390625 0 
L 9.8125 0 
z
" id="DejaVuSans-78"/>
       <path d="M 64.40625 67.28125 
L 64.40625 56.890625 
Q 59.421875 61.53125 53.78125 63.8125 
Q 48.140625 66.109375 41.796875 66.109375 
Q 29.296875 66.109375 22.65625 58.46875 
Q 16.015625 50.828125 16.015625 36.375 
Q 16.015625 21.96875 22.65625 14.328125 
Q 29.296875 6.6875 41.796875 6.6875 
Q 48.140625 6.6875 53.78125 8.984375 
Q 59.421875 11.28125 64.40625 15.921875 
L 64.40625 5.609375 
Q 59.234375 2.09375 53.4375 0.328125 
Q 47.65625 -1.421875 41.21875 -1.421875 
Q 24.65625 -1.421875 15.125 8.703125 
Q 5.609375 18.84375 5.609375 36.375 
Q 5.609375 53.953125 15.125 64.078125 
Q 24.65625 74.21875 41.21875 74.21875 
Q 47.75 74.21875 53.53125 72.484375 
Q 59.328125 70.75 64.40625 67.28125 
z
" id="DejaVuSans-67"/>
      </defs>
      <use xlink:href="#DejaVuSans-78"/>
      <use x="74.804688" xlink:href="#DejaVuSans-101"/>
      <use x="136.328125" xlink:href="#DejaVuSans-119"/>
      <use x="218.115234" xlink:href="#DejaVuSans-32"/>
      <use x="249.902344" xlink:href="#DejaVuSans-67"/>
      <use x="319.726562" xlink:href="#DejaVuSans-97"/>
      <use x="381.005859" xlink:href="#DejaVuSans-115"/>
      <use x="433.105469" xlink:href="#DejaVuSans-101"/>
      <use x="494.628906" xlink:href="#DejaVuSans-115"/>
      <use x="546.728516" xlink:href="#DejaVuSans-32"/>
      <use x="578.515625" xlink:href="#DejaVuSans-114"/>
      <use x="617.378906" xlink:href="#DejaVuSans-111"/>
      <use x="678.560547" xlink:href="#DejaVuSans-108"/>
      <use x="706.34375" xlink:href="#DejaVuSans-108"/>
      <use x="734.126953" xlink:href="#DejaVuSans-105"/>
      <use x="761.910156" xlink:href="#DejaVuSans-110"/>
      <use x="825.289062" xlink:href="#DejaVuSans-103"/>
      <use x="888.765625" xlink:href="#DejaVuSans-32"/>
      <use x="920.552734" xlink:href="#DejaVuSans-119"/>
      <use x="1002.339844" xlink:href="#DejaVuSans-101"/>
      <use x="1063.863281" xlink:href="#DejaVuSans-101"/>
      <use x="1125.386719" xlink:href="#DejaVuSans-107"/>
     </g>
    </g>
    <g id="line2d_72">
     <path d="M 39.103125 93.689062 
L 59.103125 93.689062 
" style="fill:none;stroke:#000000;stroke-dasharray:1.5,2.475;stroke-dashoffset:0;stroke-width:1.5;"/>
    </g>
    <g id="line2d_73"/>
    <g id="text_33">
     <!-- New Cases -->
     <g transform="translate(67.103125 97.189062)scale(0.1 -0.1)">
      <use xlink:href="#DejaVuSans-78"/>
      <use x="74.804688" xlink:href="#DejaVuSans-101"/>
      <use x="136.328125" xlink:href="#DejaVuSans-119"/>
      <use x="218.115234" xlink:href="#DejaVuSans-32"/>
      <use x="249.902344" xlink:href="#DejaVuSans-67"/>
      <use x="319.726562" xlink:href="#DejaVuSans-97"/>
      <use x="381.005859" xlink:href="#DejaVuSans-115"/>
      <use x="433.105469" xlink:href="#DejaVuSans-101"/>
      <use x="494.628906" xlink:href="#DejaVuSans-115"/>
     </g>
    </g>
   </g>
  </g>
 </g>
 <defs>
  <clipPath id="p306392d5b6">
   <rect height="609.32" width="1068.97" x="30.103125" y="7.2"/>
  </clipPath>
 </defs>
</svg>
