<?xml version="1.0" encoding="utf-8" standalone="no"?>
<!DOCTYPE svg PUBLIC "-//W3C//DTD SVG 1.1//EN"
  "http://www.w3.org/Graphics/SVG/1.1/DTD/svg11.dtd">
<svg height="640.398125pt" version="1.1" viewBox="0 0 1145.085625 640.398125" width="1145.085625pt" xmlns="http://www.w3.org/2000/svg" xmlns:xlink="http://www.w3.org/1999/xlink">
 <metadata>
  <rdf:RDF xmlns:cc="http://creativecommons.org/ns#" xmlns:dc="http://purl.org/dc/elements/1.1/" xmlns:rdf="http://www.w3.org/1999/02/22-rdf-syntax-ns#">
   <cc:Work>
    <dc:type rdf:resource="http://purl.org/dc/dcmitype/StillImage"/>
    <dc:date>2021-05-30T09:01:10.837168</dc:date>
    <dc:format>image/svg+xml</dc:format>
    <dc:creator>
     <cc:Agent>
      <dc:title>Matplotlib v3.4.2, https://matplotlib.org/</dc:title>
     </cc:Agent>
    </dc:creator>
   </cc:Work>
  </rdf:RDF>
 </metadata>
 <defs>
  <style type="text/css">*{stroke-linecap:butt;stroke-linejoin:round;}</style>
 </defs>
 <g id="figure_1">
  <g id="patch_1">
   <path d="M 0 640.398125 
L 1145.085625 640.398125 
L 1145.085625 0 
L 0 0 
z
" style="fill:#ffffff;"/>
  </g>
  <g id="axes_1">
   <g id="patch_2">
    <path d="M 30.103125 616.52 
L 1099.073125 616.52 
L 1099.073125 7.2 
L 30.103125 7.2 
z
" style="fill:#e5e5e5;"/>
   </g>
   <g id="matplotlib.axis_1">
    <g id="xtick_1">
     <g id="line2d_1">
      <path clip-path="url(#p53c5835148)" d="M 82.945585 616.52 
L 82.945585 7.2 
" style="fill:none;stroke:#ffffff;stroke-linecap:square;stroke-width:0.8;"/>
     </g>
     <g id="line2d_2">
      <defs>
       <path d="M 0 0 
L 0 3.5 
" id="md90ac932f0" style="stroke:#555555;stroke-width:0.8;"/>
      </defs>
      <g>
       <use style="fill:#555555;stroke:#555555;stroke-width:0.8;" x="82.945585" xlink:href="#md90ac932f0" y="616.52"/>
      </g>
     </g>
     <g id="text_1">
      <!-- 2020-03 -->
      <g style="fill:#555555;" transform="translate(62.054178 631.118437)scale(0.1 -0.1)">
       <defs>
        <path d="M 1228 531 
L 3431 531 
L 3431 0 
L 469 0 
L 469 531 
Q 828 903 1448 1529 
Q 2069 2156 2228 2338 
Q 2531 2678 2651 2914 
Q 2772 3150 2772 3378 
Q 2772 3750 2511 3984 
Q 2250 4219 1831 4219 
Q 1534 4219 1204 4116 
Q 875 4013 500 3803 
L 500 4441 
Q 881 4594 1212 4672 
Q 1544 4750 1819 4750 
Q 2544 4750 2975 4387 
Q 3406 4025 3406 3419 
Q 3406 3131 3298 2873 
Q 3191 2616 2906 2266 
Q 2828 2175 2409 1742 
Q 1991 1309 1228 531 
z
" id="DejaVuSans-32" transform="scale(0.015625)"/>
        <path d="M 2034 4250 
Q 1547 4250 1301 3770 
Q 1056 3291 1056 2328 
Q 1056 1369 1301 889 
Q 1547 409 2034 409 
Q 2525 409 2770 889 
Q 3016 1369 3016 2328 
Q 3016 3291 2770 3770 
Q 2525 4250 2034 4250 
z
M 2034 4750 
Q 2819 4750 3233 4129 
Q 3647 3509 3647 2328 
Q 3647 1150 3233 529 
Q 2819 -91 2034 -91 
Q 1250 -91 836 529 
Q 422 1150 422 2328 
Q 422 3509 836 4129 
Q 1250 4750 2034 4750 
z
" id="DejaVuSans-30" transform="scale(0.015625)"/>
        <path d="M 313 2009 
L 1997 2009 
L 1997 1497 
L 313 1497 
L 313 2009 
z
" id="DejaVuSans-2d" transform="scale(0.015625)"/>
        <path d="M 2597 2516 
Q 3050 2419 3304 2112 
Q 3559 1806 3559 1356 
Q 3559 666 3084 287 
Q 2609 -91 1734 -91 
Q 1441 -91 1130 -33 
Q 819 25 488 141 
L 488 750 
Q 750 597 1062 519 
Q 1375 441 1716 441 
Q 2309 441 2620 675 
Q 2931 909 2931 1356 
Q 2931 1769 2642 2001 
Q 2353 2234 1838 2234 
L 1294 2234 
L 1294 2753 
L 1863 2753 
Q 2328 2753 2575 2939 
Q 2822 3125 2822 3475 
Q 2822 3834 2567 4026 
Q 2313 4219 1838 4219 
Q 1578 4219 1281 4162 
Q 984 4106 628 3988 
L 628 4550 
Q 988 4650 1302 4700 
Q 1616 4750 1894 4750 
Q 2613 4750 3031 4423 
Q 3450 4097 3450 3541 
Q 3450 3153 3228 2886 
Q 3006 2619 2597 2516 
z
" id="DejaVuSans-33" transform="scale(0.015625)"/>
       </defs>
       <use xlink:href="#DejaVuSans-32"/>
       <use x="63.623047" xlink:href="#DejaVuSans-30"/>
       <use x="127.246094" xlink:href="#DejaVuSans-32"/>
       <use x="190.869141" xlink:href="#DejaVuSans-30"/>
       <use x="254.492188" xlink:href="#DejaVuSans-2d"/>
       <use x="290.576172" xlink:href="#DejaVuSans-30"/>
       <use x="354.199219" xlink:href="#DejaVuSans-33"/>
      </g>
     </g>
    </g>
    <g id="xtick_2">
     <g id="line2d_3">
      <path clip-path="url(#p53c5835148)" d="M 212.65947 616.52 
L 212.65947 7.2 
" style="fill:none;stroke:#ffffff;stroke-linecap:square;stroke-width:0.8;"/>
     </g>
     <g id="line2d_4">
      <g>
       <use style="fill:#555555;stroke:#555555;stroke-width:0.8;" x="212.65947" xlink:href="#md90ac932f0" y="616.52"/>
      </g>
     </g>
     <g id="text_2">
      <!-- 2020-05 -->
      <g style="fill:#555555;" transform="translate(191.768063 631.118437)scale(0.1 -0.1)">
       <defs>
        <path d="M 691 4666 
L 3169 4666 
L 3169 4134 
L 1269 4134 
L 1269 2991 
Q 1406 3038 1543 3061 
Q 1681 3084 1819 3084 
Q 2600 3084 3056 2656 
Q 3513 2228 3513 1497 
Q 3513 744 3044 326 
Q 2575 -91 1722 -91 
Q 1428 -91 1123 -41 
Q 819 9 494 109 
L 494 744 
Q 775 591 1075 516 
Q 1375 441 1709 441 
Q 2250 441 2565 725 
Q 2881 1009 2881 1497 
Q 2881 1984 2565 2268 
Q 2250 2553 1709 2553 
Q 1456 2553 1204 2497 
Q 953 2441 691 2322 
L 691 4666 
z
" id="DejaVuSans-35" transform="scale(0.015625)"/>
       </defs>
       <use xlink:href="#DejaVuSans-32"/>
       <use x="63.623047" xlink:href="#DejaVuSans-30"/>
       <use x="127.246094" xlink:href="#DejaVuSans-32"/>
       <use x="190.869141" xlink:href="#DejaVuSans-30"/>
       <use x="254.492188" xlink:href="#DejaVuSans-2d"/>
       <use x="290.576172" xlink:href="#DejaVuSans-30"/>
       <use x="354.199219" xlink:href="#DejaVuSans-35"/>
      </g>
     </g>
    </g>
    <g id="xtick_3">
     <g id="line2d_5">
      <path clip-path="url(#p53c5835148)" d="M 342.373355 616.52 
L 342.373355 7.2 
" style="fill:none;stroke:#ffffff;stroke-linecap:square;stroke-width:0.8;"/>
     </g>
     <g id="line2d_6">
      <g>
       <use style="fill:#555555;stroke:#555555;stroke-width:0.8;" x="342.373355" xlink:href="#md90ac932f0" y="616.52"/>
      </g>
     </g>
     <g id="text_3">
      <!-- 2020-07 -->
      <g style="fill:#555555;" transform="translate(321.481949 631.118437)scale(0.1 -0.1)">
       <defs>
        <path d="M 525 4666 
L 3525 4666 
L 3525 4397 
L 1831 0 
L 1172 0 
L 2766 4134 
L 525 4134 
L 525 4666 
z
" id="DejaVuSans-37" transform="scale(0.015625)"/>
       </defs>
       <use xlink:href="#DejaVuSans-32"/>
       <use x="63.623047" xlink:href="#DejaVuSans-30"/>
       <use x="127.246094" xlink:href="#DejaVuSans-32"/>
       <use x="190.869141" xlink:href="#DejaVuSans-30"/>
       <use x="254.492188" xlink:href="#DejaVuSans-2d"/>
       <use x="290.576172" xlink:href="#DejaVuSans-30"/>
       <use x="354.199219" xlink:href="#DejaVuSans-37"/>
      </g>
     </g>
    </g>
    <g id="xtick_4">
     <g id="line2d_7">
      <path clip-path="url(#p53c5835148)" d="M 474.213697 616.52 
L 474.213697 7.2 
" style="fill:none;stroke:#ffffff;stroke-linecap:square;stroke-width:0.8;"/>
     </g>
     <g id="line2d_8">
      <g>
       <use style="fill:#555555;stroke:#555555;stroke-width:0.8;" x="474.213697" xlink:href="#md90ac932f0" y="616.52"/>
      </g>
     </g>
     <g id="text_4">
      <!-- 2020-09 -->
      <g style="fill:#555555;" transform="translate(453.322291 631.118437)scale(0.1 -0.1)">
       <defs>
        <path d="M 703 97 
L 703 672 
Q 941 559 1184 500 
Q 1428 441 1663 441 
Q 2288 441 2617 861 
Q 2947 1281 2994 2138 
Q 2813 1869 2534 1725 
Q 2256 1581 1919 1581 
Q 1219 1581 811 2004 
Q 403 2428 403 3163 
Q 403 3881 828 4315 
Q 1253 4750 1959 4750 
Q 2769 4750 3195 4129 
Q 3622 3509 3622 2328 
Q 3622 1225 3098 567 
Q 2575 -91 1691 -91 
Q 1453 -91 1209 -44 
Q 966 3 703 97 
z
M 1959 2075 
Q 2384 2075 2632 2365 
Q 2881 2656 2881 3163 
Q 2881 3666 2632 3958 
Q 2384 4250 1959 4250 
Q 1534 4250 1286 3958 
Q 1038 3666 1038 3163 
Q 1038 2656 1286 2365 
Q 1534 2075 1959 2075 
z
" id="DejaVuSans-39" transform="scale(0.015625)"/>
       </defs>
       <use xlink:href="#DejaVuSans-32"/>
       <use x="63.623047" xlink:href="#DejaVuSans-30"/>
       <use x="127.246094" xlink:href="#DejaVuSans-32"/>
       <use x="190.869141" xlink:href="#DejaVuSans-30"/>
       <use x="254.492188" xlink:href="#DejaVuSans-2d"/>
       <use x="290.576172" xlink:href="#DejaVuSans-30"/>
       <use x="354.199219" xlink:href="#DejaVuSans-39"/>
      </g>
     </g>
    </g>
    <g id="xtick_5">
     <g id="line2d_9">
      <path clip-path="url(#p53c5835148)" d="M 603.927582 616.52 
L 603.927582 7.2 
" style="fill:none;stroke:#ffffff;stroke-linecap:square;stroke-width:0.8;"/>
     </g>
     <g id="line2d_10">
      <g>
       <use style="fill:#555555;stroke:#555555;stroke-width:0.8;" x="603.927582" xlink:href="#md90ac932f0" y="616.52"/>
      </g>
     </g>
     <g id="text_5">
      <!-- 2020-11 -->
      <g style="fill:#555555;" transform="translate(583.036176 631.118437)scale(0.1 -0.1)">
       <defs>
        <path d="M 794 531 
L 1825 531 
L 1825 4091 
L 703 3866 
L 703 4441 
L 1819 4666 
L 2450 4666 
L 2450 531 
L 3481 531 
L 3481 0 
L 794 0 
L 794 531 
z
" id="DejaVuSans-31" transform="scale(0.015625)"/>
       </defs>
       <use xlink:href="#DejaVuSans-32"/>
       <use x="63.623047" xlink:href="#DejaVuSans-30"/>
       <use x="127.246094" xlink:href="#DejaVuSans-32"/>
       <use x="190.869141" xlink:href="#DejaVuSans-30"/>
       <use x="254.492188" xlink:href="#DejaVuSans-2d"/>
       <use x="290.576172" xlink:href="#DejaVuSans-31"/>
       <use x="354.199219" xlink:href="#DejaVuSans-31"/>
      </g>
     </g>
    </g>
    <g id="xtick_6">
     <g id="line2d_11">
      <path clip-path="url(#p53c5835148)" d="M 733.641467 616.52 
L 733.641467 7.2 
" style="fill:none;stroke:#ffffff;stroke-linecap:square;stroke-width:0.8;"/>
     </g>
     <g id="line2d_12">
      <g>
       <use style="fill:#555555;stroke:#555555;stroke-width:0.8;" x="733.641467" xlink:href="#md90ac932f0" y="616.52"/>
      </g>
     </g>
     <g id="text_6">
      <!-- 2021-01 -->
      <g style="fill:#555555;" transform="translate(712.750061 631.118437)scale(0.1 -0.1)">
       <use xlink:href="#DejaVuSans-32"/>
       <use x="63.623047" xlink:href="#DejaVuSans-30"/>
       <use x="127.246094" xlink:href="#DejaVuSans-32"/>
       <use x="190.869141" xlink:href="#DejaVuSans-31"/>
       <use x="254.492188" xlink:href="#DejaVuSans-2d"/>
       <use x="290.576172" xlink:href="#DejaVuSans-30"/>
       <use x="354.199219" xlink:href="#DejaVuSans-31"/>
      </g>
     </g>
    </g>
    <g id="xtick_7">
     <g id="line2d_13">
      <path clip-path="url(#p53c5835148)" d="M 859.102438 616.52 
L 859.102438 7.2 
" style="fill:none;stroke:#ffffff;stroke-linecap:square;stroke-width:0.8;"/>
     </g>
     <g id="line2d_14">
      <g>
       <use style="fill:#555555;stroke:#555555;stroke-width:0.8;" x="859.102438" xlink:href="#md90ac932f0" y="616.52"/>
      </g>
     </g>
     <g id="text_7">
      <!-- 2021-03 -->
      <g style="fill:#555555;" transform="translate(838.211031 631.118437)scale(0.1 -0.1)">
       <use xlink:href="#DejaVuSans-32"/>
       <use x="63.623047" xlink:href="#DejaVuSans-30"/>
       <use x="127.246094" xlink:href="#DejaVuSans-32"/>
       <use x="190.869141" xlink:href="#DejaVuSans-31"/>
       <use x="254.492188" xlink:href="#DejaVuSans-2d"/>
       <use x="290.576172" xlink:href="#DejaVuSans-30"/>
       <use x="354.199219" xlink:href="#DejaVuSans-33"/>
      </g>
     </g>
    </g>
    <g id="xtick_8">
     <g id="line2d_15">
      <path clip-path="url(#p53c5835148)" d="M 988.816323 616.52 
L 988.816323 7.2 
" style="fill:none;stroke:#ffffff;stroke-linecap:square;stroke-width:0.8;"/>
     </g>
     <g id="line2d_16">
      <g>
       <use style="fill:#555555;stroke:#555555;stroke-width:0.8;" x="988.816323" xlink:href="#md90ac932f0" y="616.52"/>
      </g>
     </g>
     <g id="text_8">
      <!-- 2021-05 -->
      <g style="fill:#555555;" transform="translate(967.924916 631.118437)scale(0.1 -0.1)">
       <use xlink:href="#DejaVuSans-32"/>
       <use x="63.623047" xlink:href="#DejaVuSans-30"/>
       <use x="127.246094" xlink:href="#DejaVuSans-32"/>
       <use x="190.869141" xlink:href="#DejaVuSans-31"/>
       <use x="254.492188" xlink:href="#DejaVuSans-2d"/>
       <use x="290.576172" xlink:href="#DejaVuSans-30"/>
       <use x="354.199219" xlink:href="#DejaVuSans-35"/>
      </g>
     </g>
    </g>
   </g>
   <g id="matplotlib.axis_2">
    <g id="ytick_1">
     <g id="line2d_17">
      <path clip-path="url(#p53c5835148)" d="M 30.103125 568.206943 
L 1099.073125 568.206943 
" style="fill:none;stroke:#ffffff;stroke-linecap:square;stroke-width:0.8;"/>
     </g>
     <g id="line2d_18">
      <defs>
       <path d="M 0 0 
L -3.5 0 
" id="m7f8d83431a" style="stroke:#555555;stroke-width:0.8;"/>
      </defs>
      <g>
       <use style="fill:#555555;stroke:#555555;stroke-width:0.8;" x="30.103125" xlink:href="#m7f8d83431a" y="568.206943"/>
      </g>
     </g>
     <g id="text_9">
      <!-- 0.5 -->
      <g style="fill:#555555;" transform="translate(7.2 572.006162)scale(0.1 -0.1)">
       <defs>
        <path d="M 684 794 
L 1344 794 
L 1344 0 
L 684 0 
L 684 794 
z
" id="DejaVuSans-2e" transform="scale(0.015625)"/>
       </defs>
       <use xlink:href="#DejaVuSans-30"/>
       <use x="63.623047" xlink:href="#DejaVuSans-2e"/>
       <use x="95.410156" xlink:href="#DejaVuSans-35"/>
      </g>
     </g>
    </g>
    <g id="ytick_2">
     <g id="line2d_19">
      <path clip-path="url(#p53c5835148)" d="M 30.103125 496.852391 
L 1099.073125 496.852391 
" style="fill:none;stroke:#ffffff;stroke-linecap:square;stroke-width:0.8;"/>
     </g>
     <g id="line2d_20">
      <g>
       <use style="fill:#555555;stroke:#555555;stroke-width:0.8;" x="30.103125" xlink:href="#m7f8d83431a" y="496.852391"/>
      </g>
     </g>
     <g id="text_10">
      <!-- 1.0 -->
      <g style="fill:#555555;" transform="translate(7.2 500.651609)scale(0.1 -0.1)">
       <use xlink:href="#DejaVuSans-31"/>
       <use x="63.623047" xlink:href="#DejaVuSans-2e"/>
       <use x="95.410156" xlink:href="#DejaVuSans-30"/>
      </g>
     </g>
    </g>
    <g id="ytick_3">
     <g id="line2d_21">
      <path clip-path="url(#p53c5835148)" d="M 30.103125 425.497838 
L 1099.073125 425.497838 
" style="fill:none;stroke:#ffffff;stroke-linecap:square;stroke-width:0.8;"/>
     </g>
     <g id="line2d_22">
      <g>
       <use style="fill:#555555;stroke:#555555;stroke-width:0.8;" x="30.103125" xlink:href="#m7f8d83431a" y="425.497838"/>
      </g>
     </g>
     <g id="text_11">
      <!-- 1.5 -->
      <g style="fill:#555555;" transform="translate(7.2 429.297057)scale(0.1 -0.1)">
       <use xlink:href="#DejaVuSans-31"/>
       <use x="63.623047" xlink:href="#DejaVuSans-2e"/>
       <use x="95.410156" xlink:href="#DejaVuSans-35"/>
      </g>
     </g>
    </g>
    <g id="ytick_4">
     <g id="line2d_23">
      <path clip-path="url(#p53c5835148)" d="M 30.103125 354.143286 
L 1099.073125 354.143286 
" style="fill:none;stroke:#ffffff;stroke-linecap:square;stroke-width:0.8;"/>
     </g>
     <g id="line2d_24">
      <g>
       <use style="fill:#555555;stroke:#555555;stroke-width:0.8;" x="30.103125" xlink:href="#m7f8d83431a" y="354.143286"/>
      </g>
     </g>
     <g id="text_12">
      <!-- 2.0 -->
      <g style="fill:#555555;" transform="translate(7.2 357.942505)scale(0.1 -0.1)">
       <use xlink:href="#DejaVuSans-32"/>
       <use x="63.623047" xlink:href="#DejaVuSans-2e"/>
       <use x="95.410156" xlink:href="#DejaVuSans-30"/>
      </g>
     </g>
    </g>
    <g id="ytick_5">
     <g id="line2d_25">
      <path clip-path="url(#p53c5835148)" d="M 30.103125 282.788733 
L 1099.073125 282.788733 
" style="fill:none;stroke:#ffffff;stroke-linecap:square;stroke-width:0.8;"/>
     </g>
     <g id="line2d_26">
      <g>
       <use style="fill:#555555;stroke:#555555;stroke-width:0.8;" x="30.103125" xlink:href="#m7f8d83431a" y="282.788733"/>
      </g>
     </g>
     <g id="text_13">
      <!-- 2.5 -->
      <g style="fill:#555555;" transform="translate(7.2 286.587952)scale(0.1 -0.1)">
       <use xlink:href="#DejaVuSans-32"/>
       <use x="63.623047" xlink:href="#DejaVuSans-2e"/>
       <use x="95.410156" xlink:href="#DejaVuSans-35"/>
      </g>
     </g>
    </g>
    <g id="ytick_6">
     <g id="line2d_27">
      <path clip-path="url(#p53c5835148)" d="M 30.103125 211.434181 
L 1099.073125 211.434181 
" style="fill:none;stroke:#ffffff;stroke-linecap:square;stroke-width:0.8;"/>
     </g>
     <g id="line2d_28">
      <g>
       <use style="fill:#555555;stroke:#555555;stroke-width:0.8;" x="30.103125" xlink:href="#m7f8d83431a" y="211.434181"/>
      </g>
     </g>
     <g id="text_14">
      <!-- 3.0 -->
      <g style="fill:#555555;" transform="translate(7.2 215.2334)scale(0.1 -0.1)">
       <use xlink:href="#DejaVuSans-33"/>
       <use x="63.623047" xlink:href="#DejaVuSans-2e"/>
       <use x="95.410156" xlink:href="#DejaVuSans-30"/>
      </g>
     </g>
    </g>
    <g id="ytick_7">
     <g id="line2d_29">
      <path clip-path="url(#p53c5835148)" d="M 30.103125 140.079629 
L 1099.073125 140.079629 
" style="fill:none;stroke:#ffffff;stroke-linecap:square;stroke-width:0.8;"/>
     </g>
     <g id="line2d_30">
      <g>
       <use style="fill:#555555;stroke:#555555;stroke-width:0.8;" x="30.103125" xlink:href="#m7f8d83431a" y="140.079629"/>
      </g>
     </g>
     <g id="text_15">
      <!-- 3.5 -->
      <g style="fill:#555555;" transform="translate(7.2 143.878847)scale(0.1 -0.1)">
       <use xlink:href="#DejaVuSans-33"/>
       <use x="63.623047" xlink:href="#DejaVuSans-2e"/>
       <use x="95.410156" xlink:href="#DejaVuSans-35"/>
      </g>
     </g>
    </g>
    <g id="ytick_8">
     <g id="line2d_31">
      <path clip-path="url(#p53c5835148)" d="M 30.103125 68.725076 
L 1099.073125 68.725076 
" style="fill:none;stroke:#ffffff;stroke-linecap:square;stroke-width:0.8;"/>
     </g>
     <g id="line2d_32">
      <g>
       <use style="fill:#555555;stroke:#555555;stroke-width:0.8;" x="30.103125" xlink:href="#m7f8d83431a" y="68.725076"/>
      </g>
     </g>
     <g id="text_16">
      <!-- 4.0 -->
      <g style="fill:#555555;" transform="translate(7.2 72.524295)scale(0.1 -0.1)">
       <defs>
        <path d="M 2419 4116 
L 825 1625 
L 2419 1625 
L 2419 4116 
z
M 2253 4666 
L 3047 4666 
L 3047 1625 
L 3713 1625 
L 3713 1100 
L 3047 1100 
L 3047 0 
L 2419 0 
L 2419 1100 
L 313 1100 
L 313 1709 
L 2253 4666 
z
" id="DejaVuSans-34" transform="scale(0.015625)"/>
       </defs>
       <use xlink:href="#DejaVuSans-34"/>
       <use x="63.623047" xlink:href="#DejaVuSans-2e"/>
       <use x="95.410156" xlink:href="#DejaVuSans-30"/>
      </g>
     </g>
    </g>
   </g>
   <g id="line2d_33">
    <path clip-path="url(#p53c5835148)" d="M 87.198499 111.805831 
L 89.324956 83.575048 
L 91.451413 119.077314 
L 93.57787 102.114786 
L 95.704328 93.833905 
L 97.830785 102.902369 
L 99.957242 121.515141 
L 102.083699 155.559854 
L 104.210156 198.834487 
L 106.336613 209.50018 
L 108.46307 238.739043 
L 110.589527 261.731258 
L 112.715985 268.972281 
L 114.842442 275.283621 
L 116.968899 268.983332 
L 119.095356 265.123728 
L 123.34827 279.786287 
L 125.474727 292.008575 
L 127.601184 308.665483 
L 129.727642 318.372236 
L 131.854099 325.932492 
L 133.980556 331.354149 
L 136.107013 337.697783 
L 138.23347 346.989337 
L 140.359927 358.346748 
L 142.486384 370.664977 
L 148.865756 401.2302 
L 150.992213 412.691771 
L 153.11867 422.353601 
L 155.245127 430.200258 
L 157.371584 436.386228 
L 159.498041 441.923538 
L 161.624499 446.380977 
L 163.750956 450.108603 
L 165.877413 454.575245 
L 172.256784 466.686685 
L 174.383241 469.955627 
L 176.509699 472.869528 
L 178.636156 475.293527 
L 185.015527 481.12219 
L 187.141984 482.558511 
L 189.268441 483.592479 
L 191.394898 484.200345 
L 197.77427 485.722929 
L 206.280098 488.658162 
L 221.165298 492.246575 
L 225.418213 492.751231 
L 229.671127 493.080283 
L 244.556327 493.671212 
L 250.935698 494.136556 
L 259.441527 494.507347 
L 272.200269 495.002927 
L 276.453184 495.081438 
L 280.706098 495.08014 
L 304.097126 495.434524 
L 314.729412 495.514098 
L 321.108783 495.229192 
L 327.488155 494.812482 
L 331.741069 494.7228 
L 335.993983 494.786234 
L 344.499812 495.111694 
L 374.270212 495.5082 
L 393.408326 495.172947 
L 438.063926 493.808713 
L 455.075583 493.175757 
L 461.454954 493.035489 
L 469.960783 493.231252 
L 486.97244 493.670678 
L 510.363468 493.130614 
L 516.74284 492.753827 
L 520.995754 492.617642 
L 533.754497 492.523127 
L 542.260325 492.342427 
L 550.766154 491.887378 
L 555.019068 491.37194 
L 563.524896 489.801345 
L 567.777811 489.023076 
L 572.030725 487.914072 
L 576.283639 486.837457 
L 582.663011 485.354975 
L 584.789468 484.734212 
L 586.915925 483.930952 
L 593.295296 481.16671 
L 597.548211 479.482854 
L 601.801125 477.896471 
L 606.054039 477.078447 
L 610.306953 476.806509 
L 612.43341 476.762971 
L 618.812782 477.096132 
L 623.065696 477.440452 
L 629.445068 478.349491 
L 640.077353 480.406517 
L 646.456725 481.569994 
L 650.709639 482.201986 
L 667.721296 484.213431 
L 678.353582 484.97832 
L 686.85941 484.893847 
L 693.238781 484.537298 
L 697.491696 484.254535 
L 705.997524 483.798292 
L 716.62981 483.736725 
L 718.756267 483.885249 
L 723.009181 484.907985 
L 727.262096 486.162532 
L 729.388553 486.542206 
L 733.641467 487.028633 
L 746.40021 487.83172 
L 748.526667 487.87174 
L 752.779581 487.534866 
L 757.032495 486.944736 
L 761.28541 486.873847 
L 765.538324 487.29945 
L 771.917695 488.039275 
L 788.929352 489.154683 
L 805.941009 489.962135 
L 833.584952 490.90818 
L 850.596609 490.773276 
L 873.987638 490.497582 
L 882.493466 490.375094 
L 895.252209 489.832586 
L 922.896152 488.340789 
L 929.275523 488.210433 
L 935.654894 488.376229 
L 942.034266 488.660319 
L 946.28718 488.574595 
L 952.666551 488.03544 
L 959.045923 487.43852 
L 963.298837 487.346377 
L 973.931123 487.222656 
L 986.689866 487.216881 
L 1003.701523 487.847638 
L 1012.207351 488.106847 
L 1018.586723 488.375544 
L 1024.966094 488.700196 
L 1046.230665 489.358861 
L 1050.48358 489.518559 
L 1050.48358 489.518559 
" style="fill:none;stroke:#e24a33;stroke-linecap:square;stroke-width:1.5;"/>
   </g>
   <g id="line2d_34">
    <path clip-path="url(#p53c5835148)" d="M 87.198499 111.805831 
L 89.324956 55.344265 
L 91.451413 190.081847 
L 93.57787 51.2272 
L 95.704328 60.710381 
L 99.957242 233.191776 
L 102.083699 350.118819 
L 104.210156 358.266698 
L 106.336613 264.741694 
L 108.46307 255.899245 
L 110.589527 221.655887 
L 112.715985 198.93185 
L 114.842442 277.371155 
L 116.968899 306.016792 
L 119.095356 331.249476 
L 121.221813 315.075296 
L 123.34827 308.203552 
L 125.474727 307.211903 
L 127.601184 315.530209 
L 129.727642 345.318422 
L 131.854099 358.938588 
L 133.980556 369.20107 
L 136.107013 359.480736 
L 140.359927 386.713781 
L 142.486384 401.757812 
L 144.612842 415.430861 
L 146.739299 430.468964 
L 148.865756 441.514812 
L 150.992213 439.711734 
L 153.11867 440.877241 
L 155.245127 441.640384 
L 157.371584 445.059601 
L 159.498041 454.192031 
L 161.624499 461.671037 
L 163.750956 467.608196 
L 165.877413 470.978226 
L 168.00387 469.491911 
L 170.130327 470.10258 
L 172.256784 472.762818 
L 174.383241 477.074619 
L 176.509699 482.068343 
L 178.636156 484.57619 
L 180.762613 484.799818 
L 182.88907 484.05799 
L 185.015527 482.51555 
L 187.141984 482.817071 
L 189.268441 484.312391 
L 191.394898 486.323406 
L 193.521356 488.016431 
L 195.647813 488.271347 
L 197.77427 487.804308 
L 199.900727 487.640865 
L 202.027184 488.265791 
L 204.153641 489.684471 
L 206.280098 490.923923 
L 208.406555 491.702311 
L 210.533013 491.994867 
L 212.65947 491.449894 
L 214.785927 491.667739 
L 216.912384 492.170429 
L 219.038841 492.928135 
L 221.165298 493.812647 
L 223.291755 493.825347 
L 229.671127 492.469985 
L 231.797584 492.73528 
L 233.924041 493.562359 
L 236.050498 493.818315 
L 238.176955 494.221607 
L 240.303412 494.004399 
L 242.42987 493.539295 
L 246.682784 494.008447 
L 248.809241 494.512339 
L 250.935698 494.852574 
L 259.441527 494.392902 
L 263.694441 495.07555 
L 265.820898 495.101216 
L 267.947355 495.327713 
L 270.073812 495.392617 
L 272.200269 495.031189 
L 274.326727 494.789069 
L 278.579641 494.871365 
L 282.832555 495.613361 
L 287.085469 495.393126 
L 289.211926 495.241332 
L 293.464841 495.418607 
L 297.717755 495.614571 
L 299.844212 495.417658 
L 304.097126 495.387472 
L 306.223584 495.443949 
L 308.350041 495.726893 
L 314.729412 495.382793 
L 316.855869 494.939266 
L 321.108783 494.511434 
L 323.235241 494.549483 
L 325.361698 494.759247 
L 333.867526 494.736931 
L 338.12044 495.267882 
L 340.246898 495.254522 
L 342.373355 495.421801 
L 346.626269 495.104906 
L 350.879183 495.333336 
L 353.00564 495.544094 
L 357.258555 495.606121 
L 361.511469 495.330961 
L 365.764383 495.451298 
L 367.89084 495.658077 
L 372.143755 495.667286 
L 378.523126 495.074523 
L 387.028955 495.491191 
L 389.155412 495.230762 
L 391.281869 494.82972 
L 393.408326 494.649563 
L 401.914154 495.128392 
L 406.167069 494.345428 
L 408.293526 494.126991 
L 412.54644 494.719934 
L 414.672897 494.719623 
L 416.799354 494.872439 
L 418.925811 494.323742 
L 421.052269 493.893127 
L 423.178726 493.737391 
L 425.305183 493.871535 
L 427.43164 494.292537 
L 429.558097 494.42347 
L 431.684554 494.362945 
L 435.937469 493.108858 
L 438.063926 492.825651 
L 440.190383 493.23855 
L 442.31684 493.833857 
L 446.569754 493.839528 
L 448.696211 493.150959 
L 450.822668 492.603525 
L 452.949126 492.214837 
L 455.075583 492.700796 
L 457.20204 493.351024 
L 459.328497 493.460709 
L 461.454954 493.766569 
L 465.707868 492.807129 
L 467.834326 492.70181 
L 472.08724 493.763153 
L 476.340154 494.134765 
L 478.466611 493.828539 
L 480.593068 493.334725 
L 482.719525 493.253757 
L 484.845983 493.424959 
L 486.97244 493.728494 
L 489.098897 493.715085 
L 491.225354 493.844119 
L 493.351811 493.33333 
L 495.478268 492.958305 
L 497.604725 492.901626 
L 499.731182 493.044997 
L 501.85764 493.609248 
L 503.984097 493.665857 
L 506.110554 493.529694 
L 508.237011 492.848732 
L 512.489925 491.845212 
L 514.616382 492.177508 
L 516.74284 492.895644 
L 518.869297 492.968203 
L 520.995754 493.274053 
L 523.122211 492.864687 
L 525.248668 492.225542 
L 527.375125 491.890343 
L 529.501582 492.102854 
L 531.628039 492.623329 
L 533.754497 492.68108 
L 535.880954 493.069638 
L 538.007411 492.530659 
L 540.133868 491.798555 
L 544.386782 491.378176 
L 546.513239 491.96865 
L 548.639697 492.020172 
L 550.766154 491.924555 
L 552.892611 491.099301 
L 555.019068 489.621852 
L 557.145525 488.688046 
L 559.271982 488.445529 
L 561.398439 489.278743 
L 563.524896 489.551386 
L 565.651354 489.457315 
L 567.777811 488.118658 
L 569.904268 486.023195 
L 572.030725 484.523676 
L 574.157182 484.498075 
L 576.283639 485.689892 
L 580.536553 486.393387 
L 582.663011 484.266108 
L 584.789468 481.677855 
L 586.915925 478.900858 
L 589.042382 477.873956 
L 591.168839 479.334405 
L 595.421753 480.181749 
L 597.548211 478.690757 
L 599.674668 475.720954 
L 601.801125 473.75308 
L 603.927582 474.684164 
L 606.054039 476.798028 
L 608.180496 478.439872 
L 610.306953 479.558705 
L 612.43341 478.385994 
L 614.559868 476.249264 
L 616.686325 474.673348 
L 618.812782 475.567712 
L 620.939239 477.810853 
L 623.065696 479.837284 
L 625.192153 481.478649 
L 627.31861 480.502615 
L 629.445068 478.575975 
L 631.571525 477.416926 
L 633.697982 478.172402 
L 635.824439 480.858634 
L 637.950896 483.039482 
L 640.077353 484.279586 
L 642.20381 483.443125 
L 644.330267 481.251497 
L 646.456725 479.945234 
L 648.583182 480.553461 
L 650.709639 482.90152 
L 652.836096 484.864214 
L 654.962553 485.785718 
L 657.08901 484.879018 
L 659.215467 483.099803 
L 661.341924 481.983601 
L 663.468382 482.81406 
L 665.594839 484.700771 
L 667.721296 486.231048 
L 669.847753 487.006412 
L 671.97421 486.04601 
L 674.100667 484.410838 
L 676.227124 483.183698 
L 678.353582 483.269464 
L 682.606496 486.132429 
L 684.732953 486.582611 
L 686.85941 485.931158 
L 688.985867 483.818886 
L 691.112324 482.151084 
L 693.238781 482.398189 
L 695.365239 483.453031 
L 697.491696 485.446785 
L 699.618153 485.672097 
L 701.74461 485.017121 
L 705.997524 481.423704 
L 708.123981 482.160826 
L 710.250439 483.422958 
L 712.376896 485.077709 
L 714.503353 485.873343 
L 718.756267 484.216781 
L 720.882724 484.797289 
L 723.009181 485.946392 
L 725.135638 488.035478 
L 727.262096 489.247023 
L 729.388553 488.531058 
L 731.51501 486.846849 
L 733.641467 485.796344 
L 735.767924 485.852235 
L 737.894381 486.987866 
L 740.020838 489.022929 
L 742.147295 489.985999 
L 744.273753 489.263942 
L 746.40021 487.912722 
L 748.526667 486.076483 
L 750.653124 485.034645 
L 752.779581 485.447338 
L 754.906038 486.647359 
L 757.032495 488.23066 
L 759.158953 488.656207 
L 761.28541 488.024237 
L 763.411867 487.264675 
L 765.538324 486.825674 
L 767.664781 487.292931 
L 769.791238 488.688368 
L 771.917695 489.52283 
L 774.044152 489.723858 
L 776.17061 489.241231 
L 778.297067 488.452918 
L 780.423524 488.088292 
L 782.549981 488.367657 
L 784.676438 489.360103 
L 786.802895 490.176222 
L 788.929352 490.396359 
L 791.05581 490.016248 
L 795.308724 489.085348 
L 797.435181 489.22477 
L 799.561638 490.047987 
L 801.688095 490.58406 
L 803.814552 490.753391 
L 805.941009 490.53854 
L 808.067467 490.03889 
L 810.193924 489.739562 
L 812.320381 489.80858 
L 816.573295 491.07451 
L 818.699752 491.223441 
L 820.826209 491.106559 
L 825.079124 490.419329 
L 827.205581 490.541289 
L 831.458495 491.292917 
L 833.584952 491.334602 
L 839.964324 490.407761 
L 842.090781 490.393411 
L 846.343695 491.08288 
L 848.470152 491.145678 
L 852.723066 490.509376 
L 854.849523 490.133936 
L 856.975981 490.134657 
L 861.228895 490.940328 
L 863.355352 490.975067 
L 867.608266 490.348549 
L 869.734723 489.997446 
L 871.861181 490.046299 
L 876.114095 490.834995 
L 878.240552 490.848586 
L 882.493466 489.979776 
L 884.619923 489.466308 
L 886.74638 489.360629 
L 890.999295 490.243643 
L 893.125752 490.185226 
L 895.252209 489.776707 
L 899.505123 488.502587 
L 901.63158 488.479053 
L 905.884495 489.609198 
L 908.010952 489.607394 
L 910.137409 489.083276 
L 914.390323 487.540316 
L 916.51678 487.459308 
L 920.769695 488.834781 
L 922.896152 489.00919 
L 925.022609 488.602071 
L 927.149066 487.934444 
L 929.275523 487.459364 
L 931.40198 487.717999 
L 935.654894 489.349416 
L 937.781352 489.78128 
L 939.907809 489.330566 
L 944.160723 487.506717 
L 946.28718 487.070575 
L 948.413637 487.438367 
L 950.540094 488.186986 
L 952.666551 488.292373 
L 959.045923 486.365082 
L 961.17238 486.485914 
L 965.425294 488.168473 
L 967.551751 488.093621 
L 969.678209 487.568732 
L 971.804666 486.771208 
L 973.931123 486.092622 
L 976.05758 486.380064 
L 980.310494 487.982683 
L 982.436951 488.014768 
L 984.563408 487.714887 
L 986.689866 487.120202 
L 988.816323 486.738782 
L 990.94278 487.000018 
L 995.195694 488.447522 
L 997.322151 488.465646 
L 999.448608 488.188058 
L 1003.701523 487.377195 
L 1005.82798 487.602075 
L 1007.954437 488.252475 
L 1010.080894 488.780534 
L 1012.207351 488.793289 
L 1016.460265 488.360716 
L 1018.586723 488.274776 
L 1020.71318 488.537183 
L 1022.839637 489.038421 
L 1024.966094 489.332045 
L 1033.471922 488.720566 
L 1035.59838 488.891467 
L 1037.724837 489.287012 
L 1041.977751 489.746595 
L 1044.104208 489.752202 
L 1048.357122 489.393291 
L 1050.48358 489.336623 
L 1050.48358 489.336623 
" style="fill:none;stroke:#e24a33;stroke-dasharray:1.5,2.475;stroke-dashoffset:0;stroke-width:1.5;"/>
   </g>
   <g id="line2d_35">
    <path clip-path="url(#p53c5835148)" d="M 87.198499 254.516175 
L 89.324956 226.285689 
L 91.451413 261.788161 
L 93.57787 244.826322 
L 95.704328 204.217058 
L 97.830785 199.894138 
L 99.957242 207.516933 
L 102.083699 234.849298 
L 104.210156 271.646541 
L 106.336613 268.739736 
L 108.46307 279.349456 
L 110.589527 287.201682 
L 112.715985 266.718371 
L 114.842442 271.27814 
L 116.968899 255.549005 
L 119.095356 245.904111 
L 123.34827 262.824025 
L 125.474727 293.031841 
L 127.601184 331.202354 
L 129.727642 343.202952 
L 131.854099 352.018837 
L 133.980556 356.000731 
L 136.107013 359.355287 
L 138.23347 369.557677 
L 140.359927 384.911623 
L 142.486384 404.382614 
L 146.739299 433.518871 
L 148.865756 447.347161 
L 150.992213 462.022459 
L 153.11867 474.318159 
L 155.245127 481.509878 
L 159.498041 486.248507 
L 161.624499 488.86927 
L 163.750956 492.072153 
L 165.877413 498.635991 
L 168.00387 503.694714 
L 170.130327 509.243501 
L 172.256784 515.514823 
L 174.383241 518.453623 
L 176.509699 523.218369 
L 178.636156 527.14706 
L 182.88907 531.192059 
L 185.015527 528.694996 
L 187.141984 523.559842 
L 189.268441 518.932148 
L 191.394898 513.793776 
L 193.521356 511.134947 
L 195.647813 509.425998 
L 197.77427 508.482936 
L 199.900727 511.203875 
L 202.027184 515.548393 
L 204.153641 520.613011 
L 206.280098 524.827644 
L 208.406555 526.653798 
L 210.533013 528.261737 
L 212.65947 528.2127 
L 214.785927 528.858035 
L 216.912384 530.779752 
L 219.038841 531.934713 
L 221.165298 534.505336 
L 223.291755 534.52322 
L 225.418213 531.311783 
L 227.54467 526.452264 
L 229.671127 513.995649 
L 231.797584 504.047722 
L 233.924041 501.015451 
L 236.050498 496.524506 
L 238.176955 496.344328 
L 240.303412 497.477745 
L 242.42987 497.280365 
L 244.556327 507.367734 
L 246.682784 513.776484 
L 248.809241 516.946378 
L 250.935698 521.071782 
L 255.188612 517.020301 
L 257.315069 517.091735 
L 259.441527 511.682194 
L 261.567984 513.502049 
L 263.694441 514.627204 
L 265.820898 511.846677 
L 267.947355 514.114891 
L 270.073812 517.268213 
L 272.200269 516.956001 
L 274.326727 518.12011 
L 276.453184 510.342595 
L 278.579641 496.019602 
L 280.706098 493.576459 
L 282.832555 494.359099 
L 284.959012 494.893205 
L 287.085469 501.916727 
L 289.211926 505.479213 
L 291.338384 506.058512 
L 293.464841 513.119314 
L 295.591298 512.261865 
L 297.717755 508.553998 
L 299.844212 502.686344 
L 301.970669 495.705936 
L 304.097126 493.427066 
L 306.223584 497.103532 
L 308.350041 505.002585 
L 310.476498 506.776168 
L 312.602955 505.375656 
L 314.729412 501.936602 
L 316.855869 482.623106 
L 318.982326 466.148775 
L 321.108783 444.130201 
L 323.235241 423.568337 
L 325.361698 416.710564 
L 327.488155 412.181105 
L 329.614612 416.385261 
L 331.741069 439.567416 
L 333.867526 458.895308 
L 335.993983 487.117295 
L 338.12044 507.311631 
L 340.246898 514.403503 
L 342.373355 522.260906 
L 344.499812 522.508767 
L 346.626269 516.582091 
L 348.752726 515.442083 
L 350.879183 511.355344 
L 353.00564 510.913348 
L 355.132098 513.181795 
L 359.385012 510.913289 
L 361.511469 509.131473 
L 363.637926 505.245572 
L 365.764383 503.436619 
L 367.89084 502.458046 
L 370.017297 500.965915 
L 372.143755 499.985891 
L 374.270212 498.032072 
L 376.396669 490.519777 
L 380.649583 474.140178 
L 382.77604 468.868669 
L 384.902497 467.607381 
L 387.028955 467.836421 
L 389.155412 468.3346 
L 391.281869 470.03291 
L 393.408326 468.497001 
L 395.534783 465.410065 
L 397.66124 461.828578 
L 399.787697 460.329695 
L 401.914154 459.624936 
L 404.040612 458.294619 
L 406.167069 460.975803 
L 408.293526 462.750405 
L 410.419983 467.208465 
L 412.54644 472.168671 
L 414.672897 472.908 
L 416.799354 474.021603 
L 418.925811 473.333846 
L 421.052269 471.242934 
L 423.178726 473.011496 
L 425.305183 470.545765 
L 427.43164 470.112878 
L 429.558097 470.693509 
L 431.684554 468.849726 
L 433.811011 469.197134 
L 435.937469 467.583313 
L 438.063926 462.939527 
L 440.190383 464.633047 
L 442.31684 465.300561 
L 444.443297 465.769653 
L 446.569754 466.722654 
L 448.696211 466.830721 
L 450.822668 468.26283 
L 452.949126 470.798908 
L 455.075583 472.713618 
L 457.20204 473.442693 
L 459.328497 473.205842 
L 461.454954 474.984975 
L 463.581411 478.96022 
L 465.707868 484.922613 
L 467.834326 493.013935 
L 469.960783 497.647871 
L 472.08724 499.323912 
L 474.213697 501.495188 
L 476.340154 501.904843 
L 478.466611 502.51057 
L 480.593068 502.898199 
L 482.719525 502.026031 
L 484.845983 500.047868 
L 486.97244 496.423621 
L 491.225354 488.22817 
L 493.351811 483.61658 
L 495.478268 481.013923 
L 499.731182 480.890631 
L 501.85764 483.47981 
L 503.984097 485.141621 
L 506.110554 484.957719 
L 508.237011 484.328771 
L 510.363468 480.642678 
L 512.489925 473.096514 
L 514.616382 469.717357 
L 516.74284 468.070459 
L 518.869297 467.071954 
L 520.995754 469.791962 
L 523.122211 474.303408 
L 525.248668 479.805778 
L 527.375125 486.917718 
L 529.501582 488.82197 
L 531.628039 487.124205 
L 535.880954 485.003363 
L 538.007411 483.684681 
L 540.133868 483.052113 
L 542.260325 483.410316 
L 544.386782 480.523724 
L 546.513239 478.847352 
L 548.639697 477.518618 
L 550.766154 473.438874 
L 552.892611 470.063402 
L 555.019068 463.33224 
L 557.145525 453.257296 
L 559.271982 447.258677 
L 561.398439 442.794503 
L 563.524896 441.252731 
L 565.651354 441.540468 
L 567.777811 441.428537 
L 569.904268 442.424201 
L 572.030725 442.39178 
L 574.157182 443.138898 
L 576.283639 443.679948 
L 578.410096 443.556995 
L 580.536553 444.33192 
L 582.663011 444.253674 
L 584.789468 445.357405 
L 586.915925 445.332608 
L 589.042382 441.561282 
L 591.168839 438.349202 
L 593.295296 434.608365 
L 595.421753 432.036658 
L 597.548211 432.598926 
L 599.674668 435.162389 
L 601.801125 441.50327 
L 603.927582 451.710961 
L 606.054039 457.590499 
L 608.180496 462.923056 
L 610.306953 466.679313 
L 612.43341 469.314821 
L 614.559868 473.239113 
L 616.686325 476.457828 
L 618.812782 478.712751 
L 620.939239 480.467025 
L 623.065696 481.728265 
L 625.192153 483.301946 
L 631.571525 488.672827 
L 633.697982 489.347075 
L 635.824439 490.988939 
L 637.950896 493.101566 
L 642.20381 496.361834 
L 644.330267 496.484809 
L 648.583182 493.338457 
L 650.709639 492.301607 
L 657.08901 492.833371 
L 659.215467 492.940657 
L 661.341924 492.723924 
L 665.594839 494.376705 
L 669.847753 494.995473 
L 671.97421 494.613723 
L 674.100667 493.973762 
L 676.227124 492.823412 
L 678.353582 489.887233 
L 680.480039 487.371521 
L 684.732953 483.61489 
L 686.85941 482.980096 
L 688.985867 481.680855 
L 691.112324 479.349603 
L 693.238781 478.437589 
L 695.365239 475.600399 
L 701.74461 474.71761 
L 703.871067 476.06701 
L 705.997524 476.401754 
L 710.250439 481.104169 
L 712.376896 481.532091 
L 714.503353 482.893777 
L 716.62981 483.401197 
L 718.756267 485.603831 
L 723.009181 503.223029 
L 725.135638 513.983146 
L 727.262096 521.459875 
L 729.388553 523.071267 
L 731.51501 520.897469 
L 733.641467 512.186441 
L 735.767924 498.605755 
L 737.894381 492.912227 
L 740.020838 492.667636 
L 742.147295 493.03266 
L 746.40021 494.372618 
L 748.526667 489.585217 
L 752.779581 466.019397 
L 754.906038 455.165695 
L 757.032495 450.274877 
L 759.158953 450.160842 
L 761.28541 453.88764 
L 763.411867 468.334186 
L 765.538324 489.658641 
L 767.664781 501.470736 
L 769.791238 508.674198 
L 771.917695 510.584063 
L 774.044152 511.196626 
L 776.17061 511.52066 
L 778.297067 508.924981 
L 780.423524 506.855668 
L 784.676438 503.323758 
L 786.802895 503.354491 
L 788.929352 503.707044 
L 791.05581 504.308187 
L 793.182267 506.265069 
L 795.308724 506.632437 
L 797.435181 505.752929 
L 799.561638 505.500159 
L 801.688095 504.460612 
L 803.814552 503.951478 
L 805.941009 504.130372 
L 808.067467 503.431131 
L 810.193924 503.894416 
L 812.320381 504.099939 
L 814.446838 503.233758 
L 816.573295 504.441123 
L 818.699752 505.486836 
L 820.826209 507.110126 
L 822.952666 509.800402 
L 825.079124 509.61117 
L 827.205581 509.855784 
L 829.332038 508.406348 
L 831.458495 506.531551 
L 833.584952 504.879835 
L 835.711409 501.084668 
L 837.837866 496.895089 
L 842.090781 487.221727 
L 844.217238 485.841577 
L 846.343695 483.897582 
L 848.470152 482.611625 
L 850.596609 482.11483 
L 852.723066 481.208409 
L 854.849523 481.301959 
L 856.975981 481.223987 
L 859.102438 481.489306 
L 861.228895 482.234601 
L 863.355352 482.614474 
L 865.481809 483.199551 
L 869.734723 483.974613 
L 871.861181 485.638938 
L 873.987638 486.211502 
L 876.114095 486.630297 
L 878.240552 486.628802 
L 880.367009 485.266001 
L 882.493466 482.702258 
L 884.619923 477.392314 
L 886.74638 470.436507 
L 888.872838 466.639057 
L 890.999295 464.26505 
L 893.125752 462.322466 
L 897.378666 460.914817 
L 899.505123 461.062064 
L 901.63158 463.65625 
L 903.758037 464.308604 
L 908.010952 466.1111 
L 910.137409 466.530837 
L 914.390323 467.549627 
L 916.51678 466.597035 
L 920.769695 466.166483 
L 922.896152 466.733809 
L 925.022609 468.498016 
L 927.149066 472.071122 
L 929.275523 479.513019 
L 931.40198 487.746943 
L 933.528437 493.629237 
L 937.781352 502.306392 
L 939.907809 505.323679 
L 942.034266 505.835349 
L 944.160723 499.378185 
L 946.28718 480.394941 
L 948.413637 464.592657 
L 950.540094 455.840543 
L 952.666551 448.894216 
L 954.793009 443.558 
L 956.919466 442.342332 
L 959.045923 446.74793 
L 961.17238 463.315895 
L 963.298837 477.718882 
L 965.425294 484.397361 
L 967.551751 487.502388 
L 969.678209 489.29689 
L 971.804666 488.221475 
L 973.931123 485.804041 
L 976.05758 486.228454 
L 978.184037 485.940549 
L 980.310494 486.331422 
L 982.436951 487.142336 
L 984.563408 488.447131 
L 986.689866 491.152699 
L 988.816323 496.409412 
L 990.94278 500.578496 
L 993.069237 502.576461 
L 995.195694 504.19565 
L 997.322151 505.033263 
L 999.448608 505.675379 
L 1001.575066 506.642941 
L 1003.701523 505.803481 
L 1005.82798 505.216921 
L 1007.954437 505.940299 
L 1010.080894 506.022486 
L 1014.333808 506.64423 
L 1016.460265 507.342462 
L 1018.586723 511.065082 
L 1020.71318 515.884905 
L 1022.839637 520.326258 
L 1024.966094 522.457291 
L 1027.092551 522.091403 
L 1029.219008 520.658534 
L 1031.345465 517.204398 
L 1033.471922 511.889977 
L 1035.59838 510.18115 
L 1037.724837 509.455166 
L 1039.851294 509.784297 
L 1041.977751 514.066846 
L 1044.104208 521.036294 
L 1046.230665 528.654997 
L 1048.357122 535.258346 
L 1050.48358 526.02016 
L 1050.48358 526.02016 
" style="fill:none;stroke:#348abd;stroke-linecap:square;stroke-width:1.5;"/>
   </g>
   <g id="line2d_36">
    <path clip-path="url(#p53c5835148)" d="M 87.198499 254.516175 
L 89.324956 198.055202 
L 91.451413 332.793105 
L 93.57787 193.940807 
L 95.704328 41.780001 
L 97.830785 178.279541 
L 99.957242 253.253699 
L 102.083699 445.842731 
L 104.210156 455.635905 
L 106.336613 312.445469 
L 108.46307 268.208845 
L 110.589527 96.745585 
L 112.715985 34.896364 
L 114.842442 285.172083 
L 119.095356 388.121644 
L 121.221813 370.765777 
L 123.34827 328.327941 
L 125.474727 308.200296 
L 127.601184 302.089954 
L 129.727642 369.176269 
L 131.854099 397.449976 
L 133.980556 415.994907 
L 136.107013 394.247669 
L 138.23347 399.74467 
L 140.359927 415.677919 
L 142.486384 438.386889 
L 144.612842 473.793125 
L 146.739299 496.786914 
L 148.865756 512.792942 
L 150.992213 496.974753 
L 153.11867 485.814572 
L 155.245127 466.019952 
L 157.371584 454.580592 
L 159.498041 490.769819 
L 161.624499 515.132256 
L 163.750956 535.213124 
L 165.877413 542.921619 
L 168.00387 521.225636 
L 170.130327 504.861463 
L 172.256784 498.479847 
L 174.383241 511.341415 
L 176.509699 548.48548 
L 178.636156 562.713962 
L 180.762613 557.076278 
L 182.88907 535.385968 
L 185.015527 487.382021 
L 187.141984 462.533769 
L 189.268441 478.947558 
L 191.394898 512.516873 
L 193.521356 544.10216 
L 195.647813 545.113636 
L 197.77427 528.784538 
L 199.900727 506.428591 
L 202.027184 492.945394 
L 204.153641 514.399884 
L 206.280098 542.019306 
L 208.406555 556.885237 
L 210.533013 556.369205 
L 212.65947 528.441282 
L 214.785927 510.945933 
L 216.912384 506.397416 
L 219.038841 522.484608 
L 221.165298 560.013671 
L 223.291755 557.010422 
L 225.418213 533.889151 
L 227.54467 494.424647 
L 229.671127 423.749629 
L 231.797584 436.761927 
L 233.924041 501.258708 
L 238.176955 555.749177 
L 240.303412 541.823067 
L 242.42987 493.042991 
L 244.556327 494.361209 
L 246.682784 481.623179 
L 248.809241 523.447964 
L 250.935698 557.454887 
L 253.062155 541.842485 
L 255.188612 527.369392 
L 257.315069 493.543026 
L 259.441527 456.494422 
L 263.694441 531.324052 
L 265.820898 537.991198 
L 267.947355 557.719986 
L 270.073812 549.442641 
L 272.200269 491.357541 
L 274.326727 464.643185 
L 276.453184 439.919564 
L 278.579641 431.063096 
L 280.706098 520.8892 
L 282.832555 563.198465 
L 284.959012 553.181386 
L 287.085469 540.522193 
L 289.211926 489.580589 
L 291.338384 443.974656 
L 293.464841 480.48871 
L 295.591298 514.887058 
L 297.717755 537.243392 
L 299.844212 512.107808 
L 301.970669 491.659337 
L 304.097126 473.628503 
L 306.223584 469.709915 
L 308.350041 535.782084 
L 310.476498 527.302139 
L 312.602955 527.439805 
L 314.729412 488.034427 
L 316.855869 356.464869 
L 318.982326 358.308187 
L 321.108783 315.579896 
L 323.235241 391.849036 
L 325.361698 479.297725 
L 327.488155 495.733591 
L 329.614612 517.463524 
L 331.741069 518.739953 
L 333.867526 493.603429 
L 338.12044 533.209385 
L 340.246898 528.940828 
L 342.373355 550.735417 
L 344.499812 519.198548 
L 346.626269 477.253221 
L 348.752726 485.623371 
L 350.879183 484.526638 
L 353.00564 530.115415 
L 355.132098 544.819957 
L 357.258555 542.842478 
L 359.385012 511.21194 
L 361.511469 464.78051 
L 363.637926 458.422065 
L 365.764383 471.863969 
L 367.89084 523.265402 
L 370.017297 534.375043 
L 372.143755 535.982306 
L 374.270212 497.535209 
L 376.396669 412.194447 
L 378.523126 401.474543 
L 380.649583 414.154294 
L 382.77604 486.36484 
L 384.902497 525.54603 
L 387.028955 537.585585 
L 389.155412 501.022462 
L 391.281869 424.082617 
L 393.408326 390.723183 
L 395.534783 392.545736 
L 397.66124 461.294436 
L 399.787697 515.053848 
L 401.914154 532.652269 
L 404.040612 491.710241 
L 406.167069 442.850909 
L 408.293526 403.145392 
L 410.419983 423.752161 
L 412.54644 496.015878 
L 414.672897 520.229149 
L 416.799354 540.447491 
L 418.925811 486.895941 
L 421.052269 428.214523 
L 423.178726 415.525328 
L 425.305183 406.492046 
L 427.43164 492.985666 
L 429.558097 524.293569 
L 431.684554 527.541007 
L 433.811011 489.327796 
L 435.937469 416.917782 
L 438.063926 383.018821 
L 440.190383 418.346691 
L 442.31684 497.658261 
L 444.443297 527.577218 
L 446.569754 534.21201 
L 448.696211 490.084265 
L 450.822668 426.942548 
L 452.949126 400.771367 
L 455.075583 431.749657 
L 457.20204 502.761785 
L 459.328497 525.91926 
L 461.454954 546.665946 
L 463.581411 517.910978 
L 465.707868 468.679297 
L 467.834326 457.410623 
L 469.960783 464.187206 
L 472.08724 514.494072 
L 474.213697 541.118195 
L 476.340154 549.533528 
L 478.466611 522.151066 
L 480.593068 471.392701 
L 482.719525 451.305448 
L 484.845983 450.340067 
L 486.97244 489.124344 
L 489.098897 512.082324 
L 491.225354 521.201239 
L 493.351811 489.869937 
L 495.478268 453.174102 
L 497.604725 451.011018 
L 499.731182 449.771455 
L 501.85764 507.248594 
L 503.984097 523.715003 
L 506.110554 519.913923 
L 508.237011 485.467301 
L 510.363468 427.371449 
L 512.489925 398.187871 
L 514.616382 426.117355 
L 516.74284 495.720307 
L 518.869297 516.72547 
L 520.995754 538.953981 
L 523.122211 517.047423 
L 525.248668 465.888039 
L 527.375125 447.971449 
L 529.501582 439.447123 
L 531.628039 483.835948 
L 533.754497 509.302792 
L 535.880954 531.53077 
L 538.007411 507.816648 
L 540.133868 461.460061 
L 542.260325 450.478871 
L 544.386782 419.240982 
L 546.513239 472.101339 
L 548.639697 500.001659 
L 550.766154 502.972557 
L 552.892611 484.188346 
L 555.019068 414.341922 
L 557.145525 379.954263 
L 559.271982 377.250654 
L 561.398439 440.852118 
L 563.524896 489.209256 
L 565.651354 504.986712 
L 567.777811 483.404835 
L 569.904268 421.311567 
L 572.030725 379.727315 
L 574.157182 382.480486 
L 576.283639 444.639467 
L 578.410096 488.348584 
L 580.536553 510.411186 
L 582.663011 482.857113 
L 584.789468 429.03768 
L 586.915925 379.553741 
L 589.042382 356.081202 
L 591.168839 422.15491 
L 593.295296 462.162721 
L 595.421753 492.409242 
L 597.548211 486.792989 
L 599.674668 446.981917 
L 601.801125 423.939906 
L 603.927582 427.53504 
L 608.180496 499.490621 
L 610.306953 518.703041 
L 612.43341 505.241544 
L 614.559868 474.451961 
L 616.686325 446.470915 
L 618.812782 443.319499 
L 623.065696 508.319295 
L 625.192153 529.718814 
L 627.31861 517.777603 
L 629.445068 487.358302 
L 631.571525 458.62468 
L 633.697982 448.039233 
L 635.824439 487.084646 
L 637.950896 523.107681 
L 640.077353 540.818945 
L 642.20381 529.499353 
L 646.456725 448.000939 
L 648.583182 436.638516 
L 652.836096 524.421257 
L 654.962553 542.88069 
L 657.08901 529.846376 
L 661.341924 446.483806 
L 663.468382 442.023277 
L 665.594839 486.011401 
L 667.721296 526.742228 
L 669.847753 544.891094 
L 671.97421 527.17413 
L 674.100667 484.4904 
L 676.227124 438.431355 
L 678.353582 421.470023 
L 682.606496 513.479891 
L 684.732953 531.857011 
L 686.85941 522.730572 
L 688.985867 475.395711 
L 691.112324 422.112592 
L 693.238781 415.085925 
L 695.365239 448.54109 
L 697.491696 511.363293 
L 699.618153 530.285414 
L 701.74461 520.239245 
L 703.871067 484.841511 
L 705.997524 424.455799 
L 708.123981 431.50191 
L 710.250439 465.042014 
L 712.376896 514.358744 
L 714.503353 539.817214 
L 716.62981 523.791188 
L 718.756267 500.259949 
L 720.882724 486.287027 
L 723.009181 493.005067 
L 725.135638 540.362834 
L 727.262096 566.695846 
L 729.388553 551.096957 
L 731.51501 508.574604 
L 733.641467 439.282754 
L 735.767924 391.222223 
L 737.894381 453.15037 
L 740.020838 538.650695 
L 742.147295 569.251018 
L 744.273753 555.635157 
L 746.40021 513.41611 
L 748.526667 405.770945 
L 750.653124 307.349599 
L 752.779581 372.062254 
L 754.906038 462.674782 
L 757.032495 535.015292 
L 759.158953 554.836912 
L 761.28541 539.503699 
L 763.411867 506.896764 
L 765.538324 456.620784 
L 767.664781 454.746917 
L 769.791238 513.099016 
L 771.917695 548.384349 
L 774.044152 559.12485 
L 776.17061 541.77194 
L 778.297067 488.727014 
L 780.423524 442.135591 
L 782.549981 442.065502 
L 784.676438 501.057059 
L 786.802895 548.599478 
L 788.929352 561.592727 
L 791.05581 545.979937 
L 793.182267 502.425186 
L 795.308724 444.70717 
L 797.435181 435.908948 
L 799.561638 499.287666 
L 801.688095 541.32265 
L 803.814552 558.02879 
L 805.941009 547.232197 
L 810.193924 447.95017 
L 812.320381 437.347607 
L 816.573295 549.77421 
L 818.699752 565.348779 
L 820.826209 558.595229 
L 822.952666 516.362425 
L 825.079124 446.625547 
L 827.205581 439.059902 
L 829.332038 483.078347 
L 831.458495 536.650625 
L 833.584952 553.786771 
L 835.711409 532.02906 
L 837.837866 487.03537 
L 839.964324 413.485182 
L 842.090781 404.486731 
L 844.217238 473.417304 
L 846.343695 523.04266 
L 848.470152 544.785069 
L 850.596609 528.551493 
L 852.723066 480.690427 
L 854.849523 414.140032 
L 856.975981 403.940923 
L 859.102438 475.274539 
L 861.228895 528.259724 
L 863.355352 547.444181 
L 865.481809 532.647032 
L 867.608266 483.309107 
L 869.734723 416.946784 
L 871.861181 415.591202 
L 873.987638 479.282483 
L 876.114095 531.191291 
L 878.240552 547.433713 
L 880.367009 523.107425 
L 882.493466 465.362911 
L 884.619923 379.777176 
L 886.74638 366.90055 
L 888.872838 452.700332 
L 890.999295 514.573241 
L 893.125752 533.835625 
L 895.252209 518.351447 
L 897.378666 460.265345 
L 899.505123 380.807905 
L 901.63158 385.059858 
L 903.758037 457.266809 
L 905.884495 520.524718 
L 908.010952 540.501618 
L 910.137409 521.289606 
L 912.263866 464.208757 
L 914.390323 383.996024 
L 916.51678 378.391713 
L 918.643237 455.821927 
L 920.769695 518.955733 
L 922.896152 544.472903 
L 925.022609 533.639053 
L 927.149066 489.220501 
L 929.275523 436.089305 
L 931.40198 436.029179 
L 933.528437 496.997983 
L 935.654894 549.947753 
L 937.781352 574.220972 
L 939.907809 554.760061 
L 942.034266 492.802188 
L 944.160723 390.889155 
L 946.28718 303.146472 
L 948.413637 386.381996 
L 950.540094 488.682956 
L 952.666551 525.596687 
L 954.793009 517.406545 
L 956.919466 484.292517 
L 959.045923 421.728339 
L 961.17238 419.122228 
L 963.298837 487.202906 
L 965.425294 535.432308 
L 967.551751 547.331873 
L 969.678209 529.968061 
L 971.804666 476.764613 
L 973.931123 404.806299 
L 976.05758 422.093114 
L 978.184037 485.187574 
L 980.310494 538.168418 
L 982.436951 553.008275 
L 984.563408 539.101626 
L 986.689866 495.703584 
L 988.816323 441.603292 
L 990.94278 451.276704 
L 995.195694 549.502739 
L 997.322151 558.871565 
L 999.448608 543.596437 
L 1001.575066 502.476518 
L 1003.701523 435.727079 
L 1005.82798 447.17078 
L 1007.954437 504.236978 
L 1010.080894 550.078048 
L 1012.207351 561.40701 
L 1014.333808 545.4132 
L 1016.460265 507.364137 
L 1018.586723 461.785424 
L 1020.71318 480.909536 
L 1022.839637 535.326451 
L 1024.966094 564.995279 
L 1027.092551 558.845793 
L 1029.219008 535.383122 
L 1031.345465 483.18518 
L 1033.471922 424.584478 
L 1035.59838 468.947747 
L 1037.724837 530.244563 
L 1039.851294 567.299194 
L 1041.977751 588.823636 
L 1044.104208 584.169257 
L 1046.230665 536.516105 
L 1050.48358 404.280447 
L 1050.48358 404.280447 
" style="fill:none;stroke:#348abd;stroke-dasharray:1.5,2.475;stroke-dashoffset:0;stroke-width:1.5;"/>
   </g>
   <g id="line2d_37">
    <path clip-path="url(#p53c5835148)" d="M 30.103125 496.852391 
L 1099.073125 496.852391 
" style="fill:none;stroke:#008000;stroke-linecap:square;stroke-opacity:0.5;stroke-width:1.5;"/>
   </g>
   <g id="patch_3">
    <path d="M 30.103125 616.52 
L 30.103125 7.2 
" style="fill:none;stroke:#ffffff;stroke-linecap:square;stroke-linejoin:miter;"/>
   </g>
   <g id="patch_4">
    <path d="M 1099.073125 616.52 
L 1099.073125 7.2 
" style="fill:none;stroke:#ffffff;stroke-linecap:square;stroke-linejoin:miter;"/>
   </g>
   <g id="patch_5">
    <path d="M 30.103125 616.52 
L 1099.073125 616.52 
" style="fill:none;stroke:#ffffff;stroke-linecap:square;stroke-linejoin:miter;"/>
   </g>
   <g id="patch_6">
    <path d="M 30.103125 7.2 
L 1099.073125 7.2 
" style="fill:none;stroke:#ffffff;stroke-linecap:square;stroke-linejoin:miter;"/>
   </g>
  </g>
  <g id="axes_2">
   <g id="matplotlib.axis_3">
    <g id="ytick_9">
     <g id="line2d_38">
      <path clip-path="url(#p53c5835148)" d="M 30.103125 589.00409 
L 1099.073125 589.00409 
" style="fill:none;stroke:#ffffff;stroke-linecap:square;stroke-width:0.8;"/>
     </g>
     <g id="line2d_39">
      <defs>
       <path d="M 0 0 
L 3.5 0 
" id="m04b1e6139c" style="stroke:#555555;stroke-width:0.8;"/>
      </defs>
      <g>
       <use style="fill:#555555;stroke:#555555;stroke-width:0.8;" x="1099.073125" xlink:href="#m04b1e6139c" y="589.00409"/>
      </g>
     </g>
     <g id="text_17">
      <!-- 0 -->
      <g style="fill:#555555;" transform="translate(1106.073125 592.803309)scale(0.1 -0.1)">
       <use xlink:href="#DejaVuSans-30"/>
      </g>
     </g>
    </g>
    <g id="ytick_10">
     <g id="line2d_40">
      <path clip-path="url(#p53c5835148)" d="M 30.103125 506.979676 
L 1099.073125 506.979676 
" style="fill:none;stroke:#ffffff;stroke-linecap:square;stroke-width:0.8;"/>
     </g>
     <g id="line2d_41">
      <g>
       <use style="fill:#555555;stroke:#555555;stroke-width:0.8;" x="1099.073125" xlink:href="#m04b1e6139c" y="506.979676"/>
      </g>
     </g>
     <g id="text_18">
      <!-- 5000 -->
      <g style="fill:#555555;" transform="translate(1106.073125 510.778895)scale(0.1 -0.1)">
       <use xlink:href="#DejaVuSans-35"/>
       <use x="63.623047" xlink:href="#DejaVuSans-30"/>
       <use x="127.246094" xlink:href="#DejaVuSans-30"/>
       <use x="190.869141" xlink:href="#DejaVuSans-30"/>
      </g>
     </g>
    </g>
    <g id="ytick_11">
     <g id="line2d_42">
      <path clip-path="url(#p53c5835148)" d="M 30.103125 424.955262 
L 1099.073125 424.955262 
" style="fill:none;stroke:#ffffff;stroke-linecap:square;stroke-width:0.8;"/>
     </g>
     <g id="line2d_43">
      <g>
       <use style="fill:#555555;stroke:#555555;stroke-width:0.8;" x="1099.073125" xlink:href="#m04b1e6139c" y="424.955262"/>
      </g>
     </g>
     <g id="text_19">
      <!-- 10000 -->
      <g style="fill:#555555;" transform="translate(1106.073125 428.754481)scale(0.1 -0.1)">
       <use xlink:href="#DejaVuSans-31"/>
       <use x="63.623047" xlink:href="#DejaVuSans-30"/>
       <use x="127.246094" xlink:href="#DejaVuSans-30"/>
       <use x="190.869141" xlink:href="#DejaVuSans-30"/>
       <use x="254.492188" xlink:href="#DejaVuSans-30"/>
      </g>
     </g>
    </g>
    <g id="ytick_12">
     <g id="line2d_44">
      <path clip-path="url(#p53c5835148)" d="M 30.103125 342.930848 
L 1099.073125 342.930848 
" style="fill:none;stroke:#ffffff;stroke-linecap:square;stroke-width:0.8;"/>
     </g>
     <g id="line2d_45">
      <g>
       <use style="fill:#555555;stroke:#555555;stroke-width:0.8;" x="1099.073125" xlink:href="#m04b1e6139c" y="342.930848"/>
      </g>
     </g>
     <g id="text_20">
      <!-- 15000 -->
      <g style="fill:#555555;" transform="translate(1106.073125 346.730067)scale(0.1 -0.1)">
       <use xlink:href="#DejaVuSans-31"/>
       <use x="63.623047" xlink:href="#DejaVuSans-35"/>
       <use x="127.246094" xlink:href="#DejaVuSans-30"/>
       <use x="190.869141" xlink:href="#DejaVuSans-30"/>
       <use x="254.492188" xlink:href="#DejaVuSans-30"/>
      </g>
     </g>
    </g>
    <g id="ytick_13">
     <g id="line2d_46">
      <path clip-path="url(#p53c5835148)" d="M 30.103125 260.906434 
L 1099.073125 260.906434 
" style="fill:none;stroke:#ffffff;stroke-linecap:square;stroke-width:0.8;"/>
     </g>
     <g id="line2d_47">
      <g>
       <use style="fill:#555555;stroke:#555555;stroke-width:0.8;" x="1099.073125" xlink:href="#m04b1e6139c" y="260.906434"/>
      </g>
     </g>
     <g id="text_21">
      <!-- 20000 -->
      <g style="fill:#555555;" transform="translate(1106.073125 264.705653)scale(0.1 -0.1)">
       <use xlink:href="#DejaVuSans-32"/>
       <use x="63.623047" xlink:href="#DejaVuSans-30"/>
       <use x="127.246094" xlink:href="#DejaVuSans-30"/>
       <use x="190.869141" xlink:href="#DejaVuSans-30"/>
       <use x="254.492188" xlink:href="#DejaVuSans-30"/>
      </g>
     </g>
    </g>
    <g id="ytick_14">
     <g id="line2d_48">
      <path clip-path="url(#p53c5835148)" d="M 30.103125 178.88202 
L 1099.073125 178.88202 
" style="fill:none;stroke:#ffffff;stroke-linecap:square;stroke-width:0.8;"/>
     </g>
     <g id="line2d_49">
      <g>
       <use style="fill:#555555;stroke:#555555;stroke-width:0.8;" x="1099.073125" xlink:href="#m04b1e6139c" y="178.88202"/>
      </g>
     </g>
     <g id="text_22">
      <!-- 25000 -->
      <g style="fill:#555555;" transform="translate(1106.073125 182.681239)scale(0.1 -0.1)">
       <use xlink:href="#DejaVuSans-32"/>
       <use x="63.623047" xlink:href="#DejaVuSans-35"/>
       <use x="127.246094" xlink:href="#DejaVuSans-30"/>
       <use x="190.869141" xlink:href="#DejaVuSans-30"/>
       <use x="254.492188" xlink:href="#DejaVuSans-30"/>
      </g>
     </g>
    </g>
    <g id="ytick_15">
     <g id="line2d_50">
      <path clip-path="url(#p53c5835148)" d="M 30.103125 96.857606 
L 1099.073125 96.857606 
" style="fill:none;stroke:#ffffff;stroke-linecap:square;stroke-width:0.8;"/>
     </g>
     <g id="line2d_51">
      <g>
       <use style="fill:#555555;stroke:#555555;stroke-width:0.8;" x="1099.073125" xlink:href="#m04b1e6139c" y="96.857606"/>
      </g>
     </g>
     <g id="text_23">
      <!-- 30000 -->
      <g style="fill:#555555;" transform="translate(1106.073125 100.656825)scale(0.1 -0.1)">
       <use xlink:href="#DejaVuSans-33"/>
       <use x="63.623047" xlink:href="#DejaVuSans-30"/>
       <use x="127.246094" xlink:href="#DejaVuSans-30"/>
       <use x="190.869141" xlink:href="#DejaVuSans-30"/>
       <use x="254.492188" xlink:href="#DejaVuSans-30"/>
      </g>
     </g>
    </g>
    <g id="ytick_16">
     <g id="line2d_52">
      <path clip-path="url(#p53c5835148)" d="M 30.103125 14.833192 
L 1099.073125 14.833192 
" style="fill:none;stroke:#ffffff;stroke-linecap:square;stroke-width:0.8;"/>
     </g>
     <g id="line2d_53">
      <g>
       <use style="fill:#555555;stroke:#555555;stroke-width:0.8;" x="1099.073125" xlink:href="#m04b1e6139c" y="14.833192"/>
      </g>
     </g>
     <g id="text_24">
      <!-- 35000 -->
      <g style="fill:#555555;" transform="translate(1106.073125 18.632411)scale(0.1 -0.1)">
       <use xlink:href="#DejaVuSans-33"/>
       <use x="63.623047" xlink:href="#DejaVuSans-35"/>
       <use x="127.246094" xlink:href="#DejaVuSans-30"/>
       <use x="190.869141" xlink:href="#DejaVuSans-30"/>
       <use x="254.492188" xlink:href="#DejaVuSans-30"/>
      </g>
     </g>
    </g>
   </g>
   <g id="line2d_54">
    <path clip-path="url(#p53c5835148)" d="M 78.69267 588.134631 
L 80.819128 588.479134 
L 82.945585 588.309617 
L 87.198499 588.361019 
L 89.324956 588.287744 
L 91.451413 588.066668 
L 95.704328 587.290952 
L 97.830785 587.187835 
L 99.957242 586.698032 
L 102.083699 586.42618 
L 104.210156 585.945751 
L 106.336613 584.389631 
L 108.46307 583.325657 
L 110.589527 581.973426 
L 116.968899 575.27086 
L 119.095356 573.463979 
L 121.221813 568.779213 
L 123.34827 563.471062 
L 125.474727 558.849572 
L 127.601184 556.728655 
L 129.727642 549.960469 
L 131.854099 541.476801 
L 133.980556 534.268027 
L 136.107013 529.222354 
L 138.23347 522.608842 
L 140.359927 514.197824 
L 142.486384 509.470875 
L 144.612842 507.856166 
L 146.739299 508.205355 
L 148.865756 505.07671 
L 150.992213 502.259757 
L 153.11867 501.336396 
L 155.245127 501.83323 
L 157.371584 497.214084 
L 159.498041 499.731061 
L 161.624499 501.561378 
L 163.750956 504.959532 
L 165.877413 507.729614 
L 168.00387 509.723979 
L 170.130327 514.291567 
L 172.256784 521.59174 
L 174.383241 524.263392 
L 176.509699 528.3693 
L 178.636156 531.924472 
L 180.762613 536.864685 
L 182.88907 541.418212 
L 185.015527 542.646235 
L 187.141984 543.496945 
L 189.268441 545.282734 
L 193.521356 546.562315 
L 195.647813 547.766902 
L 197.77427 550.211229 
L 199.900727 553.853113 
L 206.280098 558.819106 
L 210.533013 563.053909 
L 212.65947 564.68971 
L 214.785927 567.291056 
L 216.912384 569.503372 
L 219.038841 570.297837 
L 221.165298 571.373528 
L 223.291755 572.210177 
L 225.418213 572.664827 
L 227.54467 573.672555 
L 229.671127 572.955428 
L 231.797584 573.250715 
L 233.924041 574.00534 
L 236.050498 573.424139 
L 238.176955 573.773328 
L 240.303412 574.595916 
L 242.42987 575.289608 
L 244.556327 576.768391 
L 246.682784 576.96525 
L 248.809241 577.000403 
L 250.935698 577.984696 
L 253.062155 577.987039 
L 255.188612 578.427628 
L 257.315069 579.489258 
L 259.441527 579.447074 
L 261.567984 579.803294 
L 265.820898 580.117331 
L 270.073812 582.05545 
L 272.200269 581.396912 
L 274.326727 581.162556 
L 276.453184 581.502372 
L 278.579641 581.399255 
L 280.706098 581.912494 
L 282.832555 581.959365 
L 284.959012 581.863279 
L 287.085469 582.411671 
L 289.211926 583.187387 
L 291.338384 583.152234 
L 293.464841 583.431117 
L 295.591298 583.11005 
L 297.717755 583.166295 
L 299.844212 582.788983 
L 301.970669 583.372528 
L 308.350041 583.688908 
L 314.729412 583.501424 
L 316.855869 582.301524 
L 318.982326 581.708604 
L 321.108783 580.67744 
L 323.235241 579.868914 
L 325.361698 579.57597 
L 327.488155 579.008829 
L 329.614612 578.891652 
L 331.741069 579.578313 
L 333.867526 579.376767 
L 335.993983 580.386839 
L 338.12044 581.031317 
L 340.246898 581.043035 
L 344.499812 581.624236 
L 346.626269 581.696887 
L 348.752726 582.317929 
L 353.00564 582.458542 
L 357.258555 582.873351 
L 363.637926 583.238946 
L 365.764383 583.217854 
L 367.89084 583.358467 
L 370.017297 583.306909 
L 372.143755 583.414712 
L 374.270212 583.199105 
L 378.523126 582.40464 
L 380.649583 582.512444 
L 389.155412 581.720322 
L 393.408326 580.586042 
L 399.787697 579.871257 
L 401.914154 579.33224 
L 404.040612 578.551836 
L 406.167069 578.422941 
L 408.293526 578.015162 
L 410.419983 578.167493 
L 412.54644 577.771432 
L 414.672897 577.194918 
L 416.799354 577.061335 
L 418.925811 576.726207 
L 421.052269 576.077042 
L 423.178726 575.685669 
L 425.305183 574.947449 
L 427.43164 575.118529 
L 429.558097 574.914639 
L 431.684554 573.778015 
L 433.811011 572.840593 
L 438.063926 571.446178 
L 440.190383 571.28213 
L 442.31684 570.989185 
L 444.443297 569.995518 
L 448.696211 568.715937 
L 450.822668 568.767495 
L 452.949126 567.316835 
L 457.20204 566.597364 
L 459.328497 566.859842 
L 461.454954 566.705167 
L 463.581411 567.173878 
L 465.707868 566.836406 
L 467.834326 568.137079 
L 469.960783 568.130048 
L 474.213697 568.507361 
L 476.340154 569.257298 
L 478.466611 569.716635 
L 482.719525 570.229873 
L 486.97244 569.276047 
L 489.098897 568.617508 
L 491.225354 568.804992 
L 493.351811 567.443387 
L 495.478268 567.370737 
L 497.604725 566.780161 
L 499.731182 566.873903 
L 501.85764 566.609081 
L 503.984097 566.824689 
L 506.110554 565.125611 
L 508.237011 564.417858 
L 510.363468 563.405442 
L 512.489925 561.842291 
L 514.616382 560.9119 
L 516.74284 560.923618 
L 518.869297 559.953386 
L 520.995754 560.262735 
L 523.122211 560.382257 
L 527.375125 559.334688 
L 529.501582 559.182357 
L 533.754497 557.921524 
L 535.880954 557.853561 
L 538.007411 557.009881 
L 540.133868 555.791233 
L 542.260325 555.659994 
L 544.386782 553.623445 
L 546.513239 553.17817 
L 548.639697 551.889215 
L 550.766154 549.475353 
L 552.892611 545.831126 
L 555.019068 541.511954 
L 557.145525 536.454563 
L 559.271982 533.632924 
L 561.398439 531.090167 
L 563.524896 527.614675 
L 565.651354 522.215125 
L 567.777811 516.168754 
L 569.904268 509.564617 
L 572.030725 502.278505 
L 574.157182 497.347666 
L 576.283639 492.993342 
L 578.410096 486.557941 
L 580.536553 480.785765 
L 582.663011 469.89058 
L 584.789468 460.731968 
L 586.915925 444.598937 
L 589.042382 431.50081 
L 593.295296 410.64083 
L 595.421753 393.371176 
L 597.548211 380.512091 
L 599.674668 363.078388 
L 601.801125 352.895643 
L 603.927582 345.862635 
L 606.054039 337.866426 
L 608.180496 328.62579 
L 610.306953 323.352792 
L 612.43341 315.81592 
L 614.559868 309.195378 
L 616.686325 299.024351 
L 618.812782 294.71221 
L 620.939239 291.74527 
L 623.065696 291.792141 
L 625.192153 288.808796 
L 627.31861 284.412288 
L 629.445068 279.64081 
L 631.571525 281.839064 
L 633.697982 279.659559 
L 635.824439 285.609844 
L 640.077353 289.919641 
L 642.20381 288.17838 
L 644.330267 287.929963 
L 646.456725 286.751155 
L 648.583182 289.577482 
L 650.709639 289.48374 
L 652.836096 291.510915 
L 654.962553 288.998624 
L 657.08901 289.797776 
L 659.215467 291.771049 
L 661.341924 294.74502 
L 663.468382 297.393237 
L 665.594839 296.678453 
L 667.721296 296.561275 
L 669.847753 299.75554 
L 671.97421 300.275809 
L 674.100667 298.768904 
L 676.227124 294.965314 
L 678.353582 287.569056 
L 680.480039 284.843502 
L 682.606496 283.788902 
L 684.732953 275.481001 
L 686.85941 271.653976 
L 688.985867 256.594293 
L 691.112324 244.595293 
L 693.238781 238.893425 
L 695.365239 229.448899 
L 697.491696 228.563036 
L 699.618153 212.362042 
L 701.74461 204.759551 
L 703.871067 195.615 
L 705.997524 188.907747 
L 708.123981 182.882468 
L 710.250439 182.223929 
L 712.376896 170.281174 
L 714.503353 177.283716 
L 716.62981 164.928495 
L 718.756267 184.24876 
L 720.882724 223.725939 
L 723.009181 244.855428 
L 725.135638 258.136352 
L 727.262096 273.688181 
L 729.388553 279.03383 
L 731.51501 278.19718 
L 733.641467 284.311515 
L 735.767924 288.447889 
L 737.894381 296.509717 
L 740.020838 299.15559 
L 742.147295 301.487427 
L 744.273753 304.351251 
L 746.40021 318.789891 
L 748.526667 297.873666 
L 750.653124 269.741635 
L 752.779581 254.154653 
L 754.906038 247.991104 
L 757.032495 245.870187 
L 759.158953 249.706586 
L 761.28541 252.582128 
L 763.411867 274.80137 
L 765.538324 288.900195 
L 767.664781 296.127717 
L 769.791238 308.632925 
L 771.917695 311.991239 
L 774.044152 320.488968 
L 776.17061 331.65835 
L 778.297067 342.218407 
L 780.423524 347.517185 
L 782.549981 351.325461 
L 784.676438 352.291005 
L 786.802895 363.908006 
L 791.05581 377.081127 
L 793.182267 386.080377 
L 795.308724 395.679577 
L 799.561638 400.802587 
L 801.688095 401.500967 
L 805.941009 417.519163 
L 808.067467 420.129883 
L 810.193924 424.432649 
L 812.320381 430.469646 
L 814.446838 432.98428 
L 816.573295 439.393902 
L 818.699752 443.220927 
L 820.826209 452.534214 
L 822.952666 459.677368 
L 825.079124 464.671483 
L 827.205581 470.535057 
L 829.332038 470.790505 
L 831.458495 469.672629 
L 833.584952 470.881903 
L 835.711409 470.95221 
L 837.837866 472.702845 
L 839.964324 470.804566 
L 842.090781 467.143934 
L 844.217238 467.277516 
L 846.343695 467.21424 
L 848.470152 466.157297 
L 850.596609 462.262309 
L 852.723066 460.190607 
L 854.849523 458.789161 
L 856.975981 458.28764 
L 859.102438 457.43693 
L 861.228895 457.296317 
L 863.355352 454.924639 
L 865.481809 454.823867 
L 867.608266 453.457574 
L 869.734723 453.938003 
L 871.861181 453.438826 
L 876.114095 452.060816 
L 878.240552 451.763184 
L 880.367009 446.035536 
L 882.493466 440.753164 
L 884.619923 433.448304 
L 886.74638 427.151173 
L 888.872838 423.41789 
L 890.999295 420.540005 
L 893.125752 410.488499 
L 895.252209 403.110989 
L 897.378666 392.218147 
L 899.505123 384.346146 
L 901.63158 377.449065 
L 903.758037 374.859437 
L 905.884495 370.16061 
L 908.010952 364.587637 
L 910.137409 352.5113 
L 912.263866 342.923817 
L 914.390323 332.520778 
L 916.51678 324.451919 
L 920.769695 314.545714 
L 922.896152 311.644393 
L 925.022609 307.793933 
L 927.149066 307.055713 
L 929.275523 312.546662 
L 931.40198 324.217564 
L 933.528437 327.439952 
L 935.654894 333.683181 
L 937.781352 350.964553 
L 939.907809 360.088012 
L 942.034266 351.70746 
L 946.28718 324.45895 
L 948.413637 313.331752 
L 950.540094 304.1333 
L 952.666551 275.973147 
L 954.793009 254.836627 
L 956.919466 253.976543 
L 959.045923 254.663204 
L 961.17238 251.546277 
L 963.298837 255.783423 
L 965.425294 258.598033 
L 967.551751 251.11975 
L 969.678209 250.904143 
L 971.804666 246.891977 
L 976.05758 248.823066 
L 978.184037 247.721595 
L 980.310494 244.517956 
L 982.436951 250.735407 
L 984.563408 261.942285 
L 986.689866 269.47447 
L 988.816323 279.919693 
L 990.94278 285.738739 
L 993.069237 292.176484 
L 995.195694 300.242999 
L 997.322151 310.078898 
L 999.448608 316.601011 
L 1001.575066 330.296745 
L 1003.701523 337.913297 
L 1005.82798 346.429775 
L 1007.954437 351.674651 
L 1010.080894 354.976719 
L 1012.207351 362.300328 
L 1014.333808 372.926004 
L 1016.460265 389.680077 
L 1018.586723 407.938711 
L 1020.71318 417.678525 
L 1022.839637 421.217292 
L 1024.966094 425.707543 
L 1027.092551 434.774756 
L 1029.219008 446.7761 
L 1031.345465 452.792005 
L 1033.471922 454.694971 
L 1035.59838 458.88056 
L 1037.724837 465.278464 
L 1039.851294 470.663953 
L 1041.977751 490.382622 
L 1044.104208 504.408797 
L 1046.230665 507.663994 
L 1048.357122 511.544921 
L 1050.48358 518.252174 
L 1050.48358 518.252174 
" style="fill:none;stroke:#000000;stroke-linecap:square;stroke-width:1.5;"/>
   </g>
   <g id="line2d_55">
    <path clip-path="url(#p53c5835148)" d="M 78.69267 588.134631 
L 80.819128 588.823636 
L 82.945585 587.970582 
L 85.072042 588.544753 
L 87.198499 588.33149 
L 89.324956 587.921368 
L 91.451413 586.740216 
L 93.57787 585.083323 
L 95.704328 586.444928 
L 97.830785 587.248768 
L 99.957242 585.116133 
L 102.083699 586.428523 
L 104.210156 584.558367 
L 106.336613 575.847374 
L 108.46307 577.635506 
L 110.589527 576.979311 
L 112.715985 571.893797 
L 114.842442 569.744758 
L 116.968899 570.236904 
L 119.095356 571.910202 
L 121.221813 543.054013 
L 123.34827 540.478447 
L 125.474727 544.628882 
L 127.601184 557.047378 
L 129.727642 522.367456 
L 131.854099 510.851228 
L 133.980556 521.448783 
L 138.23347 494.183867 
L 140.359927 485.751758 
L 142.486384 523.95873 
L 144.612842 511.064492 
L 146.739299 513.295556 
L 148.865756 499.548264 
L 150.992213 488.015632 
L 153.11867 487.720344 
L 155.245127 489.229593 
L 157.371584 491.624706 
L 159.498041 528.683336 
L 161.624499 526.107769 
L 163.750956 523.335344 
L 165.877413 507.406203 
L 168.00387 501.680899 
L 170.130327 521.202709 
L 172.256784 542.725916 
L 174.383241 547.384902 
L 176.509699 554.849124 
L 178.636156 548.221551 
L 180.762613 541.987696 
L 182.88907 533.555586 
L 185.015527 529.798868 
L 187.141984 548.680888 
L 189.268441 559.885423 
L 191.394898 559.721374 
L 193.521356 552.306367 
L 195.647813 550.419806 
L 197.77427 550.665879 
L 199.900727 555.292056 
L 202.027184 560.508809 
L 204.153641 572.303919 
L 206.280098 570.236904 
L 208.406555 567.612123 
L 210.533013 564.757673 
L 212.65947 562.116487 
L 214.785927 573.501476 
L 216.912384 575.995018 
L 219.038841 577.865175 
L 221.165298 577.766745 
L 223.291755 573.468666 
L 225.418213 567.940221 
L 227.54467 569.170587 
L 229.671127 568.481582 
L 231.797584 578.062033 
L 233.924041 583.147547 
L 236.050498 573.698334 
L 238.176955 575.912994 
L 240.303412 573.698334 
L 242.42987 574.026432 
L 244.556327 578.833063 
L 246.682784 579.440043 
L 248.809241 583.39362 
L 250.935698 580.588385 
L 253.062155 575.929398 
L 255.188612 576.782452 
L 257.315069 581.457844 
L 259.441527 578.537775 
L 261.567984 581.933586 
L 263.694441 584.263079 
L 265.820898 581.917181 
L 267.947355 583.065522 
L 270.073812 583.213166 
L 272.200269 576.848072 
L 274.326727 576.897287 
L 276.453184 584.312294 
L 278.579641 583.541264 
L 280.706098 585.50985 
L 282.832555 583.39362 
L 284.959012 582.540566 
L 287.085469 580.686814 
L 293.464841 585.493445 
L 295.591298 583.262381 
L 297.717755 583.787337 
L 299.844212 579.89938 
L 301.970669 584.77163 
L 304.097126 583.295191 
L 306.223584 584.952084 
L 308.350041 585.854353 
L 310.476498 582.803044 
L 312.602955 583.344406 
L 314.729412 579.489258 
L 316.855869 576.37233 
L 318.982326 579.144756 
L 321.108783 577.733936 
L 323.235241 580.194668 
L 325.361698 580.752434 
L 327.488155 579.374424 
L 329.614612 578.669014 
L 331.741069 581.178961 
L 333.867526 577.733936 
L 335.993983 584.80444 
L 338.12044 584.706011 
L 340.246898 580.834458 
L 342.373355 581.359415 
L 344.499812 580.752434 
L 346.626269 581.687512 
L 348.752726 582.08123 
L 350.879183 585.083323 
L 353.00564 585.411421 
L 355.132098 582.606186 
L 357.258555 582.491352 
L 359.385012 581.753132 
L 361.511469 582.524161 
L 363.637926 582.803044 
L 365.764383 584.935679 
L 367.89084 586.395714 
L 370.017297 582.245278 
L 372.143755 583.245976 
L 374.270212 580.243883 
L 376.396669 579.440043 
L 378.523126 580.325907 
L 380.649583 585.690304 
L 382.77604 584.919274 
L 384.902497 580.440741 
L 387.028955 581.556273 
L 389.155412 579.669712 
L 391.281869 575.634111 
L 393.408326 576.191877 
L 395.534783 584.000601 
L 397.66124 583.42643 
L 399.787697 578.619799 
L 401.914154 577.78315 
L 404.040612 574.206886 
L 406.167069 574.731842 
L 408.293526 573.337427 
L 410.419983 585.066918 
L 412.54644 580.654005 
L 414.672897 574.584198 
L 416.799354 576.848072 
L 418.925811 571.860988 
L 421.052269 570.187689 
L 423.178726 570.597812 
L 425.305183 579.89938 
L 427.43164 581.851561 
L 429.558097 573.156973 
L 431.684554 568.891704 
L 433.811011 565.299034 
L 435.937469 565.233415 
L 438.063926 565.791181 
L 440.190383 578.751038 
L 442.31684 579.800951 
L 444.443297 566.201303 
L 446.569754 564.232717 
L 448.696211 561.000955 
L 450.822668 565.594322 
L 452.949126 555.636558 
L 455.075583 576.175472 
L 457.20204 577.340218 
L 459.328497 568.03865 
L 461.454954 563.149995 
L 463.581411 564.281932 
L 465.707868 563.232019 
L 467.834326 564.741268 
L 469.960783 576.126257 
L 472.08724 578.997112 
L 474.213697 569.022943 
L 476.340154 568.399557 
L 478.466611 567.497289 
L 480.593068 565.167795 
L 482.719525 566.398162 
L 484.845983 572.796066 
L 486.97244 575.650515 
L 489.098897 564.413171 
L 491.225354 569.711948 
L 493.351811 557.966052 
L 495.478268 564.659244 
L 497.604725 562.264131 
L 499.731182 573.452261 
L 501.85764 573.796764 
L 506.110554 557.818408 
L 508.237011 553.011777 
L 510.363468 557.572335 
L 512.489925 551.322074 
L 514.616382 566.939523 
L 516.74284 573.878788 
L 518.869297 559.130798 
L 520.995754 559.983852 
L 523.122211 553.848426 
L 525.248668 553.684377 
L 527.375125 547.877049 
L 529.501582 565.873205 
L 531.628039 569.44947 
L 533.754497 554.73429 
L 535.880954 559.508111 
L 538.007411 547.942668 
L 540.133868 545.153838 
L 542.260325 546.958375 
L 544.386782 551.617362 
L 546.513239 566.332542 
L 548.639697 545.711604 
L 550.766154 542.611082 
L 552.892611 522.433076 
L 555.019068 514.919639 
L 557.145525 511.556638 
L 559.271982 531.865883 
L 561.398439 548.533244 
L 563.524896 521.383163 
L 565.651354 504.814232 
L 567.777811 480.108478 
L 569.904268 468.69068 
L 572.030725 460.553858 
L 574.157182 497.35001 
L 576.283639 518.052972 
L 578.410096 476.335355 
L 580.536553 464.409005 
L 582.663011 403.842178 
L 584.789468 404.580398 
L 586.915925 347.622645 
L 589.042382 405.66312 
L 591.168839 446.527683 
L 593.295296 401.840782 
L 595.421753 343.521424 
L 597.548211 313.828586 
L 599.674668 282.544474 
L 601.801125 276.343429 
L 603.927582 356.432067 
L 606.054039 390.554223 
L 608.180496 337.156329 
L 610.306953 306.610438 
L 612.43341 261.070483 
L 614.559868 236.200681 
L 616.686325 205.146237 
L 618.812782 326.247082 
L 620.939239 369.785641 
L 623.065696 337.484427 
L 625.192153 285.727022 
L 627.31861 230.294923 
L 629.445068 202.800339 
L 631.571525 220.534017 
L 633.697982 310.990541 
L 635.824439 411.437639 
L 637.950896 352.462085 
L 640.077353 300.917943 
L 642.20381 218.106095 
L 644.330267 201.061422 
L 646.456725 212.282361 
L 648.583182 330.77483 
L 650.709639 410.781443 
L 652.836096 366.652309 
L 654.962553 283.331909 
L 657.08901 223.70016 
L 659.215467 214.874333 
L 661.341924 233.100158 
L 663.468382 349.312347 
L 665.594839 405.777954 
L 667.721296 365.832064 
L 669.847753 305.691764 
L 671.97421 227.342044 
L 674.100667 204.325993 
L 676.227124 206.475033 
L 680.480039 386.699075 
L 682.606496 358.449867 
L 684.732953 247.536455 
L 686.85941 200.55287 
L 688.985867 98.908216 
L 691.112324 122.482033 
L 693.238781 257.625457 
L 695.365239 320.587398 
L 697.491696 352.248821 
L 699.618153 134.1295 
L 701.74461 147.33543 
L 703.871067 34.896364 
L 705.997524 75.531258 
L 708.123981 215.448504 
L 710.250439 315.977626 
L 712.376896 268.649539 
L 714.503353 183.14729 
L 716.62981 60.848888 
L 718.756267 170.138217 
L 720.882724 351.871509 
L 723.009181 363.354927 
L 725.135638 408.944096 
L 727.262096 377.512341 
L 729.388553 220.566827 
L 731.51501 54.992345 
L 733.641467 212.938557 
L 735.767924 380.826127 
L 737.894381 419.787724 
L 740.020838 427.465209 
L 742.147295 393.835199 
L 744.273753 240.613594 
L 746.40021 156.062828 
L 748.526667 66.524978 
L 750.653124 183.901914 
L 752.779581 310.678848 
L 754.906038 384.320367 
L 757.032495 378.98878 
L 759.158953 267.468387 
L 761.28541 176.191619 
L 763.411867 222.059672 
L 765.538324 282.593689 
L 767.664781 361.271507 
L 769.791238 471.856822 
L 771.917695 402.496977 
L 776.17061 254.377291 
L 778.297067 295.980073 
L 780.423524 319.685129 
L 782.549981 387.929442 
L 784.676438 478.615634 
L 786.802895 483.815982 
L 788.929352 372.426827 
L 791.05581 301.114802 
L 793.182267 358.974823 
L 795.308724 386.879529 
L 797.435181 405.400642 
L 799.561638 497.005507 
L 801.688095 488.704637 
L 803.814552 429.794702 
L 805.941009 355.874301 
L 808.067467 377.249863 
L 810.193924 416.998894 
L 812.320381 447.65962 
L 814.446838 514.607947 
L 816.573295 533.571991 
L 818.699752 456.583876 
L 820.826209 421.067305 
L 822.952666 427.251946 
L 825.079124 451.957699 
L 827.205581 488.704637 
L 829.332038 516.396079 
L 831.458495 525.746862 
L 833.584952 465.048796 
L 835.711409 421.559451 
L 837.837866 439.506393 
L 839.964324 438.669744 
L 842.090781 463.08021 
L 844.217238 517.331157 
L 846.343695 525.30393 
L 848.470152 457.650193 
L 850.596609 394.294536 
L 852.723066 425.004477 
L 854.849523 428.859624 
L 856.975981 459.569565 
L 859.102438 511.376185 
L 861.228895 524.319637 
L 863.355352 441.048452 
L 865.481809 393.589126 
L 867.608266 415.44043 
L 869.734723 432.222625 
L 871.861181 456.075325 
L 873.987638 506.799222 
L 876.114095 519.250528 
L 878.240552 438.965032 
L 880.367009 353.495593 
L 882.493466 378.463824 
L 884.619923 381.088605 
L 886.74638 411.995405 
L 888.872838 480.666244 
L 890.999295 499.105332 
L 893.125752 368.60449 
L 895.252209 301.853021 
L 897.378666 302.213929 
L 899.505123 325.984604 
L 901.63158 363.715835 
L 903.758037 462.538849 
L 905.884495 466.213542 
L 908.010952 329.593678 
L 910.137409 217.31866 
L 914.390323 253.163329 
L 916.51678 307.233823 
L 918.643237 427.055087 
L 920.769695 432.353864 
L 925.022609 190.365438 
L 927.149066 229.934015 
L 929.275523 291.59997 
L 931.40198 388.930139 
L 933.528437 449.611801 
L 935.654894 476.056472 
L 937.781352 430.254039 
L 939.907809 254.229647 
L 942.034266 171.270154 
L 944.160723 193.695629 
L 946.28718 296.094908 
L 948.413637 371.721417 
L 950.540094 411.667307 
L 952.666551 233.132967 
L 954.793009 106.274009 
L 956.919466 165.249562 
L 959.045923 198.50226 
L 961.17238 274.276413 
L 963.298837 401.381445 
L 965.425294 431.369571 
L 967.551751 180.784986 
L 969.678209 104.764759 
L 971.804666 137.164403 
L 973.931123 205.261072 
L 976.05758 281.035225 
L 978.184037 393.671151 
L 980.310494 408.944096 
L 982.436951 224.30714 
L 984.563408 183.212909 
L 986.689866 189.889696 
L 988.816323 278.377634 
L 990.94278 321.768549 
L 993.069237 438.735364 
L 995.195694 465.409703 
L 997.322151 293.158434 
L 999.448608 228.867698 
L 1001.575066 285.759831 
L 1003.701523 331.693503 
L 1005.82798 381.383893 
L 1007.954437 475.449491 
L 1010.080894 488.524183 
L 1012.207351 344.423692 
L 1014.333808 303.247437 
L 1016.460265 403.038339 
L 1018.586723 459.503945 
L 1020.71318 449.562586 
L 1022.839637 500.220864 
L 1024.966094 519.955938 
L 1027.092551 407.894184 
L 1029.219008 387.256841 
L 1031.345465 445.149673 
L 1033.471922 472.82471 
L 1035.59838 478.861707 
L 1037.724837 545.006194 
L 1039.851294 557.654359 
L 1041.977751 545.924868 
L 1044.104208 485.440065 
L 1046.230665 467.936055 
L 1048.357122 499.991196 
L 1050.48358 525.812482 
L 1050.48358 525.812482 
" style="fill:none;stroke:#000000;stroke-dasharray:1.5,2.475;stroke-dashoffset:0;stroke-width:1.5;"/>
   </g>
   <g id="patch_7">
    <path d="M 30.103125 616.52 
L 30.103125 7.2 
" style="fill:none;stroke:#ffffff;stroke-linecap:square;stroke-linejoin:miter;"/>
   </g>
   <g id="patch_8">
    <path d="M 1099.073125 616.52 
L 1099.073125 7.2 
" style="fill:none;stroke:#ffffff;stroke-linecap:square;stroke-linejoin:miter;"/>
   </g>
   <g id="patch_9">
    <path d="M 30.103125 616.52 
L 1099.073125 616.52 
" style="fill:none;stroke:#ffffff;stroke-linecap:square;stroke-linejoin:miter;"/>
   </g>
   <g id="patch_10">
    <path d="M 30.103125 7.2 
L 1099.073125 7.2 
" style="fill:none;stroke:#ffffff;stroke-linecap:square;stroke-linejoin:miter;"/>
   </g>
   <g id="legend_1">
    <g id="patch_11">
     <path d="M 934.877812 103.26875 
L 1092.073125 103.26875 
Q 1094.073125 103.26875 1094.073125 101.26875 
L 1094.073125 14.2 
Q 1094.073125 12.2 1092.073125 12.2 
L 934.877812 12.2 
Q 932.877812 12.2 932.877812 14.2 
L 932.877812 101.26875 
Q 932.877812 103.26875 934.877812 103.26875 
z
" style="fill:#e5e5e5;opacity:0.8;stroke:#cccccc;stroke-linejoin:miter;stroke-width:0.5;"/>
    </g>
    <g id="line2d_56">
     <path d="M 936.877812 20.298437 
L 956.877812 20.298437 
" style="fill:none;stroke:#e24a33;stroke-linecap:square;stroke-width:1.5;"/>
    </g>
    <g id="line2d_57"/>
    <g id="text_25">
     <!-- Logistic rate rolling week -->
     <g transform="translate(964.877812 23.798437)scale(0.1 -0.1)">
      <defs>
       <path d="M 628 4666 
L 1259 4666 
L 1259 531 
L 3531 531 
L 3531 0 
L 628 0 
L 628 4666 
z
" id="DejaVuSans-4c" transform="scale(0.015625)"/>
       <path d="M 1959 3097 
Q 1497 3097 1228 2736 
Q 959 2375 959 1747 
Q 959 1119 1226 758 
Q 1494 397 1959 397 
Q 2419 397 2687 759 
Q 2956 1122 2956 1747 
Q 2956 2369 2687 2733 
Q 2419 3097 1959 3097 
z
M 1959 3584 
Q 2709 3584 3137 3096 
Q 3566 2609 3566 1747 
Q 3566 888 3137 398 
Q 2709 -91 1959 -91 
Q 1206 -91 779 398 
Q 353 888 353 1747 
Q 353 2609 779 3096 
Q 1206 3584 1959 3584 
z
" id="DejaVuSans-6f" transform="scale(0.015625)"/>
       <path d="M 2906 1791 
Q 2906 2416 2648 2759 
Q 2391 3103 1925 3103 
Q 1463 3103 1205 2759 
Q 947 2416 947 1791 
Q 947 1169 1205 825 
Q 1463 481 1925 481 
Q 2391 481 2648 825 
Q 2906 1169 2906 1791 
z
M 3481 434 
Q 3481 -459 3084 -895 
Q 2688 -1331 1869 -1331 
Q 1566 -1331 1297 -1286 
Q 1028 -1241 775 -1147 
L 775 -588 
Q 1028 -725 1275 -790 
Q 1522 -856 1778 -856 
Q 2344 -856 2625 -561 
Q 2906 -266 2906 331 
L 2906 616 
Q 2728 306 2450 153 
Q 2172 0 1784 0 
Q 1141 0 747 490 
Q 353 981 353 1791 
Q 353 2603 747 3093 
Q 1141 3584 1784 3584 
Q 2172 3584 2450 3431 
Q 2728 3278 2906 2969 
L 2906 3500 
L 3481 3500 
L 3481 434 
z
" id="DejaVuSans-67" transform="scale(0.015625)"/>
       <path d="M 603 3500 
L 1178 3500 
L 1178 0 
L 603 0 
L 603 3500 
z
M 603 4863 
L 1178 4863 
L 1178 4134 
L 603 4134 
L 603 4863 
z
" id="DejaVuSans-69" transform="scale(0.015625)"/>
       <path d="M 2834 3397 
L 2834 2853 
Q 2591 2978 2328 3040 
Q 2066 3103 1784 3103 
Q 1356 3103 1142 2972 
Q 928 2841 928 2578 
Q 928 2378 1081 2264 
Q 1234 2150 1697 2047 
L 1894 2003 
Q 2506 1872 2764 1633 
Q 3022 1394 3022 966 
Q 3022 478 2636 193 
Q 2250 -91 1575 -91 
Q 1294 -91 989 -36 
Q 684 19 347 128 
L 347 722 
Q 666 556 975 473 
Q 1284 391 1588 391 
Q 1994 391 2212 530 
Q 2431 669 2431 922 
Q 2431 1156 2273 1281 
Q 2116 1406 1581 1522 
L 1381 1569 
Q 847 1681 609 1914 
Q 372 2147 372 2553 
Q 372 3047 722 3315 
Q 1072 3584 1716 3584 
Q 2034 3584 2315 3537 
Q 2597 3491 2834 3397 
z
" id="DejaVuSans-73" transform="scale(0.015625)"/>
       <path d="M 1172 4494 
L 1172 3500 
L 2356 3500 
L 2356 3053 
L 1172 3053 
L 1172 1153 
Q 1172 725 1289 603 
Q 1406 481 1766 481 
L 2356 481 
L 2356 0 
L 1766 0 
Q 1100 0 847 248 
Q 594 497 594 1153 
L 594 3053 
L 172 3053 
L 172 3500 
L 594 3500 
L 594 4494 
L 1172 4494 
z
" id="DejaVuSans-74" transform="scale(0.015625)"/>
       <path d="M 3122 3366 
L 3122 2828 
Q 2878 2963 2633 3030 
Q 2388 3097 2138 3097 
Q 1578 3097 1268 2742 
Q 959 2388 959 1747 
Q 959 1106 1268 751 
Q 1578 397 2138 397 
Q 2388 397 2633 464 
Q 2878 531 3122 666 
L 3122 134 
Q 2881 22 2623 -34 
Q 2366 -91 2075 -91 
Q 1284 -91 818 406 
Q 353 903 353 1747 
Q 353 2603 823 3093 
Q 1294 3584 2113 3584 
Q 2378 3584 2631 3529 
Q 2884 3475 3122 3366 
z
" id="DejaVuSans-63" transform="scale(0.015625)"/>
       <path id="DejaVuSans-20" transform="scale(0.015625)"/>
       <path d="M 2631 2963 
Q 2534 3019 2420 3045 
Q 2306 3072 2169 3072 
Q 1681 3072 1420 2755 
Q 1159 2438 1159 1844 
L 1159 0 
L 581 0 
L 581 3500 
L 1159 3500 
L 1159 2956 
Q 1341 3275 1631 3429 
Q 1922 3584 2338 3584 
Q 2397 3584 2469 3576 
Q 2541 3569 2628 3553 
L 2631 2963 
z
" id="DejaVuSans-72" transform="scale(0.015625)"/>
       <path d="M 2194 1759 
Q 1497 1759 1228 1600 
Q 959 1441 959 1056 
Q 959 750 1161 570 
Q 1363 391 1709 391 
Q 2188 391 2477 730 
Q 2766 1069 2766 1631 
L 2766 1759 
L 2194 1759 
z
M 3341 1997 
L 3341 0 
L 2766 0 
L 2766 531 
Q 2569 213 2275 61 
Q 1981 -91 1556 -91 
Q 1019 -91 701 211 
Q 384 513 384 1019 
Q 384 1609 779 1909 
Q 1175 2209 1959 2209 
L 2766 2209 
L 2766 2266 
Q 2766 2663 2505 2880 
Q 2244 3097 1772 3097 
Q 1472 3097 1187 3025 
Q 903 2953 641 2809 
L 641 3341 
Q 956 3463 1253 3523 
Q 1550 3584 1831 3584 
Q 2591 3584 2966 3190 
Q 3341 2797 3341 1997 
z
" id="DejaVuSans-61" transform="scale(0.015625)"/>
       <path d="M 3597 1894 
L 3597 1613 
L 953 1613 
Q 991 1019 1311 708 
Q 1631 397 2203 397 
Q 2534 397 2845 478 
Q 3156 559 3463 722 
L 3463 178 
Q 3153 47 2828 -22 
Q 2503 -91 2169 -91 
Q 1331 -91 842 396 
Q 353 884 353 1716 
Q 353 2575 817 3079 
Q 1281 3584 2069 3584 
Q 2775 3584 3186 3129 
Q 3597 2675 3597 1894 
z
M 3022 2063 
Q 3016 2534 2758 2815 
Q 2500 3097 2075 3097 
Q 1594 3097 1305 2825 
Q 1016 2553 972 2059 
L 3022 2063 
z
" id="DejaVuSans-65" transform="scale(0.015625)"/>
       <path d="M 603 4863 
L 1178 4863 
L 1178 0 
L 603 0 
L 603 4863 
z
" id="DejaVuSans-6c" transform="scale(0.015625)"/>
       <path d="M 3513 2113 
L 3513 0 
L 2938 0 
L 2938 2094 
Q 2938 2591 2744 2837 
Q 2550 3084 2163 3084 
Q 1697 3084 1428 2787 
Q 1159 2491 1159 1978 
L 1159 0 
L 581 0 
L 581 3500 
L 1159 3500 
L 1159 2956 
Q 1366 3272 1645 3428 
Q 1925 3584 2291 3584 
Q 2894 3584 3203 3211 
Q 3513 2838 3513 2113 
z
" id="DejaVuSans-6e" transform="scale(0.015625)"/>
       <path d="M 269 3500 
L 844 3500 
L 1563 769 
L 2278 3500 
L 2956 3500 
L 3675 769 
L 4391 3500 
L 4966 3500 
L 4050 0 
L 3372 0 
L 2619 2869 
L 1863 0 
L 1184 0 
L 269 3500 
z
" id="DejaVuSans-77" transform="scale(0.015625)"/>
       <path d="M 581 4863 
L 1159 4863 
L 1159 1991 
L 2875 3500 
L 3609 3500 
L 1753 1863 
L 3688 0 
L 2938 0 
L 1159 1709 
L 1159 0 
L 581 0 
L 581 4863 
z
" id="DejaVuSans-6b" transform="scale(0.015625)"/>
      </defs>
      <use xlink:href="#DejaVuSans-4c"/>
      <use x="53.962891" xlink:href="#DejaVuSans-6f"/>
      <use x="115.144531" xlink:href="#DejaVuSans-67"/>
      <use x="178.621094" xlink:href="#DejaVuSans-69"/>
      <use x="206.404297" xlink:href="#DejaVuSans-73"/>
      <use x="258.503906" xlink:href="#DejaVuSans-74"/>
      <use x="297.712891" xlink:href="#DejaVuSans-69"/>
      <use x="325.496094" xlink:href="#DejaVuSans-63"/>
      <use x="380.476562" xlink:href="#DejaVuSans-20"/>
      <use x="412.263672" xlink:href="#DejaVuSans-72"/>
      <use x="453.376953" xlink:href="#DejaVuSans-61"/>
      <use x="514.65625" xlink:href="#DejaVuSans-74"/>
      <use x="553.865234" xlink:href="#DejaVuSans-65"/>
      <use x="615.388672" xlink:href="#DejaVuSans-20"/>
      <use x="647.175781" xlink:href="#DejaVuSans-72"/>
      <use x="686.039062" xlink:href="#DejaVuSans-6f"/>
      <use x="747.220703" xlink:href="#DejaVuSans-6c"/>
      <use x="775.003906" xlink:href="#DejaVuSans-6c"/>
      <use x="802.787109" xlink:href="#DejaVuSans-69"/>
      <use x="830.570312" xlink:href="#DejaVuSans-6e"/>
      <use x="893.949219" xlink:href="#DejaVuSans-67"/>
      <use x="957.425781" xlink:href="#DejaVuSans-20"/>
      <use x="989.212891" xlink:href="#DejaVuSans-77"/>
      <use x="1071" xlink:href="#DejaVuSans-65"/>
      <use x="1132.523438" xlink:href="#DejaVuSans-65"/>
      <use x="1194.046875" xlink:href="#DejaVuSans-6b"/>
     </g>
    </g>
    <g id="line2d_58">
     <path d="M 936.877812 34.976562 
L 956.877812 34.976562 
" style="fill:none;stroke:#e24a33;stroke-dasharray:1.5,2.475;stroke-dashoffset:0;stroke-width:1.5;"/>
    </g>
    <g id="line2d_59"/>
    <g id="text_26">
     <!-- Logistic rate -->
     <g transform="translate(964.877812 38.476562)scale(0.1 -0.1)">
      <use xlink:href="#DejaVuSans-4c"/>
      <use x="53.962891" xlink:href="#DejaVuSans-6f"/>
      <use x="115.144531" xlink:href="#DejaVuSans-67"/>
      <use x="178.621094" xlink:href="#DejaVuSans-69"/>
      <use x="206.404297" xlink:href="#DejaVuSans-73"/>
      <use x="258.503906" xlink:href="#DejaVuSans-74"/>
      <use x="297.712891" xlink:href="#DejaVuSans-69"/>
      <use x="325.496094" xlink:href="#DejaVuSans-63"/>
      <use x="380.476562" xlink:href="#DejaVuSans-20"/>
      <use x="412.263672" xlink:href="#DejaVuSans-72"/>
      <use x="453.376953" xlink:href="#DejaVuSans-61"/>
      <use x="514.65625" xlink:href="#DejaVuSans-74"/>
      <use x="553.865234" xlink:href="#DejaVuSans-65"/>
     </g>
    </g>
    <g id="line2d_60">
     <path d="M 936.877812 49.654687 
L 956.877812 49.654687 
" style="fill:none;stroke:#348abd;stroke-linecap:square;stroke-width:1.5;"/>
    </g>
    <g id="line2d_61"/>
    <g id="text_27">
     <!-- RKI rate rolling week -->
     <g transform="translate(964.877812 53.154687)scale(0.1 -0.1)">
      <defs>
       <path d="M 2841 2188 
Q 3044 2119 3236 1894 
Q 3428 1669 3622 1275 
L 4263 0 
L 3584 0 
L 2988 1197 
Q 2756 1666 2539 1819 
Q 2322 1972 1947 1972 
L 1259 1972 
L 1259 0 
L 628 0 
L 628 4666 
L 2053 4666 
Q 2853 4666 3247 4331 
Q 3641 3997 3641 3322 
Q 3641 2881 3436 2590 
Q 3231 2300 2841 2188 
z
M 1259 4147 
L 1259 2491 
L 2053 2491 
Q 2509 2491 2742 2702 
Q 2975 2913 2975 3322 
Q 2975 3731 2742 3939 
Q 2509 4147 2053 4147 
L 1259 4147 
z
" id="DejaVuSans-52" transform="scale(0.015625)"/>
       <path d="M 628 4666 
L 1259 4666 
L 1259 2694 
L 3353 4666 
L 4166 4666 
L 1850 2491 
L 4331 0 
L 3500 0 
L 1259 2247 
L 1259 0 
L 628 0 
L 628 4666 
z
" id="DejaVuSans-4b" transform="scale(0.015625)"/>
       <path d="M 628 4666 
L 1259 4666 
L 1259 0 
L 628 0 
L 628 4666 
z
" id="DejaVuSans-49" transform="scale(0.015625)"/>
      </defs>
      <use xlink:href="#DejaVuSans-52"/>
      <use x="69.482422" xlink:href="#DejaVuSans-4b"/>
      <use x="135.058594" xlink:href="#DejaVuSans-49"/>
      <use x="164.550781" xlink:href="#DejaVuSans-20"/>
      <use x="196.337891" xlink:href="#DejaVuSans-72"/>
      <use x="237.451172" xlink:href="#DejaVuSans-61"/>
      <use x="298.730469" xlink:href="#DejaVuSans-74"/>
      <use x="337.939453" xlink:href="#DejaVuSans-65"/>
      <use x="399.462891" xlink:href="#DejaVuSans-20"/>
      <use x="431.25" xlink:href="#DejaVuSans-72"/>
      <use x="470.113281" xlink:href="#DejaVuSans-6f"/>
      <use x="531.294922" xlink:href="#DejaVuSans-6c"/>
      <use x="559.078125" xlink:href="#DejaVuSans-6c"/>
      <use x="586.861328" xlink:href="#DejaVuSans-69"/>
      <use x="614.644531" xlink:href="#DejaVuSans-6e"/>
      <use x="678.023438" xlink:href="#DejaVuSans-67"/>
      <use x="741.5" xlink:href="#DejaVuSans-20"/>
      <use x="773.287109" xlink:href="#DejaVuSans-77"/>
      <use x="855.074219" xlink:href="#DejaVuSans-65"/>
      <use x="916.597656" xlink:href="#DejaVuSans-65"/>
      <use x="978.121094" xlink:href="#DejaVuSans-6b"/>
     </g>
    </g>
    <g id="line2d_62">
     <path d="M 936.877812 64.332812 
L 956.877812 64.332812 
" style="fill:none;stroke:#348abd;stroke-dasharray:1.5,2.475;stroke-dashoffset:0;stroke-width:1.5;"/>
    </g>
    <g id="line2d_63"/>
    <g id="text_28">
     <!-- RKI rate -->
     <g transform="translate(964.877812 67.832812)scale(0.1 -0.1)">
      <use xlink:href="#DejaVuSans-52"/>
      <use x="69.482422" xlink:href="#DejaVuSans-4b"/>
      <use x="135.058594" xlink:href="#DejaVuSans-49"/>
      <use x="164.550781" xlink:href="#DejaVuSans-20"/>
      <use x="196.337891" xlink:href="#DejaVuSans-72"/>
      <use x="237.451172" xlink:href="#DejaVuSans-61"/>
      <use x="298.730469" xlink:href="#DejaVuSans-74"/>
      <use x="337.939453" xlink:href="#DejaVuSans-65"/>
     </g>
    </g>
    <g id="line2d_64">
     <path d="M 936.877812 79.010937 
L 956.877812 79.010937 
" style="fill:none;stroke:#000000;stroke-linecap:square;stroke-width:1.5;"/>
    </g>
    <g id="line2d_65"/>
    <g id="text_29">
     <!-- New Cases rolling week -->
     <g transform="translate(964.877812 82.510937)scale(0.1 -0.1)">
      <defs>
       <path d="M 628 4666 
L 1478 4666 
L 3547 763 
L 3547 4666 
L 4159 4666 
L 4159 0 
L 3309 0 
L 1241 3903 
L 1241 0 
L 628 0 
L 628 4666 
z
" id="DejaVuSans-4e" transform="scale(0.015625)"/>
       <path d="M 4122 4306 
L 4122 3641 
Q 3803 3938 3442 4084 
Q 3081 4231 2675 4231 
Q 1875 4231 1450 3742 
Q 1025 3253 1025 2328 
Q 1025 1406 1450 917 
Q 1875 428 2675 428 
Q 3081 428 3442 575 
Q 3803 722 4122 1019 
L 4122 359 
Q 3791 134 3420 21 
Q 3050 -91 2638 -91 
Q 1578 -91 968 557 
Q 359 1206 359 2328 
Q 359 3453 968 4101 
Q 1578 4750 2638 4750 
Q 3056 4750 3426 4639 
Q 3797 4528 4122 4306 
z
" id="DejaVuSans-43" transform="scale(0.015625)"/>
      </defs>
      <use xlink:href="#DejaVuSans-4e"/>
      <use x="74.804688" xlink:href="#DejaVuSans-65"/>
      <use x="136.328125" xlink:href="#DejaVuSans-77"/>
      <use x="218.115234" xlink:href="#DejaVuSans-20"/>
      <use x="249.902344" xlink:href="#DejaVuSans-43"/>
      <use x="319.726562" xlink:href="#DejaVuSans-61"/>
      <use x="381.005859" xlink:href="#DejaVuSans-73"/>
      <use x="433.105469" xlink:href="#DejaVuSans-65"/>
      <use x="494.628906" xlink:href="#DejaVuSans-73"/>
      <use x="546.728516" xlink:href="#DejaVuSans-20"/>
      <use x="578.515625" xlink:href="#DejaVuSans-72"/>
      <use x="617.378906" xlink:href="#DejaVuSans-6f"/>
      <use x="678.560547" xlink:href="#DejaVuSans-6c"/>
      <use x="706.34375" xlink:href="#DejaVuSans-6c"/>
      <use x="734.126953" xlink:href="#DejaVuSans-69"/>
      <use x="761.910156" xlink:href="#DejaVuSans-6e"/>
      <use x="825.289062" xlink:href="#DejaVuSans-67"/>
      <use x="888.765625" xlink:href="#DejaVuSans-20"/>
      <use x="920.552734" xlink:href="#DejaVuSans-77"/>
      <use x="1002.339844" xlink:href="#DejaVuSans-65"/>
      <use x="1063.863281" xlink:href="#DejaVuSans-65"/>
      <use x="1125.386719" xlink:href="#DejaVuSans-6b"/>
     </g>
    </g>
    <g id="line2d_66">
     <path d="M 936.877812 93.689062 
L 956.877812 93.689062 
" style="fill:none;stroke:#000000;stroke-dasharray:1.5,2.475;stroke-dashoffset:0;stroke-width:1.5;"/>
    </g>
    <g id="line2d_67"/>
    <g id="text_30">
     <!-- New Cases -->
     <g transform="translate(964.877812 97.189062)scale(0.1 -0.1)">
      <use xlink:href="#DejaVuSans-4e"/>
      <use x="74.804688" xlink:href="#DejaVuSans-65"/>
      <use x="136.328125" xlink:href="#DejaVuSans-77"/>
      <use x="218.115234" xlink:href="#DejaVuSans-20"/>
      <use x="249.902344" xlink:href="#DejaVuSans-43"/>
      <use x="319.726562" xlink:href="#DejaVuSans-61"/>
      <use x="381.005859" xlink:href="#DejaVuSans-73"/>
      <use x="433.105469" xlink:href="#DejaVuSans-65"/>
      <use x="494.628906" xlink:href="#DejaVuSans-73"/>
     </g>
    </g>
   </g>
  </g>
 </g>
 <defs>
  <clipPath id="p53c5835148">
   <rect height="609.32" width="1068.97" x="30.103125" y="7.2"/>
  </clipPath>
 </defs>
</svg>
