<?xml version="1.0" encoding="utf-8" standalone="no"?>
<!DOCTYPE svg PUBLIC "-//W3C//DTD SVG 1.1//EN"
  "http://www.w3.org/Graphics/SVG/1.1/DTD/svg11.dtd">
<!-- Created with matplotlib (https://matplotlib.org/) -->
<svg height="640.398125pt" version="1.1" viewBox="0 0 1145.085625 640.398125" width="1145.085625pt" xmlns="http://www.w3.org/2000/svg" xmlns:xlink="http://www.w3.org/1999/xlink">
 <metadata>
  <rdf:RDF xmlns:cc="http://creativecommons.org/ns#" xmlns:dc="http://purl.org/dc/elements/1.1/" xmlns:rdf="http://www.w3.org/1999/02/22-rdf-syntax-ns#">
   <cc:Work>
    <dc:type rdf:resource="http://purl.org/dc/dcmitype/StillImage"/>
    <dc:date>2021-02-21T09:01:25.272164</dc:date>
    <dc:format>image/svg+xml</dc:format>
    <dc:creator>
     <cc:Agent>
      <dc:title>Matplotlib v3.3.2, https://matplotlib.org/</dc:title>
     </cc:Agent>
    </dc:creator>
   </cc:Work>
  </rdf:RDF>
 </metadata>
 <defs>
  <style type="text/css">*{stroke-linecap:butt;stroke-linejoin:round;}</style>
 </defs>
 <g id="figure_1">
  <g id="patch_1">
   <path d="M 0 640.398125 
L 1145.085625 640.398125 
L 1145.085625 0 
L 0 0 
z
" style="fill:#ffffff;"/>
  </g>
  <g id="axes_1">
   <g id="patch_2">
    <path d="M 30.103125 616.52 
L 1099.073125 616.52 
L 1099.073125 7.2 
L 30.103125 7.2 
z
" style="fill:#e5e5e5;"/>
   </g>
   <g id="matplotlib.axis_1">
    <g id="xtick_1">
     <g id="line2d_1">
      <path clip-path="url(#p5e0b83649b)" d="M 84.106547 616.52 
L 84.106547 7.2 
" style="fill:none;stroke:#ffffff;stroke-linecap:square;stroke-width:0.8;"/>
     </g>
     <g id="line2d_2">
      <defs>
       <path d="M 0 0 
L 0 3.5 
" id="m2ff4020197" style="stroke:#555555;stroke-width:0.8;"/>
      </defs>
      <g>
       <use style="fill:#555555;stroke:#555555;stroke-width:0.8;" x="84.106547" xlink:href="#m2ff4020197" y="616.52"/>
      </g>
     </g>
     <g id="text_1">
      <!-- 2020-03 -->
      <g style="fill:#555555;" transform="translate(63.215141 631.118437)scale(0.1 -0.1)">
       <defs>
        <path d="M 19.1875 8.296875 
L 53.609375 8.296875 
L 53.609375 0 
L 7.328125 0 
L 7.328125 8.296875 
Q 12.9375 14.109375 22.625 23.890625 
Q 32.328125 33.6875 34.8125 36.53125 
Q 39.546875 41.84375 41.421875 45.53125 
Q 43.3125 49.21875 43.3125 52.78125 
Q 43.3125 58.59375 39.234375 62.25 
Q 35.15625 65.921875 28.609375 65.921875 
Q 23.96875 65.921875 18.8125 64.3125 
Q 13.671875 62.703125 7.8125 59.421875 
L 7.8125 69.390625 
Q 13.765625 71.78125 18.9375 73 
Q 24.125 74.21875 28.421875 74.21875 
Q 39.75 74.21875 46.484375 68.546875 
Q 53.21875 62.890625 53.21875 53.421875 
Q 53.21875 48.921875 51.53125 44.890625 
Q 49.859375 40.875 45.40625 35.40625 
Q 44.1875 33.984375 37.640625 27.21875 
Q 31.109375 20.453125 19.1875 8.296875 
z
" id="DejaVuSans-50"/>
        <path d="M 31.78125 66.40625 
Q 24.171875 66.40625 20.328125 58.90625 
Q 16.5 51.421875 16.5 36.375 
Q 16.5 21.390625 20.328125 13.890625 
Q 24.171875 6.390625 31.78125 6.390625 
Q 39.453125 6.390625 43.28125 13.890625 
Q 47.125 21.390625 47.125 36.375 
Q 47.125 51.421875 43.28125 58.90625 
Q 39.453125 66.40625 31.78125 66.40625 
z
M 31.78125 74.21875 
Q 44.046875 74.21875 50.515625 64.515625 
Q 56.984375 54.828125 56.984375 36.375 
Q 56.984375 17.96875 50.515625 8.265625 
Q 44.046875 -1.421875 31.78125 -1.421875 
Q 19.53125 -1.421875 13.0625 8.265625 
Q 6.59375 17.96875 6.59375 36.375 
Q 6.59375 54.828125 13.0625 64.515625 
Q 19.53125 74.21875 31.78125 74.21875 
z
" id="DejaVuSans-48"/>
        <path d="M 4.890625 31.390625 
L 31.203125 31.390625 
L 31.203125 23.390625 
L 4.890625 23.390625 
z
" id="DejaVuSans-45"/>
        <path d="M 40.578125 39.3125 
Q 47.65625 37.796875 51.625 33 
Q 55.609375 28.21875 55.609375 21.1875 
Q 55.609375 10.40625 48.1875 4.484375 
Q 40.765625 -1.421875 27.09375 -1.421875 
Q 22.515625 -1.421875 17.65625 -0.515625 
Q 12.796875 0.390625 7.625 2.203125 
L 7.625 11.71875 
Q 11.71875 9.328125 16.59375 8.109375 
Q 21.484375 6.890625 26.8125 6.890625 
Q 36.078125 6.890625 40.9375 10.546875 
Q 45.796875 14.203125 45.796875 21.1875 
Q 45.796875 27.640625 41.28125 31.265625 
Q 36.765625 34.90625 28.71875 34.90625 
L 20.21875 34.90625 
L 20.21875 43.015625 
L 29.109375 43.015625 
Q 36.375 43.015625 40.234375 45.921875 
Q 44.09375 48.828125 44.09375 54.296875 
Q 44.09375 59.90625 40.109375 62.90625 
Q 36.140625 65.921875 28.71875 65.921875 
Q 24.65625 65.921875 20.015625 65.03125 
Q 15.375 64.15625 9.8125 62.3125 
L 9.8125 71.09375 
Q 15.4375 72.65625 20.34375 73.4375 
Q 25.25 74.21875 29.59375 74.21875 
Q 40.828125 74.21875 47.359375 69.109375 
Q 53.90625 64.015625 53.90625 55.328125 
Q 53.90625 49.265625 50.4375 45.09375 
Q 46.96875 40.921875 40.578125 39.3125 
z
" id="DejaVuSans-51"/>
       </defs>
       <use xlink:href="#DejaVuSans-50"/>
       <use x="63.623047" xlink:href="#DejaVuSans-48"/>
       <use x="127.246094" xlink:href="#DejaVuSans-50"/>
       <use x="190.869141" xlink:href="#DejaVuSans-48"/>
       <use x="254.492188" xlink:href="#DejaVuSans-45"/>
       <use x="290.576172" xlink:href="#DejaVuSans-48"/>
       <use x="354.199219" xlink:href="#DejaVuSans-51"/>
      </g>
     </g>
    </g>
    <g id="xtick_2">
     <g id="line2d_3">
      <path clip-path="url(#p5e0b83649b)" d="M 249.229794 616.52 
L 249.229794 7.2 
" style="fill:none;stroke:#ffffff;stroke-linecap:square;stroke-width:0.8;"/>
     </g>
     <g id="line2d_4">
      <g>
       <use style="fill:#555555;stroke:#555555;stroke-width:0.8;" x="249.229794" xlink:href="#m2ff4020197" y="616.52"/>
      </g>
     </g>
     <g id="text_2">
      <!-- 2020-05 -->
      <g style="fill:#555555;" transform="translate(228.338388 631.118437)scale(0.1 -0.1)">
       <defs>
        <path d="M 10.796875 72.90625 
L 49.515625 72.90625 
L 49.515625 64.59375 
L 19.828125 64.59375 
L 19.828125 46.734375 
Q 21.96875 47.46875 24.109375 47.828125 
Q 26.265625 48.1875 28.421875 48.1875 
Q 40.625 48.1875 47.75 41.5 
Q 54.890625 34.8125 54.890625 23.390625 
Q 54.890625 11.625 47.5625 5.09375 
Q 40.234375 -1.421875 26.90625 -1.421875 
Q 22.3125 -1.421875 17.546875 -0.640625 
Q 12.796875 0.140625 7.71875 1.703125 
L 7.71875 11.625 
Q 12.109375 9.234375 16.796875 8.0625 
Q 21.484375 6.890625 26.703125 6.890625 
Q 35.15625 6.890625 40.078125 11.328125 
Q 45.015625 15.765625 45.015625 23.390625 
Q 45.015625 31 40.078125 35.4375 
Q 35.15625 39.890625 26.703125 39.890625 
Q 22.75 39.890625 18.8125 39.015625 
Q 14.890625 38.140625 10.796875 36.28125 
z
" id="DejaVuSans-53"/>
       </defs>
       <use xlink:href="#DejaVuSans-50"/>
       <use x="63.623047" xlink:href="#DejaVuSans-48"/>
       <use x="127.246094" xlink:href="#DejaVuSans-50"/>
       <use x="190.869141" xlink:href="#DejaVuSans-48"/>
       <use x="254.492188" xlink:href="#DejaVuSans-45"/>
       <use x="290.576172" xlink:href="#DejaVuSans-48"/>
       <use x="354.199219" xlink:href="#DejaVuSans-53"/>
      </g>
     </g>
    </g>
    <g id="xtick_3">
     <g id="line2d_5">
      <path clip-path="url(#p5e0b83649b)" d="M 414.35304 616.52 
L 414.35304 7.2 
" style="fill:none;stroke:#ffffff;stroke-linecap:square;stroke-width:0.8;"/>
     </g>
     <g id="line2d_6">
      <g>
       <use style="fill:#555555;stroke:#555555;stroke-width:0.8;" x="414.35304" xlink:href="#m2ff4020197" y="616.52"/>
      </g>
     </g>
     <g id="text_3">
      <!-- 2020-07 -->
      <g style="fill:#555555;" transform="translate(393.461634 631.118437)scale(0.1 -0.1)">
       <defs>
        <path d="M 8.203125 72.90625 
L 55.078125 72.90625 
L 55.078125 68.703125 
L 28.609375 0 
L 18.3125 0 
L 43.21875 64.59375 
L 8.203125 64.59375 
z
" id="DejaVuSans-55"/>
       </defs>
       <use xlink:href="#DejaVuSans-50"/>
       <use x="63.623047" xlink:href="#DejaVuSans-48"/>
       <use x="127.246094" xlink:href="#DejaVuSans-50"/>
       <use x="190.869141" xlink:href="#DejaVuSans-48"/>
       <use x="254.492188" xlink:href="#DejaVuSans-45"/>
       <use x="290.576172" xlink:href="#DejaVuSans-48"/>
       <use x="354.199219" xlink:href="#DejaVuSans-55"/>
      </g>
     </g>
    </g>
    <g id="xtick_4">
     <g id="line2d_7">
      <path clip-path="url(#p5e0b83649b)" d="M 582.183225 616.52 
L 582.183225 7.2 
" style="fill:none;stroke:#ffffff;stroke-linecap:square;stroke-width:0.8;"/>
     </g>
     <g id="line2d_8">
      <g>
       <use style="fill:#555555;stroke:#555555;stroke-width:0.8;" x="582.183225" xlink:href="#m2ff4020197" y="616.52"/>
      </g>
     </g>
     <g id="text_4">
      <!-- 2020-09 -->
      <g style="fill:#555555;" transform="translate(561.291819 631.118437)scale(0.1 -0.1)">
       <defs>
        <path d="M 10.984375 1.515625 
L 10.984375 10.5 
Q 14.703125 8.734375 18.5 7.8125 
Q 22.3125 6.890625 25.984375 6.890625 
Q 35.75 6.890625 40.890625 13.453125 
Q 46.046875 20.015625 46.78125 33.40625 
Q 43.953125 29.203125 39.59375 26.953125 
Q 35.25 24.703125 29.984375 24.703125 
Q 19.046875 24.703125 12.671875 31.3125 
Q 6.296875 37.9375 6.296875 49.421875 
Q 6.296875 60.640625 12.9375 67.421875 
Q 19.578125 74.21875 30.609375 74.21875 
Q 43.265625 74.21875 49.921875 64.515625 
Q 56.59375 54.828125 56.59375 36.375 
Q 56.59375 19.140625 48.40625 8.859375 
Q 40.234375 -1.421875 26.421875 -1.421875 
Q 22.703125 -1.421875 18.890625 -0.6875 
Q 15.09375 0.046875 10.984375 1.515625 
z
M 30.609375 32.421875 
Q 37.25 32.421875 41.125 36.953125 
Q 45.015625 41.5 45.015625 49.421875 
Q 45.015625 57.28125 41.125 61.84375 
Q 37.25 66.40625 30.609375 66.40625 
Q 23.96875 66.40625 20.09375 61.84375 
Q 16.21875 57.28125 16.21875 49.421875 
Q 16.21875 41.5 20.09375 36.953125 
Q 23.96875 32.421875 30.609375 32.421875 
z
" id="DejaVuSans-57"/>
       </defs>
       <use xlink:href="#DejaVuSans-50"/>
       <use x="63.623047" xlink:href="#DejaVuSans-48"/>
       <use x="127.246094" xlink:href="#DejaVuSans-50"/>
       <use x="190.869141" xlink:href="#DejaVuSans-48"/>
       <use x="254.492188" xlink:href="#DejaVuSans-45"/>
       <use x="290.576172" xlink:href="#DejaVuSans-48"/>
       <use x="354.199219" xlink:href="#DejaVuSans-57"/>
      </g>
     </g>
    </g>
    <g id="xtick_5">
     <g id="line2d_9">
      <path clip-path="url(#p5e0b83649b)" d="M 747.306471 616.52 
L 747.306471 7.2 
" style="fill:none;stroke:#ffffff;stroke-linecap:square;stroke-width:0.8;"/>
     </g>
     <g id="line2d_10">
      <g>
       <use style="fill:#555555;stroke:#555555;stroke-width:0.8;" x="747.306471" xlink:href="#m2ff4020197" y="616.52"/>
      </g>
     </g>
     <g id="text_5">
      <!-- 2020-11 -->
      <g style="fill:#555555;" transform="translate(726.415065 631.118437)scale(0.1 -0.1)">
       <defs>
        <path d="M 12.40625 8.296875 
L 28.515625 8.296875 
L 28.515625 63.921875 
L 10.984375 60.40625 
L 10.984375 69.390625 
L 28.421875 72.90625 
L 38.28125 72.90625 
L 38.28125 8.296875 
L 54.390625 8.296875 
L 54.390625 0 
L 12.40625 0 
z
" id="DejaVuSans-49"/>
       </defs>
       <use xlink:href="#DejaVuSans-50"/>
       <use x="63.623047" xlink:href="#DejaVuSans-48"/>
       <use x="127.246094" xlink:href="#DejaVuSans-50"/>
       <use x="190.869141" xlink:href="#DejaVuSans-48"/>
       <use x="254.492188" xlink:href="#DejaVuSans-45"/>
       <use x="290.576172" xlink:href="#DejaVuSans-49"/>
       <use x="354.199219" xlink:href="#DejaVuSans-49"/>
      </g>
     </g>
    </g>
    <g id="xtick_6">
     <g id="line2d_11">
      <path clip-path="url(#p5e0b83649b)" d="M 912.429718 616.52 
L 912.429718 7.2 
" style="fill:none;stroke:#ffffff;stroke-linecap:square;stroke-width:0.8;"/>
     </g>
     <g id="line2d_12">
      <g>
       <use style="fill:#555555;stroke:#555555;stroke-width:0.8;" x="912.429718" xlink:href="#m2ff4020197" y="616.52"/>
      </g>
     </g>
     <g id="text_6">
      <!-- 2021-01 -->
      <g style="fill:#555555;" transform="translate(891.538312 631.118437)scale(0.1 -0.1)">
       <use xlink:href="#DejaVuSans-50"/>
       <use x="63.623047" xlink:href="#DejaVuSans-48"/>
       <use x="127.246094" xlink:href="#DejaVuSans-50"/>
       <use x="190.869141" xlink:href="#DejaVuSans-49"/>
       <use x="254.492188" xlink:href="#DejaVuSans-45"/>
       <use x="290.576172" xlink:href="#DejaVuSans-48"/>
       <use x="354.199219" xlink:href="#DejaVuSans-49"/>
      </g>
     </g>
    </g>
    <g id="xtick_7">
     <g id="line2d_13">
      <path clip-path="url(#p5e0b83649b)" d="M 1072.139087 616.52 
L 1072.139087 7.2 
" style="fill:none;stroke:#ffffff;stroke-linecap:square;stroke-width:0.8;"/>
     </g>
     <g id="line2d_14">
      <g>
       <use style="fill:#555555;stroke:#555555;stroke-width:0.8;" x="1072.139087" xlink:href="#m2ff4020197" y="616.52"/>
      </g>
     </g>
     <g id="text_7">
      <!-- 2021-03 -->
      <g style="fill:#555555;" transform="translate(1051.247681 631.118437)scale(0.1 -0.1)">
       <use xlink:href="#DejaVuSans-50"/>
       <use x="63.623047" xlink:href="#DejaVuSans-48"/>
       <use x="127.246094" xlink:href="#DejaVuSans-50"/>
       <use x="190.869141" xlink:href="#DejaVuSans-49"/>
       <use x="254.492188" xlink:href="#DejaVuSans-45"/>
       <use x="290.576172" xlink:href="#DejaVuSans-48"/>
       <use x="354.199219" xlink:href="#DejaVuSans-51"/>
      </g>
     </g>
    </g>
   </g>
   <g id="matplotlib.axis_2">
    <g id="ytick_1">
     <g id="line2d_15">
      <path clip-path="url(#p5e0b83649b)" d="M 30.103125 587.741318 
L 1099.073125 587.741318 
" style="fill:none;stroke:#ffffff;stroke-linecap:square;stroke-width:0.8;"/>
     </g>
     <g id="line2d_16">
      <defs>
       <path d="M 0 0 
L -3.5 0 
" id="m75f729d120" style="stroke:#555555;stroke-width:0.8;"/>
      </defs>
      <g>
       <use style="fill:#555555;stroke:#555555;stroke-width:0.8;" x="30.103125" xlink:href="#m75f729d120" y="587.741318"/>
      </g>
     </g>
     <g id="text_8">
      <!-- 0.5 -->
      <g style="fill:#555555;" transform="translate(7.2 591.540537)scale(0.1 -0.1)">
       <defs>
        <path d="M 10.6875 12.40625 
L 21 12.40625 
L 21 0 
L 10.6875 0 
z
" id="DejaVuSans-46"/>
       </defs>
       <use xlink:href="#DejaVuSans-48"/>
       <use x="63.623047" xlink:href="#DejaVuSans-46"/>
       <use x="95.410156" xlink:href="#DejaVuSans-53"/>
      </g>
     </g>
    </g>
    <g id="ytick_2">
     <g id="line2d_17">
      <path clip-path="url(#p5e0b83649b)" d="M 30.103125 513.773155 
L 1099.073125 513.773155 
" style="fill:none;stroke:#ffffff;stroke-linecap:square;stroke-width:0.8;"/>
     </g>
     <g id="line2d_18">
      <g>
       <use style="fill:#555555;stroke:#555555;stroke-width:0.8;" x="30.103125" xlink:href="#m75f729d120" y="513.773155"/>
      </g>
     </g>
     <g id="text_9">
      <!-- 1.0 -->
      <g style="fill:#555555;" transform="translate(7.2 517.572373)scale(0.1 -0.1)">
       <use xlink:href="#DejaVuSans-49"/>
       <use x="63.623047" xlink:href="#DejaVuSans-46"/>
       <use x="95.410156" xlink:href="#DejaVuSans-48"/>
      </g>
     </g>
    </g>
    <g id="ytick_3">
     <g id="line2d_19">
      <path clip-path="url(#p5e0b83649b)" d="M 30.103125 439.804991 
L 1099.073125 439.804991 
" style="fill:none;stroke:#ffffff;stroke-linecap:square;stroke-width:0.8;"/>
     </g>
     <g id="line2d_20">
      <g>
       <use style="fill:#555555;stroke:#555555;stroke-width:0.8;" x="30.103125" xlink:href="#m75f729d120" y="439.804991"/>
      </g>
     </g>
     <g id="text_10">
      <!-- 1.5 -->
      <g style="fill:#555555;" transform="translate(7.2 443.60421)scale(0.1 -0.1)">
       <use xlink:href="#DejaVuSans-49"/>
       <use x="63.623047" xlink:href="#DejaVuSans-46"/>
       <use x="95.410156" xlink:href="#DejaVuSans-53"/>
      </g>
     </g>
    </g>
    <g id="ytick_4">
     <g id="line2d_21">
      <path clip-path="url(#p5e0b83649b)" d="M 30.103125 365.836827 
L 1099.073125 365.836827 
" style="fill:none;stroke:#ffffff;stroke-linecap:square;stroke-width:0.8;"/>
     </g>
     <g id="line2d_22">
      <g>
       <use style="fill:#555555;stroke:#555555;stroke-width:0.8;" x="30.103125" xlink:href="#m75f729d120" y="365.836827"/>
      </g>
     </g>
     <g id="text_11">
      <!-- 2.0 -->
      <g style="fill:#555555;" transform="translate(7.2 369.636046)scale(0.1 -0.1)">
       <use xlink:href="#DejaVuSans-50"/>
       <use x="63.623047" xlink:href="#DejaVuSans-46"/>
       <use x="95.410156" xlink:href="#DejaVuSans-48"/>
      </g>
     </g>
    </g>
    <g id="ytick_5">
     <g id="line2d_23">
      <path clip-path="url(#p5e0b83649b)" d="M 30.103125 291.868663 
L 1099.073125 291.868663 
" style="fill:none;stroke:#ffffff;stroke-linecap:square;stroke-width:0.8;"/>
     </g>
     <g id="line2d_24">
      <g>
       <use style="fill:#555555;stroke:#555555;stroke-width:0.8;" x="30.103125" xlink:href="#m75f729d120" y="291.868663"/>
      </g>
     </g>
     <g id="text_12">
      <!-- 2.5 -->
      <g style="fill:#555555;" transform="translate(7.2 295.667882)scale(0.1 -0.1)">
       <use xlink:href="#DejaVuSans-50"/>
       <use x="63.623047" xlink:href="#DejaVuSans-46"/>
       <use x="95.410156" xlink:href="#DejaVuSans-53"/>
      </g>
     </g>
    </g>
    <g id="ytick_6">
     <g id="line2d_25">
      <path clip-path="url(#p5e0b83649b)" d="M 30.103125 217.900499 
L 1099.073125 217.900499 
" style="fill:none;stroke:#ffffff;stroke-linecap:square;stroke-width:0.8;"/>
     </g>
     <g id="line2d_26">
      <g>
       <use style="fill:#555555;stroke:#555555;stroke-width:0.8;" x="30.103125" xlink:href="#m75f729d120" y="217.900499"/>
      </g>
     </g>
     <g id="text_13">
      <!-- 3.0 -->
      <g style="fill:#555555;" transform="translate(7.2 221.699718)scale(0.1 -0.1)">
       <use xlink:href="#DejaVuSans-51"/>
       <use x="63.623047" xlink:href="#DejaVuSans-46"/>
       <use x="95.410156" xlink:href="#DejaVuSans-48"/>
      </g>
     </g>
    </g>
    <g id="ytick_7">
     <g id="line2d_27">
      <path clip-path="url(#p5e0b83649b)" d="M 30.103125 143.932336 
L 1099.073125 143.932336 
" style="fill:none;stroke:#ffffff;stroke-linecap:square;stroke-width:0.8;"/>
     </g>
     <g id="line2d_28">
      <g>
       <use style="fill:#555555;stroke:#555555;stroke-width:0.8;" x="30.103125" xlink:href="#m75f729d120" y="143.932336"/>
      </g>
     </g>
     <g id="text_14">
      <!-- 3.5 -->
      <g style="fill:#555555;" transform="translate(7.2 147.731554)scale(0.1 -0.1)">
       <use xlink:href="#DejaVuSans-51"/>
       <use x="63.623047" xlink:href="#DejaVuSans-46"/>
       <use x="95.410156" xlink:href="#DejaVuSans-53"/>
      </g>
     </g>
    </g>
    <g id="ytick_8">
     <g id="line2d_29">
      <path clip-path="url(#p5e0b83649b)" d="M 30.103125 69.964172 
L 1099.073125 69.964172 
" style="fill:none;stroke:#ffffff;stroke-linecap:square;stroke-width:0.8;"/>
     </g>
     <g id="line2d_30">
      <g>
       <use style="fill:#555555;stroke:#555555;stroke-width:0.8;" x="30.103125" xlink:href="#m75f729d120" y="69.964172"/>
      </g>
     </g>
     <g id="text_15">
      <!-- 4.0 -->
      <g style="fill:#555555;" transform="translate(7.2 73.763391)scale(0.1 -0.1)">
       <defs>
        <path d="M 37.796875 64.3125 
L 12.890625 25.390625 
L 37.796875 25.390625 
z
M 35.203125 72.90625 
L 47.609375 72.90625 
L 47.609375 25.390625 
L 58.015625 25.390625 
L 58.015625 17.1875 
L 47.609375 17.1875 
L 47.609375 0 
L 37.796875 0 
L 37.796875 17.1875 
L 4.890625 17.1875 
L 4.890625 26.703125 
z
" id="DejaVuSans-52"/>
       </defs>
       <use xlink:href="#DejaVuSans-52"/>
       <use x="63.623047" xlink:href="#DejaVuSans-46"/>
       <use x="95.410156" xlink:href="#DejaVuSans-48"/>
      </g>
     </g>
    </g>
   </g>
   <g id="line2d_31">
    <path clip-path="url(#p5e0b83649b)" d="M 89.520424 114.622911 
L 92.227363 85.358076 
L 94.934301 122.160738 
L 97.64124 104.576897 
L 100.348178 95.992699 
L 103.055117 105.393328 
L 105.762055 124.687859 
L 108.468994 159.979578 
L 111.175932 204.839297 
L 113.882871 215.895658 
L 116.589809 246.205498 
L 119.296747 270.039884 
L 122.003686 277.546135 
L 124.710624 284.08865 
L 127.417563 277.55759 
L 130.124501 273.556615 
L 135.538378 288.756241 
L 138.245317 301.426214 
L 140.952255 318.69324 
L 143.659194 328.755536 
L 146.366132 336.592714 
L 149.073071 342.212958 
L 151.780009 348.78895 
L 154.486947 358.42084 
L 157.193886 370.194256 
L 159.900824 382.963683 
L 165.314701 403.939538 
L 168.02164 414.648465 
L 170.728578 426.529856 
L 173.435517 436.545585 
L 176.142455 444.679654 
L 178.849394 451.092206 
L 181.556332 456.83234 
L 184.263271 461.453048 
L 186.970209 465.317212 
L 189.677148 469.94746 
L 197.797963 482.502524 
L 200.504901 485.891202 
L 203.21184 488.911835 
L 205.918778 491.424622 
L 214.039594 497.46678 
L 216.746532 498.955712 
L 219.453471 500.027552 
L 222.160409 500.657683 
L 230.281225 502.236037 
L 241.108978 505.278784 
L 260.057548 508.998634 
L 265.471425 509.521775 
L 270.885302 509.86288 
L 289.833871 510.475454 
L 297.954686 510.957843 
L 308.78244 511.342215 
L 325.024071 511.855948 
L 330.437948 511.937334 
L 335.851825 511.935989 
L 365.628148 512.303353 
L 379.16284 512.385842 
L 387.283656 512.090501 
L 395.404471 511.658527 
L 400.818348 511.565561 
L 406.232225 511.631318 
L 417.059979 511.968699 
L 454.957117 512.379729 
L 476.612625 512.095128 
L 536.165271 510.617992 
L 557.820779 509.961852 
L 565.941594 509.816445 
L 576.769348 510.019379 
L 598.424856 510.474901 
L 625.49424 510.010449 
L 636.321994 509.524466 
L 641.735871 509.383293 
L 655.270564 509.327836 
L 671.512194 508.990681 
L 679.63301 508.626281 
L 685.046887 508.091964 
L 695.874641 506.463839 
L 701.288518 505.657063 
L 706.702394 504.507438 
L 712.116271 503.391389 
L 720.237087 501.854605 
L 722.944025 501.211105 
L 725.650964 500.378423 
L 733.771779 497.51293 
L 739.185656 495.767398 
L 741.892594 494.885241 
L 744.599533 494.122908 
L 750.01341 493.274921 
L 755.427287 492.993022 
L 758.134225 492.947889 
L 766.255041 493.293253 
L 771.668918 493.650185 
L 779.789733 494.592521 
L 793.324425 496.724893 
L 801.445241 497.930987 
L 806.859118 498.586128 
L 828.514625 500.671249 
L 842.049318 501.464155 
L 850.170133 501.393596 
L 855.58401 501.288925 
L 871.825641 500.443661 
L 879.946456 500.205753 
L 890.77421 500.177082 
L 893.481149 500.331046 
L 898.895025 501.391243 
L 904.308902 502.691743 
L 907.015841 503.085323 
L 912.429718 503.589568 
L 928.671349 504.42207 
L 931.378287 504.463556 
L 936.792164 504.114342 
L 942.206041 503.502597 
L 947.619918 503.429112 
L 953.033795 503.870304 
L 961.15461 504.637227 
L 982.810118 505.793492 
L 1004.465626 506.63052 
L 1039.655826 507.611217 
L 1050.48358 507.581595 
L 1050.48358 507.581595 
" style="fill:none;stroke:#e24a33;stroke-linecap:square;stroke-width:1.5;"/>
   </g>
   <g id="line2d_32">
    <path clip-path="url(#p5e0b83649b)" d="M 89.520424 114.622911 
L 92.227363 56.093241 
L 94.934301 195.766061 
L 97.64124 51.825374 
L 100.348178 61.65591 
L 105.762055 240.455043 
L 108.468994 361.66495 
L 111.175932 370.111274 
L 113.882871 273.160587 
L 116.589809 263.994252 
L 119.296747 228.496612 
L 122.003686 204.940226 
L 124.710624 286.252647 
L 127.417563 315.947531 
L 130.124501 342.10445 
L 132.83144 325.337835 
L 135.538378 318.214388 
L 138.245317 317.186418 
L 140.952255 325.809411 
L 143.659194 356.688721 
L 146.366132 370.807774 
L 149.073071 381.446156 
L 151.780009 371.36978 
L 157.193886 399.600331 
L 159.900824 415.195403 
L 162.607763 429.369276 
L 165.314701 444.958201 
L 168.02164 456.408643 
L 170.728578 454.539521 
L 173.435517 455.747719 
L 176.142455 456.538814 
L 178.849394 460.083272 
L 181.556332 469.550209 
L 184.263271 477.30316 
L 186.970209 483.457789 
L 189.677148 486.951257 
L 192.384086 485.410501 
L 195.091024 486.043538 
L 197.797963 488.801217 
L 200.504901 493.270953 
L 203.21184 498.447589 
L 205.918778 501.047295 
L 208.625717 501.279114 
L 211.332655 500.510114 
L 214.039594 498.911176 
L 216.746532 499.223742 
L 219.453471 500.773833 
L 222.160409 502.858509 
L 224.867348 504.613547 
L 227.574286 504.8778 
L 230.281225 504.393654 
L 232.988163 504.224224 
L 235.695101 504.872041 
L 238.40204 506.342685 
L 241.108978 507.627536 
L 243.815917 508.434435 
L 246.522855 508.737707 
L 249.229794 508.172773 
L 251.936732 508.398597 
L 254.643671 508.919699 
L 257.350609 509.705159 
L 260.057548 510.62207 
L 262.764486 510.635235 
L 270.885302 509.230228 
L 273.59224 509.505241 
L 276.299178 510.362614 
L 279.006117 510.627945 
L 281.713055 511.046009 
L 284.419994 510.820846 
L 287.126932 510.338705 
L 292.540809 510.825042 
L 295.247748 511.34739 
L 297.954686 511.700088 
L 308.78244 511.223578 
L 314.196317 511.931231 
L 316.903255 511.957837 
L 319.610194 512.192631 
L 322.317132 512.259912 
L 325.024071 511.885245 
L 327.731009 511.634257 
L 333.144886 511.719568 
L 338.558763 512.488741 
L 343.97264 512.26044 
L 346.679579 512.103085 
L 349.386517 512.138397 
L 357.507332 512.489995 
L 360.214271 512.285869 
L 365.628148 512.254578 
L 368.335086 512.313124 
L 371.042025 512.606432 
L 379.16284 512.249728 
L 381.869779 511.789955 
L 387.283656 511.346453 
L 389.990594 511.385895 
L 392.697532 511.603342 
L 403.525286 511.580209 
L 408.939163 512.130607 
L 411.646102 512.116758 
L 414.35304 512.290165 
L 419.766917 511.961662 
L 422.473856 512.02267 
L 430.594671 512.460971 
L 433.301609 512.481236 
L 438.715486 512.195998 
L 444.129363 512.320742 
L 446.836302 512.535095 
L 452.250179 512.544642 
L 460.370994 511.930166 
L 471.198748 512.362096 
L 473.905686 512.092128 
L 476.612625 511.676397 
L 479.319563 511.489641 
L 490.147317 511.986009 
L 495.561194 511.174365 
L 498.268133 510.947928 
L 503.68201 511.56259 
L 506.388948 511.562267 
L 509.095886 511.72068 
L 511.802825 511.151885 
L 514.509763 510.705498 
L 517.216702 510.544057 
L 519.92364 510.683115 
L 522.630579 511.119537 
L 525.337517 511.255267 
L 528.044456 511.192524 
L 533.458333 509.892502 
L 536.165271 509.598922 
L 538.87221 510.026945 
L 541.579148 510.644057 
L 546.993025 510.649935 
L 549.699963 509.936145 
L 552.406902 509.36866 
L 555.11384 508.965734 
L 557.820779 509.469493 
L 560.527717 510.143539 
L 563.234656 510.25724 
L 565.941594 510.574304 
L 571.355471 509.579721 
L 574.06241 509.470544 
L 579.476287 510.570763 
L 584.890163 510.955987 
L 587.597102 510.638543 
L 590.30404 510.126643 
L 593.010979 510.042709 
L 595.717917 510.220181 
L 598.424856 510.534834 
L 601.131794 510.520934 
L 603.838733 510.654695 
L 606.545671 510.125196 
L 609.25261 509.736435 
L 611.959548 509.67768 
L 614.666487 509.826302 
L 617.373425 510.411221 
L 620.080364 510.469903 
L 622.787302 510.328753 
L 625.49424 509.622848 
L 630.908117 508.58257 
L 633.615056 508.927038 
L 636.321994 509.671479 
L 639.028933 509.746695 
L 641.735871 510.063748 
L 644.44281 509.639387 
L 647.149748 508.976831 
L 649.856687 508.629355 
L 652.563625 508.849649 
L 655.270564 509.389189 
L 657.977502 509.449055 
L 660.684441 509.851845 
L 663.391379 509.293124 
L 666.098317 508.534205 
L 671.512194 508.098427 
L 674.219133 508.71053 
L 676.926071 508.763939 
L 679.63301 508.66482 
L 682.339948 507.809338 
L 685.046887 506.277772 
L 687.753825 505.309762 
L 690.460764 505.058362 
L 693.167702 505.922096 
L 695.874641 506.204725 
L 698.581579 506.107208 
L 701.288518 504.719518 
L 703.995456 502.547302 
L 706.702394 500.992857 
L 709.409333 500.966319 
L 712.116271 502.201791 
L 717.530148 502.931053 
L 720.237087 500.725855 
L 722.944025 498.042799 
L 725.650964 495.164084 
L 728.357902 494.099568 
L 731.064841 495.613511 
L 736.478718 496.491892 
L 739.185656 494.946288 
L 741.892594 491.867705 
L 744.599533 489.827751 
L 747.306471 490.792938 
L 750.01341 492.98423 
L 752.720348 494.686213 
L 755.427287 495.846027 
L 758.134225 494.630361 
L 760.841164 492.415367 
L 763.548102 490.781727 
L 766.255041 491.70885 
L 768.961979 494.034154 
L 771.668918 496.13481 
L 774.375856 497.836296 
L 777.082795 496.824511 
L 779.789733 494.827301 
L 782.496671 493.625797 
L 785.20361 494.408945 
L 787.910548 497.193571 
L 790.617487 499.454299 
L 793.324425 500.739826 
L 796.031364 499.872728 
L 798.738302 497.600824 
L 801.445241 496.246714 
L 804.152179 496.87722 
L 806.859118 499.311285 
L 809.566056 501.345869 
L 812.272995 502.301126 
L 814.979933 501.361215 
L 817.686872 499.51683 
L 820.39381 498.359743 
L 823.100748 499.220621 
L 825.807687 501.17644 
L 828.514625 502.762768 
L 831.221564 503.566532 
L 833.928502 502.570953 
L 836.635441 500.875886 
L 839.342379 499.603798 
L 842.049318 499.692706 
L 847.463195 502.660537 
L 850.170133 503.127209 
L 852.877072 502.451893 
L 855.58401 500.262252 
L 858.290948 498.533361 
L 860.997887 498.789517 
L 863.704825 499.882997 
L 866.411764 501.949779 
L 869.118702 502.183344 
L 871.825641 501.504376 
L 877.239518 497.779338 
L 879.946456 498.54346 
L 882.653395 499.851822 
L 885.360333 501.567184 
L 888.067272 502.391961 
L 893.481149 500.674721 
L 896.188087 501.276493 
L 898.895025 502.467685 
L 901.601964 504.633291 
L 904.308902 505.889214 
L 907.015841 505.147024 
L 909.722779 503.401125 
L 912.429718 502.312141 
L 915.136656 502.37008 
L 917.843595 503.547307 
L 920.550533 505.656912 
L 923.257472 506.655257 
L 925.96441 505.906753 
L 928.671349 504.50604 
L 931.378287 502.602541 
L 934.085226 501.522543 
L 936.792164 501.950352 
L 939.499102 503.194328 
L 942.206041 504.835623 
L 944.912979 505.276758 
L 947.619918 504.621639 
L 950.326856 503.834255 
L 953.033795 503.379174 
L 955.740733 503.863547 
L 958.447672 505.310096 
L 961.15461 506.175123 
L 963.861549 506.383514 
L 966.568487 505.88321 
L 969.275426 505.066022 
L 971.982364 504.68804 
L 974.689303 504.977638 
L 977.396241 506.006435 
L 980.103179 506.852448 
L 982.810118 507.080649 
L 985.517056 506.686614 
L 990.930933 505.721617 
L 993.637872 505.866145 
L 996.34481 506.719516 
L 999.051749 507.275224 
L 1001.758687 507.450758 
L 1004.465626 507.228037 
L 1007.172564 506.710085 
L 1009.879503 506.399794 
L 1012.586441 506.471339 
L 1018.000318 507.783639 
L 1020.707256 507.938025 
L 1023.414195 507.816861 
L 1028.828072 507.10446 
L 1031.53501 507.230887 
L 1036.948887 508.010045 
L 1039.655826 508.053258 
L 1045.069703 507.451598 
L 1047.776641 507.092468 
L 1050.48358 507.077592 
L 1050.48358 507.077592 
" style="fill:none;stroke:#e24a33;stroke-dasharray:1.5,2.475;stroke-dashoffset:0;stroke-width:1.5;"/>
   </g>
   <g id="line2d_33">
    <path clip-path="url(#p5e0b83649b)" d="M 89.520424 262.560523 
L 92.227363 233.295996 
L 94.934301 270.098871 
L 97.64124 252.515745 
L 100.348178 210.419024 
L 103.055117 205.937762 
L 105.762055 213.839768 
L 108.468994 242.173277 
L 111.175932 280.318349 
L 113.882871 277.305072 
L 116.589809 288.30341 
L 119.296747 296.443252 
L 122.003686 275.209667 
L 124.710624 279.936454 
L 127.417563 263.631184 
L 130.124501 253.633011 
L 135.538378 271.172678 
L 138.245317 302.486961 
L 140.952255 342.055603 
L 143.659194 354.495765 
L 146.366132 363.634562 
L 149.073071 367.762308 
L 151.780009 371.239737 
L 154.486947 381.815825 
L 157.193886 397.732163 
L 159.900824 417.916347 
L 162.607763 433.409036 
L 170.728578 477.667454 
L 173.435517 490.413528 
L 176.142455 497.868669 
L 181.556332 502.780866 
L 184.263271 505.497624 
L 186.970209 508.817824 
L 189.677148 515.622085 
L 192.384086 520.866102 
L 195.091024 526.618133 
L 197.797963 533.119165 
L 200.504901 536.165608 
L 203.21184 541.10488 
L 205.918778 545.177473 
L 211.332655 549.370634 
L 214.039594 546.782107 
L 216.746532 541.45886 
L 219.453471 536.661661 
L 222.160409 531.335077 
L 224.867348 528.578859 
L 227.574286 526.807314 
L 230.281225 525.82971 
L 232.988163 528.650313 
L 235.695101 533.153964 
L 238.40204 538.404091 
L 241.108978 542.7731 
L 243.815917 544.666144 
L 246.522855 546.332978 
L 249.229794 546.282146 
L 251.936732 546.951118 
L 254.643671 548.943225 
L 257.350609 550.14049 
L 260.057548 552.805272 
L 262.764486 552.82381 
L 265.471425 549.494744 
L 268.178363 544.457228 
L 270.885302 531.544345 
L 273.59224 521.23204 
L 276.299178 518.088701 
L 279.006117 513.43326 
L 281.713055 513.246482 
L 284.419994 514.421414 
L 287.126932 514.216805 
L 289.833871 524.673659 
L 292.540809 531.317153 
L 295.247748 534.603155 
L 297.954686 538.879667 
L 303.368563 534.679786 
L 306.075502 534.753836 
L 308.78244 529.146151 
L 311.489378 531.032665 
L 314.196317 532.199033 
L 316.903255 529.31666 
L 319.610194 531.667955 
L 322.317132 534.936778 
L 325.024071 534.61313 
L 327.731009 535.819879 
L 330.437948 527.757485 
L 333.144886 512.909862 
L 335.851825 510.37723 
L 338.558763 511.188537 
L 341.265702 511.742207 
L 343.97264 519.02299 
L 346.679579 522.715965 
L 349.386517 523.316483 
L 352.093455 530.635911 
L 354.800394 529.747055 
L 357.507332 525.903374 
L 360.214271 519.820797 
L 362.921209 512.584707 
L 365.628148 510.222366 
L 368.335086 514.033495 
L 371.042025 522.221879 
L 373.748963 524.060426 
L 376.455902 522.608614 
L 379.16284 519.043593 
L 381.869779 499.022673 
L 384.576717 481.944911 
L 387.283656 459.11983 
L 389.990594 437.804815 
L 392.697532 430.695851 
L 395.404471 426.000485 
L 398.111409 430.358634 
L 400.818348 454.389916 
L 403.525286 474.42576 
L 406.232225 503.681477 
L 408.939163 524.615501 
L 411.646102 531.967138 
L 414.35304 540.112347 
L 417.059979 540.369286 
L 419.766917 534.225525 
L 422.473856 533.04376 
L 425.180794 528.80733 
L 427.887732 528.349144 
L 430.594671 530.700681 
L 436.008548 528.349082 
L 438.715486 526.502001 
L 441.422425 522.473766 
L 444.129363 520.598554 
L 446.836302 519.584137 
L 449.54324 518.037352 
L 452.250179 517.02143 
L 454.957117 514.996046 
L 457.664056 507.208587 
L 463.077933 490.229027 
L 465.784871 484.764431 
L 468.491809 483.456944 
L 471.198748 483.694373 
L 473.905686 484.2108 
L 476.612625 485.971316 
L 479.319563 484.37915 
L 482.026502 481.179143 
L 484.73344 477.466472 
L 487.440379 475.912687 
L 490.147317 475.182114 
L 492.854256 473.803069 
L 495.561194 476.582461 
L 498.268133 478.422063 
L 500.975071 483.043416 
L 503.68201 488.185307 
L 506.388948 488.951716 
L 509.095886 490.106109 
L 511.802825 489.393161 
L 514.509763 487.225661 
L 517.216702 489.059003 
L 519.92364 486.502956 
L 522.630579 486.054213 
L 525.337517 486.656112 
L 528.044456 484.744794 
L 530.751394 485.104927 
L 533.458333 483.431995 
L 536.165271 478.618113 
L 538.87221 480.373665 
L 541.579148 481.065628 
L 544.286087 481.551903 
L 546.993025 482.53981 
L 549.699963 482.651836 
L 552.406902 484.136401 
L 555.11384 486.765372 
L 557.820779 488.750214 
L 560.527717 489.505994 
L 563.234656 489.260468 
L 565.941594 491.104768 
L 568.648533 495.22562 
L 571.355471 501.406407 
L 574.06241 509.794102 
L 576.769348 514.597772 
L 579.476287 516.335204 
L 582.183225 518.586011 
L 584.890163 519.010671 
L 587.597102 519.638584 
L 590.30404 520.040412 
L 593.010979 519.136297 
L 595.717917 517.085678 
L 598.424856 513.32868 
L 603.838733 504.833041 
L 606.545671 500.052536 
L 609.25261 497.354547 
L 614.666487 497.22674 
L 617.373425 499.910756 
L 620.080364 501.633437 
L 622.787302 501.442799 
L 625.49424 500.790813 
L 628.201179 496.969704 
L 630.908117 489.147135 
L 633.615056 485.644205 
L 636.321994 483.936983 
L 639.028933 482.901905 
L 641.735871 485.721543 
L 644.44281 490.398236 
L 647.149748 496.10215 
L 649.856687 503.474589 
L 652.563625 505.448592 
L 655.270564 503.68864 
L 660.684441 501.490115 
L 663.391379 500.123132 
L 666.098317 499.467393 
L 668.805256 499.838717 
L 671.512194 496.846394 
L 674.219133 495.108618 
L 676.926071 493.731215 
L 679.63301 489.502035 
L 682.339948 486.002925 
L 685.046887 479.02521 
L 687.753825 468.581236 
L 690.460764 462.362897 
L 693.167702 457.735207 
L 695.874641 456.136962 
L 698.581579 456.435238 
L 701.288518 456.319208 
L 703.995456 457.351341 
L 706.702394 457.317732 
L 709.409333 458.092217 
L 712.116271 458.653085 
L 714.82321 458.525628 
L 717.530148 459.328937 
L 720.237087 459.247825 
L 722.944025 460.391984 
L 725.650964 460.366279 
L 728.357902 456.456815 
L 731.064841 453.127081 
L 733.771779 449.249222 
L 736.478718 446.583318 
L 739.185656 447.166181 
L 741.892594 449.82354 
L 744.599533 456.396677 
L 747.306471 466.978261 
L 750.01341 473.073158 
L 752.720348 478.601039 
L 755.427287 482.494882 
L 758.134225 485.226924 
L 760.841164 489.294957 
L 763.548102 492.63157 
L 766.255041 494.969087 
L 768.961979 496.787618 
L 771.668918 498.095054 
L 774.375856 499.726378 
L 782.496671 505.293986 
L 785.20361 505.99293 
L 787.910548 507.694934 
L 790.617487 509.884943 
L 796.031364 513.26463 
L 798.738302 513.392109 
L 804.152179 510.130511 
L 806.859118 509.055683 
L 814.979933 509.606924 
L 817.686872 509.71814 
L 820.39381 509.493468 
L 823.100748 510.290896 
L 825.807687 511.206788 
L 831.221564 511.848221 
L 833.928502 511.452488 
L 836.635441 510.789087 
L 839.342379 509.596601 
L 842.049318 506.552874 
L 844.756256 503.945015 
L 850.170133 500.050784 
L 852.877072 499.392739 
L 855.58401 498.045908 
L 858.290948 495.629266 
L 860.997887 494.683846 
L 863.704825 491.742734 
L 871.825641 490.82761 
L 874.532579 492.226436 
L 877.239518 492.573441 
L 882.653395 497.448099 
L 885.360333 497.891695 
L 888.067272 499.303257 
L 890.77421 499.829264 
L 893.481149 502.112577 
L 898.895025 520.37714 
L 901.601964 531.531384 
L 904.308902 539.281975 
L 907.015841 540.95239 
L 909.722779 538.698969 
L 912.429718 529.668869 
L 915.136656 515.590742 
L 917.843595 509.688669 
L 920.550533 509.435118 
L 923.257472 509.813513 
L 928.671349 511.202552 
L 931.378287 506.239795 
L 936.792164 481.810794 
L 939.499102 470.559537 
L 942.206041 465.489576 
L 944.912979 465.371364 
L 947.619918 469.234669 
L 950.326856 484.210371 
L 953.033795 506.315909 
L 955.740733 518.560663 
L 958.447672 526.027977 
L 961.15461 528.007798 
L 963.861549 528.642798 
L 966.568487 528.978701 
L 969.275426 526.287947 
L 971.982364 524.142837 
L 977.396241 520.481558 
L 980.103179 520.513417 
L 982.810118 520.878884 
L 985.517056 521.502046 
L 988.223995 523.530605 
L 990.930933 523.91143 
L 993.637872 522.999707 
L 996.34481 522.737678 
L 999.051749 521.660054 
L 1001.758687 521.132271 
L 1004.465626 521.317718 
L 1007.172564 520.592864 
L 1009.879503 521.073119 
L 1012.586441 521.28617 
L 1015.293379 520.388262 
L 1018.000318 521.639851 
L 1020.707256 522.723867 
L 1023.414195 524.406616 
L 1026.121133 527.195433 
L 1028.828072 526.99927 
L 1031.53501 527.252843 
L 1034.241949 525.750317 
L 1036.948887 523.806848 
L 1039.655826 522.094632 
L 1042.362764 518.160454 
L 1045.069703 513.817417 
L 1050.48358 503.789734 
L 1050.48358 503.789734 
" style="fill:none;stroke:#348abd;stroke-linecap:square;stroke-width:1.5;"/>
   </g>
   <g id="line2d_34">
    <path clip-path="url(#p5e0b83649b)" d="M 89.520424 262.560523 
L 92.227363 204.031469 
L 94.934301 343.704621 
L 97.64124 199.766369 
L 100.348178 42.032138 
L 103.055117 183.531454 
L 105.762055 261.251804 
L 108.468994 460.895087 
L 111.175932 471.04697 
L 113.882871 322.611681 
L 116.589809 276.754735 
L 119.296747 99.011031 
L 122.003686 34.896364 
L 124.710624 294.339311 
L 130.124501 401.059762 
L 132.83144 383.068176 
L 135.538378 339.075905 
L 138.245317 318.211014 
L 140.952255 311.876858 
L 143.659194 381.420446 
L 146.366132 410.729777 
L 149.073071 429.953981 
L 151.780009 407.410175 
L 154.486947 413.108523 
L 157.193886 429.625382 
L 159.900824 453.166149 
L 162.607763 489.869263 
L 165.314701 513.70528 
L 168.02164 530.297585 
L 170.728578 513.899999 
L 173.435517 502.331038 
L 176.142455 481.81137 
L 178.849394 469.953003 
L 181.556332 507.467787 
L 184.263271 532.722584 
L 186.970209 553.538985 
L 189.677148 561.52983 
L 192.384086 539.039156 
L 195.091024 522.075588 
L 197.797963 515.460222 
L 200.504901 528.792891 
L 203.21184 567.297487 
L 205.918778 582.047138 
L 208.625717 576.202954 
L 211.332655 553.71816 
L 214.039594 503.955899 
L 216.746532 478.197493 
L 219.453471 495.212494 
L 222.160409 530.011403 
L 224.867348 562.753613 
L 227.574286 563.802138 
L 230.281225 546.87493 
L 232.988163 523.700117 
L 235.695101 509.72305 
L 238.40204 531.963387 
L 241.108978 560.594467 
L 243.815917 576.004916 
L 246.522855 575.469982 
L 249.229794 546.5191 
L 251.936732 528.382923 
L 254.643671 523.6678 
L 257.350609 540.344243 
L 260.057548 579.247939 
L 262.764486 576.134685 
L 265.471425 552.166517 
L 268.178363 511.256486 
L 270.885302 437.992747 
L 273.59224 451.481666 
L 276.299178 518.340869 
L 281.713055 574.827243 
L 284.419994 560.391041 
L 287.126932 509.824223 
L 289.833871 511.190725 
L 292.540809 497.98612 
L 295.247748 541.342884 
L 297.954686 576.595431 
L 300.661625 560.41117 
L 303.368563 545.407948 
L 306.075502 510.342573 
L 308.78244 471.936934 
L 314.196317 549.507462 
L 316.903255 556.418816 
L 319.610194 576.87024 
L 322.317132 568.289708 
L 325.024071 508.077036 
L 327.731009 480.384173 
L 330.437948 454.754963 
L 333.144886 445.574096 
L 335.851825 538.690396 
L 338.558763 582.549387 
L 341.265702 572.165397 
L 343.97264 559.042517 
L 346.679579 506.234998 
L 349.386517 458.958587 
L 352.093455 496.810097 
L 354.800394 532.468405 
L 357.507332 555.643618 
L 360.214271 529.587355 
L 362.921209 508.389887 
L 365.628148 489.698611 
L 368.335086 485.63649 
L 371.042025 554.128785 
L 373.748963 545.338232 
L 376.455902 545.480941 
L 379.16284 504.632203 
L 381.869779 368.243447 
L 384.576717 370.154282 
L 387.283656 325.860918 
L 389.990594 404.923683 
L 392.697532 495.575488 
L 395.404471 512.613375 
L 398.111409 535.139243 
L 400.818348 536.462426 
L 403.525286 510.405188 
L 408.939163 551.461851 
L 411.646102 547.036944 
L 414.35304 569.629836 
L 417.059979 536.937819 
L 419.766917 493.456097 
L 422.473856 502.132833 
L 425.180794 500.995928 
L 427.887732 548.254554 
L 430.594671 563.497702 
L 433.301609 561.44779 
L 436.008548 528.658673 
L 438.715486 480.526529 
L 441.422425 473.935183 
L 444.129363 487.869444 
L 446.836302 541.153635 
L 449.54324 552.670206 
L 452.250179 554.336341 
L 454.957117 514.480984 
L 457.664056 426.014316 
L 460.370994 414.901758 
L 463.077933 428.045949 
L 465.784871 502.90146 
L 468.491809 543.517799 
L 471.198748 555.998346 
L 473.905686 518.095969 
L 476.612625 438.337932 
L 479.319563 403.756591 
L 482.026502 405.645902 
L 484.73344 476.912765 
L 487.440379 532.641305 
L 490.147317 550.88433 
L 492.854256 508.442655 
L 495.561194 457.793679 
L 498.268133 416.633808 
L 500.975071 437.995372 
L 503.68201 512.906001 
L 506.388948 538.006169 
L 509.095886 558.965079 
L 511.802825 503.452016 
L 514.509763 442.621184 
L 517.216702 429.467203 
L 519.92364 420.103044 
L 522.630579 509.764798 
L 525.337517 542.219463 
L 528.044456 545.58585 
L 530.751394 505.972945 
L 533.458333 430.910659 
L 536.165271 395.77003 
L 538.87221 432.391908 
L 541.579148 514.608543 
L 544.286087 545.623386 
L 546.993025 552.501201 
L 549.699963 506.757123 
L 552.406902 441.302618 
L 555.11384 414.172826 
L 557.820779 446.285804 
L 560.527717 519.899001 
L 563.234656 543.9047 
L 565.941594 565.411307 
L 568.648533 535.603087 
L 571.355471 484.568123 
L 574.06241 472.886694 
L 576.769348 479.911492 
L 579.476287 532.061025 
L 582.183225 559.66035 
L 584.890163 568.383924 
L 587.597102 539.998483 
L 590.30404 487.380914 
L 593.010979 466.557895 
L 595.717917 465.557153 
L 598.424856 505.762041 
L 601.131794 529.560938 
L 603.838733 539.013866 
L 606.545671 506.534944 
L 609.25261 468.494995 
L 611.959548 466.25268 
L 614.666487 464.967714 
L 617.373425 524.550155 
L 620.080364 541.619705 
L 622.787302 537.679397 
L 625.49424 501.971046 
L 628.201179 441.74723 
L 630.908117 411.4947 
L 633.615056 440.447199 
L 636.321994 512.599605 
L 639.028933 534.374156 
L 641.735871 557.416864 
L 644.44281 534.707901 
L 647.149748 481.674624 
L 649.856687 463.101777 
L 652.563625 454.265218 
L 655.270564 500.279939 
L 657.977502 526.679596 
L 660.684441 549.721751 
L 663.391379 525.139016 
L 666.098317 477.084456 
L 668.805256 465.701042 
L 671.512194 433.318955 
L 674.219133 488.115509 
L 676.926071 517.037776 
L 679.63301 520.117493 
L 682.339948 500.645245 
L 685.046887 428.24045 
L 687.753825 392.593223 
L 690.460764 389.790584 
L 693.167702 455.721676 
L 695.874641 505.850064 
L 698.581579 522.205424 
L 701.288518 499.833035 
L 703.995456 435.465382 
L 706.702394 392.357961 
L 709.409333 395.211977 
L 712.116271 459.64775 
L 714.82321 504.957867 
L 717.530148 527.828589 
L 720.237087 499.265251 
L 722.944025 443.474491 
L 725.650964 392.178029 
L 728.357902 367.845727 
L 731.064841 436.339616 
L 733.771779 477.812854 
L 736.478718 509.16726 
L 739.185656 503.345292 
L 741.892594 462.076 
L 744.599533 438.189994 
L 747.306471 441.916813 
L 752.720348 516.508019 
L 755.427287 536.424161 
L 758.134225 522.469591 
L 760.841164 490.552231 
L 763.548102 461.54628 
L 766.255041 458.279432 
L 771.668918 525.660075 
L 774.375856 547.843427 
L 777.082795 535.464827 
L 779.789733 503.931311 
L 782.496671 474.145219 
L 785.20361 463.172044 
L 787.910548 503.647632 
L 790.617487 540.990138 
L 793.324425 559.350138 
L 796.031364 547.615927 
L 801.445241 463.132347 
L 804.152179 451.353735 
L 809.566056 542.351828 
L 812.272995 561.487402 
L 814.979933 547.97566 
L 820.39381 461.559644 
L 823.100748 456.935732 
L 825.807687 502.535076 
L 828.514625 544.757813 
L 831.221564 563.571444 
L 833.928502 545.205534 
L 836.635441 500.958363 
L 839.342379 453.212243 
L 842.049318 435.629642 
L 847.463195 531.009696 
L 850.170133 550.059942 
L 852.877072 540.599215 
L 855.58401 491.530549 
L 858.290948 436.295748 
L 860.997887 429.011705 
L 863.704825 463.692283 
L 866.411764 528.81557 
L 869.118702 548.43078 
L 871.825641 538.016634 
L 874.532579 501.322334 
L 877.239518 438.724783 
L 879.946456 446.028983 
L 882.653395 480.797611 
L 885.360333 531.92074 
L 888.067272 558.311716 
L 890.77421 541.698681 
L 893.481149 517.305527 
L 896.188087 502.820798 
L 898.895025 509.784909 
L 901.601964 558.877321 
L 904.308902 586.174872 
L 907.015841 570.004619 
L 909.722779 525.924735 
L 912.429718 454.094828 
L 915.136656 404.273911 
L 917.843595 468.470394 
L 920.550533 557.102469 
L 923.257472 588.823636 
L 925.96441 574.709046 
L 928.671349 530.943578 
L 931.378287 419.355531 
L 934.085226 317.329157 
L 936.792164 384.41214 
L 939.499102 478.343671 
L 942.206041 553.333907 
L 944.912979 573.881563 
L 947.619918 557.986718 
L 950.326856 524.185439 
L 953.033795 472.067924 
L 955.740733 470.12542 
L 958.447672 530.61487 
L 961.15461 567.192653 
L 963.861549 578.326562 
L 966.568487 560.33804 
L 969.275426 505.350158 
L 971.982364 457.052159 
L 974.689303 456.979504 
L 977.396241 518.131834 
L 980.103179 567.415661 
L 982.810118 580.884834 
L 985.517056 564.70017 
L 988.223995 519.550073 
L 990.930933 459.717932 
L 993.637872 450.597444 
L 996.34481 516.297631 
L 999.051749 559.872294 
L 1001.758687 577.190355 
L 1004.465626 565.998299 
L 1009.879503 463.079719 
L 1012.586441 452.088799 
L 1018.000318 568.633422 
L 1020.707256 584.778464 
L 1023.414195 577.777541 
L 1026.121133 533.997812 
L 1028.828072 461.706577 
L 1031.53501 453.863813 
L 1034.241949 499.494588 
L 1036.948887 555.02914 
L 1039.655826 572.792957 
L 1042.362764 550.238293 
L 1045.069703 503.596551 
L 1047.776641 427.352329 
L 1050.48358 418.024278 
L 1050.48358 418.024278 
" style="fill:none;stroke:#348abd;stroke-dasharray:1.5,2.475;stroke-dashoffset:0;stroke-width:1.5;"/>
   </g>
   <g id="line2d_35">
    <path clip-path="url(#p5e0b83649b)" d="M 30.103125 513.773155 
L 1099.073125 513.773155 
" style="fill:none;stroke:#008000;stroke-linecap:square;stroke-opacity:0.5;stroke-width:1.5;"/>
   </g>
   <g id="patch_3">
    <path d="M 30.103125 616.52 
L 30.103125 7.2 
" style="fill:none;stroke:#ffffff;stroke-linecap:square;stroke-linejoin:miter;"/>
   </g>
   <g id="patch_4">
    <path d="M 1099.073125 616.52 
L 1099.073125 7.2 
" style="fill:none;stroke:#ffffff;stroke-linecap:square;stroke-linejoin:miter;"/>
   </g>
   <g id="patch_5">
    <path d="M 30.103125 616.52 
L 1099.073125 616.52 
" style="fill:none;stroke:#ffffff;stroke-linecap:square;stroke-linejoin:miter;"/>
   </g>
   <g id="patch_6">
    <path d="M 30.103125 7.2 
L 1099.073125 7.2 
" style="fill:none;stroke:#ffffff;stroke-linecap:square;stroke-linejoin:miter;"/>
   </g>
  </g>
  <g id="axes_2">
   <g id="matplotlib.axis_3">
    <g id="ytick_9">
     <g id="line2d_36">
      <path clip-path="url(#p5e0b83649b)" d="M 30.103125 589.00409 
L 1099.073125 589.00409 
" style="fill:none;stroke:#ffffff;stroke-linecap:square;stroke-width:0.8;"/>
     </g>
     <g id="line2d_37">
      <defs>
       <path d="M 0 0 
L 3.5 0 
" id="m150196c762" style="stroke:#555555;stroke-width:0.8;"/>
      </defs>
      <g>
       <use style="fill:#555555;stroke:#555555;stroke-width:0.8;" x="1099.073125" xlink:href="#m150196c762" y="589.00409"/>
      </g>
     </g>
     <g id="text_16">
      <!-- 0 -->
      <g style="fill:#555555;" transform="translate(1106.073125 592.803309)scale(0.1 -0.1)">
       <use xlink:href="#DejaVuSans-48"/>
      </g>
     </g>
    </g>
    <g id="ytick_10">
     <g id="line2d_38">
      <path clip-path="url(#p5e0b83649b)" d="M 30.103125 506.979676 
L 1099.073125 506.979676 
" style="fill:none;stroke:#ffffff;stroke-linecap:square;stroke-width:0.8;"/>
     </g>
     <g id="line2d_39">
      <g>
       <use style="fill:#555555;stroke:#555555;stroke-width:0.8;" x="1099.073125" xlink:href="#m150196c762" y="506.979676"/>
      </g>
     </g>
     <g id="text_17">
      <!-- 5000 -->
      <g style="fill:#555555;" transform="translate(1106.073125 510.778895)scale(0.1 -0.1)">
       <use xlink:href="#DejaVuSans-53"/>
       <use x="63.623047" xlink:href="#DejaVuSans-48"/>
       <use x="127.246094" xlink:href="#DejaVuSans-48"/>
       <use x="190.869141" xlink:href="#DejaVuSans-48"/>
      </g>
     </g>
    </g>
    <g id="ytick_11">
     <g id="line2d_40">
      <path clip-path="url(#p5e0b83649b)" d="M 30.103125 424.955262 
L 1099.073125 424.955262 
" style="fill:none;stroke:#ffffff;stroke-linecap:square;stroke-width:0.8;"/>
     </g>
     <g id="line2d_41">
      <g>
       <use style="fill:#555555;stroke:#555555;stroke-width:0.8;" x="1099.073125" xlink:href="#m150196c762" y="424.955262"/>
      </g>
     </g>
     <g id="text_18">
      <!-- 10000 -->
      <g style="fill:#555555;" transform="translate(1106.073125 428.754481)scale(0.1 -0.1)">
       <use xlink:href="#DejaVuSans-49"/>
       <use x="63.623047" xlink:href="#DejaVuSans-48"/>
       <use x="127.246094" xlink:href="#DejaVuSans-48"/>
       <use x="190.869141" xlink:href="#DejaVuSans-48"/>
       <use x="254.492188" xlink:href="#DejaVuSans-48"/>
      </g>
     </g>
    </g>
    <g id="ytick_12">
     <g id="line2d_42">
      <path clip-path="url(#p5e0b83649b)" d="M 30.103125 342.930848 
L 1099.073125 342.930848 
" style="fill:none;stroke:#ffffff;stroke-linecap:square;stroke-width:0.8;"/>
     </g>
     <g id="line2d_43">
      <g>
       <use style="fill:#555555;stroke:#555555;stroke-width:0.8;" x="1099.073125" xlink:href="#m150196c762" y="342.930848"/>
      </g>
     </g>
     <g id="text_19">
      <!-- 15000 -->
      <g style="fill:#555555;" transform="translate(1106.073125 346.730067)scale(0.1 -0.1)">
       <use xlink:href="#DejaVuSans-49"/>
       <use x="63.623047" xlink:href="#DejaVuSans-53"/>
       <use x="127.246094" xlink:href="#DejaVuSans-48"/>
       <use x="190.869141" xlink:href="#DejaVuSans-48"/>
       <use x="254.492188" xlink:href="#DejaVuSans-48"/>
      </g>
     </g>
    </g>
    <g id="ytick_13">
     <g id="line2d_44">
      <path clip-path="url(#p5e0b83649b)" d="M 30.103125 260.906434 
L 1099.073125 260.906434 
" style="fill:none;stroke:#ffffff;stroke-linecap:square;stroke-width:0.8;"/>
     </g>
     <g id="line2d_45">
      <g>
       <use style="fill:#555555;stroke:#555555;stroke-width:0.8;" x="1099.073125" xlink:href="#m150196c762" y="260.906434"/>
      </g>
     </g>
     <g id="text_20">
      <!-- 20000 -->
      <g style="fill:#555555;" transform="translate(1106.073125 264.705653)scale(0.1 -0.1)">
       <use xlink:href="#DejaVuSans-50"/>
       <use x="63.623047" xlink:href="#DejaVuSans-48"/>
       <use x="127.246094" xlink:href="#DejaVuSans-48"/>
       <use x="190.869141" xlink:href="#DejaVuSans-48"/>
       <use x="254.492188" xlink:href="#DejaVuSans-48"/>
      </g>
     </g>
    </g>
    <g id="ytick_14">
     <g id="line2d_46">
      <path clip-path="url(#p5e0b83649b)" d="M 30.103125 178.88202 
L 1099.073125 178.88202 
" style="fill:none;stroke:#ffffff;stroke-linecap:square;stroke-width:0.8;"/>
     </g>
     <g id="line2d_47">
      <g>
       <use style="fill:#555555;stroke:#555555;stroke-width:0.8;" x="1099.073125" xlink:href="#m150196c762" y="178.88202"/>
      </g>
     </g>
     <g id="text_21">
      <!-- 25000 -->
      <g style="fill:#555555;" transform="translate(1106.073125 182.681239)scale(0.1 -0.1)">
       <use xlink:href="#DejaVuSans-50"/>
       <use x="63.623047" xlink:href="#DejaVuSans-53"/>
       <use x="127.246094" xlink:href="#DejaVuSans-48"/>
       <use x="190.869141" xlink:href="#DejaVuSans-48"/>
       <use x="254.492188" xlink:href="#DejaVuSans-48"/>
      </g>
     </g>
    </g>
    <g id="ytick_15">
     <g id="line2d_48">
      <path clip-path="url(#p5e0b83649b)" d="M 30.103125 96.857606 
L 1099.073125 96.857606 
" style="fill:none;stroke:#ffffff;stroke-linecap:square;stroke-width:0.8;"/>
     </g>
     <g id="line2d_49">
      <g>
       <use style="fill:#555555;stroke:#555555;stroke-width:0.8;" x="1099.073125" xlink:href="#m150196c762" y="96.857606"/>
      </g>
     </g>
     <g id="text_22">
      <!-- 30000 -->
      <g style="fill:#555555;" transform="translate(1106.073125 100.656825)scale(0.1 -0.1)">
       <use xlink:href="#DejaVuSans-51"/>
       <use x="63.623047" xlink:href="#DejaVuSans-48"/>
       <use x="127.246094" xlink:href="#DejaVuSans-48"/>
       <use x="190.869141" xlink:href="#DejaVuSans-48"/>
       <use x="254.492188" xlink:href="#DejaVuSans-48"/>
      </g>
     </g>
    </g>
    <g id="ytick_16">
     <g id="line2d_50">
      <path clip-path="url(#p5e0b83649b)" d="M 30.103125 14.833192 
L 1099.073125 14.833192 
" style="fill:none;stroke:#ffffff;stroke-linecap:square;stroke-width:0.8;"/>
     </g>
     <g id="line2d_51">
      <g>
       <use style="fill:#555555;stroke:#555555;stroke-width:0.8;" x="1099.073125" xlink:href="#m150196c762" y="14.833192"/>
      </g>
     </g>
     <g id="text_23">
      <!-- 35000 -->
      <g style="fill:#555555;" transform="translate(1106.073125 18.632411)scale(0.1 -0.1)">
       <use xlink:href="#DejaVuSans-51"/>
       <use x="63.623047" xlink:href="#DejaVuSans-53"/>
       <use x="127.246094" xlink:href="#DejaVuSans-48"/>
       <use x="190.869141" xlink:href="#DejaVuSans-48"/>
       <use x="254.492188" xlink:href="#DejaVuSans-48"/>
      </g>
     </g>
    </g>
   </g>
   <g id="line2d_52">
    <path clip-path="url(#p5e0b83649b)" d="M 78.69267 588.134631 
L 81.399609 588.479134 
L 84.106547 588.309617 
L 89.520424 588.361019 
L 92.227363 588.287744 
L 94.934301 588.066668 
L 100.348178 587.290952 
L 103.055117 587.187835 
L 105.762055 586.698032 
L 108.468994 586.42618 
L 111.175932 585.945751 
L 113.882871 584.389631 
L 116.589809 583.325657 
L 119.296747 581.973426 
L 127.417563 575.27086 
L 130.124501 573.463979 
L 132.83144 568.779213 
L 135.538378 563.471062 
L 138.245317 558.849572 
L 140.952255 556.728655 
L 143.659194 549.960469 
L 146.366132 541.476801 
L 149.073071 534.268027 
L 151.780009 529.222354 
L 154.486947 522.608842 
L 157.193886 514.197824 
L 159.900824 509.470875 
L 162.607763 507.856166 
L 165.314701 508.205355 
L 168.02164 505.07671 
L 170.728578 502.259757 
L 173.435517 501.336396 
L 176.142455 501.83323 
L 178.849394 497.214084 
L 181.556332 499.731061 
L 184.263271 501.561378 
L 186.970209 504.959532 
L 189.677148 507.729614 
L 192.384086 509.723979 
L 195.091024 514.291567 
L 197.797963 521.59174 
L 200.504901 524.263392 
L 203.21184 528.3693 
L 205.918778 531.924472 
L 208.625717 536.864685 
L 211.332655 541.418212 
L 214.039594 542.646235 
L 216.746532 543.496945 
L 219.453471 545.282734 
L 224.867348 546.562315 
L 227.574286 547.766902 
L 230.281225 550.211229 
L 232.988163 553.853113 
L 241.108978 558.819106 
L 246.522855 563.053909 
L 249.229794 564.68971 
L 251.936732 567.291056 
L 254.643671 569.503372 
L 257.350609 570.297837 
L 260.057548 571.373528 
L 262.764486 572.210177 
L 265.471425 572.664827 
L 268.178363 573.672555 
L 270.885302 572.955428 
L 273.59224 573.250715 
L 276.299178 574.00534 
L 279.006117 573.424139 
L 281.713055 573.773328 
L 284.419994 574.595916 
L 287.126932 575.289608 
L 289.833871 576.768391 
L 292.540809 576.96525 
L 295.247748 577.000403 
L 297.954686 577.984696 
L 300.661625 577.987039 
L 303.368563 578.427628 
L 306.075502 579.489258 
L 308.78244 579.447074 
L 311.489378 579.803294 
L 316.903255 580.117331 
L 322.317132 582.05545 
L 325.024071 581.396912 
L 327.731009 581.162556 
L 330.437948 581.502372 
L 333.144886 581.399255 
L 335.851825 581.912494 
L 338.558763 581.959365 
L 341.265702 581.863279 
L 343.97264 582.411671 
L 346.679579 583.187387 
L 349.386517 583.152234 
L 352.093455 583.431117 
L 354.800394 583.11005 
L 357.507332 583.166295 
L 360.214271 582.788983 
L 362.921209 583.372528 
L 371.042025 583.688908 
L 379.16284 583.501424 
L 381.869779 582.301524 
L 384.576717 581.708604 
L 387.283656 580.67744 
L 389.990594 579.868914 
L 392.697532 579.57597 
L 395.404471 579.008829 
L 398.111409 578.891652 
L 400.818348 579.578313 
L 403.525286 579.376767 
L 406.232225 580.386839 
L 408.939163 581.031317 
L 411.646102 581.043035 
L 417.059979 581.624236 
L 419.766917 581.696887 
L 422.473856 582.317929 
L 427.887732 582.458542 
L 433.301609 582.873351 
L 441.422425 583.238946 
L 444.129363 583.217854 
L 446.836302 583.358467 
L 449.54324 583.306909 
L 452.250179 583.414712 
L 454.957117 583.199105 
L 460.370994 582.40464 
L 463.077933 582.512444 
L 473.905686 581.720322 
L 479.319563 580.586042 
L 487.440379 579.871257 
L 490.147317 579.33224 
L 492.854256 578.551836 
L 495.561194 578.422941 
L 498.268133 578.015162 
L 500.975071 578.167493 
L 503.68201 577.771432 
L 506.388948 577.194918 
L 509.095886 577.061335 
L 511.802825 576.726207 
L 514.509763 576.077042 
L 517.216702 575.685669 
L 519.92364 574.947449 
L 522.630579 575.118529 
L 525.337517 574.914639 
L 528.044456 573.778015 
L 530.751394 572.840593 
L 536.165271 571.446178 
L 538.87221 571.28213 
L 541.579148 570.989185 
L 544.286087 569.995518 
L 549.699963 568.715937 
L 552.406902 568.767495 
L 555.11384 567.316835 
L 560.527717 566.597364 
L 563.234656 566.859842 
L 565.941594 566.705167 
L 568.648533 567.173878 
L 571.355471 566.836406 
L 574.06241 568.137079 
L 576.769348 568.130048 
L 582.183225 568.507361 
L 584.890163 569.257298 
L 587.597102 569.716635 
L 593.010979 570.229873 
L 598.424856 569.276047 
L 601.131794 568.617508 
L 603.838733 568.804992 
L 606.545671 567.443387 
L 609.25261 567.370737 
L 611.959548 566.780161 
L 614.666487 566.873903 
L 617.373425 566.609081 
L 620.080364 566.824689 
L 622.787302 565.125611 
L 625.49424 564.417858 
L 628.201179 563.405442 
L 630.908117 561.842291 
L 633.615056 560.9119 
L 636.321994 560.923618 
L 639.028933 559.953386 
L 641.735871 560.262735 
L 644.44281 560.382257 
L 649.856687 559.334688 
L 652.563625 559.182357 
L 657.977502 557.921524 
L 660.684441 557.853561 
L 663.391379 557.009881 
L 666.098317 555.791233 
L 668.805256 555.659994 
L 671.512194 553.623445 
L 674.219133 553.17817 
L 676.926071 551.889215 
L 679.63301 549.475353 
L 682.339948 545.831126 
L 685.046887 541.511954 
L 687.753825 536.454563 
L 690.460764 533.632924 
L 693.167702 531.090167 
L 695.874641 527.614675 
L 698.581579 522.215125 
L 701.288518 516.168754 
L 703.995456 509.564617 
L 706.702394 502.278505 
L 709.409333 497.347666 
L 712.116271 492.993342 
L 714.82321 486.557941 
L 717.530148 480.785765 
L 720.237087 469.89058 
L 722.944025 460.731968 
L 725.650964 444.598937 
L 728.357902 431.50081 
L 733.771779 410.64083 
L 736.478718 393.371176 
L 739.185656 380.512091 
L 741.892594 363.078388 
L 744.599533 352.895643 
L 747.306471 345.862635 
L 750.01341 337.866426 
L 752.720348 328.62579 
L 755.427287 323.352792 
L 758.134225 315.81592 
L 760.841164 309.195378 
L 763.548102 299.024351 
L 766.255041 294.71221 
L 768.961979 291.74527 
L 771.668918 291.792141 
L 774.375856 288.808796 
L 777.082795 284.412288 
L 779.789733 279.64081 
L 782.496671 281.839064 
L 785.20361 279.659559 
L 787.910548 285.609844 
L 793.324425 289.919641 
L 796.031364 288.17838 
L 798.738302 287.929963 
L 801.445241 286.751155 
L 804.152179 289.577482 
L 806.859118 289.48374 
L 809.566056 291.510915 
L 812.272995 288.998624 
L 814.979933 289.797776 
L 817.686872 291.771049 
L 820.39381 294.74502 
L 823.100748 297.393237 
L 825.807687 296.678453 
L 828.514625 296.561275 
L 831.221564 299.75554 
L 833.928502 300.275809 
L 836.635441 298.768904 
L 839.342379 294.965314 
L 842.049318 287.569056 
L 844.756256 284.843502 
L 847.463195 283.788902 
L 850.170133 275.481001 
L 852.877072 271.653976 
L 855.58401 256.594293 
L 858.290948 244.595293 
L 860.997887 238.893425 
L 863.704825 229.448899 
L 866.411764 228.563036 
L 869.118702 212.362042 
L 871.825641 204.759551 
L 874.532579 195.615 
L 877.239518 188.907747 
L 879.946456 182.882468 
L 882.653395 182.223929 
L 885.360333 170.281174 
L 888.067272 177.283716 
L 890.77421 164.928495 
L 893.481149 184.24876 
L 896.188087 223.725939 
L 898.895025 244.855428 
L 901.601964 258.136352 
L 904.308902 273.688181 
L 907.015841 279.03383 
L 909.722779 278.19718 
L 912.429718 284.311515 
L 915.136656 288.447889 
L 917.843595 296.509717 
L 920.550533 299.15559 
L 923.257472 301.487427 
L 925.96441 304.351251 
L 928.671349 318.789891 
L 931.378287 297.873666 
L 934.085226 269.741635 
L 936.792164 254.154653 
L 939.499102 247.991104 
L 942.206041 245.870187 
L 944.912979 249.706586 
L 947.619918 252.582128 
L 950.326856 274.80137 
L 953.033795 288.900195 
L 955.740733 296.127717 
L 958.447672 308.632925 
L 961.15461 311.991239 
L 963.861549 320.488968 
L 966.568487 331.65835 
L 969.275426 342.218407 
L 971.982364 347.517185 
L 974.689303 351.325461 
L 977.396241 352.291005 
L 980.103179 363.908006 
L 985.517056 377.081127 
L 988.223995 386.080377 
L 990.930933 395.679577 
L 996.34481 400.802587 
L 999.051749 401.500967 
L 1001.758687 409.696377 
L 1004.465626 417.519163 
L 1007.172564 420.129883 
L 1009.879503 424.432649 
L 1012.586441 430.469646 
L 1015.293379 432.98428 
L 1018.000318 439.393902 
L 1020.707256 443.220927 
L 1023.414195 452.534214 
L 1026.121133 459.677368 
L 1028.828072 464.671483 
L 1031.53501 470.535057 
L 1034.241949 470.790505 
L 1036.948887 469.672629 
L 1039.655826 470.881903 
L 1042.362764 470.95221 
L 1045.069703 472.702845 
L 1047.776641 470.804566 
L 1050.48358 467.143934 
L 1050.48358 467.143934 
" style="fill:none;stroke:#000000;stroke-linecap:square;stroke-width:1.5;"/>
   </g>
   <g id="line2d_53">
    <path clip-path="url(#p5e0b83649b)" d="M 78.69267 588.134631 
L 81.399609 588.823636 
L 84.106547 587.970582 
L 86.813486 588.544753 
L 89.520424 588.33149 
L 92.227363 587.921368 
L 94.934301 586.740216 
L 97.64124 585.083323 
L 100.348178 586.444928 
L 103.055117 587.248768 
L 105.762055 585.116133 
L 108.468994 586.428523 
L 111.175932 584.558367 
L 113.882871 575.847374 
L 116.589809 577.635506 
L 119.296747 576.979311 
L 122.003686 571.893797 
L 124.710624 569.744758 
L 127.417563 570.236904 
L 130.124501 571.910202 
L 132.83144 543.054013 
L 135.538378 540.478447 
L 138.245317 544.628882 
L 140.952255 557.047378 
L 143.659194 522.367456 
L 146.366132 510.851228 
L 149.073071 521.448783 
L 154.486947 494.183867 
L 157.193886 485.751758 
L 159.900824 523.95873 
L 162.607763 511.064492 
L 165.314701 513.295556 
L 168.02164 499.548264 
L 170.728578 488.015632 
L 173.435517 487.720344 
L 176.142455 489.229593 
L 178.849394 491.624706 
L 181.556332 528.683336 
L 184.263271 526.107769 
L 186.970209 523.335344 
L 189.677148 507.406203 
L 192.384086 501.680899 
L 195.091024 521.202709 
L 197.797963 542.725916 
L 200.504901 547.384902 
L 203.21184 554.849124 
L 205.918778 548.221551 
L 208.625717 541.987696 
L 211.332655 533.555586 
L 214.039594 529.798868 
L 216.746532 548.680888 
L 219.453471 559.885423 
L 222.160409 559.721374 
L 224.867348 552.306367 
L 227.574286 550.419806 
L 230.281225 550.665879 
L 232.988163 555.292056 
L 235.695101 560.508809 
L 238.40204 572.303919 
L 241.108978 570.236904 
L 243.815917 567.612123 
L 246.522855 564.757673 
L 249.229794 562.116487 
L 251.936732 573.501476 
L 254.643671 575.995018 
L 257.350609 577.865175 
L 260.057548 577.766745 
L 262.764486 573.468666 
L 265.471425 567.940221 
L 268.178363 569.170587 
L 270.885302 568.481582 
L 273.59224 578.062033 
L 276.299178 583.147547 
L 279.006117 573.698334 
L 281.713055 575.912994 
L 284.419994 573.698334 
L 287.126932 574.026432 
L 289.833871 578.833063 
L 292.540809 579.440043 
L 295.247748 583.39362 
L 297.954686 580.588385 
L 300.661625 575.929398 
L 303.368563 576.782452 
L 306.075502 581.457844 
L 308.78244 578.537775 
L 311.489378 581.933586 
L 314.196317 584.263079 
L 316.903255 581.917181 
L 319.610194 583.065522 
L 322.317132 583.213166 
L 325.024071 576.848072 
L 327.731009 576.897287 
L 330.437948 584.312294 
L 333.144886 583.541264 
L 335.851825 585.50985 
L 338.558763 583.39362 
L 341.265702 582.540566 
L 343.97264 580.686814 
L 352.093455 585.493445 
L 354.800394 583.262381 
L 357.507332 583.787337 
L 360.214271 579.89938 
L 362.921209 584.77163 
L 365.628148 583.295191 
L 368.335086 584.952084 
L 371.042025 585.854353 
L 373.748963 582.803044 
L 376.455902 583.344406 
L 379.16284 579.489258 
L 381.869779 576.37233 
L 384.576717 579.144756 
L 387.283656 577.733936 
L 389.990594 580.194668 
L 392.697532 580.752434 
L 395.404471 579.374424 
L 398.111409 578.669014 
L 400.818348 581.178961 
L 403.525286 577.733936 
L 406.232225 584.80444 
L 408.939163 584.706011 
L 411.646102 580.834458 
L 414.35304 581.359415 
L 417.059979 580.752434 
L 419.766917 581.687512 
L 422.473856 582.08123 
L 425.180794 585.083323 
L 427.887732 585.411421 
L 430.594671 582.606186 
L 433.301609 582.491352 
L 436.008548 581.753132 
L 438.715486 582.524161 
L 441.422425 582.803044 
L 444.129363 584.935679 
L 446.836302 586.395714 
L 449.54324 582.245278 
L 452.250179 583.245976 
L 454.957117 580.243883 
L 457.664056 579.440043 
L 460.370994 580.325907 
L 463.077933 585.690304 
L 465.784871 584.919274 
L 468.491809 580.440741 
L 471.198748 581.556273 
L 473.905686 579.669712 
L 476.612625 575.634111 
L 479.319563 576.191877 
L 482.026502 584.000601 
L 484.73344 583.42643 
L 487.440379 578.619799 
L 490.147317 577.78315 
L 492.854256 574.206886 
L 495.561194 574.731842 
L 498.268133 573.337427 
L 500.975071 585.066918 
L 503.68201 580.654005 
L 506.388948 574.584198 
L 509.095886 576.848072 
L 511.802825 571.860988 
L 514.509763 570.187689 
L 517.216702 570.597812 
L 519.92364 579.89938 
L 522.630579 581.851561 
L 525.337517 573.156973 
L 528.044456 568.891704 
L 530.751394 565.299034 
L 533.458333 565.233415 
L 536.165271 565.791181 
L 538.87221 578.751038 
L 541.579148 579.800951 
L 544.286087 566.201303 
L 546.993025 564.232717 
L 549.699963 561.000955 
L 552.406902 565.594322 
L 555.11384 555.636558 
L 557.820779 576.175472 
L 560.527717 577.340218 
L 563.234656 568.03865 
L 565.941594 563.149995 
L 568.648533 564.281932 
L 571.355471 563.232019 
L 574.06241 564.741268 
L 576.769348 576.126257 
L 579.476287 578.997112 
L 582.183225 569.022943 
L 584.890163 568.399557 
L 587.597102 567.497289 
L 590.30404 565.167795 
L 593.010979 566.398162 
L 595.717917 572.796066 
L 598.424856 575.650515 
L 601.131794 564.413171 
L 603.838733 569.711948 
L 606.545671 557.966052 
L 609.25261 564.659244 
L 611.959548 562.264131 
L 614.666487 573.452261 
L 617.373425 573.796764 
L 622.787302 557.818408 
L 625.49424 553.011777 
L 628.201179 557.572335 
L 630.908117 551.322074 
L 633.615056 566.939523 
L 636.321994 573.878788 
L 639.028933 559.130798 
L 641.735871 559.983852 
L 644.44281 553.848426 
L 647.149748 553.684377 
L 649.856687 547.877049 
L 652.563625 565.873205 
L 655.270564 569.44947 
L 657.977502 554.73429 
L 660.684441 559.508111 
L 663.391379 547.942668 
L 666.098317 545.153838 
L 668.805256 546.958375 
L 671.512194 551.617362 
L 674.219133 566.332542 
L 676.926071 545.711604 
L 679.63301 542.611082 
L 682.339948 522.433076 
L 685.046887 514.919639 
L 687.753825 511.556638 
L 690.460764 531.865883 
L 693.167702 548.533244 
L 695.874641 521.383163 
L 698.581579 504.814232 
L 701.288518 480.108478 
L 703.995456 468.69068 
L 706.702394 460.553858 
L 709.409333 497.35001 
L 712.116271 518.052972 
L 714.82321 476.335355 
L 717.530148 464.409005 
L 720.237087 403.842178 
L 722.944025 404.580398 
L 725.650964 347.622645 
L 728.357902 405.66312 
L 731.064841 446.527683 
L 733.771779 401.840782 
L 736.478718 343.521424 
L 739.185656 313.828586 
L 741.892594 282.544474 
L 744.599533 276.343429 
L 747.306471 356.432067 
L 750.01341 390.554223 
L 752.720348 337.156329 
L 755.427287 306.610438 
L 758.134225 261.070483 
L 760.841164 236.200681 
L 763.548102 205.146237 
L 766.255041 326.247082 
L 768.961979 369.785641 
L 771.668918 337.484427 
L 774.375856 285.727022 
L 777.082795 230.294923 
L 779.789733 202.800339 
L 782.496671 220.534017 
L 785.20361 310.990541 
L 787.910548 411.437639 
L 790.617487 352.462085 
L 793.324425 300.917943 
L 796.031364 218.106095 
L 798.738302 201.061422 
L 801.445241 212.282361 
L 804.152179 330.77483 
L 806.859118 410.781443 
L 809.566056 366.652309 
L 812.272995 283.331909 
L 814.979933 223.70016 
L 817.686872 214.874333 
L 820.39381 233.100158 
L 823.100748 349.312347 
L 825.807687 405.777954 
L 828.514625 365.832064 
L 831.221564 305.691764 
L 833.928502 227.342044 
L 836.635441 204.325993 
L 839.342379 206.475033 
L 844.756256 386.699075 
L 847.463195 358.449867 
L 850.170133 247.536455 
L 852.877072 200.55287 
L 855.58401 98.908216 
L 858.290948 122.482033 
L 860.997887 257.625457 
L 863.704825 320.587398 
L 866.411764 352.248821 
L 869.118702 134.1295 
L 871.825641 147.33543 
L 874.532579 34.896364 
L 877.239518 75.531258 
L 879.946456 215.448504 
L 882.653395 315.977626 
L 885.360333 268.649539 
L 888.067272 183.14729 
L 890.77421 60.848888 
L 893.481149 170.138217 
L 896.188087 351.871509 
L 898.895025 363.354927 
L 901.601964 408.944096 
L 904.308902 377.512341 
L 907.015841 220.566827 
L 909.722779 54.992345 
L 912.429718 212.938557 
L 915.136656 380.826127 
L 917.843595 419.787724 
L 920.550533 427.465209 
L 923.257472 393.835199 
L 925.96441 240.613594 
L 928.671349 156.062828 
L 931.378287 66.524978 
L 934.085226 183.901914 
L 936.792164 310.678848 
L 939.499102 384.320367 
L 942.206041 378.98878 
L 944.912979 267.468387 
L 947.619918 176.191619 
L 950.326856 222.059672 
L 953.033795 282.593689 
L 955.740733 361.271507 
L 958.447672 471.856822 
L 961.15461 402.496977 
L 966.568487 254.377291 
L 969.275426 295.980073 
L 971.982364 319.685129 
L 974.689303 387.929442 
L 977.396241 478.615634 
L 980.103179 483.815982 
L 982.810118 372.426827 
L 985.517056 301.114802 
L 988.223995 358.974823 
L 990.930933 386.879529 
L 993.637872 405.400642 
L 996.34481 497.005507 
L 999.051749 488.704637 
L 1001.758687 429.794702 
L 1004.465626 355.874301 
L 1007.172564 377.249863 
L 1009.879503 416.998894 
L 1012.586441 447.65962 
L 1015.293379 514.607947 
L 1018.000318 533.571991 
L 1020.707256 456.583876 
L 1023.414195 421.067305 
L 1026.121133 427.251946 
L 1028.828072 451.957699 
L 1031.53501 488.704637 
L 1034.241949 516.396079 
L 1036.948887 525.746862 
L 1039.655826 465.048796 
L 1042.362764 421.559451 
L 1045.069703 439.506393 
L 1047.776641 438.669744 
L 1050.48358 463.08021 
L 1050.48358 463.08021 
" style="fill:none;stroke:#000000;stroke-dasharray:1.5,2.475;stroke-dashoffset:0;stroke-width:1.5;"/>
   </g>
   <g id="patch_7">
    <path d="M 30.103125 616.52 
L 30.103125 7.2 
" style="fill:none;stroke:#ffffff;stroke-linecap:square;stroke-linejoin:miter;"/>
   </g>
   <g id="patch_8">
    <path d="M 1099.073125 616.52 
L 1099.073125 7.2 
" style="fill:none;stroke:#ffffff;stroke-linecap:square;stroke-linejoin:miter;"/>
   </g>
   <g id="patch_9">
    <path d="M 30.103125 616.52 
L 1099.073125 616.52 
" style="fill:none;stroke:#ffffff;stroke-linecap:square;stroke-linejoin:miter;"/>
   </g>
   <g id="patch_10">
    <path d="M 30.103125 7.2 
L 1099.073125 7.2 
" style="fill:none;stroke:#ffffff;stroke-linecap:square;stroke-linejoin:miter;"/>
   </g>
   <g id="legend_1">
    <g id="patch_11">
     <path d="M 934.877812 103.26875 
L 1092.073125 103.26875 
Q 1094.073125 103.26875 1094.073125 101.26875 
L 1094.073125 14.2 
Q 1094.073125 12.2 1092.073125 12.2 
L 934.877812 12.2 
Q 932.877812 12.2 932.877812 14.2 
L 932.877812 101.26875 
Q 932.877812 103.26875 934.877812 103.26875 
z
" style="fill:#e5e5e5;opacity:0.8;stroke:#cccccc;stroke-linejoin:miter;stroke-width:0.5;"/>
    </g>
    <g id="line2d_54">
     <path d="M 936.877812 20.298437 
L 956.877812 20.298437 
" style="fill:none;stroke:#e24a33;stroke-linecap:square;stroke-width:1.5;"/>
    </g>
    <g id="line2d_55"/>
    <g id="text_24">
     <!-- Logistic rate rolling week -->
     <g transform="translate(964.877812 23.798437)scale(0.1 -0.1)">
      <defs>
       <path d="M 9.8125 72.90625 
L 19.671875 72.90625 
L 19.671875 8.296875 
L 55.171875 8.296875 
L 55.171875 0 
L 9.8125 0 
z
" id="DejaVuSans-76"/>
       <path d="M 30.609375 48.390625 
Q 23.390625 48.390625 19.1875 42.75 
Q 14.984375 37.109375 14.984375 27.296875 
Q 14.984375 17.484375 19.15625 11.84375 
Q 23.34375 6.203125 30.609375 6.203125 
Q 37.796875 6.203125 41.984375 11.859375 
Q 46.1875 17.53125 46.1875 27.296875 
Q 46.1875 37.015625 41.984375 42.703125 
Q 37.796875 48.390625 30.609375 48.390625 
z
M 30.609375 56 
Q 42.328125 56 49.015625 48.375 
Q 55.71875 40.765625 55.71875 27.296875 
Q 55.71875 13.875 49.015625 6.21875 
Q 42.328125 -1.421875 30.609375 -1.421875 
Q 18.84375 -1.421875 12.171875 6.21875 
Q 5.515625 13.875 5.515625 27.296875 
Q 5.515625 40.765625 12.171875 48.375 
Q 18.84375 56 30.609375 56 
z
" id="DejaVuSans-111"/>
       <path d="M 45.40625 27.984375 
Q 45.40625 37.75 41.375 43.109375 
Q 37.359375 48.484375 30.078125 48.484375 
Q 22.859375 48.484375 18.828125 43.109375 
Q 14.796875 37.75 14.796875 27.984375 
Q 14.796875 18.265625 18.828125 12.890625 
Q 22.859375 7.515625 30.078125 7.515625 
Q 37.359375 7.515625 41.375 12.890625 
Q 45.40625 18.265625 45.40625 27.984375 
z
M 54.390625 6.78125 
Q 54.390625 -7.171875 48.1875 -13.984375 
Q 42 -20.796875 29.203125 -20.796875 
Q 24.46875 -20.796875 20.265625 -20.09375 
Q 16.0625 -19.390625 12.109375 -17.921875 
L 12.109375 -9.1875 
Q 16.0625 -11.328125 19.921875 -12.34375 
Q 23.78125 -13.375 27.78125 -13.375 
Q 36.625 -13.375 41.015625 -8.765625 
Q 45.40625 -4.15625 45.40625 5.171875 
L 45.40625 9.625 
Q 42.625 4.78125 38.28125 2.390625 
Q 33.9375 0 27.875 0 
Q 17.828125 0 11.671875 7.65625 
Q 5.515625 15.328125 5.515625 27.984375 
Q 5.515625 40.671875 11.671875 48.328125 
Q 17.828125 56 27.875 56 
Q 33.9375 56 38.28125 53.609375 
Q 42.625 51.21875 45.40625 46.390625 
L 45.40625 54.6875 
L 54.390625 54.6875 
z
" id="DejaVuSans-103"/>
       <path d="M 9.421875 54.6875 
L 18.40625 54.6875 
L 18.40625 0 
L 9.421875 0 
z
M 9.421875 75.984375 
L 18.40625 75.984375 
L 18.40625 64.59375 
L 9.421875 64.59375 
z
" id="DejaVuSans-105"/>
       <path d="M 44.28125 53.078125 
L 44.28125 44.578125 
Q 40.484375 46.53125 36.375 47.5 
Q 32.28125 48.484375 27.875 48.484375 
Q 21.1875 48.484375 17.84375 46.4375 
Q 14.5 44.390625 14.5 40.28125 
Q 14.5 37.15625 16.890625 35.375 
Q 19.28125 33.59375 26.515625 31.984375 
L 29.59375 31.296875 
Q 39.15625 29.25 43.1875 25.515625 
Q 47.21875 21.78125 47.21875 15.09375 
Q 47.21875 7.46875 41.1875 3.015625 
Q 35.15625 -1.421875 24.609375 -1.421875 
Q 20.21875 -1.421875 15.453125 -0.5625 
Q 10.6875 0.296875 5.421875 2 
L 5.421875 11.28125 
Q 10.40625 8.6875 15.234375 7.390625 
Q 20.0625 6.109375 24.8125 6.109375 
Q 31.15625 6.109375 34.5625 8.28125 
Q 37.984375 10.453125 37.984375 14.40625 
Q 37.984375 18.0625 35.515625 20.015625 
Q 33.0625 21.96875 24.703125 23.78125 
L 21.578125 24.515625 
Q 13.234375 26.265625 9.515625 29.90625 
Q 5.8125 33.546875 5.8125 39.890625 
Q 5.8125 47.609375 11.28125 51.796875 
Q 16.75 56 26.8125 56 
Q 31.78125 56 36.171875 55.265625 
Q 40.578125 54.546875 44.28125 53.078125 
z
" id="DejaVuSans-115"/>
       <path d="M 18.3125 70.21875 
L 18.3125 54.6875 
L 36.8125 54.6875 
L 36.8125 47.703125 
L 18.3125 47.703125 
L 18.3125 18.015625 
Q 18.3125 11.328125 20.140625 9.421875 
Q 21.96875 7.515625 27.59375 7.515625 
L 36.8125 7.515625 
L 36.8125 0 
L 27.59375 0 
Q 17.1875 0 13.234375 3.875 
Q 9.28125 7.765625 9.28125 18.015625 
L 9.28125 47.703125 
L 2.6875 47.703125 
L 2.6875 54.6875 
L 9.28125 54.6875 
L 9.28125 70.21875 
z
" id="DejaVuSans-116"/>
       <path d="M 48.78125 52.59375 
L 48.78125 44.1875 
Q 44.96875 46.296875 41.140625 47.34375 
Q 37.3125 48.390625 33.40625 48.390625 
Q 24.65625 48.390625 19.8125 42.84375 
Q 14.984375 37.3125 14.984375 27.296875 
Q 14.984375 17.28125 19.8125 11.734375 
Q 24.65625 6.203125 33.40625 6.203125 
Q 37.3125 6.203125 41.140625 7.25 
Q 44.96875 8.296875 48.78125 10.40625 
L 48.78125 2.09375 
Q 45.015625 0.34375 40.984375 -0.53125 
Q 36.96875 -1.421875 32.421875 -1.421875 
Q 20.0625 -1.421875 12.78125 6.34375 
Q 5.515625 14.109375 5.515625 27.296875 
Q 5.515625 40.671875 12.859375 48.328125 
Q 20.21875 56 33.015625 56 
Q 37.15625 56 41.109375 55.140625 
Q 45.0625 54.296875 48.78125 52.59375 
z
" id="DejaVuSans-99"/>
       <path id="DejaVuSans-32"/>
       <path d="M 41.109375 46.296875 
Q 39.59375 47.171875 37.8125 47.578125 
Q 36.03125 48 33.890625 48 
Q 26.265625 48 22.1875 43.046875 
Q 18.109375 38.09375 18.109375 28.8125 
L 18.109375 0 
L 9.078125 0 
L 9.078125 54.6875 
L 18.109375 54.6875 
L 18.109375 46.1875 
Q 20.953125 51.171875 25.484375 53.578125 
Q 30.03125 56 36.53125 56 
Q 37.453125 56 38.578125 55.875 
Q 39.703125 55.765625 41.0625 55.515625 
z
" id="DejaVuSans-114"/>
       <path d="M 34.28125 27.484375 
Q 23.390625 27.484375 19.1875 25 
Q 14.984375 22.515625 14.984375 16.5 
Q 14.984375 11.71875 18.140625 8.90625 
Q 21.296875 6.109375 26.703125 6.109375 
Q 34.1875 6.109375 38.703125 11.40625 
Q 43.21875 16.703125 43.21875 25.484375 
L 43.21875 27.484375 
z
M 52.203125 31.203125 
L 52.203125 0 
L 43.21875 0 
L 43.21875 8.296875 
Q 40.140625 3.328125 35.546875 0.953125 
Q 30.953125 -1.421875 24.3125 -1.421875 
Q 15.921875 -1.421875 10.953125 3.296875 
Q 6 8.015625 6 15.921875 
Q 6 25.140625 12.171875 29.828125 
Q 18.359375 34.515625 30.609375 34.515625 
L 43.21875 34.515625 
L 43.21875 35.40625 
Q 43.21875 41.609375 39.140625 45 
Q 35.0625 48.390625 27.6875 48.390625 
Q 23 48.390625 18.546875 47.265625 
Q 14.109375 46.140625 10.015625 43.890625 
L 10.015625 52.203125 
Q 14.9375 54.109375 19.578125 55.046875 
Q 24.21875 56 28.609375 56 
Q 40.484375 56 46.34375 49.84375 
Q 52.203125 43.703125 52.203125 31.203125 
z
" id="DejaVuSans-97"/>
       <path d="M 56.203125 29.59375 
L 56.203125 25.203125 
L 14.890625 25.203125 
Q 15.484375 15.921875 20.484375 11.0625 
Q 25.484375 6.203125 34.421875 6.203125 
Q 39.59375 6.203125 44.453125 7.46875 
Q 49.3125 8.734375 54.109375 11.28125 
L 54.109375 2.78125 
Q 49.265625 0.734375 44.1875 -0.34375 
Q 39.109375 -1.421875 33.890625 -1.421875 
Q 20.796875 -1.421875 13.15625 6.1875 
Q 5.515625 13.8125 5.515625 26.8125 
Q 5.515625 40.234375 12.765625 48.109375 
Q 20.015625 56 32.328125 56 
Q 43.359375 56 49.78125 48.890625 
Q 56.203125 41.796875 56.203125 29.59375 
z
M 47.21875 32.234375 
Q 47.125 39.59375 43.09375 43.984375 
Q 39.0625 48.390625 32.421875 48.390625 
Q 24.90625 48.390625 20.390625 44.140625 
Q 15.875 39.890625 15.1875 32.171875 
z
" id="DejaVuSans-101"/>
       <path d="M 9.421875 75.984375 
L 18.40625 75.984375 
L 18.40625 0 
L 9.421875 0 
z
" id="DejaVuSans-108"/>
       <path d="M 54.890625 33.015625 
L 54.890625 0 
L 45.90625 0 
L 45.90625 32.71875 
Q 45.90625 40.484375 42.875 44.328125 
Q 39.84375 48.1875 33.796875 48.1875 
Q 26.515625 48.1875 22.3125 43.546875 
Q 18.109375 38.921875 18.109375 30.90625 
L 18.109375 0 
L 9.078125 0 
L 9.078125 54.6875 
L 18.109375 54.6875 
L 18.109375 46.1875 
Q 21.34375 51.125 25.703125 53.5625 
Q 30.078125 56 35.796875 56 
Q 45.21875 56 50.046875 50.171875 
Q 54.890625 44.34375 54.890625 33.015625 
z
" id="DejaVuSans-110"/>
       <path d="M 4.203125 54.6875 
L 13.1875 54.6875 
L 24.421875 12.015625 
L 35.59375 54.6875 
L 46.1875 54.6875 
L 57.421875 12.015625 
L 68.609375 54.6875 
L 77.59375 54.6875 
L 63.28125 0 
L 52.6875 0 
L 40.921875 44.828125 
L 29.109375 0 
L 18.5 0 
z
" id="DejaVuSans-119"/>
       <path d="M 9.078125 75.984375 
L 18.109375 75.984375 
L 18.109375 31.109375 
L 44.921875 54.6875 
L 56.390625 54.6875 
L 27.390625 29.109375 
L 57.625 0 
L 45.90625 0 
L 18.109375 26.703125 
L 18.109375 0 
L 9.078125 0 
z
" id="DejaVuSans-107"/>
      </defs>
      <use xlink:href="#DejaVuSans-76"/>
      <use x="53.962891" xlink:href="#DejaVuSans-111"/>
      <use x="115.144531" xlink:href="#DejaVuSans-103"/>
      <use x="178.621094" xlink:href="#DejaVuSans-105"/>
      <use x="206.404297" xlink:href="#DejaVuSans-115"/>
      <use x="258.503906" xlink:href="#DejaVuSans-116"/>
      <use x="297.712891" xlink:href="#DejaVuSans-105"/>
      <use x="325.496094" xlink:href="#DejaVuSans-99"/>
      <use x="380.476562" xlink:href="#DejaVuSans-32"/>
      <use x="412.263672" xlink:href="#DejaVuSans-114"/>
      <use x="453.376953" xlink:href="#DejaVuSans-97"/>
      <use x="514.65625" xlink:href="#DejaVuSans-116"/>
      <use x="553.865234" xlink:href="#DejaVuSans-101"/>
      <use x="615.388672" xlink:href="#DejaVuSans-32"/>
      <use x="647.175781" xlink:href="#DejaVuSans-114"/>
      <use x="686.039062" xlink:href="#DejaVuSans-111"/>
      <use x="747.220703" xlink:href="#DejaVuSans-108"/>
      <use x="775.003906" xlink:href="#DejaVuSans-108"/>
      <use x="802.787109" xlink:href="#DejaVuSans-105"/>
      <use x="830.570312" xlink:href="#DejaVuSans-110"/>
      <use x="893.949219" xlink:href="#DejaVuSans-103"/>
      <use x="957.425781" xlink:href="#DejaVuSans-32"/>
      <use x="989.212891" xlink:href="#DejaVuSans-119"/>
      <use x="1071" xlink:href="#DejaVuSans-101"/>
      <use x="1132.523438" xlink:href="#DejaVuSans-101"/>
      <use x="1194.046875" xlink:href="#DejaVuSans-107"/>
     </g>
    </g>
    <g id="line2d_56">
     <path d="M 936.877812 34.976562 
L 956.877812 34.976562 
" style="fill:none;stroke:#e24a33;stroke-dasharray:1.5,2.475;stroke-dashoffset:0;stroke-width:1.5;"/>
    </g>
    <g id="line2d_57"/>
    <g id="text_25">
     <!-- Logistic rate -->
     <g transform="translate(964.877812 38.476562)scale(0.1 -0.1)">
      <use xlink:href="#DejaVuSans-76"/>
      <use x="53.962891" xlink:href="#DejaVuSans-111"/>
      <use x="115.144531" xlink:href="#DejaVuSans-103"/>
      <use x="178.621094" xlink:href="#DejaVuSans-105"/>
      <use x="206.404297" xlink:href="#DejaVuSans-115"/>
      <use x="258.503906" xlink:href="#DejaVuSans-116"/>
      <use x="297.712891" xlink:href="#DejaVuSans-105"/>
      <use x="325.496094" xlink:href="#DejaVuSans-99"/>
      <use x="380.476562" xlink:href="#DejaVuSans-32"/>
      <use x="412.263672" xlink:href="#DejaVuSans-114"/>
      <use x="453.376953" xlink:href="#DejaVuSans-97"/>
      <use x="514.65625" xlink:href="#DejaVuSans-116"/>
      <use x="553.865234" xlink:href="#DejaVuSans-101"/>
     </g>
    </g>
    <g id="line2d_58">
     <path d="M 936.877812 49.654687 
L 956.877812 49.654687 
" style="fill:none;stroke:#348abd;stroke-linecap:square;stroke-width:1.5;"/>
    </g>
    <g id="line2d_59"/>
    <g id="text_26">
     <!-- RKI rate rolling week -->
     <g transform="translate(964.877812 53.154687)scale(0.1 -0.1)">
      <defs>
       <path d="M 44.390625 34.1875 
Q 47.5625 33.109375 50.5625 29.59375 
Q 53.5625 26.078125 56.59375 19.921875 
L 66.609375 0 
L 56 0 
L 46.6875 18.703125 
Q 43.0625 26.03125 39.671875 28.421875 
Q 36.28125 30.8125 30.421875 30.8125 
L 19.671875 30.8125 
L 19.671875 0 
L 9.8125 0 
L 9.8125 72.90625 
L 32.078125 72.90625 
Q 44.578125 72.90625 50.734375 67.671875 
Q 56.890625 62.453125 56.890625 51.90625 
Q 56.890625 45.015625 53.6875 40.46875 
Q 50.484375 35.9375 44.390625 34.1875 
z
M 19.671875 64.796875 
L 19.671875 38.921875 
L 32.078125 38.921875 
Q 39.203125 38.921875 42.84375 42.21875 
Q 46.484375 45.515625 46.484375 51.90625 
Q 46.484375 58.296875 42.84375 61.546875 
Q 39.203125 64.796875 32.078125 64.796875 
z
" id="DejaVuSans-82"/>
       <path d="M 9.8125 72.90625 
L 19.671875 72.90625 
L 19.671875 42.09375 
L 52.390625 72.90625 
L 65.09375 72.90625 
L 28.90625 38.921875 
L 67.671875 0 
L 54.6875 0 
L 19.671875 35.109375 
L 19.671875 0 
L 9.8125 0 
z
" id="DejaVuSans-75"/>
       <path d="M 9.8125 72.90625 
L 19.671875 72.90625 
L 19.671875 0 
L 9.8125 0 
z
" id="DejaVuSans-73"/>
      </defs>
      <use xlink:href="#DejaVuSans-82"/>
      <use x="69.482422" xlink:href="#DejaVuSans-75"/>
      <use x="135.058594" xlink:href="#DejaVuSans-73"/>
      <use x="164.550781" xlink:href="#DejaVuSans-32"/>
      <use x="196.337891" xlink:href="#DejaVuSans-114"/>
      <use x="237.451172" xlink:href="#DejaVuSans-97"/>
      <use x="298.730469" xlink:href="#DejaVuSans-116"/>
      <use x="337.939453" xlink:href="#DejaVuSans-101"/>
      <use x="399.462891" xlink:href="#DejaVuSans-32"/>
      <use x="431.25" xlink:href="#DejaVuSans-114"/>
      <use x="470.113281" xlink:href="#DejaVuSans-111"/>
      <use x="531.294922" xlink:href="#DejaVuSans-108"/>
      <use x="559.078125" xlink:href="#DejaVuSans-108"/>
      <use x="586.861328" xlink:href="#DejaVuSans-105"/>
      <use x="614.644531" xlink:href="#DejaVuSans-110"/>
      <use x="678.023438" xlink:href="#DejaVuSans-103"/>
      <use x="741.5" xlink:href="#DejaVuSans-32"/>
      <use x="773.287109" xlink:href="#DejaVuSans-119"/>
      <use x="855.074219" xlink:href="#DejaVuSans-101"/>
      <use x="916.597656" xlink:href="#DejaVuSans-101"/>
      <use x="978.121094" xlink:href="#DejaVuSans-107"/>
     </g>
    </g>
    <g id="line2d_60">
     <path d="M 936.877812 64.332812 
L 956.877812 64.332812 
" style="fill:none;stroke:#348abd;stroke-dasharray:1.5,2.475;stroke-dashoffset:0;stroke-width:1.5;"/>
    </g>
    <g id="line2d_61"/>
    <g id="text_27">
     <!-- RKI rate -->
     <g transform="translate(964.877812 67.832812)scale(0.1 -0.1)">
      <use xlink:href="#DejaVuSans-82"/>
      <use x="69.482422" xlink:href="#DejaVuSans-75"/>
      <use x="135.058594" xlink:href="#DejaVuSans-73"/>
      <use x="164.550781" xlink:href="#DejaVuSans-32"/>
      <use x="196.337891" xlink:href="#DejaVuSans-114"/>
      <use x="237.451172" xlink:href="#DejaVuSans-97"/>
      <use x="298.730469" xlink:href="#DejaVuSans-116"/>
      <use x="337.939453" xlink:href="#DejaVuSans-101"/>
     </g>
    </g>
    <g id="line2d_62">
     <path d="M 936.877812 79.010937 
L 956.877812 79.010937 
" style="fill:none;stroke:#000000;stroke-linecap:square;stroke-width:1.5;"/>
    </g>
    <g id="line2d_63"/>
    <g id="text_28">
     <!-- New Cases rolling week -->
     <g transform="translate(964.877812 82.510937)scale(0.1 -0.1)">
      <defs>
       <path d="M 9.8125 72.90625 
L 23.09375 72.90625 
L 55.421875 11.921875 
L 55.421875 72.90625 
L 64.984375 72.90625 
L 64.984375 0 
L 51.703125 0 
L 19.390625 60.984375 
L 19.390625 0 
L 9.8125 0 
z
" id="DejaVuSans-78"/>
       <path d="M 64.40625 67.28125 
L 64.40625 56.890625 
Q 59.421875 61.53125 53.78125 63.8125 
Q 48.140625 66.109375 41.796875 66.109375 
Q 29.296875 66.109375 22.65625 58.46875 
Q 16.015625 50.828125 16.015625 36.375 
Q 16.015625 21.96875 22.65625 14.328125 
Q 29.296875 6.6875 41.796875 6.6875 
Q 48.140625 6.6875 53.78125 8.984375 
Q 59.421875 11.28125 64.40625 15.921875 
L 64.40625 5.609375 
Q 59.234375 2.09375 53.4375 0.328125 
Q 47.65625 -1.421875 41.21875 -1.421875 
Q 24.65625 -1.421875 15.125 8.703125 
Q 5.609375 18.84375 5.609375 36.375 
Q 5.609375 53.953125 15.125 64.078125 
Q 24.65625 74.21875 41.21875 74.21875 
Q 47.75 74.21875 53.53125 72.484375 
Q 59.328125 70.75 64.40625 67.28125 
z
" id="DejaVuSans-67"/>
      </defs>
      <use xlink:href="#DejaVuSans-78"/>
      <use x="74.804688" xlink:href="#DejaVuSans-101"/>
      <use x="136.328125" xlink:href="#DejaVuSans-119"/>
      <use x="218.115234" xlink:href="#DejaVuSans-32"/>
      <use x="249.902344" xlink:href="#DejaVuSans-67"/>
      <use x="319.726562" xlink:href="#DejaVuSans-97"/>
      <use x="381.005859" xlink:href="#DejaVuSans-115"/>
      <use x="433.105469" xlink:href="#DejaVuSans-101"/>
      <use x="494.628906" xlink:href="#DejaVuSans-115"/>
      <use x="546.728516" xlink:href="#DejaVuSans-32"/>
      <use x="578.515625" xlink:href="#DejaVuSans-114"/>
      <use x="617.378906" xlink:href="#DejaVuSans-111"/>
      <use x="678.560547" xlink:href="#DejaVuSans-108"/>
      <use x="706.34375" xlink:href="#DejaVuSans-108"/>
      <use x="734.126953" xlink:href="#DejaVuSans-105"/>
      <use x="761.910156" xlink:href="#DejaVuSans-110"/>
      <use x="825.289062" xlink:href="#DejaVuSans-103"/>
      <use x="888.765625" xlink:href="#DejaVuSans-32"/>
      <use x="920.552734" xlink:href="#DejaVuSans-119"/>
      <use x="1002.339844" xlink:href="#DejaVuSans-101"/>
      <use x="1063.863281" xlink:href="#DejaVuSans-101"/>
      <use x="1125.386719" xlink:href="#DejaVuSans-107"/>
     </g>
    </g>
    <g id="line2d_64">
     <path d="M 936.877812 93.689062 
L 956.877812 93.689062 
" style="fill:none;stroke:#000000;stroke-dasharray:1.5,2.475;stroke-dashoffset:0;stroke-width:1.5;"/>
    </g>
    <g id="line2d_65"/>
    <g id="text_29">
     <!-- New Cases -->
     <g transform="translate(964.877812 97.189062)scale(0.1 -0.1)">
      <use xlink:href="#DejaVuSans-78"/>
      <use x="74.804688" xlink:href="#DejaVuSans-101"/>
      <use x="136.328125" xlink:href="#DejaVuSans-119"/>
      <use x="218.115234" xlink:href="#DejaVuSans-32"/>
      <use x="249.902344" xlink:href="#DejaVuSans-67"/>
      <use x="319.726562" xlink:href="#DejaVuSans-97"/>
      <use x="381.005859" xlink:href="#DejaVuSans-115"/>
      <use x="433.105469" xlink:href="#DejaVuSans-101"/>
      <use x="494.628906" xlink:href="#DejaVuSans-115"/>
     </g>
    </g>
   </g>
  </g>
 </g>
 <defs>
  <clipPath id="p5e0b83649b">
   <rect height="609.32" width="1068.97" x="30.103125" y="7.2"/>
  </clipPath>
 </defs>
</svg>
