<?xml version="1.0" encoding="utf-8" standalone="no"?>
<!DOCTYPE svg PUBLIC "-//W3C//DTD SVG 1.1//EN"
  "http://www.w3.org/Graphics/SVG/1.1/DTD/svg11.dtd">
<!-- Created with matplotlib (https://matplotlib.org/) -->
<svg height="640.398125pt" version="1.1" viewBox="0 0 1145.085625 640.398125" width="1145.085625pt" xmlns="http://www.w3.org/2000/svg" xmlns:xlink="http://www.w3.org/1999/xlink">
 <metadata>
  <rdf:RDF xmlns:cc="http://creativecommons.org/ns#" xmlns:dc="http://purl.org/dc/elements/1.1/" xmlns:rdf="http://www.w3.org/1999/02/22-rdf-syntax-ns#">
   <cc:Work>
    <dc:type rdf:resource="http://purl.org/dc/dcmitype/StillImage"/>
    <dc:date>2021-01-05T09:01:32.192650</dc:date>
    <dc:format>image/svg+xml</dc:format>
    <dc:creator>
     <cc:Agent>
      <dc:title>Matplotlib v3.3.2, https://matplotlib.org/</dc:title>
     </cc:Agent>
    </dc:creator>
   </cc:Work>
  </rdf:RDF>
 </metadata>
 <defs>
  <style type="text/css">*{stroke-linecap:butt;stroke-linejoin:round;}</style>
 </defs>
 <g id="figure_1">
  <g id="patch_1">
   <path d="M 0 640.398125 
L 1145.085625 640.398125 
L 1145.085625 0 
L 0 0 
z
" style="fill:#ffffff;"/>
  </g>
  <g id="axes_1">
   <g id="patch_2">
    <path d="M 30.103125 616.52 
L 1099.073125 616.52 
L 1099.073125 7.2 
L 30.103125 7.2 
z
" style="fill:#e5e5e5;"/>
   </g>
   <g id="matplotlib.axis_1">
    <g id="xtick_1">
     <g id="line2d_1">
      <path clip-path="url(#pb834bfefc9)" d="M 84.922099 616.52 
L 84.922099 7.2 
" style="fill:none;stroke:#ffffff;stroke-linecap:square;stroke-width:0.8;"/>
     </g>
     <g id="line2d_2">
      <defs>
       <path d="M 0 0 
L 0 3.5 
" id="ma39e46213b" style="stroke:#555555;stroke-width:0.8;"/>
      </defs>
      <g>
       <use style="fill:#555555;stroke:#555555;stroke-width:0.8;" x="84.922099" xlink:href="#ma39e46213b" y="616.52"/>
      </g>
     </g>
     <g id="text_1">
      <!-- 2020-03 -->
      <g style="fill:#555555;" transform="translate(64.030693 631.118437)scale(0.1 -0.1)">
       <defs>
        <path d="M 19.1875 8.296875 
L 53.609375 8.296875 
L 53.609375 0 
L 7.328125 0 
L 7.328125 8.296875 
Q 12.9375 14.109375 22.625 23.890625 
Q 32.328125 33.6875 34.8125 36.53125 
Q 39.546875 41.84375 41.421875 45.53125 
Q 43.3125 49.21875 43.3125 52.78125 
Q 43.3125 58.59375 39.234375 62.25 
Q 35.15625 65.921875 28.609375 65.921875 
Q 23.96875 65.921875 18.8125 64.3125 
Q 13.671875 62.703125 7.8125 59.421875 
L 7.8125 69.390625 
Q 13.765625 71.78125 18.9375 73 
Q 24.125 74.21875 28.421875 74.21875 
Q 39.75 74.21875 46.484375 68.546875 
Q 53.21875 62.890625 53.21875 53.421875 
Q 53.21875 48.921875 51.53125 44.890625 
Q 49.859375 40.875 45.40625 35.40625 
Q 44.1875 33.984375 37.640625 27.21875 
Q 31.109375 20.453125 19.1875 8.296875 
z
" id="DejaVuSans-50"/>
        <path d="M 31.78125 66.40625 
Q 24.171875 66.40625 20.328125 58.90625 
Q 16.5 51.421875 16.5 36.375 
Q 16.5 21.390625 20.328125 13.890625 
Q 24.171875 6.390625 31.78125 6.390625 
Q 39.453125 6.390625 43.28125 13.890625 
Q 47.125 21.390625 47.125 36.375 
Q 47.125 51.421875 43.28125 58.90625 
Q 39.453125 66.40625 31.78125 66.40625 
z
M 31.78125 74.21875 
Q 44.046875 74.21875 50.515625 64.515625 
Q 56.984375 54.828125 56.984375 36.375 
Q 56.984375 17.96875 50.515625 8.265625 
Q 44.046875 -1.421875 31.78125 -1.421875 
Q 19.53125 -1.421875 13.0625 8.265625 
Q 6.59375 17.96875 6.59375 36.375 
Q 6.59375 54.828125 13.0625 64.515625 
Q 19.53125 74.21875 31.78125 74.21875 
z
" id="DejaVuSans-48"/>
        <path d="M 4.890625 31.390625 
L 31.203125 31.390625 
L 31.203125 23.390625 
L 4.890625 23.390625 
z
" id="DejaVuSans-45"/>
        <path d="M 40.578125 39.3125 
Q 47.65625 37.796875 51.625 33 
Q 55.609375 28.21875 55.609375 21.1875 
Q 55.609375 10.40625 48.1875 4.484375 
Q 40.765625 -1.421875 27.09375 -1.421875 
Q 22.515625 -1.421875 17.65625 -0.515625 
Q 12.796875 0.390625 7.625 2.203125 
L 7.625 11.71875 
Q 11.71875 9.328125 16.59375 8.109375 
Q 21.484375 6.890625 26.8125 6.890625 
Q 36.078125 6.890625 40.9375 10.546875 
Q 45.796875 14.203125 45.796875 21.1875 
Q 45.796875 27.640625 41.28125 31.265625 
Q 36.765625 34.90625 28.71875 34.90625 
L 20.21875 34.90625 
L 20.21875 43.015625 
L 29.109375 43.015625 
Q 36.375 43.015625 40.234375 45.921875 
Q 44.09375 48.828125 44.09375 54.296875 
Q 44.09375 59.90625 40.109375 62.90625 
Q 36.140625 65.921875 28.71875 65.921875 
Q 24.65625 65.921875 20.015625 65.03125 
Q 15.375 64.15625 9.8125 62.3125 
L 9.8125 71.09375 
Q 15.4375 72.65625 20.34375 73.4375 
Q 25.25 74.21875 29.59375 74.21875 
Q 40.828125 74.21875 47.359375 69.109375 
Q 53.90625 64.015625 53.90625 55.328125 
Q 53.90625 49.265625 50.4375 45.09375 
Q 46.96875 40.921875 40.578125 39.3125 
z
" id="DejaVuSans-51"/>
       </defs>
       <use xlink:href="#DejaVuSans-50"/>
       <use x="63.623047" xlink:href="#DejaVuSans-48"/>
       <use x="127.246094" xlink:href="#DejaVuSans-50"/>
       <use x="190.869141" xlink:href="#DejaVuSans-48"/>
       <use x="254.492188" xlink:href="#DejaVuSans-45"/>
       <use x="290.576172" xlink:href="#DejaVuSans-48"/>
       <use x="354.199219" xlink:href="#DejaVuSans-51"/>
      </g>
     </g>
    </g>
    <g id="xtick_2">
     <g id="line2d_3">
      <path clip-path="url(#pb834bfefc9)" d="M 181.478247 616.52 
L 181.478247 7.2 
" style="fill:none;stroke:#ffffff;stroke-linecap:square;stroke-width:0.8;"/>
     </g>
     <g id="line2d_4">
      <g>
       <use style="fill:#555555;stroke:#555555;stroke-width:0.8;" x="181.478247" xlink:href="#ma39e46213b" y="616.52"/>
      </g>
     </g>
     <g id="text_2">
      <!-- 2020-04 -->
      <g style="fill:#555555;" transform="translate(160.586841 631.118437)scale(0.1 -0.1)">
       <defs>
        <path d="M 37.796875 64.3125 
L 12.890625 25.390625 
L 37.796875 25.390625 
z
M 35.203125 72.90625 
L 47.609375 72.90625 
L 47.609375 25.390625 
L 58.015625 25.390625 
L 58.015625 17.1875 
L 47.609375 17.1875 
L 47.609375 0 
L 37.796875 0 
L 37.796875 17.1875 
L 4.890625 17.1875 
L 4.890625 26.703125 
z
" id="DejaVuSans-52"/>
       </defs>
       <use xlink:href="#DejaVuSans-50"/>
       <use x="63.623047" xlink:href="#DejaVuSans-48"/>
       <use x="127.246094" xlink:href="#DejaVuSans-50"/>
       <use x="190.869141" xlink:href="#DejaVuSans-48"/>
       <use x="254.492188" xlink:href="#DejaVuSans-45"/>
       <use x="290.576172" xlink:href="#DejaVuSans-48"/>
       <use x="354.199219" xlink:href="#DejaVuSans-52"/>
      </g>
     </g>
    </g>
    <g id="xtick_3">
     <g id="line2d_5">
      <path clip-path="url(#pb834bfefc9)" d="M 274.919681 616.52 
L 274.919681 7.2 
" style="fill:none;stroke:#ffffff;stroke-linecap:square;stroke-width:0.8;"/>
     </g>
     <g id="line2d_6">
      <g>
       <use style="fill:#555555;stroke:#555555;stroke-width:0.8;" x="274.919681" xlink:href="#ma39e46213b" y="616.52"/>
      </g>
     </g>
     <g id="text_3">
      <!-- 2020-05 -->
      <g style="fill:#555555;" transform="translate(254.028275 631.118437)scale(0.1 -0.1)">
       <defs>
        <path d="M 10.796875 72.90625 
L 49.515625 72.90625 
L 49.515625 64.59375 
L 19.828125 64.59375 
L 19.828125 46.734375 
Q 21.96875 47.46875 24.109375 47.828125 
Q 26.265625 48.1875 28.421875 48.1875 
Q 40.625 48.1875 47.75 41.5 
Q 54.890625 34.8125 54.890625 23.390625 
Q 54.890625 11.625 47.5625 5.09375 
Q 40.234375 -1.421875 26.90625 -1.421875 
Q 22.3125 -1.421875 17.546875 -0.640625 
Q 12.796875 0.140625 7.71875 1.703125 
L 7.71875 11.625 
Q 12.109375 9.234375 16.796875 8.0625 
Q 21.484375 6.890625 26.703125 6.890625 
Q 35.15625 6.890625 40.078125 11.328125 
Q 45.015625 15.765625 45.015625 23.390625 
Q 45.015625 31 40.078125 35.4375 
Q 35.15625 39.890625 26.703125 39.890625 
Q 22.75 39.890625 18.8125 39.015625 
Q 14.890625 38.140625 10.796875 36.28125 
z
" id="DejaVuSans-53"/>
       </defs>
       <use xlink:href="#DejaVuSans-50"/>
       <use x="63.623047" xlink:href="#DejaVuSans-48"/>
       <use x="127.246094" xlink:href="#DejaVuSans-50"/>
       <use x="190.869141" xlink:href="#DejaVuSans-48"/>
       <use x="254.492188" xlink:href="#DejaVuSans-45"/>
       <use x="290.576172" xlink:href="#DejaVuSans-48"/>
       <use x="354.199219" xlink:href="#DejaVuSans-53"/>
      </g>
     </g>
    </g>
    <g id="xtick_4">
     <g id="line2d_7">
      <path clip-path="url(#pb834bfefc9)" d="M 371.475829 616.52 
L 371.475829 7.2 
" style="fill:none;stroke:#ffffff;stroke-linecap:square;stroke-width:0.8;"/>
     </g>
     <g id="line2d_8">
      <g>
       <use style="fill:#555555;stroke:#555555;stroke-width:0.8;" x="371.475829" xlink:href="#ma39e46213b" y="616.52"/>
      </g>
     </g>
     <g id="text_4">
      <!-- 2020-06 -->
      <g style="fill:#555555;" transform="translate(350.584423 631.118437)scale(0.1 -0.1)">
       <defs>
        <path d="M 33.015625 40.375 
Q 26.375 40.375 22.484375 35.828125 
Q 18.609375 31.296875 18.609375 23.390625 
Q 18.609375 15.53125 22.484375 10.953125 
Q 26.375 6.390625 33.015625 6.390625 
Q 39.65625 6.390625 43.53125 10.953125 
Q 47.40625 15.53125 47.40625 23.390625 
Q 47.40625 31.296875 43.53125 35.828125 
Q 39.65625 40.375 33.015625 40.375 
z
M 52.59375 71.296875 
L 52.59375 62.3125 
Q 48.875 64.0625 45.09375 64.984375 
Q 41.3125 65.921875 37.59375 65.921875 
Q 27.828125 65.921875 22.671875 59.328125 
Q 17.53125 52.734375 16.796875 39.40625 
Q 19.671875 43.65625 24.015625 45.921875 
Q 28.375 48.1875 33.59375 48.1875 
Q 44.578125 48.1875 50.953125 41.515625 
Q 57.328125 34.859375 57.328125 23.390625 
Q 57.328125 12.15625 50.6875 5.359375 
Q 44.046875 -1.421875 33.015625 -1.421875 
Q 20.359375 -1.421875 13.671875 8.265625 
Q 6.984375 17.96875 6.984375 36.375 
Q 6.984375 53.65625 15.1875 63.9375 
Q 23.390625 74.21875 37.203125 74.21875 
Q 40.921875 74.21875 44.703125 73.484375 
Q 48.484375 72.75 52.59375 71.296875 
z
" id="DejaVuSans-54"/>
       </defs>
       <use xlink:href="#DejaVuSans-50"/>
       <use x="63.623047" xlink:href="#DejaVuSans-48"/>
       <use x="127.246094" xlink:href="#DejaVuSans-50"/>
       <use x="190.869141" xlink:href="#DejaVuSans-48"/>
       <use x="254.492188" xlink:href="#DejaVuSans-45"/>
       <use x="290.576172" xlink:href="#DejaVuSans-48"/>
       <use x="354.199219" xlink:href="#DejaVuSans-54"/>
      </g>
     </g>
    </g>
    <g id="xtick_5">
     <g id="line2d_9">
      <path clip-path="url(#pb834bfefc9)" d="M 464.917263 616.52 
L 464.917263 7.2 
" style="fill:none;stroke:#ffffff;stroke-linecap:square;stroke-width:0.8;"/>
     </g>
     <g id="line2d_10">
      <g>
       <use style="fill:#555555;stroke:#555555;stroke-width:0.8;" x="464.917263" xlink:href="#ma39e46213b" y="616.52"/>
      </g>
     </g>
     <g id="text_5">
      <!-- 2020-07 -->
      <g style="fill:#555555;" transform="translate(444.025856 631.118437)scale(0.1 -0.1)">
       <defs>
        <path d="M 8.203125 72.90625 
L 55.078125 72.90625 
L 55.078125 68.703125 
L 28.609375 0 
L 18.3125 0 
L 43.21875 64.59375 
L 8.203125 64.59375 
z
" id="DejaVuSans-55"/>
       </defs>
       <use xlink:href="#DejaVuSans-50"/>
       <use x="63.623047" xlink:href="#DejaVuSans-48"/>
       <use x="127.246094" xlink:href="#DejaVuSans-50"/>
       <use x="190.869141" xlink:href="#DejaVuSans-48"/>
       <use x="254.492188" xlink:href="#DejaVuSans-45"/>
       <use x="290.576172" xlink:href="#DejaVuSans-48"/>
       <use x="354.199219" xlink:href="#DejaVuSans-55"/>
      </g>
     </g>
    </g>
    <g id="xtick_6">
     <g id="line2d_11">
      <path clip-path="url(#pb834bfefc9)" d="M 561.473411 616.52 
L 561.473411 7.2 
" style="fill:none;stroke:#ffffff;stroke-linecap:square;stroke-width:0.8;"/>
     </g>
     <g id="line2d_12">
      <g>
       <use style="fill:#555555;stroke:#555555;stroke-width:0.8;" x="561.473411" xlink:href="#ma39e46213b" y="616.52"/>
      </g>
     </g>
     <g id="text_6">
      <!-- 2020-08 -->
      <g style="fill:#555555;" transform="translate(540.582004 631.118437)scale(0.1 -0.1)">
       <defs>
        <path d="M 31.78125 34.625 
Q 24.75 34.625 20.71875 30.859375 
Q 16.703125 27.09375 16.703125 20.515625 
Q 16.703125 13.921875 20.71875 10.15625 
Q 24.75 6.390625 31.78125 6.390625 
Q 38.8125 6.390625 42.859375 10.171875 
Q 46.921875 13.96875 46.921875 20.515625 
Q 46.921875 27.09375 42.890625 30.859375 
Q 38.875 34.625 31.78125 34.625 
z
M 21.921875 38.8125 
Q 15.578125 40.375 12.03125 44.71875 
Q 8.5 49.078125 8.5 55.328125 
Q 8.5 64.0625 14.71875 69.140625 
Q 20.953125 74.21875 31.78125 74.21875 
Q 42.671875 74.21875 48.875 69.140625 
Q 55.078125 64.0625 55.078125 55.328125 
Q 55.078125 49.078125 51.53125 44.71875 
Q 48 40.375 41.703125 38.8125 
Q 48.828125 37.15625 52.796875 32.3125 
Q 56.78125 27.484375 56.78125 20.515625 
Q 56.78125 9.90625 50.3125 4.234375 
Q 43.84375 -1.421875 31.78125 -1.421875 
Q 19.734375 -1.421875 13.25 4.234375 
Q 6.78125 9.90625 6.78125 20.515625 
Q 6.78125 27.484375 10.78125 32.3125 
Q 14.796875 37.15625 21.921875 38.8125 
z
M 18.3125 54.390625 
Q 18.3125 48.734375 21.84375 45.5625 
Q 25.390625 42.390625 31.78125 42.390625 
Q 38.140625 42.390625 41.71875 45.5625 
Q 45.3125 48.734375 45.3125 54.390625 
Q 45.3125 60.0625 41.71875 63.234375 
Q 38.140625 66.40625 31.78125 66.40625 
Q 25.390625 66.40625 21.84375 63.234375 
Q 18.3125 60.0625 18.3125 54.390625 
z
" id="DejaVuSans-56"/>
       </defs>
       <use xlink:href="#DejaVuSans-50"/>
       <use x="63.623047" xlink:href="#DejaVuSans-48"/>
       <use x="127.246094" xlink:href="#DejaVuSans-50"/>
       <use x="190.869141" xlink:href="#DejaVuSans-48"/>
       <use x="254.492188" xlink:href="#DejaVuSans-45"/>
       <use x="290.576172" xlink:href="#DejaVuSans-48"/>
       <use x="354.199219" xlink:href="#DejaVuSans-56"/>
      </g>
     </g>
    </g>
    <g id="xtick_7">
     <g id="line2d_13">
      <path clip-path="url(#pb834bfefc9)" d="M 658.029559 616.52 
L 658.029559 7.2 
" style="fill:none;stroke:#ffffff;stroke-linecap:square;stroke-width:0.8;"/>
     </g>
     <g id="line2d_14">
      <g>
       <use style="fill:#555555;stroke:#555555;stroke-width:0.8;" x="658.029559" xlink:href="#ma39e46213b" y="616.52"/>
      </g>
     </g>
     <g id="text_7">
      <!-- 2020-09 -->
      <g style="fill:#555555;" transform="translate(637.138152 631.118437)scale(0.1 -0.1)">
       <defs>
        <path d="M 10.984375 1.515625 
L 10.984375 10.5 
Q 14.703125 8.734375 18.5 7.8125 
Q 22.3125 6.890625 25.984375 6.890625 
Q 35.75 6.890625 40.890625 13.453125 
Q 46.046875 20.015625 46.78125 33.40625 
Q 43.953125 29.203125 39.59375 26.953125 
Q 35.25 24.703125 29.984375 24.703125 
Q 19.046875 24.703125 12.671875 31.3125 
Q 6.296875 37.9375 6.296875 49.421875 
Q 6.296875 60.640625 12.9375 67.421875 
Q 19.578125 74.21875 30.609375 74.21875 
Q 43.265625 74.21875 49.921875 64.515625 
Q 56.59375 54.828125 56.59375 36.375 
Q 56.59375 19.140625 48.40625 8.859375 
Q 40.234375 -1.421875 26.421875 -1.421875 
Q 22.703125 -1.421875 18.890625 -0.6875 
Q 15.09375 0.046875 10.984375 1.515625 
z
M 30.609375 32.421875 
Q 37.25 32.421875 41.125 36.953125 
Q 45.015625 41.5 45.015625 49.421875 
Q 45.015625 57.28125 41.125 61.84375 
Q 37.25 66.40625 30.609375 66.40625 
Q 23.96875 66.40625 20.09375 61.84375 
Q 16.21875 57.28125 16.21875 49.421875 
Q 16.21875 41.5 20.09375 36.953125 
Q 23.96875 32.421875 30.609375 32.421875 
z
" id="DejaVuSans-57"/>
       </defs>
       <use xlink:href="#DejaVuSans-50"/>
       <use x="63.623047" xlink:href="#DejaVuSans-48"/>
       <use x="127.246094" xlink:href="#DejaVuSans-50"/>
       <use x="190.869141" xlink:href="#DejaVuSans-48"/>
       <use x="254.492188" xlink:href="#DejaVuSans-45"/>
       <use x="290.576172" xlink:href="#DejaVuSans-48"/>
       <use x="354.199219" xlink:href="#DejaVuSans-57"/>
      </g>
     </g>
    </g>
    <g id="xtick_8">
     <g id="line2d_15">
      <path clip-path="url(#pb834bfefc9)" d="M 751.470992 616.52 
L 751.470992 7.2 
" style="fill:none;stroke:#ffffff;stroke-linecap:square;stroke-width:0.8;"/>
     </g>
     <g id="line2d_16">
      <g>
       <use style="fill:#555555;stroke:#555555;stroke-width:0.8;" x="751.470992" xlink:href="#ma39e46213b" y="616.52"/>
      </g>
     </g>
     <g id="text_8">
      <!-- 2020-10 -->
      <g style="fill:#555555;" transform="translate(730.579586 631.118437)scale(0.1 -0.1)">
       <defs>
        <path d="M 12.40625 8.296875 
L 28.515625 8.296875 
L 28.515625 63.921875 
L 10.984375 60.40625 
L 10.984375 69.390625 
L 28.421875 72.90625 
L 38.28125 72.90625 
L 38.28125 8.296875 
L 54.390625 8.296875 
L 54.390625 0 
L 12.40625 0 
z
" id="DejaVuSans-49"/>
       </defs>
       <use xlink:href="#DejaVuSans-50"/>
       <use x="63.623047" xlink:href="#DejaVuSans-48"/>
       <use x="127.246094" xlink:href="#DejaVuSans-50"/>
       <use x="190.869141" xlink:href="#DejaVuSans-48"/>
       <use x="254.492188" xlink:href="#DejaVuSans-45"/>
       <use x="290.576172" xlink:href="#DejaVuSans-49"/>
       <use x="354.199219" xlink:href="#DejaVuSans-48"/>
      </g>
     </g>
    </g>
    <g id="xtick_9">
     <g id="line2d_17">
      <path clip-path="url(#pb834bfefc9)" d="M 848.02714 616.52 
L 848.02714 7.2 
" style="fill:none;stroke:#ffffff;stroke-linecap:square;stroke-width:0.8;"/>
     </g>
     <g id="line2d_18">
      <g>
       <use style="fill:#555555;stroke:#555555;stroke-width:0.8;" x="848.02714" xlink:href="#ma39e46213b" y="616.52"/>
      </g>
     </g>
     <g id="text_9">
      <!-- 2020-11 -->
      <g style="fill:#555555;" transform="translate(827.135734 631.118437)scale(0.1 -0.1)">
       <use xlink:href="#DejaVuSans-50"/>
       <use x="63.623047" xlink:href="#DejaVuSans-48"/>
       <use x="127.246094" xlink:href="#DejaVuSans-50"/>
       <use x="190.869141" xlink:href="#DejaVuSans-48"/>
       <use x="254.492188" xlink:href="#DejaVuSans-45"/>
       <use x="290.576172" xlink:href="#DejaVuSans-49"/>
       <use x="354.199219" xlink:href="#DejaVuSans-49"/>
      </g>
     </g>
    </g>
    <g id="xtick_10">
     <g id="line2d_19">
      <path clip-path="url(#pb834bfefc9)" d="M 941.468574 616.52 
L 941.468574 7.2 
" style="fill:none;stroke:#ffffff;stroke-linecap:square;stroke-width:0.8;"/>
     </g>
     <g id="line2d_20">
      <g>
       <use style="fill:#555555;stroke:#555555;stroke-width:0.8;" x="941.468574" xlink:href="#ma39e46213b" y="616.52"/>
      </g>
     </g>
     <g id="text_10">
      <!-- 2020-12 -->
      <g style="fill:#555555;" transform="translate(920.577167 631.118437)scale(0.1 -0.1)">
       <use xlink:href="#DejaVuSans-50"/>
       <use x="63.623047" xlink:href="#DejaVuSans-48"/>
       <use x="127.246094" xlink:href="#DejaVuSans-50"/>
       <use x="190.869141" xlink:href="#DejaVuSans-48"/>
       <use x="254.492188" xlink:href="#DejaVuSans-45"/>
       <use x="290.576172" xlink:href="#DejaVuSans-49"/>
       <use x="354.199219" xlink:href="#DejaVuSans-50"/>
      </g>
     </g>
    </g>
    <g id="xtick_11">
     <g id="line2d_21">
      <path clip-path="url(#pb834bfefc9)" d="M 1038.024722 616.52 
L 1038.024722 7.2 
" style="fill:none;stroke:#ffffff;stroke-linecap:square;stroke-width:0.8;"/>
     </g>
     <g id="line2d_22">
      <g>
       <use style="fill:#555555;stroke:#555555;stroke-width:0.8;" x="1038.024722" xlink:href="#ma39e46213b" y="616.52"/>
      </g>
     </g>
     <g id="text_11">
      <!-- 2021-01 -->
      <g style="fill:#555555;" transform="translate(1017.133315 631.118437)scale(0.1 -0.1)">
       <use xlink:href="#DejaVuSans-50"/>
       <use x="63.623047" xlink:href="#DejaVuSans-48"/>
       <use x="127.246094" xlink:href="#DejaVuSans-50"/>
       <use x="190.869141" xlink:href="#DejaVuSans-49"/>
       <use x="254.492188" xlink:href="#DejaVuSans-45"/>
       <use x="290.576172" xlink:href="#DejaVuSans-48"/>
       <use x="354.199219" xlink:href="#DejaVuSans-49"/>
      </g>
     </g>
    </g>
   </g>
   <g id="matplotlib.axis_2">
    <g id="ytick_1">
     <g id="line2d_23">
      <path clip-path="url(#pb834bfefc9)" d="M 30.103125 572.599614 
L 1099.073125 572.599614 
" style="fill:none;stroke:#ffffff;stroke-linecap:square;stroke-width:0.8;"/>
     </g>
     <g id="line2d_24">
      <defs>
       <path d="M 0 0 
L -3.5 0 
" id="m7f1ffdbaa5" style="stroke:#555555;stroke-width:0.8;"/>
      </defs>
      <g>
       <use style="fill:#555555;stroke:#555555;stroke-width:0.8;" x="30.103125" xlink:href="#m7f1ffdbaa5" y="572.599614"/>
      </g>
     </g>
     <g id="text_12">
      <!-- 0.5 -->
      <g style="fill:#555555;" transform="translate(7.2 576.398832)scale(0.1 -0.1)">
       <defs>
        <path d="M 10.6875 12.40625 
L 21 12.40625 
L 21 0 
L 10.6875 0 
z
" id="DejaVuSans-46"/>
       </defs>
       <use xlink:href="#DejaVuSans-48"/>
       <use x="63.623047" xlink:href="#DejaVuSans-46"/>
       <use x="95.410156" xlink:href="#DejaVuSans-53"/>
      </g>
     </g>
    </g>
    <g id="ytick_2">
     <g id="line2d_25">
      <path clip-path="url(#pb834bfefc9)" d="M 30.103125 500.657342 
L 1099.073125 500.657342 
" style="fill:none;stroke:#ffffff;stroke-linecap:square;stroke-width:0.8;"/>
     </g>
     <g id="line2d_26">
      <g>
       <use style="fill:#555555;stroke:#555555;stroke-width:0.8;" x="30.103125" xlink:href="#m7f1ffdbaa5" y="500.657342"/>
      </g>
     </g>
     <g id="text_13">
      <!-- 1.0 -->
      <g style="fill:#555555;" transform="translate(7.2 504.456561)scale(0.1 -0.1)">
       <use xlink:href="#DejaVuSans-49"/>
       <use x="63.623047" xlink:href="#DejaVuSans-46"/>
       <use x="95.410156" xlink:href="#DejaVuSans-48"/>
      </g>
     </g>
    </g>
    <g id="ytick_3">
     <g id="line2d_27">
      <path clip-path="url(#pb834bfefc9)" d="M 30.103125 428.71507 
L 1099.073125 428.71507 
" style="fill:none;stroke:#ffffff;stroke-linecap:square;stroke-width:0.8;"/>
     </g>
     <g id="line2d_28">
      <g>
       <use style="fill:#555555;stroke:#555555;stroke-width:0.8;" x="30.103125" xlink:href="#m7f1ffdbaa5" y="428.71507"/>
      </g>
     </g>
     <g id="text_14">
      <!-- 1.5 -->
      <g style="fill:#555555;" transform="translate(7.2 432.514289)scale(0.1 -0.1)">
       <use xlink:href="#DejaVuSans-49"/>
       <use x="63.623047" xlink:href="#DejaVuSans-46"/>
       <use x="95.410156" xlink:href="#DejaVuSans-53"/>
      </g>
     </g>
    </g>
    <g id="ytick_4">
     <g id="line2d_29">
      <path clip-path="url(#pb834bfefc9)" d="M 30.103125 356.772798 
L 1099.073125 356.772798 
" style="fill:none;stroke:#ffffff;stroke-linecap:square;stroke-width:0.8;"/>
     </g>
     <g id="line2d_30">
      <g>
       <use style="fill:#555555;stroke:#555555;stroke-width:0.8;" x="30.103125" xlink:href="#m7f1ffdbaa5" y="356.772798"/>
      </g>
     </g>
     <g id="text_15">
      <!-- 2.0 -->
      <g style="fill:#555555;" transform="translate(7.2 360.572017)scale(0.1 -0.1)">
       <use xlink:href="#DejaVuSans-50"/>
       <use x="63.623047" xlink:href="#DejaVuSans-46"/>
       <use x="95.410156" xlink:href="#DejaVuSans-48"/>
      </g>
     </g>
    </g>
    <g id="ytick_5">
     <g id="line2d_31">
      <path clip-path="url(#pb834bfefc9)" d="M 30.103125 284.830526 
L 1099.073125 284.830526 
" style="fill:none;stroke:#ffffff;stroke-linecap:square;stroke-width:0.8;"/>
     </g>
     <g id="line2d_32">
      <g>
       <use style="fill:#555555;stroke:#555555;stroke-width:0.8;" x="30.103125" xlink:href="#m7f1ffdbaa5" y="284.830526"/>
      </g>
     </g>
     <g id="text_16">
      <!-- 2.5 -->
      <g style="fill:#555555;" transform="translate(7.2 288.629745)scale(0.1 -0.1)">
       <use xlink:href="#DejaVuSans-50"/>
       <use x="63.623047" xlink:href="#DejaVuSans-46"/>
       <use x="95.410156" xlink:href="#DejaVuSans-53"/>
      </g>
     </g>
    </g>
    <g id="ytick_6">
     <g id="line2d_33">
      <path clip-path="url(#pb834bfefc9)" d="M 30.103125 212.888254 
L 1099.073125 212.888254 
" style="fill:none;stroke:#ffffff;stroke-linecap:square;stroke-width:0.8;"/>
     </g>
     <g id="line2d_34">
      <g>
       <use style="fill:#555555;stroke:#555555;stroke-width:0.8;" x="30.103125" xlink:href="#m7f1ffdbaa5" y="212.888254"/>
      </g>
     </g>
     <g id="text_17">
      <!-- 3.0 -->
      <g style="fill:#555555;" transform="translate(7.2 216.687473)scale(0.1 -0.1)">
       <use xlink:href="#DejaVuSans-51"/>
       <use x="63.623047" xlink:href="#DejaVuSans-46"/>
       <use x="95.410156" xlink:href="#DejaVuSans-48"/>
      </g>
     </g>
    </g>
    <g id="ytick_7">
     <g id="line2d_35">
      <path clip-path="url(#pb834bfefc9)" d="M 30.103125 140.945982 
L 1099.073125 140.945982 
" style="fill:none;stroke:#ffffff;stroke-linecap:square;stroke-width:0.8;"/>
     </g>
     <g id="line2d_36">
      <g>
       <use style="fill:#555555;stroke:#555555;stroke-width:0.8;" x="30.103125" xlink:href="#m7f1ffdbaa5" y="140.945982"/>
      </g>
     </g>
     <g id="text_18">
      <!-- 3.5 -->
      <g style="fill:#555555;" transform="translate(7.2 144.745201)scale(0.1 -0.1)">
       <use xlink:href="#DejaVuSans-51"/>
       <use x="63.623047" xlink:href="#DejaVuSans-46"/>
       <use x="95.410156" xlink:href="#DejaVuSans-53"/>
      </g>
     </g>
    </g>
    <g id="ytick_8">
     <g id="line2d_37">
      <path clip-path="url(#pb834bfefc9)" d="M 30.103125 69.00371 
L 1099.073125 69.00371 
" style="fill:none;stroke:#ffffff;stroke-linecap:square;stroke-width:0.8;"/>
     </g>
     <g id="line2d_38">
      <g>
       <use style="fill:#555555;stroke:#555555;stroke-width:0.8;" x="30.103125" xlink:href="#m7f1ffdbaa5" y="69.00371"/>
      </g>
     </g>
     <g id="text_19">
      <!-- 4.0 -->
      <g style="fill:#555555;" transform="translate(7.2 72.802929)scale(0.1 -0.1)">
       <use xlink:href="#DejaVuSans-52"/>
       <use x="63.623047" xlink:href="#DejaVuSans-46"/>
       <use x="95.410156" xlink:href="#DejaVuSans-48"/>
      </g>
     </g>
    </g>
   </g>
   <g id="line2d_39">
    <path clip-path="url(#pb834bfefc9)" d="M 91.151528 112.439305 
L 94.266243 83.975995 
L 97.380957 119.77068 
L 100.495672 102.668438 
L 103.610386 94.31935 
L 106.725101 103.462508 
L 109.839815 122.228586 
L 112.954529 156.553712 
L 116.069244 200.184781 
L 119.183958 210.938323 
L 122.298673 240.418016 
L 125.413387 263.599609 
L 128.528102 270.900273 
L 131.642816 277.263597 
L 134.757531 270.911414 
L 137.872245 267.020021 
L 140.986959 274.269761 
L 144.101674 281.803349 
L 147.216388 294.126308 
L 150.331103 310.920412 
L 153.445817 320.707116 
L 156.560532 328.329643 
L 159.675246 333.795956 
L 162.789961 340.19184 
L 165.904675 349.559925 
L 169.01939 361.010883 
L 172.134104 373.430572 
L 178.363533 393.831925 
L 181.478247 404.247548 
L 184.592962 415.803524 
L 187.707676 425.544935 
L 190.822391 433.456222 
L 193.937105 439.693143 
L 197.05182 445.276062 
L 200.166534 449.770215 
L 203.281249 453.528544 
L 206.395963 458.031976 
L 215.740106 470.243174 
L 218.854821 473.53904 
L 221.969535 476.476941 
L 225.08425 478.920906 
L 234.428393 484.797577 
L 237.543108 486.24573 
L 240.657822 487.288213 
L 243.772536 487.901086 
L 253.11668 489.436211 
L 265.575538 492.395621 
L 287.378539 496.013589 
L 293.607968 496.522402 
L 299.837397 496.854165 
L 321.640398 497.449961 
L 330.984541 497.919138 
L 343.443399 498.292983 
L 362.131686 498.792645 
L 368.361115 498.871802 
L 374.590543 498.870494 
L 408.852402 499.227796 
L 424.425975 499.308026 
L 433.770118 499.020773 
L 443.114261 498.600631 
L 449.34369 498.510211 
L 455.573119 498.574167 
L 468.031977 498.902308 
L 511.637979 499.30208 
L 536.555695 499.025274 
L 605.079413 497.588595 
L 629.997128 496.950425 
L 639.341272 496.809001 
L 651.80013 497.006378 
L 676.717845 497.449423 
L 710.979704 496.90491 
L 720.323848 496.52502 
L 726.553277 496.387713 
L 745.241563 496.29242 
L 757.700421 496.110232 
L 770.159279 495.651434 
L 776.388708 495.131751 
L 788.847566 493.548219 
L 795.076994 492.76354 
L 801.306423 491.645401 
L 807.535852 490.559919 
L 816.879996 489.065226 
L 819.99471 488.43935 
L 823.109425 487.629474 
L 832.453568 484.842464 
L 838.682997 483.144739 
L 841.797711 482.286744 
L 844.912426 481.54529 
L 851.141855 480.720528 
L 857.371284 480.44635 
L 860.485998 480.402453 
L 869.830141 480.738359 
L 876.05957 481.085514 
L 885.403714 482.002041 
L 900.977286 484.07601 
L 910.321429 485.24907 
L 916.550858 485.886268 
L 941.468574 487.91428 
L 957.042146 488.685469 
L 966.386289 488.616843 
L 972.615718 488.515039 
L 991.304005 487.692926 
L 1000.648148 487.461533 
L 1013.107006 487.433648 
L 1016.221721 487.583395 
L 1019.336435 488.069305 
L 1028.680578 488.420036 
L 1034.910007 488.01804 
L 1038.024722 487.865277 
L 1041.139436 488.078004 
L 1044.254151 488.516931 
L 1047.368865 489.123568 
L 1050.48358 490.033798 
L 1050.48358 490.033798 
" style="fill:none;stroke:#e24a33;stroke-linecap:square;stroke-width:1.5;"/>
   </g>
   <g id="line2d_40">
    <path clip-path="url(#pb834bfefc9)" d="M 91.151528 112.439305 
L 94.266243 55.512686 
L 97.380957 191.360049 
L 100.495672 51.361711 
L 103.610386 60.923001 
L 109.839815 234.825058 
L 112.954529 352.715183 
L 116.069244 360.930173 
L 119.183958 266.63484 
L 122.298673 257.719559 
L 125.413387 223.194152 
L 128.528102 200.282946 
L 131.642816 279.368325 
L 134.757531 308.249905 
L 137.872245 333.69042 
L 140.986959 317.38302 
L 144.101674 310.454676 
L 147.216388 309.45486 
L 150.331103 317.84168 
L 153.445817 347.875247 
L 156.560532 361.607598 
L 159.675246 371.954608 
L 162.789961 362.154211 
L 169.01939 389.611564 
L 172.134104 404.779506 
L 175.248818 418.565175 
L 178.363533 433.72714 
L 181.478247 444.863969 
L 184.592962 443.04604 
L 187.707676 444.221147 
L 190.822391 444.990575 
L 193.937105 448.437956 
L 197.05182 457.645605 
L 200.166534 465.186213 
L 203.281249 471.172274 
L 206.395963 474.570062 
L 209.510677 473.071504 
L 212.625392 473.687204 
L 215.740106 476.369353 
L 218.854821 480.716669 
L 221.969535 485.751523 
L 225.08425 488.280027 
L 228.198964 488.505496 
L 231.313679 487.757558 
L 234.428393 486.202414 
L 237.543108 486.506418 
L 240.657822 488.014055 
L 243.772536 490.041634 
L 246.887251 491.748603 
L 250.001965 492.00562 
L 253.11668 491.534734 
L 256.231394 491.369944 
L 259.346109 492.000018 
L 262.460823 493.430383 
L 265.575538 494.680044 
L 268.690252 495.464843 
L 271.804966 495.759809 
L 274.919681 495.210347 
L 278.034395 495.429986 
L 281.14911 495.936816 
L 284.263824 496.700764 
L 287.378539 497.592561 
L 290.493253 497.605365 
L 299.837397 496.23884 
L 302.952111 496.50632 
L 306.066825 497.340212 
L 309.18154 497.598276 
L 312.296254 498.004889 
L 315.410969 497.785893 
L 318.525683 497.316957 
L 324.755112 497.789974 
L 327.869827 498.298016 
L 330.984541 498.641053 
L 343.443399 498.177595 
L 349.672828 498.865866 
L 352.787542 498.891743 
L 355.902257 499.120106 
L 359.016971 499.185545 
L 362.131686 498.821139 
L 365.2464 498.577026 
L 371.475829 498.66 
L 377.705258 499.408107 
L 383.934687 499.186058 
L 387.049401 499.033013 
L 393.27883 499.211749 
L 399.508259 499.409327 
L 402.622973 499.210791 
L 408.852402 499.180357 
L 411.967117 499.2373 
L 415.081831 499.522574 
L 424.425975 499.17564 
L 427.540689 498.728459 
L 433.770118 498.297104 
L 436.884832 498.335466 
L 439.999547 498.546958 
L 452.458405 498.524458 
L 458.687834 499.059782 
L 461.802548 499.046312 
L 464.917263 499.214969 
L 471.146691 498.895463 
L 474.261406 498.9548 
L 483.605549 499.381098 
L 486.720264 499.400807 
L 492.949693 499.123381 
L 499.179122 499.244709 
L 502.293836 499.453191 
L 508.523265 499.462476 
L 517.867408 498.86483 
L 530.326266 499.28493 
L 533.44098 499.022356 
L 536.555695 498.618012 
L 539.670409 498.43637 
L 552.129267 498.919144 
L 558.358696 498.12973 
L 561.473411 497.909494 
L 567.702839 498.507321 
L 570.817554 498.507007 
L 573.932268 498.661082 
L 577.046983 498.107865 
L 580.161697 497.673704 
L 583.276412 497.516685 
L 586.391126 497.651934 
L 589.505841 498.076403 
L 592.620555 498.208415 
L 595.73527 498.147392 
L 601.964698 496.882975 
L 605.079413 496.597436 
L 608.194127 497.013736 
L 611.308842 497.613946 
L 617.538271 497.619663 
L 620.652985 496.925423 
L 623.7677 496.37348 
L 626.882414 495.98159 
L 629.997128 496.471552 
L 633.111843 497.127136 
L 636.226557 497.237724 
L 639.341272 497.546103 
L 645.570701 496.578761 
L 648.685415 496.472574 
L 654.914844 497.542659 
L 661.144273 497.917332 
L 664.258987 497.608583 
L 667.373702 497.110703 
L 670.488416 497.029068 
L 673.603131 497.20168 
L 676.717845 497.507715 
L 679.83256 497.494195 
L 682.947274 497.624293 
L 686.061989 497.109296 
L 689.176703 496.731182 
L 692.291418 496.674037 
L 695.406132 496.818588 
L 698.520846 497.387487 
L 701.635561 497.444562 
L 704.750275 497.307278 
L 707.86499 496.620707 
L 714.094419 495.608921 
L 717.209133 495.943954 
L 720.323848 496.668005 
L 723.438562 496.741162 
L 726.553277 497.049531 
L 729.667991 496.636793 
L 732.782705 495.992383 
L 735.89742 495.654424 
L 739.012134 495.868685 
L 742.126849 496.393447 
L 745.241563 496.451673 
L 748.356278 496.843432 
L 751.470992 496.300013 
L 754.585707 495.56188 
L 760.815135 495.138038 
L 763.92985 495.733376 
L 767.044564 495.785322 
L 770.159279 495.688917 
L 773.273993 494.856866 
L 776.388708 493.367248 
L 779.503422 492.425751 
L 782.618137 492.181236 
L 785.732851 493.021313 
L 788.847566 493.296202 
L 791.96228 493.201355 
L 795.076994 491.851673 
L 798.191709 489.738951 
L 801.306423 488.22708 
L 804.421138 488.201269 
L 807.535852 489.402902 
L 813.765281 490.112191 
L 816.879996 487.967391 
L 819.99471 485.35782 
L 823.109425 482.557949 
L 826.224139 481.522589 
L 829.338853 482.995067 
L 835.568282 483.84939 
L 838.682997 482.346118 
L 841.797711 479.351854 
L 844.912426 477.367771 
L 848.02714 478.306524 
L 851.141855 480.437799 
L 854.256569 482.093167 
L 857.371284 483.221215 
L 860.485998 482.038844 
L 863.600712 479.884516 
L 866.715427 478.295619 
L 869.830141 479.19735 
L 872.944856 481.458967 
L 876.05957 483.502089 
L 879.174285 485.156973 
L 882.288999 484.172899 
L 885.403714 482.23039 
L 888.518428 481.061794 
L 891.633142 481.823493 
L 894.747857 484.531851 
L 897.862571 486.730661 
L 900.977286 487.980979 
L 904.092 487.137629 
L 907.206715 484.92795 
L 910.321429 483.610928 
L 913.436144 484.224164 
L 916.550858 486.591564 
L 919.665573 488.570424 
L 922.780287 489.499517 
L 925.895001 488.585349 
L 929.009716 486.79148 
L 932.12443 485.666084 
L 935.239145 486.503383 
L 938.353859 488.405634 
L 941.468574 489.948515 
L 944.583288 490.730266 
L 947.698003 489.761953 
L 950.812717 488.113313 
L 953.927432 486.876066 
L 957.042146 486.962538 
L 963.271575 489.849085 
L 966.386289 490.302974 
L 969.501004 489.646155 
L 972.615718 487.516485 
L 975.730433 485.834947 
L 978.845147 486.084087 
L 981.959862 487.147617 
L 985.074576 489.157793 
L 988.189291 489.384961 
L 991.304005 488.72459 
L 997.533434 485.101575 
L 1000.648148 485.844768 
L 1003.762863 487.117297 
L 1006.877577 488.785677 
L 1009.992292 489.587864 
L 1016.221721 487.917657 
L 1019.336435 488.502947 
L 1028.680578 487.362788 
L 1031.795293 488.430854 
L 1034.910007 487.875953 
L 1038.024722 487.153842 
L 1041.139436 489.566582 
L 1044.254151 490.711567 
L 1047.368865 492.763392 
L 1050.48358 493.734395 
L 1050.48358 493.734395 
" style="fill:none;stroke:#e24a33;stroke-dasharray:1.5,2.475;stroke-dashoffset:0;stroke-width:1.5;"/>
   </g>
   <g id="line2d_41">
    <path clip-path="url(#pb834bfefc9)" d="M 91.151528 256.325097 
L 94.266243 227.862088 
L 97.380957 263.65698 
L 100.495672 246.555433 
L 103.610386 205.611686 
L 106.725101 201.253161 
L 109.839815 208.938741 
L 112.954529 236.496232 
L 116.069244 273.59656 
L 119.183958 270.665812 
L 122.298673 281.36292 
L 125.413387 289.279822 
L 128.528102 268.627798 
L 131.642816 273.225125 
L 134.757531 257.366434 
L 137.872245 247.642099 
L 144.101674 264.701376 
L 147.216388 295.158002 
L 150.331103 333.642911 
L 153.445817 345.742353 
L 156.560532 354.630851 
L 159.675246 358.645543 
L 162.789961 362.027729 
L 165.904675 372.314152 
L 169.01939 387.794562 
L 172.134104 407.425928 
L 175.248818 422.494291 
L 184.592962 465.54053 
L 187.707676 477.937505 
L 190.822391 485.188459 
L 197.05182 489.966118 
L 200.166534 492.608467 
L 203.281249 495.837731 
L 206.395963 502.455633 
L 209.510677 507.556023 
L 212.625392 513.150513 
L 215.740106 519.47349 
L 218.854821 522.436495 
L 221.969535 527.240487 
L 225.08425 531.201537 
L 231.313679 535.279853 
L 234.428393 532.762222 
L 237.543108 527.584772 
L 240.657822 522.918962 
L 243.772536 517.738266 
L 246.887251 515.057538 
L 250.001965 513.334513 
L 253.11668 512.383684 
L 256.231394 515.127034 
L 259.346109 519.507336 
L 262.460823 524.613669 
L 265.575538 528.863017 
L 268.690252 530.704212 
L 271.804966 532.325394 
L 274.919681 532.275954 
L 278.034395 532.926604 
L 281.14911 534.86415 
L 284.263824 536.028623 
L 287.378539 538.62042 
L 290.493253 538.638451 
L 293.607968 535.400563 
L 296.722682 530.501018 
L 299.837397 517.941803 
L 302.952111 507.911938 
L 306.066825 504.854691 
L 309.18154 500.326756 
L 312.296254 500.145094 
L 315.410969 501.287847 
L 318.525683 501.088841 
L 321.640398 511.259296 
L 324.755112 517.720833 
L 327.869827 520.916835 
L 330.984541 525.076219 
L 337.21397 520.991367 
L 340.328684 521.063389 
L 343.443399 515.609292 
L 346.558113 517.444137 
L 349.672828 518.578559 
L 352.787542 515.77513 
L 355.902257 518.062027 
L 359.016971 521.241321 
L 362.131686 520.926537 
L 365.2464 522.100235 
L 368.361115 514.25866 
L 371.475829 499.817693 
L 374.590543 497.354428 
L 377.705258 498.143514 
L 380.819972 498.682019 
L 383.934687 505.763391 
L 387.049401 509.35522 
L 390.164116 509.93929 
L 393.27883 517.058249 
L 396.393545 516.193738 
L 399.508259 512.45533 
L 402.622973 506.539347 
L 405.737688 499.501444 
L 408.852402 497.203804 
L 411.967117 500.910552 
L 415.081831 508.874666 
L 418.196546 510.662858 
L 421.31126 509.25081 
L 424.425975 505.783429 
L 427.540689 486.310856 
L 430.655404 469.700833 
L 433.770118 447.5009 
L 436.884832 426.769676 
L 439.999547 419.855418 
L 443.114261 415.288651 
L 446.228976 419.527436 
L 449.34369 442.900533 
L 452.458405 462.387621 
L 455.573119 490.842062 
L 458.687834 511.202731 
L 461.802548 518.353016 
L 464.917263 526.275138 
L 468.031977 526.52504 
L 471.146691 520.549548 
L 474.261406 519.40015 
L 477.37612 515.27975 
L 480.490835 514.834114 
L 483.605549 517.121245 
L 489.834978 514.834054 
L 492.949693 513.037562 
L 496.064407 509.119654 
L 499.179122 507.295802 
L 502.293836 506.309169 
L 505.40855 504.804748 
L 508.523265 503.816651 
L 511.637979 501.84674 
L 514.752694 494.272569 
L 520.982123 477.758057 
L 524.096837 472.443129 
L 527.211552 471.171453 
L 530.326266 471.402379 
L 533.44098 471.904661 
L 536.555695 473.61696 
L 539.670409 472.0684 
L 542.785124 468.956038 
L 545.899838 465.345052 
L 549.014553 463.833823 
L 552.129267 463.123259 
L 555.243982 461.781984 
L 558.358696 464.485253 
L 561.473411 466.274471 
L 564.588125 470.769251 
L 567.702839 475.770312 
L 570.817554 476.51573 
L 573.932268 477.638506 
L 577.046983 476.945084 
L 580.161697 474.83695 
L 583.276412 476.620079 
L 586.391126 474.134039 
L 589.505841 473.697586 
L 592.620555 474.283 
L 595.73527 472.42403 
L 598.849984 472.774299 
L 601.964698 471.147187 
L 605.079413 466.465151 
L 608.194127 468.17262 
L 611.308842 468.845632 
L 614.423556 469.318588 
L 617.538271 470.279438 
L 620.652985 470.388395 
L 623.7677 471.832301 
L 626.882414 474.389267 
L 629.997128 476.319747 
L 633.111843 477.054827 
L 636.226557 476.816025 
L 639.341272 478.609813 
L 642.455986 482.6178 
L 645.570701 488.629303 
L 648.685415 496.78727 
L 651.80013 501.459374 
L 654.914844 503.14922 
L 658.029559 505.33838 
L 661.144273 505.751409 
L 664.258987 506.362125 
L 667.373702 506.752947 
L 670.488416 505.873595 
L 673.603131 503.879139 
L 676.717845 500.225041 
L 682.947274 491.962087 
L 686.061989 487.312513 
L 689.176703 484.688419 
L 695.406132 484.564112 
L 698.520846 487.174616 
L 701.635561 488.850115 
L 704.750275 488.664698 
L 707.86499 488.03057 
L 710.979704 484.314116 
L 714.094419 476.705797 
L 717.209133 473.298807 
L 720.323848 471.638344 
L 723.438562 470.631615 
L 726.553277 473.374027 
L 729.667991 477.922632 
L 732.782705 483.470323 
L 735.89742 490.640841 
L 739.012134 492.560778 
L 742.126849 490.849029 
L 748.356278 488.710719 
L 751.470992 487.381175 
L 754.585707 486.743397 
L 757.700421 487.10455 
L 760.815135 484.194183 
L 763.92985 482.504002 
L 767.044564 481.164325 
L 770.159279 477.050977 
L 773.273993 473.647703 
L 776.388708 466.861098 
L 779.503422 456.703171 
L 782.618137 450.655145 
L 785.732851 446.1542 
L 788.847566 444.59973 
L 791.96228 444.889836 
L 795.076994 444.776984 
L 798.191709 445.780848 
L 801.306423 445.74816 
L 804.421138 446.501433 
L 807.535852 447.046939 
L 810.650567 446.922973 
L 813.765281 447.704281 
L 816.879996 447.62539 
L 819.99471 448.738212 
L 823.109425 448.713211 
L 826.224139 444.910822 
L 829.338853 441.672286 
L 832.453568 437.900636 
L 835.568282 435.307748 
L 838.682997 435.874647 
L 841.797711 438.459224 
L 844.912426 444.852332 
L 848.02714 455.1441 
L 851.141855 461.072065 
L 854.256569 466.448544 
L 857.371284 470.23574 
L 860.485998 472.892956 
L 863.600712 476.849571 
L 866.715427 480.094798 
L 869.830141 482.368293 
L 872.944856 484.137017 
L 876.05957 485.408644 
L 879.174285 486.995288 
L 888.518428 492.410406 
L 891.633142 493.090208 
L 894.747857 494.745595 
L 897.862571 496.875623 
L 904.092 500.162745 
L 907.206715 500.286732 
L 913.436144 497.114466 
L 916.550858 496.069075 
L 925.895001 496.605219 
L 929.009716 496.713389 
L 932.12443 496.49487 
L 935.239145 497.270458 
L 938.353859 498.161265 
L 944.583288 498.785129 
L 947.698003 498.400236 
L 950.812717 497.755003 
L 953.927432 496.595178 
L 957.042146 493.634815 
L 960.15686 491.098382 
L 966.386289 487.310809 
L 969.501004 486.670787 
L 972.615718 485.360844 
L 975.730433 483.010391 
L 978.845147 482.090865 
L 981.959862 479.230306 
L 991.304005 478.340246 
L 994.418719 479.70076 
L 997.533434 480.038261 
L 1003.762863 484.779409 
L 1006.877577 485.210855 
L 1009.992292 486.583756 
L 1013.107006 487.095356 
L 1016.221721 489.316132 
L 1019.336435 498.221919 
L 1028.680578 524.177981 
L 1031.795293 525.721193 
L 1034.910007 522.930429 
L 1038.024722 516.710482 
L 1041.139436 497.540919 
L 1044.254151 490.71666 
L 1047.368865 500.315329 
L 1050.48358 505.147576 
L 1050.48358 505.147576 
" style="fill:none;stroke:#348abd;stroke-linecap:square;stroke-width:1.5;"/>
   </g>
   <g id="line2d_42">
    <path clip-path="url(#pb834bfefc9)" d="M 91.151528 256.325097 
L 94.266243 199.399078 
L 97.380957 335.246764 
L 100.495672 195.250794 
L 103.610386 41.836698 
L 106.725101 179.460532 
L 109.839815 255.052223 
L 112.954529 449.227536 
L 116.069244 459.101372 
L 119.183958 314.731533 
L 122.298673 270.130549 
L 125.413387 97.255013 
L 128.528102 34.896364 
L 131.642816 287.233506 
L 134.757531 338.216705 
L 137.872245 391.031023 
L 140.986959 373.532202 
L 144.101674 330.744823 
L 147.216388 310.451394 
L 150.331103 304.290723 
L 153.445817 371.929602 
L 156.560532 400.436188 
L 159.675246 419.133867 
L 162.789961 397.207506 
L 165.904675 402.749783 
L 169.01939 418.814268 
L 172.134104 441.710283 
L 175.248818 477.408146 
L 178.363533 500.591326 
L 181.478247 516.72919 
L 184.592962 500.780713 
L 187.707676 489.528609 
L 190.822391 469.570949 
L 193.937105 458.037367 
L 197.05182 494.52467 
L 200.166534 519.087771 
L 203.281249 539.334038 
L 206.395963 547.106024 
L 209.510677 525.23134 
L 212.625392 508.732382 
L 215.740106 502.298203 
L 218.854821 515.265707 
L 221.969535 552.715712 
L 225.08425 567.06139 
L 228.198964 561.37727 
L 231.313679 539.508305 
L 234.428393 491.108968 
L 237.543108 466.056052 
L 240.657822 482.605034 
L 243.772536 516.450846 
L 246.887251 548.296289 
L 250.001965 549.316096 
L 253.11668 532.852502 
L 256.231394 510.312418 
L 259.346109 496.718165 
L 262.460823 518.349367 
L 265.575538 546.19628 
L 268.690252 561.184656 
L 271.804966 560.664373 
L 274.919681 532.506418 
L 278.034395 514.866968 
L 281.14911 510.280986 
L 284.263824 526.500682 
L 287.378539 564.338857 
L 290.493253 561.310871 
L 293.607968 537.99916 
L 296.722682 498.209602 
L 299.837397 426.952461 
L 302.952111 440.071936 
L 306.066825 505.099952 
L 312.296254 560.039238 
L 315.410969 545.998425 
L 318.525683 496.816566 
L 321.640398 498.145642 
L 324.755112 485.302694 
L 327.869827 527.471972 
L 330.984541 561.758997 
L 334.099256 546.018002 
L 337.21397 531.425699 
L 340.328684 497.320719 
L 343.443399 459.966961 
L 349.672828 535.412932 
L 352.787542 542.134994 
L 355.902257 562.02628 
L 359.016971 553.680758 
L 362.131686 495.117233 
L 365.2464 468.182841 
L 368.361115 443.255582 
L 371.475829 434.326166 
L 374.590543 524.892133 
L 377.705258 567.549883 
L 380.819972 557.450297 
L 383.934687 544.686835 
L 387.049401 493.325645 
L 390.164116 447.344074 
L 393.27883 484.15888 
L 396.393545 518.840553 
L 399.508259 541.381028 
L 402.622973 516.038412 
L 405.737688 495.421515 
L 408.852402 477.242168 
L 411.967117 473.291304 
L 415.081831 539.907684 
L 418.196546 531.357893 
L 421.31126 531.496693 
L 424.425975 491.766749 
L 427.540689 359.113503 
L 430.655404 360.972003 
L 433.770118 317.891777 
L 436.884832 394.789116 
L 439.999547 482.958085 
L 443.114261 499.529327 
L 446.228976 521.438241 
L 449.34369 522.725183 
L 452.458405 497.38162 
L 458.687834 537.313794 
L 461.802548 533.010079 
L 464.917263 554.984181 
L 468.031977 523.187556 
L 471.146691 480.896742 
L 474.261406 489.335833 
L 477.37612 488.230067 
L 480.490835 534.194341 
L 483.605549 549.019998 
L 486.720264 547.026231 
L 489.834978 515.135165 
L 492.949693 468.321298 
L 496.064407 461.91048 
L 499.179122 475.4631 
L 502.293836 527.287907 
L 505.40855 538.489054 
L 508.523265 540.109555 
L 511.637979 501.345785 
L 514.752694 415.302104 
L 517.867408 404.493904 
L 520.982123 417.278093 
L 524.096837 490.083409 
L 527.211552 529.587319 
L 530.326266 541.72604 
L 533.44098 504.86176 
L 536.555695 427.288192 
L 539.670409 393.653989 
L 542.785124 395.491554 
L 545.899838 464.806511 
L 549.014553 519.008718 
L 552.129267 536.75209 
L 555.243982 495.472838 
L 558.358696 446.211071 
L 561.473411 406.178516 
L 564.588125 426.955014 
L 567.702839 499.813939 
L 570.817554 524.226646 
L 573.932268 544.611518 
L 577.046983 490.618885 
L 580.161697 431.454131 
L 583.276412 418.66042 
L 586.391126 409.552734 
L 589.505841 496.758769 
L 592.620555 528.324543 
L 595.73527 531.598728 
L 598.849984 493.07077 
L 601.964698 420.064343 
L 605.079413 385.886169 
L 608.194127 421.505021 
L 611.308842 501.46985 
L 614.423556 531.635237 
L 617.538271 538.324678 
L 620.652985 493.83347 
L 623.7677 430.171679 
L 626.882414 403.784937 
L 629.997128 435.018382 
L 633.111843 506.615409 
L 636.226557 529.963624 
L 639.341272 550.881192 
L 642.455986 521.88938 
L 645.570701 472.252198 
L 648.685415 460.890708 
L 651.80013 467.723106 
L 654.914844 518.444331 
L 658.029559 545.287747 
L 661.144273 553.772393 
L 664.258987 526.164392 
L 667.373702 474.987951 
L 670.488416 454.735246 
L 673.603131 453.761914 
L 676.717845 492.865642 
L 679.83256 516.012718 
L 682.947274 525.206742 
L 686.061989 493.617377 
L 689.176703 456.619292 
L 692.291418 454.438391 
L 695.406132 453.188619 
L 698.520846 511.139174 
L 701.635561 527.741211 
L 704.750275 523.908823 
L 707.86499 489.178477 
L 710.979704 430.604113 
L 714.094419 401.180161 
L 717.209133 429.339689 
L 720.323848 499.515934 
L 723.438562 520.694108 
L 726.553277 543.105707 
L 729.667991 521.018712 
L 732.782705 469.437948 
L 735.89742 451.373787 
L 739.012134 442.77925 
L 742.126849 487.533688 
L 745.241563 513.210292 
L 748.356278 535.621353 
L 751.470992 511.711907 
L 754.585707 464.973499 
L 757.700421 453.901861 
L 760.815135 422.406678 
L 763.92985 475.702426 
L 767.044564 503.83255 
L 770.159279 506.827917 
L 773.273993 487.888989 
L 776.388708 417.467267 
L 779.503422 382.796371 
L 782.618137 380.070492 
L 785.732851 444.195817 
L 788.847566 492.951254 
L 791.96228 508.858663 
L 795.076994 487.099024 
L 798.191709 424.494318 
L 801.306423 382.567553 
L 804.421138 385.3434 
L 807.535852 448.014361 
L 810.650567 492.083493 
L 813.765281 514.327816 
L 816.879996 486.546791 
L 819.99471 432.284068 
L 823.109425 382.392549 
L 826.224139 358.726676 
L 829.338853 425.344607 
L 832.453568 465.681947 
L 835.568282 496.177596 
L 838.682997 490.515085 
L 841.797711 450.376105 
L 844.912426 427.144305 
L 848.02714 430.769052 
L 854.256569 503.317302 
L 857.371284 522.687967 
L 860.485998 509.115594 
L 863.600712 478.072409 
L 866.715427 449.860893 
L 869.830141 446.68352 
L 876.05957 512.218695 
L 879.174285 533.794473 
L 882.288999 521.754907 
L 885.403714 491.085054 
L 888.518428 462.114764 
L 891.633142 451.44213 
L 894.747857 490.809144 
L 897.862571 527.128887 
L 900.977286 544.986031 
L 904.092 533.573204 
L 910.321429 451.40352 
L 913.436144 439.947509 
L 919.665573 528.453282 
L 922.780287 547.064758 
L 925.895001 533.923085 
L 929.009716 492.710156 
L 932.12443 449.873891 
L 935.239145 445.376622 
L 938.353859 489.72706 
L 941.468574 530.79337 
L 944.583288 549.091721 
L 947.698003 531.228829 
L 950.812717 488.193531 
L 953.927432 441.755115 
L 957.042146 424.654079 
L 960.15686 471.972032 
L 963.271575 517.421797 
L 966.386289 535.950282 
L 969.501004 526.748672 
L 972.615718 479.023932 
L 975.730433 425.301941 
L 978.845147 418.217398 
L 981.959862 451.94812 
L 985.074576 515.287765 
L 988.189291 534.365739 
L 991.304005 524.236824 
L 994.418719 488.547533 
L 997.533434 427.664448 
L 1000.648148 434.768595 
L 1003.762863 468.584956 
L 1006.877577 518.307888 
L 1009.992292 543.97605 
L 1013.107006 527.818024 
L 1016.221721 504.092967 
L 1019.336435 490.004956 
L 1028.680578 554.997906 
L 1031.795293 551.692111 
L 1034.910007 513.864204 
L 1038.024722 472.993232 
L 1041.139436 394.15714 
L 1044.254151 456.595364 
L 1047.368865 557.907342 
L 1050.48358 588.823636 
L 1050.48358 588.823636 
" style="fill:none;stroke:#348abd;stroke-dasharray:1.5,2.475;stroke-dashoffset:0;stroke-width:1.5;"/>
   </g>
   <g id="line2d_43">
    <path clip-path="url(#pb834bfefc9)" d="M 30.103125 500.657342 
L 1099.073125 500.657342 
" style="fill:none;stroke:#008000;stroke-linecap:square;stroke-opacity:0.5;stroke-width:1.5;"/>
   </g>
   <g id="patch_3">
    <path d="M 30.103125 616.52 
L 30.103125 7.2 
" style="fill:none;stroke:#ffffff;stroke-linecap:square;stroke-linejoin:miter;"/>
   </g>
   <g id="patch_4">
    <path d="M 1099.073125 616.52 
L 1099.073125 7.2 
" style="fill:none;stroke:#ffffff;stroke-linecap:square;stroke-linejoin:miter;"/>
   </g>
   <g id="patch_5">
    <path d="M 30.103125 616.52 
L 1099.073125 616.52 
" style="fill:none;stroke:#ffffff;stroke-linecap:square;stroke-linejoin:miter;"/>
   </g>
   <g id="patch_6">
    <path d="M 30.103125 7.2 
L 1099.073125 7.2 
" style="fill:none;stroke:#ffffff;stroke-linecap:square;stroke-linejoin:miter;"/>
   </g>
  </g>
  <g id="axes_2">
   <g id="matplotlib.axis_3">
    <g id="ytick_9">
     <g id="line2d_44">
      <path clip-path="url(#pb834bfefc9)" d="M 30.103125 588.985638 
L 1099.073125 588.985638 
" style="fill:none;stroke:#ffffff;stroke-linecap:square;stroke-width:0.8;"/>
     </g>
     <g id="line2d_45">
      <defs>
       <path d="M 0 0 
L 3.5 0 
" id="m70a08f2974" style="stroke:#555555;stroke-width:0.8;"/>
      </defs>
      <g>
       <use style="fill:#555555;stroke:#555555;stroke-width:0.8;" x="1099.073125" xlink:href="#m70a08f2974" y="588.985638"/>
      </g>
     </g>
     <g id="text_20">
      <!-- 0 -->
      <g style="fill:#555555;" transform="translate(1106.073125 592.784857)scale(0.1 -0.1)">
       <use xlink:href="#DejaVuSans-48"/>
      </g>
     </g>
    </g>
    <g id="ytick_10">
     <g id="line2d_46">
      <path clip-path="url(#pb834bfefc9)" d="M 30.103125 515.348597 
L 1099.073125 515.348597 
" style="fill:none;stroke:#ffffff;stroke-linecap:square;stroke-width:0.8;"/>
     </g>
     <g id="line2d_47">
      <g>
       <use style="fill:#555555;stroke:#555555;stroke-width:0.8;" x="1099.073125" xlink:href="#m70a08f2974" y="515.348597"/>
      </g>
     </g>
     <g id="text_21">
      <!-- 5000 -->
      <g style="fill:#555555;" transform="translate(1106.073125 519.147816)scale(0.1 -0.1)">
       <use xlink:href="#DejaVuSans-53"/>
       <use x="63.623047" xlink:href="#DejaVuSans-48"/>
       <use x="127.246094" xlink:href="#DejaVuSans-48"/>
       <use x="190.869141" xlink:href="#DejaVuSans-48"/>
      </g>
     </g>
    </g>
    <g id="ytick_11">
     <g id="line2d_48">
      <path clip-path="url(#pb834bfefc9)" d="M 30.103125 441.711557 
L 1099.073125 441.711557 
" style="fill:none;stroke:#ffffff;stroke-linecap:square;stroke-width:0.8;"/>
     </g>
     <g id="line2d_49">
      <g>
       <use style="fill:#555555;stroke:#555555;stroke-width:0.8;" x="1099.073125" xlink:href="#m70a08f2974" y="441.711557"/>
      </g>
     </g>
     <g id="text_22">
      <!-- 10000 -->
      <g style="fill:#555555;" transform="translate(1106.073125 445.510776)scale(0.1 -0.1)">
       <use xlink:href="#DejaVuSans-49"/>
       <use x="63.623047" xlink:href="#DejaVuSans-48"/>
       <use x="127.246094" xlink:href="#DejaVuSans-48"/>
       <use x="190.869141" xlink:href="#DejaVuSans-48"/>
       <use x="254.492188" xlink:href="#DejaVuSans-48"/>
      </g>
     </g>
    </g>
    <g id="ytick_12">
     <g id="line2d_50">
      <path clip-path="url(#pb834bfefc9)" d="M 30.103125 368.074517 
L 1099.073125 368.074517 
" style="fill:none;stroke:#ffffff;stroke-linecap:square;stroke-width:0.8;"/>
     </g>
     <g id="line2d_51">
      <g>
       <use style="fill:#555555;stroke:#555555;stroke-width:0.8;" x="1099.073125" xlink:href="#m70a08f2974" y="368.074517"/>
      </g>
     </g>
     <g id="text_23">
      <!-- 15000 -->
      <g style="fill:#555555;" transform="translate(1106.073125 371.873735)scale(0.1 -0.1)">
       <use xlink:href="#DejaVuSans-49"/>
       <use x="63.623047" xlink:href="#DejaVuSans-53"/>
       <use x="127.246094" xlink:href="#DejaVuSans-48"/>
       <use x="190.869141" xlink:href="#DejaVuSans-48"/>
       <use x="254.492188" xlink:href="#DejaVuSans-48"/>
      </g>
     </g>
    </g>
    <g id="ytick_13">
     <g id="line2d_52">
      <path clip-path="url(#pb834bfefc9)" d="M 30.103125 294.437476 
L 1099.073125 294.437476 
" style="fill:none;stroke:#ffffff;stroke-linecap:square;stroke-width:0.8;"/>
     </g>
     <g id="line2d_53">
      <g>
       <use style="fill:#555555;stroke:#555555;stroke-width:0.8;" x="1099.073125" xlink:href="#m70a08f2974" y="294.437476"/>
      </g>
     </g>
     <g id="text_24">
      <!-- 20000 -->
      <g style="fill:#555555;" transform="translate(1106.073125 298.236695)scale(0.1 -0.1)">
       <use xlink:href="#DejaVuSans-50"/>
       <use x="63.623047" xlink:href="#DejaVuSans-48"/>
       <use x="127.246094" xlink:href="#DejaVuSans-48"/>
       <use x="190.869141" xlink:href="#DejaVuSans-48"/>
       <use x="254.492188" xlink:href="#DejaVuSans-48"/>
      </g>
     </g>
    </g>
    <g id="ytick_14">
     <g id="line2d_54">
      <path clip-path="url(#pb834bfefc9)" d="M 30.103125 220.800436 
L 1099.073125 220.800436 
" style="fill:none;stroke:#ffffff;stroke-linecap:square;stroke-width:0.8;"/>
     </g>
     <g id="line2d_55">
      <g>
       <use style="fill:#555555;stroke:#555555;stroke-width:0.8;" x="1099.073125" xlink:href="#m70a08f2974" y="220.800436"/>
      </g>
     </g>
     <g id="text_25">
      <!-- 25000 -->
      <g style="fill:#555555;" transform="translate(1106.073125 224.599655)scale(0.1 -0.1)">
       <use xlink:href="#DejaVuSans-50"/>
       <use x="63.623047" xlink:href="#DejaVuSans-53"/>
       <use x="127.246094" xlink:href="#DejaVuSans-48"/>
       <use x="190.869141" xlink:href="#DejaVuSans-48"/>
       <use x="254.492188" xlink:href="#DejaVuSans-48"/>
      </g>
     </g>
    </g>
    <g id="ytick_15">
     <g id="line2d_56">
      <path clip-path="url(#pb834bfefc9)" d="M 30.103125 147.163395 
L 1099.073125 147.163395 
" style="fill:none;stroke:#ffffff;stroke-linecap:square;stroke-width:0.8;"/>
     </g>
     <g id="line2d_57">
      <g>
       <use style="fill:#555555;stroke:#555555;stroke-width:0.8;" x="1099.073125" xlink:href="#m70a08f2974" y="147.163395"/>
      </g>
     </g>
     <g id="text_26">
      <!-- 30000 -->
      <g style="fill:#555555;" transform="translate(1106.073125 150.962614)scale(0.1 -0.1)">
       <use xlink:href="#DejaVuSans-51"/>
       <use x="63.623047" xlink:href="#DejaVuSans-48"/>
       <use x="127.246094" xlink:href="#DejaVuSans-48"/>
       <use x="190.869141" xlink:href="#DejaVuSans-48"/>
       <use x="254.492188" xlink:href="#DejaVuSans-48"/>
      </g>
     </g>
    </g>
    <g id="ytick_16">
     <g id="line2d_58">
      <path clip-path="url(#pb834bfefc9)" d="M 30.103125 73.526355 
L 1099.073125 73.526355 
" style="fill:none;stroke:#ffffff;stroke-linecap:square;stroke-width:0.8;"/>
     </g>
     <g id="line2d_59">
      <g>
       <use style="fill:#555555;stroke:#555555;stroke-width:0.8;" x="1099.073125" xlink:href="#m70a08f2974" y="73.526355"/>
      </g>
     </g>
     <g id="text_27">
      <!-- 35000 -->
      <g style="fill:#555555;" transform="translate(1106.073125 77.325574)scale(0.1 -0.1)">
       <use xlink:href="#DejaVuSans-51"/>
       <use x="63.623047" xlink:href="#DejaVuSans-53"/>
       <use x="127.246094" xlink:href="#DejaVuSans-48"/>
       <use x="190.869141" xlink:href="#DejaVuSans-48"/>
       <use x="254.492188" xlink:href="#DejaVuSans-48"/>
      </g>
     </g>
    </g>
   </g>
   <g id="line2d_60">
    <path clip-path="url(#pb834bfefc9)" d="M 78.69267 588.205085 
L 81.807385 588.514361 
L 84.922099 588.362178 
L 91.151528 588.408323 
L 94.266243 588.342541 
L 97.380957 588.144072 
L 103.610386 587.447676 
L 106.725101 587.355103 
L 109.839815 586.915385 
L 112.954529 586.671331 
L 116.069244 586.240028 
L 119.183958 584.843028 
L 122.298673 583.887851 
L 125.413387 582.673892 
L 134.757531 576.656693 
L 137.872245 575.034575 
L 140.986959 570.828848 
L 144.101674 566.063479 
L 147.216388 561.914558 
L 150.331103 560.010514 
L 153.445817 553.934407 
L 156.560532 546.318233 
L 159.675246 539.846589 
L 162.789961 535.316859 
L 165.904675 529.37961 
L 169.01939 521.828657 
L 172.134104 517.58506 
L 175.248818 516.135462 
L 178.363533 516.448945 
L 181.478247 513.640218 
L 184.592962 511.111312 
L 187.707676 510.282369 
L 190.822391 510.728399 
L 193.937105 506.581582 
L 197.05182 508.841187 
L 200.166534 510.484345 
L 203.281249 513.535022 
L 206.395963 516.02185 
L 209.510677 517.812282 
L 212.625392 521.912814 
L 215.740106 528.46651 
L 218.854821 530.864974 
L 221.969535 534.551034 
L 225.08425 537.742673 
L 228.198964 542.177727 
L 231.313679 546.265635 
L 234.428393 547.368087 
L 237.543108 548.131808 
L 240.657822 549.734991 
L 246.887251 550.883729 
L 250.001965 551.965142 
L 253.11668 554.159526 
L 256.231394 557.42901 
L 265.575538 561.887207 
L 271.804966 565.688982 
L 274.919681 567.157515 
L 278.034395 569.492861 
L 281.14911 571.478957 
L 284.263824 572.192185 
L 287.378539 573.157882 
L 290.493253 573.90898 
L 293.607968 574.317139 
L 296.722682 575.221823 
L 299.837397 574.578025 
L 302.952111 574.843118 
L 306.066825 575.520579 
L 309.18154 574.998808 
L 312.296254 575.312291 
L 315.410969 576.050766 
L 318.525683 576.673525 
L 321.640398 578.001095 
L 324.755112 578.177824 
L 327.869827 578.209383 
L 330.984541 579.093027 
L 334.099256 579.095131 
L 337.21397 579.490667 
L 340.328684 580.443741 
L 343.443399 580.405871 
L 346.558113 580.725666 
L 352.787542 581.007591 
L 359.016971 582.747529 
L 362.131686 582.156328 
L 365.2464 581.945937 
L 368.361115 582.251005 
L 371.475829 582.158432 
L 374.590543 582.61919 
L 377.705258 582.661268 
L 380.819972 582.575008 
L 383.934687 583.067324 
L 387.049401 583.76372 
L 390.164116 583.732161 
L 393.27883 583.982527 
L 396.393545 583.694291 
L 399.508259 583.744784 
L 402.622973 583.406054 
L 405.737688 583.929929 
L 415.081831 584.213958 
L 424.425975 584.045644 
L 427.540689 582.96844 
L 430.655404 582.436149 
L 433.770118 581.510426 
L 436.884832 580.784575 
L 439.999547 580.521586 
L 443.114261 580.012439 
L 446.228976 579.907243 
L 449.34369 580.52369 
L 452.458405 580.342753 
L 455.573119 581.249541 
L 458.687834 581.828118 
L 461.802548 581.838637 
L 468.031977 582.360408 
L 471.146691 582.42563 
L 474.261406 582.983167 
L 480.490835 583.109402 
L 486.720264 583.481795 
L 496.064407 583.810006 
L 499.179122 583.791071 
L 502.293836 583.917306 
L 505.40855 583.871019 
L 508.523265 583.9678 
L 511.637979 583.774239 
L 517.867408 583.061012 
L 520.982123 583.157792 
L 533.44098 582.446669 
L 539.670409 581.428374 
L 549.014553 580.786679 
L 552.129267 580.302779 
L 555.243982 579.602175 
L 558.358696 579.48646 
L 561.473411 579.120378 
L 564.588125 579.257133 
L 567.702839 578.901571 
L 570.817554 578.384008 
L 573.932268 578.264085 
L 577.046983 577.963225 
L 580.161697 577.38044 
L 583.276412 577.029086 
L 586.391126 576.366353 
L 589.505841 576.519939 
L 592.620555 576.336898 
L 595.73527 575.316499 
L 598.849984 574.474933 
L 605.079413 573.223103 
L 608.194127 573.075829 
L 611.308842 572.81284 
L 614.423556 571.92078 
L 620.652985 570.772042 
L 623.7677 570.818328 
L 626.882414 569.516004 
L 633.111843 568.870102 
L 636.226557 569.105741 
L 639.341272 568.966882 
L 642.455986 569.387666 
L 645.570701 569.084702 
L 648.685415 570.252375 
L 651.80013 570.246063 
L 658.029559 570.584793 
L 661.144273 571.258046 
L 664.258987 571.670414 
L 670.488416 572.131171 
L 676.717845 571.274878 
L 679.83256 570.683677 
L 682.947274 570.851991 
L 686.061989 569.629616 
L 689.176703 569.564394 
L 692.291418 569.034208 
L 695.406132 569.118364 
L 698.520846 568.880622 
L 701.635561 569.074182 
L 704.750275 567.548843 
L 707.86499 566.913461 
L 710.979704 566.00457 
L 714.094419 564.601258 
L 717.209133 563.766003 
L 720.323848 563.776523 
L 723.438562 562.905502 
L 726.553277 563.183219 
L 729.667991 563.290519 
L 735.89742 562.350068 
L 739.012134 562.213314 
L 745.241563 561.081407 
L 748.356278 561.020394 
L 751.470992 560.262984 
L 754.585707 559.168948 
L 757.700421 559.051129 
L 760.815135 557.222826 
L 763.92985 556.823083 
L 767.044564 555.665929 
L 770.159279 553.498896 
L 773.273993 550.227308 
L 776.388708 546.349791 
L 779.503422 541.809542 
L 782.618137 539.276428 
L 785.732851 536.993679 
L 788.847566 533.873573 
L 791.96228 529.026152 
L 795.076994 523.59805 
L 798.191709 517.669216 
L 801.306423 511.128143 
L 804.421138 506.701505 
L 807.535852 502.79243 
L 810.650567 497.015078 
L 813.765281 491.833135 
L 816.879996 482.052032 
L 819.99471 473.82993 
L 823.109425 459.346576 
L 826.224139 447.587793 
L 829.338853 438.414722 
L 832.453568 428.860842 
L 835.568282 413.357089 
L 838.682997 401.812905 
L 841.797711 386.161878 
L 844.912426 377.020365 
L 848.02714 370.706515 
L 851.141855 363.527955 
L 854.256569 355.232217 
L 857.371284 350.498407 
L 860.485998 343.732215 
L 863.600712 337.788654 
L 866.715427 328.657661 
L 869.830141 324.786456 
L 872.944856 322.1229 
L 876.05957 322.164978 
L 879.174285 319.486693 
L 882.288999 315.539748 
L 885.403714 311.256176 
L 888.518428 313.229649 
L 891.633142 311.273008 
L 894.747857 316.614849 
L 900.977286 320.483949 
L 904.092 318.92074 
L 907.206715 318.697725 
L 910.321429 317.639456 
L 913.436144 320.176778 
L 916.550858 320.092621 
L 919.665573 321.912508 
L 922.780287 319.657111 
L 925.895001 320.374546 
L 929.009716 322.146043 
L 932.12443 324.815911 
L 935.239145 327.193336 
L 938.353859 326.551642 
L 941.468574 326.446446 
L 944.583288 329.314082 
L 947.698003 329.781152 
L 950.812717 328.428334 
L 953.927432 325.013679 
L 957.042146 318.373722 
L 960.15686 315.926869 
L 963.271575 314.980107 
L 966.386289 307.521726 
L 969.501004 304.086032 
L 972.615718 290.566272 
L 975.730433 279.794225 
L 978.845147 274.675399 
L 981.959862 266.196619 
L 985.074576 265.401339 
L 988.189291 250.856972 
L 991.304005 244.03187 
L 994.418719 235.822392 
L 997.533434 229.800986 
L 1000.648148 224.391819 
L 1003.762863 223.800619 
L 1006.877577 213.079066 
L 1009.992292 219.365566 
L 1013.107006 208.273723 
L 1016.221721 225.618402 
L 1019.336435 261.058858 
L 1028.680578 192.682868 
L 1031.795293 199.401512 
L 1034.910007 198.349975 
L 1038.024722 206.034736 
L 1041.139436 211.233512 
L 1044.254151 248.87333 
L 1047.368865 276.743547 
L 1050.48358 330.868876 
L 1050.48358 330.868876 
" style="fill:none;stroke:#000000;stroke-linecap:square;stroke-width:1.5;"/>
   </g>
   <g id="line2d_61">
    <path clip-path="url(#pb834bfefc9)" d="M 78.69267 588.205085 
L 81.807385 588.823636 
L 84.922099 588.057811 
L 88.036814 588.57327 
L 91.151528 588.381814 
L 94.266243 588.013629 
L 97.380957 586.953256 
L 100.495672 585.465787 
L 103.610386 586.688162 
L 106.725101 587.409805 
L 109.839815 585.495242 
L 112.954529 586.673435 
L 116.069244 584.99451 
L 119.183958 577.174257 
L 122.298673 578.779544 
L 125.413387 578.190448 
L 128.528102 573.624951 
L 131.642816 571.695661 
L 134.757531 572.137483 
L 137.872245 573.639679 
L 140.986959 547.734168 
L 144.101674 545.421965 
L 147.216388 549.147999 
L 150.331103 560.296647 
L 153.445817 529.162906 
L 156.560532 518.824266 
L 159.675246 528.338171 
L 165.904675 503.861219 
L 169.01939 496.291331 
L 172.134104 530.591465 
L 175.248818 519.015722 
L 178.363533 521.01865 
L 181.478247 508.677082 
L 184.592962 498.323714 
L 187.707676 498.05862 
L 190.822391 499.413542 
L 193.937105 501.563743 
L 197.05182 534.832958 
L 200.166534 532.520755 
L 203.281249 530.031823 
L 206.395963 515.73151 
L 209.510677 510.591645 
L 212.625392 528.11726 
L 215.740106 547.43962 
L 218.854821 551.622204 
L 221.969535 558.323174 
L 225.08425 552.373301 
L 228.198964 546.776886 
L 231.313679 539.206999 
L 234.428393 535.834422 
L 237.543108 552.785669 
L 240.657822 562.844489 
L 243.772536 562.697214 
L 246.887251 556.040426 
L 250.001965 554.346774 
L 253.11668 554.567685 
L 256.231394 558.720814 
L 259.346109 563.40413 
L 262.460823 573.993136 
L 265.575538 572.137483 
L 268.690252 569.781098 
L 271.804966 567.218529 
L 274.919681 564.847416 
L 278.034395 575.068237 
L 281.14911 577.306803 
L 284.263824 578.985728 
L 287.378539 578.897363 
L 290.493253 575.038782 
L 293.607968 570.075646 
L 296.722682 571.180201 
L 299.837397 570.56165 
L 302.952111 579.162457 
L 306.066825 583.727953 
L 309.18154 575.244966 
L 312.296254 577.233166 
L 315.410969 575.244966 
L 318.525683 575.539514 
L 321.640398 579.854645 
L 324.755112 580.399559 
L 327.869827 583.948864 
L 330.984541 581.430478 
L 334.099256 577.247894 
L 337.21397 578.013719 
L 340.328684 582.21103 
L 343.443399 579.589551 
L 346.558113 582.638125 
L 349.672828 584.729417 
L 352.787542 582.623398 
L 355.902257 583.654316 
L 359.016971 583.786863 
L 362.131686 578.072628 
L 365.2464 578.116811 
L 368.361115 584.773599 
L 371.475829 584.081411 
L 374.590543 585.8487 
L 377.705258 583.948864 
L 380.819972 583.183039 
L 383.934687 581.518842 
L 393.27883 585.833973 
L 396.393545 583.831045 
L 399.508259 584.302322 
L 402.622973 580.811926 
L 405.737688 585.185967 
L 408.852402 583.8605 
L 411.967117 585.347968 
L 415.081831 586.157976 
L 418.196546 583.418678 
L 421.31126 583.904682 
L 424.425975 580.443741 
L 427.540689 577.645534 
L 430.655404 580.134466 
L 433.770118 578.867909 
L 436.884832 581.07702 
L 439.999547 581.577752 
L 443.114261 580.340649 
L 446.228976 579.707371 
L 449.34369 581.960664 
L 452.458405 578.867909 
L 455.573119 585.215421 
L 458.687834 585.127057 
L 461.802548 581.651389 
L 464.917263 582.122666 
L 468.031977 581.577752 
L 471.146691 582.417214 
L 474.261406 582.770672 
L 477.37612 585.465787 
L 480.490835 585.760335 
L 483.605549 583.241949 
L 486.720264 583.138857 
L 489.834978 582.476123 
L 492.949693 583.168312 
L 496.064407 583.418678 
L 499.179122 585.333241 
L 502.293836 586.64398 
L 505.40855 582.917946 
L 508.523265 583.816318 
L 511.637979 581.121202 
L 514.752694 580.399559 
L 517.867408 581.194839 
L 520.982123 586.010701 
L 524.096837 585.318513 
L 527.211552 581.297931 
L 530.326266 582.299395 
L 533.44098 580.605743 
L 536.555695 576.9828 
L 539.670409 577.483532 
L 542.785124 584.493778 
L 545.899838 583.978319 
L 549.014553 579.663189 
L 552.129267 578.912091 
L 555.243982 575.701516 
L 558.358696 576.172793 
L 561.473411 574.920963 
L 564.588125 585.45106 
L 567.702839 581.489387 
L 570.817554 576.040246 
L 573.932268 578.072628 
L 577.046983 573.595496 
L 580.161697 572.093301 
L 583.276412 572.461486 
L 586.391126 580.811926 
L 589.505841 582.564488 
L 592.620555 574.758962 
L 595.73527 570.929836 
L 598.849984 567.704533 
L 601.964698 567.645624 
L 605.079413 568.146355 
L 608.194127 579.781008 
L 611.308842 580.723562 
L 614.423556 568.514541 
L 617.538271 566.747252 
L 620.652985 563.845952 
L 623.7677 567.969627 
L 626.882414 559.03009 
L 629.997128 577.468805 
L 633.111843 578.514451 
L 636.226557 570.16401 
L 639.341272 565.775243 
L 642.455986 566.791434 
L 645.570701 565.84888 
L 648.685415 567.203801 
L 651.80013 577.424623 
L 654.914844 580.001919 
L 658.029559 571.047655 
L 661.144273 570.488013 
L 664.258987 569.678006 
L 667.373702 567.586714 
L 670.488416 568.69127 
L 673.603131 574.434959 
L 676.717845 576.997528 
L 679.83256 566.909253 
L 682.947274 571.666206 
L 686.061989 561.121382 
L 689.176703 567.130164 
L 692.291418 564.979963 
L 695.406132 575.024055 
L 698.520846 575.333331 
L 704.750275 560.988835 
L 707.86499 556.673705 
L 710.979704 560.767924 
L 714.094419 555.156781 
L 717.209133 569.177274 
L 720.323848 575.406968 
L 723.438562 562.167028 
L 726.553277 562.932853 
L 729.667991 557.424802 
L 732.782705 557.277528 
L 735.89742 552.064026 
L 739.012134 568.219992 
L 742.126849 571.430567 
L 745.241563 558.220082 
L 748.356278 562.505758 
L 751.470992 552.122935 
L 754.585707 549.619276 
L 757.700421 551.239291 
L 760.815135 555.421875 
L 763.92985 568.63236 
L 767.044564 550.120008 
L 770.159279 547.336528 
L 773.273993 529.221816 
L 776.388708 522.476663 
L 779.503422 519.457544 
L 782.618137 537.690076 
L 785.732851 552.653122 
L 788.847566 528.279262 
L 791.96228 513.40458 
L 795.076994 491.225103 
L 798.191709 480.974827 
L 801.306423 473.670033 
L 804.421138 506.703609 
L 807.535852 525.289598 
L 810.650567 487.837799 
L 813.765281 477.130973 
L 816.879996 422.757383 
L 819.99471 423.420116 
L 823.109425 372.286555 
L 826.224139 424.392125 
L 829.338853 461.078099 
L 832.453568 420.960639 
L 835.568282 368.604703 
L 838.682997 341.948095 
L 841.797711 313.862927 
L 844.912426 308.295967 
L 848.02714 380.195173 
L 851.141855 410.828182 
L 854.256569 362.890469 
L 857.371284 335.468035 
L 860.485998 294.58475 
L 863.600712 272.258 
L 866.715427 244.379016 
L 869.830141 353.096743 
L 872.944856 392.183284 
L 876.05957 363.185017 
L 879.174285 316.720045 
L 882.288999 266.956133 
L 885.403714 242.272997 
L 888.518428 258.193325 
L 891.633142 339.400253 
L 894.747857 429.576173 
L 897.862571 376.631141 
L 900.977286 330.357625 
L 904.092 256.013669 
L 907.206715 240.711892 
L 910.321429 250.785439 
L 913.436144 357.161507 
L 916.550858 428.987076 
L 919.665573 389.370349 
L 922.780287 314.569843 
L 925.895001 261.035715 
L 929.009716 253.112369 
L 932.12443 269.47452 
L 935.239145 373.803478 
L 938.353859 424.495217 
L 941.468574 388.633978 
L 944.583288 334.6433 
L 947.698003 264.305199 
L 950.812717 243.642646 
L 953.927432 245.571936 
L 960.15686 407.367241 
L 963.271575 382.006645 
L 966.386289 282.434639 
L 969.501004 240.255342 
L 972.615718 149.004321 
L 975.730433 170.167607 
L 978.845147 291.491995 
L 981.959862 348.015787 
L 985.074576 376.439684 
L 988.189291 180.624067 
L 991.304005 192.47963 
L 994.418719 91.537975 
L 997.533434 128.017765 
L 1000.648148 253.627828 
L 1003.762863 343.877385 
L 1006.877577 301.388813 
L 1009.992292 224.629562 
L 1013.107006 114.836735 
L 1016.221721 212.950727 
L 1019.336435 376.100954 
L 1028.680578 34.896364 
L 1031.795293 258.22278 
L 1034.910007 109.57905 
L 1038.024722 251.374535 
L 1041.139436 402.094829 
L 1044.254151 437.072424 
L 1047.368865 443.96485 
L 1050.48358 413.773664 
L 1050.48358 413.773664 
" style="fill:none;stroke:#000000;stroke-dasharray:1.5,2.475;stroke-dashoffset:0;stroke-width:1.5;"/>
   </g>
   <g id="patch_7">
    <path d="M 30.103125 616.52 
L 30.103125 7.2 
" style="fill:none;stroke:#ffffff;stroke-linecap:square;stroke-linejoin:miter;"/>
   </g>
   <g id="patch_8">
    <path d="M 1099.073125 616.52 
L 1099.073125 7.2 
" style="fill:none;stroke:#ffffff;stroke-linecap:square;stroke-linejoin:miter;"/>
   </g>
   <g id="patch_9">
    <path d="M 30.103125 616.52 
L 1099.073125 616.52 
" style="fill:none;stroke:#ffffff;stroke-linecap:square;stroke-linejoin:miter;"/>
   </g>
   <g id="patch_10">
    <path d="M 30.103125 7.2 
L 1099.073125 7.2 
" style="fill:none;stroke:#ffffff;stroke-linecap:square;stroke-linejoin:miter;"/>
   </g>
   <g id="legend_1">
    <g id="patch_11">
     <path d="M 37.103125 103.26875 
L 194.298438 103.26875 
Q 196.298438 103.26875 196.298438 101.26875 
L 196.298438 14.2 
Q 196.298438 12.2 194.298438 12.2 
L 37.103125 12.2 
Q 35.103125 12.2 35.103125 14.2 
L 35.103125 101.26875 
Q 35.103125 103.26875 37.103125 103.26875 
z
" style="fill:#e5e5e5;opacity:0.8;stroke:#cccccc;stroke-linejoin:miter;stroke-width:0.5;"/>
    </g>
    <g id="line2d_62">
     <path d="M 39.103125 20.298437 
L 59.103125 20.298437 
" style="fill:none;stroke:#e24a33;stroke-linecap:square;stroke-width:1.5;"/>
    </g>
    <g id="line2d_63"/>
    <g id="text_28">
     <!-- Logistic rate rolling week -->
     <g transform="translate(67.103125 23.798437)scale(0.1 -0.1)">
      <defs>
       <path d="M 9.8125 72.90625 
L 19.671875 72.90625 
L 19.671875 8.296875 
L 55.171875 8.296875 
L 55.171875 0 
L 9.8125 0 
z
" id="DejaVuSans-76"/>
       <path d="M 30.609375 48.390625 
Q 23.390625 48.390625 19.1875 42.75 
Q 14.984375 37.109375 14.984375 27.296875 
Q 14.984375 17.484375 19.15625 11.84375 
Q 23.34375 6.203125 30.609375 6.203125 
Q 37.796875 6.203125 41.984375 11.859375 
Q 46.1875 17.53125 46.1875 27.296875 
Q 46.1875 37.015625 41.984375 42.703125 
Q 37.796875 48.390625 30.609375 48.390625 
z
M 30.609375 56 
Q 42.328125 56 49.015625 48.375 
Q 55.71875 40.765625 55.71875 27.296875 
Q 55.71875 13.875 49.015625 6.21875 
Q 42.328125 -1.421875 30.609375 -1.421875 
Q 18.84375 -1.421875 12.171875 6.21875 
Q 5.515625 13.875 5.515625 27.296875 
Q 5.515625 40.765625 12.171875 48.375 
Q 18.84375 56 30.609375 56 
z
" id="DejaVuSans-111"/>
       <path d="M 45.40625 27.984375 
Q 45.40625 37.75 41.375 43.109375 
Q 37.359375 48.484375 30.078125 48.484375 
Q 22.859375 48.484375 18.828125 43.109375 
Q 14.796875 37.75 14.796875 27.984375 
Q 14.796875 18.265625 18.828125 12.890625 
Q 22.859375 7.515625 30.078125 7.515625 
Q 37.359375 7.515625 41.375 12.890625 
Q 45.40625 18.265625 45.40625 27.984375 
z
M 54.390625 6.78125 
Q 54.390625 -7.171875 48.1875 -13.984375 
Q 42 -20.796875 29.203125 -20.796875 
Q 24.46875 -20.796875 20.265625 -20.09375 
Q 16.0625 -19.390625 12.109375 -17.921875 
L 12.109375 -9.1875 
Q 16.0625 -11.328125 19.921875 -12.34375 
Q 23.78125 -13.375 27.78125 -13.375 
Q 36.625 -13.375 41.015625 -8.765625 
Q 45.40625 -4.15625 45.40625 5.171875 
L 45.40625 9.625 
Q 42.625 4.78125 38.28125 2.390625 
Q 33.9375 0 27.875 0 
Q 17.828125 0 11.671875 7.65625 
Q 5.515625 15.328125 5.515625 27.984375 
Q 5.515625 40.671875 11.671875 48.328125 
Q 17.828125 56 27.875 56 
Q 33.9375 56 38.28125 53.609375 
Q 42.625 51.21875 45.40625 46.390625 
L 45.40625 54.6875 
L 54.390625 54.6875 
z
" id="DejaVuSans-103"/>
       <path d="M 9.421875 54.6875 
L 18.40625 54.6875 
L 18.40625 0 
L 9.421875 0 
z
M 9.421875 75.984375 
L 18.40625 75.984375 
L 18.40625 64.59375 
L 9.421875 64.59375 
z
" id="DejaVuSans-105"/>
       <path d="M 44.28125 53.078125 
L 44.28125 44.578125 
Q 40.484375 46.53125 36.375 47.5 
Q 32.28125 48.484375 27.875 48.484375 
Q 21.1875 48.484375 17.84375 46.4375 
Q 14.5 44.390625 14.5 40.28125 
Q 14.5 37.15625 16.890625 35.375 
Q 19.28125 33.59375 26.515625 31.984375 
L 29.59375 31.296875 
Q 39.15625 29.25 43.1875 25.515625 
Q 47.21875 21.78125 47.21875 15.09375 
Q 47.21875 7.46875 41.1875 3.015625 
Q 35.15625 -1.421875 24.609375 -1.421875 
Q 20.21875 -1.421875 15.453125 -0.5625 
Q 10.6875 0.296875 5.421875 2 
L 5.421875 11.28125 
Q 10.40625 8.6875 15.234375 7.390625 
Q 20.0625 6.109375 24.8125 6.109375 
Q 31.15625 6.109375 34.5625 8.28125 
Q 37.984375 10.453125 37.984375 14.40625 
Q 37.984375 18.0625 35.515625 20.015625 
Q 33.0625 21.96875 24.703125 23.78125 
L 21.578125 24.515625 
Q 13.234375 26.265625 9.515625 29.90625 
Q 5.8125 33.546875 5.8125 39.890625 
Q 5.8125 47.609375 11.28125 51.796875 
Q 16.75 56 26.8125 56 
Q 31.78125 56 36.171875 55.265625 
Q 40.578125 54.546875 44.28125 53.078125 
z
" id="DejaVuSans-115"/>
       <path d="M 18.3125 70.21875 
L 18.3125 54.6875 
L 36.8125 54.6875 
L 36.8125 47.703125 
L 18.3125 47.703125 
L 18.3125 18.015625 
Q 18.3125 11.328125 20.140625 9.421875 
Q 21.96875 7.515625 27.59375 7.515625 
L 36.8125 7.515625 
L 36.8125 0 
L 27.59375 0 
Q 17.1875 0 13.234375 3.875 
Q 9.28125 7.765625 9.28125 18.015625 
L 9.28125 47.703125 
L 2.6875 47.703125 
L 2.6875 54.6875 
L 9.28125 54.6875 
L 9.28125 70.21875 
z
" id="DejaVuSans-116"/>
       <path d="M 48.78125 52.59375 
L 48.78125 44.1875 
Q 44.96875 46.296875 41.140625 47.34375 
Q 37.3125 48.390625 33.40625 48.390625 
Q 24.65625 48.390625 19.8125 42.84375 
Q 14.984375 37.3125 14.984375 27.296875 
Q 14.984375 17.28125 19.8125 11.734375 
Q 24.65625 6.203125 33.40625 6.203125 
Q 37.3125 6.203125 41.140625 7.25 
Q 44.96875 8.296875 48.78125 10.40625 
L 48.78125 2.09375 
Q 45.015625 0.34375 40.984375 -0.53125 
Q 36.96875 -1.421875 32.421875 -1.421875 
Q 20.0625 -1.421875 12.78125 6.34375 
Q 5.515625 14.109375 5.515625 27.296875 
Q 5.515625 40.671875 12.859375 48.328125 
Q 20.21875 56 33.015625 56 
Q 37.15625 56 41.109375 55.140625 
Q 45.0625 54.296875 48.78125 52.59375 
z
" id="DejaVuSans-99"/>
       <path id="DejaVuSans-32"/>
       <path d="M 41.109375 46.296875 
Q 39.59375 47.171875 37.8125 47.578125 
Q 36.03125 48 33.890625 48 
Q 26.265625 48 22.1875 43.046875 
Q 18.109375 38.09375 18.109375 28.8125 
L 18.109375 0 
L 9.078125 0 
L 9.078125 54.6875 
L 18.109375 54.6875 
L 18.109375 46.1875 
Q 20.953125 51.171875 25.484375 53.578125 
Q 30.03125 56 36.53125 56 
Q 37.453125 56 38.578125 55.875 
Q 39.703125 55.765625 41.0625 55.515625 
z
" id="DejaVuSans-114"/>
       <path d="M 34.28125 27.484375 
Q 23.390625 27.484375 19.1875 25 
Q 14.984375 22.515625 14.984375 16.5 
Q 14.984375 11.71875 18.140625 8.90625 
Q 21.296875 6.109375 26.703125 6.109375 
Q 34.1875 6.109375 38.703125 11.40625 
Q 43.21875 16.703125 43.21875 25.484375 
L 43.21875 27.484375 
z
M 52.203125 31.203125 
L 52.203125 0 
L 43.21875 0 
L 43.21875 8.296875 
Q 40.140625 3.328125 35.546875 0.953125 
Q 30.953125 -1.421875 24.3125 -1.421875 
Q 15.921875 -1.421875 10.953125 3.296875 
Q 6 8.015625 6 15.921875 
Q 6 25.140625 12.171875 29.828125 
Q 18.359375 34.515625 30.609375 34.515625 
L 43.21875 34.515625 
L 43.21875 35.40625 
Q 43.21875 41.609375 39.140625 45 
Q 35.0625 48.390625 27.6875 48.390625 
Q 23 48.390625 18.546875 47.265625 
Q 14.109375 46.140625 10.015625 43.890625 
L 10.015625 52.203125 
Q 14.9375 54.109375 19.578125 55.046875 
Q 24.21875 56 28.609375 56 
Q 40.484375 56 46.34375 49.84375 
Q 52.203125 43.703125 52.203125 31.203125 
z
" id="DejaVuSans-97"/>
       <path d="M 56.203125 29.59375 
L 56.203125 25.203125 
L 14.890625 25.203125 
Q 15.484375 15.921875 20.484375 11.0625 
Q 25.484375 6.203125 34.421875 6.203125 
Q 39.59375 6.203125 44.453125 7.46875 
Q 49.3125 8.734375 54.109375 11.28125 
L 54.109375 2.78125 
Q 49.265625 0.734375 44.1875 -0.34375 
Q 39.109375 -1.421875 33.890625 -1.421875 
Q 20.796875 -1.421875 13.15625 6.1875 
Q 5.515625 13.8125 5.515625 26.8125 
Q 5.515625 40.234375 12.765625 48.109375 
Q 20.015625 56 32.328125 56 
Q 43.359375 56 49.78125 48.890625 
Q 56.203125 41.796875 56.203125 29.59375 
z
M 47.21875 32.234375 
Q 47.125 39.59375 43.09375 43.984375 
Q 39.0625 48.390625 32.421875 48.390625 
Q 24.90625 48.390625 20.390625 44.140625 
Q 15.875 39.890625 15.1875 32.171875 
z
" id="DejaVuSans-101"/>
       <path d="M 9.421875 75.984375 
L 18.40625 75.984375 
L 18.40625 0 
L 9.421875 0 
z
" id="DejaVuSans-108"/>
       <path d="M 54.890625 33.015625 
L 54.890625 0 
L 45.90625 0 
L 45.90625 32.71875 
Q 45.90625 40.484375 42.875 44.328125 
Q 39.84375 48.1875 33.796875 48.1875 
Q 26.515625 48.1875 22.3125 43.546875 
Q 18.109375 38.921875 18.109375 30.90625 
L 18.109375 0 
L 9.078125 0 
L 9.078125 54.6875 
L 18.109375 54.6875 
L 18.109375 46.1875 
Q 21.34375 51.125 25.703125 53.5625 
Q 30.078125 56 35.796875 56 
Q 45.21875 56 50.046875 50.171875 
Q 54.890625 44.34375 54.890625 33.015625 
z
" id="DejaVuSans-110"/>
       <path d="M 4.203125 54.6875 
L 13.1875 54.6875 
L 24.421875 12.015625 
L 35.59375 54.6875 
L 46.1875 54.6875 
L 57.421875 12.015625 
L 68.609375 54.6875 
L 77.59375 54.6875 
L 63.28125 0 
L 52.6875 0 
L 40.921875 44.828125 
L 29.109375 0 
L 18.5 0 
z
" id="DejaVuSans-119"/>
       <path d="M 9.078125 75.984375 
L 18.109375 75.984375 
L 18.109375 31.109375 
L 44.921875 54.6875 
L 56.390625 54.6875 
L 27.390625 29.109375 
L 57.625 0 
L 45.90625 0 
L 18.109375 26.703125 
L 18.109375 0 
L 9.078125 0 
z
" id="DejaVuSans-107"/>
      </defs>
      <use xlink:href="#DejaVuSans-76"/>
      <use x="53.962891" xlink:href="#DejaVuSans-111"/>
      <use x="115.144531" xlink:href="#DejaVuSans-103"/>
      <use x="178.621094" xlink:href="#DejaVuSans-105"/>
      <use x="206.404297" xlink:href="#DejaVuSans-115"/>
      <use x="258.503906" xlink:href="#DejaVuSans-116"/>
      <use x="297.712891" xlink:href="#DejaVuSans-105"/>
      <use x="325.496094" xlink:href="#DejaVuSans-99"/>
      <use x="380.476562" xlink:href="#DejaVuSans-32"/>
      <use x="412.263672" xlink:href="#DejaVuSans-114"/>
      <use x="453.376953" xlink:href="#DejaVuSans-97"/>
      <use x="514.65625" xlink:href="#DejaVuSans-116"/>
      <use x="553.865234" xlink:href="#DejaVuSans-101"/>
      <use x="615.388672" xlink:href="#DejaVuSans-32"/>
      <use x="647.175781" xlink:href="#DejaVuSans-114"/>
      <use x="686.039062" xlink:href="#DejaVuSans-111"/>
      <use x="747.220703" xlink:href="#DejaVuSans-108"/>
      <use x="775.003906" xlink:href="#DejaVuSans-108"/>
      <use x="802.787109" xlink:href="#DejaVuSans-105"/>
      <use x="830.570312" xlink:href="#DejaVuSans-110"/>
      <use x="893.949219" xlink:href="#DejaVuSans-103"/>
      <use x="957.425781" xlink:href="#DejaVuSans-32"/>
      <use x="989.212891" xlink:href="#DejaVuSans-119"/>
      <use x="1071" xlink:href="#DejaVuSans-101"/>
      <use x="1132.523438" xlink:href="#DejaVuSans-101"/>
      <use x="1194.046875" xlink:href="#DejaVuSans-107"/>
     </g>
    </g>
    <g id="line2d_64">
     <path d="M 39.103125 34.976562 
L 59.103125 34.976562 
" style="fill:none;stroke:#e24a33;stroke-dasharray:1.5,2.475;stroke-dashoffset:0;stroke-width:1.5;"/>
    </g>
    <g id="line2d_65"/>
    <g id="text_29">
     <!-- Logistic rate -->
     <g transform="translate(67.103125 38.476562)scale(0.1 -0.1)">
      <use xlink:href="#DejaVuSans-76"/>
      <use x="53.962891" xlink:href="#DejaVuSans-111"/>
      <use x="115.144531" xlink:href="#DejaVuSans-103"/>
      <use x="178.621094" xlink:href="#DejaVuSans-105"/>
      <use x="206.404297" xlink:href="#DejaVuSans-115"/>
      <use x="258.503906" xlink:href="#DejaVuSans-116"/>
      <use x="297.712891" xlink:href="#DejaVuSans-105"/>
      <use x="325.496094" xlink:href="#DejaVuSans-99"/>
      <use x="380.476562" xlink:href="#DejaVuSans-32"/>
      <use x="412.263672" xlink:href="#DejaVuSans-114"/>
      <use x="453.376953" xlink:href="#DejaVuSans-97"/>
      <use x="514.65625" xlink:href="#DejaVuSans-116"/>
      <use x="553.865234" xlink:href="#DejaVuSans-101"/>
     </g>
    </g>
    <g id="line2d_66">
     <path d="M 39.103125 49.654687 
L 59.103125 49.654687 
" style="fill:none;stroke:#348abd;stroke-linecap:square;stroke-width:1.5;"/>
    </g>
    <g id="line2d_67"/>
    <g id="text_30">
     <!-- RKI rate rolling week -->
     <g transform="translate(67.103125 53.154687)scale(0.1 -0.1)">
      <defs>
       <path d="M 44.390625 34.1875 
Q 47.5625 33.109375 50.5625 29.59375 
Q 53.5625 26.078125 56.59375 19.921875 
L 66.609375 0 
L 56 0 
L 46.6875 18.703125 
Q 43.0625 26.03125 39.671875 28.421875 
Q 36.28125 30.8125 30.421875 30.8125 
L 19.671875 30.8125 
L 19.671875 0 
L 9.8125 0 
L 9.8125 72.90625 
L 32.078125 72.90625 
Q 44.578125 72.90625 50.734375 67.671875 
Q 56.890625 62.453125 56.890625 51.90625 
Q 56.890625 45.015625 53.6875 40.46875 
Q 50.484375 35.9375 44.390625 34.1875 
z
M 19.671875 64.796875 
L 19.671875 38.921875 
L 32.078125 38.921875 
Q 39.203125 38.921875 42.84375 42.21875 
Q 46.484375 45.515625 46.484375 51.90625 
Q 46.484375 58.296875 42.84375 61.546875 
Q 39.203125 64.796875 32.078125 64.796875 
z
" id="DejaVuSans-82"/>
       <path d="M 9.8125 72.90625 
L 19.671875 72.90625 
L 19.671875 42.09375 
L 52.390625 72.90625 
L 65.09375 72.90625 
L 28.90625 38.921875 
L 67.671875 0 
L 54.6875 0 
L 19.671875 35.109375 
L 19.671875 0 
L 9.8125 0 
z
" id="DejaVuSans-75"/>
       <path d="M 9.8125 72.90625 
L 19.671875 72.90625 
L 19.671875 0 
L 9.8125 0 
z
" id="DejaVuSans-73"/>
      </defs>
      <use xlink:href="#DejaVuSans-82"/>
      <use x="69.482422" xlink:href="#DejaVuSans-75"/>
      <use x="135.058594" xlink:href="#DejaVuSans-73"/>
      <use x="164.550781" xlink:href="#DejaVuSans-32"/>
      <use x="196.337891" xlink:href="#DejaVuSans-114"/>
      <use x="237.451172" xlink:href="#DejaVuSans-97"/>
      <use x="298.730469" xlink:href="#DejaVuSans-116"/>
      <use x="337.939453" xlink:href="#DejaVuSans-101"/>
      <use x="399.462891" xlink:href="#DejaVuSans-32"/>
      <use x="431.25" xlink:href="#DejaVuSans-114"/>
      <use x="470.113281" xlink:href="#DejaVuSans-111"/>
      <use x="531.294922" xlink:href="#DejaVuSans-108"/>
      <use x="559.078125" xlink:href="#DejaVuSans-108"/>
      <use x="586.861328" xlink:href="#DejaVuSans-105"/>
      <use x="614.644531" xlink:href="#DejaVuSans-110"/>
      <use x="678.023438" xlink:href="#DejaVuSans-103"/>
      <use x="741.5" xlink:href="#DejaVuSans-32"/>
      <use x="773.287109" xlink:href="#DejaVuSans-119"/>
      <use x="855.074219" xlink:href="#DejaVuSans-101"/>
      <use x="916.597656" xlink:href="#DejaVuSans-101"/>
      <use x="978.121094" xlink:href="#DejaVuSans-107"/>
     </g>
    </g>
    <g id="line2d_68">
     <path d="M 39.103125 64.332812 
L 59.103125 64.332812 
" style="fill:none;stroke:#348abd;stroke-dasharray:1.5,2.475;stroke-dashoffset:0;stroke-width:1.5;"/>
    </g>
    <g id="line2d_69"/>
    <g id="text_31">
     <!-- RKI rate -->
     <g transform="translate(67.103125 67.832812)scale(0.1 -0.1)">
      <use xlink:href="#DejaVuSans-82"/>
      <use x="69.482422" xlink:href="#DejaVuSans-75"/>
      <use x="135.058594" xlink:href="#DejaVuSans-73"/>
      <use x="164.550781" xlink:href="#DejaVuSans-32"/>
      <use x="196.337891" xlink:href="#DejaVuSans-114"/>
      <use x="237.451172" xlink:href="#DejaVuSans-97"/>
      <use x="298.730469" xlink:href="#DejaVuSans-116"/>
      <use x="337.939453" xlink:href="#DejaVuSans-101"/>
     </g>
    </g>
    <g id="line2d_70">
     <path d="M 39.103125 79.010937 
L 59.103125 79.010937 
" style="fill:none;stroke:#000000;stroke-linecap:square;stroke-width:1.5;"/>
    </g>
    <g id="line2d_71"/>
    <g id="text_32">
     <!-- New Cases rolling week -->
     <g transform="translate(67.103125 82.510937)scale(0.1 -0.1)">
      <defs>
       <path d="M 9.8125 72.90625 
L 23.09375 72.90625 
L 55.421875 11.921875 
L 55.421875 72.90625 
L 64.984375 72.90625 
L 64.984375 0 
L 51.703125 0 
L 19.390625 60.984375 
L 19.390625 0 
L 9.8125 0 
z
" id="DejaVuSans-78"/>
       <path d="M 64.40625 67.28125 
L 64.40625 56.890625 
Q 59.421875 61.53125 53.78125 63.8125 
Q 48.140625 66.109375 41.796875 66.109375 
Q 29.296875 66.109375 22.65625 58.46875 
Q 16.015625 50.828125 16.015625 36.375 
Q 16.015625 21.96875 22.65625 14.328125 
Q 29.296875 6.6875 41.796875 6.6875 
Q 48.140625 6.6875 53.78125 8.984375 
Q 59.421875 11.28125 64.40625 15.921875 
L 64.40625 5.609375 
Q 59.234375 2.09375 53.4375 0.328125 
Q 47.65625 -1.421875 41.21875 -1.421875 
Q 24.65625 -1.421875 15.125 8.703125 
Q 5.609375 18.84375 5.609375 36.375 
Q 5.609375 53.953125 15.125 64.078125 
Q 24.65625 74.21875 41.21875 74.21875 
Q 47.75 74.21875 53.53125 72.484375 
Q 59.328125 70.75 64.40625 67.28125 
z
" id="DejaVuSans-67"/>
      </defs>
      <use xlink:href="#DejaVuSans-78"/>
      <use x="74.804688" xlink:href="#DejaVuSans-101"/>
      <use x="136.328125" xlink:href="#DejaVuSans-119"/>
      <use x="218.115234" xlink:href="#DejaVuSans-32"/>
      <use x="249.902344" xlink:href="#DejaVuSans-67"/>
      <use x="319.726562" xlink:href="#DejaVuSans-97"/>
      <use x="381.005859" xlink:href="#DejaVuSans-115"/>
      <use x="433.105469" xlink:href="#DejaVuSans-101"/>
      <use x="494.628906" xlink:href="#DejaVuSans-115"/>
      <use x="546.728516" xlink:href="#DejaVuSans-32"/>
      <use x="578.515625" xlink:href="#DejaVuSans-114"/>
      <use x="617.378906" xlink:href="#DejaVuSans-111"/>
      <use x="678.560547" xlink:href="#DejaVuSans-108"/>
      <use x="706.34375" xlink:href="#DejaVuSans-108"/>
      <use x="734.126953" xlink:href="#DejaVuSans-105"/>
      <use x="761.910156" xlink:href="#DejaVuSans-110"/>
      <use x="825.289062" xlink:href="#DejaVuSans-103"/>
      <use x="888.765625" xlink:href="#DejaVuSans-32"/>
      <use x="920.552734" xlink:href="#DejaVuSans-119"/>
      <use x="1002.339844" xlink:href="#DejaVuSans-101"/>
      <use x="1063.863281" xlink:href="#DejaVuSans-101"/>
      <use x="1125.386719" xlink:href="#DejaVuSans-107"/>
     </g>
    </g>
    <g id="line2d_72">
     <path d="M 39.103125 93.689062 
L 59.103125 93.689062 
" style="fill:none;stroke:#000000;stroke-dasharray:1.5,2.475;stroke-dashoffset:0;stroke-width:1.5;"/>
    </g>
    <g id="line2d_73"/>
    <g id="text_33">
     <!-- New Cases -->
     <g transform="translate(67.103125 97.189062)scale(0.1 -0.1)">
      <use xlink:href="#DejaVuSans-78"/>
      <use x="74.804688" xlink:href="#DejaVuSans-101"/>
      <use x="136.328125" xlink:href="#DejaVuSans-119"/>
      <use x="218.115234" xlink:href="#DejaVuSans-32"/>
      <use x="249.902344" xlink:href="#DejaVuSans-67"/>
      <use x="319.726562" xlink:href="#DejaVuSans-97"/>
      <use x="381.005859" xlink:href="#DejaVuSans-115"/>
      <use x="433.105469" xlink:href="#DejaVuSans-101"/>
      <use x="494.628906" xlink:href="#DejaVuSans-115"/>
     </g>
    </g>
   </g>
  </g>
 </g>
 <defs>
  <clipPath id="pb834bfefc9">
   <rect height="609.32" width="1068.97" x="30.103125" y="7.2"/>
  </clipPath>
 </defs>
</svg>
