<?xml version="1.0" encoding="utf-8" standalone="no"?>
<!DOCTYPE svg PUBLIC "-//W3C//DTD SVG 1.1//EN"
  "http://www.w3.org/Graphics/SVG/1.1/DTD/svg11.dtd">
<!-- Created with matplotlib (https://matplotlib.org/) -->
<svg height="640.398125pt" version="1.1" viewBox="0 0 1145.085625 640.398125" width="1145.085625pt" xmlns="http://www.w3.org/2000/svg" xmlns:xlink="http://www.w3.org/1999/xlink">
 <metadata>
  <rdf:RDF xmlns:cc="http://creativecommons.org/ns#" xmlns:dc="http://purl.org/dc/elements/1.1/" xmlns:rdf="http://www.w3.org/1999/02/22-rdf-syntax-ns#">
   <cc:Work>
    <dc:type rdf:resource="http://purl.org/dc/dcmitype/StillImage"/>
    <dc:date>2021-03-11T09:01:25.630664</dc:date>
    <dc:format>image/svg+xml</dc:format>
    <dc:creator>
     <cc:Agent>
      <dc:title>Matplotlib v3.3.2, https://matplotlib.org/</dc:title>
     </cc:Agent>
    </dc:creator>
   </cc:Work>
  </rdf:RDF>
 </metadata>
 <defs>
  <style type="text/css">*{stroke-linecap:butt;stroke-linejoin:round;}</style>
 </defs>
 <g id="figure_1">
  <g id="patch_1">
   <path d="M 0 640.398125 
L 1145.085625 640.398125 
L 1145.085625 0 
L 0 0 
z
" style="fill:#ffffff;"/>
  </g>
  <g id="axes_1">
   <g id="patch_2">
    <path d="M 30.103125 616.52 
L 1099.073125 616.52 
L 1099.073125 7.2 
L 30.103125 7.2 
z
" style="fill:#e5e5e5;"/>
   </g>
   <g id="matplotlib.axis_1">
    <g id="xtick_1">
     <g id="line2d_1">
      <path clip-path="url(#p86294d6b2e)" d="M 83.84806 616.52 
L 83.84806 7.2 
" style="fill:none;stroke:#ffffff;stroke-linecap:square;stroke-width:0.8;"/>
     </g>
     <g id="line2d_2">
      <defs>
       <path d="M 0 0 
L 0 3.5 
" id="m53fbfdc402" style="stroke:#555555;stroke-width:0.8;"/>
      </defs>
      <g>
       <use style="fill:#555555;stroke:#555555;stroke-width:0.8;" x="83.84806" xlink:href="#m53fbfdc402" y="616.52"/>
      </g>
     </g>
     <g id="text_1">
      <!-- 2020-03 -->
      <g style="fill:#555555;" transform="translate(62.956654 631.118437)scale(0.1 -0.1)">
       <defs>
        <path d="M 19.1875 8.296875 
L 53.609375 8.296875 
L 53.609375 0 
L 7.328125 0 
L 7.328125 8.296875 
Q 12.9375 14.109375 22.625 23.890625 
Q 32.328125 33.6875 34.8125 36.53125 
Q 39.546875 41.84375 41.421875 45.53125 
Q 43.3125 49.21875 43.3125 52.78125 
Q 43.3125 58.59375 39.234375 62.25 
Q 35.15625 65.921875 28.609375 65.921875 
Q 23.96875 65.921875 18.8125 64.3125 
Q 13.671875 62.703125 7.8125 59.421875 
L 7.8125 69.390625 
Q 13.765625 71.78125 18.9375 73 
Q 24.125 74.21875 28.421875 74.21875 
Q 39.75 74.21875 46.484375 68.546875 
Q 53.21875 62.890625 53.21875 53.421875 
Q 53.21875 48.921875 51.53125 44.890625 
Q 49.859375 40.875 45.40625 35.40625 
Q 44.1875 33.984375 37.640625 27.21875 
Q 31.109375 20.453125 19.1875 8.296875 
z
" id="DejaVuSans-50"/>
        <path d="M 31.78125 66.40625 
Q 24.171875 66.40625 20.328125 58.90625 
Q 16.5 51.421875 16.5 36.375 
Q 16.5 21.390625 20.328125 13.890625 
Q 24.171875 6.390625 31.78125 6.390625 
Q 39.453125 6.390625 43.28125 13.890625 
Q 47.125 21.390625 47.125 36.375 
Q 47.125 51.421875 43.28125 58.90625 
Q 39.453125 66.40625 31.78125 66.40625 
z
M 31.78125 74.21875 
Q 44.046875 74.21875 50.515625 64.515625 
Q 56.984375 54.828125 56.984375 36.375 
Q 56.984375 17.96875 50.515625 8.265625 
Q 44.046875 -1.421875 31.78125 -1.421875 
Q 19.53125 -1.421875 13.0625 8.265625 
Q 6.59375 17.96875 6.59375 36.375 
Q 6.59375 54.828125 13.0625 64.515625 
Q 19.53125 74.21875 31.78125 74.21875 
z
" id="DejaVuSans-48"/>
        <path d="M 4.890625 31.390625 
L 31.203125 31.390625 
L 31.203125 23.390625 
L 4.890625 23.390625 
z
" id="DejaVuSans-45"/>
        <path d="M 40.578125 39.3125 
Q 47.65625 37.796875 51.625 33 
Q 55.609375 28.21875 55.609375 21.1875 
Q 55.609375 10.40625 48.1875 4.484375 
Q 40.765625 -1.421875 27.09375 -1.421875 
Q 22.515625 -1.421875 17.65625 -0.515625 
Q 12.796875 0.390625 7.625 2.203125 
L 7.625 11.71875 
Q 11.71875 9.328125 16.59375 8.109375 
Q 21.484375 6.890625 26.8125 6.890625 
Q 36.078125 6.890625 40.9375 10.546875 
Q 45.796875 14.203125 45.796875 21.1875 
Q 45.796875 27.640625 41.28125 31.265625 
Q 36.765625 34.90625 28.71875 34.90625 
L 20.21875 34.90625 
L 20.21875 43.015625 
L 29.109375 43.015625 
Q 36.375 43.015625 40.234375 45.921875 
Q 44.09375 48.828125 44.09375 54.296875 
Q 44.09375 59.90625 40.109375 62.90625 
Q 36.140625 65.921875 28.71875 65.921875 
Q 24.65625 65.921875 20.015625 65.03125 
Q 15.375 64.15625 9.8125 62.3125 
L 9.8125 71.09375 
Q 15.4375 72.65625 20.34375 73.4375 
Q 25.25 74.21875 29.59375 74.21875 
Q 40.828125 74.21875 47.359375 69.109375 
Q 53.90625 64.015625 53.90625 55.328125 
Q 53.90625 49.265625 50.4375 45.09375 
Q 46.96875 40.921875 40.578125 39.3125 
z
" id="DejaVuSans-51"/>
       </defs>
       <use xlink:href="#DejaVuSans-50"/>
       <use x="63.623047" xlink:href="#DejaVuSans-48"/>
       <use x="127.246094" xlink:href="#DejaVuSans-50"/>
       <use x="190.869141" xlink:href="#DejaVuSans-48"/>
       <use x="254.492188" xlink:href="#DejaVuSans-45"/>
       <use x="290.576172" xlink:href="#DejaVuSans-48"/>
       <use x="354.199219" xlink:href="#DejaVuSans-51"/>
      </g>
     </g>
    </g>
    <g id="xtick_2">
     <g id="line2d_3">
      <path clip-path="url(#p86294d6b2e)" d="M 241.087438 616.52 
L 241.087438 7.2 
" style="fill:none;stroke:#ffffff;stroke-linecap:square;stroke-width:0.8;"/>
     </g>
     <g id="line2d_4">
      <g>
       <use style="fill:#555555;stroke:#555555;stroke-width:0.8;" x="241.087438" xlink:href="#m53fbfdc402" y="616.52"/>
      </g>
     </g>
     <g id="text_2">
      <!-- 2020-05 -->
      <g style="fill:#555555;" transform="translate(220.196032 631.118437)scale(0.1 -0.1)">
       <defs>
        <path d="M 10.796875 72.90625 
L 49.515625 72.90625 
L 49.515625 64.59375 
L 19.828125 64.59375 
L 19.828125 46.734375 
Q 21.96875 47.46875 24.109375 47.828125 
Q 26.265625 48.1875 28.421875 48.1875 
Q 40.625 48.1875 47.75 41.5 
Q 54.890625 34.8125 54.890625 23.390625 
Q 54.890625 11.625 47.5625 5.09375 
Q 40.234375 -1.421875 26.90625 -1.421875 
Q 22.3125 -1.421875 17.546875 -0.640625 
Q 12.796875 0.140625 7.71875 1.703125 
L 7.71875 11.625 
Q 12.109375 9.234375 16.796875 8.0625 
Q 21.484375 6.890625 26.703125 6.890625 
Q 35.15625 6.890625 40.078125 11.328125 
Q 45.015625 15.765625 45.015625 23.390625 
Q 45.015625 31 40.078125 35.4375 
Q 35.15625 39.890625 26.703125 39.890625 
Q 22.75 39.890625 18.8125 39.015625 
Q 14.890625 38.140625 10.796875 36.28125 
z
" id="DejaVuSans-53"/>
       </defs>
       <use xlink:href="#DejaVuSans-50"/>
       <use x="63.623047" xlink:href="#DejaVuSans-48"/>
       <use x="127.246094" xlink:href="#DejaVuSans-50"/>
       <use x="190.869141" xlink:href="#DejaVuSans-48"/>
       <use x="254.492188" xlink:href="#DejaVuSans-45"/>
       <use x="290.576172" xlink:href="#DejaVuSans-48"/>
       <use x="354.199219" xlink:href="#DejaVuSans-53"/>
      </g>
     </g>
    </g>
    <g id="xtick_3">
     <g id="line2d_5">
      <path clip-path="url(#p86294d6b2e)" d="M 398.326816 616.52 
L 398.326816 7.2 
" style="fill:none;stroke:#ffffff;stroke-linecap:square;stroke-width:0.8;"/>
     </g>
     <g id="line2d_6">
      <g>
       <use style="fill:#555555;stroke:#555555;stroke-width:0.8;" x="398.326816" xlink:href="#m53fbfdc402" y="616.52"/>
      </g>
     </g>
     <g id="text_3">
      <!-- 2020-07 -->
      <g style="fill:#555555;" transform="translate(377.435409 631.118437)scale(0.1 -0.1)">
       <defs>
        <path d="M 8.203125 72.90625 
L 55.078125 72.90625 
L 55.078125 68.703125 
L 28.609375 0 
L 18.3125 0 
L 43.21875 64.59375 
L 8.203125 64.59375 
z
" id="DejaVuSans-55"/>
       </defs>
       <use xlink:href="#DejaVuSans-50"/>
       <use x="63.623047" xlink:href="#DejaVuSans-48"/>
       <use x="127.246094" xlink:href="#DejaVuSans-50"/>
       <use x="190.869141" xlink:href="#DejaVuSans-48"/>
       <use x="254.492188" xlink:href="#DejaVuSans-45"/>
       <use x="290.576172" xlink:href="#DejaVuSans-48"/>
       <use x="354.199219" xlink:href="#DejaVuSans-55"/>
      </g>
     </g>
    </g>
    <g id="xtick_4">
     <g id="line2d_7">
      <path clip-path="url(#p86294d6b2e)" d="M 558.143888 616.52 
L 558.143888 7.2 
" style="fill:none;stroke:#ffffff;stroke-linecap:square;stroke-width:0.8;"/>
     </g>
     <g id="line2d_8">
      <g>
       <use style="fill:#555555;stroke:#555555;stroke-width:0.8;" x="558.143888" xlink:href="#m53fbfdc402" y="616.52"/>
      </g>
     </g>
     <g id="text_4">
      <!-- 2020-09 -->
      <g style="fill:#555555;" transform="translate(537.252482 631.118437)scale(0.1 -0.1)">
       <defs>
        <path d="M 10.984375 1.515625 
L 10.984375 10.5 
Q 14.703125 8.734375 18.5 7.8125 
Q 22.3125 6.890625 25.984375 6.890625 
Q 35.75 6.890625 40.890625 13.453125 
Q 46.046875 20.015625 46.78125 33.40625 
Q 43.953125 29.203125 39.59375 26.953125 
Q 35.25 24.703125 29.984375 24.703125 
Q 19.046875 24.703125 12.671875 31.3125 
Q 6.296875 37.9375 6.296875 49.421875 
Q 6.296875 60.640625 12.9375 67.421875 
Q 19.578125 74.21875 30.609375 74.21875 
Q 43.265625 74.21875 49.921875 64.515625 
Q 56.59375 54.828125 56.59375 36.375 
Q 56.59375 19.140625 48.40625 8.859375 
Q 40.234375 -1.421875 26.421875 -1.421875 
Q 22.703125 -1.421875 18.890625 -0.6875 
Q 15.09375 0.046875 10.984375 1.515625 
z
M 30.609375 32.421875 
Q 37.25 32.421875 41.125 36.953125 
Q 45.015625 41.5 45.015625 49.421875 
Q 45.015625 57.28125 41.125 61.84375 
Q 37.25 66.40625 30.609375 66.40625 
Q 23.96875 66.40625 20.09375 61.84375 
Q 16.21875 57.28125 16.21875 49.421875 
Q 16.21875 41.5 20.09375 36.953125 
Q 23.96875 32.421875 30.609375 32.421875 
z
" id="DejaVuSans-57"/>
       </defs>
       <use xlink:href="#DejaVuSans-50"/>
       <use x="63.623047" xlink:href="#DejaVuSans-48"/>
       <use x="127.246094" xlink:href="#DejaVuSans-50"/>
       <use x="190.869141" xlink:href="#DejaVuSans-48"/>
       <use x="254.492188" xlink:href="#DejaVuSans-45"/>
       <use x="290.576172" xlink:href="#DejaVuSans-48"/>
       <use x="354.199219" xlink:href="#DejaVuSans-57"/>
      </g>
     </g>
    </g>
    <g id="xtick_5">
     <g id="line2d_9">
      <path clip-path="url(#p86294d6b2e)" d="M 715.383266 616.52 
L 715.383266 7.2 
" style="fill:none;stroke:#ffffff;stroke-linecap:square;stroke-width:0.8;"/>
     </g>
     <g id="line2d_10">
      <g>
       <use style="fill:#555555;stroke:#555555;stroke-width:0.8;" x="715.383266" xlink:href="#m53fbfdc402" y="616.52"/>
      </g>
     </g>
     <g id="text_5">
      <!-- 2020-11 -->
      <g style="fill:#555555;" transform="translate(694.49186 631.118437)scale(0.1 -0.1)">
       <defs>
        <path d="M 12.40625 8.296875 
L 28.515625 8.296875 
L 28.515625 63.921875 
L 10.984375 60.40625 
L 10.984375 69.390625 
L 28.421875 72.90625 
L 38.28125 72.90625 
L 38.28125 8.296875 
L 54.390625 8.296875 
L 54.390625 0 
L 12.40625 0 
z
" id="DejaVuSans-49"/>
       </defs>
       <use xlink:href="#DejaVuSans-50"/>
       <use x="63.623047" xlink:href="#DejaVuSans-48"/>
       <use x="127.246094" xlink:href="#DejaVuSans-50"/>
       <use x="190.869141" xlink:href="#DejaVuSans-48"/>
       <use x="254.492188" xlink:href="#DejaVuSans-45"/>
       <use x="290.576172" xlink:href="#DejaVuSans-49"/>
       <use x="354.199219" xlink:href="#DejaVuSans-49"/>
      </g>
     </g>
    </g>
    <g id="xtick_6">
     <g id="line2d_11">
      <path clip-path="url(#p86294d6b2e)" d="M 872.622644 616.52 
L 872.622644 7.2 
" style="fill:none;stroke:#ffffff;stroke-linecap:square;stroke-width:0.8;"/>
     </g>
     <g id="line2d_12">
      <g>
       <use style="fill:#555555;stroke:#555555;stroke-width:0.8;" x="872.622644" xlink:href="#m53fbfdc402" y="616.52"/>
      </g>
     </g>
     <g id="text_6">
      <!-- 2021-01 -->
      <g style="fill:#555555;" transform="translate(851.731238 631.118437)scale(0.1 -0.1)">
       <use xlink:href="#DejaVuSans-50"/>
       <use x="63.623047" xlink:href="#DejaVuSans-48"/>
       <use x="127.246094" xlink:href="#DejaVuSans-50"/>
       <use x="190.869141" xlink:href="#DejaVuSans-49"/>
       <use x="254.492188" xlink:href="#DejaVuSans-45"/>
       <use x="290.576172" xlink:href="#DejaVuSans-48"/>
       <use x="354.199219" xlink:href="#DejaVuSans-49"/>
      </g>
     </g>
    </g>
    <g id="xtick_7">
     <g id="line2d_13">
      <path clip-path="url(#p86294d6b2e)" d="M 1024.706632 616.52 
L 1024.706632 7.2 
" style="fill:none;stroke:#ffffff;stroke-linecap:square;stroke-width:0.8;"/>
     </g>
     <g id="line2d_14">
      <g>
       <use style="fill:#555555;stroke:#555555;stroke-width:0.8;" x="1024.706632" xlink:href="#m53fbfdc402" y="616.52"/>
      </g>
     </g>
     <g id="text_7">
      <!-- 2021-03 -->
      <g style="fill:#555555;" transform="translate(1003.815226 631.118437)scale(0.1 -0.1)">
       <use xlink:href="#DejaVuSans-50"/>
       <use x="63.623047" xlink:href="#DejaVuSans-48"/>
       <use x="127.246094" xlink:href="#DejaVuSans-50"/>
       <use x="190.869141" xlink:href="#DejaVuSans-49"/>
       <use x="254.492188" xlink:href="#DejaVuSans-45"/>
       <use x="290.576172" xlink:href="#DejaVuSans-48"/>
       <use x="354.199219" xlink:href="#DejaVuSans-51"/>
      </g>
     </g>
    </g>
   </g>
   <g id="matplotlib.axis_2">
    <g id="ytick_1">
     <g id="line2d_15">
      <path clip-path="url(#p86294d6b2e)" d="M 30.103125 587.741318 
L 1099.073125 587.741318 
" style="fill:none;stroke:#ffffff;stroke-linecap:square;stroke-width:0.8;"/>
     </g>
     <g id="line2d_16">
      <defs>
       <path d="M 0 0 
L -3.5 0 
" id="mb220da6c8b" style="stroke:#555555;stroke-width:0.8;"/>
      </defs>
      <g>
       <use style="fill:#555555;stroke:#555555;stroke-width:0.8;" x="30.103125" xlink:href="#mb220da6c8b" y="587.741318"/>
      </g>
     </g>
     <g id="text_8">
      <!-- 0.5 -->
      <g style="fill:#555555;" transform="translate(7.2 591.540537)scale(0.1 -0.1)">
       <defs>
        <path d="M 10.6875 12.40625 
L 21 12.40625 
L 21 0 
L 10.6875 0 
z
" id="DejaVuSans-46"/>
       </defs>
       <use xlink:href="#DejaVuSans-48"/>
       <use x="63.623047" xlink:href="#DejaVuSans-46"/>
       <use x="95.410156" xlink:href="#DejaVuSans-53"/>
      </g>
     </g>
    </g>
    <g id="ytick_2">
     <g id="line2d_17">
      <path clip-path="url(#p86294d6b2e)" d="M 30.103125 513.773155 
L 1099.073125 513.773155 
" style="fill:none;stroke:#ffffff;stroke-linecap:square;stroke-width:0.8;"/>
     </g>
     <g id="line2d_18">
      <g>
       <use style="fill:#555555;stroke:#555555;stroke-width:0.8;" x="30.103125" xlink:href="#mb220da6c8b" y="513.773155"/>
      </g>
     </g>
     <g id="text_9">
      <!-- 1.0 -->
      <g style="fill:#555555;" transform="translate(7.2 517.572373)scale(0.1 -0.1)">
       <use xlink:href="#DejaVuSans-49"/>
       <use x="63.623047" xlink:href="#DejaVuSans-46"/>
       <use x="95.410156" xlink:href="#DejaVuSans-48"/>
      </g>
     </g>
    </g>
    <g id="ytick_3">
     <g id="line2d_19">
      <path clip-path="url(#p86294d6b2e)" d="M 30.103125 439.804991 
L 1099.073125 439.804991 
" style="fill:none;stroke:#ffffff;stroke-linecap:square;stroke-width:0.8;"/>
     </g>
     <g id="line2d_20">
      <g>
       <use style="fill:#555555;stroke:#555555;stroke-width:0.8;" x="30.103125" xlink:href="#mb220da6c8b" y="439.804991"/>
      </g>
     </g>
     <g id="text_10">
      <!-- 1.5 -->
      <g style="fill:#555555;" transform="translate(7.2 443.60421)scale(0.1 -0.1)">
       <use xlink:href="#DejaVuSans-49"/>
       <use x="63.623047" xlink:href="#DejaVuSans-46"/>
       <use x="95.410156" xlink:href="#DejaVuSans-53"/>
      </g>
     </g>
    </g>
    <g id="ytick_4">
     <g id="line2d_21">
      <path clip-path="url(#p86294d6b2e)" d="M 30.103125 365.836827 
L 1099.073125 365.836827 
" style="fill:none;stroke:#ffffff;stroke-linecap:square;stroke-width:0.8;"/>
     </g>
     <g id="line2d_22">
      <g>
       <use style="fill:#555555;stroke:#555555;stroke-width:0.8;" x="30.103125" xlink:href="#mb220da6c8b" y="365.836827"/>
      </g>
     </g>
     <g id="text_11">
      <!-- 2.0 -->
      <g style="fill:#555555;" transform="translate(7.2 369.636046)scale(0.1 -0.1)">
       <use xlink:href="#DejaVuSans-50"/>
       <use x="63.623047" xlink:href="#DejaVuSans-46"/>
       <use x="95.410156" xlink:href="#DejaVuSans-48"/>
      </g>
     </g>
    </g>
    <g id="ytick_5">
     <g id="line2d_23">
      <path clip-path="url(#p86294d6b2e)" d="M 30.103125 291.868663 
L 1099.073125 291.868663 
" style="fill:none;stroke:#ffffff;stroke-linecap:square;stroke-width:0.8;"/>
     </g>
     <g id="line2d_24">
      <g>
       <use style="fill:#555555;stroke:#555555;stroke-width:0.8;" x="30.103125" xlink:href="#mb220da6c8b" y="291.868663"/>
      </g>
     </g>
     <g id="text_12">
      <!-- 2.5 -->
      <g style="fill:#555555;" transform="translate(7.2 295.667882)scale(0.1 -0.1)">
       <use xlink:href="#DejaVuSans-50"/>
       <use x="63.623047" xlink:href="#DejaVuSans-46"/>
       <use x="95.410156" xlink:href="#DejaVuSans-53"/>
      </g>
     </g>
    </g>
    <g id="ytick_6">
     <g id="line2d_25">
      <path clip-path="url(#p86294d6b2e)" d="M 30.103125 217.900499 
L 1099.073125 217.900499 
" style="fill:none;stroke:#ffffff;stroke-linecap:square;stroke-width:0.8;"/>
     </g>
     <g id="line2d_26">
      <g>
       <use style="fill:#555555;stroke:#555555;stroke-width:0.8;" x="30.103125" xlink:href="#mb220da6c8b" y="217.900499"/>
      </g>
     </g>
     <g id="text_13">
      <!-- 3.0 -->
      <g style="fill:#555555;" transform="translate(7.2 221.699718)scale(0.1 -0.1)">
       <use xlink:href="#DejaVuSans-51"/>
       <use x="63.623047" xlink:href="#DejaVuSans-46"/>
       <use x="95.410156" xlink:href="#DejaVuSans-48"/>
      </g>
     </g>
    </g>
    <g id="ytick_7">
     <g id="line2d_27">
      <path clip-path="url(#p86294d6b2e)" d="M 30.103125 143.932336 
L 1099.073125 143.932336 
" style="fill:none;stroke:#ffffff;stroke-linecap:square;stroke-width:0.8;"/>
     </g>
     <g id="line2d_28">
      <g>
       <use style="fill:#555555;stroke:#555555;stroke-width:0.8;" x="30.103125" xlink:href="#mb220da6c8b" y="143.932336"/>
      </g>
     </g>
     <g id="text_14">
      <!-- 3.5 -->
      <g style="fill:#555555;" transform="translate(7.2 147.731554)scale(0.1 -0.1)">
       <use xlink:href="#DejaVuSans-51"/>
       <use x="63.623047" xlink:href="#DejaVuSans-46"/>
       <use x="95.410156" xlink:href="#DejaVuSans-53"/>
      </g>
     </g>
    </g>
    <g id="ytick_8">
     <g id="line2d_29">
      <path clip-path="url(#p86294d6b2e)" d="M 30.103125 69.964172 
L 1099.073125 69.964172 
" style="fill:none;stroke:#ffffff;stroke-linecap:square;stroke-width:0.8;"/>
     </g>
     <g id="line2d_30">
      <g>
       <use style="fill:#555555;stroke:#555555;stroke-width:0.8;" x="30.103125" xlink:href="#mb220da6c8b" y="69.964172"/>
      </g>
     </g>
     <g id="text_15">
      <!-- 4.0 -->
      <g style="fill:#555555;" transform="translate(7.2 73.763391)scale(0.1 -0.1)">
       <defs>
        <path d="M 37.796875 64.3125 
L 12.890625 25.390625 
L 37.796875 25.390625 
z
M 35.203125 72.90625 
L 47.609375 72.90625 
L 47.609375 25.390625 
L 58.015625 25.390625 
L 58.015625 17.1875 
L 47.609375 17.1875 
L 47.609375 0 
L 37.796875 0 
L 37.796875 17.1875 
L 4.890625 17.1875 
L 4.890625 26.703125 
z
" id="DejaVuSans-52"/>
       </defs>
       <use xlink:href="#DejaVuSans-52"/>
       <use x="63.623047" xlink:href="#DejaVuSans-46"/>
       <use x="95.410156" xlink:href="#DejaVuSans-48"/>
      </g>
     </g>
    </g>
   </g>
   <g id="line2d_31">
    <path clip-path="url(#p86294d6b2e)" d="M 89.003449 114.622911 
L 91.581144 85.358076 
L 94.158839 122.160738 
L 96.736533 104.576897 
L 99.314228 95.992699 
L 101.891923 105.393328 
L 104.469618 124.687859 
L 107.047312 159.979578 
L 109.625007 204.839297 
L 112.202702 215.895658 
L 114.780397 246.205498 
L 117.358091 270.039884 
L 119.935786 277.546135 
L 122.513481 284.08865 
L 125.091175 277.55759 
L 127.66887 273.556615 
L 132.82426 288.756241 
L 135.401954 301.426214 
L 137.979649 318.69324 
L 140.557344 328.755536 
L 143.135038 336.592714 
L 145.712733 342.212958 
L 148.290428 348.78895 
L 150.868123 358.42084 
L 153.445817 370.194256 
L 156.023512 382.963683 
L 161.178901 403.939538 
L 163.756596 414.648465 
L 166.334291 426.529856 
L 168.911986 436.545585 
L 171.48968 444.679654 
L 174.067375 451.092206 
L 176.64507 456.83234 
L 179.222764 461.453048 
L 181.800459 465.317212 
L 184.378154 469.94746 
L 192.111238 482.502524 
L 194.688933 485.891202 
L 197.266628 488.911835 
L 199.844322 491.424622 
L 207.577406 497.46678 
L 210.155101 498.955712 
L 212.732796 500.027552 
L 215.310491 500.657683 
L 223.043575 502.236037 
L 233.354354 505.278784 
L 251.398217 508.998634 
L 256.553606 509.521775 
L 261.708996 509.86288 
L 279.752859 510.475454 
L 287.485943 510.957843 
L 297.796722 511.342215 
L 313.26289 511.855948 
L 318.418279 511.937334 
L 323.573669 511.935989 
L 351.928311 512.303353 
L 364.816784 512.385842 
L 372.549868 512.090501 
L 380.282953 511.658527 
L 385.438342 511.565561 
L 390.593731 511.631318 
L 400.90451 511.968699 
L 436.992236 512.379729 
L 457.613794 512.095128 
L 514.323078 510.617992 
L 534.944636 509.961852 
L 542.67772 509.816445 
L 552.988499 510.019379 
L 573.610057 510.474901 
L 599.387004 510.010449 
L 609.697783 509.524466 
L 614.853172 509.383293 
L 627.741646 509.327836 
L 643.207814 508.990681 
L 650.940898 508.626281 
L 656.096288 508.091964 
L 666.407066 506.463839 
L 671.562456 505.657063 
L 676.717845 504.507438 
L 681.873235 503.391389 
L 689.606319 501.854605 
L 692.184014 501.211105 
L 694.761708 500.378423 
L 702.494792 497.51293 
L 707.650182 495.767398 
L 710.227877 494.885241 
L 712.805571 494.122908 
L 717.960961 493.274921 
L 723.11635 492.993022 
L 725.694045 492.947889 
L 733.427129 493.293253 
L 738.582519 493.650185 
L 746.315603 494.592521 
L 759.204076 496.724893 
L 766.93716 497.930987 
L 772.09255 498.586128 
L 792.714108 500.671249 
L 805.602581 501.464155 
L 813.335665 501.393596 
L 818.491055 501.288925 
L 833.957223 500.443661 
L 841.690307 500.205753 
L 852.001086 500.177082 
L 854.578781 500.331046 
L 859.73417 501.391243 
L 864.88956 502.691743 
L 867.467254 503.085323 
L 872.622644 503.589568 
L 888.088812 504.42207 
L 890.666507 504.463556 
L 895.821896 504.114342 
L 900.977286 503.502597 
L 906.132675 503.429112 
L 911.288065 503.870304 
L 919.021149 504.637227 
L 939.642707 505.793492 
L 960.264264 506.63052 
L 993.774296 507.611217 
L 1014.395853 507.471371 
L 1040.172801 507.202313 
L 1050.48358 507.113216 
L 1050.48358 507.113216 
" style="fill:none;stroke:#e24a33;stroke-linecap:square;stroke-width:1.5;"/>
   </g>
   <g id="line2d_32">
    <path clip-path="url(#p86294d6b2e)" d="M 89.003449 114.622911 
L 91.581144 56.093241 
L 94.158839 195.766061 
L 96.736533 51.825374 
L 99.314228 61.65591 
L 104.469618 240.455043 
L 107.047312 361.66495 
L 109.625007 370.111274 
L 112.202702 273.160587 
L 114.780397 263.994252 
L 117.358091 228.496612 
L 119.935786 204.940226 
L 122.513481 286.252647 
L 125.091175 315.947531 
L 127.66887 342.10445 
L 130.246565 325.337835 
L 132.82426 318.214388 
L 135.401954 317.186418 
L 137.979649 325.809411 
L 140.557344 356.688721 
L 143.135038 370.807774 
L 145.712733 381.446156 
L 148.290428 371.36978 
L 153.445817 399.600331 
L 156.023512 415.195403 
L 158.601207 429.369276 
L 161.178901 444.958201 
L 163.756596 456.408643 
L 166.334291 454.539521 
L 168.911986 455.747719 
L 171.48968 456.538814 
L 174.067375 460.083272 
L 176.64507 469.550209 
L 179.222764 477.30316 
L 181.800459 483.457789 
L 184.378154 486.951257 
L 186.955849 485.410501 
L 189.533543 486.043538 
L 192.111238 488.801217 
L 194.688933 493.270953 
L 197.266628 498.447589 
L 199.844322 501.047295 
L 202.422017 501.279114 
L 204.999712 500.510114 
L 207.577406 498.911176 
L 210.155101 499.223742 
L 212.732796 500.773833 
L 215.310491 502.858509 
L 217.888185 504.613547 
L 220.46588 504.8778 
L 223.043575 504.393654 
L 225.621269 504.224224 
L 228.198964 504.872041 
L 230.776659 506.342685 
L 233.354354 507.627536 
L 235.932048 508.434435 
L 238.509743 508.737707 
L 241.087438 508.172773 
L 243.665132 508.398597 
L 246.242827 508.919699 
L 248.820522 509.705159 
L 251.398217 510.62207 
L 253.975911 510.635235 
L 261.708996 509.230228 
L 264.28669 509.505241 
L 266.864385 510.362614 
L 269.44208 510.627945 
L 272.019774 511.046009 
L 274.597469 510.820846 
L 277.175164 510.338705 
L 282.330553 510.825042 
L 284.908248 511.34739 
L 287.485943 511.700088 
L 297.796722 511.223578 
L 302.952111 511.931231 
L 305.529806 511.957837 
L 308.1075 512.192631 
L 310.685195 512.259912 
L 313.26289 511.885245 
L 315.840585 511.634257 
L 320.995974 511.719568 
L 326.151363 512.488741 
L 331.306753 512.26044 
L 333.884448 512.103085 
L 336.462142 512.138397 
L 344.195227 512.489995 
L 346.772921 512.285869 
L 351.928311 512.254578 
L 354.506005 512.313124 
L 357.0837 512.606432 
L 364.816784 512.249728 
L 367.394479 511.789955 
L 372.549868 511.346453 
L 375.127563 511.385895 
L 377.705258 511.603342 
L 388.016037 511.580209 
L 393.171426 512.130607 
L 395.749121 512.116758 
L 398.326816 512.290165 
L 403.482205 511.961662 
L 406.0599 512.02267 
L 413.792984 512.460971 
L 416.370679 512.481236 
L 421.526068 512.195998 
L 426.681458 512.320742 
L 429.259152 512.535095 
L 434.414542 512.544642 
L 442.147626 511.930166 
L 452.458405 512.362096 
L 455.036099 512.092128 
L 457.613794 511.676397 
L 460.191489 511.489641 
L 470.502268 511.986009 
L 475.657657 511.174365 
L 478.235352 510.947928 
L 483.390741 511.56259 
L 485.968436 511.562267 
L 488.546131 511.72068 
L 491.123826 511.151885 
L 493.70152 510.705498 
L 496.279215 510.544057 
L 498.85691 510.683115 
L 501.434604 511.119537 
L 504.012299 511.255267 
L 506.589994 511.192524 
L 511.745383 509.892502 
L 514.323078 509.598922 
L 516.900773 510.026945 
L 519.478467 510.644057 
L 524.633857 510.649935 
L 527.211552 509.936145 
L 529.789246 509.36866 
L 532.366941 508.965734 
L 534.944636 509.469493 
L 537.52233 510.143539 
L 540.100025 510.25724 
L 542.67772 510.574304 
L 547.833109 509.579721 
L 550.410804 509.470544 
L 555.566193 510.570763 
L 560.721583 510.955987 
L 563.299278 510.638543 
L 565.876972 510.126643 
L 568.454667 510.042709 
L 571.032362 510.220181 
L 573.610057 510.534834 
L 576.187751 510.520934 
L 578.765446 510.654695 
L 581.343141 510.125196 
L 583.920835 509.736435 
L 586.49853 509.67768 
L 589.076225 509.826302 
L 591.65392 510.411221 
L 594.231614 510.469903 
L 596.809309 510.328753 
L 599.387004 509.622848 
L 604.542393 508.58257 
L 607.120088 508.927038 
L 609.697783 509.671479 
L 612.275477 509.746695 
L 614.853172 510.063748 
L 617.430867 509.639387 
L 620.008561 508.976831 
L 622.586256 508.629355 
L 625.163951 508.849649 
L 627.741646 509.389189 
L 630.31934 509.449055 
L 632.897035 509.851845 
L 635.47473 509.293124 
L 638.052424 508.534205 
L 643.207814 508.098427 
L 645.785509 508.71053 
L 648.363203 508.763939 
L 650.940898 508.66482 
L 653.518593 507.809338 
L 656.096288 506.277772 
L 658.673982 505.309762 
L 661.251677 505.058362 
L 663.829372 505.922096 
L 666.407066 506.204725 
L 668.984761 506.107208 
L 671.562456 504.719518 
L 674.140151 502.547302 
L 676.717845 500.992857 
L 679.29554 500.966319 
L 681.873235 502.201791 
L 687.028624 502.931053 
L 689.606319 500.725855 
L 692.184014 498.042799 
L 694.761708 495.164084 
L 697.339403 494.099568 
L 699.917098 495.613511 
L 705.072487 496.491892 
L 707.650182 494.946288 
L 710.227877 491.867705 
L 712.805571 489.827751 
L 715.383266 490.792938 
L 717.960961 492.98423 
L 720.538656 494.686213 
L 723.11635 495.846027 
L 725.694045 494.630361 
L 728.27174 492.415367 
L 730.849434 490.781727 
L 733.427129 491.70885 
L 736.004824 494.034154 
L 738.582519 496.13481 
L 741.160213 497.836296 
L 743.737908 496.824511 
L 746.315603 494.827301 
L 748.893297 493.625797 
L 751.470992 494.408945 
L 754.048687 497.193571 
L 756.626382 499.454299 
L 759.204076 500.739826 
L 761.781771 499.872728 
L 764.359466 497.600824 
L 766.93716 496.246714 
L 769.514855 496.87722 
L 772.09255 499.311285 
L 774.670245 501.345869 
L 777.247939 502.301126 
L 779.825634 501.361215 
L 782.403329 499.51683 
L 784.981023 498.359743 
L 787.558718 499.220621 
L 790.136413 501.17644 
L 792.714108 502.762768 
L 795.291802 503.566532 
L 797.869497 502.570953 
L 800.447192 500.875886 
L 803.024887 499.603798 
L 805.602581 499.692706 
L 810.757971 502.660537 
L 813.335665 503.127209 
L 815.91336 502.451893 
L 818.491055 500.262252 
L 821.06875 498.533361 
L 823.646444 498.789517 
L 826.224139 499.882997 
L 828.801834 501.949779 
L 831.379528 502.183344 
L 833.957223 501.504376 
L 839.112613 497.779338 
L 841.690307 498.54346 
L 844.268002 499.851822 
L 846.845697 501.567184 
L 849.423391 502.391961 
L 854.578781 500.674721 
L 857.156476 501.276493 
L 859.73417 502.467685 
L 862.311865 504.633291 
L 864.88956 505.889214 
L 867.467254 505.147024 
L 870.044949 503.401125 
L 872.622644 502.312141 
L 875.200339 502.37008 
L 877.778033 503.547307 
L 880.355728 505.656912 
L 882.933423 506.655257 
L 885.511118 505.906753 
L 888.088812 504.50604 
L 890.666507 502.602541 
L 893.244202 501.522543 
L 895.821896 501.950352 
L 898.399591 503.194328 
L 900.977286 504.835623 
L 903.554981 505.276758 
L 906.132675 504.621639 
L 908.71037 503.834255 
L 911.288065 503.379174 
L 913.865759 503.863547 
L 916.443454 505.310096 
L 919.021149 506.175123 
L 921.598844 506.383514 
L 924.176538 505.88321 
L 926.754233 505.066022 
L 929.331928 504.68804 
L 931.909622 504.977638 
L 934.487317 506.006435 
L 937.065012 506.852448 
L 939.642707 507.080649 
L 942.220401 506.686614 
L 947.375791 505.721617 
L 949.953486 505.866145 
L 952.53118 506.719516 
L 955.108875 507.275224 
L 957.68657 507.450758 
L 960.264264 507.228037 
L 962.841959 506.710085 
L 965.419654 506.399794 
L 967.997349 506.471339 
L 973.152738 507.783639 
L 975.730433 507.938025 
L 978.308127 507.816861 
L 983.463517 507.10446 
L 986.041212 507.230887 
L 991.196601 508.010045 
L 993.774296 508.053258 
L 998.929685 507.451598 
L 1001.50738 507.092468 
L 1004.085075 507.077592 
L 1009.240464 507.792315 
L 1011.818159 507.857414 
L 1016.973548 507.197805 
L 1019.551243 506.808613 
L 1022.128938 506.80936 
L 1027.284327 507.644542 
L 1029.862022 507.680553 
L 1032.439717 507.412034 
L 1037.595106 506.667123 
L 1040.172801 506.717766 
L 1045.32819 507.535351 
L 1047.905885 507.54944 
L 1050.48358 507.1458 
L 1050.48358 507.1458 
" style="fill:none;stroke:#e24a33;stroke-dasharray:1.5,2.475;stroke-dashoffset:0;stroke-width:1.5;"/>
   </g>
   <g id="line2d_33">
    <path clip-path="url(#p86294d6b2e)" d="M 89.003449 262.560523 
L 91.581144 233.295996 
L 94.158839 270.098871 
L 96.736533 252.515745 
L 99.314228 210.419024 
L 101.891923 205.937762 
L 104.469618 213.839768 
L 107.047312 242.173277 
L 109.625007 280.318349 
L 112.202702 277.305072 
L 114.780397 288.30341 
L 117.358091 296.443252 
L 119.935786 275.209667 
L 122.513481 279.936454 
L 125.091175 263.631184 
L 127.66887 253.633011 
L 132.82426 271.172678 
L 135.401954 302.486961 
L 137.979649 342.055603 
L 140.557344 354.495765 
L 143.135038 363.634562 
L 145.712733 367.762308 
L 148.290428 371.239737 
L 150.868123 381.815825 
L 153.445817 397.732163 
L 156.023512 417.916347 
L 158.601207 433.409036 
L 166.334291 477.667454 
L 168.911986 490.413528 
L 171.48968 497.868669 
L 176.64507 502.780866 
L 179.222764 505.497624 
L 181.800459 508.817824 
L 184.378154 515.622085 
L 186.955849 520.866102 
L 189.533543 526.618133 
L 192.111238 533.119165 
L 194.688933 536.165608 
L 197.266628 541.10488 
L 199.844322 545.177473 
L 204.999712 549.370634 
L 207.577406 546.782107 
L 210.155101 541.45886 
L 212.732796 536.661661 
L 215.310491 531.335077 
L 217.888185 528.578859 
L 220.46588 526.807314 
L 223.043575 525.82971 
L 225.621269 528.650313 
L 228.198964 533.153964 
L 230.776659 538.404091 
L 233.354354 542.7731 
L 235.932048 544.666144 
L 238.509743 546.332978 
L 241.087438 546.282146 
L 243.665132 546.951118 
L 246.242827 548.943225 
L 248.820522 550.14049 
L 251.398217 552.805272 
L 253.975911 552.82381 
L 256.553606 549.494744 
L 259.131301 544.457228 
L 261.708996 531.544345 
L 264.28669 521.23204 
L 266.864385 518.088701 
L 269.44208 513.43326 
L 272.019774 513.246482 
L 274.597469 514.421414 
L 277.175164 514.216805 
L 279.752859 524.673659 
L 282.330553 531.317153 
L 284.908248 534.603155 
L 287.485943 538.879667 
L 292.641332 534.679786 
L 295.219027 534.753836 
L 297.796722 529.146151 
L 300.374416 531.032665 
L 302.952111 532.199033 
L 305.529806 529.31666 
L 308.1075 531.667955 
L 310.685195 534.936778 
L 313.26289 534.61313 
L 315.840585 535.819879 
L 318.418279 527.757485 
L 320.995974 512.909862 
L 323.573669 510.37723 
L 326.151363 511.188537 
L 328.729058 511.742207 
L 331.306753 519.02299 
L 333.884448 522.715965 
L 336.462142 523.316483 
L 339.039837 530.635911 
L 341.617532 529.747055 
L 344.195227 525.903374 
L 346.772921 519.820797 
L 349.350616 512.584707 
L 351.928311 510.222366 
L 354.506005 514.033495 
L 357.0837 522.221879 
L 359.661395 524.060426 
L 362.23909 522.608614 
L 364.816784 519.043593 
L 367.394479 499.022673 
L 369.972174 481.944911 
L 372.549868 459.11983 
L 375.127563 437.804815 
L 377.705258 430.695851 
L 380.282953 426.000485 
L 382.860647 430.358634 
L 385.438342 454.389916 
L 388.016037 474.42576 
L 390.593731 503.681477 
L 393.171426 524.615501 
L 395.749121 531.967138 
L 398.326816 540.112347 
L 400.90451 540.369286 
L 403.482205 534.225525 
L 406.0599 533.04376 
L 408.637594 528.80733 
L 411.215289 528.349144 
L 413.792984 530.700681 
L 418.948373 528.349082 
L 421.526068 526.502001 
L 424.103763 522.473766 
L 426.681458 520.598554 
L 429.259152 519.584137 
L 431.836847 518.037352 
L 434.414542 517.02143 
L 436.992236 514.996046 
L 439.569931 507.208587 
L 444.725321 490.229027 
L 447.303015 484.764431 
L 449.88071 483.456944 
L 452.458405 483.694373 
L 455.036099 484.2108 
L 457.613794 485.971316 
L 460.191489 484.37915 
L 462.769184 481.179143 
L 465.346878 477.466472 
L 467.924573 475.912687 
L 470.502268 475.182114 
L 473.079962 473.803069 
L 475.657657 476.582461 
L 478.235352 478.422063 
L 480.813047 483.043416 
L 483.390741 488.185307 
L 485.968436 488.951716 
L 488.546131 490.106109 
L 491.123826 489.393161 
L 493.70152 487.225661 
L 496.279215 489.059003 
L 498.85691 486.502956 
L 501.434604 486.054213 
L 504.012299 486.656112 
L 506.589994 484.744794 
L 509.167689 485.104927 
L 511.745383 483.431995 
L 514.323078 478.618113 
L 516.900773 480.373665 
L 519.478467 481.065628 
L 522.056162 481.551903 
L 524.633857 482.53981 
L 527.211552 482.651836 
L 529.789246 484.136401 
L 532.366941 486.765372 
L 534.944636 488.750214 
L 537.52233 489.505994 
L 540.100025 489.260468 
L 542.67772 491.104768 
L 545.255415 495.22562 
L 547.833109 501.406407 
L 550.410804 509.794102 
L 552.988499 514.597772 
L 555.566193 516.335204 
L 558.143888 518.586011 
L 560.721583 519.010671 
L 563.299278 519.638584 
L 565.876972 520.040412 
L 568.454667 519.136297 
L 571.032362 517.085678 
L 573.610057 513.32868 
L 578.765446 504.833041 
L 581.343141 500.052536 
L 583.920835 497.354547 
L 589.076225 497.22674 
L 591.65392 499.910756 
L 594.231614 501.633437 
L 596.809309 501.442799 
L 599.387004 500.790813 
L 601.964698 496.969704 
L 604.542393 489.147135 
L 607.120088 485.644205 
L 609.697783 483.936983 
L 612.275477 482.901905 
L 614.853172 485.721543 
L 617.430867 490.398236 
L 620.008561 496.10215 
L 622.586256 503.474589 
L 625.163951 505.448592 
L 627.741646 503.68864 
L 632.897035 501.490115 
L 635.47473 500.123132 
L 638.052424 499.467393 
L 640.630119 499.838717 
L 643.207814 496.846394 
L 645.785509 495.108618 
L 648.363203 493.731215 
L 650.940898 489.502035 
L 653.518593 486.002925 
L 656.096288 479.02521 
L 658.673982 468.581236 
L 661.251677 462.362897 
L 663.829372 457.735207 
L 666.407066 456.136962 
L 668.984761 456.435238 
L 671.562456 456.319208 
L 674.140151 457.351341 
L 676.717845 457.317732 
L 679.29554 458.092217 
L 681.873235 458.653085 
L 684.450929 458.525628 
L 687.028624 459.328937 
L 689.606319 459.247825 
L 692.184014 460.391984 
L 694.761708 460.366279 
L 697.339403 456.456815 
L 699.917098 453.127081 
L 702.494792 449.249222 
L 705.072487 446.583318 
L 707.650182 447.166181 
L 710.227877 449.82354 
L 712.805571 456.396677 
L 715.383266 466.978261 
L 717.960961 473.073158 
L 720.538656 478.601039 
L 723.11635 482.494882 
L 725.694045 485.226924 
L 728.27174 489.294957 
L 730.849434 492.63157 
L 733.427129 494.969087 
L 736.004824 496.787618 
L 738.582519 498.095054 
L 741.160213 499.726378 
L 748.893297 505.293986 
L 751.470992 505.99293 
L 754.048687 507.694934 
L 756.626382 509.884943 
L 761.781771 513.26463 
L 764.359466 513.392109 
L 769.514855 510.130511 
L 772.09255 509.055683 
L 779.825634 509.606924 
L 782.403329 509.71814 
L 784.981023 509.493468 
L 787.558718 510.290896 
L 790.136413 511.206788 
L 795.291802 511.848221 
L 797.869497 511.452488 
L 800.447192 510.789087 
L 803.024887 509.596601 
L 805.602581 506.552874 
L 808.180276 503.945015 
L 813.335665 500.050784 
L 815.91336 499.392739 
L 818.491055 498.045908 
L 821.06875 495.629266 
L 823.646444 494.683846 
L 826.224139 491.742734 
L 833.957223 490.82761 
L 836.534918 492.226436 
L 839.112613 492.573441 
L 844.268002 497.448099 
L 846.845697 497.891695 
L 849.423391 499.303257 
L 852.001086 499.829264 
L 854.578781 502.112577 
L 859.73417 520.37714 
L 862.311865 531.531384 
L 864.88956 539.281975 
L 867.467254 540.95239 
L 870.044949 538.698969 
L 872.622644 529.668869 
L 875.200339 515.590742 
L 877.778033 509.688669 
L 880.355728 509.435118 
L 882.933423 509.813513 
L 888.088812 511.202552 
L 890.666507 506.239795 
L 895.821896 481.810794 
L 898.399591 470.559537 
L 900.977286 465.489576 
L 903.554981 465.371364 
L 906.132675 469.234669 
L 908.71037 484.210371 
L 911.288065 506.315909 
L 913.865759 518.560663 
L 916.443454 526.027977 
L 919.021149 528.007798 
L 921.598844 528.642798 
L 924.176538 528.978701 
L 926.754233 526.287947 
L 929.331928 524.142837 
L 934.487317 520.481558 
L 937.065012 520.513417 
L 939.642707 520.878884 
L 942.220401 521.502046 
L 944.798096 523.530605 
L 947.375791 523.91143 
L 949.953486 522.999707 
L 952.53118 522.737678 
L 955.108875 521.660054 
L 957.68657 521.132271 
L 960.264264 521.317718 
L 962.841959 520.592864 
L 965.419654 521.073119 
L 967.997349 521.28617 
L 970.575043 520.388262 
L 973.152738 521.639851 
L 975.730433 522.723867 
L 978.308127 524.406616 
L 980.885822 527.195433 
L 983.463517 526.99927 
L 986.041212 527.252843 
L 988.618906 525.750317 
L 991.196601 523.806848 
L 993.774296 522.094632 
L 996.35199 518.160454 
L 998.929685 513.817417 
L 1004.085075 503.789734 
L 1006.662769 502.359032 
L 1009.240464 500.343831 
L 1011.818159 499.010771 
L 1014.395853 498.495779 
L 1016.973548 497.556157 
L 1019.551243 497.653134 
L 1022.128938 497.572305 
L 1024.706632 497.847343 
L 1027.284327 498.619937 
L 1029.862022 499.013724 
L 1032.439717 499.620232 
L 1037.595106 500.423683 
L 1040.172801 502.14897 
L 1042.750495 502.742506 
L 1045.32819 503.176641 
L 1047.905885 503.175091 
L 1050.48358 501.762372 
L 1050.48358 501.762372 
" style="fill:none;stroke:#348abd;stroke-linecap:square;stroke-width:1.5;"/>
   </g>
   <g id="line2d_34">
    <path clip-path="url(#p86294d6b2e)" d="M 89.003449 262.560523 
L 91.581144 204.031469 
L 94.158839 343.704621 
L 96.736533 199.766369 
L 99.314228 42.032138 
L 101.891923 183.531454 
L 104.469618 261.251804 
L 107.047312 460.895087 
L 109.625007 471.04697 
L 112.202702 322.611681 
L 114.780397 276.754735 
L 117.358091 99.011031 
L 119.935786 34.896364 
L 122.513481 294.339311 
L 127.66887 401.059762 
L 130.246565 383.068176 
L 132.82426 339.075905 
L 135.401954 318.211014 
L 137.979649 311.876858 
L 140.557344 381.420446 
L 143.135038 410.729777 
L 145.712733 429.953981 
L 148.290428 407.410175 
L 150.868123 413.108523 
L 153.445817 429.625382 
L 156.023512 453.166149 
L 158.601207 489.869263 
L 161.178901 513.70528 
L 163.756596 530.297585 
L 166.334291 513.899999 
L 168.911986 502.331038 
L 171.48968 481.81137 
L 174.067375 469.953003 
L 176.64507 507.467787 
L 179.222764 532.722584 
L 181.800459 553.538985 
L 184.378154 561.52983 
L 186.955849 539.039156 
L 189.533543 522.075588 
L 192.111238 515.460222 
L 194.688933 528.792891 
L 197.266628 567.297487 
L 199.844322 582.047138 
L 202.422017 576.202954 
L 204.999712 553.71816 
L 207.577406 503.955899 
L 210.155101 478.197493 
L 212.732796 495.212494 
L 215.310491 530.011403 
L 217.888185 562.753613 
L 220.46588 563.802138 
L 223.043575 546.87493 
L 225.621269 523.700117 
L 228.198964 509.72305 
L 230.776659 531.963387 
L 233.354354 560.594467 
L 235.932048 576.004916 
L 238.509743 575.469982 
L 241.087438 546.5191 
L 243.665132 528.382923 
L 246.242827 523.6678 
L 248.820522 540.344243 
L 251.398217 579.247939 
L 253.975911 576.134685 
L 256.553606 552.166517 
L 259.131301 511.256486 
L 261.708996 437.992747 
L 264.28669 451.481666 
L 266.864385 518.340869 
L 272.019774 574.827243 
L 274.597469 560.391041 
L 277.175164 509.824223 
L 279.752859 511.190725 
L 282.330553 497.98612 
L 284.908248 541.342884 
L 287.485943 576.595431 
L 290.063637 560.41117 
L 292.641332 545.407948 
L 295.219027 510.342573 
L 297.796722 471.936934 
L 302.952111 549.507462 
L 305.529806 556.418816 
L 308.1075 576.87024 
L 310.685195 568.289708 
L 313.26289 508.077036 
L 315.840585 480.384173 
L 318.418279 454.754963 
L 320.995974 445.574096 
L 323.573669 538.690396 
L 326.151363 582.549387 
L 328.729058 572.165397 
L 331.306753 559.042517 
L 333.884448 506.234998 
L 336.462142 458.958587 
L 339.039837 496.810097 
L 341.617532 532.468405 
L 344.195227 555.643618 
L 346.772921 529.587355 
L 349.350616 508.389887 
L 351.928311 489.698611 
L 354.506005 485.63649 
L 357.0837 554.128785 
L 359.661395 545.338232 
L 362.23909 545.480941 
L 364.816784 504.632203 
L 367.394479 368.243447 
L 369.972174 370.154282 
L 372.549868 325.860918 
L 375.127563 404.923683 
L 377.705258 495.575488 
L 380.282953 512.613375 
L 382.860647 535.139243 
L 385.438342 536.462426 
L 388.016037 510.405188 
L 393.171426 551.461851 
L 395.749121 547.036944 
L 398.326816 569.629836 
L 400.90451 536.937819 
L 403.482205 493.456097 
L 406.0599 502.132833 
L 408.637594 500.995928 
L 411.215289 548.254554 
L 413.792984 563.497702 
L 416.370679 561.44779 
L 418.948373 528.658673 
L 421.526068 480.526529 
L 424.103763 473.935183 
L 426.681458 487.869444 
L 429.259152 541.153635 
L 431.836847 552.670206 
L 434.414542 554.336341 
L 436.992236 514.480984 
L 439.569931 426.014316 
L 442.147626 414.901758 
L 444.725321 428.045949 
L 447.303015 502.90146 
L 449.88071 543.517799 
L 452.458405 555.998346 
L 455.036099 518.095969 
L 457.613794 438.337932 
L 460.191489 403.756591 
L 462.769184 405.645902 
L 465.346878 476.912765 
L 467.924573 532.641305 
L 470.502268 550.88433 
L 473.079962 508.442655 
L 475.657657 457.793679 
L 478.235352 416.633808 
L 480.813047 437.995372 
L 483.390741 512.906001 
L 485.968436 538.006169 
L 488.546131 558.965079 
L 491.123826 503.452016 
L 493.70152 442.621184 
L 496.279215 429.467203 
L 498.85691 420.103044 
L 501.434604 509.764798 
L 504.012299 542.219463 
L 506.589994 545.58585 
L 509.167689 505.972945 
L 511.745383 430.910659 
L 514.323078 395.77003 
L 516.900773 432.391908 
L 519.478467 514.608543 
L 522.056162 545.623386 
L 524.633857 552.501201 
L 527.211552 506.757123 
L 529.789246 441.302618 
L 532.366941 414.172826 
L 534.944636 446.285804 
L 537.52233 519.899001 
L 540.100025 543.9047 
L 542.67772 565.411307 
L 545.255415 535.603087 
L 547.833109 484.568123 
L 550.410804 472.886694 
L 552.988499 479.911492 
L 555.566193 532.061025 
L 558.143888 559.66035 
L 560.721583 568.383924 
L 563.299278 539.998483 
L 565.876972 487.380914 
L 568.454667 466.557895 
L 571.032362 465.557153 
L 573.610057 505.762041 
L 576.187751 529.560938 
L 578.765446 539.013866 
L 581.343141 506.534944 
L 583.920835 468.494995 
L 586.49853 466.25268 
L 589.076225 464.967714 
L 591.65392 524.550155 
L 594.231614 541.619705 
L 596.809309 537.679397 
L 599.387004 501.971046 
L 601.964698 441.74723 
L 604.542393 411.4947 
L 607.120088 440.447199 
L 609.697783 512.599605 
L 612.275477 534.374156 
L 614.853172 557.416864 
L 617.430867 534.707901 
L 620.008561 481.674624 
L 622.586256 463.101777 
L 625.163951 454.265218 
L 627.741646 500.279939 
L 630.31934 526.679596 
L 632.897035 549.721751 
L 635.47473 525.139016 
L 638.052424 477.084456 
L 640.630119 465.701042 
L 643.207814 433.318955 
L 645.785509 488.115509 
L 648.363203 517.037776 
L 650.940898 520.117493 
L 653.518593 500.645245 
L 656.096288 428.24045 
L 658.673982 392.593223 
L 661.251677 389.790584 
L 663.829372 455.721676 
L 666.407066 505.850064 
L 668.984761 522.205424 
L 671.562456 499.833035 
L 674.140151 435.465382 
L 676.717845 392.357961 
L 679.29554 395.211977 
L 681.873235 459.64775 
L 684.450929 504.957867 
L 687.028624 527.828589 
L 689.606319 499.265251 
L 692.184014 443.474491 
L 694.761708 392.178029 
L 697.339403 367.845727 
L 699.917098 436.339616 
L 702.494792 477.812854 
L 705.072487 509.16726 
L 707.650182 503.345292 
L 710.227877 462.076 
L 712.805571 438.189994 
L 715.383266 441.916813 
L 720.538656 516.508019 
L 723.11635 536.424161 
L 725.694045 522.469591 
L 728.27174 490.552231 
L 730.849434 461.54628 
L 733.427129 458.279432 
L 738.582519 525.660075 
L 741.160213 547.843427 
L 743.737908 535.464827 
L 746.315603 503.931311 
L 748.893297 474.145219 
L 751.470992 463.172044 
L 754.048687 503.647632 
L 756.626382 540.990138 
L 759.204076 559.350138 
L 761.781771 547.615927 
L 766.93716 463.132347 
L 769.514855 451.353735 
L 774.670245 542.351828 
L 777.247939 561.487402 
L 779.825634 547.97566 
L 784.981023 461.559644 
L 787.558718 456.935732 
L 790.136413 502.535076 
L 792.714108 544.757813 
L 795.291802 563.571444 
L 797.869497 545.205534 
L 800.447192 500.958363 
L 803.024887 453.212243 
L 805.602581 435.629642 
L 810.757971 531.009696 
L 813.335665 550.059942 
L 815.91336 540.599215 
L 818.491055 491.530549 
L 821.06875 436.295748 
L 823.646444 429.011705 
L 826.224139 463.692283 
L 828.801834 528.81557 
L 831.379528 548.43078 
L 833.957223 538.016634 
L 836.534918 501.322334 
L 839.112613 438.724783 
L 841.690307 446.028983 
L 844.268002 480.797611 
L 846.845697 531.92074 
L 849.423391 558.311716 
L 852.001086 541.698681 
L 854.578781 517.305527 
L 857.156476 502.820798 
L 859.73417 509.784909 
L 862.311865 558.877321 
L 864.88956 586.174872 
L 867.467254 570.004619 
L 870.044949 525.924735 
L 872.622644 454.094828 
L 875.200339 404.273911 
L 877.778033 468.470394 
L 880.355728 557.102469 
L 882.933423 588.823636 
L 885.511118 574.709046 
L 888.088812 530.943578 
L 890.666507 419.355531 
L 893.244202 317.329157 
L 895.821896 384.41214 
L 898.399591 478.343671 
L 900.977286 553.333907 
L 903.554981 573.881563 
L 906.132675 557.986718 
L 908.71037 524.185439 
L 911.288065 472.067924 
L 913.865759 470.12542 
L 916.443454 530.61487 
L 919.021149 567.192653 
L 921.598844 578.326562 
L 924.176538 560.33804 
L 926.754233 505.350158 
L 929.331928 457.052159 
L 931.909622 456.979504 
L 934.487317 518.131834 
L 937.065012 567.415661 
L 939.642707 580.884834 
L 942.220401 564.70017 
L 944.798096 519.550073 
L 947.375791 459.717932 
L 949.953486 450.597444 
L 952.53118 516.297631 
L 955.108875 559.872294 
L 957.68657 577.190355 
L 960.264264 565.998299 
L 965.419654 463.079719 
L 967.997349 452.088799 
L 973.152738 568.633422 
L 975.730433 584.778464 
L 978.308127 577.777541 
L 980.885822 533.997812 
L 983.463517 461.706577 
L 986.041212 453.863813 
L 988.618906 499.494588 
L 991.196601 555.02914 
L 993.774296 572.792957 
L 996.35199 550.238293 
L 998.929685 503.596551 
L 1001.50738 427.352329 
L 1004.085075 418.024278 
L 1006.662769 489.479675 
L 1009.240464 540.922734 
L 1011.818159 563.461535 
L 1014.395853 546.633348 
L 1016.973548 497.019202 
L 1019.551243 428.031165 
L 1022.128938 417.458478 
L 1024.706632 491.404938 
L 1027.284327 546.330892 
L 1029.862022 566.218048 
L 1032.439717 550.878901 
L 1035.017411 499.7338 
L 1037.595106 430.940724 
L 1040.172801 429.53549 
L 1042.750495 495.559687 
L 1045.32819 549.369838 
L 1047.905885 566.207195 
L 1050.48358 540.989872 
L 1050.48358 540.989872 
" style="fill:none;stroke:#348abd;stroke-dasharray:1.5,2.475;stroke-dashoffset:0;stroke-width:1.5;"/>
   </g>
   <g id="line2d_35">
    <path clip-path="url(#p86294d6b2e)" d="M 30.103125 513.773155 
L 1099.073125 513.773155 
" style="fill:none;stroke:#008000;stroke-linecap:square;stroke-opacity:0.5;stroke-width:1.5;"/>
   </g>
   <g id="patch_3">
    <path d="M 30.103125 616.52 
L 30.103125 7.2 
" style="fill:none;stroke:#ffffff;stroke-linecap:square;stroke-linejoin:miter;"/>
   </g>
   <g id="patch_4">
    <path d="M 1099.073125 616.52 
L 1099.073125 7.2 
" style="fill:none;stroke:#ffffff;stroke-linecap:square;stroke-linejoin:miter;"/>
   </g>
   <g id="patch_5">
    <path d="M 30.103125 616.52 
L 1099.073125 616.52 
" style="fill:none;stroke:#ffffff;stroke-linecap:square;stroke-linejoin:miter;"/>
   </g>
   <g id="patch_6">
    <path d="M 30.103125 7.2 
L 1099.073125 7.2 
" style="fill:none;stroke:#ffffff;stroke-linecap:square;stroke-linejoin:miter;"/>
   </g>
  </g>
  <g id="axes_2">
   <g id="matplotlib.axis_3">
    <g id="ytick_9">
     <g id="line2d_36">
      <path clip-path="url(#p86294d6b2e)" d="M 30.103125 589.00409 
L 1099.073125 589.00409 
" style="fill:none;stroke:#ffffff;stroke-linecap:square;stroke-width:0.8;"/>
     </g>
     <g id="line2d_37">
      <defs>
       <path d="M 0 0 
L 3.5 0 
" id="mef1e6ba24d" style="stroke:#555555;stroke-width:0.8;"/>
      </defs>
      <g>
       <use style="fill:#555555;stroke:#555555;stroke-width:0.8;" x="1099.073125" xlink:href="#mef1e6ba24d" y="589.00409"/>
      </g>
     </g>
     <g id="text_16">
      <!-- 0 -->
      <g style="fill:#555555;" transform="translate(1106.073125 592.803309)scale(0.1 -0.1)">
       <use xlink:href="#DejaVuSans-48"/>
      </g>
     </g>
    </g>
    <g id="ytick_10">
     <g id="line2d_38">
      <path clip-path="url(#p86294d6b2e)" d="M 30.103125 506.979676 
L 1099.073125 506.979676 
" style="fill:none;stroke:#ffffff;stroke-linecap:square;stroke-width:0.8;"/>
     </g>
     <g id="line2d_39">
      <g>
       <use style="fill:#555555;stroke:#555555;stroke-width:0.8;" x="1099.073125" xlink:href="#mef1e6ba24d" y="506.979676"/>
      </g>
     </g>
     <g id="text_17">
      <!-- 5000 -->
      <g style="fill:#555555;" transform="translate(1106.073125 510.778895)scale(0.1 -0.1)">
       <use xlink:href="#DejaVuSans-53"/>
       <use x="63.623047" xlink:href="#DejaVuSans-48"/>
       <use x="127.246094" xlink:href="#DejaVuSans-48"/>
       <use x="190.869141" xlink:href="#DejaVuSans-48"/>
      </g>
     </g>
    </g>
    <g id="ytick_11">
     <g id="line2d_40">
      <path clip-path="url(#p86294d6b2e)" d="M 30.103125 424.955262 
L 1099.073125 424.955262 
" style="fill:none;stroke:#ffffff;stroke-linecap:square;stroke-width:0.8;"/>
     </g>
     <g id="line2d_41">
      <g>
       <use style="fill:#555555;stroke:#555555;stroke-width:0.8;" x="1099.073125" xlink:href="#mef1e6ba24d" y="424.955262"/>
      </g>
     </g>
     <g id="text_18">
      <!-- 10000 -->
      <g style="fill:#555555;" transform="translate(1106.073125 428.754481)scale(0.1 -0.1)">
       <use xlink:href="#DejaVuSans-49"/>
       <use x="63.623047" xlink:href="#DejaVuSans-48"/>
       <use x="127.246094" xlink:href="#DejaVuSans-48"/>
       <use x="190.869141" xlink:href="#DejaVuSans-48"/>
       <use x="254.492188" xlink:href="#DejaVuSans-48"/>
      </g>
     </g>
    </g>
    <g id="ytick_12">
     <g id="line2d_42">
      <path clip-path="url(#p86294d6b2e)" d="M 30.103125 342.930848 
L 1099.073125 342.930848 
" style="fill:none;stroke:#ffffff;stroke-linecap:square;stroke-width:0.8;"/>
     </g>
     <g id="line2d_43">
      <g>
       <use style="fill:#555555;stroke:#555555;stroke-width:0.8;" x="1099.073125" xlink:href="#mef1e6ba24d" y="342.930848"/>
      </g>
     </g>
     <g id="text_19">
      <!-- 15000 -->
      <g style="fill:#555555;" transform="translate(1106.073125 346.730067)scale(0.1 -0.1)">
       <use xlink:href="#DejaVuSans-49"/>
       <use x="63.623047" xlink:href="#DejaVuSans-53"/>
       <use x="127.246094" xlink:href="#DejaVuSans-48"/>
       <use x="190.869141" xlink:href="#DejaVuSans-48"/>
       <use x="254.492188" xlink:href="#DejaVuSans-48"/>
      </g>
     </g>
    </g>
    <g id="ytick_13">
     <g id="line2d_44">
      <path clip-path="url(#p86294d6b2e)" d="M 30.103125 260.906434 
L 1099.073125 260.906434 
" style="fill:none;stroke:#ffffff;stroke-linecap:square;stroke-width:0.8;"/>
     </g>
     <g id="line2d_45">
      <g>
       <use style="fill:#555555;stroke:#555555;stroke-width:0.8;" x="1099.073125" xlink:href="#mef1e6ba24d" y="260.906434"/>
      </g>
     </g>
     <g id="text_20">
      <!-- 20000 -->
      <g style="fill:#555555;" transform="translate(1106.073125 264.705653)scale(0.1 -0.1)">
       <use xlink:href="#DejaVuSans-50"/>
       <use x="63.623047" xlink:href="#DejaVuSans-48"/>
       <use x="127.246094" xlink:href="#DejaVuSans-48"/>
       <use x="190.869141" xlink:href="#DejaVuSans-48"/>
       <use x="254.492188" xlink:href="#DejaVuSans-48"/>
      </g>
     </g>
    </g>
    <g id="ytick_14">
     <g id="line2d_46">
      <path clip-path="url(#p86294d6b2e)" d="M 30.103125 178.88202 
L 1099.073125 178.88202 
" style="fill:none;stroke:#ffffff;stroke-linecap:square;stroke-width:0.8;"/>
     </g>
     <g id="line2d_47">
      <g>
       <use style="fill:#555555;stroke:#555555;stroke-width:0.8;" x="1099.073125" xlink:href="#mef1e6ba24d" y="178.88202"/>
      </g>
     </g>
     <g id="text_21">
      <!-- 25000 -->
      <g style="fill:#555555;" transform="translate(1106.073125 182.681239)scale(0.1 -0.1)">
       <use xlink:href="#DejaVuSans-50"/>
       <use x="63.623047" xlink:href="#DejaVuSans-53"/>
       <use x="127.246094" xlink:href="#DejaVuSans-48"/>
       <use x="190.869141" xlink:href="#DejaVuSans-48"/>
       <use x="254.492188" xlink:href="#DejaVuSans-48"/>
      </g>
     </g>
    </g>
    <g id="ytick_15">
     <g id="line2d_48">
      <path clip-path="url(#p86294d6b2e)" d="M 30.103125 96.857606 
L 1099.073125 96.857606 
" style="fill:none;stroke:#ffffff;stroke-linecap:square;stroke-width:0.8;"/>
     </g>
     <g id="line2d_49">
      <g>
       <use style="fill:#555555;stroke:#555555;stroke-width:0.8;" x="1099.073125" xlink:href="#mef1e6ba24d" y="96.857606"/>
      </g>
     </g>
     <g id="text_22">
      <!-- 30000 -->
      <g style="fill:#555555;" transform="translate(1106.073125 100.656825)scale(0.1 -0.1)">
       <use xlink:href="#DejaVuSans-51"/>
       <use x="63.623047" xlink:href="#DejaVuSans-48"/>
       <use x="127.246094" xlink:href="#DejaVuSans-48"/>
       <use x="190.869141" xlink:href="#DejaVuSans-48"/>
       <use x="254.492188" xlink:href="#DejaVuSans-48"/>
      </g>
     </g>
    </g>
    <g id="ytick_16">
     <g id="line2d_50">
      <path clip-path="url(#p86294d6b2e)" d="M 30.103125 14.833192 
L 1099.073125 14.833192 
" style="fill:none;stroke:#ffffff;stroke-linecap:square;stroke-width:0.8;"/>
     </g>
     <g id="line2d_51">
      <g>
       <use style="fill:#555555;stroke:#555555;stroke-width:0.8;" x="1099.073125" xlink:href="#mef1e6ba24d" y="14.833192"/>
      </g>
     </g>
     <g id="text_23">
      <!-- 35000 -->
      <g style="fill:#555555;" transform="translate(1106.073125 18.632411)scale(0.1 -0.1)">
       <use xlink:href="#DejaVuSans-51"/>
       <use x="63.623047" xlink:href="#DejaVuSans-53"/>
       <use x="127.246094" xlink:href="#DejaVuSans-48"/>
       <use x="190.869141" xlink:href="#DejaVuSans-48"/>
       <use x="254.492188" xlink:href="#DejaVuSans-48"/>
      </g>
     </g>
    </g>
   </g>
   <g id="line2d_52">
    <path clip-path="url(#p86294d6b2e)" d="M 78.69267 588.134631 
L 81.270365 588.479134 
L 83.84806 588.309617 
L 89.003449 588.361019 
L 91.581144 588.287744 
L 94.158839 588.066668 
L 99.314228 587.290952 
L 101.891923 587.187835 
L 104.469618 586.698032 
L 107.047312 586.42618 
L 109.625007 585.945751 
L 112.202702 584.389631 
L 114.780397 583.325657 
L 117.358091 581.973426 
L 125.091175 575.27086 
L 127.66887 573.463979 
L 130.246565 568.779213 
L 132.82426 563.471062 
L 135.401954 558.849572 
L 137.979649 556.728655 
L 140.557344 549.960469 
L 143.135038 541.476801 
L 145.712733 534.268027 
L 148.290428 529.222354 
L 150.868123 522.608842 
L 153.445817 514.197824 
L 156.023512 509.470875 
L 158.601207 507.856166 
L 161.178901 508.205355 
L 163.756596 505.07671 
L 166.334291 502.259757 
L 168.911986 501.336396 
L 171.48968 501.83323 
L 174.067375 497.214084 
L 176.64507 499.731061 
L 179.222764 501.561378 
L 181.800459 504.959532 
L 184.378154 507.729614 
L 186.955849 509.723979 
L 189.533543 514.291567 
L 192.111238 521.59174 
L 194.688933 524.263392 
L 197.266628 528.3693 
L 199.844322 531.924472 
L 202.422017 536.864685 
L 204.999712 541.418212 
L 207.577406 542.646235 
L 210.155101 543.496945 
L 212.732796 545.282734 
L 217.888185 546.562315 
L 220.46588 547.766902 
L 223.043575 550.211229 
L 225.621269 553.853113 
L 233.354354 558.819106 
L 238.509743 563.053909 
L 241.087438 564.68971 
L 243.665132 567.291056 
L 246.242827 569.503372 
L 248.820522 570.297837 
L 251.398217 571.373528 
L 253.975911 572.210177 
L 256.553606 572.664827 
L 259.131301 573.672555 
L 261.708996 572.955428 
L 264.28669 573.250715 
L 266.864385 574.00534 
L 269.44208 573.424139 
L 272.019774 573.773328 
L 274.597469 574.595916 
L 277.175164 575.289608 
L 279.752859 576.768391 
L 282.330553 576.96525 
L 284.908248 577.000403 
L 287.485943 577.984696 
L 290.063637 577.987039 
L 292.641332 578.427628 
L 295.219027 579.489258 
L 297.796722 579.447074 
L 300.374416 579.803294 
L 305.529806 580.117331 
L 310.685195 582.05545 
L 313.26289 581.396912 
L 315.840585 581.162556 
L 318.418279 581.502372 
L 320.995974 581.399255 
L 323.573669 581.912494 
L 326.151363 581.959365 
L 328.729058 581.863279 
L 331.306753 582.411671 
L 333.884448 583.187387 
L 336.462142 583.152234 
L 339.039837 583.431117 
L 341.617532 583.11005 
L 344.195227 583.166295 
L 346.772921 582.788983 
L 349.350616 583.372528 
L 357.0837 583.688908 
L 364.816784 583.501424 
L 367.394479 582.301524 
L 369.972174 581.708604 
L 372.549868 580.67744 
L 375.127563 579.868914 
L 377.705258 579.57597 
L 380.282953 579.008829 
L 382.860647 578.891652 
L 385.438342 579.578313 
L 388.016037 579.376767 
L 390.593731 580.386839 
L 393.171426 581.031317 
L 395.749121 581.043035 
L 400.90451 581.624236 
L 403.482205 581.696887 
L 406.0599 582.317929 
L 411.215289 582.458542 
L 416.370679 582.873351 
L 424.103763 583.238946 
L 426.681458 583.217854 
L 429.259152 583.358467 
L 431.836847 583.306909 
L 434.414542 583.414712 
L 436.992236 583.199105 
L 442.147626 582.40464 
L 444.725321 582.512444 
L 455.036099 581.720322 
L 460.191489 580.586042 
L 467.924573 579.871257 
L 470.502268 579.33224 
L 473.079962 578.551836 
L 475.657657 578.422941 
L 478.235352 578.015162 
L 480.813047 578.167493 
L 483.390741 577.771432 
L 485.968436 577.194918 
L 488.546131 577.061335 
L 491.123826 576.726207 
L 493.70152 576.077042 
L 496.279215 575.685669 
L 498.85691 574.947449 
L 501.434604 575.118529 
L 504.012299 574.914639 
L 506.589994 573.778015 
L 509.167689 572.840593 
L 514.323078 571.446178 
L 516.900773 571.28213 
L 519.478467 570.989185 
L 522.056162 569.995518 
L 527.211552 568.715937 
L 529.789246 568.767495 
L 532.366941 567.316835 
L 537.52233 566.597364 
L 540.100025 566.859842 
L 542.67772 566.705167 
L 545.255415 567.173878 
L 547.833109 566.836406 
L 550.410804 568.137079 
L 552.988499 568.130048 
L 558.143888 568.507361 
L 560.721583 569.257298 
L 563.299278 569.716635 
L 568.454667 570.229873 
L 573.610057 569.276047 
L 576.187751 568.617508 
L 578.765446 568.804992 
L 581.343141 567.443387 
L 583.920835 567.370737 
L 586.49853 566.780161 
L 589.076225 566.873903 
L 591.65392 566.609081 
L 594.231614 566.824689 
L 596.809309 565.125611 
L 599.387004 564.417858 
L 601.964698 563.405442 
L 604.542393 561.842291 
L 607.120088 560.9119 
L 609.697783 560.923618 
L 612.275477 559.953386 
L 614.853172 560.262735 
L 617.430867 560.382257 
L 622.586256 559.334688 
L 625.163951 559.182357 
L 630.31934 557.921524 
L 632.897035 557.853561 
L 635.47473 557.009881 
L 638.052424 555.791233 
L 640.630119 555.659994 
L 643.207814 553.623445 
L 645.785509 553.17817 
L 648.363203 551.889215 
L 650.940898 549.475353 
L 653.518593 545.831126 
L 656.096288 541.511954 
L 658.673982 536.454563 
L 661.251677 533.632924 
L 663.829372 531.090167 
L 666.407066 527.614675 
L 668.984761 522.215125 
L 671.562456 516.168754 
L 674.140151 509.564617 
L 676.717845 502.278505 
L 679.29554 497.347666 
L 681.873235 492.993342 
L 684.450929 486.557941 
L 687.028624 480.785765 
L 689.606319 469.89058 
L 692.184014 460.731968 
L 694.761708 444.598937 
L 697.339403 431.50081 
L 702.494792 410.64083 
L 705.072487 393.371176 
L 707.650182 380.512091 
L 710.227877 363.078388 
L 712.805571 352.895643 
L 715.383266 345.862635 
L 717.960961 337.866426 
L 720.538656 328.62579 
L 723.11635 323.352792 
L 725.694045 315.81592 
L 728.27174 309.195378 
L 730.849434 299.024351 
L 733.427129 294.71221 
L 736.004824 291.74527 
L 738.582519 291.792141 
L 741.160213 288.808796 
L 743.737908 284.412288 
L 746.315603 279.64081 
L 748.893297 281.839064 
L 751.470992 279.659559 
L 754.048687 285.609844 
L 759.204076 289.919641 
L 761.781771 288.17838 
L 764.359466 287.929963 
L 766.93716 286.751155 
L 769.514855 289.577482 
L 772.09255 289.48374 
L 774.670245 291.510915 
L 777.247939 288.998624 
L 779.825634 289.797776 
L 782.403329 291.771049 
L 784.981023 294.74502 
L 787.558718 297.393237 
L 790.136413 296.678453 
L 792.714108 296.561275 
L 795.291802 299.75554 
L 797.869497 300.275809 
L 800.447192 298.768904 
L 803.024887 294.965314 
L 805.602581 287.569056 
L 808.180276 284.843502 
L 810.757971 283.788902 
L 813.335665 275.481001 
L 815.91336 271.653976 
L 818.491055 256.594293 
L 821.06875 244.595293 
L 823.646444 238.893425 
L 826.224139 229.448899 
L 828.801834 228.563036 
L 831.379528 212.362042 
L 833.957223 204.759551 
L 836.534918 195.615 
L 839.112613 188.907747 
L 841.690307 182.882468 
L 844.268002 182.223929 
L 846.845697 170.281174 
L 849.423391 177.283716 
L 852.001086 164.928495 
L 854.578781 184.24876 
L 857.156476 223.725939 
L 859.73417 244.855428 
L 862.311865 258.136352 
L 864.88956 273.688181 
L 867.467254 279.03383 
L 870.044949 278.19718 
L 872.622644 284.311515 
L 875.200339 288.447889 
L 877.778033 296.509717 
L 880.355728 299.15559 
L 882.933423 301.487427 
L 885.511118 304.351251 
L 888.088812 318.789891 
L 890.666507 297.873666 
L 893.244202 269.741635 
L 895.821896 254.154653 
L 898.399591 247.991104 
L 900.977286 245.870187 
L 903.554981 249.706586 
L 906.132675 252.582128 
L 908.71037 274.80137 
L 911.288065 288.900195 
L 913.865759 296.127717 
L 916.443454 308.632925 
L 919.021149 311.991239 
L 921.598844 320.488968 
L 924.176538 331.65835 
L 926.754233 342.218407 
L 929.331928 347.517185 
L 931.909622 351.325461 
L 934.487317 352.291005 
L 937.065012 363.908006 
L 942.220401 377.081127 
L 944.798096 386.080377 
L 947.375791 395.679577 
L 952.53118 400.802587 
L 955.108875 401.500967 
L 957.68657 409.696377 
L 960.264264 417.519163 
L 962.841959 420.129883 
L 965.419654 424.432649 
L 967.997349 430.469646 
L 970.575043 432.98428 
L 973.152738 439.393902 
L 975.730433 443.220927 
L 978.308127 452.534214 
L 980.885822 459.677368 
L 983.463517 464.671483 
L 986.041212 470.535057 
L 988.618906 470.790505 
L 991.196601 469.672629 
L 993.774296 470.881903 
L 996.35199 470.95221 
L 998.929685 472.702845 
L 1001.50738 470.804566 
L 1004.085075 467.143934 
L 1006.662769 467.277516 
L 1009.240464 467.21424 
L 1011.818159 466.157297 
L 1014.395853 462.262309 
L 1016.973548 460.190607 
L 1019.551243 458.789161 
L 1022.128938 458.28764 
L 1024.706632 457.43693 
L 1027.284327 457.296317 
L 1029.862022 454.924639 
L 1032.439717 454.823867 
L 1035.017411 453.457574 
L 1037.595106 453.938003 
L 1040.172801 453.438826 
L 1045.32819 452.060816 
L 1047.905885 451.763184 
L 1050.48358 446.035536 
L 1050.48358 446.035536 
" style="fill:none;stroke:#000000;stroke-linecap:square;stroke-width:1.5;"/>
   </g>
   <g id="line2d_53">
    <path clip-path="url(#p86294d6b2e)" d="M 78.69267 588.134631 
L 81.270365 588.823636 
L 83.84806 587.970582 
L 86.425755 588.544753 
L 89.003449 588.33149 
L 91.581144 587.921368 
L 94.158839 586.740216 
L 96.736533 585.083323 
L 99.314228 586.444928 
L 101.891923 587.248768 
L 104.469618 585.116133 
L 107.047312 586.428523 
L 109.625007 584.558367 
L 112.202702 575.847374 
L 114.780397 577.635506 
L 117.358091 576.979311 
L 119.935786 571.893797 
L 122.513481 569.744758 
L 125.091175 570.236904 
L 127.66887 571.910202 
L 130.246565 543.054013 
L 132.82426 540.478447 
L 135.401954 544.628882 
L 137.979649 557.047378 
L 140.557344 522.367456 
L 143.135038 510.851228 
L 145.712733 521.448783 
L 150.868123 494.183867 
L 153.445817 485.751758 
L 156.023512 523.95873 
L 158.601207 511.064492 
L 161.178901 513.295556 
L 163.756596 499.548264 
L 166.334291 488.015632 
L 168.911986 487.720344 
L 171.48968 489.229593 
L 174.067375 491.624706 
L 176.64507 528.683336 
L 179.222764 526.107769 
L 181.800459 523.335344 
L 184.378154 507.406203 
L 186.955849 501.680899 
L 189.533543 521.202709 
L 192.111238 542.725916 
L 194.688933 547.384902 
L 197.266628 554.849124 
L 199.844322 548.221551 
L 202.422017 541.987696 
L 204.999712 533.555586 
L 207.577406 529.798868 
L 210.155101 548.680888 
L 212.732796 559.885423 
L 215.310491 559.721374 
L 217.888185 552.306367 
L 220.46588 550.419806 
L 223.043575 550.665879 
L 225.621269 555.292056 
L 228.198964 560.508809 
L 230.776659 572.303919 
L 233.354354 570.236904 
L 235.932048 567.612123 
L 238.509743 564.757673 
L 241.087438 562.116487 
L 243.665132 573.501476 
L 246.242827 575.995018 
L 248.820522 577.865175 
L 251.398217 577.766745 
L 253.975911 573.468666 
L 256.553606 567.940221 
L 259.131301 569.170587 
L 261.708996 568.481582 
L 264.28669 578.062033 
L 266.864385 583.147547 
L 269.44208 573.698334 
L 272.019774 575.912994 
L 274.597469 573.698334 
L 277.175164 574.026432 
L 279.752859 578.833063 
L 282.330553 579.440043 
L 284.908248 583.39362 
L 287.485943 580.588385 
L 290.063637 575.929398 
L 292.641332 576.782452 
L 295.219027 581.457844 
L 297.796722 578.537775 
L 300.374416 581.933586 
L 302.952111 584.263079 
L 305.529806 581.917181 
L 308.1075 583.065522 
L 310.685195 583.213166 
L 313.26289 576.848072 
L 315.840585 576.897287 
L 318.418279 584.312294 
L 320.995974 583.541264 
L 323.573669 585.50985 
L 326.151363 583.39362 
L 328.729058 582.540566 
L 331.306753 580.686814 
L 339.039837 585.493445 
L 341.617532 583.262381 
L 344.195227 583.787337 
L 346.772921 579.89938 
L 349.350616 584.77163 
L 351.928311 583.295191 
L 354.506005 584.952084 
L 357.0837 585.854353 
L 359.661395 582.803044 
L 362.23909 583.344406 
L 364.816784 579.489258 
L 367.394479 576.37233 
L 369.972174 579.144756 
L 372.549868 577.733936 
L 375.127563 580.194668 
L 377.705258 580.752434 
L 380.282953 579.374424 
L 382.860647 578.669014 
L 385.438342 581.178961 
L 388.016037 577.733936 
L 390.593731 584.80444 
L 393.171426 584.706011 
L 395.749121 580.834458 
L 398.326816 581.359415 
L 400.90451 580.752434 
L 403.482205 581.687512 
L 406.0599 582.08123 
L 408.637594 585.083323 
L 411.215289 585.411421 
L 413.792984 582.606186 
L 416.370679 582.491352 
L 418.948373 581.753132 
L 421.526068 582.524161 
L 424.103763 582.803044 
L 426.681458 584.935679 
L 429.259152 586.395714 
L 431.836847 582.245278 
L 434.414542 583.245976 
L 436.992236 580.243883 
L 439.569931 579.440043 
L 442.147626 580.325907 
L 444.725321 585.690304 
L 447.303015 584.919274 
L 449.88071 580.440741 
L 452.458405 581.556273 
L 455.036099 579.669712 
L 457.613794 575.634111 
L 460.191489 576.191877 
L 462.769184 584.000601 
L 465.346878 583.42643 
L 467.924573 578.619799 
L 470.502268 577.78315 
L 473.079962 574.206886 
L 475.657657 574.731842 
L 478.235352 573.337427 
L 480.813047 585.066918 
L 483.390741 580.654005 
L 485.968436 574.584198 
L 488.546131 576.848072 
L 491.123826 571.860988 
L 493.70152 570.187689 
L 496.279215 570.597812 
L 498.85691 579.89938 
L 501.434604 581.851561 
L 504.012299 573.156973 
L 506.589994 568.891704 
L 509.167689 565.299034 
L 511.745383 565.233415 
L 514.323078 565.791181 
L 516.900773 578.751038 
L 519.478467 579.800951 
L 522.056162 566.201303 
L 524.633857 564.232717 
L 527.211552 561.000955 
L 529.789246 565.594322 
L 532.366941 555.636558 
L 534.944636 576.175472 
L 537.52233 577.340218 
L 540.100025 568.03865 
L 542.67772 563.149995 
L 545.255415 564.281932 
L 547.833109 563.232019 
L 550.410804 564.741268 
L 552.988499 576.126257 
L 555.566193 578.997112 
L 558.143888 569.022943 
L 560.721583 568.399557 
L 563.299278 567.497289 
L 565.876972 565.167795 
L 568.454667 566.398162 
L 571.032362 572.796066 
L 573.610057 575.650515 
L 576.187751 564.413171 
L 578.765446 569.711948 
L 581.343141 557.966052 
L 583.920835 564.659244 
L 586.49853 562.264131 
L 589.076225 573.452261 
L 591.65392 573.796764 
L 596.809309 557.818408 
L 599.387004 553.011777 
L 601.964698 557.572335 
L 604.542393 551.322074 
L 607.120088 566.939523 
L 609.697783 573.878788 
L 612.275477 559.130798 
L 614.853172 559.983852 
L 617.430867 553.848426 
L 620.008561 553.684377 
L 622.586256 547.877049 
L 625.163951 565.873205 
L 627.741646 569.44947 
L 630.31934 554.73429 
L 632.897035 559.508111 
L 635.47473 547.942668 
L 638.052424 545.153838 
L 640.630119 546.958375 
L 643.207814 551.617362 
L 645.785509 566.332542 
L 648.363203 545.711604 
L 650.940898 542.611082 
L 653.518593 522.433076 
L 656.096288 514.919639 
L 658.673982 511.556638 
L 661.251677 531.865883 
L 663.829372 548.533244 
L 666.407066 521.383163 
L 668.984761 504.814232 
L 671.562456 480.108478 
L 674.140151 468.69068 
L 676.717845 460.553858 
L 679.29554 497.35001 
L 681.873235 518.052972 
L 684.450929 476.335355 
L 687.028624 464.409005 
L 689.606319 403.842178 
L 692.184014 404.580398 
L 694.761708 347.622645 
L 697.339403 405.66312 
L 699.917098 446.527683 
L 702.494792 401.840782 
L 705.072487 343.521424 
L 707.650182 313.828586 
L 710.227877 282.544474 
L 712.805571 276.343429 
L 715.383266 356.432067 
L 717.960961 390.554223 
L 720.538656 337.156329 
L 723.11635 306.610438 
L 725.694045 261.070483 
L 728.27174 236.200681 
L 730.849434 205.146237 
L 733.427129 326.247082 
L 736.004824 369.785641 
L 738.582519 337.484427 
L 741.160213 285.727022 
L 743.737908 230.294923 
L 746.315603 202.800339 
L 748.893297 220.534017 
L 751.470992 310.990541 
L 754.048687 411.437639 
L 756.626382 352.462085 
L 759.204076 300.917943 
L 761.781771 218.106095 
L 764.359466 201.061422 
L 766.93716 212.282361 
L 769.514855 330.77483 
L 772.09255 410.781443 
L 774.670245 366.652309 
L 777.247939 283.331909 
L 779.825634 223.70016 
L 782.403329 214.874333 
L 784.981023 233.100158 
L 787.558718 349.312347 
L 790.136413 405.777954 
L 792.714108 365.832064 
L 795.291802 305.691764 
L 797.869497 227.342044 
L 800.447192 204.325993 
L 803.024887 206.475033 
L 808.180276 386.699075 
L 810.757971 358.449867 
L 813.335665 247.536455 
L 815.91336 200.55287 
L 818.491055 98.908216 
L 821.06875 122.482033 
L 823.646444 257.625457 
L 826.224139 320.587398 
L 828.801834 352.248821 
L 831.379528 134.1295 
L 833.957223 147.33543 
L 836.534918 34.896364 
L 839.112613 75.531258 
L 841.690307 215.448504 
L 844.268002 315.977626 
L 846.845697 268.649539 
L 849.423391 183.14729 
L 852.001086 60.848888 
L 854.578781 170.138217 
L 857.156476 351.871509 
L 859.73417 363.354927 
L 862.311865 408.944096 
L 864.88956 377.512341 
L 867.467254 220.566827 
L 870.044949 54.992345 
L 872.622644 212.938557 
L 875.200339 380.826127 
L 877.778033 419.787724 
L 880.355728 427.465209 
L 882.933423 393.835199 
L 885.511118 240.613594 
L 888.088812 156.062828 
L 890.666507 66.524978 
L 893.244202 183.901914 
L 895.821896 310.678848 
L 898.399591 384.320367 
L 900.977286 378.98878 
L 903.554981 267.468387 
L 906.132675 176.191619 
L 908.71037 222.059672 
L 911.288065 282.593689 
L 913.865759 361.271507 
L 916.443454 471.856822 
L 919.021149 402.496977 
L 924.176538 254.377291 
L 926.754233 295.980073 
L 929.331928 319.685129 
L 931.909622 387.929442 
L 934.487317 478.615634 
L 937.065012 483.815982 
L 939.642707 372.426827 
L 942.220401 301.114802 
L 944.798096 358.974823 
L 947.375791 386.879529 
L 949.953486 405.400642 
L 952.53118 497.005507 
L 955.108875 488.704637 
L 957.68657 429.794702 
L 960.264264 355.874301 
L 962.841959 377.249863 
L 965.419654 416.998894 
L 967.997349 447.65962 
L 970.575043 514.607947 
L 973.152738 533.571991 
L 975.730433 456.583876 
L 978.308127 421.067305 
L 980.885822 427.251946 
L 983.463517 451.957699 
L 986.041212 488.704637 
L 988.618906 516.396079 
L 991.196601 525.746862 
L 993.774296 465.048796 
L 996.35199 421.559451 
L 998.929685 439.506393 
L 1001.50738 438.669744 
L 1004.085075 463.08021 
L 1006.662769 517.331157 
L 1009.240464 525.30393 
L 1011.818159 457.650193 
L 1014.395853 394.294536 
L 1016.973548 425.004477 
L 1019.551243 428.859624 
L 1022.128938 459.569565 
L 1024.706632 511.376185 
L 1027.284327 524.319637 
L 1029.862022 441.048452 
L 1032.439717 393.589126 
L 1035.017411 415.44043 
L 1037.595106 432.222625 
L 1040.172801 456.075325 
L 1042.750495 506.799222 
L 1045.32819 519.250528 
L 1047.905885 438.965032 
L 1050.48358 353.495593 
L 1050.48358 353.495593 
" style="fill:none;stroke:#000000;stroke-dasharray:1.5,2.475;stroke-dashoffset:0;stroke-width:1.5;"/>
   </g>
   <g id="patch_7">
    <path d="M 30.103125 616.52 
L 30.103125 7.2 
" style="fill:none;stroke:#ffffff;stroke-linecap:square;stroke-linejoin:miter;"/>
   </g>
   <g id="patch_8">
    <path d="M 1099.073125 616.52 
L 1099.073125 7.2 
" style="fill:none;stroke:#ffffff;stroke-linecap:square;stroke-linejoin:miter;"/>
   </g>
   <g id="patch_9">
    <path d="M 30.103125 616.52 
L 1099.073125 616.52 
" style="fill:none;stroke:#ffffff;stroke-linecap:square;stroke-linejoin:miter;"/>
   </g>
   <g id="patch_10">
    <path d="M 30.103125 7.2 
L 1099.073125 7.2 
" style="fill:none;stroke:#ffffff;stroke-linecap:square;stroke-linejoin:miter;"/>
   </g>
   <g id="legend_1">
    <g id="patch_11">
     <path d="M 934.877812 103.26875 
L 1092.073125 103.26875 
Q 1094.073125 103.26875 1094.073125 101.26875 
L 1094.073125 14.2 
Q 1094.073125 12.2 1092.073125 12.2 
L 934.877812 12.2 
Q 932.877812 12.2 932.877812 14.2 
L 932.877812 101.26875 
Q 932.877812 103.26875 934.877812 103.26875 
z
" style="fill:#e5e5e5;opacity:0.8;stroke:#cccccc;stroke-linejoin:miter;stroke-width:0.5;"/>
    </g>
    <g id="line2d_54">
     <path d="M 936.877812 20.298437 
L 956.877812 20.298437 
" style="fill:none;stroke:#e24a33;stroke-linecap:square;stroke-width:1.5;"/>
    </g>
    <g id="line2d_55"/>
    <g id="text_24">
     <!-- Logistic rate rolling week -->
     <g transform="translate(964.877812 23.798437)scale(0.1 -0.1)">
      <defs>
       <path d="M 9.8125 72.90625 
L 19.671875 72.90625 
L 19.671875 8.296875 
L 55.171875 8.296875 
L 55.171875 0 
L 9.8125 0 
z
" id="DejaVuSans-76"/>
       <path d="M 30.609375 48.390625 
Q 23.390625 48.390625 19.1875 42.75 
Q 14.984375 37.109375 14.984375 27.296875 
Q 14.984375 17.484375 19.15625 11.84375 
Q 23.34375 6.203125 30.609375 6.203125 
Q 37.796875 6.203125 41.984375 11.859375 
Q 46.1875 17.53125 46.1875 27.296875 
Q 46.1875 37.015625 41.984375 42.703125 
Q 37.796875 48.390625 30.609375 48.390625 
z
M 30.609375 56 
Q 42.328125 56 49.015625 48.375 
Q 55.71875 40.765625 55.71875 27.296875 
Q 55.71875 13.875 49.015625 6.21875 
Q 42.328125 -1.421875 30.609375 -1.421875 
Q 18.84375 -1.421875 12.171875 6.21875 
Q 5.515625 13.875 5.515625 27.296875 
Q 5.515625 40.765625 12.171875 48.375 
Q 18.84375 56 30.609375 56 
z
" id="DejaVuSans-111"/>
       <path d="M 45.40625 27.984375 
Q 45.40625 37.75 41.375 43.109375 
Q 37.359375 48.484375 30.078125 48.484375 
Q 22.859375 48.484375 18.828125 43.109375 
Q 14.796875 37.75 14.796875 27.984375 
Q 14.796875 18.265625 18.828125 12.890625 
Q 22.859375 7.515625 30.078125 7.515625 
Q 37.359375 7.515625 41.375 12.890625 
Q 45.40625 18.265625 45.40625 27.984375 
z
M 54.390625 6.78125 
Q 54.390625 -7.171875 48.1875 -13.984375 
Q 42 -20.796875 29.203125 -20.796875 
Q 24.46875 -20.796875 20.265625 -20.09375 
Q 16.0625 -19.390625 12.109375 -17.921875 
L 12.109375 -9.1875 
Q 16.0625 -11.328125 19.921875 -12.34375 
Q 23.78125 -13.375 27.78125 -13.375 
Q 36.625 -13.375 41.015625 -8.765625 
Q 45.40625 -4.15625 45.40625 5.171875 
L 45.40625 9.625 
Q 42.625 4.78125 38.28125 2.390625 
Q 33.9375 0 27.875 0 
Q 17.828125 0 11.671875 7.65625 
Q 5.515625 15.328125 5.515625 27.984375 
Q 5.515625 40.671875 11.671875 48.328125 
Q 17.828125 56 27.875 56 
Q 33.9375 56 38.28125 53.609375 
Q 42.625 51.21875 45.40625 46.390625 
L 45.40625 54.6875 
L 54.390625 54.6875 
z
" id="DejaVuSans-103"/>
       <path d="M 9.421875 54.6875 
L 18.40625 54.6875 
L 18.40625 0 
L 9.421875 0 
z
M 9.421875 75.984375 
L 18.40625 75.984375 
L 18.40625 64.59375 
L 9.421875 64.59375 
z
" id="DejaVuSans-105"/>
       <path d="M 44.28125 53.078125 
L 44.28125 44.578125 
Q 40.484375 46.53125 36.375 47.5 
Q 32.28125 48.484375 27.875 48.484375 
Q 21.1875 48.484375 17.84375 46.4375 
Q 14.5 44.390625 14.5 40.28125 
Q 14.5 37.15625 16.890625 35.375 
Q 19.28125 33.59375 26.515625 31.984375 
L 29.59375 31.296875 
Q 39.15625 29.25 43.1875 25.515625 
Q 47.21875 21.78125 47.21875 15.09375 
Q 47.21875 7.46875 41.1875 3.015625 
Q 35.15625 -1.421875 24.609375 -1.421875 
Q 20.21875 -1.421875 15.453125 -0.5625 
Q 10.6875 0.296875 5.421875 2 
L 5.421875 11.28125 
Q 10.40625 8.6875 15.234375 7.390625 
Q 20.0625 6.109375 24.8125 6.109375 
Q 31.15625 6.109375 34.5625 8.28125 
Q 37.984375 10.453125 37.984375 14.40625 
Q 37.984375 18.0625 35.515625 20.015625 
Q 33.0625 21.96875 24.703125 23.78125 
L 21.578125 24.515625 
Q 13.234375 26.265625 9.515625 29.90625 
Q 5.8125 33.546875 5.8125 39.890625 
Q 5.8125 47.609375 11.28125 51.796875 
Q 16.75 56 26.8125 56 
Q 31.78125 56 36.171875 55.265625 
Q 40.578125 54.546875 44.28125 53.078125 
z
" id="DejaVuSans-115"/>
       <path d="M 18.3125 70.21875 
L 18.3125 54.6875 
L 36.8125 54.6875 
L 36.8125 47.703125 
L 18.3125 47.703125 
L 18.3125 18.015625 
Q 18.3125 11.328125 20.140625 9.421875 
Q 21.96875 7.515625 27.59375 7.515625 
L 36.8125 7.515625 
L 36.8125 0 
L 27.59375 0 
Q 17.1875 0 13.234375 3.875 
Q 9.28125 7.765625 9.28125 18.015625 
L 9.28125 47.703125 
L 2.6875 47.703125 
L 2.6875 54.6875 
L 9.28125 54.6875 
L 9.28125 70.21875 
z
" id="DejaVuSans-116"/>
       <path d="M 48.78125 52.59375 
L 48.78125 44.1875 
Q 44.96875 46.296875 41.140625 47.34375 
Q 37.3125 48.390625 33.40625 48.390625 
Q 24.65625 48.390625 19.8125 42.84375 
Q 14.984375 37.3125 14.984375 27.296875 
Q 14.984375 17.28125 19.8125 11.734375 
Q 24.65625 6.203125 33.40625 6.203125 
Q 37.3125 6.203125 41.140625 7.25 
Q 44.96875 8.296875 48.78125 10.40625 
L 48.78125 2.09375 
Q 45.015625 0.34375 40.984375 -0.53125 
Q 36.96875 -1.421875 32.421875 -1.421875 
Q 20.0625 -1.421875 12.78125 6.34375 
Q 5.515625 14.109375 5.515625 27.296875 
Q 5.515625 40.671875 12.859375 48.328125 
Q 20.21875 56 33.015625 56 
Q 37.15625 56 41.109375 55.140625 
Q 45.0625 54.296875 48.78125 52.59375 
z
" id="DejaVuSans-99"/>
       <path id="DejaVuSans-32"/>
       <path d="M 41.109375 46.296875 
Q 39.59375 47.171875 37.8125 47.578125 
Q 36.03125 48 33.890625 48 
Q 26.265625 48 22.1875 43.046875 
Q 18.109375 38.09375 18.109375 28.8125 
L 18.109375 0 
L 9.078125 0 
L 9.078125 54.6875 
L 18.109375 54.6875 
L 18.109375 46.1875 
Q 20.953125 51.171875 25.484375 53.578125 
Q 30.03125 56 36.53125 56 
Q 37.453125 56 38.578125 55.875 
Q 39.703125 55.765625 41.0625 55.515625 
z
" id="DejaVuSans-114"/>
       <path d="M 34.28125 27.484375 
Q 23.390625 27.484375 19.1875 25 
Q 14.984375 22.515625 14.984375 16.5 
Q 14.984375 11.71875 18.140625 8.90625 
Q 21.296875 6.109375 26.703125 6.109375 
Q 34.1875 6.109375 38.703125 11.40625 
Q 43.21875 16.703125 43.21875 25.484375 
L 43.21875 27.484375 
z
M 52.203125 31.203125 
L 52.203125 0 
L 43.21875 0 
L 43.21875 8.296875 
Q 40.140625 3.328125 35.546875 0.953125 
Q 30.953125 -1.421875 24.3125 -1.421875 
Q 15.921875 -1.421875 10.953125 3.296875 
Q 6 8.015625 6 15.921875 
Q 6 25.140625 12.171875 29.828125 
Q 18.359375 34.515625 30.609375 34.515625 
L 43.21875 34.515625 
L 43.21875 35.40625 
Q 43.21875 41.609375 39.140625 45 
Q 35.0625 48.390625 27.6875 48.390625 
Q 23 48.390625 18.546875 47.265625 
Q 14.109375 46.140625 10.015625 43.890625 
L 10.015625 52.203125 
Q 14.9375 54.109375 19.578125 55.046875 
Q 24.21875 56 28.609375 56 
Q 40.484375 56 46.34375 49.84375 
Q 52.203125 43.703125 52.203125 31.203125 
z
" id="DejaVuSans-97"/>
       <path d="M 56.203125 29.59375 
L 56.203125 25.203125 
L 14.890625 25.203125 
Q 15.484375 15.921875 20.484375 11.0625 
Q 25.484375 6.203125 34.421875 6.203125 
Q 39.59375 6.203125 44.453125 7.46875 
Q 49.3125 8.734375 54.109375 11.28125 
L 54.109375 2.78125 
Q 49.265625 0.734375 44.1875 -0.34375 
Q 39.109375 -1.421875 33.890625 -1.421875 
Q 20.796875 -1.421875 13.15625 6.1875 
Q 5.515625 13.8125 5.515625 26.8125 
Q 5.515625 40.234375 12.765625 48.109375 
Q 20.015625 56 32.328125 56 
Q 43.359375 56 49.78125 48.890625 
Q 56.203125 41.796875 56.203125 29.59375 
z
M 47.21875 32.234375 
Q 47.125 39.59375 43.09375 43.984375 
Q 39.0625 48.390625 32.421875 48.390625 
Q 24.90625 48.390625 20.390625 44.140625 
Q 15.875 39.890625 15.1875 32.171875 
z
" id="DejaVuSans-101"/>
       <path d="M 9.421875 75.984375 
L 18.40625 75.984375 
L 18.40625 0 
L 9.421875 0 
z
" id="DejaVuSans-108"/>
       <path d="M 54.890625 33.015625 
L 54.890625 0 
L 45.90625 0 
L 45.90625 32.71875 
Q 45.90625 40.484375 42.875 44.328125 
Q 39.84375 48.1875 33.796875 48.1875 
Q 26.515625 48.1875 22.3125 43.546875 
Q 18.109375 38.921875 18.109375 30.90625 
L 18.109375 0 
L 9.078125 0 
L 9.078125 54.6875 
L 18.109375 54.6875 
L 18.109375 46.1875 
Q 21.34375 51.125 25.703125 53.5625 
Q 30.078125 56 35.796875 56 
Q 45.21875 56 50.046875 50.171875 
Q 54.890625 44.34375 54.890625 33.015625 
z
" id="DejaVuSans-110"/>
       <path d="M 4.203125 54.6875 
L 13.1875 54.6875 
L 24.421875 12.015625 
L 35.59375 54.6875 
L 46.1875 54.6875 
L 57.421875 12.015625 
L 68.609375 54.6875 
L 77.59375 54.6875 
L 63.28125 0 
L 52.6875 0 
L 40.921875 44.828125 
L 29.109375 0 
L 18.5 0 
z
" id="DejaVuSans-119"/>
       <path d="M 9.078125 75.984375 
L 18.109375 75.984375 
L 18.109375 31.109375 
L 44.921875 54.6875 
L 56.390625 54.6875 
L 27.390625 29.109375 
L 57.625 0 
L 45.90625 0 
L 18.109375 26.703125 
L 18.109375 0 
L 9.078125 0 
z
" id="DejaVuSans-107"/>
      </defs>
      <use xlink:href="#DejaVuSans-76"/>
      <use x="53.962891" xlink:href="#DejaVuSans-111"/>
      <use x="115.144531" xlink:href="#DejaVuSans-103"/>
      <use x="178.621094" xlink:href="#DejaVuSans-105"/>
      <use x="206.404297" xlink:href="#DejaVuSans-115"/>
      <use x="258.503906" xlink:href="#DejaVuSans-116"/>
      <use x="297.712891" xlink:href="#DejaVuSans-105"/>
      <use x="325.496094" xlink:href="#DejaVuSans-99"/>
      <use x="380.476562" xlink:href="#DejaVuSans-32"/>
      <use x="412.263672" xlink:href="#DejaVuSans-114"/>
      <use x="453.376953" xlink:href="#DejaVuSans-97"/>
      <use x="514.65625" xlink:href="#DejaVuSans-116"/>
      <use x="553.865234" xlink:href="#DejaVuSans-101"/>
      <use x="615.388672" xlink:href="#DejaVuSans-32"/>
      <use x="647.175781" xlink:href="#DejaVuSans-114"/>
      <use x="686.039062" xlink:href="#DejaVuSans-111"/>
      <use x="747.220703" xlink:href="#DejaVuSans-108"/>
      <use x="775.003906" xlink:href="#DejaVuSans-108"/>
      <use x="802.787109" xlink:href="#DejaVuSans-105"/>
      <use x="830.570312" xlink:href="#DejaVuSans-110"/>
      <use x="893.949219" xlink:href="#DejaVuSans-103"/>
      <use x="957.425781" xlink:href="#DejaVuSans-32"/>
      <use x="989.212891" xlink:href="#DejaVuSans-119"/>
      <use x="1071" xlink:href="#DejaVuSans-101"/>
      <use x="1132.523438" xlink:href="#DejaVuSans-101"/>
      <use x="1194.046875" xlink:href="#DejaVuSans-107"/>
     </g>
    </g>
    <g id="line2d_56">
     <path d="M 936.877812 34.976562 
L 956.877812 34.976562 
" style="fill:none;stroke:#e24a33;stroke-dasharray:1.5,2.475;stroke-dashoffset:0;stroke-width:1.5;"/>
    </g>
    <g id="line2d_57"/>
    <g id="text_25">
     <!-- Logistic rate -->
     <g transform="translate(964.877812 38.476562)scale(0.1 -0.1)">
      <use xlink:href="#DejaVuSans-76"/>
      <use x="53.962891" xlink:href="#DejaVuSans-111"/>
      <use x="115.144531" xlink:href="#DejaVuSans-103"/>
      <use x="178.621094" xlink:href="#DejaVuSans-105"/>
      <use x="206.404297" xlink:href="#DejaVuSans-115"/>
      <use x="258.503906" xlink:href="#DejaVuSans-116"/>
      <use x="297.712891" xlink:href="#DejaVuSans-105"/>
      <use x="325.496094" xlink:href="#DejaVuSans-99"/>
      <use x="380.476562" xlink:href="#DejaVuSans-32"/>
      <use x="412.263672" xlink:href="#DejaVuSans-114"/>
      <use x="453.376953" xlink:href="#DejaVuSans-97"/>
      <use x="514.65625" xlink:href="#DejaVuSans-116"/>
      <use x="553.865234" xlink:href="#DejaVuSans-101"/>
     </g>
    </g>
    <g id="line2d_58">
     <path d="M 936.877812 49.654687 
L 956.877812 49.654687 
" style="fill:none;stroke:#348abd;stroke-linecap:square;stroke-width:1.5;"/>
    </g>
    <g id="line2d_59"/>
    <g id="text_26">
     <!-- RKI rate rolling week -->
     <g transform="translate(964.877812 53.154687)scale(0.1 -0.1)">
      <defs>
       <path d="M 44.390625 34.1875 
Q 47.5625 33.109375 50.5625 29.59375 
Q 53.5625 26.078125 56.59375 19.921875 
L 66.609375 0 
L 56 0 
L 46.6875 18.703125 
Q 43.0625 26.03125 39.671875 28.421875 
Q 36.28125 30.8125 30.421875 30.8125 
L 19.671875 30.8125 
L 19.671875 0 
L 9.8125 0 
L 9.8125 72.90625 
L 32.078125 72.90625 
Q 44.578125 72.90625 50.734375 67.671875 
Q 56.890625 62.453125 56.890625 51.90625 
Q 56.890625 45.015625 53.6875 40.46875 
Q 50.484375 35.9375 44.390625 34.1875 
z
M 19.671875 64.796875 
L 19.671875 38.921875 
L 32.078125 38.921875 
Q 39.203125 38.921875 42.84375 42.21875 
Q 46.484375 45.515625 46.484375 51.90625 
Q 46.484375 58.296875 42.84375 61.546875 
Q 39.203125 64.796875 32.078125 64.796875 
z
" id="DejaVuSans-82"/>
       <path d="M 9.8125 72.90625 
L 19.671875 72.90625 
L 19.671875 42.09375 
L 52.390625 72.90625 
L 65.09375 72.90625 
L 28.90625 38.921875 
L 67.671875 0 
L 54.6875 0 
L 19.671875 35.109375 
L 19.671875 0 
L 9.8125 0 
z
" id="DejaVuSans-75"/>
       <path d="M 9.8125 72.90625 
L 19.671875 72.90625 
L 19.671875 0 
L 9.8125 0 
z
" id="DejaVuSans-73"/>
      </defs>
      <use xlink:href="#DejaVuSans-82"/>
      <use x="69.482422" xlink:href="#DejaVuSans-75"/>
      <use x="135.058594" xlink:href="#DejaVuSans-73"/>
      <use x="164.550781" xlink:href="#DejaVuSans-32"/>
      <use x="196.337891" xlink:href="#DejaVuSans-114"/>
      <use x="237.451172" xlink:href="#DejaVuSans-97"/>
      <use x="298.730469" xlink:href="#DejaVuSans-116"/>
      <use x="337.939453" xlink:href="#DejaVuSans-101"/>
      <use x="399.462891" xlink:href="#DejaVuSans-32"/>
      <use x="431.25" xlink:href="#DejaVuSans-114"/>
      <use x="470.113281" xlink:href="#DejaVuSans-111"/>
      <use x="531.294922" xlink:href="#DejaVuSans-108"/>
      <use x="559.078125" xlink:href="#DejaVuSans-108"/>
      <use x="586.861328" xlink:href="#DejaVuSans-105"/>
      <use x="614.644531" xlink:href="#DejaVuSans-110"/>
      <use x="678.023438" xlink:href="#DejaVuSans-103"/>
      <use x="741.5" xlink:href="#DejaVuSans-32"/>
      <use x="773.287109" xlink:href="#DejaVuSans-119"/>
      <use x="855.074219" xlink:href="#DejaVuSans-101"/>
      <use x="916.597656" xlink:href="#DejaVuSans-101"/>
      <use x="978.121094" xlink:href="#DejaVuSans-107"/>
     </g>
    </g>
    <g id="line2d_60">
     <path d="M 936.877812 64.332812 
L 956.877812 64.332812 
" style="fill:none;stroke:#348abd;stroke-dasharray:1.5,2.475;stroke-dashoffset:0;stroke-width:1.5;"/>
    </g>
    <g id="line2d_61"/>
    <g id="text_27">
     <!-- RKI rate -->
     <g transform="translate(964.877812 67.832812)scale(0.1 -0.1)">
      <use xlink:href="#DejaVuSans-82"/>
      <use x="69.482422" xlink:href="#DejaVuSans-75"/>
      <use x="135.058594" xlink:href="#DejaVuSans-73"/>
      <use x="164.550781" xlink:href="#DejaVuSans-32"/>
      <use x="196.337891" xlink:href="#DejaVuSans-114"/>
      <use x="237.451172" xlink:href="#DejaVuSans-97"/>
      <use x="298.730469" xlink:href="#DejaVuSans-116"/>
      <use x="337.939453" xlink:href="#DejaVuSans-101"/>
     </g>
    </g>
    <g id="line2d_62">
     <path d="M 936.877812 79.010937 
L 956.877812 79.010937 
" style="fill:none;stroke:#000000;stroke-linecap:square;stroke-width:1.5;"/>
    </g>
    <g id="line2d_63"/>
    <g id="text_28">
     <!-- New Cases rolling week -->
     <g transform="translate(964.877812 82.510937)scale(0.1 -0.1)">
      <defs>
       <path d="M 9.8125 72.90625 
L 23.09375 72.90625 
L 55.421875 11.921875 
L 55.421875 72.90625 
L 64.984375 72.90625 
L 64.984375 0 
L 51.703125 0 
L 19.390625 60.984375 
L 19.390625 0 
L 9.8125 0 
z
" id="DejaVuSans-78"/>
       <path d="M 64.40625 67.28125 
L 64.40625 56.890625 
Q 59.421875 61.53125 53.78125 63.8125 
Q 48.140625 66.109375 41.796875 66.109375 
Q 29.296875 66.109375 22.65625 58.46875 
Q 16.015625 50.828125 16.015625 36.375 
Q 16.015625 21.96875 22.65625 14.328125 
Q 29.296875 6.6875 41.796875 6.6875 
Q 48.140625 6.6875 53.78125 8.984375 
Q 59.421875 11.28125 64.40625 15.921875 
L 64.40625 5.609375 
Q 59.234375 2.09375 53.4375 0.328125 
Q 47.65625 -1.421875 41.21875 -1.421875 
Q 24.65625 -1.421875 15.125 8.703125 
Q 5.609375 18.84375 5.609375 36.375 
Q 5.609375 53.953125 15.125 64.078125 
Q 24.65625 74.21875 41.21875 74.21875 
Q 47.75 74.21875 53.53125 72.484375 
Q 59.328125 70.75 64.40625 67.28125 
z
" id="DejaVuSans-67"/>
      </defs>
      <use xlink:href="#DejaVuSans-78"/>
      <use x="74.804688" xlink:href="#DejaVuSans-101"/>
      <use x="136.328125" xlink:href="#DejaVuSans-119"/>
      <use x="218.115234" xlink:href="#DejaVuSans-32"/>
      <use x="249.902344" xlink:href="#DejaVuSans-67"/>
      <use x="319.726562" xlink:href="#DejaVuSans-97"/>
      <use x="381.005859" xlink:href="#DejaVuSans-115"/>
      <use x="433.105469" xlink:href="#DejaVuSans-101"/>
      <use x="494.628906" xlink:href="#DejaVuSans-115"/>
      <use x="546.728516" xlink:href="#DejaVuSans-32"/>
      <use x="578.515625" xlink:href="#DejaVuSans-114"/>
      <use x="617.378906" xlink:href="#DejaVuSans-111"/>
      <use x="678.560547" xlink:href="#DejaVuSans-108"/>
      <use x="706.34375" xlink:href="#DejaVuSans-108"/>
      <use x="734.126953" xlink:href="#DejaVuSans-105"/>
      <use x="761.910156" xlink:href="#DejaVuSans-110"/>
      <use x="825.289062" xlink:href="#DejaVuSans-103"/>
      <use x="888.765625" xlink:href="#DejaVuSans-32"/>
      <use x="920.552734" xlink:href="#DejaVuSans-119"/>
      <use x="1002.339844" xlink:href="#DejaVuSans-101"/>
      <use x="1063.863281" xlink:href="#DejaVuSans-101"/>
      <use x="1125.386719" xlink:href="#DejaVuSans-107"/>
     </g>
    </g>
    <g id="line2d_64">
     <path d="M 936.877812 93.689062 
L 956.877812 93.689062 
" style="fill:none;stroke:#000000;stroke-dasharray:1.5,2.475;stroke-dashoffset:0;stroke-width:1.5;"/>
    </g>
    <g id="line2d_65"/>
    <g id="text_29">
     <!-- New Cases -->
     <g transform="translate(964.877812 97.189062)scale(0.1 -0.1)">
      <use xlink:href="#DejaVuSans-78"/>
      <use x="74.804688" xlink:href="#DejaVuSans-101"/>
      <use x="136.328125" xlink:href="#DejaVuSans-119"/>
      <use x="218.115234" xlink:href="#DejaVuSans-32"/>
      <use x="249.902344" xlink:href="#DejaVuSans-67"/>
      <use x="319.726562" xlink:href="#DejaVuSans-97"/>
      <use x="381.005859" xlink:href="#DejaVuSans-115"/>
      <use x="433.105469" xlink:href="#DejaVuSans-101"/>
      <use x="494.628906" xlink:href="#DejaVuSans-115"/>
     </g>
    </g>
   </g>
  </g>
 </g>
 <defs>
  <clipPath id="p86294d6b2e">
   <rect height="609.32" width="1068.97" x="30.103125" y="7.2"/>
  </clipPath>
 </defs>
</svg>
