<?xml version="1.0" encoding="utf-8" standalone="no"?>
<!DOCTYPE svg PUBLIC "-//W3C//DTD SVG 1.1//EN"
  "http://www.w3.org/Graphics/SVG/1.1/DTD/svg11.dtd">
<!-- Created with matplotlib (https://matplotlib.org/) -->
<svg height="640.076562pt" version="1.1" viewBox="0 0 1144.898125 640.076562" width="1144.898125pt" xmlns="http://www.w3.org/2000/svg" xmlns:xlink="http://www.w3.org/1999/xlink">
 <metadata>
  <rdf:RDF xmlns:cc="http://creativecommons.org/ns#" xmlns:dc="http://purl.org/dc/elements/1.1/" xmlns:rdf="http://www.w3.org/1999/02/22-rdf-syntax-ns#">
   <cc:Work>
    <dc:type rdf:resource="http://purl.org/dc/dcmitype/StillImage"/>
    <dc:date>2021-02-26T09:01:24.405864</dc:date>
    <dc:format>image/svg+xml</dc:format>
    <dc:creator>
     <cc:Agent>
      <dc:title>Matplotlib v3.3.2, https://matplotlib.org/</dc:title>
     </cc:Agent>
    </dc:creator>
   </cc:Work>
  </rdf:RDF>
 </metadata>
 <defs>
  <style type="text/css">*{stroke-linecap:butt;stroke-linejoin:round;}</style>
 </defs>
 <g id="figure_1">
  <g id="patch_1">
   <path d="M 0 640.076562 
L 1144.898125 640.076562 
L 1144.898125 0 
L 0 0 
z
" style="fill:#ffffff;"/>
  </g>
  <g id="axes_1">
   <g id="patch_2">
    <path d="M 26.925 616.198437 
L 1114.795 616.198437 
L 1114.795 17.798437 
L 26.925 17.798437 
z
" style="fill:#e5e5e5;"/>
   </g>
   <g id="matplotlib.axis_1">
    <g id="xtick_1">
     <g id="line2d_1">
      <path clip-path="url(#p0bd8d8673a)" d="M 81.807552 616.198437 
L 81.807552 17.798437 
" style="fill:none;stroke:#ffffff;stroke-linecap:square;stroke-width:0.8;"/>
     </g>
     <g id="line2d_2">
      <defs>
       <path d="M 0 0 
L 0 3.5 
" id="m0507d29483" style="stroke:#555555;stroke-width:0.8;"/>
      </defs>
      <g>
       <use style="fill:#555555;stroke:#555555;stroke-width:0.8;" x="81.807552" xlink:href="#m0507d29483" y="616.198437"/>
      </g>
     </g>
     <g id="text_1">
      <!-- 2020-03 -->
      <g style="fill:#555555;" transform="translate(60.916146 630.796875)scale(0.1 -0.1)">
       <defs>
        <path d="M 19.1875 8.296875 
L 53.609375 8.296875 
L 53.609375 0 
L 7.328125 0 
L 7.328125 8.296875 
Q 12.9375 14.109375 22.625 23.890625 
Q 32.328125 33.6875 34.8125 36.53125 
Q 39.546875 41.84375 41.421875 45.53125 
Q 43.3125 49.21875 43.3125 52.78125 
Q 43.3125 58.59375 39.234375 62.25 
Q 35.15625 65.921875 28.609375 65.921875 
Q 23.96875 65.921875 18.8125 64.3125 
Q 13.671875 62.703125 7.8125 59.421875 
L 7.8125 69.390625 
Q 13.765625 71.78125 18.9375 73 
Q 24.125 74.21875 28.421875 74.21875 
Q 39.75 74.21875 46.484375 68.546875 
Q 53.21875 62.890625 53.21875 53.421875 
Q 53.21875 48.921875 51.53125 44.890625 
Q 49.859375 40.875 45.40625 35.40625 
Q 44.1875 33.984375 37.640625 27.21875 
Q 31.109375 20.453125 19.1875 8.296875 
z
" id="DejaVuSans-50"/>
        <path d="M 31.78125 66.40625 
Q 24.171875 66.40625 20.328125 58.90625 
Q 16.5 51.421875 16.5 36.375 
Q 16.5 21.390625 20.328125 13.890625 
Q 24.171875 6.390625 31.78125 6.390625 
Q 39.453125 6.390625 43.28125 13.890625 
Q 47.125 21.390625 47.125 36.375 
Q 47.125 51.421875 43.28125 58.90625 
Q 39.453125 66.40625 31.78125 66.40625 
z
M 31.78125 74.21875 
Q 44.046875 74.21875 50.515625 64.515625 
Q 56.984375 54.828125 56.984375 36.375 
Q 56.984375 17.96875 50.515625 8.265625 
Q 44.046875 -1.421875 31.78125 -1.421875 
Q 19.53125 -1.421875 13.0625 8.265625 
Q 6.59375 17.96875 6.59375 36.375 
Q 6.59375 54.828125 13.0625 64.515625 
Q 19.53125 74.21875 31.78125 74.21875 
z
" id="DejaVuSans-48"/>
        <path d="M 4.890625 31.390625 
L 31.203125 31.390625 
L 31.203125 23.390625 
L 4.890625 23.390625 
z
" id="DejaVuSans-45"/>
        <path d="M 40.578125 39.3125 
Q 47.65625 37.796875 51.625 33 
Q 55.609375 28.21875 55.609375 21.1875 
Q 55.609375 10.40625 48.1875 4.484375 
Q 40.765625 -1.421875 27.09375 -1.421875 
Q 22.515625 -1.421875 17.65625 -0.515625 
Q 12.796875 0.390625 7.625 2.203125 
L 7.625 11.71875 
Q 11.71875 9.328125 16.59375 8.109375 
Q 21.484375 6.890625 26.8125 6.890625 
Q 36.078125 6.890625 40.9375 10.546875 
Q 45.796875 14.203125 45.796875 21.1875 
Q 45.796875 27.640625 41.28125 31.265625 
Q 36.765625 34.90625 28.71875 34.90625 
L 20.21875 34.90625 
L 20.21875 43.015625 
L 29.109375 43.015625 
Q 36.375 43.015625 40.234375 45.921875 
Q 44.09375 48.828125 44.09375 54.296875 
Q 44.09375 59.90625 40.109375 62.90625 
Q 36.140625 65.921875 28.71875 65.921875 
Q 24.65625 65.921875 20.015625 65.03125 
Q 15.375 64.15625 9.8125 62.3125 
L 9.8125 71.09375 
Q 15.4375 72.65625 20.34375 73.4375 
Q 25.25 74.21875 29.59375 74.21875 
Q 40.828125 74.21875 47.359375 69.109375 
Q 53.90625 64.015625 53.90625 55.328125 
Q 53.90625 49.265625 50.4375 45.09375 
Q 46.96875 40.921875 40.578125 39.3125 
z
" id="DejaVuSans-51"/>
       </defs>
       <use xlink:href="#DejaVuSans-50"/>
       <use x="63.623047" xlink:href="#DejaVuSans-48"/>
       <use x="127.246094" xlink:href="#DejaVuSans-50"/>
       <use x="190.869141" xlink:href="#DejaVuSans-48"/>
       <use x="254.492188" xlink:href="#DejaVuSans-45"/>
       <use x="290.576172" xlink:href="#DejaVuSans-48"/>
       <use x="354.199219" xlink:href="#DejaVuSans-51"/>
      </g>
     </g>
    </g>
    <g id="xtick_2">
     <g id="line2d_3">
      <path clip-path="url(#p0bd8d8673a)" d="M 247.541993 616.198437 
L 247.541993 17.798437 
" style="fill:none;stroke:#ffffff;stroke-linecap:square;stroke-width:0.8;"/>
     </g>
     <g id="line2d_4">
      <g>
       <use style="fill:#555555;stroke:#555555;stroke-width:0.8;" x="247.541993" xlink:href="#m0507d29483" y="616.198437"/>
      </g>
     </g>
     <g id="text_2">
      <!-- 2020-05 -->
      <g style="fill:#555555;" transform="translate(226.650587 630.796875)scale(0.1 -0.1)">
       <defs>
        <path d="M 10.796875 72.90625 
L 49.515625 72.90625 
L 49.515625 64.59375 
L 19.828125 64.59375 
L 19.828125 46.734375 
Q 21.96875 47.46875 24.109375 47.828125 
Q 26.265625 48.1875 28.421875 48.1875 
Q 40.625 48.1875 47.75 41.5 
Q 54.890625 34.8125 54.890625 23.390625 
Q 54.890625 11.625 47.5625 5.09375 
Q 40.234375 -1.421875 26.90625 -1.421875 
Q 22.3125 -1.421875 17.546875 -0.640625 
Q 12.796875 0.140625 7.71875 1.703125 
L 7.71875 11.625 
Q 12.109375 9.234375 16.796875 8.0625 
Q 21.484375 6.890625 26.703125 6.890625 
Q 35.15625 6.890625 40.078125 11.328125 
Q 45.015625 15.765625 45.015625 23.390625 
Q 45.015625 31 40.078125 35.4375 
Q 35.15625 39.890625 26.703125 39.890625 
Q 22.75 39.890625 18.8125 39.015625 
Q 14.890625 38.140625 10.796875 36.28125 
z
" id="DejaVuSans-53"/>
       </defs>
       <use xlink:href="#DejaVuSans-50"/>
       <use x="63.623047" xlink:href="#DejaVuSans-48"/>
       <use x="127.246094" xlink:href="#DejaVuSans-50"/>
       <use x="190.869141" xlink:href="#DejaVuSans-48"/>
       <use x="254.492188" xlink:href="#DejaVuSans-45"/>
       <use x="290.576172" xlink:href="#DejaVuSans-48"/>
       <use x="354.199219" xlink:href="#DejaVuSans-53"/>
      </g>
     </g>
    </g>
    <g id="xtick_3">
     <g id="line2d_5">
      <path clip-path="url(#p0bd8d8673a)" d="M 413.276434 616.198437 
L 413.276434 17.798437 
" style="fill:none;stroke:#ffffff;stroke-linecap:square;stroke-width:0.8;"/>
     </g>
     <g id="line2d_6">
      <g>
       <use style="fill:#555555;stroke:#555555;stroke-width:0.8;" x="413.276434" xlink:href="#m0507d29483" y="616.198437"/>
      </g>
     </g>
     <g id="text_3">
      <!-- 2020-07 -->
      <g style="fill:#555555;" transform="translate(392.385027 630.796875)scale(0.1 -0.1)">
       <defs>
        <path d="M 8.203125 72.90625 
L 55.078125 72.90625 
L 55.078125 68.703125 
L 28.609375 0 
L 18.3125 0 
L 43.21875 64.59375 
L 8.203125 64.59375 
z
" id="DejaVuSans-55"/>
       </defs>
       <use xlink:href="#DejaVuSans-50"/>
       <use x="63.623047" xlink:href="#DejaVuSans-48"/>
       <use x="127.246094" xlink:href="#DejaVuSans-50"/>
       <use x="190.869141" xlink:href="#DejaVuSans-48"/>
       <use x="254.492188" xlink:href="#DejaVuSans-45"/>
       <use x="290.576172" xlink:href="#DejaVuSans-48"/>
       <use x="354.199219" xlink:href="#DejaVuSans-55"/>
      </g>
     </g>
    </g>
    <g id="xtick_4">
     <g id="line2d_7">
      <path clip-path="url(#p0bd8d8673a)" d="M 581.727832 616.198437 
L 581.727832 17.798437 
" style="fill:none;stroke:#ffffff;stroke-linecap:square;stroke-width:0.8;"/>
     </g>
     <g id="line2d_8">
      <g>
       <use style="fill:#555555;stroke:#555555;stroke-width:0.8;" x="581.727832" xlink:href="#m0507d29483" y="616.198437"/>
      </g>
     </g>
     <g id="text_4">
      <!-- 2020-09 -->
      <g style="fill:#555555;" transform="translate(560.836426 630.796875)scale(0.1 -0.1)">
       <defs>
        <path d="M 10.984375 1.515625 
L 10.984375 10.5 
Q 14.703125 8.734375 18.5 7.8125 
Q 22.3125 6.890625 25.984375 6.890625 
Q 35.75 6.890625 40.890625 13.453125 
Q 46.046875 20.015625 46.78125 33.40625 
Q 43.953125 29.203125 39.59375 26.953125 
Q 35.25 24.703125 29.984375 24.703125 
Q 19.046875 24.703125 12.671875 31.3125 
Q 6.296875 37.9375 6.296875 49.421875 
Q 6.296875 60.640625 12.9375 67.421875 
Q 19.578125 74.21875 30.609375 74.21875 
Q 43.265625 74.21875 49.921875 64.515625 
Q 56.59375 54.828125 56.59375 36.375 
Q 56.59375 19.140625 48.40625 8.859375 
Q 40.234375 -1.421875 26.421875 -1.421875 
Q 22.703125 -1.421875 18.890625 -0.6875 
Q 15.09375 0.046875 10.984375 1.515625 
z
M 30.609375 32.421875 
Q 37.25 32.421875 41.125 36.953125 
Q 45.015625 41.5 45.015625 49.421875 
Q 45.015625 57.28125 41.125 61.84375 
Q 37.25 66.40625 30.609375 66.40625 
Q 23.96875 66.40625 20.09375 61.84375 
Q 16.21875 57.28125 16.21875 49.421875 
Q 16.21875 41.5 20.09375 36.953125 
Q 23.96875 32.421875 30.609375 32.421875 
z
" id="DejaVuSans-57"/>
       </defs>
       <use xlink:href="#DejaVuSans-50"/>
       <use x="63.623047" xlink:href="#DejaVuSans-48"/>
       <use x="127.246094" xlink:href="#DejaVuSans-50"/>
       <use x="190.869141" xlink:href="#DejaVuSans-48"/>
       <use x="254.492188" xlink:href="#DejaVuSans-45"/>
       <use x="290.576172" xlink:href="#DejaVuSans-48"/>
       <use x="354.199219" xlink:href="#DejaVuSans-57"/>
      </g>
     </g>
    </g>
    <g id="xtick_5">
     <g id="line2d_9">
      <path clip-path="url(#p0bd8d8673a)" d="M 747.462273 616.198437 
L 747.462273 17.798437 
" style="fill:none;stroke:#ffffff;stroke-linecap:square;stroke-width:0.8;"/>
     </g>
     <g id="line2d_10">
      <g>
       <use style="fill:#555555;stroke:#555555;stroke-width:0.8;" x="747.462273" xlink:href="#m0507d29483" y="616.198437"/>
      </g>
     </g>
     <g id="text_5">
      <!-- 2020-11 -->
      <g style="fill:#555555;" transform="translate(726.570866 630.796875)scale(0.1 -0.1)">
       <defs>
        <path d="M 12.40625 8.296875 
L 28.515625 8.296875 
L 28.515625 63.921875 
L 10.984375 60.40625 
L 10.984375 69.390625 
L 28.421875 72.90625 
L 38.28125 72.90625 
L 38.28125 8.296875 
L 54.390625 8.296875 
L 54.390625 0 
L 12.40625 0 
z
" id="DejaVuSans-49"/>
       </defs>
       <use xlink:href="#DejaVuSans-50"/>
       <use x="63.623047" xlink:href="#DejaVuSans-48"/>
       <use x="127.246094" xlink:href="#DejaVuSans-50"/>
       <use x="190.869141" xlink:href="#DejaVuSans-48"/>
       <use x="254.492188" xlink:href="#DejaVuSans-45"/>
       <use x="290.576172" xlink:href="#DejaVuSans-49"/>
       <use x="354.199219" xlink:href="#DejaVuSans-49"/>
      </g>
     </g>
    </g>
    <g id="xtick_6">
     <g id="line2d_11">
      <path clip-path="url(#p0bd8d8673a)" d="M 913.196713 616.198437 
L 913.196713 17.798437 
" style="fill:none;stroke:#ffffff;stroke-linecap:square;stroke-width:0.8;"/>
     </g>
     <g id="line2d_12">
      <g>
       <use style="fill:#555555;stroke:#555555;stroke-width:0.8;" x="913.196713" xlink:href="#m0507d29483" y="616.198437"/>
      </g>
     </g>
     <g id="text_6">
      <!-- 2021-01 -->
      <g style="fill:#555555;" transform="translate(892.305307 630.796875)scale(0.1 -0.1)">
       <use xlink:href="#DejaVuSans-50"/>
       <use x="63.623047" xlink:href="#DejaVuSans-48"/>
       <use x="127.246094" xlink:href="#DejaVuSans-50"/>
       <use x="190.869141" xlink:href="#DejaVuSans-49"/>
       <use x="254.492188" xlink:href="#DejaVuSans-45"/>
       <use x="290.576172" xlink:href="#DejaVuSans-48"/>
       <use x="354.199219" xlink:href="#DejaVuSans-49"/>
      </g>
     </g>
    </g>
    <g id="xtick_7">
     <g id="line2d_13">
      <path clip-path="url(#p0bd8d8673a)" d="M 1073.497238 616.198437 
L 1073.497238 17.798437 
" style="fill:none;stroke:#ffffff;stroke-linecap:square;stroke-width:0.8;"/>
     </g>
     <g id="line2d_14">
      <g>
       <use style="fill:#555555;stroke:#555555;stroke-width:0.8;" x="1073.497238" xlink:href="#m0507d29483" y="616.198437"/>
      </g>
     </g>
     <g id="text_7">
      <!-- 2021-03 -->
      <g style="fill:#555555;" transform="translate(1052.605832 630.796875)scale(0.1 -0.1)">
       <use xlink:href="#DejaVuSans-50"/>
       <use x="63.623047" xlink:href="#DejaVuSans-48"/>
       <use x="127.246094" xlink:href="#DejaVuSans-50"/>
       <use x="190.869141" xlink:href="#DejaVuSans-49"/>
       <use x="254.492188" xlink:href="#DejaVuSans-45"/>
       <use x="290.576172" xlink:href="#DejaVuSans-48"/>
       <use x="354.199219" xlink:href="#DejaVuSans-51"/>
      </g>
     </g>
    </g>
   </g>
   <g id="matplotlib.axis_2">
    <g id="ytick_1">
     <g id="line2d_15">
      <path clip-path="url(#p0bd8d8673a)" d="M 26.925 592.624139 
L 1114.795 592.624139 
" style="fill:none;stroke:#ffffff;stroke-linecap:square;stroke-width:0.8;"/>
     </g>
     <g id="line2d_16">
      <defs>
       <path d="M 0 0 
L -3.5 0 
" id="mfcf7474533" style="stroke:#555555;stroke-width:0.8;"/>
      </defs>
      <g>
       <use style="fill:#555555;stroke:#555555;stroke-width:0.8;" x="26.925" xlink:href="#mfcf7474533" y="592.624139"/>
      </g>
     </g>
     <g id="text_8">
      <!-- 0 -->
      <g style="fill:#555555;" transform="translate(13.5625 596.423357)scale(0.1 -0.1)">
       <use xlink:href="#DejaVuSans-48"/>
      </g>
     </g>
    </g>
    <g id="ytick_2">
     <g id="line2d_17">
      <path clip-path="url(#p0bd8d8673a)" d="M 26.925 519.033317 
L 1114.795 519.033317 
" style="fill:none;stroke:#ffffff;stroke-linecap:square;stroke-width:0.8;"/>
     </g>
     <g id="line2d_18">
      <g>
       <use style="fill:#555555;stroke:#555555;stroke-width:0.8;" x="26.925" xlink:href="#mfcf7474533" y="519.033317"/>
      </g>
     </g>
     <g id="text_9">
      <!-- 10 -->
      <g style="fill:#555555;" transform="translate(7.2 522.832536)scale(0.1 -0.1)">
       <use xlink:href="#DejaVuSans-49"/>
       <use x="63.623047" xlink:href="#DejaVuSans-48"/>
      </g>
     </g>
    </g>
    <g id="ytick_3">
     <g id="line2d_19">
      <path clip-path="url(#p0bd8d8673a)" d="M 26.925 445.442496 
L 1114.795 445.442496 
" style="fill:none;stroke:#ffffff;stroke-linecap:square;stroke-width:0.8;"/>
     </g>
     <g id="line2d_20">
      <g>
       <use style="fill:#555555;stroke:#555555;stroke-width:0.8;" x="26.925" xlink:href="#mfcf7474533" y="445.442496"/>
      </g>
     </g>
     <g id="text_10">
      <!-- 20 -->
      <g style="fill:#555555;" transform="translate(7.2 449.241715)scale(0.1 -0.1)">
       <use xlink:href="#DejaVuSans-50"/>
       <use x="63.623047" xlink:href="#DejaVuSans-48"/>
      </g>
     </g>
    </g>
    <g id="ytick_4">
     <g id="line2d_21">
      <path clip-path="url(#p0bd8d8673a)" d="M 26.925 371.851675 
L 1114.795 371.851675 
" style="fill:none;stroke:#ffffff;stroke-linecap:square;stroke-width:0.8;"/>
     </g>
     <g id="line2d_22">
      <g>
       <use style="fill:#555555;stroke:#555555;stroke-width:0.8;" x="26.925" xlink:href="#mfcf7474533" y="371.851675"/>
      </g>
     </g>
     <g id="text_11">
      <!-- 30 -->
      <g style="fill:#555555;" transform="translate(7.2 375.650894)scale(0.1 -0.1)">
       <use xlink:href="#DejaVuSans-51"/>
       <use x="63.623047" xlink:href="#DejaVuSans-48"/>
      </g>
     </g>
    </g>
    <g id="ytick_5">
     <g id="line2d_23">
      <path clip-path="url(#p0bd8d8673a)" d="M 26.925 298.260853 
L 1114.795 298.260853 
" style="fill:none;stroke:#ffffff;stroke-linecap:square;stroke-width:0.8;"/>
     </g>
     <g id="line2d_24">
      <g>
       <use style="fill:#555555;stroke:#555555;stroke-width:0.8;" x="26.925" xlink:href="#mfcf7474533" y="298.260853"/>
      </g>
     </g>
     <g id="text_12">
      <!-- 40 -->
      <g style="fill:#555555;" transform="translate(7.2 302.060072)scale(0.1 -0.1)">
       <defs>
        <path d="M 37.796875 64.3125 
L 12.890625 25.390625 
L 37.796875 25.390625 
z
M 35.203125 72.90625 
L 47.609375 72.90625 
L 47.609375 25.390625 
L 58.015625 25.390625 
L 58.015625 17.1875 
L 47.609375 17.1875 
L 47.609375 0 
L 37.796875 0 
L 37.796875 17.1875 
L 4.890625 17.1875 
L 4.890625 26.703125 
z
" id="DejaVuSans-52"/>
       </defs>
       <use xlink:href="#DejaVuSans-52"/>
       <use x="63.623047" xlink:href="#DejaVuSans-48"/>
      </g>
     </g>
    </g>
    <g id="ytick_6">
     <g id="line2d_25">
      <path clip-path="url(#p0bd8d8673a)" d="M 26.925 224.670032 
L 1114.795 224.670032 
" style="fill:none;stroke:#ffffff;stroke-linecap:square;stroke-width:0.8;"/>
     </g>
     <g id="line2d_26">
      <g>
       <use style="fill:#555555;stroke:#555555;stroke-width:0.8;" x="26.925" xlink:href="#mfcf7474533" y="224.670032"/>
      </g>
     </g>
     <g id="text_13">
      <!-- 50 -->
      <g style="fill:#555555;" transform="translate(7.2 228.469251)scale(0.1 -0.1)">
       <use xlink:href="#DejaVuSans-53"/>
       <use x="63.623047" xlink:href="#DejaVuSans-48"/>
      </g>
     </g>
    </g>
    <g id="ytick_7">
     <g id="line2d_27">
      <path clip-path="url(#p0bd8d8673a)" d="M 26.925 151.079211 
L 1114.795 151.079211 
" style="fill:none;stroke:#ffffff;stroke-linecap:square;stroke-width:0.8;"/>
     </g>
     <g id="line2d_28">
      <g>
       <use style="fill:#555555;stroke:#555555;stroke-width:0.8;" x="26.925" xlink:href="#mfcf7474533" y="151.079211"/>
      </g>
     </g>
     <g id="text_14">
      <!-- 60 -->
      <g style="fill:#555555;" transform="translate(7.2 154.87843)scale(0.1 -0.1)">
       <defs>
        <path d="M 33.015625 40.375 
Q 26.375 40.375 22.484375 35.828125 
Q 18.609375 31.296875 18.609375 23.390625 
Q 18.609375 15.53125 22.484375 10.953125 
Q 26.375 6.390625 33.015625 6.390625 
Q 39.65625 6.390625 43.53125 10.953125 
Q 47.40625 15.53125 47.40625 23.390625 
Q 47.40625 31.296875 43.53125 35.828125 
Q 39.65625 40.375 33.015625 40.375 
z
M 52.59375 71.296875 
L 52.59375 62.3125 
Q 48.875 64.0625 45.09375 64.984375 
Q 41.3125 65.921875 37.59375 65.921875 
Q 27.828125 65.921875 22.671875 59.328125 
Q 17.53125 52.734375 16.796875 39.40625 
Q 19.671875 43.65625 24.015625 45.921875 
Q 28.375 48.1875 33.59375 48.1875 
Q 44.578125 48.1875 50.953125 41.515625 
Q 57.328125 34.859375 57.328125 23.390625 
Q 57.328125 12.15625 50.6875 5.359375 
Q 44.046875 -1.421875 33.015625 -1.421875 
Q 20.359375 -1.421875 13.671875 8.265625 
Q 6.984375 17.96875 6.984375 36.375 
Q 6.984375 53.65625 15.1875 63.9375 
Q 23.390625 74.21875 37.203125 74.21875 
Q 40.921875 74.21875 44.703125 73.484375 
Q 48.484375 72.75 52.59375 71.296875 
z
" id="DejaVuSans-54"/>
       </defs>
       <use xlink:href="#DejaVuSans-54"/>
       <use x="63.623047" xlink:href="#DejaVuSans-48"/>
      </g>
     </g>
    </g>
    <g id="ytick_8">
     <g id="line2d_29">
      <path clip-path="url(#p0bd8d8673a)" d="M 26.925 77.48839 
L 1114.795 77.48839 
" style="fill:none;stroke:#ffffff;stroke-linecap:square;stroke-width:0.8;"/>
     </g>
     <g id="line2d_30">
      <g>
       <use style="fill:#555555;stroke:#555555;stroke-width:0.8;" x="26.925" xlink:href="#mfcf7474533" y="77.48839"/>
      </g>
     </g>
     <g id="text_15">
      <!-- 70 -->
      <g style="fill:#555555;" transform="translate(7.2 81.287608)scale(0.1 -0.1)">
       <use xlink:href="#DejaVuSans-55"/>
       <use x="63.623047" xlink:href="#DejaVuSans-48"/>
      </g>
     </g>
    </g>
   </g>
   <g id="line2d_31">
    <path clip-path="url(#p0bd8d8673a)" d="M 87.241469 565.409356 
L 89.958427 563.953579 
L 92.675385 565.784325 
L 95.392343 564.909618 
L 98.109301 564.482597 
L 100.826259 564.950231 
L 103.543217 565.910036 
L 106.260175 567.66562 
L 108.977133 569.897164 
L 111.694091 570.447162 
L 114.411049 571.954922 
L 117.128007 573.140562 
L 122.561923 573.839417 
L 125.278881 573.51453 
L 127.995839 573.315502 
L 133.429755 574.071606 
L 136.146713 574.701873 
L 138.863671 575.56082 
L 144.297587 576.451228 
L 149.731503 577.057929 
L 155.16542 578.122734 
L 157.882378 578.757949 
L 174.184126 581.828005 
L 179.618042 582.43254 
L 195.91979 583.709501 
L 204.070664 584.15333 
L 217.655455 584.581283 
L 269.277657 585.07054 
L 396.974685 585.155738 
L 682.25528 584.998481 
L 720.292692 584.672169 
L 763.764021 584.239777 
L 793.650559 584.416992 
L 834.40493 584.630893 
L 861.57451 584.630004 
L 894.178007 584.59638 
L 926.781503 584.792036 
L 1005.573287 584.909747 
L 1062.629406 584.951575 
L 1065.346364 583.883914 
L 1065.346364 583.883914 
" style="fill:none;stroke:#e24a33;stroke-linecap:square;stroke-width:1.5;"/>
   </g>
   <g id="line2d_32">
    <path clip-path="url(#p0bd8d8673a)" d="M 87.241469 565.409356 
L 89.958427 562.497802 
L 92.675385 569.445816 
L 95.392343 562.285497 
L 98.109301 562.774516 
L 103.543217 571.668867 
L 106.260175 577.698445 
L 108.977133 578.118607 
L 111.694091 573.295801 
L 114.411049 572.839823 
L 117.128007 571.073995 
L 119.844965 569.902184 
L 122.561923 573.947065 
L 125.278881 575.424235 
L 127.995839 576.725409 
L 130.712797 575.891355 
L 133.429755 575.537 
L 136.146713 575.485863 
L 138.863671 575.914813 
L 141.580629 577.450903 
L 144.297587 578.153254 
L 147.014545 578.682459 
L 149.731503 578.181211 
L 166.033252 582.411463 
L 168.75021 582.318484 
L 176.901084 582.594257 
L 182.335 583.450859 
L 185.051958 583.757021 
L 187.768916 583.930803 
L 193.202832 583.885649 
L 198.636748 584.245176 
L 201.353706 584.502687 
L 204.070664 584.63201 
L 209.50458 584.605288 
L 214.938497 584.541297 
L 225.806329 584.822558 
L 233.957203 584.822271 
L 244.825035 585.014569 
L 252.975909 585.023622 
L 263.843741 585.087255 
L 274.711573 585.0954 
L 304.598112 585.143236 
L 334.48465 585.184814 
L 353.503357 585.197567 
L 432.29514 585.20079 
L 483.917343 585.165598 
L 511.086923 585.134662 
L 521.954755 585.133053 
L 546.407378 585.109692 
L 557.27521 585.050971 
L 568.143042 585.083281 
L 576.293916 585.076929 
L 587.161748 585.109126 
L 598.02958 585.103967 
L 679.538322 585.010943 
L 693.123112 584.874506 
L 701.273986 584.814684 
L 706.707902 584.629302 
L 720.292692 584.61602 
L 728.443566 584.286395 
L 736.594441 584.405401 
L 747.462273 584.121907 
L 755.613147 584.373273 
L 766.480979 584.167469 
L 774.631853 584.472279 
L 785.499685 584.301785 
L 793.650559 584.616715 
L 804.518392 584.42457 
L 812.669266 584.694381 
L 823.537098 584.541142 
L 831.687972 584.757329 
L 842.555804 584.564626 
L 850.706678 584.735475 
L 856.140594 584.592958 
L 861.57451 584.519697 
L 872.442343 584.654747 
L 877.876259 584.469445 
L 907.762797 584.83595 
L 913.196713 584.694929 
L 918.630629 584.756373 
L 924.064545 584.910977 
L 940.366294 584.738814 
L 945.80021 584.842404 
L 956.668042 584.772104 
L 964.818916 584.897459 
L 978.403706 584.878702 
L 986.55458 584.912537 
L 997.422413 584.914174 
L 1008.290245 584.913705 
L 1016.441119 584.934894 
L 1024.591993 584.968761 
L 1038.176783 584.978371 
L 1062.629406 584.956589 
L 1065.346364 577.476968 
L 1065.346364 577.476968 
" style="fill:none;stroke:#e24a33;stroke-dasharray:1.5,2.475;stroke-dashoffset:0;stroke-width:1.5;"/>
   </g>
   <g id="line2d_33">
    <path clip-path="url(#p0bd8d8673a)" d="M 87.241469 572.768502 
L 89.958427 571.31274 
L 92.675385 573.143497 
L 95.392343 572.268825 
L 98.109301 570.174727 
L 100.826259 569.951807 
L 103.543217 570.344892 
L 106.260175 571.75434 
L 108.977133 573.651864 
L 111.694091 573.501969 
L 114.411049 574.04908 
L 117.128007 574.453996 
L 119.844965 573.397733 
L 122.561923 573.632867 
L 125.278881 572.821762 
L 127.995839 572.324404 
L 133.429755 573.196913 
L 136.146713 574.75464 
L 138.863671 576.722979 
L 141.580629 577.341814 
L 144.297587 577.796423 
L 149.731503 578.174742 
L 152.448462 578.700849 
L 155.16542 579.492606 
L 157.882378 580.496667 
L 168.75021 583.468981 
L 171.467168 584.103034 
L 174.184126 584.473889 
L 185.051958 585.018554 
L 190.485874 585.617895 
L 198.636748 586.378968 
L 204.070664 586.827262 
L 209.50458 587.035851 
L 212.221538 586.907085 
L 220.372413 586.138673 
L 225.806329 585.91344 
L 228.523287 585.864809 
L 233.957203 586.229154 
L 239.391119 586.707657 
L 247.541993 586.882214 
L 255.692867 587.074147 
L 258.409825 587.206707 
L 261.126783 587.207629 
L 266.560699 586.791434 
L 269.277657 586.149083 
L 271.994615 585.636098 
L 280.14549 585.238857 
L 285.579406 585.287126 
L 288.296364 585.807301 
L 291.013322 586.137782 
L 296.447238 586.513978 
L 307.31507 586.029785 
L 312.748986 586.181651 
L 315.465944 586.038267 
L 323.616818 586.30174 
L 326.333776 586.361769 
L 329.050734 585.960706 
L 331.767692 585.222112 
L 334.48465 585.096127 
L 339.918566 585.164027 
L 342.635524 585.526209 
L 345.352483 585.709916 
L 348.069441 585.739789 
L 350.786399 586.103893 
L 353.503357 586.059677 
L 358.937273 585.565896 
L 361.654231 585.205937 
L 364.371189 585.088423 
L 367.088147 585.278007 
L 369.805105 585.685338 
L 372.522063 585.776796 
L 377.955979 585.527234 
L 380.672937 584.531295 
L 383.389895 583.681763 
L 388.823811 581.486017 
L 391.540769 581.132382 
L 394.257727 580.898811 
L 396.974685 581.115607 
L 399.691643 582.311042 
L 402.408601 583.307723 
L 405.125559 584.763047 
L 407.842517 585.804408 
L 413.276434 586.575298 
L 415.993392 586.588079 
L 418.71035 586.282458 
L 421.427308 586.223671 
L 424.144266 586.012931 
L 426.861224 585.990138 
L 429.578182 586.107115 
L 437.729056 585.898252 
L 443.162972 585.604586 
L 454.030804 585.325889 
L 464.898636 583.82202 
L 470.332552 583.76879 
L 478.483427 583.802854 
L 486.634301 583.38169 
L 492.068217 583.276748 
L 500.219091 583.736408 
L 502.936049 583.992191 
L 511.086923 584.052276 
L 513.803881 583.944453 
L 516.520839 584.035653 
L 521.954755 583.88618 
L 524.671713 583.916121 
L 527.388671 583.821043 
L 532.822587 583.755738 
L 535.539545 583.516272 
L 540.973462 583.638023 
L 551.841294 583.790778 
L 557.27521 584.020292 
L 565.426084 584.137419 
L 570.86 584.649874 
L 573.576958 585.067119 
L 576.293916 585.306077 
L 587.161748 585.556832 
L 592.595664 585.531846 
L 598.02958 585.242946 
L 608.897413 584.448314 
L 614.331329 584.441956 
L 619.765245 584.661167 
L 625.199161 584.619251 
L 627.916119 584.42917 
L 630.633077 584.040037 
L 636.066993 583.780858 
L 638.783951 583.729368 
L 644.217867 584.102273 
L 652.368741 584.850952 
L 663.236573 584.586037 
L 671.387448 584.423036 
L 679.538322 584.057692 
L 682.25528 583.883629 
L 684.972238 583.536523 
L 687.689196 583.016988 
L 693.123112 582.477453 
L 698.557028 582.412786 
L 709.42486 582.495212 
L 725.726608 582.608335 
L 736.594441 581.922703 
L 742.028357 582.083888 
L 744.745315 582.410868 
L 747.462273 582.937248 
L 752.896189 583.515422 
L 763.764021 584.21337 
L 771.914895 584.485151 
L 799.084476 585.246102 
L 809.952308 585.040063 
L 837.121888 585.116614 
L 842.555804 584.905884 
L 850.706678 584.582438 
L 856.140594 584.482706 
L 864.291469 584.169155 
L 875.159301 584.193217 
L 880.593217 584.33141 
L 886.027133 584.475035 
L 894.178007 584.685002 
L 905.045839 586.533991 
L 907.762797 586.617086 
L 910.479755 586.504989 
L 913.196713 586.055788 
L 915.913671 585.355472 
L 918.630629 585.061874 
L 926.781503 585.101516 
L 929.498462 585.137182 
L 932.21542 584.89031 
L 940.366294 583.115398 
L 943.083252 582.863193 
L 945.80021 582.857313 
L 948.517168 583.049493 
L 951.234126 583.794458 
L 953.951084 584.894096 
L 956.668042 585.503211 
L 959.385 585.874672 
L 964.818916 586.004746 
L 967.535874 586.021455 
L 975.686748 585.687475 
L 981.120664 585.60035 
L 1000.139371 585.65739 
L 1011.007203 585.628193 
L 1021.875035 585.710309 
L 1032.742867 585.935603 
L 1040.893741 585.679008 
L 1049.044615 585.023123 
L 1051.761573 584.768432 
L 1062.629406 584.505085 
L 1065.346364 507.396458 
L 1065.346364 507.396458 
" style="fill:none;stroke:#348abd;stroke-linecap:square;stroke-width:1.5;"/>
   </g>
   <g id="line2d_34">
    <path clip-path="url(#p0bd8d8673a)" d="M 87.241469 572.768502 
L 89.958427 569.856978 
L 92.675385 576.805009 
L 95.392343 569.644811 
L 98.109301 561.798333 
L 100.826259 568.837207 
L 103.543217 572.7034 
L 106.260175 582.634641 
L 108.977133 583.139646 
L 111.694091 575.755743 
L 114.411049 573.474592 
L 117.128007 564.632744 
L 119.844965 561.443365 
L 122.561923 574.349336 
L 127.995839 579.658137 
L 130.712797 578.763147 
L 133.429755 576.574754 
L 136.146713 575.536832 
L 138.863671 575.22174 
L 141.580629 578.68118 
L 144.297587 580.139171 
L 147.014545 581.095478 
L 149.731503 579.974038 
L 152.448462 580.257502 
L 155.16542 581.079132 
L 157.882378 582.250165 
L 160.599336 584.075959 
L 163.316294 585.26168 
L 166.033252 586.087063 
L 168.75021 585.271366 
L 171.467168 584.695869 
L 174.184126 583.67512 
L 176.901084 583.085226 
L 179.618042 584.951397 
L 182.335 586.207695 
L 185.051958 587.243205 
L 187.768916 587.640709 
L 190.485874 586.521912 
L 193.202832 585.678061 
L 195.91979 585.34898 
L 198.636748 586.012212 
L 201.353706 587.927621 
L 204.070664 588.661341 
L 206.787622 588.370623 
L 209.50458 587.252118 
L 212.221538 584.776698 
L 214.938497 583.495348 
L 217.655455 584.341758 
L 223.089371 587.701586 
L 225.806329 587.753745 
L 228.523287 586.911702 
L 231.240245 585.758873 
L 233.957203 585.063584 
L 236.674161 586.169928 
L 239.391119 587.594179 
L 242.108077 588.360771 
L 244.825035 588.334161 
L 247.541993 586.894001 
L 250.258951 585.991818 
L 252.975909 585.757265 
L 255.692867 586.586833 
L 258.409825 588.522095 
L 261.126783 588.367227 
L 263.843741 587.174932 
L 266.560699 585.139865 
L 269.277657 581.495366 
L 271.994615 582.166371 
L 274.711573 585.492277 
L 280.14549 588.302188 
L 282.862448 587.58406 
L 285.579406 585.068617 
L 288.296364 585.136594 
L 291.013322 584.479732 
L 293.73028 586.636511 
L 296.447238 588.390146 
L 301.881154 586.838727 
L 304.598112 585.094403 
L 307.31507 583.183917 
L 312.748986 587.042657 
L 315.465944 587.386462 
L 318.182902 588.403817 
L 320.89986 587.976979 
L 323.616818 584.981704 
L 329.050734 582.329201 
L 331.767692 581.872499 
L 334.48465 586.504563 
L 337.201608 588.686325 
L 339.918566 588.169775 
L 342.635524 587.516978 
L 345.352483 584.890072 
L 348.069441 582.53831 
L 353.503357 586.195051 
L 356.220315 587.3479 
L 358.937273 586.051733 
L 361.654231 584.997266 
L 364.371189 584.06747 
L 367.088147 583.8654 
L 369.805105 587.272545 
L 372.522063 586.835259 
L 375.239021 586.842358 
L 377.955979 584.810341 
L 380.672937 578.025692 
L 383.389895 578.120746 
L 386.106853 575.917376 
L 388.823811 579.850347 
L 391.540769 584.359815 
L 394.257727 585.207363 
L 396.974685 586.327911 
L 399.691643 586.393733 
L 402.408601 585.097517 
L 407.842517 587.139878 
L 410.559476 586.919761 
L 413.276434 588.043643 
L 415.993392 586.417381 
L 418.71035 584.254386 
L 421.427308 584.68601 
L 424.144266 584.629454 
L 426.861224 586.980331 
L 429.578182 587.738601 
L 432.29514 587.636628 
L 435.012098 586.005536 
L 437.729056 583.611206 
L 440.446014 583.28332 
L 443.162972 583.976478 
L 445.87993 586.627097 
L 448.596888 587.199988 
L 451.313846 587.282869 
L 454.030804 585.300268 
L 456.747762 580.899499 
L 459.46472 580.346706 
L 462.181678 581.000563 
L 464.898636 584.724245 
L 467.615594 586.744702 
L 470.332552 587.365546 
L 473.04951 585.480095 
L 475.766469 581.512537 
L 478.483427 579.79229 
L 481.200385 579.886274 
L 483.917343 583.431439 
L 486.634301 586.203651 
L 489.351259 587.111149 
L 492.068217 584.999891 
L 494.785175 582.480362 
L 497.502133 580.432867 
L 500.219091 581.495496 
L 502.936049 585.22192 
L 505.653007 586.470526 
L 508.369965 587.513126 
L 511.086923 584.751632 
L 513.803881 581.725607 
L 516.520839 581.071263 
L 519.237797 580.605444 
L 521.954755 585.065661 
L 524.671713 586.680116 
L 527.388671 586.847577 
L 530.105629 584.877036 
L 532.822587 581.143068 
L 535.539545 579.395 
L 538.256503 581.216752 
L 540.973462 585.306613 
L 543.69042 586.849444 
L 546.407378 587.191581 
L 549.124336 584.916045 
L 551.841294 581.660015 
L 554.558252 580.310445 
L 557.27521 581.907903 
L 559.992168 585.569786 
L 562.709126 586.763948 
L 565.426084 587.833793 
L 568.143042 586.350985 
L 570.86 583.812254 
L 573.576958 583.231163 
L 576.293916 583.580611 
L 579.010874 586.174785 
L 581.727832 587.547712 
L 584.44479 587.981665 
L 587.161748 586.569634 
L 589.878706 583.952176 
L 592.595664 582.916337 
L 595.312622 582.866555 
L 598.02958 584.866544 
L 600.746538 586.050419 
L 603.463497 586.520654 
L 606.180455 584.904992 
L 608.897413 583.012698 
L 614.331329 582.837233 
L 617.048287 585.801158 
L 619.765245 586.650281 
L 622.482203 586.454271 
L 625.199161 584.677962 
L 627.916119 581.682132 
L 630.633077 580.177222 
L 633.350035 581.617462 
L 636.066993 585.206678 
L 641.500909 587.43611 
L 644.217867 586.306454 
L 646.934825 583.668317 
L 649.651783 582.744412 
L 652.368741 582.304838 
L 655.085699 584.593838 
L 657.802657 585.907087 
L 660.519615 587.053317 
L 663.236573 585.830451 
L 665.953531 583.43998 
L 668.67049 582.873713 
L 671.387448 581.262868 
L 674.104406 583.988719 
L 676.821364 585.427455 
L 679.538322 585.580655 
L 682.25528 584.61201 
L 684.972238 581.010238 
L 687.689196 579.236969 
L 690.406154 579.097552 
L 693.123112 582.37729 
L 695.84007 584.870923 
L 698.557028 585.684519 
L 701.273986 584.571606 
L 703.990944 581.369642 
L 706.707902 579.225266 
L 709.42486 579.367239 
L 712.141818 582.572592 
L 714.858776 584.826541 
L 717.575734 585.964243 
L 720.292692 584.543362 
L 723.00965 581.768055 
L 725.726608 579.216316 
L 728.443566 578.005907 
L 731.160524 581.413131 
L 733.877483 583.476214 
L 736.594441 585.035937 
L 739.311399 584.746323 
L 742.028357 582.693385 
L 744.745315 581.505178 
L 747.462273 581.690568 
L 752.896189 585.401102 
L 755.613147 586.391829 
L 758.330105 585.69766 
L 761.047063 584.109933 
L 763.764021 582.667034 
L 766.480979 582.504525 
L 771.914895 585.856371 
L 774.631853 586.95988 
L 777.348811 586.344107 
L 782.782727 583.293768 
L 785.499685 582.747908 
L 788.216643 584.761363 
L 790.933601 586.618963 
L 793.650559 587.53228 
L 796.367517 586.948563 
L 801.801434 582.745933 
L 804.518392 582.160007 
L 809.952308 586.686701 
L 812.669266 587.638598 
L 815.386224 586.966458 
L 820.82014 582.667699 
L 823.537098 582.437683 
L 826.254056 584.706019 
L 828.971014 586.806386 
L 831.687972 587.742269 
L 834.40493 586.828658 
L 837.121888 584.627586 
L 839.838846 582.252458 
L 842.555804 581.377813 
L 847.98972 586.122487 
L 850.706678 587.07014 
L 853.423636 586.599517 
L 856.140594 584.1586 
L 858.857552 581.410949 
L 861.57451 581.048604 
L 864.291469 582.773787 
L 867.008427 586.013341 
L 869.725385 586.989098 
L 872.442343 586.471047 
L 875.159301 584.645691 
L 877.876259 581.531781 
L 880.593217 581.895128 
L 883.310175 583.624691 
L 886.027133 586.167807 
L 888.744091 587.480624 
L 891.461049 586.65421 
L 894.178007 585.440774 
L 896.894965 584.720232 
L 899.611923 585.066662 
L 902.328881 587.50876 
L 905.045839 588.866675 
L 907.762797 588.062287 
L 910.479755 585.869536 
L 913.196713 582.296362 
L 915.913671 579.818024 
L 918.630629 583.011474 
L 921.347587 587.42047 
L 924.064545 588.998437 
L 926.781503 588.296308 
L 929.498462 586.119198 
L 932.21542 580.568259 
L 934.932378 575.492964 
L 937.649336 578.830002 
L 940.366294 583.502619 
L 943.083252 587.233003 
L 945.80021 588.255145 
L 948.517168 587.464457 
L 951.234126 585.783015 
L 953.951084 583.190433 
L 956.668042 583.093803 
L 959.385 586.102847 
L 962.101958 587.922406 
L 964.818916 588.476261 
L 967.535874 587.581424 
L 970.252832 584.846055 
L 972.96979 582.443475 
L 975.686748 582.43986 
L 978.403706 585.481879 
L 981.120664 587.933499 
L 983.837622 588.603522 
L 986.55458 587.798417 
L 989.271538 585.552429 
L 991.988497 582.576083 
L 994.705455 582.122385 
L 997.422413 585.390636 
L 1000.139371 587.558255 
L 1002.856329 588.419741 
L 1005.573287 587.862993 
L 1011.007203 582.743315 
L 1013.724161 582.196573 
L 1019.158077 587.994077 
L 1021.875035 588.797211 
L 1024.591993 588.44895 
L 1027.308951 586.271131 
L 1030.025909 582.675008 
L 1032.742867 582.284871 
L 1035.459825 584.55477 
L 1038.176783 587.317333 
L 1040.893741 588.200992 
L 1043.610699 587.079012 
L 1046.327657 584.758822 
L 1049.044615 580.966059 
L 1051.761573 580.502036 
L 1054.478531 584.056579 
L 1057.19549 586.615611 
L 1059.912448 587.736802 
L 1062.629406 586.899685 
L 1065.346364 44.998437 
L 1065.346364 44.998437 
" style="fill:none;stroke:#348abd;stroke-dasharray:1.5,2.475;stroke-dashoffset:0;stroke-width:1.5;"/>
   </g>
   <g id="line2d_35">
    <path clip-path="url(#p0bd8d8673a)" d="M 26.925 585.265057 
L 1114.795 585.265057 
" style="fill:none;stroke:#008000;stroke-linecap:square;stroke-opacity:0.5;stroke-width:1.5;"/>
   </g>
   <g id="patch_3">
    <path d="M 26.925 616.198437 
L 26.925 17.798437 
" style="fill:none;stroke:#ffffff;stroke-linecap:square;stroke-linejoin:miter;"/>
   </g>
   <g id="patch_4">
    <path d="M 1114.795 616.198437 
L 1114.795 17.798437 
" style="fill:none;stroke:#ffffff;stroke-linecap:square;stroke-linejoin:miter;"/>
   </g>
   <g id="patch_5">
    <path d="M 26.925 616.198437 
L 1114.795 616.198437 
" style="fill:none;stroke:#ffffff;stroke-linecap:square;stroke-linejoin:miter;"/>
   </g>
   <g id="patch_6">
    <path d="M 26.925 17.798437 
L 1114.795 17.798437 
" style="fill:none;stroke:#ffffff;stroke-linecap:square;stroke-linejoin:miter;"/>
   </g>
  </g>
  <g id="axes_2">
   <g id="matplotlib.axis_3">
    <g id="ytick_9">
     <g id="line2d_36">
      <path clip-path="url(#p0bd8d8673a)" d="M 26.925 589.001118 
L 1114.795 589.001118 
" style="fill:none;stroke:#ffffff;stroke-linecap:square;stroke-width:0.8;"/>
     </g>
     <g id="line2d_37">
      <defs>
       <path d="M 0 0 
L 3.5 0 
" id="me2a4babfd4" style="stroke:#555555;stroke-width:0.8;"/>
      </defs>
      <g>
       <use style="fill:#555555;stroke:#555555;stroke-width:0.8;" x="1114.795" xlink:href="#me2a4babfd4" y="589.001118"/>
      </g>
     </g>
     <g id="text_16">
      <!-- 0.0 -->
      <g style="fill:#555555;" transform="translate(1121.795 592.800336)scale(0.1 -0.1)">
       <defs>
        <path d="M 10.6875 12.40625 
L 21 12.40625 
L 21 0 
L 10.6875 0 
z
" id="DejaVuSans-46"/>
       </defs>
       <use xlink:href="#DejaVuSans-48"/>
       <use x="63.623047" xlink:href="#DejaVuSans-46"/>
       <use x="95.410156" xlink:href="#DejaVuSans-48"/>
      </g>
     </g>
    </g>
    <g id="ytick_10">
     <g id="line2d_38">
      <path clip-path="url(#p0bd8d8673a)" d="M 26.925 467.172251 
L 1114.795 467.172251 
" style="fill:none;stroke:#ffffff;stroke-linecap:square;stroke-width:0.8;"/>
     </g>
     <g id="line2d_39">
      <g>
       <use style="fill:#555555;stroke:#555555;stroke-width:0.8;" x="1114.795" xlink:href="#me2a4babfd4" y="467.172251"/>
      </g>
     </g>
     <g id="text_17">
      <!-- 0.5 -->
      <g style="fill:#555555;" transform="translate(1121.795 470.97147)scale(0.1 -0.1)">
       <use xlink:href="#DejaVuSans-48"/>
       <use x="63.623047" xlink:href="#DejaVuSans-46"/>
       <use x="95.410156" xlink:href="#DejaVuSans-53"/>
      </g>
     </g>
    </g>
    <g id="ytick_11">
     <g id="line2d_40">
      <path clip-path="url(#p0bd8d8673a)" d="M 26.925 345.343385 
L 1114.795 345.343385 
" style="fill:none;stroke:#ffffff;stroke-linecap:square;stroke-width:0.8;"/>
     </g>
     <g id="line2d_41">
      <g>
       <use style="fill:#555555;stroke:#555555;stroke-width:0.8;" x="1114.795" xlink:href="#me2a4babfd4" y="345.343385"/>
      </g>
     </g>
     <g id="text_18">
      <!-- 1.0 -->
      <g style="fill:#555555;" transform="translate(1121.795 349.142604)scale(0.1 -0.1)">
       <use xlink:href="#DejaVuSans-49"/>
       <use x="63.623047" xlink:href="#DejaVuSans-46"/>
       <use x="95.410156" xlink:href="#DejaVuSans-48"/>
      </g>
     </g>
    </g>
    <g id="ytick_12">
     <g id="line2d_42">
      <path clip-path="url(#p0bd8d8673a)" d="M 26.925 223.514519 
L 1114.795 223.514519 
" style="fill:none;stroke:#ffffff;stroke-linecap:square;stroke-width:0.8;"/>
     </g>
     <g id="line2d_43">
      <g>
       <use style="fill:#555555;stroke:#555555;stroke-width:0.8;" x="1114.795" xlink:href="#me2a4babfd4" y="223.514519"/>
      </g>
     </g>
     <g id="text_19">
      <!-- 1.5 -->
      <g style="fill:#555555;" transform="translate(1121.795 227.313738)scale(0.1 -0.1)">
       <use xlink:href="#DejaVuSans-49"/>
       <use x="63.623047" xlink:href="#DejaVuSans-46"/>
       <use x="95.410156" xlink:href="#DejaVuSans-53"/>
      </g>
     </g>
    </g>
    <g id="ytick_13">
     <g id="line2d_44">
      <path clip-path="url(#p0bd8d8673a)" d="M 26.925 101.685653 
L 1114.795 101.685653 
" style="fill:none;stroke:#ffffff;stroke-linecap:square;stroke-width:0.8;"/>
     </g>
     <g id="line2d_45">
      <g>
       <use style="fill:#555555;stroke:#555555;stroke-width:0.8;" x="1114.795" xlink:href="#me2a4babfd4" y="101.685653"/>
      </g>
     </g>
     <g id="text_20">
      <!-- 2.0 -->
      <g style="fill:#555555;" transform="translate(1121.795 105.484871)scale(0.1 -0.1)">
       <use xlink:href="#DejaVuSans-50"/>
       <use x="63.623047" xlink:href="#DejaVuSans-46"/>
       <use x="95.410156" xlink:href="#DejaVuSans-48"/>
      </g>
     </g>
    </g>
    <g id="text_21">
     <!-- 1e6 -->
     <g style="fill:#555555;" transform="translate(1095.916875 14.798437)scale(0.1 -0.1)">
      <defs>
       <path d="M 56.203125 29.59375 
L 56.203125 25.203125 
L 14.890625 25.203125 
Q 15.484375 15.921875 20.484375 11.0625 
Q 25.484375 6.203125 34.421875 6.203125 
Q 39.59375 6.203125 44.453125 7.46875 
Q 49.3125 8.734375 54.109375 11.28125 
L 54.109375 2.78125 
Q 49.265625 0.734375 44.1875 -0.34375 
Q 39.109375 -1.421875 33.890625 -1.421875 
Q 20.796875 -1.421875 13.15625 6.1875 
Q 5.515625 13.8125 5.515625 26.8125 
Q 5.515625 40.234375 12.765625 48.109375 
Q 20.015625 56 32.328125 56 
Q 43.359375 56 49.78125 48.890625 
Q 56.203125 41.796875 56.203125 29.59375 
z
M 47.21875 32.234375 
Q 47.125 39.59375 43.09375 43.984375 
Q 39.0625 48.390625 32.421875 48.390625 
Q 24.90625 48.390625 20.390625 44.140625 
Q 15.875 39.890625 15.1875 32.171875 
z
" id="DejaVuSans-101"/>
      </defs>
      <use xlink:href="#DejaVuSans-49"/>
      <use x="63.623047" xlink:href="#DejaVuSans-101"/>
      <use x="125.146484" xlink:href="#DejaVuSans-54"/>
     </g>
    </g>
   </g>
   <g id="line2d_46">
    <path clip-path="url(#p0bd8d8673a)" d="M 76.373636 588.988204 
L 108.977133 588.955693 
L 130.712797 588.700723 
L 166.033252 587.754565 
L 176.901084 587.637783 
L 198.636748 588.03954 
L 214.938497 588.325211 
L 269.277657 588.762751 
L 391.540769 588.861084 
L 415.993392 588.891507 
L 511.086923 588.818757 
L 576.293916 588.691081 
L 622.482203 588.646457 
L 684.972238 588.295729 
L 720.292692 587.231954 
L 725.726608 586.856303 
L 747.462273 585.389797 
L 766.480979 584.630072 
L 785.499685 584.406499 
L 790.933601 584.526657 
L 799.084476 584.529337 
L 807.23535 584.552415 
L 826.254056 584.659276 
L 839.838846 584.633831 
L 845.272762 584.483495 
L 850.706678 584.344436 
L 853.423636 584.287594 
L 858.857552 583.885698 
L 867.008427 583.647574 
L 869.725385 583.406945 
L 880.593217 582.969092 
L 883.310175 582.959311 
L 886.027133 582.781928 
L 888.744091 582.885935 
L 891.461049 582.702426 
L 894.178007 582.989385 
L 896.894965 583.57573 
L 899.611923 583.889561 
L 907.762797 584.397205 
L 913.196713 584.475593 
L 926.781503 584.773238 
L 929.498462 584.987692 
L 937.649336 584.027681 
L 943.083252 583.904633 
L 948.517168 584.004324 
L 951.234126 584.334341 
L 956.668042 584.651096 
L 959.385 584.836833 
L 964.818916 585.012928 
L 972.96979 585.414371 
L 981.120664 585.65782 
L 997.422413 586.205807 
L 1000.139371 586.216179 
L 1008.290245 586.49287 
L 1024.591993 586.974164 
L 1032.742867 587.241526 
L 1059.912448 587.176504 
L 1062.629406 587.118653 
L 1065.346364 509.721192 
L 1065.346364 509.721192 
" style="fill:none;stroke:#000000;stroke-linecap:square;stroke-width:1.5;"/>
   </g>
   <g id="line2d_47">
    <path clip-path="url(#p0bd8d8673a)" d="M 76.373636 588.988204 
L 92.675385 588.967493 
L 103.543217 588.943371 
L 108.977133 588.935086 
L 111.694091 588.805704 
L 117.128007 588.822517 
L 122.561923 588.715064 
L 127.995839 588.747226 
L 130.712797 588.318632 
L 136.146713 588.342024 
L 138.863671 588.526472 
L 141.580629 588.01138 
L 144.297587 587.840332 
L 147.014545 587.997735 
L 155.16542 587.467536 
L 157.882378 588.035015 
L 160.599336 587.8435 
L 163.316294 587.876637 
L 168.75021 587.501161 
L 176.901084 587.554765 
L 179.618042 588.105188 
L 185.051958 588.025756 
L 187.768916 587.789164 
L 190.485874 587.704128 
L 195.91979 588.313759 
L 201.353706 588.493822 
L 212.221538 588.121757 
L 214.938497 588.402207 
L 217.655455 588.568625 
L 223.089371 588.456055 
L 228.523287 588.43169 
L 233.957203 588.577884 
L 236.674161 588.753074 
L 247.541993 588.601763 
L 250.258951 588.770861 
L 258.409825 588.834212 
L 266.560699 588.706536 
L 269.277657 588.696302 
L 274.711573 588.914132 
L 277.428531 588.773785 
L 293.73028 588.917787 
L 301.881154 588.819593 
L 304.598112 588.889035 
L 310.032028 588.896101 
L 318.182902 588.912914 
L 377.955979 588.859796 
L 383.389895 588.854679 
L 396.974685 588.847613 
L 407.842517 588.937279 
L 413.276434 588.887573 
L 437.729056 588.904873 
L 473.04951 588.862476 
L 478.483427 588.810821 
L 481.200385 588.926802 
L 489.351259 588.834456 
L 497.502133 588.768425 
L 500.219091 588.94264 
L 513.803881 588.721642 
L 516.520839 588.727734 
L 521.954755 588.894883 
L 527.388671 588.702393 
L 532.822587 588.648058 
L 535.539545 588.656342 
L 538.256503 588.848832 
L 540.973462 588.864426 
L 543.69042 588.662433 
L 554.558252 588.505518 
L 557.27521 588.810577 
L 559.992168 588.827877 
L 565.426084 588.617113 
L 573.576958 588.640748 
L 576.293916 588.809846 
L 579.010874 588.852487 
L 581.727832 588.704343 
L 595.312622 588.760384 
L 598.02958 588.80278 
L 600.746538 588.635875 
L 603.463497 588.714576 
L 606.180455 588.540117 
L 608.897413 588.63953 
L 611.614371 588.603956 
L 614.331329 588.77013 
L 617.048287 588.775247 
L 625.199161 588.466533 
L 627.916119 588.53427 
L 630.633077 588.441436 
L 633.350035 588.673398 
L 636.066993 588.776465 
L 638.783951 588.557417 
L 644.217867 588.478959 
L 649.651783 588.390268 
L 652.368741 588.65756 
L 655.085699 588.710678 
L 657.802657 588.492117 
L 660.519615 588.563021 
L 663.236573 588.391242 
L 668.67049 588.376623 
L 671.387448 588.445822 
L 674.104406 588.664383 
L 676.821364 588.358105 
L 679.538322 588.312054 
L 682.25528 588.012355 
L 687.689196 587.85081 
L 693.123112 588.400014 
L 695.84007 587.996761 
L 698.557028 587.750666 
L 701.273986 587.383718 
L 706.707902 587.093278 
L 709.42486 587.639802 
L 712.141818 587.947298 
L 714.858776 587.327676 
L 717.575734 587.150537 
L 720.292692 586.250953 
L 723.00965 586.261918 
L 725.726608 585.415938 
L 728.443566 586.277999 
L 731.160524 586.88495 
L 733.877483 586.221227 
L 736.594441 585.355023 
L 742.028357 584.449348 
L 744.745315 584.357245 
L 747.462273 585.546782 
L 750.179231 586.05359 
L 752.896189 585.260484 
L 755.613147 584.806794 
L 758.330105 584.1304 
L 763.764021 583.29977 
L 766.480979 585.098452 
L 769.197937 585.745119 
L 771.914895 585.265357 
L 777.348811 583.673298 
L 780.065769 583.264927 
L 782.782727 583.528321 
L 785.499685 584.87185 
L 788.216643 586.363766 
L 793.650559 584.722244 
L 796.367517 583.49226 
L 799.084476 583.2391 
L 801.801434 583.405762 
L 804.518392 585.165701 
L 807.23535 586.35402 
L 809.952308 585.698581 
L 812.669266 584.461043 
L 815.386224 583.575347 
L 818.103182 583.444259 
L 820.82014 583.714963 
L 823.537098 585.441035 
L 826.254056 586.279705 
L 828.971014 585.686398 
L 831.687972 584.793149 
L 834.40493 583.629439 
L 837.121888 583.287588 
L 839.838846 583.319507 
L 845.272762 585.996331 
L 847.98972 585.576752 
L 850.706678 583.929382 
L 853.423636 583.231546 
L 856.140594 581.721843 
L 858.857552 582.071979 
L 861.57451 584.079232 
L 864.291469 585.01439 
L 867.008427 585.484649 
L 869.725385 582.244976 
L 872.442343 582.441121 
L 875.159301 580.771091 
L 877.876259 581.374631 
L 880.593217 583.452788 
L 883.310175 584.945922 
L 886.027133 584.24297 
L 888.744091 582.973025 
L 891.461049 581.156557 
L 894.178007 582.779805 
L 896.894965 585.479045 
L 899.611923 585.649606 
L 902.328881 586.32673 
L 905.045839 585.859882 
L 910.479755 581.069571 
L 913.196713 583.415508 
L 915.913671 585.909101 
L 918.630629 586.487788 
L 921.347587 586.60182 
L 924.064545 586.102322 
L 926.781503 583.826558 
L 932.21542 581.240863 
L 934.932378 582.984234 
L 937.649336 584.867221 
L 940.366294 585.961 
L 943.083252 585.881811 
L 945.80021 584.225426 
L 948.517168 582.869715 
L 951.234126 583.550982 
L 953.951084 584.450079 
L 956.668042 585.618661 
L 959.385 587.261158 
L 964.818916 585.108929 
L 967.535874 584.030987 
L 970.252832 584.648903 
L 972.96979 585.000989 
L 975.686748 586.014605 
L 978.403706 587.361545 
L 981.120664 587.438784 
L 983.837622 585.784348 
L 986.55458 584.725168 
L 989.271538 585.584549 
L 991.988497 585.999011 
L 994.705455 586.2741 
L 997.422413 587.634685 
L 1000.139371 587.511394 
L 1002.856329 586.636419 
L 1005.573287 585.538498 
L 1008.290245 585.855984 
L 1011.007203 586.446366 
L 1013.724161 586.901763 
L 1016.441119 587.89613 
L 1019.158077 588.177798 
L 1021.875035 587.034313 
L 1024.591993 586.506794 
L 1027.308951 586.598652 
L 1030.025909 586.965601 
L 1032.742867 587.511394 
L 1035.459825 587.922689 
L 1038.176783 588.061574 
L 1040.893741 587.16004 
L 1043.610699 586.514103 
L 1046.327657 586.780665 
L 1049.044615 586.768238 
L 1051.761573 587.130801 
L 1054.478531 587.936577 
L 1057.19549 588.054995 
L 1062.629406 586.109144 
L 1065.346364 44.998437 
L 1065.346364 44.998437 
" style="fill:none;stroke:#000000;stroke-dasharray:1.5,2.475;stroke-dashoffset:0;stroke-width:1.5;"/>
   </g>
   <g id="patch_7">
    <path d="M 26.925 616.198437 
L 26.925 17.798437 
" style="fill:none;stroke:#ffffff;stroke-linecap:square;stroke-linejoin:miter;"/>
   </g>
   <g id="patch_8">
    <path d="M 1114.795 616.198437 
L 1114.795 17.798437 
" style="fill:none;stroke:#ffffff;stroke-linecap:square;stroke-linejoin:miter;"/>
   </g>
   <g id="patch_9">
    <path d="M 26.925 616.198437 
L 1114.795 616.198437 
" style="fill:none;stroke:#ffffff;stroke-linecap:square;stroke-linejoin:miter;"/>
   </g>
   <g id="patch_10">
    <path d="M 26.925 17.798437 
L 1114.795 17.798437 
" style="fill:none;stroke:#ffffff;stroke-linecap:square;stroke-linejoin:miter;"/>
   </g>
   <g id="legend_1">
    <g id="patch_11">
     <path d="M 33.925 113.867187 
L 191.120313 113.867187 
Q 193.120313 113.867187 193.120313 111.867187 
L 193.120313 24.798437 
Q 193.120313 22.798437 191.120313 22.798437 
L 33.925 22.798437 
Q 31.925 22.798437 31.925 24.798437 
L 31.925 111.867187 
Q 31.925 113.867187 33.925 113.867187 
z
" style="fill:#e5e5e5;opacity:0.8;stroke:#cccccc;stroke-linejoin:miter;stroke-width:0.5;"/>
    </g>
    <g id="line2d_48">
     <path d="M 35.925 30.896875 
L 55.925 30.896875 
" style="fill:none;stroke:#e24a33;stroke-linecap:square;stroke-width:1.5;"/>
    </g>
    <g id="line2d_49"/>
    <g id="text_22">
     <!-- Logistic rate rolling week -->
     <g transform="translate(63.925 34.396875)scale(0.1 -0.1)">
      <defs>
       <path d="M 9.8125 72.90625 
L 19.671875 72.90625 
L 19.671875 8.296875 
L 55.171875 8.296875 
L 55.171875 0 
L 9.8125 0 
z
" id="DejaVuSans-76"/>
       <path d="M 30.609375 48.390625 
Q 23.390625 48.390625 19.1875 42.75 
Q 14.984375 37.109375 14.984375 27.296875 
Q 14.984375 17.484375 19.15625 11.84375 
Q 23.34375 6.203125 30.609375 6.203125 
Q 37.796875 6.203125 41.984375 11.859375 
Q 46.1875 17.53125 46.1875 27.296875 
Q 46.1875 37.015625 41.984375 42.703125 
Q 37.796875 48.390625 30.609375 48.390625 
z
M 30.609375 56 
Q 42.328125 56 49.015625 48.375 
Q 55.71875 40.765625 55.71875 27.296875 
Q 55.71875 13.875 49.015625 6.21875 
Q 42.328125 -1.421875 30.609375 -1.421875 
Q 18.84375 -1.421875 12.171875 6.21875 
Q 5.515625 13.875 5.515625 27.296875 
Q 5.515625 40.765625 12.171875 48.375 
Q 18.84375 56 30.609375 56 
z
" id="DejaVuSans-111"/>
       <path d="M 45.40625 27.984375 
Q 45.40625 37.75 41.375 43.109375 
Q 37.359375 48.484375 30.078125 48.484375 
Q 22.859375 48.484375 18.828125 43.109375 
Q 14.796875 37.75 14.796875 27.984375 
Q 14.796875 18.265625 18.828125 12.890625 
Q 22.859375 7.515625 30.078125 7.515625 
Q 37.359375 7.515625 41.375 12.890625 
Q 45.40625 18.265625 45.40625 27.984375 
z
M 54.390625 6.78125 
Q 54.390625 -7.171875 48.1875 -13.984375 
Q 42 -20.796875 29.203125 -20.796875 
Q 24.46875 -20.796875 20.265625 -20.09375 
Q 16.0625 -19.390625 12.109375 -17.921875 
L 12.109375 -9.1875 
Q 16.0625 -11.328125 19.921875 -12.34375 
Q 23.78125 -13.375 27.78125 -13.375 
Q 36.625 -13.375 41.015625 -8.765625 
Q 45.40625 -4.15625 45.40625 5.171875 
L 45.40625 9.625 
Q 42.625 4.78125 38.28125 2.390625 
Q 33.9375 0 27.875 0 
Q 17.828125 0 11.671875 7.65625 
Q 5.515625 15.328125 5.515625 27.984375 
Q 5.515625 40.671875 11.671875 48.328125 
Q 17.828125 56 27.875 56 
Q 33.9375 56 38.28125 53.609375 
Q 42.625 51.21875 45.40625 46.390625 
L 45.40625 54.6875 
L 54.390625 54.6875 
z
" id="DejaVuSans-103"/>
       <path d="M 9.421875 54.6875 
L 18.40625 54.6875 
L 18.40625 0 
L 9.421875 0 
z
M 9.421875 75.984375 
L 18.40625 75.984375 
L 18.40625 64.59375 
L 9.421875 64.59375 
z
" id="DejaVuSans-105"/>
       <path d="M 44.28125 53.078125 
L 44.28125 44.578125 
Q 40.484375 46.53125 36.375 47.5 
Q 32.28125 48.484375 27.875 48.484375 
Q 21.1875 48.484375 17.84375 46.4375 
Q 14.5 44.390625 14.5 40.28125 
Q 14.5 37.15625 16.890625 35.375 
Q 19.28125 33.59375 26.515625 31.984375 
L 29.59375 31.296875 
Q 39.15625 29.25 43.1875 25.515625 
Q 47.21875 21.78125 47.21875 15.09375 
Q 47.21875 7.46875 41.1875 3.015625 
Q 35.15625 -1.421875 24.609375 -1.421875 
Q 20.21875 -1.421875 15.453125 -0.5625 
Q 10.6875 0.296875 5.421875 2 
L 5.421875 11.28125 
Q 10.40625 8.6875 15.234375 7.390625 
Q 20.0625 6.109375 24.8125 6.109375 
Q 31.15625 6.109375 34.5625 8.28125 
Q 37.984375 10.453125 37.984375 14.40625 
Q 37.984375 18.0625 35.515625 20.015625 
Q 33.0625 21.96875 24.703125 23.78125 
L 21.578125 24.515625 
Q 13.234375 26.265625 9.515625 29.90625 
Q 5.8125 33.546875 5.8125 39.890625 
Q 5.8125 47.609375 11.28125 51.796875 
Q 16.75 56 26.8125 56 
Q 31.78125 56 36.171875 55.265625 
Q 40.578125 54.546875 44.28125 53.078125 
z
" id="DejaVuSans-115"/>
       <path d="M 18.3125 70.21875 
L 18.3125 54.6875 
L 36.8125 54.6875 
L 36.8125 47.703125 
L 18.3125 47.703125 
L 18.3125 18.015625 
Q 18.3125 11.328125 20.140625 9.421875 
Q 21.96875 7.515625 27.59375 7.515625 
L 36.8125 7.515625 
L 36.8125 0 
L 27.59375 0 
Q 17.1875 0 13.234375 3.875 
Q 9.28125 7.765625 9.28125 18.015625 
L 9.28125 47.703125 
L 2.6875 47.703125 
L 2.6875 54.6875 
L 9.28125 54.6875 
L 9.28125 70.21875 
z
" id="DejaVuSans-116"/>
       <path d="M 48.78125 52.59375 
L 48.78125 44.1875 
Q 44.96875 46.296875 41.140625 47.34375 
Q 37.3125 48.390625 33.40625 48.390625 
Q 24.65625 48.390625 19.8125 42.84375 
Q 14.984375 37.3125 14.984375 27.296875 
Q 14.984375 17.28125 19.8125 11.734375 
Q 24.65625 6.203125 33.40625 6.203125 
Q 37.3125 6.203125 41.140625 7.25 
Q 44.96875 8.296875 48.78125 10.40625 
L 48.78125 2.09375 
Q 45.015625 0.34375 40.984375 -0.53125 
Q 36.96875 -1.421875 32.421875 -1.421875 
Q 20.0625 -1.421875 12.78125 6.34375 
Q 5.515625 14.109375 5.515625 27.296875 
Q 5.515625 40.671875 12.859375 48.328125 
Q 20.21875 56 33.015625 56 
Q 37.15625 56 41.109375 55.140625 
Q 45.0625 54.296875 48.78125 52.59375 
z
" id="DejaVuSans-99"/>
       <path id="DejaVuSans-32"/>
       <path d="M 41.109375 46.296875 
Q 39.59375 47.171875 37.8125 47.578125 
Q 36.03125 48 33.890625 48 
Q 26.265625 48 22.1875 43.046875 
Q 18.109375 38.09375 18.109375 28.8125 
L 18.109375 0 
L 9.078125 0 
L 9.078125 54.6875 
L 18.109375 54.6875 
L 18.109375 46.1875 
Q 20.953125 51.171875 25.484375 53.578125 
Q 30.03125 56 36.53125 56 
Q 37.453125 56 38.578125 55.875 
Q 39.703125 55.765625 41.0625 55.515625 
z
" id="DejaVuSans-114"/>
       <path d="M 34.28125 27.484375 
Q 23.390625 27.484375 19.1875 25 
Q 14.984375 22.515625 14.984375 16.5 
Q 14.984375 11.71875 18.140625 8.90625 
Q 21.296875 6.109375 26.703125 6.109375 
Q 34.1875 6.109375 38.703125 11.40625 
Q 43.21875 16.703125 43.21875 25.484375 
L 43.21875 27.484375 
z
M 52.203125 31.203125 
L 52.203125 0 
L 43.21875 0 
L 43.21875 8.296875 
Q 40.140625 3.328125 35.546875 0.953125 
Q 30.953125 -1.421875 24.3125 -1.421875 
Q 15.921875 -1.421875 10.953125 3.296875 
Q 6 8.015625 6 15.921875 
Q 6 25.140625 12.171875 29.828125 
Q 18.359375 34.515625 30.609375 34.515625 
L 43.21875 34.515625 
L 43.21875 35.40625 
Q 43.21875 41.609375 39.140625 45 
Q 35.0625 48.390625 27.6875 48.390625 
Q 23 48.390625 18.546875 47.265625 
Q 14.109375 46.140625 10.015625 43.890625 
L 10.015625 52.203125 
Q 14.9375 54.109375 19.578125 55.046875 
Q 24.21875 56 28.609375 56 
Q 40.484375 56 46.34375 49.84375 
Q 52.203125 43.703125 52.203125 31.203125 
z
" id="DejaVuSans-97"/>
       <path d="M 9.421875 75.984375 
L 18.40625 75.984375 
L 18.40625 0 
L 9.421875 0 
z
" id="DejaVuSans-108"/>
       <path d="M 54.890625 33.015625 
L 54.890625 0 
L 45.90625 0 
L 45.90625 32.71875 
Q 45.90625 40.484375 42.875 44.328125 
Q 39.84375 48.1875 33.796875 48.1875 
Q 26.515625 48.1875 22.3125 43.546875 
Q 18.109375 38.921875 18.109375 30.90625 
L 18.109375 0 
L 9.078125 0 
L 9.078125 54.6875 
L 18.109375 54.6875 
L 18.109375 46.1875 
Q 21.34375 51.125 25.703125 53.5625 
Q 30.078125 56 35.796875 56 
Q 45.21875 56 50.046875 50.171875 
Q 54.890625 44.34375 54.890625 33.015625 
z
" id="DejaVuSans-110"/>
       <path d="M 4.203125 54.6875 
L 13.1875 54.6875 
L 24.421875 12.015625 
L 35.59375 54.6875 
L 46.1875 54.6875 
L 57.421875 12.015625 
L 68.609375 54.6875 
L 77.59375 54.6875 
L 63.28125 0 
L 52.6875 0 
L 40.921875 44.828125 
L 29.109375 0 
L 18.5 0 
z
" id="DejaVuSans-119"/>
       <path d="M 9.078125 75.984375 
L 18.109375 75.984375 
L 18.109375 31.109375 
L 44.921875 54.6875 
L 56.390625 54.6875 
L 27.390625 29.109375 
L 57.625 0 
L 45.90625 0 
L 18.109375 26.703125 
L 18.109375 0 
L 9.078125 0 
z
" id="DejaVuSans-107"/>
      </defs>
      <use xlink:href="#DejaVuSans-76"/>
      <use x="53.962891" xlink:href="#DejaVuSans-111"/>
      <use x="115.144531" xlink:href="#DejaVuSans-103"/>
      <use x="178.621094" xlink:href="#DejaVuSans-105"/>
      <use x="206.404297" xlink:href="#DejaVuSans-115"/>
      <use x="258.503906" xlink:href="#DejaVuSans-116"/>
      <use x="297.712891" xlink:href="#DejaVuSans-105"/>
      <use x="325.496094" xlink:href="#DejaVuSans-99"/>
      <use x="380.476562" xlink:href="#DejaVuSans-32"/>
      <use x="412.263672" xlink:href="#DejaVuSans-114"/>
      <use x="453.376953" xlink:href="#DejaVuSans-97"/>
      <use x="514.65625" xlink:href="#DejaVuSans-116"/>
      <use x="553.865234" xlink:href="#DejaVuSans-101"/>
      <use x="615.388672" xlink:href="#DejaVuSans-32"/>
      <use x="647.175781" xlink:href="#DejaVuSans-114"/>
      <use x="686.039062" xlink:href="#DejaVuSans-111"/>
      <use x="747.220703" xlink:href="#DejaVuSans-108"/>
      <use x="775.003906" xlink:href="#DejaVuSans-108"/>
      <use x="802.787109" xlink:href="#DejaVuSans-105"/>
      <use x="830.570312" xlink:href="#DejaVuSans-110"/>
      <use x="893.949219" xlink:href="#DejaVuSans-103"/>
      <use x="957.425781" xlink:href="#DejaVuSans-32"/>
      <use x="989.212891" xlink:href="#DejaVuSans-119"/>
      <use x="1071" xlink:href="#DejaVuSans-101"/>
      <use x="1132.523438" xlink:href="#DejaVuSans-101"/>
      <use x="1194.046875" xlink:href="#DejaVuSans-107"/>
     </g>
    </g>
    <g id="line2d_50">
     <path d="M 35.925 45.575 
L 55.925 45.575 
" style="fill:none;stroke:#e24a33;stroke-dasharray:1.5,2.475;stroke-dashoffset:0;stroke-width:1.5;"/>
    </g>
    <g id="line2d_51"/>
    <g id="text_23">
     <!-- Logistic rate -->
     <g transform="translate(63.925 49.075)scale(0.1 -0.1)">
      <use xlink:href="#DejaVuSans-76"/>
      <use x="53.962891" xlink:href="#DejaVuSans-111"/>
      <use x="115.144531" xlink:href="#DejaVuSans-103"/>
      <use x="178.621094" xlink:href="#DejaVuSans-105"/>
      <use x="206.404297" xlink:href="#DejaVuSans-115"/>
      <use x="258.503906" xlink:href="#DejaVuSans-116"/>
      <use x="297.712891" xlink:href="#DejaVuSans-105"/>
      <use x="325.496094" xlink:href="#DejaVuSans-99"/>
      <use x="380.476562" xlink:href="#DejaVuSans-32"/>
      <use x="412.263672" xlink:href="#DejaVuSans-114"/>
      <use x="453.376953" xlink:href="#DejaVuSans-97"/>
      <use x="514.65625" xlink:href="#DejaVuSans-116"/>
      <use x="553.865234" xlink:href="#DejaVuSans-101"/>
     </g>
    </g>
    <g id="line2d_52">
     <path d="M 35.925 60.253125 
L 55.925 60.253125 
" style="fill:none;stroke:#348abd;stroke-linecap:square;stroke-width:1.5;"/>
    </g>
    <g id="line2d_53"/>
    <g id="text_24">
     <!-- RKI rate rolling week -->
     <g transform="translate(63.925 63.753125)scale(0.1 -0.1)">
      <defs>
       <path d="M 44.390625 34.1875 
Q 47.5625 33.109375 50.5625 29.59375 
Q 53.5625 26.078125 56.59375 19.921875 
L 66.609375 0 
L 56 0 
L 46.6875 18.703125 
Q 43.0625 26.03125 39.671875 28.421875 
Q 36.28125 30.8125 30.421875 30.8125 
L 19.671875 30.8125 
L 19.671875 0 
L 9.8125 0 
L 9.8125 72.90625 
L 32.078125 72.90625 
Q 44.578125 72.90625 50.734375 67.671875 
Q 56.890625 62.453125 56.890625 51.90625 
Q 56.890625 45.015625 53.6875 40.46875 
Q 50.484375 35.9375 44.390625 34.1875 
z
M 19.671875 64.796875 
L 19.671875 38.921875 
L 32.078125 38.921875 
Q 39.203125 38.921875 42.84375 42.21875 
Q 46.484375 45.515625 46.484375 51.90625 
Q 46.484375 58.296875 42.84375 61.546875 
Q 39.203125 64.796875 32.078125 64.796875 
z
" id="DejaVuSans-82"/>
       <path d="M 9.8125 72.90625 
L 19.671875 72.90625 
L 19.671875 42.09375 
L 52.390625 72.90625 
L 65.09375 72.90625 
L 28.90625 38.921875 
L 67.671875 0 
L 54.6875 0 
L 19.671875 35.109375 
L 19.671875 0 
L 9.8125 0 
z
" id="DejaVuSans-75"/>
       <path d="M 9.8125 72.90625 
L 19.671875 72.90625 
L 19.671875 0 
L 9.8125 0 
z
" id="DejaVuSans-73"/>
      </defs>
      <use xlink:href="#DejaVuSans-82"/>
      <use x="69.482422" xlink:href="#DejaVuSans-75"/>
      <use x="135.058594" xlink:href="#DejaVuSans-73"/>
      <use x="164.550781" xlink:href="#DejaVuSans-32"/>
      <use x="196.337891" xlink:href="#DejaVuSans-114"/>
      <use x="237.451172" xlink:href="#DejaVuSans-97"/>
      <use x="298.730469" xlink:href="#DejaVuSans-116"/>
      <use x="337.939453" xlink:href="#DejaVuSans-101"/>
      <use x="399.462891" xlink:href="#DejaVuSans-32"/>
      <use x="431.25" xlink:href="#DejaVuSans-114"/>
      <use x="470.113281" xlink:href="#DejaVuSans-111"/>
      <use x="531.294922" xlink:href="#DejaVuSans-108"/>
      <use x="559.078125" xlink:href="#DejaVuSans-108"/>
      <use x="586.861328" xlink:href="#DejaVuSans-105"/>
      <use x="614.644531" xlink:href="#DejaVuSans-110"/>
      <use x="678.023438" xlink:href="#DejaVuSans-103"/>
      <use x="741.5" xlink:href="#DejaVuSans-32"/>
      <use x="773.287109" xlink:href="#DejaVuSans-119"/>
      <use x="855.074219" xlink:href="#DejaVuSans-101"/>
      <use x="916.597656" xlink:href="#DejaVuSans-101"/>
      <use x="978.121094" xlink:href="#DejaVuSans-107"/>
     </g>
    </g>
    <g id="line2d_54">
     <path d="M 35.925 74.93125 
L 55.925 74.93125 
" style="fill:none;stroke:#348abd;stroke-dasharray:1.5,2.475;stroke-dashoffset:0;stroke-width:1.5;"/>
    </g>
    <g id="line2d_55"/>
    <g id="text_25">
     <!-- RKI rate -->
     <g transform="translate(63.925 78.43125)scale(0.1 -0.1)">
      <use xlink:href="#DejaVuSans-82"/>
      <use x="69.482422" xlink:href="#DejaVuSans-75"/>
      <use x="135.058594" xlink:href="#DejaVuSans-73"/>
      <use x="164.550781" xlink:href="#DejaVuSans-32"/>
      <use x="196.337891" xlink:href="#DejaVuSans-114"/>
      <use x="237.451172" xlink:href="#DejaVuSans-97"/>
      <use x="298.730469" xlink:href="#DejaVuSans-116"/>
      <use x="337.939453" xlink:href="#DejaVuSans-101"/>
     </g>
    </g>
    <g id="line2d_56">
     <path d="M 35.925 89.609375 
L 55.925 89.609375 
" style="fill:none;stroke:#000000;stroke-linecap:square;stroke-width:1.5;"/>
    </g>
    <g id="line2d_57"/>
    <g id="text_26">
     <!-- New Cases rolling week -->
     <g transform="translate(63.925 93.109375)scale(0.1 -0.1)">
      <defs>
       <path d="M 9.8125 72.90625 
L 23.09375 72.90625 
L 55.421875 11.921875 
L 55.421875 72.90625 
L 64.984375 72.90625 
L 64.984375 0 
L 51.703125 0 
L 19.390625 60.984375 
L 19.390625 0 
L 9.8125 0 
z
" id="DejaVuSans-78"/>
       <path d="M 64.40625 67.28125 
L 64.40625 56.890625 
Q 59.421875 61.53125 53.78125 63.8125 
Q 48.140625 66.109375 41.796875 66.109375 
Q 29.296875 66.109375 22.65625 58.46875 
Q 16.015625 50.828125 16.015625 36.375 
Q 16.015625 21.96875 22.65625 14.328125 
Q 29.296875 6.6875 41.796875 6.6875 
Q 48.140625 6.6875 53.78125 8.984375 
Q 59.421875 11.28125 64.40625 15.921875 
L 64.40625 5.609375 
Q 59.234375 2.09375 53.4375 0.328125 
Q 47.65625 -1.421875 41.21875 -1.421875 
Q 24.65625 -1.421875 15.125 8.703125 
Q 5.609375 18.84375 5.609375 36.375 
Q 5.609375 53.953125 15.125 64.078125 
Q 24.65625 74.21875 41.21875 74.21875 
Q 47.75 74.21875 53.53125 72.484375 
Q 59.328125 70.75 64.40625 67.28125 
z
" id="DejaVuSans-67"/>
      </defs>
      <use xlink:href="#DejaVuSans-78"/>
      <use x="74.804688" xlink:href="#DejaVuSans-101"/>
      <use x="136.328125" xlink:href="#DejaVuSans-119"/>
      <use x="218.115234" xlink:href="#DejaVuSans-32"/>
      <use x="249.902344" xlink:href="#DejaVuSans-67"/>
      <use x="319.726562" xlink:href="#DejaVuSans-97"/>
      <use x="381.005859" xlink:href="#DejaVuSans-115"/>
      <use x="433.105469" xlink:href="#DejaVuSans-101"/>
      <use x="494.628906" xlink:href="#DejaVuSans-115"/>
      <use x="546.728516" xlink:href="#DejaVuSans-32"/>
      <use x="578.515625" xlink:href="#DejaVuSans-114"/>
      <use x="617.378906" xlink:href="#DejaVuSans-111"/>
      <use x="678.560547" xlink:href="#DejaVuSans-108"/>
      <use x="706.34375" xlink:href="#DejaVuSans-108"/>
      <use x="734.126953" xlink:href="#DejaVuSans-105"/>
      <use x="761.910156" xlink:href="#DejaVuSans-110"/>
      <use x="825.289062" xlink:href="#DejaVuSans-103"/>
      <use x="888.765625" xlink:href="#DejaVuSans-32"/>
      <use x="920.552734" xlink:href="#DejaVuSans-119"/>
      <use x="1002.339844" xlink:href="#DejaVuSans-101"/>
      <use x="1063.863281" xlink:href="#DejaVuSans-101"/>
      <use x="1125.386719" xlink:href="#DejaVuSans-107"/>
     </g>
    </g>
    <g id="line2d_58">
     <path d="M 35.925 104.2875 
L 55.925 104.2875 
" style="fill:none;stroke:#000000;stroke-dasharray:1.5,2.475;stroke-dashoffset:0;stroke-width:1.5;"/>
    </g>
    <g id="line2d_59"/>
    <g id="text_27">
     <!-- New Cases -->
     <g transform="translate(63.925 107.7875)scale(0.1 -0.1)">
      <use xlink:href="#DejaVuSans-78"/>
      <use x="74.804688" xlink:href="#DejaVuSans-101"/>
      <use x="136.328125" xlink:href="#DejaVuSans-119"/>
      <use x="218.115234" xlink:href="#DejaVuSans-32"/>
      <use x="249.902344" xlink:href="#DejaVuSans-67"/>
      <use x="319.726562" xlink:href="#DejaVuSans-97"/>
      <use x="381.005859" xlink:href="#DejaVuSans-115"/>
      <use x="433.105469" xlink:href="#DejaVuSans-101"/>
      <use x="494.628906" xlink:href="#DejaVuSans-115"/>
     </g>
    </g>
   </g>
  </g>
 </g>
 <defs>
  <clipPath id="p0bd8d8673a">
   <rect height="598.4" width="1087.87" x="26.925" y="17.798437"/>
  </clipPath>
 </defs>
</svg>
