<?xml version="1.0" encoding="utf-8" standalone="no"?>
<!DOCTYPE svg PUBLIC "-//W3C//DTD SVG 1.1//EN"
  "http://www.w3.org/Graphics/SVG/1.1/DTD/svg11.dtd">
<!-- Created with matplotlib (https://matplotlib.org/) -->
<svg height="530.038125pt" version="1.1" viewBox="0 0 968.915625 530.038125" width="968.915625pt" xmlns="http://www.w3.org/2000/svg" xmlns:xlink="http://www.w3.org/1999/xlink">
 <metadata>
  <rdf:RDF xmlns:cc="http://creativecommons.org/ns#" xmlns:dc="http://purl.org/dc/elements/1.1/" xmlns:rdf="http://www.w3.org/1999/02/22-rdf-syntax-ns#">
   <cc:Work>
    <dc:type rdf:resource="http://purl.org/dc/dcmitype/StillImage"/>
    <dc:date>2020-11-05T09:00:15.175196</dc:date>
    <dc:format>image/svg+xml</dc:format>
    <dc:creator>
     <cc:Agent>
      <dc:title>Matplotlib v3.3.2, https://matplotlib.org/</dc:title>
     </cc:Agent>
    </dc:creator>
   </cc:Work>
  </rdf:RDF>
 </metadata>
 <defs>
  <style type="text/css">*{stroke-linecap:butt;stroke-linejoin:round;}</style>
 </defs>
 <g id="figure_1">
  <g id="patch_1">
   <path d="M 0 530.038125 
L 968.915625 530.038125 
L 968.915625 0 
L 0 0 
z
" style="fill:#ffffff;"/>
  </g>
  <g id="axes_1">
   <g id="patch_2">
    <path d="M 30.103125 506.16 
L 922.903125 506.16 
L 922.903125 7.2 
L 30.103125 7.2 
z
" style="fill:#e5e5e5;"/>
   </g>
   <g id="matplotlib.axis_1">
    <g id="xtick_1">
     <g id="line2d_1">
      <path clip-path="url(#ped12f662c1)" d="M 77.152165 506.16 
L 77.152165 7.2 
" style="fill:none;stroke:#ffffff;stroke-linecap:square;stroke-width:0.8;"/>
     </g>
     <g id="line2d_2">
      <defs>
       <path d="M 0 0 
L 0 3.5 
" id="m585089419c" style="stroke:#555555;stroke-width:0.8;"/>
      </defs>
      <g>
       <use style="fill:#555555;stroke:#555555;stroke-width:0.8;" x="77.152165" xlink:href="#m585089419c" y="506.16"/>
      </g>
     </g>
     <g id="text_1">
      <!-- 2020-03 -->
      <g style="fill:#555555;" transform="translate(56.260759 520.758438)scale(0.1 -0.1)">
       <defs>
        <path d="M 19.1875 8.296875 
L 53.609375 8.296875 
L 53.609375 0 
L 7.328125 0 
L 7.328125 8.296875 
Q 12.9375 14.109375 22.625 23.890625 
Q 32.328125 33.6875 34.8125 36.53125 
Q 39.546875 41.84375 41.421875 45.53125 
Q 43.3125 49.21875 43.3125 52.78125 
Q 43.3125 58.59375 39.234375 62.25 
Q 35.15625 65.921875 28.609375 65.921875 
Q 23.96875 65.921875 18.8125 64.3125 
Q 13.671875 62.703125 7.8125 59.421875 
L 7.8125 69.390625 
Q 13.765625 71.78125 18.9375 73 
Q 24.125 74.21875 28.421875 74.21875 
Q 39.75 74.21875 46.484375 68.546875 
Q 53.21875 62.890625 53.21875 53.421875 
Q 53.21875 48.921875 51.53125 44.890625 
Q 49.859375 40.875 45.40625 35.40625 
Q 44.1875 33.984375 37.640625 27.21875 
Q 31.109375 20.453125 19.1875 8.296875 
z
" id="DejaVuSans-50"/>
        <path d="M 31.78125 66.40625 
Q 24.171875 66.40625 20.328125 58.90625 
Q 16.5 51.421875 16.5 36.375 
Q 16.5 21.390625 20.328125 13.890625 
Q 24.171875 6.390625 31.78125 6.390625 
Q 39.453125 6.390625 43.28125 13.890625 
Q 47.125 21.390625 47.125 36.375 
Q 47.125 51.421875 43.28125 58.90625 
Q 39.453125 66.40625 31.78125 66.40625 
z
M 31.78125 74.21875 
Q 44.046875 74.21875 50.515625 64.515625 
Q 56.984375 54.828125 56.984375 36.375 
Q 56.984375 17.96875 50.515625 8.265625 
Q 44.046875 -1.421875 31.78125 -1.421875 
Q 19.53125 -1.421875 13.0625 8.265625 
Q 6.59375 17.96875 6.59375 36.375 
Q 6.59375 54.828125 13.0625 64.515625 
Q 19.53125 74.21875 31.78125 74.21875 
z
" id="DejaVuSans-48"/>
        <path d="M 4.890625 31.390625 
L 31.203125 31.390625 
L 31.203125 23.390625 
L 4.890625 23.390625 
z
" id="DejaVuSans-45"/>
        <path d="M 40.578125 39.3125 
Q 47.65625 37.796875 51.625 33 
Q 55.609375 28.21875 55.609375 21.1875 
Q 55.609375 10.40625 48.1875 4.484375 
Q 40.765625 -1.421875 27.09375 -1.421875 
Q 22.515625 -1.421875 17.65625 -0.515625 
Q 12.796875 0.390625 7.625 2.203125 
L 7.625 11.71875 
Q 11.71875 9.328125 16.59375 8.109375 
Q 21.484375 6.890625 26.8125 6.890625 
Q 36.078125 6.890625 40.9375 10.546875 
Q 45.796875 14.203125 45.796875 21.1875 
Q 45.796875 27.640625 41.28125 31.265625 
Q 36.765625 34.90625 28.71875 34.90625 
L 20.21875 34.90625 
L 20.21875 43.015625 
L 29.109375 43.015625 
Q 36.375 43.015625 40.234375 45.921875 
Q 44.09375 48.828125 44.09375 54.296875 
Q 44.09375 59.90625 40.109375 62.90625 
Q 36.140625 65.921875 28.71875 65.921875 
Q 24.65625 65.921875 20.015625 65.03125 
Q 15.375 64.15625 9.8125 62.3125 
L 9.8125 71.09375 
Q 15.4375 72.65625 20.34375 73.4375 
Q 25.25 74.21875 29.59375 74.21875 
Q 40.828125 74.21875 47.359375 69.109375 
Q 53.90625 64.015625 53.90625 55.328125 
Q 53.90625 49.265625 50.4375 45.09375 
Q 46.96875 40.921875 40.578125 39.3125 
z
" id="DejaVuSans-51"/>
       </defs>
       <use xlink:href="#DejaVuSans-50"/>
       <use x="63.623047" xlink:href="#DejaVuSans-48"/>
       <use x="127.246094" xlink:href="#DejaVuSans-50"/>
       <use x="190.869141" xlink:href="#DejaVuSans-48"/>
       <use x="254.492188" xlink:href="#DejaVuSans-45"/>
       <use x="290.576172" xlink:href="#DejaVuSans-48"/>
       <use x="354.199219" xlink:href="#DejaVuSans-51"/>
      </g>
     </g>
    </g>
    <g id="xtick_2">
     <g id="line2d_3">
      <path clip-path="url(#ped12f662c1)" d="M 177.394107 506.16 
L 177.394107 7.2 
" style="fill:none;stroke:#ffffff;stroke-linecap:square;stroke-width:0.8;"/>
     </g>
     <g id="line2d_4">
      <g>
       <use style="fill:#555555;stroke:#555555;stroke-width:0.8;" x="177.394107" xlink:href="#m585089419c" y="506.16"/>
      </g>
     </g>
     <g id="text_2">
      <!-- 2020-04 -->
      <g style="fill:#555555;" transform="translate(156.5027 520.758438)scale(0.1 -0.1)">
       <defs>
        <path d="M 37.796875 64.3125 
L 12.890625 25.390625 
L 37.796875 25.390625 
z
M 35.203125 72.90625 
L 47.609375 72.90625 
L 47.609375 25.390625 
L 58.015625 25.390625 
L 58.015625 17.1875 
L 47.609375 17.1875 
L 47.609375 0 
L 37.796875 0 
L 37.796875 17.1875 
L 4.890625 17.1875 
L 4.890625 26.703125 
z
" id="DejaVuSans-52"/>
       </defs>
       <use xlink:href="#DejaVuSans-50"/>
       <use x="63.623047" xlink:href="#DejaVuSans-48"/>
       <use x="127.246094" xlink:href="#DejaVuSans-50"/>
       <use x="190.869141" xlink:href="#DejaVuSans-48"/>
       <use x="254.492188" xlink:href="#DejaVuSans-45"/>
       <use x="290.576172" xlink:href="#DejaVuSans-48"/>
       <use x="354.199219" xlink:href="#DejaVuSans-52"/>
      </g>
     </g>
    </g>
    <g id="xtick_3">
     <g id="line2d_5">
      <path clip-path="url(#ped12f662c1)" d="M 274.402437 506.16 
L 274.402437 7.2 
" style="fill:none;stroke:#ffffff;stroke-linecap:square;stroke-width:0.8;"/>
     </g>
     <g id="line2d_6">
      <g>
       <use style="fill:#555555;stroke:#555555;stroke-width:0.8;" x="274.402437" xlink:href="#m585089419c" y="506.16"/>
      </g>
     </g>
     <g id="text_3">
      <!-- 2020-05 -->
      <g style="fill:#555555;" transform="translate(253.511031 520.758438)scale(0.1 -0.1)">
       <defs>
        <path d="M 10.796875 72.90625 
L 49.515625 72.90625 
L 49.515625 64.59375 
L 19.828125 64.59375 
L 19.828125 46.734375 
Q 21.96875 47.46875 24.109375 47.828125 
Q 26.265625 48.1875 28.421875 48.1875 
Q 40.625 48.1875 47.75 41.5 
Q 54.890625 34.8125 54.890625 23.390625 
Q 54.890625 11.625 47.5625 5.09375 
Q 40.234375 -1.421875 26.90625 -1.421875 
Q 22.3125 -1.421875 17.546875 -0.640625 
Q 12.796875 0.140625 7.71875 1.703125 
L 7.71875 11.625 
Q 12.109375 9.234375 16.796875 8.0625 
Q 21.484375 6.890625 26.703125 6.890625 
Q 35.15625 6.890625 40.078125 11.328125 
Q 45.015625 15.765625 45.015625 23.390625 
Q 45.015625 31 40.078125 35.4375 
Q 35.15625 39.890625 26.703125 39.890625 
Q 22.75 39.890625 18.8125 39.015625 
Q 14.890625 38.140625 10.796875 36.28125 
z
" id="DejaVuSans-53"/>
       </defs>
       <use xlink:href="#DejaVuSans-50"/>
       <use x="63.623047" xlink:href="#DejaVuSans-48"/>
       <use x="127.246094" xlink:href="#DejaVuSans-50"/>
       <use x="190.869141" xlink:href="#DejaVuSans-48"/>
       <use x="254.492188" xlink:href="#DejaVuSans-45"/>
       <use x="290.576172" xlink:href="#DejaVuSans-48"/>
       <use x="354.199219" xlink:href="#DejaVuSans-53"/>
      </g>
     </g>
    </g>
    <g id="xtick_4">
     <g id="line2d_7">
      <path clip-path="url(#ped12f662c1)" d="M 374.644378 506.16 
L 374.644378 7.2 
" style="fill:none;stroke:#ffffff;stroke-linecap:square;stroke-width:0.8;"/>
     </g>
     <g id="line2d_8">
      <g>
       <use style="fill:#555555;stroke:#555555;stroke-width:0.8;" x="374.644378" xlink:href="#m585089419c" y="506.16"/>
      </g>
     </g>
     <g id="text_4">
      <!-- 2020-06 -->
      <g style="fill:#555555;" transform="translate(353.752972 520.758438)scale(0.1 -0.1)">
       <defs>
        <path d="M 33.015625 40.375 
Q 26.375 40.375 22.484375 35.828125 
Q 18.609375 31.296875 18.609375 23.390625 
Q 18.609375 15.53125 22.484375 10.953125 
Q 26.375 6.390625 33.015625 6.390625 
Q 39.65625 6.390625 43.53125 10.953125 
Q 47.40625 15.53125 47.40625 23.390625 
Q 47.40625 31.296875 43.53125 35.828125 
Q 39.65625 40.375 33.015625 40.375 
z
M 52.59375 71.296875 
L 52.59375 62.3125 
Q 48.875 64.0625 45.09375 64.984375 
Q 41.3125 65.921875 37.59375 65.921875 
Q 27.828125 65.921875 22.671875 59.328125 
Q 17.53125 52.734375 16.796875 39.40625 
Q 19.671875 43.65625 24.015625 45.921875 
Q 28.375 48.1875 33.59375 48.1875 
Q 44.578125 48.1875 50.953125 41.515625 
Q 57.328125 34.859375 57.328125 23.390625 
Q 57.328125 12.15625 50.6875 5.359375 
Q 44.046875 -1.421875 33.015625 -1.421875 
Q 20.359375 -1.421875 13.671875 8.265625 
Q 6.984375 17.96875 6.984375 36.375 
Q 6.984375 53.65625 15.1875 63.9375 
Q 23.390625 74.21875 37.203125 74.21875 
Q 40.921875 74.21875 44.703125 73.484375 
Q 48.484375 72.75 52.59375 71.296875 
z
" id="DejaVuSans-54"/>
       </defs>
       <use xlink:href="#DejaVuSans-50"/>
       <use x="63.623047" xlink:href="#DejaVuSans-48"/>
       <use x="127.246094" xlink:href="#DejaVuSans-50"/>
       <use x="190.869141" xlink:href="#DejaVuSans-48"/>
       <use x="254.492188" xlink:href="#DejaVuSans-45"/>
       <use x="290.576172" xlink:href="#DejaVuSans-48"/>
       <use x="354.199219" xlink:href="#DejaVuSans-54"/>
      </g>
     </g>
    </g>
    <g id="xtick_5">
     <g id="line2d_9">
      <path clip-path="url(#ped12f662c1)" d="M 471.652708 506.16 
L 471.652708 7.2 
" style="fill:none;stroke:#ffffff;stroke-linecap:square;stroke-width:0.8;"/>
     </g>
     <g id="line2d_10">
      <g>
       <use style="fill:#555555;stroke:#555555;stroke-width:0.8;" x="471.652708" xlink:href="#m585089419c" y="506.16"/>
      </g>
     </g>
     <g id="text_5">
      <!-- 2020-07 -->
      <g style="fill:#555555;" transform="translate(450.761302 520.758438)scale(0.1 -0.1)">
       <defs>
        <path d="M 8.203125 72.90625 
L 55.078125 72.90625 
L 55.078125 68.703125 
L 28.609375 0 
L 18.3125 0 
L 43.21875 64.59375 
L 8.203125 64.59375 
z
" id="DejaVuSans-55"/>
       </defs>
       <use xlink:href="#DejaVuSans-50"/>
       <use x="63.623047" xlink:href="#DejaVuSans-48"/>
       <use x="127.246094" xlink:href="#DejaVuSans-50"/>
       <use x="190.869141" xlink:href="#DejaVuSans-48"/>
       <use x="254.492188" xlink:href="#DejaVuSans-45"/>
       <use x="290.576172" xlink:href="#DejaVuSans-48"/>
       <use x="354.199219" xlink:href="#DejaVuSans-55"/>
      </g>
     </g>
    </g>
    <g id="xtick_6">
     <g id="line2d_11">
      <path clip-path="url(#ped12f662c1)" d="M 571.89465 506.16 
L 571.89465 7.2 
" style="fill:none;stroke:#ffffff;stroke-linecap:square;stroke-width:0.8;"/>
     </g>
     <g id="line2d_12">
      <g>
       <use style="fill:#555555;stroke:#555555;stroke-width:0.8;" x="571.89465" xlink:href="#m585089419c" y="506.16"/>
      </g>
     </g>
     <g id="text_6">
      <!-- 2020-08 -->
      <g style="fill:#555555;" transform="translate(551.003244 520.758438)scale(0.1 -0.1)">
       <defs>
        <path d="M 31.78125 34.625 
Q 24.75 34.625 20.71875 30.859375 
Q 16.703125 27.09375 16.703125 20.515625 
Q 16.703125 13.921875 20.71875 10.15625 
Q 24.75 6.390625 31.78125 6.390625 
Q 38.8125 6.390625 42.859375 10.171875 
Q 46.921875 13.96875 46.921875 20.515625 
Q 46.921875 27.09375 42.890625 30.859375 
Q 38.875 34.625 31.78125 34.625 
z
M 21.921875 38.8125 
Q 15.578125 40.375 12.03125 44.71875 
Q 8.5 49.078125 8.5 55.328125 
Q 8.5 64.0625 14.71875 69.140625 
Q 20.953125 74.21875 31.78125 74.21875 
Q 42.671875 74.21875 48.875 69.140625 
Q 55.078125 64.0625 55.078125 55.328125 
Q 55.078125 49.078125 51.53125 44.71875 
Q 48 40.375 41.703125 38.8125 
Q 48.828125 37.15625 52.796875 32.3125 
Q 56.78125 27.484375 56.78125 20.515625 
Q 56.78125 9.90625 50.3125 4.234375 
Q 43.84375 -1.421875 31.78125 -1.421875 
Q 19.734375 -1.421875 13.25 4.234375 
Q 6.78125 9.90625 6.78125 20.515625 
Q 6.78125 27.484375 10.78125 32.3125 
Q 14.796875 37.15625 21.921875 38.8125 
z
M 18.3125 54.390625 
Q 18.3125 48.734375 21.84375 45.5625 
Q 25.390625 42.390625 31.78125 42.390625 
Q 38.140625 42.390625 41.71875 45.5625 
Q 45.3125 48.734375 45.3125 54.390625 
Q 45.3125 60.0625 41.71875 63.234375 
Q 38.140625 66.40625 31.78125 66.40625 
Q 25.390625 66.40625 21.84375 63.234375 
Q 18.3125 60.0625 18.3125 54.390625 
z
" id="DejaVuSans-56"/>
       </defs>
       <use xlink:href="#DejaVuSans-50"/>
       <use x="63.623047" xlink:href="#DejaVuSans-48"/>
       <use x="127.246094" xlink:href="#DejaVuSans-50"/>
       <use x="190.869141" xlink:href="#DejaVuSans-48"/>
       <use x="254.492188" xlink:href="#DejaVuSans-45"/>
       <use x="290.576172" xlink:href="#DejaVuSans-48"/>
       <use x="354.199219" xlink:href="#DejaVuSans-56"/>
      </g>
     </g>
    </g>
    <g id="xtick_7">
     <g id="line2d_13">
      <path clip-path="url(#ped12f662c1)" d="M 672.136591 506.16 
L 672.136591 7.2 
" style="fill:none;stroke:#ffffff;stroke-linecap:square;stroke-width:0.8;"/>
     </g>
     <g id="line2d_14">
      <g>
       <use style="fill:#555555;stroke:#555555;stroke-width:0.8;" x="672.136591" xlink:href="#m585089419c" y="506.16"/>
      </g>
     </g>
     <g id="text_7">
      <!-- 2020-09 -->
      <g style="fill:#555555;" transform="translate(651.245185 520.758438)scale(0.1 -0.1)">
       <defs>
        <path d="M 10.984375 1.515625 
L 10.984375 10.5 
Q 14.703125 8.734375 18.5 7.8125 
Q 22.3125 6.890625 25.984375 6.890625 
Q 35.75 6.890625 40.890625 13.453125 
Q 46.046875 20.015625 46.78125 33.40625 
Q 43.953125 29.203125 39.59375 26.953125 
Q 35.25 24.703125 29.984375 24.703125 
Q 19.046875 24.703125 12.671875 31.3125 
Q 6.296875 37.9375 6.296875 49.421875 
Q 6.296875 60.640625 12.9375 67.421875 
Q 19.578125 74.21875 30.609375 74.21875 
Q 43.265625 74.21875 49.921875 64.515625 
Q 56.59375 54.828125 56.59375 36.375 
Q 56.59375 19.140625 48.40625 8.859375 
Q 40.234375 -1.421875 26.421875 -1.421875 
Q 22.703125 -1.421875 18.890625 -0.6875 
Q 15.09375 0.046875 10.984375 1.515625 
z
M 30.609375 32.421875 
Q 37.25 32.421875 41.125 36.953125 
Q 45.015625 41.5 45.015625 49.421875 
Q 45.015625 57.28125 41.125 61.84375 
Q 37.25 66.40625 30.609375 66.40625 
Q 23.96875 66.40625 20.09375 61.84375 
Q 16.21875 57.28125 16.21875 49.421875 
Q 16.21875 41.5 20.09375 36.953125 
Q 23.96875 32.421875 30.609375 32.421875 
z
" id="DejaVuSans-57"/>
       </defs>
       <use xlink:href="#DejaVuSans-50"/>
       <use x="63.623047" xlink:href="#DejaVuSans-48"/>
       <use x="127.246094" xlink:href="#DejaVuSans-50"/>
       <use x="190.869141" xlink:href="#DejaVuSans-48"/>
       <use x="254.492188" xlink:href="#DejaVuSans-45"/>
       <use x="290.576172" xlink:href="#DejaVuSans-48"/>
       <use x="354.199219" xlink:href="#DejaVuSans-57"/>
      </g>
     </g>
    </g>
    <g id="xtick_8">
     <g id="line2d_15">
      <path clip-path="url(#ped12f662c1)" d="M 769.144921 506.16 
L 769.144921 7.2 
" style="fill:none;stroke:#ffffff;stroke-linecap:square;stroke-width:0.8;"/>
     </g>
     <g id="line2d_16">
      <g>
       <use style="fill:#555555;stroke:#555555;stroke-width:0.8;" x="769.144921" xlink:href="#m585089419c" y="506.16"/>
      </g>
     </g>
     <g id="text_8">
      <!-- 2020-10 -->
      <g style="fill:#555555;" transform="translate(748.253515 520.758438)scale(0.1 -0.1)">
       <defs>
        <path d="M 12.40625 8.296875 
L 28.515625 8.296875 
L 28.515625 63.921875 
L 10.984375 60.40625 
L 10.984375 69.390625 
L 28.421875 72.90625 
L 38.28125 72.90625 
L 38.28125 8.296875 
L 54.390625 8.296875 
L 54.390625 0 
L 12.40625 0 
z
" id="DejaVuSans-49"/>
       </defs>
       <use xlink:href="#DejaVuSans-50"/>
       <use x="63.623047" xlink:href="#DejaVuSans-48"/>
       <use x="127.246094" xlink:href="#DejaVuSans-50"/>
       <use x="190.869141" xlink:href="#DejaVuSans-48"/>
       <use x="254.492188" xlink:href="#DejaVuSans-45"/>
       <use x="290.576172" xlink:href="#DejaVuSans-49"/>
       <use x="354.199219" xlink:href="#DejaVuSans-48"/>
      </g>
     </g>
    </g>
    <g id="xtick_9">
     <g id="line2d_17">
      <path clip-path="url(#ped12f662c1)" d="M 869.386863 506.16 
L 869.386863 7.2 
" style="fill:none;stroke:#ffffff;stroke-linecap:square;stroke-width:0.8;"/>
     </g>
     <g id="line2d_18">
      <g>
       <use style="fill:#555555;stroke:#555555;stroke-width:0.8;" x="869.386863" xlink:href="#m585089419c" y="506.16"/>
      </g>
     </g>
     <g id="text_9">
      <!-- 2020-11 -->
      <g style="fill:#555555;" transform="translate(848.495457 520.758438)scale(0.1 -0.1)">
       <use xlink:href="#DejaVuSans-50"/>
       <use x="63.623047" xlink:href="#DejaVuSans-48"/>
       <use x="127.246094" xlink:href="#DejaVuSans-50"/>
       <use x="190.869141" xlink:href="#DejaVuSans-48"/>
       <use x="254.492188" xlink:href="#DejaVuSans-45"/>
       <use x="290.576172" xlink:href="#DejaVuSans-49"/>
       <use x="354.199219" xlink:href="#DejaVuSans-49"/>
      </g>
     </g>
    </g>
   </g>
   <g id="matplotlib.axis_2">
    <g id="ytick_1">
     <g id="line2d_19">
      <path clip-path="url(#ped12f662c1)" d="M 30.103125 487.780278 
L 922.903125 487.780278 
" style="fill:none;stroke:#ffffff;stroke-linecap:square;stroke-width:0.8;"/>
     </g>
     <g id="line2d_20">
      <defs>
       <path d="M 0 0 
L -3.5 0 
" id="md290e86440" style="stroke:#555555;stroke-width:0.8;"/>
      </defs>
      <g>
       <use style="fill:#555555;stroke:#555555;stroke-width:0.8;" x="30.103125" xlink:href="#md290e86440" y="487.780278"/>
      </g>
     </g>
     <g id="text_10">
      <!-- 0.5 -->
      <g style="fill:#555555;" transform="translate(7.2 491.579496)scale(0.1 -0.1)">
       <defs>
        <path d="M 10.6875 12.40625 
L 21 12.40625 
L 21 0 
L 10.6875 0 
z
" id="DejaVuSans-46"/>
       </defs>
       <use xlink:href="#DejaVuSans-48"/>
       <use x="63.623047" xlink:href="#DejaVuSans-46"/>
       <use x="95.410156" xlink:href="#DejaVuSans-53"/>
      </g>
     </g>
    </g>
    <g id="ytick_2">
     <g id="line2d_21">
      <path clip-path="url(#ped12f662c1)" d="M 30.103125 426.515284 
L 922.903125 426.515284 
" style="fill:none;stroke:#ffffff;stroke-linecap:square;stroke-width:0.8;"/>
     </g>
     <g id="line2d_22">
      <g>
       <use style="fill:#555555;stroke:#555555;stroke-width:0.8;" x="30.103125" xlink:href="#md290e86440" y="426.515284"/>
      </g>
     </g>
     <g id="text_11">
      <!-- 1.0 -->
      <g style="fill:#555555;" transform="translate(7.2 430.314503)scale(0.1 -0.1)">
       <use xlink:href="#DejaVuSans-49"/>
       <use x="63.623047" xlink:href="#DejaVuSans-46"/>
       <use x="95.410156" xlink:href="#DejaVuSans-48"/>
      </g>
     </g>
    </g>
    <g id="ytick_3">
     <g id="line2d_23">
      <path clip-path="url(#ped12f662c1)" d="M 30.103125 365.25029 
L 922.903125 365.25029 
" style="fill:none;stroke:#ffffff;stroke-linecap:square;stroke-width:0.8;"/>
     </g>
     <g id="line2d_24">
      <g>
       <use style="fill:#555555;stroke:#555555;stroke-width:0.8;" x="30.103125" xlink:href="#md290e86440" y="365.25029"/>
      </g>
     </g>
     <g id="text_12">
      <!-- 1.5 -->
      <g style="fill:#555555;" transform="translate(7.2 369.049509)scale(0.1 -0.1)">
       <use xlink:href="#DejaVuSans-49"/>
       <use x="63.623047" xlink:href="#DejaVuSans-46"/>
       <use x="95.410156" xlink:href="#DejaVuSans-53"/>
      </g>
     </g>
    </g>
    <g id="ytick_4">
     <g id="line2d_25">
      <path clip-path="url(#ped12f662c1)" d="M 30.103125 303.985296 
L 922.903125 303.985296 
" style="fill:none;stroke:#ffffff;stroke-linecap:square;stroke-width:0.8;"/>
     </g>
     <g id="line2d_26">
      <g>
       <use style="fill:#555555;stroke:#555555;stroke-width:0.8;" x="30.103125" xlink:href="#md290e86440" y="303.985296"/>
      </g>
     </g>
     <g id="text_13">
      <!-- 2.0 -->
      <g style="fill:#555555;" transform="translate(7.2 307.784515)scale(0.1 -0.1)">
       <use xlink:href="#DejaVuSans-50"/>
       <use x="63.623047" xlink:href="#DejaVuSans-46"/>
       <use x="95.410156" xlink:href="#DejaVuSans-48"/>
      </g>
     </g>
    </g>
    <g id="ytick_5">
     <g id="line2d_27">
      <path clip-path="url(#ped12f662c1)" d="M 30.103125 242.720302 
L 922.903125 242.720302 
" style="fill:none;stroke:#ffffff;stroke-linecap:square;stroke-width:0.8;"/>
     </g>
     <g id="line2d_28">
      <g>
       <use style="fill:#555555;stroke:#555555;stroke-width:0.8;" x="30.103125" xlink:href="#md290e86440" y="242.720302"/>
      </g>
     </g>
     <g id="text_14">
      <!-- 2.5 -->
      <g style="fill:#555555;" transform="translate(7.2 246.519521)scale(0.1 -0.1)">
       <use xlink:href="#DejaVuSans-50"/>
       <use x="63.623047" xlink:href="#DejaVuSans-46"/>
       <use x="95.410156" xlink:href="#DejaVuSans-53"/>
      </g>
     </g>
    </g>
    <g id="ytick_6">
     <g id="line2d_29">
      <path clip-path="url(#ped12f662c1)" d="M 30.103125 181.455309 
L 922.903125 181.455309 
" style="fill:none;stroke:#ffffff;stroke-linecap:square;stroke-width:0.8;"/>
     </g>
     <g id="line2d_30">
      <g>
       <use style="fill:#555555;stroke:#555555;stroke-width:0.8;" x="30.103125" xlink:href="#md290e86440" y="181.455309"/>
      </g>
     </g>
     <g id="text_15">
      <!-- 3.0 -->
      <g style="fill:#555555;" transform="translate(7.2 185.254527)scale(0.1 -0.1)">
       <use xlink:href="#DejaVuSans-51"/>
       <use x="63.623047" xlink:href="#DejaVuSans-46"/>
       <use x="95.410156" xlink:href="#DejaVuSans-48"/>
      </g>
     </g>
    </g>
    <g id="ytick_7">
     <g id="line2d_31">
      <path clip-path="url(#ped12f662c1)" d="M 30.103125 120.190315 
L 922.903125 120.190315 
" style="fill:none;stroke:#ffffff;stroke-linecap:square;stroke-width:0.8;"/>
     </g>
     <g id="line2d_32">
      <g>
       <use style="fill:#555555;stroke:#555555;stroke-width:0.8;" x="30.103125" xlink:href="#md290e86440" y="120.190315"/>
      </g>
     </g>
     <g id="text_16">
      <!-- 3.5 -->
      <g style="fill:#555555;" transform="translate(7.2 123.989533)scale(0.1 -0.1)">
       <use xlink:href="#DejaVuSans-51"/>
       <use x="63.623047" xlink:href="#DejaVuSans-46"/>
       <use x="95.410156" xlink:href="#DejaVuSans-53"/>
      </g>
     </g>
    </g>
    <g id="ytick_8">
     <g id="line2d_33">
      <path clip-path="url(#ped12f662c1)" d="M 30.103125 58.925321 
L 922.903125 58.925321 
" style="fill:none;stroke:#ffffff;stroke-linecap:square;stroke-width:0.8;"/>
     </g>
     <g id="line2d_34">
      <g>
       <use style="fill:#555555;stroke:#555555;stroke-width:0.8;" x="30.103125" xlink:href="#md290e86440" y="58.925321"/>
      </g>
     </g>
     <g id="text_17">
      <!-- 4.0 -->
      <g style="fill:#555555;" transform="translate(7.2 62.72454)scale(0.1 -0.1)">
       <use xlink:href="#DejaVuSans-52"/>
       <use x="63.623047" xlink:href="#DejaVuSans-46"/>
       <use x="95.410156" xlink:href="#DejaVuSans-48"/>
      </g>
     </g>
    </g>
   </g>
   <g id="line2d_35">
    <path clip-path="url(#ped12f662c1)" d="M 73.918554 95.915216 
L 77.152165 71.676482 
L 80.385776 102.158808 
L 83.619387 87.595249 
L 86.852998 80.485692 
L 90.086609 88.272087 
L 93.32022 104.253139 
L 96.553831 133.484084 
L 99.787442 170.639816 
L 103.021053 179.798001 
L 106.254664 204.903142 
L 109.488275 224.645271 
L 112.721886 230.864061 
L 115.955497 236.284466 
L 119.189108 230.876759 
L 122.422719 227.564572 
L 125.65633 233.740463 
L 128.889941 240.158727 
L 132.123552 250.65587 
L 135.357163 264.960308 
L 138.590774 273.297609 
L 141.824385 279.792368 
L 145.057996 284.451292 
L 148.291607 289.902331 
L 151.525218 297.883829 
L 154.758829 307.638473 
L 157.99244 318.217237 
L 164.459662 335.592921 
L 167.693273 344.462221 
L 170.926885 354.301871 
L 174.160496 362.596333 
L 177.394107 369.332511 
L 180.627718 374.643359 
L 183.861329 379.396755 
L 187.09494 383.222941 
L 190.328551 386.422378 
L 193.562162 390.255318 
L 203.262995 400.64699 
L 206.496606 403.451247 
L 209.730217 405.950662 
L 212.963828 408.029726 
L 222.664661 413.028513 
L 225.898272 414.260321 
L 229.131883 415.147084 
L 235.599105 416.089989 
L 242.066327 416.974281 
L 255.000771 419.49075 
L 277.636048 422.566482 
L 284.10327 422.998995 
L 290.570492 423.281026 
L 316.43938 423.943356 
L 332.607435 424.433504 
L 361.709934 424.995861 
L 371.410767 425.029711 
L 384.345211 425.19779 
L 394.046044 425.29518 
L 406.980488 425.318988 
L 419.914932 425.366528 
L 429.615765 425.122463 
L 439.316598 424.765489 
L 445.78382 424.688669 
L 452.251042 424.743014 
L 465.185486 425.021814 
L 513.689652 425.340116 
L 555.726595 424.811013 
L 578.361872 424.504034 
L 607.464371 423.906073 
L 636.56687 423.305218 
L 643.034092 423.244217 
L 659.202147 423.462376 
L 678.603813 423.792529 
L 688.304646 423.719237 
L 704.472701 423.508668 
L 714.173534 423.40502 
L 740.042422 422.878662 
L 752.976866 422.806866 
L 765.91131 422.652465 
L 778.845754 422.2634 
L 785.312977 421.82267 
L 798.247421 420.479863 
L 804.714643 419.814657 
L 827.34992 416.681664 
L 830.583531 416.151965 
L 833.817142 415.466679 
L 843.517975 413.108736 
L 853.218808 410.94911 
L 856.452419 410.323954 
L 862.919641 409.631063 
L 869.386863 409.403924 
L 872.620474 409.369486 
L 872.620474 409.369486 
" style="fill:none;stroke:#e24a33;stroke-linecap:square;stroke-width:1.5;"/>
   </g>
   <g id="line2d_36">
    <path clip-path="url(#ped12f662c1)" d="M 83.619387 95.915216 
L 86.852998 47.437748 
L 90.086609 163.12346 
L 93.32022 43.904573 
L 96.553831 52.047464 
L 103.021053 200.13945 
L 106.254664 300.531834 
L 109.488275 307.527876 
L 112.721886 227.230753 
L 115.955497 219.640556 
L 119.189108 190.242367 
L 122.422719 170.735589 
L 125.65633 238.082286 
L 128.889941 262.677884 
L 132.123552 284.342565 
L 135.357163 270.461994 
L 138.590774 264.568405 
L 141.824385 263.722369 
L 145.057996 270.866652 
L 148.291607 296.443393 
L 151.525218 308.141199 
L 154.758829 316.955034 
L 157.99244 308.619263 
L 164.459662 332.004879 
L 167.693273 344.917999 
L 170.926885 356.654215 
L 174.160496 369.560164 
L 177.394107 379.040137 
L 180.627718 377.496816 
L 183.861329 378.500125 
L 187.09494 379.158119 
L 190.328551 382.093936 
L 193.562162 389.92799 
L 196.795773 396.343463 
L 200.029384 401.4362 
L 203.262995 404.327389 
L 206.496606 403.054328 
L 209.730217 403.579021 
L 212.963828 405.860542 
L 216.197439 409.557789 
L 219.43105 413.839364 
L 222.664661 415.989652 
L 225.898272 416.181683 
L 229.131883 415.546146 
L 232.365494 414.224417 
L 235.599105 414.483198 
L 238.832716 415.765131 
L 242.066327 417.489022 
L 245.299938 418.940324 
L 248.533549 419.158988 
L 251.76716 418.758886 
L 255.000771 418.618973 
L 258.234382 419.154682 
L 261.467993 420.370568 
L 264.701604 421.432833 
L 267.935215 422.099953 
L 271.168826 422.35072 
L 274.402437 421.883767 
L 277.636048 422.070485 
L 280.869659 422.501283 
L 287.336881 423.908565 
L 290.570492 423.919463 
L 300.271325 422.758165 
L 303.504936 422.985505 
L 306.738547 423.6942 
L 309.972158 423.913531 
L 313.205769 424.259099 
L 316.43938 424.073002 
L 319.672991 423.674506 
L 326.140213 424.0765 
L 329.373824 424.508239 
L 332.607435 424.799755 
L 345.541879 424.405938 
L 352.009101 424.99081 
L 355.242712 425.012801 
L 358.476323 425.206854 
L 361.709934 425.26246 
L 368.177156 424.745381 
L 374.644378 424.81589 
L 381.1116 425.451575 
L 394.046044 425.162036 
L 403.746877 425.452606 
L 406.980488 425.283911 
L 416.681321 425.306434 
L 419.914932 425.548826 
L 429.615765 425.254042 
L 432.849376 424.874091 
L 442.550209 424.540196 
L 445.78382 424.719891 
L 458.718264 424.700789 
L 465.185486 425.155605 
L 468.419097 425.144162 
L 471.652708 425.287452 
L 478.119931 425.016004 
L 484.587153 425.211673 
L 487.820764 425.392203 
L 494.287986 425.445332 
L 500.755208 425.209639 
L 507.22243 425.312713 
L 510.456041 425.48983 
L 516.923263 425.497715 
L 526.624096 424.989992 
L 539.55854 425.346876 
L 542.792151 425.123816 
L 546.025762 424.780327 
L 549.259373 424.626028 
L 562.193817 425.036142 
L 568.661039 424.365576 
L 571.89465 424.178508 
L 578.361872 424.686331 
L 581.595483 424.68607 
L 584.829094 424.816948 
L 591.296316 423.978282 
L 594.529927 423.844929 
L 597.763538 423.959815 
L 600.997149 424.320354 
L 604.23076 424.43249 
L 607.464371 424.38067 
L 613.931593 423.306799 
L 617.165204 423.06432 
L 620.398815 423.417899 
L 623.632426 423.927666 
L 630.099648 423.932563 
L 633.333259 423.343005 
L 636.56687 422.874308 
L 639.800481 422.541564 
L 643.034092 422.957666 
L 646.267703 423.514404 
L 649.501314 423.608338 
L 652.734925 423.870232 
L 659.202147 423.048871 
L 662.435758 422.958742 
L 668.90298 423.867393 
L 675.370202 424.185557 
L 678.603813 423.923422 
L 681.837424 423.500715 
L 685.071035 423.431429 
L 688.304646 423.578001 
L 691.538257 423.837845 
L 694.771868 423.826388 
L 698.005479 423.936857 
L 701.23909 423.499663 
L 704.472701 423.178688 
L 707.706312 423.130211 
L 710.939923 423.252947 
L 714.173534 423.735917 
L 717.407145 423.78439 
L 720.640756 423.667879 
L 723.874367 423.085108 
L 730.341589 422.226378 
L 733.5752 422.510802 
L 736.808811 423.125404 
L 740.042422 423.187538 
L 743.276033 423.449309 
L 746.509644 423.09904 
L 749.743255 422.552166 
L 752.976866 422.265415 
L 756.210477 422.447299 
L 759.444088 422.892683 
L 762.677699 422.942148 
L 765.91131 423.274647 
L 769.144921 422.813552 
L 772.378532 422.18726 
L 778.845754 421.827779 
L 782.079365 422.332979 
L 785.312977 422.377137 
L 788.546588 422.295427 
L 791.780199 421.589632 
L 795.01381 420.32607 
L 798.247421 419.52764 
L 801.481032 419.320447 
L 804.714643 420.033211 
L 807.948254 420.266614 
L 811.181865 420.18645 
L 814.415476 419.042164 
L 817.649087 417.251047 
L 820.882698 415.969786 
L 824.116309 415.948494 
L 827.34992 416.96774 
L 833.817142 417.570346 
L 837.050753 415.753444 
L 840.284364 413.543156 
L 843.517975 411.172781 
L 846.751586 410.297446 
L 849.985197 411.546282 
L 856.452419 412.273883 
L 859.68603 411.003598 
L 862.919641 408.472087 
L 866.153252 406.796685 
L 869.386863 407.593996 
L 872.620474 409.399497 
L 875.854085 410.802434 
L 879.087696 411.759173 
L 882.321307 410.762529 
L 882.321307 410.762529 
" style="fill:none;stroke:#e24a33;stroke-dasharray:1.5,2.475;stroke-dashoffset:0;stroke-width:1.5;"/>
   </g>
   <g id="line2d_37">
    <path clip-path="url(#ped12f662c1)" d="M 73.918554 218.445493 
L 77.152165 194.206808 
L 80.385776 224.689218 
L 83.619387 210.125789 
L 86.852998 175.258689 
L 90.086609 171.547032 
L 93.32022 178.09196 
L 96.553831 201.55952 
L 99.787442 233.15362 
L 103.021053 230.657838 
L 106.254664 239.76734 
L 109.488275 246.509259 
L 112.721886 228.922295 
L 115.955497 232.837311 
L 119.189108 219.332281 
L 122.422719 211.051178 
L 128.889941 225.578611 
L 132.123552 251.515031 
L 135.357163 284.28822 
L 138.590774 294.591929 
L 141.824385 302.161245 
L 145.057996 305.580098 
L 148.291607 308.460319 
L 151.525218 317.220087 
L 154.758829 330.40298 
L 157.99244 347.120766 
L 161.226051 359.952765 
L 170.926885 396.610317 
L 174.160496 407.167401 
L 177.394107 413.342208 
L 183.861329 417.410793 
L 187.09494 419.660979 
L 190.328551 422.410973 
L 193.562162 428.046682 
L 196.795773 432.3901 
L 200.029384 437.154287 
L 203.262995 442.538842 
L 206.496606 445.062094 
L 209.730217 449.153104 
L 212.963828 452.526277 
L 219.43105 455.999311 
L 222.664661 453.855334 
L 225.898272 449.446292 
L 229.131883 445.472956 
L 232.365494 441.061151 
L 235.599105 438.778281 
L 238.832716 437.310978 
L 242.066327 436.501266 
L 245.299938 438.837463 
L 248.533549 442.567665 
L 251.76716 446.916144 
L 255.000771 450.534827 
L 258.234382 452.102762 
L 261.467993 453.483337 
L 264.701604 453.441234 
L 267.935215 453.995318 
L 271.168826 455.645304 
L 274.402437 456.636953 
L 277.636048 458.84409 
L 280.869659 458.859444 
L 284.10327 456.102106 
L 287.336881 451.929725 
L 290.570492 441.23448 
L 293.804103 432.693193 
L 297.037714 430.089686 
L 300.271325 426.233762 
L 303.504936 426.079061 
L 306.738547 427.052212 
L 309.972158 426.882743 
L 313.205769 435.543754 
L 316.43938 441.046305 
L 319.672991 443.767974 
L 322.906602 447.310045 
L 329.373824 443.831445 
L 332.607435 443.892777 
L 335.841046 439.248147 
L 339.074657 440.810674 
L 342.308268 441.776732 
L 345.541879 439.389373 
L 348.77549 441.336861 
L 352.009101 444.044302 
L 355.242712 443.776236 
L 358.476323 444.77574 
L 361.709934 438.097969 
L 364.943545 425.800251 
L 368.177156 423.70257 
L 371.410767 424.374544 
L 374.644378 424.833128 
L 377.877989 430.863521 
L 381.1116 433.922271 
L 384.345211 434.419656 
L 387.578822 440.482059 
L 390.812433 439.745853 
L 394.046044 436.562279 
L 397.279655 431.524314 
L 400.513266 425.530938 
L 403.746877 423.574301 
L 406.980488 426.730914 
L 410.214099 433.513038 
L 413.44771 435.035836 
L 416.681321 433.833356 
L 419.914932 430.880586 
L 423.148543 414.298025 
L 426.382154 400.15317 
L 429.615765 381.24803 
L 432.849376 363.593621 
L 436.082987 357.705539 
L 439.316598 353.816547 
L 442.550209 357.426234 
L 445.78382 377.330424 
L 449.017431 393.925346 
L 452.251042 418.156734 
L 455.484653 435.495584 
L 458.718264 441.584663 
L 461.951875 448.331027 
L 465.185486 448.54384 
L 468.419097 443.455198 
L 471.652708 442.476387 
L 474.886319 438.967514 
L 478.119931 438.588017 
L 481.353542 440.535705 
L 487.820764 438.587966 
L 491.054375 437.058099 
L 494.287986 433.721666 
L 497.521597 432.1685 
L 500.755208 431.328297 
L 503.988819 430.047155 
L 507.22243 429.205706 
L 510.456041 427.528158 
L 513.689652 421.078104 
L 520.156874 407.014586 
L 523.390485 402.48847 
L 526.624096 401.405529 
L 529.857707 401.602182 
L 533.091318 402.029919 
L 536.324929 403.488087 
L 539.55854 402.169357 
L 542.792151 399.518914 
L 546.025762 396.443851 
L 549.259373 395.15691 
L 552.492984 394.551804 
L 555.726595 393.409594 
L 558.960206 395.711658 
L 562.193817 397.23533 
L 565.427428 401.06302 
L 568.661039 405.321851 
L 571.89465 405.956638 
L 575.128261 406.912777 
L 578.361872 406.322269 
L 581.595483 404.527013 
L 584.829094 406.0455 
L 588.062705 403.928424 
L 591.296316 403.556747 
L 594.529927 404.055277 
L 597.763538 402.472206 
L 600.997149 402.77049 
L 604.23076 401.384864 
L 607.464371 397.397711 
L 610.697982 398.851767 
L 613.931593 399.424894 
L 617.165204 399.827657 
L 620.398815 400.645902 
L 623.632426 400.738689 
L 626.866037 401.968297 
L 630.099648 404.145773 
L 633.333259 405.789742 
L 636.56687 406.415725 
L 639.800481 406.212365 
L 643.034092 407.739929 
L 646.267703 411.153072 
L 649.501314 416.272381 
L 652.734925 423.219587 
L 655.968536 427.198283 
L 659.202147 428.637331 
L 662.435758 430.501588 
L 665.669369 430.853317 
L 668.90298 431.373394 
L 672.136591 431.706212 
L 675.370202 430.957369 
L 678.603813 429.25892 
L 681.837424 426.147142 
L 688.304646 419.110531 
L 691.538257 415.151021 
L 694.771868 412.916381 
L 701.23909 412.810523 
L 704.472701 415.033591 
L 707.706312 416.460421 
L 710.939923 416.302523 
L 714.173534 415.762508 
L 717.407145 412.59763 
L 720.640756 406.118496 
L 723.874367 403.217153 
L 727.107978 401.803127 
L 730.341589 400.945811 
L 733.5752 403.281209 
L 736.808811 407.154735 
L 740.042422 411.879068 
L 743.276033 417.985377 
L 746.509644 419.620368 
L 749.743255 418.162667 
L 756.210477 416.341713 
L 759.444088 415.209493 
L 762.677699 414.66637 
L 765.91131 414.973923 
L 769.144921 412.495497 
L 772.378532 411.056164 
L 775.612143 409.915314 
L 778.845754 406.412446 
L 782.079365 403.514268 
L 785.312977 397.734894 
L 788.546588 389.08455 
L 791.780199 383.934139 
L 795.01381 380.1012 
L 798.247421 378.777436 
L 801.481032 379.024486 
L 804.714643 378.928383 
L 807.948254 379.783259 
L 811.181865 379.755422 
L 814.415476 380.396898 
L 817.649087 380.861443 
L 820.882698 380.755876 
L 824.116309 381.421226 
L 827.34992 381.354044 
L 830.583531 382.301707 
L 833.817142 382.280417 
L 837.050753 379.042357 
L 840.284364 376.284467 
L 843.517975 373.072585 
L 846.751586 370.864519 
L 849.985197 371.347282 
L 853.218808 373.54827 
L 856.452419 378.992548 
L 859.68603 387.756868 
L 862.919641 392.805037 
L 866.153252 397.383569 
L 869.386863 400.60869 
L 872.620474 402.871536 
L 872.620474 402.871536 
" style="fill:none;stroke:#348abd;stroke-linecap:square;stroke-width:1.5;"/>
   </g>
   <g id="line2d_38">
    <path clip-path="url(#ped12f662c1)" d="M 83.619387 218.445493 
L 86.852998 169.968122 
L 90.086609 285.654038 
L 93.32022 166.435504 
L 96.553831 35.790288 
L 99.787442 152.988746 
L 103.021053 217.361532 
L 106.254664 382.718408 
L 109.488275 391.126823 
L 112.721886 268.183565 
L 115.955497 230.202015 
L 119.189108 82.98372 
L 122.422719 29.88 
L 125.65633 244.766645 
L 128.889941 288.183197 
L 132.123552 333.159103 
L 135.357163 318.257361 
L 138.590774 281.82025 
L 141.824385 264.538661 
L 145.057996 259.292323 
L 148.291607 316.89261 
L 151.525218 341.168405 
L 154.758829 357.091077 
L 157.99244 338.418906 
L 161.226051 343.138629 
L 164.459662 356.818911 
L 167.693273 376.316825 
L 170.926885 406.716607 
L 174.160496 426.459066 
L 177.394107 440.201836 
L 180.627718 426.620345 
L 183.861329 417.038217 
L 187.09494 400.042563 
L 190.328551 390.220733 
L 193.562162 421.29279 
L 196.795773 442.21037 
L 200.029384 459.451796 
L 203.262995 466.070307 
L 206.496606 447.442144 
L 209.730217 433.391871 
L 212.963828 427.912617 
L 216.197439 438.955555 
L 219.43105 470.847436 
L 222.664661 483.064006 
L 225.898272 478.223493 
L 229.131883 459.6002 
L 232.365494 418.384027 
L 235.599105 397.049328 
L 238.832716 411.1422 
L 242.066327 439.964802 
L 245.299938 467.083919 
L 248.533549 467.952372 
L 251.76716 453.932215 
L 255.000771 434.737406 
L 258.234382 423.160738 
L 261.467993 441.581555 
L 264.701604 465.295582 
L 267.935215 478.059465 
L 271.168826 477.6164 
L 274.402437 453.637495 
L 277.636048 438.615995 
L 280.869659 434.710639 
L 284.10327 448.523097 
L 287.336881 480.745537 
L 290.570492 478.166948 
L 293.804103 458.315033 
L 297.037714 424.430824 
L 300.271325 363.749278 
L 303.504936 374.921632 
L 306.738547 430.298546 
L 313.205769 477.084044 
L 316.43938 465.127091 
L 319.672991 423.244535 
L 322.906602 424.376356 
L 326.140213 413.439488 
L 329.373824 449.350233 
L 332.607435 478.548566 
L 335.841046 465.143763 
L 339.074657 452.71717 
L 342.308268 423.673864 
L 345.541879 391.863946 
L 352.009101 456.11264 
L 355.242712 461.83705 
L 358.476323 478.77618 
L 361.709934 471.669255 
L 364.943545 421.797407 
L 368.177156 398.860471 
L 371.410767 377.632779 
L 374.644378 370.028618 
L 377.877989 447.15328 
L 381.1116 483.48 
L 384.345211 474.879339 
L 387.578822 464.010161 
L 390.812433 420.271718 
L 394.046044 381.114479 
L 397.279655 412.465433 
L 400.513266 441.999843 
L 403.746877 461.194983 
L 406.980488 439.61358 
L 410.214099 422.05653 
L 413.44771 406.575262 
L 416.681321 403.210764 
L 419.914932 459.940305 
L 423.148543 452.659427 
L 426.382154 452.777627 
L 429.615765 418.944184 
L 432.849376 305.978607 
L 436.082987 307.561279 
L 439.316598 270.874783 
L 442.550209 336.35944 
L 445.78382 411.442854 
L 449.017431 425.554683 
L 452.251042 444.211995 
L 455.484653 445.307937 
L 458.718264 423.725727 
L 465.185486 457.731386 
L 468.419097 454.066405 
L 471.652708 472.779231 
L 474.886319 445.701687 
L 478.119931 409.687444 
L 481.353542 416.874052 
L 484.587153 415.932397 
L 487.820764 455.074905 
L 491.054375 467.70022 
L 494.287986 466.002357 
L 497.521597 438.844388 
L 500.755208 398.978379 
L 503.988819 393.519019 
L 507.22243 405.060234 
L 510.456041 449.193486 
L 513.689652 458.73222 
L 516.923263 460.112216 
L 520.156874 427.101552 
L 523.390485 353.828003 
L 526.624096 344.623897 
L 529.857707 355.510727 
L 533.091318 417.510676 
L 536.324929 451.151632 
L 539.55854 461.488791 
L 542.792151 430.095705 
L 546.025762 364.035181 
L 549.259373 335.392783 
L 552.492984 336.957626 
L 555.726595 395.985237 
L 558.960206 442.143049 
L 562.193817 457.253047 
L 565.427428 422.100236 
L 568.661039 380.14963 
L 571.89465 346.058488 
L 575.128261 363.751452 
L 578.361872 425.797054 
L 581.595483 446.58656 
L 584.829094 463.946022 
L 588.062705 417.96668 
L 591.296316 367.582834 
L 594.529927 356.687896 
L 597.763538 348.931923 
L 600.997149 423.195316 
L 604.23076 450.07627 
L 607.464371 452.864519 
L 610.697982 420.054669 
L 613.931593 357.883456 
L 617.165204 328.77782 
L 620.398815 359.110317 
L 623.632426 427.207204 
L 626.866037 452.895609 
L 630.099648 458.59224 
L 633.333259 420.704174 
L 636.56687 366.490717 
L 639.800481 344.020151 
L 643.034092 370.618099 
L 646.267703 431.589087 
L 649.501314 451.472088 
L 652.734925 469.285185 
L 655.968536 444.596179 
L 659.202147 402.325876 
L 662.435758 392.650596 
L 665.669369 398.468967 
L 668.90298 441.662425 
L 672.136591 464.521888 
L 675.370202 471.74729 
L 678.603813 448.236717 
L 681.837424 404.655603 
L 685.071035 387.408694 
L 688.304646 386.579819 
L 691.538257 419.879985 
L 694.771868 439.591699 
L 698.005479 447.421197 
L 701.23909 420.520152 
L 704.472701 389.013121 
L 707.706312 387.155897 
L 710.939923 386.091609 
L 714.173534 435.44146 
L 717.407145 449.579514 
L 720.640756 446.315908 
L 723.874367 416.74005 
L 727.107978 366.858972 
L 730.341589 341.801962 
L 733.5752 365.782207 
L 736.808811 425.543277 
L 740.042422 443.578303 
L 743.276033 462.663695 
L 746.509644 443.854731 
L 749.743255 399.929302 
L 752.976866 384.546124 
L 756.210477 377.227141 
L 759.444088 415.339371 
L 762.677699 437.205194 
L 765.91131 456.290128 
L 769.144921 435.929191 
L 772.378532 396.127442 
L 775.612143 386.698996 
L 778.845754 359.878155 
L 782.079365 405.26404 
L 785.312977 429.219245 
L 788.546588 431.770056 
L 791.780199 415.64194 
L 795.01381 355.671825 
L 798.247421 326.146593 
L 801.481032 323.825274 
L 804.714643 378.43347 
L 807.948254 419.952891 
L 811.181865 433.499409 
L 814.415476 414.969217 
L 817.649087 361.655959 
L 820.882698 325.951735 
L 824.116309 328.315606 
L 827.34992 381.685286 
L 830.583531 419.213919 
L 833.817142 438.156861 
L 837.050753 414.498943 
L 840.284364 368.289597 
L 843.517975 325.802704 
L 846.751586 305.649191 
L 849.985197 362.380053 
L 853.218808 396.730745 
L 856.452419 422.700398 
L 859.68603 417.878285 
L 862.919641 383.696513 
L 866.153252 363.91265 
L 869.386863 366.999431 
L 875.854085 428.780467 
L 879.087696 445.276244 
L 882.321307 433.718208 
L 882.321307 433.718208 
" style="fill:none;stroke:#348abd;stroke-dasharray:1.5,2.475;stroke-dashoffset:0;stroke-width:1.5;"/>
   </g>
   <g id="line2d_39">
    <path clip-path="url(#ped12f662c1)" d="M 30.103125 426.515284 
L 922.903125 426.515284 
" style="fill:none;stroke:#008000;stroke-linecap:square;stroke-opacity:0.5;stroke-width:1.5;"/>
   </g>
   <g id="patch_3">
    <path d="M 30.103125 506.16 
L 30.103125 7.2 
" style="fill:none;stroke:#ffffff;stroke-linecap:square;stroke-linejoin:miter;"/>
   </g>
   <g id="patch_4">
    <path d="M 922.903125 506.16 
L 922.903125 7.2 
" style="fill:none;stroke:#ffffff;stroke-linecap:square;stroke-linejoin:miter;"/>
   </g>
   <g id="patch_5">
    <path d="M 30.103125 506.16 
L 922.903125 506.16 
" style="fill:none;stroke:#ffffff;stroke-linecap:square;stroke-linejoin:miter;"/>
   </g>
   <g id="patch_6">
    <path d="M 30.103125 7.2 
L 922.903125 7.2 
" style="fill:none;stroke:#ffffff;stroke-linecap:square;stroke-linejoin:miter;"/>
   </g>
  </g>
  <g id="axes_2">
   <g id="matplotlib.axis_3">
    <g id="ytick_9">
     <g id="line2d_40">
      <path clip-path="url(#ped12f662c1)" d="M 30.103125 483.729742 
L 922.903125 483.729742 
" style="fill:none;stroke:#ffffff;stroke-linecap:square;stroke-width:0.8;"/>
     </g>
     <g id="line2d_41">
      <defs>
       <path d="M 0 0 
L 3.5 0 
" id="mb76f89afa0" style="stroke:#555555;stroke-width:0.8;"/>
      </defs>
      <g>
       <use style="fill:#555555;stroke:#555555;stroke-width:0.8;" x="922.903125" xlink:href="#mb76f89afa0" y="483.729742"/>
      </g>
     </g>
     <g id="text_18">
      <!-- 0 -->
      <g style="fill:#555555;" transform="translate(929.903125 487.528961)scale(0.1 -0.1)">
       <use xlink:href="#DejaVuSans-48"/>
      </g>
     </g>
    </g>
    <g id="ytick_10">
     <g id="line2d_42">
      <path clip-path="url(#ped12f662c1)" d="M 30.103125 426.970145 
L 922.903125 426.970145 
" style="fill:none;stroke:#ffffff;stroke-linecap:square;stroke-width:0.8;"/>
     </g>
     <g id="line2d_43">
      <g>
       <use style="fill:#555555;stroke:#555555;stroke-width:0.8;" x="922.903125" xlink:href="#mb76f89afa0" y="426.970145"/>
      </g>
     </g>
     <g id="text_19">
      <!-- 2500 -->
      <g style="fill:#555555;" transform="translate(929.903125 430.769363)scale(0.1 -0.1)">
       <use xlink:href="#DejaVuSans-50"/>
       <use x="63.623047" xlink:href="#DejaVuSans-53"/>
       <use x="127.246094" xlink:href="#DejaVuSans-48"/>
       <use x="190.869141" xlink:href="#DejaVuSans-48"/>
      </g>
     </g>
    </g>
    <g id="ytick_11">
     <g id="line2d_44">
      <path clip-path="url(#ped12f662c1)" d="M 30.103125 370.210547 
L 922.903125 370.210547 
" style="fill:none;stroke:#ffffff;stroke-linecap:square;stroke-width:0.8;"/>
     </g>
     <g id="line2d_45">
      <g>
       <use style="fill:#555555;stroke:#555555;stroke-width:0.8;" x="922.903125" xlink:href="#mb76f89afa0" y="370.210547"/>
      </g>
     </g>
     <g id="text_20">
      <!-- 5000 -->
      <g style="fill:#555555;" transform="translate(929.903125 374.009766)scale(0.1 -0.1)">
       <use xlink:href="#DejaVuSans-53"/>
       <use x="63.623047" xlink:href="#DejaVuSans-48"/>
       <use x="127.246094" xlink:href="#DejaVuSans-48"/>
       <use x="190.869141" xlink:href="#DejaVuSans-48"/>
      </g>
     </g>
    </g>
    <g id="ytick_12">
     <g id="line2d_46">
      <path clip-path="url(#ped12f662c1)" d="M 30.103125 313.450949 
L 922.903125 313.450949 
" style="fill:none;stroke:#ffffff;stroke-linecap:square;stroke-width:0.8;"/>
     </g>
     <g id="line2d_47">
      <g>
       <use style="fill:#555555;stroke:#555555;stroke-width:0.8;" x="922.903125" xlink:href="#mb76f89afa0" y="313.450949"/>
      </g>
     </g>
     <g id="text_21">
      <!-- 7500 -->
      <g style="fill:#555555;" transform="translate(929.903125 317.250168)scale(0.1 -0.1)">
       <use xlink:href="#DejaVuSans-55"/>
       <use x="63.623047" xlink:href="#DejaVuSans-53"/>
       <use x="127.246094" xlink:href="#DejaVuSans-48"/>
       <use x="190.869141" xlink:href="#DejaVuSans-48"/>
      </g>
     </g>
    </g>
    <g id="ytick_13">
     <g id="line2d_48">
      <path clip-path="url(#ped12f662c1)" d="M 30.103125 256.691352 
L 922.903125 256.691352 
" style="fill:none;stroke:#ffffff;stroke-linecap:square;stroke-width:0.8;"/>
     </g>
     <g id="line2d_49">
      <g>
       <use style="fill:#555555;stroke:#555555;stroke-width:0.8;" x="922.903125" xlink:href="#mb76f89afa0" y="256.691352"/>
      </g>
     </g>
     <g id="text_22">
      <!-- 10000 -->
      <g style="fill:#555555;" transform="translate(929.903125 260.490571)scale(0.1 -0.1)">
       <use xlink:href="#DejaVuSans-49"/>
       <use x="63.623047" xlink:href="#DejaVuSans-48"/>
       <use x="127.246094" xlink:href="#DejaVuSans-48"/>
       <use x="190.869141" xlink:href="#DejaVuSans-48"/>
       <use x="254.492188" xlink:href="#DejaVuSans-48"/>
      </g>
     </g>
    </g>
    <g id="ytick_14">
     <g id="line2d_50">
      <path clip-path="url(#ped12f662c1)" d="M 30.103125 199.931754 
L 922.903125 199.931754 
" style="fill:none;stroke:#ffffff;stroke-linecap:square;stroke-width:0.8;"/>
     </g>
     <g id="line2d_51">
      <g>
       <use style="fill:#555555;stroke:#555555;stroke-width:0.8;" x="922.903125" xlink:href="#mb76f89afa0" y="199.931754"/>
      </g>
     </g>
     <g id="text_23">
      <!-- 12500 -->
      <g style="fill:#555555;" transform="translate(929.903125 203.730973)scale(0.1 -0.1)">
       <use xlink:href="#DejaVuSans-49"/>
       <use x="63.623047" xlink:href="#DejaVuSans-50"/>
       <use x="127.246094" xlink:href="#DejaVuSans-53"/>
       <use x="190.869141" xlink:href="#DejaVuSans-48"/>
       <use x="254.492188" xlink:href="#DejaVuSans-48"/>
      </g>
     </g>
    </g>
    <g id="ytick_15">
     <g id="line2d_52">
      <path clip-path="url(#ped12f662c1)" d="M 30.103125 143.172157 
L 922.903125 143.172157 
" style="fill:none;stroke:#ffffff;stroke-linecap:square;stroke-width:0.8;"/>
     </g>
     <g id="line2d_53">
      <g>
       <use style="fill:#555555;stroke:#555555;stroke-width:0.8;" x="922.903125" xlink:href="#mb76f89afa0" y="143.172157"/>
      </g>
     </g>
     <g id="text_24">
      <!-- 15000 -->
      <g style="fill:#555555;" transform="translate(929.903125 146.971376)scale(0.1 -0.1)">
       <use xlink:href="#DejaVuSans-49"/>
       <use x="63.623047" xlink:href="#DejaVuSans-53"/>
       <use x="127.246094" xlink:href="#DejaVuSans-48"/>
       <use x="190.869141" xlink:href="#DejaVuSans-48"/>
       <use x="254.492188" xlink:href="#DejaVuSans-48"/>
      </g>
     </g>
    </g>
    <g id="ytick_16">
     <g id="line2d_54">
      <path clip-path="url(#ped12f662c1)" d="M 30.103125 86.412559 
L 922.903125 86.412559 
" style="fill:none;stroke:#ffffff;stroke-linecap:square;stroke-width:0.8;"/>
     </g>
     <g id="line2d_55">
      <g>
       <use style="fill:#555555;stroke:#555555;stroke-width:0.8;" x="922.903125" xlink:href="#mb76f89afa0" y="86.412559"/>
      </g>
     </g>
     <g id="text_25">
      <!-- 17500 -->
      <g style="fill:#555555;" transform="translate(929.903125 90.211778)scale(0.1 -0.1)">
       <use xlink:href="#DejaVuSans-49"/>
       <use x="63.623047" xlink:href="#DejaVuSans-55"/>
       <use x="127.246094" xlink:href="#DejaVuSans-53"/>
       <use x="190.869141" xlink:href="#DejaVuSans-48"/>
       <use x="254.492188" xlink:href="#DejaVuSans-48"/>
      </g>
     </g>
    </g>
    <g id="ytick_17">
     <g id="line2d_56">
      <path clip-path="url(#ped12f662c1)" d="M 30.103125 29.652962 
L 922.903125 29.652962 
" style="fill:none;stroke:#ffffff;stroke-linecap:square;stroke-width:0.8;"/>
     </g>
     <g id="line2d_57">
      <g>
       <use style="fill:#555555;stroke:#555555;stroke-width:0.8;" x="922.903125" xlink:href="#mb76f89afa0" y="29.652962"/>
      </g>
     </g>
     <g id="text_26">
      <!-- 20000 -->
      <g style="fill:#555555;" transform="translate(929.903125 33.45218)scale(0.1 -0.1)">
       <use xlink:href="#DejaVuSans-50"/>
       <use x="63.623047" xlink:href="#DejaVuSans-48"/>
       <use x="127.246094" xlink:href="#DejaVuSans-48"/>
       <use x="190.869141" xlink:href="#DejaVuSans-48"/>
       <use x="254.492188" xlink:href="#DejaVuSans-48"/>
      </g>
     </g>
    </g>
   </g>
   <g id="line2d_58">
    <path clip-path="url(#ped12f662c1)" d="M 70.684943 482.849968 
L 77.152165 482.738341 
L 80.385776 482.43238 
L 83.619387 481.829107 
L 86.852998 481.358813 
L 90.086609 481.216103 
L 93.32022 480.538231 
L 96.553831 480.161996 
L 99.787442 479.497098 
L 103.021053 477.343477 
L 106.254664 475.870971 
L 109.488275 473.999526 
L 115.955497 467.924627 
L 119.189108 464.723386 
L 122.422719 462.22272 
L 125.65633 455.739152 
L 128.889941 448.392838 
L 132.123552 441.996843 
L 135.357163 439.061561 
L 138.590774 429.694605 
L 141.824385 417.953477 
L 145.057996 407.976762 
L 148.291607 400.993709 
L 151.525218 391.840819 
L 154.758829 380.200236 
L 157.99244 373.658287 
L 161.226051 371.423581 
L 164.459662 371.906848 
L 167.693273 367.576902 
L 170.926885 363.678328 
L 174.160496 362.400426 
L 177.394107 363.088028 
L 180.627718 356.695276 
L 183.861329 360.178694 
L 187.09494 362.711793 
L 190.328551 367.414731 
L 193.562162 371.248437 
L 196.795773 374.008575 
L 200.029384 380.329972 
L 203.262995 390.433181 
L 206.496606 394.130663 
L 209.730217 399.81311 
L 212.963828 404.733356 
L 216.197439 411.570455 
L 219.43105 417.872392 
L 222.664661 419.571937 
L 225.898272 420.749293 
L 229.131883 423.220768 
L 232.365494 424.184059 
L 235.599105 424.991667 
L 238.832716 426.658778 
L 242.066327 430.04165 
L 245.299938 435.081902 
L 251.76716 439.875655 
L 255.000771 441.954678 
L 258.234382 444.980776 
L 261.467993 447.815512 
L 264.701604 450.079409 
L 267.935215 453.67959 
L 271.168826 456.741364 
L 274.402437 457.840879 
L 277.636048 459.329602 
L 280.869659 460.487498 
L 284.10327 461.116719 
L 287.336881 462.511383 
L 290.570492 461.518901 
L 293.804103 461.92757 
L 297.037714 462.971947 
L 300.271325 462.167582 
L 303.504936 462.650849 
L 306.738547 463.789285 
L 309.972158 464.749333 
L 313.205769 466.795922 
L 316.43938 467.068368 
L 319.672991 467.117019 
L 322.906602 468.479249 
L 326.140213 468.482493 
L 329.373824 469.092253 
L 332.607435 470.561516 
L 335.841046 470.503134 
L 339.074657 470.996132 
L 345.541879 471.430748 
L 348.77549 472.84163 
L 352.009101 474.113045 
L 355.242712 473.201648 
L 358.476323 472.877307 
L 361.709934 473.347601 
L 364.943545 473.204891 
L 368.177156 473.915197 
L 371.410767 473.980065 
L 374.644378 473.847085 
L 377.877989 474.606042 
L 381.1116 475.67961 
L 384.345211 475.630959 
L 387.578822 476.016924 
L 390.812433 475.572577 
L 394.046044 475.650419 
L 397.279655 475.128231 
L 400.513266 475.935839 
L 406.980488 476.302343 
L 410.214099 476.373698 
L 419.914932 476.114226 
L 423.148543 474.453602 
L 426.382154 473.633021 
L 429.615765 472.205922 
L 432.849376 471.086947 
L 436.082987 470.681522 
L 439.316598 469.896617 
L 442.550209 469.734447 
L 445.78382 470.684765 
L 449.017431 470.405832 
L 452.251042 471.80374 
L 455.484653 472.695676 
L 458.718264 472.711893 
L 465.185486 473.516258 
L 468.419097 473.616804 
L 471.652708 474.476306 
L 478.119931 474.67091 
L 481.353542 475.021198 
L 491.054375 475.608255 
L 494.287986 475.750965 
L 497.521597 475.721774 
L 500.755208 475.916378 
L 503.988819 475.845023 
L 507.22243 475.99422 
L 510.456041 475.695827 
L 513.689652 475.086066 
L 516.923263 474.596312 
L 520.156874 474.745509 
L 533.091318 473.649238 
L 539.55854 472.079429 
L 549.259373 471.090191 
L 552.492984 470.344207 
L 555.726595 469.264153 
L 558.960206 469.085766 
L 562.193817 468.521413 
L 565.427428 468.732235 
L 568.661039 468.184099 
L 571.89465 467.386222 
L 575.128261 467.201347 
L 578.361872 466.73754 
L 581.595483 465.839117 
L 584.829094 465.297468 
L 588.062705 464.275796 
L 591.296316 464.512564 
L 594.529927 464.230388 
L 597.763538 462.657336 
L 600.997149 461.359974 
L 607.464371 459.430148 
L 610.697982 459.203109 
L 613.931593 458.797684 
L 617.165204 457.42248 
L 623.632426 455.65158 
L 626.866037 455.722935 
L 630.099648 453.715267 
L 636.56687 452.719542 
L 639.800481 453.082803 
L 643.034092 452.868738 
L 646.267703 453.517419 
L 649.501314 453.050369 
L 652.734925 454.850459 
L 655.968536 454.840729 
L 659.202147 455.168313 
L 662.435758 455.362917 
L 665.669369 456.400807 
L 668.90298 457.036514 
L 675.370202 457.74682 
L 681.837424 456.426754 
L 685.071035 455.515357 
L 688.304646 455.77483 
L 691.538257 453.890411 
L 694.771868 453.789865 
L 698.005479 452.972527 
L 701.23909 453.102263 
L 704.472701 452.735759 
L 707.706312 453.034152 
L 710.939923 450.682683 
L 714.173534 449.703174 
L 717.407145 448.302023 
L 720.640756 446.138672 
L 723.874367 444.85104 
L 727.107978 444.867257 
L 730.341589 443.524487 
L 733.5752 443.952616 
L 736.808811 444.11803 
L 743.276033 442.668228 
L 746.509644 442.457406 
L 752.976866 440.712454 
L 756.210477 440.618395 
L 759.444088 439.450769 
L 762.677699 437.764198 
L 765.91131 437.582568 
L 769.144921 434.764048 
L 772.378532 434.147801 
L 775.612143 432.363928 
L 778.845754 429.02322 
L 782.079365 423.979725 
L 785.312977 418.002128 
L 788.546588 411.002859 
L 791.780199 407.097799 
L 795.01381 403.578704 
L 798.247421 398.768733 
L 801.481032 391.295927 
L 804.714643 382.92794 
L 807.948254 373.788023 
L 811.181865 363.704275 
L 814.415476 356.88015 
L 817.649087 350.853903 
L 820.882698 341.947511 
L 824.116309 333.959003 
L 827.34992 318.88041 
L 830.583531 306.205181 
L 833.817142 283.877577 
L 837.050753 265.750184 
L 840.284364 251.608935 
L 843.517975 236.880631 
L 846.751586 212.979975 
L 849.985197 195.183409 
L 853.218808 171.055715 
L 856.452419 156.963117 
L 859.68603 147.229657 
L 862.919641 136.163157 
L 866.153252 123.374409 
L 869.386863 116.076747 
L 872.620474 105.645954 
L 872.620474 105.645954 
" style="fill:none;stroke:#000000;stroke-linecap:square;stroke-width:1.5;"/>
   </g>
   <g id="line2d_59">
    <path clip-path="url(#ped12f662c1)" d="M 70.684943 482.526439 
L 73.918554 483.48 
L 77.152165 482.2994 
L 80.385776 483.094035 
L 83.619387 482.798885 
L 86.852998 482.231289 
L 90.086609 480.596612 
L 93.32022 478.303525 
L 96.553831 480.187943 
L 99.787442 481.300431 
L 103.021053 478.348932 
L 106.254664 480.16524 
L 109.488275 477.577002 
L 112.721886 465.521263 
L 115.955497 467.995982 
L 119.189108 467.087828 
L 122.422719 460.049638 
L 125.65633 457.075435 
L 128.889941 457.75655 
L 132.123552 460.072342 
L 135.357163 420.136289 
L 138.590774 416.571786 
L 141.824385 422.315858 
L 145.057996 439.502664 
L 148.291607 391.506748 
L 151.525218 375.568653 
L 154.758829 390.235333 
L 161.226051 352.501553 
L 164.459662 340.831779 
L 167.693273 393.70902 
L 170.926885 375.863803 
L 174.160496 378.951525 
L 177.394107 359.925708 
L 180.627718 343.964909 
L 183.861329 343.55624 
L 187.09494 345.644993 
L 190.328551 348.959754 
L 193.562162 400.247726 
L 196.795773 396.683223 
L 200.029384 392.846275 
L 203.262995 370.800847 
L 206.496606 362.877207 
L 209.730217 389.894776 
L 212.963828 419.682212 
L 216.197439 426.130103 
L 219.43105 436.460349 
L 222.664661 427.287998 
L 225.898272 418.66054 
L 229.131883 406.990766 
L 232.365494 401.791587 
L 235.599105 427.923706 
L 238.832716 443.430428 
L 242.066327 443.20339 
L 245.299938 432.941254 
L 248.533549 430.330313 
L 251.76716 430.67087 
L 255.000771 437.073353 
L 258.234382 444.293174 
L 261.467993 460.617234 
L 264.701604 457.75655 
L 267.935215 454.123936 
L 271.168826 450.173468 
L 274.402437 446.51815 
L 277.636048 462.274614 
L 280.869659 465.725598 
L 284.10327 468.313836 
L 287.336881 468.177612 
L 290.570492 462.229207 
L 293.804103 454.578013 
L 297.037714 456.280801 
L 300.271325 455.32724 
L 303.504936 468.586282 
L 306.738547 475.624472 
L 309.972158 462.54706 
L 313.205769 465.612079 
L 316.43938 462.54706 
L 319.672991 463.001137 
L 322.906602 469.653362 
L 326.140213 470.493404 
L 329.373824 475.965029 
L 332.607435 472.082673 
L 335.841046 465.634783 
L 339.074657 466.815382 
L 342.308268 473.285976 
L 345.541879 469.244693 
L 348.77549 473.944388 
L 352.009101 477.168333 
L 355.242712 473.921684 
L 358.476323 475.510953 
L 361.709934 475.715287 
L 364.943545 466.906198 
L 368.177156 466.974309 
L 371.410767 477.236444 
L 374.644378 476.169364 
L 377.877989 478.893825 
L 381.1116 475.965029 
L 384.345211 474.78443 
L 387.578822 472.218896 
L 390.812433 474.48928 
L 394.046044 476.895887 
L 397.279655 478.871121 
L 400.513266 475.783399 
L 403.746877 476.509921 
L 406.980488 471.129112 
L 410.214099 477.872152 
L 413.44771 475.828806 
L 416.681321 478.121894 
L 419.914932 479.370605 
L 423.148543 475.147691 
L 426.382154 475.896918 
L 429.615765 470.561516 
L 432.849376 466.247786 
L 436.082987 470.084735 
L 439.316598 468.132205 
L 442.550209 471.537781 
L 445.78382 472.309711 
L 449.017431 470.402589 
L 452.251042 469.426324 
L 455.484653 472.900011 
L 458.718264 468.132205 
L 461.951875 477.917559 
L 465.185486 477.781336 
L 468.419097 472.42323 
L 471.652708 473.149753 
L 474.886319 472.309711 
L 478.119931 473.60383 
L 481.353542 474.148722 
L 484.587153 478.303525 
L 487.820764 478.757601 
L 491.054375 474.875245 
L 494.287986 474.716318 
L 497.521597 473.694645 
L 500.755208 474.761726 
L 503.988819 475.147691 
L 507.22243 478.09919 
L 510.456041 480.119832 
L 513.689652 474.375761 
L 516.923263 475.760695 
L 520.156874 471.605892 
L 523.390485 470.493404 
L 526.624096 471.719411 
L 529.857707 479.143567 
L 533.091318 478.076486 
L 536.324929 471.878338 
L 539.55854 473.422199 
L 542.792151 470.811258 
L 546.025762 465.226113 
L 549.259373 465.998044 
L 552.492984 476.805071 
L 555.726595 476.010437 
L 558.960206 469.358212 
L 562.193817 468.200316 
L 565.427428 463.250879 
L 568.661039 463.977402 
L 571.89465 462.047576 
L 575.128261 478.280821 
L 578.361872 472.173488 
L 581.595483 463.773068 
L 584.829094 466.906198 
L 588.062705 460.00423 
L 591.296316 457.688439 
L 594.529927 458.256035 
L 597.763538 471.129112 
L 600.997149 473.830868 
L 604.23076 461.797834 
L 607.464371 455.894836 
L 610.697982 450.922695 
L 613.931593 450.831879 
L 617.165204 451.60381 
L 620.398815 469.539843 
L 623.632426 470.992889 
L 626.866037 452.171406 
L 630.099648 449.446945 
L 633.333259 444.974289 
L 636.56687 451.331364 
L 639.800481 437.550134 
L 643.034092 465.97534 
L 646.267703 467.587313 
L 649.501314 454.714236 
L 652.734925 447.948492 
L 655.968536 449.515057 
L 659.202147 448.062011 
L 662.435758 450.150764 
L 665.669369 465.907229 
L 668.90298 469.8804 
L 672.136591 456.076466 
L 675.370202 455.21372 
L 678.603813 453.965009 
L 681.837424 450.741064 
L 685.071035 452.443852 
L 688.304646 461.298349 
L 691.538257 465.248817 
L 694.771868 449.696688 
L 698.005479 457.030028 
L 701.23909 440.774079 
L 704.472701 450.037245 
L 707.706312 446.722485 
L 710.939923 462.206503 
L 714.173534 462.683283 
L 720.640756 440.569744 
L 723.874367 433.917519 
L 727.107978 440.229187 
L 730.341589 431.579024 
L 733.5752 453.193079 
L 736.808811 462.796803 
L 740.042422 442.386051 
L 743.276033 443.566651 
L 746.509644 435.075415 
L 749.743255 434.848377 
L 752.976866 426.811218 
L 756.210477 451.717329 
L 759.444088 456.666766 
L 762.677699 436.301422 
L 765.91131 442.90824 
L 769.144921 426.902033 
L 772.378532 423.04238 
L 775.612143 425.539803 
L 778.845754 431.987693 
L 782.079365 452.353037 
L 785.312977 423.814311 
L 788.546588 419.523285 
L 791.780199 391.597563 
L 795.01381 381.199205 
L 798.247421 376.544918 
L 801.481032 404.652271 
L 804.714643 427.719371 
L 807.948254 390.144518 
L 811.181865 367.21364 
L 814.415476 333.021659 
L 817.649087 317.219787 
L 820.882698 305.958683 
L 824.116309 356.883394 
L 827.34992 385.535638 
L 830.583531 327.799776 
L 833.817142 311.294085 
L 837.050753 227.471511 
L 840.284364 228.493184 
L 843.517975 149.665455 
L 846.751586 229.991637 
L 849.985197 286.5469 
L 853.218808 224.701643 
L 856.452419 143.989495 
L 859.68603 102.895546 
L 862.919641 59.599325 
L 866.153252 51.017274 
L 869.386863 161.857416 
L 872.620474 209.081401 
L 875.854085 135.180405 
L 879.087696 92.905857 
L 882.321307 29.88 
L 882.321307 29.88 
" style="fill:none;stroke:#000000;stroke-dasharray:1.5,2.475;stroke-dashoffset:0;stroke-width:1.5;"/>
   </g>
   <g id="patch_7">
    <path d="M 30.103125 506.16 
L 30.103125 7.2 
" style="fill:none;stroke:#ffffff;stroke-linecap:square;stroke-linejoin:miter;"/>
   </g>
   <g id="patch_8">
    <path d="M 922.903125 506.16 
L 922.903125 7.2 
" style="fill:none;stroke:#ffffff;stroke-linecap:square;stroke-linejoin:miter;"/>
   </g>
   <g id="patch_9">
    <path d="M 30.103125 506.16 
L 922.903125 506.16 
" style="fill:none;stroke:#ffffff;stroke-linecap:square;stroke-linejoin:miter;"/>
   </g>
   <g id="patch_10">
    <path d="M 30.103125 7.2 
L 922.903125 7.2 
" style="fill:none;stroke:#ffffff;stroke-linecap:square;stroke-linejoin:miter;"/>
   </g>
   <g id="legend_1">
    <g id="patch_11">
     <path d="M 37.103125 103.26875 
L 194.298438 103.26875 
Q 196.298438 103.26875 196.298438 101.26875 
L 196.298438 14.2 
Q 196.298438 12.2 194.298438 12.2 
L 37.103125 12.2 
Q 35.103125 12.2 35.103125 14.2 
L 35.103125 101.26875 
Q 35.103125 103.26875 37.103125 103.26875 
z
" style="fill:#e5e5e5;opacity:0.8;stroke:#cccccc;stroke-linejoin:miter;stroke-width:0.5;"/>
    </g>
    <g id="line2d_60">
     <path d="M 39.103125 20.298438 
L 59.103125 20.298438 
" style="fill:none;stroke:#e24a33;stroke-linecap:square;stroke-width:1.5;"/>
    </g>
    <g id="line2d_61"/>
    <g id="text_27">
     <!-- Logistic rate rolling week -->
     <g transform="translate(67.103125 23.798438)scale(0.1 -0.1)">
      <defs>
       <path d="M 9.8125 72.90625 
L 19.671875 72.90625 
L 19.671875 8.296875 
L 55.171875 8.296875 
L 55.171875 0 
L 9.8125 0 
z
" id="DejaVuSans-76"/>
       <path d="M 30.609375 48.390625 
Q 23.390625 48.390625 19.1875 42.75 
Q 14.984375 37.109375 14.984375 27.296875 
Q 14.984375 17.484375 19.15625 11.84375 
Q 23.34375 6.203125 30.609375 6.203125 
Q 37.796875 6.203125 41.984375 11.859375 
Q 46.1875 17.53125 46.1875 27.296875 
Q 46.1875 37.015625 41.984375 42.703125 
Q 37.796875 48.390625 30.609375 48.390625 
z
M 30.609375 56 
Q 42.328125 56 49.015625 48.375 
Q 55.71875 40.765625 55.71875 27.296875 
Q 55.71875 13.875 49.015625 6.21875 
Q 42.328125 -1.421875 30.609375 -1.421875 
Q 18.84375 -1.421875 12.171875 6.21875 
Q 5.515625 13.875 5.515625 27.296875 
Q 5.515625 40.765625 12.171875 48.375 
Q 18.84375 56 30.609375 56 
z
" id="DejaVuSans-111"/>
       <path d="M 45.40625 27.984375 
Q 45.40625 37.75 41.375 43.109375 
Q 37.359375 48.484375 30.078125 48.484375 
Q 22.859375 48.484375 18.828125 43.109375 
Q 14.796875 37.75 14.796875 27.984375 
Q 14.796875 18.265625 18.828125 12.890625 
Q 22.859375 7.515625 30.078125 7.515625 
Q 37.359375 7.515625 41.375 12.890625 
Q 45.40625 18.265625 45.40625 27.984375 
z
M 54.390625 6.78125 
Q 54.390625 -7.171875 48.1875 -13.984375 
Q 42 -20.796875 29.203125 -20.796875 
Q 24.46875 -20.796875 20.265625 -20.09375 
Q 16.0625 -19.390625 12.109375 -17.921875 
L 12.109375 -9.1875 
Q 16.0625 -11.328125 19.921875 -12.34375 
Q 23.78125 -13.375 27.78125 -13.375 
Q 36.625 -13.375 41.015625 -8.765625 
Q 45.40625 -4.15625 45.40625 5.171875 
L 45.40625 9.625 
Q 42.625 4.78125 38.28125 2.390625 
Q 33.9375 0 27.875 0 
Q 17.828125 0 11.671875 7.65625 
Q 5.515625 15.328125 5.515625 27.984375 
Q 5.515625 40.671875 11.671875 48.328125 
Q 17.828125 56 27.875 56 
Q 33.9375 56 38.28125 53.609375 
Q 42.625 51.21875 45.40625 46.390625 
L 45.40625 54.6875 
L 54.390625 54.6875 
z
" id="DejaVuSans-103"/>
       <path d="M 9.421875 54.6875 
L 18.40625 54.6875 
L 18.40625 0 
L 9.421875 0 
z
M 9.421875 75.984375 
L 18.40625 75.984375 
L 18.40625 64.59375 
L 9.421875 64.59375 
z
" id="DejaVuSans-105"/>
       <path d="M 44.28125 53.078125 
L 44.28125 44.578125 
Q 40.484375 46.53125 36.375 47.5 
Q 32.28125 48.484375 27.875 48.484375 
Q 21.1875 48.484375 17.84375 46.4375 
Q 14.5 44.390625 14.5 40.28125 
Q 14.5 37.15625 16.890625 35.375 
Q 19.28125 33.59375 26.515625 31.984375 
L 29.59375 31.296875 
Q 39.15625 29.25 43.1875 25.515625 
Q 47.21875 21.78125 47.21875 15.09375 
Q 47.21875 7.46875 41.1875 3.015625 
Q 35.15625 -1.421875 24.609375 -1.421875 
Q 20.21875 -1.421875 15.453125 -0.5625 
Q 10.6875 0.296875 5.421875 2 
L 5.421875 11.28125 
Q 10.40625 8.6875 15.234375 7.390625 
Q 20.0625 6.109375 24.8125 6.109375 
Q 31.15625 6.109375 34.5625 8.28125 
Q 37.984375 10.453125 37.984375 14.40625 
Q 37.984375 18.0625 35.515625 20.015625 
Q 33.0625 21.96875 24.703125 23.78125 
L 21.578125 24.515625 
Q 13.234375 26.265625 9.515625 29.90625 
Q 5.8125 33.546875 5.8125 39.890625 
Q 5.8125 47.609375 11.28125 51.796875 
Q 16.75 56 26.8125 56 
Q 31.78125 56 36.171875 55.265625 
Q 40.578125 54.546875 44.28125 53.078125 
z
" id="DejaVuSans-115"/>
       <path d="M 18.3125 70.21875 
L 18.3125 54.6875 
L 36.8125 54.6875 
L 36.8125 47.703125 
L 18.3125 47.703125 
L 18.3125 18.015625 
Q 18.3125 11.328125 20.140625 9.421875 
Q 21.96875 7.515625 27.59375 7.515625 
L 36.8125 7.515625 
L 36.8125 0 
L 27.59375 0 
Q 17.1875 0 13.234375 3.875 
Q 9.28125 7.765625 9.28125 18.015625 
L 9.28125 47.703125 
L 2.6875 47.703125 
L 2.6875 54.6875 
L 9.28125 54.6875 
L 9.28125 70.21875 
z
" id="DejaVuSans-116"/>
       <path d="M 48.78125 52.59375 
L 48.78125 44.1875 
Q 44.96875 46.296875 41.140625 47.34375 
Q 37.3125 48.390625 33.40625 48.390625 
Q 24.65625 48.390625 19.8125 42.84375 
Q 14.984375 37.3125 14.984375 27.296875 
Q 14.984375 17.28125 19.8125 11.734375 
Q 24.65625 6.203125 33.40625 6.203125 
Q 37.3125 6.203125 41.140625 7.25 
Q 44.96875 8.296875 48.78125 10.40625 
L 48.78125 2.09375 
Q 45.015625 0.34375 40.984375 -0.53125 
Q 36.96875 -1.421875 32.421875 -1.421875 
Q 20.0625 -1.421875 12.78125 6.34375 
Q 5.515625 14.109375 5.515625 27.296875 
Q 5.515625 40.671875 12.859375 48.328125 
Q 20.21875 56 33.015625 56 
Q 37.15625 56 41.109375 55.140625 
Q 45.0625 54.296875 48.78125 52.59375 
z
" id="DejaVuSans-99"/>
       <path id="DejaVuSans-32"/>
       <path d="M 41.109375 46.296875 
Q 39.59375 47.171875 37.8125 47.578125 
Q 36.03125 48 33.890625 48 
Q 26.265625 48 22.1875 43.046875 
Q 18.109375 38.09375 18.109375 28.8125 
L 18.109375 0 
L 9.078125 0 
L 9.078125 54.6875 
L 18.109375 54.6875 
L 18.109375 46.1875 
Q 20.953125 51.171875 25.484375 53.578125 
Q 30.03125 56 36.53125 56 
Q 37.453125 56 38.578125 55.875 
Q 39.703125 55.765625 41.0625 55.515625 
z
" id="DejaVuSans-114"/>
       <path d="M 34.28125 27.484375 
Q 23.390625 27.484375 19.1875 25 
Q 14.984375 22.515625 14.984375 16.5 
Q 14.984375 11.71875 18.140625 8.90625 
Q 21.296875 6.109375 26.703125 6.109375 
Q 34.1875 6.109375 38.703125 11.40625 
Q 43.21875 16.703125 43.21875 25.484375 
L 43.21875 27.484375 
z
M 52.203125 31.203125 
L 52.203125 0 
L 43.21875 0 
L 43.21875 8.296875 
Q 40.140625 3.328125 35.546875 0.953125 
Q 30.953125 -1.421875 24.3125 -1.421875 
Q 15.921875 -1.421875 10.953125 3.296875 
Q 6 8.015625 6 15.921875 
Q 6 25.140625 12.171875 29.828125 
Q 18.359375 34.515625 30.609375 34.515625 
L 43.21875 34.515625 
L 43.21875 35.40625 
Q 43.21875 41.609375 39.140625 45 
Q 35.0625 48.390625 27.6875 48.390625 
Q 23 48.390625 18.546875 47.265625 
Q 14.109375 46.140625 10.015625 43.890625 
L 10.015625 52.203125 
Q 14.9375 54.109375 19.578125 55.046875 
Q 24.21875 56 28.609375 56 
Q 40.484375 56 46.34375 49.84375 
Q 52.203125 43.703125 52.203125 31.203125 
z
" id="DejaVuSans-97"/>
       <path d="M 56.203125 29.59375 
L 56.203125 25.203125 
L 14.890625 25.203125 
Q 15.484375 15.921875 20.484375 11.0625 
Q 25.484375 6.203125 34.421875 6.203125 
Q 39.59375 6.203125 44.453125 7.46875 
Q 49.3125 8.734375 54.109375 11.28125 
L 54.109375 2.78125 
Q 49.265625 0.734375 44.1875 -0.34375 
Q 39.109375 -1.421875 33.890625 -1.421875 
Q 20.796875 -1.421875 13.15625 6.1875 
Q 5.515625 13.8125 5.515625 26.8125 
Q 5.515625 40.234375 12.765625 48.109375 
Q 20.015625 56 32.328125 56 
Q 43.359375 56 49.78125 48.890625 
Q 56.203125 41.796875 56.203125 29.59375 
z
M 47.21875 32.234375 
Q 47.125 39.59375 43.09375 43.984375 
Q 39.0625 48.390625 32.421875 48.390625 
Q 24.90625 48.390625 20.390625 44.140625 
Q 15.875 39.890625 15.1875 32.171875 
z
" id="DejaVuSans-101"/>
       <path d="M 9.421875 75.984375 
L 18.40625 75.984375 
L 18.40625 0 
L 9.421875 0 
z
" id="DejaVuSans-108"/>
       <path d="M 54.890625 33.015625 
L 54.890625 0 
L 45.90625 0 
L 45.90625 32.71875 
Q 45.90625 40.484375 42.875 44.328125 
Q 39.84375 48.1875 33.796875 48.1875 
Q 26.515625 48.1875 22.3125 43.546875 
Q 18.109375 38.921875 18.109375 30.90625 
L 18.109375 0 
L 9.078125 0 
L 9.078125 54.6875 
L 18.109375 54.6875 
L 18.109375 46.1875 
Q 21.34375 51.125 25.703125 53.5625 
Q 30.078125 56 35.796875 56 
Q 45.21875 56 50.046875 50.171875 
Q 54.890625 44.34375 54.890625 33.015625 
z
" id="DejaVuSans-110"/>
       <path d="M 4.203125 54.6875 
L 13.1875 54.6875 
L 24.421875 12.015625 
L 35.59375 54.6875 
L 46.1875 54.6875 
L 57.421875 12.015625 
L 68.609375 54.6875 
L 77.59375 54.6875 
L 63.28125 0 
L 52.6875 0 
L 40.921875 44.828125 
L 29.109375 0 
L 18.5 0 
z
" id="DejaVuSans-119"/>
       <path d="M 9.078125 75.984375 
L 18.109375 75.984375 
L 18.109375 31.109375 
L 44.921875 54.6875 
L 56.390625 54.6875 
L 27.390625 29.109375 
L 57.625 0 
L 45.90625 0 
L 18.109375 26.703125 
L 18.109375 0 
L 9.078125 0 
z
" id="DejaVuSans-107"/>
      </defs>
      <use xlink:href="#DejaVuSans-76"/>
      <use x="53.962891" xlink:href="#DejaVuSans-111"/>
      <use x="115.144531" xlink:href="#DejaVuSans-103"/>
      <use x="178.621094" xlink:href="#DejaVuSans-105"/>
      <use x="206.404297" xlink:href="#DejaVuSans-115"/>
      <use x="258.503906" xlink:href="#DejaVuSans-116"/>
      <use x="297.712891" xlink:href="#DejaVuSans-105"/>
      <use x="325.496094" xlink:href="#DejaVuSans-99"/>
      <use x="380.476562" xlink:href="#DejaVuSans-32"/>
      <use x="412.263672" xlink:href="#DejaVuSans-114"/>
      <use x="453.376953" xlink:href="#DejaVuSans-97"/>
      <use x="514.65625" xlink:href="#DejaVuSans-116"/>
      <use x="553.865234" xlink:href="#DejaVuSans-101"/>
      <use x="615.388672" xlink:href="#DejaVuSans-32"/>
      <use x="647.175781" xlink:href="#DejaVuSans-114"/>
      <use x="686.039062" xlink:href="#DejaVuSans-111"/>
      <use x="747.220703" xlink:href="#DejaVuSans-108"/>
      <use x="775.003906" xlink:href="#DejaVuSans-108"/>
      <use x="802.787109" xlink:href="#DejaVuSans-105"/>
      <use x="830.570312" xlink:href="#DejaVuSans-110"/>
      <use x="893.949219" xlink:href="#DejaVuSans-103"/>
      <use x="957.425781" xlink:href="#DejaVuSans-32"/>
      <use x="989.212891" xlink:href="#DejaVuSans-119"/>
      <use x="1071" xlink:href="#DejaVuSans-101"/>
      <use x="1132.523438" xlink:href="#DejaVuSans-101"/>
      <use x="1194.046875" xlink:href="#DejaVuSans-107"/>
     </g>
    </g>
    <g id="line2d_62">
     <path d="M 39.103125 34.976563 
L 59.103125 34.976563 
" style="fill:none;stroke:#e24a33;stroke-dasharray:1.5,2.475;stroke-dashoffset:0;stroke-width:1.5;"/>
    </g>
    <g id="line2d_63"/>
    <g id="text_28">
     <!-- Logistic rate -->
     <g transform="translate(67.103125 38.476563)scale(0.1 -0.1)">
      <use xlink:href="#DejaVuSans-76"/>
      <use x="53.962891" xlink:href="#DejaVuSans-111"/>
      <use x="115.144531" xlink:href="#DejaVuSans-103"/>
      <use x="178.621094" xlink:href="#DejaVuSans-105"/>
      <use x="206.404297" xlink:href="#DejaVuSans-115"/>
      <use x="258.503906" xlink:href="#DejaVuSans-116"/>
      <use x="297.712891" xlink:href="#DejaVuSans-105"/>
      <use x="325.496094" xlink:href="#DejaVuSans-99"/>
      <use x="380.476562" xlink:href="#DejaVuSans-32"/>
      <use x="412.263672" xlink:href="#DejaVuSans-114"/>
      <use x="453.376953" xlink:href="#DejaVuSans-97"/>
      <use x="514.65625" xlink:href="#DejaVuSans-116"/>
      <use x="553.865234" xlink:href="#DejaVuSans-101"/>
     </g>
    </g>
    <g id="line2d_64">
     <path d="M 39.103125 49.654688 
L 59.103125 49.654688 
" style="fill:none;stroke:#348abd;stroke-linecap:square;stroke-width:1.5;"/>
    </g>
    <g id="line2d_65"/>
    <g id="text_29">
     <!-- RKI rate rolling week -->
     <g transform="translate(67.103125 53.154688)scale(0.1 -0.1)">
      <defs>
       <path d="M 44.390625 34.1875 
Q 47.5625 33.109375 50.5625 29.59375 
Q 53.5625 26.078125 56.59375 19.921875 
L 66.609375 0 
L 56 0 
L 46.6875 18.703125 
Q 43.0625 26.03125 39.671875 28.421875 
Q 36.28125 30.8125 30.421875 30.8125 
L 19.671875 30.8125 
L 19.671875 0 
L 9.8125 0 
L 9.8125 72.90625 
L 32.078125 72.90625 
Q 44.578125 72.90625 50.734375 67.671875 
Q 56.890625 62.453125 56.890625 51.90625 
Q 56.890625 45.015625 53.6875 40.46875 
Q 50.484375 35.9375 44.390625 34.1875 
z
M 19.671875 64.796875 
L 19.671875 38.921875 
L 32.078125 38.921875 
Q 39.203125 38.921875 42.84375 42.21875 
Q 46.484375 45.515625 46.484375 51.90625 
Q 46.484375 58.296875 42.84375 61.546875 
Q 39.203125 64.796875 32.078125 64.796875 
z
" id="DejaVuSans-82"/>
       <path d="M 9.8125 72.90625 
L 19.671875 72.90625 
L 19.671875 42.09375 
L 52.390625 72.90625 
L 65.09375 72.90625 
L 28.90625 38.921875 
L 67.671875 0 
L 54.6875 0 
L 19.671875 35.109375 
L 19.671875 0 
L 9.8125 0 
z
" id="DejaVuSans-75"/>
       <path d="M 9.8125 72.90625 
L 19.671875 72.90625 
L 19.671875 0 
L 9.8125 0 
z
" id="DejaVuSans-73"/>
      </defs>
      <use xlink:href="#DejaVuSans-82"/>
      <use x="69.482422" xlink:href="#DejaVuSans-75"/>
      <use x="135.058594" xlink:href="#DejaVuSans-73"/>
      <use x="164.550781" xlink:href="#DejaVuSans-32"/>
      <use x="196.337891" xlink:href="#DejaVuSans-114"/>
      <use x="237.451172" xlink:href="#DejaVuSans-97"/>
      <use x="298.730469" xlink:href="#DejaVuSans-116"/>
      <use x="337.939453" xlink:href="#DejaVuSans-101"/>
      <use x="399.462891" xlink:href="#DejaVuSans-32"/>
      <use x="431.25" xlink:href="#DejaVuSans-114"/>
      <use x="470.113281" xlink:href="#DejaVuSans-111"/>
      <use x="531.294922" xlink:href="#DejaVuSans-108"/>
      <use x="559.078125" xlink:href="#DejaVuSans-108"/>
      <use x="586.861328" xlink:href="#DejaVuSans-105"/>
      <use x="614.644531" xlink:href="#DejaVuSans-110"/>
      <use x="678.023438" xlink:href="#DejaVuSans-103"/>
      <use x="741.5" xlink:href="#DejaVuSans-32"/>
      <use x="773.287109" xlink:href="#DejaVuSans-119"/>
      <use x="855.074219" xlink:href="#DejaVuSans-101"/>
      <use x="916.597656" xlink:href="#DejaVuSans-101"/>
      <use x="978.121094" xlink:href="#DejaVuSans-107"/>
     </g>
    </g>
    <g id="line2d_66">
     <path d="M 39.103125 64.332813 
L 59.103125 64.332813 
" style="fill:none;stroke:#348abd;stroke-dasharray:1.5,2.475;stroke-dashoffset:0;stroke-width:1.5;"/>
    </g>
    <g id="line2d_67"/>
    <g id="text_30">
     <!-- RKI rate -->
     <g transform="translate(67.103125 67.832813)scale(0.1 -0.1)">
      <use xlink:href="#DejaVuSans-82"/>
      <use x="69.482422" xlink:href="#DejaVuSans-75"/>
      <use x="135.058594" xlink:href="#DejaVuSans-73"/>
      <use x="164.550781" xlink:href="#DejaVuSans-32"/>
      <use x="196.337891" xlink:href="#DejaVuSans-114"/>
      <use x="237.451172" xlink:href="#DejaVuSans-97"/>
      <use x="298.730469" xlink:href="#DejaVuSans-116"/>
      <use x="337.939453" xlink:href="#DejaVuSans-101"/>
     </g>
    </g>
    <g id="line2d_68">
     <path d="M 39.103125 79.010938 
L 59.103125 79.010938 
" style="fill:none;stroke:#000000;stroke-linecap:square;stroke-width:1.5;"/>
    </g>
    <g id="line2d_69"/>
    <g id="text_31">
     <!-- New Cases rolling week -->
     <g transform="translate(67.103125 82.510938)scale(0.1 -0.1)">
      <defs>
       <path d="M 9.8125 72.90625 
L 23.09375 72.90625 
L 55.421875 11.921875 
L 55.421875 72.90625 
L 64.984375 72.90625 
L 64.984375 0 
L 51.703125 0 
L 19.390625 60.984375 
L 19.390625 0 
L 9.8125 0 
z
" id="DejaVuSans-78"/>
       <path d="M 64.40625 67.28125 
L 64.40625 56.890625 
Q 59.421875 61.53125 53.78125 63.8125 
Q 48.140625 66.109375 41.796875 66.109375 
Q 29.296875 66.109375 22.65625 58.46875 
Q 16.015625 50.828125 16.015625 36.375 
Q 16.015625 21.96875 22.65625 14.328125 
Q 29.296875 6.6875 41.796875 6.6875 
Q 48.140625 6.6875 53.78125 8.984375 
Q 59.421875 11.28125 64.40625 15.921875 
L 64.40625 5.609375 
Q 59.234375 2.09375 53.4375 0.328125 
Q 47.65625 -1.421875 41.21875 -1.421875 
Q 24.65625 -1.421875 15.125 8.703125 
Q 5.609375 18.84375 5.609375 36.375 
Q 5.609375 53.953125 15.125 64.078125 
Q 24.65625 74.21875 41.21875 74.21875 
Q 47.75 74.21875 53.53125 72.484375 
Q 59.328125 70.75 64.40625 67.28125 
z
" id="DejaVuSans-67"/>
      </defs>
      <use xlink:href="#DejaVuSans-78"/>
      <use x="74.804688" xlink:href="#DejaVuSans-101"/>
      <use x="136.328125" xlink:href="#DejaVuSans-119"/>
      <use x="218.115234" xlink:href="#DejaVuSans-32"/>
      <use x="249.902344" xlink:href="#DejaVuSans-67"/>
      <use x="319.726562" xlink:href="#DejaVuSans-97"/>
      <use x="381.005859" xlink:href="#DejaVuSans-115"/>
      <use x="433.105469" xlink:href="#DejaVuSans-101"/>
      <use x="494.628906" xlink:href="#DejaVuSans-115"/>
      <use x="546.728516" xlink:href="#DejaVuSans-32"/>
      <use x="578.515625" xlink:href="#DejaVuSans-114"/>
      <use x="617.378906" xlink:href="#DejaVuSans-111"/>
      <use x="678.560547" xlink:href="#DejaVuSans-108"/>
      <use x="706.34375" xlink:href="#DejaVuSans-108"/>
      <use x="734.126953" xlink:href="#DejaVuSans-105"/>
      <use x="761.910156" xlink:href="#DejaVuSans-110"/>
      <use x="825.289062" xlink:href="#DejaVuSans-103"/>
      <use x="888.765625" xlink:href="#DejaVuSans-32"/>
      <use x="920.552734" xlink:href="#DejaVuSans-119"/>
      <use x="1002.339844" xlink:href="#DejaVuSans-101"/>
      <use x="1063.863281" xlink:href="#DejaVuSans-101"/>
      <use x="1125.386719" xlink:href="#DejaVuSans-107"/>
     </g>
    </g>
    <g id="line2d_70">
     <path d="M 39.103125 93.689063 
L 59.103125 93.689063 
" style="fill:none;stroke:#000000;stroke-dasharray:1.5,2.475;stroke-dashoffset:0;stroke-width:1.5;"/>
    </g>
    <g id="line2d_71"/>
    <g id="text_32">
     <!-- New Cases -->
     <g transform="translate(67.103125 97.189063)scale(0.1 -0.1)">
      <use xlink:href="#DejaVuSans-78"/>
      <use x="74.804688" xlink:href="#DejaVuSans-101"/>
      <use x="136.328125" xlink:href="#DejaVuSans-119"/>
      <use x="218.115234" xlink:href="#DejaVuSans-32"/>
      <use x="249.902344" xlink:href="#DejaVuSans-67"/>
      <use x="319.726562" xlink:href="#DejaVuSans-97"/>
      <use x="381.005859" xlink:href="#DejaVuSans-115"/>
      <use x="433.105469" xlink:href="#DejaVuSans-101"/>
      <use x="494.628906" xlink:href="#DejaVuSans-115"/>
     </g>
    </g>
   </g>
  </g>
 </g>
 <defs>
  <clipPath id="ped12f662c1">
   <rect height="498.96" width="892.8" x="30.103125" y="7.2"/>
  </clipPath>
 </defs>
</svg>
